<svg xmlns="http://www.w3.org/2000/svg" xmlns:xlink="http://www.w3.org/1999/xlink" width="23.355" height="23.355" viewBox="0 0 23.355 23.355"><defs><clipPath id="a"><rect class="i" width="23.355" height="23.355"/></clipPath></defs><g class="b"><g class="c"><g transform="translate(0 0)"><path class="circle" d="M19.936,3.42a11.678,11.678,0,1,0,0,16.516A11.679,11.679,0,0,0,19.936,3.42ZM13.2,16.755a1.523,1.523,0,0,1-3.046,0V10.662a1.523,1.523,0,1,1,3.046,0Zm-1.55-8.7A1.358,1.358,0,0,1,10.207,6.67a1.358,1.358,0,0,1,1.462-1.407,1.4,1.4,0,1,1-.018,2.8Z" transform="translate(0 0)"/></g></g></g></svg>