<svg xmlns="http://www.w3.org/2000/svg" width="28.554" height="37.866" viewBox="0 0 28.554 37.866"><defs><style>.outline{fill:#000;}.circle{fill:#ccc;}.tick{fill:#fff}</style></defs><path class="outline" d="M14.4,0A14.293,14.293,0,0,0,.125,14.277c0,7.689,13.248,22.742,13.812,23.379a.621.621,0,0,0,.931,0c.562-.637,13.811-15.69,13.811-23.379A14.293,14.293,0,0,0,14.4,0Zm0,36.3C12.026,33.525,1.367,20.728,1.367,14.277a13.036,13.036,0,1,1,26.072,0C27.438,20.726,16.777,33.524,14.4,36.3Zm0,0" transform="translate(-0.125)"/><path class="circle" d="M134.186,109.16a9.311,9.311,0,1,0,9.311,9.311A9.311,9.311,0,0,0,134.186,109.16Z" transform="translate(-119.909 -104.815)"/><path class="tick" d="M75.971,79.14,71.78,83.331l-1.788-1.788a.868.868,0,0,0-1.228,1.228l2.4,2.4a.868.868,0,0,0,1.228,0l4.8-4.8a.868.868,0,0,0-1.228-1.228Z" transform="translate(-58.368 -68.191)"/></svg>