<svg id="svg2" xmlns="http://www.w3.org/2000/svg" viewBox="0 0 144.43 138.27"><defs><style>.cls-1,.cls-2{fill:#fff;}.cls-2{fill-rule:evenodd;}</style></defs><title>IUCN_logo(W)</title><g id="layer2"><path id="path3237" class="cls-1" d="M42.38,88.91V56.33h6.48V88.91H42.38" transform="translate(-3.13 -2.91)"></path><path id="path3235" class="cls-1" d="M55,56.33h6.84V74a35,35,0,0,0,.26,5.45,5.34,5.34,0,0,0,2.08,3.22,7.61,7.61,0,0,0,4.53,1.2,7.23,7.23,0,0,0,4.4-1.13,4.56,4.56,0,0,0,1.78-2.83,35.23,35.23,0,0,0,.3-5.53v-18H82V73.44a42.45,42.45,0,0,1-.55,8.29,9,9,0,0,1-2.06,4.09,10.27,10.27,0,0,1-4,2.66,18,18,0,0,1-6.52,1,19.56,19.56,0,0,1-7.38-1.07,10.54,10.54,0,0,1-3.95-2.8A8.93,8.93,0,0,1,55.64,82,37.8,37.8,0,0,1,55,73.71V56.33" transform="translate(-3.13 -2.91)"></path><path id="path3233" class="cls-1" d="M86.11,72.82a21,21,0,0,1,1.47-8.36,15.35,15.35,0,0,1,3-4.46,12.69,12.69,0,0,1,4.16-2.94,17.4,17.4,0,0,1,6.92-1.28q7.1,0,11.34,4.46a14.92,14.92,0,0,1,3.74,7.24l-6.79.08a9,9,0,0,0-1.81-3.41,8.85,8.85,0,0,0-12.87,0Q92.79,67,92.79,72.6m0,0q0,5.52,2.52,8.4a8.19,8.19,0,0,0,6.4,2.84A8.07,8.07,0,0,0,108.06,81a9.48,9.48,0,0,0,2-4l6.81.15A15.34,15.34,0,0,1,113,85q-4.23,4.44-11.3,4.44T90.34,85q-4.23-4.44-4.23-12.22" transform="translate(-3.13 -2.91)"></path><path id="text2454" class="cls-1" d="M120.84,88.91V56.33h5.81l14.86,22.56V56.33h6.05V88.91h-5.67L126.61,66.06l.63,22.85h-6.4" transform="translate(-3.13 -2.91)"></path><path id="path3244" class="cls-2" d="M111,106.84l21.09-.06a69.13,69.13,0,1,1,.6-68.43l-20.76-.05a52,52,0,1,0-.93,68.54Z" transform="translate(-3.13 -2.91)"></path></g></svg>