<?xml version="1.0" encoding="UTF-8"?>
<svg width="225px" height="39px" viewBox="0 0 225 39" version="1.1" xmlns="http://www.w3.org/2000/svg" xmlns:xlink="http://www.w3.org/1999/xlink">
    <!-- Generator: Sketch 49.3 (51167) - http://www.bohemiancoding.com/sketch -->
    <title>PP logo2-01</title>
    <desc>Created with Sketch.</desc>
    <defs></defs>
    <g id="Page-1" stroke="none" stroke-width="1" fill="none" fill-rule="evenodd">
        <g id="Components-styled(D)" transform="translate(-743.000000, -7765.000000)">
            <g id="PP-logo2-01" transform="translate(743.000000, 7765.000000)">
                <g id="Group">
                    <g fill-rule="nonzero" id="Shape">
                        <path d="M28.6,6.3 C28.6,6.4 28.6,6.4 28.6,6.3 C28.9,6.4 29.2,6.2 29.5,6.2 C29.9,6.2 30.3,6.5 30.7,6.6 C30.9,6.6 30.9,6.5 31.1,6.5 C31,6 30.3,6 30,5.6 C30.3,5.6 30.1,5.3 30.2,5.3 C30.1,5.3 29.6,5.4 29.6,5.5 C29.6,5.6 29.9,5.6 29.9,5.7 C29.7,6 29.4,5.8 29.2,5.7 C28.8,5.4 28.9,5.5 28.5,5.5 C28.5,5.6 28.4,5.6 28.4,5.8 C28.5,6 28.3,5.9 28.6,6.3" fill="#FFFFFF"></path>
                        <path d="M6.5,6.8 C6.6,7 7,6.3 7.1,6.2 C7.3,6 7.9,5.9 7.4,6.3 C7.5,6.3 7.5,6.3 7.5,6.3 C7.5,6.4 7.4,6.4 7.5,6.5 C7.6,6.5 7.8,6.2 7.9,6.1 C7.9,6.2 8.3,6 7.7,5.9 C7.5,5.8 7.7,5.3 7.4,5.5 C7.3,5.3 6.5,5.7 6.4,5.8 C6.7,5.8 6.9,5.7 7.2,5.6 C7.2,5.8 7.1,5.8 7.1,5.8 C7.3,5.8 7.5,5.9 7.7,5.9 C7.5,6 7.1,5.9 6.8,6.2 C6.9,6.2 7,6.1 7,6.1 C6.9,6.2 6.4,6.6 6.5,6.8" fill="#F9F9FA"></path>
                        <path d="M32.2,7.2 C32.3,7.2 32.3,7.2 32.2,7.2 C31.9,7.1 31.6,6.4 31.2,6.5 C31.6,6.6 31.8,7.2 32.2,7.2" fill="#F9F9FA"></path>
                        <path d="M8,6.5 C8,6.4 8.7,6.5 8.8,6.3 C8.7,6.3 8,6.4 8,6.5" fill="#F9F9FA"></path>
                        <path d="M12.5,1.3 C12.5,1.3 12.5,1.3 12.5,1.3 C12.4,1.3 12.4,1.3 12.3,1.3 C12.4,1.3 12.5,1.3 12.5,1.3 C12.5,1.3 12.5,1.3 12.5,1.3" fill="#F9F9FA"></path>
                        <path d="M12.9,1.2 C12.9,1.2 12.9,1.3 12.9,1.2 C12.9,1.3 12.9,1.3 12.9,1.2" fill="#F9F9FA"></path>
                        <path d="M7.3,6.7 C7.3,6.8 7.2,6.9 7.3,6.9 C7.4,6.9 7.7,6.8 7.9,6.7 C7.8,6.7 7.3,6.8 7.3,6.7" fill="#F9F9FA"></path>
                        <path d="M18.4,1.2 C18.4,1.2 18.3,1.2 18.3,1.2 C18.4,1.2 18.4,1.2 18.4,1.2" fill="#F9F9FA"></path>
                        <path d="M16.4,1.2 C16.4,1.2 16.5,1.2 16.6,1.2 C16.5,1.2 16.4,1.2 16.4,1.2" fill="#F9F9FA"></path>
                        <path d="M17,1.2 C17,1.2 17.2,1.2 17.3,1.2 C17.2,1.2 17.2,1.2 17,1.2 C17,1.2 17,1.2 17,1.2" fill="#F9F9FA"></path>
                        <path d="M9.1,2.7 C9.1,2.7 9,2.7 9.1,2.7 C9,2.7 9.1,2.7 9.1,2.7" fill="#F9F9FA"></path>
                        <path d="M7.5,2.7 C7.5,2.7 7.7,2.7 7.8,2.7 C7.7,2.7 7.6,2.7 7.5,2.7" fill="#F9F9FA"></path>
                        <path d="M11.4,2.5 C11.4,2.5 11.5,2.4 11.5,2.4 C11.5,2.4 11.5,2.4 11.4,2.5" fill="#F9F9FA"></path>
                        <path d="M2.6,10.4 C2.8,10 3.2,9.7 3.6,9.5 C3.9,9.3 4.1,9.8 4.3,9.7 C4.3,9.6 4.4,9.6 4.4,9.4 C4.4,9.4 4.4,9.4 4.3,9.4 C4.4,9.4 4.5,9.4 4.7,9.4 C4.7,9.5 5.4,9.6 5.4,9.6 C5.5,9.7 5,11 5.2,11 C5.5,11 5.7,10.1 5.7,9.9 C5.8,9.1 6.4,8.8 7,8.5 C7,8.5 7,8.5 7,8.5 C7.2,8.4 7.4,8.4 7.5,8.2 C7.5,8.2 7.7,8.2 7.8,8.1 C7.8,8.1 7.7,8.1 7.7,8 C7.8,8 7.9,8 7.9,7.9 C7.9,7.9 7.9,7.9 7.9,7.9 C7.9,7.8 8.1,7.5 8.1,7.5 C8.1,7.5 8,7.9 8,7.9 C8.2,7.9 8.3,7.5 8.4,7.4 C8.3,7.3 9,7 9.1,7 C9.1,7 8.9,7 8.9,7 C9.2,6.9 9.5,6.9 9.8,6.8 C9.4,6.8 10.1,6.2 10.3,6.3 C10.5,6.3 11,6 11.3,6 C11.2,6.1 11.3,6.1 11.4,6.1 C11,6.1 10.7,6.6 11,6.4 C11.2,6.3 11.9,6.2 12,6 C12,5.9 11.2,6 11.6,5.5 C11.6,5.5 11.5,5.5 11.4,5.5 C11.5,5.4 11.7,5.5 11.8,5.3 C11.9,5.1 10.8,5.4 10.7,5.4 C11.1,5 13.3,5.1 13.1,4.4 C13,4.4 12.3,4.6 12.3,4.5 C12.5,4.4 12.9,4.4 12.9,4.3 C13,4.2 12.3,4.3 12.5,4.1 C12.4,4.1 12.3,4 12.2,4 C12.6,3.9 12.1,3.3 11.9,3.6 C11.9,3.6 12,3.7 12,3.7 C11.9,3.7 11.8,3.6 11.9,3.5 C11.7,3.8 11,3.6 10.8,3.5 C10,3.1 10.2,3.7 9.6,3.8 C9.6,4.1 10,4.1 9.5,4.3 C9,4.5 9.3,4.6 9,4.9 C8.8,4.9 8.7,4.9 8.7,4.9 C8.7,4.9 8.8,4.9 8.8,4.9 C8.9,4.8 8.7,4.8 8.7,4.9 C8.7,4.8 9,4.7 8.8,4.5 C8.3,4.5 8.4,4.2 7.8,4.2 C8,4 8,3.9 7.7,4 C8,3.8 8.7,3.6 8.9,3.3 C8.9,3.3 8.9,3.3 8.8,3.3 C9.1,3.3 9.6,3.3 9.8,3.1 C9.7,3.1 9.5,3.1 9.5,3 C9.6,3 9.8,3 10,3 C9.8,3.1 9.6,3.2 9.5,3.3 C9.5,3.3 9.6,3.3 9.7,3.3 C9.7,3.3 9.6,3.4 9.7,3.4 C9.9,3.4 10.3,3.3 10.6,3.3 C10.6,3.3 10.5,3.3 10.4,3.3 C10.4,3.3 10.4,3.3 10.4,3.3 C10.4,3.2 10.1,3.2 10.1,3.2 C10.1,3.2 10.1,3.2 10.1,3.2 C10.2,3.2 10.2,3.2 10.3,3.2 C10.3,3.2 10.3,3.2 10.4,3.2 C10.4,3.2 10.4,3.1 10.4,3.2 C10.7,3.1 11,2.9 11.2,2.8 C11.1,2.8 11,2.8 10.9,2.8 C11,2.8 11.1,2.8 11.2,2.8 C11.1,2.9 11.5,2.8 11.6,2.8 C11.6,2.8 11.6,2.8 11.6,2.8 C11.6,2.8 11.7,2.8 11.7,2.8 C11.7,2.8 11.6,2.8 11.6,2.8 C11.6,2.8 11.8,2.8 11.9,2.8 C11.8,2.8 11.7,2.8 11.6,2.9 C11.6,2.9 11.9,3 11.9,2.9 C12.1,3 11.5,3.2 11.7,3.2 C11.5,3.3 11.1,3.2 10.9,3.4 C10.9,3.4 11.6,3.4 11.6,3.4 C11.8,3.5 12.1,3.7 12.3,3.6 C12.5,3.6 12.1,3.4 12.1,3.4 C12.5,3.3 12.5,3.5 12.5,3.2 C12.4,3.2 12.3,3.1 12.2,3.1 C12.2,3 12.3,3.1 12.3,3 C12.5,3 12.8,3.1 12.8,2.9 C12.8,2.9 12.3,2.7 12.3,2.7 C12.3,2.7 12.4,2.7 12.4,2.7 C12.4,2.7 12.3,2.7 12.3,2.7 C12.3,2.7 12.4,2.7 12.4,2.7 C12.4,2.7 12.3,2.7 12.3,2.7 C12.3,2.7 12.3,2.7 12.3,2.7 C11.9,2.7 11.6,2.6 11.2,2.6 C11.2,2.6 11.3,2.5 11.3,2.5 C11.2,2.3 10.3,2.7 10.5,2.6 C10.4,2.6 10.7,2.5 10.8,2.5 C10.6,2.5 10.4,2.5 10.2,2.5 C10.3,2.5 10.3,2.5 10.4,2.4 C10,2.4 9.8,2.4 9.5,2.6 C9.6,2.6 9.7,2.6 9.8,2.5 C9.8,2.5 9.8,2.5 9.7,2.5 C9.8,2.4 10,2.5 10.1,2.4 C10,2.4 9.7,2.5 9.7,2.6 C9.7,2.6 10,2.6 10,2.6 C9.9,2.7 9.8,2.7 9.7,2.6 C9.6,2.7 10.4,2.7 10.5,2.7 C10.4,2.7 10,3.1 9.8,3 C9.8,2.9 9.8,2.9 10,2.9 C10.1,2.8 9.6,2.9 9.6,2.9 C9.7,2.8 9.5,2.8 9.7,2.8 C9.7,2.8 9.5,2.8 9.5,2.8 C9.6,2.8 9.6,2.8 9.7,2.7 C9.8,2.6 9.3,2.6 9.1,2.7 C9.1,2.7 9.3,2.8 9.3,2.8 C9.3,2.8 9.2,2.8 9.2,2.9 C9.2,2.9 9.3,2.9 9.3,2.9 C9.2,3 9,3 8.9,3.1 C8.8,3.1 8.8,3.1 8.9,3.1 C8.7,3.2 8.1,3.1 7.7,3.1 C7.7,2.8 7.5,2.8 7.4,2.8 C6.9,2.7 6,2.9 5.7,3.2 C4.8,4 4.2,5.1 3.5,6.1 C2,8.2 1.3,10.5 0.8,13 C0.9,13 1,13.5 1.2,13.6 C1.3,13.6 1.5,13.2 1.6,13.5 C1.7,13.5 1.7,14.1 1.7,14.2 C1.8,14.5 2,14.7 2.3,14.7 C2.2,15 2.3,15.2 2.3,15.4 C2.3,15.7 2.1,16 2.2,16.2 C2.2,16.2 2.2,16.2 2.3,16.2 C2.3,16.2 2.3,16.1 2.3,16.1 C2.6,16.2 2.4,17.5 2.7,17.7 C2.9,17.8 2.9,16.9 3.3,17 C3.5,17.1 3.3,17.5 3.4,17.7 C3.4,17.7 3.7,17.4 3.7,17.4 C3.6,17.2 3.6,16.6 3.2,16.8 C2.4,17.2 2.7,15.7 2.9,15.3 C3,14.9 3.7,14 2.7,13.9 C1.9,13.9 2.8,13.1 2.9,12.9 C3,12.8 3,12.7 3.1,12.6 C3.2,12.4 3.4,12.2 3.5,12 C2.6,11.8 2.6,13 1.8,12.8 C1.2,12.7 2.5,10.6 2.6,10.4 C2.6,10.4 2.6,10.4 2.6,10.4 M7.3,6.8 C7.2,6.8 7.3,6.7 7.3,6.6 C7.3,6.7 7.8,6.6 7.9,6.6 C7.7,6.7 7.4,6.8 7.3,6.8 M8.8,6.3 C8.7,6.5 8,6.5 8,6.5 C8,6.4 8.7,6.3 8.8,6.3 M6.8,6.2 C7.1,5.9 7.5,6 7.7,5.9 C7.5,5.9 7.3,5.8 7.1,5.8 C7.2,5.8 7.2,5.7 7.3,5.7 C6.9,5.7 6.8,5.8 6.5,5.9 C6.7,5.8 7.5,5.4 7.5,5.6 C7.8,5.4 7.6,5.9 7.8,6 C8.4,6.1 8,6.2 8,6.1 C7.9,6.2 7.6,6.5 7.6,6.5 C7.6,6.5 7.6,6.4 7.6,6.3 C7.5,6.3 7.5,6.3 7.5,6.3 C7.9,5.9 7.3,6 7.1,6.2 C7,6.3 6.6,7 6.5,6.8 C6.4,6.6 6.9,6.2 7,6.1 C7,6.1 6.9,6.2 6.8,6.2" fill="#FFFFFF"></path>
                        <path d="M12.2,5.8 C12.2,5.8 12.2,5.8 12.2,5.8 C12.1,5.8 12,5.9 11.9,5.9 C11.9,6 12.2,6 12.2,5.8 C12.1,5.9 12.2,5.9 12.2,5.8" fill="#F9F9FA"></path>
                        <path d="M12.9,5.4 C12.9,5.4 12.8,5.4 12.8,5.4 C12.8,5.4 12.8,5.4 12.9,5.4 C12.8,5.4 12.7,5.4 12.7,5.4 C12.7,5.4 12.7,5.3 12.8,5.3 C12.7,5.3 12.6,5.3 12.6,5.3 C12.6,5.3 13,5 12.9,4.9 C12.6,4.9 12.3,5.4 12,5.5 C12,5.5 12,5.5 12,5.5 C12,5.6 11.8,5.6 11.8,5.6 C11.8,5.6 12.6,5.7 12.7,5.7 C12.7,5.7 12.6,5.8 12.6,5.8 C12.6,5.8 12.9,5.6 12.9,5.7 C13.1,5.9 13,6.1 13.2,5.7 C13.1,5.7 13.2,5.7 13.1,5.7 C13.1,5.6 13.1,5.6 13.2,5.5 C13.2,5.5 13.1,5.5 13.1,5.5 C13.1,5.4 13.2,5.4 13.2,5.3 C13.1,5.4 13,5.4 12.9,5.4" fill="#FFFFFF"></path>
                        <path d="M9.4,3.4 C9.5,3.4 9.7,3.3 9.8,3.3 C9.6,3.3 9.5,3.4 9.4,3.4 C9.4,3.4 9.4,3.4 9.4,3.4" fill="#F9F9FA"></path>
                        <path d="M8.2,1.8 C8.1,1.8 8,1.8 8,1.9 C8,1.9 8.1,1.9 8.2,1.8 C8.2,1.8 8.2,1.8 8.2,1.8" fill="#F9F9FA"></path>
                        <path d="M8.2,1.9 C8.2,1.9 8.3,1.9 8.3,1.9 C8.3,1.9 8.3,1.9 8.2,1.9 C8.2,1.9 8.2,1.9 8.2,1.9" fill="#F9F9FA"></path>
                        <path d="M8.5,1.8 C8.5,1.8 8.4,1.8 8.4,1.8 C8.4,1.8 8.5,1.8 8.5,1.8" fill="#F9F9FA"></path>
                        <path d="M11.7,5.2 C11.8,5.3 12,5.4 12.1,5.3 C12,5.2 12,5.1 11.7,5.2" fill="#F9F9FA"></path>
                        <path d="M8.9,1.7 C8.7,1.8 8.7,1.7 8.9,1.7 C9,1.7 8.9,1.7 8.9,1.7 C9,1.7 9,1.7 9,1.6 C8.9,1.6 8.7,1.6 8.6,1.6 C8.7,1.7 8.7,1.7 8.9,1.7 C8.7,1.7 8.5,1.8 8.6,1.8 C8.7,1.8 8.8,1.8 8.9,1.7" fill="#F9F9FA"></path>
                        <path d="M6.9,2.7 C6.9,2.7 6.8,2.8 6.8,2.8 C6.8,2.8 6.9,2.8 6.9,2.7 C6.9,2.7 6.9,2.7 6.9,2.7" fill="#F9F9FA"></path>
                        <path d="M9.1,1.7 C9,1.7 9,1.7 9.1,1.7 C9,1.7 9.1,1.7 9.1,1.7" fill="#F9F9FA"></path>
                        <path d="M7,2.5 C7.1,2.6 8.2,2.5 8.4,2.4 C8.4,2.4 8.4,2.3 8.4,2.4 C8.5,2.4 8.6,2.4 8.7,2.3 C8.5,2.2 8.4,2.3 8.5,2.1 C8.5,2.1 8.8,1.9 8.8,1.9 C8.5,1.8 8.3,2.1 8.1,2.1 C8.1,2.1 7.8,2 7.6,2 C7.6,1.9 7.6,1.9 7.6,1.9 C7.6,1.9 7.6,1.9 7.6,1.8 C7.6,1.8 7.5,1.8 7.5,1.9 C7.5,1.9 7.5,1.9 7.5,1.9 C7.3,2.1 7.1,2.3 7.1,2.3 C7.2,2.3 7.3,2.3 7.4,2.3 C7.2,2.3 7.1,2.3 6.9,2.5 C6.9,2.5 7,2.5 7,2.5" fill="#F9F9FA"></path>
                        <path d="M8,2 C8,2 8,2 8,2 C8.1,2 8.1,2 8,2 C8.4,1.9 8.8,2 9.1,1.9 C9.1,1.9 8.7,1.9 8.9,1.8 C8.9,1.8 8.5,1.9 8.7,1.9 C8.7,1.9 8.6,1.9 8.6,1.9 C8.6,1.9 8.6,1.9 8.7,1.9 C8.5,2 8.3,1.9 8.1,1.9 C8.1,1.9 8.1,1.9 8.1,1.9 C8,1.9 8,1.9 8,2 C8,1.9 8,1.9 8,2 C7.9,1.9 7.9,1.9 7.8,2 C7.9,2 7.9,2 8,2 C7.8,2 7.8,2 7.7,2.1 C7.8,2.1 7.9,2.1 8,2" fill="#F9F9FA"></path>
                        <path d="M8,1.8 C7.9,1.8 7.9,2 7.9,2.1 C8,2.1 8,1.9 8,1.8" fill="#F9F9FA"></path>
                        <path d="M6.1,10.7 C6.1,10.7 6.1,10.8 6.1,10.7 C6.1,10.8 6.1,10.7 6.1,10.7" fill="#F9F9FA"></path>
                        <path d="M13.9,20.5 C13.5,20.4 13.3,20.2 13,20.1 C12.7,20 12.3,20.1 12,20.1 C11.9,19.8 11.8,19.8 11.6,19.7 C11,19.4 11.3,20 11,20 C10.7,20 10.3,19.6 10.6,19.3 C10.8,19.1 10.2,18.2 9.8,18.2 C9.5,18.2 8.7,18.1 8.5,17.9 C8.3,17.5 7.4,17.5 7.3,17.1 C7.3,17.1 7.4,17.1 7.4,17.1 C7.2,17.1 6.8,17.3 6.6,17.3 C6.5,17.3 6.1,17.3 6,17.2 C5.8,17.1 5.6,17 5.4,17 C5.4,17.1 5.5,17.1 5.6,17.2 C5,17.2 5.4,17.8 5.3,17.8 C5,17.8 5.1,17.3 5.1,17.2 C5.2,17.1 5.2,17.1 5.1,17 C5,16.8 5,17 4.9,17.1 C4.5,17.3 4,17.6 4.1,18.1 C3.7,18.3 4.1,18.9 4.2,19.2 C4.2,19.3 4.2,19.3 4.3,19.4 C4.3,19.8 3.8,20.1 3.8,20.5 C3.8,20.9 3.7,21 4.1,21.2 C4.1,21.4 3.8,21.6 3.9,21.9 C3.9,22 4.1,22 4.3,22.2 C4.6,22.6 4.9,23 5.2,23.3 C5.6,23.7 5.7,24.3 6.3,24.4 C6.8,24.5 7.4,24.8 7.6,25.2 C7.8,25.6 7.8,26.1 8,26.5 C8.1,27 8.1,27.3 8.4,27.7 C8.7,28.3 8.8,27.2 8.8,27.9 C8.8,28.2 9,28 9.1,28.3 C9.2,28.5 10,29.6 10,30 C10,29.5 10.2,30.6 10.1,30.5 C9.8,29.5 10.9,30.9 11.5,31.2 C11.5,30.9 10.7,31.2 10.9,31.1 C11.2,30.9 11,31 10.9,30.8 C11,30.8 11.1,31 11,30.8 C11.1,30.9 10.3,30.6 10.6,30.5 C10.8,30.4 11.2,30.5 11.1,30.2 C11.1,30.1 10.8,29.8 11.1,29.7 C11.3,29.6 11.7,29.6 11.8,29.4 C12.1,28.7 11.5,28.9 11.3,28.5 C11.3,28.6 12.2,28.5 12.3,28.2 C12.4,27.8 12.5,27.4 12.6,27 C12.6,27 12.6,27 12.6,27 C12.6,26.8 12.6,26.7 12.8,26.6 C12.7,26.4 12.7,26.2 12.6,26 C12.6,25.8 12.9,25.5 13,25.4 C13.6,25 13.7,24.8 13.8,24.1 C13.9,23.7 13.5,22.8 13.6,22.6 C13.9,22.1 14.6,20.7 13.9,20.5" fill="#FFFFFF"></path>
                        <path d="M6.2,12.6 C6.3,12.6 6.4,12.6 6.4,12.4 C6.3,12.5 6,12.6 6.2,12.6" fill="#F9F9FA"></path>
                        <path d="M33.4,14.8 C32.8,14.9 32.6,15.1 32.4,14.4 C32.3,13.9 31.4,13.6 31.3,13.1 C31.2,12.7 31.1,12.6 30.9,12.3 C30.7,12 30.7,11.6 30.5,11.2 C30.3,10.9 30.3,10.6 30.1,10.3 C29.9,9.9 29.4,9.3 29.4,8.8 C29.6,9 29.7,9.4 29.9,9.4 C30,8.9 30,8.8 29.8,8.3 C29.5,8.4 29.2,8.2 28.9,8.3 C28.5,8.5 28.2,8.4 27.8,8.3 C27.5,8.2 26.3,7.5 26.4,8.3 C26.4,9.2 25.3,8 25,7.9 C24.7,7.8 24.2,8 24.2,7.5 C24.2,7.2 24.3,7 24.3,6.7 C24.2,6.8 24.1,6.8 24.1,6.7 C24,6.5 23.8,6.8 23.6,6.8 C23.3,6.8 23,6.8 22.7,6.8 C22.2,6.8 21.8,7.1 21.4,7.3 C20.9,7.6 20.5,7.2 20.2,7.5 C20.2,7.5 20.2,7.5 20.2,7.5 C20,7.8 19.7,8.1 19.4,8.4 C19.2,8.6 19.3,8.9 19.2,9.2 C19.1,9.4 18.9,9.7 18.6,9.8 C18.2,10 18,10.4 17.9,10.8 C17.8,11.1 17.7,11.4 17.5,11.7 C17.3,12.1 17.6,12.7 17.6,13.1 C17.6,13.4 17.5,13.7 17.3,14 C17.2,14.2 17.3,14.5 17.3,14.8 C17.3,14.8 17.3,14.8 17.3,14.8 C17.5,15.1 17.7,15.3 17.9,15.5 C18.3,15.9 18.3,16.4 18.7,16.8 C19,17.1 19.3,17.5 19.8,17.4 C20,17.3 20.2,17.2 20.4,17.2 C20.6,17.2 20.7,17.4 20.9,17.4 C21.3,17.4 21.8,16.8 22.3,16.8 C22.7,16.8 22.7,17.5 23,17.4 C24.1,17.4 24,18.2 23.7,18.9 C23.5,19.4 24,19.8 24.3,20.2 C24.6,20.5 24.6,21.1 24.7,21.5 C24.8,21.9 25,22.5 24.9,22.9 C24.8,23.3 24.5,23.6 24.4,24 C24.3,24.6 24.5,25.2 24.8,25.7 C25,26.2 24.9,26.2 25.3,26.6 C25.6,27 26.3,26.3 26.5,27.3 C26.5,27.2 27.2,27.4 27.6,27.3 C27.9,27.1 28.5,27.2 28.9,27.2 C28.9,27.1 29.2,27.3 29.3,27.2 C29.6,26.8 29.5,27.5 29.9,27.1 C30.3,26.7 29.5,27.5 29.9,27.1 C30.3,26.8 30.4,26.9 30.4,26.3 C30.4,26 29.9,25.4 30.4,25.2 C30.5,24.8 30.9,24.6 31.2,24.4 C32.1,23.9 31.4,23.1 31.7,22.3 C31.8,22 31.4,21.7 31.4,21.4 C31.4,21.1 31.3,20.8 31.3,20.5 C31.3,20.2 31.5,20.1 31.6,19.8 C31.8,18.8 32.7,18.5 33.2,17.7 C33.7,17 34.5,15.4 34.2,14.6 C34.1,14.5 33.8,14.7 33.4,14.8" fill="#FFFFFF"></path>
                        <path d="M16.9,2.1 C16.9,2 17.2,2.3 17.3,2.1 C17.2,2 17.1,2 17,2 C17.1,2 17.3,2.1 17.5,2 C17.5,2 17.5,2 17.5,2 C17.6,2 17.7,2 17.7,1.9 C17.6,1.9 17.6,1.9 17.5,1.9 C17.5,1.8 17.6,1.9 17.7,1.8 C17.7,1.7 17.5,1.7 17.5,1.7 C17.5,1.6 17.9,1.7 18,1.6 C17.9,1.6 17.9,1.6 17.8,1.5 C17.8,1.5 17.9,1.5 17.9,1.5 C17.8,1.5 17.7,1.5 17.6,1.5 C17.7,1.4 18.4,1.3 18.4,1.2 C18.6,1.2 18.9,1.2 19,1.1 C19,1.1 17.3,1.3 17.2,1.3 C17.2,1.3 17.6,1.2 17.6,1.2 C17.6,1.2 17.5,1.2 17.4,1.2 C17.5,1.2 17.6,1.1 17.7,1.1 C16.9,1 15.9,1 15,1.2 C15,1.2 15,1.2 15,1.2 C15,1.2 14.9,1.2 14.9,1.2 C14.9,1.2 15,1.2 15,1.2 C14.9,1.2 14.6,1.1 14.5,1.2 C14.5,1.2 14.5,1.2 14.5,1.2 C14.4,1.2 14.3,1.2 14.3,1.2 C14.2,1.2 13.3,1.2 13.2,1.4 C13.3,1.4 13.3,1.4 13.4,1.4 C13.3,1.6 12.9,1.4 12.8,1.6 C12.8,1.7 13.2,1.6 13.2,1.6 C13.1,1.7 12.9,1.6 12.8,1.7 C12.9,1.7 12.9,1.7 13,1.7 C13,1.7 13,1.7 12.9,1.7 C13,1.7 13,1.7 13.1,1.7 C13.1,1.7 13.1,1.7 13.1,1.7 C13.3,1.7 13.9,1.6 13.8,1.9 C13.9,1.9 13.9,1.9 13.8,2 C13.9,2 14.1,2.1 14.1,2.1 C14,2.2 13.9,2.1 13.9,2.1 C13.9,2.2 14.1,2.2 14.2,2.2 C14.1,2.3 13.9,2.3 13.8,2.5 C13.8,2.5 13.8,2.5 13.9,2.5 C13.8,2.6 14,2.7 14,2.7 C13.8,2.8 14.4,3.1 14.5,3.1 C14.6,3.1 15,2.6 15.2,2.5 C15.2,2.5 15.2,2.5 15.2,2.5 C15.5,2.5 15.6,2.3 15.9,2.3 C16.3,2.3 16.7,2.2 17.1,2.1 C17,2.1 16.6,2.1 16.6,2 C16.7,2 16.7,2 16.7,1.9 C16.8,1.9 17.2,2.1 17.2,2 C17.3,2.2 17,2.1 16.9,2.1 M18.4,1.2 C18.4,1.2 18.4,1.2 18.3,1.2 C18.3,1.2 18.4,1.2 18.4,1.2 M17,1.2 C17,1.2 17,1.2 17,1.2 C17.2,1.2 17.2,1.2 17.3,1.2 C17.2,1.2 17,1.2 17,1.2 M16.4,1.2 C16.4,1.2 16.5,1.2 16.6,1.2 C16.5,1.2 16.4,1.2 16.4,1.2" fill="#FFFFFF"></path>
                        <path d="M6,10.6 C6,10.6 5.9,10.6 5.9,10.7 C5.9,10.6 6,10.7 6,10.6 C6,10.6 6,10.6 6,10.6" fill="#F9F9FA"></path>
                        <path d="M17.6,2.6 C17.6,2.6 17.6,2.6 17.6,2.6 C18,2.7 18.3,2.9 18.8,2.6 C18.8,2.5 18.6,2.4 18.8,2.4 C18.7,2.4 18.2,2.3 18.2,2.4 C18.1,2.4 18,2.4 18,2.3 C17.9,2.3 17.8,2.4 17.9,2.2 C17.8,2.2 17.7,2.2 17.7,2.2 C17.7,2.2 17.9,2.3 17.9,2.3 C17.8,2.3 17.7,2.3 17.6,2.3 C17.5,2.5 17.6,2.5 17.6,2.6 C17.6,2.5 17.6,2.5 17.6,2.6" fill="#FFFFFF"></path>
                        <path d="M12.2,5.1 C12.1,5.2 12.3,5.1 12.2,5.1" fill="#F9F9FA"></path>
                        <path d="M4.8,13.8 C4.7,13.8 4.5,14.1 5,14.1 C5,14 5,14 5,13.9 C5,13.9 5,13.9 5,13.9 C5,13.9 4.9,13.8 4.8,13.8" fill="#F9F9FA"></path>
                        <path d="M5.6,14.1 C5.8,13.7 6.1,14.3 6.1,14.3 C6.2,14.3 6.4,13.9 6.4,14.1 C6.4,14.1 6.9,14.1 7,14.1 C7,14.1 6.9,13.9 6.9,13.8 C6.8,13.6 6.8,13.4 6.6,13.3 C6.5,13.3 6.3,13.4 6.2,13.3 C6,12.9 6,13.7 6,13.8 C6,13.7 5.2,13.8 5.6,14.1" fill="#FFFFFF"></path>
                        <path d="M11.5,5.7 C11.5,5.8 11.4,5.8 11.5,5.7 C11.4,5.8 11.7,6 11.8,5.8 C11.7,5.9 11.6,5.9 11.5,5.7" fill="#F9F9FA"></path>
                        <path d="M5.8,13.1 C5.7,12.9 5.9,12.8 5.6,12.7 C5.6,12.6 5.3,12.1 5.1,11.9 C4.6,11.4 4.3,11.5 3.9,12.1 C4.3,12.2 4.4,11.6 4.5,12 C5,12.1 5.1,12.6 5,13 C5.3,13.1 5.5,13.5 5.8,13.1" fill="#FFFFFF"></path>
                        <path d="M7.3,14.3 C7.2,14.5 7.6,14.6 7.7,14.5 C7.6,14.4 7.3,14.1 7.3,14.3" fill="#F9F9FA"></path>
                        <path d="M6.9,13.8 C6.9,13.8 6.9,13.8 6.9,13.8 C6.9,13.7 6.9,13.7 6.9,13.8" fill="#F9F9FA"></path>
                        <path d="M5.8,11.3 C5.8,11.3 5.8,11.1 5.8,11.1 C5.7,11.2 5.7,11.5 5.8,11.3" fill="#F9F9FA"></path>
                        <path d="M4.2,12.3 C4.1,12.3 4.1,12.4 4.1,12.4 C4.2,12.3 4.2,12.5 4.2,12.3 C4.3,12.1 4.3,12.2 4.2,12.3" fill="#F9F9FA"></path>
                        <path d="M10.1,1.9 C10.1,1.9 10.1,1.9 10.1,1.9 C10,1.9 10.5,1.9 10.4,1.9 C10.3,1.8 10.2,1.9 10.1,1.9" fill="#F9F9FA"></path>
                        <path d="M24.5,6.2 C24.6,6.8 25,6 24.4,6.1 C24.4,6.1 24.5,6.1 24.5,6.2" fill="#F9F9FA"></path>
                        <path d="M20.6,3.6 C21,3.6 21.2,3.5 21.2,3.2 C21.2,3.2 21.5,3 21.1,2.9 C21,2.9 20.7,2.9 20.8,3 C20.7,3 20.5,3 20.5,3.1 C20.5,3.1 20.6,3.2 20.6,3.2 C20.7,3.3 20.3,3.6 20.6,3.6" fill="#FFFFFF"></path>
                        <path d="M24.5,5.9 C24.5,5.9 24.5,5.7 24.5,5.6 C24.5,5.6 24.5,5.6 24.5,5.5 C24.5,5.5 24.4,5.6 24.3,5.6 C24.4,5.7 24.5,5.9 24.5,5.9" fill="#F9F9FA"></path>
                        <path d="M28.4,7.7 C28.3,7.7 28.1,7.6 27.9,7.6 C28,7.7 28.3,7.8 28.4,7.7" fill="#F9F9FA"></path>
                        <path d="M23.2,6.2 C23.2,6.2 23.4,6.3 23.4,6.2 C23.3,6.1 23.3,6.1 23.2,6.2" fill="#F9F9FA"></path>
                        <path d="M21.6,3.1 C21.5,3.1 21.5,3.1 21.6,3.1 C21.5,3.2 21.6,3.2 21.6,3.1 C21.6,3.1 21.6,3.1 21.6,3.1 C21.6,3.1 21.6,3.1 21.6,3.1" fill="#F9F9FA"></path>
                        <path d="M21.1,2.5 C21.2,2.5 21.2,2.5 21.2,2.4 C21.2,2.4 21,2.5 21.1,2.5" fill="#F9F9FA"></path>
                        <path d="M21.2,2.5 C21.2,2.6 21.2,2.6 21.3,2.6 C21.3,2.7 21.3,2.7 21.3,2.9 C21.3,2.9 21.3,2.9 21.4,2.9 C21.4,2.9 21.4,2.9 21.4,2.8 C21.6,2.9 21.4,2.8 21.4,3 C21.4,3.1 21.7,3 21.7,3 C21.6,3.1 21.7,3.1 21.8,3.1 C21.8,3.2 21.6,3.2 21.5,3.2 C21.5,3.4 21.4,3.4 21.4,3.5 C21.4,3.5 21.8,3.6 21.8,3.5 C21.8,3.6 21.4,3.6 21.3,3.8 C21.4,3.8 22.6,3.7 22.6,3.6 C22.6,3.6 22.5,3.6 22.5,3.6 C22.7,3.4 22.7,3.2 22.5,3.3 C22.5,3.3 22.5,3.3 22.4,3.3 C22.4,3 22,2.8 21.7,2.7 C21.7,2.6 22,2.5 21.9,2.4 C21.7,2.5 21.6,2.5 21.5,2.3 C21.6,2.3 21.6,2.2 21.7,2.2 C21.7,2 21.1,2.3 21.3,2.3 C21.4,2.6 21.2,2.5 21.2,2.5" fill="#FFFFFF"></path>
                        <path d="M9.1,2 C9.2,2 9.2,2 9.2,2 C9.2,1.9 9.1,2 9.1,2 C9.1,2 9.1,2 9.1,2" fill="#F9F9FA"></path>
                        <path d="M25.3,6.8 C25.3,6.9 25.8,7.1 25.9,7.1 C25.9,7.1 25.9,6.8 25.9,6.8 C25.8,6.8 25.4,6.7 25.3,6.8" fill="#F9F9FA"></path>
                        <path d="M26.4,2.8 C26.5,2.8 26.5,2.7 26.5,2.7 C26.5,2.7 26.4,2.6 26.4,2.8 C26.5,2.7 26.4,2.8 26.4,2.8 C26.4,2.8 26.4,2.8 26.4,2.8" fill="#F9F9FA"></path>
                        <path d="M23.1,1 C23,1 23.1,1 23.2,1.1 C23.2,1.1 23.1,1 23.1,1" fill="#F9F9FA"></path>
                        <path d="M23.3,1.1 C23.3,1.1 23.3,1.1 23.3,1.1 C23.3,1.1 23.5,1.1 23.6,1.1 C23.5,1.1 23.4,1.1 23.3,1.1 C23.4,1.2 23.7,1.2 23.7,1.2 C23.6,1.2 23.5,1.2 23.4,1.2 C23.4,1.4 24,1.2 24.2,1.2 C24.2,1.2 24.3,1.2 24.3,1.2 C24.3,1.2 24.2,1.2 24.2,1.2 C24.3,1.2 24.4,1.2 24.4,1.2 C24.4,1.2 24.4,1.2 24.4,1.2 C24.5,1.2 24.6,1.2 24.7,1.2 C24.6,1.1 24.4,1.1 24.3,1.1 C24.3,1.1 24.3,1.1 24.3,1.1 C24.3,1.1 24.2,1.1 24.2,1.1 C24.5,1.1 24.9,1 25,1 C24.7,0.9 24.3,0.9 24,0.9 C24,0.9 24,0.9 24,0.9 C24,0.9 24,0.9 23.9,0.9 C23.9,0.9 23.9,0.9 23.9,0.9 C23.9,0.9 23.8,0.9 23.8,0.9 C23.8,1 24,0.9 24,0.9 C24,0.9 24.2,0.9 24.2,0.9 C24.1,0.9 24.1,0.9 24,0.9 C24,0.9 24,0.9 24,0.9 C23.9,0.9 23.8,0.9 23.7,0.9 C23.7,0.9 23.7,0.9 23.7,0.9 C23.7,0.9 23.3,0.8 23.5,0.9 C23.5,0.9 23.2,0.9 23.3,0.9 C23.4,1 23.4,1 23.3,1.1 C23.3,1 23.4,1 23.3,1.1 C23.3,1 23.2,1 23.1,1 C23.1,1 23.2,1 23.2,1 C23.2,1 23.2,1.1 23.3,1.1" fill="#F9F9FA"></path>
                        <path d="M24.4,2.9 C24.4,3 24.4,3 24.4,2.9 C24.4,3 24.4,2.9 24.4,2.9" fill="#F9F9FA"></path>
                        <path d="M25.8,2.9 C25.8,2.9 25.9,2.8 25.9,2.8 C25.8,2.8 25.7,2.9 25.8,2.9" fill="#F9F9FA"></path>
                        <path d="M22.1,4 C22.1,4.1 22.1,4.1 22.1,4.2 C22,4.2 21.5,4.1 21.5,4.2 C21.5,4.4 22.5,4.5 22.3,4.8 C22.3,4.8 22.3,4.8 22.3,4.8 C22.3,5.3 22.2,5.2 21.8,5.2 C21.5,5.2 21.2,5.1 20.9,5.1 C20.5,5.1 20.7,5.3 20.7,5.5 C20.7,5.6 20.5,6.6 20.7,6.6 C21,6.6 21.1,6.5 21.3,6.8 C21.4,7 21.9,6.7 22.1,6.8 C22.3,6.7 22.5,6.6 22.6,6.4 C22.1,6.2 23.2,5.8 23.2,5.7 C23,5.2 23.8,5.6 24,5.5 C24.5,5.3 24.5,5.4 24.9,5.8 C24.8,5.7 26.4,6.9 25.9,6.9 C25.9,7.1 26.2,6.7 26.2,6.7 C26.1,6.4 26,6.4 26.4,6.5 C26.4,6.2 25.9,6.3 25.8,6 C25.5,6 24.9,5.5 24.9,5.2 C24.9,5 25.9,5.7 26,5.7 C26,5.9 26.5,6 26.6,6.3 C26.6,6.5 27.1,6.9 27.2,6.9 C27.1,7.1 27.2,7.2 27.5,7.3 C27.5,7.3 27.4,7 27.4,7 C27.6,7 27.8,7.1 27.9,7 C27.7,6.8 27.6,6.6 27.4,6.5 C27.4,6.3 27.7,6.6 27.7,6.6 C27.7,6.5 27.7,6.5 27.7,6.5 C27.9,6.5 27.9,6.4 28.1,6.5 C28.3,6.7 28.3,6.4 28.5,6.5 C28.5,6.5 28.6,6.6 28.6,6.6 C28.5,6.6 27.9,6.5 28,6.8 C28,7 28.3,6.9 28,7.1 C28.2,7.2 28.3,7.3 28.5,7.5 C28.5,7.5 28.5,7.5 28.4,7.5 C29,7.6 29.5,7.8 30.2,7.6 C30.3,7.9 30.2,8.1 30.2,8.4 C30.2,8.5 30.2,8.8 30.2,8.8 C30.2,8.8 30.5,9.4 30.5,9.5 C30.5,10.3 31.7,10.7 31.8,11.4 C31.9,11.8 32.2,12.1 32.5,12.4 C32.8,12.8 33,13.2 33.2,13.6 C33.7,14.5 34.2,13.8 35,13.5 C34.9,12.7 34.7,11.8 34.4,11 C34.2,10.9 34.3,10.7 34.2,10.5 C34.1,10.5 34.2,10.6 34.1,10.6 C34,10.3 33.6,10.1 33.4,9.8 C33.1,9.1 34.6,9.7 34.8,10 C34.5,8.9 31.4,5.1 29.2,3.5 C28.2,2.8 27.3,1.9 26,1.2 C25.8,1.2 25.5,1.2 25.3,1.2 C25.3,1.2 25.3,1.2 25.4,1.2 C25.3,1.2 25.2,1.2 25.2,1.2 C25.3,1.2 25.3,1.2 25.3,1.2 C25.3,1.2 24.8,1.2 24.8,1.2 C24.8,1.2 24.9,1.2 24.9,1.2 C24.9,1.2 24.8,1.2 24.8,1.2 C24.9,1.2 25,1.2 25.1,1.2 C25.1,1.3 24.1,1.7 23.9,1.7 C24,1.7 24,1.7 24,1.7 C23.8,1.7 22.9,1.8 23.4,2.2 C23.4,2.2 23.3,2.2 23.3,2.3 C23.4,2.3 23.4,2.3 23.5,2.3 C23.5,2.4 23.4,2.3 23.4,2.4 C23.4,2.6 24.1,2.5 24.1,2.4 C24.3,2.3 24.4,2.4 24.5,2.6 C24.5,2.7 24.8,3.1 24.9,3.1 C25,3.1 25.5,3 25.5,2.8 C25.1,2.7 25.7,2.4 25.7,2.4 C25.6,2.2 25.4,2.3 25.3,2 C25.3,1.8 26,1.8 25.9,1.7 C26,1.6 26.4,1.4 26.6,1.7 C26.6,1.7 26,2 25.9,1.9 C26,2 25.9,2.1 26.1,2.1 C25.9,2.4 27.4,2.3 27.5,2.5 C27.2,2.6 26.8,2.4 26.5,2.5 C26.4,2.5 26.7,2.7 26.7,2.8 C26.7,2.7 25.9,2.9 26,3.3 C25.9,3.3 25.8,3.3 25.8,3.3 C25.8,3.3 25.8,3.3 25.8,3.3 C25.6,3.2 24.8,3.5 24.8,3.3 C24.6,3.3 24.3,3.3 24.1,3.3 C24.1,3.4 24.1,3.3 24.1,3.2 C24.1,3.2 24.2,3.2 24.2,3.3 C24.2,3.2 24.2,3.2 24.1,3.2 C24.1,3.1 24.1,3 24.2,3 C24.2,2.9 24.1,2.9 24.1,2.8 C23.7,3 23.7,3 23.9,3.3 C24,3.5 23.6,3.5 23.5,3.4 C23.1,3.4 23.2,3.7 22.8,3.8 C22.7,3.9 22.6,4.1 22.1,4 M32.3,7.2 C32.3,7.2 32.3,7.2 32.3,7.2 C31.8,7.2 31.6,6.6 31.2,6.5 C31.6,6.4 31.9,7.1 32.3,7.2 M28.5,5.4 C28.9,5.3 28.8,5.2 29.2,5.6 C29.4,5.7 29.7,5.9 29.9,5.6 C29.8,5.6 29.6,5.6 29.6,5.5 C29.6,5.4 30,5.3 30.2,5.3 C30.1,5.3 30.4,5.6 30,5.6 C30.3,6 31,6 31.2,6.5 C31,6.5 31,6.6 30.8,6.6 C30.4,6.6 30,6.3 29.6,6.2 C29.3,6.2 29,6.3 28.7,6.3 C28.7,6.3 28.7,6.3 28.7,6.3 C28.3,5.9 28.6,6 28.5,5.6 C28.5,5.5 28.6,5.5 28.5,5.4" fill="#FFFFFF"></path>
                        <path d="M24.6,3.2 C24.6,3.2 24.5,3.2 24.6,3.2 C24.8,3.3 24.7,3.1 24.8,3.1 C24.6,2.9 24.4,3.1 24.6,3.2 C24.7,3.2 24.6,3.2 24.6,3.2" fill="#F9F9FA"></path>
                        <path d="M30.1,7.8 C30,7.8 29.8,7.9 29.7,7.9 C29.8,8.1 30.1,7.9 30.1,7.8" fill="#F9F9FA"></path>
                        <path d="M9.9,1.7 C9.8,1.7 9.8,1.7 9.9,1.7 C9.8,1.7 9.9,1.7 9.9,1.7 C10.1,1.7 10.2,1.7 10.2,1.6 C10.2,1.6 10.2,1.6 10.3,1.6 C10.2,1.5 9.9,1.6 9.8,1.6 C9.8,1.6 9.8,1.6 9.8,1.6 C9.8,1.6 9.8,1.6 9.7,1.6 C9.6,1.6 9.7,1.6 9.9,1.7 C9.7,1.7 9.7,1.7 9.6,1.7 C9.6,1.7 9.7,1.7 9.9,1.7" fill="#F9F9FA"></path>
                        <path d="M9.4,1.8 C9.4,1.8 9.5,1.8 9.4,1.8 C9.4,1.7 9.5,1.7 9.4,1.8 C9.3,1.7 9.3,1.8 9.4,1.8" fill="#F9F9FA"></path>
                        <path d="M9.8,1.9 C9.7,1.9 9.6,1.9 9.6,2 C9.7,1.9 10.1,2.1 10.1,1.8 C10.1,1.8 9.7,1.8 9.8,1.9 C9.7,1.8 9.7,1.8 9.8,1.9 C9.7,1.9 9.7,1.8 9.6,1.9 C9.6,1.9 9.6,1.9 9.6,1.9 C9.7,1.9 9.7,1.9 9.8,1.9" fill="#F9F9FA"></path>
                        <path d="M10.6,1.9 C10.3,2 10.8,2 10.9,2 C11.2,1.8 11.8,2.1 12.1,1.9 C12.1,1.9 12.1,1.9 12,1.9 C12,1.9 12.1,1.9 12.1,1.9 C12.1,1.8 10.8,1.9 10.9,1.9 C10.9,1.9 10.7,1.9 10.8,1.9 C10.9,1.9 10.9,1.9 11,1.9 C11,1.8 10.3,1.8 10.2,1.9 C10.3,1.9 10.3,1.9 10.4,1.9 C10.6,1.8 10.6,1.8 10.6,1.9" fill="#F9F9FA"></path>
                        <path d="M9.2,2.6 C9.3,2.4 8.7,2.6 8.9,2.6 C8.6,2.6 9.2,2.6 9.2,2.6" fill="#F9F9FA"></path>
                        <path d="M9,2.2 C9.2,2.4 9.6,2.3 9.7,2.2 C9.7,2.2 9.6,2.2 9.6,2.2 C9.7,2.1 9.6,2.2 9.5,2.2 C9.6,2.2 9.7,2.2 9.7,2.1 C9.7,2.1 9,2.2 9.3,2.2 C9.2,2.2 9.1,2.1 9,2.2" fill="#F9F9FA"></path>
                        <path d="M10.7,1.7 C10.7,1.7 10.8,1.7 10.8,1.7 C10.7,1.7 10.6,1.7 10.4,1.7 C10.5,1.7 10.7,1.7 10.7,1.7" fill="#F9F9FA"></path>
                        <path d="M9.4,1.9 C9.4,1.9 9.4,1.9 9.4,1.9 C9.4,1.9 9.5,1.9 9.6,1.9 C9.5,1.9 9.3,1.8 9.4,1.9 C9.3,1.8 9.3,1.8 9.4,1.9 C9.3,1.9 9.3,1.9 9.4,1.9" fill="#F9F9FA"></path>
                        <path d="M10.6,1.5 C10.6,1.5 10.6,1.5 10.6,1.5 C10.6,1.5 10.5,1.5 10.6,1.5 C10.4,1.5 10.6,1.5 10.6,1.5" fill="#F9F9FA"></path>
                        <path d="M11,1.5 C11,1.5 10.9,1.5 11,1.5 C11,1.5 11,1.5 11,1.5" fill="#F9F9FA"></path>
                        <path d="M10.7,1.6 C10.8,1.5 10.4,1.5 10.5,1.6 C10.2,1.7 10.6,1.6 10.7,1.6" fill="#F9F9FA"></path>
                        <path d="M11,1.5 C11,1.5 11,1.5 11,1.5 C11.1,1.5 11.3,1.5 11.3,1.5 C11.2,1.5 11.1,1.5 11,1.5 C11,1.6 11,1.6 11,1.5 C11.1,1.6 11.4,1.6 11.5,1.6 C11.5,1.6 11.5,1.6 11.5,1.6 C11.6,1.6 11.8,1.6 11.9,1.6 C11.8,1.6 11.3,1.6 11.5,1.6 C11.4,1.6 11.3,1.6 11.3,1.6 C11.7,1.6 12.4,1.8 12.6,1.5 C12.6,1.5 12.5,1.5 12.5,1.5 C12.6,1.4 12.7,1.5 12.7,1.4 C12.9,1.4 13,1.3 13.1,1.3 C13.1,1.3 13.1,1.3 13,1.3 C13.1,1.3 13.1,1.3 13.1,1.3 C13.1,1.3 13,1.3 13,1.3 C13.4,1.2 13.8,1.2 14.1,1.1 C14,1.1 13.9,1.1 13.9,1.1 C13.9,1.1 14.3,1.1 14.4,1 C14.4,0.9 13.7,1 14,1 C13.5,0.8 12.1,1 11.6,1.1 C11.7,1.1 11.8,1.1 11.9,1.1 C11.8,1.1 11.8,1.1 11.8,1.1 C11.9,1.1 12,1.1 12.1,1.1 C12,1.1 11.9,1.1 11.8,1.1 C11.9,1.1 11.9,1.1 12,1.1 C12,1.1 11.9,1.1 11.9,1.1 C11.9,1.1 12,1.1 12.1,1.1 C12.2,1.1 12.1,1.1 12,1.1 C12,1.1 12.2,1.1 12.1,1.2 C11.9,1.4 11.8,1.2 11.7,1.3 C11.8,1.3 11.8,1.2 11.7,1.2 C11.7,1.2 11.7,1.2 11.7,1.2 C11.6,1.3 11.3,1.1 11.2,1.1 C11.2,1.1 11.2,1.1 11.3,1.1 C11.2,1.1 11.1,1.1 11.1,1.1 C11.1,1.1 11.1,1.1 11.1,1.1 C11.1,1.4 11,1.4 11,1.5 C11,1.5 11.1,1.5 11,1.5 C11,1.5 10.9,1.5 10.8,1.5 C10.8,1.5 10.9,1.5 11,1.5 M12.3,1.3 C12.4,1.3 12.5,1.3 12.5,1.3 C12.5,1.3 12.5,1.3 12.5,1.3 C12.5,1.3 12.6,1.3 12.6,1.3 C12.5,1.3 12.4,1.3 12.3,1.3 M12.8,1.3 C12.9,1.3 12.9,1.2 12.8,1.3 C12.9,1.3 12.9,1.3 12.8,1.3" fill="#FFFFFF"></path>
                        <path d="M11.3,1.7 C11.2,1.7 11.1,1.7 11.1,1.8 C11.2,1.7 11.3,1.7 11.3,1.7" fill="#F9F9FA"></path>
                        <path d="M12,1.3 C12.1,1.3 12.1,1.3 12,1.3" fill="#F9F9FA"></path>
                        <path d="M11.8,2 C11.8,2 11.9,2.1 11.9,2.1 C12,2.1 12.2,2.1 12.4,2 C12.3,2 11.9,1.9 11.8,2" fill="#F9F9FA"></path>
                    </g>
                    <g opacity="0.5" transform="translate(8.000000, 31.000000)" fill="#6D6968" fill-rule="nonzero" id="Shape">
                        <g>
                            <path d="M0,0.9 L0,1 C0.6,1.5 1.1,2.1 1.7,2.6 C2,2.9 2.2,3.1 2.5,3.4 C2.7,3.7 3,3.9 3.3,4.1 C3.9,4.5 4.6,4.7 5.2,4.9 C5.8,5.1 6.4,5.3 7,5.5 C6.4,5.3 5.8,5.1 5.2,4.9 C4.6,4.7 3.9,4.5 3.3,4.1 C3,3.9 2.7,3.7 2.5,3.4 C2.2,3.1 2,2.9 1.7,2.6 C1.2,2 0.6,1.5 0,0.9 Z"></path>
                        </g>
                    </g>
                    <path d="M34.8,26.7 C32.4,26.3 28.1,27.2 27.2,27 C26.4,26.8 25.4,26.4 24.5,26 C24.3,25.9 23.6,25.2 23.3,25 C22.8,24.7 22.2,24.6 21.6,24.3 C19.7,23.5 18.9,24.8 19.1,25.2 C19.3,25.7 20.3,26.5 20.3,26.5 C20.5,26.6 20.9,27 21.5,27.4 C21.7,27.7 22.1,28.3 23,28.6 C23.1,28.6 23.2,28.7 23.2,28.7 C23.3,28.7 23.3,28.8 23.4,28.8 C23.7,29.1 24.1,29.6 24.4,30.2 C23.8,30.9 22.9,31.8 21.9,32.4 C20,32.8 18,32.9 15.5,32.6 C15,32.5 14.5,32.4 14,32.3 C13.4,32.1 12.8,32.3 12.3,31.9 C11.6,31.3 10.8,31.1 10.3,30.7 C9.3,29.9 9.7,29.5 8.8,28.4 C7.9,27.3 6.7,27.1 6.2,27.5 C5.6,28.1 5.9,28.5 6.4,29.5 C6.4,29.6 6.5,29.6 6.5,29.7 C6.9,30 7,30.4 7.1,30.7 C7.2,31.1 7.6,31.5 8,31.8 C8.1,31.9 8.2,32.1 8.3,32.2 C7.5,31.4 6.7,30.9 6.4,30.7 C5.6,30 5.7,29.6 5,28.7 C4.3,27.8 2.9,27.5 2.6,28 C2.2,28.6 2.6,29.2 3,30 C3,30.1 3.3,29.9 3.3,30 C3.4,30.3 3.9,30.5 4,30.8 C4.1,31.1 4.7,32.5 5,32.7 C7.6,36.1 9.4,37.3 9.4,37.3" id="Shape" stroke="#FFFFFF" stroke-width="0.5"></path>
                    <path d="M42.7,34.6 L42.8,33.8 L42.7,33.4 C42.7,33.4 39.3,33.9 37.7,34 C36.1,33.6 34,33.4 32.5,33.7 C31,34 29.4,34.4 28.1,34.9 C26.4,36.3 23.6,37.6 21.2,38.7 C21.1,38.8 31.4,35 33.9,34.8 C36.8,34.6 42.7,34.6 42.7,34.6" id="Shape" fill="#FFFFFF" fill-rule="nonzero"></path>
                    <path d="M11.4,34.8 C12.3,35.2 15.3,36.9 15.3,36.9 C15.3,36.9 11,35.5 9.9,34.6 C8.9,33.8 7,30.5 7,30.5" id="Shape" fill="#FFFFFF" fill-rule="nonzero"></path>
                    <path d="M6,28.3 C7,28.9 7.1,31 7.9,31.7" id="Shape" fill="#FFFFFF" fill-rule="nonzero"></path>
                    <path d="M2.6,28 C2.9,29.1 3.9,30.8 4.7,31.5 C5.5,32.2 5.9,33.9 6.5,34.6 C5.5,33.8 2.7,29.7 2.7,29.7 C2.2,28.6 2.6,28 2.6,28" id="Shape" fill="#FFFFFF" fill-rule="nonzero"></path>
                    <path d="M5.2,33 C5.9,33.6 6.3,34.1 7.2,34.8 C8,35.5 8.3,36.6 9.2,36.9 C10.1,37.3 13.6,38.2 13.6,38.2 C13.6,38.2 10,38.2 8.8,37.3 C7.8,36.5 6,34.2 6,34.2" id="Shape" fill="#FFFFFF" fill-rule="nonzero"></path>
                    <path d="M20.3,26.5 C20.5,26.6 20.9,27 21.5,27.4 C21.7,27.7 22.1,28.3 23,28.6 C23.1,28.6 23.2,28.7 23.2,28.7 C23.3,28.7 23.3,28.8 23.4,28.8 C23.7,29.1 24.1,29.6 24.4,30.2 C24.3,30.3 22.4,32.2 22.3,32.2 C22.6,32 24.1,31.5 24.8,30.8 C24.9,30.9 25,29.4 25,29.4 C24.8,28.8 22.9,28 22.2,27.5 C21.7,27.1 20.3,26.5 20.3,26.5" id="Shape" fill="#FFFFFF" fill-rule="nonzero"></path>
                </g>
                <g id="Group" transform="translate(47.000000, 0.000000)" fill="#FFFFFF" fill-rule="nonzero">
                    <path d="M0.7,4.8 C0.8,4.8 1,4.8 1.1,4.7 C1.2,4.7 1.4,4.7 1.5,4.7 C1.6,4.7 1.8,4.7 1.9,4.7 C2.1,4.7 2.2,4.7 2.3,4.8 C2.3,4.8 2.3,4.9 2.4,5.1 C2.4,5.2 2.4,5.4 2.5,5.6 C2.5,5.8 2.5,5.9 2.6,6.1 C2.6,6.3 2.6,6.3 2.6,6.4 C2.7,6.2 2.9,6 3.1,5.8 C3.3,5.6 3.5,5.4 3.8,5.2 C4.1,5 4.4,4.9 4.7,4.8 C5,4.7 5.4,4.7 5.8,4.7 C6.4,4.7 7,4.8 7.5,5 C8,5.2 8.5,5.5 8.9,6 C9.3,6.4 9.6,7 9.8,7.7 C10,8.4 10.1,9.2 10.1,10.1 C10.1,11.9 9.6,13.4 8.6,14.4 C7.6,15.4 6.2,15.9 4.4,15.9 C4.1,15.9 3.8,15.9 3.5,15.8 C3.2,15.8 2.9,15.7 2.7,15.6 L2.7,20.5 C2.5,20.5 2.4,20.5 2.2,20.6 C2,20.6 1.8,20.6 1.7,20.6 C1.5,20.6 1.4,20.6 1.2,20.6 C1,20.6 0.8,20.6 0.7,20.5 L0.7,4.8 Z M2.8,13.8 C3.1,13.9 3.3,14 3.6,14 C3.9,14 4.2,14.1 4.7,14.1 C5.2,14.1 5.7,14 6.1,13.9 C6.5,13.7 6.9,13.5 7.2,13.2 C7.5,12.9 7.7,12.4 7.9,11.9 C8.1,11.4 8.2,10.8 8.2,10.1 C8.2,9 8,8.1 7.6,7.5 C7.2,6.8 6.5,6.5 5.6,6.5 C5.3,6.5 4.9,6.6 4.6,6.7 C4.3,6.8 4,7 3.7,7.3 C3.5,7.5 3.3,7.9 3.1,8.2 C2.9,8.6 2.9,9 2.9,9.6 L2.9,13.8 L2.8,13.8 Z" id="Shape"></path>
                    <path d="M12,4.8 C12.2,4.8 12.3,4.8 12.4,4.7 C12.5,4.7 12.7,4.7 12.8,4.7 C13,4.7 13.1,4.7 13.3,4.7 C13.5,4.7 13.6,4.7 13.7,4.8 C13.7,5 13.8,5.3 13.8,5.6 C13.8,5.9 13.9,6.2 13.9,6.5 C14.2,6 14.6,5.6 15.1,5.3 C15.6,5 16.2,4.8 16.9,4.8 C17,4.8 17.1,4.8 17.2,4.8 C17.3,4.8 17.4,4.8 17.5,4.8 C17.5,4.9 17.5,5.1 17.6,5.2 C17.6,5.3 17.6,5.5 17.6,5.6 C17.6,5.8 17.6,5.9 17.6,6.1 C17.6,6.3 17.6,6.5 17.5,6.6 C17.4,6.6 17.3,6.6 17.2,6.6 L16.9,6.6 C16.5,6.6 16.2,6.7 15.8,6.8 C15.5,6.9 15.2,7.1 14.9,7.4 C14.6,7.7 14.4,8 14.3,8.5 C14.1,9 14.1,9.5 14.1,10.3 L14.1,15.6 C13.9,15.6 13.8,15.6 13.6,15.7 C13.4,15.7 13.2,15.7 13.1,15.7 C12.9,15.7 12.8,15.7 12.6,15.7 C12.4,15.7 12.2,15.7 12.1,15.6 L12.1,4.8 L12,4.8 Z" id="Shape"></path>
                    <path d="M22.7,15.8 C21.9,15.8 21.1,15.7 20.5,15.4 C19.9,15.1 19.4,14.7 18.9,14.2 C18.5,13.7 18.2,13.1 18,12.4 C17.8,11.7 17.7,11 17.7,10.2 C17.7,9.4 17.8,8.7 18,8 C18.2,7.3 18.5,6.7 18.9,6.2 C19.3,5.7 19.8,5.3 20.5,5 C21.1,4.7 21.9,4.6 22.7,4.6 C23.5,4.6 24.3,4.7 24.9,5 C25.5,5.3 26,5.7 26.5,6.2 C26.9,6.7 27.2,7.3 27.4,8 C27.6,8.7 27.7,9.4 27.7,10.2 C27.7,11 27.6,11.7 27.4,12.4 C27.2,13.1 26.9,13.7 26.5,14.2 C26.1,14.7 25.6,15.1 24.9,15.4 C24.2,15.6 23.5,15.8 22.7,15.8 M22.7,14.1 C23.7,14.1 24.4,13.8 24.8,13.1 C25.3,12.4 25.5,11.4 25.5,10.2 C25.5,9 25.3,8 24.8,7.3 C24.3,6.6 23.6,6.3 22.7,6.3 C21.7,6.3 21,6.6 20.6,7.3 C20.1,8 19.9,8.9 19.9,10.2 C19.9,11.4 20.1,12.4 20.6,13.1 C21,13.8 21.7,14.1 22.7,14.1" id="Shape"></path>
                    <path d="M29.7,6.5 L28.1,6.5 L28,6.2 L31.6,2.2 L31.8,2.2 L31.8,4.8 L34.5,4.8 C34.6,5 34.6,5.3 34.6,5.6 C34.6,5.8 34.6,5.9 34.6,6 C34.6,6.1 34.6,6.3 34.5,6.4 L31.8,6.4 L31.8,11.3 C31.8,11.9 31.8,12.3 31.9,12.7 C31.9,13 32,13.3 32.2,13.5 C32.3,13.7 32.5,13.8 32.7,13.9 C32.8,14 33,14 33.3,14 C33.5,14 33.8,14 34,13.9 C34.2,13.9 34.4,13.8 34.6,13.8 C34.7,14.1 34.8,14.4 34.8,14.7 C34.8,15 34.8,15.2 34.8,15.5 C34.5,15.6 34.2,15.6 33.9,15.7 C33.6,15.7 33.3,15.8 32.9,15.8 C31.9,15.8 31.1,15.6 30.6,15.1 C30,14.6 29.8,13.8 29.8,12.7 L29.8,6.5 L29.7,6.5 Z" id="Shape"></path>
                    <path d="M37.3,10.7 C37.3,11.9 37.6,12.7 38.2,13.3 C38.8,13.8 39.6,14.1 40.8,14.1 C41.8,14.1 42.7,13.9 43.6,13.6 C43.7,13.8 43.8,14.1 43.9,14.4 C44,14.7 44,15 44,15.3 C43.5,15.5 43,15.6 42.5,15.7 C42,15.8 41.3,15.8 40.7,15.8 C39.7,15.8 38.9,15.7 38.2,15.4 C37.5,15.1 36.9,14.7 36.5,14.3 C36,13.8 35.7,13.2 35.5,12.6 C35.3,11.9 35.2,11.2 35.2,10.4 C35.2,9.6 35.3,8.9 35.5,8.2 C35.7,7.5 36,6.9 36.4,6.4 C36.8,5.9 37.3,5.5 38,5.2 C38.6,4.9 39.4,4.8 40.2,4.8 C40.9,4.8 41.6,4.9 42.1,5.2 C42.7,5.4 43.1,5.8 43.5,6.2 C43.9,6.6 44.2,7.2 44.4,7.8 C44.6,8.4 44.7,9.1 44.7,9.8 C44.7,10 44.7,10.2 44.7,10.4 C44.7,10.6 44.7,10.8 44.7,11 L37.3,11 L37.3,10.7 Z M42.6,9.2 C42.6,8.8 42.5,8.4 42.4,8.1 C42.3,7.7 42.1,7.4 41.9,7.2 C41.7,6.9 41.4,6.7 41.1,6.6 C40.8,6.4 40.4,6.4 40,6.4 C39.2,6.4 38.5,6.7 38.1,7.2 C37.6,7.7 37.4,8.4 37.3,9.3 L42.6,9.3 L42.6,9.2 Z" id="Shape"></path>
                    <path d="M53.4,13.7 C53.5,13.9 53.6,14.1 53.7,14.4 C53.8,14.7 53.8,15 53.8,15.3 C53,15.6 52,15.8 51,15.8 C49.2,15.8 47.9,15.3 47,14.3 C46.1,13.3 45.6,11.9 45.6,10.2 C45.6,9.4 45.7,8.7 45.9,8 C46.1,7.3 46.5,6.7 46.9,6.2 C47.3,5.7 47.9,5.3 48.5,5 C49.2,4.7 49.9,4.6 50.8,4.6 C51.4,4.6 51.9,4.6 52.3,4.7 C52.7,4.8 53.2,4.9 53.6,5 C53.6,5.2 53.6,5.5 53.5,5.8 C53.4,6.1 53.4,6.4 53.2,6.6 C52.5,6.4 51.7,6.2 50.9,6.2 C49.8,6.2 49,6.6 48.5,7.3 C48,8 47.7,8.9 47.7,10.1 C47.7,11.4 48,12.4 48.6,13 C49.2,13.6 50,13.9 51.1,13.9 C51.5,13.9 51.9,13.9 52.3,13.8 C52.7,13.9 53,13.8 53.4,13.7" id="Shape"></path>
                    <path d="M55.6,6.5 L54,6.5 L53.9,6.2 L57.5,2.2 L57.7,2.2 L57.7,4.8 L60.4,4.8 C60.5,5 60.5,5.3 60.5,5.6 C60.5,5.8 60.5,5.9 60.5,6 C60.5,6.1 60.5,6.3 60.4,6.4 L57.7,6.4 L57.7,11.3 C57.7,11.9 57.7,12.3 57.8,12.7 C57.8,13 57.9,13.3 58,13.5 C58.1,13.7 58.3,13.8 58.5,13.9 C58.7,14 59,14 59.3,14 C59.5,14 59.8,14 60,13.9 C60.2,13.9 60.4,13.8 60.6,13.8 C60.7,14.1 60.8,14.4 60.8,14.7 C60.8,15 60.8,15.2 60.8,15.5 C60.5,15.6 60.2,15.6 59.9,15.7 C59.6,15.7 59.3,15.8 58.9,15.8 C57.9,15.8 57.1,15.6 56.6,15.1 C56,14.6 55.8,13.8 55.8,12.7 L55.8,6.5 L55.6,6.5 Z" id="Shape"></path>
                    <path d="M63.1,10.7 C63.1,11.9 63.4,12.7 64,13.3 C64.6,13.8 65.4,14.1 66.5,14.1 C67.5,14.1 68.4,13.9 69.3,13.6 C69.4,13.8 69.5,14.1 69.6,14.4 C69.7,14.7 69.7,15 69.7,15.3 C69.2,15.5 68.7,15.6 68.2,15.7 C67.6,15.8 67,15.8 66.4,15.8 C65.4,15.8 64.6,15.7 63.9,15.4 C63.2,15.1 62.6,14.7 62.2,14.3 C61.7,13.8 61.4,13.2 61.2,12.6 C61,11.9 60.9,11.2 60.9,10.4 C60.9,9.6 61,8.9 61.2,8.2 C61.4,7.5 61.7,6.9 62.1,6.4 C62.5,5.9 63,5.5 63.7,5.2 C64.3,4.9 65.1,4.8 65.9,4.8 C66.6,4.8 67.3,4.9 67.8,5.2 C68.4,5.4 68.8,5.8 69.2,6.2 C69.6,6.6 69.9,7.2 70.1,7.8 C70.3,8.4 70.4,9.1 70.4,9.8 C70.4,10 70.4,10.2 70.4,10.4 C70.4,10.6 70.4,10.8 70.4,11 L63.1,11 L63.1,10.7 Z M68.4,9.2 C68.4,8.8 68.3,8.4 68.2,8.1 C68.1,7.7 67.9,7.4 67.7,7.2 C67.5,6.9 67.2,6.7 66.9,6.6 C66.6,6.4 66.2,6.4 65.8,6.4 C65,6.4 64.3,6.7 63.9,7.2 C63.4,7.7 63.2,8.4 63.1,9.3 L68.4,9.3 L68.4,9.2 Z" id="Shape"></path>
                    <path d="M79,0.3 C79.2,0.3 79.3,0.3 79.5,0.2 C79.7,0.2 79.9,0.2 80,0.2 C80.2,0.2 80.3,0.2 80.5,0.2 C80.7,0.2 80.9,0.2 81,0.3 L81,15.3 C80.5,15.5 79.9,15.6 79.2,15.7 C78.5,15.8 77.8,15.9 77,15.9 C76.3,15.9 75.5,15.8 74.9,15.6 C74.2,15.4 73.6,15.1 73.1,14.7 C72.6,14.3 72.2,13.7 71.9,13 C71.6,12.3 71.5,11.5 71.5,10.5 C71.5,9.6 71.6,8.9 71.9,8.1 C72.2,7.4 72.5,6.8 73,6.3 C73.5,5.8 74,5.4 74.7,5.1 C75.4,4.8 76.1,4.7 76.9,4.7 C77.3,4.7 77.6,4.7 78,4.8 C78.4,4.9 78.7,4.9 79,5 L79,0.3 Z M79,6.7 C78.7,6.6 78.4,6.5 78.1,6.5 C77.8,6.4 77.4,6.4 77.1,6.4 C76.5,6.4 76,6.5 75.6,6.7 C75.2,6.9 74.8,7.2 74.6,7.6 C74.3,8 74.1,8.4 74,8.9 C73.9,9.4 73.8,9.9 73.8,10.5 C73.8,11.8 74.1,12.8 74.7,13.3 C75.3,13.9 76.1,14.2 77.2,14.2 C77.6,14.2 77.9,14.2 78.2,14.1 C78.5,14.1 78.8,14 79,13.9 L79,6.7 Z" id="Shape"></path>
                    <path d="M0.7,22.4 C0.8,22.4 1,22.4 1.1,22.3 C1.2,22.3 1.4,22.3 1.5,22.3 C1.6,22.3 1.8,22.3 1.9,22.3 C2.1,22.3 2.2,22.3 2.3,22.4 C2.3,22.4 2.3,22.5 2.4,22.7 C2.4,22.8 2.4,23 2.5,23.2 C2.5,23.4 2.6,23.9 2.6,24 C2.7,23.8 2.9,23.6 3.1,23.4 C3.3,23.2 3.5,23 3.8,22.8 C4.1,22.6 4.4,22.5 4.7,22.4 C5,22.3 5.4,22.3 5.8,22.3 C6.4,22.3 7,22.4 7.5,22.6 C8,22.8 8.5,23.1 8.9,23.6 C9.3,24 9.6,24.6 9.8,25.3 C10,26 10.1,26.8 10.1,27.7 C10.1,29.5 9.6,31 8.6,32 C7.6,33 6.2,33.5 4.4,33.5 C4.1,33.5 3.8,33.5 3.5,33.4 C3.2,33.4 2.7,33.4 2.7,33.4 L2.7,38 C2.5,38 2.4,38 2.2,38.1 C2,38.1 1.8,38.1 1.7,38.1 C1.5,38.1 1.4,38.1 1.2,38.1 C1,38.1 0.8,38.1 0.7,38 L0.7,22.4 Z M2.8,31.3 C3.1,31.4 3.3,31.5 3.6,31.5 C3.9,31.5 4.2,31.6 4.7,31.6 C5.2,31.6 5.7,31.5 6.1,31.4 C6.5,31.2 6.9,31 7.2,30.7 C7.5,30.4 7.7,29.9 7.9,29.4 C8.1,28.9 8.2,28.3 8.2,27.6 C8.2,26.5 8,25.6 7.6,25 C7.2,24.3 6.5,24 5.6,24 C5.3,24 4.9,24.1 4.6,24.2 C4.3,24.3 4,24.5 3.7,24.8 C3.5,25 3.3,25.4 3.1,25.7 C2.9,26.1 2.9,26.5 2.9,27.1 L2.9,31.3 L2.8,31.3 Z" id="Shape"></path>
                    <path d="M11.9,17.8 C12.1,17.8 12.2,17.8 12.4,17.7 C12.6,17.7 12.8,17.7 12.9,17.7 C13.1,17.7 13.2,17.7 13.4,17.7 C13.6,17.7 13.8,17.7 13.9,17.8 L13.9,29.8 C13.9,30.2 13.9,30.5 14,30.7 C14.1,30.9 14.2,31.1 14.3,31.2 C14.4,31.3 14.6,31.4 14.7,31.4 C14.9,31.4 15,31.5 15.2,31.5 C15.3,31.5 15.5,31.5 15.6,31.5 C15.8,31.5 15.9,31.5 16,31.4 C16.1,31.9 16.2,32.4 16.2,33 C16,33.1 15.8,33.1 15.5,33.1 C15.2,33.1 15,33.1 14.7,33.1 C14.3,33.1 13.9,33.1 13.6,33 C13.3,32.9 12.9,32.7 12.7,32.5 C12.4,32.3 12.2,32 12.1,31.6 C11.9,31.2 11.9,30.8 11.9,30.2 L11.9,17.8 Z" id="Shape"></path>
                    <path d="M22.8,26 C22.8,25.2 22.6,24.6 22.2,24.3 C21.8,24 21.2,23.8 20.4,23.8 C19.9,23.8 19.5,23.8 19,23.9 C18.6,24 18.2,24.1 17.8,24.2 C17.5,23.7 17.4,23.2 17.4,22.6 C17.9,22.4 18.4,22.3 19,22.2 C19.6,22.1 20.1,22.1 20.6,22.1 C22,22.1 23,22.4 23.8,23 C24.5,23.6 24.9,24.6 24.9,26 L24.9,32.7 C24.4,32.8 23.8,32.9 23.1,33 C22.4,33.1 21.7,33.2 21,33.2 C20.3,33.2 19.7,33.1 19.2,33 C18.7,32.9 18.2,32.7 17.8,32.4 C17.4,32.1 17.1,31.8 16.9,31.3 C16.7,30.9 16.6,30.3 16.6,29.7 C16.6,29.1 16.7,28.6 17,28.1 C17.2,27.6 17.6,27.3 18,27 C18.4,26.7 18.9,26.5 19.4,26.3 C19.9,26.2 20.5,26.1 21.1,26.1 C21.5,26.1 21.9,26.1 22.2,26.1 C22.5,26.1 22.7,26.1 22.9,26.2 L22.9,26 L22.8,26 Z M22.8,28 C22.6,28 22.3,28 22,28 C21.7,28 21.4,28 21.2,28 C20.3,28 19.7,28.2 19.2,28.5 C18.7,28.8 18.5,29.3 18.5,30 C18.5,30.4 18.6,30.7 18.7,31 C18.9,31.2 19,31.4 19.3,31.5 C19.5,31.6 19.8,31.7 20.1,31.7 C20.4,31.7 20.6,31.7 20.9,31.7 C21.2,31.7 21.5,31.7 21.9,31.6 C22.2,31.6 22.5,31.5 22.8,31.4 L22.8,28 Z" id="Shape"></path>
                    <path d="M26.9,22.4 C27.1,22.4 27.2,22.4 27.3,22.3 C27.4,22.3 27.6,22.3 27.7,22.3 C27.9,22.3 28,22.3 28.1,22.3 C28.2,22.3 28.4,22.3 28.5,22.4 C28.5,22.6 28.6,22.9 28.6,23.2 C28.6,23.6 28.7,23.8 28.7,24.1 C28.8,23.9 29,23.6 29.2,23.4 C29.4,23.2 29.7,23 29.9,22.8 C30.2,22.6 30.5,22.5 30.9,22.3 C31.3,22.2 31.7,22.1 32.1,22.1 C33.3,22.1 34.2,22.5 34.8,23.2 C35.4,23.9 35.7,24.9 35.7,26.3 L35.7,33.1 C35.5,33.1 35.4,33.1 35.2,33.2 C35,33.2 34.8,33.2 34.7,33.2 C34.5,33.2 34.4,33.2 34.2,33.2 C34,33.2 33.8,33.2 33.7,33.1 L33.7,26.9 C33.7,25.9 33.5,25.2 33.2,24.7 C33,24.2 32.5,24 31.8,24 C31.4,24 31,24.1 30.7,24.2 C30.4,24.3 30,24.6 29.8,24.8 C29.5,25.1 29.3,25.5 29.2,25.9 C29,26.4 29,26.9 29,27.6 L29,33 C28.8,33 28.7,33 28.5,33.1 C28.3,33.1 28.1,33.1 28,33.1 C27.8,33.1 27.7,33.1 27.5,33.1 C27.3,33.1 27.1,33.1 27,33 L27,22.4 L26.9,22.4 Z" id="Shape"></path>
                    <path d="M39.4,28.2 C39.4,29.4 39.7,30.2 40.3,30.8 C40.9,31.3 41.7,31.6 42.8,31.6 C43.8,31.6 44.7,31.4 45.6,31.1 C45.7,31.3 45.8,31.6 45.9,31.9 C46,32.2 46,32.5 46,32.8 C45.5,33 45,33.1 44.5,33.2 C44,33.3 43.3,33.3 42.7,33.3 C41.7,33.3 40.9,33.2 40.2,32.9 C39.5,32.6 38.9,32.2 38.5,31.8 C38,31.3 37.7,30.7 37.5,30.1 C37.3,29.4 37.2,28.7 37.2,27.9 C37.2,27.1 37.3,26.4 37.5,25.7 C37.7,25 38,24.4 38.4,23.9 C38.8,23.4 39.3,23 40,22.7 C40.6,22.4 41.4,22.3 42.2,22.3 C42.9,22.3 43.6,22.4 44.1,22.7 C44.7,22.9 45.1,23.3 45.5,23.7 C45.9,24.1 46.2,24.7 46.4,25.3 C46.6,25.9 46.7,26.6 46.7,27.3 C46.7,27.5 46.7,27.7 46.7,27.9 C46.7,28.1 46.7,28.3 46.7,28.5 L39.4,28.5 L39.4,28.2 Z M44.7,26.7 C44.7,26.3 44.6,25.9 44.5,25.6 C44.4,25.2 44.2,24.9 44,24.7 C43.8,24.4 43.5,24.2 43.2,24.1 C42.9,23.9 42.5,23.9 42.1,23.9 C41.3,23.9 40.6,24.2 40.2,24.7 C39.7,25.2 39.5,25.9 39.4,26.8 L44.7,26.8 L44.7,26.7 Z" id="Shape"></path>
                    <path d="M48.8,24 L47.2,24 L47.1,23.7 L50.7,19.7 L50.9,19.7 L50.9,22.3 L53.6,22.3 C53.7,22.5 53.7,22.8 53.7,23.1 C53.7,23.3 53.7,23.4 53.7,23.5 C53.7,23.6 53.7,23.8 53.6,23.9 L50.9,23.9 L50.9,28.8 C50.9,29.4 50.9,29.8 51,30.2 C51,30.5 51.1,30.8 51.2,31 C51.3,31.2 51.5,31.3 51.7,31.4 C51.9,31.5 52.2,31.5 52.5,31.5 C52.7,31.5 53,31.5 53.2,31.4 C53.4,31.4 53.6,31.3 53.8,31.3 C53.9,31.6 54,31.9 54,32.2 C54,32.5 54,32.7 54,33 C53.7,33.1 53.4,33.1 53.1,33.2 C52.8,33.2 52.5,33.3 52.1,33.3 C51.1,33.3 50.3,33.1 49.8,32.6 C49.2,32.1 49,31.3 49,30.2 L49,24 L48.8,24 Z" id="Shape"></path>
                </g>
                <path d="M102.3,19.4 C102.5,19.4 102.7,19.3 102.9,19.3 C103.2,19.3 103.5,19.4 103.6,19.5 C103.7,19.6 103.8,19.8 103.8,20 C103.8,20.3 103.6,20.5 103.3,20.6 C103.5,20.7 103.6,20.8 103.7,21.1 C103.8,21.4 103.8,21.7 103.9,21.8 L103.6,21.8 C103.6,21.7 103.5,21.5 103.4,21.2 C103.3,20.9 103.2,20.7 102.9,20.7 L102.6,20.7 L102.6,21.8 L102.3,21.8 L102.3,19.4 Z M102.6,20.5 L102.9,20.5 C103.2,20.5 103.4,20.3 103.4,20 C103.4,19.7 103.2,19.5 102.8,19.5 C102.6,19.5 102.5,19.5 102.5,19.5 L102.5,20.5 L102.6,20.5 Z" id="Shape" fill="#FFFFFF" fill-rule="nonzero"></path>
                <path d="M104.6,20.6 C104.6,21.5 103.9,22.3 102.9,22.3 C102,22.3 101.2,21.6 101.2,20.6 C101.2,19.7 101.9,18.9 102.9,18.9 C103.9,18.9 104.6,19.7 104.6,20.6 Z" id="Shape" stroke="#FFFFFF" stroke-width="0.424"></path>
                <path d="M139.4,0.1 L139.2,36.7" id="Shape" stroke="#FFFFFF" stroke-width="0.75"></path>
                <g id="Group" transform="translate(150.000000, 13.000000)" fill="#FFFFFF" fill-rule="nonzero">
                    <path d="M0.8,0.1 L3.5,0.1 C6,0.1 7.7,1.6 7.7,4.3 C7.7,7 6,8.5 3.5,8.5 L0.8,8.5 L0.8,0.1 Z M3.5,7.8 C5.6,7.8 7,6.6 7,4.3 C7,2.1 5.6,0.8 3.5,0.8 L1.7,0.8 L1.7,7.7 L3.5,7.7 L3.5,7.8 Z" id="Shape"></path>
                    <path d="M9.4,0.1 L10.3,0.1 L10.3,1.1 L9.4,1.1 L9.4,0.1 Z M9.5,2.5 L10.3,2.5 L10.3,8.5 L9.5,8.5 L9.5,2.5 Z" id="Shape"></path>
                    <path d="M14.3,10.3 C15.5,10.3 16.4,9.7 16.4,8.4 L16.4,7.8 C16.4,7.6 16.4,7.4 16.4,7.4 C16,8.1 15.4,8.5 14.5,8.5 C12.9,8.5 11.8,7.2 11.8,5.4 C11.8,3.6 12.8,2.4 14.4,2.4 C16,2.4 16.4,3.4 16.4,3.4 C16.4,3.4 16.4,3.3 16.4,3.2 L16.4,2.5 L17.2,2.5 L17.2,8.4 C17.2,10.3 15.8,11.1 14.3,11.1 C13.6,11.1 12.9,10.9 12.3,10.6 L12.6,9.9 C12.7,9.9 13.4,10.3 14.3,10.3 Z M16.5,5.4 C16.5,3.6 15.7,3.1 14.6,3.1 C13.4,3.1 12.7,4 12.7,5.4 C12.7,6.8 13.5,7.8 14.7,7.8 C15.6,7.8 16.5,7.2 16.5,5.4 Z" id="Shape"></path>
                    <path d="M19.2,0.1 L20.1,0.1 L20.1,1.1 L19.2,1.1 L19.2,0.1 Z M19.2,2.5 L20,2.5 L20,8.5 L19.2,8.5 L19.2,2.5 Z" id="Shape"></path>
                    <path d="M22.2,3.3 L21.4,3.3 L21.4,2.6 L22.2,2.6 L22.2,0.9 L23,0.9 L23,2.6 L24.5,2.6 L24.5,3.3 L23,3.3 L23,6.3 C23,7.7 23.9,7.9 24.4,7.9 C24.6,7.9 24.7,7.9 24.7,7.9 L24.7,8.6 C24.7,8.6 24.6,8.6 24.4,8.6 C23.7,8.6 22.3,8.4 22.3,6.4 L22.3,3.3 L22.2,3.3 Z" id="Shape"></path>
                    <path d="M29.2,4.8 L29.5,4.8 L29.5,4.6 C29.5,3.4 28.9,3 28,3 C27,3 26.3,3.6 26.3,3.6 L26,3 C26,3 26.8,2.3 28.1,2.3 C29.6,2.3 30.4,3.1 30.4,4.6 L30.4,8.5 L29.6,8.5 L29.6,7.8 C29.6,7.5 29.6,7.3 29.6,7.3 C29.6,7.3 29.1,8.6 27.6,8.6 C26.6,8.6 25.5,8 25.5,6.8 C25.5,4.9 28.2,4.8 29.2,4.8 Z M27.7,8 C28.9,8 29.5,6.8 29.5,5.8 L29.5,5.5 L29.2,5.5 C28.3,5.5 26.4,5.5 26.4,6.9 C26.4,7.4 26.8,8 27.7,8 Z" id="Shape"></path>
                    <path d="M32.2,0.1 L33,0.1 L33,6.9 C33,7.7 33.4,7.8 33.7,7.8 C33.8,7.8 33.9,7.8 33.9,7.8 L33.9,8.5 C33.9,8.5 33.8,8.5 33.6,8.5 C33.1,8.5 32.2,8.3 32.2,7 L32.2,0.1 Z" id="Shape"></path>
                    <path d="M38.7,0.1 L41.2,0.1 C42.1,0.1 42.4,0.2 42.8,0.3 C43.6,0.6 44.1,1.5 44.1,2.5 C44.1,3.6 43.5,4.5 42.5,4.8 C42.5,4.8 42.6,4.9 42.7,5.1 L44.5,8.5 L43.6,8.5 L41.7,4.9 L39.6,4.9 L39.6,8.5 L38.8,8.5 L38.8,0.1 L38.7,0.1 Z M41.5,4.2 C42.5,4.2 43.2,3.5 43.2,2.5 C43.2,1.8 42.9,1.3 42.4,1 C42.1,0.9 41.8,0.8 41.2,0.8 L39.5,0.8 L39.5,4.2 L41.5,4.2 Z" id="Shape"></path>
                    <path d="M48.6,2.4 C50.3,2.4 51.1,3.7 51.1,5.2 C51.1,5.3 51.1,5.6 51.1,5.6 L46.5,5.6 C46.5,7.1 47.6,8 48.8,8 C49.9,8 50.6,7.3 50.6,7.3 L51,7.9 C51,7.9 50.1,8.7 48.8,8.7 C47,8.7 45.6,7.4 45.6,5.5 C45.6,3.5 46.9,2.4 48.6,2.4 Z M50.2,4.9 C50.2,3.6 49.4,3.1 48.5,3.1 C47.5,3.1 46.6,3.7 46.4,4.9 L50.2,4.9 Z" id="Shape"></path>
                    <path d="M52.6,2.5 L53.4,2.5 L53.4,3.1 C53.4,3.4 53.4,3.6 53.4,3.6 C53.4,3.6 53.9,2.4 55.5,2.4 C57.1,2.4 58.1,3.7 58.1,5.6 C58.1,7.5 57,8.8 55.4,8.8 C53.9,8.8 53.4,7.6 53.4,7.6 C53.4,7.6 53.4,7.8 53.4,8.1 L53.4,11 L52.6,11 L52.6,2.5 Z M55.3,8 C56.4,8 57.2,7.1 57.2,5.6 C57.2,4.1 56.4,3.2 55.3,3.2 C54.3,3.2 53.3,3.9 53.3,5.6 C53.4,6.7 54.1,8 55.3,8 Z" id="Shape"></path>
                    <path d="M62.5,2.4 C64.3,2.4 65.7,3.7 65.7,5.5 C65.7,7.3 64.3,8.7 62.5,8.7 C60.7,8.7 59.3,7.3 59.3,5.5 C59.3,3.7 60.7,2.4 62.5,2.4 Z M62.5,7.9 C63.8,7.9 64.9,6.8 64.9,5.4 C64.9,4 63.8,3 62.5,3 C61.2,3 60.1,4 60.1,5.4 C60.1,6.9 61.2,7.9 62.5,7.9 Z" id="Shape"></path>
                    <path d="M67.2,2.5 L68,2.5 L68,3.6 C68,3.9 68,4.1 68,4.1 C68.3,3.2 69,2.5 69.9,2.5 C70.1,2.5 70.2,2.5 70.2,2.5 L70.2,3.3 C70.2,3.3 70.1,3.3 69.9,3.3 C69,3.3 68.4,4 68.1,4.9 C68,5.3 67.9,5.7 67.9,6.1 L67.9,8.6 L67.1,8.6 L67.1,2.5 L67.2,2.5 Z" id="Shape"></path>
                    <path d="M71.7,3.3 L70.9,3.3 L70.9,2.6 L71.7,2.6 L71.7,0.9 L72.5,0.9 L72.5,2.6 L74,2.6 L74,3.3 L72.5,3.3 L72.5,6.3 C72.5,7.7 73.4,7.9 73.9,7.9 C74.1,7.9 74.2,7.9 74.2,7.9 L74.2,8.6 C74.2,8.6 74.1,8.6 73.9,8.6 C73.2,8.6 71.8,8.4 71.8,6.4 L71.8,3.3 L71.7,3.3 Z" id="Shape"></path>
                </g>
            </g>
        </g>
    </g>
</svg>