<?xml version="1.0" encoding="utf-8"?>
<!-- Generator: Adobe Illustrator 23.1.1, SVG Export Plug-In . SVG Version: 6.00 Build 0)  -->
<svg version="1.1" id="Layer_1" xmlns="http://www.w3.org/2000/svg" xmlns:xlink="http://www.w3.org/1999/xlink" x="0px" y="0px"
	 viewBox="0 0 182 26.6" style="enable-background:new 0 0 182 26.6;" xml:space="preserve">
<style type="text/css">
	.st0{fill:#FFFFFF;}
	.st1{fill:#F9F9FA;}
	.st2{opacity:0.5;}
	.st3{fill:#6D6968;}
	.st4{fill:none;stroke:#FFFFFF;stroke-width:0.5;}
	.st5{fill:none;stroke:#FFFFFF;stroke-width:0.42;}
</style>
<title>Protected-planet-Logo</title>
<g id="Page-1">
	<g id="PP-logo2-01">
		<g id="Group">
			<g id="Shape">
				<path class="st0" d="M19.3,5.4L19.3,5.4c0.2,0.1,0.4-0.1,0.5-0.1c0.2,0.1,0.5,0.1,0.7,0.2c0.1,0,0.1-0.1,0.2-0.1
					c-0.1-0.3-0.5-0.3-0.7-0.5c0.2,0,0.1-0.2,0.1-0.2c-0.1,0-0.4,0.1-0.4,0.1C19.9,5,20.1,5,20.1,5c-0.1,0.2-0.3,0.1-0.4,0
					c-0.2-0.2-0.2-0.1-0.4-0.1c0,0.1-0.1,0.1-0.1,0.2S19.1,5.1,19.3,5.4"/>
				<path class="st1" d="M6.1,5.7c0.1,0.1,0.3-0.3,0.4-0.4S7,5.1,6.7,5.4h0.1c0,0.1-0.1,0.1,0,0.1C6.8,5.6,6.9,5.3,7,5.3
					c0,0.1,0.2-0.1-0.1-0.1c-0.1-0.1,0-0.4-0.2-0.2C6.6,4.8,6.1,5,6.1,5.1C6.2,5.1,6.4,5,6.5,5c0,0.1-0.1,0.1-0.1,0.1
					c0.1,0,0.2,0.1,0.4,0.1c-0.1,0.1-0.4,0-0.5,0.2c0,0,0.1,0,0.1-0.1C6.4,5.3,6.1,5.6,6.1,5.7"/>
				<path class="st1" d="M21.4,5.9L21.4,5.9c-0.2-0.1-0.4-0.5-0.6-0.4C21.1,5.6,21.2,5.9,21.4,5.9"></path>
				<path class="st1" d="M7,5.5c0-0.1,0.4,0,0.5-0.1C7.4,5.4,7,5.4,7,5.5"></path>
				<path class="st1" d="M9.7,2.4L9.7,2.4"></path>
				<path class="st1" d="M9.9,2.3L9.9,2.3"></path>
				<path class="st1" d="M6.6,5.6c0,0.1-0.1,0.1,0,0.1c0.1,0,0.2-0.1,0.4-0.1C6.9,5.6,6.6,5.7,6.6,5.6"></path>
				<path class="st1" d="M13.2,2.3L13.2,2.3"></path>
				<path class="st1" d="M12,2.3L12,2.3"></path>
				<path class="st1" d="M12.4,2.3L12.4,2.3"></path>
				<path class="st1" d="M7.7,3.2L7.7,3.2"></path>
				<path class="st1" d="M6.7,3.2L6.7,3.2"></path>
				<path class="st1" d="M9,3.1L9,3.1L9,3.1"></path>
				<path class="st0" d="M3.8,7.8C4,7.6,4.2,7.4,4.4,7.3c0.2-0.1,0.3,0.2,0.4,0.1c0-0.1,0.1-0.1,0.1-0.2h0.2c0,0.1,0.4,0.1,0.4,0.1
					S5.2,8.2,5.4,8.2s0.3-0.5,0.3-0.7C5.7,7,6.1,6.9,6.4,6.7l0,0c0.1-0.1,0.2-0.1,0.3-0.2c0.1,0,0.1,0,0.2-0.1c0,0-0.1,0-0.1-0.1
					l0,0c0.1,0,0.1,0,0.1-0.1l0,0C7,6.2,7,6.2,7.1,6.1L7,6.3c0.1,0,0.2-0.2,0.2-0.3C7.2,6,7.6,5.8,7.7,5.8H7.6
					c0.2-0.1,0.4-0.1,0.5-0.1c-0.2,0,0.2-0.4,0.3-0.3C8.5,5.4,8.8,5.2,9,5.2C8.9,5.3,9,5.3,9,5.3c-0.2,0-0.4,0.3-0.2,0.2
					C9,5.3,9.3,5.3,9.4,5.2s-0.5,0-0.2-0.3H9c0.1-0.1,0.2,0,0.2-0.1c0.1-0.1-0.6,0.1-0.7,0.1c0.2-0.2,1.5-0.2,1.4-0.6
					c-0.1,0-0.5,0.1-0.5,0.1c0.1-0.1,0.4-0.1,0.4-0.1c0-0.1-0.4,0-0.2-0.1C9.6,4.1,9.6,4,9.5,4C9.8,4,9.5,3.6,9.3,3.8l0.1,0.1
					c-0.1,0-0.1-0.1-0.1-0.1c-0.1,0.2-0.5,0.1-0.7,0C8.2,3.5,8.3,3.8,8,3.9c0,0.2,0.2,0.2-0.1,0.3C7.6,4.3,7.8,4.4,7.6,4.5H7.5
					c0.1-0.1-0.1-0.1-0.1,0c0-0.1,0.2-0.1,0.1-0.2c-0.3,0-0.2-0.2-0.6-0.2C7,4,7,4,6.8,4C7,3.9,7.4,3.8,7.6,3.6H7.5
					c0.2,0,0.5,0,0.6-0.1c-0.1,0-0.2,0-0.2-0.1h0.3C8.1,3.5,8,3.5,7.9,3.6H8c0,0-0.1,0.1,0,0.1c0.1,0,0.4-0.1,0.5-0.1H8.5
					c0-0.1-0.2-0.1-0.2-0.1h0.2c0.2-0.1,0.3-0.1,0.5-0.2l0,0c-0.1,0.1,0.2,0,0.2,0h0.2c-0.1,0-0.1,0-0.2,0.1c0,0,0.2,0.1,0.2,0
					c0.1,0.1-0.2,0.2-0.1,0.2c-0.1,0.1-0.4,0-0.5,0.1h0.4c0.1,0.1,0.3,0.2,0.4,0.1c0.1-0.1-0.1-0.1-0.1-0.1c0.2-0.1,0.2,0.1,0.2-0.1
					c-0.1,0-0.1-0.1-0.2-0.1s0.1,0,0.1-0.1c0.1,0,0.3,0.1,0.3-0.1L9.6,3.2l0,0c-0.2,0-0.4-0.1-0.7-0.1L9,3.1C8.9,3,8.4,3.2,8.5,3.2
					c-0.1,0,0.1-0.1,0.2-0.1H8.3c0.1,0,0.1,0,0.1-0.1c-0.2,0-0.4,0-0.5,0.1c0.1,0,0.1,0,0.2-0.1H8c0.1-0.1,0.2,0,0.2-0.1
					C8.2,3.1,8,3.1,8,3.2h0.2c0,0-0.1,0.1-0.2,0c0,0,0,0,0,0C8,3.2,8.5,3.2,8.5,3.2c-0.1,0-0.3,0.2-0.4,0.2c0-0.1,0-0.1,0.1-0.1
					S8,3.4,8,3.4S7.9,3.3,8,3.3H7.9C8,3.3,8,3.3,8,3.2c0.1-0.1-0.2-0.1-0.4,0l0.1,0.1c0,0-0.1,0-0.1,0.1l0,0h0.1
					C7.7,3.4,7.6,3.4,7.6,3.5l0,0c-0.2,0-0.5,0-0.7,0c0-0.2-0.1-0.2-0.2-0.2c-0.4,0-0.7,0-1,0.2C5.2,4.1,4.7,4.6,4.3,5.3
					C3.5,6.5,3,7.9,2.7,9.4c0.1,0,0.1,0.3,0.2,0.4c0.1,0.1,0.2-0.2,0.2-0.1c0.1,0,0.1,0.4,0.1,0.4c0,0.2,0.2,0.3,0.4,0.3
					c0,0.1,0,0.3,0,0.4c0,0.2-0.1,0.4-0.1,0.5h0.1v-0.1c0.2,0.1,0.1,0.8,0.2,1c0.2,0.1,0.1-0.5,0.4-0.4c0.1,0.1,0,0.3,0.1,0.4
					L4.5,12c-0.1-0.1-0.1-0.5-0.3-0.4C3.7,11.9,3.9,11,4,10.7c0.1-0.2,0.5-0.8-0.1-0.8C3.4,9.9,3.9,9.4,4,9.3
					c0.1-0.1,0.1-0.1,0.1-0.2s0.2-0.2,0.2-0.4c-0.5-0.1-0.5,0.6-1,0.5C3,9.2,3.8,7.9,3.8,7.8L3.8,7.8 M6.6,5.7c-0.1,0,0-0.1,0-0.1
					c0,0.1,0.3,0,0.4,0C6.9,5.6,6.7,5.7,6.6,5.7 M7.5,5.4C7.4,5.5,7,5.5,7,5.5S7.4,5.4,7.5,5.4 M6.3,5.3c0.2-0.2,0.4-0.1,0.5-0.2
					c-0.1,0-0.2-0.1-0.4-0.1C6.5,5.1,6.5,5,6.6,5c-0.2,0-0.3,0-0.5,0.1C6.3,5.1,6.7,4.8,6.7,5c0.2-0.1,0.1,0.2,0.2,0.2
					C7.3,5.3,7,5.3,7,5.3L6.8,5.5V5.4H6.7C7,5.1,6.6,5.2,6.5,5.3S6.2,5.8,6.1,5.7C6.1,5.6,6.4,5.3,6.4,5.3C6.4,5.3,6.4,5.3,6.3,5.3"
					/>
				<path class="st1" d="M9.5,5.1L9.5,5.1c-0.1,0-0.1,0.1-0.2,0.1S9.5,5.2,9.5,5.1C9.5,5.1,9.5,5.1,9.5,5.1"></path>
				<path class="st0" d="M9.9,4.8H9.8C9.8,4.8,9.8,4.8,9.9,4.8L9.9,4.8L9.8,4.8c0,0,0.2-0.2,0.2-0.2c-0.2,0-0.4,0.3-0.5,0.4l0,0
					C9.4,5,9.3,5,9.3,5S9.8,5,9.8,5L9.8,5.1c0,0,0.2-0.1,0.2-0.1c0.1,0.1,0.1,0.2,0.2,0h-0.1c0-0.1,0-0.1,0.1-0.1h-0.1
					c0-0.1,0.1-0.1,0.1-0.1C10.1,4.8,10,4.9,9.9,4.8"/>
				<path class="st1" d="M7.9,3.7c0.1,0,0.2-0.1,0.2-0.1C8,3.6,7.9,3.7,7.9,3.7L7.9,3.7"></path>
				<path class="st1" d="M7.1,2.7C7.1,2.7,7,2.7,7,2.8C7.1,2.8,7.1,2.7,7.1,2.7L7.1,2.7"></path>
				<path class="st1" d="M7.1,2.8L7.1,2.8"></path>
				<path class="st1" d="M7.3,2.7L7.3,2.7"></path>
				<path class="st1" d="M9.2,4.7c0.1,0.1,0.2,0.1,0.2,0.1C9.4,4.7,9.4,4.7,9.2,4.7"></path>
				<path class="st1" d="M7.6,2.6C7.4,2.7,7.4,2.6,7.6,2.6L7.6,2.6C7.6,2.6,7.6,2.6,7.6,2.6L7.4,2.6C7.4,2.6,7.4,2.6,7.6,2.6
					c-0.1,0-0.2,0.1-0.2,0.1C7.4,2.7,7.5,2.7,7.6,2.6"/>
				<path class="st1" d="M6.4,3.2L6.4,3.2C6.3,3.3,6.4,3.3,6.4,3.2L6.4,3.2L6.4,3.2"></path>
				<path class="st1" d="M7.7,2.6L7.7,2.6"></path>
				<path class="st1" d="M6.4,3.1c0.3,0,0.6,0,0.8-0.1l0,0c0.1,0,0.1,0,0.2-0.1C7.3,2.9,7.3,3,7.3,2.9l0.2-0.1
					C7.3,2.7,7.2,2.9,7.1,2.9C7,2.8,6.9,2.8,6.8,2.8V2.7c0,0-0.1,0-0.1,0.1v0l0,0L6.5,3h0.2C6.6,3,6.4,3,6.4,3.1L6.4,3.1"/>
				<path class="st1" d="M7,2.8L7,2.8c0.2-0.1,0.5,0,0.7-0.1c0,0-0.2,0-0.1-0.1c0,0-0.2,0.1-0.1,0.1l0,0C7.3,2.8,7.2,2.8,7,2.8
					L7,2.8C7,2.8,7,2.8,7,2.8L7,2.8C7,2.8,7,2.8,6.9,2.8H7c-0.1,0-0.1,0-0.2,0.1C6.9,2.9,7,2.9,7,2.8"/>
				<path class="st1" d="M7,2.7C7,2.7,7,2.8,7,2.9S7,2.8,7,2.7"></path>
				<path class="st1" d="M5.9,8L5.9,8"></path>
				<path class="st0" d="M10.5,13.8c-0.2-0.1-0.4-0.1-0.5-0.2c-0.2,0-0.4,0-0.6,0c-0.1-0.2-0.1-0.2-0.2-0.2
					c-0.4-0.2-0.2,0.2-0.4,0.2c-0.2,0-0.4-0.2-0.2-0.4s-0.2-0.7-0.5-0.7c-0.3,0-0.5-0.1-0.8-0.2C7.2,12,6.7,12,6.6,11.8h0.1
					c-0.1,0-0.4,0.1-0.5,0.1s-0.3,0-0.4-0.1c-0.1-0.1-0.2-0.1-0.4-0.1c0,0.1,0.1,0.1,0.1,0.1c-0.4,0-0.1,0.4-0.2,0.4
					c-0.2,0-0.1-0.3-0.1-0.4s0.1-0.1,0-0.1s-0.1,0-0.1,0.1c-0.2,0.1-0.5,0.3-0.5,0.6c-0.2,0.1,0,0.5,0.1,0.7c0,0.1,0,0.1,0.1,0.1
					c0,0.2-0.3,0.4-0.3,0.7s-0.1,0.3,0.2,0.4c0,0.1-0.2,0.2-0.1,0.4c0,0.1,0.1,0.1,0.2,0.2c0.2,0.2,0.3,0.4,0.5,0.7
					c0.2,0.2,0.3,0.6,0.7,0.7c0.3,0.1,0.6,0.2,0.8,0.5c0.1,0.2,0.1,0.5,0.2,0.8c0,0.3,0.1,0.5,0.2,0.7c0.2,0.4,0.2-0.3,0.2,0.1
					c0,0.2,0.1,0.1,0.2,0.2c0.2,0.3,0.4,0.7,0.5,1c0-0.3,0.1,0.4,0.1,0.3c-0.2-0.6,0.5,0.2,0.8,0.4c0-0.2-0.5,0-0.4-0.1
					c0.1-0.1,0.1-0.1,0-0.2c0.1,0,0.1,0.1,0.1,0c0.1,0.1-0.4-0.1-0.2-0.2s0.4,0,0.3-0.2c0-0.1-0.2-0.2,0-0.3
					c0.2-0.1,0.4-0.1,0.4-0.2c0.2-0.4-0.2-0.3-0.3-0.5c0,0.1,0.5,0,0.6-0.2l0.2-0.7l0,0c0-0.1,0-0.2,0.1-0.2
					c-0.1-0.1-0.1-0.2-0.1-0.4C9.7,17,9.9,16.8,10,16.7c0.3-0.1,0.5-0.4,0.5-0.8c0.1-0.2-0.2-0.8-0.1-0.9
					C10.5,14.8,11,13.9,10.5,13.8"/>
				<path class="st1" d="M6,9.1c0.1,0,0.1,0,0.1-0.1C6,9.1,5.8,9.1,6,9.1"></path>
				<path class="st0" d="M22.1,10.4c-0.4,0.1-0.5,0.2-0.6-0.2c-0.1-0.3-0.6-0.5-0.7-0.8c0-0.2-0.1-0.3-0.2-0.5
					c-0.1-0.2-0.1-0.4-0.2-0.7s-0.1-0.4-0.2-0.5s-0.4-0.6-0.4-0.9c0.1,0.1,0.2,0.4,0.3,0.4c0.1-0.2,0-0.5-0.1-0.7
					c-0.2,0.1-0.4-0.1-0.5,0c-0.2,0.1-0.4,0.1-0.7,0c-0.2-0.1-0.9-0.5-0.8,0C18,7,17.3,6.4,17.1,6.3s-0.5,0.1-0.5-0.2
					c0-0.2,0.1-0.3,0.1-0.5c-0.1,0.1-0.1,0.1-0.1,0s-0.2,0.1-0.3,0.1h-0.5c-0.3,0-0.5,0.1-0.8,0.3c-0.3,0.2-0.5-0.1-0.7,0.1l0,0
					c-0.1,0.2-0.3,0.4-0.5,0.5c-0.1,0.1-0.1,0.3-0.1,0.5c-0.1,0.2-0.2,0.3-0.4,0.4c-0.2,0.1-0.4,0.3-0.4,0.6
					c-0.1,0.2-0.1,0.4-0.2,0.5c-0.1,0.2,0.1,0.6,0.1,0.8c0,0.2-0.1,0.4-0.2,0.5c-0.1,0.1,0,0.3,0,0.5l0,0c0.1,0.2,0.2,0.3,0.4,0.4
					c0.2,0.2,0.2,0.5,0.5,0.8c0.2,0.2,0.4,0.4,0.7,0.4c0.1-0.1,0.2-0.1,0.4-0.1c0.1,0,0.2,0.1,0.3,0.1c0.2,0,0.5-0.4,0.8-0.4
					s0.2,0.4,0.4,0.4c0.7,0,0.6,0.5,0.4,0.9c-0.1,0.3,0.2,0.5,0.4,0.8c0.2,0.2,0.2,0.5,0.2,0.8c0.1,0.3,0.1,0.5,0.1,0.8
					c-0.1,0.2-0.2,0.4-0.3,0.7c0,0.4,0,0.7,0.2,1c0.1,0.3,0.1,0.3,0.3,0.5s0.6-0.2,0.7,0.4c0-0.1,0.4,0.1,0.7,0
					c0.2-0.1,0.5-0.1,0.8-0.1c0-0.1,0.2,0.1,0.2,0c0.2-0.2,0.1,0.2,0.4-0.1l0,0c0.2-0.2,0.3-0.1,0.3-0.5c0-0.2-0.3-0.5,0-0.7
					c0.1-0.2,0.3-0.4,0.5-0.5c0.5-0.3,0.1-0.8,0.3-1.2c0.1-0.2-0.2-0.4-0.2-0.5c0-0.2-0.1-0.4-0.1-0.5c0-0.2,0.1-0.2,0.2-0.4
					c0.1-0.6,0.7-0.8,1-1.2c0.3-0.5,0.8-1.4,0.6-1.8C22.6,10.3,22.4,10.4,22.1,10.4"/>
				<path class="st0" d="M12.3,2.9c0-0.1,0.2,0.1,0.2,0C12.5,2.8,12.4,2.8,12.3,2.9c0.1-0.1,0.2,0,0.4-0.1l0,0c0.1,0,0.1,0,0.1-0.1
					h-0.1c0-0.1,0.1,0,0.1-0.1c0.1-0.1-0.1-0.1-0.1-0.1s0.2,0,0.3-0.1c-0.1,0-0.1,0-0.1-0.1h-0.1c0.1-0.1,0.5-0.1,0.5-0.2
					c0.1,0,0.3,0,0.4-0.1c0.1-0.1-1,0.1-1.1,0.1l0.2-0.1h-0.1c0.1,0,0.1-0.1,0.2-0.1c-0.5-0.1-1.1,0-1.6,0.1l0,0
					c-0.1,0-0.2-0.1-0.3,0h-0.1c-0.1,0-0.6,0-0.7,0.1h0.1c-0.1,0.1-0.3,0-0.4,0.1c-0.1,0.1,0.2,0,0.2,0s-0.2,0-0.2,0.1h0.2
					c0.1,0,0.5-0.1,0.4,0.1c0.1,0,0.1,0,0,0.1c0.1,0,0.1,0,0.2,0.1c0,0-0.1,0-0.1,0c0,0,0,0,0,0c0,0.1,0.1,0.1,0.2,0.1
					C10.7,3,10.5,3,10.5,3.1h0.1c-0.1,0.1,0.1,0.1,0.1,0.1c-0.1,0.1,0.2,0.2,0.3,0.2s0.3-0.3,0.4-0.4l0,0c0.2,0,0.2-0.1,0.4-0.1
					c0.2,0,0.5-0.1,0.7-0.1c-0.1,0-0.3,0-0.3-0.1c0-0.1,0.1,0,0.1-0.1c0-0.1,0.3,0.1,0.3,0.1C12.6,2.9,12.4,2.9,12.3,2.9 M13.2,2.3
					L13.2,2.3 M12.4,2.3L12.4,2.3 M12,2.3L12,2.3"/>
				<path class="st1" d="M5.8,7.9C5.8,7.9,5.8,8,5.8,7.9L5.8,7.9C5.8,7.9,5.8,8,5.8,7.9L5.8,7.9"></path>
				<path class="st0" d="M12.7,3.2L12.7,3.2c0.2,0.1,0.4,0.2,0.7,0c0-0.1-0.1-0.1,0-0.1c-0.1,0-0.4-0.1-0.4,0c0,0.1-0.1,0-0.1-0.1
					s-0.1,0.1-0.1-0.1h-0.1L12.9,3h-0.2C12.7,3.1,12.7,3.1,12.7,3.2L12.7,3.2"/>
				<path class="st1" d="M9.5,4.7C9.5,4.7,9.6,4.7,9.5,4.7"></path>
				<path class="st1" d="M5.1,9.8C5.1,9.8,4.9,10,5.2,10V9.9l0,0C5.2,9.9,5.2,9.8,5.1,9.8"></path>
				<path class="st0" d="M5.6,10c0.1-0.2,0.3,0.1,0.3,0.1S6.1,9.9,6.1,10h0.4c0-0.1,0-0.1-0.1-0.2C6.3,9.7,6.3,9.6,6.2,9.5
					S6,9.6,6,9.5C5.8,9.3,5.8,9.8,5.8,9.8C5.8,9.8,5.4,9.8,5.6,10"/>
				<path class="st1" d="M9.1,5C9.1,5.1,9,5.1,9.1,5C9,5.1,9.2,5.2,9.3,5.1C9.2,5.1,9.2,5.1,9.1,5"></path>
				<path class="st0" d="M5.7,9.4C5.7,9.3,5.8,9.2,5.6,9.2C5.5,9,5.4,8.8,5.3,8.7C5,8.4,4.8,8.5,4.6,8.8c0.2,0.1,0.3-0.3,0.4-0.1
					c0.2,0.1,0.4,0.3,0.3,0.5c0,0,0,0,0,0C5.4,9.4,5.5,9.7,5.7,9.4"/>
				<path class="st1" d="M6.6,10.1c-0.1,0.1,0.2,0.2,0.2,0.1C6.8,10.2,6.6,10,6.6,10.1"></path>
				<path class="st1" d="M6.4,9.8L6.4,9.8"></path>
				<path class="st1" d="M5.7,8.4V8.2C5.7,8.3,5.7,8.5,5.7,8.4"></path>
				<path class="st1" d="M4.8,8.9C4.7,8.9,4.7,9,4.8,8.9L4.8,8.9C4.8,8.9,4.8,9.1,4.8,8.9C4.8,8.8,4.8,8.9,4.8,8.9"></path>
				<path class="st1" d="M8.3,2.8h0.2C8.4,2.7,8.3,2.8,8.3,2.8"></path>
				<path class="st1" d="M16.8,5.3C16.9,5.7,17.1,5.2,16.8,5.3C16.8,5.3,16.8,5.3,16.8,5.3"></path>
				<path class="st0" d="M14.5,3.8c0.2,0,0.4-0.1,0.4-0.2c0,0,0.2-0.1-0.1-0.2c-0.1,0-0.2,0-0.2,0.1c-0.1,0-0.2,0-0.2,0.1l0.1,0.1
					C14.6,3.6,14.3,3.8,14.5,3.8"/>
				<path class="st1" d="M16.8,5.1V4.9c0,0-0.1,0.1-0.1,0.1C16.8,5,16.8,5.1,16.8,5.1"></path>
				<path class="st1" d="M19.2,6.2c-0.1,0-0.2,0-0.3-0.1C18.9,6.2,19.1,6.3,19.2,6.2"></path>
				<path class="st1" d="M16.1,5.3c0,0,0.1,0.1,0.1,0S16.1,5.3,16.1,5.3"></path>
				<path class="st1" d="M15.1,3.5L15.1,3.5C15.1,3.5,15.1,3.5,15.1,3.5L15.1,3.5"></path>
				<path class="st1" d="M14.8,3.1C14.9,3.1,14.9,3.1,14.8,3.1C14.9,3,14.8,3.1,14.8,3.1"></path>
				<path class="st0" d="M14.9,3.1C14.9,3.2,14.9,3.2,14.9,3.1l0.1,0.2H15V3.3c0.1,0.1,0,0,0,0.1s0.2,0,0.2,0s0,0.1,0.1,0.1
					s-0.1,0.1-0.2,0.1c0,0.1-0.1,0.1-0.1,0.2s0.2,0.1,0.2,0c0,0.1-0.2,0.1-0.3,0.2c0.3,0,0.5,0,0.8-0.1h-0.1c0.1-0.1,0.1-0.2,0-0.2
					h-0.1c0-0.2-0.2-0.3-0.4-0.4c0-0.1,0.2-0.1,0.1-0.2c-0.1,0.1-0.2,0.1-0.2-0.1c0.1,0,0.1-0.1,0.1-0.1c0-0.1-0.4,0.1-0.2,0.1
					C15,3.2,14.9,3.1,14.9,3.1"/>
				<path class="st1" d="M7.7,2.8L7.7,2.8C7.7,2.8,7.7,2.8,7.7,2.8L7.7,2.8"></path>
				<path class="st1" d="M17.3,5.7c0,0.1,0.3,0.2,0.4,0.2V5.7C17.6,5.7,17.4,5.6,17.3,5.7"></path>
				<path class="st1" d="M18,3.3C18,3.3,18,3.3,18,3.3C18,3.2,18,3.2,18,3.3L18,3.3"></path>
				<path class="st1" d="M16,2.2C15.9,2.2,16,2.2,16,2.2L16,2.2"></path>
				<path class="st1" d="M16.1,2.3L16.1,2.3c0.1,0.1,0.2,0.1,0.2,0.1L16.1,2.3c0.1,0.2,0.4,0.1,0.5,0.1H17c-0.1,0-0.2-0.1-0.2-0.1
					h-0.1c0.2,0,0.4-0.1,0.5-0.1c-0.2,0-0.4-0.1-0.6-0.1h-0.1c0,0.1,0.1,0,0.1,0h-0.2c0,0-0.2-0.1-0.1,0h-0.1
					C16.2,2.2,16.2,2.2,16.1,2.3C16.1,2.2,16.2,2.2,16.1,2.3c0-0.1-0.1-0.1-0.1-0.1L16.1,2.3C16.1,2.3,16.1,2.3,16.1,2.3"/>
				<path class="st1" d="M16.8,3.4L16.8,3.4"></path>
				<path class="st1" d="M17.6,3.4L17.6,3.4C17.6,3.3,17.6,3.4,17.6,3.4"></path>
				<path class="st0" d="M15.4,4v0.1c-0.1,0-0.4-0.1-0.4,0s0.6,0.2,0.5,0.4l0,0c0,0.3-0.1,0.2-0.3,0.2c-0.2,0-0.4-0.1-0.5-0.1
					s-0.1,0.1-0.1,0.2s-0.1,0.7,0,0.7s0.2-0.1,0.4,0.1c0.1,0.2,0.4-0.1,0.5,0c0.1,0,0.2-0.1,0.3-0.2c-0.3-0.1,0.4-0.4,0.4-0.4
					c-0.1-0.3,0.4-0.1,0.5-0.1c0.3-0.1,0.3-0.1,0.5,0.2C17,5,18,5.7,17.7,5.7c0,0.1,0.2-0.1,0.2-0.1c-0.1-0.2-0.1-0.2,0.1-0.1
					c0-0.2-0.3-0.1-0.4-0.3c-0.2,0-0.5-0.3-0.5-0.5c0-0.2,0.6,0.3,0.7,0.3c0,0.1,0.3,0.2,0.4,0.4c0.1,0.2,0.3,0.4,0.4,0.4
					c-0.1,0.1,0,0.2,0.2,0.2l-0.1-0.2c0.1,0,0.2,0.1,0.3,0c-0.1-0.1-0.2-0.2-0.3-0.3c0-0.1,0.2,0.1,0.2,0.1V5.5c0.1,0,0.1-0.1,0.2,0
					s0.1-0.1,0.2,0l0.1,0.1c-0.1,0-0.4-0.1-0.4,0.1c0.1,0.2,0.2,0.1,0,0.2C19,5.9,19.1,6,19.2,6.1h-0.1c0.3,0.1,0.7,0.1,1.1,0.1
					c0,0.2,0,0.3,0,0.5v0.2c0.1,0.1,0.1,0.3,0.2,0.4c0,0.5,0.7,0.7,0.8,1.1c0.1,0.2,0.2,0.4,0.4,0.6c0.2,0.2,0.3,0.5,0.4,0.7
					c0.3,0.5,0.6,0.1,1.1-0.1c-0.1-0.5-0.2-1-0.4-1.5c-0.1-0.1-0.1-0.2-0.1-0.3c-0.1,0,0,0.1-0.1,0.1c-0.1-0.2-0.3-0.3-0.4-0.5
					C22,7,22.8,7.4,23,7.6c-0.2-0.7-2-2.9-3.3-3.9c-0.6-0.5-1.2-1-1.9-1.4h-0.5c-0.2,0.1-0.5,0.2-0.7,0.3h0.1
					c-0.1,0-0.7,0.1-0.4,0.3c0,0-0.1,0-0.1,0.1h0.1c0,0.1-0.1,0-0.1,0.1c0,0.1,0.4,0.1,0.4,0c0.1-0.1,0.2,0,0.2,0.1
					c0.1,0.1,0.2,0.3,0.2,0.3c0.1,0,0.4-0.1,0.4-0.2c-0.2-0.1,0.1-0.2,0.1-0.2c-0.1-0.1-0.2-0.1-0.2-0.2c-0.1-0.2,0.4-0.1,0.4-0.2
					c0.1-0.1,0.3-0.2,0.4,0c0,0-0.4,0.2-0.4,0.1c0.1,0.1,0,0.1,0.1,0.1c-0.1,0.2,0.8,0.1,0.8,0.2c-0.2,0.1-0.4-0.1-0.6,0
					c-0.1,0,0.1,0.1,0.1,0.2c0-0.1-0.5,0.1-0.4,0.3h-0.1c-0.1-0.1-0.6,0.1-0.6,0h-0.4V3.5c0,0,0.1,0,0.1,0.1c0-0.1,0-0.1-0.1-0.1
					s0-0.1,0.1-0.1c0.1,0-0.1-0.1-0.1-0.1c-0.2,0.1-0.2,0.1-0.1,0.3c0.1,0.2-0.2,0.1-0.2,0.1c-0.2,0-0.2,0.2-0.4,0.2
					C15.8,4,15.7,4.1,15.4,4 M21.5,5.9L21.5,5.9c-0.3,0-0.4-0.4-0.7-0.4C21.1,5.4,21.2,5.9,21.5,5.9 M19.2,4.8
					c0.2-0.1,0.2-0.1,0.4,0.1c0.1,0.1,0.3,0.2,0.4,0c-0.1,0-0.2,0-0.2-0.1s0.2-0.1,0.4-0.1c-0.1,0,0.1,0.2-0.1,0.2
					c0.2,0.2,0.6,0.2,0.7,0.5c-0.1,0-0.1,0.1-0.2,0.1c-0.2-0.1-0.5-0.1-0.7-0.2c-0.2,0-0.4,0.1-0.5,0.1l0,0
					c-0.2-0.2-0.1-0.2-0.1-0.4C19.2,4.9,19.3,4.9,19.2,4.8"/>
				<path class="st1" d="M16.9,3.5L16.9,3.5C17,3.6,17,3.5,17,3.5C16.9,3.4,16.8,3.5,16.9,3.5L16.9,3.5"></path>
				<path class="st1" d="M20.2,6.3c-0.1,0-0.2,0.1-0.2,0.1C20,6.4,20.2,6.3,20.2,6.3"></path>
				<path class="st1" d="M8.2,2.6L8.2,2.6c0.1,0,0.2,0,0.2-0.1h0.1C8.3,2.5,8.2,2.6,8.2,2.6L8,2.6C8,2.6,8,2.6,8.2,2.6L8.2,2.6"></path>
				<path class="st1" d="M7.9,2.7L7.9,2.7C7.9,2.6,7.9,2.6,7.9,2.7C7.8,2.6,7.8,2.7,7.9,2.7"></path>
				<path class="st1" d="M8.1,2.8C8,2.8,8,2.8,8,2.8C8,2.8,8.3,2.9,8.3,2.7C8.3,2.7,8,2.7,8.1,2.8L8.1,2.8C8,2.8,8,2.7,8,2.8
					L8.1,2.8"/>
				<path class="st1" d="M8.6,2.8C8.4,2.8,8.7,2.8,8.8,2.8c0.2-0.1,0.5,0.1,0.7-0.1l0,0c-0.2,0-0.5,0-0.7,0h0.1c0-0.1-0.4-0.1-0.5,0
					h0.1C8.6,2.7,8.6,2.7,8.6,2.8"/>
				<path class="st1" d="M7.7,3.2c0.1-0.1-0.3,0-0.2,0H7.7"></path>
				<path class="st1" d="M7.6,2.9C7.7,3,7.9,3,8,2.9H8c0.1-0.1,0,0-0.1,0C8,2.9,8,2.9,8,2.9c0-0.1-0.4,0.1-0.2,0.1
					C7.7,2.9,7.7,2.9,7.6,2.9"/>
				<path class="st1" d="M8.6,2.6L8.6,2.6"></path>
				<path class="st1" d="M7.9,2.8H8C7.9,2.8,7.8,2.7,7.9,2.8L7.9,2.8"></path>
				<path class="st1" d="M8.6,2.5L8.6,2.5"></path>
				<path class="st1" d="M8.8,2.5L8.8,2.5"></path>
				<path class="st1" d="M8.6,2.6c0.1-0.1-0.2-0.1-0.1,0C8.3,2.6,8.6,2.6,8.6,2.6"></path>
				<path class="st0" d="M8.8,2.5L8.8,2.5C8.9,2.6,9,2.6,9.1,2.6H9c0.2,0,0.7,0.1,0.8-0.1H9.7c0.1-0.1,0.1,0,0.1-0.1
					c0.1,0,0.2-0.1,0.2-0.1H10c0.2-0.1,0.5-0.1,0.7-0.1h-0.1c0,0,0.2,0,0.3-0.1c0.1-0.1-0.4,0-0.2,0c-0.5-0.1-1,0-1.4,0.1h0.2
					c0,0,0.1,0,0.1,0.1s-0.2,0-0.2,0.1c0.1,0,0.1-0.1,0-0.1l0,0C9.2,2.4,9,2.3,8.9,2.3H8.9C8.9,2.5,8.8,2.5,8.8,2.5L8.8,2.5
					 M9.6,2.4L9.6,2.4 M9.9,2.4C9.9,2.4,9.9,2.3,9.9,2.4L9.9,2.4"/>
				<path class="st1" d="M9,2.6c-0.1,0-0.1,0-0.1,0.1C8.9,2.7,8.9,2.6,9,2.6"></path>
				<path class="st1" d="M9.4,2.4L9.4,2.4"></path>
				<path class="st1" d="M9.3,2.8L9.3,2.8c0.2,0.1,0.3,0,0.4,0C9.6,2.8,9.3,2.8,9.3,2.8"></path>
			</g>
			<g class="st2">
				<path class="st3" d="M7,20.6L7,20.6c0.4,0.4,0.7,0.7,1,1l0.5,0.5c0.1,0.2,0.3,0.3,0.5,0.4c0.4,0.2,0.7,0.4,1.1,0.5l1.1,0.4
					L10.1,23c-0.4-0.1-0.8-0.3-1.1-0.5c-0.2-0.1-0.3-0.2-0.5-0.4L8,21.6C7.7,21.3,7.4,21,7,20.6z"/>
			</g>
			<path class="st4" d="M23,17.5c-1.4-0.2-4,0.3-4.5,0.2c-0.6-0.2-1.1-0.4-1.6-0.6c-0.1-0.1-0.5-0.5-0.7-0.6c-0.3-0.2-0.7-0.2-1-0.4
				c-1.1-0.5-1.6,0.3-1.5,0.5c0.2,0.3,0.4,0.6,0.7,0.8c0.1,0.1,0.4,0.3,0.7,0.5c0.2,0.3,0.5,0.6,0.9,0.7c0,0,0.1,0,0.1,0.1
				c0.1,0,0.1,0.1,0.1,0.1c0.2,0.2,0.4,0.5,0.6,0.8c-0.4,0.5-0.9,1-1.5,1.3c-1.3,0.3-2.5,0.3-3.8,0.1l-0.9-0.2c-0.4-0.1-0.7,0-1-0.2
				c-0.4-0.4-0.9-0.5-1.2-0.7c-0.6-0.5-0.4-0.7-0.9-1.4S6.3,17.8,6,18c-0.4,0.4-0.2,0.6,0.1,1.2c0,0.1,0.1,0.1,0.1,0.1
				c0.2,0.2,0.3,0.4,0.4,0.6c0.1,0.3,0.3,0.5,0.5,0.7c0.1,0.1,0.1,0.2,0.2,0.2c-0.3-0.3-0.7-0.6-1.1-0.9c-0.5-0.4-0.4-0.7-0.8-1.2
				C4.8,18.2,4,18,3.8,18.3s0,0.7,0.2,1.2c0,0.1,0.2-0.1,0.2,0c0.1,0.2,0.4,0.3,0.4,0.5c0.1,0.4,0.3,0.8,0.6,1.1
				c0.7,1,1.6,2,2.6,2.7"/>
			<path class="st0" d="M27.7,22.2l0.1-0.5l-0.1-0.2c0,0-2,0.3-3,0.4c-1-0.3-2.1-0.3-3.1-0.2c-0.9,0.2-1.8,0.4-2.6,0.7
				c-1.3,0.9-2.7,1.7-4.1,2.3c-0.1,0.1,6.1-2.2,7.6-2.3C24.2,22.2,27.7,22.2,27.7,22.2"/>
			<path class="st0" d="M9,22.3c0.5,0.2,2.3,1.2,2.3,1.2s-2.6-0.8-3.2-1.4c-0.7-0.7-1.2-1.6-1.7-2.4"></path>
			<path class="st0" d="M5.8,18.5c0.6,0.4,0.7,1.6,1.1,2"></path>
			<path class="st0" d="M3.8,18.3c0.2,0.8,0.7,1.5,1.2,2.1c0.5,0.4,0.7,1.4,1.1,1.8c-0.8-0.9-1.6-1.9-2.3-2.9
				C3.7,19,3.7,18.6,3.8,18.3"/>
			<path class="st0" d="M5.4,21.3c0.4,0.4,0.7,0.7,1.2,1.1c0.5,0.4,0.7,1.1,1.2,1.2c0.5,0.2,2.6,0.8,2.6,0.8s-2.1,0-2.9-0.5
				c-0.6-0.6-1.2-1.2-1.7-1.8"/>
			<path class="st0" d="M14.3,17.4c0.1,0.1,0.4,0.3,0.7,0.5c0.2,0.3,0.5,0.6,0.9,0.7c0,0,0.1,0,0.1,0.1c0.1,0,0.1,0.1,0.1,0.1
				c0.2,0.2,0.4,0.5,0.6,0.8c-0.1,0.1-1.2,1.2-1.2,1.2c0.5-0.2,1-0.5,1.5-0.8c0.1,0.1,0.1-0.8,0.1-0.8c-0.1-0.4-1.2-0.8-1.7-1.1
				C15.1,17.8,14.7,17.6,14.3,17.4"/>
		</g>
		<path class="st0" d="M31.6,6.1c0.1,0,0.3,0,0.4-0.1h0.8c0.2,0,0.3,0,0.4,0.1c0,0.1,0,0.2,0.1,0.3c0,0.2,0,0.3,0.1,0.5
			c0,0.2,0,0.3,0.1,0.5v0.3c0.1-0.2,0.3-0.4,0.5-0.6c0.2-0.2,0.4-0.4,0.7-0.6c0.3-0.2,0.6-0.3,0.9-0.4C36,6,36.4,6,36.7,6
			c0.6,0,1.2,0.1,1.7,0.3c0.5,0.2,1,0.5,1.4,1c0.4,0.5,0.7,1.1,0.9,1.7c0.2,0.8,0.3,1.6,0.3,2.4c0.1,1.6-0.4,3.1-1.5,4.3
			c-1.1,1.1-2.7,1.6-4.2,1.5c-0.3,0-0.6,0-0.9-0.1c-0.3,0-0.6-0.1-0.8-0.2v4.9c-0.2,0-0.3,0-0.5,0.1h-1c-0.2,0-0.4,0-0.5-0.1V6.1z
			 M33.7,15.1c0.3,0.1,0.5,0.2,0.8,0.2c0.3,0,0.6,0.1,1.1,0.1c0.5,0,0.9-0.1,1.4-0.2c0.4-0.2,0.8-0.4,1.1-0.7
			c0.3-0.4,0.5-0.8,0.7-1.3c0.2-0.6,0.3-1.2,0.3-1.8c0.1-0.9-0.2-1.8-0.6-2.6c-0.4-0.7-1.2-1.1-2-1c-0.3,0-0.7,0.1-1,0.2
			c-0.3,0.1-0.7,0.3-0.9,0.6c-0.2,0.3-0.4,0.6-0.6,0.9c-0.2,0.4-0.2,0.9-0.2,1.4L33.7,15.1L33.7,15.1z"/>
		<path class="st0" d="M42.9,6.1c0.2,0,0.3,0,0.4-0.1h0.9c0.2,0,0.3,0,0.4,0.1s0.1,0.5,0.1,0.8s0.1,0.6,0.1,0.9
			c0.6-1.1,1.8-1.7,3-1.7h0.6c0,0.1,0,0.3,0.1,0.4v0.9c0,0.2,0,0.4-0.1,0.5h-0.6c-0.4,0-0.7,0.1-1.1,0.2c-0.3,0.1-0.7,0.3-0.9,0.6
			c-0.3,0.3-0.5,0.7-0.6,1.1C45.1,10.4,45,11,45,11.6v5.3c-0.2,0-0.3,0-0.5,0.1h-1c-0.2,0-0.4,0-0.5-0.1V6.1H42.9z"/>
		<path class="st0" d="M53.6,17.1c-0.8,0-1.5-0.1-2.2-0.4c-0.6-0.3-1.1-0.7-1.6-1.2c-0.4-0.5-0.7-1.1-0.9-1.8c-0.4-1.4-0.4-3,0-4.4
			c0.2-0.7,0.5-1.3,0.9-1.8c0.4-0.5,1-0.9,1.6-1.2c1.4-0.5,3-0.5,4.4,0C56.4,6.6,57,7,57.4,7.5c0.4,0.5,0.7,1.1,0.9,1.8
			c0.4,1.4,0.4,3,0,4.4c-0.2,0.7-0.5,1.3-0.9,1.8c-0.4,0.5-1,0.9-1.6,1.2C55.1,16.9,54.4,17.1,53.6,17.1 M53.6,15.4
			c0.8,0.1,1.7-0.3,2.1-1c0.5-0.9,0.8-1.9,0.7-2.9c0.1-1-0.2-2-0.7-2.9c-0.5-0.7-1.3-1.1-2.1-1c-0.8-0.1-1.7,0.3-2.1,1
			c-0.5,0.9-0.8,1.9-0.7,2.9c-0.1,1,0.2,2,0.7,2.9C52,15.1,52.8,15.5,53.6,15.4"/>
		<path class="st0" d="M60.6,7.8H59l-0.1-0.3l3.6-4h0.2v2.6h2.7c0.1,0.3,0.1,0.5,0.1,0.8v0.4c0,0.1,0,0.3-0.1,0.4h-2.7v4.9
			c0,0.5,0,0.9,0.1,1.4c0,0.3,0.1,0.6,0.3,0.8c0.1,0.2,0.3,0.3,0.5,0.4c0.1,0.1,0.3,0.1,0.6,0.1c0.2,0,0.5,0,0.7-0.1
			c0.2,0,0.4-0.1,0.6-0.1c0.1,0.3,0.2,0.6,0.2,0.9v0.8c-0.3,0.1-0.6,0.1-0.9,0.2s-0.6,0.1-1,0.1c-0.8,0.1-1.7-0.2-2.3-0.7
			c-0.6-0.6-0.9-1.5-0.8-2.4L60.6,7.8L60.6,7.8z"/>
		<path class="st0" d="M68.2,12c-0.1,1,0.2,1.9,0.9,2.6c0.7,0.6,1.7,0.9,2.6,0.8c1,0,1.9-0.2,2.8-0.5c0.1,0.3,0.2,0.5,0.3,0.8
			c0.1,0.3,0.1,0.6,0.1,0.9c-0.5,0.2-1,0.3-1.5,0.4c-0.6,0.1-1.2,0.1-1.8,0.1c-0.9,0-1.7-0.1-2.5-0.4c-0.6-0.3-1.2-0.6-1.7-1.1
			c-0.5-0.5-0.8-1.1-1-1.7c-0.4-1.4-0.4-3,0-4.4c0.2-0.7,0.5-1.3,0.9-1.8c0.4-0.5,1-0.9,1.6-1.2c0.7-0.3,1.4-0.4,2.2-0.4
			c0.7,0,1.3,0.1,1.9,0.4c0.5,0.2,1,0.6,1.4,1c0.4,0.5,0.7,1,0.9,1.6c0.2,0.6,0.3,1.3,0.3,2v1.2h-7.4V12z M73.5,10.5
			c0-0.4-0.1-0.7-0.2-1.1c-0.1-0.3-0.3-0.7-0.5-0.9C72.6,8.2,72.4,8,72,7.9c-0.3-0.2-0.7-0.2-1.1-0.2c-0.7,0-1.4,0.3-1.9,0.8
			c-0.5,0.6-0.8,1.3-0.8,2.1L73.5,10.5L73.5,10.5z"/>
		<path class="st0" d="M84.3,15c0.1,0.2,0.2,0.5,0.3,0.7c0.1,0.3,0.1,0.6,0.1,0.9c-0.9,0.3-1.8,0.5-2.8,0.5c-1.5,0.1-3-0.4-4-1.5
			c-1-1.1-1.5-2.6-1.4-4.1c0-0.7,0.1-1.5,0.3-2.2c0.2-0.7,0.6-1.3,1-1.8c0.4-0.5,1-0.9,1.6-1.2C80.2,6,81,5.9,81.7,5.9
			c0.5,0,1,0,1.5,0.1l1.3,0.3c0,0.3,0,0.5-0.1,0.8c-0.1,0.3-0.1,0.6-0.3,0.8c-0.7-0.2-1.5-0.4-2.3-0.4c-0.9-0.1-1.8,0.4-2.4,1.1
			c-0.6,0.8-0.8,1.8-0.8,2.8c-0.1,1,0.2,2.1,0.9,2.9c0.7,0.6,1.6,1,2.5,0.9c0.4,0,0.8,0,1.2-0.1C83.6,15.2,84,15.1,84.3,15"/>
		<path class="st0" d="M86.5,7.8h-1.6l-0.1-0.3l3.6-4h0.2v2.6h2.7c0.1,0.3,0.1,0.5,0.1,0.8v0.4c0,0.1,0,0.3-0.1,0.4h-2.7v4.9
			c0,0.5,0,0.9,0.1,1.4c0,0.3,0.1,0.6,0.2,0.8c0.1,0.2,0.3,0.3,0.5,0.4c0.3,0.1,0.5,0.1,0.8,0.1c0.2,0,0.5,0,0.7-0.1
			c0.2,0,0.4-0.1,0.6-0.1c0.1,0.3,0.2,0.6,0.2,0.9v0.8c-0.3,0.1-0.6,0.1-0.9,0.2s-0.6,0.1-1,0.1c-0.8,0.1-1.7-0.2-2.3-0.7
			c-0.6-0.6-0.9-1.5-0.8-2.4V7.8H86.5z"/>
		<path class="st0" d="M94,12c-0.1,1,0.2,1.9,0.9,2.6c0.7,0.6,1.6,0.8,2.5,0.8c1,0,1.9-0.2,2.8-0.5c0.1,0.3,0.2,0.5,0.3,0.8
			c0.1,0.3,0.1,0.6,0.1,0.9c-0.5,0.2-1,0.3-1.5,0.4c-0.6,0.1-1.2,0.1-1.8,0.1c-0.9,0-1.7-0.1-2.5-0.4c-0.6-0.3-1.2-0.6-1.7-1.1
			c-0.5-0.5-0.8-1.1-1-1.7c-0.4-1.4-0.4-3,0-4.4c0.2-0.7,0.5-1.3,0.9-1.8c0.4-0.5,1-0.9,1.6-1.2c0.7-0.3,1.4-0.4,2.2-0.4
			c0.7,0,1.3,0.1,1.9,0.4c0.5,0.2,1,0.6,1.4,1c0.4,0.5,0.7,1,0.9,1.6c0.2,0.6,0.3,1.3,0.3,2v1.2H94L94,12z M99.3,10.5
			c0-0.4-0.1-0.7-0.2-1.1c-0.1-0.3-0.3-0.7-0.5-0.9c-0.2-0.3-0.5-0.5-0.8-0.6c-0.3-0.2-0.7-0.2-1.1-0.2c-0.7,0-1.4,0.3-1.9,0.8
			c-0.5,0.6-0.8,1.3-0.8,2.1L99.3,10.5L99.3,10.5z"/>
		<path class="st0" d="M109.9,1.6c0.2,0,0.3,0,0.5-0.1h1c0.2,0,0.4,0,0.5,0.1v15c-0.6,0.2-1.2,0.3-1.8,0.4c-0.7,0.1-1.5,0.2-2.2,0.2
			c-0.7,0-1.4-0.1-2.1-0.3c-0.7-0.2-1.3-0.5-1.8-0.9c-0.5-0.5-0.9-1-1.2-1.7c-0.3-0.8-0.4-1.6-0.4-2.5c0-0.8,0.1-1.6,0.4-2.4
			c0.2-0.7,0.6-1.3,1.1-1.8c0.5-0.5,1.1-0.9,1.7-1.2c0.7-0.3,1.4-0.4,2.2-0.4c0.4,0,0.7,0,1.1,0.1c0.4,0.1,0.7,0.1,1,0.2V1.6z
			 M109.9,8c-0.3-0.1-0.6-0.2-0.9-0.2c-0.3-0.1-0.7-0.1-1-0.1c-0.5,0-1,0.1-1.5,0.3c-0.4,0.2-0.8,0.5-1,0.9
			c-0.3,0.4-0.5,0.8-0.6,1.3c-0.1,0.5-0.2,1.1-0.2,1.6c-0.1,1,0.2,2,0.9,2.8c0.7,0.6,1.6,1,2.5,0.9c0.3,0,0.7,0,1-0.1
			c0.3,0,0.6-0.1,0.8-0.2V8z"/>
		<path class="st0" d="M120.6,6c0.1,0,0.3,0,0.4-0.1h0.8c0.2,0,0.3,0,0.4,0.1c0,0.1,0,0.2,0.1,0.3c0,0.2,0,0.3,0.1,0.5
			c0,0.2,0.1,0.7,0.1,0.8c0.1-0.2,0.3-0.4,0.5-0.6c0.2-0.2,0.4-0.4,0.7-0.6c0.3-0.2,0.6-0.3,0.9-0.4c0.4-0.1,0.7-0.1,1.1-0.1
			c0.6,0,1.2,0.1,1.7,0.3c0.5,0.2,1,0.5,1.4,1c0.4,0.5,0.7,1.1,0.9,1.7c0.2,0.8,0.3,1.6,0.3,2.4c0.1,1.6-0.4,3.1-1.5,4.3
			c-1.1,1.1-2.7,1.6-4.2,1.5c-0.3,0-0.6,0-0.9-0.1h-0.8v4.6c-0.2,0-0.3,0-0.5,0.1h-1c-0.2,0-0.4,0-0.5-0.1V6z M122.7,14.9
			c0.3,0.1,0.5,0.2,0.8,0.2c0.3,0,0.6,0.1,1.1,0.1c0.5,0,0.9-0.1,1.4-0.2c0.4-0.2,0.8-0.4,1.1-0.7c0.3-0.4,0.5-0.8,0.7-1.3
			c0.2-0.6,0.3-1.2,0.3-1.8c0.1-0.9-0.2-1.8-0.6-2.6c-0.4-0.7-1.2-1.1-2-1c-0.3,0-0.7,0.1-1,0.2c-0.3,0.1-0.7,0.3-0.9,0.6
			c-0.2,0.3-0.4,0.6-0.6,0.9c-0.2,0.4-0.2,0.9-0.2,1.4L122.7,14.9L122.7,14.9z"/>
		<path class="st0" d="M131.8,1.4c0.2,0,0.3,0,0.5-0.1h1c0.2,0,0.4,0,0.5,0.1v12c0,0.3,0,0.6,0.1,0.9c0.1,0.2,0.2,0.3,0.3,0.5
			c0.1,0.1,0.2,0.2,0.4,0.2c0.2,0,0.3,0.1,0.5,0.1h0.4c0.2,0,0.3,0,0.4-0.1c0.1,0.5,0.2,1.1,0.2,1.6c-0.2,0.1-0.5,0.1-0.7,0.1h-0.8
			c-0.4,0-0.7,0-1.1-0.1c-0.3-0.1-0.6-0.3-0.9-0.5c-0.3-0.2-0.5-0.5-0.6-0.9c-0.2-0.4-0.2-0.9-0.2-1.4L131.8,1.4z"/>
		<path class="st0" d="M142.7,9.6c0.1-0.6-0.1-1.3-0.6-1.7c-0.5-0.4-1.2-0.5-1.8-0.5c-0.5,0-0.9,0-1.4,0.1l-1.2,0.3
			c-0.3-0.5-0.4-1-0.4-1.6c0.5-0.2,1.1-0.3,1.6-0.4c0.5-0.1,1.1-0.1,1.6-0.1c1.1-0.1,2.3,0.2,3.2,0.9c0.8,0.8,1.2,1.9,1.1,3v6.7
			c-0.5,0.1-1.1,0.2-1.8,0.3c-0.7,0.1-1.4,0.2-2.1,0.2c-0.6,0-1.2-0.1-1.8-0.2c-0.5-0.1-1-0.3-1.4-0.6c-0.4-0.3-0.7-0.7-0.9-1.1
			c-0.2-0.5-0.3-1.1-0.3-1.6c0-0.6,0.1-1.1,0.4-1.6c0.2-0.5,0.6-0.8,1-1.1c0.4-0.3,0.9-0.5,1.4-0.7c0.6-0.1,1.1-0.2,1.7-0.2h1.1
			c0.2,0,0.5,0,0.7,0.1L142.7,9.6L142.7,9.6z M142.7,11.6h-1.6c-0.7,0-1.4,0.1-2,0.5c-0.5,0.3-0.8,0.9-0.7,1.5c0,0.3,0.1,0.7,0.2,1
			c0.2,0.2,0.3,0.4,0.6,0.5c0.2,0.1,0.5,0.2,0.8,0.2h0.8c0.3,0,0.7,0,1-0.1c0.3,0,0.6-0.1,0.9-0.2V11.6z"/>
		<path class="st0" d="M146.8,6c0.2,0,0.3,0,0.4-0.1h0.8c0.1,0,0.3,0,0.4,0.1c0,0.2,0.1,0.5,0.1,0.8s0.1,0.6,0.1,0.9
			c0.1-0.3,0.3-0.5,0.5-0.7c0.2-0.2,0.5-0.4,0.7-0.6c0.3-0.2,0.7-0.4,1-0.5c0.4-0.1,0.8-0.2,1.2-0.2c1-0.1,2,0.3,2.7,1.1
			c0.7,0.9,1,2,0.9,3.1v6.8c-0.2,0-0.3,0-0.5,0.1h-1c-0.2,0-0.4,0-0.5-0.1v-6.2c0-0.8-0.1-1.5-0.5-2.2c-0.2-0.5-0.7-0.7-1.4-0.7
			c-0.4,0-0.7,0.1-1.1,0.2c-0.3,0.1-0.6,0.3-0.9,0.6c-0.3,0.3-0.5,0.7-0.6,1.1c-0.2,0.5-0.2,1.1-0.2,1.7v5.4c-0.2,0-0.3,0-0.5,0.1
			h-1c-0.2,0-0.4,0-0.5-0.1V6H146.8z"/>
		<path class="st0" d="M159.3,11.8c-0.1,1,0.2,1.9,0.9,2.6c0.7,0.6,1.6,0.8,2.5,0.8c1,0,1.9-0.2,2.8-0.5c0.1,0.3,0.2,0.5,0.3,0.8
			c0.1,0.3,0.1,0.6,0.1,0.9c-0.5,0.2-1,0.3-1.5,0.4c-0.6,0.1-1.2,0.1-1.8,0.1c-0.9,0-1.7-0.1-2.5-0.4c-0.6-0.3-1.2-0.6-1.7-1.1
			c-0.5-0.5-0.8-1.1-1-1.7c-0.4-1.4-0.4-3,0-4.4c0.2-0.7,0.5-1.3,0.9-1.8c0.4-0.5,1-0.9,1.6-1.2c0.7-0.3,1.4-0.4,2.2-0.4
			c0.7,0,1.3,0.1,1.9,0.4c0.5,0.2,1,0.6,1.4,1c0.4,0.5,0.7,1,0.9,1.6c0.2,0.6,0.3,1.3,0.3,2v1.2h-7.3L159.3,11.8z M164.6,10.3
			c0-0.4-0.1-0.7-0.2-1.1c-0.1-0.3-0.3-0.7-0.5-0.9c-0.2-0.3-0.5-0.5-0.8-0.6c-0.3-0.2-0.7-0.2-1.1-0.2c-0.7,0-1.4,0.3-1.9,0.8
			c-0.5,0.6-0.8,1.3-0.8,2.1L164.6,10.3L164.6,10.3z"/>
		<path class="st0" d="M168.7,7.6h-1.6L167,7.3l3.6-4h0.2v2.6h2.7c0.1,0.3,0.1,0.5,0.1,0.8v0.4c0,0.1,0,0.3-0.1,0.4h-2.7v4.9
			c0,0.5,0,0.9,0.1,1.4c0,0.3,0.1,0.6,0.2,0.8c0.1,0.2,0.3,0.3,0.5,0.4c0.3,0.1,0.5,0.1,0.8,0.1c0.2,0,0.5,0,0.7-0.1
			c0.2,0,0.4-0.1,0.6-0.1c0.1,0.3,0.2,0.6,0.2,0.9v0.8c-0.3,0.1-0.6,0.1-0.9,0.2s-0.6,0.1-1,0.1c-0.8,0.1-1.7-0.2-2.3-0.7
			c-0.6-0.6-0.9-1.5-0.8-2.4V7.6H168.7z"/>
		<path class="st0" d="M176.2,3.5c0.2,0,0.4-0.1,0.6-0.1c0.2,0,0.5,0.1,0.7,0.2c0.1,0.1,0.2,0.3,0.2,0.5c0,0.3-0.2,0.5-0.5,0.6
			c0.2,0.1,0.4,0.3,0.4,0.5c0.1,0.3,0.1,0.6,0.2,0.7h-0.3c-0.1-0.2-0.1-0.4-0.2-0.6c-0.1-0.3-0.2-0.5-0.5-0.5h-0.3v1.1h-0.3
			L176.2,3.5z M176.5,4.6h0.3c0.3,0,0.5-0.2,0.5-0.4c0,0,0,0,0-0.1c0-0.3-0.2-0.5-0.6-0.5h-0.3v1H176.5z"/>
		<path class="st5" d="M178.5,4.7c0,0.9-0.8,1.7-1.7,1.7s-1.7-0.8-1.7-1.7c0-0.9,0.8-1.7,1.7-1.7l0,0C177.7,3,178.5,3.8,178.5,4.7
			C178.5,4.7,178.5,4.7,178.5,4.7z"/>
	</g>
</g>
</svg>
