<?xml version="1.0" encoding="utf-8"?>
<!-- Generator: Adobe Illustrator 22.1.0, SVG Export Plug-In . SVG Version: 6.00 Build 0)  -->
<svg version="1.1" id="Layer_1" xmlns="http://www.w3.org/2000/svg" xmlns:xlink="http://www.w3.org/1999/xlink" x="0px" y="0px"
	 viewBox="0 0 60 60" style="enable-background:new 0 0 60 60;" xml:space="preserve">
<style type="text/css">
	.st0{clip-path:url(#SVGID_2_);fill:#E52521;}
	.st1{clip-path:url(#SVGID_2_);fill:#020203;}
</style>
<g id="XMLID_1_">
	<g>
		<defs>
			<path id="SVGID_1_" d="M59,60H0.9999695C0.4477234,60,0,59.5526733,0,59V0.9999695c0-0.5522461,0.4477234-1,0.9999695-1H59
				c0.5526886,0,0.9999847,0.4477539,0.9999847,1V59C59.9999847,59.5526733,59.5526886,60,59,60L59,60z"/>
		</defs>
		<clipPath id="SVGID_2_">
			<use xlink:href="#SVGID_1_"  style="overflow:visible;"/>
		</clipPath>
		<polygon class="st0" points="71.9481964,0.0371094 -11.9482117,0.0371094 -11.9482117,59.9628906 71.9481964,59.9628906 
			71.9481964,0.0371094 		"/>
		<path class="st1" d="M23.9844055,12.4506836c0.434967,0,0.7035828,0.1522827,0.7035828,0.3368835
			c0,0.1879883-0.2686157,0.3413086-0.7035828,0.3413086c-0.4326172,0-0.7075195-0.1669922-0.7075195-0.3554993
			c0-0.1845093,0.2749023-0.3231812,0.7075195-0.3231812V12.4506836L23.9844055,12.4506836z M36.015564,12.4506836
			c-0.4344482,0-0.7030945,0.1522827-0.7030945,0.3368835c0,0.1879883,0.2686462,0.3413086,0.7030945,0.3413086
			c0.4326172,0,0.7080383-0.1669922,0.7080383-0.3554993c0-0.1845093-0.2754211-0.3231812-0.7080383-0.3231812V12.4506836
			L36.015564,12.4506836z M32.2695007,45.3193054c-0.5263062-0.4570312-1.1650085-1.3808289-1.1552124-2.2724304
			c0.0467834-0.664093,0.5018921-1.0498047,0.7967834-0.2392883c0.4160156,0.8954773,1.3086243,2.3760071,2.5391235,1.507782
			c0.5370789-0.3944702,0.5292969-0.9755859-0.2080078-0.9090881c-0.9102173-0.0625-1.468811-0.5625-1.8760071-1.8516235
			c-0.0741882-0.7099609,0.2207031-0.6913757,0.6318054-0.2353516c0.5292969,0.6064758,1.5820923,1.5244751,2.7442017,1.0322571
			c0.6454773-0.2704773,0.8270874-0.828186-0.1474915-0.9658813c-0.9238281,0.0137024-1.6777039-0.5848999-2.4277039-1.4980164
			c-0.4111023-0.5048828,0.195282-1.014679,0.5596008-0.5849915c0.3251953,0.2793274,0.7801819,0.7929993,1.1698914,0.8643188
			c0.4512024,0.0878906,1.0098267,0.0438843,1.6299133-0.2832031c0.6669922-0.5596008,0.4501953-0.9619141-0.3604126-1.0546875
			c-0.6278992,0.0302734-0.969696,0.2695007-1.780304-0.2705078c-1.4570007-0.9854126-2.6141968-2.3008118-2.7958984-3.8828125
			c-0.118103-1.0401001,0.4414978-1.3554993,0.906311-1.2354126c1.2655945,0.3251953,2.0927734,2.6895142,2.968689,3.9883118
			c0.2862244,0.375,0.5498047,0.3809204,0.7364197,0.2655945c0.3505859-0.3016968,0.6317749-0.5487976,0.9823914-0.8857117
			c0,0,2.5751953,0.4628906,3.9785156,0.9199219l-1.5615234,0.5556946c-0.5917969-0.327179-1.3057251,0.0253906-1.3057251,0.5917969
			c-0.5594788,0.3867188-0.5145569,0.8408203-0.2723694,1.2782898c0.0731812-0.3046875,0.1356812-0.7011719,0.5780945-0.7538757
			c0.6307983,0.2616882,1.3662109-0.1112976,1.3662109-0.6034851l1.8417969-0.7246399l1.8612976,1.0537109
			c0,0.7128906,0.6747742,0.9385071,1.3770142,0.7461243c0.3309937,0.2049866,0.5438843,0.5614929,0.6551819,0.9432983
			c0.2070923-0.5498047,0.164093-0.9384155-0.1600952-1.2080383c0.1864929-0.7108765-0.8096008-1.3944702-1.5811157-0.9393616
			l-1.3388062-0.7686157l2.2920227-0.0643921c0.2655945,0.4706726,1.2275085,0.4970093,1.507782,0
			c0.2392273-0.0654907,0.4424133-0.1075134,0.9092102,0.2401733c-0.1474915-0.5625-0.4335938-0.8026733-0.8632812-0.8026733
			c-0.32724-0.578186-1.5088196-0.5762024-1.679718,0.0760803l-2.3866882,0.0664368l1.4159851-1.008728
			c0.5282898,0.3125,1.2705078-0.0351868,1.4189148-0.601593c0.2109985-0.2510071,0.4706726-0.3681946,0.9825134-0.1983032
			C45.9551086,35.1395874,45.5830078,35,44.9121094,35.3163757c-0.6123047-0.4638977-1.4189148,0.0996094-1.295929,0.5664062
			l-1.8847961,1.281311c-1.3670959-0.4073181-3.844696-1.0429993-3.844696-1.0429993
			c0.2948914-0.3106079,0.593811-0.5986328,0.8887024-0.9131165c0.1064148-0.1846008-0.0565796-0.3983765-0.282196-0.4433899
			c-2.210022-0.4559937-3.4756165-1.3475952-4.2421875-3.6112976c-0.3203125-0.9487,0.3729553-1.2319031,0.6112671-0.6517944
			c0.3291321,0.8060913,0.6933899,1.6879883,1.6856384,2.3714905c0.3416748,0.2392883,1.3612671,0.0440063,0.758667-0.5283203
			c-0.6239929-0.5135803-0.8924866-0.7352905-1.2001953-1.9848022c0-0.6332703,0.6455994-0.9174805,1.0048828-0.3105774
			c0.3858337,1.2456055,0.4248047,1.7817993,1.1221008,2.5834961c0.5283203,0.6074219,1.2178345,1.0155945,1.5605164,1.0058899
			c0.6153259-0.007782,1.2354126-0.6738892,0.4111938-1.156311c-1.2089844-0.4833984-1.6503906-1.1434937-1.829071-1.7728577
			c-0.1944275-1.0987244,0.0184631-1.6304016,0.6815796-1.0899048c0.9394836,1.0679016,2.7344055,3.0581055,3.6737976,3.9838867
			c1.0538025,0.8067017,2.2618103,0.8329773,3.2237244,0.0137024c0.5507812-0.6338196,0.3553772-1.3164062-0.5069275-1.1699219
			c-1.945282,0.1640015-3.4179077-0.8017883-5.0350952-3.4125977c-0.3164062-0.589386-0.4032898-1.4360962,0.2949219-0.8061829
			c0.8056946,1.0899048,1.9804993,2.0161133,3.0733032,2.4151001c1.0957031,0.3934937,2.000885,0.176178,2.352478-0.1684875
			c0.4227905-0.4229126,0.3114929-1.4888-0.4208984-1.2319031c-0.6025085,0.2128906-1.4512024,0.2655945-2.335022-0.0757141
			c-0.8847046-0.3457031-1.8026733-1.0899048-2.7782593-2.3529968c-0.3340149-0.7128906-0.2246399-1.315979,0.4512024-0.9483032
			c1.5985718,1.3564758,3.6610718,2.4550781,4.7137756,1.7949219c0.7763977-0.4829407,0.789093-1.7241211-0.1943054-1.644043
			c-1.9804993,0.2700195-2.7304993-0.168457-4.6328125-1.848175c-0.4325867-0.3232117-0.4032898-1.1434937,0.2861328-0.6200867
			c1.5995789,1.0326843,3.7831726,1.4355774,4.641571,0.894989c0.7715149-0.4829102,0.6582336-1.9588928-0.6416016-1.4360046
			c-1.039978,0.6338196-2.188385,0.6157227-4.4891663-1.0278015c-0.5811157-0.4833984-0.147522-1.112793,0.329071-0.8423157
			c1.8506165,1.054718,4.545929,1.5063171,5.2470093-0.6381836c0.2734985-0.8197937-0.2207031-1.2983093-0.9442749-0.730896
			c-1.5898438,1.4710999-3.3935242,0.7485046-4.4023438,0.0083008c-0.289093-0.1705017-0.8193665-1.0322876,0.1123352-0.8725891
			c2.4092102,0.5497742,4.7928772,0.0707703,5.2264709-1.6353149c0.2510071-0.5537109-0.2430725-1.5335999-1.1229858-0.7133179
			c-1.156311,1.1430359-2.382782,1.1831055-3.9258118,1.1743164c-0.7841797-0.164093-0.7929993-1.0282898-0.1337891-1.1567993
			c1.2167969,0.0263977,2.4179993-0.5053101,3.3798828-1.0458984c0.9403992-0.5405273,1.719696-1.2983093,1.9678345-2.3486023
			c0.1512756-0.9393921-0.7549133-1.9364929-1.3008118-0.9393921c-0.8056946,1.4579773-2.5907898,2.8320007-4.5762024,3.0799866
			c-0.1035156-0.1733093-0.3641968-0.6161804-0.6845093-0.4916992c-0.5830994,0.2256165-1.2774048,0.5283813-1.9921875,0.8677063
			c-1.5411072,0.7319031-2.1835938,1.0844727-1.9990845,2.3491211c0.1933899,1.3198853-0.8232117,2.1533813-1.6640015,1.9234009
			c-0.7323914-0.1973267-1.1367188-0.859436-1.0059204-2.0074158c0.1054993-0.9150085,1.0243835-2.0214233,2.0585938-2.601532
			c0.6699219-0.375,1.6817017-0.5805664,2.8994141-0.8510742c0.7412109-0.1455078,1.1181946-0.4341125,1.1621094-0.7358093
			c0,0-0.5068054,0.3710938-1.3172913,0.3153992c-0.3838196-0.0278015-0.6407471-0.1962891-0.7374268-0.3681946
			c0.2823181-0.0575867,0.7929993,0.0087891,1.2520142,0.0087891c0.6112671-0.0048828,2.0292664-0.1416016,2.405304-1.0014038
			c0.1171875-0.5673828-0.2549133-0.6689758-0.6026001-0.3056641c-0.3720093,0.3925781-0.5254211,0.7456055-1.2734375,0.8773804
			c-0.4550781,0.0800781-0.9101868,0.1729126-1.4950562,0.031311c0.329071-0.3916016,0.8534546-0.7920227,1.2997742-0.7182922
			c0.1473999,0.0243835,0.3417969,0.1601868,0.4990234,0.4037781c0.0946655-0.620575-0.0742188-1.3212891-1.7344055-1.0288086
			c0.0263977-0.4691772-0.9619141-0.6733093-1.554718-0.6639709c-0.3377686,0.0082703-1.0272827,0.2080078-1.5252991,0.4466858
			c-0.789093,0.2442017-1.569397,0.4213867-2.4883118,0.4882812c0.5332031,0.4561157,0.6338196,0.4829102,1.1660156,0.8682251
			c-0.8057251,0.3012695-1.429718,0.9214172-1.7118835,1.3295898c0,0,0.9413757-0.0263977,1.1796875,0.0801086
			c-0.9844055,0.2875977-1.4268188,0.4603882-1.9468079,0.9920959c0.1820984,0.031311,0.4555969,0.0840149,0.5718079,0.1289978
			c0.1220093,0.0438843,0.0907898,0.1239929-0.0078125,0.1991882C31.1317749,16.0170898,30.2558899,17.034668,30,17.2782898
			c-0.2554321-0.2436218-1.1313171-1.2612-1.3432922-1.422821c-0.0986328-0.0751953-0.1303101-0.155304-0.0088196-0.1991882
			c0.117218-0.0444946,0.3901978-0.0976868,0.5722961-0.1289978c-0.5200195-0.5317078-0.9618835-0.7044983-1.9462891-0.9920959
			c0.2382812-0.1065063,1.1791992-0.0801086,1.1791992-0.0801086c-0.282196-0.4081726-0.906189-1.0283203-1.7119141-1.3295898
			c0.5327148-0.3853149,0.6328125-0.4121094,1.1660156-0.8687134c-0.9194031-0.0664062-1.6992188-0.2435913-2.487793-0.487793
			c-0.4980164-0.238678-1.1875305-0.4384155-1.5254211-0.4466858c-0.5932007-0.0093384-1.5820007,0.1947937-1.555603,0.6639709
			c-1.6591797-0.2924805-1.829071,0.4082336-1.7333984,1.0288086c0.1562195-0.2435913,0.3515015-0.3793945,0.4985046-0.4037781
			c0.4468079-0.0737305,0.9707031,0.3266907,1.300293,0.7182922c-0.5853882,0.1416016-1.0404663,0.0487671-1.4956055-0.031311
			c-0.7475891-0.1317749-0.9008789-0.4848022-1.2738953-0.8773804c-0.3466797-0.3633118-0.7192993-0.2617188-0.6021118,0.3056641
			c0.3760071,0.8598022,1.7940369,0.996521,2.405304,1.0014038c0.4590149,0,0.9702148-0.0663757,1.2520142-0.0087891
			c-0.0966797,0.1719055-0.3535767,0.3403931-0.736908,0.3681946c-0.8104858,0.0556946-1.3172607-0.3153992-1.3172607-0.3153992
			c0.0433655,0.3016968,0.4203796,0.5898132,1.1615906,0.7358093c1.2176819,0.2705078,2.2294922,0.4760742,2.8993835,0.8510742
			c1.0346985,0.5801086,1.9530945,1.6865234,2.0581055,2.601532c0.1313171,1.1479797-0.2730103,1.8100891-1.0054016,2.0074158
			c-0.8403015,0.2299805-1.8573914-0.6035156-1.6645203-1.9234009c0.1850281-1.2646484-0.4570923-1.617218-1.9985962-2.3491211
			c-0.7147827-0.339325-1.4090881-0.6420898-1.9920959-0.8681946c-0.3208923-0.1239929-0.5811157,0.3193665-0.684082,0.4921875
			c-1.9854126-0.2479858-3.7705078-1.6220093-4.5766907-3.0799866c-0.545929-0.9971008-1.4517212,0-1.3003235,0.9393921
			c0.2471008,1.050293,1.0274048,1.808075,1.967804,2.3486023c0.9619141,0.5405884,2.1620789,1.0722961,3.3799133,1.0458984
			c0.6586914,0.1285095,0.6503906,0.9927063-0.1343079,1.1567993c-1.542511,0.0087891-2.7689819-0.0312805-3.9258118-1.1743164
			c-0.8793945-0.820282-1.3739929,0.1596069-1.122467,0.7133179c0.4334717,1.7060852,2.8167725,2.1850891,5.2259521,1.6353149
			c0.9317017-0.1601868,0.4013977,0.7026062,0.1123352,0.8725891c-1.0092163,0.7402039-2.8120117,1.4627991-4.4023132-0.0083008
			c-0.7236023-0.5674133-1.2172852-0.0888977-0.9443054,0.730896c0.7015991,2.1445007,3.3969116,1.6929016,5.2474976,0.6381836
			c0.4766235-0.2704773,0.9096985,0.3589172,0.3291016,0.8423157c-2.3008118,1.6435242-3.4491882,1.6616211-4.4891968,1.0278015
			c-1.300293-0.5228882-1.4130859,0.9530945-0.6416016,1.4360046c0.8583984,0.5405884,3.0419006,0.1376953,4.6411133-0.894989
			c0.6893921-0.523407,0.7192078,0.296875,0.2861023,0.6200867c-1.9023132,1.679718-2.6519165,2.1181946-4.6328125,1.848175
			c-0.9833984-0.0800781-0.9701843,1.160614-0.1942749,1.644043c1.0526733,0.6601562,3.1151733-0.438446,4.7142639-1.7949219
			c0.6758118-0.3676758,0.784729,0.2354126,0.4507141,0.9483032c-0.9750977,1.263092-1.8936157,2.0072937-2.7778015,2.3529968
			c-0.8837891,0.3413086-1.7330017,0.2886047-2.3355103,0.0757141c-0.7323914-0.256897-0.843689,0.8089905-0.4203796,1.2319031
			c0.3511047,0.3446655,1.2562866,0.5619812,2.352478,0.1684875c1.0923157-0.3989868,2.2671204-1.3251953,3.0728149-2.4151001
			c0.6976929-0.6299133,0.6112976,0.2167969,0.2948914,0.8061829c-1.6166992,2.6108093-3.0897827,3.5765991-5.0350952,3.4125977
			c-0.8623047-0.1464844-1.0576782,0.5361023-0.5074158,1.1699219c0.9624023,0.8192749,2.1708984,0.7929993,3.2242126-0.0137024
			c0.9399109-0.9257812,2.734314-2.9159851,3.6743164-3.9838867c0.6630859-0.5404968,0.8754883-0.0088196,0.6805725,1.0899048
			c-0.1776733,0.629364-0.6195984,1.2894592-1.829071,1.7728577c-0.8232117,0.483429-0.2036133,1.1485291,0.4120789,1.156311
			c0.3423157,0.0097046,1.031311-0.398468,1.5601196-1.0058899c0.6972961-0.8016968,0.7367859-1.3378906,1.1221008-2.5834961
			c0.3598022-0.6069031,1.0052795-0.3226929,1.0052795,0.3105774c-0.3076172,1.2495117-0.5760803,1.4712219-1.2001953,1.9848022
			c-0.602478,0.5723267,0.4165955,0.7676086,0.7583008,0.5283203c0.9926758-0.6835022,1.3559875-1.5643921,1.6855774-2.3714905
			c0.2388-0.5801086,0.9321289-0.2969055,0.6113281,0.6517944c-0.7666016,2.2637024-2.0322266,3.155304-4.2421875,3.6112976
			c-0.2260132,0.0450134-0.388092,0.2587891-0.2822266,0.4433899c0.2944031,0.3144836,0.593811,0.6025085,0.8887329,0.9131165
			c0,0-2.4771118,0.6356812-3.8447266,1.0429993l-1.8842773-1.281311c0.122467-0.4667969-0.6841125-1.030304-1.2964172-0.5664062
			C14.4169922,35,14.0453796,35.1395874,13.7816772,35.6063843c0.5118103-0.1698914,0.7715149-0.0527039,0.9825134,0.1983032
			c0.148407,0.5664062,0.8900757,0.914093,1.4188843,0.601593l1.4160156,1.008728l-2.3866882-0.0664368
			c-0.1708984-0.6522827-1.3529968-0.6542664-1.679718-0.0760803c-0.4302063,0-0.7167969,0.2401733-0.8638,0.8026733
			c0.4672852-0.3476868,0.6700134-0.3056641,0.9096985-0.2401733c0.280304,0.4970093,1.2416992,0.4706726,1.5072937,0
			l2.2920227,0.0643921l-1.3388062,0.7686157c-0.7709961-0.4551086-1.7670898,0.2284851-1.5810852,0.9393616
			c-0.3242188,0.2696228-0.3677063,0.6582336-0.160614,1.2080383c0.1123047-0.3818054,0.3251953-0.7383118,0.656189-0.9432983
			c0.7017212,0.1923828,1.3765259-0.0332336,1.3765259-0.7461243l1.8612671-1.0537109l1.8423157,0.7246399
			c0,0.4921875,0.7349243,0.8651733,1.3656921,0.6034851c0.4418945,0.0527039,0.5049133,0.4491882,0.5785828,0.7538757
			c0.2412109-0.4374695,0.2866211-0.891571-0.2728882-1.2782898c0-0.5664062-0.7138672-0.9189758-1.3051758-0.5917969
			l-1.5615234-0.5556946c1.4022827-0.4570312,3.9780273-0.9199219,3.9780273-0.9199219
			c0.3510742,0.3369141,0.6317749,0.5840149,0.9828796,0.8857117c0.1861267,0.1153259,0.449707,0.1094055,0.7362976-0.2655945
			c0.8755188-1.2987976,1.7032166-3.6631165,2.9683228-3.9883118c0.465271-0.1200867,1.0248718,0.1953125,0.9057922,1.2354126
			c-0.1806946,1.5820007-1.3388977,2.898407-2.7950134,3.8828125c-0.8104858,0.5400085-1.1528015,0.3007812-1.7807007,0.2705078
			c-0.8106079,0.0927734-1.0274048,0.4950867-0.3598938,1.0546875c0.6197205,0.3270874,1.1781921,0.3710938,1.6293945,0.2832031
			c0.3897095-0.0713196,0.8447266-0.5849915,1.1699219-0.8643188c0.3642578-0.4296875,0.9706726,0.0801086,0.5596008,0.5849915
			c-0.7505188,0.9131165-1.5039062,1.5117188-2.4272156,1.4980164c-0.9750977,0.1376953-0.7929993,0.6954041-0.1474915,0.9658813
			c1.1615906,0.492218,2.214386-0.4257812,2.7436829-1.0322571c0.4111023-0.4560242,0.7059937-0.4746094,0.6323242,0.2353516
			c-0.407196,1.2891235-0.9663086,1.7891235-1.8764954,1.8516235c-0.7368164-0.0664978-0.7451172,0.5146179-0.2080078,0.9090881
			c1.2304993,0.8682251,2.1230774-0.6123047,2.5395813-1.507782c0.2944031-0.8105164,0.75-0.4248047,0.7967834,0.2392883
			c0.0093384,0.8916016-0.6288757,1.8153992-1.1557007,2.2724304C27.2045898,45.7753906,30,48.6776733,30,48.6776733
			S32.7958679,45.7753906,32.2695007,45.3193054L32.2695007,45.3193054L32.2695007,45.3193054z"/>
	</g>
</g>
</svg>
