<?xml version="1.0" encoding="utf-8"?>
<!-- Generator: Adobe Illustrator 22.1.0, SVG Export Plug-In . SVG Version: 6.00 Build 0)  -->
<svg version="1.1" id="Layer_1" xmlns="http://www.w3.org/2000/svg" xmlns:xlink="http://www.w3.org/1999/xlink" x="0px" y="0px"
	 viewBox="0 0 60 60" style="enable-background:new 0 0 60 60;" xml:space="preserve">
<style type="text/css">
	.st0{clip-path:url(#SVGID_2_);fill:#FFFFFF;}
	.st1{clip-path:url(#SVGID_2_);fill:#036333;}
	.st2{clip-path:url(#SVGID_2_);fill:#D21036;}
</style>
<g id="XMLID_1_">
	<g>
		<defs>
			<path id="SVGID_1_" d="M59,60H0.9999695C0.4477234,60,0,59.5526733,0,59V0.9999695c0-0.5522461,0.4477234-1,0.9999695-1H59
				c0.5526886,0,0.9999847,0.4477539,0.9999847,1V59C59.9999847,59.5526733,59.5526886,60,59,60L59,60z"/>
		</defs>
		<clipPath id="SVGID_2_">
			<use xlink:href="#SVGID_1_"  style="overflow:visible;"/>
		</clipPath>
		<polygon class="st0" points="-15,-0.0000305 74.9999847,-0.0000305 74.9999847,60 -15,60 -15,-0.0000305 		"/>
		<polygon class="st1" points="-15,-0.0000305 30,-0.0000305 30,60 -15,60 -15,-0.0000305 		"/>
		<path class="st2" d="M43.5,29.9999695L30,25.6000977l8.4003906,11.4994812v-14.199707L30,34.4003601L43.5,29.9999695
			L43.5,29.9999695z M42.9999695,22.4999695c-4.1426086-7.1742859-13.3158875-9.6322937-20.4902039-5.4902039
			c-7.1743774,4.1421204-9.632782,13.315918-5.4907837,20.4902039c4.1421204,7.1748047,13.3164062,9.6328125,20.4907837,5.4902344
			c2.2802124-1.3164062,4.1738281-3.2099304,5.4902039-5.4902344c-4.1426086,5.1738281-11.6942749,6.0097961-16.8677063,1.867218
			c-5.1732788-4.1416016-6.0092773-11.6939087-1.867157-16.867218c4.1420593-5.1732788,11.6938782-6.0097656,16.8677063-1.8676758
			C41.8222656,21.1845703,42.4481812,21.8104858,42.9999695,22.4999695"/>
	</g>
</g>
</svg>
