<?xml version="1.0" encoding="utf-8"?>
<!-- Generator: Adobe Illustrator 22.1.0, SVG Export Plug-In . SVG Version: 6.00 Build 0)  -->
<svg version="1.1" id="Layer_1" xmlns="http://www.w3.org/2000/svg" xmlns:xlink="http://www.w3.org/1999/xlink" x="0px" y="0px"
	 viewBox="0 0 60 60" style="enable-background:new 0 0 60 60;" xml:space="preserve">
<style type="text/css">
	.st0{clip-path:url(#SVGID_2_);fill:#232856;}
	.st1{clip-path:url(#SVGID_2_);fill:#BE1823;}
	.st2{clip-path:url(#SVGID_2_);fill:#FFFFFF;}
	.st3{clip-path:url(#SVGID_2_);fill:#020203;}
	.st4{clip-path:url(#SVGID_2_);fill:#FCC125;}
	.st5{clip-path:url(#SVGID_2_);fill:#5A371A;}
	.st6{clip-path:url(#SVGID_2_);fill:#7C3D20;}
	.st7{clip-path:url(#SVGID_2_);fill:#AB5423;}
	.st8{clip-path:url(#SVGID_2_);fill:#9A9999;}
</style>
<g id="XMLID_1_">
	<g>
		<defs>
			<path id="SVGID_1_" d="M59,60H0.9999695C0.4477234,60,0,59.5526733,0,59V0.9999695c0-0.5522461,0.4477234-1,0.9999695-1H59
				c0.5526886,0,0.9999847,0.4477539,0.9999847,1V59C59.9999847,59.5526733,59.5526886,60,59,60L59,60z"/>
		</defs>
		<clipPath id="SVGID_2_">
			<use xlink:href="#SVGID_1_"  style="overflow:visible;"/>
		</clipPath>
		<polygon class="st0" points="-60,-0.0000305 59.9999847,-0.0000305 59.9999847,60 -60,60 -60,-0.0000305 		"/>
		<polygon class="st1" points="-60,29.9999695 59.9999847,-0.0000305 59.9999847,60 -60,29.9999695 		"/>
		<polyline class="st2" points="-47.1430969,29.9999695 59.9999847,3.2148132 59.9999847,56.7851868 		"/>
		<path class="st3" d="M31.976593,33.3515625c0.7998047,0.0605164,0.7723694,0.8535156,0.7723694,0.8535156l2.8321533,0.0635071
			c0.3622742-0.9873047,0.7381897-0.8731079,1.4266968-0.3858032C37.6611023,34.3466797,38.375,34.5536804,38.375,34.5536804
			c0.273407-1.4179993,2.2832031-1.1307983,2.2832031-1.1307983c0.8563843-2.0469055,0.9296875-2.0195923,0.4188843-2.2783813
			c-0.5107117-0.2592163-0.718689-0.6977234-0.718689-0.6977234c-0.484436-0.5849915-0.7393188-1.4306946-0.7939148-1.949707
			c-0.0546875-0.519104-0.656311,0.2597046-0.7657166,0.0957336c-0.1092529-0.1636353-1.0028687-0.0679321-1.0028687-0.0679321
			c0.218689,0.2319031-0.5283203,0.0952148-0.5283203,0.0952148c0.0722046,0.0546875,0,0.2730103,0,0.2730103
			c-0.0732727-0.0952148-0.6387024-0.1910095-0.6387024-0.1910095c-0.0546875,0.1230774-0.1815796,0.2593079-0.1815796,0.2593079
			c-0.3106079-0.1362305-0.929718-0.109314-0.929718-0.109314c-0.9111938-0.0137024-1.4579773,0.2728882-1.7138977,0.4233093
			c-0.2549133,0.1499023-1.1660156,0.6138-1.914093,1.3368835c-0.7469788,0.7227173-1.1665039,0.6416016-1.1665039,0.6416016
			c-0.218689,0.804718-2.0047913,1.7871094-2.0047913,1.7871094c-0.2915039,0.2587891-1.1850891,0.381897-1.640686,0
			c-0.4555054-0.3818054,0-1.0643921,0-1.0643921c0.1684875-0.319397,0.3359985-0.3057251,0.3544922-1.4121094
			c0.0126648-0.7485962,0.7851868-1.3423157,1.5776978-2.2120056c0.9691772-1.0628967,2.3241882-2.8138733,2.3241882-2.8138733
			c0.0068054,0.5375977,0.3008118,0.6244812,0.3008118,0.6244812c0.2666016-0.5473938,0.6493835-0.987793,0.6493835-0.987793
			c0.0205078,0.0463867,0.0751953,0.0771179,0.0751953,0.0771179c0.3008118-0.4096069,0.485321-0.5732422,0.485321-0.5732422
			c-0.1025085-0.0409851-0.9432983,0-1.7294922,0.6855164C30.329071,26.050293,29.789093,25.820282,29.789093,25.820282
			c-0.5469055-0.1738281-0.5947876-0.593689-0.5947876-0.593689c-0.3989258-1.717804,1.1690063-2.9468079,1.1690063-2.9468079
			c-2.1055298-0.5014954-0.5879211-3.1719055,2.0233765-4.3081055c2.6112976-1.1358032,2.5839844-1.647522,2.5839844-1.647522
			c0.1504211,0.1743164,0.273407,0.4810486,0.273407,0.4810486c0.0274048-0.0205078,0.218811-0.3067322,1.7227173-0.9717407
			c1.5038757-0.6654968,2.2284851-1.2382812,2.2284851-1.2382812c0.1914062,0.3681946,0.1504211,0.6343079,0.1504211,0.6343079
			c4.1142883-1.4429016,8.1679993-4.7529297,8.1679993-4.7529297c0.1161804,0.2763062,0.0546875,0.6958008,0.0546875,0.6958008
			c0.6698914-0.6191711,3.089798-2.0620117,3.089798-2.0620117c0.0410156,0.920929-0.7178192,1.2739258-0.7178192,1.2739258
			c0.0821381,0.1333008,0.1299133,0.3735046,0.1299133,0.3735046c0.3964996-0.2147827,2.2422028-1.5038757,2.2422028-1.5038757
			c0.6767883,0.5830078,0.0614929,1.5395813,0.0614929,1.5395813c0.2393036-0.0357056,0.4170227-0.2452087,0.4170227-0.2452087
			c0.1708832,0.992218-0.929718,1.8671875-0.929718,1.8671875c0.1914062,0.0054321,0.5126953-0.184082,0.5126953-0.184082
			c-0.2051086,1.0845032-2.2626801,2.2872009-2.2626801,2.2872009c0.3007965,0.2655945,0.0136871,0.6185913-0.2324219,0.7772827
			c-0.2460938,0.1587219-0.6835632,0.5068054-0.546875,0.6499023c0.1367798,0.1436157,1.0458984-0.4960938,1.0458984-0.4960938
			c0.1573029,0.4551086-1.0117188,1.3505859-1.0117188,1.3505859c0.8134918,0.1074219,3.0762177-0.9208679,3.0762177-0.9208679
			c-0.1846008,0.875-1.0391083,1.5551758-2.0917969,1.9491882c-1.0526886,0.394104-0.9981232,0.4555969-0.9981232,0.4555969
			c0.1846008,0.1479187,1.6407166-0.2763977,1.6407166-0.2763977c-0.4375153,0.9771118-1.9551086,1.6474915-1.9551086,1.6474915
			c0.4169922,0.3529968,0.9844208-0.0561829,1.5516815-0.4453125c0.5674286-0.3886719,1.3399353-0.7211914,2.1944275-1.0078735
			c0.8545074-0.2865906,1.4559937-0.0711975,1.4559937-0.0711975c0.7110138-0.2250977,1.3125,0.0917969,1.3125,0.0917969
			c1.3672028,0.1127014,1.5039062,0.6087952,1.5039062,0.6087952c0.1504059,0.035675,0.2666016,0.0971985,0.6152954,0.3530884
			c0.3486023,0.2558289,0.3280945,1.0487976,0.3144073,1.4380188c-0.0136261,0.3885803-0.1230164,0.3885803-0.1914215,0.4960938
			c-0.0682983,0.1074219-0.0751801,0.2304077-0.0751801,0.378418c0,0.1483765-0.3418121,1.0692749-2.4541168,1.0795898
			c-2.1123047,0.0101929-3.2010803,0-3.2010803,0c-0.1749115,0-0.3829193,0.1025085-0.3829193,0.1025085
			c-0.8885956,0.4398804-0.4198761-0.3003235-1.4765015,0.5697937c-1.0575867,0.8696899-1.5956726,0.7192993-1.5956726,0.7192993
			c-0.1729126,0.2080078-1.280304,1.2381897-1.9131165,1.6473999c-0.6337891,0.4096985-0.5195007,0.3720703,0.031189,0.6108704
			c0.5518188,0.238739,1.3858032,0,1.3858032,0c-0.5332031,0.3545227-0.164093,0.5185242-0.164093,0.5185242
			c0.7012024-0.4266968,1.1260071-0.2695312,1.1260071-0.2695312c0.2227173,0.610321-0.5791016,1.5757141-0.5791016,1.5757141
			c0.3096008,0.0410156,0.8926086,0,0.8926086,0c-0.1407166,0.4126282-0.7246094,0.8662109-1.1524048,1.0063171
			c-0.4287109,0.139679-0.3506165,0.194397-0.2236328,0.4536133c0.1279297,0.2592773,0.0186157,0.5219727,0.0186157,0.5219727
			c-0.7471008-0.5185852-0.7745056-0.0546875-0.7745056-0.0546875c-0.0868835,0.6142883-0.0731812,1.4942017-0.0731812,1.4942017
			c-0.5282898-0.2666016-0.5566101,0.0888062-0.5566101,0.0888062c-0.1357727,0.5585938-0.7831726,1.2070923-0.7831726,1.2070923
			c-0.0274353-0.3477173-0.3467102-0.4365845-0.3467102-0.4365845c-0.3369141,0.6474609-0.9570923,1.0370789-0.9570923,1.0370789
			c-0.0820007,0.5586243,0.0733032,1.343811,0.0733032,1.343811c-0.4014282-0.0820007-0.546936-0.0752258-0.6104126,0.0205078
			c-0.0644226,0.0956726,0.0908813,0.1435852,0.0908813,0.1435852l5.2225952,0.1289062
			c0.0732117,0.0067749,0.3828125,0.0410156,0.3916321,0.6073914c0.0097656,0.5664062-0.4560242,0.5937195-0.4560242,0.5937195
			l-5.7138977-0.1367188c0,0,0.0272827,0.157196-0.2734985,0.3134766c-0.3006897,0.1572266-0.2010803-0.1767578-0.2832031,0.5254211
			c-0.0820007,0.7030945-1.2207031-0.0546875-1.2207031-0.0546875c-0.1825867,0.273407-0.6288757,0.6278992-0.6288757,0.6278992
			c-0.2558289-0.7705078-0.5195312-1.0097046-0.929718-0.3407898c-0.4100952,0.6679993,0.7382812,0.5526733,0.7382812,0.5526733
			s6.7080383-0.9891968,7.0722961-1.023407c0.3643188-0.0341797,0.765625-0.0137024,0.929718,0.4980164
			c0.1640015,0.5118103-0.8114929,0.592804-0.8114929,0.592804L41.25,38.5126953
			c-0.1455078,0.4091797-0.7197266,0.375-0.7197266,0.375c0.0449219,0.3886719-0.3652954,0.6347961-0.5741882,0.7773132
			c-0.2099915,0.1435547-0.8663025,0.0751953-0.8663025,0.0751953c-0.8016968,0.5458984-1.1942749,0.1161804-1.1942749,0.1161804
			c-0.5195312,0.2255859-0.8476257,0.1299133-1.2754211-0.0545959c-0.4287109-0.1846008-0.3926086-0.7022095-0.3926086-0.7022095
			l-4.3427124,0.4501953c-0.2050781,0.0712891-0.3456726,0.2080078-0.3456726,0.2080078
			c0.1542969,0.1972961-0.3115845,0.6572266-0.3115845,0.6572266c0.1298828,0.0898743,0.3798828,0.3398743,0.4140625,0.8828735
			c0.0361328,0.5731812-0.7011719,0.6698914-0.3319702,1.0693054c0.3691101,0.3983765,1.0429077,0.0693054,1.7948914-0.2919922
			c0.7518921-0.3604126,1.4893188-0.3145142,1.8104858-0.3115234c0.3212891,0.0019226,1.2168274,0.2275085,1.7745056,0.4237976
			c0.5566101,0.1972961,0.7480164,0.0801086,0.7861023-0.2070007c0.0370789-0.2861633,0.2871094-0.3681946,0.2871094-0.3681946
			c-0.0684204,0.281311,0.0820007,0.4072266,0.0820007,0.4072266c0.2149048,0.014679,0.5907898-0.1953125,0.5907898-0.1953125
			c-0.0340881,0.2080078-0.3076172,0.3378906-0.3076172,0.3378906c-0.5467834,0.3662109,0.2051086,0.2304993,0.2051086,0.2304993
			c1.4971008-0.3067017,2.030304-0.2763977,2.4198914-0.2353821c0.3897095,0.0409851,2.2285156,0.8241882,2.2285156,0.8241882
			c0.0683899-0.1845093,0.0206299-0.6395874,0.0206299-0.6395874c0.4715881,0.1278687,0.6629639,0.398407,0.6629639,0.398407
			c0.1778259-0.1943359,0.061615-0.5214233,0.061615-0.5214233c1.5174866,0.8496094-0.3144836,1.2333069-0.7998047,1.3963928
			c-0.4854126,0.164093-0.4786072,0.3633118-0.4786072,0.3633118c0.4034119-0.1278992,0.6835938-0.1738281,1.0186157-0.1992188
			c0.3349915-0.0253906,0.218689-0.0048828,1.0185852-0.164093c0.7998047-0.1582031,1.2098999,0.179718,1.2098999,0.179718
			c-0.6698914,0.0351868-0.8681946,0.2353821-0.8681946,0.2353821c0.4238892,0.2910156,0.0205994,0.5371094,0.0205994,0.5371094
			c-0.6083984-0.7676086-1.1279907,0.030304-1.1279907,0.030304c0.2089844-0.030304,0.8212891,0.0975952,0.9950867,0.2070007
			c0.1347961,0.0848999,0.4512024,0.2412109,0.843811,0.4219055c0.5556946,0.2567749,0.4512024,0.0927124,0.8818054,0.2557983
			c0.4306946,0.164093,0.2666016,0.579071,0.2666016,0.579071c-0.1845093-0.3378601-0.5810242-0.4559631-0.5810242-0.4559631
			c-0.0341797,0.4559631-0.4921875,0.5321655-0.4921875,0.5321655c0.5604858-0.6239929-0.6493835-0.8954773-1.2167969-0.8847961
			c-0.5674133,0.0098267-0.9912109,0.3731079-0.9912109,0.3731079c1.1416016,1.0693054,1.9346313,0.7216797,1.9346313,0.7216797
			c-0.1436157,0.3886414-1.0870056,0.235321-1.0870056,0.235321c0.4374695,0.3320007,0.389679,0.5673828,0.389679,0.5673828
			c-0.2323914-0.2245789-0.6151733-0.1122742-1.4346008-0.6445007c-0.8203125-0.5322876-1.5516968-0.3574524-1.5516968-0.3574524
			c0.7998047,0.8535767-0.2940063,1.3603821-0.2940063,1.3603821c-0.4032898,0.2304688,0.1708984,0.5419922,0.1708984,0.5419922
			c-0.5057678,0.092804-0.5741882-0.414093-0.5741882-0.414093c-0.2666016-0.0508118-0.6493835,0.2714844-0.6493835,0.2714844
			c0.0272522-0.5224915,0.7108765-0.2606812,0.7313843-0.8036804c0.0205078-0.5420227-0.6357117-0.9619141-2.5703125-0.6953125
			c-1.9346008,0.2655945-2.5018921-0.3535156-2.5018921-0.3535156c-0.1641235,0.0057983-0.1983032,0.1689148-0.1983032,0.1689148
			c0.3212891,0.3076172,0.4649048,0.4356079,0.4102173,0.6503906c-0.054718,0.2148132,0.102478,0.2861023,0.102478,0.2861023
			c-0.3554993-0.0204773-0.382782-0.445282-0.382782-0.445282c-0.0068054,0.1737976-0.0820007,0.1894836-0.1982117,0.3739929
			c-0.1163025,0.1836243-0.006897,0.4190063-0.006897,0.4190063c-0.1503906-0.1328125-0.4237976-0.2910156-0.1640015-0.6698914
			c0.2001953-0.2920227-0.4169922-0.6651001-0.4169922-0.6651001c-0.2392883-0.2461243-0.875-0.015625-0.875-0.015625
			c-1.319397,0.2607117-2.0917969-0.5731812-2.0917969-0.5731812c-0.1504211,0-0.4375-0.0811157-0.4375-0.0811157
			c-1.3946228,0.6240234-2.6181946-0.726593-2.6181946-0.726593c-1.0527039,0.1992798-1.5312195-0.3075867-1.8525085-0.8036804
			c-0.3212891-0.4961243-0.382782-0.5371399-0.8067322-0.7929382c-0.4237671-0.2558899-0.8197632-0.9794617-0.4305725-1.3603821
			c0.3392944-0.3330078,0.2391968-0.4100952,0.2391968-0.4100952c-0.5469055-0.9190063,0.9750977-1.2149048,1.0025024-1.4356079
			c0.039978-0.3203125,0.3578796-0.523407,0.699707-0.5439148c0.3417969-0.0205078,0.3417969,0.0097046,0.5673828-0.2197571
			C28.7567749,38.9804688,29.1875,39.266571,29.1875,39.266571c0.0888977-0.0664062,0.8407898-0.6493835,1.5106812-0.3476868
			c0.6700134,0.3017883,1.2237244,0.0869751,1.2237244,0.0869751c0.4717102-0.1025696,4.3885803-0.6347656,4.3885803-0.6347656
			c0.2529907-0.3779297,0.4307251-0.8340149,1.5108032-1.0791321c1.0800781-0.2450867,1.9003906-0.9159851,1.9003906-0.9159851
			c-0.1913757-0.204071-0.5126953-0.194397-0.6768188-0.2148743c-0.1639709-0.0205078-0.5057678-0.3115234-0.5057678-0.3115234
			c-0.1983032,0.0868835-0.2998047,0.0440063-1.7159119,0.905304c-1.2645874,0.7685242-1.3006897-0.756897-1.3006897-0.756897
			l-2.7597961,0.0049133c-0.0479126,0.5830078-0.4921875,0.8134766-0.4921875,0.8134766l-1.0049133,0.0507812
			c-0.5605164-0.296875-0.5674133-1.2841797-0.5674133-1.2841797c-3.0345764,0.0458984-4.7230835,1.1309204-4.7230835,1.1309204
			c-3.4385071-1.7598267-6.1318054-2.1592102-6.1318054-2.1592102C24.019989,34.0995789,26.2279968,32.9375,26.2279968,32.9375
			c2.3032837,1.3817749,4.4701843,1.4179993,4.4701843,1.4179993c0.0820923-0.8340454,0.6426086-1.0391235,0.6426086-1.0391235
			L31.976593,33.3515625L31.976593,33.3515625L31.976593,33.3515625z"/>
		<path class="st4" d="M27.0106812,40.2812805c-0.8724976,0.5116882-0.7147827,0.7919006-0.6390686,0.9491882
			c0.0775757,0.1601257,0.0868835,0.3134155-0.1499329,0.5517273c-0.2373047,0.2392883-0.214386,0.3222961-0.214386,0.3222961
			c0.0365906,0.8485718,0.637207,1.0282898,0.8876953,1.2362976c0.2099915,0.1737976,0.5658875,0.7207031,0.5658875,0.7207031
			c0.4468079,0.6405945,0.9204102,0.6474915,1.2715149,0.6474915c0.3506165,0,0.3197937-0.0292969,0.1411133-0.1875
			c-0.1679077-0.1484985-0.5195312-0.4364929-0.5195312-0.4364929c0.4692078,0.1640015,0.9160156,0.6551819,0.9160156,0.6551819
			c0.8867188,0.9698181,1.7045898,0.8418274,2.0639954,0.7940063c0.3602905-0.0469055,0.2969055-0.2558899,0.2969055-0.2558899
			c-0.0195923-0.0342102-0.3692017-0.0605164-0.3692017-0.0605164c-1.3309937-0.1269836-1.7319031-1-1.7319031-1
			c0.8021851,0.7880859,2.0599976,0.9482117,2.4468079,0.9336243c0.3876953-0.0147095,0.3651733,0.0965881,0.2831726,0.1171875
			c-0.0820923,0.0205078-0.2011719,0-0.3788757-0.0137024c-0.1778259-0.0137024-0.1778259,0.030304-0.1368103,0.1054993
			c0.0411072,0.0751038,0.2090149,0.0830078,0.420929,0.0751038c0.2119751-0.007782,0.0411072,0.015686,0.5908813,0.4424133
			c0.5506897,0.4277954,1.9208984,0.0820923,1.9208984,0.0820923c-0.8847961-0.2198181-1.0079041-0.6192017-1.0079041-0.6192017
			c-1.2030945,0.1405945-1.6922913-0.5810242-1.6922913-0.5810242c-0.2149048-0.2148743-0.8574829-0.546875-0.8574829-0.546875
			c-0.6801453-0.2919922-0.7861328-0.907196-0.7861328-0.907196c0.1914368,0.2723999,0.5640259,0.5848694,1.0352173,0.7147827
			c0.4715881,0.1308899,0.6054077,0.2001953,0.6054077,0.2001953c-0.2256165,0.0332031-0.359314-0.0410156-0.359314-0.0410156
			c-0.4716797-0.1386719-0.2050781,0.0537109-0.2050781,0.0537109c0.5194702,0.4141235,0.6630554,0.3838196,0.6630554,0.3838196
			c1.3642273,0.1405945,0.6875305-0.4042969,0.6875305-0.4042969c0.9706726,0.2304688,1.1307983-0.1328125,1.1307983-0.1328125
			c0.2022095,0.4266968,0.9364929,0.273407,0.9364929,0.273407c-0.977478,0.4707031-0.235321,0.3359985-0.235321,0.3359985
			c0.9873047-0.1846008,1.1807251,0.0664062,1.1807251,0.0664062c0.2674866,0.2489929,0.5379944,0.2138062,0.5379944,0.2138062
			s0.1777954,0.0058899,0.5538025,0.0810852c0.375885,0.0751953,0.9501953,0.3955078,1.4970093,0.3271179
			c0.546875-0.0674133,0.6358032,0.1044922,0.6358032,0.1044922c-0.1026001-0.0361023-0.3418274-0.0722351-0.7657166,0.1171875
			c-0.4237976,0.1895142-1.1552124,0.2510071-2.2216187,0c-1.0663757-0.2509766-1.1484985-0.219696-1.1484985-0.219696
			c0.2530212,0.1884766,0.4785156,0.4550781,0.5264282,0.6387024c0.0477905,0.1845093,0.2323914,0.195282,0.2323914,0.195282
			c0.0752258-0.2353821,0.3965149-0.3378906,0.3965149-0.3378906c0.2099915,0.1943054,0.7724915,0.4502258,0.7724915,0.4502258
			c0.0614929-0.1280212,0-0.2178345,0-0.2178345c0.4100952,0.3916016,0.8886108,0.273407,0.8886108,0.273407
			c0.1298828-0.0917969,0.0888977-0.3114929,0.0888977-0.3114929c0.164093-0.0048828,0.1913757,0.0967102,0.3075867,0.1737976
			c0.1162109,0.077179,0.4854126,0.0253906,0.4854126,0.0253906c-0.1366882-0.055603-0.2325134-0.2655945-0.2325134-0.2655945
			c0.5401001-0.3739929,1.7090149-0.2099915,1.7090149-0.2099915c0.8437805,0.1484985,0.7382812,0.7012024,0.7382812,0.7012024
			c0.170929,0.0820007,0.3965149,0.3378906,0.3965149,0.3378906c0.0712891-0.1953125,0.0067749-0.3916016,0.0067749-0.3916016
			c0.3858337,0.1836243,0.4678345,0.6337891,0.4678345,0.6337891c0.4483032-0.5116882-0.4267273-1.0868835-0.4267273-1.0868835
			c0.4238281-0.0537109,0.8916016-0.015625,1.1757202,0.0253906c0.2831726,0.0409851,0.6904907,0.1894226,1.0214844,0.4657898
			c0.3320007,0.2764282,0.9268188,0.4042969,0.9268188,0.4042969c-0.0186157-0.1142578-0.335022-0.3066711-0.4073181-0.3476868
			c-0.0711975-0.0409851-0.1025085-0.1405945-0.1025085-0.1405945c0.2910156,0.0508118,0.492218,0.0253906,0.492218,0.0253906
			C43.3037109,45.796875,43.046875,45.5,43.046875,45.5c0.3828125,0.0487671,0.594696-0.1895142,0.594696-0.1895142
			c-0.8065796,0.0176086-0.8339844-0.1923218-0.8339844-0.1923218c0.0996094,0.0282898,0.4649048,0.1181335,0.9473267,0.023407
			c0.4813538-0.094696,1.1513977,0.0028992,1.1513977,0.0028992c-0.3487244-0.5605164-1.6983337-0.4657898-2.1290283-0.4432983
			c-0.430603,0.023407-0.5985718-0.0331726-0.5985718-0.0331726c0.0692749-0.0332336,0.1405945-0.1045227,0.4784546-0.1075134
			c0.3389282-0.0018921,0.6699219,0.0263977,1.0528259-0.2373047c0.382782-0.2636108,0.9082031-0.1766968,0.9082031-0.1766968
			c-0.1270142-0.2519836-0.733429-0.3408203-1.2666016,0c-0.5332031,0.3407898-1.0166016,0.2314148-1.0166016,0.2314148
			c0.843689-0.1191406,1.0888062-0.4160156,1.0888062-0.4160156c-0.2549133-0.0614929-0.3965149,0.0205078-0.9013062,0.1201172
			c-0.5058899,0.0986633-0.6425781-0.0751953-0.6425781-0.0751953c0.5555725-0.3310242,0.9423828-0.4638062,0.9423828-0.4638062
			c-0.4736938-0.0986938-0.9111938-0.3018188-0.9111938-0.3018188c-0.492218,0.4629211-0.875,0.7246094-1.8182983,0.2294922
			c-0.9434204-0.4940796-1.4356079-0.4364929-1.4356079-0.4364929c0.8300781-0.4912109,1.6817017-0.2792969,2.3017883,0.092804
			c0.6200867,0.3710022,0.797821,0.0673218,0.797821,0.0673218c-0.1963196-0.1220398-0.1689148-0.2285156-0.1689148-0.2285156
			c1.5039062,0.7676086,2.155304,0.2901001,2.4883118,0.0654907c0.3329773-0.2256165-0.1504211-0.5253906-0.1504211-0.5253906
			c-0.032196,0.4872742-0.6474915,0.7088928-1.1298828,0.5458679c-0.4833984-0.164093-0.929718-0.3721008-1.625-0.6621704
			c-0.6943054-0.2900085-1.5653992-0.1396179-2.3760071,0.031311c-0.8114929,0.1698914-0.9160156,0.0888672-0.9892273,0.023407
			c-0.0733032-0.0644226-0.1142883-0.2627258-0.5283813-0.0918274c-0.4150085,0.1708984-1.3807983-0.2831726-1.9824219-0.4266968
			c-0.6014709-0.1426086-1.5868835-0.0644836-2.4384766,0.4023132c-0.8515015,0.467804-1.2713928,0.3515625-1.5262756,0.2353821
			c-0.2559204-0.1152954-0.4151306-0.4364929-0.1416321-0.7226868c0.2734375-0.2861328,0.295929-0.3652344,0.2734375-0.7773132
			c-0.0224304-0.4130859-0.4287415-0.6592102-0.4287415-0.6592102c0.3739929-0.3847656,0.4658203-0.469696,0.3379211-0.6376648
			c-0.1279297-0.1670227,0.0722961-0.1631165,0.2871094-0.2588196c0.2138977-0.0957031,0.1181641-0.109375,0.0683899-0.235321
			c-0.0498047-0.1260071-0.1729126-0.1054993-0.1729126-0.1054993c-0.4971008,0.0205078-0.7705078-0.1161804-0.7705078-0.1161804
			c-0.8227844-0.3789062-1.5858765,0.3583984-1.5858765,0.3583984c-0.4672852-0.3583984-0.5743103-0.1270142-0.656311-0.0380859
			c-0.0820007,0.0888672-0.2460938,0.1503601-0.4648132,0.1708679c-0.1991882,0.0185242-0.4999695,0.0967102-0.6039734,0.2822266
			c0,0-0.0923157,0.1493835,0.0228882,0.3125c0,0,0.1275024,0.1933899-0.105011,0.4257812
			c-0.2323914,0.2324219-0.3143921,0.289093-0.2425842,0.5087891c0.0716858,0.2197266,0.051178,0.3887329-0.0375977,0.5322266
			c0,0-0.1060181-0.1229858-0.0786133-0.273407c0.0273132-0.1513977,0.0273132-0.2383118-0.006897-0.3203125
			c0,0-0.2290039,0.2256165-0.269989,0.3866882c0,0-0.0952148-0.2480774,0.2357788-0.5810547
			c0.331604-0.3320312,0.4829102-0.4980164,0.3897095-0.6269226C27.3114624,40.0937805,27.0692749,40.2471008,27.0106812,40.2812805
			L27.0106812,40.2812805L27.0106812,40.2812805z"/>
		<path class="st3" d="M30.0082703,42.7313843c0,0-0.032196-0.2489929,0.1914062-0.6893921
			c0.2232056-0.4395142,0.0894165-0.7666016,0.0391235-0.8760071c-0.0503235-0.1094055-0.0801086-0.0683289,0.144989-0.2578125
			c0.2773132-0.2323914-0.1069031-0.5263672,0.3490906-0.9346008c0,0,0.300293-0.257782,0.3687134-0.3631897
			c0,0-0.4829102,0.2586975-0.7974243,0.3886108c-0.3144836,0.1298828-1.5175781,0.7197876-1.2528687,1.1152954
			c0.2640686,0.3955078,0.2367859,0.4160156,0.1958008,0.5800171c0,0-0.7154236-0.3789368-0.4649353-0.993103
			c0,0,0.1138306-0.2471313,0.4146118-0.5244141c0.273407-0.2530212,0.1094055,0.0536804,0.6655273-0.2627258
			c0,0,0.441864-0.2626953,0.6742859-0.6181946c0,0-0.2915039,0.1846008-0.3965149,0.2148132
			c0,0-0.6424866,0.1163025-0.9022827,0.3897095c-0.2597961,0.2724915-0.8110046,0.7471008-0.6245117,1.2753906
			c0,0-0.6426086-0.0791016-0.7880859-0.7471008c0,0-1.1895142,1.4667969,1.3076172,2.148407
			C29.1333008,42.578064,29.5888977,42.6991882,30.0082703,42.7313843L30.0082703,42.7313843z M27.9525757,43.9491882
			c0,0-0.4144897-0.3173828-0.3641968-0.7578125c0.0498047-0.4393921,0.0415344-0.4941101-0.0043945-0.5868835
			c0,0-0.0756836,0.0438843-0.0733032,0.2157898c0.0020142,0.1602173-0.0205078,0.3272095-0.0365906,0.3574219
			c0,0-0.2138062-0.3642273-0.3008118-0.4326172c0,0,0.0733032-0.3828125-0.0453796-0.5458984
			c-0.1186218-0.164032-0.2333984-0.1737976-0.3691101-0.1230164c-0.1879883,0.0713196-0.3300781,0.2460938,0.3021851,0.7636108
			c0,0,0.2354126,0.1875,0.3994141,0.6045227C27.6244812,43.8603821,27.8983765,43.9247742,27.9525757,43.9491882
			L27.9525757,43.9491882z"/>
		<path class="st4" d="M40.9931641,37.8270874c0.9326172-0.1405945,6.3369141-0.9570007,6.828125-1.0068054
			c0.5381165-0.054718,0.7441101-0.1268921,0.9208984,0.3067017C48.9423828,37.6181641,48.0038757,37.625,48.0038757,37.625
			l-6.4433899,0.7304688c-0.3164062,0.0361023-0.3876038-0.0839844-0.3876038-0.0839844
			c-0.0556946-0.1035156-0.1630859-0.2402039-0.2373962-0.3301086
			C40.9354858,37.9413757,40.8505859,37.8486023,40.9931641,37.8270874L40.9931641,37.8270874L40.9931641,37.8270874z"/>
		<path class="st5" d="M27.7929993,40.7587891c0,0-0.6968079,1.468689,2.0438843,1.8320007
			c0,0,0.006897-0.1640015,0.1162109-0.3935242c0.109375-0.2304688,0.3486938-0.6962891,0.1231079-0.9980774
			c-0.2256165-0.3016968,0.1844788-0.1434937,0.2460938-0.5371094c0.0614929-0.3945007-0.0409851-0.3378906,0.1503906-0.593689
			c0,0-0.8614197,0.3125-1.1895142,0.6903992c-0.3280945,0.3789062,0.4443359,0.664978-0.0136719,1.0800781
			c0,0-0.3828125-0.1386719-0.6083984-0.5527954C28.6615906,41.2860718,28.1283875,41.296875,27.7929993,40.7587891
			L27.7929993,40.7587891L27.7929993,40.7587891z"/>
		<path class="st3" d="M30.4726868,42.5624695c0,0,0.6766968,0.5859375,1.4833984,0.5605164
			c0.8066101-0.0252991,1.148407-0.2402039,1.3535156-0.5605164c0,0,0.1571655,0.2480164,0.1571655,0.4121094
			c0,0,0.6973267-0.5780945,1.9004211-0.0770874c1.2030945,0.5018921,0.8340149,0.3641968,1.1006165,0.3994141
			c0,0-0.5116882-0.0908203-1.6817017,0.445282C33.5830078,44.2929993,30.4453125,44.1054993,30.4726868,42.5624695
			L30.4726868,42.5624695L30.4726868,42.5624695z"/>
		<path class="st5" d="M27.0531921,42.6981812c0,0-0.5658875-0.4443054-0.2036133-0.532196
			C26.8495789,42.1659851,27.1078796,42.1259766,27.0531921,42.6981812L27.0531921,42.6981812z M29.351593,39.9716797
			c0,0,0.3041992,0.0458984,0.6083984-0.2969055C29.9599915,39.6747742,29.5497742,39.7519836,29.351593,39.9716797
			L29.351593,39.9716797z"/>
		<path class="st3" d="M39.3662109,45.4823914c0,0,0.3007812-0.5380859,1.1689758-0.5380859
			c0.868103,0,0.9707031,0.3994751,2.0643921,0.4755554c0,0-1.3135071,0.3701172-2.2284851,0.031311
			C39.8925781,45.2733765,39.4618835,45.4208984,39.3662109,45.4823914L39.3662109,45.4823914z"/>
		<path class="st5" d="M30.773407,42.9541016c0,0,1.2988586,0.7880859,2.454071-0.0664368
			c0,0,0.0957031,0.0918274,0.1777954,0.3018188c0,0,0.8750305-0.843811,2.4403992,0.0664062
			c0,0-0.1923828-0.0215149-0.9296875,0.296814C33.9551086,43.9667664,31.5527039,44.2382812,30.773407,42.9541016
			L30.773407,42.9541016z"/>
		<path class="st3" d="M35.7841797,43.7528687c0,0,1.2441101,0.1436157,2.2969055,0.0810852
			c0.6464233-0.0380859,1.3466187-0.15625,0.9980164,0.0625305c-0.3486023,0.2187195-0.1777344,0.2402039,1.3125,0.1015015
			c1.4902039-0.1376038-0.0137329,0.2812805,1.0116882,0.414093C41.4032898,44.4120789,38.9179993,45.6815796,35.7841797,43.7528687
			L35.7841797,43.7528687z"/>
		<path class="st5" d="M36.3173828,43.9208984c0,0,1.5996094,0.1483765,2.467804-0.0244141
			c0,0-1.0048828,0.485321,1.5175171,0.2597961c0,0,0.5606079-0.0615845,0.4921875,0.0252991
			c-0.0682983,0.0879211-0.1094055,0.1542969,0.164093,0.2353821
			C40.9589844,44.4179688,39.0858765,45.2567749,36.3173828,43.9208984L36.3173828,43.9208984L36.3173828,43.9208984z
			 M39.8651733,45.2050781c0,0,0.717804-0.3574219,1.5108337,0.0146179c0.0995789,0.046875,0.3153687,0.1366882,0.5194702,0.1796875
			c0,0-0.6083984,0.1885071-1.2304993-0.0048828C40.406311,45.3144836,40.2001953,45.2519836,39.8651733,45.2050781
			L39.8651733,45.2050781L39.8651733,45.2050781z M39.0517883,42.9589844c0,0,0.7313843-0.2655945,1.4082031,0.0516968
			c0.6766968,0.3173828,0.5741882,0.342804,1.0253906,0.3887024c0,0-0.3144836,0.4501953-1.0596008,0.0868835
			C39.6806641,43.1229858,39.4833984,43.0526733,39.0517883,42.9589844L39.0517883,42.9589844z"/>
		<path class="st3" d="M28.3262024,42.5624695c0,0,0.0135803,0.1230164,0.3690796,0.281311
			c0.3555298,0.1590881,0.5469055,0.4432983,0.6221313,0.5966187c0.0751648,0.1533813,0.2562866,0.382782,0.5502625,0.4560852
			c0,0-1.2543945,0.2616882-1.8158875-0.390625c0,0-0.4263-0.4697571,0.2607117-0.9433899"/>
		<path class="st5" d="M27.7929993,40.7597961c0,0-0.6968079,1.4676819,2.0438843,1.8309937
			c0,0,0.006897-0.1640015,0.1162109-0.3935242c0.109375-0.2304688,0.3486938-0.6962891,0.1231079-0.9980774
			c-0.2256165-0.3016968,0.1844788-0.1434937,0.2460938-0.5371094c0.0614929-0.3945007-0.0409851-0.3378906,0.1503906-0.593689
			c0,0-0.8614197,0.3125-1.1895142,0.6903992c-0.3280945,0.3789062,0.4443359,0.6659851-0.0136719,1.0800781
			c0,0-0.3828125-0.1386719-0.6083984-0.5527954C28.6615906,41.2860718,28.1283875,41.296875,27.7929993,40.7597961
			L27.7929993,40.7597961L27.7929993,40.7597961z M28.2807922,42.7440796c0,0-0.4649048,0.381897-0.0429993,0.7793274
			c0.3847961,0.3632812,0.9794922,0.3310547,1.2642212,0.3212891c0,0-0.170929-0.0976257-0.3213196-0.3222046
			c-0.1503906-0.2255859-0.155304-0.3779907-0.4717102-0.522522C28.3808899,42.8505859,28.3422852,42.8104858,28.2807922,42.7440796
			L28.2807922,42.7440796z M38.5068054,46.0292664c0,0,0.1230774,0.2861328,0.5009766,0.2217102
			c0.3789062-0.0654907,1.0010071-0.1758118,1.6026001,0.1307983c0,0,0.1025085-0.5116882-1.1054993-0.546814
			C39.5048828,45.8349609,38.7489624,45.8759766,38.5068054,46.0292664L38.5068054,46.0292664L38.5068054,46.0292664z
			 M38.1972961,45.4560852c0,0-0.499115-0.031311-1.1758118-0.265686c-0.6767883-0.235321-0.8544922-0.0361023-1.2373047-0.3232117
			c-0.382782-0.2861023-1.1552734-0.1074219-1.2987671-0.0869141c-0.1436157,0.0205078-0.553833,0-0.0411072-0.3320923
			c0,0-0.4100952-0.0107117-0.5673218-0.2148132c0,0-0.1846008,0.1787109-0.875,0.1123047c0,0,0.3076172,0.483429-0.929718,0.343811
			c0,0,0.3691101,0.4286804,0.8134155,0.5155945c0.444397,0.0869141,0.6299133,0.0585938,0.9161072-0.0253906
			c0,0-0.0820923,0.3729858,0.4920959,0.5166016c0.5743103,0.1434937,0.6904907,0.2557983,0.9844055,0.3739929
			c0,0,0.0410156-0.2412109-0.7246094-0.7987976c0,0,0.4101868-0.0205078,0.9981079,0.1230164
			C36.1395874,45.5380859,37.4726868,45.8808899,38.1972961,45.4560852L38.1972961,45.4560852L38.1972961,45.4560852z"/>
		<path class="st3" d="M34.9979858,44.1464844c0,0,0.5743103-0.0917969,2.0372009,0.4559937
			c1.4627991,0.5469055,2.0711975,0.4092102,2.2900085,0.3936157c0,0-0.8252258,0.4306946-2.1034851-0.1318054
			C36.0917664,44.367157,36.0166016,44.5556641,34.9979858,44.1464844L34.9979858,44.1464844L34.9979858,44.1464844z"/>
		<path class="st4" d="M31.914978,39.2704773c0,0-0.0614929-0.164093,0.2871094-0.2148132
			c0.3486938-0.0507812,4.905304-0.7011719,4.905304-0.7011719s0.2421875,0,0.2763977,0.1591797
			c0.0371094,0.171814-0.0274048,0.2998047-1.1278992,0.4287109C35.155304,39.0712891,32.25,39.4345703,32.25,39.4345703
			S31.9423828,39.4853821,31.914978,39.2704773L31.914978,39.2704773z M43.1552734,43.0087891
			c0,0,0.3349304-0.015625,0.4355164-0.1758118c0,0-0.1689148-0.2148132-0.4266968-0.3164062
			C43.164093,42.5155945,43.2167664,42.7440796,43.1552734,43.0087891L43.1552734,43.0087891z M44.155304,43.8193054
			c0,0,0.3339844-0.0117188,0.5282898,0.0800781c0,0,0.1278992-0.109375,0.4335938-0.1416016
			C45.1171875,43.757782,44.9159851,43.5565796,44.155304,43.8193054L44.155304,43.8193054z"/>
		<path class="st4" d="M36.3604126,39.0741882c0,0,0,0.6445923,0.656189,0.7402954
			c0.6366882,0.0927124,0.8554993-0.039093,1.0253906-0.375c0.0448914-0.0879211,0.2402039-0.7608032-0.0430298-0.8125
			c-0.11026-0.0195923-0.3075867-0.0087891-0.4491577,0.0516968c-0.219696,0.093811-0.422821,0.2041016-0.3506165,0.3135071
			c0.155304,0.2352905,0.1856079,0.289978,0.1278992,0.3075867c-0.1582031,0.0469055-0.273407-0.0917969-0.305603-0.1875
			c-0.0401001-0.1200867,0.0868835-0.1972656-0.3417969-0.1337891
			C36.5048828,39.0048828,36.3604126,38.9989929,36.3604126,39.0741882L36.3604126,39.0741882L36.3604126,39.0741882z"/>
		<path class="st4" d="M39.0897827,38.579071c0.3359985,0.0381165,0.3106079,0.7480164-0.0907898,1.0683899
			c-0.4316101,0.3457031-0.843689,0.2216187-0.843689,0.2216187c-0.2178345-0.0917969-0.1905212-0.0614929-0.0224915-0.3172913
			c0.1601868-0.2421875,0.2353516-0.5673828,0.1464844-0.7940063c-0.0292969-0.0732117,0.0498047-0.1318054,0.1611023-0.155304
			C38.4403992,38.602478,38.7440796,38.539093,39.0897827,38.579071L39.0897827,38.579071z"/>
		<path class="st4" d="M39.3817749,38.6416016c0,0,0.2393188,0.3007812-0.0594788,0.8554993
			c0,0-0.131897,0.1640015,0.1640015,0.1395874c0.296875-0.023407,0.9570923-0.3408203,0.8886719-0.7460938
			c0,0-0.0224915-0.0996094-0.195282-0.0888062c-0.1737976,0.0097046-0.032196-0.0957031,0.0409851-0.1163025
			c0.0722961-0.0205078,0.2979126-0.1035156-0.2870789-0.4804077c0,0-0.0967102-0.0878906-0.2099915-0.0517883
			c-0.0888062,0.0282898-0.4013062,0.1562805-0.4013062,0.3378906
			C39.3222961,38.5653992,39.3817749,38.6416016,39.3817749,38.6416016L39.3817749,38.6416016L39.3817749,38.6416016z"/>
		<path class="st4" d="M39.4003906,37.8534851c0,0,0.2549133,0.0645142,0.4141235,0.2012024
			c0,0,0.2420654-0.2637024,0.4471741-0.3203125C40.2616882,37.734375,39.8603821,37.5195007,39.4003906,37.8534851
			L39.4003906,37.8534851z M39.2382812,38.4130859c0,0,0-0.164093,0.4121094-0.3280945c0,0-0.2001953-0.1885071-0.4784851-0.1700134
			c-0.3184204,0.0205078-0.3828125,0.1358032-0.3828125,0.1358032S39.1356812,38.171875,39.2382812,38.4130859
			L39.2382812,38.4130859z M38.4062805,38.5458679c0,0,0.4862976-0.0849609,0.7021179-0.0575867
			c0,0-0.2393188-0.5361938-0.8857117-0.3534851C38.2226868,38.1347961,38.4541016,38.3974915,38.4062805,38.5458679
			L38.4062805,38.5458679L38.4062805,38.5458679z M37.4950867,38.6034851c0,0,0.0772095-0.2489929-0.3417969-0.3408203
			c0,0,0.1777954-0.1464844,0.5332031-0.0683594c0.3534851,0.078186,0.3154907,0.3105774,0.3124695,0.3408813
			C37.9989624,38.5351868,37.7226868,38.5253601,37.4950867,38.6034851L37.4950867,38.6034851L37.4950867,38.6034851z
			 M40.0224915,38.1308899c0,0,0.4667969,0.3348999,0.4647827,0.4345093
			c-0.0028687,0.0995789-0.0438843,0.234375,0.0791016,0.2226868c0.1231079-0.0116882,0.6289062-0.1192017,0.4902039-0.4541016
			C40.9179993,38,40.7782898,37.882782,40.5438843,37.8007812c-0.2342834-0.0820007-0.2938843,0.0292969-0.4941101,0.180603
			C40.0497742,37.9813843,39.9032898,38.070282,40.0224915,38.1308899L40.0224915,38.1308899z"/>
		<path class="st5" d="M25.9813843,36.5644836c0,0,1.1260071-0.9541016,1.7569275-0.8399048
			c0.6307678,0.1152039,0.3143616,0.0361023,1.0048828-0.0712891c0.6903992-0.1074219,1.4012756-0.1787109,1.688385-0.1434937
			c0,0-0.8338928-0.5987244-2.3241882-0.5879211c0,0-1.0522156,0.3632812-1.7773132,0.8437195
			c0,0-1.3945923-0.7773132-2.8363953-0.3114929C23.4936829,35.4541016,25.0591125,36.0214844,25.9813843,36.5644836
			L25.9813843,36.5644836L25.9813843,36.5644836z"/>
		<path class="st4" d="M30.8145142,35.4628906c-0.1275024-1.8662109,0.5877686-2.0332031,0.5877686-2.0332031
			s0.3370056,0.0018921,0.7022095,0.0575867c0,0-0.5653992,0.6719055-0.4150085,2.0058899
			c0,0,0.0595093,0.2148132-0.4190063,0.2148132C30.7992859,35.7079773,30.8145142,35.4628906,30.8145142,35.4628906
			L30.8145142,35.4628906z M20.6704102,34.5810852c0,0,1.8251953,0.4707031,2.2353821,0.6679077
			c0,0,0.0975952-0.3046875-0.7315063-0.5439148c0,0,2.0141907-0.0614929,4.1470032,0.907196
			c0,0,1.0278015-0.8808899,4.3363953-0.6083984c0,0,0.0064087-0.2919922,0.0293274-0.5166016
			c0,0-2.3242188-0.0683899-4.4570312-1.3642883C26.2299805,33.1221008,24.3208008,34.0625,20.6704102,34.5810852
			L20.6704102,34.5810852L20.6704102,34.5810852z M36.539093,38.2470703c0,0-0.1123047,0.1405945,0.0996094,0.1074219
			c0.257782-0.0400085,0.2080078,0.0087891,0.4921875-0.1826172c0,0,0.1737976-0.1855774,0.4989929-0.070282
			c0,0,0.273407,0.0897827,0.4950867-0.0176086c0.2227173-0.1073914,0.273407-0.0996094,0.3936157-0.0899048
			c0.1190796,0.0097961,0.1112976,0.0361938,0.2705078-0.0799866c0.1600952-0.117218,0.4364929-0.0274048,0.6112976-0.1729126
			c0.1737976-0.1465149,0.3926086-0.023407,0-0.304718c0,0-0.0820007-0.0819702-0.0751953-0.1512756
			c0,0,0.1503906,0.0439148,0.2695007,0.1512756c0.1200867,0.1074219,0.3183899,0.0742188,0.3525696,0.0567322
			c0,0,0.0205078-0.3506165,0.3691101-0.6729126c0.3486023-0.3231812,0.351593-0.3486023,0.1465149-0.3506165
			c-0.2051086-0.0028992-0.5498047-0.0820007-0.6659851,0c-0.1162415,0.0811157-1.1387329,0.7520142-1.733429,0.8643188
			S36.9219055,37.6151733,36.539093,38.2470703L36.539093,38.2470703z M37.9541016,38.2167969l0.1884766-0.031311
			c0,0,0.3174133,0.3926086,0.085907,0.3964844c-0.179718,0.0039062-0.1064148-0.0546875-0.1405945-0.1688843
			C38.0537109,38.2987976,37.9921875,38.2470703,37.9541016,38.2167969L37.9541016,38.2167969z"/>
		<path class="st5" d="M31.3017883,36.6972656c0,0-0.3461914-0.3544922-0.3824158-0.7636719
			c0,0-0.0091858-0.1065063,0.3413086-0.0957031c0.351593,0.0097656,0.3965149-0.0342102,0.4833984,0.1698914
			c0.0840149,0.1992188,0.3046875,0.6181946,0.3594055,0.6651001L31.3017883,36.6972656L31.3017883,36.6972656
			L31.3017883,36.6972656z"/>
		<path class="st4" d="M32.0517883,35.7655945c-0.0323181-0.2441101-0.0440063-0.4521179-0.039093-0.7090149
			c0.023407-1.0400085,0.195282-0.9482117,0.2645874-0.8182983l0.3554993,0.0068054c0,0-0.2597961-1.1737976-0.5653992-0.4883118
			c-0.2998047,0.6738892-0.2773743,1.1123047-0.2412109,1.6446228c0.0205078,0.3065796,0.0614929,0.4969788,0.0957336,0.6112671
			L32.0517883,35.7655945L32.0517883,35.7655945z"/>
		<path class="st5" d="M32.632782,35.9130859l-0.3056946-0.0068054c0,0-0.1640015,0.2451172-0.2752991-0.140686
			l-0.1298828,0.2470703C31.9219055,36.0126648,32.2998047,37.3788757,32.632782,35.9130859L32.632782,35.9130859z
			 M36.0712891,35.7685852c0,0,0.6864929,0.1044006-0.3662109,0.3553772c0,0,0.0517273,1.272522,1.2958984,0.3809204
			c0,0,0.7344055-0.4697266,1.2441101-0.6601868c0,0,0.2558899-0.0888062,0.2255859-0.2812195
			c0,0,0.0205078-0.2256165-0.2460938-0.1816711c0,0-0.2099915,0.0048828-0.3457031-0.0439453
			c0,0-0.1465149-0.1728516-0.2460938-0.1064758c-0.0986023,0.0664978-0.3309937,0.0273743-0.1503906,0.2481079
			c0.1817017,0.219696,0.2363892,0.1630859,0.3251953,0.0995789c0.0888977-0.0644836,0.4815063-0.219696,0.1192017,0.1044922
			c-0.3622742,0.3251953-0.6455078-0.1786804-0.7618103-0.2704773L36.0712891,35.7685852L36.0712891,35.7685852
			L36.0712891,35.7685852z"/>
		<path class="st4" d="M35.6903687,35.9667969c0,0-0.0907898-1.6162415,0.2188416-2.0322266
			c0.3104858-0.4159851,0.3739624-0.3340149,0.9022827,0c0.5282898,0.3340149,1.2118835,0.6953125,1.3213196,0.7362976
			c0.109375,0.0410156,0.264679,0.0820007,0.264679,0.375c0,0.2939148,0.0545959,0.3828125-0.4013977,0.0137024
			c-0.0674133-0.0546875-0.281311-0.2499695-0.4346008-0.2988892c-0.4082031-0.1297913,0.0976868,0.0917969,0.2431946,0.2988892
			c0.1239929,0.1766968,0.218689,0.1572266-0.0995789,0.2392273C37.3856812,35.3808899,36.2831726,35.7489624,35.6903687,35.9667969
			L35.6903687,35.9667969L35.6903687,35.9667969z M32.2001953,34.3368835c0,0-0.155304,0.8935852,0.0410156,1.4462891
			l3.3036804,0.0615234c0,0-0.0410156-0.6416016,0.0087891-1.5078125h-0.468689c0,0-0.0645142,0.719696-0.0048828,1.1630859
			l-0.0772095,0.0020142c0,0-0.0595093-0.6231079,0.0039062-1.1651001h-0.3867188c0,0-0.0643921,0.6651001-0.0137024,1.1699219
			h-0.0732117c0,0-0.0546875-0.5830078,0.0088196-1.1699219h-0.3828125c0,0-0.070282,0.6026001,0.0049133,1.1611023
			l-0.0909119-0.0009155c0,0-0.0780945-0.6113892,0.0039062-1.1601868h-0.4237976c0,0-0.1045227,0.5625-0.0039062,1.1669922H33.5625
			c0,0-0.0957336-0.5770874,0.0087891-1.1669922h-0.4237976c0,0-0.0996094,0.6376953-0.0137024,1.1669922h-0.0820007
			c0,0-0.0684204-0.6181946,0.023407-1.1669922h-0.3965149c0,0-0.1054993,0.539093-0.0184937,1.1669922h-0.0870056
			c0,0-0.063385-0.4677734,0.0186157-1.1669922H32.2001953L32.2001953,34.3368835L32.2001953,34.3368835z"/>
		<path class="st3" d="M36.8847961,35.7196655c0,0,0.3143921-0.0301819,0.2528687,0.1045227
			c-0.0614929,0.1358032-0.1737671,0.0498047-0.2216797,0.0195923
			C36.8681641,35.8144836,36.6454773,35.7372742,36.8847961,35.7196655L36.8847961,35.7196655L36.8847961,35.7196655z
			 M36.4032898,36.2187805c0,0-0.3554077,0.1298218-0.1229858,0.2450867
			c0.2323914,0.1152344,0.8885803-0.4296875,0.6630859-0.3935852C36.717804,36.1063843,36.4032898,36.2187805,36.4032898,36.2187805
			L36.4032898,36.2187805z M36.8476868,34.8096008c0,0-0.2392883-0.3028259,0.0643921-0.3711243
			c0.3046875-0.069397,0.3280945,0.4785156,0.3789062,0.8076172C37.3427734,35.5761719,36.9091797,34.9130554,36.8476868,34.8096008
			L36.8476868,34.8096008z"/>
		<path class="st4" d="M38.5596008,35.296875c0,0,0.0839844,0.6152039,0.6123047,0.7715149
			c0,0,0.305603,0.0760803,0.2421875-0.1934204c0,0-0.0528259-0.2245789-0.0957031-0.3193054
			c-0.0429993-0.0937805-0.2549133-0.1533813-0.2784119-0.1630859c-0.0223694-0.0107727-0.0497742-0.0751953,0.0957031-0.0274048
			c0.1464844,0.0479126,0.1690063,0.0527954,0.1573181-0.0498047c-0.0108337-0.1014709-0.0967102-0.0604858-0.2305298-0.125885
			c-0.0517883-0.0253906,0.0049438-0.0596008,0.0596313-0.0479126c0.0546875,0.0117188,0.1844788,0.0518188,0.1875-0.1601868
			c0,0,0.0282898-0.1170959-0.1328125-0.1259155c-0.1748047-0.0097961-0.1612244-0.0878906-0.1064758-0.0995789
			c0.0546875-0.0118103,0.2382812,0.1152039,0.289093-0.093811c0.0526733-0.2148132-0.2530212-0.0917969-0.2119141-0.2020874
			c0.0409851-0.1114197,0.2568054,0.0634155,0.2753906-0.0684204c0.0174866-0.1278992,0.1923218-0.1835938-0.1054993-0.2245789
			c-0.141571-0.0195007-0.0108032-0.0830383,0.1473999-0.0606079c0.1700134,0.0244751,0.2724915-0.1855164,0.3710938-0.2538757
			c0.0977173-0.0683289,0.6513977-0.3994141-0.0868835-0.2900391c-0.7383118,0.1094055-0.9551086,0.4678345-1.0028992,0.539093
			C38.6981812,34.1728821,38.4931946,34.5956726,38.5596008,35.296875L38.5596008,35.296875L38.5596008,35.296875z"/>
		<path class="st4" d="M39.539093,34.8026733c0,0-0.0479126,0.0878906-0.0411072,0.1739197
			c0.006897,0.0848999,0.1484985,0.1141968,0.4034119,0.1171875c0.2548828,0.0038757,0.4833984-0.0342102,0.4989929-0.1192017
			s0.0770874-0.1845703-0.1231079-0.1532898c-0.2001953,0.0302734-0.4530945,0.039093-0.5536804-0.0019836
			C39.6229858,34.7782898,39.5556946,34.7645874,39.539093,34.8026733L39.539093,34.8026733z M39.4501953,35.1943054
			c0,0-0.0068054,0.1943665,0.1893921,0.2206726c0.1954041,0.0254211,0.4394836,0.0245056,0.5411072,0.0039062
			c0.0780945-0.0145874,0.2176819-0.0429077,0.2285156-0.1582031c0.0116882-0.1141968,0.0438843-0.1991882-0.1983337-0.1396179
			c-0.2411804,0.0596008-0.5332031,0.0205078-0.5625,0.0137329C39.6190796,35.1278687,39.4550781,35.0791016,39.4501953,35.1943054
			L39.4501953,35.1943054L39.4501953,35.1943054z M39.4794922,35.6416016c0,0,0.0155945,0.0741882,0.1405945,0.0849915
			c0.1260071,0.0097046,0.4903259,0.0409851,0.7061157-0.0284119c0,0,0.0801086-0.0155945,0.0438843-0.157196
			c0,0-0.0028992-0.0908203-0.1972046-0.0537109c-0.1954041,0.0371094-0.4776001,0-0.5712891-0.0205078
			C39.507782,35.4462585,39.4315796,35.4687805,39.4794922,35.6416016L39.4794922,35.6416016L39.4794922,35.6416016z
			 M40.2792969,35.7743835c0.094696-0.0184937,0.1846008,0.006897,0.2167969,0.0732727
			c0.1220703,0.2490234-0.157196,0.1601257-0.3125,0.3447266c-0.1543274,0.1835938-0.1592102,0.1465149-0.3778992,0.0820007
			c-0.218811-0.0643921-0.3008118-0.3955078-0.3008118-0.3955078c-0.0243835-0.102478,0.070282-0.1112976,0.1836243-0.0975952
			C39.6885071,35.7812805,40.0507812,35.8183594,40.2792969,35.7743835L40.2792969,35.7743835L40.2792969,35.7743835z"/>
		<path class="st5" d="M48.9082031,35.7919617c0,0-0.0028992,0.1777344,0.1366882,0.3525085l-7.0830078-0.2030945
			c0,0,0.1034851-0.0643921,0.1298828-0.3398132L48.9082031,35.7919617L48.9082031,35.7919617L48.9082031,35.7919617z"/>
		<path class="st4" d="M40.2510071,36.2851868c0,0-0.1260071,0.0897827,0.04776,0.0995789
			c0.1748352,0.0107117,0.2666016,0.0439148,0.3213196-0.0497742c0.0546875-0.093811,0.2909851-0.0546875,0.1337891-0.1856079
			C40.5967102,36.0195007,40.4902039,36.0937805,40.2510071,36.2851868L40.2510071,36.2851868L40.2510071,36.2851868z
			 M39.5956726,34.5087585c0,0-0.0614929,0.179718,0.0664368,0.2148132
			c0.1278687,0.0362244,0.3466797,0.0752258,0.6358032,0.0292969c0,0,0.1454773,0.0108032,0.196167-0.1445007
			c0.0498047-0.1552734,0.0450134-0.0683899-0.3670959-0.1503906c0,0-0.1299133-0.0380859,0.2460022-0.039093
			c0,0,0.2099915,0.006897,0.2413025-0.0292969c0.032196-0.0361023,0.3105164-0.2558289-0.0497742-0.2420959
			c-0.3604126,0.0135803-0.1827087-0.0635376,0-0.0635376c0.1825562,0,0.2391663,0.0381165,0.2987976-0.0204773
			c0.0585938-0.0575867,0.0038757-0.0185852-0.093811-0.117218c-0.0975952-0.0985718-0.0292969-0.070282,0.0409851-0.015564
			c0.0704041,0.0546875,0.1143188,0.0721741,0.1934204,0.0018921c0.0800781-0.0703125-0.0614929-0.1719055,0-0.1600952
			c0.0614929,0.0116882,0.0917664,0.1289062,0.3241882,0.015564c0.2323914-0.1122742,0.546875-0.0536499,0.631897,0.0107422
			c0.085907,0.0634766,0.3280945,0.1454773,0.4754944-0.0057983c0.1465149-0.1504211-0.1748047-0.2735291-0.0379944-0.2940369
			c0.1366882-0.0204773,0.2324219,0.0283203,0.2871094-0.0819702c0.0546875-0.1094055-0.2119141-0.2149048,0.0448914-0.2832031
			c0.2558899-0.0693054,0.0410156-0.7881165-0.0479126-0.8545227c0,0-0.2870789,0.1689148-0.6015015,0.6777039
			c-0.3144836,0.5088196-0.4989624,0.8056946-0.9267883,0.6494141c-0.6162109-0.2246094-0.9315796,0.0986938-1.0263062,0.1573181
			c-0.1484985,0.0897827,0.3085022,0.1346741,0.0419006,0.1395874c-0.2666016,0.0048828-0.2666016,0.0282898-0.2938843,0.0693665
			c-0.0273132,0.0410156-0.0028992,0.0761414,0.0448914,0.0791016c0.0478821,0.0028992,0.1503906,0.1045227-0.0136108,0.0996094
			c-0.164093-0.0048828-0.280304-0.0302734-0.2324829,0.1435242c0,0,0.0029907,0.0380859,0.0986938,0.0488892
			c0.0956726,0.0097046,0.1297913,0.109314-0.0479126,0.109314C39.6103821,34.454071,39.5995789,34.4979858,39.5956726,34.5087585
			L39.5956726,34.5087585L39.5956726,34.5087585z"/>
		<path class="st4" d="M40.9823914,34.1542664c0,0,0.5899048-0.5546875,1.0829773-0.1787109
			c0.4932251,0.3760376,0.5401306,0.4326172,0.546936,0.4394531c0.0067749,0.0078735,0.0585938,0.0488892-0.0752258,0.1669922
			c-0.132782,0.1171875-0.0028992,0.1152649,0.1435852,0.0429993c0.1474304-0.0713196,0.1572266-0.0049133,0.2295227,0.0741882
			c0.0711975,0.0791016,0.1679077,0.1259766-0.0596008,0.1278992c-0.2276001,0.0029907-0.7167969,0-0.7167969,0
			s-0.3310852,0.0283813-0.164093-0.1073914c0.1679993-0.1357117,0.1435852-0.296814,0.0585938-0.3066101
			c-0.085907-0.0108032-0.0068054,0.0820007-0.0585938,0.1454773c-0.0508118,0.0644226-0.1669922,0.1230164-0.2832031,0.1201172
			c-0.1162109-0.0018921-0.2187195,0.0840149-0.0342102,0.1513977c0.1846008,0.0664062-0.0205078,0.1102905-0.1161804,0.1073914
			c-0.0957031-0.0028992-0.5576172,0.0361328-0.0888367,0.0918274c0.4677429,0.0566101-0.0419617,0.0429688,0.3007202,0.2392883
			c0.3789978,0.2157898,0.1054993,0.6766968-0.0379944,0.7176819c0,0-0.156311,0.085022,0.0419922,0.061615
			c0.1982117-0.0234985,0.3066101-0.0517883,0.1669006,0.055603c-0.1395874,0.1074219-0.4198914,0.4657898-0.8094788,0.1923828
			c0,0-0.1778259-0.0849609,0.1395874-0.0996094c0.3183899-0.015564-0.2597046-0.0839844-0.3554077-0.1483765
			c-0.0957031-0.0645142-0.4609985-0.4375-0.2324829-0.3916016c0.2294617,0.0458069,0.1474915-0.0869751,0.0108032-0.1358032
			c-0.1367188-0.0487976-0.1641235-0.2578125-0.0108032-0.2119141c0.1542969,0.045929,0.3349915,0.1318359,0.4579773,0.1260071
			c0.1231079-0.0058899,0.0888977-0.0575867-0.1737671-0.1386719c-0.2637329-0.0820007-0.3730164-0.0947266-0.3115234-0.3174133
			c0.0614929-0.2225952,0.3486023,0.0869141,0.280304-0.0791016c-0.0683899-0.1670227-0.3173828-0.0848999-0.1846008-0.304718
			c0.1338196-0.219696,0.164093-0.125885,0.2255859-0.0975952c0.0614929,0.0283203,0.1601257,0.0078125-0.0137024-0.1221008
			C40.8319702,34.2929688,40.9512024,34.1815796,40.9823914,34.1542664L40.9823914,34.1542664L40.9823914,34.1542664z"/>
		<path class="st3" d="M41.4062805,34.3075867c0,0-0.0029907-0.0742188,0.1025085-0.0614929
			c0.1064148,0.0136719,0.0791016-0.0381165,0.1094055-0.0537109c0.0302124-0.014679,0.2958984,0.079071,0.0477905,0.1689148
			C41.5741882,34.3945007,41.4306946,34.3710632,41.4062805,34.3075867L41.4062805,34.3075867L41.4062805,34.3075867z"/>
		<path class="st4" d="M41.9707031,34.9374695c0,0-0.1992188,0.101593-0.0195312,0.3105164
			c0.1543274,0.1777954,0.1533203,0.234375,0.1405945,0.3535767c-0.0126648,0.118103,6.8164368,0.1894226,6.8164368,0.1894226
			s-0.0117188-0.4384766,0.2802734-0.6854858C49.1884766,35.1063843,45.4570007,35.0185852,41.9707031,34.9374695
			L41.9707031,34.9374695L41.9707031,34.9374695z"/>
		<path class="st5" d="M49.0243835,35.6708984c0,0,0.0282898-0.3701172,0.2324219-0.492218
			c0.1132812-0.0673828,0.2617798-0.0283203,0.327179,0.2695007c0.0918274,0.4248047-0.2676086,0.7861938-0.4346008,0.625
			C48.9902039,35.9198914,49.0243835,35.6708984,49.0243835,35.6708984L49.0243835,35.6708984L49.0243835,35.6708984z"/>
		<path class="st6" d="M40.9179993,33.4277039c0,0,0.5126953,0.2861938,0.7655945-0.1025391
			c0.2528687-0.3887024,0.4237976-0.4501953,0.2323914-0.8241882c-0.1913757-0.3731079,0.0058899-0.5469055,0.1493835-0.7001953
			c0.1446228-0.1532898,0.2676086-0.1278992,0.2881165-0.7217102c0.0205078-0.593689,0.4306946-0.7929688,0.6152954-0.9769897
			c0.1845093-0.1846008,0.6493835-0.4659119-0.0546875-0.5834961c-0.7041016-0.1177063-2.0986938-0.4810181-2.4609985-1.0230103
			c-0.3623047-0.542511-0.5263062-0.2201843-0.5332031-0.199707c-0.0068054,0.0205078-0.1229858,0.4194336,0.2392883,1.1411133
			c0.3623047,0.7211914,0.6698914,1.1850891,1.0184937,1.4190063c0.3486938,0.2337952,0.6631165,0.3607788,0.4854126,0.8421936
			C41.4853821,32.1786804,41.1776733,33.039093,40.9179993,33.4277039L40.9179993,33.4277039z M43.8407898,34.8603821
			l-0.6737976-0.0264282c0,0-0.2461243-0.3446655-0.7245789-0.7284851c0,0-0.13974-0.0615845,0.1298523-0.2763977
			c0.2705383-0.2147827,0.3486023-0.4453125,0.359314-0.5498047c0.0097961-0.1054993-0.0174866-0.2685852,0.085022-0.1435852
			c0.102478,0.1260071,0.7998047,0.7549133,0.8993835,0.5683899c0.0986023-0.1875,0.1162109-0.2743835,0.132782-0.3300781
			c0.0176086-0.0566101,0.0410156-0.2304077,0.1407166-0.0488281c0.0986023,0.1816406,0.1669006,0.1347961,0.1708984,0.6064148
			c0,0,0.0166016,0.4658813,0.0888062,0.6337891C44.4481812,34.5653687,43.5674133,34.2831726,43.8407898,34.8603821
			L43.8407898,34.8603821L43.8407898,34.8603821z M41.1981812,37.2675781c0,0,0.4551086-0.3866882,0.5235291-0.5606079
			c0,0,1.2303772,0.8711243,1.1552734,0.0713196c0,0,0.0028992-0.2148132,0.0371094-0.4188843
			c0,0,0.4453125,0.0428772,0.5126953-0.3115234l-1.1484985-0.0341797c0,0-0.1191101-0.0254211-0.2969055,0.1659851
			c-0.1776733,0.1923828-0.5438843,0.4023132-0.8857117,0.2187195c0,0-0.1425781-0.1240234-0.2880859-0.0185242
			c-0.1455078,0.1044922-0.1532898,0.1347046-0.0332031,0.2479858
			C40.8945007,36.7402039,41.1503906,37.0858765,41.1981812,37.2675781L41.1981812,37.2675781L41.1981812,37.2675781z"/>
		<path class="st5" d="M42.8114929,31.8935852c0,0,0.0888977,1.2333984,0.9911804,1.6727905
			c0,0,0.2051086-0.4804993,0.1231079-0.9559937c0,0,0.2939148,0.0252991,0.3760071,0.1582031
			c0,0,0.0135803-0.3583984-0.4101868-0.4883118c-0.4237976-0.1308899-0.218689-0.9346008-0.0684204-1.0263977
			c0.1504211-0.0917969,0.1016235-0.2518921,0-0.3969727c-0.1025085-0.1450195-0.1297913-0.3652344,0.2255859-0.2729187
			c0.3555298,0.0917969,0.2998047-0.0971985,0.0889282-0.2714844c-0.2119141-0.1738281-0.2051086-0.3887024,0.0956726-0.3887024
			c0.2998047,0,0.7998047-0.2915039,0.4980164-0.3837891c-0.2998047-0.0918274-0.3963928-0.1889343,0.0147095-0.3066406
			c0.4101868-0.1181641,0.6083984-0.2661133,0.2998047-0.3017883c-0.3076172-0.0361023-0.5127258-0.1434937-0.2119141-0.1947937
			c0.3008118-0.0507812-0.0546875-0.3579102-0.4032898-0.3730164c-0.3486938-0.015686-1.1005859,0.1279297-0.5058899-0.348175
			c0.594696-0.4756165-0.8545227-0.1279297-0.2598267-0.4399109c0.5947876-0.3120117-0.1981812-0.1737976-0.3065796-0.1791992
			c-0.109436-0.0048828-0.1083984,0-0.0684204-0.1586914c0.0401306-0.1587219-0.0829773-0.230011-0.2538757-0.1328125
			c-0.170929,0.0971069-0.170929,0.0971069-0.1640015-0.1231079c0.0068054-0.219696-0.2051086-0.0560913-0.3340149,0
			c-0.1299133,0.0567322-0.4589844,0.3018188-0.5878906,0.1690063c-0.1299133-0.132782-0.2051086-0.2709961-0.608429-0.0253906
			c-0.4032898,0.2456055-0.3075867,0.0253906-0.3007812-0.0820007c0.0069275-0.1075134,0.157196-0.5317993-0.3965149-0.0766907
			c-0.5536804,0.4555969-0.102478-0.4912415-0.539978-0.1689148c-0.4375,0.3222046-0.4854126,0.3789062-0.5536804,0.2352905
			c-0.0684204-0.1430664-0.1514282-0.2606812-0.6328125,0.0458984c-0.4815063,0.3070984-0.1260071-0.184082-0.0576172-0.2915039
			c0.0682983-0.1073914,0.273407-0.8031921-0.1503906-0.2607117c0,0-0.2050781,0.3784485-0.6630859-0.296875
			c0,0-0.4854126,0.6708984-0.6083984,0.3739929c-0.1231079-0.2973938-0.2460938-0.3276062-0.4033203-0.1333008
			c-0.1572876,0.1943054-0.0411072-0.0102844-0.109375-0.1742859c-0.0684204-0.1636047-0.109436-0.4653015-0.9160461,0.1229858
			c-0.8066711,0.5884094,0.2802429,0.1587219-0.3349609,0.4248047c-0.6152039,0.265686-2.0986023,1.105011-0.7383118,0.9107056
			c1.3603821-0.1947937-0.6631165,0.5317078-0.1914062,0.6650085c0.4717102,0.1328125,0.3212891,0.5419922,2.0917969,0.0561829
			c1.7705078-0.4858704,1.483429-0.0766907,2.3858032-0.4653931c0.9023132-0.3890991-0.2050781,0.1329041,1.0048218,0.1069946
			c1.2099915-0.0253906,0.2050781,0.0053101,0.4374695,0.2557983c0.2325134,0.2510071,1.2579041,0.8442993,2.2139282,0.9414062
			c0.9569702,0.0976868,1.1894836-0.2606812,0.9159851,0.1539001c-0.273407,0.4140015-0.3691101,0.5726929-0.5332031,0.7163086
			c-0.1640015,0.1430054-0.6152039,0.4707031-0.6221008,1.043396c-0.0067749,0.5732727-0.7518921,0.6651001-0.4775085,1.2998047
			C42.1620789,32.5282898,42.585907,32.1190796,42.8114929,31.8935852L42.8114929,31.8935852L42.8114929,31.8935852z"/>
		<path class="st5" d="M44.3856812,33.2724609c0,0-0.218689-0.1533813-0.2138062-0.4267883
			c0,0,0.1543274,0.0273132,0.2138062,0.1270142c0,0,0.5507812-0.625-0.1073914-0.8497009
			c-0.6582031-0.2254944-0.3301086-0.8222046-0.1073914-0.8251038c0.2235718-0.0039978,0.2626953-0.0654907,0.0741882-0.3139954
			c-0.1875-0.2490234-0.1737976-0.2593079,0.1991882-0.3241882c0.374115-0.0650024,0.3233032-0.1431274,0.1573181-0.2354126
			c-0.1661072-0.0917969-0.2929993-0.2421875-0.2929993-0.2421875s1.0565796-0.4604187,0.7148132-0.671814
			c-0.3418274-0.2114868,0-0.1567993,0.3056641-0.375c0.304718-0.2182922,0.3457031-0.2593079,0.3916321-0.3447876
			c0,0-0.3018188,0.0307922-0.5244141-0.0136414c0,0,0.2637024-0.129364,0-0.3442688
			c-0.2637024-0.215332-0.3731079-0.4096985-0.7929993-0.3105164c-0.4189148,0.0986023-0.282196-0.0409851-0.118103-0.2148743
			c0.1640015-0.1743164,0.0869141-0.2729187-0.210022-0.3174133c0,0,0.0371399-0.1772156,0.2598267-0.3988953
			c0,0-0.569397,0.0409851-0.7608032-0.0581055c0,0,0.2276001-0.1567078,0.2460938-0.344696
			c0,0-0.3143921,0.1025085-0.7108765,0.0648804c0,0,0.2323914-0.2010803,0.2323914-0.3783875
			c0,0-0.6875305,0.1533203-1.0068054,0.3955078c0,0-0.0683899-0.0137024-0.1231079-0.0888062
			c-0.0546875-0.0747986-0.0957031-0.1499939-0.8563843,0.0921936c0,0,0.0858765-0.3378906,0.2684937-0.4740906
			c0.1825867-0.1362,0.155304-0.4092102-1.0301819,0.3310852c0,0-0.1592102-0.0957031-0.2911072-0.4506836
			c0,0-0.2558289,0.3618164-0.4511108,0.484375c0,0-0.164093,0.0688171-0.1436157-0.1616821
			c0.0205078-0.2303772-0.1161804-0.0658875-0.2391663,0c-0.1231079,0.0664062-0.2051086,0.230011-0.1436157-0.235321
			c0.0614929-0.4657898-0.164093-0.5629883-0.164093-0.5629883s-0.3691101,0.5220032-0.5810242,0.578125
			c0,0-0.389679-0.378418-0.5263672-0.629425c-0.1367188-0.2504883-0.1367188-0.3426819-0.273407,0.0923157
			c-0.1366882,0.4346008-0.3076172,0.4707031-0.3076172,0.4707031s-0.2325134-0.199707-0.2597961-0.3070984
			c0,0-0.0409851,0.1176758-0.1162109,0.1688843c0,0-0.2051086-0.2406921-0.1983032-0.5883179
			c0,0-1.2713928,0.7006226-1.4286804,1.1254272c0,0-1.203125-0.0716858-1.7020874,0.0205994
			c0,0,0.1229858-0.3887024,0.4374695-0.5830994c0,0-0.3144836-0.0361023-0.3280945-0.3583984
			c0,0,0.2528992,0.0361938,0.4100952-0.0047913c0.1572266-0.0411072-0.218689-0.4966125,0.1777039-0.506897
			c0.3964844-0.0097046,0.6495056,0.1894836,0.4717102-0.3374023c-0.1777039-0.5267944-0.0957031-0.5267944-0.0957031-0.5267944
			s0.6905212,0.4090881,0.7997742,0.3065796c0.109436-0.1020203-0.0887756-0.3222961,0.5264282-0.219696
			c0.6152039,0.1025085,0.4443054-0.2504883,0.6835938-0.2661133c0.2391968-0.0151978,0.3690796,0.1533203,0.2187195-0.9618835
			c-0.1504211-1.1152954,0.7451782,0.5527039,0.1367798-1.1304016c0,0-0.1542969-0.5093079-0.5196228-0.726593
			c0,0-0.0819702,0.3681641-0.4960632,0.0434875c-0.4131165-0.3251953-1.226532-0.4399719-0.8847046-0.6958008
			c0.3417969-0.2558899,0.5018921-0.5986938,0.4032898-0.8135071c0,0-0.4032898,0.4214172-1.1044922,0.1201172
			c-0.5537109-0.2378235-0.6698914,0.199707-1.2362976,0.0717773c0,0,0.0097046-0.1459656,0.4881897-0.5220032
			c0.4786072-0.3759766-0.2762756,0.1255188-0.5742188,0.191925c-0.2967529,0.0664062-0.382782,0.0126953,0.2461243-0.473114
			c0.6289062-0.4863892,1.8731079-1.3457031,1.702179-2.0517883c0,0,0.2939148,0.3735962,1.0664062,0.1026001
			c0.7724304-0.2710266,1.3467407-0.3686829,1.5791016-0.7676086c0.2324219-0.3988953,0.8407898-0.8031921,0.9980164-0.8901978
			c0.1572876-0.0869141,0.3692017-0.148407,0.1298828,0.230011c-0.2392883,0.3788757-0.6288757,1.0287781-1.695282,1.4682922
			c-1.0664062,0.4403992-1.476593,0.7626953-1.6680298,0.9927063c-0.1913757,0.2303772-1.1620789,0.7470093-0.5332031,0.6600952
			c0.6289368-0.0869141,1.7227173,0.0151978,1.210022-0.1333008c-0.5126953-0.1479187-1.0937805,0.0922852-0.6220703-0.3374023
			c0.4716797-0.4296875,0.5536804-0.5731812,1.2372742-0.8598938c0.6835938-0.2865906,1.4424133-0.9414062,1.367218-0.245575
			c-0.0752258,0.6957703-1.3467407,1.4379578-1.6611023,1.6630859c-0.3145142,0.2250977-0.1983337,0.1889954-0.1914062,0.2812805
			c0.0068054,0.0917969-0.0479126,0.2812195-0.1777954,0.368103c-0.1299133,0.0870056-0.0888062,0.1846008-0.054718,0.3789062
			c0.0342102,0.1943665-0.0340881,0.2709961,0.0615845,0.3017883c0.0957336,0.030304,0.1914368,0.0458984,0.2187195,0.184082
			c0.0274048,0.1382446,0.0996094,0.1562195,0.2842102,0.140625c0.1835938-0.0151062,0.2997742,0.0025024,0.3135071,0.1098938
			c0.0135803,0.1074219,0.1884766,0.2533875,0.2089844-0.0737915c0.0204773-0.3276062,0.1396179-0.3916016-0.1954041-0.2406921
			c-0.3348999,0.1509094-0.406189,0.0971985-0.3994141-0.0585938c0.0069275-0.1562195-0.0301819-0.1206055-0.1708679-0.1333008
			c-0.1396179-0.0127258-0.1884155-0.2099304,0.0615845-0.340332c0.25-0.1303711,0.2461243,0.0024109,0.5575867-0.2558899
			c0.3105164-0.2582703,0.3105164-0.3295898,0.358429-0.4501648c0.0477905-0.1201172-0.444397,0.3505859-0.679718,0.4580688
			c-0.2362976,0.1073914-0.1747742-0.0742798-0.1337891-0.342804c0.0410156-0.2685852,0.6289062-0.6191711,0.8994141-0.6239929
			c0.2694702-0.0054016,0.8778687,0.1533203,0.6151733,0.5213928c-0.2635803,0.3687134-1.0086975,0.8061829-0.6875,0.8394165
			c0.3213196,0.0332031,0.3731079-0.0923157,0.5577087,0.0712891c0.1845093,0.1640015,0.0135803,0.4966125-0.0722961,0.6727905
			c-0.0849915,0.1768188-0.2627258,0.3994141-0.3418274,0.4405212c0,0-0.3378601-0.6040344-0.3280945-0.1255188
			c0.0107117,0.4779968-0.0712891,0.6499023,0,0.667511c0.0722351,0.0180054,0.4482117,0.2684937,0.5674133,0.2738953
			c0.1201172,0.0049133-0.6495056,0.3608093-0.328186,0.3838196c0.3212891,0.0228882,0.8310852-0.1407166,1.0087891-0.4736938
			c0,0-0.6533203-0.1582031-0.9160156-0.4038086c0,0,0.7617188-0.1791992,0.5498047-0.9135132
			c0,0,0.7587891,0.2075195,0.4306946,0.5502014c-0.328186,0.342804-0.5263977,0.2915955-0.2421875,0.3887024
			c0.2832031,0.097168,0.4237976,0.1791992,0.4237976,0.1791992s0.194397,0.0971985,0.0811157,0.2558899
			c-0.1123047,0.1586914-0.1152954,0.3988953-0.0196228,0.3940125c0.0957031-0.0053101,0.4170227-0.1538086,0.1464844-0.3173828
			c-0.2694702-0.1635132,0.3076172-0.1357117,0.0615234-0.2739258c-0.2460022-0.1376953-0.3105164-0.1713867-0.375885-0.237793
			c-0.0645142-0.0664062,3.0897827-1.9160156,1.4970093-1.2226257c0,0,0.3320618-0.7187805,0.796875-0.7216797
			c0.4649048-0.0025024,0.4989929,0.3656921,0.2353821,0.6445007c-0.2626648,0.2792969-0.4335938,0.7138977-1.0527649,0.8164062
			c0,0,0.8847961,0.4331055-0.1601257,1.1405945c0,0-0.2265625,0.1074829-0.1445923,0.1860962
			c0.0821228,0.0785828,0.7012024-0.2729797,0.7881165-0.4707031c0.0868835-0.1977844,0.2187805-0.3511047,0.4560852-0.4673157
			c0.2362976-0.1156921,1.4032898-0.910675,1.7539062-1.5106812c0.351593-0.6006165,0.4472961-0.6210938,1.1308899-1.1699829
			c0.6825867-0.5493164,0.5644226-0.4403992,0.6513062-0.5732117s0.1231079-0.3511047,0.4375-0.5288086
			c0.3144836-0.1773071,1.5361938-0.8559875,1.9179993-1.1322937c0.382782-0.2764282,1.1670227-0.7841797,1.5039062-1.2144165
			c0.3378906-0.4296875,1.2460938-0.9784851,1.4725952-0.8764648c0.2266083,0.1020508-0.023407,0.4228516-0.5566101,0.8285828
			c-0.5332031,0.406311-1.8544922,1.4736938-2.0683899,1.6372986c-0.2148132,0.1640015-1.3348999,0.9824219-1.7547913,1.0371094
			c-0.4190063,0.0546875-0.3731079,0.2011108-0.624115,0.4740906c-0.250885,0.2728882-0.8300171,0.8457031-1.0252991,1.0028992
			c-0.1962891,0.1567993-0.6611938,0.4776001-0.6884766,0.7026978c-0.0274353,0.2250061,0.0819702,0.2518921-0.2910156,0.6034851
			c-0.3740845,0.3515015-1.467804,1.1459961-1.8642883,1.2724304c0,0,0.702179,0.2319946,0.2821655,0.7060852
			C41.0048828,23.4081726,41.032196,23.3397827,41,23.370575c0,0,1.0653687-0.1566772,0.3104858,0.6719055
			c0,0-0.1463928,0.2388,0.1915283-0.0102844c0.3602905-0.2661133,0.2049866-0.6307983,0.1639709-0.6820984
			c0,0,0.5645142-0.3516235,1.2167969-0.3618164c0.6513977-0.0102844,0.6289062-0.054718,0.0449219-0.2217102
			c0,0,0.4150696-0.5048828,0.765686-0.2558899c0.3515015,0.249115,0.2373047,0.3926086-0.131897,0.5904236
			c-0.3690796,0.1976929-0.9160156,0.2792664-1.3212891,0.504364c0,0,0.7695923,0.1504211,1.1845703-0.1636047
			c0.4150085-0.3134766,0.4326172-0.1567078,0.4873047-0.1020813c0.0546875,0.0541992,0.1006165,0.1567993-0.0820007,0.4194946
			c-0.1825867,0.2626953-0.2001953,0.2763062-0.1914062,0.3340149c0.0097046,0.0581055-0.0136719,0.2391968-0.3866882,0.300293
			c-0.3740845,0.0614929-0.5429993,0.2182007-0.4151001,0.3955078c0.1270142,0.1776733,0.131897,0.6175842-0.1864929,0.5765991
			c-0.3192749-0.0410156-0.2323914-0.2934265-0.3554993-0.3921204c-0.1229858-0.0990906-0.2969055-0.2523804-0.8525085,0.0376282
			c-0.5556946,0.2895813-0.601593-0.054718-0.5741882-0.235321c0,0-0.3604126,0.3135071-0.6611938,0.0238953
			c-0.3007202-0.2900085-0.0273132-0.4028015,0.1454773-0.5493164c0.1739197-0.1464844,0.8799133-0.4535522,0.4561157-0.3988647
			c-0.4237976,0.0541992-1.0566101,0.0814819-1.2030945-0.245636c-0.1455078-0.3276672,0.3143921-0.2900696,0.3876953-0.2592773
			c0.0732117,0.0307312,0.3739929,0.2729187,0.382782-0.0444946c0.0088196-0.3173218,0.4785156-0.3515015,0.3182983-0.4160156
			c-0.1590881-0.0648804-0.382782,0.136322-0.4462891,0.2149353c0,0-0.3280945-0.4571228-0.8563843-0.3072205
			c-0.5283203,0.1503906,0.1688843,0.0888977,0.3095703,0.112793c0.1416321,0.0239868,0.0595093,0.2867126-0.4150696,0.7129211
			c-0.4736023,0.4263-0.2597046,0.2963867,0.0917969,0.2963867c0.3505859,0,1.2118835,0.003418,0.7109985,0.4130859
			c-0.5020142,0.4092102-0.7022095,0.6138-0.9619141,0.5420227c-0.2597961-0.0713196,0.032196-0.242218,0.1455078-0.3135071
			c0.1141968-0.0718079,0.1825867-0.1981812-0.0635071-0.105896c-0.2460938,0.0921936-0.3330078,0.109314-0.5282898-0.2388
			c-0.1962891-0.3476868-0.1142883-0.2456055-0.0322876-0.4741211c0.0820923-0.2284851,0.273468-0.4706726,0.0458984-0.3852844
			c-0.2285156,0.0849915-0.2050171,0.0917969-0.1875-0.1708984c0.0185852-0.2626953-0.2597046-0.3203125-0.2597046-0.3203125
			s0.1092834,0.2626953,0.0096741,0.429718c-0.1004639,0.1669922-0.1044922,0.2250977,0.0585938,0.2694702
			c0.1641235,0.0440063,0.319397,0.1841125,0.0957336,0.3374329c-0.2225952,0.1532898-0.1953125,0.1333008-0.054718,0.2250671
			c0.1416016,0.0923157,0.3467102,0.1978149,0.1280212,0.4126282c-0.2188416,0.2148743-0.0362244,0.1503906,0.0731812,0.1503906
			s0.3565063,0.0917969,0.3604126,0.3037109c0.0038757,0.2113953-0.0147095,0.262207,0.3407898,0.0645142
			c0.3554993-0.1978149,1.0663757-0.1739197,1.0575867,0.102478s-0.0907898,0.3442993,0.2871094,0.1088867
			c0.3778992-0.2348938,0.5469055,0.222229,0.8067017,0c0.2596741-0.2216797,0.4237976-0.4364929,0.7246094-0.0575867
			c0.3006897,0.3783875,0.2070007,0.493103-0.1592102,0.7601929c-0.367218,0.2676086,0.1777039,0.061615,0.4551086-0.0815125
			c0.2782898-0.1435852,1.0576172-0.2388,1.5038757-0.0409851C44.3818054,26.0443726,44.5087891,26,44.8368835,25.8638
			c0.3280945-0.1367188,0.4971008-0.1670227,0.9931946,0.1634827c0.4970093,0.3310852,0.8847046,0.3920898,1.1445312,0.3852844
			c0,0-0.5517273,0.215332-1.1719055,0.2559204c-0.6191101,0.0409851-0.929718,0.157196-1.0516968,0.2523804
			c0,0,0.3719788,0.2250977,0.445282,0.5015259c0,0,0.406189-0.054718,0.6073914,0.0272827
			c0,0-0.1054993,0.2929993,0.1455078,0.4502258c0.2510071,0.1566772,0.4237976,0.2147827,0.2373047,0.4296875
			c-0.1875,0.2147827,0.2871094,0.1224976,0.0176086,0.4263c-0.2686157,0.3036804-0.3418274,0.4570007-0.3506165,0.7026062
			c-0.0088196,0.245575,0.0596008,0.2831726-0.1825867,0.3070984c-0.2412109,0.0239868,0.0409851,0.2929688-0.0684204,0.6137695
			c-0.109314,0.3208008-0.7832031,0.2866211-0.7557983,1.1460266c0,0,0.1864929-0.4199219,0.5878906-0.7881165
			c0.4004211-0.3681641,0.4140015-0.4022827,0.4052124-0.6239929c-0.0086975-0.2217102-0.0273132-0.1704102,0.1865845-0.3378906
			c0.2148132-0.1670227-0.0956726-0.3237,0.1191406-0.5625c0.2138977-0.2388,0.0273743-0.1908875,0.2773743-0.433136
			c0.250885-0.2421875-0.2187805-0.2729797,0.0371094-0.5219727c0.2547913-0.2489929-0.6153259-0.532196-0.3652954-0.6923828
			c0.2509766-0.160614,0.6835938-0.3818054-0.7744141-0.3583984c0,0,0.3506165-0.5796204,1.5811157-0.4536133
			c0,0-0.3233032,0.2284851-0.3506165,0.4536133c0,0,0.1416016,0.0717773,0.2275085,0.0922852
			c0,0-0.0469055,0.1650696-0.282196,0.3648071c0,0,0.6513977,0.3651733,0.7568054,0.5799866
			c0,0-0.3965149,0.1225891-0.4970093,0.2969055c0,0,0.1727905,0.1977844,0.2323914,0.4535828
			c0,0-0.4423828-0.0546875-0.5010071,0.2759094c-0.0596008,0.3310852-0.1914062,0.1060181-0.1914062,0.300293
			c0,0.1943054,0.0137329,0.2730103-0.141571,0.3037109c-0.1543274,0.0308228-0.0273132,0.1943054,0,0.3031921
			c0.0272827,0.1094055,0.0780945,0.358429,0.0546875,0.4370117c0,0-0.2226868,0.0029907-0.3280945,0.0336914
			c0,0,0.0682983,0.4746094-0.1954041,0.5419922c-0.2645874,0.0684204,0.1407166,0.1641235-0.1416016,0.2159119
			c-0.282196,0.0506897-0.2460022,0.0673218-0.5927124,0.6884155c0,0,0.296814-0.1669922,0.6015015-0.368103
			c0.3057251-0.2012024-0.0223694-0.1397095,0.4833984-0.6376953c0.5059204-0.4981079,0.4151001-0.5357361,0.374115-0.7881165
			c-0.0411072-0.2524719-0.0507812-0.4570007,0.1318054-0.6958008s0.2411804-0.5117188,0.8887024-0.4776001
			c0,0-0.1914062-0.430603-0.4287109-0.5424194c0,0,0.3095093-0.2148743,0.6385803-0.2451782
			c0,0-0.2880554-0.344696-0.8749695-0.6786804c0,0,0.4823914-0.4165039,0.5966797-0.6142273
			c0,0-0.2235718,0.0342102-0.4013977-0.006897c0,0,0.0840149-0.1987,0.5196228-0.4842834
			c0,0,0.2323914,0.2250977,0.2236023,0.4603882c0,0,0.7471008-0.429718,1.1708984-0.3818054
			c0,0,0.2147827,0.5390015-0.8242188,1.5483093c0,0,0.6426086,0.0614929,0.9150085,0.0238953
			c0,0-0.1542969,0.4981079-0.9335938,0.7915039c-0.7792969,0.2934875,0.1679688,0.6362915-0.6289062,0.5766907
			C46.6054993,29.5145874,46.851593,29.7895813,46.875,30.195282c0.0224915,0.4058228,0.0498047,0.8222961,0.0312805,0.9346008
			c0,0-0.6376648-0.2079773-0.6240845,0.4092102c0.0136719,0.6171875-0.3280945,0.7469788-0.3965149,0.8046875
			c0,0-0.1854858-0.1651001-0.4647827-0.2626953C45.4198608,32.0820007,45.0243835,32.8329773,44.3856812,33.2724609
			L44.3856812,33.2724609L44.3856812,33.2724609z"/>
		<path class="st6" d="M43.4736023,25.5336609c0,0,0.2187805-0.035675,0.5878906,0.1943054
			c0.3692017,0.230011,0.7314758-0.245575,0.3212891-0.3685913c-0.4100952-0.1225891,0.0068054-0.2655945,0.3760071,0.0307312
			c0.3691101,0.296875,0.5126953,0.1484985,0.6493835,0.0463562c0.1367188-0.102478,0.3008118-0.1586609,0.0479126-0.332489
			c-0.2530212-0.1742859,0.170929-0.0922852,0.3623047,0.0307922c0.1914062,0.1225281,0.1162109,0.2505188,0.0888062,0.2866211
			c-0.0273132,0.0355835-0.047821,0.4345703,0.328186,0.0610046c0.3759155-0.3729858,0.5605164-0.7466125,0.5537109-0.9310913
			c0,0,0.2049866,0.1278687,0.2323914,0.3632812c0.0272827,0.2352905,0.3143921-0.1279907,0.4100952-0.2558899
			s0.2597961-0.4507141,0.2393188-0.6933899c0,0,0.2528992,0.3910828,0.6288757,0
			c0.3760071-0.3911133,0.2119141-0.1455078,0.6631165-0.2632141c0.4512024-0.1175842,1.0184937-0.4501038,1.3262177-0.8237
			c0.3075867-0.3735046,0.3280945-0.1229858,0.7245941-0.2148132c0.3964691-0.0922852,1.1962738-0.644989,1.2714844-0.9467773
			c0.0752106-0.3018188,0.0614929-0.4858093-0.0547028-0.3838196c-0.1161804,0.1025085-0.0684052,0.0205078-0.2392883-0.0869141
			c-0.1708984-0.1073914-0.4238129,0.1382141-0.4238129,0.1382141s0.2529144,0.1943054,0.0614929,0.2763062
			c-0.191391,0.081604-0.3759918,0.3530884-0.7382812,0.2505188c-0.3623199-0.1025391-0.7383118,0.3325806-0.7383118,0.3325806
			s0.3144989,0.2606812-0.1092987,0.4247742c-0.4239044,0.1635132-0.355484,0.2197266-0.6153107,0.0410156
			c0,0-0.4510803,0.5727234-0.7108765,0.6904297c0,0-0.1230164-0.0103149-0.2051086-0.1177063
			c0,0-0.2939148,0.332489-0.4442749,0.3993835c0,0-0.1846008-0.1791992-0.3555298-0.235321
			c0,0-0.3554993,0.4399414-0.656189,0.578125c0,0-0.0889282-0.1640015-0.280304-0.2763977
			c0,0-0.094696,0.5757141-0.7246094,0.9161072c0,0,0.0410156-0.1538086-0.2734985-0.3633118
			c0,0-0.7792969,0.6753235-1.0869141,0.7416992c-0.3075867,0.0663757-0.0205078-0.1436157,0.0205078-0.2304993
			c0.0411072-0.0869141,0.2325134-0.3735046-0.1434937-0.4912109c-0.3759766-0.1177063-0.3144836,0.0820312-0.3964844,0.1177063
			c-0.0820007,0.0361023-0.0888977-0.0664062-0.3418274-0.030304c-0.2528687,0.035614-0.2118835,0.1480103-0.3212891,0.1889954
			c-0.1094055,0.0410156-0.546875-0.0712891-0.5263977,0.2202148c0.0206299,0.2914734,0.2256165,0.4912109-0.157196,0.6600952
			C42.4413757,25.6459656,42.9677734,25.6103821,43.4736023,25.5336609L43.4736023,25.5336609L43.4736023,25.5336609z"/>
		<path class="st5" d="M45.0527039,24.7103882c0,0,0.0888672-0.3685913-0.2324219-0.5473022
			c0,0,2.0644836-0.3174133,0.5058899-1.105011c0,0,1.8525085-0.3837891,1.4150085-0.9775085
			c-0.4374695-0.5932922-0.8632812-0.4604797-0.9266663-0.4501648c-0.0645142,0.0101929,0.3934631-0.342804,0.516571-0.296936
			c0.1229858,0.0464172,1.6132202,0.6191101,1.2303772,0.1279297c-0.382782-0.4907227-0.3485718-0.4604187-0.4100952-0.6035156
			c0,0,0.492218,0,1.2373352,0.726593c0,0,0.1571655-0.1635742,0.1366882-0.4605103c0,0,0.5332031,0.1484985,0.6972961,0.3072205
			c0,0,0.0888062-0.1846008,0.0545959-0.2867126c0,0,0.4580994,0.2451172,0.6153259,0.5064087
			c0,0,0.2118988-0.1841125,0.2460785-0.394104c0,0,0.4580078,0.1895142,0.5741882,0.3326111
			c0,0,0.1504211-0.1997986,0.0957184-0.4859009c0,0,0.7587891,0.2250977,0.8612976-0.2456055
			c0,0,0.7626801,0.1655273,0.2666016,0.4624023c-0.6367035,0.3822937-0.0643921-0.0941772-0.7177124,0.3612976
			c-0.5078888,0.3531189-0.7911072,0.7676086-1.0351715,0.6821899c-0.1787109-0.0624695-0.3936005,0.4590149-0.6397247,0.203125
			c-0.2459717-0.2558899-0.2459717-0.1382141-0.4169006,0.1278992c-0.1708984,0.2655945-0.4375,0.5370789-0.4375,0.5370789
			s-0.1337891-0.0765686-0.2344055-0.1791992c0,0-0.1484985,0.245636-0.3399048,0.429718
			c0,0-0.1503906-0.1992188-0.3895874-0.3222046c0,0-0.3759766,0.4349976-0.6083984,0.5834961
			c0,0-0.2187805-0.2153931-0.4512024-0.2866821c0,0-0.0341797,0.5883789-0.4921875,0.8901672
			c0,0-0.0957031-0.1943665-0.3896179-0.3120117C45.7841797,24.0351562,45.5517883,24.407196,45.0527039,24.7103882
			L45.0527039,24.7103882L45.0527039,24.7103882z"/>
		<path class="st5" d="M43.9667664,23.809082c0,0-0.2509766,0.1929016-0.0888672,0.3994141
			c0.1620789,0.2060852,0.1708679-0.0361023,0.3759766-0.0566101c0.2051086-0.0205994,2.7344055-0.4551086,0.4443054-1.140686
			c0,0,0.0957031-0.0869141,0.492218-0.1230164c0.3964844-0.0357056,1.8320923-0.4242859,1.1620789-0.9360962
			c-0.6698914-0.5117188-1.227478,0.1738892-0.6629944-0.4399109c0.4510803-0.4911804,0.0888062-0.7319031,0.0888062-0.7319031
			s-1.3330078,0.8905945-1.6269226,1.0541992c-0.2939758,0.1635132-0.7177734,0.4756165-0.2187805,0.6391296
			c0.4989929,0.1640625,0.8407898-0.5419922,0.8887024-0.3838196c0.0477905,0.1586914-1.0048828,0.7421875-0.8545227,1.0131836
			c0.1504211,0.2715149,0.1162415,0.4966125,0.3760376,0.4453125c0.2596741-0.0512085,0.9637756,0.1329041,0.3895874,0.1123047
			C44.1581726,23.6400757,43.9667664,23.809082,43.9667664,23.809082L43.9667664,23.809082L43.9667664,23.809082z"/>
		<path class="st3" d="M44.8828125,22.5355835c0,0-0.2324219,0.1636047,0.0751648,0.0815735
			c0.3076172-0.0820007,0.9229126-0.2148743,0.8066101-0.3734741
			C45.6474915,22.0849915,45.2382812,22.2753906,44.8828125,22.5355835L44.8828125,22.5355835z"/>
		<path class="st6" d="M48.9433899,19.8959961c0,0,1.175705-0.0307922,1.661087,0.296875
			c0.4853058,0.3271179,0.717804,0.5419922,0.8612976,0.5884094c0,0-0.0204773,0.4448242-0.7723694,0.1278992
			c0,0,0.0409851,0.2147827-0.0411072,0.4242859c0,0-0.2801971-0.184082-0.6015015-0.265564
			c0,0-0.0547028,0.168396-0.1572113,0.265564c0,0-0.3349915-0.3373718-0.7109985-0.4398804
			c0,0-0.0751953,0.1688843-0.1434937,0.2303772c0,0-0.4034119-0.2303772-0.7109985-0.2250671c0,0,0.0614929,0.245575,0,0.3427734
			c0,0-0.8545227-0.6703796-1.6133118-0.5830078c0,0,0.3692017,0.5371094,0.6083984,0.8032227
			c0,0-1.5379944-0.1229858-1.2850952-0.9515991c0.2528992-0.8291016-0.0205078-0.620697,0.9844055-0.6148071
			C48.0272827,19.9013672,48.9433899,19.8959961,48.9433899,19.8959961L48.9433899,19.8959961z"/>
		<path class="st5" d="M41.7313843,22.1854858c0,0-0.1777039,0.1451111,0,0.2676086
			c0.1778259,0.1230774,0.7861938-0.316925,0.8681946-0.378418s0.3008118-0.0513,0,0.1737976
			c-0.3007812,0.2251282-0.6083679,0.4707031-0.7998047,0.7163086c0,0,1.0186157-0.2758179,1.6816101-0.8491211
			c0.6631165-0.5726929-0.031189-0.2015991,1.1005859-0.7469788c1.1309204-0.5450134,1.7217407-1.4223938,1.1133118-1.3301086
			c-0.6083984,0.0918274-1.1552734,0.7881165-1.6260071,1.0536804c-0.4715881,0.2661133-0.7381897,0.3022461-0.6629639,0.1484375
			c0.0750732-0.1533203,0.4237671-0.0918274,1.0721741-0.6137085c0.6494141-0.5220032,0.5059204-0.4859009,0.5127258-0.6705017
			c0.0067749-0.184021-0.2461243-0.6390991,0.7314758-1.1508179c0.977478-0.5117798,4.0195007-2.2919617,4.2793121-2.9008789
			c0,0-0.8886871,0.0971985-2.0576935,0.9619141c-1.1689148,0.8642883-1.7949219,1.2685852-2.117218,1.3759766
			c-0.3231812,0.1073914-0.282196,0.035614-0.4941101,0.2866211c-0.2118835,0.2504883-1.3671875,1.3661804-1.5791016,1.5297852
			c-0.2118835,0.1636047-0.273407,0.2709961-0.2909851,0.605011C43.4550781,20.8158875,42.1347961,21.8104858,41.7313843,22.1854858
			L41.7313843,22.1854858L41.7313843,22.1854858z"/>
		<path class="st5" d="M45.75,19.8671875c0,0-0.2256165,0.105011-0.4443359,0
			c-0.2187805-0.105011-0.1503601-0.5757141,0.3759155-0.8569031c0.5263977-0.281311,1.483429-0.7006836,1.968811-0.7622986
			c0,0-0.0684204,0.6089172-1.5791016,1.1201782C46.0712891,19.3681641,46.1669922,19.6854858,45.75,19.8671875L45.75,19.8671875z"
			/>
		<path class="st7" d="M46.2841797,19.4711914c0,0,0.0438843,0.1499023,0,0.2865906c0,0,2.8096008,0.2709961,4.2588043-1.4379883
			c0,0-1.9892731,0.1846008-2.7823029,0.6601868c0,0,0.499115-0.6239929,1.9892883-1.1411133
			c1.4902191-0.516571,2.0986023-1.1562805,2.2285004-1.5087891c0,0-1.8846893,0.6596069-2.7821808,0.6596069
			c0,0-0.1777039-0.0048218-0.3486023,0.0923157c-0.1708984,0.097168-1.374115,0.972168-1.6954041,1.1200867
			c0,0,0.6768188-0.0561218,0.9161072-0.2758179C48.0683899,17.9262695,47.5976868,19.1908875,46.2841797,19.4711914
			L46.2841797,19.4711914L46.2841797,19.4711914z"/>
		<path class="st5" d="M42.9657898,19.0805664c0,0-0.3046875,0.2207336-0.031189,0.3540344
			c0.2733765,0.132782,0.4510803-0.0767212,0.5878906-0.1997375c0.1366882-0.1225891,0.813385-0.6191711,0.9707031-0.9360657
			c0.157196-0.3174133,0.3896179-0.4145203,0.6357117-0.578125c0.2460938-0.164093,1.9823914-1.0288086,3.0487671-1.9852905
			c1.0664062-0.956604,0.6221313-0.7109985,1.7295227-1.3251953c1.1073761-0.6138,1.8321075-1.1768188,2.0644836-1.8418274
			c0,0-0.5126953,0.1689148-0.9638977,0.4604187s-1.469696,0.9311829-1.6747742,1.0181274
			c-0.2051086,0.0868835-0.492218,0.102478-0.6426086,0.2606812c-0.1504211,0.1586914-0.1366882,0.348175-0.6698914,0.7881165
			c-0.5332031,0.4398804-3.2881165,2.3842773-3.6230164,2.6601868C44.0625,18.0326843,42.9657898,19.0805664,42.9657898,19.0805664
			L42.9657898,19.0805664L42.9657898,19.0805664z M37.8486023,20.089386c0,0,0.4784851,0.1430054,0.4990845,0.3475952
			c0.0204773,0.2046204,1.4422913-1.0023804,1.0664062-1.5092773c-0.1729126-0.2319336-0.9639282-0.3271484-0.9981079,0.1279907
			c-0.0341797,0.4554749,0.7109985-0.0458984,0.4512024,0.2816772C38.5263672,19.766571,37.9512024,20.0175781,37.8486023,20.089386
			L37.8486023,20.089386z M38.4159851,20.6879578c0,0,0.7109985,0.4141235,0.444397,0.7573242
			c0,0,2.180603-1.852478,1.5653992-2.2514954c-0.6152954-0.3988953-1.1005859,0.3530884-0.9501953,0.429718
			c0.1503906,0.0766602,0.4716797-0.0664062,0.3554993,0.0766602
			C39.7147827,19.8437805,38.5526733,20.6264648,38.4159851,20.6879578L38.4159851,20.6879578L38.4159851,20.6879578z
			 M40.9042969,21.0766907c0,0-0.3623047,0.2557983-0.2119141,0.3836975
			c0.1504211,0.1279907,0.4092102,0.1539001,0.9598999-0.3066101c0.5507812-0.4603882,1.8837891-1.6069031,1.0411072-1.6528015
			c0,0-1.078186-0.0663757-1.0411072,0.5937195C41.6903687,20.7612,40.9589844,21.0351868,40.9042969,21.0766907
			L40.9042969,21.0766907z"/>
		<path class="st7" d="M40.7499695,19.7245789c0,0,0.3008423-0.1660156,0.8652344-0.1273804
			c0.5654907,0.0384827,2.7978821-2.124115,3.445282-2.5606079c0.6474915-0.4364929,2.6708984-1.8965149,2.944397-2.1626282
			c0.273407-0.2655945,0.3182983-0.5521851,0.555603-0.7089844c0.2373962-0.157196,0.4561157-0.1366882,1.0029907-0.450592
			c0.5469208-0.3135071,3.1709137-1.8829041,3.0166168-2.7969055c0,0-3.910202,2.3466797-4.8125153,3.1108093
			c-0.9024048,0.7641907-3.4091797,2.496582-3.8554993,2.7763672c-0.4462891,0.2798157-0.8016663,0.7641296-1.5498047,1.3711243
			C41.6152039,18.7831726,40.8769836,19.2943726,40.7499695,19.7245789L40.7499695,19.7245789L40.7499695,19.7245789z"/>
		<path class="st7" d="M39.9287109,18.8925781c0,0,0.7235718-0.0737915,0.820282,0.2798157
			c0,0,1.5498047-1.0640259,1.9052734-1.5005188c0.3555298-0.4364929-0.1190796-0.184082,0.765625-0.7641907
			c0.8837891-0.5796204,3.8184204-2.6333008,4.2382812-3.0014038c0.4189148-0.3687134,1.2119141-0.8526001,1.8496094-1.2828064
			c0.6377106-0.4296875,3.1358185-1.6503906,2.8526154-2.6532898c0,0-1.8321228,1.2276001-2.242218,1.4936829
			c-0.4101715,0.2661133-0.5829926,0.1162109-1.0019684,0.4437866c-0.4199219,0.32724-1.3398132,0.9819336-1.5039368,1.1865234
			c-0.164093,0.2045898-1.5673828,1.2828064-2.2510071,1.7398071c-0.6835632,0.4570007-2.2147827,1.343689-2.9530945,1.9848022
			C41.6698608,17.4603882,40.2382812,18.6474609,39.9287109,18.8925781L39.9287109,18.8925781L39.9287109,18.8925781z"/>
		<path class="st7" d="M37.6737671,18.6825867c0,0,0.3662109,0.0054016,0.4756165,0.1488953
			c0,0,0.6768188-0.593689,1.3964844-0.0072937c0,0,2.6436157-1.7871094,2.9082336-2.2373047
			c0.2637024-0.4502258,0.6923828-0.4570007,1.7226868-1.2075195c1.0292969-0.7504883,1.6766968-1.0639954,2.3602905-1.5961609
			c0.6836243-0.5322266,1.2578125-1.1323242,1.7500305-1.453125c0.4921875-0.3203125,1.7314911-1.1322937,1.5214844-1.8349915
			c0,0-1.0020142,0.5732727-1.6582031,1.2895813c-0.656311,0.7163086-0.601593,0.1020203-1.2666016,0.7026062
			c-0.6659851,0.6001282-1.6953125,1.4184875-2.5527039,1.8417969c-0.8565063,0.4229126-0.3370056,0.375-0.9570923,0.7705078
			c-0.6191101,0.3959961-0.5741882,0.3345032-0.8017273,0.3891907c-0.2275696,0.0546875-0.5742798,0.2182007-0.8017883,0.484314
			c-0.2284851,0.265686-0.8388977,0.6275024-1.5039062,1.0025024
			C39.6005859,17.3510742,37.9647827,18.3246765,37.6737671,18.6825867L37.6737671,18.6825867L37.6737671,18.6825867z"/>
		<path class="st7" d="M38.4706726,17.3109741c0,0-0.1435852-0.2963867,0.1094055-0.5063171
			c0.2529297-0.2099915,0.710907-0.7621765,0.7861328-1.1103821c0.0751648-0.3475952,0.0204773-0.2915039,0.7519836-0.5932007
			c0.7313843-0.3018188,2.3924866-1.0796204,3.3291016-1.6576843c0.9364929-0.5782166,2.3583984-1.5093079,2.6522827-1.7344055
			c0.2940063-0.2250977,1.0068054-0.726593,1.2958984-0.9619141c0,0,0.1397095,0.3940125-0.1747742,0.6650085
			c-0.3144226,0.2714844-1.5244141,1.1206055-1.7227173,1.253418c-0.1982117,0.1333008-1.3125,0.8804016-1.6542053,1.069397
			c-0.3417969,0.1893921-1.1895142,0.6190796-1.4902954,0.8700867c-0.3007812,0.2505188-0.2617188,0.3270874-1.6044922,0.9823914
			c-1.3417969,0.6547852-1.4032898,0.7212219-1.3623047,0.772522c0.0410156,0.0506897,0.6425781-0.210022,0.9296875-0.3789062
			c0.2871094-0.1685181,1.3877258-0.6700134,1.7158203-0.9312134c0.3282166-0.2607117,0.881897-0.6698914,1.1210938-0.8031921
			c0.2392883-0.1328125,2.2217102-1.3197937,2.789093-1.7392883c0.5673828-0.4199219,0.7246094-0.5576172,0.8476257-0.4862976
			c0.1230774,0.0718079,0.3212891,0.0770874,0.0683594,0.3173828c-0.2528687,0.2402039-1.0595703,0.9462891-1.3671875,1.1509094
			c-0.3075867,0.2044983-1.2714844,0.7778015-1.5380859,0.9159851c-0.2666016,0.1382141-0.3691101,0.3939819-0.5195007,0.5014038
			C43.2832031,15.0141907,42.8456726,15.3261719,42.3125,15.4487c-0.5332031,0.1230774-0.6289062,0.5219727-0.9775085,0.7471008
			c-0.3486938,0.2250671-2.8291016,1.5604858-2.9042969,1.6269836
			C38.4306946,17.8227844,38.5800781,17.6694031,38.4706726,17.3109741L38.4706726,17.3109741L38.4706726,17.3109741z"/>
		<path class="st7" d="M49.5028992,11.5761719c0,0,0.273468-0.4551086,0.9433746-0.8847961s1.6758118-1.0556641,1.8115234-1.207489
			c0,0,0.2392883,0.2709961-0.2871094,0.6035156c-0.526413,0.332489-1.5518036,1.0131531-1.6747894,1.1103821
			C50.1728821,11.2948914,49.967804,11.4433594,49.5028992,11.5761719L49.5028992,11.5761719z M47.0556946,11.7401733
			c0,0-0.1368103,0.1211243-0.061615,0.1889954c0.0997009,0.090332,0.444397,0.3325195,0.875-0.0941772
			c0.4306946-0.4273071,1.5878906-1.358429,1.9628906-1.5787048c0.3750153-0.219696,0.5528107-0.4296265,0.5391388-0.7313843
			C50.371109,9.5249023,48.5937805,10.4711914,47.0556946,11.7401733L47.0556946,11.7401733z"/>
		<path class="st6" d="M31.4501953,19.9770813c0,0,0.5145874-0.3062134,1.2372742-0.112793
			c0,0-0.0341797-0.1758118-0.1435852-0.2670898c0,0,0.875-0.2290344,1.0664978-0.6182251
			c0.1914062-0.3886719,0.2324219-0.3066101,0.4033203-0.4194031c0.1708679-0.1122742,1.3534851-1.0639954,1.2167664-1.2685852
			c-0.1366882-0.2051086-0.164093-0.4707031-0.2666016-0.5786133c0,0-0.2460938,0.3379211-1.3945923,0.8955078
			c-1.148407,0.5576172-2.4266663,0.9771118-3.355896,2.2310181c-0.9296875,1.2533569-0.8339844,1.9798889,0.3008118,2.2967834
			c0,0,0.7992859-0.5014038,2.7474976-0.3276062c1.9483032,0.1743164,2.6112976,0.9057922,2.7344055,1.0386047
			c0.1229858,0.1333008,0.5195007,0.6142273,0.1366882,1.4277039c0,0,0.3897095,0.1690063,0.4237976-0.2046204
			c0.0342102-0.3734741,0.054718-0.2865906,0.1436157-0.2303772c0.0888977,0.0560913,0.1981812,0.0664062,0.157196-0.2197876
			c-0.0410156-0.2866211-0.1777039-0.926239-0.3554077-1.1459961c-0.1777954-0.2202148,0.0205078-0.1230469,0.1367188-0.0771179
			c0.1161804,0.0463867,0.5262756,0.3788757,0.2801819-0.2354126c-0.2460022-0.613678-0.3075867-0.3119812-0.3143921-0.281189
			c-0.0068054,0.0307007-0.054718,0.1841125-0.5878906-0.2148743c-0.5332031-0.3989258-1.0186157-0.5937195-1.3809204-0.6958008
			c-0.3623047-0.1020203-0.1092834-0.1025391,0.1026001-0.1792297c0.2119141-0.0765991,0.4989929-0.1224976,0.594696-0.3578796
			c0,0-0.2118835,0.0513-0.601593-0.0869141c-0.3895874-0.1382141-1.1688843-0.1532898-1.7977905,0.3168945
			c0,0,0.1982117-0.7261047-0.3760071-0.6854858c-0.5741882,0.0409851-0.9775085,0.0258179-1.585907,0.5068054
			c0,0-0.0341797-0.7319336,0.5400085-1.1104126c0.5742188-0.3783875,0.4989929-0.148407,0.8203125-0.2456055
			c0.3212891-0.0970764,0.3486938-0.4194031,0.2118835-0.5218811c0,0,0.7520142,0.1278687,2.0166016-0.920929
			c0,0-0.6795959,0.8905945-1.5047913,1.0693054c0,0-0.1309204,0.4741211-0.8809204,0.578125
			C31.4257812,19.4364624,31.4433899,19.8695984,31.4501953,19.9770813L31.4501953,19.9770813L31.4501953,19.9770813z
			 M35.8799133,16.5336609c0,0-0.7451172,0.3989258-0.4785156,0.6499329
			c0.2666016,0.2504883,0.6631165,0.1737976,0.8270874,0.1019897c0.1641235-0.0711975,0.4784851-0.148407,0.5263977-0.1635132
			c0.047821-0.0151672,0.6972046-0.1996765,0.8612976-0.5014954c0.1641235-0.3017883,0.6016235-0.6499023,0.9502258-0.9003906
			c0.3486023-0.2505188,0.4716797-0.5014038,0.4237976-0.6802063
			C38.9902039,15.0395813,36.0556946,16.4257812,35.8799133,16.5336609L35.8799133,16.5336609z"/>
		<path class="st5" d="M29.2919922,24.3129883c0,0,0.3685913-2.2046204,2.4335938-2.3643188
			c1.8085938-0.1395874,2.382782,0.0855103,2.7431946,0.2017212c0.3602905,0.1156921,1.2391968,0.375,0.8973999,0.6582031
			c-0.3417969,0.2831726-0.5371094,0.2319031-0.5371094,0.2319031s0.3965149-0.4399109,0.0361328-0.5151062
			c-0.359314-0.074707-0.3916016,0.1434937-0.4423218,0.3276062c-0.0498962,0.184082-0.0722961,0.4057617-0.25,0.5488892
			c0,0-0.1826782-0.2114868-0.4424133-0.026886c-0.2597961,0.184082-0.0361633,0.1908875,0.0683289,0.1601868
			c0.1044922-0.0307922,0.2412109-0.0855103,0.2138977,0.0751953c-0.0273132,0.1600952-0.1729126,0.4364929-0.6016235,0.6615906
			c-0.4277039,0.2251282-0.4051819,0.2113953-0.914978,0.2929077c-0.5107117,0.0820923-0.9844055,0.2832031-1.6362,0.842804
			c-0.651886,0.559082-1.3652954,0.3726196-1.5087891-0.2524109C29.2279968,24.6190796,29.2919922,24.3129883,29.2919922,24.3129883
			L29.2919922,24.3129883L29.2919922,24.3129883z"/>
		<path class="st3" d="M31.655304,24.2440796c0,0,0.1981812-0.4349976-0.1573181-0.6341858
			c0,0-1.0869141,0.1859741-1.4082031-0.1436157c0,0,1.1827087-0.0610046,1.9141235-0.3475952
			c0.7314758-0.2867126,0.5126953-0.4859009,0.2597961-0.5322876c-0.2530212-0.045929-0.717804,0.0664062-0.7657166,0.296875
			c0,0-0.1434937-0.2456055,0.0411072-0.4091797c0.1844788-0.1640015,0.4715881-0.1943054,0.7314148-0.1177063
			c0.2597961,0.0766907,0.4921875,0.1889954,1.3466797-0.2557983c0,0,0.492218,0.1122742,0.5057983,0.4447937
			c0.0137024,0.3325195-0.0340881,0.4707031-0.0751038,0.5220032c-0.0410767,0.0513-0.1026001,0.148407-0.2050781,0.1381836
			c-0.1026001-0.0102844-0.2324219-0.035675-0.3623047,0.1943359c-0.1299133,0.2304688-0.2080078,0.4296875-0.4248047,0.5829773
			c0,0,0.2539062-0.7162781-0.375-0.8847961c0,0-0.5195923,0.3067017-0.9161072,0.3222961
			C31.7645874,23.4203796,32.2705078,23.8910828,31.655304,24.2440796L31.655304,24.2440796L31.655304,24.2440796z"/>
		<path class="st5" d="M32.789978,22.9291687c0,0-0.2391968-0.2631836,0.0752258-0.2915039
			c0.3144836-0.0278015,0.7314758,0.2021179,0.6493835,0.3965149C33.4325867,23.2284851,33.0634766,23.2211914,32.789978,22.9291687
			L32.789978,22.9291687L32.789978,22.9291687z"/>
		<path class="st2" d="M50.5556793,19.4350891c0,0-0.574295,0.1640015-0.0410767,0.5169983
			c0.5332947,0.3530884,0.7929688,0.6596985,1.1826782,0.7622986c0.3895874,0.1019897,0.7928925,0.2456055,0.7861023,0.6342163
			c-0.0068054,0.3886719-0.0820007,0.5424805-0.2938843,0.8085938c-0.2120209,0.265686,0.1161957,0.3837891,0.3963928,0.2299805
			c0.280304-0.1532898,0.5196075-0.2352905,0.7040863-0.3427734c0.1846008-0.1074219,0.492218-0.0918274,0.2120209,0.0512695
			c-0.280304,0.1430969-0.5743103,0.230011-0.2120209,0.2402344c0.3623199,0.0102539,2.5429993,0.0512695,3.0009918-0.0971375
			c0.4580078-0.148468,1.0528259-0.1943665,1.1074219-0.7875977c0,0,0.0204926-0.2637024,0.1914062-0.3735657
			c0.1708832-0.110321,0.2872009-0.3632202,0.0380859-0.1918945c-0.25,0.1713867-0.441391,0.2582703-0.4891968,0.2070923
			c-0.0479126-0.0508118-0.0615845-0.0869446,0.1201172-0.1714172c0.1806946-0.0840149,0.2831726-0.0049133,0.4511719-0.2528992
			c0.1670227-0.2485962,0.1504059-0.2075806,0.0615234-0.3018188c-0.0889282-0.094696-0.27742-0.164093-0.1846008-0.2841797
			c0.0917816-0.1201172,0.1846008-0.4779968-0.2158051-0.2684937c-0.3993988,0.2098694-1.1864929,0.7504883-1.5518036,0.8358765
			c-0.364212,0.0849915-0.6425018,0.1958008-1.1346893,0.2958984c-0.492218,0.0996094-0.7969055,0.2051086-1.3213196,0.4951172
			c-0.5243835,0.2901001-0.4872894-0.1600952-0.3964996-0.2217102c0,0,0.2002106,0.351593,0.7334137-0.105896
			c0.5332031-0.4570007,0.3602905-0.0283203,1.664093-0.4570007c1.3037109-0.4282837,0.9842834-0.4981079,1.4941101-0.7637024
			c0.5106812-0.2660828,0.9931946-0.2763977,0.6377106-0.6313782c-0.3545227-0.3544922-0.3965149-0.3852234-0.8565216,0
			c-0.4599152,0.3858032-1.7313995,1.0063782-2.4920807,1.023468c0,0,2.9393768-1.2690735,2.6385803-1.453186
			c-0.3006897-0.184021-0.6250153-0.3475952-0.8300018-0.3919983c-0.2051086-0.0444946-0.2598114-0.0957031-0.7333832,0.1156921
			c-0.4737091,0.2114258-0.5518188,0.2627258-0.6885071,0.2763062c-0.1367035,0.0137024-0.5332031,0.0922852-1.093811,0.381897
			c-0.5605011,0.2900085-0.8612976,0.406189-1.2342987,0.6347046c0,0,0.2597198-0.5252991,1.4169159-0.8730164
			c1.1572876-0.3480835,1.7499847-0.6688843,1.6220703-0.726593c-0.1268768-0.058075-0.4139862-0.105896-0.632782-0.0716858
			c-0.218689,0.0341187-0.155304-0.0171204-0.8612976,0.2626953c-0.7071075,0.2797241-0.406311,0.2182007-0.9756165,0.3407898
			c-0.5692902,0.1230164-0.8017883,0.2489929-1.0849762,0.3686218c0,0,0.1152802-0.1538086,0.4990997-0.2944031
			c0.1972046-0.0718079-0.2159119-0.1465149,0.3320007-0.1684875c0.0448761-0.0019226,0.0996094,0.011261,0.1532745-0.004425
			c0.7080231-0.2030945,1.4815216-0.480896,1.3632965-0.5014038c-0.1191711-0.0205078-0.8066864-0.0917969-1.503891,0.2284851
			c-0.6972961,0.3208008-0.378891,0.2114258-0.6249847,0.2627258s-0.7655945,0.3783875-0.9385071,0.5184937
			C50.7978973,19.3295898,50.5556793,19.4350891,50.5556793,19.4350891L50.5556793,19.4350891L50.5556793,19.4350891z"/>
		<path class="st5" d="M33.3407898,22.6117859c0,0,0.2734985,0.0815735,0.3417969,0.2734985
			c0.0683899,0.191803,0.2393188-0.0845032,0.2323914-0.1714172c-0.0067749-0.0868835-0.1747742-0.4706726-0.4715881-0.2915039
			C33.1454773,22.601593,33.2948914,22.5951843,33.3407898,22.6117859L33.3407898,22.6117859L33.3407898,22.6117859z"/>
		<path class="st6" d="M32.5780945,26.4032898c0,0,0.5839844-0.2744141,1.0732727-0.2406921
			c0,0-0.1913757-0.6904297,0.1504211-0.5728149c0.3417969,0.1177063,0.2460938,0.0718079,0.3144226,0.0664978
			c0,0,0.0204773-0.4555969-0.0683289-0.6343079c0,0,0.3486023,0.0815125,0.7041321,0.0868835
			c0,0-0.335022-0.6547852,0.0340881-1.1049805c0,0,0.202179,0.4296875,0.6581726,0.5371094c0,0,0.0020142-0.1841125,0-0.378418
			c0,0,0.2715149-0.0307617,0.4833984,0.0815125c0.2119141,0.112793,0.3897095-1.1869812-0.2391968-1.4736023
			c0,0-0.1503906,0.2456055-0.7382812,0.3687134c-0.5878906,0.1224976-0.5830078,0.2406921-0.8251953,0.683075
			c-0.2412109,0.4423218-0.453125,0.4477234-0.9453125,0.7646179c-0.492218,0.3174133-0.7919922,0.9619141-0.8193054,1.0180969
			C32.3603821,25.6049805,32.6190796,25.9223938,32.5780945,26.4032898L32.5780945,26.4032898L32.5780945,26.4032898z"/>
		<path class="st8" d="M52.1894989,18.8544922c0.2137756-0.0375977-0.2159119-0.1465149,0.3309937-0.1690063
			c0.0448914-0.0014038,0.0995789,0.0112915,0.1542816-0.004303c0.707016-0.2026978,1.4805145-0.4810181,1.3623047-0.5010071
			c-0.1181793-0.0205078-0.8065948-0.0923157-1.503891,0.2284851c-0.6972961,0.3203125-0.3778992,0.2114258-0.6239929,0.2627258
			c-0.2460938,0.0507812-0.7655945,0.3783875-0.9394989,0.5180969c-0.1727905,0.1401062-0.4140167,0.2456055-0.4140167,0.2456055
			s-0.574295,0.1635132-0.0410767,0.5166016c0.5332947,0.3529968,0.7929688,0.6600952,1.1826782,0.7626953
			c0.3895874,0.1019897,0.7928925,0.2451172,0.7861023,0.6342163c-0.0068054,0.3886719-0.0820007,0.5424805-0.2938843,0.808075
			c-0.2120209,0.2662048,0.1161957,0.3837891,0.3963928,0.2304993c0.280304-0.1532898,0.5196075-0.2352905,0.7040863-0.3427734
			c0.1846008-0.1074219,0.492218-0.0923157,0.2120209,0.0512695c-0.280304,0.1430969-0.5743103,0.230011-0.2120209,0.2402344
			c0.3623199,0.0102539,2.5429993,0.0512695,3.0009918-0.0971375c0.457016-0.148468,1.0518188-0.1943665,1.1065216-0.7880859
			c0,0,0.0205078-0.2632141,0.191391-0.3730774c0.1708984-0.110321,0.2881165-0.3632202,0.0381165-0.1918945
			c-0.2500153,0.1708679-0.4414978,0.2582703-0.4893188,0.2070923c-0.0478973-0.0513306-0.0614929-0.0869446,0.1201172-0.1714172
			c0.1817017-0.0845032,0.2831879-0.0054016,0.4511719-0.2533875c0.1680298-0.2481079,0.151413-0.2070923,0.0615234-0.3018188
			c-0.0458984-0.0482788-0.117218-0.0903015-0.1641083-0.1357117c0,0-0.1307831-0.1147766-0.2831879-0.0175781
			c-0.1533203,0.097168-0.8232117,0.3804016-1.0918121,0.4125977c-0.2685089,0.0326843-0.5467987,0.1470032-1.0301971,0.3818054
			c-0.4823914,0.2353821-1.2851868,0.7148743-1.4121094,0.2695923c0,0-0.3505859,0.125-0.4267883,0.1634827
			c-0.5381012,0.2749329-0.4911957-0.1146851-0.3965149-0.2211914c0,0-0.2821808,0.316925-0.2704926,0.0288086
			c0.0108185-0.2884827,0.1934204-0.2387085,0.5077972-0.3309937c0.3145142-0.0918274,0.8115082-0.2969055,0.6065063-0.4673157
			c-0.2051086-0.1704102-0.4219055,0.1694336-0.6503906,0.273407c-0.2276001,0.1036072-0.6826172,0.1958008-0.753891-0.1351929
			c-0.0703125-0.3305969-0.0684052-0.5610046-0.6856079-0.5967102c-0.6172028-0.0361023-0.594696-0.4214172-0.4257965-0.5869141
			C51.4618835,19.2387695,51.6103973,18.9555969,52.1894989,18.8544922L52.1894989,18.8544922L52.1894989,18.8544922z"/>
		<path class="st3" d="M56.1063843,21.6654968c0,0,0.2050934-0.0376282,0.2285919,0.0375977
			c0.0224152,0.0751953-0.0917816,0.0855103-0.2050781,0.0717773C56.0155792,21.7611694,55.914978,21.6962891,56.1063843,21.6654968
			L56.1063843,21.6654968z M54.3749847,22.0404968c0,0,1.0800934-0.3579102,1.280304-0.2080078
			c0.2001953,0.1503906,0.0361023,0.0751953-0.2002106,0.109375c-0.2372742,0.0342407-0.8886871,0.1431274-1.0614777,0.1396179
			C54.2196808,22.0780945,54.3749847,22.0404968,54.3749847,22.0404968L54.3749847,22.0404968z M54.1513977,21.8461914
			c0,0,0.9618988-0.4433899,1.8457031-0.6513977s0.191391,0.0273743,0.0409851,0.0751953
			c-0.1504059,0.0478821-1.5263977,0.5010071-1.8495941,0.6513672
			C53.8642883,22.0712891,53.9306793,21.9428711,54.1513977,21.8461914L54.1513977,21.8461914L54.1513977,21.8461914z"/>
		<path class="st2" d="M27.5805969,31.0761719c0,0-0.0406189-0.9482727,0.4379883-1.4291992
			c0.4785156-0.4809875,2.8027039-2.8998718,3.1582031-3.5757141c0,0,0.3006897,0.2090149,0.3144226,0.5928345
			c0,0,0.389679-0.6708984,0.6972961-0.9238892c0,0,0.2733765,0.2792664,0.2255859,0.8368835
			c0,0,0.5604858-0.296814,1.4287109-0.3016968c0,0-0.3213196,0.3783875-0.335022,0.5980835
			c0,0,1.203125-0.132782,1.8320007-0.0302124c0,0-1.6542969,0.9257202-1.1893921,1.0078125
			c0.4647827,0.0815125,0.9501953-0.0054016,0.9501953-0.0054016s-0.5263977,0.5371094-1.367218,0.6445007
			c0,0,1.0664062-0.0151062,1.2783203,0.2251282c0,0-1.0390015,0.1586914-1.8730164,0.7929993
			c0,0-0.078186-0.0356445-0.0839844-0.2710266c0,0-0.0253906,0.2099915-0.2647095,0.4092102
			c-0.2391968,0.1996765-0.813385,0.6244812-1.0253906,0.8392944c-0.2118835,0.2149048-0.6083069,0.6391907-1.032196,0.6186829
			c0,0,0.0957031-0.327179-0.2187195-0.4296875c-0.3144836-0.1019897-0.6767883-0.0307922-0.9296875,0.2407227
			c0,0-1.1210938,0.0151978-1.476593,0.0664062c0,0,0.2529907-0.4043274,0.4854126-0.3940125
			c0.2323914,0.0101929,1.1688843,0.1381836,1.2509766-0.5014954c0.0820007-0.6391296-0.601593-0.4702148-0.3417664-0.8491211
			c0.2596741-0.378418,0.1981812-0.3632812,0.2049866-0.3988953c0,0-0.2119141,0.1177063-0.3348999,0.4551086
			c-0.1231079,0.3377991-0.2119141,0.5986023-0.656311,0.9364929c-0.4443054,0.3374023-0.6283875,0.5419922-0.7514038,0.7778015
			C27.964386,31.007782,27.7616882,31.0361023,27.5805969,31.0761719L27.5805969,31.0761719z"/>
		<path class="st2" d="M28.6582031,30.5028992c0,0,0.0365906-0.1299133,0.3646851-0.1845093
			c0.3282166-0.0541992,0.3417969-0.2114868,0.3008118-0.2792969c-0.0410156-0.0684204-0.2368164-0.0684204,0.0820923-0.4296875
			c0,0,0.1137085,0.0301819,0.1914062,0.1190796C29.6748047,29.8173828,30.034668,30.5878906,28.6582031,30.5028992
			L28.6582031,30.5028992z"/>
		<path class="st8" d="M29.2812805,30.4667664c-0.1513672,0.0371094-0.3535767,0.0527039-0.6221008,0.0361328
			c0,0,0.0229187-0.0815125,0.1962891-0.1425171C28.8554688,30.3603821,28.9052734,30.4638672,29.2812805,30.4667664
			 M30.9154968,26.4564819c0.1196899-0.1567078,0.2104797-0.2885132,0.2612915-0.3852234
			c0,0,0.3006897,0.2090149,0.3144226,0.5928345c0,0,0.389679-0.6708984,0.6972961-0.9238892
			c0,0,0.2733765,0.2792664,0.2255859,0.8368835c0,0,0.5604858-0.296814,1.4287109-0.3016968
			c0,0-0.3213196,0.3783875-0.335022,0.5986023c0,0,1.203125-0.1333008,1.8320007-0.0307312
			c0,0-1.6542969,0.9257202-1.1893921,1.0078125c0.4647827,0.0820007,0.9501953-0.0054016,0.9501953-0.0054016
			s-0.5263977,0.5376282-1.367218,0.644989c0,0,1.0664062-0.0155945,1.2783203,0.2251282
			c0,0-0.3036804,0.0458984-0.7147827,0.1889954c0,0-0.3067017-0.2881165-1.1953125-0.2471008
			c0,0,0.6914062-0.3867188,1.2402039-0.5116882c0,0-0.242218-0.3174133-0.6201172-0.0273132
			c0,0-0.7519836-0.5181274-0.131897-0.9584961c0,0-0.4375-0.0917969-0.7245789,0.1127014
			c0,0,0.0136719-0.3549194,0.3320618-0.5151062c0,0-0.8427734-0.1362-1.0527649,0.4844055
			c0,0-0.1591187-0.2559204-0.085907-0.5458984c0,0-0.5107117,0.293396-0.7431946,0.6259766
			C31.3153992,27.3227844,31.2392883,26.6918945,30.9154968,26.4564819 M27.870575,29.8329773
			c0.0171204,0.6318054,0.8452148,0.397522,0.8452148,0.397522c-0.2948914,0.2240906-0.4750977,0.3895874-0.5990906,0.5443726
			c0.0546875-0.3070679-0.4668274-0.3837891-0.4668274-0.3837891C27.6929016,30.203064,27.7611694,30.0048828,27.870575,29.8329773
			L27.870575,29.8329773z"/>
		<path class="st3" d="M30.8145142,28.0761719c0,0,0.382782,0.3016968,0.5194702,0.4862976
			c0,0,0.3486023-0.2460938,0.4785156-0.445282c0,0,0.273407,0.1791687,0.3690796,0.445282
			c0,0,0.1914062-0.1333008,0.2325134-0.3173828c0,0,0.4823914,0.1025696,0.6405945,0.2607727c0,0,0.0742188-0.4653625,0-0.7568665
			c0,0,0.3369141,0.0253906,0.5419922,0.1123047c0,0-0.1903992-0.3070984,0.7832336-0.7007141
			c0,0-0.7363281,0.1578064-1.015625,0.4809875c0,0-0.3144836,0.0151062-0.4512024-0.0820007
			c0,0,0.0205078,0.4707336,0.0068054,0.6958008c0,0-0.1893921-0.0766907-0.5595093-0.1635742
			c0,0-0.0898743,0.1532898-0.1513977,0.1889954c0,0-0.2323914-0.1841125-0.3349915-0.4194946
			c0,0-0.3554077,0.3227844-0.492218,0.4604797C31.3817749,28.3217773,31.046875,28.0863647,30.8145142,28.0761719
			L30.8145142,28.0761719L30.8145142,28.0761719z"/>
		<path class="st4" d="M28.612793,32.8652039c0,0,0.1503906,0.0722961,0.5058899-0.2148132
			c0.3554077-0.2861328,1.360321-0.9258118,1.4559937-1.4375305c0.0957031-0.5116882-0.3212891-0.5419922-0.6493835-0.3940735
			c-0.3280945,0.1484985-0.1914062,0.4350891-0.1777039,0.526886c0.0136108,0.0918274,0.0204773,0.4501953-0.5126953,0.9473267
			C28.7016907,32.7890625,28.612793,32.8652039,28.612793,32.8652039L28.612793,32.8652039L28.612793,32.8652039z"/>
		<path class="st4" d="M28.4971008,33.0282898c0,0-0.8067017-0.3369141-0.0820923-0.7001953
			c0.7245789-0.3633118,1.0458984-0.460907,1.1279907-0.7627258c0.0820007-0.3016968,0.0340881-0.250885-0.2325134-0.1229858
			s-1.2919006,0.5888977-1.4491882,0.1592102c0,0,0.4238892,0.1629944,0.9501648-0.0918274
			c0.5264282-0.2558899,0.9571533-0.3329773,0.6221313-0.4404602c-0.335022-0.1074219-1.5449219,0.0253906-1.7431946,0.0820618
			c-0.1982117,0.0556335-0.1504211,0.045929-0.1845093,0.2451172c-0.0341797,0.2001953-0.2597961,0.6191101-0.3417969,0.7421875
			c-0.0820923,0.1230164-0.280304,0.6347046,0.0892944,0.859314C27.6220703,33.2235718,28.207489,33.2079773,28.4971008,33.0282898
			L28.4971008,33.0282898z"/>
		<path class="st3" d="M28.183075,31.2685852c0,0-0.1850891,0.0252991-0.1509094,0.0975952
			c0.0342407,0.0713196,0.0825195,0.0614929,0.1509094,0.0664062c0.0679321,0.0049133,0.1704102-0.0361023,0.1841125-0.0820312
			C28.3808899,31.3046875,28.2514954,31.2538757,28.183075,31.2685852L28.183075,31.2685852L28.183075,31.2685852z"/>
		<path class="st2" d="M28.4491882,32.8495789c0,0-0.382782-0.1835938,0.0479126-0.4188843
			c0.430603-0.2354126,0.8954773-0.4610291,0.9570007-0.5577087C29.4541016,31.8720703,29.2489929,32.164093,28.4491882,32.8495789
			L28.4491882,32.8495789L28.4491882,32.8495789z"/>
	</g>
</g>
</svg>
