<?xml version="1.0" encoding="utf-8"?>
<!-- Generator: Adobe Illustrator 22.1.0, SVG Export Plug-In . SVG Version: 6.00 Build 0)  -->
<svg version="1.1" id="Layer_1" xmlns="http://www.w3.org/2000/svg" xmlns:xlink="http://www.w3.org/1999/xlink" x="0px" y="0px"
	 viewBox="0 0 60 60" style="enable-background:new 0 0 60 60;" xml:space="preserve">
<style type="text/css">
	.st0{clip-path:url(#SVGID_2_);fill:#020203;}
	.st1{clip-path:url(#SVGID_2_);fill:#CC1332;}
	.st2{clip-path:url(#SVGID_2_);fill:#FECA05;}
</style>
<g id="XMLID_1_">
	<g>
		<defs>
			<path id="SVGID_1_" d="M59,60H0.9999695C0.4477234,60,0,59.5526733,0,59V0.9999695c0-0.5522461,0.4477234-1,0.9999695-1H59
				c0.5526886,0,0.9999847,0.4477539,0.9999847,1V59C59.9999847,59.5526733,59.5526886,60,59,60L59,60z"/>
		</defs>
		<clipPath id="SVGID_2_">
			<use xlink:href="#SVGID_1_"  style="overflow:visible;"/>
		</clipPath>
		<polygon class="st0" points="-15.1006165,-0.0668945 75.1006012,-0.0668945 75.1006012,60.0673828 -15.1006165,60.0673828 
			-15.1006165,-0.0668945 		"/>
		<polygon class="st1" points="-15.1006165,-0.0668945 75.1006012,-0.0668945 75.1006012,29.9999695 -15.1006165,29.9999695 
			-15.1006165,-0.0668945 		"/>
		<polygon class="st2" points="24.0727844,20.5585938 27.7450867,20.5585938 28.8588867,17.097168 30.0023804,20.5585938 
			33.6747742,20.5585938 30.7245789,22.7562866 31.8681946,26.2772827 28.8588867,24.1400757 25.8788757,26.2772827 
			27.0224915,22.7562866 24.0727844,20.5585938 		"/>
		<path class="st2" d="M31.1464844,39.2206726l2.1816101,1.3144836c-0.2030945,0.1865234-0.8125,0.5019226-0.9746094,0.5664368
			l0.3573914,1.3690796c-0.8426819,0.2715149-1.7460938,0.6621094-2.6786804,0.842804l-0.5415039-1.3534851
			c-0.8729858,0.1795959-1.7456055,0.3006897-2.648407,0.3006897l-0.1812134,1.414093
			c-0.8426819-0.0596008-1.8661804,0-2.7992859-0.2108765v-1.4141235c-0.842804-0.1503906-1.655304-0.3612976-2.4375-0.6328125
			l-0.6929016,1.235321c-0.7221069-0.3016968-1.6849976-0.6629944-2.4682007-1.1445007l0.512207-1.3544922
			c-0.6328125-0.3309937-1.2045898-0.7519226-1.7460938-1.1738281l1.3544922-1.7157898
			c2.227478,1.7763062,5.0263977,2.8291016,8.0967102,2.8291016C28.1063843,40.0927734,29.7012024,39.8222961,31.1464844,39.2206726
			 M37.4971008,39.492157l-2.8897095-2.2587891c2.9198914-2.3769836,4.8164062-6.0195007,4.8164062-10.082489
			c0-6.2007141-4.4248352-11.4076843-10.2640991-12.6420898l0.4510803-2.1069031
			c0.8130188,0.180603,1.7662354,0.5228882,2.549408,0.793396l0.7519226-1.2637024
			c0.8124695,0.390686,1.7157898,0.7817993,2.4677734,1.2637024l-0.5712891,1.3544922
			c0.7528687,0.4819031,1.6610718,1.2279968,2.1659851,1.8153992l1.1309204-0.882782
			c0.6015015,0.6615906,1.3241882,1.3534851,1.8358765,2.0766907l-1.0233765,1.0531921
			c0.6611023,0.9702148,0.9169922,1.4170227,1.4042664,2.534729l1.4355164-0.3369141
			c0.2715149,0.8426819,0.6825867,1.8744812,0.8340149,2.7469788l-1.3604126,0.5342102
			c0.1630859,0.6782227,0.3731079,1.862793,0.3594055,2.8588867c-0.0010071,0.0601196-0.0057983,0.1279297-0.0057983,0.1885071
			l1.4199219,0.2026062c-0.0596313,0.8730774-0.0899353,1.8662109-0.2705078,2.7392883h-1.4746399
			c-0.2109985,0.9023132-0.4824829,2.0063171-0.8134766,2.8490906l1.2344055,0.7226257
			c-0.3916016,0.7823181-0.7822876,1.7158813-1.2940063,2.467804l-1.3544922-0.5712891
			c-0.5117188,0.7519836-1.0830078,1.4745789-1.7158203,2.1366882l0.8731079,1.1436157
			c-0.2402954,0.2108765-0.4512024,0.421875-0.6923828,0.6620789"/>
		<path class="st2" d="M45.0780945,45.8847656l-4.3153992-3.3437805l-1.2549133,1.6161804l3.75,2.6299133
			c0.3008118,0.210022,0.3301086,1.1737976,1.4434204,1.3251953c0.4530945,0.0596313,0.7528992-0.2714844,0.7528992-0.2714844
			C45.9394836,47.2499695,45.8065796,46.4364624,45.0780945,45.8847656 M42.1161804,44.6425781
			c-0.1229858,0-0.2236023-0.1005859-0.2236023-0.2236938C41.8964844,44.2948608,42,44.1981812,42.1229858,44.2011719
			c0.1181946,0.0039062,0.2138977,0.0996094,0.217804,0.2177124C42.3407898,44.5419922,42.2402039,44.6425781,42.1161804,44.6425781
			 M42.9970703,45.344696c-0.1231079,0-0.2236633-0.1006165-0.2236633-0.2246094
			c0-0.1230164,0.1005554-0.2236023,0.2236633-0.2236023c0.1240234,0,0.2246399,0.1005859,0.2246399,0.2236023
			C43.2217102,45.2440796,43.1210938,45.344696,42.9970703,45.344696L42.9970703,45.344696 M43.8583679,45.976593
			c-0.1229858,0-0.2235718-0.0996094-0.2235718-0.2236938c0,0,0,0,0-0.0009155c0-0.1231079,0.0996094-0.2236938,0.2235718-0.2236938
			l0,0c0.1240234,0,0.2246399,0.1005859,0.2246399,0.2236938C44.0830078,45.8759766,43.9823914,45.976593,43.8583679,45.976593
			L43.8583679,45.976593 M40.2421875,42.7089539L25.8369141,31.7470703l-0.1313171,0.1864929l14.3675842,10.9824219
			l-0.8525085,1.0664062l-14.0062866-8.983429c-3.7924805-2.3778687-3.641571-4.2440796-2.859375-6.2606812l0.6625671-1.6255188
			c0.3613281,2.1069336,2.527832,3.7026062,4.7851257,5.4780273l12.7197876,9.7714844L40.2421875,42.7089539L40.2421875,42.7089539z
			"/>
	</g>
</g>
</svg>
