<?xml version="1.0" encoding="utf-8"?>
<!-- Generator: Adobe Illustrator 22.1.0, SVG Export Plug-In . SVG Version: 6.00 Build 0)  -->
<svg version="1.1" id="Layer_1" xmlns="http://www.w3.org/2000/svg" xmlns:xlink="http://www.w3.org/1999/xlink" x="0px" y="0px"
	 viewBox="0 0 60 60" style="enable-background:new 0 0 60 60;" xml:space="preserve">
<style type="text/css">
	.st0{clip-path:url(#SVGID_2_);fill:#232F5D;}
	.st1{clip-path:url(#SVGID_2_);fill:#020203;}
	.st2{clip-path:url(#SVGID_2_);fill:#FFFFFF;}
	.st3{clip-path:url(#SVGID_5_);}
	.st4{clip-path:url(#SVGID_6_);fill:#020203;}
	.st5{clip-path:url(#SVGID_6_);fill:#C91430;}
	.st6{clip-path:url(#SVGID_8_);fill:#020203;}
	.st7{clip-path:url(#SVGID_8_);fill:#FFFFFF;}
	.st8{clip-path:url(#SVGID_8_);fill:#C91430;}
	.st9{clip-path:url(#SVGID_8_);fill:#232F5D;}
	.st10{clip-path:url(#SVGID_8_);fill:#CDCC34;}
	.st11{clip-path:url(#SVGID_8_);fill:#9EC9ED;}
	.st12{clip-path:url(#SVGID_8_);fill:#F4991A;}
</style>
<g id="XMLID_1_">
	<g>
		<defs>
			<path id="SVGID_1_" d="M59,60H0.9999695C0.4477234,60,0,59.5526733,0,59V0.9999695c0-0.5522461,0.4477234-1,0.9999695-1H59
				c0.5526886,0,0.9999847,0.4477539,0.9999847,1V59C59.9999847,59.5526733,59.5526886,60,59,60L59,60z"/>
		</defs>
		<clipPath id="SVGID_2_">
			<use xlink:href="#SVGID_1_"  style="overflow:visible;"/>
		</clipPath>
		<polygon class="st0" points="-29.2461243,0.1235352 90.5067902,0.1235352 90.5067902,60 -29.2461243,60 -29.2461243,0.1235352 		
			"/>
		<path class="st1" d="M30.6308899,0.1235352l-59.8770142,29.9379578 M-29.2461243,0.1235352l59.8770142,29.9379578"/>
		<polygon class="st2" points="29.2919922,32.7392578 0.6923523,18.4398804 -27.9072266,32.7392578 -30.585022,27.3837585 
			-6.0019836,15.092804 -30.585022,2.8012695 -27.9072266,-2.5541992 0.6923523,11.7450562 29.2919922,-2.5541992 
			31.9696655,2.8012695 7.3866882,15.092804 31.9696655,27.3837585 29.2919922,32.7392578 		"/>
	</g>
	<g>
		<defs>
			<path id="SVGID_3_" d="M30.6308899,0.1235352H0.6923523v34.9282532h-29.9384766v-4.9902954L30.6308899,0.1235352
				L30.6308899,0.1235352z M-29.2461243,0.1235352V15.092804h69.8565063v14.968689h-9.9794922L-29.2461243,0.1235352
				L-29.2461243,0.1235352z"/>
		</defs>
		<defs>
			<path id="SVGID_4_" d="M59,60H0.9999695C0.4477234,60,0,59.5526733,0,59V0.9999695c0-0.5522461,0.4477234-1,0.9999695-1H59
				c0.5526886,0,0.9999847,0.4477539,0.9999847,1V59C59.9999847,59.5526733,59.5526886,60,59,60L59,60z"/>
		</defs>
		<clipPath id="SVGID_5_">
			<use xlink:href="#SVGID_3_"  style="overflow:visible;"/>
		</clipPath>
		<clipPath id="SVGID_6_" class="st3">
			<use xlink:href="#SVGID_4_"  style="overflow:visible;"/>
		</clipPath>
		<path class="st4" d="M30.6308899,0.1235352l-59.8770142,29.9379578 M-29.2461243,0.1235352l59.8770142,29.9379578"/>
		<polygon class="st5" points="29.7382812,31.8466797 0.6923523,17.3241882 -28.3534851,31.8466797 -30.1387024,28.2763977 
			-3.7705078,15.092804 -30.1387024,1.9086609 -28.3534851,-1.6616516 0.6923523,12.8607788 29.7382812,-1.6616516 
			31.523407,1.9086609 5.1552734,15.092804 31.523407,28.2763977 29.7382812,31.8466797 		"/>
	</g>
	<g>
		<defs>
			<path id="SVGID_7_" d="M59,60H0.9999695C0.4477234,60,0,59.5526733,0,59V0.9999695c0-0.5522461,0.4477234-1,0.9999695-1H59
				c0.5526886,0,0.9999847,0.4477539,0.9999847,1V59C59.9999847,59.5526733,59.5526886,60,59,60L59,60z"/>
		</defs>
		<clipPath id="SVGID_8_">
			<use xlink:href="#SVGID_7_"  style="overflow:visible;"/>
		</clipPath>
		<path class="st6" d="M-29.2461243,15.092804h69.8565063 M0.6923523,0.1235352v34.9282532"/>
		<polygon class="st7" points="5.6821289,35.0517883 -4.2973633,35.0517883 -4.2973633,20.0820007 -29.2461243,20.0820007 
			-29.2461243,10.1029663 -4.2973633,10.1029663 -4.2973633,0.1235352 5.6821289,0.1235352 5.6821289,10.1029663 
			40.6103821,10.1029663 40.6103821,20.0820007 5.6821289,20.0820007 5.6821289,35.0517883 		"/>
		<path class="st6" d="M-29.2461243,15.092804h69.8565063 M0.6923523,0.1235352v34.9282532"/>
		<polygon class="st8" points="3.6860352,35.0517883 -2.3012695,35.0517883 -2.3012695,18.0863953 -29.2461243,18.0863953 
			-29.2461243,12.0986023 -2.3012695,12.0986023 -2.3012695,0.1235352 3.6860352,0.1235352 3.6860352,12.0986023 
			40.6103821,12.0986023 40.6103821,18.0863953 3.6860352,18.0863953 3.6860352,35.0517883 		"/>
		<polygon class="st9" points="-29.2461243,30.0614929 30.6308899,30.0614929 30.6308899,0.1235352 50.5897675,0.1235352 
			50.5897675,40.0409851 -29.2461243,40.0409851 -29.2461243,30.0614929 		"/>
		<path class="st10" d="M48.6513672,15.495575c0,14.8521118,1.1855164,20.1264954,5.2500153,24.1978149
			c4.0653992,4.0722046,5.6053925,4.7138062,6.738205,5.3378906c1.3077087-0.7197876,2.8144989-1.5108032,6.4981079-5.1954041
			c3.6445007-3.6434937,5.406189-8.8959961,5.406189-24.5942078c-2.6502991,1.1347961-3.969696,1.5087891-6.2879944,1.5024109
			c-1.7167969,0.1679993-4.3653107-0.9320984-5.9483185-1.651825c-1.03508,0.6592102-2.5360718,1.4448242-5.234375,1.5332336
			c-3.1161957,0.1304016-4.1035004-0.3731079-6.4209137-1.1299133H48.6513672L48.6513672,15.495575z"/>
		<path class="st7" d="M49.3690796,16.4335938c0,4.594696-0.2713928,10.8569031,0.699295,14.4799805
			c0.9754944,3.6391296,1.1992188,4.1723328,1.9326019,5.4418945l17.0849152-0.1269836
			c1.0556946-1.828125,1.1083832-2.9598999,1.8916016-5.8813171c0.780304-2.910675,0.976593-9.398468,1-14.2304688
			c-1.7187042,0.870575-3.9687042,1.4872742-6.152298,1.2167664c-1.7500153-0.1273804-3.3682098-0.5083008-5.2520142-1.523407
			c-1.6336823,0.9336243-2.2030945,1.359314-4.9012756,1.4687195
			C53.5712891,17.3774109,51.8690796,17.5395813,49.3690796,16.4335938L49.3690796,16.4335938L49.3690796,16.4335938z"/>
		<path class="st11" d="M52.0370941,36.2548828c1.2167969,2.4394226,6.9491882,7.1152039,8.6260071,8.0829773
			c1.9130859-1.1044922,6.9706879-5.7245789,8.3798828-8.0829773H52.0370941L52.0370941,36.2548828L52.0370941,36.2548828z"/>
		<path class="st12" d="M56.661087,28.3759766c0.871109-1.0215149,1.3027954-3.1065063,1.6884918-3.8139954
			c0.8905945,0.2046204,0.8809052,0.3399048,1.9736176-0.2958984c-1.4677124-0.3973999-1.5781097-0.3623047-1.7470093-1.0083008
			c0.6172028-1.9111023,4-2.3008118,5.184494-1.574707c1.2266083,0.7055969,0.4473114,0.8579102,2.124115,1.9960938
			c0.2430878-1.0316772-0.9444122-1.4872742-1.121109-2.2582703c0.2518921-0.5952148,1.3798981-0.473114,2.0039062-1.1509094
			c-0.3897095-0.5643921-1.6094055,0.1411133-2.1426086,0.2328796c-1.914093,0.4082336-4.5282898-1.6161804-6.1366882-0.9759827
			c-0.5762024-0.414093-0.6944122-1.0581055-0.6708984-1.9268188c-1.2528992,1.0576172-0.6260071,2.1533203-0.9111023,2.6753235
			c-0.7383118,1.2720032-1.6797028,2.5444031-1.1807251,4.2157898c0.3789368,1.269104,0.6611176,1.0175781,0.5439301,2.0126953
			C56.1493835,27.1464539,56.2129059,28.8842773,56.661087,28.3759766L56.661087,28.3759766L56.661087,28.3759766z"/>
		<path class="st12" d="M63.7382812,29.0937805c-1.3671875-0.1821899-3.4618835,0.5438843-4.2968903,0.5957031
			c-0.277298-0.8330994-0.1504211-0.8955994-1.2861023-1.4575806c0.402298,1.4023743,0.4911804,1.4745789-0.0019989,1.9462585
			c-2.0341949,0.4859314-4.1337891-2.0726929-4.0957031-3.4154968c0-1.3652039,0.5400848-0.808075,0.6934052-2.7650757
			c-1.0517883,0.3348999-0.8467102,1.5394897-1.4472961,2.0830078c-0.6641083,0.1019897-1.1387177-0.881897-2.0693054-1.0401001
			c-0.3057098,0.6098938,0.9590149,1.2402649,1.3173981,1.6279907c1.3563843,1.3500977,0.8915863,4.5307007,2.2978058,5.5111694
			c-0.0732117,0.6846313-0.589798,1.1152344-1.3818054,1.5449219c1.5976105,0.4756165,2.2567902-0.602478,2.8729858-0.6405945
			c1.5234985-0.0556946,3.1524048,0.0546875,4.3946075-1.217804c0.9432983-0.9653015,0.5711975-1.0658875,1.5252991-1.4844055
			C62.8993835,30.1470032,64.4267883,29.1962891,63.7382812,29.0937805L63.7382812,29.0937805L63.7382812,29.0937805z"/>
		<path class="st7" d="M56.0019989,24.8129578c-0.0733032-0.1313782-0.0205994-0.2943726,0.1170959-0.3637695
			c0.1376953-0.0693054,0.3085785-0.0190125,0.3818817,0.1123047c0.0722198,0.1313782,0.019516,0.2939758-0.1181793,0.3638
			C56.2451019,24.9945984,56.074173,24.9442749,56.0019989,24.8129578L56.0019989,24.8129578z"/>
	</g>
</g>
</svg>
