<?xml version="1.0" encoding="utf-8"?>
<!-- Generator: Adobe Illustrator 22.1.0, SVG Export Plug-In . SVG Version: 6.00 Build 0)  -->
<svg version="1.1" id="Layer_1" xmlns="http://www.w3.org/2000/svg" xmlns:xlink="http://www.w3.org/1999/xlink" x="0px" y="0px"
	 viewBox="0 0 60 60" style="enable-background:new 0 0 60 60;" xml:space="preserve">
<style type="text/css">
	.st0{clip-path:url(#SVGID_2_);fill:#FFFFFF;}
	.st1{clip-path:url(#SVGID_2_);fill:#020203;}
	.st2{clip-path:url(#SVGID_2_);fill:#FDD21A;}
	.st3{clip-path:url(#SVGID_2_);fill:#1F71B8;}
	.st4{clip-path:url(#SVGID_2_);fill:#CE1327;}
</style>
<g id="XMLID_1_">
	<g>
		<defs>
			<path id="SVGID_1_" d="M59,60H0.9999695C0.4477234,60,0,59.5526733,0,59V0.9999695c0-0.5522461,0.4477234-1,0.9999695-1H59
				c0.5526886,0,0.9999847,0.4477539,0.9999847,1V59C59.9999847,59.5526733,59.5526886,60,59,60L59,60z"/>
		</defs>
		<clipPath id="SVGID_2_">
			<use xlink:href="#SVGID_1_"  style="overflow:visible;"/>
		</clipPath>
		<polygon class="st0" points="-15.2485046,-0.1655579 75.2479858,-0.1655579 75.2479858,60.1659851 -15.2485046,60.1659851 
			-15.2485046,-0.1655579 		"/>
		<polygon class="st1" points="-15.2485046,-0.1655579 75.2479858,-0.1655579 75.2479858,29.9999695 -15.2485046,29.9999695 
			-15.2485046,-0.1655579 		"/>
		<polygon class="st2" points="10.3266907,23.4423828 30,19.6767883 30,27.207489 10.3266907,23.4423828 		"/>
		<polygon class="st2" points="11.8241882,15.9135742 31.4414062,19.9633789 28.559082,26.9208679 11.8241882,15.9135742 		"/>
		<polygon class="st2" points="16.0888977,9.5312195 32.6620789,20.7797852 27.3374023,26.1049805 16.0888977,9.5312195 		"/>
		<polygon class="st2" points="22.4711914,5.2666016 33.4784851,22.0014648 26.5209961,24.8832703 22.4711914,5.2666016 		"/>
		<polygon class="st2" points="30,3.7690125 33.765564,23.4423828 26.2344055,23.4423828 30,3.7690125 		"/>
		<polygon class="st2" points="37.5282898,5.2666016 33.4784851,24.8832703 26.5209961,22.0014648 37.5282898,5.2666016 		"/>
		<polygon class="st2" points="43.9110718,9.5312195 32.6620789,26.1049805 27.3374023,20.7797852 43.9110718,9.5312195 		"/>
		<polygon class="st2" points="48.1758118,15.9135742 31.4414062,26.9208679 28.559082,19.9633789 48.1758118,15.9135742 		"/>
		<polygon class="st2" points="49.6729126,23.4423828 30,27.207489 30,19.6767883 49.6729126,23.4423828 		"/>
		<polygon class="st3" points="-15.2485046,23.4423828 75.2479858,23.4423828 75.2479858,36.5575867 -15.2485046,36.5575867 
			-15.2485046,23.4423828 		"/>
		<polygon class="st4" points="-15.2485046,-0.1655579 -15.2485046,60.1659851 75.2479858,60.1659851 75.2479858,-0.1655579 
			30,60.1659851 -15.2485046,-0.1655579 		"/>
	</g>
</g>
</svg>
