<?xml version="1.0" encoding="utf-8"?>
<!-- Generator: Adobe Illustrator 22.1.0, SVG Export Plug-In . SVG Version: 6.00 Build 0)  -->
<svg version="1.1" id="Layer_1" xmlns="http://www.w3.org/2000/svg" xmlns:xlink="http://www.w3.org/1999/xlink" x="0px" y="0px"
	 viewBox="0 0 60 60" style="enable-background:new 0 0 60 60;" xml:space="preserve">
<style type="text/css">
	.st0{clip-path:url(#SVGID_2_);fill:#75ACDE;}
	.st1{clip-path:url(#SVGID_2_);fill:#FFFFFF;}
	.st2{fill:#F7B512;}
	.st3{fill:#853512;}
	.st4{fill:#853612;}
</style>
<g id="XMLID_1_">
	<g>
		<defs>
			<path id="SVGID_1_" d="M59,60H0.9999695C0.4477234,60,0,59.5526733,0,59V0.9999695c0-0.5522461,0.4477234-1,0.9999695-1H59
				c0.5526886,0,0.9999847,0.4477539,0.9999847,1V59C59.9999847,59.5526733,59.5526886,60,59,60L59,60z"/>
		</defs>
		<clipPath id="SVGID_2_">
			<use xlink:href="#SVGID_1_"  style="overflow:visible;"/>
		</clipPath>
		<polygon class="st0" points="59.9999847,60.0116882 0,60.0116882 0,40.0048828 59.9999847,40.0048828 59.9999847,60.0116882 		"/>
		<polygon class="st1" points="59.9999847,40.0028687 0,40.0028687 0,19.996582 59.9999847,19.996582 59.9999847,40.0028687 		"/>
		<polygon class="st0" points="59.9999847,20.0068054 0,20.0068054 0,-0.0000305 59.9999847,-0.0000305 59.9999847,20.0068054 		"/>
	</g>
	<path class="st2" d="M30.2973938,32.7382812c-0.0415039,1.1318054,0.6546936,1.7549133,0.563385,2.7655945
		c-0.0907898,1.0107117,0.464386,1.5820007,0.5932922,1.9746094c0.1289062,0.3935852-0.1395874,0.6278992-0.023407,0.6846008
		c0.1152344,0.0556946,0.3681335-0.2549133,0.2851257-0.8135071c-0.0820007-0.5585938-0.5057983-0.7246094-0.406189-1.9589844
		c0.0996094-1.234314-0.5049133-1.5224304-0.3579102-2.6484375 M29.6206055,30.157196l3.4154663,7.4414062
		c0,0,0.0585938,0.1425781,0.1543274,0.1034851c0.0947876-0.0390015,0.0351868-0.1816101,0.0351868-0.1816101l-2.8467102-7.6772156"
		/>
	<path class="st3" d="M31.4599915,38.2362671c-0.0253906,0-0.0458984-0.0068054-0.0586243-0.0135803
		c-0.101593-0.0488892-0.0644836-0.1572876-0.0351868-0.2431946c0.0391235-0.1152039,0.092804-0.2724915,0.0244141-0.4804993
		c-0.0332031-0.0996094-0.0967102-0.2158203-0.170929-0.3496094c-0.2079773-0.3768921-0.4935913-0.8934937-0.4252625-1.6523132
		c0.0444641-0.4911804-0.1035156-0.8887024-0.2602234-1.3105774c-0.1596985-0.4287109-0.3246765-0.8720093-0.3036804-1.4501953
		l0.1337891,0.0048828c-0.0205078,0.5508118,0.1396179,0.9824219,0.2949219,1.3993835
		c0.1620789,0.4356079,0.3153687,0.8477173,0.2679749,1.3692322c-0.0643921,0.7176819,0.2095032,1.2128906,0.4087219,1.5751953
		c0.078186,0.1395874,0.1445618,0.2606812,0.1817017,0.3729858c0.0820007,0.25,0.0176086,0.4395142-0.0254211,0.5645142
		c-0.0088196,0.0253906-0.0195007,0.0575867-0.023407,0.078064c0.0086975-0.0038757,0.023407-0.0116882,0.0419006-0.0292969
		c0.0791016-0.0780945,0.1983032-0.3144531,0.1397095-0.7118835c-0.0264282-0.1806946-0.0899048-0.3154907-0.1631165-0.4717102
		c-0.1454773-0.3144836-0.3114929-0.6698914-0.2441101-1.5028992c0.047821-0.5995789-0.0742798-0.9726868-0.1913757-1.3320923
		c-0.1026001-0.3124695-0.2006836-0.6102905-0.1895142-1.0301819l-1.3021851-2.8374023l0.1210938-0.0556946l1.2021179,2.6195679
		c0.0009766-0.0048828,0.0014954-0.0106812,0.0019836-0.0155945l0.1322937,0.0176086
		c-0.0108032,0.085907-0.0180969,0.1679077-0.0209961,0.2441101l2.1001282,4.5762024
		c0.0067749,0.0145874,0.0409851,0.0791016,0.0673828,0.0693054c0.0067749-0.0029297,0.0088196-0.0058289,0.0096741-0.0087891
		c0.0088196-0.0214233-0.0018616-0.0673218-0.0096741-0.085907l-2.8476868-7.679718l0.1254883-0.0463867l2.8471985,7.6772766
		c0.0028992,0.0087891,0.0409851,0.1064148,0.0087891,0.1855164c-0.0157166,0.0371094-0.0440063,0.0653992-0.0820923,0.0810852
		c-0.0664062,0.0273132-0.1347046,0.0078125-0.1885071-0.0546875c-0.0332031-0.0381165-0.0506897-0.0801086-0.0527039-0.085022
		l-1.9638977-4.2782898c0.0293274,0.2451172,0.0976868,0.4522095,0.1670227,0.6660156
		c0.1220703,0.3721008,0.2490845,0.756897,0.1982727,1.3837891c-0.0644836,0.7978821,0.0937195,1.1367188,0.2324219,1.4356079
		c0.0741882,0.1591187,0.1444702,0.3094788,0.1737671,0.5086975c0.0645142,0.4335938-0.0653687,0.7471008-0.211853,0.8554993
		C31.5272827,38.2265625,31.4902039,38.2362671,31.4599915,38.2362671L31.4599915,38.2362671z"/>
	<path class="st2" d="M29.226593,32.6435852c-0.4711914,1.0302124-0.0664062,1.8710022-0.5371094,2.7704773
		c-0.4706726,0.8994141-0.1768188,1.6396179-0.2080994,2.0517273c-0.0317078,0.4121094-0.3691101,0.5273743-0.2835999,0.6230774
		c0.0854187,0.0957336,0.4375-0.0947876,0.5751038-0.6425781c0.1376953-0.5479126-0.1903992-0.8633118,0.3740845-1.9649048
		c0.5644226-1.1025085,0.1156921-1.5995789,0.6826172-2.5839233 M29.589386,29.9999695l0.3081055,8.1826172
		c0,0-0.0005188,0.1542969,0.1025085,0.1542969c0.1025085,0,0.1025085-0.1542969,0.1025085-0.1542969l0.3076782-8.1826172"/>
	<path class="st3" d="M30,38.4032898c-0.1166992,0-0.1694031-0.1141968-0.1694031-0.2207031l-0.1773071-4.7050781
		c-0.0663757,0.2382812-0.0830078,0.4550781-0.1000977,0.6796875c-0.0292969,0.390686-0.0599976,0.7939758-0.3467102,1.3544922
		c-0.3651733,0.7118835-0.3486023,1.085968-0.3343811,1.4151001c0.007782,0.1747742,0.0145874,0.3407898-0.0342102,0.5361023
		c-0.1069031,0.4247742-0.3461914,0.6659851-0.523407,0.7089844c-0.0942993,0.023407-0.1451111-0.0147095-0.1665955-0.039093
		c-0.0751038-0.0840149,0-0.1689148,0.0606079-0.2382812c0.0800781-0.0908203,0.1893921-0.2158203,0.2065125-0.4336243
		c0.0078735-0.1053772-0.0068359-0.2362976-0.0239258-0.3895874c-0.0483093-0.4277039-0.1141968-1.0137024,0.2393188-1.6885071
		c0.2290039-0.4364929,0.2440796-0.8612976,0.2607117-1.3105164c0.0170593-0.4570618,0.0341797-0.9306946,0.2748718-1.4560852
		l0.121582,0.0556946c-0.2299805,0.5010071-0.246582,0.960907-0.2631531,1.4052124
		c-0.0166321,0.4649048-0.0327454,0.9042969-0.2759399,1.3681946c-0.3343811,0.6387024-0.2713928,1.2012024-0.2250671,1.6112976
		c0.0180664,0.1592102,0.0331726,0.2969055,0.0244751,0.414093c-0.0200806,0.2627258-0.151886,0.4130859-0.2392883,0.5117188
		c-0.0176086,0.0205078-0.0405273,0.0469055-0.0517883,0.0634766c0.0102844,0.0020142,0.0263977-0.0019836,0.050293-0.0106812
		c0.1030884-0.0411072,0.3032837-0.2149048,0.4013977-0.6045227c0.0443726-0.1767883,0.0375977-0.3262024,0.030304-0.4980774
		c-0.0152283-0.3457031-0.0323181-0.7383118,0.3486023-1.4824219c0.2743835-0.5351868,0.3041687-0.9257812,0.3329773-1.3036804
		c0.0249023-0.327179,0.0487976-0.6405945,0.219696-1.0243835l-0.1175842-3.1197205l0.1333008-0.0047913l0.1083984,2.8802795
		c0.0028992-0.0048828,0.0052795-0.0087891,0.0078125-0.0135803l0.1156921,0.0663757
		c-0.0435181,0.0761108-0.0810852,0.148407-0.1132812,0.2187195l0.1894836,5.0302734
		c0,0.0166321,0.0072937,0.0898438,0.0361023,0.0898438c0.0048828,0,0.015564,0,0.0263977-0.0312195
		c0.0087891-0.0263977,0.0091858-0.0556946,0.0091858-0.0556946l0.308197-8.1849976l0.1333008,0.0047913l-0.308197,8.1831055
		c0,0.0020142-0.0003967,0.0478821-0.0160828,0.0947876C30.1269836,38.3583679,30.0712891,38.4032898,30,38.4032898L30,38.4032898z"
		/>
	<path class="st2" d="M28.2738647,32.1464844c-0.8295898,0.7714844-0.777771,1.7030945-1.5565796,2.3534851
		s-0.7904968,1.4472961-0.9776001,1.8164062c-0.1864929,0.3691101-0.5423889,0.3457031-0.5003967,0.4667969
		c0.0424194,0.1211243,0.440918,0.0810852,0.7772827-0.3730164c0.3369141-0.453186,0.1543274-0.8701477,1.0977173-1.6728821
		c0.9432983-0.8027039,0.7192078-1.4335938,1.6195984-2.125 M29.6206055,29.8427734l-2.8467407,7.6777039
		c0,0-0.059082,0.1416016,0.0357361,0.1816101c0.0946655,0.039093,0.1538086-0.1034851,0.1538086-0.1034851l3.4154663-7.4414062"/>
	<path class="st3" d="M26.8422852,37.7753601c-0.0194702,0-0.0391235-0.0038757-0.0585938-0.0116882
		c-0.1073914-0.0448914-0.1123047-0.1708679-0.0718079-0.2685852l1.6366882-4.4140015
		c-0.1522827,0.1942749-0.2504883,0.3876953-0.3519897,0.5888062c-0.1768188,0.3496094-0.3598938,0.7109985-0.8388977,1.1181946
		c-0.6098022,0.5184937-0.737793,0.8700867-0.8505859,1.1796875c-0.0599976,0.1650085-0.1166992,0.3203125-0.2368164,0.4824219
		c-0.2616882,0.351593-0.5746765,0.4833984-0.7548828,0.4550781c-0.0957336-0.014679-0.128418-0.069397-0.1390991-0.1005859
		c-0.0367126-0.1054993,0.0653687-0.156311,0.1473694-0.1962891c0.1089172-0.0537109,0.2578125-0.1270142,0.3565369-0.3222961
		c0.04776-0.0937195,0.0843811-0.2207336,0.1268616-0.3681335c0.1192322-0.414093,0.2827148-0.9804993,0.867218-1.4687805
		c0.3789062-0.3164062,0.5557251-0.7021179,0.7427063-1.1112976c0.190918-0.4160156,0.3876953-0.8467102,0.8114929-1.2402344
		l0.0907898,0.0976257c-0.4042969,0.3760071-0.5956726,0.7940063-0.7807007,1.1983032
		c-0.1938782,0.4227905-0.3764954,0.8222046-0.7782898,1.1582031c-0.5538025,0.4618835-0.7105103,1.0057983-0.8251953,1.4032898
		c-0.0439758,0.1532898-0.0826111,0.2861023-0.1358032,0.3916016c-0.1190796,0.2344055-0.2977905,0.3232117-0.4164734,0.3807983
		c-0.0244141,0.0127258-0.0552368,0.0274048-0.0723267,0.0391235c0.0087891,0.0038757,0.0245056,0.007782,0.0508118,0.0087891
		c0.0010071,0,0.0019836,0,0.0029907,0c0.1123047,0,0.3612976-0.0849915,0.5990906-0.405304
		c0.1083984-0.1455078,0.1592102-0.2861023,0.2182007-0.4482117c0.1187134-0.3251953,0.2530212-0.6933899,0.8897095-1.2353821
		c0.4584961-0.390625,0.6351929-0.7392273,0.8061218-1.0771179c0.1489563-0.2939758,0.2905884-0.5733032,0.5952759-0.8622742
		l1.0853882-2.9273071l0.125,0.0463867l-1.0018921,2.7022095c0.0039062-0.0029907,0.0078125-0.0058899,0.012207-0.0097961
		l0.0809937,0.1063843c-0.0687866,0.0528259-0.1313171,0.1054993-0.1879883,0.1582031l-1.75,4.7207031
		c-0.0062866,0.014679-0.0278015,0.0849915-0.0014038,0.0967102c0.0258179,0.0116882,0.0610046-0.054718,0.0663757-0.0674133
		l3.4170227-7.4437866l0.1211243,0.0556946l-3.4156189,7.4418945c-0.0033875,0.0086975-0.0449219,0.1044006-0.125,0.1366882
		C26.8804016,37.7714844,26.8612976,37.7753601,26.8422852,37.7753601L26.8422852,37.7753601z"/>
	<path class="st2" d="M27.5834961,31.3231812c-1.0615234,0.3945923-1.3700867,1.2754211-2.3384094,1.578186
		c-0.9687195,0.3027344-1.2842102,1.0341187-1.5980835,1.3037109c-0.3140259,0.2695007-0.6338196,0.1123047-0.6411133,0.2402039
		c-0.0074158,0.1278992,0.3764038,0.2431946,0.8608093-0.0469055c0.4848938-0.2900085,0.4755859-0.7460938,1.6542969-1.1259155
		c1.1787109-0.3798828,1.2128906-1.0488586,2.3096008-1.3437805 M29.7094727,29.7094727l-5.5683899,6.0033875
		c0,0-0.1088867,0.1094055-0.0361023,0.1816406c0.0722046,0.0732727,0.1811218-0.0361023,0.1811218-0.0361023l6.0039062-5.5683899"
		/>
	<path class="st3" d="M24.1635742,35.9862671c-0.0401001,0-0.0762024-0.0145874-0.1059875-0.0448914
		c-0.0820007-0.0820007-0.0386047-0.2001953,0.0365906-0.2753906l3.2017212-3.4520874
		c-0.2153015,0.1219788-0.3804016,0.2635803-0.5508118,0.4090881c-0.2972717,0.2558899-0.6049805,0.5195923-1.2036133,0.7128906
		c-0.7616882,0.2461243-1.0141907,0.5215149-1.2367859,0.7647095c-0.1186829,0.1289062-0.2309875,0.2510071-0.4038086,0.3544922
		c-0.3760071,0.2256165-0.7153931,0.2265015-0.8710938,0.1318054c-0.0829773-0.0508118-0.0923157-0.1132812-0.090271-0.1455078
		c0.0062866-0.1122742,0.1200867-0.1201172,0.2113647-0.1259766c0.1211243-0.0078125,0.2866211-0.0184937,0.4526062-0.1611328
		c0.0795898-0.0683899,0.1625977-0.1719055,0.2583008-0.2919922c0.2686157-0.3358765,0.6362-0.7969055,1.3633118-1.0243835
		c0.4706726-0.147522,0.7817078-0.4364929,1.1112976-0.742218c0.3355103-0.3114929,0.6821899-0.6337891,1.2240906-0.8349915
		l0.0463867,0.125c-0.5170898,0.1914062-0.8539734,0.5048828-1.1796875,0.8077087
		c-0.3407898,0.3164062-0.6625977,0.6152039-1.1625977,0.7713928c-0.6878967,0.2159119-1.0410156,0.6582031-1.2987976,0.9804993
		c-0.0996094,0.1260071-0.1860046,0.2333984-0.2754211,0.3106079c-0.1996765,0.1717834-0.3988953,0.1845093-0.5306702,0.1932983
		c-0.026886,0.0009766-0.061615,0.0039062-0.0816345,0.007782c0.0064392,0.0069275,0.0196228,0.0166321,0.0435181,0.0274353
		c0.1015015,0.0438843,0.3662109,0.0624695,0.710907-0.1436157c0.156311-0.093689,0.256897-0.203125,0.3735962-0.3309937
		c0.2337952-0.2549133,0.4989929-0.5440063,1.2944031-0.8008118c0.5731812-0.1846008,0.8700867-0.4403992,1.1576843-0.6865234
		c0.2495117-0.2148743,0.4873047-0.4189758,0.8799133-0.5693665l2.1224976-2.2885132l0.0977173,0.0903015l-1.9595032,2.1133118
		c0.0048828-0.0010071,0.0097961-0.0029907,0.014679-0.0039062l0.0346069,0.1288757
		c-0.0843811,0.0224304-0.1621094,0.047821-0.2342834,0.0742188l-3.4234009,3.6914062
		c-0.0112,0.0106812-0.0585938,0.0682983-0.0381165,0.0888672c0.0196228,0.0205078,0.0772095-0.0273743,0.0870056-0.0361633
		l6.0053101-5.5703125l0.0907898,0.0977173l-6.0039062,5.5682678c-0.0014038,0.0020142-0.0340881,0.0342102-0.0791016,0.0567322
		C24.222168,35.9784851,24.1918945,35.9862671,24.1635742,35.9862671L24.1635742,35.9862671z"/>
	<path class="st3" d="M29.8104858,30.0897827l2.3388977,5.1113892l-1.9598999-5.2685852 M30.5175781,32.9306641
		c0.0541992,1.0869141,0.6708984,1.5673218,0.5498047,2.5586243c0.265625-0.7832031-0.3754883-1.390686-0.3388977-2.5479126"/>
	<path class="st3" d="M29.7904968,30.0102844l0.2051086,5.6176147l0.2051086-5.6176147 M29.3563843,32.905304
		c-0.3652039,1.0253906,0.0196228,1.7050781-0.4710693,2.5741882c0.5453796-0.6221008,0.1854553-1.4277344,0.6620789-2.4833984"/>
	<path class="st3" d="M29.8021851,29.9291687l-1.9598999,5.2680969l2.339325-5.1113892 M28.2938843,32.4374695
		c-0.7298889,0.8076172-0.6346741,1.5830078-1.4208984,2.1982117c0.7416992-0.3662109,0.7182922-1.2480164,1.5621033-2.0409851"/>
	<path class="st3" d="M29.844696,29.8588867l-3.8271179,4.1177063l4.117218-3.8277283 M27.4906921,31.5995789
		c-0.983429,0.4658203-1.1918945,1.219696-2.1532898,1.4862976c0.8251953-0.0536804,1.1410828-0.8778992,2.2236023-1.2870789"/>
	<path class="st2" d="M27.2612,30.2973633c-1.1312866-0.0414734-1.7539062,0.6547241-2.7645874,0.5634155
		c-1.0108032-0.0907898-1.5820007,0.464386-1.9751282,0.5932922c-0.3930969,0.1289062-0.628418-0.1395874-0.6841125-0.023407
		c-0.0560913,0.1152344,0.254425,0.3681335,0.8135376,0.2851257c0.5585938-0.0820007,0.7245789-0.5058289,1.9589844-0.4062195
		c1.234314,0.0996094,1.5218811-0.5048828,2.6479187-0.3578796 M29.8427734,29.620575l-7.4418945,3.4154968
		c0,0-0.1420898,0.0585938-0.1029663,0.1543274c0.0389709,0.0947876,0.1815796,0.0351562,0.1815796,0.0351562l7.6772156-2.8466797"
		/>
	<path class="st3" d="M22.3905945,33.3104858c-0.0737,0-0.1293945-0.0341187-0.1542969-0.094696
		c-0.0444031-0.1074219,0.0409851-0.2002258,0.1391907-0.2412109l4.2788086-1.9638977
		c-0.2456055,0.0293274-0.4522095,0.0976868-0.6655273,0.1670227c-0.3725891,0.1220703-0.7573853,0.249054-1.3842773,0.1982727
		c-0.7973938-0.0644836-1.1367188,0.0937195-1.4356079,0.2323914c-0.1590881,0.0742188-0.3094788,0.1445007-0.5086975,0.1737976
		c-0.4335938,0.0645142-0.7475891-0.0653992-0.855011-0.2118835c-0.0575867-0.0780945-0.042511-0.1396179-0.0278931-0.1689148
		c0.0489197-0.101593,0.1567993-0.0644836,0.2437134-0.0351868c0.1146851,0.0391235,0.2719727,0.0927734,0.4794922,0.0244141
		c0.1000977-0.0332031,0.2157898-0.0967102,0.3500977-0.170929c0.3768921-0.2079773,0.8926086-0.4935913,1.651825-0.4252625
		c0.4916687,0.0444641,0.889679-0.1035156,1.3110962-0.2602234c0.4286804-0.1596985,0.8719788-0.3232727,1.4501953-0.3036804
		l-0.0049133,0.1337891c-0.5508118-0.0205078-0.9819031,0.1395874-1.3988953,0.2948914
		c-0.4360962,0.1621094-0.8476868,0.3149109-1.3692017,0.2680054c-0.7182007-0.0644226-1.2134094,0.2095032-1.5752258,0.4087219
		c-0.1405945,0.078186-0.2616577,0.1445618-0.3734741,0.1816711c-0.25,0.0820007-0.4395142,0.0176086-0.5645142-0.0253906
		c-0.0253906-0.0088196-0.0581055-0.0195007-0.078064-0.023407c0.0033875,0.0086975,0.0116882,0.023407,0.0297852,0.0419006
		c0.0770874,0.0791016,0.3145142,0.1983032,0.7118835,0.1397095c0.179718-0.0264282,0.3150024-0.0899048,0.4717102-0.1631165
		c0.3135071-0.1455078,0.6684875-0.3114929,1.5024109-0.2441101c0.6000671,0.047821,0.972168-0.0742798,1.3320923-0.1914062
		c0.3124695-0.1025696,0.6107788-0.2001648,1.0307007-0.1894836l2.8368835-1.3021851l0.0556946,0.1210938l-2.6191101,1.2020874
		c0.0048218,0.0010071,0.0097351,0.0014954,0.0146179,0.0020142l-0.0170898,0.1322937
		c-0.0863953-0.0108032-0.167511-0.0180969-0.2445984-0.0209961l-4.5757141,2.1000977
		c-0.0145874,0.0068054-0.0801086,0.0409851-0.0692749,0.0682983c0.0018921,0.0039062,0.0057983,0.0137024,0.0389709,0.0118103
		c0.0284119-0.0020142,0.0552063-0.0127258,0.0552063-0.0127258l7.6802063-2.8476868l0.0464172,0.1255188l-7.6778259,2.8471985
		c-0.0023804,0-0.0444031,0.0174866-0.0942078,0.0213928C22.401886,33.3104858,22.3959961,33.3104858,22.3905945,33.3104858
		L22.3905945,33.3104858z"/>
	<path class="st2" d="M27.3559875,29.2265625c-1.0297852-0.4711609-1.8710938-0.0663757-2.7700806-0.5370789
		c-0.8989258-0.4707031-1.6390991-0.1768188-2.0517273-0.2080994c-0.4125977-0.0317078-0.5269165-0.3691101-0.6230774-0.2835999
		c-0.0957336,0.0853882,0.0942993,0.4375,0.6420898,0.5751038c0.5479126,0.1376953,0.8632812-0.1903992,1.9657898,0.3740845
		c1.1026306,0.5644226,1.5992126,0.1156921,2.5835266,0.6826172 M30,29.589386l-8.1825867,0.308075
		c0,0-0.1538086-0.0004883-0.1538086,0.1025085c-0.0005188,0.1025391,0.1538086,0.1025391,0.1538086,0.1025391L30,30.4101562"/>
	<path class="st3" d="M29.9975891,30.4770813l-8.1827087-0.308197c-0.0009155-0.0004272-0.0477905,0-0.0956726-0.0160828
		c-0.078125-0.0258179-0.1225281-0.0815125-0.1225281-0.1533203c0-0.1161804,0.1141968-0.1688843,0.2207336-0.1688843l0,0
		l4.7045593-0.1773071c-0.237793-0.0664062-0.4545898-0.0830078-0.6786804-0.1000977
		c-0.3907166-0.0292969-0.7950134-0.0600281-1.3545227-0.3467102c-0.7128601-0.3652039-1.085968-0.3490906-1.4155884-0.3344116
		c-0.175293,0.0078125-0.3407898,0.0151062-0.5361023-0.0341797c-0.425293-0.1069031-0.6654663-0.3461914-0.7089844-0.523407
		c-0.023407-0.0942993,0.0141907-0.1451111,0.039093-0.1665955c0.0840149-0.074707,0.1694031,0,0.2382812,0.0605774
		c0.0908203,0.0801086,0.2158203,0.1894226,0.4336243,0.206543c0.1048889,0.0078735,0.2367859-0.0068359,0.3890991-0.0239258
		c0.4277954-0.0483093,1.0137024-0.1141968,1.6885071,0.2392883c0.4374695,0.2290344,0.8617859,0.2441101,1.3110046,0.2607117
		c0.4575806,0.0170898,0.9302063,0.0342102,1.4560852,0.2749023l-0.0556946,0.121582
		c-0.5014038-0.2299805-0.960907-0.246582-1.4052124-0.2631836c-0.4649048-0.0166016-0.9039001-0.0327148-1.3676758-0.2759094
		c-0.6387024-0.3343811-1.2012024-0.2709961-1.6118164-0.2250671c-0.1591797,0.0180664-0.2963867,0.0331726-0.414093,0.0244751
		c-0.2627258-0.0200806-0.4125977-0.1519165-0.512207-0.2392883c-0.0200195-0.0176086-0.0458984-0.0405273-0.0629883-0.0517883
		c0,0.0097656,0.0014954,0.0258789,0.0112,0.050293c0.0409851,0.1030884,0.214386,0.3032837,0.6039734,0.4013977
		c0.1768188,0.0443726,0.3257141,0.0380859,0.4985962,0.0302734c0.3457031-0.0151978,0.7378235-0.0322876,1.4814148,0.3486023
		c0.5361023,0.2744141,0.9263,0.3041992,1.3041992,0.3330078c0.3277283,0.0249023,0.6405945,0.0487976,1.0243835,0.219696
		l3.1197205-0.1176147l0.0047913,0.1333008l-2.8797913,0.1083984c0.0043945,0.0028992,0.0086975,0.0053101,0.013092,0.007843
		l-0.0668945,0.1156921c-0.0751038-0.0435181-0.1478882-0.0810852-0.2176819-0.1133118l-5.0313416,0.1895142
		c-0.015564,0-0.0897827,0.0072937-0.0897827,0.0360718c0,0.0049133,0,0.0155945,0.031189,0.0263977
		c0.0274353,0.0087891,0.0557251,0.0092163,0.0562439,0.0092163l8.184967,0.308197L29.9975891,30.4770813L29.9975891,30.4770813z"/>
	<path class="st2" d="M27.8529968,28.2738647c-0.7705078-0.8295898-1.703125-0.777771-2.3535156-1.5566101
		c-0.6503906-0.7787781-1.4467773-0.7904663-1.8158875-0.9775696c-0.3690796-0.1864929-0.3457031-0.5423889-0.4667969-0.5004272
		c-0.1216125,0.04245-0.0805969,0.440918,0.3729858,0.7773132c0.4532166,0.3369141,0.8706055,0.1542969,1.6729126,1.0976868
		c0.8021851,0.9433289,1.4331055,0.7192078,2.1255188,1.6196289 M30.157196,29.620575l-7.6777039-2.8467102
		c0,0-0.1420898-0.059082-0.1815796,0.0357056c-0.0391235,0.094696,0.1029663,0.1538086,0.1029663,0.1538086l7.4418945,3.4154968"/>
	<path class="st3" d="M29.8148804,30.4394836l-7.4418945-3.4155884c-0.0083008-0.003418-0.1040039-0.0449219-0.137207-0.125
		c-0.0155945-0.0371094-0.0151062-0.0771179,0.0005188-0.1152039c0.0449829-0.1074219,0.1708679-0.1123047,0.2690735-0.0718079
		l4.414032,1.6366882c-0.1943054-0.1522827-0.388092-0.2504883-0.5888062-0.3519897
		c-0.3496094-0.1768188-0.7110291-0.3598938-1.1187134-0.8388977c-0.5189819-0.6098022-0.8695984-0.737793-1.1796875-0.8505859
		c-0.1650085-0.0600281-0.3208008-0.1166992-0.4824219-0.2368164c-0.3519897-0.2612-0.4823914-0.574707-0.4550781-0.7548828
		c0.0151978-0.0957336,0.069397-0.128418,0.1000977-0.1391296c0.1065063-0.0366821,0.1567993,0.0653992,0.1967773,0.1473999
		c0.0537109,0.1089172,0.1270142,0.2578125,0.3222961,0.3565063c0.0937195,0.0477905,0.2212219,0.0844116,0.3686218,0.1268921
		c0.4136047,0.1192017,0.980011,0.2827148,1.4682922,0.867218c0.3164062,0.3789062,0.7021179,0.5556946,1.1112976,0.7427063
		c0.4160156,0.1908875,0.8462219,0.3876953,1.2398071,0.8114929l-0.0976868,0.0907898
		c-0.3755188-0.4042969-0.7935181-0.5956726-1.1978149-0.7807007c-0.4227905-0.1938782-0.8221741-0.3764954-1.1582031-0.7782898
		c-0.4618835-0.5538025-1.0057678-0.7105103-1.402771-0.8252258c-0.1538086-0.0439758-0.2866211-0.0825806-0.3921204-0.1357727
		c-0.2348022-0.1191101-0.3226929-0.2983093-0.3812866-0.4165039c-0.0116882-0.0243835-0.0269165-0.0552063-0.0386353-0.0722961
		c-0.0033875,0.0087891-0.0082703,0.0245056-0.0087891,0.0503235c-0.0014954,0.1108704,0.0820007,0.3627625,0.4048157,0.6025696
		c0.1459961,0.1083984,0.2861023,0.1591797,0.4487,0.2182007c0.3251953,0.1187134,0.6939087,0.2529907,1.2353821,0.8897095
		c0.3901367,0.4584961,0.7391968,0.6351929,1.0771179,0.8061218c0.2934875,0.148468,0.5733032,0.2905884,0.862793,0.5952759
		l2.9268188,1.0853882l-0.0464172,0.125l-2.7022095-1.0018921c0.0029907,0.0039062,0.0064087,0.007782,0.0093079,0.0121765
		l-0.105896,0.0810242c-0.0528259-0.0687866-0.1054993-0.1313171-0.1582031-0.1879883l-4.7203064-1.75
		c-0.0145874-0.0057983-0.085907-0.0278015-0.0965881-0.0014038c-0.011322,0.0263062,0.0541992,0.0614929,0.0668945,0.0663757
		l7.4437866,3.4170227L29.8148804,30.4394836L29.8148804,30.4394836z"/>
	<path class="st2" d="M28.6771851,27.5834961c-0.3945007-1.0615234-1.2757874-1.3701172-1.5785828-2.3384094
		c-0.3032227-0.9687195-1.0346069-1.2842102-1.3037109-1.598114c-0.2695007-0.3139954-0.1117859-0.6337891-0.2397156-0.6410828
		c-0.1283875-0.0074158-0.2431946,0.3764038,0.0469055,0.8607788c0.2900085,0.4848938,0.7451172,0.4756165,1.1254272,1.6543274
		c0.3803711,1.1786804,1.0488892,1.2128906,1.3437805,2.3095703 M30.2904968,29.7094727l-6.0039062-5.5683899
		c0,0-0.1089172-0.1088867-0.1810913-0.0361023c-0.0728149,0.0722046,0.0360718,0.1811218,0.0360718,0.1811218l5.5684204,6.0039062"
		/>
	<path class="st3" d="M29.6605835,30.3353882l-5.5677795-6.0039062c-0.0020142-0.0014038-0.0337219-0.0341187-0.0562134-0.0791016
		c-0.0371094-0.0731812-0.0288086-0.1445007,0.0214844-0.1947937c0.0825195-0.0820007,0.2007141-0.0386047,0.2759094,0.0365906
		l3.4515991,3.2016907c-0.1210022-0.2153015-0.2626953-0.3803711-0.4090881-0.5507812
		c-0.2554016-0.2973022-0.519104-0.6049805-0.7124023-1.2036133c-0.2456055-0.7616882-0.5215149-1.0141907-0.7641907-1.2368164
		c-0.129425-0.1186523-0.2520142-0.230957-0.3555298-0.4037781c-0.2250977-0.3760071-0.2255859-0.7153931-0.1312866-0.8710938
		c0.0503235-0.0830078,0.112793-0.092804,0.1455078-0.0903015c0.112793,0.0063171,0.1195679,0.1200867,0.1260071,0.2113953
		c0.007782,0.1210938,0.0179749,0.2865906,0.1605835,0.4526062c0.0689087,0.0795898,0.1723938,0.1625977,0.2920227,0.2583008
		c0.3368835,0.2685852,0.7973938,0.6362,1.0248718,1.3633118c0.147522,0.4706726,0.4360046,0.7817078,0.742218,1.1112976
		c0.3114929,0.3354797,0.6337891,0.6821899,0.8353882,1.2240906l-0.125,0.0463867
		c-0.1922913-0.5170898-0.5052795-0.8539734-0.8081055-1.1796875c-0.3164062-0.3407898-0.6156921-0.6625977-0.7719116-1.1625977
		c-0.2148743-0.6878967-0.6572571-1.0410156-0.9804688-1.2987976c-0.1255188-0.0996094-0.2333984-0.1860046-0.3101196-0.2754211
		c-0.1712952-0.1996765-0.1845093-0.3988953-0.1927795-0.5306702c-0.0020142-0.0269165-0.0039062-0.061615-0.0078125-0.0816345
		c-0.0074158,0.0069275-0.0176086,0.0195923-0.0279236,0.0435181c-0.0433655,0.1015015-0.0629883,0.3662109,0.1436157,0.710907
		c0.0932007,0.156311,0.2036133,0.2568665,0.3305054,0.3735962c0.2554016,0.2337952,0.5445251,0.4989929,0.8013,1.2944031
		c0.1850891,0.5731812,0.4400024,0.8700867,0.6865234,1.1576843c0.214386,0.2495117,0.4189758,0.4873047,0.5693665,0.8799133
		l2.2885132,2.1224976l-0.0903015,0.0976868l-2.1133118-1.9594727c0.0014954,0.0048828,0.0029907,0.0097656,0.0039062,0.014679
		l-0.1289062,0.0346069c-0.0223694-0.0838928-0.0472717-0.1621094-0.0741882-0.234314l-3.6914062-3.4233704
		c-0.0111694-0.0112-0.0679016-0.0585938-0.0888977-0.0381165c-0.003418,0.0035095-0.0112,0.0112915,0.0035095,0.0405884
		c0.0126953,0.0253906,0.0326843,0.0458984,0.0332031,0.0464172l5.5697937,6.0053101L29.6605835,30.3353882L29.6605835,30.3353882z"
		/>
	<path class="st3" d="M29.9101868,29.8104858l-5.1109009,2.3388977l5.2681274-1.9598999 M27.0697632,30.5175781
		c-1.0868835,0.0541992-1.5682678,0.6708984-2.5585632,0.5498047c0.7831726,0.2655945,1.3901978-0.3754883,2.5473938-0.3388977"/>
	<path class="st3" d="M29.9896851,29.7904968l-5.6170959,0.2050781l5.6170959,0.2051086 M27.0946655,29.3563843
		c-1.0248718-0.3652039-1.7054749,0.0195923-2.5741882-0.4710999c0.6221313,0.5454102,1.4282227,0.1854858,2.4829102,0.6620789"/>
	<path class="st3" d="M30.0708008,29.8021851l-5.2686157-1.9599304l5.111908,2.3393555 M27.5619812,28.2938843
		c-0.8070984-0.7299194-1.5829773-0.6347046-2.1976929-1.4208984c0.3657227,0.7416992,1.2485046,0.7182922,2.0404968,1.5621033"/>
	<path class="st3" d="M30.1410828,29.844696l-4.117218-3.8271179l3.82724,4.1171875 M28.4003906,27.4906921
		c-0.4657898-0.983429-1.219696-1.1918945-1.4867859-2.1533203c0.0541992,0.8252258,0.8783875,1.1411133,1.2875977,2.2236328"/>
	<path class="st2" d="M29.7026062,27.2612c0.0414734-1.1313171-0.6546936-1.7539062-0.5634155-2.7646179
		c0.0907898-1.0107727-0.4644165-1.5820007-0.5932922-1.9750977c-0.1289062-0.3930969,0.1391907-0.628418,0.0238647-0.6841125
		c-0.1156921-0.0560913-0.3685608,0.254425-0.2860718,0.8135071c0.082489,0.5586243,0.5068054,0.7246094,0.4067078,1.9590149
		c-0.0996094,1.234314,0.5048828,1.5218811,0.3578796,2.6478882 M30.3793945,29.8427734l-3.4159851-7.4418945
		c0,0-0.0586243-0.1420898-0.1533203-0.1029968c-0.0953064,0.0390015-0.0362244,0.1815796-0.0362244,0.1815796l2.847229,7.6772461"
		/>
	<path class="st3" d="M29.5585938,30.1801758l-2.8471985-7.6777954c-0.0010071-0.0024109-0.0180054-0.0444031-0.0215149-0.0942078
		c-0.0057983-0.0819702,0.0284119-0.1445007,0.0942993-0.171875c0.1074219-0.0444031,0.2007141,0.0409851,0.2412109,0.1391602
		l1.9638977,4.2788086c-0.0298157-0.245575-0.0976868-0.452179-0.167511-0.6654968
		c-0.1221008-0.3725891-0.2480774-0.7573853-0.1978149-1.3842773c0.0645142-0.7978821-0.0931702-1.1367188-0.2323608-1.4356079
		c-0.0742188-0.1591187-0.1445007-0.3094788-0.1737976-0.5086975c-0.0640259-0.4335938,0.0648804-0.7471008,0.2118835-0.855011
		c0.0785828-0.0575867,0.1395874-0.0419922,0.1694031-0.0278931c0.1010742,0.0488892,0.0644836,0.1567993,0.0346985,0.2436829
		c-0.0391235,0.1143188-0.0923157,0.2715149-0.0244141,0.4795227c0.0327148,0.1000977,0.0967102,0.2157898,0.170929,0.3500977
		c0.2084656,0.3768921,0.4935913,0.8930969,0.4252625,1.651825c-0.0444641,0.4916687,0.1035156,0.889679,0.2602234,1.3110657
		c0.1596985,0.4291992,0.324707,0.8724976,0.3031921,1.4501953l-0.1333008-0.0048828
		c0.0205994-0.5513-0.1401062-0.9819031-0.2948914-1.3988953c-0.1621094-0.4360962-0.3153992-0.8477173-0.2679749-1.3692017
		c0.0643921-0.7182007-0.2095032-1.2134094-0.4092407-1.5752258c-0.077179-0.1401062-0.1440735-0.2616882-0.1811829-0.3734741
		c-0.0820007-0.2500305-0.0176086-0.4395142,0.0253906-0.5645142c0.0083313-0.0253906,0.0195007-0.0581055,0.0234985-0.0780945
		c-0.0087891,0.003418-0.0234985,0.0117188-0.0419922,0.0298157c-0.0791016,0.0770874-0.1983032,0.3139954-0.1397095,0.7118835
		c0.026886,0.1796875,0.0899048,0.3150024,0.1625977,0.4717102c0.1465149,0.3135071,0.3120117,0.6694031,0.2450867,1.5024109
		c-0.0487671,0.6000671,0.0733032,0.972168,0.1914368,1.3320923c0.1021118,0.3124695,0.2001953,0.6102905,0.1889954,1.0301819
		l1.3021851,2.8374023l-0.1210938,0.0556946l-1.2020874-2.6191101c-0.0010071,0.0048218-0.0014954,0.0097351-0.0020142,0.0151062
		l-0.1322937-0.0175781c0.011322-0.0864258,0.0180969-0.167511,0.0205078-0.2446289l-2.1001282-4.5756836
		c-0.0062866-0.0145874-0.0404663-0.0801086-0.0673828-0.0693054c-0.0047913,0.0019226-0.0146179,0.0063171-0.0125732,0.0390015
		c0.0023499,0.0283813,0.0125732,0.0552063,0.0125732,0.0552063l2.8482056,7.6802063L29.5585938,30.1801758L29.5585938,30.1801758z"
		/>
	<path class="st2" d="M30.773407,27.355957c0.4716797-1.0297852,0.0663757-1.8710632,0.5370789-2.77005
		c0.4708252-0.8989258,0.1767883-1.6391296,0.2080994-2.0517273c0.0312195-0.4125977,0.3690796-0.5269165,0.2840881-0.6230774
		c-0.0858765-0.0957336-0.438385,0.0942993-0.5760803,0.6420898c-0.1376953,0.5479126,0.1914062,0.8632812-0.3735962,1.9657898
		c-0.5643921,1.1026001-0.1157227,1.5991821-0.6826172,2.5835266 M30.4105835,29.9999695l-0.308075-8.1825867
		c0,0,0.0004883-0.1538086-0.1025085-0.1538086c-0.1025085-0.0004883-0.1025085,0.1538086-0.1025085,0.1538086l-0.3077087,8.1825867
		"/>
	<path class="st3" d="M30.3437805,30.0023804l-0.1079712-2.8797913c-0.0028992,0.0043945-0.0053101,0.0086975-0.007843,0.013092
		l-0.1156921-0.0668945c0.0435181-0.0751038,0.0811157-0.1479187,0.1133118-0.2176819l-0.1895142-5.0313416
		c0-0.0155945-0.0072937-0.0897827-0.0360718-0.0897827c-0.0039062,0.0049133-0.0155945,0-0.0263977,0.031189
		c-0.0088196,0.0274353-0.0092163,0.0557251-0.0092163,0.0562134l-0.3081055,8.1849976l-0.1333923-0.0047913l0.308197-8.1827087
		c0-0.0028992,0.0003967-0.0482788,0.0160828-0.0956726c0.0258179-0.078125,0.0815125-0.1225281,0.152832-0.1225281
		c0,0,0,0,0.0004883,0c0.1161804,0,0.1688843,0.1141968,0.1688843,0.2207031l0.1773071,4.7045898
		c0.0664062-0.237793,0.0830078-0.4545898,0.1001282-0.6786804c0.0292969-0.3907166,0.0599976-0.7950134,0.3466797-1.3545227
		c0.3646851-0.7128906,0.3491211-1.085968,0.3344116-1.4155884c-0.0078125-0.175293-0.0145874-0.3407898,0.0341797-0.5361023
		c0.1065369-0.425293,0.3457031-0.6654968,0.523407-0.7089844c0.0948181-0.023407,0.1445923,0.0141602,0.1669922,0.0390625
		c0.0743103,0.0840454-0.000885,0.1694336-0.0614929,0.2383118c-0.0791016,0.0908203-0.1893921,0.2157898-0.2059937,0.4336243
		c-0.0079041,0.1048889,0.0067749,0.2367859,0.0243835,0.3890991c0.047821,0.4281921,0.1133423,1.0137024-0.2392883,1.6884766
		c-0.2295227,0.4375-0.2450867,0.8618164-0.2617188,1.3110352c-0.016571,0.4575806-0.0341797,0.9301758-0.2743835,1.4560547
		l-0.1210938-0.0556641c0.2294922-0.5014038,0.2460938-0.9609375,0.2626953-1.4052124
		c0.0166016-0.4649048,0.0332031-0.9039001,0.2763977-1.3677063c0.3338928-0.6387024,0.2705078-1.2012024,0.2246094-1.6117859
		c-0.0176086-0.1592102-0.0332031-0.296936-0.0245056-0.4141235c0.0205994-0.2626953,0.1513977-0.4125671,0.2392883-0.5121765
		c0.0176086-0.0200195,0.0400085-0.045929,0.0518188-0.0629883c-0.0108032,0.0004883-0.0263977,0.0019836-0.0498047,0.0112
		c-0.1036072,0.0409851-0.3038025,0.214386-0.4013977,0.6039734c-0.0448914,0.1767883-0.0380859,0.3257141-0.030304,0.4981079
		c0.0147095,0.3461914,0.0312805,0.7383118-0.3490906,1.4819031c-0.2744141,0.5361023-0.3041992,0.9263-0.3330078,1.3041992
		c-0.0249023,0.3276978-0.0487976,0.6405945-0.2197266,1.0243835l0.1176453,3.1197205L30.3437805,30.0023804L30.3437805,30.0023804z
		"/>
	<path class="st2" d="M31.726593,27.8529968c0.829071-0.7705078,0.7772827-1.703125,1.5565796-2.3535156
		c0.7782898-0.6503906,0.7900085-1.4467773,0.9766235-1.815918c0.1875-0.3690796,0.5428772-0.3457031,0.500885-0.4667664
		c-0.0419006-0.1216125-0.4403992-0.0805969-0.7772827,0.3729858c-0.3369141,0.4532166-0.1542969,0.8706055-1.0977173,1.6728821
		c-0.9432983,0.8022156-0.719696,1.433136-1.6191101,2.1255188 M30.3793945,30.157196l2.8471985-7.6777344
		c0,0,0.0585938-0.1420898-0.0361938-0.1815796c-0.0947266-0.039093-0.1533203,0.1029968-0.1533203,0.1029968l-3.4159851,7.4418945"
		/>
	<path class="st3" d="M30.4418945,30.1801758l-0.125-0.0463867l1.0023804-2.7022095
		c-0.0038757,0.0029907-0.0087891,0.0063782-0.0126648,0.0093079l-0.0810242-0.105896
		c0.0693054-0.0528259,0.1307983-0.1054993,0.1875-0.1582031l1.7510071-4.7203064
		c0.0057983-0.0151062,0.0272827-0.085907,0.000885-0.0965881c-0.0263062-0.011322-0.0614929,0.0541992-0.0663757,0.066864
		l-3.4170227,7.4438171l-0.1210938-0.0556946l3.4161072-7.4418945c0.0028992-0.0083008,0.0448914-0.1040039,0.1239929-0.137207
		c0.0380859-0.0155945,0.0771179-0.0151062,0.1152039,0.0005188c0.1073914,0.0449829,0.1132812,0.1703796,0.0722961,0.2685852
		l-1.6366882,4.4145203c0.1522827-0.1943054,0.25-0.3881226,0.3515015-0.5888367
		c0.1777649-0.3495789,0.3603821-0.7109985,0.8398743-1.1186829c0.609314-0.5184937,0.7373352-0.8695984,0.8496094-1.1796875
		c0.0605164-0.1650085,0.1171875-0.3208008,0.2373047-0.4824219c0.2616882-0.3519897,0.5751953-0.4829102,0.7549133-0.4550781
		c0.0957031,0.0151978,0.1278992,0.069397,0.1385803,0.1000977c0.0372314,0.1064758-0.0643921,0.1567993-0.1473694,0.1967773
		c-0.1083984,0.0537109-0.2569275,0.1270142-0.3565369,0.3222961c-0.0467834,0.0937195-0.0838928,0.2212219-0.125885,0.3686218
		c-0.1202087,0.4136047-0.2832031,0.980011-0.8681946,1.4682922c-0.3789062,0.3164062-0.5557251,0.7021179-0.742218,1.1108093
		c-0.1903992,0.4165039-0.3876953,0.8466797-0.8114929,1.2402954l-0.0907898-0.0977173
		c0.4042969-0.3754883,0.5957031-0.7934875,0.781189-1.1977844c0.1933899-0.4227905,0.3760071-0.8222046,0.7783203-1.1582031
		c0.5527954-0.4618835,0.7099609-1.0052795,0.8242798-1.4028015c0.0449219-0.1538086,0.0830078-0.2865906,0.1357117-0.3920898
		c0.1190796-0.2348328,0.2987976-0.3227234,0.4169922-0.3813171c0.0243835-0.0116882,0.0557251-0.026886,0.0722961-0.0386047
		c-0.0087891-0.0033875-0.0245056-0.0083008-0.0508118-0.0087891c-0.1083984,0.0014954-0.3622742,0.0820007-0.6015625,0.4047852
		c-0.1083984,0.1460266-0.1601257,0.2861328-0.2187195,0.4487305c-0.1181946,0.3251953-0.2529907,0.6938782-0.8897095,1.2353821
		c-0.4589844,0.3901062-0.6356812,0.7396851-0.8066101,1.0771179c-0.148468,0.2934875-0.2901001,0.5733032-0.5947876,0.862793
		L30.4418945,30.1801758L30.4418945,30.1801758z"/>
	<path class="st2" d="M32.4159851,28.6771851c1.0615234-0.3945007,1.3700867-1.2758179,2.3389282-1.5785828
		c0.968689-0.3032227,1.2841797-1.0346375,1.5975647-1.3037109c0.3145142-0.2695007,0.6338196-0.1118164,0.6416016-0.2397156
		c0.0079346-0.128418-0.375885-0.2431946-0.8612976,0.0469055c-0.484375,0.2900085-0.4755859,0.7451172-1.6542969,1.1254272
		c-1.1787109,0.3803711-1.2128906,1.0488586-2.3096008,1.3437805 M30.2904968,30.2904968l5.5679016-6.0039062
		c0,0,0.1094055-0.1089172,0.0370789-0.1811218c-0.0732117-0.0727844-0.1816101,0.0361023-0.1816101,0.0361023l-6.0038757,5.5683899
		"/>
	<path class="st3" d="M30.339386,30.3353882l-0.0976868-0.0903015l1.9594727-2.1133118
		c-0.0048828,0.0014954-0.0097656,0.0029907-0.0147095,0.0039062l-0.0341797-0.1289062
		c0.0839844-0.0223999,0.1611938-0.0473022,0.2333984-0.0741882l3.4239197-3.6914062
		c0.0116882-0.0112,0.0585938-0.0682983,0.0380859-0.0888977c-0.0049133-0.0047913-0.0079041-0.0052795-0.0117798-0.0052795
		c-0.023407,0-0.0605164,0.027771-0.0752258,0.0419617l-6.0052795,5.5698242l-0.0907898-0.0982056l6.0033875-5.5677795
		c0.0068054-0.0064087,0.0820007-0.0791016,0.1679077-0.0791016c0.0400696,0,0.077179,0.0150757,0.1064758,0.0443726
		c0.0820007,0.0825195,0.0380859,0.2007141-0.0360718,0.2758789l-3.2022095,3.4516296
		c0.2157898-0.1210022,0.3808899-0.2626953,0.5508118-0.4091187c0.2977905-0.2553711,0.6044617-0.5190735,1.203064-0.7123718
		c0.7627258-0.245636,1.0147095-0.5215149,1.2373352-0.7642212c0.1191711-0.1293945,0.2304688-0.2519836,0.4032898-0.3554993
		c0.3760071-0.2245789,0.7159119-0.2255859,0.8720703-0.1312866c0.0830078,0.050293,0.0918274,0.112793,0.0898132,0.1454773
		c-0.0068054,0.1123047-0.1200867,0.1195984-0.2108765,0.1260071c-0.1211243,0.0078125-0.2871094,0.0180054-0.453125,0.160614
		c-0.0800781,0.0689087-0.1620789,0.1723938-0.2578125,0.2919922c-0.2685852,0.3369141-0.6366577,0.7974243-1.3632812,1.0249023
		c-0.4716797,0.147522-0.782196,0.4360046-1.1112976,0.742218c-0.3359985,0.3114929-0.6827087,0.6337585-1.2246094,0.8353882
		l-0.0469055-0.125c0.5176086-0.1923218,0.8544922-0.5052795,1.1796875-0.8081055
		c0.3408203-0.3164062,0.6631165-0.6156921,1.1631165-0.7719116c0.6875305-0.2148743,1.0410156-0.6572571,1.2987976-0.9804688
		c0.0996094-0.1255188,0.1855164-0.233429,0.2754211-0.3101196c0.2001953-0.1712952,0.3993835-0.1845093,0.531189-0.1928101
		c0.0263977-0.0019836,0.0606079-0.0038757,0.0811157-0.007782c-0.0069275-0.0074158-0.0196228-0.0176086-0.0429993-0.0279236
		c-0.1025085-0.0438843-0.367218-0.0624695-0.7119141,0.1436157c-0.155304,0.0932007-0.2568054,0.2030945-0.3731079,0.3305054
		c-0.2342834,0.2554016-0.4990234,0.5444946-1.2948914,0.8013c-0.5722046,0.1850891-0.8701172,0.4400024-1.157196,0.6865234
		c-0.2489929,0.214386-0.4873047,0.4189453-0.8799133,0.5693665L30.339386,30.3353882L30.339386,30.3353882z"/>
	<path class="st3" d="M30.1894836,29.9101868l-2.3388977-5.1109009l1.9598999,5.2680969 M29.4823914,27.0697632
		c-0.0542297-1.0868835-0.6703796-1.5682983-0.5493164-2.5585632c-0.2655945,0.7831726,0.375,1.3901672,0.3384094,2.5473633"/>
	<path class="st3" d="M30.2095032,29.9896851l-0.2051086-5.6170959l-0.2051086,5.6170959 M30.6435852,27.0946655
		c0.3652039-1.0248718-0.0195923-1.7054749,0.4707031-2.5741882c-0.5450134,0.6221008-0.1850891,1.4282227-0.6616821,2.4829102"/>
	<path class="st3" d="M30.1978149,30.0708008l1.9593506-5.2686157l-2.3387756,5.111908 M31.7060852,27.5619812
		c0.7304077-0.8070984,0.6347046-1.5830078,1.4208984-2.1976929c-0.7421875,0.3656921-0.7187805,1.2485046-1.5624695,2.0404968"/>
	<path class="st3" d="M30.155304,30.1410828l3.8270569-4.117218l-4.117157,3.82724 M32.5087891,28.4003601
		c0.9833984-0.4657898,1.1923828-1.2196655,2.1542969-1.4867859c-0.8251953,0.0541992-1.1416016,0.878418-2.2246094,1.2875977"/>
	<path class="st2" d="M32.7382812,29.7026062c1.1318054,0.0414734,1.7549133-0.6547241,2.7655945-0.5634155
		c1.0107117,0.0907898,1.5820007-0.4644165,1.9746094-0.5932922c0.3936157-0.1289062,0.6278992,0.1391907,0.6846008,0.0238647
		c0.0556946-0.1156921-0.2549133-0.3685913-0.8135071-0.2860718c-0.5585938,0.082489-0.7246094,0.5068054-1.9589844,0.4067078
		c-1.234314-0.0996094-1.5224304,0.5048828-2.648407,0.3578796 M30.157196,30.379364l7.4414062-3.4159851
		c0,0,0.1425781-0.0586243,0.1034851-0.1532898c-0.0390015-0.0953064-0.1815796-0.0362244-0.1815796-0.0362244l-7.6772156,2.847229"
		/>
	<path class="st3" d="M30.1850891,30.4398804l-0.0556946-0.1210938l2.6195679-1.2021179
		c-0.0048828-0.0009766-0.0106812-0.0014648-0.015564-0.0019836l0.0176086-0.1322937
		c0.0858765,0.0112915,0.1678772,0.0180969,0.2450867,0.0205078l4.5751953-2.1001282
		c0.0145874-0.0062866,0.0801086-0.0409851,0.0693054-0.0673828c-0.0028992-0.0068054-0.0057983-0.0083008-0.0087891-0.0097046
		c-0.0214233-0.0088196-0.0672913,0.0023804-0.085907,0.0097046l-7.679718,2.848175l-0.0463867-0.1249695l7.6773071-2.8471985
		c0.0087891-0.003418,0.1063843-0.0415039,0.1854858-0.0087891c0.0371094,0.015686,0.0653992,0.0439758,0.0811157,0.0820618
		c0.0272827,0.0658875,0.007782,0.1342163-0.054718,0.1880188c-0.0381165,0.0326843-0.0800781,0.0507202-0.085022,0.0527039
		l-4.2782593,1.9638672c0.2450867-0.0297852,0.452179-0.0976562,0.6659851-0.1674805
		c0.3721008-0.1221008,0.756897-0.2480774,1.3837891-0.1978149c0.7987976,0.0650024,1.1367188-0.0932007,1.4356079-0.2323914
		c0.1591187-0.0741882,0.3094788-0.1444702,0.5086975-0.1737671c0.4335938-0.0640259,0.7471008,0.0648804,0.8554993,0.211853
		c0.0576172,0.0786133,0.0419922,0.1396179,0.0274048,0.1694336c-0.0488892,0.1010742-0.156311,0.0644836-0.2431946,0.0346985
		c-0.1152039-0.0391235-0.2724915-0.092804-0.4804993-0.0244141c-0.0996094,0.0326843-0.2157898,0.0967102-0.3496094,0.170929
		c-0.3768921,0.2084656-0.8934937,0.493103-1.6523132,0.4252625c-0.4911804-0.0449829-0.889679,0.1035156-1.3105774,0.2602234
		c-0.4287109,0.1596985-0.8720093,0.3241882-1.4501953,0.3031921l0.0048828-0.1333008
		c0.5518188,0.0209961,0.9824219-0.1401062,1.3993835-0.2948914c0.4356384-0.1621094,0.8467102-0.3149109,1.3692322-0.2680054
		c0.7167969,0.0639038,1.2128906-0.2095032,1.5751953-0.4092102c0.1396179-0.077179,0.2606812-0.1445923,0.3729858-0.1811829
		c0.2500305-0.0820312,0.4395142-0.0176086,0.5645142,0.0253906c0.0254211,0.0083008,0.0576172,0.0195007,0.0780945,0.0234985
		c-0.0039062-0.0087891-0.0116882-0.0234985-0.0292969-0.0419922c-0.0772095-0.0791016-0.3134766-0.1983032-0.7118835-0.1397095
		c-0.1807251,0.026886-0.3155212,0.0899048-0.4717102,0.1625977c-0.3145142,0.1465149-0.6708984,0.3120117-1.5028992,0.2450867
		c-0.5996094-0.0482788-0.9726868,0.0733032-1.3321228,0.1914368c-0.3124695,0.1020813-0.61026,0.2006836-1.0301819,0.1889954
		L30.1850891,30.4398804L30.1850891,30.4398804z"/>
	<path class="st2" d="M32.6435852,30.773407c1.0302124,0.4716797,1.8710022,0.0663757,2.7705078,0.5370789
		c0.8994141,0.4707947,1.6395874,0.1767883,2.0516968,0.2080994c0.4121094,0.031189,0.5273743,0.3690796,0.6231079,0.2840881
		c0.0957031-0.085907-0.0948181-0.438385-0.6426086-0.5760803c-0.5479126-0.1376953-0.8632812,0.1913757-1.9649048-0.3735962
		c-1.1025085-0.5644226-1.5995789-0.1157227-2.5838928-0.6826172 M30,30.4105835l8.1825867-0.308075
		c0,0,0.1542969,0.0004883,0.1542969-0.1025391c0-0.1025085-0.1542969-0.1025085-0.1542969-0.1025085L30,29.5897827"/>
	<path class="st3" d="M38.0575867,31.8837585c-0.0575867,0-0.1141968-0.0498047-0.1630859-0.0927734
		c-0.0908203-0.0791016-0.2157898-0.1893921-0.4336243-0.2060242c-0.1053772-0.0078735-0.2372742,0.0068054-0.3895874,0.0244141
		c-0.4277039,0.047821-1.0126953,0.1141968-1.6885071-0.2392883c-0.4364929-0.2295227-0.8612976-0.2451172-1.3104858-0.2617188
		c-0.4570923-0.016571-0.9307251-0.0341797-1.4560852-0.2743835l0.0556946-0.1210938
		c0.5010071,0.2294922,0.960907,0.2460938,1.4051819,0.2626648c0.4649048,0.0166321,0.9042969,0.0332336,1.3681946,0.2764282
		c0.6387024,0.3338928,1.2001953,0.2705078,1.6112976,0.2245789c0.1592102-0.0176086,0.2969055-0.0331726,0.4141235-0.0244751
		c0.2626953,0.0205994,0.4130859,0.1513977,0.5116882,0.2392883c0.0205078,0.0176086,0.0469055,0.0400085,0.0634766,0.0517883
		c0-0.0097656-0.0019836-0.0263977-0.0106812-0.0498047c-0.0411072-0.1035767-0.2149048-0.303772-0.6045227-0.4013977
		c-0.1767578-0.0448608-0.3251953-0.0380859-0.4980774-0.0302734c-0.3457031,0.0147095-0.7383118,0.032196-1.4824219-0.3491211
		c-0.5351868-0.2743835-0.9257812-0.3041687-1.3036804-0.3329773c-0.327179-0.0249023-0.6405945-0.0487976-1.0243835-0.2197266
		l-3.1197205,0.1176453l-0.0047913-0.133728l2.8802795-0.1079712c-0.0048828-0.0029297-0.0087891-0.0053101-0.0135803-0.007843
		l0.0663757-0.1156921c0.0761108,0.0435181,0.1484375,0.0810852,0.2187195,0.1132812l5.030304-0.1894836
		c0.0166016,0,0.0898132-0.0072937,0.0898132-0.0361023c0-0.0048828,0-0.015564-0.031189-0.0263672
		c-0.0264282-0.0088196-0.0557251-0.0092163-0.0557251-0.0092163l-8.1849976-0.3081055l0.0047913-0.1333923l8.1831055,0.308197
		c0.0020142-0.0010071,0.0478821,0,0.0947876,0.0160828c0.078125,0.0258179,0.1230164,0.0815125,0.1230164,0.1528015
		c0,0.1166992-0.1141968,0.1694031-0.2207031,0.1694031l0,0l-4.7050781,0.1773071
		c0.2382812,0.0663757,0.4550781,0.0830078,0.6796875,0.1000977c0.390686,0.0292969,0.7940063,0.0600281,1.3544922,0.3467102
		c0.7118835,0.3646851,1.0849915,0.3490906,1.4151001,0.3344116c0.1748047-0.0078125,0.3407898-0.0146179,0.5361023,0.0341797
		c0.4247742,0.1065063,0.6659851,0.3457031,0.7089844,0.523407c0.023407,0.0937805-0.0147095,0.1445923-0.0390625,0.1669922
		C38.1083984,31.8749695,38.0830078,31.8837585,38.0575867,31.8837585L38.0575867,31.8837585z"/>
	<path class="st2" d="M32.1464844,31.726593c0.7715149,0.829071,1.703125,0.7772827,2.3535156,1.5565796
		c0.6503906,0.7782898,1.4472961,0.7900085,1.8164062,0.976593c0.3690796,0.1875,0.3457031,0.5429077,0.4667664,0.5009155
		c0.1211243-0.0419006,0.0811157-0.4403992-0.3729858-0.7772827c-0.4532166-0.3369141-0.8701782-0.1543274-1.6728821-1.0977173
		c-0.8027039-0.9433289-1.4336243-0.719696-2.1250305-1.6191101 M29.8427734,30.379364l7.6777344,2.847229
		c0,0,0.141571,0.0585938,0.1815796-0.0361938c0.039093-0.0947266-0.1034851-0.1533203-0.1034851-0.1533203l-7.4414062-3.4159851"/>
	<path class="st3" d="M36.7626648,34.8310852c-0.078064,0-0.1200867-0.085022-0.1542664-0.155304
		c-0.0537109-0.1083984-0.1270142-0.2578125-0.3222961-0.3565063c-0.0937195-0.0467834-0.2207336-0.0838928-0.368103-0.125885
		c-0.4141235-0.1202087-0.9805298-0.2832031-1.468811-0.8682251c-0.3164062-0.3788757-0.7020874-0.5556946-1.1112976-0.7421875
		c-0.4160156-0.1903992-0.8467102-0.3876953-1.2402039-0.8114929l0.0975952-0.0907898
		c0.3760071,0.4042969,0.7940063,0.5956726,1.1983032,0.781189c0.4227905,0.1933899,0.8222046,0.3760071,1.1582031,0.7783203
		c0.4618835,0.5527954,1.0057983,0.7099609,1.4022827,0.8242798c0.1543274,0.0449219,0.2871094,0.0830078,0.3926086,0.1357117
		c0.2344055,0.1190796,0.3232117,0.2987976,0.3807983,0.4169617c0.0127258,0.0244141,0.0274048,0.0557251,0.0391235,0.0723267
		c0.0039062-0.0087891,0.007782-0.0245056,0.0087891-0.0508118c0.0010071-0.1103821-0.0820007-0.3622742-0.405304-0.601593
		c-0.1455078-0.1083984-0.2861023-0.1600952-0.4482117-0.218689c-0.3251953-0.1192017-0.6933899-0.2529907-1.2353821-0.8897095
		c-0.390625-0.4589844-0.7392273-0.6356812-1.0770874-0.8066101c-0.2940063-0.148468-0.5733337-0.2901001-0.8623047-0.5947876
		l-2.9273071-1.0853882l0.0463867-0.125l2.7022095,1.0023804c-0.0029907-0.0047913-0.0058899-0.0087891-0.0097961-0.0126648
		l0.1063843-0.0810242c0.0528259,0.0693054,0.1054993,0.1307983,0.1582031,0.1875l4.7207031,1.7509766
		c0.0147095,0.0058289,0.0859985,0.0273132,0.0967102,0.0009155c0.0030212-0.0068054,0.0019836-0.0097046,0-0.0126953
		c-0.0087891-0.0213928-0.0488281-0.0458984-0.0674133-0.0536804l-7.4437866-3.4170227l0.0556946-0.1210938l7.4418945,3.4160767
		c0.0086975,0.0028992,0.1044006,0.0449219,0.1367188,0.1240234c0.015564,0.0380859,0.015564,0.0771179,0,0.1152039
		c-0.0449219,0.1073914-0.1708984,0.1132812-0.2686157,0.0722961l-4.4140015-1.6366882
		c0.1943054,0.1522827,0.3877258,0.2499695,0.5888062,0.3515015c0.3496094,0.1777649,0.7109985,0.3603821,1.1181946,0.8398743
		c0.5184937,0.609314,0.8700867,0.7373047,1.179718,0.8496094c0.164978,0.0605164,0.320282,0.1171875,0.4823914,0.2373047
		c0.351593,0.2616882,0.4823914,0.5741882,0.4551086,0.7548828c-0.0147095,0.0957336-0.0694275,0.1279297-0.1006165,0.1386108
		C36.789978,34.829071,36.7753906,34.8310852,36.7626648,34.8310852L36.7626648,34.8310852z"/>
	<path class="st2" d="M31.3231812,32.4159851c0.3945923,1.0615234,1.2754211,1.3700867,1.578186,2.3388977
		c0.3027344,0.9687195,1.0341187,1.2842102,1.3037109,1.5975952c0.2695007,0.3145142,0.1123047,0.6338196,0.2402039,0.6416016
		c0.1278992,0.0079041,0.2431946-0.3759155-0.0469055-0.8612976c-0.2900085-0.484375-0.7460938-0.4755859-1.125885-1.6542969
		c-0.3799133-1.1787109-1.0488892-1.2128906-1.343811-2.3096008 M29.7094727,30.2904968l6.003418,5.5679016
		c0,0,0.109375,0.109375,0.1816101,0.0370789c0.0733032-0.0732117-0.0361023-0.1816101-0.0361023-0.1816101l-5.5683899-6.0039062"/>
	<path class="st3" d="M34.4481812,37.0604858c-0.0018921,0-0.0047913,0-0.0067749,0
		c-0.1123047-0.0068054-0.1201172-0.1200867-0.1260071-0.210907c-0.0078125-0.1210938-0.0184937-0.2871094-0.1611023-0.4530945
		c-0.0684204-0.0801086-0.171936-0.1621094-0.2920227-0.2578125c-0.3358765-0.2685852-0.7969055-0.6366882-1.0243835-1.3633118
		c-0.147522-0.4716797-0.4364929-0.782196-0.742218-1.1112671c-0.3114624-0.3359985-0.6337585-0.6827087-0.8349915-1.2246094
		l0.125-0.0469055c0.1914062,0.5176086,0.5048828,0.8544922,0.8077087,1.1796875
		c0.3164062,0.3408203,0.6152039,0.6631165,0.7713928,1.1631165c0.2159119,0.6875,0.6582031,1.0410156,0.9804993,1.2987976
		c0.1260071,0.0996094,0.2333984,0.1855164,0.3106079,0.2754211c0.1717834,0.2001648,0.1845093,0.399353,0.1932983,0.531189
		c0.0010071,0.0263672,0.0039062,0.0606079,0.007782,0.0811157c0.0069275-0.0069275,0.0166321-0.0196228,0.0274353-0.0430298
		c0.0438843-0.1025085,0.0625-0.3671875-0.1436157-0.7119141c-0.093689-0.1552734-0.203125-0.2567749-0.3309937-0.3730774
		c-0.2549133-0.2342834-0.5440063-0.4990234-0.8008118-1.2948914c-0.1846008-0.5722046-0.4403687-0.8701172-0.6864929-1.157196
		c-0.2149048-0.2489929-0.4190063-0.4873047-0.569397-0.8799133l-2.2884827-2.1224976l0.090271-0.0977173l2.1133118,1.9595032
		c-0.0010071-0.0048828-0.0029907-0.0097961-0.0039062-0.0147095l0.1288757-0.0341797
		c0.0224304,0.0839844,0.047821,0.1611938,0.0742188,0.2333984l3.6914062,3.4238892
		c0.0106812,0.0107117,0.0682983,0.0585938,0.0888977,0.0380859c0.0205078-0.0195923-0.0274048-0.077179-0.0361938-0.0869751
		l-5.5703125-6.0053101l0.0977173-0.0907898l5.5682678,6.003418c0.0020447,0.0018616,0.0342407,0.0350952,0.0567322,0.0791016
		C36,35.820282,35.9921875,35.891571,35.9414062,35.9423828c-0.0820007,0.0820007-0.2002258,0.0390015-0.2754211-0.0361023
		l-3.4520874-3.2022095c0.1219788,0.2158203,0.2635803,0.3808899,0.4090881,0.5508118
		c0.2558899,0.297821,0.5195923,0.6044922,0.7128906,1.2030945c0.2461243,0.7626953,0.5215149,1.014679,0.7647095,1.2373047
		c0.1289062,0.1192017,0.2510071,0.2304993,0.3544922,0.4033203c0.2256165,0.3769836,0.2265015,0.7158813,0.1318054,0.8720703
		C34.539978,37.0478821,34.4823914,37.0604858,34.4481812,37.0604858L34.4481812,37.0604858z"/>
	<path class="st3" d="M30.0897827,30.1894836l5.1113892-2.3388977l-5.2685852,1.9598999 M32.9306641,29.4823914
		c1.0869141-0.0542297,1.5673218-0.6704102,2.5586243-0.5493164c-0.7832031-0.2655945-1.390686,0.375-2.5478821,0.3384094"/>
	<path class="st3" d="M30.0103149,30.2094727l5.6175842-0.2051086l-5.6175842-0.2050781 M32.905304,30.6435852
		c1.0253906,0.3652039,1.7050781-0.0195923,2.5741882,0.4707031c-0.6221008-0.5450134-1.4277039-0.1850891-2.4833984-0.6616821"/>
	<path class="st3" d="M29.9291687,30.1977844l5.2681274,1.9593811l-5.1114197-2.3388062 M32.4375,31.7060852
		c0.8075867,0.7304077,1.5829773,0.6347046,2.1981812,1.4208984c-0.3662109-0.742218-1.2480164-0.718811-2.0409851-1.5625"/>
	<path class="st3" d="M29.8588867,30.1552734l4.1177063,3.8270874l-3.8277283-4.117157 M31.5996094,32.5087891
		c0.4657898,0.9833679,1.2196655,1.1923828,1.4862671,2.1542969c-0.0536804-0.8252258-0.8778992-1.1416321-1.2870789-2.2246094"/>
	<path class="st2" d="M30,26.6654663c1.8417969,0,3.3349915,1.4927063,3.3349915,3.3345032
		c0,1.8418274-1.4931946,3.335022-3.3349915,3.335022c-1.8418274,0-3.3345337-1.4931946-3.3345337-3.335022
		C26.6654663,28.1581726,28.1581726,26.6654663,30,26.6654663L30,26.6654663z"/>
	<path class="st3" d="M30,26.7553711c-1.7891235,0-3.2445984,1.4555054-3.2445984,3.2445984
		c0,1.7891235,1.4554749,3.2441101,3.2445984,3.2441101c1.789093,0,3.2440796-1.4549866,3.2440796-3.2441101
		C33.2440796,28.2108765,31.789093,26.7553711,30,26.7553711L30,26.7553711z M30,33.4247742
		c-1.8882141,0-3.4248047-1.5360718-3.4248047-3.4248047c0-1.8881836,1.5365906-3.4248047,3.4248047-3.4248047
		c1.8887024,0,3.4248047,1.5366211,3.4248047,3.4248047C33.4248047,31.8887024,31.8887024,33.4247742,30,33.4247742L30,33.4247742z"
		/>
	<path class="st4" d="M31.132782,29.3393555c0.2217102-0.0039673,0.4287109,0.0976257,0.4580078,0.1987305
		c-0.2568054,0.282196-0.6665039,0.257782-0.9227905,0.0527039C30.7802734,29.4111023,30.960907,29.342804,31.132782,29.3393555
		L31.132782,29.3393555L31.132782,29.3393555z M31.1366882,29.2870789c-0.2275085,0-0.4458008,0.0986023-0.5737,0.3037109
		c0.2562866,0.2309875,0.8226929,0.2558899,1.207489-0.0263062C31.6044922,29.3852844,31.3642883,29.2870789,31.1366882,29.2870789
		L31.1366882,29.2870789L31.1366882,29.2870789z"/>
	<path class="st3" d="M31.1796875,29.1283875c-0.3329773,0-0.4101868,0.077179-0.5639954,0.2055969
		c-0.1538086,0.1278992-0.2309265,0.1025085-0.2562866,0.1278992c-0.0254211,0.0259094,0,0.1026001,0.051178,0.0766907
		c0.0508118-0.0253906,0.1539001-0.0766907,0.3077087-0.2051086c0.1538086-0.1283875,0.3070984-0.1278992,0.4613953-0.1278992
		c0.4618835,0,0.7187195,0.3847351,0.7695007,0.3589172C32.0010071,29.5385742,31.6923828,29.1283875,31.1796875,29.1283875
		L31.1796875,29.1283875L31.1796875,29.1283875z"/>
	<path class="st3" d="M32.1034851,29.282196c-0.5897827-0.5132141-1.3339844-0.5898132-1.7445984-0.2051086
		c-0.1005859,0.1342773-0.1651001,0.2783813-0.1914062,0.4283142c-0.0513,0.2919922,0.0400085,0.6078796,0.2684937,0.9310913
		c-0.0257874,0-0.0770874,0.0253906-0.1025085,0.0512695c-0.204071-0.389679-0.2758789-0.7895813-0.2089539-1.1698608
		c0.0175781-0.0991211,0.0448608-0.1973267,0.0800781-0.292511c0.5643921-0.4614258,1.3334961-0.5127258,1.8978882,0.2568054
		H32.1034851L32.1034851,29.282196z"/>
	<path class="st3" d="M31.1288757,29.3070984c0.1270142,0,0.2305298,0.1030884,0.2305298,0.2304993
		c0,0.1278687-0.1035156,0.2309875-0.2305298,0.2309875c-0.1278992,0-0.2309875-0.1031189-0.2309875-0.2309875
		C30.8978882,29.4101868,31.0009766,29.3070984,31.1288757,29.3070984L31.1288757,29.3070984z"/>
	<path class="st3" d="M31.7958984,29.6929016c-0.4364929,0.3334656-0.8721313,0.3075867-1.128418,0.1537781
		c-0.256897-0.1537781-0.256897-0.2050781-0.2055969-0.2050781s0.1026001,0.0513,0.3076172,0.1537781
		C30.9750671,29.8978882,31.282196,29.8978882,31.7958984,29.6929016L31.7958984,29.6929016L31.7958984,29.6929016z"/>
	<path class="st3" d="M29.4896851,30.4608765c-0.1092834,0.0201111-0.1875,0.1171875-0.1875,0.2290039
		c0,0.1274719,0.1054993,0.2286072,0.2325134,0.2286072c0.0751953,0,0.1445007-0.0357056,0.1875-0.0971985
		c0.0888062,0.0663757,0.2119141,0.0737,0.2778015,0.0746765c0.0103149,0.0004883,0.0228882,0,0.0297852,0
		c0.0658875-0.0009766,0.1889954-0.0083008,0.2778015-0.0746765c0.0429993,0.0614929,0.1123047,0.0971985,0.1875,0.0971985
		c0.1275024,0,0.2323914-0.1011353,0.2323914-0.2286072c0-0.1118164-0.0776062-0.2088928-0.1875-0.2290039
		c0.061615,0.0220032,0.1016235,0.0810852,0.1016235,0.1465149c0,0.0849915-0.0687866,0.1537781-0.1538086,0.1537781
		c-0.0815125,0-0.1488953-0.0648804-0.1538086-0.1464844c-0.0248718,0.0498962-0.1239929,0.1987915-0.3189087,0.206604
		c-0.1947937-0.0078125-0.2938843-0.1567078-0.3187866-0.206604c-0.0049133,0.081604-0.0722961,0.1464844-0.1538086,0.1464844
		c-0.0854797,0-0.1538086-0.0687866-0.1538086-0.1537781C29.3886719,30.5419617,29.4281616,30.4828796,29.4896851,30.4608765
		L29.4896851,30.4608765L29.4896851,30.4608765z"/>
	<path class="st3" d="M29.7406921,31.1435852c-0.2568054,0-0.3579102,0.2333984-0.5888062,0.3866882
		c0.1283875-0.0508118,0.2290039-0.1524048,0.4085999-0.2548828c0.1796875-0.1025085,0.3330994,0.0224915,0.4351196,0.0224915
		h0.0038757c0.1026001,0,0.2554321-0.125,0.4350891-0.0224915c0.179718,0.102478,0.2846375,0.204071,0.4126282,0.2548828
		c-0.2304993-0.1532898-0.3359985-0.3866882-0.592804-0.3866882c-0.0507812,0-0.1523132,0.0282898-0.2549133,0.0791016h-0.0038757
		C29.8935852,31.171875,29.7919922,31.1435852,29.7406921,31.1435852L29.7406921,31.1435852z"/>
	<path class="st3" d="M29.6542969,31.4472656c-0.1016235,0.0048218-0.2354126,0.0254211-0.4277039,0.0830078
		c0.4618835-0.1026001,0.5639038,0.0527039,0.7690125,0.0527039h0.0038757c0.2051086,0,0.3070984-0.155304,0.769104-0.0527039
		c-0.5131836-0.1542969-0.6152954-0.0527954-0.769104-0.0527954h-0.0038757
		C29.8993835,31.477478,29.8231812,31.4403992,29.6542969,31.4472656L29.6542969,31.4472656L29.6542969,31.4472656z"/>
	<path class="st3" d="M29.2494812,31.5272827c-0.0297852,0-0.0619812,0-0.0971985,0.0029907
		c0.5386047,0.0517273,0.2798157,0.3602905,0.843811,0.3602905H30c0.5644836,0,0.3091125-0.3085632,0.8476868-0.3602905
		C30.2836914,31.4794617,30.4618835,31.8125,30,31.8125h-0.0039062C29.5629883,31.8125,29.6968079,31.5214844,29.2494812,31.5272827
		L29.2494812,31.5272827L29.2494812,31.5272827z"/>
	<path class="st3" d="M30.4623718,32.3603821c0-0.2548828-0.2069702-0.4619751-0.4618835-0.4619751
		s-0.4618835,0.2070923-0.4618835,0.4619751c0.0507812-0.2138977,0.2421875-0.3652954,0.4618835-0.3652954
		C30.2206726,31.9950867,30.4115906,32.1464844,30.4623718,32.3603821L30.4623718,32.3603821L30.4623718,32.3603821
		L30.4623718,32.3603821z"/>
	<path class="st3" d="M27.9267883,29.282196c0.5898132-0.5132141,1.3338928-0.5898132,1.7441101-0.2051086
		c0.1005859,0.1342773,0.1650085,0.2783813,0.1914062,0.4283142c0.0517883,0.2919922-0.0394897,0.6078796-0.2685242,0.9310913
		c0.0258179,0,0.0771179,0.0253906,0.1030273,0.0512695c0.2035828-0.389679,0.2758789-0.7895813,0.2089844-1.1698608
		c-0.0176086-0.0991211-0.0449829-0.1973267-0.0806274-0.292511c-0.5644836-0.4614258-1.3334656-0.5127258-1.8979797,0.2568054
		H27.9267883L27.9267883,29.282196z"/>
	<path class="st3" d="M28.8500977,29.1283875c0.3329773,0,0.4102173,0.077179,0.5639954,0.2055969
		c0.1542969,0.1278992,0.230896,0.1025085,0.2568054,0.1278992c0.0253906,0.0259094,0,0.1026001-0.0513,0.0766907
		c-0.0512085-0.0253906-0.1542969-0.0766907-0.3076172-0.2051086c-0.1542969-0.1283875-0.308075-0.1278992-0.4618835-0.1278992
		c-0.4619141,0-0.7183228,0.3847351-0.7695312,0.3589172C28.0292664,29.5385742,28.3374023,29.1283875,28.8500977,29.1283875
		L28.8500977,29.1283875L28.8500977,29.1283875z"/>
	<path class="st4" d="M28.8305664,29.3393555c0.2216187-0.0039673,0.4287109,0.0976257,0.4575195,0.1987305
		c-0.2563782,0.282196-0.6664734,0.257782-0.9228821,0.0527039C28.477478,29.4111023,28.6582031,29.342804,28.8305664,29.3393555
		L28.8305664,29.3393555L28.8305664,29.3393555z M28.8345032,29.2870789c-0.2281189,0-0.4458008,0.0986023-0.5742188,0.3037109
		c0.2563171,0.2309875,0.8232117,0.2558899,1.2080078-0.0263062c-0.1665039-0.1791992-0.406311-0.2774048-0.6343079-0.2774048
		H28.8345032L28.8345032,29.2870789z"/>
	<path class="st3" d="M28.8642883,29.3070984c0.1273804,0,0.230896,0.1030884,0.230896,0.2304993
		c0,0.1278687-0.1035156,0.2309875-0.230896,0.2309875c-0.1275024,0-0.2309875-0.1031189-0.2309875-0.2309875
		C28.6333008,29.4101868,28.7367859,29.3070984,28.8642883,29.3070984L28.8642883,29.3070984z"/>
	<path class="st3" d="M28.234375,29.6929016c0.4360046,0.3334656,0.8720093,0.3075867,1.128418,0.1537781
		c0.2563171-0.1537781,0.2563171-0.2050781,0.2051086-0.2050781c-0.0513,0-0.1021118,0.0513-0.3075867,0.1537781
		C29.0552063,29.8978882,28.7475891,29.8978882,28.234375,29.6929016L28.234375,29.6929016L28.234375,29.6929016z"/>
</g>
</svg>
