<?xml version="1.0" encoding="utf-8"?>
<!-- Generator: Adobe Illustrator 22.1.0, SVG Export Plug-In . SVG Version: 6.00 Build 0)  -->
<svg version="1.1" id="Layer_1" xmlns="http://www.w3.org/2000/svg" xmlns:xlink="http://www.w3.org/1999/xlink" x="0px" y="0px"
	 viewBox="0 0 60 60" style="enable-background:new 0 0 60 60;" xml:space="preserve">
<style type="text/css">
	.st0{clip-path:url(#SVGID_2_);fill:#4A8BCA;}
	.st1{clip-path:url(#SVGID_2_);fill:#FFD207;}
	.st2{clip-path:url(#SVGID_2_);fill:#E73742;}
	.st3{clip-path:url(#SVGID_2_);fill:#FFFFFF;}
</style>
<g id="XMLID_1_">
	<g>
		<defs>
			<path id="SVGID_1_" d="M59,60H0.9999695C0.4477234,60,0,59.5526733,0,59V0.9999695c0-0.5522461,0.4477234-1,0.9999695-1H59
				c0.5526886,0,0.9999847,0.4477539,0.9999847,1V59C59.9999847,59.5526733,59.5526886,60,59,60L59,60z"/>
		</defs>
		<clipPath id="SVGID_2_">
			<use xlink:href="#SVGID_1_"  style="overflow:visible;"/>
		</clipPath>
		<polygon class="st0" points="0,-0.0000305 89.9999847,-0.0000305 89.9999847,60 0,60 0,-0.0000305 		"/>
		<polygon class="st1" points="0,39.9999695 89.9999847,39.9999695 89.9999847,43.3329773 0,43.3329773 0,46.6669617 
			89.9999847,46.6669617 89.9999847,50 0,50 0,39.9999695 		"/>
		<polygon class="st2" points="15.4164734,11.2499695 13.3334961,4.4985046 11.25,11.2499695 4.4985352,13.3334961 
			11.25,15.4164734 13.3334961,22.1679993 15.4164734,15.4164734 22.1679993,13.3334961 15.4164734,11.2499695 		"/>
		<path class="st3" d="M11.3778992,15.2885742l1.9555969,6.3368835l1.9551086-6.3368835l6.3368835-1.9550781l-6.3368835-1.9555969
			l-1.9551086-6.3364258l-1.9555969,6.3364258l-6.3364258,1.9555969L11.3778992,15.2885742L11.3778992,15.2885742z
			 M11.1220703,15.5443726l-7.1660461-2.2108765l7.1660461-2.2114258l2.2114258-7.1660461l2.2108765,7.1660461l7.1660156,2.2114258
			l-7.1660156,2.2108765l-2.2108765,7.1660156L11.1220703,15.5443726L11.1220703,15.5443726z"/>
		<path class="st3" d="M5.5497742,13.3334961l5.7915039-1.7871094l0.0049133-0.0014954l0.1517944-0.0469055l0.0464172-0.1513062
			l1.789093-5.7969055l1.7870789,5.7915039l0.0015259,0.0049133l0.0463867,0.1517944l0.1517944,0.0463867l5.7963867,1.7891235
			l-5.7914734,1.7870789l-0.0049133,0.0015259l-0.1513977,0.0463562l-0.0467834,0.151825l-1.7886047,5.7963867l-1.7871094-5.7915039
			l-0.0014954-0.0048828l-0.0469055-0.1513977l-0.1512756-0.0467834L5.5497742,13.3334961L5.5497742,13.3334961
			L5.5497742,13.3334961z M13.3334961,3.4472656L13.046875,4.3764343l-2.0448914,6.6255493L4.3764343,13.046875
			l-0.9291687,0.2866211l0.9291687,0.2865601l6.6255493,2.0445251l2.0448914,6.6259155l0.2866211,0.9287109l0.2865906-0.9287109
			l2.0444946-6.6259155l6.6259155-2.0445251l0.9287109-0.2865601l-0.9287109-0.2866211l-6.6259155-2.0448914l-2.0444946-6.6255493
			L13.3334961,3.4472656L13.3334961,3.4472656L13.3334961,3.4472656z M13.3334961,22.1342773l2.0751953-6.7256165
			l0.0049133-0.0014954l6.7206726-2.0736694l-6.7255859-2.0757141l-0.0014954-0.0049133l-2.0737-6.7201843L11.257782,11.257782
			l-0.0048828,0.0019836l-6.7202148,2.0737305l6.7250977,2.0751648l0.0019836,0.0049438L13.3334961,22.1342773
			 M13.3334961,4.4648132l2.0913086,6.7773743l6.776886,2.0913086l-6.776886,2.0912781l-2.0913086,6.7773132l-2.0913086-6.7773132
			l-6.7773438-2.0912781l6.7773438-2.0913086L13.3334961,4.4648132"/>
	</g>
</g>
</svg>
