<?xml version="1.0" encoding="utf-8"?>
<!-- Generator: Adobe Illustrator 22.1.0, SVG Export Plug-In . SVG Version: 6.00 Build 0)  -->
<svg version="1.1" id="Layer_1" xmlns="http://www.w3.org/2000/svg" xmlns:xlink="http://www.w3.org/1999/xlink" x="0px" y="0px"
	 viewBox="0 0 60 60" style="enable-background:new 0 0 60 60;" xml:space="preserve">
<style type="text/css">
	.st0{clip-path:url(#SVGID_2_);fill:#27316F;}
	.st1{clip-path:url(#SVGID_2_);fill:#FFFFFF;}
	.st2{clip-path:url(#SVGID_5_);}
	.st3{clip-path:url(#SVGID_6_);fill:#27316F;}
	.st4{clip-path:url(#SVGID_6_);fill:#FFFFFF;}
	.st5{clip-path:url(#SVGID_10_);}
	.st6{clip-path:url(#SVGID_11_);}
	.st7{clip-path:url(#SVGID_12_);fill:#020203;}
	.st8{clip-path:url(#SVGID_12_);fill:#C91433;}
	.st9{clip-path:url(#SVGID_15_);}
	.st10{clip-path:url(#SVGID_16_);fill:#FFFFFF;}
	.st11{clip-path:url(#SVGID_16_);fill:#C91433;}
</style>
<g id="XMLID_1_">
	<g>
		<defs>
			<path id="SVGID_1_" d="M59,60H0.9999695C0.4477234,60,0,59.5526733,0,59V0.9999695c0-0.5522461,0.4477234-1,0.9999695-1H59
				c0.5526886,0,0.9999847,0.4477539,0.9999847,1V59C59.9999847,59.5526733,59.5526886,60,59,60L59,60z"/>
		</defs>
		<clipPath id="SVGID_2_">
			<use xlink:href="#SVGID_1_"  style="overflow:visible;"/>
		</clipPath>
		<polygon class="st0" points="-30.1698914,-0.1089172 90.0478973,-0.1089172 90.0478973,60 -30.1698914,60 -30.1698914,-0.1089172 
					"/>
		<polygon class="st0" points="-30.035614,29.8783875 29.9389954,29.8783875 29.9389954,-0.1089172 49.9306946,-0.1089172 
			49.9306946,39.8739624 -30.035614,39.8739624 -30.035614,29.8783875 		"/>
		<polygon class="st1" points="-0.0483398,35.8759766 1.6865234,41.2695007 6.985321,39.2626953 3.8496094,43.9823914 
			8.7226257,46.8739929 3.0776367,47.3651733 3.85495,52.9775085 -0.0483398,48.8700867 -3.9516602,52.9775085 
			-3.1743164,47.3651733 -8.8188782,46.8739929 -3.9462891,43.9823914 -7.0815735,39.2626953 -1.7832336,41.2695007 
			-0.0483398,35.8759766 		"/>
		<polygon class="st1" points="59.9267731,45.585907 60.7528839,48.1542969 63.2763977,47.1991882 61.7831879,49.4462891 
			64.1034851,50.8231812 61.414978,51.0565796 61.785202,53.7294922 59.9267731,51.773407 58.0673981,53.7294922 
			58.4384918,51.0565796 55.7499847,50.8231812 58.0702972,49.4462891 56.5770874,47.1991882 59.1005707,48.1542969 
			59.9267731,45.585907 		"/>
		<polygon class="st1" points="44.9325867,21.8461914 45.7587891,24.4145813 48.2821655,23.4589844 46.789093,25.7060852 
			49.1094055,27.0829773 46.421875,27.3168945 46.7919922,29.9896851 44.9325867,28.0336914 43.0741882,29.9896851 
			43.4443054,27.3168945 40.7568054,27.0829773 43.0761719,25.7060852 41.5839844,23.4589844 44.1063843,24.4145813 
			44.9325867,21.8461914 		"/>
		<polygon class="st1" points="59.9267731,5.6029968 60.7528839,8.1713867 63.2763977,7.2157898 61.7831879,9.4628601 
			64.1034851,10.8397827 61.414978,11.0736694 61.785202,13.746582 59.9267731,11.7904663 58.0673981,13.746582 
			58.4384918,11.0736694 55.7499847,10.8397827 58.0702972,9.4628601 56.5770874,7.2157898 59.1005707,8.1713867 
			59.9267731,5.6029968 		"/>
	</g>
	<g>
		<defs>
			<polygon id="SVGID_3_" points="29.7094727,-0.1089172 29.7094727,29.8783875 -30.035614,29.8783875 -30.035614,-0.1089172 
				29.7094727,-0.1089172 			"/>
		</defs>
		<defs>
			<path id="SVGID_4_" d="M59,60H0.9999695C0.4477234,60,0,59.5526733,0,59V0.9999695c0-0.5522461,0.4477234-1,0.9999695-1H59
				c0.5526886,0,0.9999847,0.4477539,0.9999847,1V59C59.9999847,59.5526733,59.5526886,60,59,60L59,60z"/>
		</defs>
		<clipPath id="SVGID_5_">
			<use xlink:href="#SVGID_3_"  style="overflow:visible;"/>
		</clipPath>
		<clipPath id="SVGID_6_" class="st2">
			<use xlink:href="#SVGID_4_"  style="overflow:visible;"/>
		</clipPath>
		<polygon class="st3" points="29.7094727,-0.1089172 29.7094727,29.8783875 -30.035614,29.8783875 -30.035614,-0.1089172 
			29.7094727,-0.1089172 		"/>
		<polygon class="st4" points="12.655304,11.8856812 6.6577148,14.8847961 12.655304,17.8833008 16.6567078,19.8842773 
			29.7094727,26.4105835 29.7094727,29.8783875 23.2383118,29.8783875 4.9511719,20.7372742 2.9506836,19.734375 
			-0.0483398,18.237793 -3.046875,19.734375 -5.0478516,20.7372742 -23.3345032,29.8783875 -28.6933899,32.5575867 
			-30.0307922,29.8783875 -30.035614,29.8783875 -30.035614,29.8681641 -31.3730164,27.1937866 -30.035614,26.5253601 
			-16.7533875,19.8842773 -12.7520142,17.8833008 -6.7543945,14.8847961 -12.7520142,11.8856812 -16.7533875,9.8852539 
			-30.035614,3.2436523 -31.3730164,2.5751648 -30.035614,-0.0991211 -30.0307922,-0.1089172 -28.6933899,-2.7885742 
			-23.3345032,-0.1089172 -5.0478516,9.0317078 -3.046875,10.0346985 -0.0483398,11.5316772 2.9506836,10.0346985 
			4.9511719,9.0317078 23.2383118,-0.1089172 28.5971985,-2.7885742 29.9341125,-0.1089172 31.2763977,2.5751648 
			29.7094727,3.3583679 16.6567078,9.8852539 12.655304,11.8856812 		"/>
	</g>
	<g>
		<defs>
			<path id="SVGID_7_" d="M-30.0336914,29.8778687v4.9971008h29.9853516V-0.1079102H29.9375L-30.0336914,29.8778687
				L-30.0336914,29.8778687z M-30.0336914-0.1079102v14.9931946h69.9662781v14.9925842H29.9375L-30.0336914-0.1079102
				L-30.0336914-0.1079102z"/>
		</defs>
		<defs>
			<polygon id="SVGID_8_" points="29.7094727,-0.1089172 29.7094727,29.8783875 -30.035614,29.8783875 -30.035614,-0.1089172 
				29.7094727,-0.1089172 			"/>
		</defs>
		<defs>
			<path id="SVGID_9_" d="M59,60H0.9999695C0.4477234,60,0,59.5526733,0,59V0.9999695c0-0.5522461,0.4477234-1,0.9999695-1H59
				c0.5526886,0,0.9999847,0.4477539,0.9999847,1V59C59.9999847,59.5526733,59.5526886,60,59,60L59,60z"/>
		</defs>
		<clipPath id="SVGID_10_">
			<use xlink:href="#SVGID_7_"  style="overflow:visible;"/>
		</clipPath>
		<clipPath id="SVGID_11_" class="st5">
			<use xlink:href="#SVGID_8_"  style="overflow:visible;"/>
		</clipPath>
		<clipPath id="SVGID_12_" class="st6">
			<use xlink:href="#SVGID_9_"  style="overflow:visible;"/>
		</clipPath>
		<path class="st7" d="M29.9375-0.1079102l-59.9711914,29.9857788 M-30.0336914-0.1079102L29.9375,29.8778687"/>
		<polygon class="st8" points="29.0434875,31.6659851 -0.0483398,17.1200867 -29.1396179,31.6659851 -30.9277344,28.0897827 
			-4.5180969,14.8852844 -30.9277344,1.6801453 -29.1396179,-1.8955383 -0.0483398,12.6498718 29.0434875,-1.8955383 
			30.8314819,1.6801453 4.4218445,14.8852844 30.8314819,28.0897827 29.0434875,31.6659851 		"/>
	</g>
	<g>
		<defs>
			<polygon id="SVGID_13_" points="29.7094727,-0.1089172 29.7094727,29.8783875 -30.035614,29.8783875 -30.035614,-0.1089172 
				29.7094727,-0.1089172 			"/>
		</defs>
		<defs>
			<path id="SVGID_14_" d="M59,60H0.9999695C0.4477234,60,0,59.5526733,0,59V0.9999695c0-0.5522461,0.4477234-1,0.9999695-1H59
				c0.5526886,0,0.9999847,0.4477539,0.9999847,1V59C59.9999847,59.5526733,59.5526886,60,59,60L59,60z"/>
		</defs>
		<clipPath id="SVGID_15_">
			<use xlink:href="#SVGID_13_"  style="overflow:visible;"/>
		</clipPath>
		<clipPath id="SVGID_16_" class="st9">
			<use xlink:href="#SVGID_14_"  style="overflow:visible;"/>
		</clipPath>
		<polygon class="st10" points="39.9335938,9.8852539 39.9335938,19.8842773 4.9511719,19.8842773 4.9511719,29.8783875 
			-5.0478516,29.8783875 -5.0478516,19.8842773 -30.035614,19.8842773 -30.035614,9.8852539 -5.0478516,9.8852539 
			-5.0478516,-0.1089172 4.9511719,-0.1089172 4.9511719,9.8852539 39.9335938,9.8852539 		"/>
		<polygon class="st11" points="39.9335938,11.8856812 39.9335938,17.8833008 2.9506836,17.8833008 2.9506836,29.8783875 
			-3.046875,29.8783875 -3.046875,17.8833008 -30.035614,17.8833008 -30.035614,11.8856812 -3.046875,11.8856812 
			-3.046875,-0.1089172 2.9506836,-0.1089172 2.9506836,11.8856812 39.9335938,11.8856812 		"/>
	</g>
</g>
</svg>
