<?xml version="1.0" encoding="utf-8"?>
<!-- Generator: Adobe Illustrator 22.1.0, SVG Export Plug-In . SVG Version: 6.00 Build 0)  -->
<svg version="1.1" id="Layer_1" xmlns="http://www.w3.org/2000/svg" xmlns:xlink="http://www.w3.org/1999/xlink" x="0px" y="0px"
	 viewBox="0 0 60 60" style="enable-background:new 0 0 60 60;" xml:space="preserve">
<style type="text/css">
	.st0{clip-path:url(#SVGID_2_);fill:#419C36;}
	.st1{clip-path:url(#SVGID_2_);fill:#E72E3C;}
	.st2{clip-path:url(#SVGID_2_);fill:#0BB9E3;}
	.st3{clip-path:url(#SVGID_2_);fill:#FFFFFF;}
</style>
<g id="XMLID_1_">
	<g>
		<defs>
			<path id="SVGID_1_" d="M59,60H0.9999695C0.4477234,60,0,59.5526733,0,59V0.9999695c0-0.5522461,0.4477234-1,0.9999695-1H59
				c0.5526886,0,0.9999847,0.4477539,0.9999847,1V59C59.9999847,59.5526733,59.5526886,60,59,60L59,60z"/>
		</defs>
		<clipPath id="SVGID_2_">
			<use xlink:href="#SVGID_1_"  style="overflow:visible;"/>
		</clipPath>
		<polygon class="st0" points="-29.9604187,0.019989 89.9599915,0.019989 89.9599915,59.9804688 -29.9604187,59.9804688 
			-29.9604187,0.019989 		"/>
		<polygon class="st1" points="-29.9604187,0.019989 89.9599915,0.019989 89.9599915,39.9931641 -29.9604187,39.9931641 
			-29.9604187,0.019989 		"/>
		<polygon class="st2" points="-29.9604187,0.019989 89.9599915,0.019989 89.9599915,20.0068054 -29.9604187,20.0068054 
			-29.9604187,0.019989 		"/>
		<path class="st3" d="M28.0014648,21.0058594c4.9673157,0,8.9936218,4.026825,8.9936218,8.9941101
			c0,4.9667969-4.0263062,8.9941101-8.9936218,8.9941101c-4.9672852,0-8.9942017-4.0273132-8.9942017-8.9941101
			C19.0072632,25.0326843,23.0341797,21.0058594,28.0014648,21.0058594L28.0014648,21.0058594z"/>
		<path class="st1" d="M30,22.5048828c4.1395874,0,7.4950867,3.355896,7.4950867,7.4950867
			c0,4.1396179-3.3554993,7.4951172-7.4950867,7.4951172c-4.1392212,0-7.4951172-3.3554993-7.4951172-7.4951172
			C22.5048828,25.8607788,25.8607788,22.5048828,30,22.5048828L30,22.5048828z"/>
		<polygon class="st3" points="37.9950867,25.0033875 38.9511719,27.6918945 41.5282898,26.4667664 40.3027039,29.0438843 
			42.9911804,29.9999695 40.3027039,30.9560852 41.5282898,33.5331726 38.9511719,32.3085632 37.9950867,34.9971008 
			37.039093,32.3085632 34.4618835,33.5331726 35.6864929,30.9560852 32.9979858,29.9999695 35.6864929,29.0438843 
			34.4618835,26.4667664 37.039093,27.6918945 37.9950867,25.0033875 		"/>
	</g>
</g>
</svg>
