<?xml version="1.0" encoding="utf-8"?>
<!-- Generator: Adobe Illustrator 22.1.0, SVG Export Plug-In . SVG Version: 6.00 Build 0)  -->
<svg version="1.1" id="Layer_1" xmlns="http://www.w3.org/2000/svg" xmlns:xlink="http://www.w3.org/1999/xlink" x="0px" y="0px"
	 viewBox="0 0 60 60" style="enable-background:new 0 0 60 60;" xml:space="preserve">
<style type="text/css">
	.st0{clip-path:url(#SVGID_2_);fill:#FFFFFF;}
	.st1{clip-path:url(#SVGID_2_);fill:#CE1327;}
</style>
<g id="XMLID_1_">
	<g>
		<defs>
			<path id="SVGID_1_" d="M59,60H0.9999695C0.4477234,60,0,59.5526733,0,59V0.9999695c0-0.5522461,0.4477234-1,0.9999695-1H59
				c0.5526886,0,0.9999847,0.4477539,0.9999847,1V59C59.9999847,59.5526733,59.5526886,60,59,60L59,60z"/>
		</defs>
		<clipPath id="SVGID_2_">
			<use xlink:href="#SVGID_1_"  style="overflow:visible;"/>
		</clipPath>
		<polyline class="st0" points="-16.1064148,-0.0000305 83.8935852,-0.0000305 83.8935852,60 -16.1064148,60 		"/>
		<polyline class="st1" points="83.8935852,-0.0000305 8.8935242,-0.0000305 23.8935852,5.9999695 8.8935242,11.9999695 
			23.8935852,17.9999695 8.8935242,23.9999695 23.8935852,29.9999695 8.8935242,35.9999695 23.8935852,41.9999695 
			8.8935242,47.9999695 23.8935852,54 8.8935242,60 83.8935852,60 		"/>
	</g>
</g>
</svg>
