<?xml version="1.0" encoding="utf-8"?>
<!-- Generator: Adobe Illustrator 22.1.0, SVG Export Plug-In . SVG Version: 6.00 Build 0)  -->
<svg version="1.1" id="Layer_1" xmlns="http://www.w3.org/2000/svg" xmlns:xlink="http://www.w3.org/1999/xlink" x="0px" y="0px"
	 viewBox="0 0 60 60" style="enable-background:new 0 0 60 60;" xml:space="preserve">
<style type="text/css">
	.st0{clip-path:url(#SVGID_2_);fill:#25356F;}
	.st1{clip-path:url(#SVGID_2_);fill:#FDC72A;}
	.st2{clip-path:url(#SVGID_2_);fill:#020203;}
</style>
<g id="XMLID_1_">
	<g>
		<defs>
			<path id="SVGID_1_" d="M59,60H0.9999695C0.4477234,60,0,59.5526733,0,59V0.9999695c0-0.5522461,0.4477234-1,0.9999695-1H59
				c0.5526886,0,0.9999847,0.4477539,0.9999847,1V59C59.9999847,59.5526733,59.5526886,60,59,60L59,60z"/>
		</defs>
		<clipPath id="SVGID_2_">
			<use xlink:href="#SVGID_1_"  style="overflow:visible;"/>
		</clipPath>
		<polygon class="st0" points="-14.9443054,0.0371094 74.9442902,0.0371094 74.9442902,59.9628906 -14.9443054,59.9628906 
			-14.9443054,0.0371094 		"/>
		<polygon class="st1" points="15.0185852,0.0371094 44.9813843,0.0371094 44.9813843,59.9628906 15.0185852,59.9628906 
			15.0185852,0.0371094 		"/>
		<path class="st2" d="M30,15.4828796c-0.9736023,2.655304-1.9663086,5.4194031-4.0898132,7.5357056
			c0.6591187-0.2173157,1.8125-0.4122009,2.5541992-0.3930969v11.168396l-3.1533813,0.4687805
			c-0.112793-0.0116882-0.1499329-0.1875-0.1499329-0.4277039c-0.3036804-3.4677734-1.1235046-6.3818665-2.0672913-9.3970032
			c-0.0678711-0.4115906-1.2622986-1.9848633-0.3409119-1.7074585c0.1123047,0.0145874,1.3443298,0.516571,1.1494141,0.2767944
			c-1.6776733-1.737793-4.1307983-2.9887085-6.513092-3.3594055c-0.2095032-0.0527039-0.3330078,0.0522766-0.1459961,0.2958984
			c3.1611023,4.8652954,5.8055725,10.6069946,5.7827148,17.4194946c1.2284851,0,4.2059631-0.726593,5.4384766-0.726593v7.8798828
			h1.5541992l0.355896-22.0072937L30,15.4828796L30,15.4828796z"/>
		<path class="st2" d="M30,15.4828796c0.9735718,2.655304,1.9667664,5.4194031,4.0897827,7.5357056
			c-0.6590881-0.2173157-1.8125-0.4122009-2.5545654-0.3930969v11.168396l3.1542664,0.4687805
			c0.1123047-0.0116882,0.1494141-0.1875,0.1494141-0.4277039c0.3036804-3.4677734,1.1239929-6.3818665,2.0673828-9.3970032
			c0.0672913-0.4115906,1.2626038-1.9848633,0.3408203-1.7074585c-0.1123352,0.0145874-1.3448181,0.516571-1.1494141,0.2767944
			c1.6777039-1.737793,4.1307983-2.9887085,6.5126953-3.3594055c0.2099304-0.0527039,0.3338928,0.0522766,0.1463928,0.2958984
			c-3.1611023,4.8652954-5.8055725,10.6069946-5.7832031,17.4194946c-1.2284851,0-4.2059937-0.726593-5.4383545-0.726593v7.8798828
			h-1.553833l-0.355896-22.0072937L30,15.4828796L30,15.4828796z"/>
	</g>
</g>
</svg>
