<?xml version="1.0" encoding="utf-8"?>
<!-- Generator: Adobe Illustrator 22.1.0, SVG Export Plug-In . SVG Version: 6.00 Build 0)  -->
<svg version="1.1" id="Layer_1" xmlns="http://www.w3.org/2000/svg" xmlns:xlink="http://www.w3.org/1999/xlink" x="0px" y="0px"
	 viewBox="0 0 60 60" style="enable-background:new 0 0 60 60;" xml:space="preserve">
<style type="text/css">
	.st0{clip-path:url(#SVGID_2_);fill:#CF1922;}
	.st1{clip-path:url(#SVGID_2_);fill:#FFFFFF;}
	.st2{clip-path:url(#SVGID_2_);fill:#0A7D36;}
</style>
<g id="XMLID_1_">
	<g>
		<defs>
			<path id="SVGID_1_" d="M59,60H0.9999695C0.4477234,60,0,59.5526733,0,59V0.9999695c0-0.5522461,0.4477234-1,0.9999695-1H59
				c0.5526886,0,0.9999847,0.4477539,0.9999847,1V59C59.9999847,59.5526733,59.5526886,60,59,60L59,60z"/>
		</defs>
		<clipPath id="SVGID_2_">
			<use xlink:href="#SVGID_1_"  style="overflow:visible;"/>
		</clipPath>
		<polygon class="st0" points="0,-0.0000305 120,-0.0000305 120,60 0,60 0,-0.0000305 		"/>
		<polygon class="st1" points="0.6665039,-0.0000305 14,-0.0000305 14,60 0.6665039,60 0.6665039,-0.0000305 		"/>
		<path class="st0" d="M4.746582,30.226593v-0.8531189h0.5600281v0.8531189 M6.8266602,30.2402039v-0.733429H6.47995v-0.5737
			H5.973114v-1.719696H6.47995v0.6933289h0.5332031v1.0131836h0.5869446v1.3067017 M7.6000977,25.4667969v1.1732788H7.0400391
			v-1.1732788H7.6000977L7.6000977,25.4667969z M0.1333008,22.1864929h1.0532227v1.2934875H0.1333008V22.1864929
			L0.1333008,22.1864929z M0.1333008,14.4135742h1.0532227v1.2929077H0.1333008 M7.6264343,14.066864v1.8267212H7.0400391V14.066864
			H7.6264343L7.6264343,14.066864z M2.6933289,30.2402039v-0.6269226H2.2402344v-0.9468079H1.6401062v-0.5731812H1.1865234
			v-0.9200134H0.1333008v-2.1332703h1.0532227v0.6132812h0.4535828v0.8935852h0.6001282v1.0664062h0.8529968v-0.9599915h0.6269531
			v-0.7065125h0.4531555v-0.8403931H4.773407v-0.8930054h0.4399719v-0.9067993h0.4267578v-0.9331055h0.5732117v-1.2533875H5.4530945
			v-1.1333008H4.6264343v-0.6801758h-1.3862v0.9868774h0.7998047v0.8930054H3.5068359v1.0932922H2.8798828v0.9603882H2.0932617
			v-0.9603882H1.4399414v-1.0932922H1.0400391v-0.8930054H0.1333008v-1.6934204h1.0532227v-1.0932922h0.3999023v-0.8403015
			h0.3735352v-0.9599915h0.5332031v-0.9467163h0.5200195v-0.6264648h0.6269531v-0.9468384h0.7597351v0.9468384H5.026825v0.6264648
			h0.5332031v0.9467163h0.5200195v0.9599915h0.4267883v0.8266907h0.4262695v0.7202148h0.6933289v5.293396H6.8398438v0.8930969
			h-0.226593v0.9336243H6.0268555v0.9066772H5.6665039v0.6665039H5.2934265v0.706604H4.6532898v0.6933289H3.7333679v1.9335938
			 M2.4799805,11.026886H1.933075v1.1596069h0.5469055V11.026886L2.4799805,11.026886z M6.0932312,11.026886H5.5468445v1.1596069
			h0.5463867V11.026886L6.0932312,11.026886z M0.1333008,11h1.0532227v-0.9331055h0.6401367V9.1601562h0.7333679v0.9067383
			h0.6401367V11h0.5332031v1.226593H3.2001648v0.9466858H2.5600281v0.9067993H1.8266602v-0.9067993H1.1865234V12.226593H0.1333008
			 M6.1865234,9.1601562v0.9067383h0.6401367V11h0.7997742v1.226593H6.8266602v0.9466858H6.1865234v0.9067993H5.4399109v-0.9067993
			H4.7997742V12.226593H4.266571V11h0.5332031v-0.9331055h0.6401367V9.1601562H6.1865234L6.1865234,9.1601562z M7.6264343,7.1332703
			v1.8266602H7.0400391V7.1332703H7.6264343L7.6264343,7.1332703z M0.1333008,7.0131531h1.0532227v1.293457H0.1333008
			 M4.3198242,3.8666687V5.066864H3.6665039V3.8666687H4.3198242L4.3198242,3.8666687z M4.266571,2.0131836H3.7201843v0.813446
			H3.2001648v1.0268555H2.6933289v1.2666321h0.5068359v1.0263367h0.5200195v0.8003235H4.266571V6.1464539h0.5200195V5.1201172
			h0.5200195V3.8534851H4.7865906V2.8266296H4.266571V2.0131836L4.266571,2.0131836z M0.1333008,0.453125h1.0532227v1.2001648
			H0.1333008 M0.1333008,3.7997742h1.0532227V2.9331055h0.5336609V1.8798828h0.7466125V0.9599609h0.6132507v-0.9599915H4.933075
			v0.9599915h0.6001282v0.9199219h0.746582v1.0532227h0.5336914v0.8666687h0.8129578v1.3467102H6.8134766v0.8666687H6.2797852
			V7.066864h-0.746582v0.9199524H4.933075V8.973114H4.5068054v0.8266602H3.5068359V8.973114H3.0800476V7.9868164H2.4667969V7.066864
			H1.7201843V6.0131531H1.1865234V5.1464844H0.1333008 M7.6264343-0.0000305v2.1733398H7.0400391v-2.1733398H7.6264343
			L7.6264343-0.0000305z"/>
		<path class="st0" d="M9.9199219,30.226593v-0.8531189H9.3598328v0.8531189 M7.8398438,30.2402039v-0.733429h0.3466492v-0.5737
			h0.5068359v-1.719696H8.1864929v0.6933289H7.6532898v1.0131836H7.066864v1.3067017 M7.066864,25.4667969v1.1732788h0.5595703
			v-1.1732788H7.066864L7.066864,25.4667969z M14.5332031,22.1864929h-1.0532227v1.2934875h1.0532227V22.1864929
			L14.5332031,22.1864929z M14.5332031,14.4135742h-1.0532227v1.2929077h1.0532227 M7.0400391,14.066864v1.8267212h0.5863953
			V14.066864H7.0400391L7.0400391,14.066864z M11.9730835,30.2402039v-0.6269226h0.4537048v-0.9468079h0.6001282v-0.5731812
			h0.453064v-0.9200134h1.0532227v-2.1332703h-1.0532227v0.6132812h-0.453064v0.8935852h-0.6001282v1.0664062h-0.8536072v-0.9599915
			h-0.6263733v-0.7065125h-0.4536133v-0.8403931H9.8935547v-0.8930054H9.453125v-0.9067993H9.0268555v-0.9331055H8.453125
			v-1.2533875h0.7602234v-1.1333008h0.8266602v-0.6801758h1.3867798v0.9868774h-0.800293v0.8930054h0.5336914v1.0932922h0.6264038
			v0.9603882h0.7865906v-0.9603882h0.6534119v-1.0932922h0.3999023v-0.8930054h0.9067078v-1.6934204h-1.0532227v-1.0932922
			h-0.3999023v-0.8403015h-0.3735962v-0.9599915h-0.5332031v-0.9467163h-0.519989v-0.6264648H11.026886v-0.9468384H10.266571
			v0.9468384H9.6401367v0.6264648H9.1064148v0.9467163H8.5863953v0.9599915H8.1601257v0.8266907H7.7333984v0.7202148H7.0400391
			v5.293396h0.7866211v0.8930969h0.226532v0.9336243h0.5869446v0.9066772H9v0.6665039h0.3735352v0.706604h0.6396484v0.6933289
			h0.9198914v1.9335938 M12.1864929,11.026886h0.546875v1.1596069h-0.546875V11.026886L12.1864929,11.026886z M8.5732117,11.026886
			h0.5469055v1.1596069H8.5732117V11.026886L8.5732117,11.026886z M14.5332031,11h-1.0532227v-0.9331055h-0.6401978V9.1601562
			h-0.7333984v0.9067383h-0.6395874V11H10.933075v1.226593h0.5337219v0.9466858h0.6395874v0.9067993h0.7333984v-0.9067993h0.6401978
			V12.226593h1.0532227 M8.4799805,9.1601562v0.9067383H7.8398438V11H7.0400391v1.226593h0.7998047v0.9466858h0.6401367v0.9067993
			H9.226532v-0.9067993h0.6401367V12.226593h0.5332031V11H9.8666687v-0.9331055H9.226532V9.1601562H8.4799805L8.4799805,9.1601562z
			 M7.0400391,7.1332703v1.8266602h0.5863953V7.1332703H7.0400391L7.0400391,7.1332703z M14.5332031,7.0131531h-1.0532227v1.293457
			h1.0532227 M10.3466797,3.8666687V5.066864H11V3.8666687H10.3466797L10.3466797,3.8666687z M10.3998718,2.0131836h0.546936
			v0.813446h0.519989v1.0268555h0.5062866v1.2666321h-0.5062866v1.0263367h-0.519989v0.8003235h-0.546936V6.1464539H9.8798523
			V5.1201172H9.3598328V3.8534851h0.5200195V2.8266296h0.5200195V2.0131836L10.3998718,2.0131836z M14.5332031,0.453125h-1.0532227
			v1.2001648h1.0532227 M14.5332031,3.7997742h-1.0532227V2.9331055h-0.5332031V1.8798828h-0.7466125V0.9599609h-0.6138v-0.9599915
			H9.7333679v0.9599915H9.1333008v0.9199219h-0.746582v1.0532227H7.8535156v0.8666687H7.0400391v1.3467102h0.8134766v0.8666687
			h0.5332031V7.066864h0.746582v0.9199524h0.6000671V8.973114h0.4268188v0.8266602h1V8.973114h0.426178V7.9868164h0.6138V7.066864
			h0.7466125V6.0131531h0.5332031V5.1464844h1.0532227 M7.0400391-0.0000305v2.1733398h0.5863953v-2.1733398H7.0400391
			L7.0400391-0.0000305z"/>
		<path class="st0" d="M4.746582,29.7733765v0.8530884h0.5600281v-0.8530884 M6.8266602,29.7597656v0.7333984H6.47995v0.5732117
			H5.973114v1.7207031H6.47995v-0.6932983h0.5332031v-1.0137024h0.5869446v-1.3067017 M7.6000977,34.5331726v-1.1727905H7.0400391
			v1.1727905H7.6000977L7.6000977,34.5331726z M0.1333008,37.8134766h1.0532227v-1.2940063H0.1333008V37.8134766
			L0.1333008,37.8134766z M0.1333008,45.5868835h1.0532227v-1.2938843H0.1333008 M7.6264343,45.9335938v-1.8272095H7.0400391
			v1.8272095H7.6264343L7.6264343,45.9335938z M2.6933289,29.7597656v0.6269226H2.2402344v0.9462891H1.6401062v0.5733032H1.1865234
			v0.9208069H0.1333008v2.1328735h1.0532227v-0.6132812h0.4535828v-0.8935852h0.6001282v-1.0664062h0.8529968v0.9599915h0.6269531
			v0.7070007h0.4531555v0.8399048H4.773407v0.8934937h0.4399719v0.906311h0.4267578v0.9335938h0.5732117v1.2528992H5.4530945
			v1.1337891H4.6264343v0.6796875h-1.3862v-0.9863892h0.7998047v-0.8934937H3.5068359V37.719696H2.8798828v-0.9599304H2.0932617
			v0.9599304H1.4399414v1.0937805H1.0400391v0.8934937H0.1333008v1.6934204h1.0532227v1.0927734h0.3999023v0.8398132h0.3735352
			v0.960022h0.5332031v0.9472046h0.5200195v0.6259766h0.6269531v0.9472961h0.7597351v-0.9472961H5.026825v-0.6259766h0.5332031
			v-0.9472046h0.5200195v-0.960022h0.4267883v-0.8261719h0.4262695v-0.7197266h0.6933289v-5.2939148H6.8398438v-0.8935852h-0.226593
			v-0.9326172H6.0268555v-0.907196H5.6665039v-0.6659851H5.2934265v-0.7070923H4.6532898v-0.6933289H3.7333679v-1.9335938
			 M2.4799805,48.9735718H1.933075v-1.1600952h0.5469055V48.9735718L2.4799805,48.9735718z M6.0932312,48.9735718H5.5468445
			v-1.1600952h0.5463867V48.9735718L6.0932312,48.9735718z M0.1333008,48.9999695h1.0532227v0.9336243h0.6401367v0.906189h0.7333679
			v-0.906189h0.6401367v-0.9336243h0.5332031v-1.226593H3.2001648v-0.9462891H2.5600281v-0.907196H1.8266602v0.907196H1.1865234
			v0.9462891H0.1333008 M6.1865234,50.8397827v-0.906189h0.6401367v-0.9336243h0.7997742v-1.226593H6.8266602v-0.9462891H6.1865234
			v-0.907196H5.4399109v0.907196H4.7997742v0.9462891H4.266571v1.226593h0.5332031v0.9336243h0.6401367v0.906189H6.1865234
			L6.1865234,50.8397827z M7.6264343,52.8662109V51.039978H7.0400391v1.8262329H7.6264343L7.6264343,52.8662109z
			 M0.1333008,52.9862976h1.0532227v-1.2929077H0.1333008 M4.3198242,56.1337891v-1.2001953H3.6665039v1.2001953H4.3198242
			L4.3198242,56.1337891z M4.266571,57.9862976H3.7201843v-0.8134155H3.2001648v-1.0263977H2.6933289v-1.2666016h0.5068359
			v-1.0263977h0.5200195v-0.7997742H4.266571v0.7997742h0.5200195v1.0263977h0.5200195v1.2666016H4.7865906v1.0263977H4.266571
			V57.9862976L4.266571,57.9862976z M0.1333008,59.546875h1.0532227v-1.2001953H0.1333008 M0.1333008,56.2001953h1.0532227
			v0.8661804h0.5336609v1.0537109h0.7466125v0.9198914h0.6132507V60H4.933075v-0.960022h0.6001282v-0.9198914h0.746582v-1.0537109
			h0.5336914v-0.8661804h0.8129578v-1.3467102H6.8134766v-0.867218H6.2797852v-1.0526733h-0.746582v-0.9199219H4.933075v-0.9873047
			H4.5068054v-0.8261719H3.5068359v0.8261719H3.0800476v0.9873047H2.4667969v0.9199219H1.7201843v1.0526733H1.1865234v0.867218
			H0.1333008 M7.6264343,60v-2.1729126H7.0400391V60H7.6264343L7.6264343,60z"/>
		<path class="st0" d="M9.9199219,29.7733765v0.8530884H9.3598328v-0.8530884 M7.8398438,29.7597656v0.7333984h0.3466492v0.5732117
			h0.5068359v1.7207031H8.1864929v-0.6932983H7.6532898v-1.0137024H7.066864v-1.3067017 M7.066864,34.5331726v-1.1727905h0.5595703
			v1.1727905H7.066864L7.066864,34.5331726z M14.5332031,37.8134766h-1.0532227v-1.2940063h1.0532227V37.8134766
			L14.5332031,37.8134766z M14.5332031,45.5868835h-1.0532227v-1.2938843h1.0532227 M7.0400391,45.9335938v-1.8272095h0.5863953
			v1.8272095H7.0400391L7.0400391,45.9335938z M11.9730835,29.7597656v0.6269226h0.4537048v0.9462891h0.6001282v0.5733032h0.453064
			v0.9208069h1.0532227v2.1328735h-1.0532227v-0.6132812h-0.453064v-0.8935852h-0.6001282v-1.0664062h-0.8536072v0.9599915
			h-0.6263733v0.7070007h-0.4536133v0.8399048H9.8935547v0.8934937H9.453125v0.906311H9.0268555v0.9335938H8.453125v1.2528992
			h0.7602234v1.1337891h0.8266602v0.6796875h1.3867798v-0.9863892h-0.800293v-0.8934937h0.5336914V37.719696h0.6264038v-0.9599304
			h0.7865906v0.9599304h0.6534119v1.0937805h0.3999023v0.8934937h0.9067078v1.6934204h-1.0532227v1.0927734h-0.3999023v0.8398132
			h-0.3735962v0.960022h-0.5332031v0.9472046h-0.519989v0.6259766H11.026886v0.9472961H10.266571v-0.9472961H9.6401367v-0.6259766
			H9.1064148v-0.9472046H8.5863953v-0.960022H8.1601257v-0.8261719H7.7333984v-0.7197266H7.0400391v-5.2939148h0.7866211v-0.8935852
			h0.226532v-0.9326172h0.5869446v-0.907196H9v-0.6659851h0.3735352v-0.7070923h0.6396484v-0.6933289h0.9198914v-1.9335938
			 M12.1864929,48.9735718h0.546875v-1.1600952h-0.546875V48.9735718L12.1864929,48.9735718z M8.5732117,48.9735718h0.5469055
			v-1.1600952H8.5732117V48.9735718L8.5732117,48.9735718z M14.5332031,48.9999695h-1.0532227v0.9336243h-0.6401978v0.906189
			h-0.7333984v-0.906189h-0.6395874v-0.9336243H10.933075v-1.226593h0.5337219v-0.9462891h0.6395874v-0.907196h0.7333984v0.907196
			h0.6401978v0.9462891h1.0532227 M8.4799805,50.8397827v-0.906189H7.8398438v-0.9336243H7.0400391v-1.226593h0.7998047v-0.9462891
			h0.6401367v-0.907196H9.226532v0.907196h0.6401367v0.9462891h0.5332031v1.226593H9.8666687v0.9336243H9.226532v0.906189H8.4799805
			L8.4799805,50.8397827z M7.0400391,52.8662109V51.039978h0.5863953v1.8262329H7.0400391L7.0400391,52.8662109z
			 M14.5332031,52.9862976h-1.0532227v-1.2929077h1.0532227 M10.3466797,56.1337891v-1.2001953H11v1.2001953H10.3466797
			L10.3466797,56.1337891z M10.3998718,57.9862976h0.546936v-0.8134155h0.519989v-1.0263977h0.5062866v-1.2666016h-0.5062866
			v-1.0263977h-0.519989v-0.7997742h-0.546936v0.7997742H9.8798523v1.0263977H9.3598328v1.2666016h0.5200195v1.0263977h0.5200195
			V57.9862976L10.3998718,57.9862976z M14.5332031,59.546875h-1.0532227v-1.2001953h1.0532227 M14.5332031,56.2001953h-1.0532227
			v0.8661804h-0.5332031v1.0537109h-0.7466125v0.9198914h-0.6138V60H9.7333679v-0.960022H9.1333008v-0.9198914h-0.746582v-1.0537109
			H7.8535156v-0.8661804H7.0400391v-1.3467102h0.8134766v-0.867218h0.5332031v-1.0526733h0.746582v-0.9199219h0.6000671v-0.9873047
			h0.4268188v-0.8261719h1v0.8261719h0.426178v0.9873047h0.6138v0.9199219h0.7466125v1.0526733h0.5332031v0.867218h1.0532227
			 M7.0400391,60v-2.1729126h0.5863953V60H7.0400391L7.0400391,60z"/>
		<polygon class="st2" points="14,39.9999695 120,39.9999695 120,60 14,60 14,39.9999695 		"/>
	</g>
</g>
</svg>
