<?xml version="1.0" encoding="utf-8"?>
<!-- Generator: Adobe Illustrator 22.1.0, SVG Export Plug-In . SVG Version: 6.00 Build 0)  -->
<svg version="1.1" id="Layer_1" xmlns="http://www.w3.org/2000/svg" xmlns:xlink="http://www.w3.org/1999/xlink" x="0px" y="0px"
	 viewBox="0 0 60 60" style="enable-background:new 0 0 60 60;" xml:space="preserve">
<style type="text/css">
	.st0{clip-path:url(#SVGID_2_);fill:#25377E;}
	.st1{clip-path:url(#SVGID_2_);fill:#FECB05;}
	.st2{clip-path:url(#SVGID_2_);fill:#FFFFFF;}
</style>
<g id="XMLID_1_">
	<g>
		<defs>
			<path id="SVGID_1_" d="M59,60H0.9999695C0.4477234,60,0,59.5526733,0,59V0.9999695c0-0.5522461,0.4477234-1,0.9999695-1H59
				c0.5526886,0,0.9999847,0.4477539,0.9999847,1V59C59.9999847,59.5526733,59.5526886,60,59,60L59,60z"/>
		</defs>
		<clipPath id="SVGID_2_">
			<use xlink:href="#SVGID_1_"  style="overflow:visible;"/>
		</clipPath>
		<polygon class="st0" points="-20.9536133,0.0268555 98.9530945,0.0268555 98.9530945,59.9804688 -20.9536133,59.9804688 
			-20.9536133,0.0268555 		"/>
		<polygon class="st1" points="10.8217773,0.0268555 70.7753754,0.0268555 70.7753754,59.9804688 10.8217773,0.0268555 		"/>
		<polygon class="st2" points="59.9833832,53.6103821 61.2626801,57.5458679 65.4003906,57.5458679 62.0526886,59.9784851 
			63.3310852,63.9140625 59.9833832,61.4813843 56.6356812,63.9140625 57.9062958,59.9716797 54.5673828,57.5458679 
			58.7050934,57.5458679 59.9833832,53.6103821 		"/>
		<polygon class="st2" points="52.4893036,46.1161804 53.7686005,50.0517883 57.9062958,50.0517883 54.5585938,52.4833679 
			55.8368683,56.4188843 52.4893036,53.9872742 49.1416016,56.4188843 50.4120941,52.477478 47.0722656,50.0517883 
			51.2108917,50.0517883 52.4893036,46.1161804 		"/>
		<polygon class="st2" points="44.9950867,38.6220703 46.2743835,42.5575867 50.4120941,42.5575867 47.0644836,44.9892883 
			48.342804,48.9247742 44.9950867,46.4931946 41.6474915,48.9247742 42.9179688,44.9833679 39.578064,42.5575867 
			43.7167969,42.5575867 44.9950867,38.6220703 		"/>
		<polygon class="st2" points="37.5009766,31.1278992 38.780304,35.0634766 42.9179688,35.0634766 39.570282,37.4950867 
			40.8486023,41.4306946 37.5009766,38.9989929 34.1532898,41.4306946 35.4237671,37.4892883 32.0839844,35.0634766 
			36.2226868,35.0634766 37.5009766,31.1278992 		"/>
		<polygon class="st2" points="30.0067749,23.6332703 31.2861023,27.5687866 35.4237671,27.5687866 32.0762024,30.0014648 
			33.3544922,33.9364929 30.0067749,31.5048828 26.6591797,33.9364929 27.9296875,29.9950867 24.5903015,27.5687866 
			28.7279663,27.5687866 30.0067749,23.6332703 		"/>
		<polygon class="st2" points="22.5126648,16.1391907 23.7914734,20.0746765 27.9296875,20.0746765 24.5820007,22.5067749 
			25.8604126,26.4423828 22.5126648,24.0102844 19.164978,26.4423828 20.4354858,22.5009766 17.0961914,20.0746765 
			21.2338867,20.0746765 22.5126648,16.1391907 		"/>
		<polygon class="st2" points="15.0185852,8.644989 16.2973938,12.5805969 20.4354858,12.5805969 17.0874023,15.0126648 
			18.3662109,18.9481812 15.0185852,16.5160828 11.6708984,18.9481812 12.9413757,15.0067749 9.601532,12.5805969 
			13.7396851,12.5805969 15.0185852,8.644989 		"/>
		<polygon class="st2" points="7.5243835,1.1508484 8.8031921,5.0864258 12.9413757,5.0864258 9.5932617,7.5185242 
			10.8721008,11.4541016 7.5243835,9.0219421 4.1767578,11.4541016 5.4472351,7.5126648 2.1073914,5.0864258 6.245575,5.0864258 
			7.5243835,1.1508484 		"/>
		<polygon class="st2" points="0.0302429,-6.3432922 1.3090515,-2.4077148 5.4472351,-2.4077148 2.0991211,0.0243835 
			3.3779297,3.9599609 0.0302429,1.5278015 -3.3173828,3.9599609 -2.0473633,0.0185242 -5.3867493,-2.4077148 
			-1.2485657,-2.4077148 0.0302429,-6.3432922 		"/>
	</g>
</g>
</svg>
