<?xml version="1.0" encoding="utf-8"?>
<!-- Generator: Adobe Illustrator 22.1.0, SVG Export Plug-In . SVG Version: 6.00 Build 0)  -->
<svg version="1.1" id="Layer_1" xmlns="http://www.w3.org/2000/svg" xmlns:xlink="http://www.w3.org/1999/xlink" x="0px" y="0px"
	 viewBox="0 0 60 60" style="enable-background:new 0 0 60 60;" xml:space="preserve">
<style type="text/css">
	.st0{clip-path:url(#SVGID_2_);fill:#099B39;}
	.st1{clip-path:url(#SVGID_2_);fill:#FEDF0D;}
	.st2{fill:#243468;}
	.st3{clip-path:url(#SVGID_4_);fill:#FFFFFF;}
	.st4{fill:#099B39;}
	.st5{clip-path:url(#SVGID_7_);}
	.st6{clip-path:url(#SVGID_8_);fill:#099B39;}
	.st7{fill:#FFFFFF;}
</style>
<g id="XMLID_1_">
	<g>
		<defs>
			<path id="SVGID_1_" d="M59,60H0.9999695C0.4477234,60,0,59.5526733,0,59V0.9999695c0-0.5522461,0.4477234-1,0.9999695-1H59
				c0.5526886,0,0.9999847,0.4477539,0.9999847,1V59C59.9999847,59.5526733,59.5526886,60,59,60L59,60z"/>
		</defs>
		<clipPath id="SVGID_2_">
			<use xlink:href="#SVGID_1_"  style="overflow:visible;"/>
		</clipPath>
		<polygon class="st0" points="-12.8569031,-0.0000305 72.8573914,-0.0000305 72.8573914,60 -12.8569031,60 -12.8569031,-0.0000305 
					"/>
		<polygon class="st1" points="-5.5713196,29.9999695 30,52.7138672 65.5712891,29.9999695 30,7.285614 -5.5713196,29.9999695 		"/>
	</g>
	<path class="st2" d="M30,14.9999695c8.2841797,0,15,6.7158203,15,15c0,8.2842102-6.7158203,15-15,15
		c-8.2842102,0-15-6.7157898-15-15C15,21.7157898,21.7157898,14.9999695,30,14.9999695L30,14.9999695z"/>
	<g>
		<defs>
			<path id="SVGID_3_" d="M30,14.9999695c8.2841797,0,15,6.7158203,15,15c0,8.2842102-6.7158203,15-15,15
				c-8.2842102,0-15-6.7157898-15-15C15,21.7157898,21.7157898,14.9999695,30,14.9999695L30,14.9999695z"/>
		</defs>
		<clipPath id="SVGID_4_">
			<use xlink:href="#SVGID_3_"  style="overflow:visible;"/>
		</clipPath>
		<path class="st3" d="M-15,60c0-20.1191101,16.3095703-36.4287109,36.4286804-36.4287109
			c20.1192017,0,36.4287109,16.3096008,36.4287109,36.4287109h-2.1435089c0-18.9355164-15.3495941-34.285614-34.285202-34.285614
			C2.4931641,25.714386-12.8569031,41.0644836-12.8569031,60H-15L-15,60z"/>
	</g>
	<path class="st4" d="M17.1737976,25.352478c-0.2059937,0.0249023-0.3989258-0.1537781-0.4287109-0.4003906
		c-0.0307007-0.2460022,0.1132812-0.4663086,0.3203125-0.4912109c0.2060852-0.0253906,0.3989868,0.1534119,0.4286804,0.3999023
		C17.5248718,25.105957,17.3808899,25.3262024,17.1737976,25.352478L17.1737976,25.352478z M17.7572937,24.8285828
		c-0.047821-0.3916016-0.3724976-0.6737976-0.7250977-0.6307983c-0.3525085,0.0424194-0.5991211,0.394989-0.5503235,0.7865906
		c0.0479126,0.3916016,0.3731079,0.6737976,0.7250977,0.6307983C17.5596008,25.5727844,17.8061829,25.2191772,17.7572937,24.8285828
		L17.7572937,24.8285828z"/>
	<path class="st4" d="M18.5801086,24.6698914l-0.0303345-0.3598022l0.5503235-0.0401001
		c0.1000977-0.0101929,0.1898804,0.0697937,0.1996765,0.1698914c0.0103149,0.1000977-0.0697937,0.1900024-0.1698914,0.2002258
		L18.5801086,24.6698914L18.5801086,24.6698914z M19.1098938,23.9999695l-0.8198853,0.0600891l0.0800781,1.4301147
		l0.2700195-0.0204773l-0.0400391-0.5298157l0.5498352-0.039978h0.019989
		c0.0801086-0.0098267,0.1602173-0.0400391,0.2299805-0.0801392c0.1201172-0.0897827,0.2002258-0.2396851,0.1802063-0.3998718
		C19.5697632,24.1698914,19.3500671,23.9901733,19.1098938,23.9999695L19.1098938,23.9999695z"/>
	<path class="st4" d="M19.5820007,25.4018555c-0.0140991-0.2036438-0.0454102-0.651886-0.3510132-0.6303711l-0.3868103,0.0273132
		c0.4478149-0.0317078,0.4794922,0.4164734,0.4937134,0.6200867L19.5820007,25.4018555L19.5820007,25.4018555z"/>
	<path class="st4" d="M21.2099915,24.7001648c0,0.2197266-0.1700134,0.3896179-0.3798828,0.3999023h-0.3902283l-0.0096741-0.8900757
		l0.3798828-0.0098267c0.2201843,0,0.3900757,0.1699219,0.3999023,0.3799133V24.7001648L21.2099915,24.7001648z
		 M21.4501953,24.5297852c0-0.3296204-0.280304-0.5995789-0.6200867-0.5995789l-0.6699219,0.0199585l0.0200195,1.4199219
		l0.6698608-0.0101929c0.3398132,0,0.6099243-0.2798157,0.6099243-0.6197205L21.4501953,24.5297852L21.4501953,24.5297852z"/>
	<polygon class="st4" points="21.9950867,25.3559875 23.2802734,25.4008789 23.2896118,25.1356812 22.2489624,25.0990906 
		22.2616882,24.7318726 23.0775757,24.7606812 23.0863953,24.5155945 22.2704773,24.4872742 22.280304,24.2016907 
		23.2592773,24.2358093 23.2685852,23.9706726 22.0448914,23.9281921 21.9950867,25.3559875 	"/>
	<polygon class="st4" points="23.8075867,25.433075 24.0513,25.454071 24.1366882,24.4784851 24.3358765,25.4789734 
		24.5596008,25.4985046 24.9296875,24.5478821 24.8441772,25.523407 25.0884094,25.5448914 25.2128906,24.1221008 
		24.8569031,24.0907898 24.4867859,25.0414734 24.2875977,24.0409851 23.9320679,24.0097656 23.8075867,25.433075 	"/>
	<polygon class="st4" points="26.7675781,25.766571 27.8232117,25.9482117 27.8646851,25.7070007 27.050293,25.5668945 
		27.1054993,25.2450867 27.7689819,25.359375 27.8104858,25.1176758 27.1470032,25.0038757 27.1850891,24.7826843 
		27.9745789,24.9179688 28.0160828,24.6767578 26.9848938,24.4994812 26.7675781,25.766571 	"/>
	<path class="st4" d="M30.4696655,25.7299805l-0.5297852-0.1298828l0.0903931-0.3599243l0.5298157,0.1397095
		c0.1000977,0.019989,0.1596069,0.1200867,0.1297913,0.2202148C30.6698914,25.7001648,30.5697937,25.7597961,30.4696655,25.7299805
		L30.4696655,25.7299805z M30.6498718,25.1298828l-0.789978-0.2099915l-0.3798828,1.3798828l0.2601624,0.0703125
		l0.1299133-0.5200195L30.4198914,26c0.2402954,0.0600891,0.4902954-0.0898438,0.5498047-0.3301086
		C31.030304,25.4302063,30.8900757,25.1898804,30.6498718,25.1298828L30.6498718,25.1298828z"/>
	<path class="st4" d="M32.25,26.2499695l-0.530304-0.1601868l0.1200867-0.3495789l0.5205994,0.159668
		c0.0996094,0.030304,0.1494141,0.1401062,0.1201172,0.230011C32.4501648,26.2299805,32.3496094,26.2797852,32.25,26.2499695
		L32.25,26.2499695z M32.4599915,25.6601868l-0.780304-0.25l-0.4491882,1.3598022l0.2597046,0.0800781l0.1601868-0.5102844
		l0.5400085,0.1700134c0.0400696,0.0199585,0.0898743,0.0199585,0.1299133,0.0199585c0.0400696,0,0.0692749,0,0.109375-0.0097656
		c0.1503906-0.0400085,0.2705078-0.1499023,0.3203125-0.300293C32.8301086,25.9799805,32.7001953,25.7299805,32.4599915,25.6601868
		L32.4599915,25.6601868z"/>
	<path class="st4" d="M32.3905945,27.1322937c0.0614929-0.1947937,0.1962891-0.6230164-0.0957336-0.7148132l-0.3690796-0.1166992
		c0.4277039,0.1352234,0.2929993,0.5635071,0.2313843,0.757782L32.3905945,27.1322937L32.3905945,27.1322937z"/>
	<path class="st4" d="M34.1601868,27.0097656c-0.0801086,0.2402039-0.3105774,0.3701172-0.5097961,0.2900085
		c-0.1903992-0.0697937-0.280304-0.3197937-0.1903992-0.5497742c0.0799866-0.230011,0.3095093-0.3599243,0.5097046-0.2900085
		C34.1601868,26.5297546,34.25,26.7797852,34.1601868,27.0097656L34.1601868,27.0097656z M34.0596008,26.2099915
		c-0.3291321-0.1202087-0.710022,0.0799866-0.8496094,0.4501648c-0.139679,0.3696289,0.0205078,0.7700195,0.3496094,0.8896179
		c0.3299866,0.1201172,0.7098694-0.0697937,0.8505859-0.4399109C34.5498047,26.7401733,34.3895874,26.3397827,34.0596008,26.2099915
		L34.0596008,26.2099915z"/>
	<path class="st4" d="M35.8163757,27.7050781c-0.0800781,0.2397156-0.3104858,0.3695984-0.5106812,0.2895203
		c-0.1895142-0.0698242-0.2792969-0.3198242-0.1895142-0.5498352c0.0801086-0.2299805,0.3096313-0.3598022,0.5097961-0.289978
		C35.8163757,27.2245789,35.906311,27.4745789,35.8163757,27.7050781L35.8163757,27.7050781z M35.7157898,26.9047546
		c-0.3301086-0.1200867-0.7098999,0.0801392-0.8495789,0.4502258c-0.140625,0.3695984,0.0194702,0.769989,0.3495789,0.8895874
		c0.3301086,0.1201172,0.7099915-0.0697937,0.8505859-0.4398804C36.2060852,27.4350586,36.0458984,27.034668,35.7157898,26.9047546
		L35.7157898,26.9047546z"/>
	<g>
		<defs>
			<polygon id="SVGID_5_" points="34.6532898,27.9740906 35.2226868,26.664093 36.4013977,27.1767883 35.8320007,28.4867859 
				34.6532898,27.9740906 			"/>
		</defs>
		<defs>
			<polygon id="SVGID_6_" points="35.625,27.3505859 35.5272827,27.5751648 36.1171875,27.8314819 36.2147827,27.6068726 
				35.625,27.3505859 			"/>
		</defs>
		<clipPath id="SVGID_7_">
			<use xlink:href="#SVGID_5_"  style="overflow:visible;"/>
		</clipPath>
		<clipPath id="SVGID_8_" class="st5">
			<use xlink:href="#SVGID_6_"  style="overflow:visible;"/>
		</clipPath>
		<path class="st6" d="M35.2421875,28.2304688c0.3262024,0.1416016,0.7167969-0.0370789,0.875-0.3989868
			c0.157196-0.3618164,0.0205078-0.7695007-0.3046875-0.9111023c-0.3262024-0.1416016-0.717804,0.0365906-0.8750305,0.398407
			C34.780304,27.6806946,34.9169922,28.0888977,35.2421875,28.2304688"/>
		<path class="st6" d="M35.3486023,27.9872742c0.1904907,0.0830078,0.4257812-0.0342102,0.5243835-0.2612
			c0.0997009-0.2276001,0.0245056-0.4794922-0.1669006-0.5625c-0.1914978-0.0830078-0.4258118,0.0336914-0.5254211,0.2612
			C35.0820007,27.6522827,35.1571655,27.9037781,35.3486023,27.9872742"/>
	</g>
	<polygon class="st4" points="35.6210938,27.6161804 36.1171875,27.8314819 36.0351868,28.0189819 35.539093,27.8031921 
		35.6210938,27.6161804 	"/>
	<polygon class="st4" points="35.9296875,27.7504883 36.1171875,27.8314819 35.8320007,28.4867859 35.6445007,28.405304 
		35.9296875,27.7504883 	"/>
	<path class="st4" d="M37.6395874,28.2797852c-0.039978,0.0903015-0.1493835,0.1304016-0.2391968,0.0801086l-0.5-0.2398071
		l0.1698914-0.3301086l0.4892883,0.2397766C37.6503906,28.0800781,37.6903992,28.1898804,37.6395874,28.2797852
		L37.6395874,28.2797852z M37.7001648,27.7997742l-0.7304688-0.3598938l-0.6600952,1.2701111l0.2401733,0.1200867
		l0.2304993-0.480011l0.5097046,0.2597961h0.0097961c0.0498047,0.0302124,0.1104126,0.0400391,0.1699219,0.0400391h0.0605774
		c0.1494141-0.0098267,0.2998047-0.1001282,0.3701172-0.2397156C38.0097961,28.1898804,37.9198608,27.9198914,37.7001648,27.7997742
		L37.7001648,27.7997742z"/>
	<path class="st4" d="M37.3974915,29.2519836c0.0908203-0.1827087,0.2909851-0.5845032,0.0175171-0.7212219l-0.3466187-0.1728821
		c0.4013062,0.2001953,0.2010803,0.6020813,0.1102905,0.7846985L37.3974915,29.2519836L37.3974915,29.2519836z"/>
	<polygon class="st4" points="37.9277039,29.5316772 39.0469055,30.164978 39.1777039,29.934082 38.2714844,29.4213562 
		38.453064,29.101593 39.1630859,29.5038757 39.2842102,29.2904663 38.5731812,28.8887024 38.7138672,28.6400757 
		39.5663757,29.1225586 39.6972961,28.8916016 38.6317749,28.2885742 37.9277039,29.5316772 	"/>
	<path class="st4" d="M40.0126953,30.2309875c-0.0772095,0.120575,0.0010071,0.2547913,0.1727905,0.3646851
		c0.171875,0.1094055,0.289093,0.1054993,0.3388977,0.0283203c0.156311-0.2456055-0.7471008-0.6029968-0.4687195-1.0307007
		c0.2402039-0.367218,0.6504211-0.081604,0.805603,0.0170898c0.155304,0.0990906,0.4033203,0.3540039,0.210022,0.648407
		l-0.2616882-0.167511c0.0820007-0.1288757-0.0088196-0.2528992-0.1465149-0.3407898
		c-0.1328125-0.085022-0.2412109-0.1235046-0.3212891,0.0010071c-0.1328125,0.1996765,0.7519836,0.5760803,0.4813843,1.0018921
		c-0.2001953,0.3139954-0.5487976,0.1773071-0.781189,0.0292969c-0.1981812-0.1264038-0.4932251-0.4238281-0.3007812-0.7241211
		L40.0126953,30.2309875L40.0126953,30.2309875z"/>
	<path class="st4" d="M41.5448914,31.2440796c-0.0830078,0.1163025-0.0127258,0.2549133,0.1532898,0.3730774
		c0.1670227,0.1191406,0.2842102,0.1211243,0.3370056,0.045929c0.1689148-0.2363281-0.7138977-0.640625-0.414093-1.0531921
		c0.2597961-0.3540039,0.6542969-0.0474243,0.8037109,0.0595093c0.1503601,0.1064758,0.3847656,0.3744812,0.1767883,0.6576843
		l-0.2539062-0.180603c0.0888062-0.1240234,0.0047913-0.2528992-0.1279907-0.3476868
		c-0.1279297-0.0918274-0.2342834-0.1362-0.3203125-0.0161133c-0.1434937,0.1923828,0.7207031,0.6147766,0.4277039,1.0259094
		c-0.2167053,0.3036804-0.5566101,0.148407-0.781189-0.0117188c-0.1914062-0.1366882-0.4707336-0.4491882-0.2627258-0.7392883
		L41.5448914,31.2440796L41.5448914,31.2440796z"/>
	<path class="st4" d="M43.7304993,32.5596008c-0.1504211,0.2001648-0.4102173,0.2499695-0.5703125,0.1200867
		c-0.1602173-0.1299133-0.1699829-0.3897095-0.0205994-0.5899048c0.1601868-0.1893921,0.4102173-0.2402039,0.5801086-0.109314
		C43.8798828,32.1103821,43.8895874,32.3700867,43.7304993,32.5596008L43.7304993,32.5596008z M43.8798828,31.7695007
		c-0.2695007-0.2197266-0.7001953-0.1494141-0.9394836,0.1601868c-0.25,0.3105164-0.2207031,0.7401733,0.0498047,0.9598999
		c0.2792664,0.2207947,0.7099609,0.1503906,0.9501648-0.1591187C44.1903992,32.4198914,44.1601868,31.9901733,43.8798828,31.7695007
		L43.8798828,31.7695007z"/>
	<polygon class="st7" points="17.7548828,26.6630554 17.5565796,27.2748718 17.8623047,27.3739929 17.7548828,26.6630554 	"/>
	<polygon class="st7" points="17.7548828,26.6630554 17.9535828,27.2748718 17.6478882,27.3739929 17.7548828,26.6630554 	"/>
	<polygon class="st7" points="18.3666992,27.1073914 17.7236023,27.1073914 17.7236023,27.4286804 18.3666992,27.1073914 	"/>
	<polygon class="st7" points="18.3666992,27.1073914 17.8461914,27.4853821 17.6576843,27.2250671 18.3666992,27.1073914 	"/>
	<polygon class="st7" points="17.1435852,27.1073914 17.6636047,27.4853821 17.852478,27.2250671 17.1435852,27.1073914 	"/>
	<polygon class="st7" points="17.1435852,27.1073914 17.7865906,27.1073914 17.7865906,27.4286804 17.1435852,27.1073914 	"/>
	<polygon class="st7" points="18.132782,27.8261719 17.9341125,27.2147827 17.6283875,27.3139954 18.132782,27.8261719 	"/>
	<polygon class="st7" points="18.132782,27.8261719 17.612793,27.4482117 17.8017883,27.1884766 18.132782,27.8261719 	"/>
	<polygon class="st7" points="17.3774109,27.8261719 17.8974915,27.4482117 17.7084961,27.1884766 17.3774109,27.8261719 	"/>
	<polygon class="st7" points="17.3774109,27.8261719 17.5756836,27.2147827 17.8812866,27.3139954 17.3774109,27.8261719 	"/>
	<polygon class="st7" points="19.0814819,32.969696 18.882782,33.5810852 19.1884766,33.679657 19.0814819,32.969696 	"/>
	<polygon class="st7" points="19.0814819,32.969696 19.280304,33.5810852 18.9745789,33.679657 19.0814819,32.969696 	"/>
	<polygon class="st7" points="19.6928711,33.414093 19.050293,33.414093 19.050293,33.7353821 19.6928711,33.414093 	"/>
	<polygon class="st7" points="19.6928711,33.414093 19.1728821,33.7909851 18.9838867,33.5312805 19.6928711,33.414093 	"/>
	<polygon class="st7" points="18.4701843,33.414093 18.9902039,33.7909851 19.1791992,33.5312805 18.4701843,33.414093 	"/>
	<polygon class="st7" points="18.4701843,33.414093 19.1133118,33.414093 19.1133118,33.7353821 18.4701843,33.414093 	"/>
	<polygon class="st7" points="19.4595032,34.132782 19.2606812,33.5204773 18.9551086,33.6200867 19.4595032,34.132782 	"/>
	<polygon class="st7" points="19.4595032,34.132782 18.9394836,33.7548828 19.1283875,33.4940796 19.4595032,34.132782 	"/>
	<polygon class="st7" points="18.7035828,34.132782 19.2236023,33.7548828 19.0351868,33.4940796 18.7035828,34.132782 	"/>
	<polygon class="st7" points="18.7035828,34.132782 18.9022827,33.5204773 19.2079773,33.6200867 18.7035828,34.132782 	"/>
	<polygon class="st7" points="17.2450867,34.4237976 17.0795898,34.9325867 17.3339844,35.0155945 17.2450867,34.4237976 	"/>
	<polygon class="st7" points="17.2450867,34.4237976 17.4105835,34.9325867 17.1557922,35.0155945 17.2450867,34.4237976 	"/>
	<polygon class="st7" points="17.7543945,34.7938843 17.2187805,34.7938843 17.2187805,35.0614929 17.7543945,34.7938843 	"/>
	<polygon class="st7" points="17.7543945,34.7938843 17.3208008,35.1083984 17.1636047,34.8916016 17.7543945,34.7938843 	"/>
	<polygon class="st7" points="16.7353821,34.7938843 17.1688843,35.1083984 17.3262024,34.8916016 16.7353821,34.7938843 	"/>
	<polygon class="st7" points="16.7353821,34.7938843 17.2709961,34.7938843 17.2709961,35.0614929 16.7353821,34.7938843 	"/>
	<polygon class="st7" points="17.5596008,35.3925781 17.3939819,34.882782 17.1395874,34.9657898 17.5596008,35.3925781 	"/>
	<polygon class="st7" points="17.5596008,35.3925781 17.1264648,35.078064 17.2836914,34.8612671 17.5596008,35.3925781 	"/>
	<polygon class="st7" points="16.9301758,35.3925781 17.3632812,35.078064 17.2061157,34.8612671 16.9301758,35.3925781 	"/>
	<polygon class="st7" points="16.9301758,35.3925781 17.0956726,34.882782 17.3500977,34.9657898 16.9301758,35.3925781 	"/>
	<polygon class="st7" points="20.5507812,32.3876648 20.4564819,32.6786804 20.6020813,32.726593 20.5507812,32.3876648 	"/>
	<polygon class="st7" points="20.5507812,32.3876648 20.6455078,32.6786804 20.4999695,32.726593 20.5507812,32.3876648 	"/>
	<polygon class="st7" points="20.8422852,32.5995789 20.5361023,32.5995789 20.5361023,32.7519836 20.8422852,32.5995789 	"/>
	<polygon class="st7" points="20.8422852,32.5995789 20.594696,32.7792969 20.5043945,32.6552734 20.8422852,32.5995789 	"/>
	<polygon class="st7" points="20.2597656,32.5995789 20.5072632,32.7792969 20.5976868,32.6552734 20.2597656,32.5995789 	"/>
	<polygon class="st7" points="20.2597656,32.5995789 20.5658875,32.5995789 20.5658875,32.7519836 20.2597656,32.5995789 	"/>
	<polygon class="st7" points="20.7309875,32.9413757 20.6361694,32.6503906 20.4906921,32.6972961 20.7309875,32.9413757 	"/>
	<polygon class="st7" points="20.7309875,32.9413757 20.4833984,32.7616882 20.5731812,32.6376648 20.7309875,32.9413757 	"/>
	<polygon class="st7" points="35.625,27.3505859 36.2147827,27.6068726 36.1171875,27.8314819 35.5272827,27.5751648 
		35.625,27.3505859 	"/>
	<polygon class="st7" points="19.0814819,32.969696 19.2236023,33.407196 19.6928711,33.414093 19.3148804,33.6884766 
		19.4595032,34.132782 19.0814819,33.8573914 18.7035828,34.132782 18.8480835,33.6884766 18.4701843,33.414093 18.9375,33.414093 
		19.0814819,32.969696 	"/>
	<polygon class="st7" points="23.9779968,37.3095703 24.1200867,37.7479858 24.589386,37.7538757 24.2113953,38.0282898 
		24.3559875,38.4726562 23.9779968,38.1981812 23.6000977,38.4726562 23.7445679,38.0282898 23.3666687,37.7538757 
		23.8334961,37.7538757 23.9779968,37.3095703 	"/>
	<polygon class="st7" points="30,36.0966797 30.1420898,36.5341797 30.6112976,36.5409851 30.2333984,36.8153687 
		30.3778992,37.2597656 30,36.984375 29.6221008,37.2597656 29.766571,36.8153687 29.3886719,36.5409851 29.8554993,36.5409851 
		30,36.0966797 	"/>
	<polygon class="st7" points="40.5097656,34.6190796 40.6513977,35.0565796 41.1210938,35.0634766 40.7431946,35.3378601 
		40.8876648,35.782196 40.5097656,35.5068054 40.1317749,35.782196 40.2763977,35.3378601 39.8983765,35.0634766 
		40.3652039,35.0634766 40.5097656,34.6190796 	"/>
	<polygon class="st7" points="20.5512695,32.3876648 20.6191101,32.5966797 20.8422852,32.5995789 20.6625671,32.7304688 
		20.7313843,32.9413757 20.5512695,32.8104858 20.3716125,32.9413757 20.4403992,32.7304688 20.2603149,32.5995789 
		20.4829102,32.5995789 20.5512695,32.3876648 	"/>
	<polygon class="st7" points="21.7548828,36.1728821 21.8496094,36.4638672 22.1605835,36.467804 21.9101868,36.6493835 
		22.0058899,36.9442749 21.7548828,36.7626648 21.5043945,36.9442749 21.6000671,36.6493835 21.3495789,36.467804 
		21.6592102,36.467804 21.7548828,36.1728821 	"/>
	<polygon class="st7" points="28.4883118,33.3349915 28.582489,33.6259766 28.8939819,33.6298828 28.6430664,33.8114929 
		28.7388,34.1063843 28.4883118,33.9247742 28.237793,34.1063843 28.3334961,33.8114929 28.0829773,33.6298828 
		28.3925781,33.6298828 28.4883118,33.3349915 	"/>
	<polygon class="st7" points="37.4833679,40.8261719 37.5780945,41.1161804 37.8895874,41.1200867 37.6386719,41.3027039 
		37.7344055,41.5966797 37.4833679,41.414978 37.2333984,41.5966797 37.3291016,41.3027039 37.0780945,41.1200867 
		37.3876953,41.1200867 37.4833679,40.8261719 	"/>
	<polygon class="st7" points="33.3104858,37.9892578 33.4052734,38.2802734 33.7157898,38.2841797 33.4657898,38.4667664 
		33.5614929,38.7606812 33.3104858,38.579071 33.0604858,38.7606812 33.1562805,38.4667664 32.905304,38.2841797 
		33.2147827,38.2841797 33.3104858,37.9892578 	"/>
	<polygon class="st7" points="34.0849915,28.8285828 34.1786804,29.1186829 34.4902039,29.1229858 34.2392883,29.3051758 
		34.3349915,29.5995789 34.0849915,29.4174805 33.8339844,29.5995789 33.9296875,29.3051758 33.6796875,29.1229858 
		33.9892883,29.1229858 34.0849915,28.8285828 	"/>
	<polygon class="st7" points="34.6532898,24.7182922 34.7929993,25.1478882 35.2528992,25.1542664 34.8817749,25.4237976 
		35.0233765,25.8603821 34.6532898,25.590271 34.282196,25.8603821 34.4237976,25.4237976 34.0526733,25.1542664 
		34.5106812,25.1542664 34.6532898,24.7182922 	"/>
	<polygon class="st7" points="34.4931946,39.585907 34.609375,39.9433594 34.9931641,39.9491882 34.6846008,40.1737976 
		34.8017883,40.5360718 34.4931946,40.3114929 34.1845703,40.5360718 34.3027039,40.1737976 33.9940796,39.9491882 
		34.3759766,39.9491882 34.4931946,39.585907 	"/>
	<polygon class="st7" points="42.585907,34.9823914 42.6806641,35.2724915 42.9911804,35.2772827 42.7412109,35.4589844 
		42.8368835,35.7538757 42.585907,35.5712891 42.3349915,35.7538757 42.4306946,35.4589844 42.1806946,35.2772827 
		42.4901733,35.2772827 42.585907,34.9823914 	"/>
	<polygon class="st7" points="35.7743835,38.3563843 35.8690796,38.6464844 36.1796875,38.6513672 35.9296875,38.8329773 
		36.0253906,39.1278992 35.7743835,38.945282 35.5243835,39.1278992 35.6200867,38.8329773 35.3690796,38.6513672 
		35.6786804,38.6513672 35.7743835,38.3563843 	"/>
	<polygon class="st7" points="37.4520874,37.8397827 37.5469055,38.1298828 37.8573914,38.1347961 37.6073914,38.3163757 
		37.703064,38.6112671 37.4520874,38.4296875 37.2020874,38.6112671 37.2979126,38.3163757 37.046875,38.1347961 
		37.3563843,38.1347961 37.4520874,37.8397827 	"/>
	<polygon class="st7" points="38.9989929,38.1249695 39.092804,38.414978 39.4042969,38.4188843 39.1532898,38.6015625 
		39.2499695,38.8954773 38.9989929,38.7138672 38.7479858,38.8954773 38.8437805,38.6015625 38.5937805,38.4188843 
		38.9032898,38.4188843 38.9989929,38.1249695 	"/>
	<polygon class="st7" points="30,41.507782 30.0517883,41.6669922 30.222168,41.6688843 30.0849915,41.7685852 
		30.1371765,41.9306641 30,41.8300781 29.862793,41.9306641 29.9150085,41.7685852 29.7778015,41.6688843 29.9477844,41.6688843 
		30,41.507782 	"/>
	<polygon class="st7" points="17.7548828,26.6630554 17.8974915,27.1010742 18.3666992,27.1073914 17.9888,27.3817749 
		18.132782,27.8261719 17.7548828,27.5517883 17.3774109,27.8261719 17.5214844,27.3817749 17.1435852,27.1073914 
		17.6107788,27.1073914 17.7548828,26.6630554 	"/>
	<polygon class="st7" points="17.2431946,34.4237976 17.3617859,34.7880859 17.7528992,34.7938843 17.4379883,35.0224915 
		17.558075,35.3925781 17.2431946,35.164093 16.9281921,35.3925781 17.0487671,35.0224915 16.7338867,34.7938843 
		17.1229858,34.7938843 17.2431946,34.4237976 	"/>
	<polygon class="st7" points="22.2030945,34.5312805 22.3217773,34.8954773 22.7124023,34.9013672 22.3974915,35.1298828 
		22.5180969,35.4999695 22.2030945,35.2714844 21.8881836,35.4999695 22.0083008,35.1298828 21.6933899,34.9013672 
		22.0829773,34.9013672 22.2030945,34.5312805 	"/>
	<polygon class="st7" points="30,31.8788757 30.1187134,32.2431946 30.5092773,32.2489929 30.1947937,32.477478 
		30.3148804,32.8476562 30,32.6190796 29.6850891,32.8476562 29.8052063,32.477478 29.4906921,32.2489929 29.8799133,32.2489929 
		30,31.8788757 	"/>
	<polygon class="st7" points="31.7421875,33.2362976 31.8612671,33.601593 32.2519836,33.6063843 31.9374695,33.8349609 
		32.0575867,34.2050781 31.7421875,33.976593 31.4276733,34.2050781 31.5478821,33.8349609 31.2333984,33.6063843 
		31.6221008,33.6063843 31.7421875,33.2362976 	"/>
	<polygon class="st7" points="24.2836914,30.0820007 24.4022827,30.4467773 24.7929993,30.4520874 24.4779968,30.6811829 
		24.5985718,31.0517578 24.2836914,30.8222961 23.9687805,31.0517578 24.0888672,30.6811829 23.7738647,30.4520874 
		24.1635742,30.4520874 24.2836914,30.0820007 	"/>
	<polygon class="st7" points="37.5205078,39.1991882 37.6386719,39.5634766 38.0292969,39.5692749 37.7147827,39.7978821 
		37.8349915,40.1679993 37.5205078,39.9394836 37.2050781,40.1679993 37.3251648,39.7978821 37.0106812,39.5692749 
		37.3993835,39.5692749 37.5205078,39.1991882 	"/>
	<polygon class="st7" points="40.2030945,37.2568054 40.3212891,37.6210938 40.7118835,37.6269836 40.3974915,37.8554688 
		40.5176086,38.2255859 40.2030945,37.9971008 39.8876953,38.2255859 40.0078125,37.8554688 39.6933899,37.6269836 
		40.0829773,37.6269836 40.2030945,37.2568054 	"/>
	<polygon class="st7" points="41.1210938,36.0341797 41.2392883,36.3993835 41.6308899,36.4052734 41.3153687,36.6337891 
		41.4354858,37.0038757 41.1210938,36.7753906 40.8056641,37.0038757 40.9257812,36.6337891 40.6112976,36.4052734 
		41.0010071,36.4052734 41.1210938,36.0341797 	"/>
</g>
</svg>
