<?xml version="1.0" encoding="utf-8"?>
<!-- Generator: Adobe Illustrator 22.1.0, SVG Export Plug-In . SVG Version: 6.00 Build 0)  -->
<svg version="1.1" id="Layer_1" xmlns="http://www.w3.org/2000/svg" xmlns:xlink="http://www.w3.org/1999/xlink" x="0px" y="0px"
	 viewBox="0 0 60 60" style="enable-background:new 0 0 60 60;" xml:space="preserve">
<style type="text/css">
	.st0{clip-path:url(#SVGID_2_);fill:#F7E015;}
	.st1{clip-path:url(#SVGID_2_);fill:#FFFFFF;}
	.st2{clip-path:url(#SVGID_2_);fill:#020203;}
	.st3{clip-path:url(#SVGID_2_);fill:#CF1327;}
</style>
<g id="XMLID_1_">
	<g>
		<defs>
			<path id="SVGID_1_" d="M59,60H0.9999695C0.4477234,60,0,59.5526733,0,59V0.9999695c0-0.5522461,0.4477234-1,0.9999695-1H59
				c0.5526886,0,0.9999847,0.4477539,0.9999847,1V59C59.9999847,59.5526733,59.5526886,60,59,60L59,60z"/>
		</defs>
		<clipPath id="SVGID_2_">
			<use xlink:href="#SVGID_1_"  style="overflow:visible;"/>
		</clipPath>
		<polygon class="st0" points="-30.0116882,-0.0058899 90.0116882,-0.0058899 90.0116882,60.0058594 -30.0116882,60.0058594 
			-30.0116882,-0.0058899 		"/>
		<polygon class="st1" points="-30.0116882,4.1615906 -30.0116882,30.8334656 90.0116882,43.335907 90.0116882,29.1664734 
			-30.0116882,4.1615906 		"/>
		<polygon class="st2" points="-30.0116882,18.3310852 -30.0116882,30.8334656 90.0116882,55.8388977 90.0116882,43.335907 
			-30.0116882,18.3310852 		"/>
		<path class="st3" d="M27.9779663,47.4804993c-1.613678-0.2149353-3.0931702-0.7276306-4.1210938-1.4317017
			c-0.1991882-0.1367188-0.3866882-0.2480164-0.4154968-0.2480164c-0.0302734,0-0.0541992,0.1513062-0.0541992,0.3388062
			c0,0.5312805-0.2133789,0.7988892-0.7504883,0.9375c-0.5131836,0.1337891-1.2969055-0.1357117-1.9320984-0.6620789
			c-0.657196-0.545929-1.4165039-0.9629211-2.0596008-1.1298218c-0.5288086-0.1376953-1.2314148-0.1152954-1.7391968,0.0545959
			c-0.2359009,0.0791016-0.504425,0.1904907-0.5976868,0.2481079c-0.0923157,0.0575867-0.1968384,0.1044922-0.230011,0.1044922
			c-0.0898132,0-0.0776062-0.5712891,0.0166016-0.7539062c0.124115-0.2392883,0.4302063-0.4746094,0.7865906-0.6044922
			c0.1802063-0.0664062,0.3276978-0.1503906,0.3276978-0.1875c0-0.0380859-0.0606079-0.1758118-0.1347961-0.3046875
			c-0.2416992-0.4229126-0.1426086-0.8330078,0.2792969-1.156311c0.4317017-0.3300171,1.1625977-0.3866882,1.8085938-0.1405945
			c0.1625977,0.0614929,0.3139954,0.1122742,0.3364258,0.1122742c0.0854797,0,0.0336914-0.1190796-0.200592-0.4598999
			c-0.2701416-0.3945618-0.3233337-0.5898743-0.2901001-1.0605774c0.043457-0.594696,0.5282593-1.0810242,1.1225891-1.125
			c0.48526-0.0350952,0.7870789,0.1288757,1.5028992,0.8105774c2.1381836,2.039032,4.4623718,3.1621094,7.1737671,3.4668274
			c0.6846313,0.0760803,2.0616455,0.0350952,2.8687439-0.0859985c2.4403992-0.368103,4.8983765-1.594696,6.8173828-3.4023132
			c0.532196-0.5010071,0.7881165-0.6337891,1.2236023-0.6358032c0.3789062-0.000885,0.6455078,0.1211243,0.9169922,0.4208984
			c0.2471008,0.2753906,0.3320007,0.5361938,0.3046875,0.9541321c-0.0175781,0.2675781-0.0605774,0.3994751-0.219696,0.6581726
			c-0.2354126,0.3829041-0.1953735,0.4179993,0.2705078,0.2373047c0.6278992-0.2450867,1.4023132-0.1318054,1.820282,0.265686
			c0.367218,0.3486023,0.4023132,0.6982117,0.1162415,1.171814c-0.1045227,0.1728821-0.1895447,0.335968-0.1895447,0.3614197
			c0,0.0477905,0.0791016,0.070282,0.4610291,0.1317749c0.4999695,0.0800781,0.7850952,0.4512024,0.7850952,1.0175781
			c0,0.1699219-0.0205078,0.3086243-0.0458984,0.3086243c-0.0254211,0-0.2148132-0.069397-0.420929-0.1542969
			c-0.5809631-0.2402039-0.9120789-0.3017883-1.5926819-0.2978821c-0.5175781,0.0038757-0.6954041,0.0273743-1.0566711,0.1454773
			c-0.5527344,0.1806946-1.1435242,0.5292969-1.6250305,0.9580994c-0.531189,0.4736023-0.8651733,0.6229858-1.3817749,0.6190796
			c-0.4805298-0.0048828-0.8086243-0.1444702-0.9824219-0.4189758c-0.0917969-0.1464233-0.1054993-0.2352905-0.0830994-0.5672913
			c0.0147095-0.2159119,0.0118103-0.3926086-0.0057983-0.3926086c-0.0185852,0-0.2050781,0.118103-0.4159851,0.2637024
			c-0.5537109,0.3807983-0.906311,0.5693054-1.5391235,0.8192749
			C32.9003906,47.4315796,30.1122742,47.7626648,27.9779663,47.4804993L27.9779663,47.4804993L27.9779663,47.4804993z"/>
		<path class="st3" d="M28.8612671,43.766571c-3.2153015-0.3085938-6.2924805-1.9833984-8.1630554-4.6386719
			c-2.0312195-2.7705078-2.6713257-6.4277039-2.051239-9.7719116c0.3296204-1.522522,0.9941101-3.045929,2.1289368-4.1304016
			c-0.9043274,1.9174805-1.210022,4.1146851-0.7276306,6.1923828c0.749115,4.1465149,4.2539062,7.6572266,8.4468079,8.2646179
			c1.6587219,0.4794922,3.3740234-0.0272827,4.9590149-0.5419922c3.4950867-1.2314148,6.1582031-4.5488281,6.4823914-8.2578125
			c0.2782898-2.0068054-0.0302124-4.0937195-0.9335938-5.910614c0.514679,0.2723999,1.1651001,1.3407898,1.5488892,2.0591125
			c1.3338928,2.5838928,1.3955078,5.680603,0.609314,8.4384155c-1.0644226,3.5087891-3.7470093,6.5830078-7.2939148,7.7001648
			c-1.6094055,0.5254211-3.320282,0.6856079-5.0054016,0.5977173L28.8612671,43.766571L28.8612671,43.766571z"/>
		<path class="st3" d="M12.6650085,39.1601868c-0.210907-0.0332031-0.4433289,0.1748047-0.363739,0.3916016
			c0.151825,0.219696,0.4135132,0.3261108,0.6499329,0.4316101c0.5658875,0.2265625,1.1816101,0.3153687,1.7894897,0.3007812
			c-0.2093811-0.0010071,0.0718079,0.0019226,0.1503906,0c0.4810181,0.0010071,0.960022-0.0859985,1.4120789-0.2489929
			c0.2515259-0.0879211,0.5723267-0.1680298,0.6753235-0.4463196c0.1006165-0.1816711-0.0814819-0.3622742-0.2655945-0.3261719
			c-0.2559204,0.0556946-0.4950867,0.171875-0.7489929,0.2382812c-0.5479126,0.1543274-1.125,0.2138062-1.6924133,0.1669922
			c-0.4151001-0.0507812-0.8174133-0.1825867-1.2012024-0.3447876
			C12.9369812,39.2645874,12.8124695,39.1786804,12.6650085,39.1601868L12.6650085,39.1601868L12.6650085,39.1601868z"/>
		<path class="st3" d="M12.8988647,38.2948608c-0.2128906-0.0311584-0.3964539,0.2139282-0.3075867,0.4092102
			c0.164093,0.2373047,0.4390259,0.3633118,0.6968079,0.4746094c0.4472961,0.1796875,0.9335938,0.2539062,1.4145203,0.2402039
			c-0.1826172-0.000885,0.0629883,0.0020142,0.1304016,0c0.4091797,0,0.8158875-0.0809937,1.1942749-0.2362976
			c0.2310181-0.0897827,0.5141907-0.1767273,0.6104126-0.4316101c0.074707-0.1397095,0.0176086-0.342804-0.1582031-0.3534851
			c-0.1611023-0.0079041-0.2998047,0.093689-0.4481812,0.1395874c-0.5406189,0.2236023-1.1358337,0.3184204-1.7183228,0.2686157
			c-0.3632812-0.0469055-0.7099915-0.1807251-1.0396118-0.3359985c-0.1234741-0.0605164-0.2347717-0.1533203-0.3739624-0.1748352
			H12.8988647L12.8988647,38.2948608z"/>
		<path class="st3" d="M13.1864929,37.4657898c-0.1826172-0.0223999-0.3081055,0.1835938-0.2773132,0.3486938
			c0.0273132,0.1445007,0.1567078,0.2412109,0.2641296,0.3300171c0.4443665,0.3242798,1.0073853,0.4628906,1.5522766,0.445282
			c-0.2113953-0.000885,0.2841797,0.0029907,0.1333008-0.000885c0.3452148-0.0020142,0.6864929-0.0860291,0.9971008-0.2354126
			c0.2075195-0.0908203,0.4511108-0.1953125,0.5210266-0.4316101c0.0335693-0.1104126,0.0545654-0.2685852-0.0699158-0.3310852
			c-0.1303101-0.0732117-0.2597046,0.039093-0.3783875,0.0849915c-0.3994141,0.2030945-0.8437195,0.3163757-1.2925415,0.3134766
			c-0.3876648,0.0136414-0.7528992-0.1494751-1.0892639-0.3251953
			C13.4247742,37.601593,13.3241882,37.4940796,13.1864929,37.4657898L13.1864929,37.4657898L13.1864929,37.4657898z"/>
		<path class="st3" d="M10.1235046,25.2240906c-0.2714844,0.2714844-0.0639038,0.7724915-0.0786133,1.1289062
			c0.1405945,1.0966797,0.3154907,2.2070618,0.7246094,3.2397766c0.5014954,1.0088196,1.5663757,1.5477905,2.2114868,2.4394226
			c0.230896,0.4296875,0.1488953,0.9462891,0.1976929,1.4159851c0.0380859,1.281311,0.0259094,2.5625,0.0039062,3.8437805
			c0.578125,0.2900391,1.2060852,0.5820312,1.8716125,0.4707336c0.3940125-0.0947266,1.1259766-0.1523132,1.2079773-0.545929
			c-0.0316772-2.2079773-0.0521851-4.4179993-0.0814819-6.6264648c-0.2246094-0.6767273-0.9131165-1.026825-1.4277954-1.4594116
			c-0.425293-0.4190063-0.8208008-0.8702087-1.1825867-1.3422852c-0.2187195-0.3682251-1.0727234-0.5005188-0.7637329,0.1400757
			c0.1812134,0.5541992,0.6436157,0.9673157,0.7593079,1.550293c0.0253906,0.3193054,0.406311,0.9067078,0.0811157,1.092804
			c-0.2070923-0.351593-0.5069275-0.6513977-0.8907166-0.8296204c-0.3691101-0.2753906-0.9798889-0.3900757-1.1131897-0.8764954
			c-0.0977173-0.6903687-0.4512024-1.3153687-0.9072876-1.8329773c0.1171875-0.6195984,0.0004883-1.3950195-0.535614-1.7910156
			L10.1235046,25.2240906L10.1235046,25.2240906L10.1235046,25.2240906L10.1235046,25.2240906z"/>
		<path class="st3" d="M10.949707,25.3480835c-0.2471313,0.0401001-0.2388,0.3544922-0.1245117,0.5201111
			c0.1216125,0.3573914,0.1547852,0.7456055,0.0888977,1.1175842c0.4389038,0.5142212,0.7792969,1.1289062,0.8812866,1.8038025
			c0.0028992,0.2538757,0.2695007,0.3377991,0.4429016,0.4627991c0.4057007,0.2588196,0.8623047,0.4463196,1.2241211,0.7695923
			c0.0756836,0.0815125,0.1333008,0.1689148,0.0795898,0.0028992c-0.0565796-0.2118835-0.0855103-0.4462891-0.2520142-0.6069031
			c-0.227478-0.2450867-0.5126953-0.4638977-0.8441772-0.5386047c-0.0278015-0.3427734-0.1914062-0.6576843-0.3423157-0.960907
			c-0.1670227-0.2900696-0.3417969-0.6005859-0.628418-0.7890625c0.0117188-0.5083008,0.003418-1.0410156-0.2153015-1.5103149
			C11.195282,25.4985046,11.1011047,25.3554993,10.949707,25.3480835L10.949707,25.3480835L10.949707,25.3480835z"/>
		<path class="st3" d="M11.640564,25.5507812c-0.1722717,0.0513-0.1390686,0.2632141-0.0848694,0.3930054
			c0.0825195,0.3598938,0.0957031,0.7315063,0.0888062,1.0992126c0.3158875,0.2499695,0.5137024,0.6123047,0.6933899,0.9653015
			c0.112793,0.2362671,0.219696,0.4794922,0.2632141,0.7392578c0.2562866,0.0849304,0.4803772,0.245636,0.6810913,0.422821
			c-0.0795898-0.2402039-0.2563171-0.4257812-0.3754883-0.6455078c-0.129425-0.2279663-0.2529297-0.4657898-0.3076172-0.7240906
			c-0.2466125-0.2632141-0.3822937-0.6362-0.3286133-0.996582c0.0112-0.3979187-0.1171875-0.8091125-0.3837891-1.1094055
			C11.8197937,25.6288757,11.7396851,25.5556641,11.640564,25.5507812L11.640564,25.5507812L11.640564,25.5507812z"/>
		<path class="st3" d="M12.4267883,25.6630859c-0.093811,0.0166016-0.1509094,0.105896-0.2006836,0.1781921
			c-0.0195923,0.0728149,0.0697937,0.1514282,0.0839844,0.2299805c0.109314,0.2744141,0.1507874,0.5757141,0.118103,0.8691406
			c-0.0072937,0.2084656,0.0673828,0.4120789,0.1734009,0.5888977c0.0306702-0.1304016,0.1513062-0.2240906,0.282196-0.2368164
			c0.047821-0.0083008,0.1177063,0.0155945,0.0897827-0.0566711c-0.0331726-0.3989258-0.093689-0.8003235-0.2333984-1.1767273
			c-0.0537109-0.1347961-0.1152039-0.2763977-0.2318726-0.3686829c-0.023407-0.0166321-0.0518188-0.0312195-0.0820007-0.026825
			L12.4267883,25.6630859L12.4267883,25.6630859z"/>
		<path class="st3" d="M47.3349915,39.1601868c0.210907-0.0332031,0.4432983,0.1748047,0.3641968,0.3916016
			c-0.1523132,0.219696-0.4140015,0.3261108-0.6504211,0.4316101c-0.5663757,0.2265625-1.1815796,0.3153687-1.789978,0.3007812
			c0.210022-0.0010071-0.0712891,0.0019226-0.1494141,0c-0.4814758,0.0010071-0.9599915-0.0859985-1.4130859-0.2489929
			C43.445282,39.9472656,43.125,39.867157,43.0214844,39.5888672c-0.1006165-0.1816711,0.0820007-0.3622742,0.2655945-0.3261719
			c0.2559204,0.0556946,0.4950867,0.171875,0.7490234,0.2382812c0.5478821,0.1543274,1.125,0.2138062,1.6923828,0.1669922
			c0.4151001-0.0507812,0.8174133-0.1825867,1.2012024-0.3447876C47.0625,39.2645874,47.1875,39.1786804,47.3349915,39.1601868
			L47.3349915,39.1601868L47.3349915,39.1601868z"/>
		<path class="st3" d="M47.1005859,38.2948608c0.2128906-0.0311584,0.3964844,0.2139282,0.3076172,0.4092102
			c-0.1631165,0.2373047-0.4385376,0.3633118-0.6963196,0.4746094c-0.4472961,0.1796875-0.9335938,0.2539062-1.4150085,0.2402039
			c0.1826172-0.000885-0.0624695,0.0020142-0.1298828,0c-0.4092102,0-0.8164062-0.0809937-1.1943054-0.2362976
			c-0.2315063-0.0897827-0.5137024-0.1767273-0.6103821-0.4316101c-0.0742188-0.1397095-0.0176086-0.342804,0.1582031-0.3534851
			c0.1610718-0.0079041,0.2997742,0.093689,0.4483032,0.1395874c0.5409851,0.2236023,1.1356812,0.3184204,1.718689,0.2686157
			c0.3622742-0.0469055,0.7099915-0.1807251,1.039093-0.3359985C46.8505859,38.4091797,46.9618835,38.3163757,47.1005859,38.2948608
			L47.1005859,38.2948608L47.1005859,38.2948608z"/>
		<path class="st3" d="M46.8135071,37.4657898c0.1825867-0.0223999,0.3075867,0.1835938,0.2772827,0.3486938
			c-0.0273132,0.1445007-0.157196,0.2412109-0.2646179,0.3300171c-0.4433594,0.3242798-1.006897,0.4628906-1.5517883,0.445282
			c0.2119141-0.000885-0.2842102,0.0029907-0.1328125-0.000885c-0.3457031-0.0020142-0.6864624-0.0860291-0.9979858-0.2354126
			c-0.2070923-0.0908203-0.4512024-0.1953125-0.5205994-0.4316101c-0.0332031-0.1104126-0.0545959-0.2685852,0.0704041-0.3310852
			c0.1297913-0.0732117,0.2597046,0.039093,0.3778992,0.0849915c0.3993835,0.2030945,0.8437195,0.3163757,1.2929993,0.3134766
			c0.3876953,0.0136414,0.7528992-0.1494751,1.0888062-0.3251953C46.5751953,37.601593,46.6758118,37.4940796,46.8135071,37.4657898
			L46.8135071,37.4657898L46.8135071,37.4657898z"/>
		<path class="st3" d="M49.8759766,25.2240906c0.2714996,0.2714844,0.0643921,0.7724915,0.0791016,1.1289062
			c-0.1405945,1.0966797-0.3154907,2.2070618-0.7245789,3.2397766c-0.5010071,1.0088196-1.5664062,1.5477905-2.2118835,2.4394226
			c-0.2305298,0.4296875-0.1485291,0.9462891-0.1973267,1.4159851c-0.0381165,1.281311-0.0263977,2.5625-0.0039062,3.8437805
			c-0.5780945,0.2900391-1.2060852,0.5820312-1.8710938,0.4707336c-0.3945007-0.0947266-1.1269836-0.1523132-1.2089844-0.545929
			c0.032196-2.2079773,0.0527039-4.4179993,0.0820007-6.6264648c0.2245789-0.6767273,0.9130859-1.026825,1.4277649-1.4594116
			c0.4248047-0.4190063,0.8203125-0.8702087,1.1826172-1.3422852c0.218689-0.3682251,1.0723267-0.5005188,0.7637024,0.1400757
			c-0.1806946,0.5541992-0.6435852,0.9673157-0.7587891,1.550293c-0.0253906,0.3193054-0.4073181,0.9067078-0.0811157,1.092804
			c0.2070007-0.351593,0.5069275-0.6513977,0.8897095-0.8296204c0.3701172-0.2753906,0.9803772-0.3900757,1.1131897-0.8764954
			c0.0986938-0.6903687,0.4522095-1.3153687,0.9082031-1.8329773c-0.118103-0.6195984-0.0009155-1.3950195,0.5351868-1.7910156
			l0.0772095-0.0175781l0,0H49.8759766L49.8759766,25.2240906z"/>
		<path class="st3" d="M49.0507812,25.3480835c0.2471313,0.0401001,0.2383118,0.3544922,0.1240234,0.5201111
			c-0.1221313,0.3573914-0.1543274,0.7456055-0.0889282,1.1175842C48.6464844,27.5,48.3065796,28.1146851,48.2041016,28.7895813
			c-0.0020142,0.2538757-0.2695007,0.3377991-0.4424133,0.4627991c-0.406189,0.2588196-0.8623047,0.4463196-1.2236023,0.7695923
			c-0.0762024,0.0815125-0.1338196,0.1689148-0.0801086,0.0028992c0.0566101-0.2118835,0.085907-0.4462891,0.2520142-0.6069031
			c0.227478-0.2450867,0.5126953-0.4638977,0.844696-0.5386047c0.0272827-0.3427734,0.1903992-0.6576843,0.3417969-0.960907
			c0.1669922-0.2900696,0.3417969-0.6005859,0.6278992-0.7890625c-0.0107117-0.5083008-0.0028992-1.0410156,0.2157898-1.5103149
			C48.8046875,25.4985046,48.8993835,25.3554993,49.0507812,25.3480835L49.0507812,25.3480835L49.0507812,25.3480835z"/>
		<path class="st3" d="M48.3594055,25.5507812c0.171875,0.0513,0.1395569,0.2632141,0.0848694,0.3930054
			c-0.0830078,0.3598938-0.0956726,0.7315063-0.0888062,1.0992126c-0.3163757,0.2499695-0.5136719,0.6123047-0.6933899,0.9653015
			c-0.1132812,0.2362671-0.219696,0.4794922-0.2637024,0.7392578c-0.2557983,0.0849304-0.4803772,0.245636-0.680603,0.422821
			c0.0791016-0.2402039,0.2568359-0.4257812,0.3760071-0.6455078c0.1289062-0.2279663,0.2518921-0.4657898,0.3066101-0.7240906
			c0.2471008-0.2632141,0.3828125-0.6362,0.3291016-0.996582c-0.0106812-0.3979187,0.1171875-0.8091125,0.3837891-1.1094055
			C48.1806946,25.6288757,48.2606812,25.5556641,48.3594055,25.5507812L48.3594055,25.5507812L48.3594055,25.5507812z"/>
		<path class="st3" d="M47.5731812,25.6630859c0.093811,0.0166016,0.1503906,0.105896,0.2012024,0.1781921
			c0.0185852,0.0728149-0.070282,0.1514282-0.0840149,0.2299805c-0.1092529,0.2744141-0.1512756,0.5757141-0.1180725,0.8691406
			c0.0067749,0.2084656-0.0673828,0.4120789-0.1739197,0.5888977c-0.031189-0.1304016-0.1512756-0.2240906-0.282196-0.2368164
			c-0.0477905-0.0083008-0.1181946,0.0155945-0.0897827-0.0566711c0.0332031-0.3989258,0.093689-0.8003235,0.2333679-1.1767273
			c0.0537109-0.1347961,0.1152344-0.2763977,0.2314148-0.3686829c0.0244141-0.0166321,0.0527039-0.0312195,0.0820007-0.026825
			V25.6630859L47.5731812,25.6630859z"/>
		<path class="st3" d="M29.6391907,39.6669922c-1.1246033-0.1074219-2.139679-0.9268188-2.4863892-2.0000305
			c0.0185852-0.1855774,0.2490845,0.1025391,0.3578796,0.1221313c0.2041016,0.1131897,0.4248047,0.2070007,0.6602173,0.2215881
			c0.2963867,0.1270142,0.4794922,0.4200134,0.7626953,0.5722961c0.1312866,0.101593,0.5961914,0.3027039,0.5097961-0.0224915
			c-0.1089172-0.1698914-0.1836243-0.3857117-0.0899048-0.5800171c0.1577148-0.3457031,0.4004211-0.6474915,0.644104-0.9355774
			c0.1795959-0.0605164,0.2998047,0.2939758,0.4281921,0.4130859c0.1777039,0.273407,0.3916016,0.6065063,0.2871094,0.9463196
			c-0.101593,0.1249695-0.1685181,0.5038757,0.1034851,0.3769836c0.335022-0.147522,0.6094055-0.3955994,0.8876953-0.6270142
			c0.2432251-0.1698914,0.554718-0.1815796,0.8096313-0.3310852c0.1180725-0.0292969,0.3641663-0.2655945,0.4159851-0.1347046
			c-0.1397095,0.3739929-0.3740234,0.7090149-0.6239929,1.0176086c-0.405304,0.4627991-0.9532166,0.8104858-1.5660095,0.9082031
			C30.3773804,39.6806641,30.0058899,39.695282,29.6391907,39.6669922L29.6391907,39.6669922L29.6391907,39.6669922z"/>
		<path class="st3" d="M30.960907,38.3534851c0.0249023-0.2256165-0.0263062-0.4559937-0.1421204-0.6611023
			c-0.1766968-0.3612976-0.4266968-0.6806946-0.6704102-0.9971008c-0.2298889-0.1347961-0.3573914,0.3046875-0.5101624,0.4306946
			c-0.2378235,0.3564148-0.5371094,0.7217102-0.5513306,1.1699219c-0.1342773,0.2089844-0.3838196-0.1699219-0.4916992-0.2949219
			c-0.2055969-0.2909851-0.3612976-0.6347961-0.335907-0.9989929c-0.0238953-0.5859985,0.0884094-1.1699829,0.3016968-1.7149048
			c0.1617126-0.4657898,0.4234009-0.9179993,0.3965149-1.4257812c0.019104-0.3828125-0.0585938-0.8056335-0.3686218-1.0625305
			c-0.2949829-0.2313843,0.190918-0.281189,0.3452148-0.1611023c0.2640991,0.0176086,0.407196,0.4541016,0.648407,0.3467407
			c0.0957031-0.2285156,0.1152954-0.5000305,0.3129883-0.6778259c0.1947937-0.2666016,0.3980103,0.1133118,0.464386,0.2911072
			c0.1377258,0.1552124-0.0073853,0.5419006,0.2153015,0.5516968c0.2671204-0.1875,0.4580078-0.5018921,0.7998047-0.5703125
			c0.1387329-0.0791016,0.375-0.0106812,0.1924133,0.1484375c-0.2528992,0.2372742-0.4687805,0.5341797-0.5147095,0.8867798
			c-0.0776062,0.4422913,0.0332031,0.8905945,0.2256165,1.2890015c0.3711243,0.7832031,0.657196,1.6669922,0.469696,2.5380859
			c-0.0868835,0.3867188-0.3496094,0.7197266-0.6689148,0.9443054
			C31.0380859,38.4101868,30.9745789,38.4091797,30.960907,38.3534851L30.960907,38.3534851L30.960907,38.3534851z"/>
		<path class="st3" d="M30.5610046,32.469696c-0.1214905-0.2187195-0.2685242-0.4345093-0.473114-0.5830078
			c-0.1983032,0-0.3208008,0.25-0.4555969,0.3808899c-0.094696,0.1757812-0.2093811,0.469696-0.4424133,0.2402039
			c-0.3700867-0.2157898-0.4354858-0.6893921-0.4335938-1.0801086c-0.0228882-0.632782,0.2315063-1.2230835,0.4580994-1.7992859
			c0.1440125-0.3608093,0.1083984-0.7666016,0.0205078-1.1362c-0.1104126-0.4243164-0.4512024-0.7187805-0.7134094-1.0498047
			c0.0181274-0.1283875,0.3529968-0.0581055,0.4790039-0.0337219c0.280304,0.0708313,0.4473267,0.3188171,0.656189,0.4936218
			c0.1485291-0.0448914,0.0878906-0.344696,0.1567993-0.4858093c0.0053101-0.1987,0.2695007-0.4603882,0.378418-0.1762695
			c0.1635742,0.1806946-0.0049133,0.5385742,0.2059937,0.6513672c0.2006836-0.0746765,0.300293-0.2939148,0.4888-0.3935852
			c0.1856079-0.1264038,0.4483032-0.1405945,0.6485291-0.0415039c0.070282,0.1846008-0.2198181,0.3384094-0.303833,0.4985962
			c-0.3383179,0.4169922-0.4570007,0.9927063-0.3120117,1.5093079c0.1148376,0.4057007,0.3179016,0.7840881,0.3882141,1.2030945
			c0.0840149,0.4712219,0.0811157,0.9663086-0.0410156,1.4301758c-0.0722961,0.2822266-0.3168945,0.4707336-0.5687866,0.5869141
			C30.6356812,32.6269836,30.6029663,32.5419922,30.5610046,32.469696L30.5610046,32.469696L30.5610046,32.469696z"/>
		<path class="st3" d="M29.3007812,27.2402039c-0.280304-0.2050476-0.3725891-0.4008179-0.3725891-0.7885132
			c0-0.1983032,0.0365906-0.3057251,0.1674805-0.4859009c0.1924133-0.2666016,0.1577148-0.3511047-0.1151733-0.2724304
			c-0.4385071,0.125946-0.6474915,0.0107422-0.6626282-0.3627625c-0.0063782-0.1821899,0.0317078-0.2598267,0.2778015-0.554718
			c0.1968079-0.2368164,0.2681274-0.3612976,0.2290039-0.4003906c-0.0380859-0.0380859-0.2709961,0.1635742-0.7485046,0.6493835
			c-0.3808899,0.3877258-0.809082,0.7832031-0.9516602,0.8799133c-0.8203125,0.5537109-1.6035156,0.6396179-1.9614258,0.2133789
			c-0.183075-0.2172852-0.1734009-0.3398743,0.0386047-0.4717102c0.0975952-0.0600586,0.2617188-0.1982727,0.3657227-0.3075867
			c0.2460938-0.2558899,0.9784851-0.7841797,1.3417969-0.9672852c0.2953796-0.1494141,0.3651733-0.25,0.1732788-0.25
			c-0.2479858,0-1.0448914,0.5180054-1.6494141,1.0731812c-0.1771851,0.1641235-0.4331055,0.3467102-0.5673828,0.4058228
			c-0.3016968,0.1337891-0.8945007,0.1825867-1.1577148,0.0961914c-0.1860046-0.0620117-0.5253906-0.381897-0.5253906-0.4960938
			c0-0.0297852,0.0777283-0.0967102,0.1719055-0.1474915c0.0941772-0.0498047,0.2632141-0.1723022,0.375-0.2700195
			c0.4833984-0.4243164,1.3993835-0.8608093,2.1264954-1.0137024c0.230896-0.0482788,0.1459961-0.1650085-0.111908-0.1532898
			c-0.4989929,0.0214844-1.4902039,0.4859009-2.0820007,0.9746094c-0.6932678,0.5717773-1.7396851,0.5175781-2.0761719-0.1079102
			c-0.0586243-0.1073914-0.0927124-0.2080078-0.0761108-0.2240906c0.0161133-0.015625,0.2220764-0.0776062,0.4579773-0.137207
			c0.2549133-0.0644836,0.7597046-0.2734985,1.2426147-0.5147095c0.7593079-0.3783875,0.9844055-0.4589844,1.506897-0.543396
			c0.2348022-0.0370789,0.2474976-0.1524048,0.0189819-0.1791992c-0.2938538-0.0346985-0.7450562,0.1128235-1.5419617,0.5043945
			c-1.023407,0.503418-1.3100281,0.5903015-1.8496094,0.5585938c-0.4917297-0.0302734-0.7690125-0.1557922-1.1684265-0.5336914
			c-0.2608032-0.2475891-0.6308594-0.8760071-0.558075-0.9482727c0.0170898-0.0175171,0.137207,0,0.266571,0.0375977
			c0.1430359,0.0424805,0.5542297,0.0708008,1.0493469,0.0712891c0.6923523,0.0019836,0.8768616-0.0166016,1.2460632-0.1230164
			c0.6177063-0.1786804,1.4385071-0.5961914,2.0005188-1.0151978c1.0741882-0.8036804,1.9501953-1.1264038,3.0668945-1.1312866
			c1.0312195-0.0039062,1.6869812,0.2344055,2.2680054,0.8237c0.1967773,0.1991882,0.3643188,0.3280945,0.3920898,0.3007812
			c0.0253906-0.0258789,0.0542297-0.3744812,0.0625-0.7743835c0,0,0.3031921-0.0292969,0.367218,0.055603
			c0,0.6495056,0.007782,0.7001953,0.1021118,0.7001953c0.0614929,0,0.1273804-0.0628967,0.1678772-0.1615906
			c0.0884094-0.2124023,0.4151001-0.503418,0.764679-0.6802063c0.7539062-0.3823242,2.0595093-0.3940125,3.1083984-0.0282898
			c0.4414368,0.155304,0.9316101,0.4316711,1.398407,0.7919922c0.467804,0.3598938,1.4258118,0.8417969,1.992218,1.0025024
			c0.5722961,0.1625977,1.5820007,0.2036133,2.0995789,0.0858765c0.2129211-0.0483093,0.4131165-0.0883789,0.4443359-0.0883789
			c0.1913757,0-0.133728,0.6362915-0.515625,1.0087891c-0.6972961,0.6816101-1.6054993,0.6782227-2.8818054-0.0101929
			c-0.7958984-0.4282837-1.7480774-0.6626282-1.7480774-0.4291992c0,0.0483093,0.0498047,0.0809937,0.124115,0.0809937
			c0.2762451,0,0.8104858,0.1856079,1.5565491,0.539093c0.8057251,0.3833313,1.2578125,0.5454102,1.5264282,0.5454102
			c0.1953125,0,0.2011108,0.1206055,0.0195007,0.387207c-0.1924133,0.2842102-0.5195007,0.425293-0.9815063,0.4242859
			c-0.4403992-0.0014648-0.6854858-0.098114-1.0800171-0.4257812c-0.6591797-0.5483398-2.3017883-1.1600952-2.2382812-0.8334961
			c0.0116882,0.0649719,0.0907898,0.1049805,0.2606812,0.1308899c0.5713196,0.0874023,1.242218,0.4076843,1.929718,0.921875
			c0.2109985,0.1591187,0.4317017,0.315918,0.4872742,0.3491211c0.093811,0.0551758,0.0957336,0.0718079,0.0215149,0.210907
			c-0.1229858,0.230011-0.4346008,0.4082031-0.7704773,0.4433899c-0.4365234,0.0448914-0.8154297-0.0849915-1.2080078-0.4136047
			c-0.8291016-0.6933899-1.6094055-1.1947937-1.8594055-1.1947937c-0.2041016,0-0.1132812,0.1123047,0.2471008,0.3031921
			c0.4736023,0.2510071,0.9598999,0.5898132,1.3182983,0.9194031c0.1700134,0.1567993,0.3604126,0.311615,0.4239197,0.3457031
			c0.1503906,0.0801086,0.1445007,0.1977844-0.0205078,0.4136047c-0.1690063,0.219696-0.4472961,0.3164062-0.8075867,0.2783203
			c-0.7208252-0.0756226-1.2823486-0.4233398-2.1651001-1.339325c-0.3447266-0.3578796-0.6523438-0.6503906-0.6846313-0.6503906
			c-0.1170959,0-0.0477905,0.1592102,0.179718,0.4144897c0.2812805,0.3150024,0.335968,0.4927063,0.2294922,0.7485962
			c-0.094696,0.2265015-0.2510071,0.2787781-0.5732117,0.1923828c-0.329071-0.089386-0.3808899-0.0082703-0.1650696,0.2602234
			c0.3222961,0.4009094,0.2744751,0.8916016-0.1196289,1.2290039c-0.1224976,0.1044922-0.2509766,0.1903992-0.2860718,0.1903992
			c-0.0342407,0-0.120636-0.0892944-0.1934204-0.1987c-0.2533875-0.3847046-0.4761047-0.3823242-0.7225952,0.006897
			c-0.0859985,0.1357117-0.1582031,0.2456055-0.1607056,0.2450867
			C29.5541687,27.425293,29.4384766,27.3417969,29.3007812,27.2402039L29.3007812,27.2402039L29.3007812,27.2402039z"/>
		<polygon class="st3" points="30.5561829,19.4169922 30.1283875,19.7554016 29.7450867,19.4662781 29.7450867,21.7782898 
			30.5561829,21.7886047 30.5561829,19.4169922 		"/>
		<path class="st3" d="M27.907196,17.0180664c-0.0848999,1.0927124-0.3628235,1.8554382-0.7485046,2.6967163l0.925293-0.8578796
			l0.6431274,0.7641907l0.6966553-0.7773132l0.7115173,0.6567078l0.6831055-0.6835938l0.7098999,0.8309937l0.6171875-0.6835022
			l1.0449219,0.7503967c-0.3789062-0.8412781-0.8925171-1.5536804-0.828125-2.7373047
			C31.3495789,17.7299805,28.9433899,17.8656921,27.907196,17.0180664L27.907196,17.0180664L27.907196,17.0180664z"/>
		<path class="st3" d="M29.745575,16.4603882c-0.3716125,0.006897-0.7631836,0.0117798-1.1156921,0.0810852
			c-0.2442017,0.0483093-0.4662781,0.1274109-0.6509094,0.2583008c0.0298157,0.7109375,3.417511,1.0078125,4.3257141,0.0132141
			c-0.1914062-0.1392212-0.4237976-0.2217102-0.6807251-0.2715149c-0.3397827-0.0658875-0.7147827-0.0726929-1.0708008-0.0780945
			c0,0.1947937,0.0020447,0.3905945,0.0020447,0.5863953l-0.8096313-0.0023804V16.4603882L29.745575,16.4603882
			L29.745575,16.4603882z"/>
		<polygon class="st3" points="30.4081726,12.8275757 29.8822632,12.8314819 29.8822632,16.9472961 30.4193726,16.9496765 
			30.4081726,12.8275757 		"/>
		<polygon class="st3" points="30.4076843,12.933075 30.2064819,14.9037781 32.2333679,15.8939819 31.2079773,14.5219727 
			32.6083679,14.0678711 30.4076843,12.933075 		"/>
		<path class="st3" d="M30.1816101,12.4198914c-0.3076172,0-0.5351257,0.1147766-0.5351257,0.2514954
			c0,0.1366882,0.2275085,0.2528687,0.5351257,0.2528687c0.3076782,0,0.5336914-0.1161804,0.5336914-0.2528687
			C30.7153015,12.534668,30.4892883,12.4198914,30.1816101,12.4198914L30.1816101,12.4198914z"/>
		<path class="st0" d="M29.2538757,46.9882812c0.332489-0.1103821,0.5220337-0.3114929,0.6577148-0.7001953
			c0.0673828-0.1933899,0.1133118-0.3945007,0.1016235-0.4463196c-0.0283203-0.1249695-0.1714172-0.1181641-0.3301392,0.0137024
			c-0.1083984,0.0907898-0.1216125,0.1367188-0.0907898,0.3222351c0.0791016,0.4667664-0.0863953,0.5820923-0.9701843,0.6777649
			c-0.0874329,0.0088196-0.3408203-0.0058899-0.5640259-0.0341797c-0.4203796-0.0517883-0.570282-0.0108032-0.4179688,0.1161804
			c0.0458679,0.0381165,0.1625977,0.0898132,0.2593079,0.1143188
			C28.1353149,47.1122742,29.0014954,47.0712585,29.2538757,46.9882812L29.2538757,46.9882812L29.2538757,46.9882812z"/>
		<path class="st0" d="M31.0849915,46.9110718c0.0497742-0.0458984,0.2216187-0.125,0.3818054-0.1766968
			c0.2138977-0.0683899,0.3232117-0.141571,0.414093-0.2763977c0.2586975-0.3857117,0.2098999-0.717804-0.1708984-1.1669922
			c-0.2061157-0.243103-0.2978821-0.2362976-0.4628906,0.0332031c-0.1426086,0.2333984-0.1397095,0.2489929,0.0653992,0.3017883
			c0.1073914,0.0282898,0.210907,0.1073914,0.2675781,0.2051086c0.2236023,0.3867188,0.1582031,0.625885-0.1729126,0.6278687
			c-0.3007812,0.0029297-0.382782,0.0449219-0.4637756,0.2392273c-0.0424805,0.1006165-0.0767212,0.2080994-0.0767212,0.2392883
			C30.8666687,47.0194702,30.980011,47.0048828,31.0849915,46.9110718L31.0849915,46.9110718L31.0849915,46.9110718z"/>
		<path class="st0" d="M30.484375,46.4736023c0.0566101-0.1533203,0.0766296-0.4287109,0.0698242-0.9912109
			c-0.0039062-0.4287109-0.0209961-0.7920227-0.0376282-0.8085938c-0.0498047-0.0498047-0.2963867,0.109375-0.329071,0.2118835
			c-0.0166321,0.0527954,0.0106812,0.1767883,0.0609741,0.2734985c0.0767212,0.148407,0.0865173,0.2881165,0.0629883,0.8721008
			C30.2816772,46.7695007,30.3300781,46.8945007,30.484375,46.4736023L30.484375,46.4736023L30.484375,46.4736023z"/>
		<path class="st0" d="M29.0741882,46.1220703c0.0297852-0.1376953,0.0679016-0.4189758,0.0855103-0.6249695
			c0.0174866-0.2061157,0.0599976-0.4658203,0.093689-0.5782166c0.0849915-0.2880249-0.0010071-0.3642273-0.2284851-0.2030945
			l-0.1694336,0.1210938l0.0350952,0.414093c0.0327454,0.3739929-0.0267639,1.0693054-0.1122742,1.3398132
			c-0.0233765,0.0712891,0.0097961,0.0536804,0.1040039-0.0566101
			C28.9579773,46.445282,29.0448914,46.2597656,29.0741882,46.1220703L29.0741882,46.1220703z"/>
		<path class="st0" d="M27.8227844,46.3231812c0.3045959-0.2547913,0.2695007-0.6893921,0.3368835-1.0439148
			c-0.0068665-0.2353821,0.1504211-0.5175781,0.0488281-0.7236023c-0.2842102,0.0527039-0.4595032,0.3213196-0.3140259,0.5898132
			c0.0122375,0.3115234,0.0010071,0.6513977-0.1590576,0.9267883c-0.1309204,0.179718-0.5455322,0.1347351-0.5264282-0.1201782
			c0.1040039-0.383728-0.3560181-0.1972046-0.535675-0.0966187c-0.1386108,0.0966187-0.4316101,0.1035156-0.3300171-0.1376953
			c-0.0668945-0.3222961-0.4815063-0.1210938-0.7070923-0.1230774c-0.2124023-0.0039062-0.0174866-0.4306335-0.3227234-0.3554077
			c-0.5673828-0.0450134-1.1933899,0.0047913-1.6846008-0.3379211c-0.2871094-0.1376953-0.2445984-0.4833984-0.0951843-0.7070618
			c0.1786804-0.305603,0.2299805-0.6875305,0.5137024-0.9248352c0.2807007-0.2695007-0.2651978-0.1551819-0.3877258-0.0653992
			c-0.2739868,0.1504211-0.0195923,0.5361328-0.2436829,0.75c-0.1307983,0.2217102-0.3027039,0.5273132-0.605896,0.4854126
			c-0.436615-0.0820923-0.6885071-0.4883118-1.0014954-0.7608032c-0.2680969-0.0536804-0.1171875,0.4346008,0.0209961,0.5381165
			c0.2743835,0.2051086,0.5942078,0.3544922,0.9248047,0.4433594c0.3286133-0.0527649,0.339386,0.3778992,0.6201172,0.4453125
			c0.5160828,0.2402039,1.0907593,0.3115234,1.6532593,0.3408203c0.2211914,0.0184937,0.0967102,0.4120789,0.3872375,0.3349915
			c0.1625977,0.0419006,0.5292664-0.0606079,0.5473633,0.1278992c-0.2460938,0.2919922,0.2363281,0.2861023,0.4150391,0.2333984
			c0.2285767-0.0351868,0.5204773-0.1221008,0.5805664,0.1914062c0.1908875,0.2011719,0.5415344,0.1708984,0.7738953,0.055603
			C27.7641907,46.3710632,27.7948914,46.3485718,27.8227844,46.3231812L27.8227844,46.3231812L27.8227844,46.3231812z"/>
		<path class="st0" d="M22.8417969,43.7997742c0.0927734-0.1171875,0.2310181-0.3544922,0.3075867-0.5283203
			c0.0757141-0.1737671,0.1900024-0.3710632,0.2525024-0.4384766c0.1469116-0.1591797,0.0653992-0.2567749-0.1714172-0.2041016
			c-0.1249695,0.0274048-0.1757812,0.0732117-0.1967773,0.1816101c-0.0708008,0.3536072-0.1991882,0.7158813-0.3135071,0.8837891
			c-0.2064819,0.3046875-0.2119141,0.3174133-0.1263733,0.3174133
			C22.6376953,44.0116882,22.7494812,43.9169922,22.8417969,43.7997742L22.8417969,43.7997742L22.8417969,43.7997742z"/>
		<path class="st0" d="M21.7582703,42.6562805c0.1118164,0,0.1392212,0.0820007,0.0786133,0.2391968
			c-0.0419922,0.1083984-0.1776733,0.1123047-0.218689,0.0059204
			C21.5697937,42.7753906,21.6376953,42.6562805,21.7582703,42.6562805L21.7582703,42.6562805L21.7582703,42.6562805z
			 M19.719696,41.8427734c-0.233429,0-0.2436218,0.1474304-0.0160828,0.2275085
			c0.1103821,0.0380859,0.2035828,0.1309204,0.2787781,0.2812805c0.2216797,0.4414368,0.351593,0.5195312,0.9400024,0.570343
			l0.3773804,0.0341797l0.0186157,0.2294006c0.0091858,0.1260071,0.0390015,0.2315063,0.0682983,0.2315063
			s0.1748047-0.0635071,0.3222961-0.1387024c0.276825-0.1395874,0.5394897-0.4667969,0.5394897-0.6689148
			c0-0.132782-0.2211914-0.2763977-0.4217834-0.2763977c-0.0894165,0-0.2593079,0.0722961-0.3936157,0.1699219
			c-0.4198608,0.3036804-0.8690796,0.2421875-1.1151733-0.1542969
			C20.1161804,42.0224915,19.9052734,41.8427734,19.719696,41.8427734L19.719696,41.8427734L19.719696,41.8427734z"/>
		<path class="st0" d="M37.5897827,42.4687805c0.1153259,0,0.1347961,0.0252991,0.1484985,0.1903992
			c0.0116882,0.1367188-0.0126953,0.219696-0.0888977,0.2880859c-0.102478,0.0937195-0.1112976,0.0927429-0.2030945-0.0458679
			C37.3183899,42.704071,37.3974915,42.4687805,37.5897827,42.4687805L37.5897827,42.4687805L37.5897827,42.4687805z
			 M37.5712891,42.1435852c-0.1524048,0.0057983-0.1972961,0.0390015-0.2940063,0.1825867
			c-0.1582031,0.234314-0.1737976,0.7441101-0.0283203,0.9238281c0.0908203,0.1112976,0.1045227,0.1142883,0.296936,0.0341797
			c0.2685852-0.1123047,0.3135071-0.1083984,0.3124695,0.0361023c-0.0019836,0.3681946-0.530304,1.0780945-1.0839844,1.4561157
			c-0.1494141,0.1014709-0.282196,0.2147827-0.296875,0.2518921c-0.0400391,0.1054993,0.1650696,0.0820923,0.4169617-0.0458984
			c0.343811-0.1758118,0.7950134-0.6357117,0.9795227-0.9980164c0.1464844-0.289093,0.1679993-0.3876953,0.1856079-0.8935852
			c0.015564-0.4658203,0.0028992-0.6025085-0.0762024-0.7578125c-0.0888977-0.1737976-0.1171875-0.1893921-0.3389282-0.1893921
			C37.6181641,42.1435852,37.593811,42.1425781,37.5712891,42.1435852L37.5712891,42.1435852L37.5712891,42.1435852z"/>
		<path class="st0" d="M35.0596008,46.0253601c0.4872742-0.2402039,0.7753906-0.5097656,0.9598999-0.9003601
			c0.0878906-0.1865234,0.1592102-0.3613281,0.1592102-0.3916321c0-0.0673828-0.2402039-0.1787109-0.3838196-0.1787109
			c-0.1434937,0-0.1727905-0.0995789-0.1112976-0.3739929c0.0595703-0.266571-0.0126953-0.6025696-0.1299133-0.6025696
			c-0.0429993,0-0.1171875,0.0625-0.1679993,0.1386719c-0.0761108,0.1171875-0.0799866,0.1679993-0.023407,0.3389282
			c0.0830078,0.2528687,0.0176086,0.4422913-0.2099915,0.6034851c-0.1073914,0.0771179-0.1659851,0.1650085-0.1659851,0.2510071
			c0,0.0731812,0.0087891,0.1318054,0.0195923,0.1318054c0.0116882,0,0.1297913-0.0615234,0.2636108-0.1357117l0.2431946-0.1358032
			l0.1435852,0.1123047c0.0780945,0.0615234,0.1434937,0.1631165,0.1434937,0.2246094
			c0,0.296875-0.8466797,0.7948914-1.4277039,0.8417969c-0.3085632,0.0243835-0.3613892,0.0137024-0.4687805-0.092804
			c-0.0879211-0.0877991-0.1123047-0.1611023-0.0908203-0.2646179c0.0166321-0.0791016,0.0469055-0.2226868,0.0664368-0.3193054
			c0.0536804-0.2587585-0.0576172-0.2236633-0.2489929,0.078125c-0.1572266,0.2489929-0.2041321,0.5145874-0.1162415,0.655304
			c0.0732117,0.1141968,0.554718,0.2236023,0.8955383,0.2020874C34.6229858,46.195282,34.8349915,46.1356812,35.0596008,46.0253601
			L35.0596008,46.0253601L35.0596008,46.0253601z"/>
		<path class="st0" d="M38.3134766,44.2099915c0.3066101-0.3057251,0.4365234-0.6777954,0.4385071-1.2539062l0.0009155-0.4327087
			l0.2529907-0.1200867c0.3291016-0.1562195,0.6405945-0.468689,0.6405945-0.6416016
			c0-0.1787109-0.0791016-0.1689148-0.2216797,0.0244141c-0.1045227,0.141571-0.2441101,0.2265625-0.7528992,0.460968
			c-0.1289062,0.0585938-0.1367188,0.0908203-0.1660156,0.6289062c-0.0342102,0.6210938-0.1181946,0.8535156-0.4649048,1.2773132
			c-0.2128906,0.2587891-0.2207031,0.2929688-0.0731812,0.2929688
			C38.0292969,44.4462585,38.1846008,44.3407898,38.3134766,44.2099915L38.3134766,44.2099915z"/>
		<path class="st0" d="M34.9726868,43.8632812c0.0292969-0.0888977-0.1397095-0.1523743-0.2138977-0.0801086
			c-0.030304,0.031311-0.039093,0.085022-0.0176086,0.1191101C34.789093,43.9794922,34.9424133,43.9530945,34.9726868,43.8632812
			L34.9726868,43.8632812L34.9726868,43.8632812z"/>
		<path class="st0" d="M39.5791016,42.6708679c0.030304-0.0888672-0.1395874-0.1522827-0.2119141-0.0800781
			c-0.032196,0.0312805-0.0401001,0.0849915-0.0195007,0.1192017
			C39.3964844,42.7870789,39.5497742,42.7616882,39.5791016,42.6708679L39.5791016,42.6708679L39.5791016,42.6708679z"/>
		<path class="st0" d="M33.2792664,42.1688843c0.1689148-0.0107117,0.2432251,0.1972961,0.2070312,0.3359985
			c-0.0634155,0.1885071-0.2949219,0.0673828-0.3408203-0.0683899
			C33.0595703,42.3153992,33.1122742,42.1532898,33.2792664,42.1688843L33.2792664,42.1688843L33.2792664,42.1688843z
			 M34.0351868,39.4413757c-0.1192017,0.0575867-0.1817017,0.1856079-0.2637024,0.2842102
			c-0.0596008,0.039978-0.0117188,0.0780945,0.0223999,0.1161804c0.2099915,0.2266235,0.2989197,0.5322266,0.3985291,0.8174133
			c0.0985718,0.3369141,0.2216797,0.6991882,0.1190796,1.0498047c-0.0400085,0.1337891-0.1455078,0.273407-0.3036804,0.2285156
			c-0.2529297-0.015625-0.5010071-0.0830078-0.7539368-0.0801392c-0.2255859,0.0117188-0.4003906,0.2168274-0.6308899,0.1944275
			c-0.1473999,0.0097046-0.140625-0.3008118-0.2773132-0.217804c-0.0683899,0.1621094-0.0351868,0.342804-0.0429688,0.5146179
			c0.0253906,0.0243835,0.0976868,0.0029602,0.139679,0.0108032h0.4541016
			c0.032196,0.156189,0.0282898,0.3358765,0.1405945,0.4608765c0.1582031,0.0556946,0.335022,0.0078125,0.4844055-0.0536804
			c0.1611023-0.0742188,0.1825867-0.2676392,0.2275085-0.4179993c0.0479126-0.1621094,0.2597961-0.1191101,0.3847961-0.1826172
			c0.3056946-0.0888977,0.5057983-0.407196,0.4873047-0.7187195c-0.0195007-0.4776001-0.2012024-0.9257812-0.3388977-1.3769836
			c-0.0703125-0.1991882-0.118103-0.407196-0.1982117-0.6006165c-0.0097961-0.016571-0.0292969-0.031189-0.0487976-0.0272827
			V39.4413757L34.0351868,39.4413757z"/>
		<path class="st0" d="M26.8744812,40.9501953c0.0259094,0,0.0473938,0.016571,0.0805969,0.0498047
			c0.042511,0.0419617,0.0649109,0.1161804,0.0469055,0.164093c-0.0435181,0.1122742-0.2485962,0.1083984-0.2919922-0.0049133
			c-0.0204773-0.0556946,0.0057983-0.117218,0.0678101-0.1620789
			C26.8207703,40.9657898,26.8485718,40.9491882,26.8744812,40.9501953L26.8744812,40.9501953L26.8744812,40.9501953z
			 M26.9945984,40.6034851c-0.0761108-0.0009766-0.1611023,0.0274048-0.2450867,0.0859985
			C26.3065796,41,26.1933899,41.3661804,26.4940796,41.5097961c0.2211914,0.1054077,0.1651001,0.2303772-0.1820984,0.4042969
			c-0.4979858,0.2479858-0.9370117,0.2177124-1.7714844-0.1279907c-0.2051086-0.0849304-0.2583313-0.0517273-0.210907,0.1357727
			c0.0458984,0.1835938,0.2142944,0.2851257,0.6328125,0.3798828c0.4501953,0.1035156,0.9940796,0.0703125,1.3441772-0.0810852
			c0.1708984-0.0731812,0.3735962-0.227478,0.5445251-0.4130859l0.2709961-0.2977905l0.3148804,0.0390015
			c0.3882141,0.0478821,0.3959961,0.0517883,0.3959961,0.2373047c0,0.1474915,0.0083008,0.1513977,0.3648071,0.1845703
			c0.2011108,0.0195312,0.4653015,0.0371094,0.5888062,0.0371094c0.157196,0,0.2466125,0.0282898,0.2987976,0.101593
			c0.0704041,0.0976257,0.111908,0.1025085,0.6987915,0.0498047c0.5483093-0.0498047,0.6557007-0.0458984,0.9033203,0.0380859
			c0.1757812,0.0605164,0.3690796,0.0840149,0.5155945,0.0683289c0.4208679-0.047821,1-0.390625,1.0839844-0.6435242
			c0.0098267-0.0302734,0.1621094-0.0849915,0.3388977-0.1200867c0.4238281-0.085022,0.4424133-0.1767883,0.045929-0.226593
			c-0.170929-0.0215149-0.4287109-0.0840149-0.5723267-0.1405945c-0.1445007-0.0567322-0.3407898-0.1045227-0.4375-0.1045227
			c-0.2138977,0-0.414093,0.1338196-0.414093,0.2715149c0,0.0897827,0.031311,0.0986023,0.2842102,0.0732117
			c0.2373047-0.0244141,0.3067017-0.0107422,0.4316711,0.0878906c0.0820007,0.0653992,0.1377258,0.141571,0.1201172,0.1688843
			c-0.0556946,0.0918274-0.5517883,0.3174133-0.7714844,0.3526306c-0.1464844,0.0233765-0.2646179,0.0067749-0.3799133-0.0518188
			c-0.1923828-0.1005859-0.4761047-0.1152039-0.5292969-0.0292969c-0.0223999,0.0371094-0.0830078,0.0137024-0.1665039-0.0653992
			l-0.1298828-0.1221008L29.8125,41.8378906c-0.2993164,0.1239929-0.4092102,0.1190796-0.4092102-0.023407
			c0-0.0644836-0.0874023-0.0723267-0.5282898-0.0440063c-0.4862976,0.0322266-0.5371094,0.023407-0.6278992-0.0780945
			c-0.0840149-0.0937805-0.0860291-0.1260071-0.0259094-0.2217102c0.0552063-0.0888672,0.0552063-0.1268921,0.0024109-0.1796875
			c-0.0522156-0.0516968-0.1206055-0.0516968-0.3125,0c-0.4833984,0.1298828-0.6201172,0.0567017-0.6201172-0.3203125
			C27.2909851,40.7440796,27.1611023,40.6063843,26.9945984,40.6034851L26.9945984,40.6034851L26.9945984,40.6034851z"/>
		<path class="st0" d="M26.0072937,41.3017883c0.2944946-0.1865845,0.2875977-0.1719055,0.3300781-0.6904907
			c0.0292969-0.3662109,0.0244141-0.3934937-0.074707-0.3934937c-0.1444702,0-0.2191772,0.1581726-0.2191772,0.4598999
			c0,0.1933899-0.030304,0.2802734-0.1333008,0.382782c-0.2452087,0.2451782-0.8536072,0.1338196-0.9301758-0.1708984
			c-0.0259094-0.1044006,0.0072937-0.1982117,0.1346741-0.3789062c0.2662048-0.3778992,0.2060852-0.4706726-0.1200867-0.1835938
			c-0.2240906,0.1954041-0.2641296,0.2012024-0.2217102,0.0322876c0.0395813-0.155304-0.0424194-0.2177734-0.2249756-0.1719055
			c-0.0933228,0.023407-0.1441345,0.0820007-0.166626,0.1953125c-0.0213928,0.1112976-0.0721741,0.1728821-0.160614,0.1943054
			c-0.1478882,0.0371704-0.3993835-0.1025085-0.3993835-0.2215881c0-0.0889282,0.3768921-0.5489197,0.8602905-1.0508423
			c0.1821899-0.1894836,0.331604-0.3661804,0.331604-0.3925781c0-0.0272827-0.0976868-0.0487976-0.2167969-0.0487976
			c-0.1743164,0-0.2167969,0.0195007-0.2167969,0.1006165c0,0.0546875-0.2432251,0.3739929-0.5415039,0.7098999
			c-0.6221008,0.7001953-0.6734009,0.8457031-0.3661804,1.0322876c0.2474976,0.1522827,0.5653992,0.1405945,0.8143921-0.0292969
			l0.2016907-0.1368103v0.249115c0,0.3182678,0.0635071,0.4325867,0.3134766,0.5643921
			C25.3158875,41.5195007,25.6957703,41.4999695,26.0072937,41.3017883L26.0072937,41.3017883L26.0072937,41.3017883z"/>
		<path class="st0" d="M36.8476868,38.9179688c0.3623047-0.0205078,0.2323914,0.5078125-0.0733032,0.2675171
			C36.6161804,39.1063843,36.6679993,38.9081726,36.8476868,38.9179688L36.8476868,38.9179688z M38.1376953,38.5380859
			c0.2772827,0.0741882-0.0508118,0.6044922-0.1981812,0.2684937
			C37.8935852,38.6786804,38.0019836,38.5341797,38.1376953,38.5380859L38.1376953,38.5380859z M39.0565796,36.9755554
			c-0.2303772,0.1377258-0.0498047,0.4267273-0.0145874,0.6191101c-0.094696,0.2627258-0.4315796,0.3330383-0.6768188,0.3819275
			c-0.3486023,0.0575867-0.594696,0.3486023-0.7265015,0.6571655c-0.0722961,0.2012329-0.2450867,0.5126953-0.4335938,0.2070312
			c-0.164093-0.1660156-0.4657898-0.297821-0.6592102-0.1044922c-0.1474609,0.140686-0.1846008,0.3466797-0.2392883,0.5341797
			c-0.0868835-0.1445007-0.125885-0.3583984-0.3104858-0.4042969c-0.2940063,0.0419922-0.1875,0.4121094-0.0498047,0.5653992
			c0.1260071,0.1777954,0.2471008,0.4130859,0.1240234,0.625c-0.109436,0.2539062-0.484436,0.4258118-0.7051392,0.2080078
			c-0.2059631-0.1083069-0.0682678-0.4970093-0.2713928-0.5184937c-0.1006165,0.0722961-0.1083984,0.4794922-0.2695923,0.2587891
			c-0.1152039-0.1885071-0.0537109-0.4462891-0.1962891-0.6152954c-0.1670227,0.0205688-0.3016968,0.3096008-0.2460938,0.4638977
			c0.2236938,0.3017883,0.3154602,0.6796875,0.4024048,1.039093c0.0546875,0.1445007-0.007843,0.4355164,0.1268616,0.493103
			c0.093811-0.2314148,0.0069275-0.4940796,0.0801086-0.7284851c0.217804-0.0273132,0.460907,0.0722961,0.6895142,0.0195923
			c0.3280945-0.0429993,0.5809937-0.3194275,0.695282-0.6133118c0.0350952-0.2217102-0.0058899-0.4453125-0.0126648-0.6679993
			c0.2587585,0.0400085,0.5272827,0.039093,0.7762756,0.1231079c0.1240845,0.1893921-0.0390015,0.454071-0.0731812,0.6611023
			c-0.1299133,0.4208984-0.460022,0.726593-0.780304,1.0078125c-0.1347046,0.0800781-0.1523132,0.289978,0.0458679,0.1767578
			c0.4306946-0.1846008,0.7530212-0.5751648,0.9375-0.9980774c0.1347961-0.3251953,0.0263977-0.6865234,0.1143188-1.0195007
			c0.1299133-0.25,0.4432983-0.1972961,0.6758118-0.1962891c0.2402039-0.0088196,0.4442749-0.289093,0.3641663-0.5215149
			c-0.0760803-0.2714844,0.210022-0.4013977,0.4063416-0.4979858C39.0888672,38,39.2880859,37.734375,39.2675781,37.4335938
			C39.2568054,37.2802734,39.2645874,36.9892883,39.0565796,36.9755554L39.0565796,36.9755554L39.0565796,36.9755554z"/>
		<path class="st0" d="M23.7572937,40.9589844c0.0097961-0.0527039-0.0171204-0.0899048-0.0643921-0.0899048
			c-0.1006165,0-0.1615906,0.0879211-0.1143188,0.1651001C23.6278992,41.1132812,23.7362976,41.0683594,23.7572937,40.9589844
			L23.7572937,40.9589844L23.7572937,40.9589844z"/>
		<path class="st0" d="M27.9945984,40.4853821c0-0.0772095-0.0292969-0.1065063-0.0942078-0.093811
			c-0.1416016,0.0263977-0.1576843,0.2061157-0.0180969,0.2061157
			C27.9595032,40.5976868,27.9945984,40.5624695,27.9945984,40.4853821L27.9945984,40.4853821z"/>
		<path class="st0" d="M22.425293,39.5145874c0.0884094-0.0019226,0.2728882,0.0830688,0.0996094,0.1376953
			C22.4042664,39.7460938,22.2675781,39.5565796,22.425293,39.5145874L22.425293,39.5145874z M22.9022827,39.1894836
			c0.1548157,0.0868835-0.0990906,0.2294006-0.2059937,0.2098999c-0.1401062,0.0419922-0.1426086-0.1005859-0.0181274-0.1289062
			C22.7479858,39.2333984,22.8222961,39.195282,22.9022827,39.1894836L22.9022827,39.1894836L22.9022827,39.1894836z
			 M22.7509766,37.9413757c-0.1689758-0.0341797-0.2753906,0.1083984-0.3334961,0.2450867
			c-0.1264954,0.2129211-0.2807922,0.429718-0.507782,0.5420227c-0.1631165,0.0458984-0.3413086-0.0166016-0.4819946-0.1005859
			c-0.1679077-0.0830078-0.129425-0.2850952-0.2015991-0.4248047c-0.1216125-0.0957336-0.3369141,0.0409851-0.3321228,0.1894836
			c-0.013092,0.1982117,0.1729126,0.3135071,0.3272095,0.3905945c0.1312866,0.0801086,0.3217773,0.125,0.3739929,0.2871094
			c-0.0033875,0.1387024,0.0517883,0.2969055,0.2201843,0.2431946c0.1885071-0.0029907,0.2373047,0.2265015,0.1612244,0.3641968
			c-0.077179,0.155304-0.1298828,0.3369141-0.092804,0.5097961c0.0903015,0.0762024,0.1820984-0.1278687,0.2474976-0.1854858
			c0.0440063-0.0586243,0.0883789-0.1181946,0.1329041-0.1767883c0.3330078,0.0176086,0.6659851,0.0604858,1,0.0477905
			c0.2378235-0.0039062,0.4399109-0.1502991,0.5913086-0.3222046c0.2132874-0.2236938,0.3890991-0.4862976,0.632782-0.6787109
			c0.1738281-0.0429688,0.0805054-0.3700867-0.1011047-0.2753906c-0.1630859,0.0614929-0.2147827,0.2460938-0.3280945,0.3641968
			c-0.1929016,0.2333984-0.3897095,0.4707031-0.632782,0.6534119c-0.1773071,0.0732117-0.3809204,0.0410156-0.5629883,0
			c-0.0757141-0.0664062,0.1508789-0.1202087,0.1825562-0.1944275c0.1045227-0.1044617,0.2280273-0.2030945,0.2886047-0.3397827
			c-0.0575867-0.1269836-0.2348938-0.1366882-0.359375-0.139679c-0.3071289,0.0370789-0.5420227,0.2949829-0.8521118,0.319397
			c-0.2352905,0.0087891-0.1127014-0.2471313-0.0067749-0.3340149c0.2074585-0.2460938,0.4320984-0.4785156,0.6488953-0.7168274
			c0.0615845-0.0741577,0.2841797-0.1444702,0.141571-0.2489929C22.8568726,37.9423828,22.8031921,37.9423828,22.7509766,37.9413757
			L22.7509766,37.9413757L22.7509766,37.9413757z"/>
		<path class="st0" d="M26.1781921,39.7304688c0-0.1181946-0.2103882-0.1005859-0.2339172,0.0185242
			c-0.0150757,0.0762024,0.0088196,0.0947876,0.1075134,0.0800781
			C26.121582,39.8193054,26.1781921,39.7753906,26.1781921,39.7304688L26.1781921,39.7304688z"/>
		<path class="st0" d="M35.5175781,38.9032898c0.0215149-0.1123047-0.1347961-0.1875-0.2177734-0.1045227
			c-0.0820007,0.0821228-0.0059204,0.2392883,0.1054993,0.2167969
			C35.4570007,39.0058594,35.5078125,38.9550781,35.5175781,38.9032898L35.5175781,38.9032898L35.5175781,38.9032898z"/>
		<path class="st0" d="M20.9833679,37.7587891c0.1465149-0.1260071,0.1479187-0.1337891,0.085022-0.4111328
			c-0.0903931-0.3867493-0.0845032-0.428772,0.0628967-0.4658508c0.1871033-0.0468445,0.6612244,0.2070923,0.7662048,0.4101562
			c0.0814819,0.1582031,0.0791016,0.1689148-0.0591125,0.2969055c-0.1493835,0.1377258-0.148468,0.2987976,0.0010376,0.2987976
			c0.1229858,0,0.4642944-0.3231812,0.4642944-0.4384766c0-0.1611023-0.378418-0.5410156-0.6777344-0.680603
			c-0.1850891-0.0859985-0.3700867-0.1260071-0.5845032-0.1270142c-0.3833008,0-0.4350891,0.0820312-0.3314819,0.5282898
			c0.1214905,0.522522-0.0435181,0.593811-0.464386,0.1992188c-0.3125305-0.2929077-0.4360046-0.5965881-0.4341431-1.0761108
			c0.0005493-0.514679,0.1973267-0.7685852,0.640625-0.828186c0.2945251-0.0400085,0.2866821-0.1083984-0.0155945-0.1532898
			c-0.441925-0.0674133-0.8153992,0.2276001-0.9570007,0.7548828c-0.1572266,0.5839844,0.2036133,1.2958984,0.8417969,1.6631165
			C20.6557922,37.9208984,20.789093,37.9267883,20.9833679,37.7587891L20.9833679,37.7587891z"/>
		<path class="st0" d="M38.3895874,37.1181946c0.0362244-0.0362244,0.0655212-0.117218,0.0655212-0.179718
			s0.0604858-0.1962891,0.1346741-0.2969055c0.0751953-0.101593,0.1358032-0.2041016,0.1358032-0.2294922
			c0-0.102478-0.1690063-0.0995789-0.3026733,0.0068054c-0.1358337,0.1065063-0.2383118,0.1094055-0.2383118,0.0049133
			c0-0.0263062,0.0643921-0.0791016,0.1445007-0.1181335c0.1981812-0.0966797,0.2147827-0.1923828,0.0478821-0.2695923
			c-0.2158813-0.0975952-0.4316711,0.0810852-0.4541016,0.375c-0.0137024,0.1973267,0.0019226,0.2315063,0.1533203,0.3203125
			c0.1385803,0.0820923,0.1650085,0.125,0.1416016,0.241272C38.1776733,37.1757812,38.2616882,37.2460938,38.3895874,37.1181946
			L38.3895874,37.1181946L38.3895874,37.1181946z"/>
		<path class="st0" d="M40.0263672,36.9325867c0.1201172-0.1073914,0.2177124-0.2294922,0.2177124-0.2705078
			s0.1026001-0.1494141,0.2295227-0.2402039c0.359375-0.2578125,0.4384766-0.5185852,0.2773743-0.9198914
			c-0.0625-0.1573181-0.2587891-0.375-0.6864929-0.7597961c-0.3282166-0.2969055-0.6308899-0.5401001-0.6699829-0.5401001
			c-0.117218,0-0.0957031,0.429718,0.0224915,0.4667969c0.2129211,0.0683899,0.3427734,0.1562805,0.6787109,0.4589844
			c0.3897095,0.3526306,0.5692749,0.6817017,0.4717102,0.8653259c-0.0947266,0.1766968-0.2197266,0.1219788-0.5635376-0.2471008
			c-0.1806946-0.1943359-0.3602905-0.3525085-0.3974915-0.3525085c-0.0390015,0.000885-0.0682983,0.0711975-0.0682983,0.1689148
			c0,0.1239929,0.0664062,0.2411804,0.2450867,0.4394836c0.2900085,0.3231812,0.3184204,0.5174866,0.1006165,0.6893921
			c-0.0780945,0.0615234-0.1592102,0.1123047-0.179718,0.1123047c-0.0185852,0-0.0829773-0.0967102-0.141571-0.2138977
			c-0.1211243-0.2470093-0.8662109-1.0332031-0.9775085-1.0332031c-0.0507812,0-0.0762024,0.0635071-0.0762024,0.1885071
			c0,0.1513977,0.030304,0.2041016,0.1503906,0.2655945c0.1473999,0.077179,0.5127258,0.444397,0.8789062,0.8876953
			c0.1054993,0.1269836,0.2090149,0.2295227,0.2314148,0.2304993C39.7909851,37.1288757,39.907196,37.0409851,40.0263672,36.9325867
			L40.0263672,36.9325867L40.0263672,36.9325867z"/>
		<path class="st0" d="M40.7558899,34.8437805c-0.0478821-0.156311-1.0469055-1.1835938-1.1495056-1.1835938
			c-0.0526733,0-0.0693054,0.0634155-0.0566101,0.2265015c0.0137024,0.1983032,0.0352173,0.2323914,0.1719055,0.2685852
			c0.0848999,0.0224304,0.3486023,0.2285156,0.5848999,0.4580078c0.2344055,0.2294922,0.4414062,0.4032898,0.4580078,0.3856812
			C40.781311,34.9823914,40.7782898,34.9130554,40.7558899,34.8437805L40.7558899,34.8437805L40.7558899,34.8437805z"/>
		<path class="st0" d="M34.7929993,46.4110718c0,0.0751953-0.0664062,0.1358032-0.1485291,0.1358032
			c-0.0820007,0-0.1483765-0.0606079-0.1483765-0.1358032c0-0.0751648,0.0663757-0.1366882,0.1483765-0.1366882
			C34.726593,46.2743835,34.7929993,46.335907,34.7929993,46.4110718L34.7929993,46.4110718z"/>
		<path class="st0" d="M35.3163757,46.2353821c0,0.0751038-0.0663757,0.1366882-0.1474915,0.1366882
			c-0.0820007,0-0.148407-0.0615845-0.148407-0.1366882c0-0.0752258,0.0664062-0.1358032,0.148407-0.1358032
			C35.25,46.0995789,35.3163757,46.1601562,35.3163757,46.2353821L35.3163757,46.2353821z"/>
	</g>
</g>
</svg>
