<?xml version="1.0" encoding="utf-8"?>
<!-- Generator: Adobe Illustrator 22.1.0, SVG Export Plug-In . SVG Version: 6.00 Build 0)  -->
<svg version="1.1" id="Layer_1" xmlns="http://www.w3.org/2000/svg" xmlns:xlink="http://www.w3.org/1999/xlink" x="0px" y="0px"
	 viewBox="0 0 60 60" style="enable-background:new 0 0 60 60;" xml:space="preserve">
<style type="text/css">
	.st0{clip-path:url(#SVGID_2_);fill:#CE1327;}
	.st1{clip-path:url(#SVGID_2_);fill:#3DAB3E;}
	.st2{clip-path:url(#SVGID_2_);fill:#FFFFFF;}
	.st3{clip-path:url(#SVGID_2_);fill:none;stroke:#FFFFFF;stroke-width:6;}
</style>
<g id="XMLID_1_">
	<g>
		<defs>
			<path id="SVGID_1_" d="M59,60H0.9999695C0.4477234,60,0,59.5526733,0,59V0.9999695c0-0.5522461,0.4477234-1,0.9999695-1H59
				c0.5526886,0,0.9999847,0.4477539,0.9999847,1V59C59.9999847,59.5526733,59.5526886,60,59,60L59,60z"/>
		</defs>
		<clipPath id="SVGID_2_">
			<use xlink:href="#SVGID_1_"  style="overflow:visible;"/>
		</clipPath>
		<polygon class="st0" points="-20.2792969,-0.167511 80.2792816,-0.167511 80.2792816,60.1679688 -20.2792969,60.1679688 
			-20.2792969,-0.167511 		"/>
		<polygon class="st1" points="-30.3354187,-6.2012024 -30.3354187,66.2012024 90.3349915,-6.2012024 90.3349915,66.2012024 
			-30.3354187,-6.2012024 		"/>
		<path class="st2" d="M-29.9331055-5.4907532v70.9819336l59.1513977-35.4912109L-29.9331055-5.4907532L-29.9331055-5.4907532z
			 M30.7816772,29.9999695l59.1509094,35.4912109V-5.4907532L30.7816772,29.9999695L30.7816772,29.9999695z M90.7372742,66.9111023
			L30,30.4691772l-60.7373047,36.441925V-6.9116516L30,29.5307922L90.7372742-6.9116516V66.9111023L90.7372742,66.9111023z"/>
		<path class="st3" d="M-29.9331055-5.4907532v70.9819336l59.1513977-35.4912109L-29.9331055-5.4907532L-29.9331055-5.4907532z
			 M30.7816772,29.9999695l59.1509094,35.4912109V-5.4907532L30.7816772,29.9999695L30.7816772,29.9999695z M90.7372742,66.9111023
			L30,30.4691772l-60.7373047,36.441925V-6.9116516L30,29.5307922L90.7372742-6.9116516V66.9111023L90.7372742,66.9111023z"/>
		<path class="st2" d="M30,12.9047852c9.4413757,0,17.094696,7.6538086,17.094696,17.0951843
			c0,9.4414062-7.6533203,17.0947266-17.094696,17.0947266c-9.4414062,0-17.0952148-7.6533203-17.0952148-17.0947266
			C12.9047852,20.5585938,20.5585938,12.9047852,30,12.9047852L30,12.9047852z"/>
		<polygon class="st0" points="31.0556641,19.3207703 33.1679688,19.3207703 32.1112976,21.1508789 33.1679688,22.9809875 
			31.0556641,22.9809875 30,24.8109741 28.9442749,22.9809875 26.832489,22.9809875 27.8881836,21.1508789 26.832489,19.3207703 
			28.9442749,19.3207703 30,17.4906921 31.0556641,19.3207703 		"/>
		<path class="st1" d="M27.1806946,22.7797546h1.8797913L30,24.4086609l0.9394836-1.6289062h1.8797913l-0.9393921-1.6288757
			l0.9393921-1.6289062h-1.8797913L30,17.8930664l-0.9395142,1.6289062h-1.8797913l0.9399109,1.6289062L27.1806946,22.7797546
			L27.1806946,22.7797546z M30,25.2133789l-1.1719055-2.031311h-2.343689l1.1719055-2.031189l-1.1719055-2.0312805h2.343689
			L30,17.0878906l1.1719055,2.0317078h2.343689l-1.1717834,2.0312805l1.1717834,2.031189h-2.343689L30,25.2133789L30,25.2133789z"/>
		<polygon class="st0" points="23.3930664,32.594696 25.5048828,32.594696 24.4491882,34.4247742 25.5048828,36.2548828 
			23.3930664,36.2548828 22.3374023,38.0849915 21.2816772,36.2548828 19.1698914,36.2548828 20.2255859,34.4247742 
			19.1698914,32.594696 21.2816772,32.594696 22.3374023,30.7641907 23.3930664,32.594696 		"/>
		<path class="st1" d="M19.5180969,36.0536804h1.8793945l0.9399109,1.6289062l0.9394836-1.6289062h1.8797913l-0.9398804-1.6289062
			l0.9398804-1.6289062H23.276886l-0.9394836-1.6288757l-0.9399109,1.6288757h-1.8793945l0.9399109,1.6289062L19.5180969,36.0536804
			L19.5180969,36.0536804z M22.3374023,38.4872742l-1.1719055-2.031189h-2.343689l1.1719055-2.031311l-1.1719055-2.031189h2.343689
			l1.1719055-2.0317993l1.1719055,2.0317993h2.343689l-1.1717834,2.031189l1.1717834,2.031311h-2.343689L22.3374023,38.4872742
			L22.3374023,38.4872742z"/>
		<polygon class="st0" points="38.718811,32.594696 40.8300781,32.594696 39.7743835,34.4247742 40.8300781,36.2548828 
			38.718811,36.2548828 37.6620789,38.0849915 36.6063843,36.2548828 34.4950867,36.2548828 35.5507812,34.4247742 
			34.4950867,32.594696 36.6063843,32.594696 37.6620789,30.7641907 38.718811,32.594696 		"/>
		<path class="st1" d="M34.842804,36.0536804h1.8798828l0.9403992,1.6289062l0.9393921-1.6289062h1.8799133l-0.9403992-1.6289062
			l0.9403992-1.6289062H38.602478l-0.9393921-1.6288757l-0.9403992,1.6288757H34.842804l0.9403992,1.6289062L34.842804,36.0536804
			L34.842804,36.0536804z M37.6630859,38.4872742l-1.1729126-2.031189h-2.343689l1.1719055-2.031311l-1.1719055-2.031189h2.343689
			l1.1729126-2.0317993l1.1719055,2.0317993h2.343689l-1.171875,2.031189l1.171875,2.031311h-2.343689L37.6630859,38.4872742
			L37.6630859,38.4872742z"/>
	</g>
</g>
</svg>
