<?xml version="1.0" encoding="utf-8"?>
<!-- Generator: Adobe Illustrator 22.1.0, SVG Export Plug-In . SVG Version: 6.00 Build 0)  -->
<svg version="1.1" id="Layer_1" xmlns="http://www.w3.org/2000/svg" xmlns:xlink="http://www.w3.org/1999/xlink" x="0px" y="0px"
	 viewBox="0 0 60 60" style="enable-background:new 0 0 60 60;" xml:space="preserve">
<style type="text/css">
	.st0{clip-path:url(#SVGID_2_);fill:#1D3E89;}
	.st1{clip-path:url(#SVGID_2_);fill:#FFFFFF;}
	.st2{clip-path:url(#SVGID_2_);fill:#D02227;}
	.st3{clip-path:url(#SVGID_2_);fill:#F8D218;}
</style>
<g id="XMLID_1_">
	<g>
		<defs>
			<path id="SVGID_1_" d="M59,60H0.9999695C0.4477234,60,0,59.5526733,0,59V0.9999695c0-0.5522461,0.4477234-1,0.9999695-1H59
				c0.5526886,0,0.9999847,0.4477539,0.9999847,1V59C59.9999847,59.5526733,59.5526886,60,59,60L59,60z"/>
		</defs>
		<clipPath id="SVGID_2_">
			<use xlink:href="#SVGID_1_"  style="overflow:visible;"/>
		</clipPath>
		<polygon class="st0" points="-15.6309204,-0.0000305 86.3690796,-0.0000305 86.3690796,60 -15.6309204,60 -15.6309204,-0.0000305 
					"/>
		<polygon class="st1" points="-15.6309204,29.9999695 86.3690796,29.9999695 86.3690796,44.9999695 -15.6309204,44.9999695 
			-15.6309204,29.9999695 		"/>
		<polygon class="st2" points="-15.6309204,35 86.3690796,35 86.3690796,39.9999695 -15.6309204,39.9999695 -15.6309204,35 		"/>
		<polygon class="st3" points="22.6190796,49.5 23.292511,51.5731812 25.4721985,51.5731812 23.7089844,52.8544922 
			24.3822937,54.9267883 22.6190796,53.6455078 20.8554993,54.9267883 21.5292969,52.8544922 19.7655945,51.5731812 
			21.9551086,51.5731812 22.6190796,49.5 		"/>
		<polygon class="st3" points="31.4354858,46.6356812 32.1094055,48.7079773 34.289093,48.7079773 32.5253906,49.9892578 
			33.1991882,52.0625 31.4354858,50.7812805 29.6723938,52.0625 30.3457031,49.9892578 28.582489,48.7079773 30.7720032,48.7079773 
			31.4354858,46.6356812 		"/>
		<polygon class="st3" points="36.8847961,39.1356812 37.5585938,41.2079773 39.7383118,41.2079773 37.9746094,42.4892578 
			38.648407,44.5625 36.8847961,43.2812805 35.1210938,44.5625 35.7948914,42.4892578 34.031311,41.2079773 36.2206726,41.2079773 
			36.8847961,39.1356812 		"/>
		<polygon class="st3" points="36.8847961,29.8646851 37.5585938,31.9374695 39.7383118,31.9374695 37.9746094,33.2187805 
			38.648407,35.2919922 36.8847961,34.0106812 35.1210938,35.2919922 35.7948914,33.2187805 34.031311,31.9374695 
			36.2206726,31.9374695 36.8847961,29.8646851 		"/>
		<polygon class="st3" points="31.4354858,22.3646851 32.1094055,24.4374695 34.289093,24.4374695 32.5253906,25.7187805 
			33.1991882,27.7919922 31.4354858,26.5107117 29.6723938,27.7919922 30.3457031,25.7187805 28.582489,24.4374695 
			30.7720032,24.4374695 31.4354858,22.3646851 		"/>
		<polygon class="st3" points="22.6190796,19.4999695 23.292511,21.5727844 25.4721985,21.5727844 23.7089844,22.8539734 
			24.3822937,24.9271851 22.6190796,23.6459961 20.8554993,24.9271851 21.5292969,22.8539734 19.7655945,21.5727844 
			21.9551086,21.5727844 22.6190796,19.4999695 		"/>
		<polygon class="st3" points="13.8021851,22.3646851 14.4755859,24.4374695 16.655304,24.4374695 14.8920898,25.7187805 
			15.5653992,27.7919922 13.8021851,26.5107117 12.039093,27.7919922 12.7124023,25.7187805 10.9491882,24.4374695 
			13.1387024,24.4374695 13.8021851,22.3646851 		"/>
		<polygon class="st3" points="8.3530273,29.8646851 9.0268555,31.9374695 11.2064819,31.9374695 9.4428711,33.2187805 
			10.1166992,35.2919922 8.3530273,34.0106812 6.5898132,35.2919922 7.2631836,33.2187805 5.4999695,31.9374695 
			7.6894531,31.9374695 8.3530273,29.8646851 		"/>
		<polygon class="st3" points="8.3530273,39.1356812 9.0268555,41.2079773 11.2064819,41.2079773 9.4428711,42.4892578 
			10.1166992,44.5625 8.3530273,43.2812805 6.5898132,44.5625 7.2631836,42.4892578 5.4999695,41.2079773 7.6894531,41.2079773 
			8.3530273,39.1356812 		"/>
		<polygon class="st3" points="13.8021851,46.6356812 14.4755859,48.7079773 16.655304,48.7079773 14.8920898,49.9892578 
			15.5653992,52.0625 13.8021851,50.7812805 12.039093,52.0625 12.7124023,49.9892578 10.9491882,48.7079773 13.1387024,48.7079773 
			13.8021851,46.6356812 		"/>
	</g>
</g>
</svg>
