<?xml version="1.0" encoding="utf-8"?>
<!-- Generator: Adobe Illustrator 22.1.0, SVG Export Plug-In . SVG Version: 6.00 Build 0)  -->
<svg version="1.1" id="Layer_1" xmlns="http://www.w3.org/2000/svg" xmlns:xlink="http://www.w3.org/1999/xlink" x="0px" y="0px"
	 viewBox="0 0 60 60" style="enable-background:new 0 0 60 60;" xml:space="preserve">
<style type="text/css">
	.st0{clip-path:url(#SVGID_2_);fill:#203B8F;}
	.st1{clip-path:url(#SVGID_2_);fill:#DF0826;}
	.st2{clip-path:url(#SVGID_2_);fill:#FFFFFF;}
	.st3{clip-path:url(#SVGID_2_);fill:#020203;}
</style>
<g id="XMLID_1_">
	<g>
		<defs>
			<path id="SVGID_1_" d="M59,60H0.9999695C0.4477234,60,0,59.5526733,0,59V0.9999695c0-0.5522461,0.4477234-1,0.9999695-1H59
				c0.5526886,0,0.9999847,0.4477539,0.9999847,1V59C59.9999847,59.5526733,59.5526886,60,59,60L59,60z"/>
		</defs>
		<clipPath id="SVGID_2_">
			<use xlink:href="#SVGID_1_"  style="overflow:visible;"/>
		</clipPath>
		<polygon class="st0" points="-16.8179016,0.0365906 76.8183899,0.0365906 76.8183899,59.9638977 -16.8179016,59.9638977 
			-16.8179016,0.0365906 		"/>
		<polygon class="st1" points="-16.8179016,15.0180969 76.8183899,15.0180969 76.8183899,44.9813843 -16.8179016,44.9813843 
			-16.8179016,15.0180969 		"/>
		<polygon class="st2" points="21.5596008,28.1264648 38.6083679,28.1264648 38.6083679,34.6864929 21.5596008,34.6864929 
			21.5596008,28.1264648 		"/>
		<path class="st3" d="M21.6312866,34.6151733h16.9058228v-6.4169922H21.6312866V34.6151733L21.6312866,34.6151733z
			 M38.6083679,34.7587891H21.5596008l-0.0718079-0.0722961v-6.5600281l0.0718079-0.0718079h17.0487671l0.0723267,0.0718079
			v6.5600281L38.6083679,34.7587891L38.6083679,34.7587891z"/>
		<path class="st2" d="M21.5596008,29.4940796h17.0487671v0.6728821H21.5596008V29.4940796L21.5596008,29.4940796z
			 M21.5596008,30.5282898h17.0487671v0.7626953H21.5596008V30.5282898L21.5596008,30.5282898z M37.7294922,31.7489929h0.5371094
			v2.4716797h-0.5371094V31.7489929L37.7294922,31.7489929z"/>
		<path class="st3" d="M21.6312866,30.0951843h16.9058228v-0.5288086H21.6312866V30.0951843L21.6312866,30.0951843z
			 M38.6083679,30.2387695H21.5596008l-0.0718079-0.0718079v-0.6723633l0.0718079-0.0722046h17.0487671l0.0723267,0.0722046
			v0.6723633L38.6083679,30.2387695L38.6083679,30.2387695z M21.6312866,31.2187805h16.9058228v-0.6187134H21.6312866V31.2187805
			L21.6312866,31.2187805z M38.6083679,31.3622742H21.5596008l-0.0718079-0.0712891v-0.7626953l0.0718079-0.0722046h17.0487671
			l0.0723267,0.0722046v0.7626953L38.6083679,31.3622742L38.6083679,31.3622742z M37.8017883,34.148407h0.3925171v-2.3271179
			h-0.3925171V34.148407L37.8017883,34.148407z M38.2666016,34.2919617h-0.5371094l-0.0722961-0.0712891v-2.4716797
			l0.0722961-0.0722046h0.5371094l0.0722656,0.0722046v2.4716797L38.2666016,34.2919617L38.2666016,34.2919617z"/>
		<polygon class="st2" points="21.5596008,28.4618835 38.6083679,28.4618835 38.6083679,29.1142883 21.5596008,29.1142883 
			21.5596008,28.4618835 		"/>
		<path class="st3" d="M21.6304016,29.043457h16.9076843v-0.5107727H21.6304016V29.043457L21.6304016,29.043457z
			 M38.6083679,29.1850891H21.5596008l-0.0708313-0.0708008v-0.6524048l0.0708313-0.0708008h17.0487671l0.0713196,0.0708008
			v0.6524048L38.6083679,29.1850891L38.6083679,29.1850891z"/>
		<path class="st2" d="M36.6532898,31.7489929h0.5370789v2.4716797h-0.5370789V31.7489929L36.6532898,31.7489929z
			 M35.530304,31.7489929h0.5371094v2.4716797H35.530304V31.7489929L35.530304,31.7489929z M34.406311,31.7489929h0.5370789
			v2.4716797H34.406311V31.7489929L34.406311,31.7489929z M24.9945984,31.7489929h0.5375977v2.4716797h-0.5375977V31.7489929
			L24.9945984,31.7489929z M23.8710938,31.7489929h0.5375977v2.4716797h-0.5375977V31.7489929L23.8710938,31.7489929z
			 M22.7475891,31.7489929h0.5370789v2.4716797h-0.5370789V31.7489929L22.7475891,31.7489929z M21.6943054,31.7489929h0.5370789
			v2.4716797h-0.5370789V31.7489929L21.6943054,31.7489929z M33.3876648,31.7489929h0.5371094v2.4716797h-0.5371094V31.7489929
			L33.3876648,31.7489929z M26.0479126,31.7489929h0.5374756v2.4716797h-0.5374756V31.7489929L26.0479126,31.7489929z"/>
		<path class="st3" d="M21.7661133,34.148407h0.3935547v-2.3271179h-0.3935547V34.148407L21.7661133,34.148407z
			 M22.2313843,34.2919617h-0.5370789l-0.0717163-0.0712891v-2.4716797l0.0717163-0.0722046h0.5370789l0.0723267,0.0722046
			v2.4716797L22.2313843,34.2919617L22.2313843,34.2919617z M22.8193054,34.148407h0.3935852v-2.3271179h-0.3935852V34.148407
			L22.8193054,34.148407z M23.284668,34.2919617h-0.5370789l-0.0717773-0.0712891v-2.4716797l0.0717773-0.0722046h0.5370789
			l0.0722351,0.0722046v2.4716797L23.284668,34.2919617L23.284668,34.2919617z M23.9433899,34.148407h0.3929749v-2.3271179
			h-0.3929749V34.148407L23.9433899,34.148407z M24.4086914,34.2919617h-0.5375977l-0.0718079-0.0712891v-2.4716797
			l0.0718079-0.0722046h0.5375977l0.0718079,0.0722046v2.4716797L24.4086914,34.2919617L24.4086914,34.2919617z
			 M25.0668945,34.148407h0.3934937v-2.3271179h-0.3934937V34.148407L25.0668945,34.148407z M25.532196,34.2919617h-0.5375977
			l-0.0716858-0.0712891v-2.4716797l0.0716858-0.0722046h0.5375977l0.0718079,0.0722046v2.4716797L25.532196,34.2919617
			L25.532196,34.2919617z M26.1200867,34.148407h0.3930969v-2.3271179h-0.3930969V34.148407L26.1200867,34.148407z
			 M26.5853882,34.2919617h-0.5374756l-0.0718079-0.0712891v-2.4716797l0.0718079-0.0722046h0.5374756l0.0718079,0.0722046
			v2.4716797L26.5853882,34.2919617L26.5853882,34.2919617z M33.4599915,34.148407h0.3925171v-2.3271179h-0.3925171V34.148407
			L33.4599915,34.148407z M33.9247742,34.2919617h-0.5371094l-0.0722656-0.0712891v-2.4716797l0.0722656-0.0722046h0.5371094
			l0.0722961,0.0722046v2.4716797L33.9247742,34.2919617L33.9247742,34.2919617z M34.4784851,34.148407h0.3936157v-2.3271179
			h-0.3936157V34.148407L34.4784851,34.148407z M34.9433899,34.2919617H34.406311l-0.0723267-0.0712891v-2.4716797
			l0.0723267-0.0722046h0.5370789l0.0722046,0.0722046v2.4716797L34.9433899,34.2919617L34.9433899,34.2919617z
			 M35.601593,34.148407h0.3934937v-2.3271179H35.601593V34.148407L35.601593,34.148407z M36.0674133,34.2919617H35.530304
			l-0.0722961-0.0712891v-2.4716797l0.0722961-0.0722046h0.5371094l0.0721741,0.0722046v2.4716797L36.0674133,34.2919617
			L36.0674133,34.2919617z M36.7255859,34.148407h0.3934937v-2.3271179h-0.3934937V34.148407L36.7255859,34.148407z
			 M37.1903687,34.2919617h-0.5370789l-0.0712891-0.0712891v-2.4716797l0.0712891-0.0722046h0.5370789l0.0723267,0.0722046
			v2.4716797L37.1903687,34.2919617L37.1903687,34.2919617z"/>
		<path class="st2" d="M14.8910828,35.0312805c0.2637024-0.1337891,0.5645142-0.4463196,0.6631165-0.7969055h28.925293
			c0.0986023,0.3505859,0.3993835,0.6631165,0.6630859,0.7969055H14.8910828L14.8910828,35.0312805z"/>
		<path class="st3" d="M15.1312866,34.9599609h29.7700806c-0.1933899-0.1542969-0.3847656-0.3857727-0.4755554-0.6533813H15.6069031
			C15.516571,34.5741882,15.3251953,34.8056641,15.1312866,34.9599609L15.1312866,34.9599609z M45.1425781,35.1034851H14.8910828
			l-0.0326843-0.1356812c0.2406921-0.1231079,0.5332031-0.420929,0.6264954-0.7530212l0.0146179-0.0527039h29.0346985
			l0.0145874,0.0527039c0.092804,0.3320923,0.3858032,0.6299133,0.6259766,0.7530212L45.1425781,35.1034851L45.1425781,35.1034851z"
			/>
		<path class="st2" d="M34.2861023,35.0312805c-0.3037415-0.1163025-0.7451172-0.4375-0.7451172-0.7587891v-3.6407166
			l0.3955078-0.5028992h-7.907196l0.3793945,0.5033875v3.6402283c0,0.3221741-0.3036804,0.6424866-0.6074219,0.7597046
			L34.2861023,35.0312805L34.2861023,35.0312805z M29.339386,18.5395813l-0.0336914-0.3847961h1.3569031l-0.0337219,0.3847961
			H29.339386L29.339386,18.5395813z M29.0160828,18.9384766l-0.0513-0.3853149h2.0380859l-0.0507812,0.3853149H29.0160828
			L29.0160828,18.9384766z M28.8568726,19.4159851l-0.0589905-0.4682007h2.3730164l-0.0596313,0.4682007H28.8568726
			L28.8568726,19.4159851z M27.7753906,26.3104858v-0.8291016c-0.0116882-0.4144897-0.4136047-0.4447937-0.425293-0.7469788
			c0,0-0.0518188-0.4536133,0.0679016-0.6607056c0.1625977,0.6065063,0.4580078,0.4950867,0.4580078,0.2460938
			c0-0.2177124-0.1675415-0.4204102-0.5108337-0.9487c-0.1097717-0.1690063-0.0419922-0.6978149,0.111908-0.8872375
			c0.0595093,0.4599304,0.1279297,0.6802368,0.3251038,0.6802368c0.1207275,0,0.2192993-0.0787048,0.2192993-0.3091125
			c0-0.2929993-0.1987-0.4408875-0.2963867-0.707489c-0.1138-0.311615-0.0351868-0.6289062,0.1538086-0.8062134
			c0.0810852,0.4541016,0.0565796,0.6348267,0.2587585,0.6348267c0.4062195-0.128418,0-0.7168274-0.0868835-0.8657227
			c-0.1000671-0.1728821,0.1343079-0.5180969,0.1343079-0.5180969c0.1293945,0.4028015,0.1708984,0.4360046,0.3099976,0.3983765
			c0.1757812-0.0472717,0.1532898-0.308075-0.0614929-0.5189819c-0.1353149-0.1333008-0.1210938-0.3310852,0.0243835-0.4902954
			c0.1465149,0.2852173,0.3330078,0.2680969,0.3511353,0.0986938l-0.117218-0.6582031h2.5853882l-0.1288757,0.6367188
			c-0.0361328,0.1820679,0.2089844,0.2216797,0.3622742-0.0772095c0.1455994,0.1592102,0.1601868,0.3574829,0.0245361,0.4907837
			c-0.2149353,0.2104187-0.2373047,0.4716187-0.061615,0.5184937c0.139679,0.0376282,0.1806946,0.0049133,0.3095703-0.3983765
			c0,0,0.210907,0.2352905,0.1348267,0.5184937c-0.0868835,0.1484985-0.4932251,0.736908-0.0868835,0.8653259
			c0.2020874,0,0.1776733-0.1807251,0.258667-0.6348267c0.1895142,0.1777039,0.2676086,0.4945984,0.1534119,0.8062134
			c-0.0967102,0.2666016-0.2958984,0.4144897-0.2958984,0.7079773c0,0.2304382,0.0985718,0.3086243,0.218689,0.3086243
			c0.1983032,0,0.2655945-0.2203064,0.3262024-0.6802368c0.1533203,0.1894226,0.2207031,0.7187195,0.1112976,0.8872375
			c-0.342804,0.5282898-0.5107117,0.7309875-0.5107117,0.9487c0,0.2489929,0.2949219,0.3604126,0.4580078-0.2460938
			c0.1190796,0.2070923,0.0674133,0.6607056,0.0674133,0.6607056c-0.0118103,0.3021851-0.4131165,0.332489-0.4248047,0.7469788
			v0.8291016H27.7753906L27.7753906,26.3104858z M29.6464844,18.1395874c0,0-0.0214844-0.6162109,0.3374023-0.6224976
			c0.3589172,0.0062866,0.3369141,0.6224976,0.3369141,0.6224976H29.6464844L29.6464844,18.1395874z"/>
		<path class="st3" d="M29.7191772,18.0679016h0.5288086c-0.0053101-0.1216125-0.0340881-0.3199158-0.1274109-0.4185181
			c-0.0375977-0.0394897-0.0830078-0.0596008-0.1381836-0.0604858c-0.0521851,0.000885-0.0975952,0.0209961-0.1352234,0.0604858
			C29.7539062,17.7475891,29.7250977,17.9462891,29.7191772,18.0679016L29.7191772,18.0679016z M29.405304,18.467804h1.1576843
			l0.0209961-0.2412109h-1.199707L29.405304,18.467804L29.405304,18.467804z M29.0791016,18.8661804h1.8100891l0.0316772-0.2412109
			h-1.8739624L29.0791016,18.8661804L29.0791016,18.8661804z M28.9204102,19.3441772h2.1274719l0.0410156-0.3241882h-2.2095032
			L28.9204102,19.3441772L28.9204102,19.3441772z M27.8471985,26.2388h4.2738953v-0.7574158
			c0.007782-0.2562866,0.1474915-0.3871765,0.2607117-0.4916992c0.0898743-0.0834045,0.1601868-0.1488953,0.164093-0.2583008
			c0.0097656-0.0834961,0.0205078-0.2655945,0-0.4223022c-0.1221313,0.2720032-0.2666016,0.2894897-0.3320007,0.2807007
			c-0.1133118-0.0146179-0.1934204-0.1259155-0.1934204-0.269989c0-0.1987,0.117218-0.3745117,0.3496094-0.7246094
			c0.0518188-0.0776062,0.1094055-0.1644897,0.1729126-0.2631836c0.063385-0.0966187,0.0536804-0.3901062-0.0137329-0.6089172
			c-0.0536804,0.3027954-0.1376953,0.5131836-0.3632812,0.5131836c-0.0868835,0-0.2909851-0.0370789-0.2909851-0.3807983
			c0-0.203186,0.0868835-0.3442993,0.1698914-0.4804993c0.0478821-0.0775757,0.0967102-0.1582031,0.1308899-0.2519836
			c0.0780945-0.2133179,0.0596313-0.4422913-0.0409851-0.6117859c-0.0048828,0.0297852-0.0088196,0.0575867-0.0127258,0.0839844
			c-0.0429688,0.2822266-0.0683594,0.4530945-0.2909546,0.4530945l-0.0215149-0.0033875
			c-0.1044922-0.0332031-0.1739197-0.0947266-0.2070923-0.1831055c-0.0869446-0.2323914,0.1240845-0.5765991,0.2255859-0.742218
			l0.0224915-0.0370789c0.031189-0.1264038-0.0048828-0.2436218-0.0458984-0.3256836
			c-0.0937805,0.2660828-0.164093,0.3535767-0.3496094,0.3036804c-0.0830078-0.0224304-0.139679-0.0794983-0.1611938-0.1621094
			c-0.0370789-0.1401062,0.0381165-0.3276062,0.1905212-0.4775085c0.0848694-0.0839844,0.094696-0.1996765,0.0311584-0.3109741
			c-0.1073914,0.1454773-0.2391663,0.1839905-0.329071,0.1522827c-0.0848999-0.0297852-0.1289062-0.1171875-0.1083984-0.217804
			l0.1114197-0.5506897H28.777771l0.1040039,0.5838928l-0.000885,0.0097961
			c-0.0108032,0.0986023-0.0673828,0.1689148-0.1490173,0.1841125c-0.0956726,0.0176086-0.195282-0.0415039-0.2797852-0.160675
			c-0.0625,0.1113586-0.0527039,0.2265625,0.0323181,0.3100586c0.152771,0.1499023,0.227478,0.3374023,0.1908875,0.4770203
			c-0.0214844,0.0825806-0.0791016,0.1401672-0.1615906,0.1621704c-0.1817017,0.0493164-0.2539062-0.034668-0.3457031-0.2919922
			c-0.0523376,0.1089172-0.093811,0.2392273-0.0552063,0.3066101l0.027771,0.0454102
			c0.1016235,0.1651001,0.3125305,0.5093079,0.2256165,0.7412109c-0.0326843,0.0888672-0.1025085,0.1503906-0.2070007,0.1831055
			l-0.0215149,0.003479c-0.2226868,0-0.2484741-0.1704712-0.2909546-0.4526978
			c-0.0039062-0.0263977-0.007843-0.0541992-0.0127258-0.0839844c-0.1006165,0.1694946-0.1192017,0.3979797-0.0414734,0.6113892
			c0.0345764,0.093689,0.0834961,0.1743164,0.1312561,0.2518921c0.0830078,0.1366882,0.1695251,0.2778015,0.1695251,0.4804993
			c0,0.3437195-0.2037048,0.3807983-0.2911072,0.3807983c-0.2246094,0-0.3094788-0.2098999-0.3626709-0.5131226
			c-0.066925,0.2187195-0.0767212,0.5127258-0.0137329,0.6093445c0.0635071,0.0976868,0.1206055,0.1845703,0.1723022,0.262207
			c0.2330017,0.3505859,0.3497314,0.5263672,0.3497314,0.7255859c0,0.1440735-0.0791016,0.2553711-0.1929321,0.269989
			c-0.0653992,0.0087891-0.2105103-0.0086975-0.3315735-0.2807007c-0.0210266,0.156189-0.0107422,0.3368835-0.0014038,0.4169922
			c0.0043945,0.1147156,0.0751953,0.1802063,0.1644897,0.2636108c0.1132812,0.1045227,0.2533875,0.2354126,0.2608032,0.4897766
			V26.2388L27.8471985,26.2388z M32.2645874,26.382782h-4.5610046v-0.9013977
			c-0.0057983-0.191803-0.1073914-0.2866211-0.2148132-0.3862c-0.1000671-0.0932007-0.2035828-0.1893921-0.2104797-0.3579102
			c-0.0014038-0.0141907-0.0521851-0.4745789,0.0776978-0.6992188l0.0864258-0.1503601l0.0448608,0.1674805
			c0.0869141,0.324707,0.2022095,0.3965149,0.2489929,0.3921204c0.0386353-0.0049133,0.0674133-0.0601196,0.0674133-0.1275024
			c0-0.1557312-0.1088867-0.3198242-0.3256836-0.6464844c-0.0512085-0.0776367-0.109314-0.1645203-0.1727905-0.2627258
			c-0.1260071-0.1937866-0.0586243-0.7572937,0.1161804-0.9721069l0.1054993-0.1298828l0.0213928,0.1659851
			c0.0601196,0.4619141,0.124115,0.6177063,0.2539062,0.6177063c0.0366821,0,0.1470032,0,0.1470032-0.2373047
			c0-0.1625977-0.0687866-0.2749023-0.148407-0.405304C27.75,22.3656921,27.6967773,22.2792969,27.6576843,22.171875
			c-0.1177063-0.3212891-0.0482788-0.6763,0.1719055-0.882782L27.9263,21.1981812l0.0233765,0.1304016
			c0.0166016,0.092804,0.0288086,0.1743164,0.0396118,0.2456055c0.0423889,0.2832031,0.0581055,0.3266907,0.137207,0.3295898
			c0.0546875-0.0195007,0.0892944-0.0498047,0.1048889-0.0922852c0.0625-0.1669922-0.1307983-0.4819336-0.2132874-0.6162109
			L27.9888,21.1470032c-0.1192322-0.206604,0.1102905-0.5562134,0.1366882-0.5952454l0.0830078-0.1220703l0.0448914,0.1405945
			c0.121582,0.378418,0.1455078,0.3716125,0.2232056,0.3511047c0.032196-0.0087891,0.0512085-0.0278015,0.0594788-0.0600891
			c0.019104-0.0717163-0.0205078-0.2084961-0.152771-0.3379211c-0.160614-0.1582031-0.1513977-0.4008179,0.0220032-0.5903015
			l0.0697937-0.0766907L28.5220032,19.9487c0.0741882,0.1440735,0.1499023,0.1875,0.1835938,0.1817017
			c0.0170898-0.003418,0.0267944-0.0259094,0.0307007-0.0489197l-0.1303101-0.7314148h0.1703796l-0.0605774-0.4740906h0.2192993
			l-0.0523071-0.3945923h0.3793945l-0.0350952-0.3988953h0.3475952c0.0039062-0.1185913,0.0283203-0.3842773,0.1680298-0.5317078
			c0.0643921-0.0683899,0.1454773-0.1040039,0.2396851-0.1059875c0.0971985,0.0019836,0.1781921,0.0375977,0.2426758,0.1059875
			c0.1396179,0.1474304,0.1641235,0.4131165,0.1675415,0.5317078h0.3486023l-0.0350952,0.3988953h0.3788757l-0.0518188,0.3945923
			h0.218811l-0.0596008,0.4740906h0.1719055l-0.1454773,0.7227173c-0.0030212,0.0169983-0.0059204,0.0462952,0.015564,0.0536804
			c0.0420227,0.0146179,0.1376953-0.0322876,0.2119141-0.1777649l0.047821-0.0923157l0.0693665,0.0766907
			c0.1738281,0.1894836,0.1826172,0.4320984,0.0223999,0.5903015c-0.132782,0.129425-0.1717834,0.2662048-0.1532898,0.3384094
			c0.0088196,0.032196,0.0274048,0.0508118,0.0596008,0.0596008c0.078125,0.0209961,0.1016235,0.0273132,0.2225952-0.3511047
			l0.039093-0.1195984l0.0840149,0.0937195c0.0087891,0.0108032,0.234375,0.2680664,0.1493835,0.5849915l-0.0067749,0.0176086
			l-0.0292969,0.0477905c-0.0762024,0.1230774-0.2764282,0.4501953-0.2138977,0.6166992
			c0.015564,0.0429993,0.0498047,0.0732727,0.1044922,0.092804c0.0791016-0.003418,0.0956726-0.0469055,0.1376953-0.3306274
			c0.0106812-0.0707703,0.023407-0.1522827,0.0391235-0.2450867l0.0233765-0.1304016l0.0967102,0.0909119
			c0.2206726,0.2064819,0.2900085,0.5614929,0.1717834,0.8833008c-0.0390015,0.1069031-0.0917053,0.1937866-0.1424866,0.277771
			c-0.0801086,0.1304016-0.1485291,0.2427063-0.1485291,0.405304c0,0.2368164,0.1104431,0.2368164,0.1465149,0.2368164
			c0.1309204,0,0.194397-0.1557922,0.2548828-0.617218l0.0215149-0.1664734l0.1054993,0.1304016
			c0.1738281,0.2147827,0.2420959,0.7778015,0.1162109,0.9715881c-0.0645142,0.0986938-0.1221008,0.1860962-0.1748047,0.2641907
			c-0.2158813,0.3262024-0.3242798,0.4898071-0.3242798,0.6450195c0,0.0673828,0.0283813,0.1225891,0.0673828,0.1275024
			c0.0488892,0.0062866,0.1620789-0.0679321,0.2489929-0.3921204l0.0449829-0.1674805l0.0869446,0.1503601
			c0.1298523,0.2246399,0.078064,0.6850281,0.0762024,0.7046204c-0.0059204,0.1631165-0.109436,0.2593079-0.210022,0.3525085
			c-0.1073914,0.0995789-0.2089844,0.194397-0.2149048,0.3881836V26.382782L32.2645874,26.382782z M26.1737976,30.2006836
			l0.3067017,0.4077148v3.664093c0,0.265564-0.1806946,0.5213928-0.4042969,0.6874695h7.9111023
			c-0.265625-0.1660767-0.5184937-0.4219055-0.5184937-0.6874695v-3.6656189l0.3192749-0.406189H26.1737976L26.1737976,30.2006836z
			 M25.8012695,35.1034851l-0.0258789-0.1387024c0.269989-0.1044006,0.5610046-0.398407,0.5610046-0.6922913v-3.6162109
			l-0.4510803-0.5991821h8.1986694l-0.4707031,0.5995789v3.6158142c0,0.2753906,0.4062195,0.579071,0.6992188,0.6922913
			l-0.0263977,0.1387024H25.8012695L25.8012695,35.1034851z"/>
		<path class="st2" d="M31.9775085,31.7489929h0.5370789v2.4716797h-0.5370789V31.7489929L31.9775085,31.7489929z
			 M27.4354858,31.7489929h0.5372009v2.4716797h-0.5372009V31.7489929L27.4354858,31.7489929z"/>
		<path class="st3" d="M27.5072937,34.148407h0.3936157v-2.3271179h-0.3936157V34.148407L27.5072937,34.148407z
			 M27.9726868,34.2919617h-0.5372009l-0.0721741-0.0712891v-2.4716797l0.0721741-0.0722046h0.5372009l0.0717163,0.0722046
			v2.4716797L27.9726868,34.2919617L27.9726868,34.2919617z M32.0497742,34.148407h0.3936157v-2.3271179h-0.3936157V34.148407
			L32.0497742,34.148407z M32.5145874,34.2919617h-0.5370789l-0.071228-0.0712891v-2.4716797l0.071228-0.0722046h0.5370789
			l0.0722961,0.0722046v2.4716797L32.5145874,34.2919617L32.5145874,34.2919617z"/>
		<path class="st2" d="M25.8876648,25.9857788v4.1430969h8.0937195v-0.8926086l0.0118103-3.250885
			c-0.3310852,0.1303101-0.3887024,0.4301147-0.3887024,0.4301147v1.764679H26.300293v-1.764679
			C26.300293,26.4154968,26.2192078,26.1156921,25.8876648,25.9857788L25.8876648,25.9857788L25.8876648,25.9857788z"/>
		<path class="st3" d="M25.9599915,30.0570984h7.9491882v-0.8208313l0.0116882-3.1346741
			c-0.2050781,0.1264038-0.2460938,0.3251953-0.2460938,0.3276062l0.0010071,1.8227844h-7.4472961V26.4263
			c-0.0131836-0.0401001-0.0791016-0.2124023-0.2684937-0.3257446V30.0570984L25.9599915,30.0570984z M34.0536804,30.2006836
			h-8.237793v-4.3203125l0.0982056,0.0381165c0.3608093,0.1419983,0.4520874,0.4647827,0.4559937,0.4785156l0.0025024,0.0184937
			v1.6923828h7.1596069v-1.6923828c0.0039062-0.0273132,0.0712891-0.3540039,0.4346008-0.4970093l0.0986023-0.0386047
			L34.0536804,30.2006836L34.0536804,30.2006836z"/>
		<path class="st2" d="M32.8828125,35.0312805c-0.2646179-0.1163025-0.8408203-0.4375-0.8408203-0.7587891v-4.073822
			c0.0565796-0.227478,0.3652039-0.3617859,0.5634766-0.5033875H27.2388
			c0.2552795,0.1353149,0.539978,0.2475891,0.6416016,0.5033875v4.073822c0,0.3221741-0.4551086,0.6424866-0.7198181,0.7597046
			L32.8828125,35.0312805L32.8828125,35.0312805z"/>
		<path class="st3" d="M27.5326843,29.7675781c0.1773071,0.0976257,0.3389282,0.2138062,0.4145813,0.4047852l0.0053101,0.0263062
			v4.073822c0,0.2645874-0.2591858,0.5204773-0.5136108,0.6874695h5.1460266
			c-0.2626953-0.1503601-0.6153259-0.4062805-0.6153259-0.6874695l0.0020447-4.0913086
			c0.0458679-0.183197,0.2206726-0.3071899,0.3895874-0.4136047H27.5326843L27.5326843,29.7675781z M27.1605835,35.1034851
			l-0.0292969-0.1376953c0.2730103-0.1201172,0.6773071-0.4237976,0.6773071-0.6932983v-4.0596008
			c-0.0815125-0.1875-0.2832031-0.2900085-0.496582-0.398407c-0.0356445-0.0186157-0.0718079-0.0366821-0.1069031-0.0556946
			l0.0331726-0.1352844h5.5918274l-0.1836243,0.1303711c-0.0469055,0.0336914-0.0996094,0.0668945-0.155304,0.1016235
			c-0.164978,0.1029663-0.3369141,0.2098694-0.3768921,0.352478v4.0645142c0,0.25,0.4765015,0.5516968,0.797821,0.6932983
			l-0.0292969,0.1376953H27.1605835L27.1605835,35.1034851z"/>
		<path class="st2" d="M31.7235718,35.0312805c-0.2596741-0.1163025-0.6366577-0.4375-0.6366577-0.7587891v-3.4786072
			l0.2128601-0.3158875h-2.6503601l0.2123718,0.3158875v3.4786072c0,0.3221741-0.3773804,0.6424866-0.6366882,0.7597046
			L31.7235718,35.0312805L31.7235718,35.0312805z M33.6034851,29.7387695v-2.9345703h-0.7352905v-0.2861328h-5.819397v0.2861328
			h-0.735321v2.9345703H33.6034851L33.6034851,29.7387695z"/>
		<path class="st3" d="M26.3852844,29.6664734h7.1459961v-2.7904968h-0.7354126v-0.2861938h-5.675293v0.2861938h-0.7352905
			V29.6664734L26.3852844,29.6664734z M33.6757812,29.8104858h-7.4345703v-3.0780945h0.7358704v-0.2861328h5.9624023v0.2861328
			h0.7362976V29.8104858L33.6757812,29.8104858z M28.7842102,30.5497742l0.1493835,0.2227173v3.5
			c0,0.265564-0.2182922,0.5213928-0.4468079,0.6874695h2.9740906c-0.227478-0.1660767-0.4462891-0.4228821-0.4462891-0.6874695
			v-3.5l0.1495056-0.2227173H28.7842102L28.7842102,30.5497742z M28.2250977,35.1034851l-0.0292969-0.1376953
			c0.2489929-0.1123047,0.5942078-0.4160156,0.5942078-0.6932983v-3.456604l-0.2758179-0.4096069h2.9204102l-0.2764282,0.4096069
			v3.456604c0,0.2772827,0.3457031,0.5809937,0.594696,0.6932983l-0.0292969,0.1376953H28.2250977L28.2250977,35.1034851z"/>
		<polygon class="st2" points="29.3036804,30.4784851 30.6469727,30.4784851 30.6469727,35.0292969 29.3036804,35.0292969 
			29.3036804,30.4784851 		"/>
		<path class="st3" d="M29.3769836,34.9560852h1.1961975v-4.4039001h-1.1961975V34.9560852L29.3769836,34.9560852z
			 M30.7201843,35.1034851h-1.4902039v-4.6982117h1.4902039V35.1034851L30.7201843,35.1034851z"/>
		<path class="st2" d="M31.351593,29.4779663c0.0028992-0.2997742,0.875-0.313385,1.3232117-0.5687866h-5.3862
			c0.4486694,0.2554016,1.2997742,0.2763062,1.2997742,0.5687866l0.1820984,0.581604l2.2294922,0.0892944L31.351593,29.4779663
			L31.351593,29.4779663z"/>
		<path class="st3" d="M28.8241882,29.9896851l2.1333008,0.0855103l0.3228149-0.6166992
			c0.0194702-0.218811,0.3368835-0.2987976,0.704071-0.3911133c0.1074219-0.0274048,0.2167969-0.054718,0.3203125-0.0859985
			H27.652771c0.1031189,0.0317993,0.2115173,0.0600891,0.3179016,0.0878906
			c0.3633118,0.0948181,0.6781921,0.1768188,0.6890259,0.3965149L28.8241882,29.9896851L28.8241882,29.9896851z
			 M30.9975891,30.2206726l-2.230011-0.089386l-0.0654907-0.0502014l-0.1859741-0.6031189
			c0-0.1175842-0.3086243-0.1981812-0.5815125-0.2695007c-0.2412109-0.0629883-0.4908142-0.1278687-0.6817322-0.2367859
			l0.0357361-0.1342773h5.3862l0.0351868,0.1342773c-0.1914062,0.1094055-0.4454041,0.1733093-0.6905212,0.2352905
			c-0.2792664,0.0703125-0.594696,0.1499329-0.5956726,0.2715149L31.4150085,29.5112l-0.3515015,0.6713867L30.9975891,30.2206726
			L30.9975891,30.2206726z"/>
		<path class="st2" d="M32.6610718,26.0097656c0-0.8417664,0.726593-0.9365845,0.726593-0.9365845v0.7490845
			c-0.2763672-0.0117798-0.4101868,0.2363281-0.4101868,0.605896c0,0.3697205,0.2226868,0.3755188,0.2226868,0.3755188v2.1260071
			h-0.539093V26.0097656L32.6610718,26.0097656z M32.405304,26.3104858c0-0.7337952,0.0301819-1.0166016,0.2557678-1.0166016
			v2.3345032c-0.5526733,0.2006836-0.9471741,0.9062805-0.9471741,0.9062805h-3.4776001
			c0,0-0.3950195-0.7055969-0.9476929-0.9062805v-2.3345032c0.277771,0,0.2797852,0.2954712,0.2797852,1.0166016H32.405304
			L32.405304,26.3104858z"/>
		<path class="st3" d="M28.2772827,28.4628906h3.3946228c0.0887756-0.1474915,0.4375-0.6836243,0.9169922-0.8837891v-2.1885071
			c-0.0860291,0.0727844-0.1123047,0.3203125-0.1123047,0.9198914v0.0722961h-4.9804993v-0.0722961
			c0-0.618103-0.0068054-0.8724976-0.1356812-0.930603v2.1992188
			C27.8397827,27.7787781,28.1884766,28.3153992,28.2772827,28.4628906L28.2772827,28.4628906z M32.7333984,28.8578796h0.3955078
			v-1.9989929c-0.0869141-0.0332031-0.2236023-0.1328125-0.2236023-0.4307251c0-0.2587585,0.0634766-0.4554749,0.1815796-0.5687561
			c0.0635071-0.0611267,0.1405945-0.0967102,0.2285156-0.1065369v-0.5898132
			c-0.1777039,0.0513-0.5820007,0.2358398-0.5820007,0.8467102V28.8578796L32.7333984,28.8578796z M33.2724915,29.0014954
			h-0.6835938v-1.2647095c-0.4707031,0.2304993-0.8096313,0.8266907-0.8125305,0.8329773l-0.0204773,0.0366211h-3.5621033
			l-0.0204773-0.0366211c-0.0039368-0.0068054-0.3886414-0.6849976-0.9096069-0.8739929l-0.0474243-0.0170898v-2.4564819h0.0723267
			c0.3397827,0,0.3509827,0.3192749,0.3515015,1.0166016h4.6928711c0.0010071-0.6504211,0.0263977-1.0166016,0.3280945-1.0166016
			h0.0723267v0.2147827c0.2255859-0.375,0.6395874-0.4346008,0.6454773-0.4349976l0.0811157-0.0108032v0.906311
			l-0.0752258-0.0035095c-0.0839844-0.0028992-0.1464844,0.0190735-0.1982727,0.0688782
			c-0.0878906,0.0845337-0.1366882,0.2500305-0.1366882,0.4653015c0,0.289093,0.1474609,0.3032227,0.1542969,0.3037415
			l0.0663757,0.0048828l0.0020142,0.0668945V29.0014954L33.2724915,29.0014954z"/>
		<path class="st2" d="M27.2915039,26.0097656c0-0.8417664-0.726593-0.9365845-0.726593-0.9365845v0.7490845
			c0.2763672-0.0117798,0.4101868,0.2363281,0.4101868,0.605896c0,0.3697205-0.223114,0.3755188-0.223114,0.3755188v2.1260071
			h0.5395203V26.0097656L27.2915039,26.0097656z"/>
		<path class="st3" d="M26.8236694,28.8578796h0.3960266v-2.848114c0-0.6138-0.4052124-0.7969055-0.5830078-0.8471985v0.5903015
			c0.0888977,0.0098267,0.1654968,0.0454102,0.2290039,0.1065369c0.1181946,0.1132812,0.1812134,0.3099976,0.1812134,0.5687561
			c0,0.2979126-0.136322,0.397522-0.2232361,0.4307251V28.8578796L26.8236694,28.8578796z M27.3633118,29.0014954h-0.683136
			v-2.2681274L26.75,26.7319031c0.0048828-0.0005188,0.152771-0.0146484,0.152771-0.3037415
			c0-0.215271-0.0482788-0.3807678-0.1366882-0.4653015c-0.0522156-0.0498047-0.1161804-0.0712585-0.1981812-0.0688782
			l-0.074707,0.0035095v-0.906311l0.0809937,0.0108032c0.007782,0.000885,0.7891235,0.1131897,0.7891235,1.007782V29.0014954
			L27.3633118,29.0014954z"/>
		<path class="st3" d="M31.289978,20.269989h-2.5664062v-0.1196289h2.5664062V20.269989L31.289978,20.269989z
			 M31.5536804,21.0717773h-3.1337891v-0.1201172h3.1337891V21.0717773L31.5536804,21.0717773z M31.8466797,22.0438843h-3.7310181
			v-0.1195984h3.7310181V22.0438843L31.8466797,22.0438843z M32.2226868,23.2318726h-4.4248047v-0.1195984h4.4248047V23.2318726
			L32.2226868,23.2318726z M32.2538757,24.5863953h-4.5575867v-0.1201172h4.5575867V24.5863953L32.2538757,24.5863953z"/>
		<path class="st3" d="M28.6981812,29.8671875h2.5586243v-0.8491211h-2.5586243V29.8671875L28.6981812,29.8671875z
			 M31.4003906,30.0111694h-2.8457031V29.016571h-2.2412109v-0.1439819h7.2900085v0.1439819h-2.2030945V30.0111694
			L31.4003906,30.0111694z"/>
		<path class="st2" d="M29.7484741,20.5829773l-0.355896-0.183075v-0.5239258
			c0.1455078,0.0434265,0.3091125,0.0614929,0.324707,0.2934265c0.0507812-0.3310242,0.1421204-0.3149414,0.285614-0.4438477
			c0.1435852,0.128418,0.2348938,0.1128235,0.2857056,0.4438477c0.0160828-0.2319336,0.1791992-0.25,0.3251953-0.2939148v0.5244141
			l-0.3565369,0.183075H29.7484741L29.7484741,20.5829773z M28.2880859,26.7450867
			c0.4477234,0.5380859,0.406189,1.4501953,0.4013977,1.9883118h2.5975952
			c-0.0048828-0.5381165-0.0458984-1.4502258,0.4013977-1.9883118H28.2880859L28.2880859,26.7450867z"/>
		<path class="st3" d="M29.4647827,20.3559875l0.3013,0.1552124h0.4736023l0.3017883-0.1552124v-0.3847961
			c-0.1122742,0.0341797-0.171875,0.070282-0.1810608,0.2030945l-0.1431274,0.0059204
			c-0.0346985-0.2285156-0.082489-0.2637329-0.1694031-0.3277283c-0.0141907-0.0101929-0.0292969-0.0213928-0.0444946-0.0336914
			c-0.0161133,0.0122986-0.0307007,0.0234985-0.0454102,0.0336914c-0.0863953,0.0639954-0.1343079,0.0992126-0.1694031,0.3277283
			l-0.1425781-0.0059204c-0.0093079-0.1328125-0.0693054-0.1694031-0.1812134-0.2030945V20.3559875L29.4647827,20.3559875z
			 M29.7309875,20.6552734l-0.4101868-0.2114868v-0.6645203l0.1381836,0.0405273
			c0.078125,0.0220032,0.1737976,0.0484009,0.242218,0.1200867c0.0415039-0.102478,0.0975647-0.1488953,0.1717834-0.2030945
			c0.0249023-0.0185242,0.0523071-0.0381165,0.0820923-0.0648804l0.0483093-0.0430298L30.0513,19.6719055
			c0.0297852,0.0267639,0.0570984,0.046875,0.0820007,0.0648804c0.0737,0.0541992,0.1298828,0.1011047,0.1719055,0.2030945
			c0.0677795-0.0716858,0.1630859-0.0980835,0.2411804-0.1200867l0.1390991-0.0410156v0.6650085l-0.410614,0.2109985
			L29.7309875,20.6552734L29.7309875,20.6552734z M28.762207,28.6615906h2.4525757l-0.0009155-0.0288086
			c-0.0068665-0.5205078-0.016571-1.2875977,0.3320312-1.8153992h-3.1152039
			c0.3480835,0.5273132,0.3382874,1.2938843,0.3315125,1.8139038V28.6615906L28.762207,28.6615906z M31.3603821,28.8052063
			h-2.7437134l0.0020447-0.1758118c0.0067749-0.539093,0.0174866-1.3535156-0.386322-1.8384094l-0.098114-0.1176758h3.7075195
			l-0.0977173,0.1176758c-0.4042969,0.4853821-0.3934937,1.300293-0.3856812,1.8399048L31.3603821,28.8052063L31.3603821,28.8052063
			z"/>
		<path class="st2" d="M29.7246094,21.4433899l-0.5913086-0.4067993v-0.4829102
			c0.207489,0.0478821,0.4398804,0.0674133,0.4628906,0.3222961c0.0722961-0.3632812,0.2020874-0.5507812,0.4067078-0.6923828
			c0.2045898,0.1416016,0.3345032,0.3291016,0.4067688,0.6923828c0.0224304-0.2548828,0.2553406-0.2744141,0.4629211-0.3222961
			v0.4829102l-0.5912781,0.4067993H29.7246094L29.7246094,21.4433899z"/>
		<path class="st3" d="M29.7471008,21.3710938h0.5116882l0.5419922-0.3721008v-0.355896
			c-0.1889954,0.0409851-0.3052063,0.0785828-0.319397,0.2391663l-0.1424866,0.007843
			c-0.0585938-0.2963257-0.1577148-0.4790039-0.3359985-0.617218c-0.1787109,0.1382141-0.2773132,0.3208923-0.3364258,0.617218
			l-0.1420898-0.007843c-0.0140991-0.1605835-0.1304016-0.1981812-0.3188171-0.2391663v0.355896L29.7471008,21.3710938
			L29.7471008,21.3710938z M30.3031921,21.5150757h-0.6011047l-0.6405945-0.4403992v-0.6112976l0.1542969,0.0350952
			c0.1254883,0.0263977,0.2709961,0.0577087,0.3623047,0.1557922c0.0766907-0.2387695,0.195282-0.3993835,0.3838196-0.5297852
			l0.0409851-0.0283203l0.0409851,0.0283203c0.1879883,0.1304016,0.3067017,0.2910156,0.3833008,0.5297852
			c0.0917969-0.0980835,0.2373962-0.1293945,0.362793-0.1557922l0.1542969-0.0350952v0.6112976L30.3031921,21.5150757
			L30.3031921,21.5150757z"/>
		<path class="st2" d="M28.6562805,25.0043945c0.3075867,0.1679993,0.4208069,0.5028992,0.4541016,1.1313171h1.7304077
			c0.0327148-0.628418,0.1465149-0.9633179,0.4541016-1.1313171H28.6562805L28.6562805,25.0043945z M30.9364929,23.5766602
			l-0.6147156,0.8501282h-0.6962891l-0.6148071-0.8501282H30.9364929L30.9364929,23.5766602z M29.6825867,22.7841797
			l-0.6796875-0.5971985v-0.7094727c0.2383118,0.0703735,0.5058899,0.0991821,0.5322876,0.4726562
			c0.0825195-0.5331726,0.2323914-0.809082,0.4671936-1.016571c0.2354126,0.207489,0.3847961,0.4833984,0.467804,1.016571
			c0.0264282-0.3734741,0.2935181-0.4022827,0.5318298-0.4730835v0.7094116l-0.6792297,0.5971985L29.6825867,22.7841797
			L29.6825867,22.7841797z"/>
		<path class="st3" d="M29.0746765,22.1542664l0.6347961,0.5581055l0.585907-0.0009766l0.6348267-0.5576172v-0.5820007
			c-0.2071228,0.0570984-0.3687134,0.1069031-0.3882141,0.3833008l-0.1430969,0.0063171
			c-0.0688171-0.4463196-0.1855164-0.7217102-0.3965149-0.929718c-0.2103882,0.2080078-0.3270874,0.4833984-0.3963928,0.929718
			l-0.1426086-0.0057983c-0.0195923-0.2769165-0.1817017-0.3267212-0.3887024-0.3833313V22.1542664L29.0746765,22.1542664z
			 M29.6557922,22.855957l-0.7250977-0.6362915v-0.8383789l0.0926819,0.0273743
			c0.0249023,0.0073242,0.0508118,0.0142212,0.0762024,0.0215149c0.1455078,0.0394897,0.315918,0.085907,0.4179993,0.2333984
			c0.085907-0.3549805,0.2202148-0.5922852,0.4370117-0.7836914l0.0477905-0.042511l0.0474243,0.0420227
			c0.2172852,0.1918945,0.3520813,0.4286804,0.4379883,0.7836914c0.101593-0.1470032,0.2719727-0.1934204,0.417511-0.2333984
			c0.0253906-0.0068054,0.051178-0.0142212,0.0760803-0.0215149l0.092804-0.0273132v0.8383179l-0.7246094,0.6362915
			L29.6557922,22.855957L29.6557922,22.855957z M29.6625671,24.3549805h0.6226196l0.5107117-0.7065735h-1.6445312
			L29.6625671,24.3549805L29.6625671,24.3549805z M30.3583679,24.4989624h-0.7694702l-0.718811-0.9940796h2.2070007
			L30.3583679,24.4989624L30.3583679,24.4989624z M29.1781921,26.0639648h1.594696
			c0.0274048-0.4311829,0.0986938-0.7709961,0.309082-0.987793h-2.2128601
			C29.0795898,25.2929688,29.1508789,25.632782,29.1781921,26.0639648L29.1781921,26.0639648z M30.9091797,26.2079773h-1.8666992
			l-0.0039062-0.0683899c-0.0331726-0.633728-0.1459656-0.9243164-0.4164734-1.0722046l0.0341797-0.1347961h2.6386108
			l0.0341797,0.1347961c-0.2704773,0.1478882-0.3833008,0.4384766-0.4164734,1.0722046L30.9091797,26.2079773L30.9091797,26.2079773
			z"/>
		<path class="st2" d="M31.320282,23.5766602V22.722168c-0.2919922,0.0805054-0.4814148,0.253418-0.5658875,0.4882202
			c0-0.2835999-0.3731079-0.9375-0.780304-1.2631226c-0.4076843,0.3647156-0.7876282,0.9560242-0.7797852,1.2631226
			c-0.0693359-0.2236023-0.273407-0.4077148-0.5653992-0.4882202v0.8544922H31.320282L31.320282,23.5766602z"/>
		<path class="st3" d="M28.7007141,23.5048828h2.5472717v-0.6835938c-0.2108765,0.0800781-0.3569031,0.2216797-0.4256897,0.4136047
			l-0.1397095-0.0245056c0-0.2533875-0.3363953-0.8457031-0.7059937-1.1674194
			c-0.3837891,0.3608093-0.7168274,0.9033203-0.7104797,1.1654968l-0.1401367,0.023407
			c-0.0561829-0.1796875-0.2118835-0.3280945-0.4252625-0.4100952V23.5048828L28.7007141,23.5048828z M31.320282,23.648407
			h-2.6913757l-0.0718079-0.0717468V22.722168l0.0907898-0.0693665c0.2192993,0.0605774,0.3990173,0.1801758,0.5126953,0.3344727
			c0.1109009-0.3500977,0.4454041-0.8075867,0.7662048-1.0932922l0.0921936-0.0028992
			c0.3497009,0.2798157,0.6586914,0.765625,0.7666016,1.1034851c0.1142883-0.1625977,0.2896118-0.2792664,0.5152283-0.3417664
			l0.0917664,0.0693665v0.8544922L31.320282,23.648407L31.320282,23.648407z"/>
		<path class="st2" d="M31.4501953,25.0043945v-0.8544922c-0.3203125,0.0805969-0.5272827,0.2533875-0.6201172,0.4882812
			c0-0.2837219-0.4086914-0.9375-0.8549805-1.2631836c-0.4473267,0.3646851-0.8633118,0.9560852-0.855011,1.2631836
			C29.0438843,24.4145813,28.820282,24.2304993,28.5,24.1499023v0.8544922H31.4501953L31.4501953,25.0043945z"/>
		<path class="st3" d="M28.5718079,24.9325867h2.8070679v-0.6865234c-0.2392883,0.0796204-0.4047852,0.223114-0.4818726,0.4185181
			l-0.1387329-0.0263977c0-0.2539062-0.3725891-0.8511047-0.7807922-1.1714172
			c-0.4233093,0.3608093-0.7923889,0.9067383-0.7855835,1.1694336l-0.1397095,0.0253906
			c-0.0620117-0.1826172-0.238678-0.3340149-0.4803772-0.4155273V24.9325867L28.5718079,24.9325867z M31.4501953,25.0761719H28.5
			l-0.0718079-0.0717773v-0.8544922l0.0894165-0.0693359c0.2489929,0.0625,0.4467773,0.184021,0.5687866,0.3442078
			c0.1176758-0.3519897,0.4888-0.8164062,0.8432922-1.1054993l0.0879211-0.0018921
			c0.3871765,0.282196,0.7294922,0.7772827,0.843689,1.1161804c0.1245117-0.1689758,0.319397-0.2895813,0.5712891-0.3529968
			l0.0899048,0.0693359v0.8544922L31.4501953,25.0761719L31.4501953,25.0761719z"/>
		<path class="st2" d="M31.8104858,26.7572937v-0.985321c-0.3993835,0.1029968-0.6463928,0.3974304-0.7723999,0.5693054
			c0-0.5336914-0.6021118-1.3471985-1.0635071-1.6132812c-0.473114,0.273468-1.0635071,1.1138-1.0635071,1.6132812
			c-0.1289062-0.1708984-0.3729858-0.4663086-0.7714844-0.5693054v0.985321H31.8104858L31.8104858,26.7572937z"/>
		<path class="st3" d="M28.2113953,26.6854858h3.526886v-0.816803c-0.2402954,0.0848999-0.4512024,0.2538757-0.6416016,0.5151062
			l-0.1304016-0.042511c0-0.4804993-0.5482788-1.25-0.9916992-1.5292969
			c-0.4345703,0.2754211-0.9916992,1.0581055-0.9916992,1.5292969l-0.1293945,0.0429993
			c-0.1299133-0.1723938-0.3339844-0.4057922-0.6420898-0.5151672V26.6854858L28.2113953,26.6854858z M31.8104858,26.8291016
			h-3.6708984l-0.0716858-0.0718079v-0.985321l0.0897827-0.0698853c0.3189087,0.0826111,0.5444031,0.2792969,0.7012024,0.4599915
			c0.1094055-0.532196,0.6504211-1.2485046,1.0801086-1.496582h0.0716858
			c0.434082,0.2504883,0.9727173,0.9545898,1.0801086,1.4942017c0.2071228-0.2368164,0.4414062-0.3907166,0.7012024-0.4576111
			l0.0897827,0.0698853v0.985321L31.8104858,26.8291016L31.8104858,26.8291016z"/>
		<path class="st2" d="M31.5946655,28.9442749v-1.0126648c-0.3515015,0.1376953-0.4570007,0.4760742-0.5673828,0.7065735
			c0.0429993-1.0278015-0.5785828-2.131897-1.0527039-2.4121094c-0.4736023,0.2802124-1.1073914,1.4082031-1.0521851,2.4121094
			c-0.1132812-0.2290039-0.2159119-0.5688782-0.5668945-0.7065735v1.0126648H31.5946655L31.5946655,28.9442749z"/>
		<path class="st3" d="M28.4271851,28.8725891h3.0953064v-0.8262024c-0.2051086,0.1224976-0.2998047,0.332489-0.3837891,0.5205078
			c-0.0157166,0.035614-0.031311,0.070282-0.0469055,0.102478l-0.1362-0.0340881
			c0.0419922-0.995697-0.5493164-2.0317993-0.9810181-2.3243103c-0.4432678,0.3008118-1.0326843,1.3697205-0.9804993,2.3233032
			l-0.1362,0.035614c-0.0175781-0.035614-0.0350952-0.0742188-0.0537109-0.1142273
			c-0.0834961-0.184082-0.1767883-0.3891907-0.3769836-0.5092773V28.8725891L28.4271851,28.8725891z M31.5946655,29.016571
			h-3.2391663l-0.0722961-0.0722961v-1.0126648l0.0980835-0.066925c0.245697,0.0962219,0.3785095,0.2792969,0.4726868,0.4604797
			c0.0689087-0.9663086,0.6587219-1.909668,1.0840149-2.1610718h0.0731812
			c0.4287109,0.2533875,1.0083313,1.1801147,1.0826111,2.1621094c0.094696-0.1817017,0.2275085-0.3648071,0.4746094-0.4615173
			l0.0975952,0.066925v1.0126648L31.5946655,29.016571L31.5946655,29.016571z"/>
		<path class="st2" d="M31.3485718,30.4784851v-1.0126953c-0.3680725,0.0874023-0.3910828,0.223175-0.5083008,0.4501953
			c0.0435181-0.6138-0.3910828-1.3139038-0.8646851-1.5942078c-0.4741211,0.280304-0.9086914,0.9804077-0.8652039,1.5942078
			c-0.1166687-0.2270203-0.1313782-0.362793-0.5078735-0.4501953v1.0126953H31.3485718L31.3485718,30.4784851z"/>
		<path class="st3" d="M28.6742859,30.4066772h2.6021118v-0.8470764c-0.2128906,0.0663757-0.2559204,0.1537781-0.3330078,0.3109741
			c-0.012207,0.0249023-0.0248718,0.0508118-0.039093,0.078125l-0.1353149-0.0381165
			c0.0405884-0.5780945-0.3710938-1.2319031-0.793396-1.504303c-0.4223938,0.2723999-0.8345032,0.9262085-0.7935181,1.504303
			L29.0469055,29.9487c-0.0161133-0.0302124-0.0298157-0.0591125-0.0429993-0.0864258
			c-0.0737305-0.1532898-0.1147156-0.2382812-0.3296204-0.3031921V30.4066772L28.6742859,30.4066772z M31.4208984,30.5507812
			h-2.8901062V29.375l0.0882874,0.0204773c0.2486267,0.0581055,0.3565063,0.1401062,0.428833,0.2461243
			c0.0755615-0.5791321,0.4862976-1.1426086,0.8910828-1.3813171l0.0365906-0.0220032l0.0365906,0.0220032
			c0.4053345,0.2391968,0.816925,0.8041992,0.8911133,1.3847046c0.0741882-0.1079102,0.1825867-0.1908875,0.4287109-0.2495117
			l0.0888977-0.0209961V30.5507812L31.4208984,30.5507812z"/>
		<path class="st2" d="M15.5541992,34.234375v-3.0625c-0.1006165-0.389679-0.4316101-0.7344055-0.6802063-0.8036804v-2.6958313
			l0.5600891,0.3031921l0.6401062,2.8183289v3.4404907H15.5541992L15.5541992,34.234375z"/>
		<path class="st3" d="M15.6259766,34.1620789h0.3764038v-3.3602905l-0.6307983-2.7784119l-0.4257812-0.2298889v2.523407
			c0.2583008,0.1029968,0.5766907,0.4442749,0.6781921,0.8373718l0.0019836,0.0176086V34.1620789L15.6259766,34.1620789z
			 M16.1459961,34.3065796h-0.6636047v-3.125c-0.0970764-0.3631897-0.407196-0.6826172-0.6273804-0.7441101l-0.0528259-0.0145874
			v-2.8710938l0.6949158,0.3763733l0.6488953,2.8657227V34.3065796L16.1459961,34.3065796z"/>
		<path class="st2" d="M15.5541992,34.2460938V31.171875c-0.1006165-0.3891907-0.4316101-0.7344055-0.6802063-0.8031921v-2.8829041
			c0.3759766,0,0.5600891,0.4903259,0.5600891,0.4903259l0.6401062,2.8177795v3.4288025L15.5541992,34.2460938
			L15.5541992,34.2460938z"/>
		<path class="st3" d="M14.9458008,30.3173828c0.2583008,0.1025085,0.5766907,0.4437866,0.6781921,0.8368835l0.0019836,0.0176086
			v2.9990234l0.3764038-0.0166321v-3.3520813l-0.638092-2.8105164l0,0c-0.0009766,0-0.1455078-0.3691101-0.4184875-0.4267883
			V30.3173828L14.9458008,30.3173828z M15.4823914,34.3212585v-3.139679
			c-0.0970764-0.362793-0.407196-0.6826172-0.6273804-0.7436218l-0.0528259-0.0146484v-3.0097046h0.0718079
			c0.4208984,0,0.6192017,0.5150757,0.6275024,0.5370789l0.6445007,2.8432007v3.4980774L15.4823914,34.3212585
			L15.4823914,34.3212585z"/>
		<path class="st2" d="M15.1557922,35.0312805c0.2591858-0.1163025,0.6367188-0.4375,0.6367188-0.7587891v-3.8277283
			l-0.1778259-0.3158875h6.5200806l-0.2538757,0.3158875v3.8277283c0,0.3212891,0.2586975,0.6424866,0.5180054,0.7587891H15.1557922
			L15.1557922,35.0312805z"/>
		<path class="st3" d="M15.417511,34.9599609h6.7406616c-0.1933899-0.1660767-0.3495789-0.4228821-0.3495789-0.6874695v-3.8531189
			l0.1763-0.218689h-6.2476196l0.1270142,0.2250977v3.8467102C15.8642883,34.5380554,15.6454773,34.7938843,15.417511,34.9599609
			L15.417511,34.9599609z M22.3988953,35.1034851h-7.243103l-0.0297852-0.1376953
			c0.2489929-0.1123047,0.5941772-0.4160156,0.5941772-0.6932983v-3.8091125l-0.2285156-0.4062805h6.7935181l-0.3326111,0.4130859
			v3.8023071c0,0.2958984,0.2471313,0.5907898,0.4761047,0.6932983L22.3988953,35.1034851L22.3988953,35.1034851z"/>
		<path class="st2" d="M21.0829773,35.0312805c-0.2593079-0.1163025-0.6366882-0.4375-0.6366882-0.7587891v-3.6407166
			l0.542511-0.5033875l-4.4326172,0.0004883l0.5419006,0.5028992v3.6407166c0,0.3212891-0.3774109,0.6424866-0.6367188,0.7587891
			H21.0829773L21.0829773,35.0312805z"/>
		<path class="st3" d="M16.7230835,34.9599609h4.0982056c-0.2279968-0.1660767-0.4467773-0.4219055-0.4467773-0.6874695v-3.671936
			l0.4311829-0.3998718h-4.0664062l0.4310913,0.3998718v3.671936
			C17.1703796,34.5380554,16.9516907,34.7938843,16.7230835,34.9599609L16.7230835,34.9599609z M21.0829773,35.1034851h-4.6216125
			l-0.0292969-0.1376953c0.249115-0.1123047,0.5943298-0.4160156,0.5943298-0.6932983v-3.6094055l-0.6538086-0.6059875
			l4.7993164-0.0005188l-0.6533203,0.6065063v3.6094055c0,0.2772827,0.344696,0.5809937,0.5942078,0.6932983L21.0829773,35.1034851
			L21.0829773,35.1034851z"/>
		<path class="st2" d="M20.4613953,35.0312805c-0.2593079-0.1163025-0.6367188-0.4375-0.6367188-0.7587891v-3.2911072
			l0.355011-0.5033875h-2.8164062l0.3555298,0.5033875v3.2911072c0,0.3212891-0.3780212,0.6424866-0.6368103,0.7587891H20.4613953
			L20.4613953,35.0312805z"/>
		<path class="st3" d="M17.343811,34.9599609h2.8558655c-0.2279663-0.1660767-0.4468079-0.4219055-0.4468079-0.6874695v-3.3139954
			l0.2881165-0.4087219h-2.5389709l0.2884827,0.4087219v3.3139954
			C17.7904968,34.5380554,17.5717773,34.7938843,17.343811,34.9599609L17.343811,34.9599609z M20.4613953,35.1034851h-3.3793945
			l-0.0298157-0.1376953c0.249115-0.1123047,0.5942993-0.4160156,0.5942993-0.6932983v-3.2686157l-0.4219055-0.5975952h3.093811
			l-0.4219055,0.5975952v3.2686157c0,0.2772827,0.3452148,0.5809937,0.5942078,0.6932983L20.4613953,35.1034851
			L20.4613953,35.1034851z"/>
		<polygon class="st2" points="18.0986023,30.4784851 19.4443054,30.4784851 19.4443054,35.032196 18.0986023,35.032196 
			18.0986023,30.4784851 		"/>
		<path class="st3" d="M18.1708679,34.9599609h1.2017212v-4.4091797h-1.2017212V34.9599609L18.1708679,34.9599609z
			 M19.5161133,35.1044922H18.026886v-4.6978149h1.4892273V35.1044922L19.5161133,35.1044922z"/>
		<path class="st2" d="M15.8095703,27.1049805h0.6435242v0.4701843h-0.6435242V27.1049805L15.8095703,27.1049805z
			 M15.8095703,27.5810852h0.6469116v2.5335999h-0.6469116V27.5810852L15.8095703,27.5810852z M20.8749695,31.7489929h0.5371094
			v2.4716797h-0.5371094V31.7489929L20.8749695,31.7489929z M16.2680664,31.7489929h0.5371399v2.4716797h-0.5371399V31.7489929
			L16.2680664,31.7489929z"/>
		<path class="st3" d="M15.8812866,27.5033875h0.5v-0.3265991h-0.5V27.5033875L15.8812866,27.5033875z M15.8812866,30.0424805
			h0.5035095v-2.3891907h-0.5035095V30.0424805L15.8812866,30.0424805z M16.4569702,30.1864929h-0.6473999l-0.0717773-0.0718079
			v-3.0097046l0.0717773-0.0722961h0.6435242l0.0718079,0.0722961l0.0038757,3.0097046L16.4569702,30.1864929L16.4569702,30.1864929
			z M16.3397827,34.148407h0.3936157v-2.3271179h-0.3936157V34.148407L16.3397827,34.148407z M16.8052063,34.2919617h-0.5371399
			l-0.0717773-0.0712891v-2.4716797l0.0717773-0.0722046h0.5371399l0.0721741,0.0722046v2.4716797L16.8052063,34.2919617
			L16.8052063,34.2919617z M20.9467773,34.148407h0.3935242v-2.3271179h-0.3935242V34.148407L20.9467773,34.148407z
			 M21.4120789,34.2919617h-0.5371094l-0.0722961-0.0712891v-2.4716797l0.0722961-0.0722046h0.5371094l0.0718079,0.0722046
			v2.4716797L21.4120789,34.2919617L21.4120789,34.2919617z"/>
		<polygon class="st2" points="21.132782,28.1264648 22.0556946,28.1264648 22.0556946,30.0820007 21.132782,30.0820007 
			21.132782,28.1264648 		"/>
		<path class="st3" d="M21.2099915,30.0048828h0.7679749V28.204071h-0.7679749V30.0048828L21.2099915,30.0048828z
			 M22.0556946,30.159668H21.132782l-0.0776062-0.0776672v-1.9555359l0.0776062-0.0776672h0.9229126l0.0770874,0.0776672v1.9555359
			L22.0556946,30.159668L22.0556946,30.159668z"/>
		<path class="st2" d="M15.4325867,26.820282v3.3076172h0.3760071v-3.3164062
			C15.6732788,26.7431946,15.5458679,26.7328796,15.4325867,26.820282L15.4325867,26.820282L15.4325867,26.820282z
			 M16.4462891,30.0951843v-4.335907c0.1846008,0,0.2128906,0.6351929,0.6367188,0.6351929
			c0.2201843,0,0.1967773-0.2631836,0.0733032-0.477478c-0.1099243-0.1899109-0.2457275-0.4522095-0.0611267-0.9408875
			c0.1264954,0.3739624,0.4662781,0.4926758,0.4032898,0.2582703c-0.1073914-0.4028931-0.4183655-0.468811-0.1854858-1.0937805
			c0.0809937,0.5209961,0.4154968,0.4985962,0.3345032,0.195282c-0.0912781-0.3417664-0.2808228-0.4813843-0.0473938-0.9628906
			c0.1308899,0.5464172,0.3070679,0.5147095,0.3070679,0.175293c0-0.5013733-0.0189819-1.0424194,0.6299133-1.243103
			c0,0,0.0375977-0.4595032,0.2715149-0.4595032c0.2338867,0,0.2714844,0.4595032,0.2714844,0.4595032
			c0.6488953,0.2011108,0.6299133,0.7417297,0.6299133,1.243103c0,0.3394165,0.1766968,0.3716125,0.3070984-0.175293
			c0.2333984,0.4815063,0.0444031,0.6216125-0.0469055,0.9628906c-0.0814819,0.3033142,0.2528992,0.3262024,0.3340149-0.195282
			c0.2329102,0.6249695-0.0776062,0.6914062-0.1860046,1.0937805c-0.0625,0.2348328,0.2772827,0.1161804,0.4037781-0.257782
			c0.1841125,0.4881897,0.0488281,0.7504883-0.0610657,0.9408875c-0.1235352,0.2142944-0.1474304,0.4775085,0.0733032,0.4775085
			c0.4232788,0,0.4520569-0.6351929,0.6366577-0.6351929v4.3353882H16.4462891L16.4462891,30.0951843z"/>
		<path class="st3" d="M17.4335938,25.293457L17.4335938,25.293457L17.4335938,25.293457L17.4335938,25.293457z
			 M20.183075,25.293457L20.183075,25.293457L20.183075,25.293457L20.183075,25.293457z M16.5180969,30.023407h4.5805054v-4.0986328
			c-0.0161133,0.0298157-0.0317078,0.0620117-0.0439148,0.0878906c-0.0927734,0.1918945-0.2201843,0.4541016-0.5204773,0.4541016
			c-0.0918274,0-0.1641235-0.0380859-0.2036133-0.1069031c-0.0772095-0.132782-0.0152283-0.3339844,0.0682678-0.4785767
			c0.0811462-0.1405945,0.1983337-0.344696,0.109436-0.707489c-0.1118164,0.1821899-0.2715149,0.2787781-0.3778992,0.2470703
			c-0.0611267-0.0180969-0.1143188-0.0820007-0.0816345-0.2050781c0.0366211-0.1352234,0.0948181-0.2362976,0.1460266-0.324707
			c0.0820923-0.1416016,0.1503906-0.2601929,0.1094055-0.4891968c-0.0493164,0.109314-0.1166992,0.1835022-0.1947937,0.210907
			c-0.0606384,0.0205078-0.120636,0.0097656-0.164093-0.031311c-0.0591431-0.0545959-0.0752258-0.1508179-0.0449219-0.2640991
			c0.023407-0.0863953,0.0527039-0.1611023,0.0786133-0.2276001c0.0624695-0.1595764,0.1117859-0.2846069,0.0487976-0.4960022
			c-0.0678101,0.191803-0.148407,0.2840881-0.2416992,0.2723999c-0.0551147-0.0062866-0.148407-0.0566101-0.148407-0.3179016
			v-0.0419922c0.0004883-0.4902039,0.0009766-0.9526062-0.5785828-1.1322937l-0.0464172-0.0140991l-0.0043945-0.0484009
			c-0.0103149-0.1289062-0.0732117-0.3940125-0.199707-0.3940125c-0.1391907,0-0.1929016,0.3105164-0.199707,0.3935242
			l-0.0038757,0.0488892l-0.0469055,0.0140991c-0.5796204,0.1791992-0.5791321,0.6420898-0.5786133,1.131897v0.0419922
			c0,0.2616882-0.0932922,0.3114929-0.148407,0.3182983c-0.0909119,0.0108032-0.1734009-0.0805969-0.2416992-0.2723999
			c-0.0630188,0.2113953-0.0137024,0.3364258,0.0488281,0.4960022c0.0263977,0.0660095,0.0555725,0.1412048,0.0785522,0.2276001
			c0.0303345,0.1132812,0.0142212,0.2095032-0.0448608,0.2640991c-0.0435181,0.0405884-0.1035156,0.0518188-0.164093,0.0307922
			c-0.078125-0.026886-0.1455383-0.101593-0.1948242-0.2103882c-0.0409851,0.2285156,0.0272827,0.3471069,0.1094055,0.4887085
			c0.051178,0.0888977,0.1092834,0.1894836,0.1459961,0.3251953c0.0326843,0.1230774-0.0205078,0.1864929-0.081604,0.2050781
			c-0.105896,0.0317078-0.2660828-0.0648804-0.3783875-0.2470703c-0.0889282,0.362793,0.0288086,0.5664062,0.1098938,0.707489
			c0.0834961,0.144104,0.144989,0.3457947,0.0682983,0.4785767c-0.0394897,0.0688171-0.1118164,0.1064148-0.2035828,0.1064148
			c-0.3003235,0-0.4277039-0.262207-0.5205383-0.4541016c-0.0126648-0.0258789-0.0282898-0.0575867-0.0443726-0.0878906V30.023407
			L16.5180969,30.023407z M21.2426758,30.1674805l-4.8681946-0.0005188v-4.4794922h0.0718079
			c0.1185913,0,0.1772156,0.1216125,0.2456055,0.2617188c0.085022,0.175293,0.1810913,0.3735962,0.3911133,0.3735962
			c0.059082,0,0.0736694-0.0253906,0.0791016-0.034729c0.0360718-0.0629883,0.0072937-0.2035828-0.0683289-0.3349609
			c-0.1000671-0.1738281-0.2685852-0.4653015-0.065979-1.0018921l0.0707703-0.1885376l0.0645142,0.1903992
			c0.0741882,0.218811,0.217804,0.3218384,0.2715149,0.3296204c-0.0005188-0.0062866-0.0014954-0.0161133-0.0054016-0.0297852
			c-0.031311-0.117218-0.0820007-0.2050171-0.1313171-0.2900085c-0.1152954-0.1991882-0.2236938-0.387207-0.0522766-0.8477173
			l0.0961609-0.257782l0.0420227,0.2720032c0.0375977,0.2406921,0.128418,0.332489,0.1714172,0.3471985
			c0.0135803,0.0047913,0.0175781,0.0009155,0.0189819,0c0.0116882-0.011322,0.0224915-0.0527954,0.0033875-0.1221313
			c-0.0209961-0.0785828-0.0472717-0.1464844-0.0731812-0.2118835c-0.0858765-0.2187805-0.159729-0.4077148,0.0307922-0.8013
			l0.0877991-0.1810913l0.0469055,0.1958008c0.0591125,0.2470093,0.1166992,0.3309937,0.1416016,0.3573914
			c0.0102844-0.0234985,0.0238953-0.0741882,0.0238953-0.1654968v-0.0415955
			c-0.0003967-0.485321-0.000885-1.0335999,0.6352844-1.2547913c0.0180969-0.1343079,0.0889282-0.4776001,0.3379211-0.4776001
			s0.3197937,0.3432922,0.3378906,0.4776001c0.6362,0.2211914,0.6356812,0.7699585,0.6351929,1.2547913v0.0419922
			c0,0.0909119,0.0137024,0.1420898,0.0240173,0.1651001c0.0248718-0.0263977,0.0825195-0.1098938,0.1416016-0.3569946
			l0.0467834-0.1961975l0.0879211,0.1815796c0.1908875,0.3936157,0.1166992,0.5825195,0.0307922,0.8008118
			c-0.0259094,0.0653992-0.0523071,0.1333008-0.0732117,0.2118835c-0.0186157,0.0698242-0.0083008,0.1113281,0.0033875,0.1221313
			c0.0014038,0.0009155,0.0053101,0.0047913,0.0195312,0c0.042511-0.0147095,0.1333008-0.1065063,0.1703796-0.3471985
			l0.042511-0.2720032l0.0962219,0.2583008c0.1713867,0.4605103,0.0629883,0.6484985-0.0523376,0.8471985
			c-0.0492859,0.0849915-0.1000671,0.1727905-0.1317749,0.2904968c-0.0033875,0.0136719-0.004425,0.0234985-0.0049133,0.0297852
			c0.0536804-0.0082703,0.1972961-0.1112976,0.2710266-0.3295898l0.0644836-0.1903992l0.0712891,0.1880188
			c0.2020874,0.5365906,0.0341187,0.828064-0.0660095,1.0023804c-0.0761108,0.1308899-0.1044922,0.2720032-0.0682678,0.3344727
			c0.0052795,0.0098267,0.0199585,0.0351562,0.0791016,0.0351562c0.2098694,0,0.3060913-0.1982422,0.3910828-0.3735352
			c0.0683899-0.1405945,0.1268921-0.2616882,0.245575-0.2616882h0.0718079V30.1674805L21.2426758,30.1674805z
			 M15.5043945,30.0561829h0.2323914v-3.1983032c-0.1123047-0.0463867-0.184082-0.0278015-0.2323914,0V30.0561829
			L15.5043945,30.0561829z M15.8804016,30.2001648h-0.5196228V26.784668l0.0279236-0.0214844
			c0.1268921-0.0982056,0.2792969-0.1030273,0.4525757-0.0155945l0.0391235,0.019989V30.2001648L15.8804016,30.2001648z"/>
		<path class="st2" d="M21.9115906,27.9706726v2.1582031h0.3046875v-2.1635742
			C22.121582,27.9208679,21.9911804,27.9135742,21.9115906,27.9706726L21.9115906,27.9706726z M15.4442749,28.9608765
			c0.4663086,0.2383118,0.9283142,0.514679,1.0450134,1.167511h-1.0450134V28.9608765L15.4442749,28.9608765z"/>
		<path class="st3" d="M15.516571,30.0565796h0.8843079c-0.1220703-0.5083008-0.480011-0.762207-0.8843079-0.9769897V30.0565796
			L15.516571,30.0565796z M16.5751953,30.2006836h-1.2026062v-1.3569031l0.1044922,0.0531921
			c0.4819031,0.2460938,0.9624023,0.5429077,1.0830078,1.2187195L16.5751953,30.2006836L16.5751953,30.2006836z
			 M21.9833984,30.0570984h0.1611023v-2.042511c-0.0566101-0.0170288-0.117218-0.0170288-0.1611023-0.0009155V30.0570984
			L21.9833984,30.0570984z M22.2885742,30.2012024h-0.4487915v-2.2676086l0.0297852-0.0215149
			c0.1099243-0.0786133,0.2730408-0.0610046,0.377533-0.0116882l0.0414734,0.0195007V30.2012024L22.2885742,30.2012024z"/>
		<path class="st2" d="M22.2172852,28.9442749c-0.4663086,0.2383118-0.9281921,0.5147095-1.0448914,1.1679993h1.0448914V28.9442749
			L22.2172852,28.9442749z"/>
		<path class="st3" d="M21.2607117,30.039978h0.8847961v-0.9769897
			C21.7412109,29.2778015,21.382782,29.5316772,21.2607117,30.039978L21.2607117,30.039978z M22.289093,30.184082h-1.2026978
			l0.0151978-0.0845032c0.120575-0.6763,0.6009827-0.973114,1.0829773-1.2192078l0.1045227-0.0532837V30.184082L22.289093,30.184082
			z"/>
		<path class="st2" d="M19.1337891,23.9032898l0.2720032-0.2285156v-0.2924805
			c-0.0996094,0.0097656-0.1538086,0.0434875-0.2271118,0.1401672c-0.0624695-0.1943665-0.199707-0.3452759-0.3837891-0.4394836
			c-0.1845093,0.0942078-0.3218079,0.2388-0.3843079,0.4326172c-0.0731812-0.0967102-0.1274109-0.1235352-0.2269897-0.1333008
			v0.2924805l0.2720032,0.2285156H19.1337891L19.1337891,23.9032898z"/>
		<path class="st3" d="M18.4819031,23.8310852h0.6259766l0.2261047-0.1900024v-0.1679993
			c-0.0312805,0.015686-0.0601196,0.0429993-0.0982056,0.092804l-0.0834961,0.1094055l-0.0418701-0.1308899
			c-0.0518188-0.160614-0.1607361-0.2915039-0.3155212-0.3798218c-0.1586914,0.0892944-0.2645874,0.2148132-0.3153992,0.3730164
			l-0.042511,0.1308899l-0.0834961-0.1094055c-0.0365906-0.0487976-0.0648804-0.0741882-0.0975952-0.0884094v0.1704102
			L18.4819031,23.8310852L18.4819031,23.8310852z M19.1602173,23.9750671h-0.7310181l-0.3174133-0.2670898v-0.4052734
			l0.0791016,0.007782c0.0830078,0.0083008,0.1416016,0.0288696,0.1958008,0.0737915
			c0.077179-0.1533203,0.2051086-0.2782898,0.3754883-0.3652954l0.0327148-0.0169983l0.0327148,0.0169983
			c0.1689758,0.0865173,0.296875,0.2134094,0.375,0.3710938c0.0561829-0.0487976,0.1157837-0.0716858,0.1962891-0.0795898
			l0.0785828-0.007782v0.4052734L19.1602173,23.9750671L19.1602173,23.9750671z"/>
		<path class="st2" d="M19.2792969,24.6357117l0.1264954-0.2734375v-0.3804016
			c-0.0996094,0.0098267-0.1538086,0.0444946-0.2271118,0.1420898c-0.0624695-0.1967773-0.2001953-0.3500977-0.3837891-0.445282
			c-0.1845093,0.0951843-0.3218079,0.2421875-0.3843079,0.4384766c-0.0731812-0.097168-0.1274109-0.1249695-0.2269897-0.1352844
			v0.3809204l0.1264954,0.2729187H19.2792969L19.2792969,24.6357117z"/>
		<path class="st3" d="M18.2554016,24.3466797l0.1006165,0.2172852h0.8773804l0.1005859-0.2172852v-0.273468
			c-0.0312805,0.0161438-0.0601196,0.043457-0.0982056,0.0942688l-0.0834961,0.1112976l-0.0423889-0.1328125
			c-0.0518188-0.1630859-0.1602173-0.2958984-0.3154907-0.3852844c-0.1582031,0.0904236-0.2640991,0.217804-0.3153992,0.378479
			l-0.0420227,0.1323242l-0.0834961-0.1109009c-0.0370789-0.0492859-0.0648804-0.074707-0.0980835-0.0892944V24.3466797
			L18.2554016,24.3466797z M18.2641907,24.7079773l-0.1524048-0.3451843v-0.460022l0.0791016,0.0078125
			c0.082489,0.0083008,0.1416016,0.0293274,0.1958008,0.0747986c0.0766907-0.1557922,0.2045898-0.2822876,0.375-0.370697
			l0.0332031-0.0169983l0.0327148,0.0169983c0.1664734,0.0864868,0.2963867,0.2173157,0.3744812,0.3759766
			c0.0567017-0.0492859,0.1157837-0.0721741,0.1962891-0.0804749l0.0791016-0.0079041l-0.0067749,0.4902954l-0.1455383,0.3149109
			L18.2641907,24.7079773L18.2641907,24.7079773z"/>
		<path class="st2" d="M19.2987671,25.6288757l0.4038086-0.4921875v-0.4858093
			c-0.1478882,0.0166016-0.2284851,0.0751953-0.3373718,0.2406921c-0.0927124-0.3329773-0.296814-0.4057922-0.5703125-0.5673828
			c-0.273407,0.1615906-0.4775085,0.2227173-0.5703125,0.5552063c-0.1088867-0.1650085-0.1893616-0.2119141-0.3368835-0.2285156
			v0.4858093l0.4032898,0.4921875H19.2987671L19.2987671,25.6288757z"/>
		<path class="st3" d="M18.3251953,25.5570984h0.9393921l0.3663025-0.4463196V24.7388
			c-0.0766907,0.0253906-0.1314087,0.0795898-0.2055969,0.1923828L19.3383789,25.0625l-0.042511-0.1519165
			c-0.0727844-0.2602234-0.2153015-0.3413086-0.4315796-0.4638062c-0.022522-0.0126953-0.0455017-0.0258789-0.069397-0.0395813
			c-0.030304,0.0175781-0.0599976,0.0341797-0.0884094,0.0498047c-0.2059937,0.1142578-0.3421936,0.1899719-0.4125977,0.441864
			l-0.0424194,0.1519165l-0.0868835-0.1314087c-0.0757141-0.1152039-0.129364-0.1611023-0.2050781-0.1825867v0.3739929
			L18.3251953,25.5570984L18.3251953,25.5570984z M19.3330078,25.7012024h-1.0757446l-0.4413757-0.5391235V24.570282
			l0.0795898,0.0088196c0.1328125,0.0150757,0.2211914,0.0566101,0.3066101,0.1513672
			c0.0967102-0.2118835,0.2554016-0.2998047,0.4346008-0.3993835c0.0386047-0.0214844,0.0796204-0.0440063,0.121582-0.0689087
			l0.0366211-0.0214844l0.0365906,0.0214844c0.0357056,0.0209961,0.0704041,0.0404968,0.1036072,0.0596008
			c0.1870117,0.1059265,0.3525085,0.1996765,0.4521179,0.4194031c0.089386-0.1034851,0.1773071-0.1473999,0.3075867-0.1620789
			l0.0795898-0.0088196v0.5917969L19.3330078,25.7012024L19.3330078,25.7012024z"/>
		<path class="st2" d="M19.4169922,26.6044617c0,0,0.4706726-0.410675,0.4984741-0.6356812v-0.5195923
			c-0.1820679,0.0209961-0.3544922,0.0683899-0.4891968,0.2817993c-0.1147766-0.4296875-0.2939758-0.5498047-0.6313782-0.7583313
			c-0.3374023,0.2085266-0.5161133,0.3286438-0.6307983,0.7583313c-0.1347961-0.2134094-0.3071899-0.2608032-0.4892883-0.2817993
			v0.519104c0.059082,0.2250977,0.4981079,0.6356812,0.4981079,0.6356812L19.4169922,26.6044617L19.4169922,26.6044617z"/>
		<path class="st3" d="M18.2016907,26.5321655l1.1884155,0.0005188c0.174408-0.156189,0.4369812-0.4346008,0.4541016-0.5727234
			l-0.0004272-0.4277649c-0.1470032,0.0278625-0.2612915,0.0859985-0.3569946,0.2373047l-0.0878906,0.1391602l-0.042511-0.1591797
			c-0.1015015-0.3813171-0.2480164-0.4970703-0.5614929-0.6918945c-0.3129883,0.194397-0.4595032,0.3100891-0.5614929,0.6918945
			l-0.0420227,0.1591797l-0.0878906-0.1391602c-0.0957031-0.1513062-0.2098999-0.2094421-0.3568726-0.2373047v0.4262695
			C17.7958679,26.1195984,18.0737,26.409668,18.2016907,26.5321655L18.2016907,26.5321655z M19.4443054,26.6762695h-1.2998352
			l-0.0205078-0.0195923c-0.046875-0.043396-0.4559631-0.4316101-0.5189819-0.6703796l-0.0025024-0.0180054v-0.6001282
			l0.0805969,0.0092163c0.156311,0.0185852,0.3174133,0.0577087,0.453125,0.2002258
			c0.1210632-0.3432312,0.3062134-0.4712219,0.6210938-0.6660156l0.0375977-0.023407l0.0380859,0.023407
			c0.3149109,0.1947937,0.5000305,0.3232727,0.6210938,0.6660156c0.1357117-0.1425171,0.2964172-0.1816406,0.453125-0.1997375
			l0.0800781-0.0097046v0.6006165c-0.0307922,0.254303-0.4726868,0.6459045-0.5228882,0.6898804L19.4443054,26.6762695
			L19.4443054,26.6762695z"/>
		<path class="st2" d="M19.6181946,28.405304c0,0,0.6439819-0.7134094,0.6590881-0.9912109v-0.8101196
			c-0.2411804,0.0336914-0.4692078,0.1991882-0.6473999,0.5317078c-0.1513977-0.6698914-0.3882141-1.1376953-0.8344727-1.4624023
			c-0.4463196,0.324707-0.683136,0.792511-0.8345337,1.4629211c-0.1781921-0.3330383-0.406189-0.4990234-0.6473999-0.5322266
			v0.8101196c0.0458984,0.2778015,0.6592102,0.9912109,0.6592102,0.9912109H19.6181946L19.6181946,28.405304z"/>
		<path class="st3" d="M18.0058899,28.3329773l1.5799866,0.0005188c0.2431946-0.2730103,0.6099243-0.7446289,0.6192017-0.9233398
			v-0.7172546c-0.1987915,0.0570984-0.3745117,0.2201843-0.5116882,0.4769897l-0.0908813,0.1698914l-0.0429382-0.1878967
			c-0.1524048-0.6748047-0.3823853-1.093811-0.7641602-1.3887024c-0.3823242,0.2948914-0.6123047,0.7142944-0.7641296,1.3887024
			L17.9888,27.3403015l-0.0913086-0.1704102c-0.1376953-0.2568054-0.3135071-0.4204102-0.512207-0.4775085v0.7217102
			C17.4179688,27.6059875,17.8257141,28.120575,18.0058899,28.3329773L18.0058899,28.3329773z M19.6499023,28.4770813h-1.7104187
			l-0.0214844-0.0249939c-0.0640259-0.074707-0.627533-0.7373047-0.675293-1.0263062l-0.0010071-0.9042969l0.0815125,0.0112
			c0.234375,0.0322266,0.4423828,0.1757812,0.6088562,0.4174805c0.1670227-0.6366882,0.417511-1.0415039,0.8208313-1.3354797
			l0.042511-0.0307007l0.0424805,0.0307007c0.4028015,0.2939758,0.6538086,0.6987915,0.8208008,1.3354797
			c0.1659851-0.2416992,0.3739929-0.3847656,0.6083984-0.4174805l0.0820007-0.0112v0.8926086
			c-0.0161133,0.2987976-0.6098022,0.9642944-0.6777039,1.0394897L19.6499023,28.4770813L19.6499023,28.4770813z"/>
		<path class="st2" d="M19.6181946,29.4701843c0,0,0.550293-0.5605164,0.6590881-0.8037109v-0.8100891
			c-0.2411804,0.0336914-0.4692078,0.1993103-0.6473999,0.5317993c-0.1513977-0.6698914-0.3882141-1.0536804-0.8344727-1.3789062
			c-0.4463196,0.3252258-0.683136,0.7090149-0.8345337,1.3793945c-0.1781921-0.3329773-0.406189-0.4990845-0.6473999-0.5322876
			v0.8100891c0.1395874,0.2431946,0.6592102,0.8037109,0.6592102,0.8037109H19.6181946L19.6181946,29.4701843z"/>
		<path class="st3" d="M18.0043945,29.3983765h1.5834961c0.1605835-0.1654968,0.5249023-0.5604858,0.6171875-0.7479858V27.945282
			c-0.1987915,0.0570984-0.3745117,0.2201843-0.5116882,0.4770813l-0.0908813,0.1698914l-0.0429382-0.1879883
			c-0.1410828-0.6244812-0.3574829-0.9956055-0.7641602-1.3056641c-0.407196,0.3105774-0.6235046,0.6816711-0.7641296,1.3056641
			L17.9888,28.592804l-0.0913086-0.1704407c-0.1376953-0.256897-0.3135071-0.4203796-0.512207-0.4775696v0.7016602
			C17.5145874,28.8594055,17.9081726,29.2934875,18.0043945,29.3983765L18.0043945,29.3983765z M19.6478882,29.5424805
			l-1.7064819-0.0004883l-0.0215149-0.0230103c-0.0215149-0.0229187-0.526825-0.5693054-0.6689148-0.8168945l-0.0092773-0.0166016
			v-0.9115906l0.0815125,0.011261c0.234375,0.0322266,0.4428711,0.1757507,0.609375,0.4179382
			c0.1557922-0.5820312,0.394104-0.9414062,0.8203125-1.2519226l0.042511-0.0307922l0.0424805,0.0307922
			c0.4257812,0.3100281,0.6644897,0.6698914,0.8203125,1.2519226c0.1664734-0.2416992,0.3744812-0.3851929,0.6088867-0.4179382
			l0.0820007-0.011261l-0.0062866,0.921875c-0.1123352,0.2524109-0.6509094,0.8017883-0.6734314,0.8251953L19.6478882,29.5424805
			L19.6478882,29.5424805z"/>
		<path class="st2" d="M19.8397827,30.0893555c-0.1610718-0.6997681-0.2993164-1.2182617-1.0731812-1.7441711
			c-0.7744141,0.5259094-0.9126282,1.0444031-1.0732117,1.7441711H19.8397827L19.8397827,30.0893555z"/>
		<path class="st3" d="M17.7836914,30.0170898h1.9653015c-0.156189-0.6660156-0.3110046-1.1152039-0.9823914-1.5845032
			C18.0946655,28.901886,17.9403992,29.3510742,17.7836914,30.0170898L17.7836914,30.0170898z M19.9301758,30.1611023h-2.327179
			l0.019989-0.0879211c0.1519165-0.6600952,0.2833252-1.2304077,1.1030884-1.7875977l0.0405273-0.0273132l0.0404968,0.0273132
			c0.8198853,0.5571899,0.9507141,1.1275024,1.1025696,1.7875977L19.9301758,30.1611023L19.9301758,30.1611023z"/>
		<path class="st2" d="M20.2383118,30.4784851v-1.0126953c-0.3516235,0.1376953-0.6695251,0.3413086-0.7866211,0.5683899
			c-0.1309204-0.5625-0.3829041-0.8100891-0.6968079-1.1504211c-0.3145142,0.340332-0.5243835,0.5879211-0.6557922,1.1504211
			c-0.117218-0.2270813-0.4344788-0.4306946-0.7866211-0.5683899v1.0126953H20.2383118L20.2383118,30.4784851z"/>
		<path class="st3" d="M17.3847961,30.4066772h2.781189v-0.8334961c-0.3217773,0.140686-0.5614929,0.3218079-0.6504211,0.4942017
			l-0.0897827,0.1733093l-0.0444946-0.1903992c-0.1185913-0.5117188-0.3426819-0.7543945-0.6264038-1.0606079
			c-0.2831726,0.3100891-0.4662781,0.5488892-0.5855103,1.0606079L18.125,30.2406921l-0.0897827-0.1737976
			c-0.0889282-0.1719055-0.3287354-0.3530273-0.6504211-0.4937134V30.4066772L17.3847961,30.4066772z M20.3100891,30.5507812
			h-3.0694275v-1.1903992l0.0982056,0.0379944c0.3247375,0.1275024,0.5805359,0.2919922,0.7299194,0.4659119
			c0.1333008-0.4634094,0.3340149-0.7055969,0.6329041-1.0292969l0.0531921-0.0577087l0.1040039,0.112793
			c0.2593079,0.2798157,0.4862976,0.5254211,0.6221313,0.9751282c0.1493835-0.1743164,0.4056702-0.339325,0.730896-0.4668274
			l0.098175-0.0379944V30.5507812L20.3100891,30.5507812z"/>
		<path class="st2" d="M44.4491882,34.234375v-3.0625c0.1005859-0.389679,0.4317017-0.7344055,0.6806946-0.8036804v-2.6958313
			l-0.5605774,0.3031921l-0.6396179,2.8183289v3.4404907H44.4491882L44.4491882,34.234375z"/>
		<path class="st3" d="M44.0010071,34.1620789h0.3768921l0.0019836-3.0078125
			c0.1006165-0.3930969,0.4198914-0.734375,0.6777039-0.8373718v-2.523407l-0.4258118,0.2298889l-0.6307678,2.7784119V34.1620789
			L44.0010071,34.1620789z M44.5214844,34.3065796h-0.664093l0.0020142-3.5287781l0.6464844-2.8496399l0.6953125-0.3763733
			v2.8710938l-0.0528259,0.0145874c-0.219696,0.0614929-0.5301819,0.3809204-0.6268921,0.7441101V34.3065796L44.5214844,34.3065796z
			"/>
		<path class="st2" d="M44.4491882,34.2460938V31.171875c0.1005859-0.3891907,0.4317017-0.7344055,0.6806946-0.8031921v-2.8829041
			c-0.3759766,0-0.5605774,0.4903259-0.5605774,0.4903259l-0.6396179,2.8177795v3.4288025L44.4491882,34.2460938
			L44.4491882,34.2460938z"/>
		<path class="st3" d="M44.0010071,34.1542664l0.3768921,0.0166321l0.0019836-3.0166321
			c0.1015015-0.3930969,0.4198914-0.734375,0.6777039-0.8368835v-2.7525024
			c-0.2743835,0.0581055-0.4199219,0.4321899-0.4208984,0.4365845l-0.6356812,2.8007202V34.1542664L44.0010071,34.1542664z
			 M44.5214844,34.3212585l-0.664093-0.0292969l0.0020142-3.5136719l0.6395874-2.8182983
			c0.0108032-0.031311,0.2099915-0.5463867,0.6308899-0.5463867h0.0713196v3.0097046l-0.0528259,0.0146484
			c-0.219696,0.0610046-0.5301819,0.3808289-0.6268921,0.7436218V34.3212585L44.5214844,34.3212585z"/>
		<path class="st2" d="M44.8476868,35.0312805c-0.2587891-0.1163025-0.6368103-0.4375-0.6368103-0.7587891v-3.8277283
			l0.1777954-0.3158875h-6.5204773l0.2547913,0.3158875v3.8277283c0,0.3212891-0.2596741,0.6424866-0.5184937,0.7587891H44.8476868
			L44.8476868,35.0312805z"/>
		<path class="st3" d="M37.8457031,34.9599609h6.7401733c-0.227478-0.1660767-0.4462891-0.4219055-0.4462891-0.6874695v-3.8467102
			l0.1259766-0.2250977h-6.2469482l0.1766663,0.218689v3.8531189C38.195282,34.5370789,38.039093,34.7938843,37.8457031,34.9599609
			L37.8457031,34.9599609z M44.8476868,35.1034851h-7.2431946l-0.0292969-0.1376953
			c0.2284851-0.1025085,0.4756165-0.3973999,0.4756165-0.6932983v-3.8023071l-0.3320312-0.4130859h6.7929077l-0.2285156,0.4062805
			v3.8091125c0,0.2772827,0.3447266,0.5809937,0.594696,0.6932983L44.8476868,35.1034851L44.8476868,35.1034851z"/>
		<path class="st2" d="M38.9198914,35.0312805c0.2597961-0.1163025,0.6366882-0.4375,0.6366882-0.7587891v-3.6407166
			l-0.5419922-0.5033875l4.4327087,0.0004883l-0.5419922,0.5028992v3.6407166c0,0.3212891,0.3778992,0.6424866,0.6366882,0.7587891
			H38.9198914L38.9198914,35.0312805z"/>
		<path class="st3" d="M39.1825867,34.9599609h4.0977173c-0.2285156-0.1660767-0.4473267-0.4228821-0.4473267-0.6874695v-3.671936
			l0.4316101-0.3998718h-4.0664062l0.4306946,0.3998718v3.671936
			C39.6288757,34.5380554,39.4101868,34.7938843,39.1825867,34.9599609L39.1825867,34.9599609z M43.5419922,35.1034851h-4.6221008
			l-0.0292969-0.1376953c0.2489929-0.1123047,0.5947876-0.4160156,0.5947876-0.6932983v-3.6094055l-0.6533813-0.6065063
			l4.7988892,0.0005188l-0.6534119,0.6059875v3.6094055c0,0.2772827,0.3447876,0.5809937,0.593811,0.6932983L43.5419922,35.1034851
			L43.5419922,35.1034851z"/>
		<path class="st2" d="M39.5419922,35.0312805c0.2597961-0.1163025,0.6366882-0.4375,0.6366882-0.7587891v-3.2911072
			l-0.3544922-0.5033875h2.8153992l-0.3544006,0.5033875v3.2911072c0,0.3212891,0.3769226,0.6424866,0.6367188,0.7587891H39.5419922
			L39.5419922,35.0312805z"/>
		<path class="st3" d="M39.8036804,34.9599609h2.8565063c-0.2286072-0.1660767-0.4472961-0.4219055-0.4472961-0.6874695v-3.3139954
			l0.2881165-0.4087219h-2.5381165l0.2881165,0.4087219v3.3139954
			C40.2510071,34.5370789,40.0321655,34.7938843,39.8036804,34.9599609L39.8036804,34.9599609z M42.9219055,35.1034851h-3.3799133
			l-0.0292969-0.1376953c0.2489929-0.1123047,0.593689-0.4160156,0.593689-0.6932983v-3.2686157l-0.4208984-0.5975952h3.092804
			l-0.4208984,0.5975952v3.2686157c0,0.2772827,0.344696,0.5809937,0.593811,0.6932983L42.9219055,35.1034851L42.9219055,35.1034851
			z"/>
		<polygon class="st2" points="41.9042664,30.4784851 40.5595703,30.4784851 40.5595703,35.032196 41.9042664,35.032196 
			41.9042664,30.4784851 		"/>
		<path class="st3" d="M40.6308899,34.9599609h1.2021179v-4.4091797h-1.2021179V34.9599609L40.6308899,34.9599609z
			 M41.976593,35.1044922h-1.4893188v-4.6978149h1.4893188V35.1044922L41.976593,35.1044922z"/>
		<path class="st2" d="M44.1943054,27.1049805h-0.6435242v0.4701843h0.6435242V27.1049805L44.1943054,27.1049805z
			 M44.1943054,27.5810852h-0.6473999v2.5335999h0.6473999V27.5810852L44.1943054,27.5810852z M39.1289062,31.7489929h-0.5371094
			v2.4716797h0.5371094V31.7489929L39.1289062,31.7489929z M43.7353821,31.7489929h-0.5372009v2.4716797h0.5372009V31.7489929
			L43.7353821,31.7489929z"/>
		<path class="st3" d="M43.6221008,27.5033875h0.4999695v-0.3265991h-0.4999695V27.5033875L43.6221008,27.5033875z
			 M43.6190796,30.0424805h0.5029907v-2.3891907h-0.5029907V30.0424805L43.6190796,30.0424805z M44.1943054,30.1864929h-0.6473999
			l-0.0723267-0.0718079l0.0039062-3.0097046l0.0722961-0.0722961h0.6435242l0.0712585,0.0722961v3.0097046L44.1943054,30.1864929
			L44.1943054,30.1864929z M38.6630859,34.148407h0.3934937v-2.3271179h-0.3934937V34.148407L38.6630859,34.148407z
			 M39.1289062,34.2919617h-0.5371094l-0.0722961-0.0712891v-2.4716797l0.0722961-0.0722046h0.5371094l0.0712585,0.0722046
			v2.4716797L39.1289062,34.2919617L39.1289062,34.2919617z M43.2704773,34.148407h0.3926086v-2.3271179h-0.3926086V34.148407
			L43.2704773,34.148407z M43.7353821,34.2919617h-0.5372009l-0.0722046-0.0712891v-2.4716797l0.0722046-0.0722046h0.5372009
			l0.0722046,0.0722046v2.4716797L43.7353821,34.2919617L43.7353821,34.2919617z"/>
		<polygon class="st2" points="38.8710938,28.1264648 37.9481812,28.1264648 37.9481812,30.0820007 38.8710938,30.0820007 
			38.8710938,28.1264648 		"/>
		<path class="st3" d="M38.0253906,30.0048828h0.7684937V28.204071h-0.7684937V30.0048828L38.0253906,30.0048828z
			 M38.8710938,30.159668h-0.9229126l-0.0770874-0.0776672v-1.9555359l0.0770874-0.0776672h0.9229126l0.0770874,0.0776672v1.9555359
			L38.8710938,30.159668L38.8710938,30.159668z"/>
		<path class="st2" d="M44.5712891,26.820282v3.3076172H44.195282v-3.3164062
			C44.3300781,26.7431946,44.4580078,26.7328796,44.5712891,26.820282L44.5712891,26.820282L44.5712891,26.820282z
			 M43.5575867,30.0951843v-4.335907c-0.1846008,0-0.2138062,0.6351929-0.6367188,0.6351929
			c-0.2206726,0-0.1972656-0.2631836-0.0731812-0.477478c0.109314-0.1899109,0.2451172-0.4522095,0.0605164-0.9408875
			c-0.1260071,0.3739624-0.4657898,0.4926758-0.4033203,0.2582703c0.1074219-0.4028931,0.4188843-0.468811,0.1855164-1.0937805
			c-0.0809937,0.5209961-0.4150085,0.4985962-0.3340149,0.195282c0.0909119-0.3417664,0.280304-0.4813843,0.0469055-0.9628906
			c-0.1307983,0.5464172-0.3076172,0.5147095-0.3076172,0.175293c0-0.5013733,0.0195007-1.0424194-0.6288757-1.243103
			c0,0-0.0380859-0.4595032-0.2715149-0.4595032c-0.2344055,0-0.2723999,0.4595032-0.2723999,0.4595032
			c-0.6484985,0.2011108-0.6289978,0.7417297-0.6289978,1.243103c0,0.3394165-0.1766968,0.3716125-0.3075867-0.175293
			c-0.2333984,0.4815063-0.0439148,0.6216125,0.046875,0.9628906c0.0820312,0.3033142-0.2528992,0.3262024-0.3339844-0.195282
			c-0.2324219,0.6249695,0.0780945,0.6914062,0.1856079,1.0937805c0.063385,0.2348328-0.2763977,0.1161804-0.4034119-0.257782
			c-0.1845093,0.4881897-0.0487976,0.7504883,0.0615845,0.9408875c0.1230164,0.2142944,0.1465149,0.4775085-0.0741577,0.4775085
			c-0.4229126,0-0.4512024-0.6351929-0.6358032-0.6351929v4.3353882H43.5575867L43.5575867,30.0951843z"/>
		<path class="st3" d="M42.5692749,25.293457L42.5692749,25.293457L42.5692749,25.293457L42.5692749,25.293457z
			 M39.8203125,25.293457L39.8203125,25.293457L39.8203125,25.293457L39.8203125,25.293457z M38.9042664,25.9247742v4.0986328
			h4.5811462v-4.0991211c-0.0166321,0.030304-0.0323181,0.0620117-0.0440063,0.0878906
			c-0.0928345,0.1918945-0.2207336,0.4541016-0.5205383,0.4541016c-0.0917664,0-0.164093-0.0375977-0.204071-0.1064148
			c-0.0762024-0.132782-0.0147095-0.3344727,0.0683899-0.4785767c0.0809937-0.1410828,0.1992188-0.3442078,0.1102905-0.707489
			c-0.1123047,0.1821899-0.2724915,0.2787781-0.3789062,0.2470703c-0.0604858-0.0185852-0.1142883-0.0820007-0.0810852-0.2050781
			c0.0362244-0.1357117,0.0948181-0.2362976,0.1455994-0.3251953c0.0820007-0.1416016,0.1502991-0.2601929,0.109314-0.4887085
			c-0.0487976,0.1087952-0.1162109,0.1835022-0.1953125,0.2103882c-0.0605164,0.0210266-0.1200867,0.0097961-0.1639709-0.0307922
			c-0.0586243-0.0545959-0.0752258-0.1508179-0.0450134-0.2640991c0.0234985-0.0863953,0.0527954-0.1611023,0.0791016-0.2276001
			c0.0625-0.1595764,0.1113892-0.2846069,0.0488892-0.4960022c-0.0683899,0.191803-0.1503906,0.2826843-0.2411804,0.2723999
			c-0.0557251-0.0068054-0.1485291-0.0566101-0.1485291-0.3182983v-0.0419922c0-0.4898071,0.0010071-0.9526978-0.5791016-1.131897
			l-0.0469055-0.0140991l-0.0039062-0.0484009c-0.0106812-0.1289062-0.0731812-0.3940125-0.1991882-0.3940125
			c-0.1268921,0-0.1893921,0.2651062-0.2001953,0.3940125l-0.0039062,0.0484009l-0.046875,0.0140991
			c-0.5800171,0.1796875-0.5791016,0.6420898-0.5791016,1.1322937l0.0009766,0.0419922
			c0,0.2612915-0.093689,0.311615-0.1494141,0.3179016c-0.0907898,0.0116882-0.1728821-0.0805969-0.2411804-0.2723999
			c-0.0625,0.2113953-0.0137024,0.3364258,0.0487976,0.4960022c0.0263977,0.0664978,0.0556946,0.1412048,0.0780945,0.2276001
			c0.031311,0.1132812,0.0147095,0.2095032-0.0438843,0.2640991c-0.0440063,0.0410767-0.1034851,0.0523071-0.1641235,0.031311
			c-0.0780945-0.0274048-0.1464844-0.101593-0.195282-0.210907c-0.0410156,0.2290039,0.0274048,0.3475952,0.1094055,0.4891968
			c0.0517883,0.0888977,0.109375,0.1894836,0.1465149,0.324707c0.032196,0.1230774-0.0205078,0.1869812-0.0821228,0.2050781
			c-0.1044006,0.0322266-0.265625-0.0648804-0.3778992-0.2470703c-0.0888062,0.362793,0.0282898,0.5668945,0.1094055,0.7079773
			c0.0840149,0.144104,0.1455078,0.3453064,0.0683899,0.4780884c-0.039093,0.0688171-0.1123962,0.1069031-0.204071,0.1069031
			c-0.2999268,0-0.4268188-0.262207-0.5196228-0.4541016C38.9364624,25.9867859,38.9208984,25.9545898,38.9042664,25.9247742
			L38.9042664,25.9247742z M38.7606812,30.1674805v-4.4794922h0.0723267c0.1181641,0,0.1767578,0.1210938,0.2450867,0.2616882
			c0.0849915,0.175293,0.1806946,0.3735352,0.3907166,0.3735352c0.0594788,0,0.0741577-0.0253296,0.0799561-0.0351562
			c0.0362244-0.0624695,0.0069275-0.2035828-0.0682678-0.3344727c-0.1006165-0.1743164-0.2686157-0.4657898-0.0664062-1.0023804
			l0.0712891-0.1880188l0.0643921,0.1903992c0.0732117,0.2182922,0.2178345,0.3213196,0.2715149,0.3295898
			c-0.0009766-0.0062866-0.0019836-0.0161133-0.0059204-0.0297852c-0.031189-0.1177063-0.0820007-0.2055054-0.1307678-0.2904968
			c-0.1153259-0.1987-0.2246094-0.3866882-0.0527954-0.8477173l0.0966797-0.257782l0.0420227,0.2720032
			c0.0370789,0.2406921,0.1278687,0.332489,0.1708679,0.3471985c0.0137329,0.0047913,0.0176086,0.0009155,0.0186157,0
			c0.0116882-0.0108032,0.0223694-0.0523071,0.0039062-0.1221313c-0.0205078-0.0785828-0.0479126-0.1464844-0.0733032-0.2118835
			c-0.085907-0.2187805-0.1601257-0.407196,0.031311-0.8008118l0.0878906-0.1815796l0.0467834,0.1961975
			c0.0586243,0.2466125,0.1163025,0.3305969,0.1416016,0.3569946c0.0097961-0.0230103,0.0235291-0.0741882,0.0235291-0.1651001
			v-0.0419922c0-0.4848328-0.0010376-1.0335999,0.6356812-1.2547913c0.0176086-0.1343079,0.0888977-0.4776001,0.3378906-0.4776001
			s0.3193054,0.3432922,0.3368835,0.4776001c0.6367188,0.2211914,0.6367188,0.7694702,0.6358032,1.2547913v0.0415955
			c0,0.0913086,0.0136108,0.1419983,0.0244141,0.1654968c0.0244141-0.0263977,0.0820007-0.1103821,0.1416016-0.3573914
			l0.0469055-0.1958008l0.0869141,0.1810913c0.1914062,0.394104,0.1171875,0.5825195,0.0311584,0.8013
			c-0.0262756,0.0653992-0.0526733,0.1333008-0.0731812,0.2118835c-0.0185852,0.0693359-0.007782,0.1108093,0.0039062,0.1221313
			c0.0010071,0.0009155,0.0048828,0.0047913,0.0184937,0c0.0429993-0.0147095,0.1338196-0.1065063,0.1708984-0.3471985
			l0.0430298-0.2720032l0.0956726,0.257782c0.1719055,0.4605103,0.0625305,0.6485291-0.0516663,0.8471985
			c-0.0498047,0.0855103-0.1006165,0.1733093-0.1319275,0.2905273c-0.0039062,0.0136719-0.0049133,0.0234985-0.0049133,0.0302734
			c0.0537109-0.0082703,0.1973267-0.1112976,0.2705078-0.3301086l0.0645142-0.1903992l0.0712891,0.1885376
			c0.1864929,0.495575,0.0644226,0.7767639-0.0653992,1.0018921c-0.0762024,0.1313782-0.1044922,0.2719727-0.0684204,0.3349609
			c0.0049438,0.0093384,0.0195312,0.034729,0.0791016,0.034729c0.210022,0,0.3057251-0.1983032,0.390625-0.3731079
			c0.0684204-0.1405945,0.1270142-0.262207,0.2460938-0.262207h0.0713196v4.4794922L38.7606812,30.1674805L38.7606812,30.1674805z
			 M44.2666016,30.0561829h0.2323914v-3.1983032c-0.0477905-0.0278015-0.1200867-0.0463867-0.2323914,0V30.0561829
			L44.2666016,30.0561829z M44.6426086,30.2001648h-0.5196228v-3.4325867l0.0391235-0.019989
			c0.1737671-0.0874329,0.3261719-0.0821228,0.453064,0.0155945l0.0274353,0.0214844V30.2001648L44.6426086,30.2001648z"/>
		<path class="st2" d="M38.0917969,27.9706726v2.1582031h-0.3046875v-2.1635742
			C37.8817749,27.9208679,38.0116882,27.9135742,38.0917969,27.9706726L38.0917969,27.9706726z M44.5585938,28.9608765
			c-0.4658203,0.2383118-0.9277039,0.514679-1.0448914,1.167511h1.0448914V28.9608765L44.5585938,28.9608765z"/>
		<path class="st3" d="M43.6025085,30.0565796h0.8847961v-0.9769897
			C44.0830078,29.2943726,43.7245789,29.5482788,43.6025085,30.0565796L43.6025085,30.0565796z M44.6308899,30.2006836h-1.2032166
			l0.0157166-0.0849915c0.1211243-0.6758118,0.6015015-0.9726257,1.0829773-1.2187195l0.1045227-0.0531921V30.2006836
			L44.6308899,30.2006836z M37.8594055,30.0570984h0.1600647v-2.0434265
			c-0.0438843-0.0166016-0.1034851-0.0161133-0.1600647,0.0009155V30.0570984L37.8594055,30.0570984z M38.164093,30.2012024
			h-0.4493103v-2.2818298l0.0420227-0.0189819c0.1044617-0.0493164,0.2675781-0.0664062,0.3769836,0.0116882l0.030304,0.0215149
			V30.2012024L38.164093,30.2012024z"/>
		<path class="st2" d="M37.7861023,28.9442749c0.4667969,0.2383118,0.9286804,0.5147095,1.0449829,1.1679993h-1.0449829V28.9442749
			L37.7861023,28.9442749z"/>
		<path class="st3" d="M37.8583679,30.039978h0.8847961c-0.1220703-0.5083008-0.4804993-0.7621765-0.8847961-0.9769897V30.039978
			L37.8583679,30.039978z M38.9169922,30.184082h-1.2030945v-1.3569946l0.1054077,0.0532837
			c0.4814758,0.2460938,0.9619751,0.5429077,1.0829773,1.2192078L38.9169922,30.184082L38.9169922,30.184082z"/>
		<path class="st2" d="M40.8690796,23.9032898l-0.2713928-0.2285156v-0.2924805
			c0.0995789,0.0097656,0.1532898,0.0434875,0.2275085,0.1401672c0.0624695-0.1943665,0.1991882-0.3452759,0.3837891-0.4394836
			c0.1835938,0.0942078,0.3213196,0.2388,0.3838196,0.4326172c0.0731812-0.0967102,0.1278687-0.1235352,0.2264709-0.1333008
			v0.2924805l-0.2713928,0.2285156H40.8690796L40.8690796,23.9032898z"/>
		<path class="st3" d="M40.8955078,23.8310852h0.6259766l0.2265015-0.1900024v-0.1704102
			c-0.0332031,0.0147095-0.0614929,0.0400391-0.0986023,0.0884094l-0.0829773,0.1094055l-0.0420227-0.1308899
			c-0.0508118-0.1582031-0.157196-0.2837219-0.3153992-0.3730164c-0.1552734,0.0883179-0.2636719,0.2192078-0.3153992,0.3798218
			l-0.0429993,0.1308899l-0.0830078-0.1094055c-0.0380859-0.0498047-0.0663757-0.0771179-0.0976868-0.092804v0.1679993
			L40.8955078,23.8310852L40.8955078,23.8310852z M41.5741882,23.9750671h-0.7304077l-0.3183899-0.2670898v-0.4052734
			l0.0791016,0.007782c0.0809937,0.0079041,0.1395874,0.0307922,0.1962891,0.0795898
			c0.0780945-0.1576843,0.2060242-0.2845764,0.375-0.3710938l0.0332031-0.0169983l0.0322266,0.0169983
			c0.1708679,0.0870056,0.2987976,0.2119751,0.375,0.3652954c0.0546875-0.0449219,0.1132812-0.0654907,0.1962891-0.0737915
			l0.0791016-0.007782v0.4052734L41.5741882,23.9750671L41.5741882,23.9750671z"/>
		<path class="st2" d="M40.7245789,24.6357117l-0.1268921-0.2734375v-0.3804016
			c0.0995789,0.0098267,0.1543274,0.0444946,0.2275085,0.1420898c0.0624695-0.1967773,0.1991882-0.3500977,0.3837891-0.445282
			c0.1846313,0.0951843,0.3213196,0.2421875,0.3838196,0.4384766c0.0731812-0.097168,0.1278687-0.1249695,0.227478-0.1352844
			v0.3809204l-0.1268921,0.2729187H40.7245789L40.7245789,24.6357117z"/>
		<path class="st3" d="M40.7704773,24.5639648h0.8770142l0.1004944-0.2172852v-0.2753906
			c-0.0332031,0.0145874-0.0605164,0.0400085-0.0975952,0.0892944l-0.0839844,0.1109009l-0.0420227-0.1323242
			c-0.0508118-0.160675-0.157196-0.2880554-0.3153992-0.378479c-0.1552734,0.089386-0.2636719,0.2221985-0.3153992,0.3852844
			l-0.0419922,0.1328125l-0.0840149-0.1112976c-0.0380859-0.0508118-0.0663757-0.078125-0.0976868-0.0942688v0.273468
			L40.7704773,24.5639648L40.7704773,24.5639648z M41.7392883,24.7079773l-1.0605774-0.0004883l-0.1523132-0.3452148v-0.4599915
			l0.0791016,0.0079041c0.0799866,0.0083008,0.1395874,0.031189,0.1962891,0.0804749
			c0.0780945-0.1586609,0.2080078-0.2894897,0.3739929-0.3759766l0.0332031-0.0169983l0.0332031,0.0169983
			c0.1698914,0.0884094,0.297821,0.2149048,0.375,0.370697c0.0537109-0.0454712,0.1123047-0.0664978,0.1953125-0.0747986
			l0.0791016-0.0078125l-0.0059204,0.4903259L41.7392883,24.7079773L41.7392883,24.7079773z"/>
		<path class="st2" d="M40.7051086,25.6288757l-0.4042969-0.4921875v-0.4858093
			c0.1473694,0.0166016,0.2284851,0.0751953,0.3378601,0.2406921c0.0927124-0.3329773,0.2958984-0.4057922,0.5703125-0.5673828
			c0.2733765,0.1615906,0.4765015,0.2227173,0.5693054,0.5552063c0.1094055-0.1650085,0.1904907-0.2119141,0.3378906-0.2285156
			v0.4858093l-0.4042969,0.4921875H40.7051086L40.7051086,25.6288757z"/>
		<path class="st3" d="M40.7392883,25.5570984h0.9393921l0.3652039-0.4463196v-0.3739929
			c-0.0760803,0.0214844-0.1297913,0.0673828-0.2049866,0.1820984l-0.0869141,0.131897l-0.0419922-0.1519165
			c-0.0704041-0.2518921-0.2071228-0.3270874-0.4130859-0.441864c-0.0283203-0.015625-0.0576172-0.0322266-0.0879211-0.0498047
			c-0.0243835,0.0137024-0.046875,0.026886-0.069397,0.0395813c-0.2167053,0.1224976-0.3592834,0.2035828-0.4325867,0.4638062
			L40.664978,25.0625l-0.0868835-0.1313171c-0.0742188-0.112793-0.1289062-0.1669922-0.2051086-0.1923828v0.3719788
			L40.7392883,25.5570984L40.7392883,25.5570984z M41.7460938,25.7012024h-1.0752258l-0.4423828-0.5391235V24.570282
			l0.0801086,0.0088196c0.1299133,0.014679,0.218689,0.0585938,0.3075867,0.1620789
			c0.0996094-0.2197266,0.2655945-0.3134766,0.4522095-0.4194031c0.0332031-0.019104,0.0682983-0.0386047,0.1034851-0.0596008
			l0.0371094-0.0214844l0.0361023,0.0214844c0.0419922,0.0249023,0.0830078,0.0479126,0.1221008,0.0693054
			c0.1787109,0.0991821,0.3369141,0.1871033,0.4346008,0.3989868c0.0848999-0.0947571,0.1737976-0.1362915,0.305603-0.1513672
			L42.1875,24.570282v0.5917969L41.7460938,25.7012024L41.7460938,25.7012024z"/>
		<path class="st2" d="M40.5858765,26.6044617c0,0-0.4696655-0.410675-0.4979858-0.6356812v-0.5195923
			c0.1825867,0.0209961,0.3544922,0.0683899,0.4891968,0.2817993c0.1152954-0.4296875,0.2940063-0.5498047,0.6308899-0.7583313
			c0.3379211,0.2085266,0.5166321,0.3286438,0.6318054,0.7583313c0.1347961-0.2134094,0.3067017-0.2608032,0.4892883-0.2817993
			v0.519104c-0.0595703,0.2250977-0.4979858,0.6356812-0.4979858,0.6356812L40.5858765,26.6044617L40.5858765,26.6044617z"/>
		<path class="st3" d="M40.1601868,25.532196v0.4365845c0.0166016,0.1297913,0.2783203,0.4077148,0.4530945,0.5639038
			l1.1885071-0.0005188c0.1278992-0.1224976,0.4062195-0.4125671,0.4550171-0.5737V25.532196
			c-0.1464233,0.0278625-0.2607117,0.0859985-0.3564148,0.2373047L41.8125,25.9086609l-0.0430298-0.1591797
			c-0.1014709-0.3818054-0.2479858-0.4974976-0.5614929-0.6918945c-0.3124695,0.1948242-0.4589844,0.3100891-0.5614929,0.6918945
			l-0.0419922,0.1591797l-0.0878906-0.1391602C40.4208984,25.6181946,40.3065796,25.5600586,40.1601868,25.532196
			L40.1601868,25.532196z M40.5595703,26.6762695l-0.0204773-0.0176086
			c-0.0498047-0.0439758-0.492218-0.4355774-0.5224915-0.6811523l-0.0010071-0.6093445l0.0810852,0.0097046
			c0.1562195,0.0180969,0.3174133,0.0572205,0.4521179,0.1997375c0.1210938-0.3432312,0.3066711-0.4712219,0.6221008-0.6660156
			l0.0370789-0.023407l0.0381165,0.023407c0.3153687,0.1947937,0.5,0.3227844,0.6210938,0.6660156
			c0.1357117-0.1425171,0.2969055-0.1816406,0.4530945-0.2002258l0.0801086-0.0092163l-0.0019836,0.6181335
			c-0.0625305,0.2387695-0.4726257,0.6269836-0.5184937,0.6703796l-0.0205078,0.0195923H40.5595703L40.5595703,26.6762695z"/>
		<path class="st2" d="M40.3856812,28.405304c0,0-0.6444702-0.7134094-0.6590881-0.9912109v-0.8101196
			c0.2411804,0.0336914,0.4687195,0.1991882,0.6473999,0.5317078c0.1513977-0.6698914,0.3876953-1.1376953,0.8339844-1.4624023
			c0.4463196,0.324707,0.6836243,0.792511,0.835022,1.4629211c0.1776733-0.3330383,0.406189-0.4990234,0.6473999-0.5322266
			v0.8101196c-0.046814,0.2778015-0.6591187,0.9912109-0.6591187,0.9912109H40.3856812L40.3856812,28.405304z"/>
		<path class="st3" d="M39.7987976,26.6929016v0.7211914c0.0087891,0.1747742,0.3760071,0.6463928,0.6192017,0.9194031
			l1.5799866-0.0005188c0.179718-0.2124023,0.5879211-0.727478,0.6210938-0.9310913l-0.000885-0.7095032
			c-0.1983337,0.0570984-0.375,0.2207031-0.5126953,0.4775085l-0.0909119,0.1698914l-0.0419006-0.1878967
			c-0.1524048-0.674408-0.3829041-1.093811-0.7647095-1.3887024c-0.3818054,0.2948914-0.6112671,0.7138977-0.7645874,1.3887024
			l-0.0420227,0.1878967l-0.0908813-0.1698914C40.1728821,26.9130859,39.9970703,26.75,39.7987976,26.6929016L39.7987976,26.6929016
			z M40.3534851,28.4770813l-0.0214844-0.0234985c-0.0674133-0.0751953-0.6611023-0.7406921-0.6777344-1.0355835v-0.8965149
			l0.0820007,0.0112c0.2344055,0.0327148,0.4424133,0.1757812,0.608429,0.4174805
			c0.1669922-0.6366882,0.4179993-1.0415039,0.8212891-1.3354797l0.0419922-0.0307007L41.25,25.6146851
			c0.4042969,0.2939758,0.6542664,0.6987915,0.8212891,1.3354797c0.1669922-0.2416992,0.375-0.3852539,0.609375-0.4174805
			l0.0810242-0.0112v0.8926086c-0.0487976,0.3006897-0.6123047,0.9632874-0.6766968,1.0379944l-0.0215149,0.0249939H40.3534851
			L40.3534851,28.4770813z"/>
		<path class="st2" d="M40.3856812,29.4701843c0,0-0.5506897-0.5605164-0.6590881-0.8037109v-0.8100891
			c0.2411804,0.0336914,0.4687195,0.1993103,0.6473999,0.5317993c0.1513977-0.6698914,0.3876953-1.0536804,0.8339844-1.3789062
			c0.4463196,0.3252258,0.6836243,0.7090149,0.835022,1.3793945c0.1776733-0.3329773,0.406189-0.4990845,0.6473999-0.5322876
			v0.8100891c-0.1395874,0.2431946-0.6591187,0.8037109-0.6591187,0.8037109H40.3856812L40.3856812,29.4701843z"/>
		<path class="st3" d="M39.7987976,28.6503906c0.0917969,0.1875,0.4560852,0.582489,0.6171875,0.7479858h1.5830078
			c0.0956726-0.1048889,0.4902954-0.5389709,0.6192017-0.7519226v-0.7016602
			c-0.1983337,0.0571899-0.375,0.2206726-0.5126953,0.4775696l-0.0909119,0.1704407l-0.0419006-0.1885376
			c-0.140686-0.6239929-0.3574829-0.9950867-0.7647095-1.3056641c-0.407196,0.3100586-0.6229858,0.6811829-0.7645874,1.3056641
			l-0.0420227,0.1879883l-0.0908813-0.1698914c-0.1376038-0.256897-0.3134155-0.4199829-0.5116882-0.4770813V28.6503906
			L39.7987976,28.6503906z M40.3554993,29.5424805l-0.0215149-0.0215149
			c-0.0224915-0.023407-0.5605774-0.5727844-0.6728821-0.8251953l-0.0068359-0.0292969v-0.8925781l0.0820007,0.011261
			c0.2344055,0.0327454,0.4424133,0.176239,0.6094055,0.4179382c0.155304-0.5820312,0.3945312-0.9418945,0.8203125-1.2519226
			l0.0419922-0.0307922L41.25,26.9511719c0.4267883,0.3105164,0.6650085,0.6698914,0.8212891,1.2519226
			c0.1660156-0.2421875,0.3740234-0.3857117,0.609375-0.4179382l0.0810242-0.011261v0.9115906l-0.0097046,0.0166016
			c-0.1416016,0.2475891-0.6464844,0.7939758-0.6679993,0.8168945l-0.0215149,0.0230103L40.3554993,29.5424805
			L40.3554993,29.5424805z"/>
		<path class="st2" d="M40.164093,30.0893555c0.1600952-0.6997681,0.2987976-1.2182617,1.0731812-1.7441711
			c0.773407,0.5259094,0.9121094,1.0444031,1.0732117,1.7441711H40.164093L40.164093,30.0893555z"/>
		<path class="st3" d="M40.2548828,30.0170898h1.9648132c-0.1562195-0.6660156-0.3115234-1.1152039-0.9824219-1.5845032
			C40.5653687,28.901886,40.4111023,29.3510742,40.2548828,30.0170898L40.2548828,30.0170898z M42.4003906,30.1611023h-2.3272095
			l0.0205994-0.0879211c0.1513062-0.6600952,0.2832336-1.2304077,1.1025085-1.7875977l0.0409851-0.0273132l0.0400085,0.0273132
			c0.8204041,0.5571899,0.9512024,1.1275024,1.1026001,1.7875977L42.4003906,30.1611023L42.4003906,30.1611023z"/>
		<path class="st2" d="M39.765564,30.4784851v-1.0126953c0.3516235,0.1376953,0.6690369,0.3413086,0.7862244,0.5683899
			c0.1307983-0.5625,0.382782-0.8100891,0.6972046-1.1504211c0.3145142,0.340332,0.5243835,0.5879211,0.6552734,1.1504211
			c0.117218-0.2270813,0.4346313-0.4306946,0.7861328-0.5683899v1.0126953H39.765564L39.765564,30.4784851z"/>
		<path class="st3" d="M39.8368835,30.4066772h2.782196v-0.8334961c-0.3222046,0.140686-0.5614929,0.3218079-0.6512756,0.4937134
			l-0.0889282,0.1737976l-0.0448914-0.1903992c-0.1192017-0.5117188-0.3026733-0.7505188-0.5849915-1.0606079
			c-0.2842102,0.3062134-0.5078125,0.5488892-0.6268921,1.0606079l-0.0450134,0.1903992l-0.0887756-0.1737976
			c-0.0889282-0.1719055-0.3291321-0.3530273-0.6514282-0.4937134V30.4066772L39.8368835,30.4066772z M42.7626648,30.5507812
			h-3.0692749v-1.1903992l0.0975952,0.0379944c0.3252258,0.1275024,0.5820007,0.292511,0.7315063,0.4668274
			c0.1357117-0.449707,0.3631897-0.6948242,0.6220093-0.9751282l0.1044922-0.112793l0.0527954,0.0577087
			c0.2987976,0.3237,0.4990234,0.5664062,0.6328125,1.0292969c0.1493835-0.1739197,0.4051819-0.3384094,0.7304077-0.4659119
			l0.0976562-0.0379944V30.5507812L42.7626648,30.5507812z"/>
		<path class="st2" d="M48.3778992,40.6063843v0.0029907H11.6229858v-0.0029907h-0.968689v1.8740845h38.6913757v-1.8740845
			H48.3778992L48.3778992,40.6063843z M11.6225891,38.7323914l0.0003967,1.8739929h36.7549133l-0.0009155-1.8739929H11.6225891
			L11.6225891,38.7323914z M46.4462891,37.1308594l-32.8935852,0.008728l-0.9614258-0.008728v1.5908203h34.816925v-1.5908203
			H46.4462891L46.4462891,37.1308594z M13.5527039,35.9247742v1.2060852h32.8935852v-1.2060852H13.5527039L13.5527039,35.9247742z
			 M14.1273804,34.9911804v0.9248047h31.7447205v-0.9248047H14.1273804L14.1273804,34.9911804z"/>
		<path class="st3" d="M14.1991882,35.8437805h31.6006165v-0.781311l-31.6006165,0.0010071V35.8437805L14.1991882,35.8437805z
			 M13.6245117,37.0585938h32.7504578v-1.0625H13.6245117V37.0585938L13.6245117,37.0585938z M12.6630859,38.6503906h34.6737976
			v-1.4472961l-0.8905945-0.0010071l-32.8935852,0.0097961l-0.8896179-0.0087891V38.6503906L12.6630859,38.6503906z
			 M11.6947632,40.5341797h36.6109009v-1.7304993H11.6942749L11.6947632,40.5341797L11.6947632,40.5341797z M10.7261047,42.4081726
			h38.5472717v-1.7294922H10.7261047V42.4081726L10.7261047,42.4081726z M49.4179993,42.5527039H10.5820007v-2.0185242h0.9687805
			v-1.8740234h0.9682007v-1.6025696l0.9620056,0.0097961V35.852478h0.574707v-0.9335938h31.8885803v0.9335938h0.5743103v1.2061157
			h0.9619141v1.6015625h0.968689v1.8740234h0.968811V42.5527039L49.4179993,42.5527039z"/>
		<polygon class="st2" points="17.5727844,34.9960938 19.9706726,34.9960938 19.9706726,42.476593 17.5727844,42.476593 
			17.5727844,34.9960938 		"/>
		<path class="st3" d="M17.6513977,42.398407h2.2412109v-7.3242188h-2.2412109V42.398407L17.6513977,42.398407z
			 M20.0487671,42.5546875h-2.5541687v-7.6376953h2.5541687V42.5546875L20.0487671,42.5546875z"/>
		<polygon class="st2" points="18.1034851,34.9960938 19.4389954,34.9960938 19.4389954,42.476593 18.1034851,42.476593 
			18.1034851,34.9960938 		"/>
		<path class="st3" d="M18.1811829,42.398407h1.1796265v-7.3242188h-1.1796265V42.398407L18.1811829,42.398407z
			 M19.5170898,42.5546875h-1.4921875v-7.6366882h1.4921875V42.5546875L19.5170898,42.5546875z"/>
		<polygon class="st2" points="28.7597961,34.9960938 31.1581726,34.9960938 31.1581726,42.476593 28.7597961,42.476593 
			28.7597961,34.9960938 		"/>
		<path class="st3" d="M28.8378906,42.398407h2.2411804v-7.3242188h-2.2411804V42.398407L28.8378906,42.398407z
			 M31.2362976,42.5546875h-2.5546875v-7.6376953h2.5546875V42.5546875L31.2362976,42.5546875z"/>
		<polygon class="st2" points="29.3065796,34.9960938 30.6425781,34.9960938 30.6425781,42.476593 29.3065796,42.476593 
			29.3065796,34.9960938 		"/>
		<path class="st3" d="M29.3847961,42.398407h1.1796875v-7.3242188h-1.1796875V42.398407L29.3847961,42.398407z
			 M30.7207031,42.5546875h-1.492218v-7.6366882h1.492218V42.5546875L30.7207031,42.5546875z"/>
		<polygon class="st2" points="40.0126953,34.9960938 42.4101868,34.9960938 42.4101868,42.476593 40.0126953,42.476593 
			40.0126953,34.9960938 		"/>
		<path class="st3" d="M40.0907898,42.398407h2.2411804v-7.3242188h-2.2411804V42.398407L40.0907898,42.398407z
			 M42.4882812,42.5546875h-2.5536804v-7.6376953h2.5536804V42.5546875L42.4882812,42.5546875z"/>
		<polygon class="st2" points="40.5429993,34.9960938 41.8788757,34.9960938 41.8788757,42.476593 40.5429993,42.476593 
			40.5429993,34.9960938 		"/>
		<path class="st3" d="M40.6210938,42.398407h1.179718v-7.3242188h-1.179718V42.398407L40.6210938,42.398407z
			 M41.9569702,42.5546875h-1.4921875v-7.6366882h1.4921875V42.5546875L41.9569702,42.5546875z"/>
		<path class="st3" d="M44.4794922,34.3065796h-28.925293v-0.1445007h28.925293V34.3065796L44.4794922,34.3065796z
			 M30.6021118,35.9892883h-1.2896423V35.844696h1.2896423V35.9892883L30.6021118,35.9892883z M19.464386,35.9902039h-1.3852844
			v-0.1435242h1.3852844V35.9902039L19.464386,35.9902039z M41.9042664,35.9902039h-1.3856812v-0.1435242h1.3856812V35.9902039
			L41.9042664,35.9902039z M30.6021118,36.9257812h-1.2896423V36.782196h1.2896423V36.9257812L30.6021118,36.9257812z
			 M19.464386,36.9267883h-1.3852844v-0.1436157h1.3852844V36.9267883L19.464386,36.9267883z M41.9042664,36.9267883h-1.3856812
			v-0.1436157h1.3856812V36.9267883L41.9042664,36.9267883z M30.6021118,37.8632812h-1.2896423v-0.1445007h1.2896423V37.8632812
			L30.6021118,37.8632812z M19.464386,37.8632812h-1.3852844V37.719696h1.3852844V37.8632812L19.464386,37.8632812z
			 M41.9042664,37.8632812h-1.3856812V37.719696h1.3856812V37.8632812L41.9042664,37.8632812z M19.464386,38.7997742h-1.3852844
			v-0.1445007h1.3852844V38.7997742L19.464386,38.7997742z M30.6021118,38.7997742h-1.2896423v-0.1445007h1.2896423V38.7997742
			L30.6021118,38.7997742z M41.9042664,38.7997742h-1.3856812v-0.1445007h1.3856812V38.7997742L41.9042664,38.7997742z
			 M19.464386,39.7362671h-1.3852844v-0.1445007h1.3852844V39.7362671L19.464386,39.7362671z M41.9042664,39.7362671h-1.3856812
			v-0.1445007h1.3856812V39.7362671L41.9042664,39.7362671z M30.6021118,39.7362671h-1.2896423v-0.1434937h1.2896423V39.7362671
			L30.6021118,39.7362671z M19.464386,40.6719055h-1.3852844v-0.1436157h1.3852844V40.6719055L19.464386,40.6719055z
			 M41.9042664,40.6719055h-1.3856812v-0.1436157h1.3856812V40.6719055L41.9042664,40.6719055z M30.6021118,40.6737671h-1.2896423
			v-0.1445007h1.2896423V40.6737671L30.6021118,40.6737671z M19.464386,41.6083679h-1.3852844v-0.1435852h1.3852844V41.6083679
			L19.464386,41.6083679z M41.9042664,41.6083679h-1.3856812v-0.1435852h1.3856812V41.6083679L41.9042664,41.6083679z
			 M30.6021118,41.6103821h-1.2896423v-0.1445923h1.2896423V41.6103821L30.6021118,41.6103821z"/>
	</g>
</g>
</svg>
