<?xml version="1.0" encoding="utf-8"?>
<!-- Generator: Adobe Illustrator 22.1.0, SVG Export Plug-In . SVG Version: 6.00 Build 0)  -->
<svg version="1.1" id="Layer_1" xmlns="http://www.w3.org/2000/svg" xmlns:xlink="http://www.w3.org/1999/xlink" x="0px" y="0px"
	 viewBox="0 0 60 60" style="enable-background:new 0 0 60 60;" xml:space="preserve">
<style type="text/css">
	.st0{clip-path:url(#SVGID_2_);fill:#D52E1E;}
	.st1{clip-path:url(#SVGID_2_);fill:#FFFFFF;}
</style>
<g id="XMLID_1_">
	<g>
		<defs>
			<path id="SVGID_1_" d="M59,60H0.9999695C0.4477234,60,0,59.5526733,0,59V0.9999695c0-0.5522461,0.4477234-1,0.9999695-1H59
				c0.5526886,0,0.9999847,0.4477539,0.9999847,1V59C59.9999847,59.5526733,59.5526886,60,59,60L59,60z"/>
		</defs>
		<clipPath id="SVGID_2_">
			<use xlink:href="#SVGID_1_"  style="overflow:visible;"/>
		</clipPath>
		<polygon class="st0" points="-7.453125,-0.0000305 11.273407,-0.0000305 12.0458984,1.2372742 47.954071,1.2372742 
			48.726593,-0.0000305 67.4530792,-0.0000305 67.4530792,60 48.726593,60 47.954071,58.7626953 12.0458984,58.7626953 
			11.273407,60 -7.453125,60 -7.453125,-0.0000305 		"/>
		<path class="st1" d="M30.7020874,45.8397827l-0.3510132-6.734314c-0.019104-0.4081726,0.2973022-0.7558899,0.7065125-0.7743835
			c0.0536804-0.0020142,0.1065063,0.0009155,0.1591797,0.0097046l6.7030945,1.1786804l-0.9052734-2.4970093
			c-0.0751038-0.204071-0.0125732-0.4326782,0.156311-0.5693665l7.3417969-5.9458008l-1.6542969-0.7724304
			c-0.2305298-0.109375-0.3447266-0.3735657-0.2646179-0.6166992l1.4511108-4.4628601l-4.2295227,0.8968811
			c-0.2362671,0.049408-0.4735718-0.074707-0.5692749-0.2962952l-0.8193054-1.9273071l-3.3008118,3.5424805
			c-0.1923828,0.203125-0.5137024,0.2119141-0.7167664,0.019043c-0.1250305-0.1191406-0.1817017-0.2939148-0.1485291-0.4638062
			l1.5909119-8.2085266l-2.5508118,1.4746094c-0.2421875,0.1421204-0.5527954,0.0604858-0.694397-0.1806946
			c-0.0057983-0.0097046-0.0106812-0.0195007-0.0155945-0.0298157L30,14.3944702l-2.590332,5.0874023
			c-0.1254578,0.2505188-0.4301758,0.3520813-0.6806641,0.2266235c-0.0101929-0.0049133-0.0200195-0.0103149-0.0298157-0.0161133
			l-2.5513-1.4746094L25.7396851,26.4263c0.0527954,0.2753906-0.1268921,0.5409851-0.4022827,0.593689
			c-0.1698914,0.0327148-0.3447266-0.023407-0.4639282-0.1489258l-3.300293-3.5424805l-0.8192749,1.9273071
			c-0.0952148,0.2215881-0.3335266,0.3457031-0.5697937,0.2962952l-4.2290039-0.8968811l1.4511719,4.4628601
			c0.0795288,0.2431335-0.0341797,0.5073242-0.2651978,0.6166992l-1.6542969,0.7724304l7.3422852,5.9458008
			c0.1689148,0.1366882,0.2314148,0.3652954,0.156311,0.5693665l-0.905304,2.4970093l6.7026062-1.1786804
			c0.4032898-0.0693054,0.7866211,0.202179,0.8565063,0.6054993c0.0086975,0.0527039,0.012207,0.1064148,0.0097046,0.1591797
			l-0.3510132,6.734314H30.7020874L30.7020874,45.8397827z M11.273407-0.0000305h37.453186V60H11.273407V-0.0000305
			L11.273407-0.0000305z"/>
	</g>
</g>
</svg>
