<?xml version="1.0" encoding="utf-8"?>
<!-- Generator: Adobe Illustrator 22.1.0, SVG Export Plug-In . SVG Version: 6.00 Build 0)  -->
<svg version="1.1" id="Layer_1" xmlns="http://www.w3.org/2000/svg" xmlns:xlink="http://www.w3.org/1999/xlink" x="0px" y="0px"
	 viewBox="0 0 60 60" style="enable-background:new 0 0 60 60;" xml:space="preserve">
<style type="text/css">
	.st0{clip-path:url(#SVGID_2_);fill:#FFFFFF;}
	.st1{clip-path:url(#SVGID_2_);fill:#223974;}
	.st2{clip-path:url(#SVGID_2_);fill:#2A9838;}
	.st3{clip-path:url(#SVGID_2_);fill:#FFCE05;}
	.st4{clip-path:url(#SVGID_2_);fill:#D21036;}
</style>
<g id="XMLID_1_">
	<g>
		<defs>
			<path id="SVGID_1_" d="M59,60H0.9999695C0.4477234,60,0,59.5526733,0,59V0.9999695c0-0.5522461,0.4477234-1,0.9999695-1H59
				c0.5526886,0,0.9999847,0.4477539,0.9999847,1V59C59.9999847,59.5526733,59.5526886,60,59,60L59,60z"/>
		</defs>
		<clipPath id="SVGID_2_">
			<use xlink:href="#SVGID_1_"  style="overflow:visible;"/>
		</clipPath>
		<polygon class="st0" points="-15,-0.0000305 74.9999847,-0.0000305 74.9999847,60 -15,60 -15,-0.0000305 		"/>
		<polygon class="st1" points="-15,-0.0000305 74.9999847,-0.0000305 74.9999847,14.9999695 -15,14.9999695 -15,-0.0000305 		"/>
		<polygon class="st2" points="-15,29.9999695 74.9999847,29.9999695 74.9999847,60 -15,60 -15,29.9999695 		"/>
		<polygon class="st3" points="-15,44.9999695 74.9999847,44.9999695 74.9999847,60 -15,60 -15,44.9999695 		"/>
		<polygon class="st4" points="22.5,-0.0000305 37.5,-0.0000305 37.5,60 22.5,60 22.5,-0.0000305 		"/>
		<polygon class="st3" points="7.6660156,1.4023438 9.1811218,6.0600281 14.0786133,6.0600281 10.1171875,8.9364929 
			11.6332703,13.5976868 7.6660156,10.7162781 3.6982117,13.5976868 5.2148438,8.9364929 1.2533875,6.0600281 6.1503601,6.0600281 
			7.6660156,1.4023438 		"/>
	</g>
</g>
</svg>
