<?xml version="1.0" encoding="utf-8"?>
<!-- Generator: Adobe Illustrator 22.1.0, SVG Export Plug-In . SVG Version: 6.00 Build 0)  -->
<svg version="1.1" id="Layer_1" xmlns="http://www.w3.org/2000/svg" xmlns:xlink="http://www.w3.org/1999/xlink" x="0px" y="0px"
	 viewBox="0 0 60 60" style="enable-background:new 0 0 60 60;" xml:space="preserve">
<style type="text/css">
	.st0{clip-path:url(#SVGID_2_);fill:#DF2C14;}
	.st1{clip-path:url(#SVGID_2_);fill:#FFDE0D;}
</style>
<g id="XMLID_1_">
	<g>
		<defs>
			<path id="SVGID_1_" d="M59,60H0.9999695C0.4477234,60,0,59.5526733,0,59V0.9999695c0-0.5522461,0.4477234-1,0.9999695-1H59
				c0.5526886,0,0.9999847,0.4477539,0.9999847,1V59C59.9999847,59.5526733,59.5526886,60,59,60L59,60z"/>
		</defs>
		<clipPath id="SVGID_2_">
			<use xlink:href="#SVGID_1_"  style="overflow:visible;"/>
		</clipPath>
		<polygon class="st0" points="-0.4902344,-0.0000305 89.5097961,-0.0000305 89.5097961,60 -0.4902344,60 -0.4902344,-0.0000305 		
			"/>
		<polygon class="st1" points="30.6835938,3.2392578 30.1825867,8.9233093 27.246582,4.0302734 32.4979858,6.2631531 
			26.9370117,7.5434265 30.6835938,3.2392578 		"/>
		<polygon class="st1" points="37.6630859,9.9111023 34.9950867,14.9555664 34.1884766,9.3066406 38.1611023,13.4022827 
			32.5400085,12.4242859 37.6630859,9.9111023 		"/>
		<polygon class="st1" points="38.3280945,19.9711914 33.8339844,23.4887695 35.4022827,18.0019836 37.3583984,23.3622742 
			32.625,20.1757812 38.3280945,19.9711914 		"/>
		<polygon class="st1" points="30.5678711,24.1928711 30.3031921,29.8930664 27.1669922,25.1259766 32.5068054,27.1391602 
			27.0033875,28.6488647 30.5678711,24.1928711 		"/>
		<polygon class="st1" points="14.5097961,5.9999695 16.5302734,12.2187805 23.0692749,12.2187805 17.7788086,16.0625 
			19.7997742,22.2812805 14.5097961,18.4374695 9.2197266,22.2812805 11.2401733,16.0625 5.9501953,12.2187805 
			12.4887695,12.2187805 14.5097961,5.9999695 		"/>
	</g>
</g>
</svg>
