<?xml version="1.0" encoding="utf-8"?>
<!-- Generator: Adobe Illustrator 22.1.0, SVG Export Plug-In . SVG Version: 6.00 Build 0)  -->
<svg version="1.1" id="Layer_1" xmlns="http://www.w3.org/2000/svg" xmlns:xlink="http://www.w3.org/1999/xlink" x="0px" y="0px"
	 viewBox="0 0 60 60" style="enable-background:new 0 0 60 60;" xml:space="preserve">
<style type="text/css">
	.st0{clip-path:url(#SVGID_2_);fill:#203B8F;}
	.st1{clip-path:url(#SVGID_2_);fill:#1E8B42;}
	.st2{clip-path:url(#SVGID_2_);fill:#FDC53C;}
	.st3{clip-path:url(#SVGID_2_);fill:#FFFFFF;}
</style>
<g id="XMLID_1_">
	<g>
		<defs>
			<path id="SVGID_1_" d="M59,60H0.9999695C0.4477234,60,0,59.5526733,0,59V0.9999695c0-0.5522461,0.4477234-1,0.9999695-1H59
				c0.5526886,0,0.9999847,0.4477539,0.9999847,1V59C59.9999847,59.5526733,59.5526886,60,59,60L59,60z"/>
		</defs>
		<clipPath id="SVGID_2_">
			<use xlink:href="#SVGID_1_"  style="overflow:visible;"/>
		</clipPath>
		<polygon class="st0" points="-30,-0.0000305 89.9999847,-0.0000305 89.9999847,60 -30,60 -30,-0.0000305 		"/>
		<polygon class="st1" points="-30,-0.0000305 89.9999847,-0.0000305 89.9999847,60 -30,-0.0000305 		"/>
		<path class="st2" d="M30,19.1615906c5.9862671,0,10.8388977,4.8526001,10.8388977,10.8383789
			c0,5.9862976-4.8526306,10.8389282-10.8388977,10.8389282c-5.9858093,0-10.8384094-4.8526306-10.8384094-10.8389282
			C19.1615906,24.0141907,24.0141907,19.1615906,30,19.1615906L30,19.1615906z"/>
		<path class="st1" d="M23.3808899,25.1317749c0.7412109,1.0171204,1.8646851,2.7227173,2.7684937,2.2774048
			c0.7051086,0.0024109,1.069397,0.0516968,1.1646118,0.5209961c1.6630859,0.2832031,4.4584961-0.4184875,6.1976929-2.6835938
			c0,0,0.1464844,0.0190125,0.0956726-0.8417969c0.0098267-0.375,0.5127258-0.300293,0.5254211-0.1777039
			c0.0693054,0.1859741,0.0575867,0.3251038,0.1524048,0.3300171c0.2138062-0.0713196,0.5068054-0.5517273,0.7518921-0.8564148
			c0.0664062-0.1343079,0.030304-0.2759094,0.045929-0.4453125c0.1298828-0.3179016,0.452179-0.2490845,0.5204773-0.0820923
			c0.0614929,0.1074829,0.0625,0.1900024,0.1231079,0.2973938c0.3280945,0.2192078,0.9188843,0.0147095,0.9648132,0.0147095
			c0.0585938-0.2670898,0.2304993-0.2416992,0.2304993-0.2416992c0.2186584-0.0484009,0.132782-0.0292969,0.2762756,0.0458984
			c-0.1268921,1.4403992,0.2832031,1.504303,0.249115,2.2435913c0.0145874,0.824707-0.249115,1.0596008-0.249115,1.3739929
			c0.0840149,0.3843079,1.3008118,0.3980408,0.8721008,0.7232361c-0.3760071,0.2006836,0.0010071,0.5770874-0.5643921,0.7230835
			c-1.6474915,0.8359985-1.9628906,1.5531921-1.9628906,1.5531921s-0.4141235,0.781311-0.4599915,0.781311
			c-0.2754211,0.5209961-0.6250305,0.2373047-0.8203125,0.4906921c-0.0967102,0.3193054-0.2051086,1.0274048-0.0116882,1.3955078
			c0.0966797,0.5048828-0.0127258,0.7812805-0.1328125,1.2861938c-0.1094055,1.0545959-0.5274048,1.2147827-0.5762024,1.5848999
			c-0.1933899,0.3955078,0.0410156,2.2528992-0.1426086,2.2528992c-1.2265015,0.0244751-2.1659851-0.2342834-2.6513977-0.3309937
			c0.4726868-2.0381165,0.2891235-3.828125,0.2891235-4.0117188c-0.1211243-1.4579773-2.183136-1.1034851-2.4990234-1.296875
			c-0.2612-0.0556946-0.4258118-0.2685852-0.5176086-0.3604126c-0.2915039-0.0312195-0.4003906-0.0975952-0.6918945-0.1278992
			c-0.144989,0.0722961-0.0581055,0.1474915-0.3822937,0.2481079c-0.8222961,0.0986023-1.1850891-0.717804-1.1850891-0.717804
			c0.0400696-0.2744141-1.8496094,0.0556946-2.8764343-0.1826172c-0.4208679,0.234314-0.6044617,0.9287109-0.9492798,1.0107117
			c-0.0096741,0.2158203-0.5672913-0.1758118-0.6795959-0.3876953c-0.0229797-0.6156921,0.5366211-0.8876953,0.5366211-0.8876953
			c0.445282-0.3135071,0.7089844-0.3641968,0.9227905-0.5805054c0.1078796-0.5361938,0.0532837-0.9326782,0.2822876-1.3355103
			c0.1932983-0.3070679,0.4790039-0.1635742,0.6723022-0.3013c0.2079773-0.1376953,0.2964172-1.039978,0.1039734-1.2871094
			c0,0-0.8319702-0.7509766-0.8778687-0.7967834C22.625,25.5756836,23.2128906,25.0746765,23.3808899,25.1317749
			L23.3808899,25.1317749L23.3808899,25.1317749z"/>
		<path class="st2" d="M75.3515778,11.7064819c-0.4911804-1.9433289-4.886795-6.1283875-8.1894989-8.7914734
			c-0.7890778-0.5375977-1.3026886-0.2172852-1.2001953,0.5483704c0.4111176,0.6860046,0.719696,1.4399414,1.1309052,2.125946
			c0.1152039,0.4575195,0.3320007,0.7773743,0.4463043,1.2344055c0,0,0.0340881,0.7885437,0.1034851,0.8573914
			c1.0273132,1.1318665,1.1660156,2.0917969,1.1660156,2.0917969c0.5937042,1.1430359,1.1190796,1.9775696,2.160202,2.9145813
			c1.1659851,0.7318726,0.3075867,3.0058899,0.3416901,4.2177734c0,0.765625-0.5477905,0.6748047-1.0282898,0.5830078
			c-3.7832031-3.4750977-7.5322113-3.4859009-10.8359222-4.492218c-1.2919922-0.1366882-1.3144836,0.4804993-0.8915863,0.8227234
			c2.3096008,2.4697876,4.480484,4.1495056,7.3388977,5.5552063c0.4794159,0.2973633,0.9599152,0.5951843,1.4404144,0.8926086
			c0.5477905,0.4570007,1.0966949,0.9145813,1.6444855,1.371582c1.2686005,0.8222046,1.3731079,1.5771179,1.3731079,1.644989
			c0.0340881,1.5435181-0.7901001,2.7432251-1.0293121,3.223114c-0.4326782,1.6368103-1.3027954,1.9208984-1.3027954,1.9208984
			c-7.0643921,4.7670898-10.7685089,6.0004883-22.2216034,4.5259094c-0.1719055-0.0908203-1.2686157,0.0917664,0,0.5488892
			c2.9150085,0.9716187,10.075119,2.5292969,17.0028992-0.7510071c1.6631012-1.1660156,2.7754059-0.7831726,3.9805145-1.4815063
			c1.9784851-1.2201843,4.8045807-2.7396851,5.3182983-2.9100952c1.542984-0.8237915,5.8642883-1.7489929,6.8594055-2.5727844
			c1.1415863-0.0917969,2.3270874-0.2416992,2.407196-1.2236023c0.3739777-0.2431946,0.9237976-0.0653992,1.3311005-0.8662109
			c0.906189-0.157196,0.753891-0.4814758,0.753891-0.4814758c-0.2285004-0.6396179-1.0752106-0.9033203-1.6806946-1.371521
			c-0.8926086-0.2974243-1.5088196-0.3897095-2.1611023-0.0689087c-0.2051086,0.0917969-0.4112091,0.1826172-0.6172028,0.2744141
			c0,0-0.9600067-0.1376953-0.9600067-0.2055054C75.8983765,21.7265625,76.1063843,14.6552734,75.3515778,11.7064819
			L75.3515778,11.7064819L75.3515778,11.7064819z"/>
		<polygon class="st3" points="5.590332,33.1161804 4.0605469,31.6835938 2.5116882,33.0956726 2.6777344,31.007782 
			0.6079102,30.6771851 2.3452148,29.5043945 1.3125,27.6806946 3.3125,28.3070984 4.0947266,26.3622742 4.8515625,28.316864 
			6.8598633,27.7157898 5.8037109,29.5263672 7.5253906,30.7216797 5.4516296,31.0253601 5.5907898,33.1161804 5.590332,33.1161804 
					"/>
	</g>
</g>
</svg>
