<?xml version="1.0" encoding="utf-8"?>
<!-- Generator: Adobe Illustrator 22.1.0, SVG Export Plug-In . SVG Version: 6.00 Build 0)  -->
<svg version="1.1" id="Layer_1" xmlns="http://www.w3.org/2000/svg" xmlns:xlink="http://www.w3.org/1999/xlink" x="0px" y="0px"
	 viewBox="0 0 60 60" style="enable-background:new 0 0 60 60;" xml:space="preserve">
<style type="text/css">
	.st0{clip-path:url(#SVGID_2_);fill:#0D8136;}
	.st1{clip-path:url(#SVGID_2_);fill:#FFE00A;}
	.st2{clip-path:url(#SVGID_2_);fill:#802310;}
</style>
<g id="XMLID_1_">
	<g>
		<defs>
			<path id="SVGID_1_" d="M59,60H0.9999695C0.4477234,60,0,59.5526733,0,59V0.9999695c0-0.5522461,0.4477234-1,0.9999695-1H59
				c0.5526886,0,0.9999847,0.4477539,0.9999847,1V59C59.9999847,59.5526733,59.5526886,60,59,60L59,60z"/>
		</defs>
		<clipPath id="SVGID_2_">
			<use xlink:href="#SVGID_1_"  style="overflow:visible;"/>
		</clipPath>
		<polygon class="st0" points="-15.4219055,-0.1474609 78.8280945,-0.1474609 78.8280945,60.1474609 -15.4219055,60.1474609 
			-15.4219055,-0.1474609 		"/>
		<path class="st1" d="M31.703064,20.1820679c5.421936,0,9.8174133,4.3955078,9.8174133,9.8179016
			c0,5.421936-4.3954773,9.8174133-9.8174133,9.8174133c-5.4222717,0-9.8177795-4.3954773-9.8177795-9.8174133
			C21.8852844,24.5775757,26.2807922,20.1820679,31.703064,20.1820679L31.703064,20.1820679z"/>
		<path class="st0" d="M34.7637024,21.9213562c4.4618835,0,8.0791016,3.6172485,8.0791016,8.0786133
			c0,4.4619141-3.617218,8.0780945-8.0791016,8.0780945c-4.4615173,0-8.0782166-3.6161804-8.0782166-8.0780945
			C26.6854858,25.5386047,30.3021851,21.9213562,34.7637024,21.9213562L34.7637024,21.9213562z"/>
		<path class="st1" d="M0.7538757,9.8969727c5.6802063,0,10.2852173,4.605011,10.2852173,10.2850952
			c0,5.6807251-4.605011,10.2851868-10.2852173,10.2851868c-5.6806641,0-10.2851257-4.6044617-10.2851257-10.2851868
			C-9.53125,14.5019836-4.9267883,9.8969727,0.7538757,9.8969727L0.7538757,9.8969727z"/>
		<path class="st2" d="M0.0439453,27.9374695h2.5683289c0,0,0.1157532-0.2353821-0.0258789-0.3534851
			c-0.141571-0.1177063-0.6938171-0.1436157-0.5449219-0.5596008c0.3066711-0.8564148,0.3496399-0.5922852,0.542511-2.6254883
			c0.1923828-2.0332031,0.2851257-5.2221069,0.2851257-5.2221069H2.4980469c0,0,0.0712891,0.9916992-0.1425781,2.2831726
			c-0.2138672,1.2910156-0.2783203,1.4052124-0.5136719,2.3969116c-0.2353821,0.9912109-0.2709961,1.0772095-0.4848633,1.6548157
			c-0.2143555,0.5780945-0.2358398,0.6064758-0.5708313,1.1416016c-0.3354492,0.5351868-0.2138672,0.3349915-0.3993835,0.656311
			c-0.092804,0.1605835-0.2070618,0.1175842-0.2695312,0.2342834C0.0546875,27.6605835,0.0439453,27.9374695,0.0439453,27.9374695
			L0.0439453,27.9374695L0.0439453,27.9374695z"/>
		<path class="st0" d="M4.2128906,18.9271851c0.355957-0.0600281,0.0073242,0.5411072-0.1635742,0.5323181
			c0.0151062-0.2163086-0.5151672-0.195343-0.1860352-0.3833313C3.9697266,19.0072632,4.0888672,18.9545898,4.2128906,18.9271851
			L4.2128906,18.9271851z M2.0039062,12.6889954c0.0214539,0.3988953-0.0185547,0.9271851-0.184082,1.3568726
			c-0.1674805,0.4790039-0.3500977,0.9561157-0.3408508,1.4521179c-0.2666016,0.0908813-0.5409851-0.5765991-0.797821-0.1839905
			c0.1928406,0.5423889,0.6381531,0.9715881,0.9433594,1.4603882c0.0512695,0.151886,0.4902039,0.5473938,0.2363281,0.6391907
			c-0.6411438-0.2192993-0.7964172-1.031311-1.1938477-1.5244141c-0.4619141-0.8300781-1.3227539-1.4165039-2.2817688-1.4570618
			c-0.3598328,0.0097656-1.5312195-0.0892944-1.226532,0.5278931c0.4487,0.3050842,1.0019531,0.5038757,1.4447937,0.8461914
			c0.3301086,0.031189,0.9287109,0.5820007,0.8935547,0.7904968c-0.5805359-0.2353821-0.8520203-0.5171204-1.4780273-0.7647095
			c-0.8476257-0.3270874-2.0200195-0.1303101-2.4892273,0.7110291c-0.0874329,0.2191772-0.2167969,0.8578796,0.0585938,0.918396
			c0.3212585-0.5019226,0.7812195-1.0630188,1.4628906-0.9125977c0.5351562,0.0419617-0.5976562,0.9970703-0.1640625,0.8051758
			c0.1371765-0.0609741,0.4541016-0.2689819,0.6738281-0.2909851c0.2202148-0.0215149,0.3427734,0.1430969,0.5097656,0.1654968
			c0.3334656,0.0458984,0.425293,0.1855774,0.3945312,0.2670898c-0.0366211,0.0962219-0.1425781,0.0142212-0.4814758,0.1216125
			c-0.1699219,0.0537109-0.2582703,0.2026062-0.4560242,0.2709961c-0.1982422,0.0682983-0.609375,0.0731812-0.7631836,0.0126953
			c-0.5380859-0.2338867-1.4204407-0.1933899-1.5878906,0.480896c-0.0004883,0.2969055-0.2641602-0.0326843-0.386261,0.0957336
			c-0.0912781,0.3232727-0.1152039,0.6557617-0.5947266,0.6259766c-0.2915039,0.3056946-0.5898132,0.6220703-0.9599304,0.8399048
			c0.2172546,0.4979858,1.0771179-0.5005188,1.0371094-0.0795898c-0.3760071,0.5126953,0.1933594,0.620575,0.4428406,0.2259827
			c0.4214172-0.4453125,0.9438782-0.9877014,1.5727844-0.5385132c0.2992859,0.2817078,0.4736023-0.1493835,0.6903992-0.1264954
			c0.1367493,0.3505859,0.3086243,0.0176086,0.4638977-0.0815125c0.2538757-0.0317688,0.1820984,0.316925,0.4838562,0.1020203
			c0.6011047-0.3973999,1.3408508-0.0635071,1.9282532-0.4506836c0.6249695-0.2846069,0.0873718,0.2294922-0.0849609,0.4306641
			c-0.2749023,0.5327148-0.0366211,1.2319336-0.6323242,1.5625305c-0.2392578,0.6351929,0.2827148,1.4721985-0.2495117,1.9413757
			c-0.0776367,0.2944336,0.6845703,0.2607422,0.8984375,0.3818054c0.375,0.0151978-0.0161133-0.8578796,0.355957-0.9745789
			c0.4985046,0.3085938,0.4755859-0.5522156,0.3725281-0.8178101c0.0483398-0.6035767,0.0820312-1.2637024,0.3823242-1.8100891
			C1.2163086,19.0385742,1.5112,19.9813843,1.1542969,20.246582c-0.2026672,0.6162109-0.4980469,1.387207-0.0366211,1.9598999
			c0.132782,0.0298157,0.2416992,0.3520813,0.414032,0.4512024c0.1719055,0.0986023,0.4067688-0.0253906,0.449707-0.3182983
			c0.2207336-0.8823853,0.1094055-1.8310852,0.4248047-2.6894836c0.2221985-0.265625,0.5293274-0.0429993,0.6670227,0.2016602
			c0.4414062,0.5126953,0.7519531,1.1538086,1.2866211,1.5761414c0.4867859,0.2276001,0.91745,0.5722656,1.141571,1.0732727
			c-0.0029297,0.3866882,1.098175,0.4463196,0.769043,0.0161133c-0.3153992-0.4179993-0.1073914-0.8363953,0.2124023-1.1148071
			c0.1713867,0.0419922,0.1211243-0.2646179-0.0131836-0.1430054c-0.215332-0.0507812-0.2289734-0.444397,0.0698547-0.2572937
			c0.503418,0.1625977-0.039093-0.3643188-0.2211914-0.3804016c-0.4258118-0.2641907-0.9145508-0.5673828-1.1240234-1.0259094
			c0.5541992,0.0054016,1.1293945,0.3041992,1.6953125,0.1191101c0.4541016-0.2333984,0.9145203,0.019104,1.0727234,0.4194946
			c0.3511047-0.0562134,0.2012024-0.4081726,0-0.5253906c0.2568665-0.1054993,0.4341125-0.3251953,0.1230469-0.519104
			c-0.1640625-0.2142944,0.2202454-0.5800171-0.2524109-0.5648804c0.015625-0.3608398-0.1269836-0.6914062-0.5205078-0.8164368
			c-0.3945618-0.3339844-1.5517883,0.492218-1.5180969-0.2606812c-0.1166687-0.4096985,0.4702148-0.054718,0.6342773-0.2587891
			c0.1694336-0.4322205-0.8075867-0.3902283-0.485321-0.7246094c0.2104492-0.1358032,1.1982422-0.3306274,0.4237976-0.4756165
			c-0.3867188,0.1064148-0.7182312,0.0278015-1.0224609-0.1635742c-0.2773132,0.4638672-1.0693359-0.2520142-0.9281921,0.5726929
			c-0.1083984,0.3106079-0.815918,1.1181946-1.0078125,0.4996033c0.1630859-0.4848938,1.0014343-0.6430969,0.7416992-1.296936
			c-0.0400391-0.4081726-0.378418,0.0708313-0.5375977,0.0405273c-0.0805664-0.2539062,0.2441406-0.5532227,0.4702148-0.6138
			c0.4492188,0.3457031,0.4628906-0.4354858,0.8901367-0.3720093c0.3120117-0.069397-0.1005859-0.203186-0.1875-0.2616882
			c0.0854492-0.2286072,0.5639648-0.3453064,0.094696-0.5435181c-0.4145508-0.3070679-0.7211609,0.3062134-1.0629578,0.3389282
			c-0.328125-0.3702087,0.2978516-0.5484314,0.4702148-0.7432251c0.0092773-0.1454773-0.3647461-0.0438843-0.2519531-0.1703796
			c0.0976257-0.1748047,0.7597351-0.1879883,0.449707-0.4501953c-0.4672852-0.1602173-1.0698547-0.1201172-1.5180969,0.0873718
			c-0.2827148,0.0918274-0.3656921,0.730011-0.6088562,0.7036133C2.2436218,13.3320007,2.3955078,12.7709961,2.0039062,12.6889954
			L2.0039062,12.6889954L2.0039062,12.6889954z"/>
		<polygon class="st1" points="55.2655792,42.3417969 55.9141083,44.3603821 57.8964691,43.609375 56.7235718,45.3749695 
			58.5468903,46.4569702 56.4345856,46.6405945 56.7256012,48.7412109 55.2655792,47.204071 53.8047028,48.7412109 
			54.0956726,46.6405945 51.9833984,46.4569702 53.8065796,45.3749695 52.6337891,43.609375 54.6161957,44.3603821 
			55.2655792,42.3417969 		"/>
		<polygon class="st1" points="43.4844055,23.6884766 44.1328125,25.7070007 46.1151733,24.9560852 44.9423828,26.7216797 
			46.7655945,27.8036804 44.6532898,27.9872742 44.9443054,30.0873718 43.4844055,28.5507812 42.023407,30.0873718 
			42.3144836,27.9872742 40.2020874,27.8036804 42.0253906,26.7216797 40.852478,24.9560852 42.8349915,25.7070007 
			43.4844055,23.6884766 		"/>
		<polygon class="st1" points="55.2655792,10.9257812 55.9141083,12.9437866 57.8964691,12.1928711 56.7235718,13.9589844 
			58.5468903,15.0404663 56.4345856,15.2245789 56.7256012,17.3241882 55.2655792,15.7875671 53.8047028,17.3241882 
			54.0956726,15.2245789 51.9833984,15.0404663 53.8065796,13.9589844 52.6337891,12.1928711 54.6161957,12.9437866 
			55.2655792,10.9257812 		"/>
		<polygon class="st1" points="59.9774933,29.9999695 60.4901886,31.257782 61.844696,31.3563843 60.8075867,32.2333679 
			61.1317902,33.5517883 59.9774933,32.835907 58.8231964,33.5517883 59.1474762,32.2333679 58.1103973,31.3563843 
			59.464798,31.257782 59.9774933,29.9999695 		"/>
	</g>
</g>
</svg>
