<?xml version="1.0" encoding="utf-8"?>
<!-- Generator: Adobe Illustrator 22.1.0, SVG Export Plug-In . SVG Version: 6.00 Build 0)  -->
<svg version="1.1" id="Layer_1" xmlns="http://www.w3.org/2000/svg" xmlns:xlink="http://www.w3.org/1999/xlink" x="0px" y="0px"
	 viewBox="0 0 60 60" style="enable-background:new 0 0 60 60;" xml:space="preserve">
<style type="text/css">
	.st0{clip-path:url(#SVGID_2_);fill:#3D74B9;}
	.st1{clip-path:url(#SVGID_2_);fill:#CE1327;}
	.st2{clip-path:url(#SVGID_2_);fill:#FFFFFF;}
	.st3{clip-path:url(#SVGID_2_);fill:#FDC623;}
	.st4{clip-path:url(#SVGID_2_);fill:#3E8E35;}
</style>
<g id="XMLID_1_">
	<g>
		<defs>
			<path id="SVGID_1_" d="M59,60H0.9999695C0.4477234,60,0,59.5526733,0,59V0.9999695c0-0.5522461,0.4477234-1,0.9999695-1H59
				c0.5526886,0,0.9999847,0.4477539,0.9999847,1V59C59.9999847,59.5526733,59.5526886,60,59,60L59,60z"/>
		</defs>
		<clipPath id="SVGID_2_">
			<use xlink:href="#SVGID_1_"  style="overflow:visible;"/>
		</clipPath>
		<polygon class="st0" points="0,0.0746765 99.7509918,0.0746765 99.7509918,59.9247742 0,59.9247742 0,0.0746765 		"/>
		<polygon class="st1" points="0,0.0746765 99.7509918,0.0746765 99.7509918,44.9628906 0,44.9628906 0,0.0746765 		"/>
		<polygon class="st2" points="0,0.0746765 99.7509918,0.0746765 99.7509918,29.9999695 0,29.9999695 0,0.0746765 		"/>
		<polygon class="st3" points="0,0.0746765 99.7509918,0.0746765 99.7509918,15.0375671 0,15.0375671 0,0.0746765 		"/>
		<polygon class="st4" points="0,59.9247742 49.875,29.9999695 0,0.0746765 0,59.9247742 		"/>
		<path class="st2" d="M16.957489,16.5336609c7.4375,0,13.4663086,6.0292969,13.4663086,13.4663086
			c0,7.4375305-6.0288086,13.4668274-13.4663086,13.4668274c-7.4369812,0-13.4662781-6.0292969-13.4662781-13.4668274
			C3.4912109,22.5629578,9.5205078,16.5336609,16.957489,16.5336609L16.957489,16.5336609z"/>
		<path class="st4" d="M22.9424133,16.5336609c7.4374695,0,13.4667664,6.0292969,13.4667664,13.4663086
			c0,7.4375305-6.0292969,13.4668274-13.4667664,13.4668274c-7.4370117,0-13.4663391-6.0292969-13.4663391-13.4668274
			C9.4760742,22.5629578,15.5054016,16.5336609,22.9424133,16.5336609L22.9424133,16.5336609z"/>
		<polygon class="st2" points="19.9520874,17.8700867 21.4204102,22.3764648 17.5785828,19.5937805 22.3217773,19.5937805 
			18.4799805,22.3764648 19.9520874,17.8700867 		"/>
		<polygon class="st2" points="19.9520874,24.2958679 21.4204102,28.8021851 17.5785828,26.0194702 22.3217773,26.0194702 
			18.4799805,28.8021851 19.9520874,24.2958679 		"/>
		<polygon class="st2" points="19.9520874,30.7216797 21.4204102,35.227478 17.5785828,32.445282 22.3217773,32.445282 
			18.4799805,35.227478 19.9520874,30.7216797 		"/>
		<polygon class="st2" points="19.9520874,37.1474915 21.4204102,41.6532898 17.5785828,38.8710632 22.3217773,38.8710632 
			18.4799805,41.6532898 19.9520874,37.1474915 		"/>
	</g>
</g>
</svg>
