<?xml version="1.0" encoding="utf-8"?>
<!-- Generator: Adobe Illustrator 22.1.0, SVG Export Plug-In . SVG Version: 6.00 Build 0)  -->
<svg version="1.1" id="Layer_1" xmlns="http://www.w3.org/2000/svg" xmlns:xlink="http://www.w3.org/1999/xlink" x="0px" y="0px"
	 viewBox="0 0 60 60" style="enable-background:new 0 0 60 60;" xml:space="preserve">
<style type="text/css">
	.st0{clip-path:url(#SVGID_3_);}
	.st1{clip-path:url(#SVGID_4_);fill:#232F5D;}
	.st2{clip-path:url(#SVGID_4_);fill:#FFFFFF;}
	.st3{clip-path:url(#SVGID_8_);}
	.st4{clip-path:url(#SVGID_9_);}
	.st5{clip-path:url(#SVGID_10_);fill:#020203;}
	.st6{clip-path:url(#SVGID_10_);fill:#FFFFFF;}
	.st7{clip-path:url(#SVGID_15_);}
	.st8{clip-path:url(#SVGID_16_);}
	.st9{clip-path:url(#SVGID_17_);}
	.st10{clip-path:url(#SVGID_18_);fill:#020203;}
	.st11{clip-path:url(#SVGID_18_);fill:#C91433;}
	.st12{clip-path:url(#SVGID_22_);}
	.st13{clip-path:url(#SVGID_23_);}
	.st14{clip-path:url(#SVGID_24_);fill:#020203;}
	.st15{clip-path:url(#SVGID_24_);fill:#FFFFFF;}
	.st16{clip-path:url(#SVGID_24_);fill:#C91433;}
</style>
<g id="XMLID_1_">
	<g>
		<defs>
			<polygon id="SVGID_1_" points="-30,-0.0000305 89.9999847,-0.0000305 89.9999847,60 -30,60 -30,-0.0000305 			"/>
		</defs>
		<defs>
			<path id="SVGID_2_" d="M59,60H0.9999695C0.4477234,60,0,59.5526733,0,59V0.9999695c0-0.5522461,0.4477234-1,0.9999695-1H59
				c0.5526886,0,0.9999847,0.4477539,0.9999847,1V59C59.9999847,59.5526733,59.5526886,60,59,60L59,60z"/>
		</defs>
		<clipPath id="SVGID_3_">
			<use xlink:href="#SVGID_1_"  style="overflow:visible;"/>
		</clipPath>
		<clipPath id="SVGID_4_" class="st0">
			<use xlink:href="#SVGID_2_"  style="overflow:visible;"/>
		</clipPath>
		<polygon class="st1" points="-30,-0.0000305 89.9999847,-0.0000305 89.9999847,60 -30,60 -30,-0.0000305 		"/>
		<polygon class="st2" points="59.9999847,5.1000671 61.0126953,8.2124023 64.2753906,8.2124023 61.6376801,10.1249695 
			62.6503906,13.2372742 59.9999847,11.3251953 57.3495941,13.2372742 58.3622894,10.1249695 55.7245789,8.2124023 
			58.9872894,8.2124023 59.9999847,5.1000671 		"/>
		<polygon class="st2" points="54.8231812,54.3554688 54.4794922,51.1005859 51.2881012,50.4228821 54.2655945,49.1005859 
			53.9228821,45.8456726 56.1171875,48.2666016 59.1073761,46.9472961 57.4696808,49.7812805 59.6513824,52.2001953 
			56.4608917,51.5214844 54.8231812,54.3554688 		"/>
		<polygon class="st2" points="45.3642883,50.1445007 46.3739929,47.0312805 43.7353821,45.1132812 46.9931641,45.117157 
			48.0028992,42.0038757 49.0233765,45.1083679 52.2909851,45.1190796 49.6425781,47.0419617 50.652298,50.1395874 
			48.0126648,48.2216797 45.3642883,50.1445007 		"/>
		<polygon class="st2" points="38.4354858,42.4501953 40.625,40.016571 38.9940796,37.1913757 41.9687805,38.5195007 
			44.1581726,36.0858765 43.8270874,39.3378906 46.8085938,40.6757812 43.6063843,41.3554688 43.2686157,44.5956726 
			41.6376648,41.7704773 38.4354858,42.4501953 		"/>
		<polygon class="st2" points="35.2362671,32.602478 38.2255859,31.2704773 37.8847656,28.0258789 40.0625,30.4487 
			43.0526733,29.1166687 41.4277039,31.9520874 43.6063843,34.3876953 40.405304,33.7060852 38.7782898,36.5292969 
			38.4375,33.2841797 35.2362671,32.602478 		"/>
		<polygon class="st2" points="36.3183899,22.3056946 39.5917969,22.3041992 40.5996094,19.2016907 41.6034851,22.3007812 
			44.8770142,22.2997742 42.2392883,24.2289734 43.2392883,27.3403015 40.5917664,25.4154968 37.9579773,27.3329773 
			38.9657898,24.2304993 36.3183899,22.3056946 		"/>
		<polygon class="st2" points="41.4960938,13.3388672 44.4862976,14.6688843 46.6688843,12.2440796 46.3262024,15.4838867 
			49.3163757,16.8144836 46.1221008,17.5038757 45.7695007,20.7528992 44.1347961,17.9179688 40.9481812,18.5980835 
			43.1308899,16.1737976 41.4960938,13.3388672 		"/>
		<polygon class="st2" points="49.8721008,7.2529297 52.0634918,9.6840515 55.0438995,8.3574219 53.4120941,11.1771851 
			55.6024933,13.6088867 52.4042816,12.9394836 50.7606964,15.7645874 50.4198761,12.5092773 47.2323914,11.8349915 
			50.2129059,10.507782 49.8721008,7.2529297 		"/>
	</g>
	<g>
		<defs>
			<polygon id="SVGID_5_" points="-30,-0.0000305 29.7709656,-0.0000305 29.7709656,29.9999695 -30,29.9999695 -30,-0.0000305 			
				"/>
		</defs>
		<defs>
			<polygon id="SVGID_6_" points="-30,-0.0000305 89.9999847,-0.0000305 89.9999847,60 -30,60 -30,-0.0000305 			"/>
		</defs>
		<defs>
			<path id="SVGID_7_" d="M59,60H0.9999695C0.4477234,60,0,59.5526733,0,59V0.9999695c0-0.5522461,0.4477234-1,0.9999695-1H59
				c0.5526886,0,0.9999847,0.4477539,0.9999847,1V59C59.9999847,59.5526733,59.5526886,60,59,60L59,60z"/>
		</defs>
		<clipPath id="SVGID_8_">
			<use xlink:href="#SVGID_5_"  style="overflow:visible;"/>
		</clipPath>
		<clipPath id="SVGID_9_" class="st3">
			<use xlink:href="#SVGID_6_"  style="overflow:visible;"/>
		</clipPath>
		<clipPath id="SVGID_10_" class="st4">
			<use xlink:href="#SVGID_7_"  style="overflow:visible;"/>
		</clipPath>
		<path class="st5" d="M30-0.0000305l-60,30 M-30-0.0000305l60,30"></path>
		<polygon class="st6" points="28.6582031,32.6835632 0,18.3539734 -28.6582031,32.6835632 -31.3417969,27.3168945 
			-6.7080383,14.9999695 -31.3417969,2.683075 -28.6582031,-2.6831055 0,11.6459961 28.6582031,-2.6831055 31.3417969,2.683075 
			6.7080078,14.9999695 31.3417969,27.3168945 28.6582031,32.6835632 		"/>
	</g>
	<g>
		<defs>
			<path id="SVGID_11_" d="M-30,29.9999695V35H0V-0.0000305h30L-30,29.9999695L-30,29.9999695z M-30-0.0000305v15h69.9999695v15H30
				L-30-0.0000305L-30-0.0000305z"/>
		</defs>
		<defs>
			<polygon id="SVGID_12_" points="-30,-0.0000305 29.7709656,-0.0000305 29.7709656,29.9999695 -30,29.9999695 -30,-0.0000305 			
				"/>
		</defs>
		<defs>
			<polygon id="SVGID_13_" points="-30,-0.0000305 89.9999847,-0.0000305 89.9999847,60 -30,60 -30,-0.0000305 			"/>
		</defs>
		<defs>
			<path id="SVGID_14_" d="M59,60H0.9999695C0.4477234,60,0,59.5526733,0,59V0.9999695c0-0.5522461,0.4477234-1,0.9999695-1H59
				c0.5526886,0,0.9999847,0.4477539,0.9999847,1V59C59.9999847,59.5526733,59.5526886,60,59,60L59,60z"/>
		</defs>
		<clipPath id="SVGID_15_">
			<use xlink:href="#SVGID_11_"  style="overflow:visible;"/>
		</clipPath>
		<clipPath id="SVGID_16_" class="st7">
			<use xlink:href="#SVGID_12_"  style="overflow:visible;"/>
		</clipPath>
		<clipPath id="SVGID_17_" class="st8">
			<use xlink:href="#SVGID_13_"  style="overflow:visible;"/>
		</clipPath>
		<clipPath id="SVGID_18_" class="st9">
			<use xlink:href="#SVGID_14_"  style="overflow:visible;"/>
		</clipPath>
		<path class="st10" d="M30-0.0000305l-60,30 M-30-0.0000305l60,30"></path>
		<polygon class="st11" points="29.1054993,31.789093 0,17.2357788 -29.1055298,31.789093 -30.8945007,28.2108765 
			-4.472168,14.9999695 -30.8945007,1.7890625 -29.1055298,-1.789093 0,12.7637024 29.1054993,-1.789093 30.8944702,1.7890625 
			4.472168,14.9999695 30.8944702,28.2108765 29.1054993,31.789093 		"/>
	</g>
	<g>
		<defs>
			<polygon id="SVGID_19_" points="-30,-0.0000305 29.7709656,-0.0000305 29.7709656,29.9999695 -30,29.9999695 -30,-0.0000305 			
				"/>
		</defs>
		<defs>
			<polygon id="SVGID_20_" points="-30,-0.0000305 89.9999847,-0.0000305 89.9999847,60 -30,60 -30,-0.0000305 			"/>
		</defs>
		<defs>
			<path id="SVGID_21_" d="M59,60H0.9999695C0.4477234,60,0,59.5526733,0,59V0.9999695c0-0.5522461,0.4477234-1,0.9999695-1H59
				c0.5526886,0,0.9999847,0.4477539,0.9999847,1V59C59.9999847,59.5526733,59.5526886,60,59,60L59,60z"/>
		</defs>
		<clipPath id="SVGID_22_">
			<use xlink:href="#SVGID_19_"  style="overflow:visible;"/>
		</clipPath>
		<clipPath id="SVGID_23_" class="st12">
			<use xlink:href="#SVGID_20_"  style="overflow:visible;"/>
		</clipPath>
		<clipPath id="SVGID_24_" class="st13">
			<use xlink:href="#SVGID_21_"  style="overflow:visible;"/>
		</clipPath>
		<path class="st14" d="M0-0.0000305V35 M-30,14.9999695h69.9999695"></path>
		<polygon class="st15" points="5,35 -5.0000305,35 -5.0000305,20 -30,20 -30,9.9999695 -5.0000305,9.9999695 
			-5.0000305,-0.0000305 5,-0.0000305 5,9.9999695 39.9999695,9.9999695 39.9999695,20 5,20 5,35 		"/>
		<path class="st14" d="M0-0.0000305V35 M-30,14.9999695h69.9999695"></path>
		<polygon class="st16" points="3,35 -3,35 -3,17.9999695 -30,17.9999695 -30,11.9999695 -3,11.9999695 -3,-0.0000305 3,-0.0000305 
			3,11.9999695 39.9999695,11.9999695 39.9999695,17.9999695 3,17.9999695 3,35 		"/>
	</g>
</g>
</svg>
