<?xml version="1.0" encoding="utf-8"?>
<!-- Generator: Adobe Illustrator 22.1.0, SVG Export Plug-In . SVG Version: 6.00 Build 0)  -->
<svg version="1.1" id="Layer_1" xmlns="http://www.w3.org/2000/svg" xmlns:xlink="http://www.w3.org/1999/xlink" x="0px" y="0px"
	 viewBox="0 0 60 60" style="enable-background:new 0 0 60 60;" xml:space="preserve">
<style type="text/css">
	.st0{clip-path:url(#SVGID_2_);fill:#24387D;}
	.st1{clip-path:url(#SVGID_2_);fill:#FFFFFF;}
	.st2{clip-path:url(#SVGID_2_);fill:#CF172C;}
</style>
<g id="XMLID_1_">
	<g>
		<defs>
			<path id="SVGID_1_" d="M59,60H0.9999695C0.4477234,60,0,59.5526733,0,59V0.9999695c0-0.5522461,0.4477234-1,0.9999695-1H59
				c0.5526886,0,0.9999847,0.4477539,0.9999847,1V59C59.9999847,59.5526733,59.5526886,60,59,60L59,60z"/>
		</defs>
		<clipPath id="SVGID_2_">
			<use xlink:href="#SVGID_1_"  style="overflow:visible;"/>
		</clipPath>
		<polygon class="st0" points="0,-0.0727539 120.2910004,-0.0727539 120.2910004,60.0722961 0,60.0722961 0,-0.0727539 		"/>
		<polygon class="st1" points="12.0292969,11.9564819 120.2910004,11.9564819 120.2910004,23.9853821 36.0868835,23.9853821 
			36.0868835,36.0145874 120.2910004,36.0145874 120.2910004,48.0438843 12.0292969,48.0438843 12.0292969,11.9564819 		"/>
		<polygon class="st2" points="52.0858765,29.9999695 0,60.0722961 0,-0.0727539 52.0858765,29.9999695 		"/>
		<polygon class="st1" points="17.3578796,20.9779968 12.0648804,37.3017883 25.9468079,27.2094727 8.7812195,27.2094727 
			22.6625977,37.3017883 17.3578796,20.9779968 		"/>
	</g>
</g>
</svg>
