<?xml version="1.0" encoding="utf-8"?>
<!-- Generator: Adobe Illustrator 22.1.0, SVG Export Plug-In . SVG Version: 6.00 Build 0)  -->
<svg version="1.1" id="Layer_1" xmlns="http://www.w3.org/2000/svg" xmlns:xlink="http://www.w3.org/1999/xlink" x="0px" y="0px"
	 viewBox="0 0 60 60" style="enable-background:new 0 0 60 60;" xml:space="preserve">
<style type="text/css">
	.st0{clip-path:url(#SVGID_2_);fill:#243770;}
	.st1{clip-path:url(#SVGID_2_);fill:#F8E81F;}
	.st2{clip-path:url(#SVGID_2_);fill:#FFFFFF;}
</style>
<g id="XMLID_1_">
	<g>
		<defs>
			<path id="SVGID_1_" d="M59,60H0.9999695C0.4477234,60,0,59.5526733,0,59V0.9999695c0-0.5522461,0.4477234-1,0.9999695-1H59
				c0.5526886,0,0.9999847,0.4477539,0.9999847,1V59C59.9999847,59.5526733,59.5526886,60,59,60L59,60z"/>
		</defs>
		<clipPath id="SVGID_2_">
			<use xlink:href="#SVGID_1_"  style="overflow:visible;"/>
		</clipPath>
		<polygon class="st0" points="0,-0.0000305 89.9999847,-0.0000305 89.9999847,60 0,60 0,-0.0000305 		"/>
		<polygon class="st1" points="0,37.4999695 89.9999847,37.4999695 89.9999847,44.9999695 0,44.9999695 0,37.4999695 		"/>
		<polygon class="st2" points="20,13.3334961 17.9399109,19.6737671 21.1098938,20.7035828 20,13.3334961 		"/>
		<polygon class="st2" points="20,13.3334961 22.0600891,19.6737671 18.8900757,20.7035828 20,13.3334961 		"/>
		<polygon class="st2" points="26.340271,17.9399109 19.6737671,17.9399109 19.6737671,21.2733765 26.340271,17.9399109 		"/>
		<polygon class="st2" points="26.340271,17.9399109 20.9467773,21.8583679 18.987793,19.1615906 26.340271,17.9399109 		"/>
		<polygon class="st2" points="13.6596985,17.9399109 19.0531921,21.8583679 21.0121765,19.1615906 13.6596985,17.9399109 		"/>
		<polygon class="st2" points="13.6596985,17.9399109 20.3262024,17.9399109 20.3262024,21.2733765 13.6596985,17.9399109 		"/>
		<polygon class="st2" points="23.9184875,25.3935852 21.8583984,19.0531921 18.6885071,20.0829773 23.9184875,25.3935852 		"/>
		<polygon class="st2" points="23.9184875,25.3935852 18.5249023,21.4750977 20.4844055,18.7782898 23.9184875,25.3935852 		"/>
		<polygon class="st2" points="16.0814819,25.3935852 21.4750977,21.4750977 19.515564,18.7782898 16.0814819,25.3935852 		"/>
		<polygon class="st2" points="16.0814819,25.3935852 18.141571,19.0531921 21.3114624,20.0829773 16.0814819,25.3935852 		"/>
		<polygon class="st2" points="9.9999695,5 8.4550781,9.7553406 10.832489,10.527771 9.9999695,5 		"/>
		<polygon class="st2" points="9.9999695,5 11.5448914,9.7553406 9.1674805,10.527771 9.9999695,5 		"/>
		<polygon class="st2" points="14.7554016,8.4550476 9.7553406,8.4550476 9.7553406,10.9550781 14.7554016,8.4550476 		"/>
		<polygon class="st2" points="14.7554016,8.4550476 10.7099915,11.3939819 9.2407227,9.3710938 14.7554016,8.4550476 		"/>
		<polygon class="st2" points="5.2446289,8.4550476 9.2900391,11.3939819 10.7593079,9.3710938 5.2446289,8.4550476 		"/>
		<polygon class="st2" points="5.2446289,8.4550476 10.2445679,8.4550476 10.2445679,10.9550781 5.2446289,8.4550476 		"/>
		<polygon class="st2" points="12.9389954,14.0448608 11.3939819,9.2900085 9.0161133,10.0625 12.9389954,14.0448608 		"/>
		<polygon class="st2" points="12.9389954,14.0448608 8.8940125,11.1059875 10.3632812,9.0834656 12.9389954,14.0448608 		"/>
		<polygon class="st2" points="7.0610352,14.0448608 11.1059875,11.1059875 9.6366882,9.0834656 7.0610352,14.0448608 		"/>
		<polygon class="st2" points="7.0610352,14.0448608 8.605957,9.2900085 10.9838867,10.0625 7.0610352,14.0448608 		"/>
	</g>
</g>
</svg>
