<?xml version="1.0" encoding="utf-8"?>
<!-- Generator: Adobe Illustrator 22.1.0, SVG Export Plug-In . SVG Version: 6.00 Build 0)  -->
<svg version="1.1" id="Layer_1" xmlns="http://www.w3.org/2000/svg" xmlns:xlink="http://www.w3.org/1999/xlink" x="0px" y="0px"
	 viewBox="0 0 60 60" style="enable-background:new 0 0 60 60;" xml:space="preserve">
<style type="text/css">
	.st0{clip-path:url(#SVGID_2_);fill:#FFFFFF;}
	.st1{clip-path:url(#SVGID_2_);fill:#4F5C32;}
	.st2{clip-path:url(#SVGID_2_);fill:#D57910;}
</style>
<g id="XMLID_1_">
	<g>
		<defs>
			<path id="SVGID_1_" d="M59,60H0.9999695C0.4477234,60,0,59.5526733,0,59V0.9999695c0-0.5522461,0.4477234-1,0.9999695-1H59
				c0.5526886,0,0.9999847,0.4477539,0.9999847,1V59C59.9999847,59.5526733,59.5526886,60,59,60L59,60z"/>
		</defs>
		<clipPath id="SVGID_2_">
			<use xlink:href="#SVGID_1_"  style="overflow:visible;"/>
		</clipPath>
		<polygon class="st0" points="-15.0980835,-0.0654297 75.097702,-0.0654297 75.097702,60.0653687 -15.0980835,60.0653687 
			-15.0980835,-0.0654297 		"/>
		<path class="st1" d="M14.4164734,40.7128906c-0.0087891,0-0.0170593,0-0.0253906-0.0019836
			c-0.2357788-0.0390015-0.6508789-0.2197266-1.109375-0.4824219c-0.5092163-0.2919922-0.922821-0.6054993-1.1645203-0.8807983
			c-0.2202148-0.2520142-0.3511047-0.6474915-0.3891907-1.1758118c-0.0263062-0.3739929,0.0054016-0.6864929,0.0087891-0.717804
			c0.0415039-0.0136719,0.0854797-0.0204773,0.131897-0.0204773c0.1767273,0.0028687,0.3657227,0.0830078,0.6200867,0.257782
			c0.1987305,0.1376953,0.417511,0.3232117,0.6504211,0.5527039c0.4023132,0.3964844,0.718689,0.7950134,0.7215881,0.7989197
			l0.0035095,0.0038757c0.0262756,0.0477905,0.2539062,0.4590149,0.4316101,0.8583984
			c0.1123047,0.2539062,0.1767883,0.4364929,0.2025757,0.5751953c0.0147095,0.0800171,0.019104,0.1318054-0.0004883,0.1787109
			c-0.007782,0.0195007-0.023407,0.0380859-0.0384827,0.0449219c-0.0142212,0.0058899-0.0278931,0.0087891-0.0440063,0.0087891
			H14.4164734L14.4164734,40.7128906z M15.4516907,40.7841797c-0.0019836-0.0020142-0.1538086-0.1895142-0.3041992-0.4237976
			c-0.1578064-0.2442017-0.3033142-0.5-0.3033142-0.710022c0-0.2011719-0.0472717-0.6278687-0.0761108-0.8632812
			c-0.035675-0.2987976-0.0717773-0.5556946-0.0746765-0.5770874l0.000885,0.000885
			c0.0337219,0.0118103,0.8326111,0.3115845,0.8326111,1.0606079c0,0.7509766-0.0737915,1.5048828-0.0747986,1.5126953v0.0010071
			h-0.000885L15.4516907,40.7841797L15.4516907,40.7841797z M14.0653992,42.1698914
			c-0.2695007,0-0.6825867-0.0166016-1.1162109-0.0957031c-0.4305725-0.0780945-0.6743164-0.4443054-0.8032227-0.7373047
			c-0.1400757-0.3193054-0.179657-0.6239929-0.1801758-0.6268921h0.0010071
			c1.3314819,0.0390015,1.9599915,0.4277039,2.2528992,0.7470093c0.3022766,0.3300781,0.3203125,0.6728821,0.3212891,0.694397
			h-0.0009766c-0.0019226,0-0.1894226,0.0174866-0.4751282,0.0174866L14.0653992,42.1698914L14.0653992,42.1698914z
			 M15.1356812,43.5195007c-0.4828796,0-0.6483765-0.2617188-0.6972046-0.375
			c-0.0795898-0.1855164-0.0556946-0.3691101-0.0551758-0.3710938v-0.0019226
			c0.0780945-0.0195007,0.1611023-0.030304,0.2406921-0.032196h0.0160828c0.3809204,0,0.6817017,0.1932983,0.8106079,0.3847046
			c0.0254211,0.0380859,0.1035156,0.1698914,0.0390015,0.273468C15.4374695,43.4784851,15.3193054,43.5195007,15.1356812,43.5195007
			L15.1356812,43.5195007L15.1356812,43.5195007z M18.882782,43.6288757
			c-0.0033875-0.0018921-0.4237976-0.1699219-0.9486694-0.6102905c-0.4893188-0.4101868-1.1773376-1.1484985-1.6753235-2.3378906
			c0.0004883,0,0.1141968-0.0606079,0.289093-0.0713196c0.0101929-0.0010071,0.0205078-0.0010071,0.0307007-0.0010071
			c0.0152283,0,0.0307922,0,0.0464172,0.0010071c0.2416992,0.0057983,0.6098938,0.1064148,1.0176086,0.5469055
			c0.468689,0.5057983,0.8871765,1.3368835,1.2430725,2.4707031l0.0010071,0.0028992l-0.0028992-0.0010071H18.882782
			L18.882782,43.6288757z M17.4369812,43.6815796c-0.0097961-0.0018921-0.5990906-0.1532898-1.1991882-0.523407
			c-0.5557251-0.3417969-1.2354126-0.9472656-1.3183899-1.8866882v-0.0010071h0.0014954
			c0,0,0.0517883-0.0126953,0.1278992-0.0155945c0.0107727-0.0010071,0.0220032-0.0010071,0.0336914-0.0010071
			c0.1659851,0,0.5054016,0.0469055,0.9165039,0.3594055c0.5230103,0.398407,1.0064087,1.094696,1.4379883,2.0693054V43.6815796
			L17.4369812,43.6815796z M19.651886,43.9853821c-0.1275024,0-0.2402954-0.0458984-0.3179016-0.1309204
			c-0.0639954-0.0692749-0.1109009-0.1640625-0.1426086-0.2909851c-0.0508118-0.202179-0.0365906-0.4013977-0.0350952-0.4198914
			c0.0527039-0.0215149,0.1064148-0.0341797,0.1567078-0.0352173h0.0112c0.2510071,0,0.449707,0.2178345,0.5352173,0.4346313
			c0.046875,0.1190796,0.0546875,0.2215881,0.0238647,0.3036804C19.852478,43.9315796,19.7612,43.9853821,19.651886,43.9853821
			L19.651886,43.9853821L19.651886,43.9853821z M16.7064819,45.0556641c-0.4159851,0-0.8193054-0.0478821-1.1991882-0.1425781
			c-0.6640015-0.1659851-0.9492188-0.4199219-1.0712891-0.6035156c-0.0693359-0.1044922-0.0942383-0.1962891-0.1035156-0.2538757
			C14.3241882,44,14.3285828,43.9550781,14.3295898,43.9481812l0.0028992-0.0018921
			c0.0019836,0,0.4413757-0.1231079,1.0487976-0.1328125c0.0239868,0,0.0484009,0,0.0728149,0
			c0.2934875,0,0.5820007,0.0273132,0.8583984,0.0830078c1.0556946,0.2108765,1.6034851,1.007782,1.6088867,1.0155945
			l0.0004883,0.0010071l-0.0014954,0.0010071c-0.0057983,0.0009155-0.5092773,0.141571-1.2147827,0.141571H16.7064819
			L16.7064819,45.0556641z M23.2201843,45.6650085c-1.2684937-0.1933289-1.9872742-0.7382507-2.367218-1.1611328
			c-0.3978577-0.4433899-0.5170898-0.8563843-0.5223694-0.8759766c0.0023804,0,0.157196-0.0410156,0.3911133-0.046814
			c0.016571,0,0.0341797,0,0.0521545,0c0.0181274,0,0.0366211,0,0.0557251,0
			c0.6382141,0.0145874,1.7973938,0.3036804,2.3905945,2.0830078h0.0010071L23.2201843,45.6650085L23.2201843,45.6650085z
			 M21.507782,45.8241882c-1.5770874-0.055603-2.3955078-0.5039062-2.8046875-0.8701172
			c-0.230011-0.2060852-0.3579102-0.4101868-0.4248047-0.5458984c-0.0629883-0.1278992-0.0869141-0.2255859-0.0907898-0.2440796
			l0.0019836-0.0010071c0.0003967,0,0.1494141-0.0537109,0.3891296-0.0575867l0.0370789-0.0010071
			c0.5317993,0,1.6147766,0.2236023,2.8916016,1.719696v0.0010071L21.507782,45.8241882L21.507782,45.8241882z
			 M24.3646851,45.9423828c-0.1253967,0-0.2381897-0.0469055-0.3172913-0.1328125
			c-0.0650024-0.0712891-0.111908-0.1650696-0.1426086-0.289093c-0.0508118-0.2020874-0.0365906-0.4033203-0.0351868-0.4227905
			c0.0527954-0.0215149,0.1064758-0.0342102,0.1562805-0.0352173h0.0112c0.2520142,0,0.4501953,0.2178345,0.5351868,0.4346313
			c0.0483093,0.1229858,0.0576477,0.2265015,0.0273132,0.3075867c-0.0297852,0.0820007-0.1249695,0.1366882-0.2344055,0.1366882
			L24.3646851,45.9423828L24.3646851,45.9423828z M18.4989624,46.0751648c-0.0961609,0-0.1869507-0.0429993-0.2479858-0.1171875
			c-0.0508118-0.0615234-0.0863953-0.1416016-0.1113892-0.2528992c-0.0419006-0.1846008-0.0292053-0.3661804-0.0292053-0.3681946
			l0.0003967-0.0018921c0.0362244-0.0166016,0.0772095-0.0263977,0.1216125-0.0274048h0.0005188
			c0.1161804,0,0.2045593,0.0635071,0.2592773,0.1162109c0.0737,0.070282,0.1337891,0.1650696,0.1694031,0.264679
			c0.0365906,0.1035156,0.0424805,0.1903992,0.0180969,0.2645874c-0.019989,0.0586243-0.0884094,0.1211243-0.1807251,0.1211243
			V46.0751648L18.4989624,46.0751648z M21.0386047,47.3778992c-0.7837219,0-1.8604126-0.2392273-2.5317993-0.9111023h-0.0005188
			l0.0020142-0.0010071c0.0067749-0.0018921,0.7357788-0.1864929,1.5556946-0.2070007
			c0.0487976-0.0010071,0.098114-0.0019836,0.1479187-0.0019836c0.734375,0,1.296875,0.1425781,1.671875,0.4238892
			c0.1304016,0.0975952,0.2020874,0.1893921,0.2182922,0.2792664c0.013092,0.0742188-0.0263977,0.1552429-0.1059875,0.2148132
			c-0.1690063,0.1279297-0.4701843,0.1953125-0.8964844,0.2022095l-0.0599976,0.0018921L21.0386047,47.3778992
			L21.0386047,47.3778992z M24.6376953,47.5155945c-0.7431946,0-1.3091125-0.1279297-1.6820984-0.3807983
			c-0.2144165-0.1455383-0.3189087-0.304718-0.3692017-0.4131165c-0.0473022-0.101593-0.0581055-0.1865234-0.0595093-0.2030945
			c0.0195007-0.0088196,0.3237-0.1436157,0.7782898-0.1651001c0.0381165-0.0018921,0.0766296-0.0029297,0.117218-0.0029297
			c0.574707,0,1.4481812,0.1875,2.3700867,1.0801392l0.0010071,0.000885h-0.0014954
			c-0.4208984,0.0556946-0.8096008,0.0840149-1.155304,0.0840149H24.6376953L24.6376953,47.5155945z M28.2030945,47.8612976
			c-1.7397156-0.2490234-2.4769897-0.8779297-2.7890015-1.3613281c-0.3329773-0.516571-0.2647095-0.9940796-0.2641907-0.9989929
			L25.1503906,45.5h0.0010071c0.0004883,0,0.1063843-0.0293274,0.2666016-0.0293274
			c0.4628906,0,1.6465149,0.2324219,2.7855835,2.3887024l0.0010071,0.0019226l-0.0019836-0.0009155L28.2030945,47.8612976
			L28.2030945,47.8612976z M23.0238647,48.4608765c-0.1254578,0-0.2382812-0.0467834-0.3173828-0.1337891
			c-0.0653992-0.0703125-0.1118164-0.1640015-0.1425171-0.2879944c-0.0507507-0.2022095-0.0366821-0.4034119-0.0351868-0.4229126
			c0.0527039-0.0214844,0.1065063-0.0342102,0.156311-0.0350952h0.0112c0.2519226,0,0.4501953,0.2176819,0.5350952,0.4344788
			c0.0484009,0.1231079,0.0577087,0.2266235,0.0274048,0.3076172c-0.0298157,0.0811157-0.1239929,0.1367798-0.234375,0.1367798
			L23.0238647,48.4608765L23.0238647,48.4608765z M25.9672852,49.1132812c-0.6791992,0-1.3500977-0.1875-1.9936829-0.5575867
			h-0.0009155l0.0003967-0.0010071c0,0,0.0845032-0.1611023,0.2886047-0.3106079
			c0.194397-0.1424866,0.5454102-0.3134155,1.1123047-0.3153992h0.0117188c0.6713867,0,1.4931641,0.2285156,2.4428711,0.6786804
			c-0.032196,0.0205078-0.7772827,0.5059204-1.8607788,0.5059204l0.0010071,0.0010071L25.9672852,49.1132812L25.9672852,49.1132812z
			 M31.3134766,50.7187805c-0.0185852-0.0088196-0.0224915-0.0117798-0.0351868-0.0245056l-0.0126953-0.0116882
			c-0.032196-0.0292969-0.085907-0.0820007-0.1582031-0.1640015c-0.1338196-0.1524048-0.3129883-0.3740845-0.4701843-0.5704041
			c-0.3120117-0.3886108-0.5703125-0.7246094-0.6186218-0.7871094l-0.0795898-0.1034851l-0.7784119-0.2402039l-0.5682983-0.2647095
			l0.3037109-0.3417664l1.0429993,0.4462585l0.7782898,0.1602173l1.4398804,1.0585938l-0.0018616,0.0010071
			c-0.0030212,0.0028992-0.2090149,0.1737976-0.4141235,0.3602905c-0.0917664,0.0840149-0.2070007,0.1903992-0.2880859,0.2793274
			c-0.0380859,0.0409851-0.0713196,0.0810852-0.093689,0.1142578c-0.0137329,0.0205078-0.0215149,0.0380249-0.0254211,0.0468445
			l0.0898132-0.0556335l0.0967102,0.0761108l-0.1973267,0.0176086l-0.0086975,0.0029907H31.3134766L31.3134766,50.7187805z"/>
		<path class="st1" d="M45.5839844,40.7128906c0.0078125,0,0.0166016,0,0.0244141-0.0019836
			c0.2362671-0.0390015,0.6513977-0.2197266,1.1103821-0.4824219c0.5086975-0.2919922,0.922821-0.6054993,1.164032-0.8807983
			c0.2206726-0.2520142,0.351593-0.6474915,0.3886719-1.1758118c0.0273132-0.3739929-0.0048828-0.6864929-0.0087891-0.717804
			c-0.0410156-0.0136719-0.085022-0.0204773-0.1318054-0.0204773c-0.1768188,0.0028687-0.3652954,0.0830078-0.6202087,0.257782
			c-0.1982117,0.1376953-0.4169006,0.3232117-0.6502686,0.5527039c-0.4014282,0.3964844-0.717804,0.7950134-0.7208252,0.7989197
			l-0.0039062,0.0038757c-0.0262756,0.0477905-0.2538757,0.4590149-0.4316101,0.8583984
			c-0.1122742,0.2539062-0.1767883,0.4364929-0.2020874,0.5751953c-0.015686,0.0800171-0.0195923,0.1318054,0,0.1787109
			c0.0078125,0.0195007,0.023407,0.0380859,0.0379944,0.0449219c0.0147095,0.0058899,0.0284119,0.0087891,0.0450134,0.0087891
			H45.5839844L45.5839844,40.7128906z M44.5487976,40.7841797c0.0009766-0.0020142,0.1532898-0.1895142,0.3036804-0.4237976
			c0.1572876-0.2442017,0.3038025-0.5,0.3038025-0.710022c0-0.2011719,0.0467834-0.6278687,0.0751038-0.8632812
			c0.0361938-0.2987976,0.0722961-0.5556946,0.0751953-0.5770874l-0.0009155,0.000885
			c-0.0341797,0.0118103-0.8329773,0.3115845-0.8329773,1.0606079c0,0.7509766,0.0741882,1.5048828,0.0751953,1.5126953v0.0010071
			h0.0009155V40.7841797L44.5487976,40.7841797z M45.9346008,42.1698914c0.2695007,0,0.6825867-0.0166016,1.1162109-0.0957031
			c0.4305725-0.0780945,0.6747742-0.4443054,0.8026733-0.7373047c0.1405945-0.3193054,0.1806946-0.6239929,0.1806946-0.6268921
			h-0.0010071c-1.3310852,0.0390015-1.9599915,0.4277039-2.2528992,0.7470093
			c-0.3027649,0.3300781-0.320282,0.6728821-0.3212891,0.694397h0.0010071c0.0018921,0,0.1893921,0.0174866,0.4746094,0.0174866
			V42.1698914L45.9346008,42.1698914z M44.8642883,43.5195007c0.4833984,0,0.648407-0.2617188,0.6972046-0.375
			c0.0801086-0.1855164,0.0556946-0.3691101,0.0556946-0.3710938l-0.0010071-0.0019226
			c-0.0780945-0.0195007-0.1600952-0.030304-0.2402039-0.032196h-0.016571c-0.3809204,0-0.6807251,0.1932983-0.8096313,0.3847046
			c-0.0253906,0.0380859-0.1044922,0.1698914-0.039093,0.273468C44.5625,43.4784851,44.6806946,43.5195007,44.8642883,43.5195007
			L44.8642883,43.5195007L44.8642883,43.5195007z M41.1171875,43.6288757
			c0.0039062-0.0018921,0.4237976-0.1699219,0.9491882-0.6102905c0.4893188-0.4101868,1.1767883-1.1484985,1.6748047-2.3378906
			c0,0-0.1141968-0.0606079-0.289093-0.0713196c-0.0106812-0.0010071-0.0205078-0.0010071-0.031189-0.0010071
			c-0.0145874,0-0.030304,0-0.045929,0.0010071c-0.2421875,0.0057983-0.6094055,0.1064148-1.0175781,0.5469055
			c-0.468689,0.5057983-0.8867188,1.3368835-1.243103,2.4707031l-0.0010071,0.0028992l0.0028992-0.0010071H41.1171875
			L41.1171875,43.6288757z M42.5634766,43.6815796c0.0087891-0.0018921,0.5986023-0.1532898,1.1992188-0.523407
			c0.5556946-0.3417969,1.2352905-0.9472656,1.3183899-1.8866882v-0.0010071h-0.0019836
			c0,0-0.0518188-0.0126953-0.1279297-0.0155945c-0.0107727-0.0010071-0.0214844-0.0010071-0.0331726-0.0010071
			c-0.1660156,0-0.5059204,0.0469055-0.9169922,0.3594055c-0.5235291,0.398407-1.0059204,1.094696-1.4385071,2.0693054
			L42.5634766,43.6815796L42.5634766,43.6815796z M40.3485718,43.9853821c0.1270142,0,0.2393188-0.0458984,0.3174133-0.1309204
			c0.0645142-0.0692749,0.1103821-0.1640625,0.1426086-0.2909851c0.0508118-0.202179,0.0361023-0.4013977,0.0351868-0.4198914
			c-0.0527954-0.0215149-0.1064758-0.0341797-0.1562805-0.0352173h-0.0116882c-0.2510376,0-0.4492188,0.2178345-0.5352478,0.4346313
			c-0.0467834,0.1190796-0.0546875,0.2215881-0.024353,0.3036804c0.0312805,0.0848999,0.1220703,0.1387024,0.2314758,0.1387024
			H40.3485718L40.3485718,43.9853821z M43.2938843,45.0556641c0.4161072,0,0.819397-0.0478821,1.1983032-0.1425781
			c0.6650085-0.1659851,0.9491882-0.4199219,1.0712891-0.6035156c0.0693359-0.1044922,0.094696-0.1962891,0.1035156-0.2538757
			C45.6757812,44,45.6708984,43.9550781,45.6698914,43.9481812l-0.0028992-0.0018921
			c-0.0010071,0-0.4403992-0.1231079-1.0487976-0.1328125c-0.0234985,0-0.0479126,0-0.0722961,0
			c-0.2929993,0-0.5820312,0.0273132-0.8583984,0.0830078c-1.0556946,0.2108765-1.6035156,1.007782-1.6083984,1.0155945
			l-0.0010071,0.0010071l0.0019836,0.0010071C42.0858765,44.9150085,42.5888977,45.0556641,43.2938843,45.0556641
			L43.2938843,45.0556641L43.2938843,45.0556641z M36.7792969,45.6650085
			c1.2694702-0.1933289,1.9882812-0.7382507,2.3671875-1.1611328c0.398407-0.4433899,0.5176086-0.8563843,0.5223999-0.8759766
			c-0.0018921,0-0.157196-0.0410156-0.3905945-0.046814c-0.0166016,0-0.0342102,0-0.0527039,0c-0.0175781,0-0.0361023,0-0.054718,0
			c-0.6387024,0.0145874-1.7978821,0.3036804-2.3905945,2.0830078h-0.0009766V45.6650085L36.7792969,45.6650085z
			 M38.4921875,45.8241882c1.5771179-0.055603,2.3954773-0.5039062,2.804718-0.8701172
			c0.2303772-0.2060852,0.3583679-0.4101868,0.4248047-0.5458984c0.0624695-0.1278992,0.0868835-0.2255859,0.0907898-0.2440796
			l-0.0020142-0.0010071c0,0-0.1494141-0.0537109-0.3896179-0.0575867l-0.0360718-0.0010071
			c-0.5323181,0-1.6152954,0.2236023-2.8916016,1.719696v0.0010071L38.4921875,45.8241882L38.4921875,45.8241882z
			 M35.6347656,45.9423828c0.1259155,0,0.2382202-0.0469055,0.3183289-0.1328125
			c0.0645142-0.0712891,0.1114197-0.1650696,0.1425781-0.289093c0.0498047-0.2020874,0.0361328-0.4033203,0.0352173-0.4227905
			c-0.0527954-0.0215149-0.1065063-0.0342102-0.1572876-0.0352173h-0.0107117c-0.2520142,0-0.4501953,0.2178345-0.5351868,0.4346313
			c-0.047821,0.1229858-0.0576172,0.2265015-0.0273132,0.3075867c0.030304,0.0820007,0.125,0.1366882,0.234375,0.1366882V45.9423828
			L35.6347656,45.9423828z M41.5009766,46.0751648c0.0967102,0,0.1864929-0.0429993,0.2479858-0.1171875
			c0.0508118-0.0615234,0.0860291-0.1416016,0.1114197-0.2528992c0.0419006-0.1846008,0.0292053-0.3661804,0.0292053-0.3681946
			v-0.0018921c-0.0371094-0.0166016-0.0770874-0.0263977-0.1220093-0.0274048H41.766571
			c-0.1151733,0-0.204071,0.0635071-0.2587585,0.1162109c-0.0732117,0.070282-0.1338501,0.1650696-0.1689453,0.264679
			c-0.0370789,0.1035156-0.0429688,0.1903992-0.0185547,0.2645874c0.0204773,0.0586243,0.0878906,0.1211243,0.1806641,0.1211243
			V46.0751648L41.5009766,46.0751648z M38.9608765,47.3778992c0.7842102,0,1.8604126-0.2392273,2.5323181-0.9111023h0.000885
			l-0.0018921-0.0010071c-0.007782-0.0018921-0.7362976-0.1864929-1.5556946-0.2070007
			c-0.0498047-0.0010071-0.0986023-0.0019836-0.148407-0.0019836c-0.7344055,0-1.2969055,0.1425781-1.6719055,0.4238892
			c-0.1307983,0.0975952-0.2020874,0.1893921-0.2177734,0.2792664c-0.0136414,0.0742188,0.0253906,0.1552429,0.1054993,0.2148132
			c0.1689758,0.1279297,0.4706726,0.1953125,0.8964844,0.2022095l0.0604858,0.0018921V47.3778992L38.9608765,47.3778992z
			 M35.3622742,47.5155945c0.7432251,0,1.3096008-0.1279297,1.6816101-0.3807983
			c0.2149048-0.1455383,0.319397-0.304718,0.3702087-0.4131165c0.0467834-0.101593,0.0575867-0.1865234,0.0595093-0.2030945
			c-0.0205078-0.0088196-0.3242188-0.1436157-0.7783203-0.1651001c-0.0389709-0.0018921-0.0770874-0.0029297-0.1181946-0.0029297
			c-0.5741882,0-1.4471741,0.1875-2.3691101,1.0801392l-0.0009766,0.000885h0.0009766
			c0.420929,0.0556946,0.8096008,0.0840149,1.155304,0.0840149H35.3622742L35.3622742,47.5155945z M31.796875,47.8612976
			c1.7392273-0.2490234,2.4765015-0.8779297,2.7890015-1.3613281c0.3330078-0.516571,0.2647095-0.9940796,0.2637024-0.9989929V45.5
			h-0.0009766c-0.0009155,0-0.1064148-0.0293274-0.2666016-0.0293274c-0.4629211,0-1.6465149,0.2324219-2.7861023,2.3887024
			v0.0019226l0.0019836-0.0009155L31.796875,47.8612976L31.796875,47.8612976z M36.9755859,48.4608765
			c0.1260071,0,0.2391968-0.0467834,0.3182983-0.1337891c0.0645142-0.0703125,0.1114197-0.1640015,0.1425781-0.2879944
			c0.0498047-0.2022095,0.0362244-0.4034119,0.0352173-0.4229126c-0.0527954-0.0214844-0.1064758-0.0342102-0.157196-0.0350952
			h-0.0107727c-0.2519226,0-0.4502258,0.2176819-0.5351257,0.4344788c-0.0478821,0.1231079-0.0577087,0.2266235-0.0273743,0.3076172
			c0.0302734,0.0811157,0.1239624,0.1367798,0.234375,0.1367798V48.4608765L36.9755859,48.4608765z M34.0321655,49.1132812
			c0.679718,0,1.3506165-0.1875,1.9942322-0.5575867h0.000885l-0.000885-0.0010071c0,0-0.0840149-0.1611023-0.2881165-0.3106079
			c-0.194397-0.1424866-0.5448914-0.3134155-1.1122742-0.3153992h-0.0117188c-0.6719055,0-1.4931946,0.2285156-2.4424133,0.6786804
			C32.204071,48.6278687,32.9491882,49.1132812,34.0321655,49.1132812l-0.0008545,0.0010071L34.0321655,49.1132812
			L34.0321655,49.1132812z M28.6869812,50.7187805c0.0181274-0.0088196,0.0220032-0.0117798,0.0346985-0.0245056
			l0.0127258-0.0116882c0.032196-0.0292969,0.0858765-0.0820007,0.1582031-0.1640015
			c0.1337891-0.1524048,0.3129578-0.3740845,0.4701843-0.5704041c0.3120117-0.3886108,0.570282-0.7246094,0.6185913-0.7871094
			l0.0795898-0.1034851l0.7784424-0.2402039l0.5687561-0.2647095l-0.3036804-0.3417664l-1.0435181,0.4462585l-0.7782898,0.1602173
			l-1.4393921,1.0585938l0.000885,0.0010071c0.0030212,0.0028992,0.2095032,0.1737976,0.4146118,0.3602905
			c0.0912781,0.0840149,0.2070007,0.1903992,0.2886047,0.2793274c0.0375977,0.0409851,0.0703125,0.0810852,0.0926819,0.1142578
			c0.0142212,0.0205078,0.0220032,0.0380249,0.0254211,0.0468445l-0.0892944-0.0556335l-0.0967102,0.0761108l0.1972961,0.0176086
			l0.0086975,0.0029907H28.6869812L28.6869812,50.7187805z"/>
		<path class="st2" d="M57.7733917,10.3540039l-0.2362976,0.0937805l-0.0917969,0.0371094l-0.2861023-0.0157166
			l-0.2676086,0.1285095l-0.4756012,0.324707l-0.0205078,0.0150757l-0.1776886,0.0458984l-0.164093-0.0708008l-0.0937195,0.042511
			l-0.0322876,0.1923828l-0.0887909,0.1381226l-0.1093903,0.077179l-0.3789368,0.0386353l-0.3192749,0.164978l-0.4161072-0.1112976
			l-0.1932983,0.0757141l-0.4112091,0.3695679l-0.2098846,0.0996094l-0.0733032-0.0043945l-0.2783203-0.0141907
			l-0.1171875,0.0386047l-0.1756897,0.1694946l-0.3321075,0.0257874l-0.1035004,0.0718079l-0.1621094,0.3266907
			l-0.1757812,0.1811218l-0.1006012,0.0214844l-0.1092987-0.0400085l-0.0820923,0.0145874l-0.0371246,0.2090149
			l-0.0791016,0.0874329l-0.2225952,0.0766907l-0.1778107,0.1478882l-0.155304,0.0801086l-0.2088776-0.0054016h-0.0478973
			l-0.2080078,0.1152954L50.5625,13.5360718l-0.1631317,0.155304l-0.036087,0.0332031l-0.0752106,0.0458984l-0.1249695,0.0737
			l-0.030304,0.0186157l-0.1493988-0.0269165l-0.1758118,0.0698853l-0.070282-0.109375l-0.1221313,0.0726929l-0.1600952,0.0073853
			l-0.2001953-0.089386l-0.1532898-0.0679016l-0.1113892,0.0162048l-0.0381165,0.1943054l-0.0039062,0.0205078l-0.118103,0.156189
			l-0.2187805,0.1329041l-0.0292969,0.0384827l-0.2490234,0.3213196l-0.4735718,0.4981079l-0.4004211,0.203064l-0.414093,0.1260071
			l-0.2910156,0.2387085l-0.7606812,0.3775024l-1.2022095,0.5980835l-0.2460938,0.0786133l-0.3525085,0.0561829
			l-0.6299133,0.2319336l-0.554657,0.1674805L42.976593,17.184082l-0.1094055,0.0332031l-0.7832031,0.2368164l-0.3643188-0.0386047
			l-0.2157898,0.0785828l-0.5614624-0.0624695l-0.390625,0.0078735l-0.2471008,0.0512085l-0.4649048,0.223175l-0.7840881,0.3769226
			l-0.2587891,0.2373047l-0.4043274,0.2104797l-0.4716797,0.1494141l0.0010071-0.1983032l-0.0030212-0.0086975l-0.1639709,0.0516968
			l-0.1182251,0.0375977l-0.3837891,0.0591125h-0.2128906l-0.1328125-0.0386047l-0.0205078,0.006897l-0.7832031,0.2583008
			l-0.8739929,0.0844116l-0.4364929,0.1401672l-0.3272095-0.0054016l-0.2041016,0.0610046l-0.4003906,0.0488892
			l-0.1434937-0.0380859l-0.0323181-0.0087891l-1.1776733,0.0513l-0.538147-0.0610962l-0.2567749,0.0585938l-0.4306946-0.144989
			l-0.6279297-0.0728149l-0.1469727-0.0438843l-0.3301086-0.0982056l-0.1493835,0.0859985l-0.1118164,0.012207l-0.2675781-0.0971985
			l-0.0962219-0.0024109l-0.2207031,0.0801086l-0.1268921-0.0328064l-0.1177063-0.0942078l-0.2767944-0.0409851
			l-0.1685181-0.1416321l-0.9423828,0.1250305l-0.2557983-0.0752258l-0.8570251-0.2499695l-0.1366882,0.0068054
			l-0.1698914,0.1274719l-0.2553711,0.0932007l-0.2217407,0.0577087l-0.3016968,0.0101929l-0.3505859-0.0917969l-0.3612976-0.175293
			l-0.1333008-0.0317078l-0.2984009,0.030304l-0.0913086,0.0083008l-0.5472717-0.2940063l-0.7061157-0.4413757l-0.4785156-0.230011
			l-0.1802063-0.0292969l-0.0238647,0.0854797l0.0892944,0.281189l0.0302734,0.2779236l-0.0092773,0.2568054l-0.0049133,0.1592102
			l0.0449829,0.1424866l0.172821,0.1918945l0.0717773,0.1924133l0.0527039,0.5292969l-0.0004883,0.5375977l-0.0838928,0.8569946
			l-0.0284119,0.1303101l-0.1004639,0.444397l-0.0914307,0.4076843l-0.3553772,1.0854187l-0.0977173,0.1347656l-0.2397156,0.1636047
			l-0.5429688,0.3691101l-0.3999023,0.2310181l-0.1265259,0.0521851L20.3862,23.9906616l-0.2020874-0.0101929l-0.2520142-0.1366882
			l-0.2470093-0.0635071l-0.3242798-0.2329102l-0.360321-0.074707l-0.3945007-0.2280579l-0.1030884-0.1235352l-0.2148132-0.0205078
			L17.9896851,23.0112v-0.0005188l-0.1092834-0.0326843l-0.0757141-0.0219116l0,0l-0.3804016-0.0108032l-0.355011-0.1636047
			l-0.1864929-0.0453796l-0.2553711-0.0127258l-0.2670288,0.124115l-0.0004883-0.0005188l-0.1352844,0.0634155l-0.170929-0.0682983
			l-0.1239929,0.007782l-0.1400757,0.2119141l-0.0210266,0.0332031l-0.0967102,0.0507812l-0.1200867-0.0014648l-0.0942993-0.0024109
			l-0.1015015,0.0443726l-0.137207,0.0596313l0,0l-0.1210938,0.0527039l-0.059082,0.0258789L15.0375671,23.3237
			l-0.0365906,0.0073853l-0.0645142,0.0111694l-0.0800781,0.0151367l-0.1411133-0.0825195l-0.0751953-0.0444031l-0.125885-0.0253906
			l-0.0679016,0.0487976l-0.0137024,0.2304993l-0.0614929,0.1382141l-0.1968079,0.1737671l-0.1996765,0.1758118
			l-0.1392212,0.2050171l-0.3685913,0.8408813l-0.2304993,0.339325l-0.0716858,0.079071l-0.241333,0.2661133l-0.2142944,0.1661072
			l-0.4931946,0.3822937l-0.4668274,0.1748047l-0.4022522,0.0820007l-0.195343,0.0010071l-0.370575-0.0493164l-0.3330078-0.1025696
			l-0.3658142-0.2285156l-0.4013367-0.3222046l-0.5805359-0.5737915L9.0180664,25.183075L9.000946,25.1713867L8.8178406,25.054657
			l-0.1357117,0.003418l-0.0527344,0.0874023l-0.0292969,0.1265259l-0.0244141,0.1122742l-0.066925,0.6382141l0.0054016,0.0370789
			l0.034668,0.2627258l0.440918,0.6161804l0.1362305,0.3276062l0.0224609,0.0371094l0.0908203,0.1528931l0.0693054,0.1166992
			l0.0068665,0.0116882l0.1508789,0.449707l-0.105957,0.2539062l0.0536804,0.1703796l-0.1342468,0.1040039l-0.0244141,0.1465149
			l0.3959656,0.496582l0.0864258,0.2187195l-0.0966797,0.3037109l-0.1538086,0.1674805l-0.0429382,0.0458984l0.0214844,0.1283875
			l0.1821289,0.1636353l0.3100586,0.2758789l0.164978,0.4092102l0.1254883,0.1098022l0.1460266-0.0312195l0.0810852,0.0625305
			l0.1230164-0.0020142l0.1210938,0.1201172l0.078186,0.0380859l0.1240234,0.0625l0.0975647,0.1270142l0.0220032,0.391571
			l0.1826172,0.4873047l0.0029907,0.2646179l0.0009155,0.0370789l0.1132812,0.1954041l0.0357056,0.1542053l-0.0606079,0.4072876
			l0.1450195,0.1308289l0.1572876-0.0312195l0.1009827,0.0155945l0.163147,0.1358032l0.1972656,0.3006897l0.1932983-0.0282898
			l0.1221313,0.0585938l0.5917969,0.5352173l0.1337891,0.0672913l0.007782,0.0039978l0.0962219,0.0487976l0.1200867,0.1211243
			l0.1860962-0.1231079l0.0205078-0.0028992l0.2020874-0.0176086l0.0889282,0.0595703l0.1708679,0.1152039l0.2241211-0.0028687
			l0.4852905,0.1493835l0.2124023,0.0537109l0.4267883,0.2655945l0.1816101,0.1123047l0.1074829,0.0878906l0.1425171,0.1162109
			l0.2851868,0.1221008l0.2445984,0.0585938l0.1324463,0.031311l0.0995789,0.0390015l0.0028992-0.0068054l0.0009766,0.0009766
			l-0.0019836,0.0058289l0.5292969,0.203186l0.2866211,0.0672913l0.265686,0.0977173l0.1928101,0.0703125l0.1420898,0.0019836
			l0.2001953-0.1690063l0.194397-0.0107117l0.1611023,0.0400085l0.1572266-0.0263977l0.2489929-0.1532898l0.0488892-0.0722046
			l0.176178-0.0840149l0.5957031-0.0741882l0.174408,0.0565796l0.4467163-0.1942749l0.2998047,0.0829773l0.264679-0.0937805
			l0.5796204,0.1289062l0.1537781,0.1083984l0.1719055,0.1972961h0.0210266l0.1917725,0.0039062l-0.0799866,0.1337891
			l0.2528992,0.2655945l0.2279663,0.3447266l0.0157166,0.0458679l0.1659851,0.4873352l0.1235352,0.1728821l0.0863953,0.2411804
			l0.0043945,0.1562195l-0.1347046,0.1026001l-0.0219727,0.0585938l-0.0073242,0.0215149l0.0272827,0.0663757l0.0503235-0.0283813
			l0.0967102-0.0527039l0.1166687-0.0184937l0.2070312,0.0223999l0.1366882,0.0137024l0.2157898-0.1074219l0.1430969-0.0703125
			l0.230011,0.0986328l0.2523804-0.0028992l0.1060181,0.046814l0.3003235,0.1367798l0.1532593,0.0145874l0.0566101-0.0380859
			l0.0362244-0.0848999l-0.0186157-0.1006165l-0.1146851-0.1318665l-0.2539368-0.2949219l-0.1034546-0.1513977l-0.0791016-0.2187195
			l-0.0249023-0.280304l-0.0171204-0.1884766l0.031189-0.2489929l0.0684204-0.0878906l0.0498047-0.1972046h0.0010071
			l0.013092-0.0518188l0.140686-0.1875l0.3735046-0.2391968l0.4008789-0.359375l0.316925-0.2090149l0.3265991-0.1416321
			l0.0087891-0.0390625l0.0361938,0.0147095l0.8310242-0.2832336l0.0136719-0.0009766l0.3701172-0.0645142l2.4976196,0.1758118
			l0.0921936-0.0283203h0.0004883l0.0830078-0.2333984l0.0449829-0.0438843l0.0296936-0.0284119l0.2745056-0.1200867
			l0.128418-0.0185242l0.3563843,0.0879211l0.1460266,0.0361023l0.2338562-0.1308899l0.1660156,0.0019836l0.3417969-0.1865234
			l0.2119141,0.0048218l0.0800781-0.032196l0.4121094-0.2958984l0.3974915-0.1132812l0.1025085-0.0556335l0.0370789-0.0195923
			l0.4063416-0.2148132l0.2587585-0.1981812l0.2226257-0.1192017l0.2451172-0.0625l0.6387024-0.0449219l0.1288757-0.2147827
			l0.2754211-0.0361938l0.1659851-0.1875l0.1894836-0.0771179l0.1367188-0.1962891l0.1143188-0.1651001l0.1590576-0.0917969
			l0.5108337-0.032196l0.6063843,0.0751953l0.0801086-0.0487976l0.1366882-0.4883118l0.1436157-0.0917969l0.3856812-0.5625
			l0.0010071-0.2051086l0.0010071-0.1708679l0.0624695-0.2441101l-0.0429688-0.4400024l0.0517883-0.445282l0.2392273-0.5664062
			l0.211853-0.2285156l0.3408203-0.2304993l0.1729126-0.0751953l0.2460938-0.0415039V28.105957l0.0361023-0.0063782
			l0.0624695-0.0106812l0.8448181-0.0118103c0.0117188-0.0083008,0.3076172-0.0039062,0.3076172-0.0039062l0.281189-0.0038757
			l0.7129211,0.1269836l0.0507812,0.0087891l0.2412109,0.0780945l0.2782898,0.2163086l0.2940063,0.2871094l0.055603,0.0537109
			l0.1904907,0.0800781l0.0575867,0.0254211l0.157196-0.0254211l0.2246094-0.1166992l0.1690063-0.1430969l0.2303772-0.1259155
			l0.0059204-0.007782l0.1299133-0.1954041l0.0039062-0.0039062l0.0018921,0.0004883l0.0010071-0.0009766l-0.0019226-0.0003967
			l0.0507202-0.0777283l0.445282-0.1737976l0.5245056-0.0302734l0.0585938-0.0317078l0.0332031-0.0176086l0.1385803-0.1625977
			l0.1299133-0.0014954l0.3135071,0.1138l0.2216797-0.0438843l0.1748352,0.070282l0.1366882-0.0160828l0.2567749-0.0308228
			l0.2764282,0.1943359l0.1601868,0.0204773l0.5673218,0.3320923l0.0292969,0.0048828l0.015686,0.0024109l0.032196,0.0054321
			l0.0673828-0.0200195l0.0996094-0.0289001l0.0136108-0.0039062l0.0126953,0.0176086l0.0644836,0.0907898l0.0879211,0.0127258
			l0.1045227-0.1396179l-0.0410156-0.0635071l-0.0157166-0.0228882l-0.2030945-0.0411072l-0.1816101-0.3110046l0.1727905-0.1865234
			l-0.2714844-0.3334656l-0.0448914-0.0552063l-0.0155945-0.023407l-0.093811-0.1425781l-0.4754944-0.7250977l-0.6192017-0.4946289
			l-0.0009766,0.0004883l-0.2168274-0.1738586l-0.000885-0.0009155l-0.0762024-0.0596313l-0.3311157-0.3363647l-0.2362671-0.3140259
			l-0.0312195-0.0673828l-0.0489197-0.1063843l-0.1416016-0.3086243l-0.2460938-0.1899719l-0.2010803-0.2197266
			l-0.0098267-0.0126953l-0.414978-0.5639954l-0.0684204-0.0942078l-0.0976868-0.0565796l-0.2070007-0.0014954l-0.0195007-0.0195312
			l-0.0116882-0.0121765L43.125,23.4691772l0.0996094-0.0990906l0.1103821-0.027832l0.047821-0.1088867l-0.210907-0.6117859
			l-0.0020447-0.0214844l-0.015564-0.195343l0.1727905-0.8871765l0.0214844-0.1083984l0.2940063-0.5971985l0.1816101-0.1489258
			l0.1983032-0.3896484l0.1698914-0.2495422l0.1631165-0.1586609l0.0282898-0.0166016l0.2939148-0.1782227l0.2470703-0.0346985
			l0.2354126-0.0331726l0.4111023,0.1264648l0.3905945-0.0072937l0.0762024-0.0083008l0.1777039-0.0200195l0.2909851-0.0922852
			l0.1376953-0.0849915l0.0723267-0.1094055l0.1483765-0.4999695l0.0479126-0.1587219l0.0917969-0.172821l0.5322266-0.6122742
			l0.4013977-0.3716125l0.9042969-0.6630859l0.4423828-0.2641296l0.2254944-0.1352844l2.0176239-0.8965149l0.523468-0.531189
			l0.273407-0.2763977l0.483429-0.3242188l0.5653687-0.2314758l0.4864197-0.3852234l0.1063995-0.1333008l0.1338043-0.4316711
			l0.1112976-0.026825L54.3125,13.0741882l0.0283051-0.0620117l0.3974915-0.2798157l0.0448914-0.0223694L56.3251953,11.9375
			l0.2245941,0.0307922l0.1190948-0.179718l0.449295-0.0751953l0.0820007-0.0141907l0.1112976-0.0552063l0.093811-0.1600952
			v-0.0317993l0.0127106-0.4282227l0.0956879-0.1156921l0.0527039-0.282196l0.0487976-0.0654907l0.0518036-0.0672913
			l0.1268921-0.0894165l-0.0223846-0.0532227L57.7733917,10.3540039L57.7733917,10.3540039z"/>
	</g>
</g>
</svg>
