<?xml version="1.0" encoding="utf-8"?>
<!-- Generator: Adobe Illustrator 22.1.0, SVG Export Plug-In . SVG Version: 6.00 Build 0)  -->
<svg version="1.1" id="Layer_1" xmlns="http://www.w3.org/2000/svg" xmlns:xlink="http://www.w3.org/1999/xlink" x="0px" y="0px"
	 viewBox="0 0 60 60" style="enable-background:new 0 0 60 60;" xml:space="preserve">
<style type="text/css">
	.st0{clip-path:url(#SVGID_2_);fill:#0D509F;}
	.st1{clip-path:url(#SVGID_2_);fill:#FFFFFF;}
	.st2{clip-path:url(#SVGID_2_);fill:#E5262C;}
</style>
<g id="XMLID_1_">
	<g>
		<defs>
			<path id="SVGID_1_" d="M59,60H0.9999695C0.4477234,60,0,59.5526733,0,59V0.9999695c0-0.5522461,0.4477234-1,0.9999695-1H59
				c0.5526886,0,0.9999847,0.4477539,0.9999847,1V59C59.9999847,59.5526733,59.5526886,60,59,60L59,60z"/>
		</defs>
		<clipPath id="SVGID_2_">
			<use xlink:href="#SVGID_1_"  style="overflow:visible;"/>
		</clipPath>
		<polygon class="st0" points="-19.0795898,-0.0000305 100.9199982,-0.0000305 100.9199982,60 -19.0795898,60 
			-19.0795898,-0.0000305 		"/>
		<polygon class="st1" points="-19.0795898,9.9999695 100.9199982,9.9999695 100.9199982,50 -19.0795898,50 -19.0795898,9.9999695 
					"/>
		<polygon class="st2" points="-19.0795898,11.6665039 100.9199982,11.6665039 100.9199982,48.3329773 -19.0795898,48.3329773 
			-19.0795898,11.6665039 		"/>
		<path class="st1" d="M20.9203796,16.6664734c7.3638,0,13.3335266,5.9697266,13.3335266,13.3334961
			c0,7.3643188-5.9697266,13.3330078-13.3335266,13.3330078S7.5869141,37.3642883,7.5869141,29.9999695
			C7.5869141,22.6362,13.5565796,16.6664734,20.9203796,16.6664734L20.9203796,16.6664734z"/>
		<polygon class="st2" points="20.9203796,17.0834961 16.9286804,29.3677063 23.0712891,31.3632812 20.9203796,17.0834961 		"/>
		<polygon class="st2" points="20.9203796,17.0834961 24.9115906,29.3677063 18.7695007,31.3632812 20.9203796,17.0834961 		"/>
		<polygon class="st2" points="33.2051086,26.0082703 20.2880859,26.0082703 20.2880859,32.4667664 33.2051086,26.0082703 		"/>
		<polygon class="st2" points="33.2051086,26.0082703 22.7549133,33.6005554 18.9589844,28.3759766 33.2051086,26.0082703 		"/>
		<polygon class="st2" points="8.6357422,26.0082703 19.0853882,33.6005554 22.8817749,28.3759766 8.6357422,26.0082703 		"/>
		<polygon class="st2" points="8.6357422,26.0082703 21.5526733,26.0082703 21.5526733,32.4667664 8.6357422,26.0082703 		"/>
		<polygon class="st2" points="28.5126648,40.4501648 24.5209656,28.1654663 18.3788757,30.1611023 28.5126648,40.4501648 		"/>
		<polygon class="st2" points="28.5126648,40.4501648 18.0629883,32.8573608 21.8588867,27.632782 28.5126648,40.4501648 		"/>
		<polygon class="st2" points="13.328064,40.4501648 23.7778015,32.8573608 19.9819031,27.632782 13.328064,40.4501648 		"/>
		<polygon class="st2" points="13.328064,40.4501648 17.3197632,28.1654663 23.4618835,30.1611023 13.328064,40.4501648 		"/>
	</g>
</g>
</svg>
