<?xml version="1.0" encoding="utf-8"?>
<!-- Generator: Adobe Illustrator 22.1.0, SVG Export Plug-In . SVG Version: 6.00 Build 0)  -->
<svg version="1.1" id="Layer_1" xmlns="http://www.w3.org/2000/svg" xmlns:xlink="http://www.w3.org/1999/xlink" x="0px" y="0px"
	 viewBox="0 0 60 60" style="enable-background:new 0 0 60 60;" xml:space="preserve">
<style type="text/css">
	.st0{clip-path:url(#SVGID_2_);fill:#3B72B8;}
	.st1{clip-path:url(#SVGID_2_);fill:#F7D619;}
	.st2{clip-path:url(#SVGID_2_);fill:#CF1323;}
</style>
<g id="XMLID_1_">
	<g>
		<defs>
			<path id="SVGID_1_" d="M59,60H0.9999695C0.4477234,60,0,59.5526733,0,59V0.9999695c0-0.5522461,0.4477234-1,0.9999695-1H59
				c0.5526886,0,0.9999847,0.4477539,0.9999847,1V59C59.9999847,59.5526733,59.5526886,60,59,60L59,60z"/>
		</defs>
		<clipPath id="SVGID_2_">
			<use xlink:href="#SVGID_1_"  style="overflow:visible;"/>
		</clipPath>
		<polygon class="st0" points="0,-0.0000305 79.9999847,-0.0000305 79.9999847,60 0,60 0,-0.0000305 		"/>
		<path class="st1" d="M74.9999847-0.0000305L0,44.9999695V60l0,0h5l74.9999847-45.0000305v-15H74.9999847 M3.6000671,11.9999695H12
			l2.6000977-8.3999023l2.6000977,8.3999023h8.3999023l-6.800293,5.2001953l2.6000977,8.3999329l-6.7998047-5.2001953
			l-6.8003235,5.2001953l2.6000977-8.3999329L3.6000671,11.9999695L3.6000671,11.9999695z"/>
		<polyline class="st2" points="79.9999847,-0.0000305 0,47.9999695 0,60 0,60 0,60 79.9999847,11.9999695 79.9999847,-0.0000305 		
			"/>
	</g>
</g>
</svg>
