<?xml version="1.0" encoding="utf-8"?>
<!-- Generator: Adobe Illustrator 22.1.0, SVG Export Plug-In . SVG Version: 6.00 Build 0)  -->
<svg version="1.1" id="Layer_1" xmlns="http://www.w3.org/2000/svg" xmlns:xlink="http://www.w3.org/1999/xlink" x="0px" y="0px"
	 viewBox="0 0 60 60" style="enable-background:new 0 0 60 60;" xml:space="preserve">
<style type="text/css">
	.st0{clip-path:url(#SVGID_2_);fill:#6CB1E2;}
	.st1{clip-path:url(#SVGID_2_);fill:#2CA837;}
	.st2{clip-path:url(#SVGID_2_);fill:#FFFFFF;}
	.st3{clip-path:url(#SVGID_2_);fill:#D7171D;}
</style>
<g id="XMLID_1_">
	<g>
		<defs>
			<path id="SVGID_1_" d="M59,60H0.9999695C0.4477234,60,0,59.5526733,0,59V0.9999695c0-0.5522461,0.4477234-1,0.9999695-1H59
				c0.5526886,0,0.9999847,0.4477539,0.9999847,1V59C59.9999847,59.5526733,59.5526886,60,59,60L59,60z"/>
		</defs>
		<clipPath id="SVGID_2_">
			<use xlink:href="#SVGID_1_"  style="overflow:visible;"/>
		</clipPath>
		<polygon class="st0" points="0,0.03125 89.9062958,0.03125 89.9062958,59.9687805 0,59.9687805 0,0.03125 		"/>
		<polygon class="st1" points="0,29.9999695 89.9062958,29.9999695 89.9062958,59.9687805 0,59.9687805 0,29.9999695 		"/>
		<polygon class="st2" points="0,0.03125 0,59.9687805 25.9535828,44.9844055 51.907196,29.9999695 25.9535828,15.015564 0,0.03125 
					"/>
		<polygon class="st3" points="19.8652039,22.507782 21.7250977,28.2313843 27.7427063,28.2313843 22.8739929,31.7685852 
			24.7338867,37.4921875 19.8652039,33.9550781 14.996582,37.4921875 16.8560181,31.7685852 11.9872742,28.2313843 
			18.0053711,28.2313843 19.8652039,22.507782 		"/>
	</g>
</g>
</svg>
