<?xml version="1.0" encoding="utf-8"?>
<!-- Generator: Adobe Illustrator 22.1.0, SVG Export Plug-In . SVG Version: 6.00 Build 0)  -->
<svg version="1.1" id="Layer_1" xmlns="http://www.w3.org/2000/svg" xmlns:xlink="http://www.w3.org/1999/xlink" x="0px" y="0px"
	 viewBox="0 0 60 60" style="enable-background:new 0 0 60 60;" xml:space="preserve">
<style type="text/css">
	.st0{clip-path:url(#SVGID_2_);fill:#086C40;}
	.st1{clip-path:url(#SVGID_2_);fill:#FDD21A;}
	.st2{clip-path:url(#SVGID_2_);fill:#FFFFFF;}
	.st3{clip-path:url(#SVGID_2_);fill:#020203;}
	.st4{clip-path:url(#SVGID_2_);fill:#D41E30;}
	.st5{clip-path:url(#SVGID_2_);fill:#9D4C16;}
	.st6{clip-path:url(#SVGID_2_);fill:#8262A7;}
</style>
<g id="XMLID_1_">
	<g>
		<defs>
			<path id="SVGID_1_" d="M59,60H0.9999695C0.4477234,60,0,59.5526733,0,59V0.9999695c0-0.5522461,0.4477234-1,0.9999695-1H59
				c0.5526886,0,0.9999847,0.4477539,0.9999847,1V59C59.9999847,59.5526733,59.5526886,60,59,60L59,60z"/>
		</defs>
		<clipPath id="SVGID_2_">
			<use xlink:href="#SVGID_1_"  style="overflow:visible;"/>
		</clipPath>
		<polygon class="st0" points="-30,-0.0000305 89.9999847,-0.0000305 89.9999847,60 -30,60 -30,-0.0000305 		"/>
		<polygon class="st1" points="-30,22.4999695 89.9999847,22.4999695 89.9999847,32.4999695 -30,32.4999695 -30,22.4999695 		"/>
		<polygon class="st2" points="-30,27.5 89.9999847,27.5 89.9999847,37.4999695 -30,37.4999695 -30,27.5 		"/>
		<polygon class="st3" points="-30,27.5 89.9999847,27.5 89.9999847,32.4999695 -30,32.4999695 -30,27.5 		"/>
		<polygon class="st1" points="22.5,-0.0000305 32.4999695,-0.0000305 32.4999695,60 22.5,60 22.5,-0.0000305 		"/>
		<polygon class="st2" points="27.5,-0.0000305 37.5,-0.0000305 37.5,60 27.5,60 27.5,-0.0000305 		"/>
		<polygon class="st3" points="27.5,-0.0000305 32.4999695,-0.0000305 32.4999695,60 27.5,60 27.5,-0.0000305 		"/>
		<path class="st4" d="M30,14.9999695c8.2841797,0,15,6.7158203,15,15c0,8.2842102-6.7158203,15-15,15
			c-8.2842102,0-15-6.7157898-15-15C15,21.7157898,21.7157898,14.9999695,30,14.9999695L30,14.9999695z"/>
		<polygon class="st0" points="29.5189819,18.1591797 30,16.7870789 30.4369812,18.1371765 31.9022827,18.1591797 
			30.7431946,19.0438843 31.2675781,20.5487976 30,19.6200867 28.7538757,20.5048828 29.2348938,19.0438843 28.0980835,18.1811829 
			29.5189819,18.1591797 		"/>
		<path class="st3" d="M30.0004883,19.5585632l1.167511,0.855011l-0.4844055-1.387207l1.0731812-0.8193665l-1.3563843-0.0205078
			l-0.4024048-1.243103l-0.4432983,1.2651062l-1.3109741,0.019989l1.0497742,0.7973938l-0.444397,1.3500977L30.0004883,19.5585632
			L30.0004883,19.5585632z M31.3681946,20.6845703l-1.3687134-1.0029602l-1.3403015,0.9521484L29.1762695,19.0625
			l-1.2241821-0.9292297l1.531311-0.0238953l0.5185852-1.4790039l0.4716187,1.4570007l1.5733032,0.0239258l-1.2447205,0.9501648
			L31.3681946,20.6845703L31.3681946,20.6845703z"/>
		<polygon class="st0" points="30.4809875,41.8407898 30,43.2128601 29.5629883,41.8632812 28.0980835,41.8407898 
			29.2567749,40.9560852 28.7318726,39.4511719 30,40.3798828 31.2460938,39.4950867 30.7650757,40.9560852 31.9022827,41.8192749 
			30.4809875,41.8407898 		"/>
		<path class="st3" d="M28.2431946,41.7929688l1.3563843,0.0205078l0.4024048,1.243103l0.4433289-1.2646179l1.3105774-0.0205078
			l-1.049408-0.796875l0.4449158-1.3505859l-1.1519165,0.8173828l-1.167511-0.8554688l0.4839172,1.3876953L28.2431946,41.7929688
			L28.2431946,41.7929688z M29.9979858,43.3690796l-0.4716187-1.4570007l-1.5733032-0.023407l1.2447205-0.9501953
			l-0.565979-1.6230774l1.3686829,1.0029602l1.3403015-0.952179L30.8237,40.9374695l1.2242126,0.929718l-1.5313416,0.023407
			L29.9979858,43.3690796L29.9979858,43.3690796z"/>
		<polygon class="st0" points="36.5712891,20.1376953 37.7666016,19.3104858 37.3262024,20.659668 38.4989929,21.5385742 
			37.0409851,21.5731812 36.5810852,23.0990906 36.101593,21.602478 34.5731812,21.585907 35.8212891,20.6864929 
			35.4082031,19.320282 36.5712891,20.1376953 		"/>
		<path class="st3" d="M34.7255859,21.5375671l1.4121094,0.0151062l0.4414062,1.3779907l0.4247742-1.4067993l1.3496094-0.032196
			l-1.085907-0.8134766l0.4053345-1.2421875L36.570282,20.1987l-1.0722961-0.7543945l0.3808899,1.2621765L34.7255859,21.5375671
			L34.7255859,21.5375671z M36.5820007,23.2675781l-0.5174866-1.6156921l-1.6446228-0.0176086l1.342804-0.9672852
			l-0.4443054-1.4711914l1.2528992,0.8808899l1.2891235-0.8916321l-0.4756165,1.4560242l1.2597046,0.9439087l-1.5664062,0.0370789
			L36.5820007,23.2675781L36.5820007,23.2675781z"/>
		<polygon class="st0" points="23.4291992,39.8622742 22.2333984,40.6894836 22.6732788,39.3407898 21.5014954,38.4618835 
			22.9589844,38.4267883 23.4188843,36.9003906 23.8988953,38.3974915 25.4271851,38.4140625 24.1791992,39.3134766 
			24.5917969,40.6796875 23.4291992,39.8622742 		"/>
		<path class="st3" d="M21.6464844,38.507782l1.085907,0.8144836l-0.405304,1.242218l1.1021118-0.7626953l1.0727844,0.7538757
			l-0.3808899-1.2617798l1.1533203-0.8320007l-1.4121094-0.0146179l-0.441925-1.3779602l-0.4237671,1.40625L21.6464844,38.507782
			L21.6464844,38.507782z M22.1400757,40.8153992l0.4746094-1.4559937l-1.258667-0.9444275l1.5658875-0.0370789l0.495575-1.6455078
			l0.5180054,1.6152954l1.644104,0.0174866l-1.3422852,0.967804l0.4442749,1.4707031l-1.2528687-0.8807983L22.1400757,40.8153992
			L22.1400757,40.8153992z"/>
		<polygon class="st0" points="41.1132812,25.8832703 42.5663757,25.9169922 41.4169922,26.7494812 41.8495789,28.1498718 
			40.6493835,27.3207703 39.3798828,28.2855835 39.8721008,26.7924805 38.6455078,25.8808594 40.1835938,25.8866882 
			40.6522827,24.5390625 41.1132812,25.8832703 		"/>
		<path class="st3" d="M38.7969055,25.9315796l1.1337891,0.8422852l-0.453186,1.3745422l1.1708679-0.8891296l1.1104126,0.7675781
			l-0.3994141-1.2963867l1.0576172-0.7670898l-1.3399048-0.0307922l-0.4248047-1.2406921l-0.4334717,1.2450867
			L38.7969055,25.9315796L38.7969055,25.9315796z M39.2821655,28.4223633l0.531311-1.6113586l-1.320282-0.9809265
			l1.6552124,0.0068054l0.5048828-1.4512024l0.4950867,1.448822l1.5674133,0.0355835l-1.2402039,0.8988953l0.4638977,1.5039062
			l-1.289093-0.8901062L39.2821655,28.4223633L39.2821655,28.4223633z"/>
		<polygon class="st0" points="18.8871765,34.1161804 17.4335938,34.0829773 18.582489,33.2499695 18.1509094,31.8505859 
			19.3505859,32.6786804 20.6195984,31.7147827 20.1278687,33.2079773 21.3549805,34.1190796 19.8164062,34.1132812 
			19.347168,35.460907 18.8871765,34.1161804 		"/>
		<path class="st3" d="M17.5829773,34.0361023l1.3403015,0.0312805l0.4244385,1.2402039l0.4335938-1.2441101l1.4212646,0.0049133
			l-1.1333008-0.8417969l0.4526978-1.3750305l-1.1698608,0.8896179l-1.1109314-0.7675781l0.3999023,1.2958984L17.5829773,34.0361023
			L17.5829773,34.0361023z M19.3466797,35.6142883l-0.495575-1.4483032l-1.566925-0.0361023l1.2402344-0.8993835
			l-0.4639282-1.5030212l1.2886047,0.8897095l1.3681946-1.0401001l-0.5302734,1.6123962l1.3197937,0.9803772l-1.6547241-0.0068054
			L19.3466797,35.6142883L19.3466797,35.6142883z"/>
		<polygon class="st0" points="41.4101868,33.2012024 42.5663757,34.0829773 41.1474915,34.0810852 40.6737671,35.4677734 
			40.1903687,34.0917969 38.5966797,34.1259766 39.8721008,33.2079773 39.414978,31.7489929 40.6562805,32.6581726 
			41.828064,31.8437805 41.4101868,33.2012024 		"/>
		<path class="st3" d="M40.2255859,34.0409851l0.4473267,1.2743835l0.438385-1.2840881l1.3067017,0.0018921l-1.0654907-0.8125
			l0.3857727-1.2539062l-1.0829773,0.7528992l-1.1465149-0.8407898l0.4219055,1.3486023l-1.1748047,0.8457031L40.2255859,34.0409851
			L40.2255859,34.0409851z M40.6747742,35.6210938l-0.5195007-1.4785156l-1.7187805,0.0371094l1.3769836-0.9912109
			l-0.4911804-1.569397l1.3348999,0.9776001l1.2616882-0.8769836l-0.4511108,1.4628906l1.2470093,0.9501953l-1.531189-0.0010071
			L40.6747742,35.6210938L40.6747742,35.6210938z"/>
		<polygon class="st0" points="18.5897827,26.7982788 17.4335938,25.9169922 18.8525085,25.9184875 19.3262024,24.532196 
			19.8100891,25.9076843 21.4032898,25.8735046 20.1278687,26.7924805 20.5845032,28.2509766 19.3437805,27.3417969 
			18.1719055,28.1566772 18.5897827,26.7982788 		"/>
		<path class="st3" d="M19.344696,27.2807922l1.1470032,0.8397827l-0.4224243-1.3476868l1.174408-0.8460999l-1.4692993,0.0316772
			l-0.4472961-1.2738647l-0.4389038,1.2841797l-1.3062134-0.0015259l1.065918,0.8125305l-0.3856812,1.2528992L19.344696,27.2807922
			L19.344696,27.2807922z M20.6777039,28.3808899l-1.3344116-0.9776001l-1.262207,0.8769836l0.4506226-1.4634094
			l-1.2464905-0.9501648l1.5316772,0.0019836l0.5088196-1.4893188l0.5189819,1.4775085l1.7182922-0.0365906l-1.3765259,0.9916992
			L20.6777039,28.3808899L20.6777039,28.3808899z"/>
		<polygon class="st0" points="37.3485718,39.296875 37.7666016,40.6894836 36.6190796,39.8544922 35.4208679,40.6972656 
			35.8388977,39.3007812 34.5292969,38.391571 36.101593,38.3974915 36.5888977,36.9491882 37.0585938,38.4140625 
			38.4853821,38.4433594 37.3485718,39.296875 		"/>
		<path class="st3" d="M34.6894836,38.4423828l1.2070007,0.8379211l-0.3858032,1.2928772l1.1094055-0.7801819l1.0557251,0.7684937
			l-0.3848267-1.2842102l1.0487976-0.7861023l-1.3172913-0.0282898l-0.4346008-1.3534851l-0.4512024,1.3378601
			L34.6894836,38.4423828L34.6894836,38.4423828z M35.3320007,40.8212891l0.4483032-1.5010071l-1.4121094-0.9794922
			l1.6971741,0.006897l0.5244141-1.5585938l0.5059204,1.5751648l1.5360718,0.032196l-1.2246094,0.9199219l0.4492188,1.5010071
			l-1.2373047-0.9013977L35.3320007,40.8212891L35.3320007,40.8212891z"/>
		<polygon class="st0" points="22.6509094,20.7030945 22.2333984,19.3104858 23.3808899,20.1459656 24.5786133,19.3021851 
			24.1611023,20.6996765 25.4707031,21.6088867 23.8988953,21.602478 23.4111023,23.0507812 22.9413757,21.585907 
			21.5141907,21.5561829 22.6509094,20.7030945 		"/>
		<path class="st3" d="M21.6601868,21.5092773l1.3178101,0.0278015l0.434082,1.3534851l0.4507141-1.3383789l1.4472961,0.0058899
			l-1.2070923-0.8378906l0.3866882-1.2939148l-1.1092834,0.7807007l-1.0562134-0.7689819l0.3847961,1.2842102L21.6601868,21.5092773
			L21.6601868,21.5092773z M23.4096985,23.2108765l-0.5049133-1.575592l-1.5365906-0.0323181l1.2246094-0.9188843
			l-0.449707-1.5014954l1.2381897,0.901886l1.2867126-0.9057922l-0.4483032,1.5004883l1.4115906,0.980011l-1.6966858-0.006897
			L23.4096985,23.2108765L23.4096985,23.2108765z"/>
		<path class="st0" d="M31.7411804,29.559082c0.4932251-0.0513,1.0332031,1.8804016,1.2070007,4.315918
			c0.1739197,2.4346008-0.0848999,4.4501953-0.5770874,4.5009766c-0.492218,0.0517273-1.0332031-1.8808899-1.2070007-4.3154907
			C30.9902039,31.6259766,31.2489624,29.6103821,31.7411804,29.559082L31.7411804,29.559082z"/>
		<path class="st3" d="M31.7597961,29.683075c-0.0019836,0-0.0039062,0-0.0059204,0l0,0
			c-0.3143921,0.0332031-0.6522827,1.7515259-0.4647827,4.3686829c0.164978,2.3076477,0.6269226,3.8652344,0.9775085,4.1591187
			c0.0243835,0.0205078,0.0596008,0.0440063,0.0917969,0.0411072c0.3144836-0.0322876,0.6522827-1.7510071,0.4647827-4.3681946
			c-0.1640015-2.3076172-0.625885-3.8652039-0.977478-4.1596985C31.8222961,29.7050781,31.7900085,29.683075,31.7597961,29.683075
			L31.7597961,29.683075z M32.351593,38.5019836c-0.0839844,0-0.1661072-0.0332031-0.2452087-0.0997009
			c-0.4745789-0.3973999-0.9129944-2.1787109-1.0663757-4.3329773c-0.1303101-1.8203125-0.0541992-4.5571289,0.6885071-4.6347351
			c0.0946655-0.0102844,0.1884766,0.0229187,0.2773743,0.098114c0.4746094,0.397522,0.9129944,2.1791992,1.0672913,4.3334961
			c0.1298828,1.8203125,0.0538025,4.5567017-0.6893921,4.6347961C32.3729858,38.5019836,32.3622742,38.5019836,32.351593,38.5019836
			L32.351593,38.5019836z"/>
		<path class="st0" d="M32.6200867,29.5492859c0.5205078-0.0541992,1.0849915,1.8754883,1.2597961,4.3110962
			c0.1748047,2.4345093-0.1054993,4.4520874-0.6270142,4.5057983c-0.5204773,0.0546875-1.0848694-1.875-1.2597046-4.3105164
			C31.8183899,31.6210938,32.0985718,29.6034851,32.6200867,29.5492859L32.6200867,29.5492859z"/>
		<path class="st3" d="M32.632782,29.6737976c-0.343689,0.035675-0.7059937,1.7167969-0.5145874,4.3730774
			c0.1630859,2.2812195,0.6416016,3.8388062,1.0097046,4.1465149c0.0419922,0.0360718,0.0810852,0.0527039,0.1123047,0.0487976
			c0.3437805-0.0361023,0.7060852-1.7167969,0.514679-4.3731079c-0.1630859-2.2812195-0.6426086-3.8383179-1.0097961-4.1463928
			C32.7030945,29.6869812,32.664978,29.6708984,32.632782,29.6737976L32.632782,29.6737976L32.632782,29.6737976z
			 M33.2313843,38.4931641c-0.0907898,0-0.1786804-0.0370789-0.2645874-0.1083984
			c-0.4941101-0.414093-0.9453125-2.1904907-1.0986023-4.3193665c-0.1611938-2.2509155,0.039978-4.5678406,0.7381897-4.6401062l0,0
			c0.1026001-0.0107117,0.2032166,0.0248718,0.2999268,0.1059875c0.4930725,0.4140015,0.945282,2.1903992,1.0986023,4.3193054
			c0.1610718,2.2510071-0.0401306,4.5673828-0.7393188,4.6405945
			C33.2549133,38.4921875,33.2421875,38.4931641,33.2313843,38.4931641L33.2313843,38.4931641z"/>
		<path class="st0" d="M32.1796875,29.3208008c0.4169922-0.0444336,0.907196,2.1020813,1.094696,4.7934875
			c0.1875,2.6913757,0.0019836,4.9091187-0.414978,4.9530945c-0.4170227,0.0448914-0.906311-2.101593-1.0948181-4.7929993
			C31.5770874,31.5820007,31.7637024,29.3646851,32.1796875,29.3208008L32.1796875,29.3208008z"/>
		<path class="st3" d="M32.1933899,29.4447937c-0.2197876,0.0561829-0.5166016,1.7583008-0.3038025,4.8208008
			c0.2109985,3.0273743,0.7354126,4.6542969,0.9580994,4.6777954c0.2176819-0.0538025,0.515625-1.7559204,0.3016968-4.8204041
			C32.9394836,31.0986023,32.414978,29.4716797,32.1933899,29.4447937L32.1933899,29.4447937z M32.8476868,39.1933594
			c-0.0497742,0-0.1171875-0.0156555-0.1895142-0.0751953c-0.4970703-0.4169922-0.8760071-2.7988586-1.0175781-4.835968
			c-0.1210938-1.726532-0.1660156-5.0126953,0.5263977-5.085907l0,0c0.0508118-0.0058899,0.1299133,0.0028992,0.2138977,0.0741882
			c0.4969788,0.4165039,0.8759155,2.7987976,1.0184937,4.8349915c0.1200867,1.7275085,0.1651001,5.0136108-0.5263977,5.0869141
			C32.8652039,39.1933594,32.8563843,39.1933594,32.8476868,39.1933594L32.8476868,39.1933594z"/>
		<path class="st5" d="M25.5785828,36.2568054c0.7655945-0.0322266,0.4331055-0.4423218,0.8197937-0.6601257
			c0.3868103-0.217804,0.936615-0.0733032,1.1016235,0.1991882c0.1650085,0.2715149,0.0326843,0.5391235,0.2450867,0.5430298
			c0.2129211,0.0038757,5.9932251-0.2393188,6.2012024-0.0108032c0.2080078,0.2284851,0.2432251,0.6777954,0.0272827,0.8525696
			c-0.2167969,0.1766968-7.5238953,0.2588196-7.7753906,0.0742188
			C25.9462891,37.0722656,25.5776062,36.3017578,25.5785828,36.2568054L25.5785828,36.2568054z"/>
		<path class="st3" d="M25.6225891,36.2870789c0.0634155,0.1611023,0.3778992,0.7842102,0.594696,0.9404297
			c0.1030273,0.0761719,1.7305298,0.1152649,3.8691101,0.0927734c2.1021118-0.0215149,3.7641907-0.0927734,3.8656921-0.1650085
			c0.0762024-0.0614929,0.1231079-0.1669922,0.1329041-0.2958984c0.0136108-0.1855774-0.0498047-0.3857727-0.1630859-0.5087891
			c-0.108429-0.1171875-1.9942017-0.1162109-5.605011,0.0038757c-0.3330078,0.0107422-0.5342102,0.0195312-0.5722961,0.0176086
			c-0.1474304-0.0029907-0.1621094-0.1171875-0.1772156-0.2382812c-0.0116882-0.092804-0.0263977-0.2070312-0.0951843-0.3213196
			c-0.1557922-0.2568054-0.6851196-0.3964844-1.0576172-0.1875c-0.1401978,0.0791016-0.1773071,0.1826172-0.2167969,0.2920227
			C26.1362,36.0849609,26.0731812,36.2587891,25.6225891,36.2870789L25.6225891,36.2870789z M29.0990906,37.3974609
			c-1.5101929,0-2.8110046-0.0361633-2.9204102-0.1161804c-0.2489929-0.1806946-0.6343079-0.9551086-0.632782-1.0253906
			l0.0004883-0.031311l0.0307007-0.0010071c0.4454041-0.0184937,0.4980774-0.1630859,0.5586243-0.329071
			c0.0400696-0.110321,0.0854797-0.235321,0.246582-0.3261108c0.4091797-0.2305298,0.9721985-0.0772095,1.1459961,0.2098999
			c0.0762024,0.1259766,0.0917969,0.2489929,0.1045227,0.3476868c0.016571,0.1328125,0.026886,0.1786804,0.112793,0.1796875
			c0.0370789,0,0.2484741-0.0058899,0.5692749-0.016571c3.8364868-0.1279907,5.5279236-0.1231079,5.6557922,0.0174866
			c0.1240234,0.1358032,0.1953125,0.3545227,0.179718,0.5576782c-0.0108032,0.1474304-0.0664062,0.2695007-0.156311,0.3418274
			C33.8496094,37.3241882,31.2597961,37.3974609,29.0990906,37.3974609L29.0990906,37.3974609z"/>
		<path class="st1" d="M29.6620789,36.8193054c-0.0136719,0.5781555,0.8403015,0.4140625,0.8521118,0.8964844
			c-0.0254211,0.5116882-1.4321899,0.0312805-1.4458008-0.9042969c0.0586243-0.9345093,1.4355164-1.3965149,1.4525757-0.8623047
			C30.5336914,36.3925781,29.6763,36.2421875,29.6620789,36.8193054L29.6620789,36.8193054z"/>
		<path class="st3" d="M30.2284851,35.7548828c-0.3793945,0-1.0868835,0.3965149-1.128418,1.0585938
			c0.0093384,0.6562195,0.7310181,1.0712891,1.1201172,1.0791016c0.0933228,0.0028992,0.254425-0.0195923,0.2626953-0.1787109
			c-0.0053711-0.2060852-0.1810913-0.2812805-0.3842773-0.3671875c-0.223114-0.0957031-0.4756165-0.2030945-0.4677124-0.5282898
			l0.031189,0.0009155l-0.031189-0.0009155c0.0078125-0.3262329,0.2680054-0.4346313,0.4974976-0.5292969
			c0.1962891-0.0820923,0.3661804-0.1524048,0.3609009-0.3389282c-0.0054016-0.1669922-0.1607056-0.1933594-0.2529907-0.195282
			C30.2338867,35.7548828,30.2309875,35.7548828,30.2284851,35.7548828L30.2284851,35.7548828z M30.2309875,37.9560852
			c-0.0038757,0-0.0079041,0-0.0118103-0.0010071c-0.2279663-0.0039062-0.5223694-0.1279907-0.7489929-0.3154907
			c-0.2749023-0.2265015-0.4291992-0.5205078-0.4335938-0.8271179c0.0440063-0.7020874,0.7920227-1.1210938,1.1923828-1.1210938
			c0.0024109,0,0.0054321,0,0.0083313,0c0.195282,0.0029297,0.3100586,0.0967102,0.3153687,0.2568054
			c0.0064087,0.2304993-0.2001953,0.3164062-0.4003906,0.3984985c-0.2215881,0.092804-0.4515991,0.1875-0.4584961,0.4736023
			c-0.0068054,0.2812805,0.2051086,0.3721008,0.4291992,0.467804c0.2051086,0.0868835,0.4169922,0.1777039,0.4228821,0.4266968
			C30.5380859,37.8690796,30.4237976,37.9560852,30.2309875,37.9560852L30.2309875,37.9560852z"/>
		<path class="st1" d="M30.1664734,36.8261719c-0.0141907,0.5771179,0.8403015,0.4140015,0.8521118,0.8964844
			c-0.0259094,0.5107117-1.4327087,0.0312195-1.4462891-0.9042664c0.0585938-0.9346008,1.4355164-1.3964844,1.4530945-0.8623047
			C31.0371094,36.3993835,30.1802063,36.2489929,30.1664734,36.8261719L30.1664734,36.8261719z"/>
		<path class="st3" d="M30.7323914,35.7616882c-0.3789062,0-1.0868835,0.3964844-1.128418,1.0585938
			c0.0098267,0.6562805,0.7310181,1.0713196,1.1206055,1.078125c0.092804,0.0029602,0.2543945-0.0185242,0.262207-0.1777344
			c-0.0048828-0.2060852-0.180603-0.281189-0.3843079-0.3681946c-0.2230835-0.094696-0.4754944-0.2020874-0.4676819-0.5272827
			c0.007782-0.3262329,0.2680054-0.4346313,0.497467-0.530304c0.1968384-0.0810242,0.3662109-0.1513062,0.3609314-0.3379211
			c-0.0054016-0.1669922-0.1607056-0.1943054-0.252533-0.195282C30.737793,35.7616882,30.7348633,35.7616882,30.7323914,35.7616882
			L30.7323914,35.7616882z M30.7354126,37.9618835c-0.0040283,0-0.0079346,0-0.0123291,0
			c-0.2279968-0.0039062-0.5218811-0.1279297-0.7489929-0.3154297c-0.2749023-0.2265625-0.4287109-0.5214844-0.4331055-0.828064
			c0.0435181-0.7012329,0.7915039-1.1202087,1.1918945-1.1202087c0.0028992,0,0.0059204,0,0.0088196,0
			c0.1947937,0.0029907,0.3100891,0.0967102,0.3148804,0.256897c0.0069275,0.2304077-0.2001953,0.3153992-0.3999023,0.398407
			c-0.2221069,0.092804-0.4515686,0.1875-0.4584961,0.4736023l0,0c-0.0068054,0.2812805,0.2046204,0.3721008,0.4291992,0.467804
			c0.2046204,0.0869141,0.4165039,0.1777954,0.4223938,0.4267883
			C31.0419922,37.8759766,30.9277039,37.9618835,30.7354126,37.9618835L30.7354126,37.9618835z"/>
		<path class="st1" d="M30.7069702,36.8056641c-0.0135803,0.578125,0.8409119,0.4140015,0.8526001,0.8964233
			c-0.0263977,0.5118103-1.4325867,0.031311-1.4462891-0.9042053c0.0586243-0.9346008,1.4355164-1.3964844,1.4520874-0.8623962
			C31.5780945,36.3788757,30.7211914,36.2284851,30.7069702,36.8056641L30.7069702,36.8056641z"/>
		<path class="st3" d="M31.2733765,35.7411804c-0.3793945,0-1.0873718,0.3964844-1.1289062,1.0585938
			c0.0098267,0.656311,0.7310181,1.0713196,1.1211243,1.0791016c0.092804,0.0028992,0.2539062-0.0194702,0.2616882-0.1787109
			c-0.0047913-0.2060852-0.180603-0.2812805-0.3836975-0.3681641c-0.2232056-0.0947266-0.4761047-0.2021179-0.4682922-0.5273132
			c0.0083008-0.3262024,0.2680969-0.4346008,0.4975891-0.5293274c0.1961975-0.0820007,0.3662109-0.1523743,0.3612976-0.3388977
			c-0.0058899-0.1669922-0.1611938-0.1943054-0.2528992-0.195282
			C31.2782898,35.7411804,31.2753906,35.7411804,31.2733765,35.7411804L31.2733765,35.7411804z M31.2753906,37.9423828
			c-0.0039062,0-0.0078125,0-0.0117188-0.0010071c-0.2275696-0.0039062-0.5219727-0.1278992-0.7490845-0.3153992
			c-0.2749023-0.226593-0.4287109-0.5205078-0.4331055-0.827179c0.0440063-0.7021179,0.7915039-1.1210938,1.1918945-1.1210938
			c0.0030212,0,0.0059204,0,0.0088196,0c0.195282,0.0029602,0.3095703,0.0966797,0.3154907,0.256897
			c0.0057983,0.2303772-0.2001953,0.3163757-0.4003906,0.3983765c-0.222229,0.092804-0.4516907,0.1875-0.4584961,0.4736023l0,0
			c-0.0069275,0.281311,0.2049866,0.3721008,0.4291992,0.467804c0.2049866,0.0869141,0.4169922,0.1777039,0.4227905,0.4268188
			C31.5829773,37.8554688,31.4687805,37.9423828,31.2753906,37.9423828L31.2753906,37.9423828z"/>
		<path class="st1" d="M31.2108765,36.8124695c-0.0135803,0.5771179,0.8409119,0.4141235,0.8526001,0.8965149
			c-0.0263977,0.5107117-1.4325867,0.0312195-1.4462891-0.9042969c0.0585938-0.9346008,1.4355164-1.3965149,1.4520874-0.8623047
			C32.0820007,36.3856812,31.2246094,36.2353821,31.2108765,36.8124695L31.2108765,36.8124695z"/>
		<path class="st3" d="M31.7772827,35.7479858c-0.3789062,0-1.0868835,0.3964844-1.1283875,1.0585938
			c0.0092773,0.656311,0.7309875,1.0713196,1.1206055,1.078186c0.0957031,0.0039368,0.2538757-0.0185852,0.2617798-0.1777649
			c-0.0048828-0.2060242-0.1806946-0.2812195-0.3837891-0.3681335c-0.2236938-0.0947876-0.4755859-0.202179-0.467804-0.5273743
			c0.007782-0.3261108,0.2676086-0.4345093,0.4971008-0.5302124c0.1972046-0.0811157,0.3661804-0.1513977,0.3612976-0.3378906
			c-0.0048828-0.1669922-0.1611023-0.1944275-0.2528992-0.1954041
			C31.7821655,35.7479858,31.780304,35.7479858,31.7772827,35.7479858L31.7772827,35.7479858z M31.780304,37.9481812
			c-0.0039368,0-0.0088196,0-0.0117188,0c-0.2286072-0.0038757-0.5224915-0.1278992-0.75-0.3153992
			c-0.2744751-0.2265015-0.4288025-0.5215149-0.433197-0.8280945c0.0440063-0.7012024,0.791626-1.1201172,1.1918945-1.1201172
			c0.0030212,0,0.0058899,0,0.0088196,0c0.195282,0.0028992,0.3095703,0.0967102,0.3154907,0.2568054
			c0.0057678,0.2294922-0.2001953,0.3154297-0.4003906,0.398407c-0.2217102,0.092804-0.4512024,0.1875-0.4580383,0.4736938
			c-0.0068665,0.2812195,0.2041321,0.3720093,0.4287415,0.467804c0.2050781,0.0868835,0.4169922,0.1776733,0.4227905,0.4266968
			C32.0868835,37.8622742,31.9726868,37.9481812,31.780304,37.9481812L31.780304,37.9481812z"/>
		<path class="st5" d="M33.6259766,36.2440796c0.2695007,0.0039062,0.483429,0.2286072,0.4775085,0.5020142
			c-0.0057983,0.273407-0.2295227,0.4921875-0.4979858,0.4872742c-0.2696228-0.0038757-0.4833984-0.2284851-0.4776001-0.5019836
			C33.1337891,36.4579773,33.3563843,36.2402039,33.6259766,36.2440796L33.6259766,36.2440796z"/>
		<path class="st3" d="M33.6190796,36.2636719c-0.2547913,0-0.4657898,0.2090149-0.4715881,0.4687195
			c-0.0020142,0.1279907,0.0448914,0.2489929,0.1328125,0.3398743c0.085907,0.0898132,0.2020874,0.1396179,0.3251953,0.1416016
			c0.0018616,0,0.0048828,0,0.0068054,0c0.2548828,0,0.4657898-0.2079773,0.4706726-0.4677734
			c0.0028992-0.1289062-0.0438843-0.2489929-0.1317749-0.3408203c-0.0869141-0.0888977-0.2022095-0.139679-0.3252258-0.1416016
			C33.6229858,36.2636719,33.6210938,36.2636719,33.6190796,36.2636719L33.6190796,36.2636719z M33.6123047,37.2538757
			c-0.0019226,0-0.0049438,0-0.0078125,0c-0.1338196-0.0018921-0.2597961-0.0565796-0.352478-0.1532898
			c-0.0957336-0.0996094-0.1465149-0.2304993-0.1436157-0.3692017c0.0058899-0.281189,0.2344055-0.5078125,0.5106812-0.5078125
			c0.0020142,0,0.0049133,0,0.006897,0l0,0c0.1347046,0.0030212,0.2597046,0.0567322,0.3535156,0.1543274
			c0.0957031,0.0986938,0.1464844,0.2294617,0.1434937,0.3691711
			C34.1171875,37.0282898,33.8886719,37.2538757,33.6123047,37.2538757L33.6123047,37.2538757z"/>
		<path class="st0" d="M30.5839844,34.1278992c0.2383118-0.0361023,0.477478,0.3623047,0.5342102,0.8886719
			c0.055603,0.5273132-0.0918274,0.9833984-0.3301086,1.0195007c-0.2383118,0.0362244-0.4776001-0.3622742-0.5336914-0.8895874
			C30.1978149,34.6200867,30.3457031,34.164093,30.5839844,34.1278992L30.5839844,34.1278992z"/>
		<path class="st3" d="M30.6138,34.2509766c-0.0039062,0-0.0074158,0-0.011322,0.0010071l0,0
			c-0.1273804,0.0184937-0.2782898,0.3719788-0.2240906,0.8818054c0.0415039,0.3876953,0.179718,0.6532898,0.2984009,0.7450867
			c0.0340881,0.0264282,0.065918,0.0381165,0.0927124,0.0332031c0.1275024-0.0195007,0.2783813-0.3720703,0.2241821-0.8818054
			c-0.0415955-0.3876953-0.179718-0.6532898-0.2984009-0.7450867C30.6654968,34.2616882,30.6381836,34.2509766,30.6138,34.2509766
			L30.6138,34.2509766z M30.7582703,36.1630859c-0.0800781,0-0.1601868-0.0292969-0.2344055-0.0869141
			c-0.1986694-0.1532898-0.3500977-0.5039062-0.3939819-0.9159851c-0.0653687-0.6113892,0.1221313-1.108429,0.4355164-1.156311l0,0
			c0.0957031-0.0136719,0.1938782,0.0147095,0.2826843,0.0830078c0.1987915,0.1532898,0.3500977,0.5048828,0.394104,0.9169922
			c0.0653992,0.6113281-0.1221008,1.1083984-0.4356079,1.155304C30.7904663,36.1620789,30.7743835,36.1630859,30.7582703,36.1630859
			L30.7582703,36.1630859z"/>
		<path class="st0" d="M29.8480835,34.0693054c0.2388-0.0351257,0.4776001,0.3622742,0.5342102,0.889679
			c0.0561829,0.5263977-0.0913086,0.9823914-0.3301086,1.0184937c-0.2381897,0.0362244-0.4769897-0.3612976-0.5335999-0.8886108
			C29.4624023,34.5624695,29.6098938,34.1054688,29.8480835,34.0693054L29.8480835,34.0693054z"/>
		<path class="st3" d="M29.8778687,34.1923828c-0.0033875,0-0.0072937,0-0.0106812,0.0010071l0,0
			c-0.1278992,0.0194702-0.2787781,0.3729858-0.2240906,0.8828125c0.0414734,0.3866882,0.179718,0.6532898,0.2977905,0.7440796
			c0.0342102,0.0263977,0.0658875,0.0381165,0.092804,0.0342102c0.1278992-0.0195007,0.2788086-0.3731079,0.2241211-0.8828125
			c-0.0415344-0.3876953-0.179718-0.6533203-0.297821-0.7450867C29.9302063,34.204071,29.902771,34.1923828,29.8778687,34.1923828
			L29.8778687,34.1923828z M30.0224915,36.1054688c-0.0801086,0-0.1601868-0.0302734-0.2344055-0.0868835
			c-0.1987-0.1533813-0.3496094-0.5049133-0.3936157-0.9161072c-0.0653687-0.6122742,0.1216125-1.109314,0.4351196-1.1562195l0,0
			c0.0957031-0.014679,0.1938171,0.0137329,0.2826843,0.0830078c0.1991882,0.1533203,0.3500977,0.5039062,0.3940125,0.9160156
			c0.0654907,0.6112976-0.121521,1.1094055-0.4349976,1.156311C30.0546875,36.1034851,30.0386047,36.1054688,30.0224915,36.1054688
			L30.0224915,36.1054688z"/>
		<path class="st0" d="M29.3212891,33.1278992c0.2388-0.0361328,0.477478,0.3622742,0.5342102,0.8886719
			C29.9115906,34.5438843,29.7641907,35,29.5253906,35.0361023c-0.2383118,0.0361633-0.4771118-0.3623352-0.5337219-0.8886108
			C28.9354858,33.6200867,29.0830078,33.1640625,29.3212891,33.1278992L29.3212891,33.1278992z"/>
		<path class="st3" d="M29.340271,33.2519836c-0.1278687,0.0195007-0.2787781,0.3720093-0.2240906,0.8817749
			c0.0415039,0.3877258,0.179718,0.6533203,0.2979126,0.7451172c0.0340881,0.0263977,0.0653992,0.0381165,0.0926819,0.0332031
			c0.1279907-0.0184937,0.2788086-0.3721008,0.2242126-0.8817749c-0.0414734-0.3877258-0.179718-0.6533203-0.2978821-0.7451172
			C29.3983765,33.2587891,29.3677063,33.2470703,29.340271,33.2519836L29.340271,33.2519836L29.340271,33.2519836z
			 M29.495575,35.1630859c-0.0800781,0-0.1601868-0.0292969-0.2338867-0.0859985
			c-0.1991882-0.1542053-0.3500977-0.5047913-0.3939819-0.9169312c-0.0655212-0.6113892,0.121582-1.1083679,0.4349976-1.1552734l0,0
			c0.0967102-0.014679,0.1938782,0.0137024,0.2826843,0.0829773c0.1993103,0.1533203,0.3500977,0.5039062,0.394104,0.9160156
			c0.0653992,0.6112976-0.121582,1.1083984-0.4356079,1.156311C29.527771,35.1620789,29.5116882,35.1630859,29.495575,35.1630859
			L29.495575,35.1630859z"/>
		<path class="st0" d="M30.0575867,32.9882812c0.2290039-0.0361938,0.4649048,0.4062195,0.5269165,0.9872742
			c0.0614929,0.5810242-0.0742188,1.0820312-0.3031921,1.1182251c-0.2295227,0.0361023-0.4654236-0.405304-0.5269165-0.9873962
			C29.6924133,33.5253906,29.828064,33.0243835,30.0575867,32.9882812L30.0575867,32.9882812z"/>
		<path class="st3" d="M30.0834961,33.1112976c-0.0024109,0-0.0043945,0-0.0064087,0.0009766l0,0
			c-0.1010132,0.015625-0.2626038,0.3769836-0.1987,0.9815063c0.0484009,0.4541016,0.1987,0.7597046,0.3179016,0.8505249
			c0.0176086,0.0136719,0.0439148,0.0292969,0.0653992,0.0263672c0.1011047-0.0166016,0.2627258-0.3768921,0.1983032-0.9823914
			c-0.0484009-0.4541016-0.1987915-0.7597961-0.3179016-0.8506165C30.1264954,33.125,30.1040039,33.1112976,30.0834961,33.1112976
			L30.0834961,33.1112976z M30.2549133,35.2206726c-0.0576477,0-0.1314392-0.0166016-0.2110291-0.0770874
			c-0.2049866-0.1572876-0.3637085-0.5498047-0.4140015-1.0234985c-0.0619812-0.5820007,0.0585938-1.1992188,0.4082031-1.2548828
			l0,0c0.0605164-0.0097046,0.1538086-0.0048218,0.2563171,0.0742798c0.2051086,0.157196,0.3637695,0.5487976,0.4140625,1.0223999
			c0.0620422,0.5820007-0.0585938,1.2001953-0.4076843,1.2549133
			C30.2871094,35.2187805,30.2714844,35.2206726,30.2549133,35.2206726L30.2549133,35.2206726z"/>
		<path class="st0" d="M31.092804,33.0634766c0.2294617-0.0351868,0.4628906,0.3778992,0.5204773,0.922821
			c0.0586243,0.5449829-0.0810852,1.015686-0.3095703,1.0507812c-0.2295227,0.0361023-0.4629211-0.3768921-0.5210266-0.9227905
			C30.7245789,33.5692749,30.8637695,33.0986023,31.092804,33.0634766L31.092804,33.0634766z"/>
		<path class="st3" d="M31.1122742,33.1874695c-0.1185913,0.0176086-0.2606812,0.3916321-0.2050781,0.914093
			c0.0440063,0.4130249,0.1875,0.6953125,0.3017883,0.7841187c0.0292969,0.0215149,0.0546875,0.031311,0.0751953,0.0284119
			c0.118103-0.0186157,0.2607117-0.3926086,0.2051086-0.9151001c-0.0440063-0.4121094-0.1875-0.6953125-0.3027954-0.7832031
			C31.1581726,33.1933594,31.132782,33.1835938,31.1122742,33.1874695L31.1122742,33.1874695L31.1122742,33.1874695z
			 M31.2753906,35.164093c-0.0741882,0-0.1494141-0.0274048-0.218811-0.0801086
			c-0.1987-0.1533203-0.3515015-0.5195007-0.3978882-0.9560852c-0.0586243-0.5498352,0.0653992-1.1338196,0.4154968-1.1875l0,0
			c0.0888977-0.0146179,0.1817017,0.0126953,0.2647095,0.077179c0.1991882,0.1532898,0.352478,0.5195007,0.398407,0.9550781
			c0.0585938,0.5498352-0.0653992,1.133728-0.4150391,1.188446C31.3066101,35.1630859,31.2909851,35.164093,31.2753906,35.164093
			L31.2753906,35.164093z"/>
		<path class="st0" d="M30.5272827,32.7226868c0.2294922-0.0352173,0.4624023,0.3778992,0.5205994,0.9227905
			c0.0585022,0.5448914-0.0805969,1.015625-0.3100891,1.0507812c-0.2290039,0.0361023-0.4624023-0.3769836-0.5205078-0.921875
			C30.1596985,33.2284851,30.2982788,32.7587891,30.5272827,32.7226868L30.5272827,32.7226868z"/>
		<path class="st3" d="M30.5469055,32.8466797c-0.1187134,0.0185242-0.2608032,0.3926086-0.2051086,0.9140015
			c0.0438843,0.4131165,0.1875,0.6962891,0.3021851,0.7841797c0.0289001,0.0215149,0.0541992,0.031311,0.0747986,0.0283203
			c0.1185913-0.0184937,0.2607117-0.3925171,0.2049866-0.9140015c-0.0438843-0.4131165-0.1875-0.6962891-0.3021851-0.7842102
			C30.5927734,32.852478,30.5668945,32.8437805,30.5469055,32.8466797L30.5469055,32.8466797L30.5469055,32.8466797z
			 M30.7103882,34.8241882c-0.074707,0-0.1493835-0.0273132-0.2187195-0.0810242
			c-0.1991882-0.1533813-0.3520813-0.5195618-0.3983765-0.9560852c-0.0586243-0.5487976,0.0653992-1.1337891,0.4150085-1.1875l0,0
			c0.089386-0.0145874,0.1815796,0.0126953,0.2655945,0.0772095c0.1991882,0.1532898,0.3520813,0.5194702,0.3980103,0.9559937
			c0.0585938,0.5487976-0.0645142,1.1337891-0.4151306,1.1875C30.7416992,34.8222656,30.7260742,34.8241882,30.7103882,34.8241882
			L30.7103882,34.8241882z"/>
		<path class="st0" d="M29.8144836,32.2313843c0.2290039-0.0350952,0.4618835,0.3780212,0.5200195,0.9229126
			c0.0581055,0.5448914-0.0806274,1.015564-0.3101196,1.0507812c-0.2290039,0.0350952-0.4618835-0.3779907-0.519989-0.9229126
			C29.4462891,32.7372742,29.5849915,32.2666016,29.8144836,32.2313843L29.8144836,32.2313843z"/>
		<path class="st3" d="M29.8417969,32.3544922c-0.0028992,0-0.0058899,0-0.0083008,0.0009766l0,0
			c-0.1187134,0.0175171-0.2607117,0.3916321-0.2051086,0.914032c0.0440063,0.4120789,0.1875,0.695282,0.3023071,0.7841797
			c0.0288086,0.0214844,0.0541992,0.0302734,0.0746765,0.0282898c0.1185913-0.0184937,0.2607117-0.3924866,0.2050171-0.9150085
			c-0.0439148-0.4120789-0.1875-0.695282-0.3022156-0.7841797C29.8833008,32.3642578,29.8608093,32.3544922,29.8417969,32.3544922
			L29.8417969,32.3544922z M29.9971008,34.3320007c-0.074707,0-0.1494141-0.0273132-0.218811-0.0800171
			c-0.1992188-0.1533813-0.3519897-0.5195923-0.398407-0.9561157c-0.0585938-0.5497742,0.0653992-1.1337891,0.4150085-1.1885071l0,0
			c0.0899048-0.0135803,0.1817017,0.0137024,0.2655945,0.078125c0.1993103,0.1523743,0.3520813,0.5195923,0.3984985,0.9551086
			c0.0585938,0.5498047-0.0653992,1.1337891-0.4151001,1.1885071
			C30.0282898,34.3310852,30.0126648,34.3320007,29.9971008,34.3320007L29.9971008,34.3320007z"/>
		<path class="st0" d="M29.1537781,31.9335632c0.2295227-0.0351562,0.4624329,0.3779297,0.5205078,0.922821
			c0.0581055,0.5449829-0.0809937,1.0157166-0.3099976,1.0508118c-0.2294922,0.0351868-0.4624023-0.3778992-0.5205078-0.9227905
			C28.7855835,32.4394836,28.9242859,31.9687805,29.1537781,31.9335632L29.1537781,31.9335632z"/>
		<path class="st3" d="M29.1812134,32.0565796c-0.0030212,0-0.0054321,0-0.0083313,0.0010071l0,0
			c-0.1181946,0.0175781-0.2608032,0.3916016-0.2050781,0.914093c0.0438843,0.4130859,0.1875,0.6953125,0.3027039,0.7841797
			c0.0282898,0.0214233,0.0531921,0.0302124,0.0746765,0.0283203c0.1181946-0.0186157,0.2602844-0.3925781,0.2045898-0.9151001
			c-0.0438843-0.4120789-0.1875-0.695282-0.3021851-0.7831726C29.2226868,32.0663757,29.2001953,32.0565796,29.1812134,32.0565796
			L29.1812134,32.0565796z M29.3363953,34.0341797c-0.074707,0-0.1493835-0.0273743-0.2187195-0.0800781
			c-0.1991882-0.1533203-0.3520813-0.5195312-0.3984985-0.9561157c-0.0585938-0.5498047,0.0655212-1.1336975,0.4156189-1.1875l0,0
			c0.0897827-0.0146179,0.1815796,0.0126953,0.2651062,0.077179c0.1991882,0.1533203,0.3520813,0.5195312,0.3983765,0.9551086
			c0.0585938,0.5498047-0.0648804,1.1338196-0.414978,1.1885071C29.3677063,34.0331726,29.3520813,34.0341797,29.3363953,34.0341797
			L29.3363953,34.0341797z"/>
		<path class="st6" d="M28.5263977,24.7313843c0,0-1.4654236,1.2720032-1.3008118,4.714386
			c0.1846008,3.4624023,3.2391968,5.089386,3.2391968,5.089386s0.7783813-0.9824524,0.6885071-3.7641602
			c-0.218689-4.066925-1.6611023-5.8638-1.6611023-5.8638L28.5263977,24.7313843L28.5263977,24.7313843z"/>
		<path class="st3" d="M28.5355835,24.7621765c-0.1278992,0.1210938-1.4359741,1.4447937-1.281189,4.6820984
			c0.1733093,3.2510071,2.9272156,4.8974915,3.2020874,5.0537109c0.0479126-0.0693054,0.2090149-0.3232117,0.3604126-0.8153992
			c0.1660156-0.5390015,0.3540039-1.4814148,0.3070984-2.910614c-0.2075195-3.8701172-1.5428772-5.7006836-1.6478882-5.8383789
			L28.5355835,24.7621765L28.5355835,24.7621765z M30.4726868,34.5722961l-0.0214844-0.0118103
			c-0.0307922-0.0166016-3.0713196-1.6748047-3.254425-5.1132202c-0.0854797-1.7841797,0.2744141-2.9761047,0.5913086-3.6616821
			c0.344696-0.745575,0.7046204-1.0628967,0.719696-1.0760803l0.0103149-0.0088196l0.9897156,0.1802063l0.0067749,0.0082703
			c0.014679,0.0180359,1.4507141,1.8505249,1.6669922,5.8798218c0.0469055,1.4418945-0.1434937,2.3921204-0.3114929,2.9360962
			c-0.1825867,0.5907898-0.3745117,0.8379211-0.3828125,0.8476257L30.4726868,34.5722961L30.4726868,34.5722961z"/>
		<path class="st0" d="M31.8964844,34.2353821c0.2412109,0.007782,0.405304,0.4414062,0.367218,0.969696
			c-0.0381165,0.5292969-0.26474,0.9512024-0.5058899,0.9443054c-0.2412415-0.0068054-0.4053345-0.4414062-0.367218-0.9697266
			C31.4296875,34.6513977,31.6562805,34.2284851,31.8964844,34.2353821L31.8964844,34.2353821z"/>
		<path class="st3" d="M31.890564,34.3603821c-0.1288757,0-0.3378601,0.3203125-0.375,0.8280945
			c-0.0282898,0.3896179,0.0606384,0.6758118,0.1602478,0.7861023c0.0292969,0.032196,0.0575867,0.0488281,0.0858765,0.0498047
			c0,0,0.0010071,0,0.0020142,0c0.1289062,0,0.3378906-0.3193054,0.375-0.8280945
			c0.0282898-0.3887024-0.0596008-0.6748047-0.1602173-0.7861023c-0.0292969-0.0323181-0.0575867-0.0488892-0.0848999-0.0498047l0,0
			C31.8926086,34.3603821,31.891571,34.3603821,31.890564,34.3603821L31.890564,34.3603821z M31.7637024,36.2743835
			c-0.0030212,0-0.0069275,0-0.0098267,0c-0.0966797-0.0028992-0.1875-0.0477905-0.2636719-0.1318054
			c-0.1679382-0.1864929-0.2539062-0.5586243-0.2246094-0.9717102c0.0448914-0.6142883,0.3144836-1.0731812,0.6347961-1.0596008
			c0.0975952,0.0020142,0.1885071,0.0479126,0.2637024,0.131897c0.1679077,0.1864929,0.2538757,0.5585938,0.2245789,0.9716187
			C32.343811,35.8222656,32.0762024,36.2743835,31.7637024,36.2743835L31.7637024,36.2743835z"/>
		<path class="st0" d="M31.1835938,34.0478821c0.2411804,0.0067749,0.4052734,0.4414062,0.3662109,0.969696
			c-0.0381165,0.5282898-0.2646179,0.9512024-0.5059204,0.9443054c-0.2406921-0.0078125-0.4051819-0.4414062-0.3666992-0.9707031
			C30.7157898,34.4628906,30.9423828,34.0400085,31.1835938,34.0478821L31.1835938,34.0478821z"/>
		<path class="st3" d="M31.1777039,34.1728821c-0.1298218,0-0.3388367,0.3193054-0.3755188,0.8280945
			c-0.0282898,0.3886108,0.0600891,0.6748047,0.1602173,0.7861023c0.0292969,0.032196,0.058075,0.0488281,0.0854797,0.0498047
			c0.0009155,0,0.0009155,0,0.0018921,0c0.1299133,0,0.3389282-0.3203125,0.3760071-0.8291016
			c0.0282898-0.3887024-0.0605774-0.6748047-0.1611938-0.7861023c-0.0282898-0.031311-0.0575867-0.0478821-0.0848999-0.0487976
			C31.1786804,34.1728821,31.1777039,34.1728821,31.1777039,34.1728821L31.1777039,34.1728821z M31.0497742,36.0868835
			c-0.0028992,0-0.0058899-0.0010071-0.0097656-0.0010071c-0.0966187-0.0018921-0.1875-0.047821-0.2631226-0.1318054
			c-0.1684875-0.1864929-0.2543945-0.5585938-0.2242126-0.9716797c0.0444946-0.6133118,0.3179016-1.0703125,0.6347961-1.0595093
			c0.0967102,0.0028992,0.1875,0.0477905,0.2627258,0.1317749c0.1688843,0.1865234,0.2549133,0.5586243,0.2245789,0.9717407
			C31.6308899,35.6337585,31.3632812,36.0868835,31.0497742,36.0868835L31.0497742,36.0868835z"/>
		<path class="st0" d="M30.8329773,33.0272827c0.2412109,0.006897,0.405304,0.4414978,0.3662109,0.9697876
			c-0.0381165,0.5283203-0.2645874,0.9511108-0.5057983,0.9443054c-0.2407837-0.0078125-0.405304-0.4414062-0.3666992-0.9707031
			C30.3651733,33.4423828,30.5917969,33.0195007,30.8329773,33.0272827L30.8329773,33.0272827z"/>
		<path class="st3" d="M30.8270874,33.1522827c-0.129303,0-0.3388062,0.319397-0.3753967,0.8282166
			c-0.0283813,0.3885803,0.0599976,0.6747742,0.1600952,0.7860718c0.0292969,0.0322266,0.0576172,0.0488281,0.0855103,0.0498047
			c0.000885,0,0.0014038,0,0.0023804,0c0.129425,0,0.3384094-0.320282,0.3755188-0.8280945
			c0.0282898-0.3897095-0.0606079-0.6757812-0.160614-0.7870789c-0.0292969-0.031311-0.058197-0.0489197-0.0854797-0.0489197
			C30.8285828,33.1522827,30.8276062,33.1522827,30.8270874,33.1522827L30.8270874,33.1522827z M30.6996765,35.0663757
			c-0.0033875,0-0.0067749,0-0.0097961-0.0009766c-0.0971069-0.0029297-0.1878967-0.047821-0.2635803-0.1318359
			c-0.1684875-0.1864929-0.2543945-0.5585938-0.2242126-0.9716797c0.0440063-0.6074219,0.3121033-1.0596008,0.625-1.0596008
			c0.0029907,0,0.0064087,0,0.0093079,0l0,0c0.0971985,0.0030212,0.1879883,0.0478821,0.2631836,0.131897
			c0.1690369,0.1864929,0.2549133,0.5585938,0.2246094,0.9717102C31.280304,34.6132812,31.0126953,35.0663757,30.6996765,35.0663757
			L30.6996765,35.0663757z"/>
		<path class="st0" d="M31.5820007,33.0214844c0.2315063,0.0048828,0.3847656,0.4814148,0.342804,1.0643921
			c-0.0430298,0.5830078-0.265625,1.0518188-0.4980164,1.045929c-0.2325134-0.0048218-0.3858032-0.4814148-0.342804-1.0644226
			S31.3495789,33.015564,31.5820007,33.0214844L31.5820007,33.0214844z"/>
		<path class="st3" d="M31.5780945,33.1464539c-0.1025085,0-0.3251953,0.3252258-0.3691101,0.929718
			c-0.0332031,0.4560242,0.0596313,0.7832336,0.1600952,0.8945007c0.0157166,0.0166016,0.0380859,0.0361328,0.0606079,0.0361328
			c0,0,0,0,0.0009766,0c0.1025085,0,0.3242188-0.3261108,0.3691101-0.929718
			c0.0332031-0.4560242-0.0595703-0.7832031-0.1611023-0.8945007c-0.0147095-0.0166016-0.0370789-0.0361328-0.0595703-0.0361328
			C31.5780945,33.1464539,31.5780945,33.1464539,31.5780945,33.1464539L31.5780945,33.1464539z M31.4306641,35.2567749
			c-0.0019836,0-0.0038757,0-0.0068665,0c-0.0614929-0.0009155-0.1523132-0.0223694-0.2392273-0.118103
			c-0.1738892-0.1913757-0.2602844-0.6054993-0.2250671-1.0810852c0.042511-0.5791016,0.2680054-1.1611023,0.6175842-1.1611023
			c0.0029907,0,0.0049133,0,0.0079041,0c0.0604858,0.0009766,0.1523132,0.0223999,0.2391968,0.118103
			c0.1737976,0.1914978,0.2597961,0.6054993,0.2245789,1.0801086C32.0068054,34.6747742,31.780304,35.2567749,31.4306641,35.2567749
			L31.4306641,35.2567749z"/>
		<path class="st0" d="M32.5868835,33.2792664c0.2323914,0.0059204,0.3876953,0.4541016,0.3477173,1.0010071
			c-0.0401001,0.5458984-0.2597961,0.984314-0.492218,0.9784851c-0.2315063-0.0058594-0.3876953-0.4541016-0.3476868-1.0009766
			C32.1347961,33.7118835,32.3554993,33.2733765,32.5868835,33.2792664L32.5868835,33.2792664z"/>
		<path class="st3" d="M32.5819702,33.4042664c-0.1190796,0-0.3241882,0.3418274-0.3622742,0.8633118
			c-0.0302124,0.4140015,0.0605774,0.717804,0.1572876,0.8251953c0.0244141,0.0263062,0.0477905,0.0410156,0.0682983,0.0410156
			c0.0010071,0,0.0019836,0,0.0019836,0c0.1201172,0,0.3252258-0.3417969,0.3632202-0.8633118
			c0.030304-0.414093-0.0604858-0.7177734-0.1582031-0.8251953c-0.023407-0.0263977-0.046814-0.0410156-0.0682983-0.0410156l0,0
			C32.5839844,33.4042664,32.5829773,33.4042664,32.5819702,33.4042664L32.5819702,33.4042664z M32.4481812,35.3837891
			c-0.0028992,0-0.0057983,0-0.0086975,0c-0.0908813-0.0019836-0.1768188-0.0449219-0.2471008-0.1231079
			c-0.1690063-0.1864929-0.2539062-0.5741882-0.2217102-1.0117188c0.0391235-0.5458679,0.2617188-1.0946655,0.6112976-1.0946655
			c0.0030212,0,0.0059204,0,0.0088196,0c0.0907898,0.0019836,0.1757812,0.0448914,0.2471008,0.1229858
			c0.1688843,0.1865845,0.2538757,0.5743103,0.2216797,1.0117798
			C33.0195007,34.8358765,32.7969055,35.3837891,32.4481812,35.3837891L32.4481812,35.3837891z"/>
		<path class="st0" d="M32.0917969,32.8437805c0.2323914,0.0057983,0.3876953,0.4530945,0.3476868,1
			c-0.0401001,0.546814-0.2608032,0.9852905-0.4921875,0.9794006c-0.2325134-0.0057983-0.3877258-0.4541016-0.3476868-1.000885
			C31.6395874,33.2753601,31.8594055,32.8368835,32.0917969,32.8437805L32.0917969,32.8437805z"/>
		<path class="st3" d="M32.0868835,32.9687805c-0.1201172,0-0.3251953,0.3417053-0.3633118,0.8623047
			c-0.0301819,0.4140015,0.0606384,0.718689,0.1582031,0.8261108c0.0245056,0.0263977,0.0469055,0.0400696,0.0684204,0.0409851
			c0.0010071,0,0.0010071,0,0.0018921,0c0.1201782,0,0.3243103-0.3417969,0.3624268-0.8632202
			c0.0301514-0.4140625-0.0606384-0.717804-0.1573486-0.8251953c-0.024353-0.0273743-0.04776-0.0409851-0.0682678-0.0409851l0,0
			C32.0878906,32.9687805,32.0878906,32.9687805,32.0868835,32.9687805L32.0868835,32.9687805z M31.9520874,34.9481812
			c-0.0028992,0-0.0057983,0-0.0086975,0c-0.0909119-0.0028992-0.1758118-0.0448914-0.2471008-0.1230164
			c-0.1690063-0.1864929-0.2539062-0.5741882-0.2217102-1.0116882c0.0400085-0.5469055,0.2627258-1.094696,0.6113281-1.094696
			c0.0029907,0,0.0058899,0,0.0087891,0c0.0907898,0.0018921,0.1767883,0.0448914,0.2481079,0.1229858
			c0.1678772,0.1865234,0.2528992,0.5742188,0.2216797,1.0117188
			C32.5243835,34.3993835,32.3017883,34.9481812,31.9520874,34.9481812L31.9520874,34.9481812z"/>
		<path class="st0" d="M31.477478,32.2323914c0.2315063,0.0058899,0.3877258,0.4541016,0.3477173,1.0010071
			c-0.0400085,0.546875-0.2606812,0.9844055-0.4921875,0.9784851c-0.2324219-0.0057983-0.3882141-0.4541016-0.348114-1
			C31.0253906,32.664978,31.2450867,32.2265625,31.477478,32.2323914L31.477478,32.2323914z"/>
		<path class="st3" d="M31.4726868,32.3573914c-0.1202087,0-0.3251953,0.3417969-0.3632812,0.8632812
			c-0.0303345,0.4141235,0.0604858,0.717804,0.1581726,0.8251953c0.0244141,0.0273132,0.0469055,0.0410156,0.0683289,0.0410156
			c0,0,0.0009766,0,0.0019836,0c0.1190796,0,0.3241882-0.3417969,0.3622742-0.8623047
			c0.0303345-0.4150085-0.0605774-0.718689-0.1571655-0.8262024c-0.0244141-0.0262756-0.0479126-0.0400085-0.0684204-0.0409851l0,0
			C31.4736023,32.3573914,31.4726868,32.3573914,31.4726868,32.3573914L31.4726868,32.3573914z M31.3378906,34.3368835
			c-0.0028992,0-0.0058899,0-0.0088196,0c-0.0907898-0.0018921-0.1757812-0.0449219-0.2471008-0.1230164
			c-0.1688843-0.1865845-0.2538757-0.5742798-0.2215881-1.0117798c0.0400085-0.5458069,0.2626038-1.0947266,0.6112976-1.0947266
			c0.0028992,0,0.0057983,0,0.0087891,0c0.0908203,0.0030212,0.1767273,0.0449219,0.2470093,0.1231079
			c0.1690063,0.1864929,0.2539062,0.5742188,0.2227173,1.0117188C31.9102173,33.789093,31.6875,34.3368835,31.3378906,34.3368835
			L31.3378906,34.3368835z"/>
		<path class="st0" d="M30.8804016,31.8222656c0.2318726,0.0058289,0.3882141,0.453125,0.3480835,1
			c-0.0400085,0.546814-0.2607117,0.985321-0.4927063,0.9795227c-0.2318726-0.0058899-0.3876953-0.4541016-0.3475647-1.0010071
			C30.4281921,32.2538757,30.6483765,31.8153992,30.8804016,31.8222656L30.8804016,31.8222656z"/>
		<path class="st3" d="M30.8754883,31.9472961c-0.1195984,0-0.3246765,0.3417969-0.362793,0.8622742
			c-0.030304,0.4140015,0.0604858,0.7187195,0.1576843,0.8261108c0.0244141,0.0263977,0.0474243,0.0401001,0.0689087,0.0410767
			c0.0003967,0,0.0009155,0,0.0013733,0c0.1201172,0,0.3247375-0.3417664,0.3628235-0.8632812
			c0.030304-0.414093-0.0604858-0.7187805-0.1577148-0.8251953c-0.0238647-0.0274048-0.0473938-0.0409851-0.0683899-0.0409851l0,0
			C30.8769836,31.9472961,30.8760071,31.9472961,30.8754883,31.9472961L30.8754883,31.9472961z M30.7412109,33.9267883
			c-0.0028992,0-0.0057983,0-0.0088196,0c-0.0907898-0.0030212-0.1762085-0.0449829-0.2470093-0.1240845
			c-0.1689758-0.1855164-0.2539978-0.5732117-0.2216797-1.0107422c0.0394897-0.546875,0.262207-1.094696,0.6112976-1.094696
			c0.0028992,0,0.0058899,0,0.0087891,0c0.0907898,0.0019226,0.1766968,0.0449219,0.2471008,0.1230164
			c0.1688843,0.1856079,0.2539062,0.5733032,0.2215881,1.0117188C31.3125,33.3778992,31.0897827,33.9267883,30.7412109,33.9267883
			L30.7412109,33.9267883z"/>
		<path class="st4" d="M30.1381836,27.1567078c0.6367188-0.2461243,1.8226929,1.1166687,2.6499023,3.0439758
			c0.8262024,1.9271851,0.9795227,3.6889038,0.342804,3.934082c-0.6368103,0.2461243-1.8233032-1.1161804-2.6495056-3.0429688
			C29.6547852,29.1645813,29.5014648,27.4028015,30.1381836,27.1567078L30.1381836,27.1567078z"/>
		<path class="st3" d="M30.2982788,27.1781616c-0.050293,0-0.0975647,0.0083313-0.1419983,0.0254211l0,0
			c-0.1088867,0.0419922-0.1954041,0.1367188-0.2558899,0.2812805c-0.2700195,0.6411133-0.0181274,2.0825195,0.6268921,3.5874023
			c0.8007812,1.867218,1.9854126,3.2489929,2.5859985,3.0166321c0.1083984-0.0420227,0.1943054-0.1368103,0.2557983-0.2823181
			c0.2696228-0.6405945,0.0176086-2.0820007-0.6268921-3.5863953C32,28.4906616,30.9296875,27.1781616,30.2982788,27.1781616
			L30.2982788,27.1781616z M32.9716797,34.2138672c-0.6894836,0-1.756897-1.2851868-2.5361938-3.1026001
			c-0.6551819-1.5278015-0.907196-3.0004883-0.6273804-3.664978c0.0718079-0.170929,0.1767883-0.2837219,0.3119812-0.335907
			c0.6719055-0.2603149,1.8642883,1.0892944,2.7138977,3.0703125c0.6542969,1.5272827,0.9072266,3.000885,0.6268921,3.664978
			c-0.0721741,0.1708984-0.1766663,0.2842102-0.3125,0.335907C33.093811,34.2030945,33.0341797,34.2138672,32.9716797,34.2138672
			L32.9716797,34.2138672z"/>
		<path class="st0" d="M30.6918945,26.6029968c0.2977905,0.0053711,0.535614,0.2226868,0.5307922,0.4858704
			c-0.0048828,0.2626953-0.2499695,0.4716187-0.5479126,0.4663086c-0.2977905-0.0054016-0.5351868-0.2226868-0.5307922-0.4854126
			C30.1488647,26.8066101,30.3939819,26.5976868,30.6918945,26.6029968L30.6918945,26.6029968z"/>
		<path class="st3" d="M30.6812134,26.6762695c-0.2530212,0-0.460022,0.1753235-0.4639282,0.3945312
			c-0.0039062,0.222168,0.2020874,0.4067078,0.4589844,0.4115906c0.1264343,0.0019836,0.2451172-0.0390015,0.3354187-0.1156921
			c0.0869141-0.0742188,0.1358032-0.1733398,0.1376953-0.2793274c0.0039062-0.222168-0.2015686-0.4067078-0.4584961-0.4111023l0,0
			C30.6875,26.6762695,30.6841125,26.6762695,30.6812134,26.6762695L30.6812134,26.6762695z M30.6859741,27.6283875
			c-0.0039062,0-0.0083008,0-0.0121765,0c-0.3379211-0.0058289-0.6079102-0.2572937-0.6025085-0.5599976
			c0.0054016-0.3027954,0.2807922-0.5469055,0.6221008-0.5386353l0,0c0.3379211,0.0063477,0.6074219,0.2573242,0.602478,0.5600281
			c-0.0028992,0.1484985-0.070282,0.2866821-0.1894836,0.3887024
			C30.9921875,27.5756836,30.8432922,27.6283875,30.6859741,27.6283875L30.6859741,27.6283875z"/>
		<path class="st0" d="M31.0976868,25.9296875c0.2666016,0.0048828,0.4785156,0.222168,0.4746094,0.4848938
			c-0.0049133,0.2631226-0.2245789,0.4721069-0.492218,0.4676819c-0.2666016-0.0048828-0.4789734-0.2221069-0.4740906-0.4847717
			C30.6103821,26.1342773,30.8305969,25.925293,31.0976868,25.9296875L31.0976868,25.9296875z"/>
		<path class="st3" d="M31.0878906,26.0072937c-0.1054993,0-0.2051086,0.0396118-0.281311,0.1117859
			c-0.0776062,0.0743103-0.1214905,0.1734009-0.1235046,0.2797852c-0.0018616,0.1060181,0.0386047,0.2070923,0.1133118,0.2837219
			c0.0757141,0.0766907,0.1766968,0.1200867,0.2855835,0.1221008c0.1065063,0.0019226,0.2109985-0.0376282,0.2891235-0.1117859
			c0.0780945-0.0742188,0.1221008-0.1734009,0.1230164-0.2798157c0.0019836-0.1059875-0.0379944-0.2070007-0.1132202-0.2836914
			c-0.0751953-0.0767212-0.1767883-0.1201172-0.2851868-0.1221008l0,0
			C31.0937805,26.0072937,31.0907898,26.0072937,31.0878906,26.0072937L31.0878906,26.0072937z M31.0897827,26.9595032
			c-0.0039062,0-0.0078125,0-0.0107117,0c-0.1493835-0.002533-0.289093-0.0625305-0.3930969-0.1690063
			c-0.1044922-0.1064148-0.1600647-0.2466125-0.1576843-0.3945312c0.0029907-0.1479797,0.0635071-0.2860718,0.1719055-0.3886719
			c0.1073914-0.1025085,0.2489929-0.1577148,0.398407-0.1548157c0.1493835,0.0025024,0.289093,0.0625,0.3935852,0.1689758
			c0.1034851,0.1064148,0.1600952,0.2466431,0.1572266,0.3945312c-0.0029297,0.1480103-0.0635376,0.2861023-0.171936,0.3887024
			C31.3729858,26.9047546,31.2353821,26.9595032,31.0897827,26.9595032L31.0897827,26.9595032z"/>
		<path class="st0" d="M30.4458008,25.9184875c0.2666016,0.0043945,0.4789734,0.2216187,0.4745789,0.484314
			c-0.0048828,0.2631836-0.2250977,0.4726562-0.4916992,0.4677734s-0.4794922-0.2216797-0.4746094-0.4848938
			C29.9589844,26.1229858,30.1787109,25.9136047,30.4458008,25.9184875L30.4458008,25.9184875z"/>
		<path class="st3" d="M30.4369812,25.995575c-0.2207031,0-0.4017944,0.1743164-0.4057007,0.3916016
			c-0.0039978,0.219696,0.1752014,0.401886,0.3988953,0.4062805c0.0024109,0,0.0049133,0,0.0072937,0
			c0.2207031,0,0.401947-0.1743469,0.4053345-0.3920593c0.0018616-0.1060181-0.0381165-0.2070923-0.1133118-0.2837219
			c-0.0752258-0.0766907-0.1768188-0.1200867-0.2852173-0.1221008C30.4418945,25.995575,30.4395142,25.995575,30.4369812,25.995575
			L30.4369812,25.995575z M30.4374695,26.9477844c-0.0033875,0-0.0067749,0-0.0102844,0
			c-0.309021-0.0054016-0.555603-0.2583008-0.5501709-0.5635071c0.005249-0.3051758,0.2625732-0.5479126,0.570282-0.5434875
			c0.1493835,0.0029907,0.2889709,0.0625,0.3924866,0.1689758c0.1044922,0.1064148,0.1601868,0.246521,0.1578064,0.3945312
			C30.9921875,26.7060852,30.7421875,26.9477844,30.4374695,26.9477844L30.4374695,26.9477844z"/>
		<path class="st0" d="M30.5888977,25.454071c0.2792664,0.0048828,0.5018921,0.2095032,0.4980164,0.4560852
			c-0.0049438,0.2470093-0.2348328,0.4428406-0.5140991,0.4379272c-0.2793274-0.0047913-0.5020142-0.2088928-0.4976196-0.4559937
			C30.0795898,25.6454773,30.3096008,25.4491882,30.5888977,25.454071L30.5888977,25.454071z"/>
		<path class="st3" d="M30.578064,25.532196c-0.1122742,0-0.2182007,0.0375671-0.2982788,0.1059875
			c-0.0801086,0.0679016-0.125,0.1586914-0.1264954,0.2554016c-0.0018921,0.0965881,0.0401001,0.1889038,0.1171875,0.2597046
			c0.0801086,0.0732727,0.1875,0.1148071,0.3037109,0.1166992c0.1166992,0.0028992,0.2256165-0.0350952,0.3081055-0.105896
			c0.0795898-0.0679321,0.1244812-0.1587219,0.1264954-0.2554321c0.0028992-0.203064-0.1856079-0.3720703-0.4213867-0.3764648
			C30.5845032,25.532196,30.5814819,25.532196,30.578064,25.532196L30.578064,25.532196z M30.5834961,26.4263
			c-0.0039062,0-0.0083313,0-0.012207,0c-0.1537781-0.0030212-0.2984009-0.0591431-0.406311-0.1577148
			c-0.1107788-0.101593-0.1703796-0.2359009-0.1678772-0.3780212c0.0028992-0.141571,0.066864-0.2738953,0.1810608-0.3710632
			c0.1118469-0.0952148,0.2593079-0.1474304,0.4121399-0.1430359c0.3217773,0.0053101,0.5795898,0.245636,0.5737915,0.5351257
			c-0.0020142,0.1420898-0.0664062,0.2738953-0.1806946,0.371582C30.8745117,26.3754883,30.7328796,26.4263,30.5834961,26.4263
			L30.5834961,26.4263z"/>
		<path class="st0" d="M30.5312805,24.8895874c0.2792053,0.0048828,0.5018921,0.2090149,0.4979858,0.4555969
			c-0.0048828,0.2470703-0.234375,0.4433899-0.5136719,0.4379883c-0.2792969-0.0048828-0.5018921-0.2089844-0.4974976-0.4555969
			C30.0224915,25.0805664,30.2523804,24.8842773,30.5312805,24.8895874L30.5312805,24.8895874z"/>
		<path class="st3" d="M30.5209656,24.9672852c-0.112793,0-0.2182922,0.0375977-0.2987976,0.105896
			c-0.0795898,0.0684204-0.1244812,0.1587219-0.1264954,0.2554016c-0.0033875,0.2036133,0.1856384,0.3726196,0.4214172,0.3770142
			c0.1157227,0.0004883,0.2250977-0.0357056,0.3076172-0.1060181c0.0795898-0.0679016,0.1244812-0.1586914,0.1264954-0.2554016
			c0.0033875-0.2036133-0.1856384-0.3724976-0.4208984-0.3768921C30.526886,24.9672852,30.5238647,24.9672852,30.5209656,24.9672852
			L30.5209656,24.9672852z M30.5259094,25.8612671c-0.0039062,0-0.007843,0-0.0117188,0
			c-0.3218079-0.0057983-0.5795898-0.245575-0.5743103-0.5350647c0.0025024-0.1421204,0.0668945-0.2740173,0.1812134-0.3716125
			c0.1112976-0.0952148,0.2587891-0.1470032,0.4115906-0.1430969c0.3218079,0.0058899,0.5795898,0.2460938,0.574707,0.5351868
			c-0.0028992,0.1421204-0.0673828,0.2738953-0.1815796,0.371582
			C30.8173828,25.8109741,30.6757812,25.8612671,30.5259094,25.8612671L30.5259094,25.8612671z"/>
		<path class="st0" d="M29.8231812,25.5375671c0.2666016,0.0049133,0.4790039,0.222229,0.4747009,0.4849243
			c-0.0048828,0.263092-0.2250977,0.4721069-0.4916992,0.4677124c-0.2670898-0.0048218-0.4794922-0.2216187-0.4747009-0.4848328
			C29.3358765,25.7421875,29.5562134,25.5331726,29.8231812,25.5375671L29.8231812,25.5375671z"/>
		<path class="st3" d="M29.8144836,25.6151733c-0.2207031,0-0.401886,0.1739197-0.4057922,0.3916321
			c-0.0019836,0.1064758,0.0385742,0.2070923,0.1138,0.2836609c0.0751953,0.0766907,0.1762085,0.1201172,0.2850952,0.1221008
			c0.1133118,0.0020142,0.2113953-0.0375671,0.2896118-0.1117859c0.0775757-0.0742188,0.1210938-0.1734009,0.1229858-0.2798157
			c0.0039062-0.219696-0.1747742-0.401886-0.398407-0.4057922C29.8192749,25.6151733,29.8168945,25.6151733,29.8144836,25.6151733
			L29.8144836,25.6151733z M29.8148804,26.5673828c-0.0033875,0-0.0067749,0-0.0101929,0
			c-0.1494141-0.0024719-0.289093-0.0625-0.3930969-0.1690063c-0.1040039-0.1063843-0.1600952-0.246521-0.157196-0.3945007
			c0.0053711-0.3052063,0.2637024-0.5463867,0.5697937-0.5434875l0,0c0.3091125,0.0054016,0.5561829,0.2583923,0.5508118,0.5634766
			c-0.0024109,0.1480103-0.0635376,0.2861938-0.1713867,0.3887024
			C30.0980835,26.5126953,29.9608765,26.5673828,29.8148804,26.5673828L29.8148804,26.5673828z"/>
		<path class="st0" d="M29.9687805,24.9379883c0.2666016,0.0043945,0.4794006,0.2172852,0.4746094,0.4746094
			c-0.004425,0.257782-0.2246094,0.4628906-0.4913025,0.4579773c-0.2669983-0.0049133-0.4794006-0.2172852-0.4749756-0.4750977
			C29.4818726,25.1381836,29.7016907,24.933075,29.9687805,24.9379883L29.9687805,24.9379883z"/>
		<path class="st3" d="M29.9595032,25.0155945c-0.2198181,0-0.4003906,0.1694641-0.4042969,0.3813782
			c-0.0015259,0.1029968,0.0385742,0.2011108,0.112793,0.2759094c0.0751953,0.0751038,0.1766968,0.1176147,0.2855835,0.1195984
			c0.2236023,0.0028992,0.4082031-0.1669922,0.4115906-0.3813782c0.0039368-0.2138062-0.1747742-0.3911133-0.3978882-0.3955078l0,0
			C29.9647827,25.0155945,29.9624023,25.0155945,29.9595032,25.0155945L29.9595032,25.0155945z M29.9608765,25.9487
			c-0.0033875,0-0.0068054,0-0.0101929,0c-0.1493835-0.0024109-0.289093-0.0615234-0.3930969-0.1655273
			c-0.105011-0.105011-0.1611023-0.2431946-0.1587219-0.3891907c0.0054321-0.296814,0.2559204-0.5346069,0.5606384-0.5346069
			c0.0033875,0,0.0068054,0,0.0106812,0l0,0c0.309082,0.0057983,0.5567017,0.254425,0.5513,0.554718
			C30.5160828,25.710907,30.2655945,25.9487,29.9608765,25.9487L29.9608765,25.9487z"/>
		<path class="st0" d="M29.1703796,24.9428711c0.2979126,0.0053101,0.5357056,0.223114,0.5308228,0.4858093
			c-0.0043945,0.2631836-0.25,0.4717102-0.5474243,0.4667969c-0.2977905-0.0054016-0.5355835-0.2230835-0.531189-0.4857788
			C28.6273804,25.1464844,28.8725891,24.9374695,29.1703796,24.9428711L29.1703796,24.9428711z"/>
		<path class="st3" d="M29.1592102,25.0160828c-0.1226196,0-0.2373047,0.0404968-0.3252258,0.1152039
			c-0.0869141,0.0742798-0.1361694,0.1738892-0.1382141,0.2792969c-0.0019836,0.1060181,0.0439148,0.2071228,0.128418,0.2846985
			c0.0868835,0.0795898,0.2046204,0.1245117,0.3305969,0.1269836c0.1268921,0.0028992,0.2451172-0.039093,0.3348999-0.1152649
			c0.0874023-0.0742188,0.1368103-0.1738281,0.1387024-0.2798157c0.0014954-0.1059265-0.0438843-0.2065125-0.128418-0.2840881
			c-0.0868835-0.0796204-0.2045593-0.1245117-0.3310852-0.1270142l0,0
			C29.1659851,25.0160828,29.1625977,25.0160828,29.1592102,25.0160828L29.1592102,25.0160828z M29.1645813,25.9687805
			c-0.0039978,0-0.0082703,0-0.0122986-0.0004883c-0.1621094-0.0025024-0.313385-0.061615-0.4272156-0.1651001
			c-0.1156921-0.1064148-0.1781616-0.2466125-0.1752625-0.3950195c0.0023804-0.148407,0.0697632-0.2861023,0.1894836-0.3881836
			c0.1170959-0.0996094,0.2695007-0.1542969,0.4325867-0.1499023l0,0c0.1616211,0.0025024,0.3135071,0.0615234,0.4267273,0.1651001
			c0.1161804,0.1064148,0.1786804,0.246521,0.1758118,0.3950195c-0.0024109,0.1483765-0.0698242,0.2860718-0.1894226,0.3881836
			C29.4706726,25.9154663,29.3222961,25.9687805,29.1645813,25.9687805L29.1645813,25.9687805z"/>
		<path class="st0" d="M30.1620789,24.183075c0.2788086,0.0049133,0.5020142,0.2090149,0.4976196,0.4561157
			c-0.0043945,0.2464905-0.2344055,0.4427795-0.5137329,0.4378967c-0.2792664-0.0048218-0.5019836-0.2093811-0.4975586-0.4560242
			C29.6528015,24.3739929,29.8828125,24.1781616,30.1620789,24.183075L30.1620789,24.183075z"/>
		<path class="st3" d="M30.151886,24.2607117c-0.2319946,0-0.4219055,0.160675-0.425293,0.3618469
			c-0.0039062,0.203125,0.1849976,0.3720398,0.4208984,0.3764343c0.1156921,0.0019836,0.2250977-0.035614,0.3075867-0.1059265
			c0.0796204-0.0678711,0.1245117-0.1586609,0.1264038-0.2553711c0.0035095-0.2036133-0.1849976-0.3725891-0.4208984-0.3769836
			C30.1576843,24.2607117,30.1547852,24.2607117,30.151886,24.2607117L30.151886,24.2607117z M30.1562805,25.1552734
			c-0.0039978,0-0.0079041,0-0.0118103-0.0004883c-0.3216553-0.0054016-0.579071-0.2456055-0.5741882-0.5351868
			c0.0054016-0.2895203,0.2749023-0.5219116,0.592804-0.5146179l0,0c0.3218079,0.0057983,0.5796204,0.2460938,0.5741882,0.535614
			c-0.0024109,0.1416016-0.0668945,0.2739868-0.1806641,0.3710938
			C30.4477844,25.1044617,30.3062134,25.1552734,30.1562805,25.1552734L30.1562805,25.1552734z"/>
		<path class="st0" d="M29.4862976,24.2484741c0.2670898,0.0049133,0.4794922,0.217804,0.4745789,0.4751282
			c-0.0043945,0.257782-0.2240906,0.4628906-0.4911804,0.4579773c-0.2666016-0.0047913-0.4795227-0.2171936-0.4746094-0.4750977
			C28.9995117,24.4491882,29.219696,24.2440796,29.4862976,24.2484741L29.4862976,24.2484741z"/>
		<path class="st3" d="M29.4771118,24.3266602c-0.1054993,0-0.2056274,0.0390015-0.2818298,0.1098328
			c-0.0770874,0.0717773-0.1206055,0.1684875-0.1221008,0.2714844c-0.0018921,0.1029968,0.0381165,0.2012024,0.112793,0.2759094
			c0.0751953,0.0751953,0.1763,0.1176758,0.2852173,0.1195984c0.1102905,0.0024719,0.2113953-0.0371094,0.2894897-0.1094055
			c0.0772095-0.0721741,0.1206055-0.168396,0.1221313-0.2719116c0.0019836-0.1030884-0.0381165-0.2007141-0.1123352-0.2753906
			c-0.0757141-0.0756836-0.1766968-0.1181946-0.2855835-0.1201172l0,0
			C29.4823914,24.3266602,29.480011,24.3266602,29.4771118,24.3266602L29.4771118,24.3266602z M29.4789734,25.2597656
			c-0.0033875,0-0.0072937,0-0.0106812,0c-0.1495056-0.0029602-0.2891235-0.061554-0.3931274-0.1655579
			c-0.1044922-0.1049194-0.1610718-0.2431335-0.1581726-0.3891296c0.0023804-0.1459961,0.0635071-0.2817688,0.1719055-0.3828125
			c0.1078796-0.1005859,0.2489929-0.1538086,0.3988953-0.1513977c0.1493835,0.0024109,0.289093,0.0610046,0.3930969,0.1654968
			c0.1045227,0.1045227,0.1611023,0.2427368,0.1582031,0.3887024c-0.0025024,0.1460266-0.0635071,0.282196-0.1719055,0.3833008
			C29.7616882,25.2060852,29.6244812,25.2597656,29.4789734,25.2597656L29.4789734,25.2597656z"/>
		<path class="st0" d="M28.4619141,24.9691772c0.2670593,0.0049133,0.4794617,0.2217102,0.4745789,0.4848938
			c-0.0043945,0.2626953-0.2246094,0.4721985-0.4912109,0.4673157c-0.2670898-0.0043945-0.4794922-0.2217102-0.4750977-0.4844055
			C27.9750671,25.1737976,28.1953125,24.964386,28.4619141,24.9691772L28.4619141,24.9691772z"/>
		<path class="st3" d="M28.4530945,25.0463867c-0.2202148,0-0.4013062,0.1742859-0.4052124,0.3916016
			c-0.0019836,0.1063843,0.0379944,0.207489,0.1131897,0.2836914c0.0752258,0.0771179,0.1768188,0.1206055,0.2852173,0.1225281
			c0.2256165,0.0048828,0.4091797-0.171814,0.4131165-0.3916321c0.0039062-0.219696-0.1748047-0.4023132-0.3990173-0.406189
			C28.4579773,25.0463867,28.4555664,25.0463867,28.4530945,25.0463867L28.4530945,25.0463867z M28.454071,25.9989624
			c-0.0033875,0-0.0067749,0-0.0102844,0c-0.1494141-0.0028687-0.2890015-0.0629883-0.3930054-0.1688843
			c-0.1044922-0.1065063-0.1601868-0.2466125-0.1577148-0.3945923c0.0053101-0.3051147,0.2583313-0.5454102,0.570343-0.5434265l0,0
			c0.309082,0.0054321,0.5560608,0.2583313,0.5507812,0.5635071C29.0087891,25.7572632,28.7583008,25.9989624,28.454071,25.9989624
			L28.454071,25.9989624z"/>
		<path class="st0" d="M28.6298828,24.6234741c0.2666016,0.0049133,0.4795227,0.217804,0.4746094,0.4751282
			c-0.004425,0.257782-0.2246094,0.4628906-0.4912109,0.4579773c-0.2670898-0.0047913-0.4794922-0.2171936-0.4750671-0.4750977
			C28.1430969,24.8237,28.362793,24.6190796,28.6298828,24.6234741L28.6298828,24.6234741z"/>
		<path class="st3" d="M28.620575,24.7016602c-0.219696,0-0.4003906,0.1694336-0.4042969,0.3813171
			c-0.0033875,0.2139282,0.1748047,0.3916016,0.398407,0.3955078c0.1080017,0.0024719,0.2114868-0.0371094,0.289093-0.1094055
			c0.0772095-0.0721741,0.120636-0.168396,0.1226196-0.2713928c0.0018921-0.1036072-0.0381165-0.2012329-0.112793-0.2759094
			c-0.0751953-0.0756836-0.1763-0.1181946-0.2852173-0.1201172l0,0
			C28.6260071,24.7016602,28.6229858,24.7016602,28.620575,24.7016602L28.620575,24.7016602z M28.6221008,25.6347656
			c-0.0033875,0-0.0069275,0-0.0103149,0c-0.3096008-0.0058899-0.5570984-0.254364-0.5516968-0.5546875
			c0.0053101-0.300293,0.2621765-0.5386047,0.5711975-0.5346985c0.1495056,0.0028992,0.2886047,0.0614929,0.3931274,0.1654968
			c0.1044617,0.105011,0.1610718,0.2432251,0.1581726,0.3891907c-0.0023804,0.1460266-0.0635071,0.282196-0.1719055,0.3833008
			C28.9052734,25.5810852,28.7675781,25.6347656,28.6221008,25.6347656L28.6221008,25.6347656z"/>
		<path class="st0" d="M28.8349915,24.2313843c0.2666016,0.004425,0.4795227,0.2173157,0.4745789,0.4750977
			c-0.0043945,0.2573853-0.2245789,0.4624023-0.4911804,0.4576111c-0.2670898-0.0049133-0.4794922-0.2173157-0.4750977-0.4750977
			C28.3480835,24.4315796,28.5679016,24.226593,28.8349915,24.2313843L28.8349915,24.2313843z"/>
		<path class="st3" d="M28.8256836,24.309082c-0.219696,0-0.4003906,0.1698914-0.4042969,0.3813171
			c-0.0039062,0.214386,0.1748047,0.391571,0.398407,0.3954773c0.226593,0.0049133,0.4076843-0.1669922,0.4115906-0.3807983
			c0.0019836-0.1034851-0.0379944-0.2012024-0.1127014-0.2759094c-0.0751953-0.0751953-0.1762695-0.1177063-0.2852173-0.1195679l0,0
			C28.8311157,24.3096008,28.8280945,24.309082,28.8256836,24.309082L28.8256836,24.309082z M28.8270874,25.242157
			c-0.0033875,0-0.0068054,0-0.0101929,0c-0.3096008-0.0053711-0.5570984-0.254364-0.5518188-0.554657
			c0.0054016-0.2998352,0.261322-0.5410461,0.5708008-0.5342102c0.1495056,0.0025024,0.289093,0.0614929,0.3936157,0.1654968
			c0.1044922,0.105011,0.1605835,0.2427063,0.1582031,0.3887024C29.3822937,25.0043945,29.1317749,25.242157,28.8270874,25.242157
			L28.8270874,25.242157z"/>
		<path class="st0" d="M30.2089844,25.9003906c0.8164062-0.2886047,2.2783203,1.3378906,3.2646179,3.6322937
			c0.9863892,2.2944031,1.1231079,4.3881836,0.3066711,4.6763c-0.8173828,0.2890015-2.2782898-1.3379211-3.264679-3.631897
			C29.5292664,28.2826843,29.3920898,26.1889954,30.2089844,25.9003906L30.2089844,25.9003906z"/>
		<path class="st3" d="M30.4081726,25.9945679c-0.0560913,0-0.1083984,0.0088196-0.1567078,0.0259094l0,0
			c-0.131897,0.0463867-0.2368774,0.1577148-0.3124695,0.3305969c-0.3326111,0.7587891-0.0537109,2.4370117,0.6932678,4.1758118
			c1.0406494,2.4194031,2.4458313,3.7953796,3.105011,3.5620117c0.1318054-0.045929,0.2373047-0.1573181,0.3125-0.3301392
			c0.3330383-0.7587891,0.0537109-2.4375-0.6933899-4.1757812C32.3925781,27.3407898,31.1152039,25.9945679,30.4081726,25.9945679
			L30.4081726,25.9945679z M33.5878906,34.3681641c-0.905304,0-2.2471008-1.5488892-3.1894836-3.7407837
			c-0.7729187-1.7992859-1.0516968-3.5589905-0.6928101-4.3783875c0.1054077-0.2402039,0.2601929-0.3979187,0.4608765-0.468689l0,0
			c0.8911133-0.3150024,2.3960266,1.3109741,3.4243164,3.7020874c0.7724915,1.7988892,1.0517883,3.5585938,0.6924133,4.3779907
			c-0.1054993,0.2402039-0.2598267,0.3973999-0.460907,0.4687195
			C33.7479858,34.3554993,33.6698914,34.3681641,33.5878906,34.3681641L33.5878906,34.3681641z"/>
		<path class="st0" d="M32.8974915,29.9159851c0.1513062-0.0722046,0.4472046,0.256897,0.6611023,0.734375
			c0.2128906,0.4775391,0.2637024,0.922821,0.1123047,0.9951172c-0.1514282,0.0712891-0.4473267-0.2568054-0.6611328-0.7348938
			C32.7969055,30.433075,32.7460938,29.987793,32.8974915,29.9159851L32.8974915,29.9159851z"/>
		<path class="st3" d="M32.9520874,30.032196c-0.0340881,0.0650024-0.032196,0.3710938,0.171875,0.8276672
			c0.2002258,0.4477234,0.4219055,0.6508179,0.492218,0.6694031c0.0342102-0.0653687,0.032196-0.3710938-0.171875-0.8280945
			C33.2440796,30.2533875,33.0224915,30.050293,32.9520874,30.032196L32.9520874,30.032196z M33.6249695,31.780304
			c-0.0292969,0-0.0624695-0.0049438-0.0995789-0.0186157c-0.2402039-0.0888062-0.4823914-0.4717102-0.6289062-0.7998047
			c-0.217804-0.4858093-0.3174133-1.0327148-0.0527039-1.1592102c0.0419006-0.0195007,0.1102905-0.0361023,0.1992188-0.0028992
			c0.2401733,0.0884094,0.4823914,0.4711914,0.6298828,0.7993164c0.2167053,0.4859009,0.3173218,1.0327148,0.0516968,1.1586914
			C33.7001953,31.7695007,33.6669922,31.780304,33.6249695,31.780304L33.6249695,31.780304z"/>
		<path class="st0" d="M33.1464844,30.7797852c1.281189,1.5599976,1.1191101,2.550293,0.9852905,3.3882141
			c-0.4022827-0.9659119-0.6219788-1.5742188-1.9032898-3.1348267c-1.2812195-1.5596008-0.6416016-2.6542969-0.5537109-3.2313843
			C31.8671875,28.3013,31.8652039,29.219696,33.1464844,30.7797852L33.1464844,30.7797852z"/>
		<path class="st3" d="M31.6825867,27.9125671c-0.0155945,0.0698242-0.0361023,0.1460266-0.0586243,0.2295227
			c-0.171875,0.6312866-0.4305725,1.5854187,0.6270142,2.8735046c1.2207336,1.4863892,1.484436,2.1220703,1.8496094,3.0019836
			l0.0184937,0.0458984c0.1309204-0.8320923,0.2256165-1.780304-0.9951172-3.2651672
			c-1.0126648-1.2329102-1.2255554-2.0625-1.3661499-2.6113281C31.7313843,28.0858765,31.7080078,27.9945984,31.6825867,27.9125671
			L31.6825867,27.9125671z M34.1455078,34.266571l-0.0400391-0.0868835l-0.0575867-0.139679
			c-0.3632812-0.8750305-0.6259766-1.507843-1.8417664-2.9882507c-1.0762329-1.3105774-0.8125305-2.2822571-0.6377258-2.9247742
			c0.0341187-0.1260071,0.0634155-0.2344055,0.0780945-0.3295898l0.0166016-0.1069946l0.0381165,0.1010742
			c0.0419922,0.1079102,0.0741882,0.2348938,0.1123047,0.3814087c0.1395874,0.5438843,0.3505859,1.3656921,1.3544617,2.5888062
			c1.2861023,1.5653992,1.1240234,2.5849915,0.993103,3.4042969L34.1455078,34.266571L34.1455078,34.266571z"/>
		<path class="st0" d="M33.2616882,32.039978c1.281311,1.5596008,1.1192017,2.5498047,0.9854126,3.3877258
			c-0.4024353-0.9658203-0.6221313-1.5742188-1.9032898-3.1347046c-1.281311-1.5596313-0.6417236-2.6542969-0.5538025-3.2310181
			C31.9823914,29.5609741,31.9804993,30.4794922,33.2616882,32.039978L33.2616882,32.039978z"/>
		<path class="st3" d="M31.7978821,29.1728821c-0.0157166,0.0697937-0.0361938,0.1455078-0.0585938,0.2290039
			c-0.1719055,0.6312866-0.4306946,1.5853882,0.6268921,2.8735046c1.2207031,1.4862976,1.4844055,2.1229858,1.8496094,3.0018921
			l0.0195923,0.0458984c0.1298218-0.8320007,0.2246094-1.7792969-0.9960938-3.2655945
			c-1.0126953-1.2323914-1.2256165-2.0614929-1.3663025-2.610321C31.8466797,29.3456726,31.8231812,29.254364,31.7978821,29.1728821
			L31.7978821,29.1728821z M34.2606812,35.5263672l-0.0400085-0.0868835l-0.0575867-0.1397095
			c-0.3632812-0.875-0.6260071-1.507782-1.8417969-2.9882812c-1.0762024-1.3105164-0.8125-2.2822266-0.6376953-2.9248047
			c0.0341797-0.1260071,0.0634766-0.2344055,0.0780945-0.3291016l0.0166016-0.1069031L31.8164062,29.0513
			c0.0419617,0.1078796,0.0741577,0.2347717,0.1122742,0.3812866c0.1397095,0.5439758,0.3506165,1.3657227,1.3555298,2.5888672l0,0
			c1.2850952,1.5654297,1.1229553,2.5849304,0.9921875,3.4043274L34.2606812,35.5263672L34.2606812,35.5263672z"/>
		<path class="st0" d="M33.2997742,33.0546875c1.3125,1.532196,1.170929,2.5253906,1.0537109,3.3662109
			c-0.4219055-0.9570312-0.6532898-1.5605164-1.9657898-3.093811c-1.3125-1.532196-0.6943054-2.6401062-0.6181946-3.2187195
			C31.9717102,30.6034851,31.9882812,31.5224915,33.2997742,33.0546875L33.2997742,33.0546875z"/>
		<path class="st3" d="M31.7792664,30.2191772c-0.014679,0.0704041-0.0331726,0.1464844-0.0546875,0.2304993
			c-0.1582031,0.6342773-0.3983765,1.5942078,0.6846008,2.8589172c1.2510071,1.4618835,1.5273132,2.0917969,1.9100952,2.9638672
			l0.0196228,0.0439148c0.1131897-0.8340149,0.1893921-1.7832031-1.0606079-3.2431946l0,0
			c-1.0370789-1.210907-1.2666016-2.0361023-1.4178772-2.5810242
			C31.8319702,30.3910828,31.8065796,30.3002625,31.7792664,30.2191772L31.7792664,30.2191772z M34.3690796,36.5194702
			l-0.0419922-0.0868835l-0.0605164-0.1367188c-0.3798828-0.8681641-0.6552734-1.4950867-1.9013977-2.9491882
			c-1.1015015-1.2880859-0.8573914-2.2647095-0.6962891-2.9111938c0.0323181-0.1264038,0.0596313-0.2358093,0.0722961-0.3309937
			l0.0137024-0.1069031l0.0410156,0.1000977c0.0438843,0.1069031,0.0791016,0.2328796,0.1190796,0.3789062
			c0.1513977,0.5409851,0.3780212,1.3583984,1.4073181,2.5594788c1.3163757,1.5381165,1.1748047,2.5606079,1.0605164,3.3828125
			L34.3690796,36.5194702L34.3690796,36.5194702z"/>
		<path class="st0" d="M31.7089844,27.7689819c0.2998047-0.0761108,0.8486023,0.5517883,1.2246094,1.4024048
			c0.3760071,0.8511047,0.4375,1.6025085,0.1376953,1.6791992c-0.2998047,0.0762024-0.8486023-0.5517883-1.2246094-1.4024048
			C31.4707031,28.5971985,31.4092102,27.8451843,31.7089844,27.7689819L31.7089844,27.7689819z"/>
		<path class="st3" d="M31.726593,27.8363953c-0.039093,0.0097961-0.069397,0.0375671-0.0917969,0.0849609
			c-0.1192322,0.2451172-0.0058899,0.8613281,0.2754211,1.4985352c0.3876648,0.8759766,0.9120483,1.4208984,1.1434631,1.3632812
			c0.0391235-0.0097656,0.0684204-0.0375977,0.0917969-0.0853882c0.1191101-0.2446899,0.0059204-0.8609009-0.2753906-1.4981079
			C32.4823608,28.3231812,31.9560852,27.7778015,31.726593,27.8363953L31.726593,27.8363953L31.726593,27.8363953z
			 M33.0176086,30.9263c-0.3858337,0-0.9131165-0.7227173-1.234436-1.4501953
			c-0.3065796-0.6934204-0.414093-1.3272095-0.273407-1.6153259c0.0410156-0.0838928,0.1035156-0.1390991,0.1816101-0.1591187l0,0
			c0.3887329-0.0986938,0.9638977,0.6689148,1.3057251,1.441925c0.3055725,0.6928101,0.4130859,1.3270874,0.2733765,1.6151733
			c-0.0409851,0.0840454-0.1044922,0.1391296-0.1825867,0.1592102C33.0653687,30.9237671,33.0419922,30.9263,33.0176086,30.9263
			L33.0176086,30.9263z"/>
		<path class="st0" d="M31.351593,28.9003906c0.2705078-0.0464172,0.7264709,0.4872742,1.0184937,1.1913757
			c0.2929993,0.7046204,0.3106079,1.3135376,0.0410156,1.3594055c-0.2705078,0.046814-0.7256165-0.4867859-1.0185242-1.1908875
			C31.1005859,29.5556946,31.0819702,28.9467773,31.351593,28.9003906L31.351593,28.9003906z"/>
		<path class="st3" d="M31.3876953,28.9794922c-0.0078125,0-0.0147095,0.0004883-0.0215149,0.0018921
			c-0.0205078,0.003479-0.0498047,0.0137024-0.0770874,0.0615845c-0.0859985,0.1562195-0.0664062,0.5937195,0.1796875,1.1855164
			c0.296814,0.7163086,0.7255249,1.1748047,0.9287109,1.1425781c0.0195007-0.0038757,0.0487976-0.0136719,0.0760803-0.0624695
			c0.0860291-0.156311,0.0664368-0.5932922-0.1787109-1.1851196C32.007782,29.4325867,31.5967102,28.9794922,31.3876953,28.9794922
			L31.3876953,28.9794922z M32.3769836,31.5360718c-0.3536072,0-0.8027954-0.6254883-1.0596008-1.2445984
			c-0.2362671-0.5673828-0.3027954-1.0883789-0.1708984-1.3276062c0.0438843-0.0801086,0.110321-0.1299133,0.1914062-0.1440735
			c0.3602905-0.0620117,0.8388977,0.5932922,1.1083984,1.2406921c0.2352905,0.5673828,0.3026733,1.0888977,0.1708984,1.3272095
			c-0.0448914,0.0810852-0.1112976,0.1308899-0.1924133,0.1445007
			C32.4091797,31.5351868,32.3925781,31.5360718,32.3769836,31.5360718L32.3769836,31.5360718z"/>
		<path class="st0" d="M30.7714844,29.4784851c0.2705078-0.0404968,0.7157898,0.5019836,0.993103,1.2124023
			c0.2774048,0.7104797,0.2833252,1.3197937,0.0126953,1.3598938c-0.2713928,0.0409851-0.7158203-0.5019836-0.9935913-1.2124023
			C30.5062866,30.1278992,30.5004883,29.5189819,30.7714844,29.4784851L30.7714844,29.4784851z"/>
		<path class="st3" d="M30.7836914,29.5596008c-0.019989,0.0028992-0.0498047,0.0126648-0.0775757,0.0599976
			c-0.0894165,0.1542664-0.0791016,0.5922852,0.1542664,1.1889648c0.2822266,0.7227173,0.7020874,1.1903992,0.9042053,1.1611023
			c0.0205994-0.0028992,0.0498962-0.0126648,0.0782166-0.0594788c0.0887756-0.1542969,0.0791016-0.592804-0.1543274-1.1889954
			C31.406311,29.9989929,30.9848938,29.5292664,30.7836914,29.5596008L30.7836914,29.5596008L30.7836914,29.5596008z
			 M31.7470703,32.1356812c-0.3534851,0-0.7940063-0.6395874-1.0395813-1.2675171
			c-0.2236023-0.5717773-0.2797852-1.0942993-0.1434937-1.3305664c0.0463867-0.0796204,0.113678-0.1279297,0.195282-0.1401062l0,0
			c0.3628235-0.0546875,0.8265991,0.6107788,1.0815125,1.2636108c0.2236938,0.5722656,0.280304,1.0947876,0.1435852,1.3310547
			c-0.0458984,0.0791016-0.1132812,0.1279297-0.195282,0.1396484
			C31.7753906,32.1347961,31.7616882,32.1356812,31.7470703,32.1356812L31.7470703,32.1356812z"/>
		<path class="st0" d="M31.3222656,27.6825867c0.2177124-0.0400085,0.5986328,0.3529968,0.8496094,0.8783875
			c0.2518921,0.5249329,0.2782898,0.9829102,0.0605164,1.0229797c-0.2187195,0.0400391-0.5996094-0.3529968-0.8506165-0.8783569
			C31.1308899,28.1806641,31.1034851,27.722168,31.3222656,27.6825867L31.3222656,27.6825867z"/>
		<path class="st3" d="M31.3554993,27.7841797c-0.0049133,0-0.0098267,0.0004883-0.0147095,0.0014038l0,0
			c-0.007782,0.0014954-0.0215149,0.0039978-0.0361023,0.0323181c-0.0596008,0.1161804-0.0195007,0.4427795,0.1719055,0.8422852
			c0.2568054,0.5365906,0.609314,0.8457031,0.7362976,0.8208008c0.0078125-0.0014954,0.022522-0.0039062,0.0371094-0.0323181
			c0.0585938-0.1161804,0.0185852-0.4427795-0.171936-0.8426819C31.8300781,28.0888977,31.4950867,27.7841797,31.3554993,27.7841797
			L31.3554993,27.7841797z M32.1991882,29.6918945c-0.3027039,0-0.6815796-0.460022-0.9121094-0.940918
			c-0.2070007-0.4335938-0.2714844-0.8272095-0.1688843-1.0282898c0.039978-0.0791016,0.1044922-0.1285095,0.1855164-0.1435852
			c0.3095703-0.0566101,0.7196655,0.4281616,0.9628906,0.9364624c0.2069702,0.433136,0.2724915,0.82724,0.1698914,1.0283203
			c-0.0400085,0.0791016-0.1044922,0.1285095-0.1855164,0.1430969
			C32.2344055,29.6903687,32.2167969,29.6918945,32.1991882,29.6918945L32.1991882,29.6918945z"/>
		<path class="st0" d="M30.8671875,28.0541687c0.2207031-0.0278015,0.5762024,0.3853149,0.7939148,0.9233398
			c0.2177734,0.5375977,0.2167969,0.996582-0.0039062,1.0244751c-0.2207336,0.0278015-0.5760803-0.3852844-0.7939148-0.9234009
			C30.644989,28.5404663,30.6469727,28.0819702,30.8671875,28.0541687L30.8671875,28.0541687z"/>
		<path class="st3" d="M30.8900757,28.1576843c-0.0033875,0-0.0062866,0-0.0096741,0.0004883
			c-0.0078125,0.0010071-0.0230103,0.0028992-0.0391235,0.0307922c-0.0663757,0.1132202-0.046875,0.4414062,0.1191101,0.8500977
			c0.2221985,0.5488281,0.5522766,0.8764343,0.6832275,0.8588257c0.008667-0.0009155,0.0233765-0.0028992,0.039978-0.0312195
			c0.0663757-0.112793,0.0458984-0.4413757-0.1190796-0.8500977C31.3466797,28.4813843,31.0263672,28.1576843,30.8900757,28.1576843
			L30.8900757,28.1576843z M31.6347961,30.1083679c-0.3067322,0-0.6651001-0.4887695-0.8686829-0.9902039
			c-0.179718-0.4428711-0.2202454-0.8398743-0.1059265-1.0351868c0.0448914-0.0766907,0.1118164-0.1225891,0.1938171-0.1328125
			c0.3109741-0.0385742,0.6929016,0.4668274,0.9047852,0.987793c0.1786804,0.4429321,0.219696,0.839325,0.1054993,1.034729
			c-0.0449829,0.0765991-0.1122742,0.1229858-0.194397,0.1333008
			C31.6582031,30.1073914,31.6464844,30.1083679,31.6347961,30.1083679L31.6347961,30.1083679z"/>
		<path class="st0" d="M30.8617859,28.4232788c0.3793945,0.9253235,0.5327148,1.7574158,0.3423157,1.8575134
			c-0.1903992,0.1000671-0.6514282-0.5699158-1.0303345-1.4952087"/>
		<path class="st3" d="M31.1630859,30.3197937c-0.0175781,0-0.0371094-0.0039062-0.0567017-0.0112
			c-0.2352905-0.0855103-0.6297913-0.7075195-0.9588928-1.512207l0.0526733-0.0220032
			c0.3188171,0.7782898,0.7080383,1.4013977,0.9258118,1.4804993c0.0263062,0.0093079,0.047821,0.0097046,0.0643921,0.0005188
			c0.1524048-0.0796204,0.0440063-0.8477173-0.3549805-1.8213196l0.0532837-0.0220032
			c0.3369141,0.824707,0.5674438,1.7686157,0.3291321,1.894104C31.2012024,30.3153992,31.1825867,30.3197937,31.1630859,30.3197937
			L31.1630859,30.3197937z"/>
		<path class="st0" d="M30.8051758,26.9667969c0.2202148-0.0278015,0.5757141,0.3856812,0.7934265,0.9232788
			c0.2187805,0.5381165,0.2167969,0.9966125-0.0039368,1.0245056c-0.2206726,0.0283203-0.5760803-0.3853149-0.7938843-0.9234009
			C30.5830078,27.4535828,30.5845032,26.9945984,30.8051758,26.9667969L30.8051758,26.9667969z"/>
		<path class="st3" d="M30.8183899,27.0708008c-0.0083008,0.0009766-0.0229797,0.0028992-0.0396118,0.0312805
			c-0.0663757,0.1127014-0.0463867,0.4413757,0.1191101,0.8500061c0.2221985,0.5488892,0.5532837,0.8754883,0.6841125,0.8583984
			c0.007782-0.000885,0.0224915-0.0028992,0.039093-0.0307312c0.0664062-0.1132812,0.0458984-0.4413757-0.1191101-0.8500671
			C31.2792969,27.3808594,30.9506836,27.0546875,30.8183899,27.0708008L30.8183899,27.0708008L30.8183899,27.0708008z
			 M31.5722961,29.0209656c-0.3067017,0-0.6651001-0.4882812-0.8687134-0.9901733
			c-0.179718-0.4429016-0.2201843-0.8394165-0.105896-1.0346985c0.0448914-0.0766907,0.1123047-0.1231079,0.1943054-0.1333008l0,0
			c0.3163757-0.0396118,0.6924133,0.4667664,0.9042969,0.9882812c0.1796875,0.4428101,0.2197266,0.839325,0.1054993,1.0346069
			c-0.0450134,0.0766907-0.1113892,0.1225891-0.1933899,0.1329041
			C31.5967102,29.019989,31.5849915,29.0209656,31.5722961,29.0209656L31.5722961,29.0209656z"/>
		<path class="st0" d="M30.1928711,27.2645874c0.2207336-0.023407,0.5668945,0.3965149,0.7729187,0.9385071
			c0.2061157,0.5419922,0.1944275,1.0004883-0.0267944,1.0243835c-0.2211914,0.0234985-0.5674133-0.3969116-0.7734985-0.9389038
			C29.9595032,27.746582,29.9716797,27.2880859,30.1928711,27.2645874L30.1928711,27.2645874z"/>
		<path class="st3" d="M30.2118835,27.3686829c-0.0028992,0-0.0054016,0-0.0082703,0.0004272l0,0
			c-0.0073242,0.0004883-0.0229187,0.0024719-0.0400391,0.0302734c-0.0689087,0.1118164-0.0561829,0.4403992,0.1001282,0.8521118
			c0.2098999,0.5531616,0.5361023,0.8866882,0.6640015,0.8714905c0.0073853-0.0004272,0.0229797-0.0024109,0.0400696-0.0302124
			c0.0693359-0.1117859,0.0566101-0.4404907-0.1000671-0.8520813C30.6621094,27.6987,30.3471985,27.3686829,30.2118835,27.3686829
			L30.2118835,27.3686829z M30.9203796,29.3334656c-0.3085938,0-0.6591797-0.4984741-0.852478-1.0072632
			c-0.1700134-0.4463196-0.2017212-0.8433228-0.0830078-1.0366211c0.0463867-0.0757141,0.1147156-0.120697,0.1967163-0.1293945l0,0
			c0.3154907-0.0332031,0.6826782,0.4804077,0.881897,1.0057983c0.1698914,0.4462891,0.2020874,0.8432922,0.0829773,1.0361023
			c-0.0469055,0.0762024-0.1143188,0.120697-0.1968079,0.1293945C30.9398804,29.332489,30.9302063,29.3334656,30.9203796,29.3334656
			L30.9203796,29.3334656z"/>
		<path class="st0" d="M30.2025757,27.1659851c0.3677063,0.6254883,0.5660095,1.2094727,0.441925,1.3037109
			c-0.1240234,0.0942688-0.5228882-0.3364258-0.8905945-0.9619141"/>
		<path class="st3" d="M30.6034851,28.5116882c-0.0083008,0-0.0175781-0.0010071-0.0267944-0.0029297
			c-0.1777954-0.0351562-0.5263977-0.4408875-0.8476868-0.9862671l0.0498047-0.0292969
			c0.3451538,0.5878906,0.6747742,0.9325867,0.809082,0.9593811c0.0171204,0.0035095,0.0297852,0.0014954,0.0391235-0.0053101
			c0.0965881-0.0737915-0.0640259-0.6118774-0.4493408-1.266571l0.0498047-0.0292969
			c0.3291321,0.559967,0.5933228,1.2201843,0.4341125,1.3412781C30.6454773,28.5053711,30.6259766,28.5116882,30.6034851,28.5116882
			L30.6034851,28.5116882z"/>
		<path class="st0" d="M30.4570007,26.7514954c0.3681946,0.6254883,0.5663757,1.2094116,0.441864,1.3037109
			c-0.1234741,0.0941772-0.5223694-0.3369141-0.8900757-0.9624023"/>
		<path class="st3" d="M30.8583984,28.0966797c-0.0087891,0-0.0176086-0.0004883-0.0269165-0.0024719
			c-0.1781921-0.0351257-0.5267944-0.440918-0.8475952-0.9868164l0.0492859-0.0288086
			c0.3457031,0.5874023,0.675293,0.9326172,0.8096313,0.9590149c0.0170898,0.0033875,0.0297852,0.0019836,0.0390015-0.0054321
			c0.0967102-0.0731812-0.0644226-0.6112671-0.4492188-1.2660828l0.0493164-0.0292969
			c0.3295898,0.5600891,0.5932922,1.2202148,0.4345703,1.3413086
			C30.8998718,28.0907898,30.8804016,28.0966797,30.8583984,28.0966797L30.8583984,28.0966797z"/>
		<path class="st0" d="M31.601593,26.839386c0.5126953,0.8540039,0.7879944,1.6517944,0.6152039,1.781189
			c-0.1729126,0.128418-0.7284851-0.4599915-1.2412109-1.3143921"/>
		<path class="st3" d="M32.1592102,28.6669617c-0.0108337,0-0.022522-0.0014648-0.0352173-0.0038757
			c-0.2460938-0.0484009-0.7285156-0.6000977-1.1733093-1.3423157l0.0492859-0.0292969
			c0.4306946,0.7173157,0.9072266,1.2705078,1.1348267,1.3154297c0.0282898,0.0053711,0.0487976,0.0019836,0.0643921-0.0097046
			c0.1387024-0.1030884-0.0830078-0.8442993-0.6221008-1.7432251l0.0489197-0.0292969
			c0.4559937,0.7607117,0.8251953,1.6567078,0.6083984,1.8189087
			C32.2128906,28.6591797,32.1885071,28.6669617,32.1592102,28.6669617L32.1592102,28.6669617z"/>
		<path class="st0" d="M30.8452148,26.391571c0.3695679,0.6904297,0.5688782,1.3349915,0.4447632,1.4385071
			c-0.1229858,0.1040039-0.523407-0.3725891-0.8924866-1.0630188"/>
		<path class="st3" d="M31.2489624,27.8729858c-0.0067749,0-0.0145874-0.0003967-0.0233765-0.0024109
			c-0.1777039-0.0341797-0.5288086-0.4823914-0.8534851-1.0897827l0.0507812-0.0274048
			c0.3500061,0.6547852,0.680603,1.0352173,0.8134155,1.0610962c0.0205078,0.0039062,0.0302734-0.0020142,0.0351868-0.0064087
			c0.0975952-0.0815125-0.0635071-0.6777039-0.4517212-1.4028015l0.0508118-0.0273743
			c0.3296204,0.6166992,0.5952148,1.3427734,0.4380188,1.4746094
			C31.2969055,27.8622742,31.2772827,27.8729858,31.2489624,27.8729858L31.2489624,27.8729858z"/>
		<path class="st6" d="M30.8124695,25.391571c-0.246582,0.2480164-0.0048828,0.7119141,0.2207031,0.8799133
			c0.2529297,0.2294922,1.6738281,1.7284851,2.6768188,0.4672852C32.906311,26.7240906,31.4071655,24.8383789,30.8124695,25.391571
			L30.8124695,25.391571z"/>
		<path class="st3" d="M30.8329773,25.4125977c-0.0708008,0.0712585-0.1019592,0.1659851-0.0932922,0.281189
			c0.0162048,0.2138977,0.1705017,0.4497986,0.3110962,0.5541992c0.0185242,0.0166016,0.0400085,0.0366821,0.0654297,0.0610962
			c0.2733765,0.2593079,0.9980774,0.9476929,1.7333679,0.8965149c0.3008118-0.0210266,0.570282-0.1695251,0.8008118-0.4414368
			c-0.351593-0.0414734-0.8164062-0.3891602-1.2655945-0.7255859
			C31.7782898,25.5853882,31.1513977,25.1171875,30.8329773,25.4125977L30.8329773,25.4125977z M32.7704773,27.2675781
			c-0.7294922,0-1.4266968-0.6611938-1.695282-0.9159851c-0.0254211-0.0239868-0.045929-0.0435181-0.0614929-0.0581055
			c-0.1470337-0.1088867-0.3150024-0.3560181-0.3330383-0.5953064c-0.0097656-0.1312866,0.0288391-0.2445984,0.1108093-0.3276062
			l0.0010376-0.0009766c0.3549805-0.3295898,1.0013733,0.1538086,1.6273804,0.621582
			c0.467804,0.3500977,0.9512024,0.7119141,1.2901001,0.717804l0.0605164,0.0014038l-0.0371399,0.0464172
			c-0.2489929,0.3134766-0.5448914,0.484375-0.8798828,0.507782C32.8262024,27.266571,32.7979126,27.2675781,32.7704773,27.2675781
			L32.7704773,27.2675781z"/>
		<path class="st6" d="M30.6366882,24.6513672c-0.2466125,0.2485352-0.0049133,0.7124023,0.2207031,0.8803101
			c0.2530212,0.2290344,1.6739197,1.7286072,2.6767883,0.4667969C32.7313843,25.984375,31.2313843,24.0980835,30.6366882,24.6513672
			L30.6366882,24.6513672z"/>
		<path class="st3" d="M30.6571655,24.6728821c-0.070282,0.071228-0.1014709,0.1659851-0.0931702,0.2812195
			c0.0161133,0.2138977,0.1708679,0.4491882,0.3110046,0.5536804c0.0186157,0.0166016,0.039978,0.0371094,0.0658875,0.0614929
			c0.2729797,0.2593079,0.9975891,0.9483032,1.7329102,0.8965149c0.3017883-0.0215149,0.5712891-0.1698914,0.8017883-0.4414062
			c-0.3526001-0.0419922-0.8174133-0.3890991-1.2666016-0.7256165
			C31.6025085,24.8456726,30.9761047,24.3773804,30.6571655,24.6728821L30.6571655,24.6728821z M32.594696,26.5272827
			c-0.7284851,0-1.4258118-0.6605835-1.6948242-0.9154968c-0.0253601-0.0239258-0.0458679-0.0438843-0.0625-0.0585938
			c-0.1464844-0.1088867-0.3144836-0.3554077-0.3319702-0.594696c-0.0103149-0.1314087,0.0282898-0.2451172,0.1107788-0.3276062
			l0.0005188-0.0010071c0.3544922-0.3296204,1.0014648,0.1537781,1.6273804,0.6216125
			c0.467804,0.3495789,0.9512024,0.7113647,1.2911072,0.7176819l0.0595093,0.0010071l-0.0371094,0.046875
			c-0.2489929,0.3135071-0.5449219,0.4839172-0.8798828,0.5073242
			C32.6503906,26.5263672,32.6229858,26.5272827,32.594696,26.5272827L32.594696,26.5272827z"/>
		<path class="st6" d="M30.4120789,23.9423828c-0.246582,0.2480164-0.0048828,0.7123718,0.2207336,0.8804016
			c0.2528687,0.2289734,1.6737671,1.7284851,2.6767883,0.4667969
			C32.5058899,25.2749023,31.0067749,23.3891602,30.4120789,23.9423828L30.4120789,23.9423828z"/>
		<path class="st3" d="M30.4325867,23.9638977c-0.0703125,0.0712585-0.1014709,0.1659851-0.0932007,0.281189
			c0.0160828,0.2138977,0.1708984,0.4492188,0.3110046,0.5537109c0.0184937,0.016571,0.0400085,0.0365906,0.0653992,0.0610657
			c0.2734985,0.2592468,0.9981079,0.9487305,1.7333984,0.8969116c0.3018188-0.0213928,0.5713196-0.1698914,0.8017883-0.4413757
			c-0.3526001-0.0420227-0.8163757-0.3890991-1.2666016-0.7256165
			C31.3778687,24.1366882,30.7514954,23.6679993,30.4325867,23.9638977L30.4325867,23.9638977z M32.3700867,25.8183899
			c-0.7285156,0-1.4263-0.6611938-1.6947937-0.9155884c-0.0254211-0.0239258-0.0464172-0.0439148-0.0625-0.0586243
			c-0.1465149-0.1087952-0.3145142-0.3554077-0.3320007-0.594696c-0.0103149-0.1317749,0.0283203-0.2451172,0.1108093-0.3276062
			l0.0004883-0.0010071c0.3544922-0.3300781,1.0014954,0.1533203,1.6273804,0.6216125
			c0.4678345,0.3495789,0.9512329,0.7113953,1.2910156,0.717804L33.3700867,25.2612l-0.0371094,0.046875
			c-0.2489929,0.3130188-0.5448914,0.4839172-0.8799133,0.5073242
			C32.4258118,25.8173828,32.3974915,25.8183899,32.3700867,25.8183899L32.3700867,25.8183899z"/>
		<path class="st6" d="M29.9242859,23.1312866c-0.246582,0.2481079-0.0054016,0.7124939,0.2201843,0.8798828
			c0.253418,0.2295227,1.6748352,1.7290344,2.6768188,0.4673157C32.0186157,24.4638672,30.5189819,22.5780945,29.9242859,23.1312866
			L29.9242859,23.1312866z"/>
		<path class="st3" d="M29.9447937,23.1522827c-0.0708008,0.0718079-0.1020203,0.1661072-0.0932007,0.2817993
			c0.0155945,0.2138062,0.1704102,0.4492188,0.3104858,0.5537109c0.019104,0.016571,0.0400085,0.0365906,0.0658875,0.0610046
			c0.2735291,0.2592773,0.9986267,0.9491882,1.7329102,0.8969727c0.3017883-0.0214844,0.5712891-0.1698914,0.8018188-0.4418945
			c-0.3525085-0.0415039-0.8164062-0.3887024-1.2666016-0.7250977
			C30.8900757,23.3256836,30.2637024,22.8568726,29.9447937,23.1522827L29.9447937,23.1522827z M31.8817749,25.0072632
			c-0.7284851,0-1.4256897-0.6610718-1.6947937-0.9154968c-0.0249023-0.0238647-0.0458984-0.0438843-0.0619812-0.0585938
			c-0.1465149-0.1088867-0.3145142-0.3554688-0.3325195-0.594696c-0.0097961-0.131897,0.0282898-0.2450867,0.1108093-0.3280945
			l0.0004883-0.0004883c0.355011-0.3301392,1.0020142,0.1538086,1.6275024,0.6214905
			c0.4676819,0.3497009,0.9521179,0.7115173,1.2909851,0.717804l0.0595398,0.0010071l-0.0371094,0.0469055
			c-0.2489929,0.3129578-0.5448914,0.4838867-0.8799133,0.5072937
			C31.9374695,25.0062866,31.9102173,25.0072632,31.8817749,25.0072632L31.8817749,25.0072632z"/>
		<path class="st6" d="M28.1728821,22.3549805c0.5078125-0.3778992,1.440918-0.4883118,2.1679077-0.1181946
			c0.6054993,0.296875,1.6152954,1.5072937,2.3730774,1.7934875c-0.5332031,0.0952148-0.8583984,0.0146179-1.1992798-0.1489868
			c-0.6743164,0.4878235-0.9145203,0.5610962-1.6009827,0.6567993c-0.9551086,0.1376953-1.7481384-0.1109009-2.0269165-0.6089172
			C27.6029663,23.4594727,27.7250977,22.7055969,28.1728821,22.3549805L28.1728821,22.3549805z"/>
		<path class="st3" d="M28.1918945,22.3798828c-0.4277039,0.3354187-0.5606079,1.0658875-0.2783203,1.5332031
			c0.2778015,0.4960938,1.0610352,0.7290039,1.995636,0.5942078c0.6898804-0.0967102,0.9188843-0.1679077,1.5868835-0.6513062
			l0.0145874-0.0112915l0.0166016,0.0082703c0.3125,0.1494141,0.6055298,0.230011,1.0743103,0.1636353
			c-0.405304-0.1880188-0.8594055-0.5937195-1.3007812-0.9878235c-0.3653259-0.3262024-0.7105103-0.6347961-0.9737244-0.7637024
			C29.5913086,21.8905945,28.664093,22.0292664,28.1918945,22.3798828L28.1918945,22.3798828z M29.4013977,24.6073914
			c-0.7261047,0-1.3056946-0.2406921-1.5420227-0.6630859c-0.296875-0.4912415-0.1572876-1.2607117,0.2939148-1.6137085
			l0.0004883-0.0005188c0.4804993-0.3573914,1.4155273-0.5215149,2.2012024-0.1210938
			c0.2709961,0.1322937,0.6191101,0.4438171,0.987793,0.773407c0.4746094,0.4228821,0.9638062,0.8608704,1.3828125,1.0185852
			l0.1064148,0.0400085l-0.1123352,0.019989c-0.5370789,0.0962219-0.8710632,0.0127258-1.2020569-0.1434937
			c-0.6631165,0.4785156-0.9136353,0.5561218-1.5996094,0.6517944
			C29.7396851,24.5951843,29.5668945,24.6073914,29.4013977,24.6073914L29.4013977,24.6073914z"/>
		<path class="st4" d="M29.2548828,22.8554688c0.2416992,0.0039368,0.4354858,0.1211243,0.4325867,0.2612
			c-0.0023804,0.1401062-0.2001648,0.2504883-0.441864,0.2460938s-0.4355164-0.121582-0.4326172-0.2616577
			C28.8153992,22.9608765,29.0131836,22.8510742,29.2548828,22.8554688L29.2548828,22.8554688z"/>
		<path class="st3" d="M29.2412109,22.9799805c-0.0898438,0-0.1753235,0.0195007-0.2363281,0.0531921
			c-0.0458984,0.0259094-0.0668945,0.0537109-0.0674133,0.0703125c-0.0004883,0.0439758,0.1196289,0.1309204,0.3105164,0.1343079
			c0.0917969,0.0014954,0.1841125-0.0176086,0.2475891-0.0531921c0.045929-0.0254211,0.066925-0.0537109,0.066925-0.0699158
			c0.0004883-0.0166016-0.0195007-0.0454102-0.0645142-0.0727234c-0.0619812-0.0375671-0.1517944-0.0600586-0.2456055-0.0614929l0,0
			C29.2489929,22.9799805,29.2450867,22.9799805,29.2412109,22.9799805L29.2412109,22.9799805z M29.2592773,23.487793
			c-0.0054016,0-0.0102844,0-0.0155945,0c-0.3208008-0.0059204-0.5596008-0.1729126-0.5561829-0.3887024
			c0.0023804-0.112793,0.0737-0.2163086,0.1957703-0.2841797c0.1025085-0.0571289,0.2354126-0.0878296,0.3735046-0.0844116
			c0.1387024,0.0023804,0.2705078,0.0370789,0.3706055,0.0975952c0.1197205,0.0722961,0.1875,0.1781921,0.1851196,0.2909851
			c-0.0020142,0.1123047-0.0732117,0.2158813-0.1953125,0.2842102C29.5185852,23.4579773,29.3920898,23.487793,29.2592773,23.487793
			L29.2592773,23.487793z"/>
		<path class="st1" d="M27.7865906,23.7875671c0.3158875-0.1176758,0.6293945-0.0565796,0.7012024,0.1357117
			c0.0712891,0.1924133-0.1269836,0.4439087-0.4424133,0.5610962c-0.3158875,0.1177063-0.6293945,0.0566101-0.7011719-0.1357727
			C27.2728882,24.1562805,27.4711914,23.9047546,27.7865906,23.7875671L27.7865906,23.7875671z"/>
		<path class="st3" d="M28.1034851,23.852478c-0.0863953,0-0.1815796,0.0180969-0.2728882,0.0522766
			c-0.2603149,0.0967102-0.4096985,0.2910156-0.3692017,0.4004517c0.0185852,0.0497742,0.0791016,0.0878906,0.1656189,0.10495
			c0.1083984,0.0210266,0.2450867,0.0053101,0.3744507-0.0429688c0.2602234-0.0967102,0.4091187-0.2910156,0.3691101-0.4003906
			c-0.0184631-0.0498047-0.0791016-0.0879211-0.1654968-0.105011C28.1733093,23.8559875,28.1391907,23.852478,28.1034851,23.852478
			L28.1034851,23.852478z M27.7289734,24.6694031c-0.0517883,0-0.1019592-0.0048218-0.1493835-0.0140991
			c-0.1743164-0.0337219-0.3027039-0.129425-0.352478-0.2632141c-0.0967102-0.2612,0.1297607-0.578125,0.5160828-0.7217102
			c0.1737976-0.0649109,0.3544922-0.0840149,0.5091858-0.0541992c0.174408,0.0342102,0.3027954,0.1299133,0.3521118,0.2637024
			c0.0971985,0.2612-0.1293945,0.5780945-0.5155945,0.7217102C27.9687805,24.6464844,27.8451843,24.6694031,27.7289734,24.6694031
			L27.7289734,24.6694031z"/>
		<path class="st3" d="M29.2304688,22.9560852c0.0869446,0.0014038,0.1562195,0.063385,0.1548157,0.1386108
			c-0.0010071,0.0751953-0.0728149,0.1347656-0.1596985,0.1333008c-0.0868835-0.0014343-0.156311-0.0634155-0.1548157-0.1386108
			C29.0722656,23.0141602,29.1435852,22.9545898,29.2304688,22.9560852L29.2304688,22.9560852z"/>
		<path class="st1" d="M28.2870789,23.4486694c0.0404968,0.1949158-0.1044922,0.4580078-0.4179993,0.5513
			c-0.3193054,0.1323242-0.5620117,0.4321289-0.7015991,0.9229126c-0.4853821-1.1186829-0.1768188-1.5917969,0.3388062-1.706604
			C27.9501648,23.0746765,28.2172852,23.0922852,28.2870789,23.4486694L28.2870789,23.4486694z"/>
		<path class="st3" d="M27.9237671,23.1698914c-0.1034546,0-0.2362671,0.026886-0.406189,0.0810852
			c-0.2284851,0.0508118-0.3871765,0.1645203-0.4755859,0.3379211c-0.1401062,0.2753906-0.0996094,0.6879578,0.1200867,1.2264709
			c0.1426086-0.4320984,0.3755188-0.7176819,0.6929016-0.8490906c0.2934265-0.0874023,0.4331055-0.3325195,0.3965149-0.5101929
			v-0.0004883c-0.0239868-0.1202087-0.0708008-0.1997375-0.144104-0.2431946
			C28.0596008,23.184082,27.9994812,23.1698914,27.9237671,23.1698914L27.9237671,23.1698914z M27.1747742,25.0312805
			l-0.0409851-0.0942993c-0.2626953-0.605011-0.3153992-1.0697937-0.157196-1.3812866
			c0.0975952-0.1910095,0.2778015-0.3208008,0.5218811-0.375c0.3125-0.1000977,0.5127258-0.1099243,0.6460266-0.031311
			c0.0922852,0.0546875,0.1508789,0.1499023,0.1786804,0.2919922c0.0440063,0.2138977-0.1098022,0.4945984-0.4432983,0.5937805
			c-0.3158875,0.1308289-0.5448914,0.433136-0.6773071,0.8974304L27.1747742,25.0312805L27.1747742,25.0312805z"/>
	</g>
</g>
</svg>
