<?xml version="1.0" encoding="utf-8"?>
<!-- Generator: Adobe Illustrator 22.1.0, SVG Export Plug-In . SVG Version: 6.00 Build 0)  -->
<svg version="1.1" id="Layer_1" xmlns="http://www.w3.org/2000/svg" xmlns:xlink="http://www.w3.org/1999/xlink" x="0px" y="0px"
	 viewBox="0 0 60 60" style="enable-background:new 0 0 60 60;" xml:space="preserve">
<style type="text/css">
	.st0{clip-path:url(#SVGID_2_);fill:#020203;}
	.st1{clip-path:url(#SVGID_2_);fill:#FFFFFF;}
	.st2{clip-path:url(#SVGID_2_);fill:#CE1327;}
	.st3{clip-path:url(#SVGID_2_);fill:#C19409;}
	.st4{clip-path:url(#SVGID_5_);}
	.st5{clip-path:url(#SVGID_6_);fill:#C19409;}
	.st6{clip-path:url(#SVGID_6_);fill:#FFFFFF;}
</style>
<g id="XMLID_1_">
	<g>
		<defs>
			<path id="SVGID_1_" d="M59,60H0.9999695C0.4477234,60,0,59.5526733,0,59V0.9999695c0-0.5522461,0.4477234-1,0.9999695-1H59
				c0.5526886,0,0.9999847,0.4477539,0.9999847,1V59C59.9999847,59.5526733,59.5526886,60,59,60L59,60z"/>
		</defs>
		<clipPath id="SVGID_2_">
			<use xlink:href="#SVGID_1_"  style="overflow:visible;"/>
		</clipPath>
		<polygon class="st0" points="-15,-0.0000305 74.9999847,-0.0000305 74.9999847,60 -15,60 -15,-0.0000305 		"/>
		<polygon class="st1" points="-15,-0.0000305 74.9999847,-0.0000305 74.9999847,39.9999695 -15,39.9999695 -15,-0.0000305 		"/>
		<polygon class="st2" points="-15,-0.0000305 74.9999847,-0.0000305 74.9999847,20 -15,20 -15,-0.0000305 		"/>
		<path class="st1" d="M30.0805969,30.2402039l6.8490906,6.3583679l-0.4883118-11.5473022
			c-0.0712891-1.75-1.5917969-1.3486633-2.6972961-0.7173157C32.6259766,25.0512695,31.3485718,25.0512695,30,24.5775757
			c-1.3486023,0.4736938-2.6255188,0.4736938-3.7446289-0.2436218c-1.1044922-0.6313477-2.625-1.0326843-2.6967773,0.7173157
			l-0.4878235,11.5473022L30.0805969,30.2402039L30.0805969,30.2402039z"/>
		<path class="st3" d="M24.6312866,24.0683899c-0.1616211,0-0.2998047,0.0292969-0.4096069,0.0903015
			c-0.2402954,0.132782-0.3716125,0.4369812-0.3905945,0.9038086L23.370575,35.9589539l6.5269165-5.9203491
			c0.1044922-0.0952148,0.2645874-0.0942993,0.368103,0.0018616l6.3632812,5.9067993L36.1698914,25.0625
			c-0.0195007-0.4668274-0.1513062-0.7710266-0.3916016-0.9038086c-0.3739929-0.2070312-1.0810242-0.0541992-1.8926086,0.4086914
			C32.7919922,25.2650757,31.4854126,25.3656921,30,24.8656921c-1.4854126,0.5-2.7919922,0.3999023-3.8857117-0.2983093
			C25.5409851,24.2402039,25.0195007,24.0683899,24.6312866,24.0683899L24.6312866,24.0683899z M36.9296875,36.8710938
			c-0.0674133,0-0.1348267-0.0254211-0.1856079-0.0732117l-6.6659851-6.1875l-6.8242188,6.1893921
			c-0.0814819,0.0741882-0.1991882,0.0917969-0.2987976,0.0448914c-0.0996094-0.0458679-0.1611938-0.1483765-0.1567993-0.257782
			l0.487793-11.5473022c0.0278931-0.6694946,0.2539368-1.1264954,0.6719055-1.3580017
			c0.7539368-0.4169922,1.8477173,0.081604,2.4326172,0.4161072c0.0038757,0.0018921,0.0082703,0.0043945,0.0116882,0.0068054
			c0.9819946,0.629364,2.1293945,0.7001953,3.5074158,0.2157898c0.0585938-0.0205078,0.1219788-0.0205078,0.1805725,0
			c1.3785095,0.4844055,2.5259399,0.4135742,3.5074158-0.2157898c0.0039062-0.0024109,0.0078125-0.0049133,0.0117188-0.0068054
			c0.5848999-0.3345032,1.6786804-0.8330994,2.4335938-0.4161072c0.4178772,0.2315063,0.6434631,0.6885071,0.6708984,1.358429
			l0.4873047,11.546875c0.0048828,0.1103821-0.0576172,0.2128906-0.1582031,0.2587891
			C37.0068054,36.8622742,36.9677734,36.8710938,36.9296875,36.8710938L36.9296875,36.8710938z"/>
		<path class="st3" d="M28.0054016,26.5722656l-0.2295227,5.5654297l-0.6454773,0.6317749l0.2440796-6.1254883
			C27.5317078,26.6439819,27.9335938,26.6439819,28.0054016,26.5722656L28.0054016,26.5722656L28.0054016,26.5722656z
			 M27.1304016,26.5722656l-0.3155212,6.6787109l-0.6312866,0.5116882l0.3153992-7.434082
			C26.657196,26.4003906,26.9726868,26.5722656,27.1304016,26.5722656L27.1304016,26.5722656z M26.1835938,26.1703796
			l-0.3153992,7.8364258l-0.6455078,0.6308594l0.401825-8.9408875
			C25.7816772,25.8544617,26.097168,26.0844727,26.1835938,26.1703796L26.1835938,26.1703796L26.1835938,26.1703796z
			 M25.3085938,25.4530945l-0.401886,9.3955078l-0.8032227,0.8222961l0.487793-10.8491211
			c0.1577148,0.1577148,0.6314087,0.5448914,0.7173157,0.6307983V25.4530945L25.3085938,25.4530945z M24.3466797,24.6493835
			l-0.4736938,11.2315063l-0.8031921,0.7167664l0.487793-11.5463867
			C23.7870789,24.8935852,24.1889954,24.6493835,24.3466797,24.6493835L24.3466797,24.6493835L24.3466797,24.6493835z"/>
		<path class="st3" d="M31.9931641,26.5722656l0.2295227,5.5654297l0.6455078,0.6317749L32.625,26.6439819
			C32.4667969,26.6439819,32.0653992,26.6439819,31.9931641,26.5722656L31.9931641,26.5722656L31.9931641,26.5722656z
			 M32.8681946,26.5722656l0.3153992,6.6787109l0.6317749,0.5116882L33.5,26.3285828
			C33.3417969,26.4003906,33.0263977,26.5722656,32.8681946,26.5722656L32.8681946,26.5722656z M33.8153687,26.1703796
			l0.3155212,7.8364258l0.6454773,0.6308594l-0.4013977-8.9408875
			C34.2167664,25.8544617,33.9013977,26.0844727,33.8153687,26.1703796L33.8153687,26.1703796L33.8153687,26.1703796z
			 M34.6903992,25.4530945l0.4013977,9.3955078l0.8036804,0.8222961L35.407196,24.8217773
			c-0.157196,0.1577148-0.6308289,0.5448914-0.7167969,0.6307983V25.4530945L34.6903992,25.4530945z M35.6522827,24.6493835
			l0.4737244,11.2315063l0.8036804,0.7167664l-0.4883118-11.5463867
			C36.2118835,24.8935852,35.8104858,24.6493835,35.6522827,24.6493835L35.6522827,24.6493835L35.6522827,24.6493835z"/>
		<polygon class="st3" points="30.3153992,31.5058594 31.2763977,35.8818054 30.960907,36.1972656 30.6308899,35.9530945 
			30.0858765,32.0517883 30.3153992,35.9530945 29.9994812,36.3554688 29.684082,35.9530945 29.9136047,32.0517883 
			29.3687134,35.9530945 29.0385742,36.1972656 28.7230835,35.8818054 29.684082,31.5058594 30.3153992,31.5058594 
			30.3153992,31.5058594 		"/>
		<path class="st3" d="M28.832489,35.8495789l0.2157898,0.2157898l0.2271118-0.1669922l0.5394897-3.8602905L30,32.0565796
			l0.1850891-0.0184937l0.5390015,3.8602905l0.2271118,0.1669922l0.2157898-0.2157898l-0.9316101-4.2431946h-0.4707947
			L28.832489,35.8495789L28.832489,35.8495789z M29.7861023,35.921875l0.2133789,0.2714844l0.2138977-0.2714844L30,32.2919922
			L29.7861023,35.921875L29.7861023,35.921875z M29.9994812,36.516571l-0.417511-0.531189l0.0855408-1.4462891l-0.2056274,1.4696655
			l-0.433075,0.3203125l-0.4150391-0.414978l0.9897156-4.5078125h0.792511l0.9896851,4.5078125l-0.4150085,0.414978
			l-0.433075-0.3203125l-0.2051086-1.4707031l0.085022,1.4473267L29.9994812,36.516571L29.9994812,36.516571z"/>
		<polygon class="st1" points="27.8476868,29.5845032 25.9395142,36.3544617 28.5648804,36.7567749 29.6835938,31.6640625 
			27.8476868,29.5845032 27.8476868,29.5845032 		"/>
		<path class="st3" d="M26.0663757,36.2733765l2.4208984,0.3702087l1.0879211-4.9512024l-1.6812134-1.9042969L26.0663757,36.2733765
			L26.0663757,36.2733765z M28.5648804,36.8563843c-0.0047913,0-0.0101929,0-0.0150757-0.0009155l-2.6255188-0.4023743
			c-0.0282898-0.0039062-0.0531921-0.0205078-0.0688171-0.0439148c-0.015686-0.0244141-0.0200806-0.0537109-0.0121765-0.0810852
			l1.9076843-6.7710266c0.0101929-0.0350952,0.0386353-0.0619812,0.0742188-0.070282
			c0.0355835-0.0078125,0.0726929,0.0039062,0.0971985,0.0312805l1.8363953,2.0796204
			c0.0209961,0.0244141,0.0292969,0.0566101,0.0224915,0.0877991l-1.1186829,5.092804
			C28.6522827,36.8241882,28.6112976,36.8563843,28.5648804,36.8563843L28.5648804,36.8563843z"/>
		<path class="st3" d="M27.4458008,32.5536804c-0.0068359,0-0.0137024-0.0010071-0.0205078-0.0019226
			c-0.032196-0.0068665-0.059082-0.0292969-0.0718079-0.0605774l-0.2295227-0.5585938l0.1851501-0.0762024l0.1737671,0.4238892
			l1.1348267-1.0839844l0.1376953,0.1445007l-1.2403259,1.1855774
			C27.4960938,32.5438843,27.4717102,32.5536804,27.4458008,32.5536804L27.4458008,32.5536804z"/>
		<path class="st3" d="M27.6176758,34.4188843c0.0039062,0,0.0078125,0,0.0117188,0.0010071
			c0.0386047,0.0039062,0.0712891,0.0312805,0.0834961,0.0683899l0.25,0.7607117l0.4599915-0.7148132l-0.1938782-1.0683899
			L27.782196,34.070282c-0.0224304,0.030304-0.0610046,0.0458984-0.0980835,0.0391235
			c-0.0376282-0.0069275-0.0679321-0.0352173-0.0786133-0.0713196l-0.2090149-0.7451172l-0.6567993,0.6737976l0.3399048,1.2451172
			l0.4526062-0.7450867C27.5508118,34.4364624,27.5830078,34.4188843,27.6176758,34.4188843L27.6176758,34.4188843z
			 M28.710907,35.9022827l-0.2304382-1.0877991l-0.4628906,0.719696c-0.0209961,0.032196-0.058075,0.0497742-0.0967102,0.0448914
			c-0.0385742-0.0048828-0.070282-0.031189-0.082489-0.0673828l-0.2480774-0.7557983l-0.460907,0.7586975
			c-0.0205078,0.0342102-0.059082,0.0527954-0.0991211,0.046875c-0.0396118-0.0057983-0.0722961-0.0341797-0.082489-0.0731812
			l-0.4161072-1.5244141c-0.0091858-0.0341797,0.0004883-0.0712891,0.0249023-0.0967102l0.8174133-0.8378906
			c0.0249023-0.0253906,0.0614929-0.0360718,0.0966797-0.0272827c0.0342102,0.0086975,0.0615234,0.0350952,0.0713196,0.0703125
			l0.2012024,0.7147827l0.4624023-0.6268921c0.0238953-0.031311,0.0643921-0.0469055,0.1029968-0.0372009
			c0.039093,0.0088196,0.0687866,0.0401001,0.0757141,0.0791016l0.2001648,1.1036072l0.487793-0.7402954l-0.3022766-1.0429382
			l-0.3554077,0.4648132c-0.0249939,0.0332031-0.0674133,0.0469055-0.1064758,0.0361328
			c-0.0394897-0.0117188-0.0684204-0.0449219-0.0723267-0.085907l-0.2596741-2.4346008l0.1987-0.0209961l0.2328796,2.1850891
			l0.6366882-0.8340149l0.1592102,0.1221008l-0.2826843,0.3691101l0.2958984,1.0214844l0.1083984-0.164093l0.1669922,0.1094055
			l-0.2022095,0.3066711l0.0454102,0.1572266l-0.1835022,0.0536804l-0.5141907,0.780304l0.2685852,1.2724304L28.710907,35.9022827
			L28.710907,35.9022827z"/>
		<path class="st3" d="M28.0679016,36.7880554l-0.2466125-0.7519836l-0.3612976,0.6133118
			c-0.0201111,0.0342102-0.0571899,0.0537109-0.0982056,0.0487976c-0.0394897-0.0047913-0.0722046-0.032196-0.0840149-0.0703125
			l-0.2860718-0.9510803l-0.4116211,0.5780945l-0.1630859-0.1152954l0.5297852-0.7451172
			c0.0224304-0.0302124,0.0605164-0.0467834,0.0975952-0.039978c0.0381165,0.0058899,0.0689087,0.0331726,0.0795898,0.0692749
			l0.2793274,0.9277954l0.3578796-0.6074829c0.0196228-0.0332031,0.0567322-0.0527039,0.0967102-0.0477905
			c0.0391235,0.0039062,0.0718079,0.030304,0.0845032,0.0673828l0.3153992,0.9619141L28.0679016,36.7880554L28.0679016,36.7880554z"
			/>
		<polygon class="st1" points="32.1513672,29.5845032 34.0596008,36.3544617 31.4335938,36.7567749 30.3153992,31.6640625 
			32.1513672,29.5845032 32.1513672,29.5845032 		"/>
		<path class="st3" d="M30.4237976,31.6923828l1.0878906,4.9512024l2.4208984-0.3702087l-1.8270874-6.4852905L30.4237976,31.6923828
			L30.4237976,31.6923828z M31.4335938,36.8563843c-0.0458984,0-0.0869141-0.032196-0.0976868-0.0780945l-1.1181335-5.092804
			c-0.0068665-0.031189,0.0014038-0.063385,0.0224304-0.0877991l1.8359985-2.0796204
			c0.0243835-0.0273743,0.0614929-0.0395813,0.0975952-0.0312805c0.0351868,0.0083008,0.0645142,0.0351868,0.0741882,0.070282
			l1.9082947,6.7710266c0.0068054,0.0273743,0.0028992,0.0566711-0.0126953,0.0810852
			c-0.015686,0.023407-0.0411072,0.0400085-0.069397,0.0439148l-2.625,0.4023743
			C31.4443054,36.8563843,31.4385071,36.8563843,31.4335938,36.8563843L31.4335938,36.8563843z"/>
		<path class="st3" d="M32.5526733,32.5536804c-0.0253906,0-0.0498047-0.0097961-0.0682678-0.0273132l-1.2412415-1.1855774
			l0.1386108-0.1445007l1.1338196,1.0839844l0.1747742-0.4238892l0.1846008,0.0762024l-0.2294617,0.5585938
			c-0.0127258,0.0312805-0.0391235,0.0537109-0.0713196,0.0605774
			C32.5664062,32.5526733,32.5596008,32.5536804,32.5526733,32.5536804L32.5526733,32.5536804z"/>
		<path class="st3" d="M31.5762024,34.5341797l0.4598999,0.7148132l0.2499695-0.7607117
			c0.0118103-0.0371094,0.0450134-0.0644836,0.0830078-0.0683899c0.0391235-0.0048828,0.0772095,0.0137024,0.0977173,0.0469055
			l0.4530945,0.7450867l0.3388977-1.2451172l-0.656311-0.6737976l-0.2088623,0.7451172
			c-0.0108337,0.0361023-0.0411072,0.0643921-0.0791016,0.0713196c-0.0372314,0.0067749-0.0752258-0.0088196-0.0977173-0.0391235
			l-0.4472961-0.6044922L31.5762024,34.5341797L31.5762024,34.5341797z M31.2880859,35.9022827l-0.195282-0.0409851
			l0.2684937-1.2724304l-0.5140991-0.780304l-0.1835938-0.0536804l0.0453796-0.1572266l-0.202179-0.3066711l0.1669922-0.1094055
			l0.1083984,0.164093l0.2958984-1.0214844l-0.2826843-0.3691101l0.1591797-0.1221008l0.6362,0.8340149l0.2333984-2.1850891
			l0.1983032,0.0209961L31.7637024,32.9375c-0.0049133,0.0409851-0.0332031,0.0741882-0.0733032,0.085907
			c-0.0390015,0.0107727-0.0810242-0.0029297-0.1064148-0.0361328l-0.3554993-0.4648132l-0.3016968,1.0429382l0.4873047,0.7402954
			l0.2001953-1.1036072c0.0078125-0.0390015,0.0371094-0.070282,0.0761108-0.0791016
			c0.039093-0.0097046,0.0791016,0.0058899,0.1026001,0.0372009l0.4628906,0.6268921l0.2011108-0.7147827
			c0.0097961-0.0352173,0.0370789-0.061615,0.0712891-0.0703125c0.0352173-0.0087891,0.0712891,0.0018921,0.0967102,0.0272827
			l0.8174133,0.8378906c0.024353,0.0254211,0.0341797,0.0625305,0.024353,0.0967102l-0.414978,1.5244141
			c-0.0108032,0.0390015-0.0429993,0.0673828-0.0830078,0.0731812c-0.0401001,0.0059204-0.078186-0.0126648-0.0997009-0.046875
			l-0.4608765-0.7586975l-0.2480164,0.7557983c-0.0118103,0.0361938-0.0440063,0.0625-0.0821228,0.0673828
			c-0.0389709,0.0048828-0.0760803-0.0126953-0.0966797-0.0448914l-0.4627991-0.719696L31.2880859,35.9022827L31.2880859,35.9022827
			z"/>
		<path class="st3" d="M31.9306946,36.7880554l-0.1895142-0.0624695l0.3153992-0.9619141
			c0.0126953-0.0370789,0.0450134-0.0634766,0.0840149-0.0673828c0.0400696-0.0049133,0.0772095,0.0145874,0.0977173,0.0477905
			l0.3573914,0.6074829l0.2792664-0.9277954c0.0107117-0.0361023,0.0420227-0.063385,0.0791016-0.0692749
			c0.0381165-0.0068054,0.0762024,0.0097656,0.0977173,0.039978l0.5302124,0.7451172l-0.1631165,0.1152954l-0.4111023-0.5780945
			l-0.2871094,0.9510803c-0.0116882,0.0381165-0.0438843,0.0655212-0.0839844,0.0703125
			c-0.0390015,0.0049133-0.0770874-0.0145874-0.0975952-0.0487976l-0.3614197-0.6133118L31.9306946,36.7880554
			L31.9306946,36.7880554z"/>
		<path class="st1" d="M29.9994812,39.3808594c1.9945984,0,3.9028015-0.1572876,5.0209961-0.4726868
			c0.4736023-0.085907,0.4736023-0.3300781,0.4736023-0.6455078c0.4737244-0.1581726,0.2295227-0.717804,0.5596008-0.717804
			c-0.3300781,0.0869446-0.4013977-0.5585632-0.8036804-0.4725952c0-0.5596008-0.5596008-0.631897-1.032196-0.4736938
			c-0.9473267,0.3154907-2.6260376,0.3877258-4.2183228,0.3877258c-1.5923157-0.0722351-3.2567749-0.0722351-4.217804-0.3877258
			c-0.4735718-0.1582031-1.0326843-0.085907-1.0326843,0.4736938c-0.4017944-0.085968-0.4736023,0.5595398-0.8037109,0.4725952
			c0.3301086,0,0.0859985,0.5596313,0.5596008,0.717804c0,0.3154297,0,0.5596008,0.487793,0.6455078
			C26.097168,39.2235718,28.0054016,39.3808594,29.9994812,39.3808594L29.9994812,39.3808594L29.9994812,39.3808594z"/>
		<path class="st3" d="M24.1933899,37.5897827c0.0340881,0.0625,0.0516968,0.1357727,0.0673218,0.1983032
			c0.0385742,0.1611023,0.0751648,0.3124695,0.2758789,0.3798828c0.0404968,0.0136108,0.0684204,0.0517273,0.0684204,0.094696
			c0,0.3164062,0,0.4756165,0.4047852,0.5469055c0.0039062,0.0009155,0.0068054,0.0009155,0.0101929,0.0019226
			c1.0292969,0.2939758,2.8905945,0.4697876,4.9794922,0.4697876c2.1157227,0,3.9360046-0.1708984,4.9945984-0.4697876
			c0.4003906-0.0732117,0.4003906-0.2324219,0.4003906-0.5488281c0-0.0429688,0.0274353-0.0810852,0.0684204-0.094696
			c0.2001953-0.0674133,0.2373047-0.2187805,0.2753906-0.3798828c0.015625-0.0625305,0.0332031-0.1358032,0.0674133-0.1983032
			c-0.0762024-0.0537109-0.1376953-0.1318054-0.1923828-0.2020874c-0.1201172-0.155304-0.2012329-0.2481079-0.3418274-0.2178345
			c-0.0292969,0.0059204-0.0606079-0.0009766-0.0839844-0.0194702c-0.023407-0.0195312-0.0371094-0.0479126-0.0371094-0.078125
			c0-0.1601868-0.0518188-0.2783813-0.1542969-0.3525696c-0.1611023-0.1162109-0.4472961-0.1259155-0.7471313-0.0263062
			c-0.7919617,0.2636108-2.1825867,0.3924866-4.2494812,0.3924866c-0.289093-0.0126953-0.5762024-0.0233765-0.8607788-0.0341187
			c-1.3296204-0.0488892-2.5855103-0.0947571-3.3882141-0.3583679c-0.2998047-0.0996094-0.5858765-0.0899048-0.7466125,0.0263062
			c-0.1029663,0.0741882-0.1552734,0.1923828-0.1552734,0.3525696c0,0.0302124-0.0136108,0.0585938-0.0371094,0.078125
			c-0.023407,0.0184937-0.0541992,0.0263977-0.0834961,0.0194702c-0.1405945-0.0302734-0.2221069,0.0625305-0.3426819,0.2178345
			C24.3311157,37.4579773,24.2695007,37.5360718,24.1933899,37.5897827L24.1933899,37.5897827z M29.9994812,39.4813843
			c-2.1347961,0-3.9672852-0.1737976-5.0292969-0.4755249c-0.5248718-0.0947571-0.5625-0.3828735-0.5649109-0.6757812
			c-0.2470703-0.1132812-0.2997742-0.3320923-0.339386-0.4950867c-0.0292969-0.1221008-0.0473022-0.1661072-0.0765991-0.1817017
			c-0.0220032-0.0010071-0.0449829-0.0049133-0.069397-0.0107117c-0.0483093-0.0137024-0.0801086-0.0605774-0.0737-0.1103821
			c0.0062866-0.0498047,0.0487976-0.0869141,0.0990906-0.0869141c0.0259094,0,0.0498047,0.0019836,0.0713196,0.0068054
			c0.0634766-0.0068054,0.1190796-0.0693054,0.2108765-0.1875c0.0977173-0.125,0.2256165-0.289032,0.4278259-0.2998047
			c0.027771-0.2157898,0.1376953-0.3398132,0.2313843-0.407196c0.2153931-0.155304,0.5614929-0.1758118,0.9263-0.0537109
			c0.7759094,0.2539062,2.0180969,0.2998047,3.3330078,0.3486328c0.2851868,0.0097656,0.5728149,0.0204773,0.8578796,0.0331726
			c2.0410156,0,3.4102173-0.125,4.1816101-0.3818054c0.3652954-0.1221008,0.7120056-0.101593,0.9268188,0.0537109
			c0.0946655,0.0673828,0.204071,0.1914062,0.2315063,0.407196c0.2020874,0.0107727,0.3299866,0.1748047,0.4276733,0.2998047
			c0.0917969,0.1181946,0.1473999,0.1806946,0.210907,0.1875c0.0214844-0.0048218,0.0448914-0.0068054,0.0712891-0.0068054
			c0.0498047,0,0.092804,0.0371094,0.0996094,0.0869141c0.0058899,0.0498047-0.0253906,0.0966797-0.0741882,0.1103821
			c-0.0244141,0.0057983-0.0469055,0.0097046-0.0693359,0.0107117c-0.0292969,0.0155945-0.046875,0.0596008-0.0761719,0.1817017
			c-0.0400085,0.1629944-0.092804,0.3818054-0.3398132,0.4950867c-0.0019836,0.2939148-0.039093,0.5830078-0.5546875,0.6757812
			C33.9726868,39.3075867,32.1328125,39.4813843,29.9994812,39.4813843L29.9994812,39.4813843z"/>
		<path class="st1" d="M32.7118835,36.3544617c-0.6464844,0.085907-1.3633118,0.1572266-1.9086914,0.085907
			c-0.3301086,0-0.5595093,0.5450134,0.0718079,0.6309204c0.5596008,0.0722961,1.4345703,0,1.9082031-0.085907
			c0.4013977-0.0713196,1.2763977-0.2295227,1.8358765-0.3877258c0.5596008-0.2431946,0.1582031-0.7167664-0.157196-0.6445618
			C33.9735718,36.1103821,33.342804,36.2685852,32.7118835,36.3544617L32.7118835,36.3544617L32.7118835,36.3544617z
			 M27.2886047,36.3544617c0.6454773,0.085907,1.362793,0.1572266,1.9222717,0.085907
			c0.3154907,0,0.5450134,0.5450134-0.0863953,0.6309204c-0.5591125,0.0722961-1.434082,0-1.9076843-0.085907
			c-0.4019165-0.0713196-1.2769165-0.2295227-1.8363953-0.3877258c-0.5596008-0.2431946-0.1577148-0.7167664,0.1576843-0.6445618
			C26.0259094,36.1103821,26.657196,36.2685852,27.2886047,36.3544617L27.2886047,36.3544617L27.2886047,36.3544617z"/>
		<path class="st3" d="M25.414093,36.5038757c0.5672913,0.1592102,1.4769897,0.3222961,1.8203125,0.3828125
			c0.4364929,0.0800781,1.3070679,0.1591797,1.8773804,0.085968c0.206604-0.0283813,0.3203125-0.1113586,0.3125-0.2275696
			c-0.0063171-0.0947266-0.0961914-0.2012024-0.207489-0.2041016c-0.5884094,0.0733032-1.3462219-0.0078125-1.9414062-0.0878906
			h-0.0005188c-0.7714844-0.1044922-1.4385071-0.2987976-1.7675781-0.4052124
			c-0.1079102-0.0244751-0.2597046,0.0643921-0.297821,0.180603C25.164093,36.3671875,25.3153992,36.4599609,25.414093,36.5038757
			L25.414093,36.5038757z M28.5829773,37.2011719c-0.5062866,0-1.0614929-0.0585938-1.3843079-0.117218
			c-0.3465576-0.0624695-1.2694702-0.2265625-1.8457031-0.3896484c-0.0043945-0.0009155-0.0082703-0.0029297-0.0126648-0.0048218
			c-0.3999023-0.1738892-0.3466187-0.444397-0.3208008-0.522522c0.070282-0.2157898,0.3232727-0.3603821,0.5405884-0.3114624
			c0.3315125,0.1063843,0.9858093,0.2967834,1.7420959,0.3993835l0,0c0.5855103,0.0780945,1.3301086,0.1592102,1.8959961,0.085907
			c0.0043945,0,0.0087891,0,0.0126953,0c0.2095032,0,0.3985291,0.1786804,0.4131165,0.3905945
			c0.0121765,0.1788025-0.1088867,0.3876953-0.4858093,0.4395142C28.9717102,37.1923828,28.781311,37.2011719,28.5829773,37.2011719
			L28.5829773,37.2011719z M32.7118835,36.3544617h0.0010071H32.7118835L32.7118835,36.3544617z M30.7973938,36.5409851
			c-0.1187134,0.0028992-0.2138977,0.1103821-0.2207031,0.2070007c-0.0079041,0.1142883,0.105896,0.1962891,0.3119812,0.2246704
			c0.5703125,0.0732117,1.4404297-0.0058899,1.8759155-0.085968c0.343811-0.0605164,1.2529907-0.2236023,1.8212891-0.3828125
			c0.0987244-0.0448914,0.25-0.1366882,0.2051086-0.2753906c-0.0389709-0.1162109-0.1913757-0.2050781-0.3076172-0.1777039
			c-0.320282,0.1035156-0.9872742,0.297821-1.7587585,0.4023132l0,0
			C32.1288757,36.5331726,31.3720703,36.6142883,30.7973938,36.5409851L30.7973938,36.5409851z M31.4169922,37.2011719
			c-0.1981812,0-0.3887024-0.0087891-0.554718-0.0302734c-0.3764954-0.0518188-0.4971008-0.2588196-0.4852905-0.4364929
			c0.0146179-0.2139282,0.2098999-0.3936157,0.4262085-0.3936157c0.0043945,0,0.0087891,0,0.0131836,0.0010071
			c0.5518188,0.0722961,1.295929-0.0088196,1.8818054-0.0869141c0.7559204-0.1026001,1.4101868-0.2929993,1.7324829-0.397522
			c0.226532-0.0516663,0.4795227,0.093811,0.5498352,0.3096008c0.0253906,0.078125,0.0791016,0.3486328-0.3213196,0.522522
			c-0.0038757,0.0018921-0.0087891,0.0039062-0.0126953,0.0048218c-0.577179,0.1630859-1.4989929,0.327179-1.8456726,0.3896484
			C32.4784851,37.1425781,31.9228821,37.2011719,31.4169922,37.2011719L31.4169922,37.2011719z"/>
		<path class="st1" d="M30.5116882,36.5985718c-0.4736023,0-0.4266968,0.6309204-0.1968079,0.9462891
			c0-0.2294617,0.4014282-0.3153687,0.4014282-0.4725952C30.7163086,36.8280945,30.3534851,36.8280945,30.5116882,36.5985718
			L30.5116882,36.5985718L30.5116882,36.5985718z M32.782196,37.5058594c0-0.3144836-0.3153992-0.2763672-0.3153992-0.5917969
			c0-0.1572876,0.0858765-0.4013977,0.2440796-0.4013977s0.3155212,0.1572266,0.3155212,0.3154297
			C33.0986023,37.1435852,32.782196,37.1913757,32.782196,37.5058594L32.782196,37.5058594L32.782196,37.5058594z
			 M34.6903992,36.039093c0.4882812-0.0859985,0.717804,0.4735718,0.5596008,0.7890015
			c-0.0723267-0.1582031-0.4013977-0.1582031-0.4736328-0.3154297
			C34.6903992,36.2685852,34.8486023,36.2685852,34.6903992,36.039093L34.6903992,36.039093L34.6903992,36.039093z
			 M29.4873047,36.5985718c0.4730835,0,0.4263,0.6309204,0.1967773,0.9462891c0-0.2294617-0.401886-0.3153687-0.401886-0.4725952
			C29.282196,36.8280945,29.644989,36.8280945,29.4873047,36.5985718L29.4873047,36.5985718z M27.2162781,37.5058594
			c0-0.3144836,0.3154297-0.2763672,0.3154297-0.5917969c0-0.1572876-0.085907-0.4013977-0.2436218-0.4013977
			c-0.1576843,0-0.3153992,0.1572266-0.3153992,0.3154297C26.9008789,37.1435852,27.2162781,37.1913757,27.2162781,37.5058594
			L27.2162781,37.5058594z M25.3085938,36.039093c-0.487793-0.0859985-0.7173157,0.4735718-0.5596008,0.7890015
			c0.0718079-0.1582031,0.401886-0.1582031,0.4736938-0.3154297C25.3085938,36.2685852,25.1508789,36.2685852,25.3085938,36.039093
			L25.3085938,36.039093L25.3085938,36.039093z"/>
		<path class="st3" d="M25.1478882,36.1347656c-0.118103,0.0185242-0.1966858,0.0888062-0.2450867,0.1543274
			c-0.074707,0.0996094-0.1108093,0.2342834-0.1010132,0.3534851c0.046814-0.0263977,0.0986023-0.0458984,0.1473999-0.0654907
			c0.0766907-0.0301819,0.1630859-0.0644226,0.1825867-0.1064148c0.0263977-0.0761719,0.0196228-0.1171875,0.011322-0.164093
			C25.1337891,36.2509766,25.1288757,36.1991882,25.1478882,36.1347656L25.1478882,36.1347656z M24.7489929,36.9277039
			c-0.0376282,0-0.0722046-0.0214233-0.0892944-0.054718c-0.1044922-0.2088928-0.0703125-0.4980164,0.082489-0.7041016
			c0.1390991-0.1855164,0.351593-0.2695007,0.5835266-0.2275085c0.0336914,0.0058899,0.0619812,0.0283203,0.0751648,0.0596008
			c0.0132141,0.0312195,0.0093079,0.0674133-0.0097961,0.094696c-0.0648804,0.093811-0.0599976,0.1221008-0.0507812,0.1777039
			c0.0097656,0.0585938,0.0234985,0.139679-0.023407,0.2724915c-0.0562134,0.1240234-0.1826172,0.1738281-0.2944031,0.2178345
			c-0.0762024,0.0292969-0.1631165,0.063385-0.1822205,0.1053772c-0.0160828,0.0352173-0.0506592,0.0586243-0.0892944,0.0586243
			C24.7504883,36.9277039,24.75,36.9277039,24.7489929,36.9277039L24.7489929,36.9277039z M34.851593,36.1347656
			c0.0184937,0.0644226,0.0136108,0.1162109,0.0038757,0.171814c-0.007782,0.0469055-0.014679,0.0879211,0.015625,0.1729126
			c0.0155945,0.0331726,0.1025085,0.0674133,0.1786804,0.0975952c0.0487976,0.0195923,0.1006165,0.039093,0.147522,0.0654907
			c0.0096741-0.1192017-0.0263977-0.2538757-0.1006165-0.3534851C35.0479126,36.2235718,34.9696655,36.1532898,34.851593,36.1347656
			L34.851593,36.1347656z M35.25,36.9277039c-0.0010071,0-0.0010071,0-0.0020142,0
			c-0.0379944,0-0.0732117-0.023407-0.0887756-0.0586243c-0.0196228-0.0419922-0.1065063-0.0760803-0.1826172-0.1053772
			c-0.1113892-0.0440063-0.2383118-0.093811-0.2911072-0.210022c-0.0498047-0.140625-0.0371094-0.2217102-0.0272827-0.280304
			c0.0097656-0.055603,0.0147095-0.0838928-0.0498047-0.1777039c-0.0195312-0.0272827-0.023407-0.0634766-0.0097961-0.094696
			c0.0126953-0.0312805,0.0409851-0.0537109,0.0743103-0.0596008c0.2323608-0.0419922,0.445282,0.0419922,0.5838623,0.2275085
			c0.1534119,0.2060852,0.1875,0.4952087,0.0830078,0.7041016C35.3222961,36.9062805,35.2880859,36.9277039,35.25,36.9277039
			L35.25,36.9277039z M27.2880859,36.6122742c-0.1026001,0-0.2153015,0.1133118-0.2153015,0.2158203
			c0,0.0068665-0.0009766,0.0147095-0.0030212,0.0214844c-0.0272522,0.1221008,0.0196228,0.1825867,0.0904236,0.273407
			c0.0214233,0.0283813,0.0444031,0.0576782,0.065918,0.0908813c0.0267639-0.030304,0.0555725-0.0556946,0.0819702-0.0791016
			c0.074707-0.0644836,0.1240234-0.1083984,0.1240234-0.2207031C27.4320984,36.7851562,27.3607788,36.6122742,27.2880859,36.6122742
			L27.2880859,36.6122742z M27.2162781,37.6063843c-0.0551758,0-0.0996094-0.0448914-0.0996094-0.1005249
			c0-0.1122742-0.0531921-0.1806946-0.1142883-0.2597656c-0.0770874-0.0986023-0.1727905-0.2217102-0.1297913-0.429718
			c0.0073242-0.2090149,0.2059937-0.4042969,0.4154968-0.4042969c0.2246094,0,0.343689,0.2919922,0.343689,0.5019836
			c0,0.203125-0.1063843,0.296814-0.1918945,0.3711243c-0.0742188,0.0653687-0.1234741,0.109314-0.1234741,0.2206726
			C27.3164062,37.5614929,27.2719727,37.6063843,27.2162781,37.6063843L27.2162781,37.6063843z M32.7108765,36.6122742
			c-0.0721741,0-0.1434937,0.1728821-0.1434937,0.3017883c0,0.1123047,0.0488281,0.1562195,0.1229858,0.2207031
			c0.0274353,0.023407,0.0557251,0.0487976,0.0830078,0.0791016c0.0215149-0.0332031,0.0440063-0.0625,0.0655212-0.0908813
			c0.0712891-0.0908203,0.1180725-0.1513062,0.0897827-0.273407c-0.0010071-0.0067749-0.0018921-0.0146179-0.0018921-0.0214844
			C32.9267883,36.7255859,32.8134766,36.6122742,32.7108765,36.6122742L32.7108765,36.6122742z M32.782196,37.6063843
			c-0.0546875,0-0.0996094-0.0448914-0.0996094-0.1005249c0-0.1113586-0.0487976-0.155304-0.1239929-0.2206726
			c-0.085022-0.0743103-0.1914062-0.1679993-0.1914062-0.3711243c0-0.2099915,0.1191101-0.5019836,0.343689-0.5019836
			c0.210022,0,0.4082031,0.195282,0.4151306,0.4042969c0.0438843,0.2080078-0.0518188,0.3311157-0.1289062,0.429718
			c-0.061615,0.079071-0.1142883,0.1474915-0.1142883,0.2597656C32.8828125,37.5614929,32.8378906,37.6063843,32.782196,37.6063843
			L32.782196,37.6063843z M29.6254883,36.7294617c-0.0132141,0.0918274-0.089386,0.1543274-0.1391907,0.1943054
			c-0.0643921,0.0528259-0.1040039,0.0879211-0.1040039,0.1484985c0.0063782,0.023407,0.0834961,0.0761414,0.1293945,0.1074219
			c0.0600891,0.0409851,0.1270142,0.0878906,0.1796875,0.1454773c0.0708008-0.1767578,0.0835266-0.3798828,0.0205078-0.5028687
			C29.6908875,36.7802734,29.6625671,36.7499695,29.6254883,36.7294617L29.6254883,36.7294617z M29.7841797,37.5448608h0.0010071
			H29.7841797L29.7841797,37.5448608z M29.684082,37.6454773c-0.0102844,0-0.0204773-0.0018921-0.0307922-0.0048828
			c-0.0415039-0.0136108-0.0693054-0.0517273-0.0693054-0.0957336c0-0.0721741-0.0942993-0.1376953-0.1856079-0.2001648
			c-0.1063843-0.0732422-0.2157898-0.148407-0.2157898-0.2724304c0-0.1582031,0.1070251-0.2451782,0.1773071-0.3027649
			c0.0795898-0.0644226,0.0795898-0.0644226,0.0454102-0.1141968c-0.0210266-0.031311-0.0234985-0.0703125-0.0064392-0.1035156
			c0.0176086-0.0332031,0.0513-0.0538025,0.0884399-0.0538025c0.1835938,0,0.3266907,0.0830994,0.4028015,0.2324829
			c0.1313782,0.2588196,0.0395813,0.6473999-0.1250305,0.8740234C29.745575,37.6308899,29.715271,37.6454773,29.684082,37.6454773
			L29.684082,37.6454773z M30.3729858,36.7294617c-0.0366211,0.0205078-0.0653992,0.0508118-0.0858765,0.0928345
			c-0.0630188,0.1229858-0.0508118,0.3261108,0.0204773,0.5028687c0.0522766-0.0575867,0.1195984-0.1044922,0.1791992-0.1454773
			c0.0464172-0.0312805,0.1231079-0.0840149,0.1293945-0.1094055c0-0.0585938-0.0394897-0.093689-0.1040039-0.1465149
			C30.4628906,36.8837891,30.3861694,36.8212891,30.3729858,36.7294617L30.3729858,36.7294617z M30.3148804,37.6454773
			c-0.0317078,0-0.0620117-0.0145874-0.0809937-0.0409851c-0.1646118-0.2266235-0.2568054-0.6152039-0.1254883-0.8731079
			c0.0766907-0.1502991,0.219696-0.2333984,0.4032898-0.2333984c0.0370789,0,0.0708008,0.0205994,0.0883789,0.0538025
			c0.0171204,0.0332031,0.0146179,0.0722046-0.0062866,0.1035156c-0.0341797,0.0497742-0.0341797,0.0497742,0.0449219,0.1141968
			c0.0708008,0.0575867,0.1776733,0.1445618,0.1776733,0.3027649c0,0.1240234-0.1098938,0.1991882-0.2157898,0.2724304
			c-0.0913086,0.0624695-0.1859741,0.1279907-0.1859741,0.2001648c0,0.0440063-0.0279236,0.0821228-0.0689087,0.0957336
			C30.3353882,37.6435852,30.3251953,37.6454773,30.3148804,37.6454773L30.3148804,37.6454773z"/>
		<path class="st1" d="M31.7489929,36.7558594c0.0868835-0.085968,0.4023743-0.085968,0.5596008,0H31.7489929L31.7489929,36.7558594
			L31.7489929,36.7558594z M30.8745117,36.7558594c0.1576538,0,0.4732056,0,0.559082,0.0722351l-0.5596313-0.0722351H30.8745117
			L30.8745117,36.7558594z M33.7440796,36.4413757c-0.085907,0-0.4012756,0.0712891-0.5594788,0.157196l0.5604858-0.1582031
			L33.7440796,36.4413757L33.7440796,36.4413757z M34.5331726,36.1972656c-0.157196,0-0.3866882,0.0722351-0.4735718,0.1582031
			L34.5331726,36.1972656L34.5331726,36.1972656z M28.2495117,36.7558594c-0.085907-0.085968-0.401825-0.085968-0.5596008,0
			h0.5590515H28.2495117L28.2495117,36.7558594z M29.1244812,36.7558594c-0.1577148,0-0.4735718,0-0.5591125,0.0722351
			l0.5586243-0.0722351H29.1244812L29.1244812,36.7558594z M26.2543945,36.4413757
			c0.0863953,0,0.401886,0.0712891,0.5596008,0.157196l-0.5601196-0.1582031L26.2543945,36.4413757L26.2543945,36.4413757z
			 M25.4663086,36.1972656c0.1582031,0,0.401886,0.0722351,0.4735718,0.1582031l-0.4740906-0.1582031H25.4663086
			L25.4663086,36.1972656z"/>
		<path class="st3" d="M26.0155945,36.4062805l-0.5625-0.1875L25.257782,36.101593l0.2134094,0.0703125
			c0.1636047,0.0018616,0.4100952,0.0741577,0.487793,0.1669922L26.0155945,36.4062805L26.0155945,36.4062805z
			 M33.9667969,36.4120789l0.0751953-0.0751953c0.094696-0.0937195,0.3379211-0.164978,0.4911804-0.164978H34.6875
			L33.9667969,36.4120789L33.9667969,36.4120789z M27.0214844,36.6835938l-0.7782898-0.2168274l-0.0655212-0.0731812
			l0.081604,0.0223999c0.0976257,0.0028992,0.4111328,0.0761719,0.566925,0.1611023L27.0214844,36.6835938L27.0214844,36.6835938z
			 M32.977478,36.6835938l0.1954346-0.1065063c0.1551819-0.0849304,0.4696655-0.1582031,0.5663757-0.1611023l0.0907898-0.0254211
			l-0.0751953,0.0752258h-0.007782L32.977478,36.6835938L32.977478,36.6835938z M27.8441772,36.7313843h0.2954102
			C28.058075,36.7128906,27.9442749,36.7128906,27.8441772,36.7313843L27.8441772,36.7313843z M28.3096008,36.7812805h-0.7173157
			l0.085907-0.046875c0.1694946-0.0928345,0.4946899-0.0908203,0.5888977,0.0038757L28.3096008,36.7812805L28.3096008,36.7812805z
			 M31.8594055,36.7313843h0.2958984C32.0546875,36.7118835,31.9403687,36.7118835,31.8594055,36.7313843L31.8594055,36.7313843z
			 M32.4062805,36.7812805h-0.6572876v-0.0254211l-0.0176086-0.0175781c0.0947876-0.094696,0.4199829-0.0967102,0.5899048-0.0038757
			L32.4062805,36.7812805L32.4062805,36.7812805z M31.515564,36.8632812l-0.6390686-0.0820007c-0.0010071,0-0.0014954,0-0.0019836,0
			h-0.0102234l-0.0596008-0.0596008l0.074707,0.0097046c0.1694031,0,0.4790039,0.0010071,0.5708008,0.077179L31.515564,36.8632812
			L31.515564,36.8632812z M28.4833679,36.8632812l0.065918-0.054718c0.0917969-0.0761719,0.3994141-0.077179,0.569397-0.077179
			l0.0185242-0.0028992l0.0312805,0.0527954h-0.0440063c-0.0010071,0-0.0014954,0-0.0024109,0L28.4833679,36.8632812
			L28.4833679,36.8632812z"/>
		<path class="st3" d="M30.8622742,38.0985718c-0.0419617-0.0145874-0.0570984-0.0350952-0.0604858-0.0820007
			c-0.003479-0.0477905,0.0009155-0.0556946,0.0522156-0.0839844l0.0365906-0.0195312l0.0346985,0.015625
			c0.0477905,0.0215149,0.0693054,0.0440063,0.0712891,0.0762024c0.0014038,0.0350952-0.0244141,0.070282-0.0644836,0.0888977
			C30.8970032,38.109375,30.894989,38.109375,30.8622742,38.0985718L30.8622742,38.0985718L30.8622742,38.0985718z
			 M30.8266907,37.8505859c-0.0201111-0.0078125-0.0517883-0.0517883-0.0517883-0.0722961
			c0.0004883-0.0390015,0.0575867-0.1025085,0.092804-0.1025085c0.0175781,0,0.0658875,0.0243835,0.0834961,0.0439148
			c0.0326843,0.0331726,0.0253906,0.0888977-0.0151978,0.1200867
			C30.9159851,37.8554688,30.8559875,37.8612671,30.8266907,37.8505859L30.8266907,37.8505859L30.8266907,37.8505859z
			 M25.3334961,37.4579773c-0.0531921-0.0097961-0.0815125-0.0516968-0.0679016-0.102478
			c0.0161133-0.0606079,0.0650024-0.0957336,0.1114197-0.0791016c0.0292969,0.0106812,0.082489,0.0643921,0.0829773,0.0839844
			c0.0003967,0.0223999-0.0284119,0.0751038-0.0405884,0.0751038c-0.0048218,0-0.013092,0.0049133-0.0180359,0.0108032
			C25.3916016,37.4579773,25.3603821,37.4638977,25.3334961,37.4579773L25.3334961,37.4579773L25.3334961,37.4579773z"/>
		<path class="st3" d="M30.4468079,38.3778992c0.015564,0,0.0204773,0.0048828,0.0278015,0.0341797
			c0.0048828,0.0195007,0.0102844,0.0420227,0.0126648,0.0508118c0.003418,0.0116882-0.0023804,0.0155945-0.0189819,0.0214844
			c-0.049408,0.0184937-0.0982056,0.0166016-0.1152954-0.0058899c-0.0078125-0.0107117,0.0009766-0.0439148,0.015686-0.0565796
			C30.3974915,38.3954773,30.4296875,38.3778992,30.4468079,38.3778992L30.4468079,38.3778992L30.4468079,38.3778992z
			 M29.3183899,38.3534851c0.0346069,0,0.0668945,0.0048828,0.1000977,0.0087891
			c0.0429077,0.0068054,0.0887756-0.0145874,0.1312866,0c0.0977173,0.0166016,0.1953125,0.0127258,0.2935181,0.0224915
			c0.0263062-0.0009766,0.0448914,0.0175171,0.0625,0.0341187c0.0005188,0.0683899,0.0005188,0.1376953,0,0.2060852
			c-0.0030212,0.0254211,0.0078125,0.0596008-0.015686,0.078125c-0.0072937,0.0048828-0.015625,0.0107727-0.0249023,0.0126953
			c-0.026825-0.0068054-0.055603-0.0254211-0.0688171-0.0498047c-0.0039062-0.0361023,0.0018921-0.0712891,0.0033875-0.1063843
			c-0.0010071-0.0098267,0.0039368-0.0244141,0-0.031311c-0.0214844-0.0155945-0.0453796-0.0254211-0.0717773-0.0254211
			c-0.0848999-0.0028992-0.168396-0.0087891-0.253418-0.0126648c-0.0707703-0.0039062-0.1430969,0.0068665-0.2124023-0.0117188
			c-0.0267639-0.0097046-0.0614929-0.0068054-0.078064-0.0351257c-0.0235291-0.0273743,0.0101929-0.0595703,0.0341797-0.0712585
			C29.2504883,38.3573914,29.2841797,38.3525085,29.3183899,38.3534851L29.3183899,38.3534851L29.3183899,38.3534851z
			 M29.1186829,37.984375c-0.0664978,0.0010071-0.1381836,0.0566101-0.1469727,0.1220093
			c0.0150757,0.0751953,0.0775757,0.1484985,0.0375671,0.2276001c0.0273132,0.1015015-0.0762024,0.1395874-0.1470032,0.0820007
			c-0.0429688-0.0975952-0.0643921-0.2041016-0.1283875-0.2910156c-0.0800781-0.0224915-0.1151733,0.1054993-0.1719055,0.1504211
			c0.0282898,0.0751953,0.1099243,0.1425781,0.1192017,0.2373047c0.0195312,0.0907898-0.0361938,0.1923828-0.1158142,0.2402039
			c-0.0687866,0.0654602-0.1625977,0.0419922-0.2469788,0.0566711c-0.1021118,0.0595093,0.0751953,0.0810242,0.1220093,0.0840149
			c0.1044922,0.0106812,0.2134094-0.0029907,0.2905884-0.0811157c0.0770874-0.0370789,0.0708008-0.1698914,0.1625977-0.1845703
			c0.1585999-0.0068054,0.3164062,0.0243835,0.4751282,0.0283813c0.0848999,0.0205078,0.2162781-0.0097961,0.2748718,0.0527039
			c0,0.1112976,0.0942078,0.1796875,0.1839905,0.2225952c0.050293,0.0137024,0.1026306-0.0487976,0.1534119-0.0595093
			c0.0966187-0.0312805,0.0673218-0.1503906,0.125-0.1972961c0.1650085-0.0087891,0.3314819-0.0067749,0.4969788-0.0087891
			c0.0313416,0,0.0406189-0.0448914,0.0625305-0.0625c-0.0039062-0.0643921-0.0062866-0.1279297-0.015625-0.1914062
			c-0.032196-0.0800781,0.0049133-0.1846008-0.0531921-0.2528992c-0.0830078-0.0224915-0.1537781,0.0537109-0.237793,0.0596008
			c-0.0922852,0.0409851-0.1704102,0.1268921-0.1748047,0.2313843c-0.0546875,0.0898438-0.1426086-0.016571-0.1122742-0.0907898
			c-0.003418-0.0322876,0.0067749-0.070282-0.003418-0.0996094c-0.0507812-0.0615845-0.1392212-0.0409851-0.2095032-0.0508118
			c-0.101593,0.0039368-0.2012024-0.0175781-0.3026733-0.015564c-0.0894165-0.0069275-0.182251,0.007782-0.2691345-0.0157166
			c-0.1029663-0.0028992-0.0888977-0.1034851-0.1058655-0.1747742C29.1625977,37.9892578,29.1405945,37.984375,29.1186829,37.984375
			L29.1186829,37.984375L29.1186829,37.984375z M31.1005859,38.8739929
			c-0.0244141-0.0244141-0.0292969-0.0351257-0.030304-0.0595093c0-0.0254211,0.0049133-0.0351868,0.0283203-0.0585938
			c0.0440063-0.0440063,0.0654907-0.045929,0.141571-0.0069275c0.0723267,0.0362244,0.0967102,0.0391235,0.1026001,0.0137024
			c0.0068054-0.0253906,0.047821-0.0478821,0.0878906-0.0478821c0.0244141,0,0.039032,0.0048828,0.0586243,0.0205994
			c0.0252991,0.0195007,0.0262756,0.0223999,0.0272827,0.0673218c0,0.046875,0,0.0478516-0.0292969,0.0742798
			c-0.0272827,0.0243835-0.032196,0.0252991-0.0663757,0.0223999c-0.0438843-0.0048828-0.0693054-0.0244141-0.0771179-0.0596008
			c-0.0048828-0.0243835-0.0136719-0.0302124-0.0205994-0.0135803c-0.0018921,0.0057983-0.0126953,0.0116882-0.023407,0.0145874
			c-0.0204773,0.0058899-0.0546875,0.0273743-0.0801086,0.0498047c-0.0087891,0.0087891-0.0253906,0.0136719-0.0516663,0.0136719
			C31.132782,38.9042664,31.1278992,38.9022827,31.1005859,38.8739929L31.1005859,38.8739929L31.1005859,38.8739929z
			 M31.7851868,38.8291016c-0.0088196-0.0059204-0.0234985-0.0117188-0.0088196-0.0215149
			c0.0166321-0.030304,0.0517273-0.0410156,0.0820007-0.0527039c0.054718-0.0234985,0.1025085-0.0635071,0.1377258-0.1112976
			c0.0049133-0.0332031,0.0419922-0.0517883,0.0419922-0.0859985c0-0.0477905,0.0028992-0.0966797-0.0087891-0.1426086
			c-0.0127258-0.0428772-0.0449219-0.0751953-0.0820007-0.0975952c-0.0263977-0.0205078-0.0674133-0.0263977-0.0772095-0.0615234
			c-0.0048828-0.0341797,0.0254211-0.0605774,0.0361938-0.0908508c0.0223999-0.0420227,0.0410156-0.0869446,0.0654297-0.1279297
			c0.0253906-0.0282898,0.0653687-0.0009766,0.0791016,0.0263977c0.0184631,0.0282898,0.0350952,0.0575867,0.0448608,0.0898132
			c0.030304,0.0331726,0.0566101,0.0722961,0.0674133,0.1162109c0.0155945,0.0312805,0.0390015,0.0605774,0.0371094,0.0966797
			c0,0.0419922,0.023407,0.0791016,0.0224915,0.1201172c0.0009155,0.0566711,0.0009155,0.1152649-0.0195923,0.1679688
			c-0.0136108,0.0292969-0.0419922,0.0469055-0.0605164,0.0732422c-0.032196,0.0292969-0.0674133,0.0576782-0.1083984,0.0732727
			c-0.0282898,0.0097046-0.0448914,0.0429993-0.0810852,0.0351257c-0.0516968,0-0.1044922,0.0078735-0.1552124-0.0009155
			C31.8007812,38.8407898,31.7821655,38.8262024,31.7851868,38.8291016L31.7851868,38.8291016L31.7851868,38.8291016z
			 M33.5028992,38.3476868c0.0175781,0,0.0322876,0.0057983,0.0429688,0.0155945
			c0.0186157,0.0155945,0.0186157,0.0400085-0.0028992,0.055603c-0.0136719,0.0108032-0.0868835,0.0097961-0.1122742,0
			c-0.0108337-0.0039062-0.0157166-0.0097046-0.0157166-0.0213928c0-0.0137024,0.0039062-0.0224915,0.0284119-0.0342102
			C33.4638672,38.3534851,33.484375,38.3476868,33.5028992,38.3476868L33.5028992,38.3476868L33.5028992,38.3476868z
			 M32.5770874,38.2284851c0.0205994,0.0048828,0.0391235,0.0195007,0.0440063,0.0440063
			c0.0068054,0.031189,0.0010071,0.0458984-0.0244141,0.0595093c-0.0224915,0.0108032-0.0733032,0.014679-0.0878906,0.0058594
			c-0.0049133-0.0028992-0.0137024-0.0097656-0.0185852-0.0185547c-0.0068054-0.0117188-0.0057983-0.0175171,0.0029907-0.0254211
			c0.0057983-0.0047913,0.0126953-0.0116882,0.0126953-0.0155945c0-0.0028992,0.0068054-0.015625,0.0155945-0.0273132
			C32.5361023,38.2313843,32.5575867,38.2236023,32.5770874,38.2284851L32.5770874,38.2284851L32.5770874,38.2284851z
			 M33.1278992,38.0849915c0.0107727-0.0020142,0.0204773,0.0038757,0.0341797,0.015564
			c0.0176086,0.015625,0.023407,0.0283203,0.0283203,0.0596313c0.0029907,0.0213928,0.0019836,0.0498047,0,0.0625
			c-0.0049133,0.0223999-0.0057983,0.0213928-0.0566101,0.0213928c-0.0634766,0.0010071-0.0703125-0.0057983-0.0684204-0.0653992
			c0-0.0380859,0.0010071-0.0477905,0.0215149-0.0682983C33.1034851,38.0937805,33.1171875,38.0868835,33.1278992,38.0849915
			L33.1278992,38.0849915L33.1278992,38.0849915z M34.0214844,38.0751648
			c0.0371094-0.0019836,0.0596313,0.0098267,0.0751953,0.0381165c0.0176086,0.032196,0.0057983,0.0575867-0.0410156,0.0780945
			c-0.0204773,0.0087891-0.0410767,0.0155945-0.0439758,0.0155945c-0.0028992-0.000885-0.0195007-0.0106812-0.0371094-0.0223694
			c-0.0273132-0.0176086-0.031189-0.0264282-0.031189-0.0469055C33.9433899,38.1063843,33.9784851,38.078064,34.0214844,38.0751648
			L34.0214844,38.0751648L34.0214844,38.0751648z M33.3681946,38.0409851c0.0126953,0,0.0263062,0.0059204,0.0498047,0.0185852
			c0.0438843,0.0244141,0.0751648,0.0644226,0.0751648,0.0975952c0,0.0205078-0.0048828,0.0224915-0.0370789,0.0371399
			c-0.0205994,0.0087891-0.0419922,0.0185852-0.0508118,0.0185852c-0.0176086,0-0.0614929-0.0352173-0.0624695-0.0498047
			c0-0.0059204-0.0049133-0.0282898-0.0116882-0.0469055c-0.0118103-0.032196-0.0108337-0.031189,0.0057678-0.0527039
			C33.3476868,38.0487671,33.3554688,38.0419617,33.3681946,38.0409851L33.3681946,38.0409851L33.3681946,38.0409851z
			 M34.0497742,37.094696c-0.0565796,0.0019836-0.1142883,0.0116882-0.1659851,0.0243835
			c-0.1035156-0.0057983-0.156311,0.1026001-0.0567017,0.156311c0.0606079,0.1532898,0.1542969-0.031311,0.25-0.0185852
			c0.1446228,0.0283813,0.156311,0.1835938,0.1788025,0.2997742c0.007782,0.1163025,0.0410156,0.2286072,0.0751953,0.3379211
			c0.0957031,0.1064758-0.0722961,0.1738586-0.1445923,0.0908813c-0.0605164-0.0664978-0.1914062-0.1484985-0.265625-0.0567017
			c-0.0897827,0.0380859-0.0937805,0.1592102-0.1679688,0.1933899c-0.1210938,0.0371094-0.1367188-0.1113892-0.2001953-0.1747742
			c-0.0586243-0.0820923-0.170929-0.0899048-0.2626953-0.1182251c-0.0429382-0.0868835-0.0205078-0.2352905-0.109314-0.2939148
			c-0.0743103,0.0302124-0.2109985,0.1699219-0.0967102,0.2343445c0.1112976,0.0957031-0.0487976,0.139679-0.1006165,0.2060852
			c-0.0722656,0.0809937-0.0839844,0.1932983-0.0966797,0.2969055c-0.1260071,0.0692749-0.1503906-0.0791016-0.164978-0.171936
			c-0.0098267-0.1112976-0.1035156-0.078064-0.1690369-0.0370789c-0.0956726,0.0381165-0.1424866,0.1289062-0.2098694,0.1991882
			c-0.0078125,0.0654297,0.0039062,0.1357117,0.0039062,0.203125c0.0214539,0.0810852,0.1200867,0.0429993,0.1805725,0.0380859
			c0.0986938-0.0409851,0.1387024,0.0625,0.0596008,0.1221008c-0.0526733,0.0674133-0.2217102,0.032196-0.2059937,0.1405945
			c0.0545959,0.0059204,0.1112976,0.0039062,0.1650085,0c0.109375-0.0302734,0.226593-0.1073914,0.2382812-0.2284851
			c0.0137329-0.1054993,0.1660156-0.0868835,0.25-0.1094055c0.1035156-0.030304,0.2295227-0.0380859,0.2529297,0.0937805
			c0.0712585,0.0742188,0.2245789,0.1582031,0.3026733,0.0566101c0.0801086-0.0487671,0.1181946-0.1337891,0.1123047-0.2255859
			c-0.015625-0.0780945,0.1270142-0.0809937,0.1630859-0.0371094c0.0518188,0.085907,0.2149048,0.0606079,0.2940063,0.0126953
			c0.0830078-0.0624695,0.1015015-0.1708984,0.2217102-0.1719055c0.1777039-0.0536804,0.3631897-0.0848999,0.5371094-0.1503601
			c0.1416016-0.0312195-0.0205078-0.1201172-0.0557251-0.171814c-0.1073608-0.0528259-0.2011719,0.1639709-0.3222961,0.0566101
			c-0.093689-0.0722961-0.0868835-0.2080078-0.1219788-0.3125305c-0.0234985-0.1356812-0.0176086-0.2929688-0.1152954-0.4003906
			C34.2353821,37.1073914,34.1435852,37.0897827,34.0497742,37.094696L34.0497742,37.094696L34.0497742,37.094696z
			 M27.4462891,37.8817749c0.0151062,0.0019836,0.0233765,0.0205078,0.0249023,0.0537109
			c0.0018921,0.0361938,0.0209961,0.0654907,0.0438843,0.0713196c0.0181274,0.0048828,0.0166321,0.0244751-0.0028992,0.0370789
			c-0.0116882,0.0088196-0.032196,0.0137024-0.0687866,0.0126953c-0.058075,0-0.093811-0.0146179-0.125-0.046814
			l-0.019104-0.0185852l0.0282898-0.0184937c0.0196228-0.015686,0.0386353-0.0323181,0.0562134-0.0498047
			C27.4125671,37.8935852,27.4311829,37.8798828,27.4462891,37.8817749L27.4462891,37.8817749L27.4462891,37.8817749z
			 M28.1244812,37.4667969c-0.0381165,0.0126648-0.0863953,0.0683594-0.125,0.0683594
			c-0.0878906,0.0058289-0.0757141,0.0918274-0.0126953,0.1220398c0.0083008,0.0253906,0.0005188,0.0585938,0.003418,0.0868835
			c0.0121765,0.0791016-0.0376282,0.1426086-0.0283203,0.2226868c-0.0043945,0.0869141-0.0307007,0.170929-0.0342102,0.2588196
			c-0.0248718,0.0907898-0.0248718,0.1835938-0.0404968,0.2753906c-0.0106812,0.0820007-0.070282,0.0527039-0.1221008,0.031189
			c-0.0004883-0.0361023-0.0028992-0.0712585-0.0028992-0.1063843c0.0215149-0.0820007-0.0443726-0.1054993-0.1094055-0.1152954
			c-0.0687866,0.0058899-0.102478-0.0527039-0.0878906-0.1132202c0.0298157-0.0351868,0.1040039-0.0253906,0.1504211-0.0312805
			c0.098175,0.0204773,0.0937805-0.1112976,0.0434875-0.1562195c-0.0342102-0.0634766-0.1195984-0.0908813-0.1435852-0.1562805
			c0.0092773-0.085907-0.0483093-0.1727905-0.1185913-0.2148132c-0.1089478-0.007782-0.1914062,0.085907-0.2315063,0.1777039
			c-0.0454102,0.0126953-0.090332,0.0263977-0.1342163,0.0440063c-0.0708008,0.0175171-0.1719055,0.1405945-0.0751953,0.1875
			c0.0546875,0.0145874,0.2201843,0.0526733,0.1468811,0.1278992c-0.0409851,0.0703125-0.1200867,0.0722046-0.1903992,0.0527039
			c-0.0726929,0-0.1532898-0.0350952-0.1503906-0.118103c-0.0146179-0.0751953-0.012207-0.156311-0.0469055-0.2256165
			c-0.0145874-0.0839844-0.1098022-0.0644836-0.1151733,0.0127258c-0.0737305,0.0536804-0.0640259,0.1395874-0.0127258,0.203064
			c0.0318298,0.0732422,0.0004883,0.1582031-0.031189,0.2256165c-0.019104,0.0869141-0.1157837,0.0898132-0.1846008,0.118103
			c-0.0336914,0.0137024-0.1625977-0.007782-0.1152039,0.0655212c0.0751953,0.0272827,0.1650085,0.0506897,0.2435913,0.031189
			c0.0820007-0.0097046,0.1538086-0.0664062,0.1939087-0.1366882c0.0550842-0.0566101,0.1499023-0.0273132,0.2215881-0.0283203
			c0.0772095,0,0.156311,0.0537109,0.2315063,0.0184937c0.0215149-0.0566101,0.1221008-0.1493835,0.1528015-0.0536804
			c-0.0054016,0.0869141,0.0708008,0.132782,0.1499023,0.1221008c0.0864258-0.0049133,0.0546875,0.0614929,0.0531921,0.1132812
			c0.0059204,0.0927124,0.0660095,0.1416321,0.144104,0.1806335c0.0263062,0.0068665,0.0541992,0.0048828,0.0810242,0
			c0.0746765-0.0234375,0.155304-0.0566101,0.1782837-0.140625c0.0302124-0.0682983,0.0307007-0.1445007,0.0532227-0.2157898
			c0.0175781-0.1123352,0.0404663-0.2256165,0.0433655-0.3399048c0.0278931-0.1044006,0.0196228-0.2138062,0.0406189-0.3193054
			c0.0131836-0.0780945,0.0233765-0.1562195,0.031189-0.2344055C28.1654663,37.4647827,28.1474915,37.4579773,28.1244812,37.4667969
			L28.1244812,37.4667969L28.1244812,37.4667969z M31.1210938,38.3944702l0.031189,0.0030212l0.0029907,0.0370789
			l0.0028992,0.0380859l-0.039978,0.0127258c-0.0215149,0.0057983-0.0411072,0.0086975-0.0411072,0.0086975
			c-0.0057983-0.0038757-0.0126038-0.007782-0.0184937-0.0126953c-0.0224915-0.0155945-0.0166016-0.0380249,0.0126953-0.0682983
			C31.0869141,38.3964539,31.094696,38.3925781,31.1210938,38.3944702L31.1210938,38.3944702L31.1210938,38.3944702z
			 M31.1835938,37.5693054c-0.0479126,0.0361633-0.0917969,0.079071-0.1347961,0.1220703
			c-0.0591125,0.0449219,0.0488892,0.0703125,0.0624695,0.1094055c0.0157166,0.0586243,0.0147095,0.1210938,0.0186157,0.180603
			c0.0185242,0.0556946,0.0263977,0.1142883,0.0223999,0.1719055c-0.0047913,0.0625-0.0868835,0.0498047-0.1219788,0.0849915
			c-0.0493164,0.0204773-0.0689087,0.0682983-0.1060181,0.1025085c-0.0248718,0.0487976-0.0312195,0.1083984-0.0346985,0.1630859
			c0.003479,0.0449219-0.0302124,0.0947266,0,0.1337891c0.0040283,0.0059204,0.0087891,0.0137024,0.0126953,0.0195312
			c0.0097961,0.0137024,0.0342102,0.0029602,0.0498047,0.0058594c0.0507812-0.0028992,0.1026001,0.0049438,0.1503906-0.015564
			c0.1211243-0.0205078,0.2431946-0.022522,0.3653259-0.0284119c0.0751953,0.0029907,0.1473694-0.023407,0.2216797-0.0213928
			c0.0585022,0.0126953,0.0848999-0.0508118,0.0848999-0.0967102c-0.0332031-0.0654907-0.0048828-0.1435852-0.031189-0.2099915
			c-0.0234985-0.0673828-0.014679-0.1426086-0.0254211-0.2118835c-0.0009766-0.0557251-0.0712891-0.0752258-0.1064758-0.0352173
			c-0.0342102,0.0352173-0.0888062,0.0420227-0.1152039,0.0849915c-0.0292969,0.0596008,0.0625,0.0606079,0.0780945,0.1065063
			c0.0175781,0.0458984,0.0116882,0.0975952,0.0155945,0.1464233c0.0118103,0.0595703-0.0527039,0.0624695-0.093689,0.0683594
			c-0.0537109,0.0205078-0.1289062,0.0342102-0.1592102-0.0312805c-0.0195007-0.0477905-0.0166016-0.0986023-0.0223999-0.1493835
			c-0.0010071-0.0898438-0.0224915-0.1767273-0.0283813-0.265625c-0.0048218-0.1102905-0.023407-0.218689-0.0312195-0.3280945
			C31.2539062,37.6298828,31.2479858,37.5556641,31.1835938,37.5693054L31.1835938,37.5693054L31.1835938,37.5693054z
			 M28.2133789,38.5487976c-0.007782-0.0097046-0.0259094-0.015625-0.0278931-0.0283203
			c0.003479-0.0556946,0.0058899-0.1112976,0.0239868-0.1650085c0.0093384-0.0517883,0.0009155-0.1064758,0.0190125-0.1572876
			c0.019104-0.0926819,0.019104-0.1884155,0.0404968-0.2801819c0.0010071-0.0479126,0.0054321-0.0957336,0.019104-0.1407166
			c0.015625-0.0722046,0.0014954-0.148407,0.0223999-0.219696c-0.0018921-0.0263062,0.0289001-0.0975952,0.0556946-0.055603
			c0.0396118,0.0575867,0.0913086,0.1044006,0.1420898,0.1513062c0.0439148,0.0253906,0.0039062,0.0625-0.0263977,0.0751953
			c-0.0414734,0.0166016-0.0516663,0.0625-0.0487976,0.1026001c-0.0058899,0.0409851-0.0224915,0.0799866-0.0238647,0.1229858
			c-0.0088196,0.0615234-0.0073242,0.1250305-0.0152283,0.1875c-0.0184937,0.0605164-0.0111694,0.1260071-0.0175171,0.1885071
			c0.0009155,0.0400085-0.0180664,0.0762024-0.0156555,0.1161804c-0.0048218,0.0410156-0.0063171,0.0898438-0.0405273,0.117218
			C28.2875977,38.5800781,28.2396851,38.5770874,28.2133789,38.5487976L28.2133789,38.5487976L28.2133789,38.5487976z
			 M26.0214844,38.4512024c-0.0365906-0.0098267-0.0552063-0.0371399-0.0556946-0.0801086
			c-0.0005188-0.0342102,0.0020142-0.039093,0.0253906-0.0576172c0.0151062-0.0116882,0.0391235-0.0214844,0.0575867-0.0243835
			c0.026947-0.0039368,0.0366211-0.0010376,0.0581055,0.0136108c0.0552368,0.0390625,0.066925,0.077179,0.034729,0.1142578
			C26.1079102,38.4570007,26.0757141,38.4657898,26.0214844,38.4512024L26.0214844,38.4512024L26.0214844,38.4512024z
			 M34.5272827,38.3358765C34.5048828,38.3173828,34.5,38.3085632,34.5,38.2851562
			c0-0.0410767,0.023407-0.0712585,0.0741882-0.0947571c0.0683899-0.0312195,0.0966797-0.0263062,0.1221008,0.0185547
			c0.0342102,0.0605469,0.032196,0.0849304-0.0087891,0.1250305c-0.022522,0.0223999-0.0263977,0.023407-0.078125,0.0243835
			C34.5585938,38.3583679,34.5527039,38.3573914,34.5272827,38.3358765L34.5272827,38.3358765z M25.6166687,38.3280945
			c-0.0463562-0.0107117-0.0746765-0.0576172-0.0639648-0.1035156c0.0004883-0.0018921,0.0009766-0.0028992,0.0014954-0.0048828
			c0.0126953-0.0439148,0.0205078-0.047821,0.0839844-0.0488281c0.0718079,0,0.0853882,0.0117188,0.085907,0.0742188
			c0.0004883,0.0361938-0.0019226,0.0440063-0.019989,0.0605774C25.6835938,38.3241882,25.6439819,38.3349609,25.6166687,38.3280945
			L25.6166687,38.3280945L25.6166687,38.3280945z M25.3114929,38.2362671
			c-0.0498047-0.0467834-0.0415039-0.0809631,0.0317993-0.1357117c0.031189-0.023468,0.050293-0.0204773,0.0863953,0.0127258
			c0.0552063,0.0498047,0.0570984,0.0820007,0.0083008,0.125c-0.0238953,0.0214844-0.0342102,0.0263062-0.0625,0.0263062
			C25.3461914,38.2645874,25.3378906,38.2606812,25.3114929,38.2362671L25.3114929,38.2362671z M25.4150085,37.734375
			c0.0082703-0.0020142,0.0141602,0,0.0220032,0.0028992c0.0249023,0.0107117,0.0258789,0.031311,0,0.0537109
			c-0.0112305,0.0087891-0.0239258,0.0186157-0.0283203,0.0186157c-0.0463867-0.0039368-0.0606079-0.0117188-0.0625-0.0283203
			c-0.0014954-0.015686,0.0033875-0.0195923,0.0346985-0.0342102C25.3964844,37.7392883,25.4066772,37.7353821,25.4150085,37.734375
			L25.4150085,37.734375z M25.7743835,37.0097961c-0.0346985-0.0020142-0.0820007,0.0302124-0.1094055,0.0467834
			c-0.0648804,0.0147095-0.1405945,0.0546875-0.203064,0.0118103c-0.0615234-0.0186157-0.1435242-0.0039062-0.152832,0.0721741
			c0.0155945,0.0655212,0.1069031,0.1026001,0.1621094,0.0596313c0.0409851-0.0537109,0.1533203-0.085907,0.1659851,0.0058899
			c-0.0458984,0.0693054-0.0404663,0.1611023-0.0780945,0.234314c-0.0063782,0.0458679-0.0253906,0.0898743-0.050293,0.1279907
			c-0.0458984,0.0047913-0.0951843,0-0.1343079,0.0282898c-0.0625,0.0039062-0.1264954,0.0342102-0.1625977,0.0878906
			c-0.039978,0.0576172-0.0786133,0.1162109-0.0903015,0.1875c0.0101929,0.0722351,0.093689,0.0927124,0.1562195,0.0967102
			c0.0663757,0.0184937,0.1333008,0.0419006,0.1996765,0.0625c0.1083984,0.0244141,0.2105103,0.0634155,0.3189087,0.0877991
			c0.1582031,0.0469055,0.324707,0.069397,0.4844055,0.1123047c0.0166016,0.0048828,0.032196,0.0097961,0.0498047,0.0126953
			c0.0664062,0.0137024,0.1010132-0.0585938,0.1063843-0.1131897c0.0327148-0.1152954,0.0581055-0.2333984,0.0907898-0.3496094
			c0.022522-0.0469055,0.0493164-0.1513977-0.0409851-0.1279907c-0.0513,0.030304-0.0952148,0.0772095-0.1591797,0.0810852
			c-0.0874329,0.0049133-0.0376282,0.094696-0.0028992,0.1308289c0.0072937,0.0585938-0.0112305,0.1288757-0.0503235,0.1757812
			c-0.0516968,0.032196-0.117218-0.0057983-0.1719055-0.0195312c-0.0575867,0.0010376-0.1723022-0.0282898-0.1185913-0.1054688
			c0.0190125-0.0585938,0.0205078-0.1210938,0.0439148-0.1787109c0.0292969-0.0614929,0.0332031-0.1278992,0.046875-0.1933899
			c-0.0361023-0.0780945-0.0980835,0.0254211-0.1469727,0.0342102c-0.0337219,0.0234985-0.160614,0.0332031-0.0937195,0.093811
			c0.0576172,0.0438843,0.0132141,0.1190796,0.0029297,0.1747742c-0.0034485,0.0771179-0.0835266,0.0957031-0.1470337,0.0780945
			c-0.0624695-0.0028992-0.1499023-0.0498047-0.0965881-0.1181946c0.012207-0.0575867,0.032196-0.1141968,0.0438843-0.171814
			c0.023407-0.070282,0.0435181-0.1367798,0.0684204-0.2070923c0.0112-0.0614929,0.0332031-0.1200867,0.0625-0.1747742
			c0.0018921-0.0683289,0.0477905-0.1269226,0.046814-0.1963196C25.8104858,37.0224609,25.7953796,37.0097961,25.7743835,37.0097961
			L25.7743835,37.0097961L25.7743835,37.0097961z"/>
		<path class="st1" d="M31.2304993,25.3095703c0.0664062,0.0039062-0.0899353-0.3569946-0.0899353-0.3569946
			c0.1758118,0.1802063,0.8428345,0.2236938,0.8428345,0.2236938c-0.4004211-0.1767883-0.7998047-1.5097961-0.7528992-2.5722961
			c0.0428772-1.0664062-0.1524048-1.4857788-0.3096313-1.6430969c-0.2001648-0.1996765-0.8432617-0.375885-1.266571-0.3999023
			c-0.2393188-0.0116882-0.199707,0.1806946-0.199707,0.1806946c-0.4433899-0.1137695-0.8862-0.1566772-1.085907-0.0233765
			c-0.1885071,0.1254883-0.2275696,0.7523804-0.0903931,0.6424866c0.3330078-0.2666016,0.6235962-0.0233765,0.8233032,0.2666016
			c0.1762085,0.2549133,0.1645203,0.976593-0.0903931,1.819397c-0.2666016,0.8862-0.9956055,1.7723999-0.9956055,1.7723999
			c0.3959961,0,0.9526978-0.3529968,0.9526978-0.3529968l-0.1333008,0.5527039
			c0.4194031-0.199707,0.7528992-0.5097046,0.7528992-0.5097046l0.3999023,0.4194031
			c0.1333008-0.1763,0.3998718-0.4194031,0.3998718-0.4194031S30.7207031,25.2621765,31.2304993,25.3095703L31.2304993,25.3095703
			L31.2304993,25.3095703z"/>
		<path class="st3" d="M29.0625,24.7344055l-0.137207,0.570282c0.3505859-0.1903992,0.6181946-0.4375305,0.6210938-0.4400024
			L29.5903015,24.8237l0.3930664,0.4125977c0.1411438-0.1689148,0.3529968-0.3628235,0.3633118-0.3720398l0.0438843-0.0400696
			l0.0410156,0.0435181c0.0035095,0.0028687,0.300293,0.3109741,0.749115,0.3744507
			c-0.0157166-0.0624695-0.0556946-0.1733704-0.0967102-0.265564l0.0996094-0.0664062
			c0.0957031,0.0975952,0.3847961,0.1557007,0.6035156,0.1845093c-0.3613281-0.4131165-0.6592102-1.5522156-0.617218-2.4936218
			c0.0439758-1.0913086-0.1640015-1.4692688-0.2919922-1.5967102c-0.1875-0.1875-0.813385-0.359375-1.2270203-0.3822937
			c-0.0396118-0.0019836-0.0932922,0.0019226-0.1192017,0.0312195c-0.0257874,0.0292969-0.0174866,0.0762024-0.0174866,0.0766907
			l0.0171204,0.0932007l-0.0918274-0.0223999c-0.4902954-0.1260071-0.8785095-0.1382141-1.0372009-0.032196
			c-0.0531921,0.035614-0.1025085,0.1434937-0.128418,0.281189c-0.0209656,0.1113281-0.0189819,0.2012024-0.0106812,0.2456055
			c0.1211243-0.0888977,0.2445984-0.1240234,0.3691101-0.1054993c0.1781921,0.0263977,0.3530884,0.1622009,0.5195923,0.4033813
			c0.1982117,0.2861328,0.1644897,1.055603-0.0820923,1.8711243c-0.2148132,0.7127991-0.7147827,1.4140015-0.9189148,1.6810913
			c0.355896-0.0615234,0.7798157-0.3275757,0.7846069-0.3305969L29.0625,24.7344055L29.0625,24.7344055z M28.745575,25.5292664
			l0.1299133-0.5380859c-0.1914062,0.1059875-0.5635071,0.2886047-0.8598938,0.2886047H27.8862l0.0820923-0.0996094
			c0.0072937-0.0087891,0.7250977-0.887207,0.9848022-1.7509766c0.2637024-0.8721008,0.2489929-1.5493164,0.0982056-1.7671204
			c-0.144104-0.2089844-0.2950134-0.3305969-0.4370117-0.351593c-0.0997009-0.0146179-0.1972961,0.0176086-0.2979126,0.098175
			c-0.0443726,0.035614-0.0829773,0.026825-0.1019897,0.019043c-0.0434875-0.0185242-0.0683899-0.0678101-0.0761719-0.1508179
			c-0.0152283-0.1617126,0.0375671-0.5035095,0.1962891-0.6094055c0.2406921-0.1607056,0.7406616-0.0795898,1.0614624-0.0033875
			c0.0059204-0.0288086,0.0181274-0.0606079,0.0430298-0.0899048c0.0463867-0.0537109,0.1190796-0.0786133,0.2182007-0.0737305
			c0.4448853,0.0244141,1.0976868,0.2085266,1.3067017,0.417511c0.1737671,0.1733093,0.3710938,0.6074219,0.3270874,1.6884155
			c-0.047821,1.0899048,0.3701172,2.3609009,0.7167969,2.5137024l-0.0282898,0.1166992
			c-0.0556946-0.003418-0.4570007-0.0327148-0.7158203-0.1390991c0.0664368,0.1875,0.0410156,0.2235718,0.0283203,0.2411804
			c-0.0147095,0.0210266-0.039093,0.0327148-0.0653992,0.0312195h-0.0019836
			c-0.4248047-0.0394897-0.7285156-0.2782898-0.8374329-0.3769226c-0.0795898,0.0752258-0.2538757,0.2436218-0.3511047,0.3725281
			l-0.0428772,0.0571899l-0.4092102-0.4288025c-0.1054993,0.0913086-0.3847961,0.3189087-0.7227173,0.480011L28.745575,25.5292664
			L28.745575,25.5292664z"/>
		<path class="st3" d="M29.0155945,24.9091797l-0.0942078-0.0849915c0.4017944-0.4468079,0.625-2.059082,0.6274109-2.0751953
			l0.1254883,0.0166016C29.664978,22.8339539,29.4433899,24.4335632,29.0155945,24.9091797L29.0155945,24.9091797z
			 M30.3275757,24.9316101c-0.1122742-0.3164062-0.113678-2.0756531-0.113678-2.1503296h0.1268921
			c0,0.5028992,0.0196228,1.8623047,0.1065063,2.1078796L30.3275757,24.9316101L30.3275757,24.9316101z M29.6439819,24.9403992
			l-0.1118164-0.0610046c0.2803345-0.5147095,0.3682251-2.1519165,0.3692017-2.1684875l0.1264343,0.0068665
			C30.0243835,22.7861023,29.9375,24.4003906,29.6439819,24.9403992L29.6439819,24.9403992z M31.0878906,24.9887695
			c-0.3823242-0.5605774-0.4740906-2.050293-0.4775085-2.1138l0.1264038-0.0072937
			c0.0010071,0.0151062,0.093811,1.5180054,0.4555969,2.0498047L31.0878906,24.9887695L31.0878906,24.9887695z"/>
		<path class="st3" d="M29.207489,21.9613953c-0.0195007-0.1450195-0.054718-0.2588196-0.105896-0.3335266
			c-0.199707-0.289978-0.4898071-0.5332031-0.8233032-0.2666016c0,0,0.1138-0.3529968,0.3569946-0.3641968
			c0.1878967-0.0121765,0.6152039,0.1405945,0.9916992,0.7836914c0,0-0.2783813-0.0624695-0.3447876-0.0038757
			C29.1566772,21.8866882,29.207489,21.9613953,29.207489,21.9613953L29.207489,21.9613953L29.207489,21.9613953z"/>
		<path class="st3" d="M28.5683899,21.2289734c0.0195007,0,0.0385132,0.0015259,0.0576172,0.004425
			c0.1659851,0.0243835,0.3309937,0.1537781,0.4901733,0.3847656c0.0371094,0.0541992,0.0664062,0.1289062,0.0878906,0.2221069
			c0.0137329-0.0233765,0.0352173-0.0492859,0.0664368-0.0765686c0.0575867-0.0508118,0.2382812-0.0240173,0.3208008-0.0083313
			c-0.460907-0.7626953-0.9346008-0.7427063-0.9551086-0.7407837c-0.1708984,0.0083008-0.2763062,0.1992798-0.3193054,0.2963867
			C28.3998718,21.2562866,28.4838867,21.2289734,28.5683899,21.2289734L28.5683899,21.2289734z M29.1929016,21.9711609
			c-0.0014954-0.0019836-0.0176086-0.026886-0.012207-0.0678711c-0.0205078-0.1152344-0.0518188-0.2045898-0.093811-0.2651062
			c-0.1532898-0.2227173-0.3099976-0.3471985-0.4663086-0.3701172c-0.11026-0.0160828-0.2221985,0.0200195-0.3309937,0.1069031
			l-0.0458679,0.0371094L28.2612,21.3559875c0.0048828-0.0147095,0.120575-0.3648071,0.3730774-0.3770142
			c0.1943054-0.0126953,0.6264038,0.1411133,1.0083313,0.7929993l0.0204773,0.0351257l-0.0401001-0.0087891
			c-0.1040039-0.0239258-0.285614-0.0463257-0.3291016-0.007843c-0.0532227,0.0464172-0.0722046,0.085022-0.0775757,0.1123352
			c0.0033875,0.0180664,0.0063782,0.0366821,0.0087891,0.0561829L29.1929016,21.9711609L29.1929016,21.9711609z"/>
		<path class="st3" d="M28.2437134,20.9262695c0.0272522-0.0903625,0.070282-0.1723938,0.1253662-0.207489
			c0.199707-0.1333923,0.6430969-0.0903931,1.0860291,0.0233765c0,0-0.0391235-0.1923828,0.2001648-0.1806946
			c0.4233093,0.0239258,1.065918,0.2002258,1.2661133,0.3999023c0.0469055,0.0513,0.1019897,0.1255188,0.1488953,0.2393188H31.0625
			c-0.098114-0.137207-0.3765259-0.1293945-0.4429016-0.1216125c-0.1059265,0.0117188-0.1727905,0.0078125-0.3139343,0.0435181
			c-0.0663757,0.0155945-0.1684875,0.0350952-0.2236633,0.0780945c-0.0429077,0.0351257-0.078125,0.1644897-0.144989,0.1644897
			c-0.1055298,0-0.0976257-0.0272827-0.1255188-0.0585938c-0.0350952-0.0429077-0.0546875-0.105896-0.0897827-0.1019897
			c-0.1099243,0.0195007-0.2862244-0.0664062-0.5097961-0.2432251c-0.2236328-0.176178-0.3096313-0.2192078-0.6001282-0.1996765
			c-0.2860718,0.0234985-0.3760071,0.184082-0.3760071,0.184082L28.2437134,20.9262695L28.2437134,20.9262695z"/>
		<path class="st3" d="M29.7240906,21.1869812c0.0327148,0,0.0518188,0.0312805,0.0717773,0.0644836
			c0.0093384,0.0151062,0.0186157,0.0307007,0.0292969,0.0439148c0.0059204,0.0063782,0.0102234,0.0132141,0.0146179,0.0195312
			c0.0131836,0.0195923,0.0220032,0.0327759,0.097229,0.0327759c0.032196,0,0.0595703-0.0474243,0.0834961-0.089386
			c0.016571-0.0288086,0.032196-0.0562134,0.050293-0.0713196c0.0521851-0.0410156,0.1420898-0.0614929,0.2079773-0.0765991
			l0.0230103-0.0054016c0.1034851-0.0259094,0.1673889-0.0307922,0.2352905-0.0361938
			c0.0254211-0.0018921,0.0513-0.0039062,0.0805969-0.0072937c0.0024109-0.0005188,0.2593079-0.0263062,0.4028015,0.0741882
			c-0.0316772-0.0614929-0.0687866-0.1146851-0.1122742-0.1620789c-0.1934204-0.1933289-0.8330078-0.3711243-1.2539062-0.394043
			c-0.0731812-0.0033875-0.1255188,0.0122375-0.155304,0.0464172c-0.0394897,0.0464172-0.026825,0.1117859-0.0263062,0.1123047
			l0.0052795,0.0278015l-0.0272522-0.0068054c-0.5098267-0.1308899-0.9004211-0.1401672-1.0718384-0.0259094
			c-0.0346985,0.022522-0.0678711,0.0688171-0.094696,0.1318359c0.0581055-0.0493164,0.1601257-0.1074219,0.3262024-0.1211243
			c0.2944031-0.019989,0.3841858,0.0234985,0.6123047,0.2037048c0.2215881,0.1748047,0.3924866,0.2578125,0.4956055,0.2391968
			C29.7201843,21.1869812,29.7221985,21.1869812,29.7240906,21.1869812L29.7240906,21.1869812z M29.9370117,21.3832703
			c-0.0879211,0-0.1064148-0.0185852-0.1265259-0.0487671c-0.0033875-0.0049438-0.0073242-0.0108032-0.012207-0.0161133
			c-0.0126953-0.0157166-0.0228882-0.0322876-0.0326843-0.0484009c-0.0145874-0.0239258-0.0283203-0.0469055-0.0419922-0.047821
			c-0.1137085,0.0205078-0.2895203-0.0625-0.5224304-0.246582c-0.223175-0.1763-0.3046875-0.2153015-0.5878906-0.1962891
			c-0.2720032,0.0224915-0.3612976,0.1737976-0.3622742,0.1752625l-0.0318298-0.0150757l0.0079041-0.019104
			c0.0184937-0.0614929,0.0605164-0.1703796,0.1323242-0.2167969c0.2396851-0.1596985,0.766571-0.0625,1.0756836,0.0151978
			c-0.0010071-0.0292969,0.0039062-0.0766907,0.0370789-0.1157837c0.0376282-0.043396,0.0996094-0.0629883,0.1836243-0.0591125
			c0.4364929,0.0245056,1.075592,0.2026978,1.2778015,0.405304c0.0634766,0.0683899,0.1132812,0.1484985,0.1533203,0.2445984
			l0.0097656,0.0244751h-0.0429993l-0.0057983-0.0073547c-0.0878906-0.1235352-0.343811-0.1240234-0.4263-0.1142273
			c-0.0292969,0.003418-0.0556946,0.0054016-0.081604,0.0072937c-0.0663757,0.0054016-0.1289062,0.0102844-0.2298889,0.035614
			l-0.0234985,0.0054016c-0.0625,0.0141907-0.1479187,0.0336914-0.1932983,0.0697937
			c-0.0132141,0.0107727-0.0274048,0.0351868-0.0419922,0.0610962
			C30.0224915,21.3261719,29.9896851,21.3832703,29.9370117,21.3832703L29.9370117,21.3832703z"/>
		<path class="st1" d="M29.8817749,20.9496765c0.0650024,0,0.1177063,0.0527039,0.1177063,0.1177063
			c0,0.0649109-0.0527039,0.1177063-0.1177063,0.1177063c-0.0648804,0-0.1175842-0.0527954-0.1175842-0.1177063
			C29.7641907,21.0023804,29.8168945,20.9496765,29.8817749,20.9496765L29.8817749,20.9496765z"/>
		<path class="st1" d="M29.9975891,32.7236023c3.2640991-2.5112305,2.9837952-6.1889038,2.9837952-6.1889038
			c-0.085907,0.0174866-0.1679077,0.0257874-0.2538757,0.0257874c-0.6845398,0-2.3178406-0.3916016-2.6987305-0.8891296
			c-0.4081726,0.4502258-2.0770874,0.8891296-2.7572937,0.8891296c-0.0863953,0-0.1723938-0.0083008-0.2543945-0.0257874
			c0,0-0.2842102,3.6776733,2.980011,6.1889038H29.9975891L29.9975891,32.7236023z"/>
		<path class="st3" d="M27.0718079,26.6029968c-0.0166321,0.496582-0.0059204,3.7670898,2.9257812,6.0473938
			c2.9320984-2.2807922,2.9458008-5.5517883,2.9300842-6.0473938c-0.0682678,0.0102844-0.132782,0.0151978-0.2001648,0.0151978
			c-0.6601257,0-2.2412109-0.3692017-2.7021179-0.861908c-0.503418,0.467804-2.1235046,0.861908-2.7539062,0.861908
			C27.2036133,26.6181946,27.1366882,26.6132812,27.0718079,26.6029968L27.0718079,26.6029968z M29.9975891,32.7958679
			l-0.0351868-0.0272827c-3.2515259-2.5005188-3.0054321-6.2012024-3.0024109-6.2382812l0.0047913-0.0655212l0.0645142,0.0137024
			c0.0776062,0.0166016,0.1591797,0.0249023,0.2421875,0.0249023c0.6903992,0,2.3232117-0.4389038,2.7147827-0.8706055
			l0.045929-0.0507812l0.0419922,0.0546875c0.3632812,0.4741211,1.9815063,0.8666992,2.6533203,0.8666992
			c0.0810852,0,0.1581726-0.0083008,0.2431946-0.0249023l0.0634766-0.0126953l0.0049133,0.0645142
			c0.0028992,0.0370789,0.2440796,3.7377625-3.006897,6.2382812L29.9975891,32.7958679L29.9975891,32.7958679z"/>
		<path class="st3" d="M27.3222961,26.8505554c0.0004883,0.1304016,0.007782,0.2588196,0.0140686,0.3589172
			c0.0318298,0.4795227,0.1153259,0.9658203,0.2476196,1.4463196c0.4062195,1.4736023,1.2182007,2.707489,2.4131165,3.668396
			c1.195282-0.960907,2.0087891-2.1962891,2.4159851-3.6719055c0.1328125-0.4804077,0.2157898-0.9667969,0.2479858-1.4458008
			c0.0049133-0.089325,0.0127258-0.2435913,0.0147095-0.3544006c-0.0137024,0.0003967-0.0263977,0.0003967-0.039093,0.0003967
			c-0.592804,0-2.0190125-0.2967834-2.6195984-0.7832031c-0.6040039,0.4346008-2.0253906,0.7832031-2.6558228,0.7832031
			C27.3486023,26.852478,27.3358765,26.8520813,27.3222961,26.8505554L27.3222961,26.8505554z M29.9971008,32.4413757
			l-0.0288086-0.0224915c-1.2084961-0.9627991-2.0635071-2.2553101-2.4727173-3.7391968
			c-0.1343079-0.4859009-0.2182922-0.9785156-0.2504883-1.4638977c-0.0072937-0.1156921-0.0161133-0.2670898-0.0145874-0.4179077
			l0.000885-0.0546875l0.0533142,0.0097046c0.0297852,0.0058899,0.0541992,0.0083008,0.0765686,0.0083008
			c0.6143188,0,2.0674438-0.3598022,2.6299438-0.7866211l0.0297852-0.0224915l0.0278015,0.0245056
			c0.5575867,0.4790039,2.0126953,0.7846069,2.5878906,0.7846069c0.0274048,0,0.0546875-0.0009155,0.0821228-0.0029297
			l0.04776-0.0028992l0.0010071,0.0483093c0,0.1065063-0.007782,0.2807922-0.0155945,0.4082031
			c-0.0323181,0.4859009-0.1163025,0.9784851-0.2510071,1.4649048c-0.4101868,1.4848022-1.2666016,2.7792969-2.4755859,3.7420959
			L29.9971008,32.4413757L29.9971008,32.4413757z"/>
	</g>
	<g>
		<defs>
			<path id="SVGID_3_" d="M32.6933899,26.8246765c-0.0284119,0.0020142-0.0557251,0.0024109-0.0839844,0.0024109
				c-0.6143188,0-2.0401306-0.3149109-2.5899048-0.7871094c-0.5757141,0.4361267-2.0254211,0.7871094-2.629425,0.7871094
				c-0.0282898,0-0.0560913-0.003418-0.0838623-0.0083008c-0.0015259,0.1372986,0.0057983,0.2798157,0.0140686,0.4096985
				c0.032196,0.4848938,0.1171875,0.9717102,0.2460938,1.4399719c0.4067078,1.4736023,1.2383118,2.7260437,2.4312134,3.6753235
				c1.1937866-0.9501953,2.0267944-2.2037048,2.4339905-3.6788025c0.1289062-0.4676819,0.2149048-0.9545898,0.2471008-1.4394226
				C32.6854858,27.0897827,32.6933899,26.9237976,32.6933899,26.8246765L32.6933899,26.8246765L32.6933899,26.8246765z"/>
		</defs>
		<defs>
			<path id="SVGID_4_" d="M59,60H0.9999695C0.4477234,60,0,59.5526733,0,59V0.9999695c0-0.5522461,0.4477234-1,0.9999695-1H59
				c0.5526886,0,0.9999847,0.4477539,0.9999847,1V59C59.9999847,59.5526733,59.5526886,60,59,60L59,60z"/>
		</defs>
		<clipPath id="SVGID_5_">
			<use xlink:href="#SVGID_3_"  style="overflow:visible;"/>
		</clipPath>
		<clipPath id="SVGID_6_" class="st4">
			<use xlink:href="#SVGID_4_"  style="overflow:visible;"/>
		</clipPath>
		<polygon class="st5" points="27.2607117,25.976593 29.0868835,25.976593 29.0868835,32.407196 27.2607117,32.407196 
			27.2607117,25.976593 		"/>
		<polygon class="st6" points="29.0868835,25.976593 30.9125977,25.976593 30.9125977,32.407196 29.0868835,32.407196 
			29.0868835,25.976593 		"/>
		<polygon class="st5" points="30.9125977,25.976593 32.7382812,25.976593 32.7382812,32.407196 30.9125977,32.407196 
			30.9125977,25.976593 		"/>
	</g>
</g>
</svg>
