<?xml version="1.0" encoding="utf-8"?>
<!-- Generator: Adobe Illustrator 22.1.0, SVG Export Plug-In . SVG Version: 6.00 Build 0)  -->
<svg version="1.1" id="Layer_1" xmlns="http://www.w3.org/2000/svg" xmlns:xlink="http://www.w3.org/1999/xlink" x="0px" y="0px"
	 viewBox="0 0 60 60" style="enable-background:new 0 0 60 60;" xml:space="preserve">
<style type="text/css">
	.st0{clip-path:url(#SVGID_2_);fill:#E3251C;}
	.st1{clip-path:url(#SVGID_2_);fill:#FFFFFF;}
	.st2{clip-path:url(#SVGID_2_);fill:#419B35;}
	.st3{clip-path:url(#SVGID_2_);fill:#2670B7;}
	.st4{clip-path:url(#SVGID_2_);fill:#020203;}
	.st5{clip-path:url(#SVGID_2_);fill:#74462C;}
	.st6{clip-path:url(#SVGID_2_);fill:#A46729;}
	.st7{clip-path:url(#SVGID_2_);fill:#039A3B;}
	.st8{clip-path:url(#SVGID_2_);fill:#FFD803;}
</style>
<g id="XMLID_1_">
	<g>
		<defs>
			<path id="SVGID_1_" d="M59,60H0.9999695C0.4477234,60,0,59.5526733,0,59V0.9999695c0-0.5522461,0.4477234-1,0.9999695-1H59
				c0.5526886,0,0.9999847,0.4477539,0.9999847,1V59C59.9999847,59.5526733,59.5526886,60,59,60L59,60z"/>
		</defs>
		<clipPath id="SVGID_2_">
			<use xlink:href="#SVGID_1_"  style="overflow:visible;"/>
		</clipPath>
		<polygon class="st0" points="-15,-0.0000305 74.9999847,-0.0000305 74.9999847,60 -15,60 -15,-0.0000305 		"/>
		<polygon class="st1" points="-15,-0.0000305 74.9999847,-0.0000305 74.9999847,39.9999695 -15,39.9999695 -15,-0.0000305 		"/>
		<polygon class="st2" points="-15,-0.0000305 74.9999847,-0.0000305 74.9999847,20 -15,20 -15,-0.0000305 		"/>
		<polygon class="st3" points="-7,-0.0000305 -7,60 15.5,29.9999695 -7,-0.0000305 		"/>
		<path class="st1" d="M25.2001953,23.9701843h9.5751953v10.0297852c0,3.375-4.4003906,0.7753906-4.7753906,2.5751953
			c-0.6499023-1.8505859-4.7749023,0.8251953-4.7749023-2.7753906
			C25.2250977,30.2997742,25.2001953,23.9701843,25.2001953,23.9701843L25.2001953,23.9701843z"/>
		<path class="st4" d="M28.3334961,35.6522827c0.6636047,0,1.2924805,0.0655212,1.6454773,0.5108032
			c0.3643188-0.5234985,1.2055969-0.5000305,2.0239258-0.4756165c0.8339844,0.0244141,1.6972961,0.0488281,2.1806946-0.4198914
			c0.2763977-0.2695923,0.4110718-0.6835938,0.4110718-1.2676086v-9.8500671h-9.2137756
			c0.0039062,1.0600586,0.0238953,6.519989,0.0238953,9.6498718c0,0.6708984,0.1459961,1.1397095,0.4453125,1.4335938
			c0.467804,0.4580078,1.2778015,0.4414062,2.0619812,0.4248047C28.0521851,35.6552734,28.1937866,35.6522827,28.3334961,35.6522827
			L28.3334961,35.6522827z M30.0443726,37.2440796l-0.2142639-0.6092834
			c-0.2285156-0.6514282-1.0083313-0.6358032-1.9107361-0.6162109c-0.8583984,0.0174866-1.745575,0.0350952-2.3212891-0.5283813
			c-0.3719788-0.3642273-0.5531921-0.9170227-0.5531921-1.6904297c0-3.4594727-0.0249023-9.7655945-0.0249023-9.8291016
			l-0.0010071-0.1806946h9.9360962v10.2099915c0,0.6865234-0.1708679,1.1855164-0.5214844,1.5253906
			c-0.5918274,0.5752258-1.5741882,0.546936-2.4414062,0.5215149c-1.050293-0.0302734-1.6968079-0.007782-1.8158875,0.5644226
			L30.0443726,37.2440796L30.0443726,37.2440796z"/>
		<path class="st5" d="M30.6747742,34.9745789c0,0-0.125,0.125-0.3495789,0.0254211
			c-0.2250977-0.0996094-0.25-6.4248047-0.25-6.4248047c0.4999695-0.5503235,0.8998718-0.7250977,0.8998718-0.7250977
			l0.3003235,0.2499695c-1.1254883,0.574707-1.0254211,1.3999023-0.925293,2.824707
			C30.375,31.4501648,30.375,32.1249695,30.5,32.7753906c0.1747742,0.8241882,0.5253906,1.5243835,0.5497742,2.0497742
			C31.0751953,35.1503601,30.6747742,34.9745789,30.6747742,34.9745789L30.6747742,34.9745789z"/>
		<path class="st4" d="M30.112793,28.5893555c0.0097961,2.4790344,0.0795898,6.2133179,0.2323914,6.379425
			c0.1918945,0.0839233,0.2987976-0.0166931,0.3037109-0.0205994l0.0176086-0.0175171l0.0233765,0.0097046
			c0.0538025,0.0234985,0.2089844,0.0733032,0.281311,0.0215149c0.0326843-0.023407,0.0463867-0.0682983,0.0415039-0.1337891
			c-0.0137024-0.2861023-0.125-0.6240234-0.253418-1.0146179c-0.1021118-0.3096008-0.2172852-0.6601868-0.2958984-1.030304
			c-0.101593-0.5273132-0.120575-1.0625-0.1381836-1.5342102c-0.0039062-0.1122742-0.0078125-0.219696-0.0126953-0.3221741
			l-0.0103149-0.1431274c-0.093689-1.320282-0.1512756-2.1254883,0.9057922-2.6908875l-0.2382812-0.1987915
			C30.882782,27.9374695,30.5326843,28.1298828,30.112793,28.5893555L30.112793,28.5893555z M30.4931641,35.0762024
			c-0.0522766,0-0.1132812-0.0108032-0.1835632-0.0420227c-0.0528259-0.0234985-0.1621094-0.0722961-0.2315063-3.2832031
			c-0.0342102-1.5762024-0.0405273-3.1601868-0.0405273-3.1757812v-0.0147095l0.0098267-0.0107117
			c0.4995117-0.5498047,0.8959961-0.7269897,0.9125977-0.7344055l0.0209961-0.0091858l0.3617859,0.3012085l-0.0507812,0.0258789
			c-1.0645142,0.5439148-1.0112,1.2904968-0.9150085,2.6450195l0.0101929,0.1440735
			c0.0049133,0.1029968,0.0088196,0.2113953,0.0132141,0.3237305c0.0171204,0.469696,0.0361023,1.0009766,0.1362,1.5214844
			c0.0776978,0.3662109,0.1929016,0.7148132,0.2940063,1.0223999c0.1303101,0.3955078,0.2425842,0.7373047,0.2572937,1.0332031
			c0.0068054,0.092804-0.0176086,0.1601868-0.0733032,0.2001953c-0.1019897,0.0722961-0.2713928,0.0185852-0.3330078-0.0047913
			C30.6508789,35.039978,30.5868835,35.0762024,30.4931641,35.0762024L30.4931641,35.0762024z"/>
		<path class="st5" d="M29.8998718,27.7001648h0.4502258c-0.375,3.625-0.0503235,5.7744141-0.0503235,6.8252258
			C30.2997742,34.8749695,30.5,35,30.4750977,35c-0.4501953,0.4999695-0.6753235-0.0254211-0.6753235-0.0254211
			L29.8998718,27.7001648L29.8998718,27.7001648z"/>
		<path class="st4" d="M29.8374023,34.9667664c0.016571,0.0342102,0.0976868,0.1855164,0.2362976,0.2090149
			c0.1065063,0.0176086,0.2250977-0.0429993,0.3534851-0.1796875c-0.0487976-0.0557251-0.1644897-0.2002258-0.1644897-0.4707031
			c0-0.2578125-0.0195007-0.5772095-0.0439148-0.9804993c-0.0747986-1.2344055-0.1879883-3.0957031,0.0898132-5.8076172h-0.371582
			L29.8374023,34.9667664L29.8374023,34.9667664z M30.1098938,35.2538757c-0.0160828,0-0.0322876-0.0018921-0.0484009-0.0048828
			c-0.1962891-0.032196-0.2920227-0.2500305-0.2958984-0.2588196l-0.003418-0.007782l0.1006165-7.3197937h0.5288086
			l-0.004425,0.0409851c-0.282196,2.7285156-0.1688843,4.5991211-0.093689,5.8363953
			c0.0244141,0.405304,0.0439148,0.7246094,0.0439148,0.9854126c0,0.257782,0.1156921,0.3876648,0.1537781,0.4306946
			c0.0151062,0.0166016,0.0308228,0.0340881,0.0200195,0.0585022l-0.0097046,0.0224915h-0.0093079
			C30.3594055,35.1806641,30.2309875,35.2538757,30.1098938,35.2538757L30.1098938,35.2538757z"/>
		<path class="st6" d="M29.2001953,34.9745789c-0.4253235,0.2001953-0.4751282-0.1992188-0.4502258-0.25
			c0.9248352-1.875,1.3252258-5.9995117,0.4751282-6.4496765L29.2749023,27.875
			c0.3251953,0.1000671,0.6249695,0.5248718,0.6249695,0.5248718c0.1250305,4.6255188,0,6.5249023-0.074707,6.6001282
			c-0.4501648,0.4745789-0.6249695-0.0752258-0.6503906-0.1250305"/>
		<path class="st4" d="M29.2084656,34.8583679c0.0019226,0.0039062,0.0054321,0.0117188,0.0093384,0.0215149
			c0.0253906,0.0604858,0.1019592,0.2460938,0.2411804,0.2714844c0.0962219,0.0175171,0.2103882-0.0419922,0.3389282-0.1767883
			c0.0604858-0.1034851,0.1917725-1.8534851,0.0648804-6.5619812c-0.0429993-0.0581055-0.289093-0.3799133-0.5562134-0.4868164
			l-0.0415039,0.3291016c0.3877258,0.2397156,0.5464172,1.2485046,0.425293,2.7138977
			c-0.1166687,1.4121094-0.4725647,2.8925171-0.9066772,3.7723999c-0.0064087,0.0195007,0.0018921,0.1387024,0.0767212,0.2061157
			c0.0677795,0.0604858,0.1708679,0.0614929,0.3055725,0.0018921c-0.0072937-0.015625-0.0132141-0.030304-0.0176086-0.0410156
			c-0.0028992-0.007782-0.0052795-0.0126953-0.0067749-0.016571L29.2084656,34.8583679L29.2084656,34.8583679z
			 M29.4926758,35.2294617c-0.015564,0-0.0317688-0.0019836-0.0473938-0.0048828
			c-0.1185913-0.0214844-0.1972961-0.1221008-0.2456055-0.2080078c-0.2167969,0.0967102-0.3378906,0.0400085-0.4017944-0.0253906
			c-0.0869751-0.0888977-0.1044922-0.2362976-0.081604-0.2832031c0.9740906-1.9736023,1.281311-5.9813843,0.4912109-6.3999023
			l-0.0228882-0.012207l0.0585938-0.469696l0.0428772,0.0131836c0.3335266,0.1025085,0.6319275,0.5210266,0.6446228,0.539032
			l0.0063171,0.0093079l0.0004883,0.0112c0.1171875,4.3451843,0.0180664,6.5239868-0.085907,6.6275024
			C29.7240906,35.1611023,29.6034851,35.2294617,29.4926758,35.2294617L29.4926758,35.2294617z"/>
		<path class="st4" d="M29.1381836,34.907196c-0.0326843-0.1758118,0.0726929-0.4492188,0.2070007-0.7949219
			c0.1875-0.4844055,0.4213867-1.0868835,0.3920898-1.7108765L29.8125,32.3983765
			c0.0297852,0.639679-0.2070312,1.25-0.397522,1.7412109c-0.1245117,0.3212891-0.2319031,0.5986938-0.203064,0.7539978
			L29.1381836,34.907196L29.1381836,34.907196z"/>
		<path class="st4" d="M30.7124023,34.9784851l-0.074707-0.0068054c0.0473938-0.5-0.0391235-1.0342102-0.2730103-1.6835938
			l0.0704041-0.0253906C30.6728821,33.9228821,30.7606812,34.4677734,30.7124023,34.9784851L30.7124023,34.9784851z"/>
		<path class="st7" d="M31.3749695,26c0.1504211-0.1748352,0.1504211-0.1748352,0.4248047-0.1748352
			c0.0498047-0.375,0.6748047-0.375,0.7256165,0.0996094c0.5-0.0996094,0.5996094,0.2001953,0.3993835,0.5
			c0.4756165-0.125,0.9004211,0,0.7754211,0.550293c0.8496094,0.2250977,0.5244141,0.824707,0.1494141,0.949707
			c-0.0498047,0.375-0.3994141,0.5-0.8750305,0.3501282c-0.5995789,0.4252625-0.9491882,0.2748718-1.2246094-0.1499329
			c-0.6747742,0.1001282-0.7245789-0.0498047-1.0248718-0.4248047c-0.5249329,0.2246094-0.625,0.2246094-1.0751953-0.050293
			c-0.0249023,0.3500977-0.1499329,0.2500305-0.375,0.2251282c0.0249023,0.4501648-0.1499329,0.6498718-0.5498352,0.4999695
			C29.0249023,29,28.25,29.2748718,27.875,28.7499695c-0.3500977,0.0249023-0.375-0.0751953-0.5498047-0.2001953
			c-0.1504211,0.5-0.7001953,0.4253235-0.8003235,0.1503906c-0.6996765-0.1000671-0.6249695-0.4750671-0.0498047-0.4999695
			c0.0498047-0.4004211,0.3999023-0.3251953,0.6250305-0.2754211c0.0249023-0.25,0.1747742-0.199707,0.2998047-0.1499023
			C27.3251953,27.6000671,27.375,27.5,27.6000671,27.4501953c-0.3251953-0.4253235-0.1249695-0.5752258,0.1997375-0.7250977
			c-0.1748352-0.3999023,0.1249695-0.375,0.3500977-0.3999023C28.125,25.8998718,28.25,25.8251648,28.7001648,25.7748718
			c-0.0502625-0.1498718,0.0249023-0.2749023,0.2749329-0.2749023c-0.1499023-0.4248047,0.0498047-0.5224915,0.4999695-0.4501953
			c0.074707-0.6171875,1.3999329-0.324707,1.2998352,0.5254211C31.1503906,25.625,31.2753906,25.7001648,31.3749695,26
			L31.3749695,26z"/>
		<path class="st4" d="M27.8930664,28.710907l0.0122375,0.0170593c0.1923828,0.2691345,0.5,0.3154907,0.6864624,0.2051086
			c0.1353455-0.0800781,0.2324219-0.2641907,0.0996094-0.5419922l-0.0404663-0.0839844l0.0873718,0.0326843
			c0.1650085,0.0620728,0.2905273,0.0625,0.3725281,0.0019836c0.0956726-0.0703125,0.139679-0.2309875,0.1269836-0.4647827
			l-0.0023804-0.0440063l0.0438843,0.0048828c0.0410156,0.0043945,0.0785828,0.0112305,0.1132812,0.0176086
			c0.074707,0.0140991,0.1289062,0.0239258,0.1600952,0c0.0323181-0.0249023,0.0518188-0.0932922,0.0601196-0.2080078
			l0.0043945-0.061554l0.0521851,0.0322571c0.4351196,0.265625,0.522522,0.2695007,1.0410156,0.0473328l0.0258789-0.0112305
			l0.0181274,0.0224915c0.0243835,0.0307312,0.0477905,0.0600281,0.0693054,0.0878296
			c0.2416992,0.308197,0.3227844,0.4116821,0.9203796,0.3233032l0.0245056-0.0033875l0.0127258,0.0199585
			c0.1454773,0.2241211,0.2928772,0.3442383,0.4657898,0.3774109c0.1962891,0.0376282,0.4277039-0.039978,0.7059937-0.237793
			l0.015686-0.0107117l0.0174866,0.0058899c0.2686462,0.0849304,0.4981079,0.0795288,0.6465454-0.014679
			c0.1005554-0.0644226,0.1620483-0.1669922,0.179657-0.3046875l0.0039062-0.0228882l0.0215149-0.0074158
			c0.1787109-0.0595093,0.3671875-0.2494812,0.3612976-0.4521179c-0.0057983-0.1894836-0.1864929-0.3407898-0.5087891-0.4263
			l-0.0350952-0.0091858l0.007782-0.0351868c0.0448914-0.1978149,0.0195007-0.3447266-0.077179-0.4375305
			c-0.1230164-0.1195984-0.3613281-0.1445007-0.6513062-0.0678711l-0.0957031,0.0249023l0.0546875-0.0820007
			c0.0947266-0.1421204,0.1170959-0.277832,0.0595093-0.3638c-0.0625-0.0927124-0.2119141-0.1206055-0.420929-0.0786133
			l-0.039978,0.007782l-0.0048828-0.0409851c-0.023407-0.2290039-0.1924438-0.3340149-0.3496094-0.3358765
			c-0.0020142,0-0.0028992,0-0.0048828,0c-0.1318054,0-0.273407,0.0726929-0.2958984,0.2372742l-0.0039368,0.032196h-0.0332031
			c-0.257782,0-0.257782,0-0.3964844,0.1621094l-0.0429077,0.050293l-0.0205994-0.0629883
			c-0.0917969-0.2753906-0.1982117-0.3500977-0.5697937-0.3994141l-0.0366211-0.0048828l0.004425-0.0365906
			c0.0576172-0.4907227-0.3853149-0.7676086-0.7182922-0.8070984c-0.2148132-0.0259094-0.4760132,0.0350952-0.5072937,0.2909546
			l-0.0049438,0.0386353l-0.0380859-0.0064087c-0.2518921-0.0404968-0.4046936-0.023407-0.4681702,0.0523071
			c-0.0528259,0.0634155-0.0498047,0.180603,0.0092773,0.3480835l0.0175171,0.050293h-0.0527039
			c-0.1133118,0-0.1924133,0.0269165-0.2290039,0.0771179c-0.0336914,0.0473938-0.0244141,0.1069946-0.0107117,0.1484985
			l0.0145874,0.0438843L28.7041016,25.8125c-0.433136,0.0478821-0.5404968,0.1044922-0.5166321,0.5102844l0.0020447,0.0355835
			l-0.0352173,0.0039062c-0.0249023,0.0028992-0.0503235,0.0048828-0.0762024,0.0068054
			c-0.1162109,0.0097961-0.2368164,0.0200806-0.2767944,0.0879211c-0.0298157,0.0497742-0.0186157,0.1347961,0.0331726,0.2529602
			l0.0146179,0.0337219l-0.0332031,0.0155945c-0.1825867,0.0839844-0.3099976,0.1630859-0.3378906,0.2758789
			c-0.0244141,0.0986328,0.0253906,0.226532,0.1519165,0.3920288l0.0355835,0.0464172l-0.0575867,0.0131836
			c-0.105011,0.0229797-0.1675415,0.0570984-0.190918,0.1029968c-0.0205078,0.0396118-0.0147095,0.0953064,0.0175781,0.1705017
			l0.035614,0.0830078l-0.0840149-0.0332336c-0.0707703-0.0287781-0.1439819-0.0541992-0.1883545-0.026886
			c-0.0323181,0.0195312-0.0528259,0.0684204-0.0606384,0.1455078l-0.0038757,0.0419922l-0.0415344-0.0092773
			c-0.1356506-0.0297852-0.3407593-0.0757141-0.4638672,0.011261c-0.0639038,0.0449219-0.1020203,0.120636-0.1156921,0.2319336
			l-0.0039062,0.031189l-0.0317078,0.0014954c-0.2686157,0.0116882-0.4131165,0.101593-0.4169922,0.1841125
			c-0.0043945,0.085907,0.1395874,0.1943054,0.4707031,0.2416992l0.0223694,0.0028992l0.0074158,0.0209961
			c0.0419922,0.1152039,0.1815796,0.1958008,0.3330078,0.1914062c0.1860046-0.0048828,0.3340149-0.1318054,0.3959961-0.3392944
			l0.0150757-0.050293l0.042511,0.0307007c0.0361023,0.0258789,0.0658875,0.0502625,0.0932007,0.0733032
			c0.1044922,0.0863953,0.1680298,0.1390686,0.4322205,0.1195679L27.8930664,28.710907L27.8930664,28.710907z
			 M28.3720703,29.0648804c-0.1747742,0-0.3692017-0.0820007-0.5151672-0.2763062
			c-0.2778015,0.0171204-0.3564148-0.0488892-0.4648132-0.1381836c-0.0151062-0.0127258-0.0308228-0.0259094-0.0483093-0.0396118
			c-0.0800781,0.2099915-0.2446899,0.3370056-0.4483032,0.342804c-0.1758118,0.0054016-0.3358765-0.0844727-0.3970032-0.219696
			c-0.3871765-0.0596008-0.5194702-0.2016907-0.5140991-0.3164062c0.0068054-0.137207,0.1855164-0.2348938,0.4580078-0.2533875
			c0.0200195-0.1152954,0.0679016-0.2002258,0.1426086-0.2529907c0.137207-0.0966187,0.3363953-0.0630188,0.4833984-0.0317078
			c0.0140991-0.0791016,0.0438843-0.1318054,0.0903015-0.1601868c0.0537109-0.0327454,0.1166992-0.0258179,0.1806946-0.0058289
			c-0.0151978-0.0620117-0.0118103-0.1138,0.0107117-0.1576843c0.0297852-0.0581055,0.0897827-0.0992126,0.1864929-0.1279907
			c-0.1177063-0.1660156-0.1596069-0.296814-0.1313171-0.410614c0.0332031-0.1343079,0.1567078-0.2207336,0.3462219-0.3110046
			c-0.0498047-0.1260071-0.054718-0.2207031-0.0147095-0.2876282c0.0601196-0.1005554,0.199707-0.1122742,0.3349915-0.1240845
			c0.0132141-0.000885,0.0263062-0.0018921,0.0390015-0.0033875c-0.0160828-0.4042969,0.1202087-0.4971008,0.5420227-0.5483093
			c-0.0127258-0.0658875-0.0014038-0.1244812,0.0322876-0.1713867c0.032196-0.0444031,0.0991211-0.0967102,0.2387085-0.1069031
			c-0.0531921-0.1719055-0.0464172-0.2940063,0.0195923-0.3731079c0.0791016-0.094696,0.238678-0.121582,0.500885-0.0840149
			c0.0489197-0.2279968,0.2779236-0.3544922,0.5840149-0.3182678c0.4198914,0.050293,0.8213196,0.3812866,0.7875977,0.8540039
			c0.3217773,0.0463562,0.4692993,0.1195679,0.5728149,0.3841858c0.1151733-0.1313171,0.1493835-0.1390991,0.3798828-0.1395874
			c0.0370789-0.1631165,0.1845093-0.272522,0.3701172-0.2700195c0.180603,0.0024109,0.3739929,0.1162109,0.4178772,0.3632812
			c0.2958984-0.0488892,0.4141235,0.051239,0.4580078,0.1176147c0.0645142,0.0953064,0.0577087,0.2295227-0.0136108,0.3702087
			c0.2782898-0.0567017,0.5078125-0.019104,0.6377258,0.1063843c0.1092834,0.1064148,0.1454773,0.265625,0.1053772,0.473114
			c0.4512329,0.129425,0.5253906,0.3594055,0.530304,0.4868774c0.006897,0.2319336-0.1893921,0.440918-0.3905945,0.5175171
			c-0.0253906,0.1480103-0.0977173,0.2632141-0.210907,0.3355103c-0.164093,0.1040039-0.4091797,0.1137695-0.6914978,0.0282898
			c-0.2900085,0.2017212-0.5350952,0.2798157-0.7489929,0.2388c-0.1854858-0.035675-0.3496094-0.1630859-0.5010071-0.3897095
			c-0.6191101,0.0884094-0.7225952-0.0428772-0.9663086-0.3544922c-0.016571-0.0209961-0.0336914-0.0423889-0.0516663-0.0653992
			c-0.4971313,0.2114258-0.6250305,0.2105103-1.0318298-0.0326843c-0.013092,0.105896-0.0389709,0.1674805-0.0829773,0.2016907
			c-0.0581055,0.0448914-0.1328125,0.0307007-0.219696,0.0146179c-0.0205078-0.003418-0.0420227-0.0072937-0.0643921-0.0112305
			c0.0062866,0.2392273-0.0469055,0.401825-0.1592102,0.484314c-0.0889282,0.0654907-0.2110291,0.0766907-0.3638,0.0341797
			c0.102478,0.2808228-0.0112,0.4721985-0.1616211,0.5611267C28.5565796,29.0409851,28.4672852,29.0648804,28.3720703,29.0648804
			L28.3720703,29.0648804z"/>
		<path class="st4" d="M29.4375,26.2997742h-0.0752258c0-0.226593-0.0834961-0.3676758-0.1654968-0.3896179
			c-0.0683899-0.0180664-0.1464844,0.0395203-0.214386,0.1586304l-0.059082,0.1030884l-0.0107422-0.1187134
			c-0.016571-0.1844788-0.0751648-0.1991882-0.1493835-0.2177734c-0.0258789-0.0068054-0.0531921-0.0136108-0.0800781-0.0267944
			l0.0336914-0.0674133c0.0195007,0.0102844,0.0415039,0.0155945,0.0648804,0.0215149
			c0.0865173,0.0220032,0.1572876,0.0513,0.1905212,0.1869812c0.0985718-0.125,0.1918945-0.1254883,0.2435913-0.1117859
			C29.3486023,25.8729858,29.4375,26.0585938,29.4375,26.2997742L29.4375,26.2997742z"/>
		<path class="st4" d="M30.3193054,26.1469727c-0.0643921-0.0903625-0.1704407-0.1480103-0.2651062-0.1430969
			c-0.0449219,0.0024109-0.1064148,0.0195007-0.1465149,0.0899048l-0.0653992-0.0375977
			c0.0444031-0.0772095,0.118103-0.1226196,0.2080078-0.1270142c0.0897827-0.0048828,0.1835938,0.0312195,0.2588196,0.0957336
			c0.0136719-0.2173157,0.1708679-0.3022461,0.2894592-0.3662109c0.0606384-0.0332031,0.1182251-0.0640259,0.1451111-0.1045227
			l0.0625,0.0415039c-0.0372009,0.0562134-0.1026001,0.0913086-0.171875,0.1289062
			c-0.1367188,0.0737-0.2779236,0.1499023-0.2471313,0.3955078L30.3193054,26.1469727L30.3193054,26.1469727z"/>
		<path class="st4" d="M31.2812805,26.5707703l-0.0624695-0.0415039C31.3085938,26.3944702,31.3378906,26.1146851,31.3378906,26
			h0.0742188C31.4121094,26.097168,31.3887024,26.4101868,31.2812805,26.5707703L31.2812805,26.5707703z"/>
		<path class="st4" d="M32.8895874,26.4188843c-0.0028992,0.0118103,0,0.0244751,0.0087891,0.0328064l0.0205078-0.0205078
			L32.8895874,26.4188843L32.8895874,26.4188843z M32.4219055,26.5805664l-0.0440063-0.0610657
			c0.1259766-0.0898132,0.3349915-0.1064148,0.4599915-0.1162109c0.0292969-0.0024109,0.0634766-0.0049133,0.0713196-0.0078125
			l0.0106812,0.0346985l0.0312805-0.0317993l0.0097046,0.042511c-0.0097046,0.0282898-0.0332031,0.0302734-0.1170959,0.0370789
			C32.734375,26.4867859,32.530304,26.5028687,32.4219055,26.5805664L32.4219055,26.5805664z"/>
		<path class="st4" d="M33.3622742,28.0625v-0.1123352c0-0.1571655-0.0263977-0.3378906-0.2372742-0.3378906v-0.074707
			c0.1835938,0,0.2870789,0.1089172,0.3085938,0.3237305c0.1474915-0.1176147,0.3212891-0.027832,0.4102173,0.0185852
			l0.0233765,0.0116882l-0.0342102,0.066925l-0.023407-0.0122375c-0.1308899-0.0678711-0.2685852-0.121582-0.3798828,0.0263977
			L33.3622742,28.0625L33.3622742,28.0625z"/>
		<path class="st4" d="M33.0126648,28.2749023H32.9375c0-0.2388-0.0458984-0.3066406-0.0937195-0.3789368l0.0625305-0.0419922
			C32.9579773,27.9325867,33.0126648,28.0136719,33.0126648,28.2749023L33.0126648,28.2749023z"/>
		<path class="st4" d="M31.7871094,28.1249695h-0.0742188c0-0.0922852,0.0809937-0.2084961,0.1816101-0.2587891
			c0.0927734-0.0464172,0.1914062-0.0361023,0.2783813,0.0288086l-0.0450134,0.0600891
			c-0.0799561-0.0600891-0.1532593-0.0448914-0.1991882-0.0214844
			C31.8457031,27.9750671,31.7871094,28.0678711,31.7871094,28.1249695L31.7871094,28.1249695z"/>
		<path class="st4" d="M30.7372742,27.7001648h-0.0746765c0-0.0199585-0.0033875-0.0434875-0.0068054-0.0692749
			c-0.0137024-0.1075134-0.0352173-0.2701111,0.129425-0.3403931l0.0296631,0.0689087
			C30.7108765,27.4037781,30.714386,27.5,30.7304688,27.6210632C30.7338867,27.6498718,30.7372742,27.6767578,30.7372742,27.7001648
			L30.7372742,27.7001648z"/>
		<path class="st4" d="M27.8866882,28.7572632l-0.0732117-0.0145874c0.0288086-0.1454773,0.098114-0.2138977,0.148407-0.2637024
			c0.0419922-0.0414734,0.0585938-0.0600891,0.0513-0.0967102c-0.012207-0.0966797-0.0703125-0.1747742-0.1484985-0.2015991
			c-0.0921936-0.0317688-0.2035828,0.0112305-0.313385,0.120636l-0.0528259-0.0528259
			c0.1768188-0.1766968,0.3203125-0.1625977,0.3907166-0.1385803c0.1048889,0.0361023,0.1825867,0.138092,0.1982117,0.2601929
			c0.0150757,0.0751953-0.0298157,0.1195984-0.0728149,0.1621094
			C27.9687805,28.5776062,27.9111023,28.6342773,27.8866882,28.7572632L27.8866882,28.7572632z"/>
		<path class="st4" d="M28.3686829,28.4457703c-0.0361938-0.0541992-0.1636047-0.0829773-0.3066711-0.0351868l-0.0239258-0.0711975
			c0.1631165-0.0541992,0.3320007-0.0263977,0.3931274,0.0648804L28.3686829,28.4457703L28.3686829,28.4457703z"/>
		<path class="st4" d="M28.1083679,27.4833679c-0.1430664-0.0712891-0.3734741-0.0897827-0.4570007-0.0067749l-0.0527954-0.0532837
			c0.1211243-0.1211243,0.3931274-0.0820312,0.5430298-0.0068359L28.1083679,27.4833679L28.1083679,27.4833679z"/>
		<path class="st4" d="M28.539093,27.1107788l-0.0245056-0.0737c-0.051178-0.1537781-0.1737976-0.1596985-0.3286133-0.1517944
			C28.164093,26.8862,28.1435852,26.8876953,28.125,26.8876953v-0.0752258c0.0176086,0,0.0365906-0.0009766,0.0575867-0.0019836
			c0.1161804-0.0062866,0.2861938-0.0151062,0.3739929,0.1372986c0.1807251-0.2583008,0.3222961-0.3085938,0.4107056-0.3041992
			c0.0620117,0.0039062,0.1147156,0.0370789,0.1411133,0.0897827l-0.066925,0.0332031
			c-0.0067749-0.0131836-0.0278015-0.0448914-0.0780945-0.0477905c-0.0508118-0.0035095-0.1860962,0.0233765-0.381897,0.3265991
			L28.539093,27.1107788L28.539093,27.1107788z"/>
		<path class="st4" d="M30.332489,27.2636719l-0.0400085-0.0698853c-0.2001953-0.3510132-0.5317993-0.523407-0.704071-0.4584045
			l-0.0263977-0.0704041c0.2157898-0.0810242,0.5502625,0.1123047,0.7567749,0.4283142
			c0.0888977-0.179718,0.2109985-0.1890259,0.3204041-0.1968079c0.0263062-0.0019836,0.0527039-0.0039062,0.0795898-0.0083008
			l0.0122375,0.0737c-0.0289307,0.0049133-0.0577393,0.0073242-0.0865173,0.0093079
			c-0.118103,0.0087891-0.210907,0.0155945-0.2840881,0.2167969L30.332489,27.2636719L30.332489,27.2636719z"/>
		<path class="st4" d="M32.3007812,27.5112l-0.0527954-0.0674133c-0.1054077-0.1351929-0.282196-0.3617859-0.5575867-0.2348022
			l-0.0312195-0.0679016c0.3222046-0.1488953,0.5351257,0.112793,0.640625,0.2485046
			c0.1493835-0.1772156,0.2831726-0.1772156,0.4248047-0.1772156v0.0752258c-0.1484375,0-0.2558289,0-0.3945312,0.1850891
			L32.3007812,27.5112L32.3007812,27.5112z"/>
		<path class="st4" d="M28.6820984,27.7943726l-0.0643921-0.0385132c0.0414734-0.0688782,0.11026-0.1147766,0.1943054-0.1304016
			c0.0570984-0.0102539,0.1176758-0.0048828,0.1728821,0.0146484c0.0028992-0.1010437,0.0415039-0.1850281,0.1078796-0.2314453
			c0.054718-0.0380859,0.1196289-0.0443726,0.1738281-0.0170593l-0.0332336,0.066864
			c-0.0292969-0.014679-0.0658875-0.0102539-0.0976868,0.0117188c-0.0570679,0.0401001-0.0848694,0.1245117-0.0731812,0.2255859
			l0.0082703,0.0752258l-0.0648804-0.0391235c-0.0538025-0.0317078-0.1192017-0.043396-0.1802063-0.0326843
			C28.7626953,27.7108765,28.7118835,27.7445984,28.6820984,27.7943726L28.6820984,27.7943726z"/>
		<polygon class="st8" points="29.6748047,22.5648804 29.1249695,22.5897827 28.8500977,23.082489 28.5498047,22.6122742 
			27.9999695,22.6347656 28.25,22.1400757 27.9501648,21.6698914 28.5249023,21.644989 28.7748718,21.1522827 
			29.0751648,21.6225586 29.625,21.6000671 29.375,22.0951843 29.6748047,22.5648804 		"/>
		<path class="st4" d="M28.6200867,22.4784851l0.2221985,0.348175l0.2035828-0.3642578l0.3965149-0.0180969l-0.2182922-0.3418274
			l0.1831055-0.3623047l-0.4023132,0.0166016l-0.2167969-0.3397827l-0.1806946,0.355896l-0.4243164,0.0180969l0.217804,0.3413086
			l-0.183075,0.3623047L28.6200867,22.4784851L28.6200867,22.4784851z M28.8573914,23.3383789l-0.3774109-0.5917969
			l-0.6977844,0.0287781l0.3168945-0.6278687l-0.3822937-0.5987244l0.7261047-0.0317078l0.3187866-0.6288757l0.3833008,0.6000977
			l0.6977844-0.0283203l-0.3168945,0.6274414l0.3818054,0.5986023l-0.7036133,0.0317688L28.8573914,23.3383789
			L28.8573914,23.3383789z"/>
		<polygon class="st8" points="27.3251953,22.7475586 26.7749023,22.8822937 26.625,23.414978 26.2250977,23.0150757 
			25.7001648,23.144989 25.8500977,22.6122742 25.4750977,22.207489 26,22.0751648 26.1498718,21.539978 26.5497742,21.9398804 
			27.1000977,21.8100586 26.9247742,22.3451843 27.3251953,22.7475586 		"/>
		<path class="st4" d="M26.2650757,22.8695984l0.2945251,0.2939758l0.1097717-0.3901978l0.3990173-0.0980835l-0.2929993-0.2948914
			l0.1268921-0.3887329l-0.3934937,0.0928345l-0.2929993-0.2930298l-0.1098022,0.3920898l-0.3843079,0.097229l0.2744141,0.2962952
			l-0.108429,0.3862915L26.2650757,22.8695984L26.2650757,22.8695984z M26.6903687,23.6659851l-0.5057678-0.5057983
			l-0.6724243,0.1665039l0.1914368-0.6791992l-0.4751282-0.5132141l0.6654968-0.1679993l0.1900024-0.6777039l0.5068054,0.5068054
			l0.706604-0.1669922l-0.2226868,0.6811829l0.5067749,0.5102234l-0.7010803,0.171875L26.6903687,23.6659851L26.6903687,23.6659851z
			"/>
		<polygon class="st8" points="25.0497742,23.2147827 24.5497742,23.4623718 24.5249023,24.0175781 24.0498047,23.7123718 
			23.5497742,23.957489 23.6000977,23.4022827 23.1249695,23.0951843 23.625,22.8451843 23.6748047,22.289978 24.125,22.5951843 
			24.6249695,22.3500671 24.6000671,22.9047852 25.0497742,23.2147827 		"/>
		<path class="st4" d="M24.0585938,23.5619812l0.3457031,0.2217102l0.0180969-0.4042969l0.3690796-0.1831055l-0.3256836-0.2246094
			l0.0180969-0.406311l-0.3695984,0.1812134l-0.3287048-0.223175l-0.0366211,0.4062805l-0.3597717,0.1802063l0.3486023,0.2254944
			l-0.0361023,0.4013977L24.0585938,23.5619812L24.0585938,23.5619812z M24.6459961,24.2509766l-0.6045227-0.3881836
			l-0.6430969,0.3148804l0.0635071-0.7079773l-0.6011047-0.3896179l0.6401978-0.3197937l0.0635071-0.7037048l0.5711975,0.387207
			l0.6304321-0.309021l-0.0317078,0.7036133l0.5737,0.394989l-0.6304321,0.3125L24.6459961,24.2509766L24.6459961,24.2509766z"/>
		<polygon class="st8" points="30.3999023,22.5648804 30.9501648,22.5897827 31.2001953,23.082489 31.5,22.6122742 
			32.0497742,22.6347656 31.7997742,22.1400757 32.0995789,21.6698914 31.5498047,21.644989 31.2753906,21.1522827 
			30.9750671,21.6225586 30.4248047,21.6000671 30.6747742,22.0951843 30.3999023,22.5648804 		"/>
		<path class="st4" d="M30.6229858,22.4437866l0.4091797,0.0186157l0.1807251,0.3559875l0.2167969-0.3399048l0.4022827,0.0161133
			l-0.1825562-0.3623047l0.2177734-0.3413086l-0.3964844-0.0180969l-0.203125-0.3647156l-0.2226868,0.3486023l-0.4017944-0.0166016
			l0.1810913,0.3594055L30.6229858,22.4437866L30.6229858,22.4437866z M31.1864929,23.3466797l-0.3187866-0.6289062
			l-0.6905212-0.0317688l0.3482056-0.5957031l-0.3183899-0.6303406l0.6977844,0.0283203l0.3774109-0.5913086l0.3467102,0.6200867
			l0.704071,0.0322266l-0.3817749,0.5982056l0.3164062,0.6278687l-0.6972961-0.0287781L31.1864929,23.3466797L31.1864929,23.3466797
			z"/>
		<polygon class="st8" points="32.75,22.7475586 33.2753906,22.8822937 33.4248047,23.414978 33.8251953,23.0150757 
			34.3495789,23.144989 34.2001953,22.6122742 34.5996094,22.207489 34.0497742,22.0751648 33.9003906,21.539978 33.5,21.9398804 
			32.9745789,21.8100586 33.125,22.3451843 32.75,22.7475586 		"/>
		<path class="st4" d="M32.9960938,22.675293l0.3847961,0.0990906l0.1092834,0.3891907l0.2940063-0.2939758l0.3778992,0.0937805
			l-0.1094055-0.3887024l0.2901001-0.2938843l-0.3984985-0.0962219l-0.1102905-0.3930969l-0.2940063,0.2935181l-0.3778992-0.0933228
			l0.1094055,0.3887329L32.9960938,22.675293L32.9960938,22.675293z M33.3594055,23.6659851l-0.1905212-0.675293
			l-0.6660156-0.1708984l0.4756165-0.5102234l-0.1903992-0.6811829l0.6719055,0.1665039l0.5057983-0.5063171l0.1894836,0.6767273
			l0.7011108,0.1689758l-0.5097046,0.5161133l0.1903992,0.6763l-0.6719055-0.1665039L33.3594055,23.6659851L33.3594055,23.6659851z"
			/>
		<polygon class="st8" points="35,23.2147827 35.4999695,23.4623718 35.5253906,24.0175781 36,23.7123718 36.5,23.957489 
			36.4746094,23.4022827 36.9247742,23.0951843 36.4248047,22.8451843 36.4003906,22.289978 35.9247742,22.5951843 
			35.4247742,22.3500671 35.4745789,22.9047852 35,23.2147827 		"/>
		<path class="st4" d="M35.2637024,23.1991882l0.3641968,0.1802063l0.0176086,0.4042969l0.3457031-0.2217102l0.3681946,0.1801758
			l-0.0186157-0.4067688l0.3262024-0.2225952l-0.3701172-0.1850891l-0.0176086-0.4042969l-0.3456726,0.222168l-0.3574219-0.175293
			l0.0361023,0.4013977L35.2637024,23.1991882L35.2637024,23.1991882z M35.4042969,24.2509766l-0.032196-0.7051086
			l-0.6367188-0.3153992l0.6015015-0.3920898L35.273407,22.129364l0.6425781,0.3154297l0.6044922-0.3882141l0.0322266,0.7055969
			l0.6308899,0.3153992l-0.5741882,0.3921204l0.031189,0.703186l-0.6318054-0.3100891L35.4042969,24.2509766L35.4042969,24.2509766z
			"/>
		<polygon class="st1" points="35.6748047,33.7997742 36.2997742,34.7001648 36.875,33.8495789 36.4746094,33.125 
			35.6748047,33.7997742 		"/>
		<path class="st4" d="M35.8505859,33.8231812l0.4482117,0.6445923l0.4228821-0.6249695l-0.2842102-0.5147095L35.8505859,33.8231812
			L35.8505859,33.8231812z M36.3017883,34.9325867l-0.8027954-1.1562195l1.0137024-0.8544922l0.5155945,0.9345093
			L36.3017883,34.9325867L36.3017883,34.9325867z"/>
		<path class="st1" d="M31.7001648,36.4247742l0.0498047,0.9003906c0,0,0.2500305,0,0.4746094-0.0751648
			c0.2001953-0.0752258,0.375-0.2246399,0.375-0.2246399l-0.0243835-0.4755859L31.7001648,36.4247742L31.7001648,36.4247742z"/>
		<path class="st4" d="M31.8397827,36.5770874l0.0342102,0.6094055c0.0849915-0.0078125,0.2011719-0.0254211,0.3096008-0.0605164
			c0.1142883-0.0429993,0.2217102-0.1171875,0.282196-0.1621094l-0.0166016-0.2988586L31.8397827,36.5770874L31.8397827,36.5770874z
			 M31.7499695,37.4560852h-0.1239624l-0.0664368-1.1836243l1.140625,0.1630249l0.0341797,0.6474915l-0.0488892,0.0419922
			c-0.007782,0.0068054-0.195282,0.1660156-0.4140015,0.2480164C32.0243835,37.4550781,31.7606812,37.4560852,31.7499695,37.4560852
			L31.7499695,37.4560852z"/>
		<path class="st1" d="M28.3500671,36.4247742l-0.050293,0.875c0,0-0.2245789,0-0.4496765-0.0497742
			c-0.2002258-0.0498047-0.375-0.1748352-0.375-0.1748352l-0.2500305-0.6005859L28.3500671,36.4247742L28.3500671,36.4247742z"/>
		<path class="st4" d="M27.5805969,36.9872742c0.0537109,0.0342102,0.1732788,0.1035156,0.3012085,0.1357117
			c0.1064758,0.0234985,0.2148743,0.0351868,0.2944946,0.0400696l0.0340881-0.6005859l-0.7919006,0.0351868L27.5805969,36.9872742
			L27.5805969,36.9872742z M28.4237976,37.4315796h-0.1240234c-0.0097961,0-0.2416992-0.0009155-0.4779663-0.0537109
			c-0.2251282-0.055603-0.4151306-0.1903992-0.4229126-0.1962891l-0.0307007-0.0214233l-0.3365173-0.8076782l1.4576111-0.0653992
			L28.4237976,37.4315796L28.4237976,37.4315796z"/>
		<polygon class="st1" points="24.3251953,33.7997742 23.6748047,34.7001648 22.9750977,33.5497742 23.4999695,32.9999695 
			24.3251953,33.7997742 		"/>
		<path class="st4" d="M23.1395874,33.5673828l0.5444946,0.8955078l0.4682007-0.647522l-0.6488953-0.6288757L23.1395874,33.5673828
			L23.1395874,33.5673828z M23.6654663,34.9374695l-0.8549805-1.4052734l0.6860962-0.7187195l1.0014038,0.9716797
			L23.6654663,34.9374695L23.6654663,34.9374695z"/>
		<path class="st1" d="M27.4501953,38.2245789c0,0.8506165,5.1493835,0.8506165,5.1493835,0v-1.1992188
			c0,0.6250305-5.1493835,0.5000305-5.1493835,0V38.2245789L27.4501953,38.2245789z"/>
		<path class="st4" d="M27.5810852,37.2997742v0.9248047c0,0.2128906,0.8496094,0.5068054,2.4438171,0.5068054
			c1.5941772,0,2.4438782-0.2939148,2.4438782-0.5068054v-0.8994141c-0.3652954,0.1689148-1.1113892,0.2539062-2.2314758,0.2539062
			c-0.6953125,0-1.3950195-0.0410156-1.9194336-0.1132812C27.9858093,37.4198914,27.7436829,37.3661804,27.5810852,37.2997742
			L27.5810852,37.2997742z M30.0249023,38.9940796c-0.6836243,0-1.3223267-0.0576172-1.7983093-0.1629944
			c-0.6109009-0.1337891-0.9078064-0.3320923-0.9078064-0.6065063v-1.1992188h0.2622986
			c0-0.014679-0.0048828-0.0243835-0.006897-0.0273743c0.1825867,0.2392883,2.4927063,0.4228821,4.0126953,0.2549133
			c0.8075867-0.0898438,0.881897-0.2324219,0.8828125-0.234314l0.2616882,0.0067749v1.1992188
			C32.7313843,38.9569702,30.4770813,38.9940796,30.0249023,38.9940796L30.0249023,38.9940796z"/>
		<path class="st1" d="M22.8500977,35.4501648c0.449707,2.2998047,4.6000977,2.3496094,4.6000977,2.3496094v-0.7744141
			c-0.1000977-0.3007812,0.074707-0.4003906,0.75-0.4999695c0.2749023-0.0253906,0.1498718-0.4258118,0.1498718-0.4258118
			s-1.800293,0.3251953-3.0751648-0.1748047C23.5497742,35.2245789,23.2998047,33.875,23.2998047,33.875
			S23.1747742,34.9247742,22.8500977,35.4501648L22.8500977,35.4501648z"/>
		<path class="st4" d="M22.9887695,35.4726562c0.4243164,1.8994141,3.6333313,2.1572266,4.3300171,2.1914062v-0.6191711
			c-0.0410156-0.1337891-0.0332031-0.2441101,0.022522-0.3340149c0.1083984-0.1766968,0.3783875-0.2470093,0.839386-0.3153992
			c0.0384827-0.0038757,0.0454102-0.0137024,0.0487976-0.0195007c0.0171204-0.0253906,0.0200195-0.0751953,0.0160828-0.1260071
			c-0.4403992,0.0645142-1.907196,0.2333984-3.0184937-0.2030945c-1.1264954-0.4570923-1.6470032-1.1767883-1.8798828-1.6562805
			C23.2782898,34.7284851,23.1636047,35.1669922,22.9887695,35.4726562L22.9887695,35.4726562z M27.5810852,37.9325867
			l-0.1328735-0.0010071c-0.0429382-0.0009155-1.066925-0.0166016-2.164032-0.3173218
			c-1.4823914-0.4072571-2.3687134-1.1464539-2.5629883-2.1387024l-0.0097961-0.0507812l0.026886-0.0438843
			c0.305603-0.4942017,0.4302063-1.5108032,0.4311218-1.5215149l0.2597961-0.007782
			c0.0097961,0.0516968,0.2632141,1.289978,1.894989,1.9520874c1.2250977,0.4804993,2.9848938,0.1699219,3.0025024,0.1669922
			l0.1141968-0.0205078l0.0342102,0.110321c0.0150757,0.0478821,0.0839844,0.2949829-0.0273132,0.4620056
			c-0.0361938,0.0537109-0.1069946,0.1210938-0.2359009,0.1328125c-0.1538086,0.0233765-0.5819702,0.0868835-0.6470032,0.1923828
			c-0.0057983,0.0097046-0.0228882,0.0379944,0.0097961,0.1357117l0.0064087,0.0204773V37.9325867L27.5810852,37.9325867z"/>
		<path class="st1" d="M37.1748047,35.4501648c-0.4248047,2.2998047-4.5752258,2.3496094-4.5752258,2.3496094v-0.7744141
			c0.0752258-0.3007812-0.0996094-0.4003906-0.7743835-0.4999695C31.5498047,36.5,31.7001648,36.0995789,31.7001648,36.0995789
			S33.5,36.4247742,34.7753906,35.9247742C36.4746094,35.2245789,36.6747742,33.875,36.6747742,33.875
			S36.8496094,34.9247742,37.1748047,35.4501648L37.1748047,35.4501648z"/>
		<path class="st4" d="M32.7313843,37.0400085v0.624054c0.6963196-0.0341797,3.9024048-0.2919922,4.304718-2.1904907
			c-0.1767273-0.3075867-0.3066101-0.75-0.3886108-1.0887756c-0.2149048,0.4804077-0.7099915,1.2030945-1.8222961,1.6611023
			c-1.1201172,0.4394836-2.5986023,0.2666016-3.0283203,0.2020874c-0.0097656,0.0566711-0.0097656,0.1094055,0.0057983,0.1328735
			c0.0020142,0.0028992,0.0059204,0.0107422,0.0342407,0.0136414c0.4648743,0.0683594,0.7353821,0.1376953,0.8515625,0.3124695
			C32.7479858,36.7958984,32.7616882,36.9052734,32.7313843,37.0400085L32.7313843,37.0400085z M32.4687805,37.9325867v-0.9237976
			l0.0039062-0.015625c0.0252991-0.0995789,0.0047913-0.1289062-0.0020142-0.1406555
			c-0.0653687-0.0976257-0.3895874-0.1572266-0.6650085-0.1972046c-0.1220703-0.0117188-0.1913757-0.0791016-0.2255859-0.1348267
			c-0.1064758-0.1689148-0.0214844-0.4179688-0.0029907-0.4667969l0.0380859-0.1025085l0.1083984,0.0195007
			c0.0176086,0.0029297,1.7784119,0.3125,3.0030212-0.1679688c1.6034851-0.6601257,1.8104858-1.8955078,1.8182983-1.9472351
			l0.2597961-0.0019836c0.0018921,0.0097961,0.1748047,1.0302734,0.4823914,1.5274048l0.0263977,0.0428772l-0.0097656,0.0498047
			c-0.1836243,0.9931946-1.0615234,1.733429-2.5410156,2.140686c-1.093811,0.3007202-2.1181946,0.3164062-2.1611023,0.3173218
			L32.4687805,37.9325867L32.4687805,37.9325867z"/>
		<path class="st1" d="M23.1747742,34.5751953c-1.1499023-0.6250305-0.2499695-1.2754211-0.1498718-3.1250305
			c0.175293,1.125,1.4501953,1.5996094,1.300293,2.3252258c-0.5254211,0.0243835-0.7754211-0.7754211-1.0253906,0.0996094
			L23.1747742,34.5751953L23.1747742,34.5751953z"/>
		<path class="st4" d="M23.0937805,32.0585938c-0.0600891,0.3886719-0.1479797,0.7147827-0.223175,0.9941101
			c-0.1826172,0.6777649-0.2680969,0.9941711,0.2084961,1.3125l0.094696-0.5263367
			c0.0839844-0.2939758,0.1773071-0.4404602,0.3115845-0.4892883c0.152832-0.0556946,0.2900085,0.0380859,0.4223022,0.1279297
			c0.0942993,0.0634766,0.190918,0.1288757,0.2974243,0.1552734c-0.0137329-0.2480164-0.2290344-0.4813843-0.4927368-0.7675781
			C23.495575,32.6288757,23.2597656,32.3721008,23.0937805,32.0585938L23.0937805,32.0585938z M23.2724915,34.7772827
			l-0.1601868-0.0868835c-0.8330078-0.453125-0.6987-0.9511108-0.4951172-1.7059937
			c0.1078796-0.4004517,0.242218-0.8994141,0.2767944-1.5410156l0.2608032-0.0137329
			c0.082489,0.530304,0.4375,0.9170227,0.7510071,1.2578125c0.3265991,0.3545227,0.6351929,0.6904297,0.5477905,1.1143188
			l-0.0205078,0.0996094l-0.1019592,0.0048828c-0.2408447,0.0116882-0.4239502-0.1123962-0.5704346-0.2119751
			c-0.0594788-0.0400391-0.1590881-0.1074219-0.1854858-0.0976257c-0.0028992,0.0009766-0.0658875,0.0263062-0.1470337,0.3076172
			L23.2724915,34.7772827L23.2724915,34.7772827z"/>
		<path class="st1" d="M36.8496094,34.5751953C38,33.9247742,37.0497742,33.2997742,36.9501648,31.4501648
			c-0.1747742,1.125-1.4247742,1.5996094-1.2753601,2.3252258c0.4999695,0.0243835,0.75-0.7754211,0.9999695,0.0996094
			l0.1748352,0.6747742V34.5751953L36.8496094,34.5751953z"/>
		<path class="st4" d="M36.3964844,33.3329773c0.030304,0,0.0605164,0.0049133,0.0917969,0.015625
			c0.1347046,0.0478821,0.2285156,0.195282,0.3125,0.4902649L36.9375,34.3661804
			c0.4726868-0.3232117,0.382782-0.6289062,0.1913757-1.2850952c-0.0829773-0.2852173-0.1806946-0.6192017-0.2450867-1.0224915
			c-0.1630859,0.3125-0.3936157,0.5683899-0.6065063,0.8027039c-0.257782,0.2870789-0.469696,0.5214844-0.4823914,0.7695923
			c0.0967102-0.0274048,0.1864929-0.0899048,0.2734985-0.1504211C36.1729126,33.407196,36.280304,33.3329773,36.3964844,33.3329773
			L36.3964844,33.3329773z M36.7187805,34.7997742v-0.2333984l-0.1708679-0.6582031
			c-0.0811462-0.2851868-0.1456299-0.3114929-0.147522-0.3125c-0.0274048-0.0087891-0.1270142,0.0625-0.1816101,0.0996094
			c-0.1416931,0.0995789-0.3183899,0.2226868-0.5507812,0.2109985l-0.1006165-0.0048828l-0.0205078-0.0996094
			c-0.0878906-0.4238892,0.2148132-0.7597961,0.5361023-1.1163025c0.3066101-0.3398132,0.6553345-0.7255249,0.7373352-1.2558289
			l0.2608032,0.0137329c0.0350952,0.6582031,0.1825562,1.1610718,0.2997742,1.5643921
			c0.2059937,0.7061157,0.3554077,1.2167969-0.4659119,1.6817017L36.7187805,34.7997742L36.7187805,34.7997742z"/>
		<path class="st4" d="M23.8749695,35.4247742L24,35.5253601l-0.2749023,0.2998047
			c-0.1104126,0.1201172-0.1366882,0.1992188-0.0604858,0.272522c0.0951843,0.0907898,0.1615906,0.0595093,0.2601624-0.0479126
			l0.300293-0.3251953l0.1001282,0.1005859l-0.2998047,0.3496094c-0.1625977,0.1895142-0.3139954,0.1465149-0.4403992,0.0282898
			c-0.1104126-0.1034851-0.1738892-0.2528992-0.0118103-0.4364929l0.3027954-0.3397827L23.8749695,35.4247742L23.8749695,35.4247742
			z"/>
		<polygon class="st4" points="24.375,35.8495789 24.5,35.9247742 24.4750977,36.5253906 24.75,36.0995789 24.875,36.1747742 
			24.4750977,36.8251953 24.3251953,36.7499695 24.3500977,36.1503906 24.0751953,36.5751648 23.9501953,36.5 24.375,35.8495789 		
			"/>
		<polygon class="st4" points="24.6000671,36.9003906 24.9501648,36.2001648 25.0751953,36.2753601 24.75,36.9501648 
			24.6000671,36.9003906 		"/>
		<path class="st4" d="M25.2489624,36.4755859c0.2588196,0.0898132,0.2744446,0.1885071,0.2041321,0.3661804
			c-0.0682983,0.1680298-0.1323242,0.2344055-0.3778992,0.1074219L25.2489624,36.4755859L25.2489624,36.4755859z
			 M25.1499023,36.2997742l-0.2759399,0.7246094l0.2759399,0.1005859c0.2572632,0.093811,0.3778992-0.0195007,0.4599915-0.2373047
			c0.082489-0.2206726,0.0463867-0.3837891-0.2109985-0.4872742L25.1499023,36.2997742L25.1499023,36.2997742z"/>
		<path class="st4" d="M26.0244141,36.7509766l0.0497742,0.2998047l-0.199707-0.0254211L26.0244141,36.7509766
			L26.0244141,36.7509766z M25.9750977,36.5751648L25.5249023,37.25l0.1742859,0.0507812l0.1000977-0.1748047l0.300293,0.0742188
			l0.0253906,0.1757812l0.1738281,0.0243835l-0.1738281-0.7998047L25.9750977,36.5751648L25.9750977,36.5751648z"/>
		<path class="st4" d="M26.5526733,36.7743835c0.2740173,0.0010071,0.3208008,0.0888977,0.3111267,0.2802734
			c-0.0087891,0.1816406-0.0489197,0.2646179-0.3218079,0.2236328L26.5526733,36.7743835L26.5526733,36.7743835
			L26.5526733,36.7743835z M26.4022827,36.6395874l-0.0267944,0.7754211l0.2944031,0.0058594
			c0.2734985,0.0049133,0.3511047-0.1405945,0.3579102-0.3729858c0.0068665-0.2363892-0.0805054-0.3789978-0.3573914-0.3925781
			L26.4022827,36.6395874L26.4022827,36.6395874L26.4022827,36.6395874z"/>
		<path class="st4" d="M29.2006836,37.8495789l0.1763,0.0019836c0.1469116,0,0.1191101,0.2226257,0.004303,0.2226257h-0.180603
			V37.8495789L29.2006836,37.8495789L29.2006836,37.8495789z M29.0249023,37.7245789v0.7998047h0.1757812v-0.2998047
			c0,0,0.1499023,0.0087891,0.2743835-0.0244141c0.098114-0.0253906,0.1665344-0.0878906,0.1685181-0.2431641
			c0.0024109-0.1523438-0.0859985-0.2324219-0.2392883-0.2324219h-0.3798828H29.0249023L29.0249023,37.7245789z"/>
		<path class="st4" d="M30,37.9003906l0.1245117,0.2997742h-0.2251282L30,37.9003906L30,37.9003906z M29.9247742,37.7245789
			l-0.3251953,0.7998047h0.1753235l0.0751648-0.1991882h0.3252258l0.0751953,0.1991882h0.1737976l-0.3246765-0.7998047h-0.1753235
			H29.9247742L29.9247742,37.7245789z"/>
		<polygon class="st4" points="30.4248047,38.375 30.8500977,37.8495789 30.4750977,37.8495789 30.4750977,37.7245789 
			31.0751953,37.7245789 31.0751953,37.8495789 30.6249695,38.375 31.0751953,38.375 31.0751953,38.5253601 30.4248047,38.5253601 
			30.4248047,38.375 		"/>
		<path class="st4" d="M32.9501953,36.8251953l0.1494141-0.0254211L33.1747742,37.25
			c0.0273132,0.1601868-0.0458679,0.2695007-0.1601868,0.3114929c-0.1297913,0.0478821-0.2949219,0.0038757-0.3143921-0.2119141
			l0.1249695-0.0244141c0.0293274,0.1289062,0.0811462,0.1396179,0.140625,0.1191406
			c0.0479126-0.015625,0.0722961-0.0908203,0.0596008-0.1689148L32.9501953,36.8251953L32.9501953,36.8251953z"/>
		<path class="st4" d="M33.2001648,36.7802734l0.147522-0.0282898l0.0682983,0.3739929
			c0.030304,0.1611023,0.0801086,0.2285156,0.1846008,0.210907c0.1289062-0.0223999,0.1434937-0.0957031,0.1152039-0.2382812
			l-0.0917969-0.3994141l0.1513977-0.0224304l0.1006165,0.4150391c0.0585938,0.2431946-0.0684204,0.3397827-0.2383118,0.3710938
			c-0.148407,0.0282898-0.3065796-0.0097961-0.358429-0.2490234L33.2001648,36.7802734L33.2001648,36.7802734z"/>
		<path class="st4" d="M33.9745789,37.1249695l0.125-0.0498047c0.0614929,0.110321,0.1572266,0.1045227,0.2315063,0.0713196
			c0.1035156-0.0458984,0.1152039-0.1358032,0.0643921-0.1659851c-0.0732117-0.0440063-0.2470703,0.0174866-0.3407898-0.0166321
			c-0.1112976-0.0409851-0.1602173-0.1034851-0.1542969-0.2001648c0.0068054-0.117218,0.1094055-0.1807251,0.2217102-0.2158203
			c0.125-0.039093,0.2479858-0.0253906,0.3280945,0.1268921l-0.1504211,0.0498047
			c-0.0487671-0.0820007-0.1112976-0.0780945-0.1669922-0.0516968c-0.0469055,0.0223999-0.1200867,0.063385-0.0809937,0.1298218
			c0.032196,0.0546875,0.2157898,0.0195923,0.3125,0.023468c0.1004944,0.0039062,0.1816101,0.0713196,0.1943054,0.1669922
			c0.0195007,0.1347351-0.030304,0.2070312-0.1856079,0.2675171C34.1815796,37.335907,34.0087891,37.2519836,33.9745789,37.1249695
			L33.9745789,37.1249695L33.9745789,37.1249695z"/>
		<polygon class="st4" points="34.6503906,36.5 34.4501953,36.5995789 34.4003906,36.4745789 34.9501953,36.2499695 35,36.3495789 
			34.7997742,36.4501953 35.0253906,36.9999695 34.9003906,37.0751648 34.6503906,36.5 		"/>
		<polygon class="st4" points="34.9746094,36.2245789 35.0995789,36.1503906 35.4501648,36.7997742 35.3251953,36.875 
			34.9746094,36.2245789 		"/>
		<path class="st4" d="M35.8251648,36.2753601l0.1494141-0.0507812c0.0713196,0.148407-0.0350952,0.4179993-0.2938843,0.4131165
			c-0.3789062-0.0088196-0.4200134-0.4258118-0.3603821-0.5635071c0.0995789-0.2314148,0.3808899-0.2275085,0.5048523-0.0996094
			l-0.1249695,0.1006165c-0.0791016-0.101593-0.2559204-0.0381165-0.2676086,0.0556946
			c-0.0195007,0.1522827,0.0479126,0.2948914,0.1846008,0.3622742
			C35.7323914,36.5497742,35.9111023,36.4062805,35.8251648,36.2753601L35.8251648,36.2753601L35.8251648,36.2753601z"/>
		<polygon class="st4" points="35.75,35.75 35.8749695,35.6503906 36.3251953,36.2499695 36.2001648,36.3495789 35.75,35.75 		"/>
		<path class="st4" d="M36.2743835,35.5507812l0.2510071,0.1239929L36.375,35.8251648L36.2743835,35.5507812L36.2743835,35.5507812z
			 M36.2245789,35.375l-0.1239929,0.1005554l0.2744141,0.75l0.1239624-0.1249695l-0.0741577-0.1494141L36.6493835,35.75
			l0.1504211,0.0751648l0.1260071-0.0995789L36.2245789,35.375L36.2245789,35.375z"/>
	</g>
</g>
</svg>
