<?xml version="1.0" encoding="utf-8"?>
<!-- Generator: Adobe Illustrator 22.1.0, SVG Export Plug-In . SVG Version: 6.00 Build 0)  -->
<svg version="1.1" id="Layer_1" xmlns="http://www.w3.org/2000/svg" xmlns:xlink="http://www.w3.org/1999/xlink" x="0px" y="0px"
	 viewBox="0 0 60 60" style="enable-background:new 0 0 60 60;" xml:space="preserve">
<style type="text/css">
	.st0{clip-path:url(#SVGID_2_);fill:#E51339;}
	.st1{clip-path:url(#SVGID_2_);fill:#4D85C5;}
	.st2{clip-path:url(#SVGID_2_);fill:#2CA837;}
	.st3{clip-path:url(#SVGID_2_);fill:#FDC72A;}
</style>
<g id="XMLID_1_">
	<g>
		<defs>
			<path id="SVGID_1_" d="M59,60H0.9999695C0.4477234,60,0,59.5526733,0,59V0.9999695c0-0.5522461,0.4477234-1,0.9999695-1H59
				c0.5526886,0,0.9999847,0.4477539,0.9999847,1V59C59.9999847,59.5526733,59.5526886,60,59,60L59,60z"/>
		</defs>
		<clipPath id="SVGID_2_">
			<use xlink:href="#SVGID_1_"  style="overflow:visible;"/>
		</clipPath>
		<polygon class="st0" points="0,-0.0307922 120.1229858,-0.0307922 120.1229858,60.0302734 0,60.0302734 0,-0.0307922 		"/>
		<polyline class="st1" points="0,60.0302734 120.1229858,60.0302734 120.1229858,29.9999695 		"/>
		<polyline class="st2" points="0,-0.0307922 120.1229858,-0.0307922 120.1229858,29.9999695 		"/>
		<path class="st3" d="M27.6581726,44.3144836c-1.2982788,0.3583984-2.0429993,1.3651733-2.0238953,2.3164062l6.3921204-0.0263977
			c0.0575867-1.0205078-0.7832336-1.9657898-2.0625-2.3378906c6.257782-0.1289062,11.695282-2.4736328,12.6825867-3.9775391
			c-0.9776001-0.4238892-2.1073914,0.2588196-2.914093,0.101532c1.914093-0.8837891,7.6455078-4.5947266,6.7138977-8.5722046
			c-0.7246094,2.2098999-2.9190063,4.0379944-3.8535156,4.5282898c2.1416016-3.2510071,5.0653992-6.6362915,2.5283203-9.2578125
			c0.1278992,1.5195007-0.9657898,3.1914368-1.4481812,3.3168945c1.2420959-3.4355774,2.4266663-7.7485657-0.2637024-10.5922852
			c0.352478,1.0278015,0.2098694,3.9272156-0.2764282,4.0570984c-0.1493835-2.335907-0.5487976-7.2494812-3.0087891-7.1796875
			c0.7812805,0.6958008,1.1231079,2.5942993,1.1405945,4.5116882c-0.5604858-1.313385-1.1972046-2.3026733-2.5604858-3.2723694
			c-1.1025085-2.1148376-3.0645142-3.8667297-5.0264282-5.1216431c0.2207031,1.5391235,0.4034424,2.753418,2.5518188,4.3496094
			c-1.1200867-0.0697937-2.2402039-2.1937866-3.4375-2.2523804c-0.9530945-0.0458984-1.7001953,0.862793-3.2568054,0.3397827
			c0.1723022,0.5137024,0.898407,0.7412109,1.0516968,1.1210938c-0.3334961,0.2305298-1.1244812-0.0355835-1.7827148-0.3783875
			c0.905304,1.2329102,2.3070984,1.9580078,3.4985352,1.7134094c1.4151001-0.2724915,2.9335632-0.1285095,4.3808899,0.695282
			c-0.3691101,0.1899109-1.8085938,0.1889343-2.7323914,0.0732117c0.8397827,0.8500977,1.4022827,1.4130859,2.8622742,1.4038086
			c1.304718-0.0083313,1.9883118-0.6953125,2.3232117-0.2700195c0.8174133,0.9692078,1.3681946,1.9379883,2.0518188,3.0786133
			c-1.5108337,0.1669922-1.0557251-1.7089844-2.7383423-2.6684265c-0.9462891,1.9570007,1.0869141,4.2773132,2.4717407,5.2417297
			c0.0184631,1.4711914,0.2333984,2.7020874,0.8573914,3.8221741c0.4208679,0.7896118,0.9647827,1.5977173,0.7597961,3.3799133
			c-0.8291016-0.6035156-1.6387024-2.6387024-1.3409119-4.2539062c-1.0371094,0.2827148-1.4422913,2.1064148-0.9530945,3.0244141
			c0.3642883,0.6983032,0.6083984,2.0361023,0.1875,2.6337891c-0.4100952,0.5566101-0.4541016,0.4950867-0.4481812,1.6903992
			c0.0145874,0.7149048-0.3848267,1.5606079-1.0362244,2.1503906c0.1358032-0.5038757,0.2911072-1.3710938,0.140686-1.9130859
			c-0.514679,0.8731079-1.8056641,1.7763977-2.2118835,2.7149048c-0.3984985,0.9403992-0.5,2.5693054-2.4317017,2.9443054
			c-2.4852905,0.4931946-3.342804,0.9237976-4.9414062,1.5780945c-0.1776733-1.2138062,0.3535156-3.7469788,1.3691101-3.6025085
			c0.9913025,0.1768188,3.9981079-1.0351868,2.921875-3.5683899c-0.211853,0.7989197-0.9208679,1.5772095-1.6864624,1.6123962
			c0.828064-1.0742798,2.3046875-2.1856079,1.5849915-3.9854126c-0.3995056,0.7646179-1.0284119,1.6826172-1.9824829,2.1992188
			c1.0224915-1.9589844,0.1191711-2.5449219-1.0947266-0.9316101c-0.4584961,0.6220093-0.7352905,1.8700867-1.0267944,3.4541016
			c-0.4770813-1.2881165-0.4454041-2.9844055-1.0102844-4.3622742c-0.5903015-1.4893188,0.7831726-1.8819275,1.4296875-1.7627258
			c1.5829773,0.4227905,4.2275085,0.4219055,4.0312195-2.1923828c-0.6836243,0.8842773-1.8818359,1.157196-3.1767273,0.8388672
			c1.4541321-1.0615845,2.6015015-3.0585938,0.9814148-4.1010742c-0.0537109,1.1054688-0.9096069,2.3451843-2.0517273,2.9159851
			c-0.2675781-0.9325867-0.2675781-1.9227905-0.0380859-3.0083008c-0.6381836,0.6714172-1.1039734,2.0684204-1.4745789,3.6567078
			c-0.0279236-1.5697937,0.2695007-2.7011108,0.4896851-3.5453796c0.3334961-1.2339172,1.1636047-0.4311218,2.4341125-0.340332
			c1.2226868,0.0697937,2.9071655-0.6063843,2.5849915-2.2650757c-0.4179993,0.656189-1.2745056,0.9115906-2.1504211,0.8421936
			c1.0537415-0.6390991,2.8916016-1.7744141,1.8838196-3.5205078c-0.4228821,0.6611938-0.5606079,1.2270813-1.7851868,1.4302063
			c0.320282-0.7383118,0.3739929-1.7822266,1.3251648-2.1953125c-1.6972656-0.3378906-2.6679688,0.7754211-3.1615906,2.5190125
			c-0.2001953-1.2088928-0.4384766-1.6542969-0.4859009-2.5385132c0.9169922-1.0180969,1.0127258-3.0107727-0.9725952-3.4560852
			c-0.1177063,1.0278015-0.082489,1.2724915,0.1430054,2.1094055c-0.9316101-0.5537109-2.2451172-0.8589172-3.1195984-0.0762024
			c0.5923157,0.6391907,1.5093079,1.202179,2.9229126,0.5048828c-0.3340149,1.0923157-1.2026978,0.905304-2.3955078,0.4888
			c0.7290039,1.3700867,1.6499023,1.6133118,2.6654968,1.4555054c0.5317078,1.4019165,0.5552063,2.4672852-0.9989929,4.5097961
			c0.0716858-1.2689819-0.0180969-2.214386-1.0264282-3.2406921c-0.8642883-0.8462219-1.5663757,0.0361023-0.2162781,1.917511
			c-0.8189087-0.6030884-1.7460938-1.8276978-2.0249023-3.0513c-0.269989,1.5121765-0.0269165,3.2943726,0.8099976,4.2934875
			c-0.3959045,0.422821-0.8460999-0.0449829-1.512207-1.0800781c0.2520142,3.3124695,1.6651306,3.9515991,3.5645142,3.2133789
			c0.0541992,1.8178101,0.0541992,3.5014038,0.1620789,5.6976929c-1.1073914-1.5927734-2.5111694-2.781189-3.2943726-3.0780945
			c-0.2432251,0.8905945,0.675293,2.0517273,1.1879883,2.7001953c-0.7832031-0.1621094-2.4844055-1.4579773-2.4844055-1.4579773
			c-0.1708984,1.4755859,1.737793,2.843689,2.9707031,3.4559631c-1.4491882-0.0624695-2.0884094-0.6122742-3.0244141-1.5116882
			c0.0180359,4.0957031,4.4375305,3.3838196,5.265625,2.7539062c0.1079102,2.0166016,0.2621765,4.3476868,0.3700867,6.3633118
			c-1.2494812-0.217804-1.1513977-0.592804-2.2201843-0.6924133c-2.9673157-0.1151733-5.3208008-3.5614929-6.1006165-6.0966797
			c-0.2235718,0.4169922-0.0458984,0.8534851-0.2505188,1.3661804c-0.4818726-1.2440796-1.0970764-2.8515015-1.9222717-3.5995789
			c0.2098694,0.7255859,0.2323914,1.4628906,0.1591187,2.8183899c-0.2832336-0.8779297-0.5468445-1.1474915-0.5659485-2.1787109
			c0.0181274-0.7910156,0.7637329-1.3760071,0.7227478-2.4892883c-0.0308228-0.8125-0.7720032-2.574707-0.8814087-3.9389038
			c-0.3589172,1.4042969-0.5844116,2.8841858-1.1341858,3.7533875c0.2733765-1.4994812,0.1854553-2.5342102,0.6478577-3.5429993
			c0.5342102-1.0625,0.9883118-2.0106812,0.6328125-3.0825195c-0.3413086,0.414032-0.2236023,0.7900391-1.0805054,1.795929
			c-0.1860962-1.093811,1.1079102-2.8447266,2.3632202-3.5487976c0.8857727-0.4664001,2.0019836-2.1353149,1.2743835-3.2789001
			c-0.8325195,0.5976868-1.2065125,1.4057922-2.382782,2.7867126c0.8388977-3.2803345,3.0190735-4.1382141,5.6293945-4.1494141
			c0.5776672-0.0030212,1.7416992-0.2114868,2.0683899-0.9756165c-0.7354126,0.2841187-1.6054993,0.3203125-2.3793945,0.1654968
			c0.5634766-0.827179,1.7494812-0.7196655,2.855011-0.7246094c0.8671875-0.0043945,2.2211914-0.121582,2.7684937-1.3568726
			c-1.058136,0.4584045-2.7075195,0.5537109-3.7466125,0.2290039c1.6519165-0.8560181,4.2398071-0.9478149,5.5668945-2.0713196
			c-1.5126953-1.1288757-5.2977905,0.2632141-7.6889038,1.9028015c0.6684265-0.6108093,1.7246094-1.6947937,2.3070984-2.5697937
			c-1.3075867-0.6269836-4.6142883,3.0365906-5.7533875,5.2134094c-1.0820007,0.6108093-1.5151062,1.5687866-1.9350891,2.2372742
			c0.5766907-1.9482727,0.6376953-3.3622742,1.1186829-4.9662781c-3.7090149,1.2767944-2.1674805,8.1297913-2.9740906,9.7690125
			c0.094696-1.8100891,0.0179749-4.1353149-0.7270813-5.3345032c-1.1426086,0.871582-1.2349243,6.0014648-0.1621094,10.2720032
			c-0.387207-1.1426086-1.1187134-2.2095032-1.3530273-3.6006165c-1.6908875,3.0834961,0.9912109,6.722229,3.2339172,9.5951843
			c-1.6885071-0.8788757-3.3580017-2.7704773-4.4541016-4.3563843c0.3027039,5.5195007,6.0658875,6.6660156,6.960907,8.0223999
			c-1.2144165-0.5653992-3.5361023-1.6835938-4.5214844-0.5116882c1.6040039,0.3700867,2.8832703,0.7987976,3.914093,1.4745789
			C19.8930969,43.2909851,22.7250671,44.1073608,27.6581726,44.3144836L27.6581726,44.3144836L27.6581726,44.3144836z"/>
	</g>
</g>
</svg>
