<?xml version="1.0" encoding="utf-8"?>
<!-- Generator: Adobe Illustrator 22.1.0, SVG Export Plug-In . SVG Version: 6.00 Build 0)  -->
<svg version="1.1" id="Layer_1" xmlns="http://www.w3.org/2000/svg" xmlns:xlink="http://www.w3.org/1999/xlink" x="0px" y="0px"
	 viewBox="0 0 60 60" style="enable-background:new 0 0 60 60;" xml:space="preserve">
<style type="text/css">
	.st0{clip-path:url(#SVGID_2_);fill:#425FA9;}
	.st1{clip-path:url(#SVGID_2_);fill:#FFD902;}
	.st2{clip-path:url(#SVGID_2_);fill:#B11917;}
	.st3{clip-path:url(#SVGID_2_);fill:#FFFFFF;}
	.st4{clip-path:url(#SVGID_2_);fill:#020203;}
	.st5{clip-path:url(#SVGID_2_);fill:#3F5EA8;}
	.st6{clip-path:url(#SVGID_2_);fill:#A71916;}
</style>
<g id="XMLID_1_">
	<g>
		<defs>
			<path id="SVGID_1_" d="M59,60H0.9999695C0.4477234,60,0,59.5526733,0,59V0.9999695c0-0.5522461,0.4477234-1,0.9999695-1H59
				c0.5526886,0,0.9999847,0.4477539,0.9999847,1V59C59.9999847,59.5526733,59.5526886,60,59,60L59,60z"/>
		</defs>
		<clipPath id="SVGID_2_">
			<use xlink:href="#SVGID_1_"  style="overflow:visible;"/>
		</clipPath>
		<polygon class="st0" points="-15,-0.0000305 74.9999847,-0.0000305 74.9999847,60 -15,60 -15,-0.0000305 		"/>
		<polygon class="st1" points="-15,11.2499695 74.9999847,11.2499695 74.9999847,48.75 -15,48.75 -15,11.2499695 		"/>
		<polygon class="st2" points="-15,14.9999695 74.9999847,14.9999695 74.9999847,44.9999695 -15,44.9999695 -15,14.9999695 		"/>
		<polygon class="st3" points="58.9276886,23.1420898 55.2851868,24.4277039 58.9276886,25.7133789 62.5702972,24.4277039 
			58.9276886,23.1420898 		"/>
		<path class="st4" d="M55.4364777,24.4277039l3.4912109,1.2319641l3.4911957-1.2319641l-3.4911957-1.2324219L55.4364777,24.4277039
			L55.4364777,24.4277039z M58.9276886,25.766571l-0.0166016-0.0058594l-3.7783051-1.3330078l3.7949066-1.339325
			l0.0165863,0.0063171l3.7774048,1.3330078L58.9276886,25.766571L58.9276886,25.766571z"/>
		<path class="st1" d="M3.8935547,23.9999695h52.6377411c0.2567902,0,0.4657898,0.1918945,0.4657898,0.4287109l0,0
			c0,0.2363281-0.2089996,0.4282227-0.4657898,0.4282227H3.8935547c-0.2573242,0-0.4658203-0.1918945-0.4658203-0.4282227l0,0
			C3.4277344,24.191864,3.6362305,23.9999695,3.8935547,23.9999695L3.8935547,23.9999695z"/>
		<path class="st4" d="M3.8935547,24.050293c-0.2294922,0-0.4155273,0.1698914-0.4155273,0.3783875
			s0.1860352,0.3778992,0.4155273,0.3778992h52.6377411c0.2284851,0,0.4149933-0.1694031,0.4149933-0.3778992
			s-0.1865082-0.3783875-0.4149933-0.3783875H3.8935547L3.8935547,24.050293z M56.5312958,24.907196H3.8935547
			c-0.2846985,0-0.5166016-0.2148132-0.5166016-0.4785156c0-0.2640991,0.2319031-0.4790039,0.5166016-0.4790039h52.6377411
			c0.2840881,0,0.5155945,0.2149048,0.5155945,0.4790039C57.0468903,24.6923828,56.8153839,24.907196,56.5312958,24.907196
			L56.5312958,24.907196z"/>
		<path class="st1" d="M54.8583832,24.8563843c0.2138977,0,0.4287109-0.2142944,0.4287109-0.4286804
			c0-0.2138367-0.2148132-0.4282227-0.4287109-0.4282227 M55.2870941,24.8563843
			c0.2138977,0,0.4286957-0.2142944,0.4286957-0.4286804c0-0.2138367-0.214798-0.4282227-0.4286957-0.4282227
			 M55.7157898,24.8563843c0.2138977,0,0.4286957-0.2142944,0.4286957-0.4286804
			c0-0.2138367-0.2138062-0.4282227-0.4286957-0.4282227"/>
		<path class="st4" d="M54.8583832,24.9067078v-0.1005249c0.1865082,0,0.3778992-0.190979,0.3778992-0.378479
			c0-0.1870117-0.1903992-0.3779297-0.3778992-0.3779297v-0.1005859c0.2412109,0,0.4785156,0.2368164,0.4785156,0.4785156
			S55.0995941,24.9067078,54.8583832,24.9067078L54.8583832,24.9067078z M55.2870941,24.9067078v-0.1005249
			c0.1875,0,0.3778992-0.190979,0.3778992-0.378479c0-0.1870117-0.1903992-0.3779297-0.3778992-0.3779297v-0.1005859
			c0.2421875,0,0.4794922,0.2368164,0.4794922,0.4785156S55.5292816,24.9067078,55.2870941,24.9067078L55.2870941,24.9067078z
			 M55.7157898,24.9067078v-0.1005249c0.1875,0,0.378891-0.190979,0.378891-0.378479
			c0-0.1870117-0.191391-0.3779297-0.378891-0.3779297v-0.1005859c0.2422028,0,0.4795074,0.2368164,0.4795074,0.4785156
			S55.9579926,24.9067078,55.7157898,24.9067078L55.7157898,24.9067078z"/>
		<polygon class="st3" points="55.4364777,25.714386 51.793869,26.9999695 55.4364777,28.2855835 59.0800934,26.9999695 
			55.4364777,25.714386 		"/>
		<path class="st4" d="M51.945282,26.9999695l3.492218,1.2324219l3.4911957-1.2324219L55.4375,25.7680664L51.945282,26.9999695
			L51.945282,26.9999695z M55.4375,28.339386l-0.0176086-0.0058899l-3.777298-1.3335266L55.4375,25.6611023l0.0165863,0.0058594
			l3.777298,1.3330078L55.4375,28.339386L55.4375,28.339386z"/>
		<path class="st1" d="M0.402832,26.5722656h52.6381531c0.2569122,0,0.4657898,0.1918945,0.4657898,0.4287109l0,0
			c0,0.2368164-0.2088776,0.4287109-0.4657898,0.4287109H0.402832c-0.2573242,0-0.4658203-0.1918945-0.4658203-0.4287109l0,0
			C-0.0629883,26.7641602,0.1455078,26.5722656,0.402832,26.5722656L0.402832,26.5722656z"/>
		<path class="st4" d="M0.402832,26.6229858c-0.2290344,0-0.4155273,0.1694946-0.4155273,0.3779907
			S0.1737976,27.379364,0.402832,27.379364h52.6381531c0.2285156,0,0.4151154-0.1698914,0.4151154-0.3783875
			s-0.1865997-0.3779907-0.4151154-0.3779907H0.402832L0.402832,26.6229858z M53.0409851,27.4799805H0.402832
			c-0.2846985,0-0.5161438-0.2148743-0.5161438-0.4790039c0-0.2641907,0.2314453-0.4790039,0.5161438-0.4790039h52.6381531
			c0.2842102,0,0.5155945,0.2148132,0.5155945,0.4790039C53.5565796,27.2651062,53.3251953,27.4799805,53.0409851,27.4799805
			L53.0409851,27.4799805z"/>
		<path class="st1" d="M51.3672028,27.4291687c0.214798,0,0.4286957-0.214386,0.4286957-0.4286804
			c0-0.214386-0.2138977-0.4287109-0.4286957-0.4287109 M51.7968903,27.4291687c0.2137756,0,0.4287109-0.214386,0.4287109-0.4286804
			c0-0.214386-0.2149353-0.4287109-0.4287109-0.4287109 M52.2256012,27.4291687c0.2138977,0,0.4286957-0.214386,0.4286957-0.4286804
			c0-0.214386-0.214798-0.4287109-0.4286957-0.4287109"/>
		<path class="st4" d="M51.3672028,27.4794922v-0.1011047c0.1875,0,0.378891-0.190918,0.378891-0.3778992
			c0-0.1875-0.191391-0.378418-0.378891-0.378418v-0.1005859c0.2421875,0,0.4794922,0.2373047,0.4794922,0.4790039
			S51.6093903,27.4794922,51.3672028,27.4794922L51.3672028,27.4794922z M51.7968903,27.4794922v-0.1011047
			c0.1875,0,0.3778992-0.190918,0.3778992-0.3778992c0-0.1875-0.1903992-0.378418-0.3778992-0.378418v-0.1005859
			c0.2412109,0,0.4785156,0.2373047,0.4785156,0.4790039S52.0381012,27.4794922,51.7968903,27.4794922L51.7968903,27.4794922z
			 M52.2256012,27.4794922v-0.1011047c0.1875,0,0.3778992-0.190918,0.3778992-0.3778992
			c0-0.1875-0.1903992-0.378418-0.3778992-0.378418v-0.1005859c0.2421875,0,0.4794922,0.2373047,0.4794922,0.4790039
			S52.4677887,27.4794922,52.2256012,27.4794922L52.2256012,27.4794922z"/>
		<path class="st1" d="M-5.3945312,29.3578796h71.5879059c0.3496094,0,0.633728,0.2881165,0.633728,0.6430969l0,0
			c0,0.3549805-0.2841187,0.6426086-0.633728,0.6426086H-5.3945312c-0.3500977,0-0.6338196-0.2876282-0.6338196-0.6426086l0,0
			C-6.0283508,29.6459961-5.7446289,29.3578796-5.3945312,29.3578796L-5.3945312,29.3578796z"/>
		<path class="st4" d="M-5.3945312,29.4120789c-0.3198242,0-0.5796204,0.2641907-0.5796204,0.5888977
			s0.2597961,0.5888062,0.5796204,0.5888062h71.5879059c0.3193054,0,0.5791168-0.2640991,0.5791168-0.5888062
			s-0.2598114-0.5888977-0.5791168-0.5888977H-5.3945312L-5.3945312,29.4120789z M66.1933746,30.6977844H-5.3945312
			c-0.3793945,0-0.6875-0.3125-0.6875-0.6968079c0-0.3842773,0.3081055-0.6968079,0.6875-0.6968079h71.5879059
			c0.3789215,0,0.6875153,0.3125305,0.6875153,0.6968079C66.8808899,30.3852844,66.5722961,30.6977844,66.1933746,30.6977844
			L66.1933746,30.6977844z"/>
		<path class="st3" d="M51.4276886,29.9999695c-4.286087,4.2852173-9.9999847,12.8564148-21.429184,12.8564148
			c-10,0-17.1421204-8.5711975-21.4291687-12.8564148c4.2856445-4.2861023,11.4282532-12.8573914,21.4291687-12.8573914
			C41.4267883,17.1425781,47.1405945,25.7138672,51.4276886,29.9999695L51.4276886,29.9999695z"/>
		<path class="st4" d="M8.6762695,29.9999695c0.4316101,0.4326172,0.8925781,0.9087219,1.3799438,1.4111328
			c4.3866577,4.5273743,11.0155945,11.3701782,19.9422913,11.3701782c9.6274719,0,15.1977844-6.1171875,19.2651672-10.5830994
			c0.7236023-0.7948914,1.4082184-1.5463257,2.0566254-2.1982117c-0.648407-0.6522827-1.3339996-1.4047852-2.0576019-2.1996765
			c-4.0674133-4.4658203-9.6387024-10.5820007-19.2641907-10.5820007c-8.929718,0-15.5595093,6.8446655-19.9467163,11.3739624
			C9.5663757,29.0937805,9.1064148,29.5683899,8.6762695,29.9999695L8.6762695,29.9999695z M29.9985046,42.9325867
			c-8.9907227,0-15.6469116-6.8701172-20.0512695-11.4160156c-0.5063171-0.523407-0.985321-1.0170898-1.4311523-1.4628906
			l-0.0536804-0.0537109l0.0536804-0.0536804c0.4448547-0.4443054,0.9219055-0.9375,1.4272766-1.4590149
			c4.4047241-4.5477905,11.0615234-11.4204102,20.0551453-11.4204102c9.6929016,0,15.2895813,6.1450195,19.3754883,10.6313171
			c0.7431946,0.8160095,1.4443817,1.5859985,2.1064911,2.2481079l0.0537109,0.0536804l-0.0537109,0.0537109
			c-0.6611938,0.6616211-1.3623047,1.4317017-2.1045074,2.2460938
			C45.289093,36.7870789,39.6923828,42.9325867,29.9985046,42.9325867L29.9985046,42.9325867z"/>
		<path class="st4" d="M28.5028992,21.6152039c1.1401978,1.2822876,0.1879883,1.7993774,1.394989,1.8832703
			c1.2730103,0.0933228,0.5513,1.355011,1.6216125,1.3990173c0.7490845,0.0326843-0.0742188,3.0223999,0.6455078,4.0091858
			c0.734375,1.0288086,1.3495789,0.3013,1.3622742,1.0444946c0.0126953,0.7685242-1.9979858,0.690918-2.0331726,3.0585938
			c-0.0586243,1.3642273-1.6961975,1.4511108-1.7744446,2.3300171c-0.0970764,0.8251953,3.2256165,1.289093,3.1817017,2.0283813
			c-0.0458679,0.7363281-3.5883789,0.6210938-3.7426758,1.4619141c-0.0791016,0.7549133,4.8666992,1.3730164,5.2651062,3.5566101
			c-0.7383118,0.2411804-2.8379211,0.4687805-4.425293,0.469696C20,42.8642578,12.8563843,34.2841797,8.5712891,29.9989929
			C12.8569031,25.7133789,19.9995117,17.141571,30,17.141571c0,0-2.9683228,2.7124023-1.4956055,4.4727173L28.5028992,21.6152039
			L28.5028992,21.6152039z"/>
		<path class="st4" d="M21.246582,25.4281921v3.4281921 M19.167511,25.4281921v3.4281921 M17.0897827,28.8563843v-3.4281921"/>
		<path class="st3" d="M17.4364929,28.8563843h-0.6928101v-3.4287109h0.6928101V28.8563843L17.4364929,28.8563843z
			 M19.5137024,28.8563843h-0.6924133v-3.4287109h0.6924133V28.8563843L19.5137024,28.8563843z M21.5927734,28.8563843h-0.6929016
			v-3.4287109h0.6929016V28.8563843L21.5927734,28.8563843z"/>
		<path class="st4" d="M21.246582,31.1425781v3.4287109 M19.167511,31.1425781v3.4287109 M17.0897827,34.5712891v-3.4287109"/>
		<path class="st3" d="M17.4364929,34.5712891h-0.6928101v-3.4287109h0.6928101V34.5712891L17.4364929,34.5712891z
			 M19.5137024,34.5712891h-0.6924133v-3.4287109h0.6924133V34.5712891L19.5137024,34.5712891z M21.5927734,34.5712891h-0.6929016
			v-3.4287109h0.6929016V34.5712891L21.5927734,34.5712891z"/>
		<path class="st4" d="M27.4804993,25.4281921v3.4281921 M25.4013672,25.4281921v3.4281921 M23.3237,28.8563843v-3.4281921"/>
		<path class="st3" d="M23.6704102,28.8563843h-0.6929016v-3.4287109h0.6929016V28.8563843L23.6704102,28.8563843z
			 M25.7479858,28.8563843h-0.6927795v-3.4287109h0.6927795V28.8563843L25.7479858,28.8563843z M27.8266907,28.8563843h-0.6924133
			v-3.4287109h0.6924133V28.8563843L27.8266907,28.8563843z"/>
		<path class="st4" d="M27.4804993,31.1425781v3.4287109 M25.4013672,31.1425781v3.4287109 M23.3237,34.5712891v-3.4287109"/>
		<path class="st3" d="M23.6704102,34.5712891h-0.6929016v-3.4287109h0.6929016V34.5712891L23.6704102,34.5712891z
			 M25.7479858,34.5712891h-0.6927795v-3.4287109h0.6927795V34.5712891L25.7479858,34.5712891z M27.8266907,34.5712891h-0.6924133
			v-3.4287109h0.6924133V34.5712891L27.8266907,34.5712891z"/>
		<path class="st4" d="M36.960907,25.4281921v3.4281921 M34.8817749,25.4281921v3.4281921 M32.8037109,28.8563843v-3.4281921"/>
		<path class="st4" d="M33.1503906,28.8563843h-0.6933899v-3.4287109h0.6933899V28.8563843L33.1503906,28.8563843z
			 M35.227478,28.8563843h-0.6922913v-3.4287109h0.6922913V28.8563843L35.227478,28.8563843z M37.3065796,28.8563843h-0.6922913
			v-3.4287109h0.6922913V28.8563843L37.3065796,28.8563843z"/>
		<path class="st4" d="M36.960907,31.1425781v3.4287109 M34.8817749,31.1425781v3.4287109 M32.8037109,34.5712891v-3.4287109"/>
		<path class="st4" d="M33.1503906,34.5712891h-0.6933899v-3.4287109h0.6933899V34.5712891L33.1503906,34.5712891z
			 M35.227478,34.5712891h-0.6922913v-3.4287109h0.6922913V34.5712891L35.227478,34.5712891z M37.3065796,34.5712891h-0.6922913
			v-3.4287109h0.6922913V34.5712891L37.3065796,34.5712891z"/>
		<path class="st4" d="M43.1943054,25.4281921v3.4281921 M41.1152039,25.4281921v3.4281921 M39.0380859,28.8563843v-3.4281921"/>
		<path class="st4" d="M39.3847656,28.8563843h-0.6933899v-3.4287109h0.6933899V28.8563843L39.3847656,28.8563843z
			 M41.4618835,28.8563843h-0.6923828v-3.4287109h0.6923828V28.8563843L41.4618835,28.8563843z M43.5409851,28.8563843h-0.6932983
			v-3.4287109h0.6932983V28.8563843L43.5409851,28.8563843z"/>
		<path class="st4" d="M43.1943054,31.1425781v3.4287109 M41.1152039,31.1425781v3.4287109 M39.0380859,34.5712891v-3.4287109"/>
		<path class="st4" d="M39.3847656,34.5712891h-0.6933899v-3.4287109h0.6933899V34.5712891L39.3847656,34.5712891z
			 M41.4618835,34.5712891h-0.6923828v-3.4287109h0.6923828V34.5712891L41.4618835,34.5712891z M43.5409851,34.5712891h-0.6932983
			v-3.4287109h0.6932983V34.5712891L43.5409851,34.5712891z"/>
		<path class="st5" d="M61.7020874,29.4902039c-0.648407,1.1240845,0.4990997-0.3740234,3.2978973,1.5082703
			c0.5195007,0.3492126,0.972702,1.2730103,0.972702,1.9136047c-0.131897-0.0878906-0.2294922-0.2841797-0.375-0.4111023
			c-0.2032013,0.2030945,0.1942902,1.1367188,0.2518921,1.5771179c-0.4374847-0.2451172-0.3954926-0.360321-0.5410004-0.6621094
			c0.0292969,0.3642883-0.0751953,1.3661804,0.0996094,1.7519836c-0.3457031-0.0986938-0.3223114-0.3759766-0.5018921-0.4316711
			c0.121994,0.4365845-0.1075134,0.9121094-0.0469208,1.4032898c-0.2011871-0.1991882-0.4159851-0.3554077-0.5097961-0.4364929
			c-0.0155792,0.2344055-0.3876801,0.8486938-0.3954926,1.069397c-0.1719055-0.1026001-0.217804-0.2637024-0.246109-0.3731079
			c-0.2129059,0.2676086-0.9687042,1.2539062-1.0166016,1.5546875c-0.5819855-0.5136719-2.0731964-1.7655945-2.2675934-2.4306946
			c-0.1717987,0.3769836-0.4198914,0.5049133-0.911087,0.780304c-0.1942902-1.0537109-0.9198914-2.2373047-0.5312958-3.1405945
			c-0.2752991,0.1630859-0.5019226,0.3261719-0.7763062,0.5273132c0.2607117-1.5253906,1.5878906-3.3144226,3.4979858-4.2001953
			H61.7020874L61.7020874,29.4902039z"/>
		<path class="st4" d="M60.4364777,35.3397827l0.0489044,0.1661072c0.1708984,0.5838928,1.4012909,1.6590881,2.0615082,2.2372742
			c0.0399933,0.0341187,0.0771027,0.0664368,0.1112976,0.0976257c0.1737976-0.4414062,0.9628906-1.4355164,0.9989929-1.4804077
			l0.0801086-0.1005859l0.032196,0.1239624c0.0196075,0.0732422,0.0489197,0.1855164,0.1407013,0.2744141
			c0.0341034-0.1210938,0.1063995-0.2792969,0.1815948-0.4443054c0.0917969-0.202179,0.1875-0.4101868,0.1943054-0.514679
			l0.0087891-0.1278992l0.0967102,0.0829773c0.0254059,0.022522,0.0605011,0.0498047,0.1016083,0.0830078
			c0.0810089,0.0654297,0.1844788,0.147522,0.2920074,0.2441101c-0.0020142-0.1756897,0.0233917-0.3466187,0.0487823-0.5136108
			c0.0371094-0.2519836,0.0731964-0.4902649,0.0098114-0.7138977l-0.031311-0.1132812l0.1123047,0.0341797
			c0.097702,0.030304,0.1475067,0.1083984,0.1962891,0.1835938c0.0449219,0.0703125,0.0918121,0.1426086,0.1815948,0.1963196
			c-0.0760956-0.3018188-0.0653992-0.7685852-0.0565796-1.1542969c0.003891-0.1983032,0.0077972-0.3691101-0.0009918-0.4785156
			l0.1210785-0.0331726c0.031311,0.0643921,0.0536957,0.1200867,0.0742035,0.1708679
			c0.0634918,0.1552124,0.1026001,0.2509155,0.3213043,0.3916321c-0.027298-0.1231079-0.0682983-0.2696228-0.1112976-0.420929
			c-0.1327972-0.4697876-0.2588043-0.9130859-0.097702-1.0751953l0.0420074-0.0419922l0.0458984,0.039978
			c0.0712891,0.0625305,0.1298828,0.1377258,0.1864929,0.2110291c0.0245056,0.031189,0.0478973,0.0625,0.0722961,0.0907898
			c-0.0653839-0.6142883-0.4891968-1.4024048-0.9346008-1.703125c-1.5791016-1.0620728-2.6151886-1.0366821-3.113205-1.0248718
			c-0.2070923,0.0053101-0.3222961,0.0082703-0.3710938-0.0757141c-0.039093-0.0654907-0.0186005-0.1493835,0.0674133-0.3144836
			c-1.6192169,0.8179016-2.9208984,2.382782-3.249115,3.9062805c0.2256165-0.164093,0.4199982-0.2988892,0.6493988-0.4346008
			l0.1699982-0.1005859l-0.078186,0.1806946c-0.2528992,0.5888062-0.0048065,1.3291016,0.2333984,2.0448914
			c0.1074982,0.3212891,0.2187958,0.6523132,0.2852173,0.9707336c0.4335938-0.242218,0.6532898-0.3691101,0.8065796-0.7070312
			L60.4364777,35.3397827L60.4364777,35.3397827z M62.7362823,38.0800781l-0.0879059-0.077179
			c-0.0545807-0.0488281-0.1170959-0.1035156-0.1854858-0.1631165c-0.6239929-0.5448914-1.7471008-1.5272827-2.0479126-2.1611023
			c-0.1698914,0.2881165-0.4129944,0.4238281-0.8134003,0.648407l-0.135788,0.0762024l-0.0166168-0.0878906
			c-0.0614929-0.3369141-0.1815796-0.6953125-0.2968903-1.0419922c-0.2245941-0.671814-0.4560089-1.3652344-0.2910004-1.960907
			c-0.2040863,0.1288757-0.3915863,0.2637024-0.618103,0.4296875l-0.128006,0.0927734l0.0264282-0.155304
			c0.2841797-1.6620789,1.7274933-3.4023743,3.5155945-4.2387695l0.0087891-0.0151062h0.0370941l0.0166016,0.0737
			l0.0381012,0.0224915c-0.0497894,0.0874329-0.1835938,0.3193054-0.1670074,0.3642273
			c0.0196075,0.0185547,0.1465149,0.0151672,0.2569122,0.0126953c0.5126953-0.012207,1.5752106-0.0385132,3.1884003,1.0463867
			c0.5234985,0.3526001,1,1.2901001,1,1.9667969v0.1201172l-0.0995941-0.0664062
			c-0.0791016-0.0537109-0.1435089-0.1357117-0.2108917-0.2236328c-0.0361176-0.0458679-0.0733032-0.09375-0.1123199-0.1366882
			c-0.042984,0.171814,0.0722046,0.5810242,0.1600952,0.8896179c0.061615,0.2167969,0.1202087,0.421875,0.1397247,0.5751953
			l0.0165863,0.1260071l-0.1113129-0.0615234c-0.2802734-0.1572876-0.3759918-0.2695923-0.4413757-0.4003601
			c-0.0010071,0.0536499-0.0020142,0.11026-0.003006,0.1688843c-0.0088043,0.4159851-0.0215149,0.9854126,0.0927887,1.2382812
			l0.0566101,0.1260071l-0.1328125-0.0371094c-0.2245789-0.0644836-0.3134918-0.202179-0.3778992-0.3027649
			c-0.003891-0.0058289-0.007782-0.0117188-0.0106812-0.0175476c0.0155792,0.1914368-0.0127106,0.3857422-0.0411072,0.5761414
			c-0.0312042,0.2109985-0.0643921,0.4296875-0.0371094,0.6455078l0.0225067,0.1835938l-0.1317902-0.1299133
			c-0.1426239-0.1416016-0.2920074-0.2607117-0.4013977-0.3475952c-0.0068054-0.0058899-0.0147095-0.0116882-0.0215149-0.0176086
			c-0.035202,0.1231079-0.1073914,0.281311-0.1826019,0.4462891c-0.0878906,0.1924133-0.1875,0.4101868-0.191391,0.5088196
			l-0.0039062,0.1083984l-0.092804-0.0556946c-0.1357117-0.0820007-0.2011871-0.1962891-0.2383118-0.2929077
			c-0.3680725,0.4716187-0.8915863,1.2041016-0.9276733,1.4295959L62.7362823,38.0800781L62.7362823,38.0800781z"/>
		<path class="st6" d="M63.6864929,35.0341797c-0.1777039-0.3701172-0.3652039-0.4638977-0.4803925-0.7012024
			c-0.2032166-0.4179993-0.2032166-0.7802734-0.4239044-0.6875c-0.2217102,0.092804-0.239212,0.2822266-0.0028992,0.6865234
			C63.0155792,34.7372742,63.1386871,34.8104858,63.6864929,35.0341797L63.6864929,35.0341797z M63.9257812,33.1337891
			c-0.3378906-0.2568054-0.535202-0.273407-0.7528992-0.4385071c-0.3838043-0.2890015-0.578186-0.5986023-0.7012024-0.4453125
			c-0.1239777,0.1543274-0.0361786,0.3222961,0.3662109,0.5888977
			C63.2401886,33.1054688,63.3759918,33.1259766,63.9257812,33.1337891L63.9257812,33.1337891L63.9257812,33.1337891z
			 M62.4872894,37.1464844c-0.1083984-0.5733032-0.027298-0.827179-0.0967102-1.1963196
			c-0.1200867-0.6493835-0.3583832-1.0761719-0.1289062-1.1356812c0.2285156-0.0596008,0.367218,0.1502991,0.4541016,0.8085022
			C62.8018036,36.2812805,62.7567902,36.4628601,62.4872894,37.1464844L62.4872894,37.1464844L62.4872894,37.1464844z
			 M61.1034851,36.3417969c-0.0341949-0.4102173,0.0850067-0.5811157,0.0635071-0.8457336
			c-0.0371094-0.4647827-0.2275085-0.7831726,0.0194855-0.8065796c0.2471161-0.022522,0.3633118,0.1366882,0.3633118,0.6044006
			c0.0010071,0.4687805-0.0713043,0.5917969-0.4453125,1.0479126H61.1034851L61.1034851,36.3417969z M59.2812805,35.0575867
			c0.2695007-0.5380859,0.5175018-0.7090149,0.6923065-1.0566101c0.3076935-0.609375,0.351593-1.094696,0.6192017-1.0234985
			c0.2684937,0.0713196,0.2675934,0.3213196-0.0791016,0.9208984
			C60.1659851,34.4979858,60.0009918,34.6259766,59.2812805,35.0575867L59.2812805,35.0575867z"/>
		<path class="st5" d="M-2.8828125,30.5731812c-0.0361328-0.3276062,0.0341797-0.3666992-0.167511-0.613678
			c0.2934875,0.1224976,0.3042297,0.4486694,0.6611633,0.2172852c0.1308594-0.0679016,0.1879883-0.0698853,0.0287781-0.4335938
			c0.3716125,0.0174866,1.5893555,0.434967,1.7841797,0.4442749c0.5122375,0.0239258,1.4468079-0.5375977,2.0957336,0.152832
			c0.6225586,0.6293945,0.4145508,1.2826843,0.4145508,2.1537781c-0.2500305-0.1201172-0.1293945-0.1787109-0.39505-0.4902039
			c0.198761,0.7617188-0.0107117,2.1357117-0.0107117,2.9434204c-0.1020813-0.1944275-0.0869141-0.1104126-0.1870422-0.311615
			c-0.2655945,0.7373047-0.5834656,0.8887024-0.5834656,1.7608032c-0.0962219-0.3417969-0.003418-0.2695007-0.1103516-0.4492188
			c-0.2578125,0.5595398-1.9887695,1.0381165-1.3218079,1.6025085c-0.6020508-0.352478-0.8661804-0.3153992-1.1391296-0.6337891
			c-0.1177063,0.0762024-0.2109375,0.219696-0.3203125,0.4169922c-1.0586243-0.4873047-0.6801758-1.5380859-1.5092773-2.2391968
			c-0.1435547,0.2938843-0.0781555,0.2518921-0.2333984,0.7304077c-0.1679688-0.6650085-0.2138977-1.0878906-0.4023438-1.5770874
			c-0.1630859,0.2714844-0.148468,0.1669922-0.4443359,0.5770874c-0.1225586-0.8105164-0.3217773-1.0010071-0.2426758-1.5371094
			c-0.3144531,0.2217102-0.1089172,0.1318054-0.4228516,0.4042969c0.297821-2.0762024,1.5834961-3.6098938,2.5063477-3.1185913
			L-2.8828125,30.5731812L-2.8828125,30.5731812z"/>
		<path class="st4" d="M-1.7978821,36.8114929l0.0454102,0.0527649c0.1464844,0.170929,0.2900391,0.2295227,0.5073547,0.3193054
			c0.0976257,0.0410156,0.2109375,0.0878906,0.3427734,0.1523438c-0.0039062-0.0234375-0.0049133-0.047821-0.0029297-0.0722351
			c0.0185242-0.2792969,0.3847351-0.5137024,0.7724609-0.7607727c0.3036804-0.1932983,0.6176758-0.3935242,0.7079773-0.5898132
			l0.0635071-0.1376953l0.078125,0.1308899c0.0004578,0.000885,0.0014648,0.0028992,0.0019226,0.0039062
			c0.0556641-0.2911072,0.160675-0.4902954,0.2763977-0.710022c0.0854187-0.1620789,0.1820984-0.3457031,0.2709961-0.5917969
			l0.063446-0.1767883l0.0834961,0.1679993c0.0171204,0.0351868,0.030304,0.0596008,0.0415344,0.0791016
			c0.0078125-0.1972961,0.0224609-0.4150085,0.0375671-0.6416016c0.0478821-0.7059937,0.101593-1.5057983-0.0307617-2.0137024
			l0.1387024-0.0712891c0.1225586,0.1435852,0.1679688,0.2383118,0.2006836,0.3066711
			c0.019043,0.0391235,0.0322266,0.0664368,0.0551758,0.0908203c0.0029297-0.1307983,0.0092773-0.2568054,0.0161133-0.3799133
			c0.0322266-0.6151733,0.0576172-1.1005859-0.409668-1.5731812c-0.4296875-0.4570007-0.9892578-0.3280945-1.4829102-0.2138977
			c-0.2050781,0.0473938-0.3989563,0.0913086-0.559082,0.0849915c-0.0869141-0.0043945-0.309082-0.0674133-0.6645813-0.1703796
			c-0.3373718-0.0977173-0.7436218-0.2154236-0.9902344-0.2578125c0.0898743,0.2367859,0.0620422,0.3173218-0.0971375,0.3978882
			l-0.0209961,0.0107117c-0.2382812,0.1548157-0.3676758,0.0839844-0.4711914-0.0107117
			c0.0043945,0.0371094,0.0063171,0.0762024,0.0073242,0.1221313c0.0014648,0.0463562,0.0033875,0.0980835,0.0092468,0.1625977
			l0.0805664,0.0428772l-0.2206726,0.147522l-0.0097656-0.0874329c-0.215332-0.0995789-0.4545898-0.0844727-0.7114563,0.0458984
			c-0.7216492,0.3662109-1.3623047,1.4941406-1.601532,2.7919922c0.0087891-0.0116882,0.0151062-0.0214844,0.0214844-0.0312805
			c0.0371094-0.0536804,0.0664062-0.0897827,0.2363281-0.2098999l0.1528015-0.1083984l-0.0273132,0.1855164
			c-0.0449219,0.3067017,0.0048828,0.4911804,0.0810547,0.7714844c0.0400085,0.1484985,0.0878906,0.3242188,0.1303711,0.5556946
			c0.0761719-0.0986938,0.1235046-0.1503906,0.1615906-0.1923828c0.0541992-0.0596008,0.0869446-0.0957031,0.1660461-0.2275085
			l0.0844421-0.1397095l0.0591125,0.1524048c0.1245117,0.3232117,0.188446,0.6201172,0.2626953,0.9638062
			c0.0224304,0.1025696,0.0458679,0.2138672,0.0732422,0.3320007c0.0107117-0.0410156,0.0185547-0.0751038,0.0258789-0.1044006
			c0.0258484-0.1094055,0.0415039-0.1757812,0.1274414-0.351593l0.0448914-0.092804l0.0786438,0.0664062
			c0.3891602,0.3300781,0.5219421,0.726593,0.6499023,1.109375c0.1425781,0.4267883,0.2778015,0.8301086,0.7749023,1.0869141
			c0.1025391-0.1777039,0.1938477-0.304718,0.3100281-0.3789062L-1.7978821,36.8114929L-1.7978821,36.8114929z
			 M-0.7148438,37.6190796c-0.2460938-0.1445007-0.4375-0.2236023-0.5913086-0.2870789
			c-0.2070312-0.085907-0.3623047-0.1494141-0.5166321-0.3076172c-0.0800476,0.0733032-0.1538086,0.1903992-0.2411804,0.3476868
			l-0.035675,0.0643921l-0.0673828-0.0311584c-0.6147156-0.2823181-0.7729187-0.7549438-0.9257812-1.2129211
			c-0.1122742-0.3339844-0.2275085-0.6787109-0.523407-0.9667969c-0.0395508,0.0907898-0.0512695,0.1405945-0.0703125,0.2206726
			c-0.0195312,0.0820312-0.0458984,0.1943054-0.1138,0.4023132l-0.0854187,0.2647095l-0.0683899-0.2695007
			c-0.0590515-0.2354126-0.1040039-0.4433899-0.1435547-0.6279907c-0.0610046-0.2822266-0.1152039-0.5332031-0.2016296-0.7900085
			c-0.0351562,0.0487976-0.0629883,0.0791016-0.0961914,0.1152039c-0.0508118,0.0567017-0.1206055,0.132782-0.2626953,0.3301086
			l-0.1147766,0.1591797l-0.0292969-0.194397c-0.047821-0.3163757-0.1088562-0.5419922-0.1576843-0.7236023
			c-0.0635071-0.2323914-0.1123047-0.4130859-0.1030579-0.6513977c-0.0297546,0.0274048-0.0404968,0.0429993-0.0531921,0.061615
			c-0.0288391,0.0419922-0.0644531,0.094696-0.2202148,0.2294922l-0.1621094,0.1405945l0.0307617-0.2119141
			c0.2070007-1.445282,0.91745-2.7416992,1.7270508-3.1523743c0.2675781-0.1357117,0.5302734-0.1631165,0.7675781-0.0820007
			c-0.0014648-0.030304-0.0024719-0.0575867-0.0029297-0.0820007c-0.0043945-0.1455078-0.0058594-0.1949158-0.1362305-0.3540039
			l0.0927429-0.1246033c0.1171875,0.0489197,0.1943665,0.1260071,0.2568665,0.1875
			c0.1074219,0.1075134,0.1523438,0.151886,0.3300781,0.0366821l0.0288086-0.0151978
			c0.0761719-0.0384827,0.0898438-0.0458679-0.0298157-0.3192749l-0.0517273-0.1181946l0.1289062,0.0058594
			c0.2250977,0.0107422,0.7202148,0.1538086,1.1572266,0.2803345c0.2724609,0.0791016,0.5546875,0.1605835,0.6269531,0.1644897
			c0.1386719,0.0058899,0.3217773-0.0361023,0.515625-0.0809937c0.5092773-0.1177063,1.1430359-0.2642212,1.6342773,0.2583008
			c0.5161133,0.5213928,0.4872742,1.0643921,0.4541016,1.6932983c-0.0087891,0.1651001-0.0175781,0.3359985-0.0175781,0.5155945
			v0.1270142l-0.1147766-0.054718c-0.129364-0.0625-0.1767273-0.1142883-0.2162781-0.1864929
			c0.047821,0.4960938,0.0063477,1.1102905-0.0312805,1.6679993c-0.0224304,0.3309937-0.0434265,0.6454773-0.0434265,0.8994141
			L1.4575195,34.984375c-0.045929-0.0878906-0.065918-0.1132812-0.0849609-0.1387024
			c-0.0058594-0.007782-0.0112305-0.0155945-0.0175781-0.0243835c-0.073761,0.1796875-0.1499329,0.3232117-0.2182617,0.4541016
			c-0.1669922,0.3164062-0.2988281,0.5663757-0.2988281,1.1210938l-0.1572571,0.0215149
			c-0.0473328-0.1700134-0.0512695-0.2451172-0.0536804-0.2950134c-0.1523438,0.1826782-0.4165344,0.3506165-0.6738281,0.5147095
			c-0.3369141,0.2157898-0.6855469,0.4374695-0.6987305,0.6366882c-0.0049133,0.0703125,0.0356445,0.140625,0.1230469,0.2138977
			L-0.7148438,37.6190796L-0.7148438,37.6190796z"/>
		<path class="st6" d="M0.4257507,34.9501953c-0.3300476-0.5078125-0.5722351-0.6387024-0.785614-0.9648132
			c-0.3760071-0.5743103-0.5053711-1.0674133-0.7187805-0.9454041c-0.2133484,0.1231079-0.1655273,0.3798828,0.242218,0.936615
			C-0.4291992,34.532196-0.2651367,34.6347656,0.4257507,34.9501953L0.4257507,34.9501953L0.4257507,34.9501953z
			 M0.7348328,32.9970703c-0.5068359-0.5048828-0.813446-0.5995789-1.1405945-0.9248047
			c-0.5766602-0.570282-0.8549805-1.1059875-1.0600586-0.9159851c-0.2050781,0.1893921-0.0815735,0.4746094,0.5248718,1.0175171
			C-0.3339844,32.7167664-0.1230469,32.7958679,0.7348328,32.9970703L0.7348328,32.9970703z M-1.9169922,36.796875
			C-1.8862305,36.2157898-1.75,35.9892883-1.7299805,35.6142883c0.0371094-0.6582031-0.0898743-1.1289062,0.1420898-1.131897
			C-1.355957,34.4794617-1.273468,34.7167664-1.3447266,35.375C-1.4155579,36.0341797-1.5014648,36.1991882-1.9169922,36.796875
			L-1.9169922,36.796875L-1.9169922,36.796875z M-3.1523438,35.6337585
			c0.1093445-0.5985718,0.2817383-0.8173828,0.3530273-1.2030945c0.1254578-0.6786804,0.0556641-1.1835938,0.2983093-1.1572876
			c0.2431641,0.0263977,0.2978821,0.2823181,0.1362305,0.9580078C-2.5263672,34.9062805-2.6376953,35.0663757-3.1523438,35.6337585
			L-3.1523438,35.6337585L-3.1523438,35.6337585z M-4.1850586,33.9618835
			c0.2729492-0.6689148,0.5185547-0.8789062,0.6948242-1.3085938c0.3115234-0.7568054,0.3622742-1.3613281,0.6235352-1.2695007
			c0.2616882,0.0927734,0.2572937,0.4042969-0.0922852,1.1474915c-0.3500977,0.743103-0.5136719,0.9002991-1.2260742,1.4296265
			V33.9618835L-4.1850586,33.9618835z"/>
		<path class="st5" d="M23.0697937,19.4247742c-0.5937195,1.148407,1.0395813-0.3818054,3.6000977,1.5405273
			c0.4740906,0.3569641,1.1542969,1.7680969,1.1542969,2.421875c-0.5449219-0.1156921-1.5102234-0.6537781-1.5102234-0.6537781
			s1.132843,1.1347656,1.132843,2.4423828c-0.4004211-0.25-0.6006165-0.2124023-0.733429-0.5195007
			c0,0.4232788,0.355896,0.6932983,0.355896,1.3471069c-0.2435608-0.1958008-0.5038757-0.3691101-0.7782898-0.5189819
			c0.3778992,0.6537781-0.6879883,1.9227905-0.1542969,2.3461609c-0.9331055-0.1347961-1.887207-0.7309875-2.2646179-1.3847961
			c-0.2001648,0.1347961-0.222168,0.3467102-0.2299805,0.5723267c0.0298157,0.0243835-1.4194031-1.0757141-1.2865906-1.4981079
			c-0.1944275,0.2724915-0.2217102,0.4223938-0.2657166,0.7299805c-0.5326843-0.5249023-1.0205078-1.050293-1.1981812-1.7290039
			c-0.2363281,0.3076172-0.2515259,0.3076172-0.487793,0.6147156c-0.1777344-1.0756226-0.1777344-1.0370789,0.1773071-1.9589233
			c-0.2515259,0.1665344-0.4585266,0.3330383-0.7095337,0.5380249c0.2378235-1.5581055,1.4521179-3.3847046,3.1987-4.2895203
			L23.0697937,19.4247742L23.0697937,19.4247742z"/>
		<path class="st4" d="M23.8925781,26.3573914l0.0332031,0.0575867c0.348114,0.6036072,1.210907,1.1533813,2.0552063,1.3256836
			c-0.1401978-0.2601929-0.0083008-0.6498718,0.1298218-1.058075c0.1454773-0.4296875,0.2958984-0.8745117,0.1264648-1.167511
			l-0.11026-0.1908875l0.1937866,0.1060181c0.237793,0.129364,0.4662781,0.277771,0.6811829,0.441864
			c-0.0224915-0.2798157-0.1142883-0.4848938-0.1962891-0.6684875c-0.0791016-0.1777039-0.1542969-0.3457031-0.1542969-0.5473022
			l0.1185913-0.0249939c0.0780945,0.1802063,0.1763,0.2250977,0.3554993,0.3067017
			c0.0723267,0.0326843,0.1576843,0.0722961,0.2562866,0.1274109c-0.0604858-1.2202148-1.1009827-2.2773132-1.1117859-2.2881165
			l0.0741882-0.0980835c0.0088196,0.0053711,0.875,0.4858093,1.4151001,0.6288757
			c-0.050293-0.6576843-0.6811829-1.957489-1.1269836-2.2934875c-1.4385071-1.0795288-2.5776062-1.0570984-3.1903992-1.0449219
			c-0.2865906,0.0059204-0.4595032,0.0093079-0.5293274-0.1029663c-0.0404663-0.065918-0.0355835-0.1548157,0.0215149-0.2974243
			c-1.4819946,0.8355103-2.6737671,2.4356079-2.9736938,3.9932251c0.2037048-0.1641235,0.3793945-0.3003235,0.5864868-0.4375305
			l0.1616211-0.1069031l-0.094696,0.246521c-0.3081055,0.7993774-0.3189087,0.827179-0.1719055,1.7212219
			c0.0664062-0.0849304,0.1122742-0.140625,0.1576843-0.196228c0.0625-0.0766907,0.1250305-0.1533813,0.2431946-0.3062134
			l0.0766296-0.1000977l0.0322876,0.1221008c0.1644897,0.6293945,0.6054077,1.1264343,1.094696,1.6147156
			c0.0386047-0.2383118,0.0853882-0.3926086,0.2588196-0.6362305l0.1098022,0.0547485
			c-0.0913391,0.2880554,0.7993774,1.0708008,1.1713562,1.3602905c0.0161133-0.1977234,0.0645142-0.3789062,0.2510376-0.504425
			L23.8925781,26.3573914L23.8925781,26.3573914z M26.3544922,27.9247742l-0.2271118-0.0327148
			c-0.9150085-0.1322937-1.8563843-0.6967773-2.2723694-1.3544617c-0.120636,0.1117859-0.1421204,0.2714844-0.1494141,0.4525757
			l0.0180054,0.0151978l-0.0576172,0.0923157l-0.0492859-0.0230103c-0.0010376-0.0004883-0.0054321-0.0033875-0.0137024-0.0097961
			l-0.0005188,0.0010071l-0.0106812-0.0093079c-0.1659851-0.1245117-1.1177063-0.8706055-1.2817078-1.352478
			c-0.1006165,0.1752625-0.124115,0.3104858-0.1592102,0.554657l-0.0176086,0.1211243l-0.0873718-0.0859985
			c-0.5049133-0.4980164-0.9746094-0.9995117-1.179718-1.6385803c-0.0737,0.0941772-0.1221008,0.1532593-0.1708679,0.2124023
			c-0.0625305,0.0765686-0.1250305,0.152771-0.2427368,0.3060913l-0.0868835,0.112793l-0.0298157-0.1802063
			c-0.1590881-0.9663086-0.1659851-1.0302124,0.1158142-1.7655945c-0.1773071,0.1269836-0.3422852,0.2597961-0.5411072,0.421875
			l-0.125,0.1016235l0.0245056-0.1592102c0.2591858-1.6947937,1.5791016-3.4706726,3.2132874-4.3251953l0.0473938-0.0917969
			l0.0820007,0.1640015l-0.0370789,0.0195923c-0.0903015,0.1777039-0.1235046,0.2886047-0.0976257,0.3295898
			c0.0327454,0.0522156,0.2129211,0.0487976,0.4214172,0.0444031c0.6268921-0.0126953,1.7948914-0.0355835,3.2675171,1.0703125
			C27.203064,21.289093,27.8862,22.7211609,27.8862,23.3871765v0.0766907l-0.074707-0.015686
			c-0.3612976-0.0770874-0.8926086-0.3300171-1.2245789-0.4999695c0.3363647,0.4125671,0.921875,1.2675781,0.921875,2.2275696
			v0.1117859l-0.094696-0.059082c-0.1343079-0.0839844-0.2437134-0.1337891-0.3399048-0.1777039
			c-0.0990906-0.0453796-0.1835938-0.0840149-0.2557983-0.1435852c0.0263062,0.0800781,0.0620117,0.1601868,0.1004944,0.2460938
			c0.0997009,0.222168,0.2124023,0.4746094,0.2124023,0.8500977v0.1293945l-0.1010132-0.0809937
			c-0.1943665-0.156311-0.4013977-0.299408-0.6171875-0.4267883c0.0786133,0.3187866-0.0552063,0.7133789-0.1850891,1.0971985
			c-0.1509094,0.4466858-0.2934265,0.8685913-0.0532227,1.0599976L26.3544922,27.9247742L26.3544922,27.9247742z"/>
		<path class="st6" d="M27.0087891,24.6537781c-0.5214844-0.434082-0.8301086-0.4979858-1.1669922-0.7773132
			c-0.5928345-0.4897766-0.8876953-0.9711914-1.085907-0.7759094c-0.1977844,0.1948242-0.0654907,0.4526367,0.5566101,0.9145203
			C25.9350891,24.476593,26.1474915,24.5341797,27.0087891,24.6537781L27.0087891,24.6537781L27.0087891,24.6537781z
			 M26.7466125,22.4926758c-0.7168274-0.3775024-1.085022-0.3822937-1.5469055-0.6244812
			c-0.8130188-0.425293-1.2866211-0.905304-1.4546204-0.6411133c-0.1679993,0.2640991,0.0562134,0.5272827,0.8950195,0.9134827
			C25.4784851,22.526886,25.7358093,22.5453796,26.7466125,22.4926758L26.7466125,22.4926758L26.7466125,22.4926758z
			 M25.8510742,27.6659851c-0.281311-0.5776062-0.5234985-0.75-0.7050781-1.121582
			c-0.3208008-0.6533203-0.3877258-1.1870117-0.6353149-1.090332c-0.2474976,0.0967102-0.2337952,0.3725891,0.1236267,1.012207
			C24.9916992,27.1059875,25.1532898,27.2362976,25.8510742,27.6659851L25.8510742,27.6659851z M23.2637024,26.4838867
			c-0.0645142-0.667511,0.0585938-0.9516907,0.0179749-1.3818054c-0.0708008-0.7564087-0.3041687-1.269104-0.0278015-1.315979
			c0.2769165-0.0473328,0.4170227,0.2065735,0.4468079,0.9706726c0.0298157,0.7637024-0.0440063,0.9673157-0.4374695,1.7271118
			H23.2637024L23.2637024,26.4838867z M21.6059875,25.0351868c0.0951843-0.7915039,0.3016968-1.0894165,0.3637085-1.5991821
			c0.1103821-0.8960266-0.0205078-1.551239,0.296875-1.5341187c0.3174133,0.0160828,0.4092407,0.3465881,0.2520142,1.2411804
			C22.3617859,24.0370789,22.2294922,24.2543945,21.6059875,25.0351868L21.6059875,25.0351868L21.6059875,25.0351868z"/>
	</g>
</g>
</svg>
