<?xml version="1.0" encoding="utf-8"?>
<!-- Generator: Adobe Illustrator 22.1.0, SVG Export Plug-In . SVG Version: 6.00 Build 0)  -->
<svg version="1.1" id="Layer_1" xmlns="http://www.w3.org/2000/svg" xmlns:xlink="http://www.w3.org/1999/xlink" x="0px" y="0px"
	 viewBox="0 0 60 60" style="enable-background:new 0 0 60 60;" xml:space="preserve">
<style type="text/css">
	.st0{clip-path:url(#SVGID_2_);fill:#DA171C;}
	.st1{clip-path:url(#SVGID_2_);fill:#FCDD0C;}
	.st2{clip-path:url(#SVGID_2_);fill:#0C8A38;}
	.st3{clip-path:url(#SVGID_2_);fill:#244D9C;}
	.st4{clip-path:url(#SVGID_2_);fill:#020203;}
</style>
<g id="XMLID_1_">
	<g>
		<defs>
			<path id="SVGID_1_" d="M59,60H0.9999695C0.4477234,60,0,59.5526733,0,59V0.9999695c0-0.5522461,0.4477234-1,0.9999695-1H59
				c0.5526886,0,0.9999847,0.4477539,0.9999847,1V59C59.9999847,59.5526733,59.5526886,60,59,60L59,60z"/>
		</defs>
		<clipPath id="SVGID_2_">
			<use xlink:href="#SVGID_1_"  style="overflow:visible;"/>
		</clipPath>
		<polygon class="st0" points="-30,-0.0000305 89.9999847,-0.0000305 89.9999847,60 -30,60 -30,-0.0000305 		"/>
		<polygon class="st1" points="-30,-0.0000305 89.9999847,-0.0000305 89.9999847,39.9999695 -30,39.9999695 -30,-0.0000305 		"/>
		<polygon class="st2" points="-30,-0.0000305 89.9999847,-0.0000305 89.9999847,20 -30,20 -30,-0.0000305 		"/>
		<path class="st3" d="M30,9.9999695c11.0458679,0,20,8.9541321,20,20C50,41.0458679,41.0458679,50,30,50
			C18.9541016,50,9.9999695,41.0458679,9.9999695,29.9999695C9.9999695,18.9541016,18.9541016,9.9999695,30,9.9999695L30,9.9999695z
			"/>
		<polygon class="st1" points="30,14 29.2987976,16.1571655 32.1903992,25.0556946 28.3353882,25.0556946 27.9022827,26.3891602 
			40.2626953,26.3891602 42.0976868,25.0556946 33.5917969,25.0556946 30,14 		"/>
		<line class="st4" x1="34.3104858" y1="24.0673828" x2="39.4042969" y2="17.0556946"/>
		<polygon class="st1" points="34.4726868,24.1845703 34.148407,23.9496765 39.2431946,16.9379578 39.5663757,17.1732788 
			34.4726868,24.1845703 		"/>
		<polygon class="st1" points="45.2167969,25.0556946 42.9481812,25.0556946 35.3789062,30.5551758 34.1874695,26.8891907 
			32.7861023,26.8891907 36.6054993,38.6445007 38.4403992,39.977478 35.8125,31.8887024 45.2167969,25.0556946 		"/>
		<line class="st4" x1="36.9745789" y1="32.2666016" x2="45.2167969" y2="34.9443054"/>
		<polygon class="st1" points="45.155304,35.1347961 36.9120789,32.4560852 37.0361023,32.0762024 45.2782898,34.7538757 
			45.155304,35.1347961 		"/>
		<polygon class="st1" points="39.4042969,42.9442749 38.7030945,40.7870789 31.1337891,35.2870789 34.2528992,33.0214844 
			33.8193054,31.6884766 23.8197937,38.9530945 23.1186829,41.1112976 30,36.1112976 39.4042969,42.9442749 		"/>
		<polygon class="st1" points="30.2001648,45.9999695 29.7997742,45.9999695 29.7997742,37.3329773 30.2001648,37.3329773 
			30.2001648,45.9999695 		"/>
		<polygon class="st1" points="20.5951843,42.9442749 22.4306946,41.6112671 25.3217773,32.7128601 28.4403992,34.9784851 
			29.5746765,34.1542664 19.574707,26.8891907 17.3065796,26.8891907 24.1875,31.8887024 20.5951843,42.9442749 		"/>
		<line class="st4" x1="23.0253906" y1="32.2666016" x2="14.7832031" y2="34.9443054"/>
		<polygon class="st1" points="14.844696,35.1347961 14.7211914,34.7538757 22.9638672,32.0762024 23.0874023,32.4560852 
			14.844696,35.1347961 		"/>
		<polygon class="st1" points="14.7832031,25.0556946 16.6181946,26.3891602 25.9746094,26.3891602 24.7831726,30.0551758 
			25.917511,30.8793945 29.7372742,19.1235046 29.0361023,16.9662781 26.4076843,25.0556946 14.7832031,25.0556946 		"/>
		<line class="st4" x1="25.6894836" y1="24.0673828" x2="20.5951843" y2="17.0556946"/>
		<polygon class="st1" points="25.5278015,24.1845703 20.4335938,17.1732788 20.7572937,16.9379578 25.851593,23.9496765 
			25.5278015,24.1845703 		"/>
	</g>
</g>
</svg>
