<?xml version="1.0" encoding="utf-8"?>
<!-- Generator: Adobe Illustrator 22.1.0, SVG Export Plug-In . SVG Version: 6.00 Build 0)  -->
<svg version="1.1" id="Layer_1" xmlns="http://www.w3.org/2000/svg" xmlns:xlink="http://www.w3.org/1999/xlink" x="0px" y="0px"
	 viewBox="0 0 60 60" style="enable-background:new 0 0 60 60;" xml:space="preserve">
<style type="text/css">
	.st0{clip-path:url(#SVGID_2_);fill:#76B2DD;}
	.st1{clip-path:url(#SVGID_2_);fill:#FFFFFF;}
</style>
<g id="XMLID_1_">
	<g>
		<defs>
			<path id="SVGID_1_" d="M59,60H0.9999695C0.4477234,60,0,59.5526733,0,59V0.9999695c0-0.5522461,0.4477234-1,0.9999695-1H59
				c0.5526886,0,0.9999847,0.4477539,0.9999847,1V59C59.9999847,59.5526733,59.5526886,60,59,60L59,60z"/>
		</defs>
		<clipPath id="SVGID_2_">
			<use xlink:href="#SVGID_1_"  style="overflow:visible;"/>
		</clipPath>
		<polygon class="st0" points="-27,-0.0000305 86.9999847,-0.0000305 86.9999847,60 -27,60 -27,-0.0000305 		"/>
		<polyline class="st1" points="30,5.9999695 28.1459961,11.7064819 30.9989929,12.6333008 		"/>
		<polyline class="st1" points="30,5.9999695 31.8544922,11.7064819 29.0010071,12.6333008 		"/>
		<polyline class="st1" points="35.7060852,10.1459961 29.7064819,10.1459961 29.7064819,13.1459961 		"/>
		<polyline class="st1" points="35.7060852,10.1459961 30.8520813,13.6728821 29.0888977,11.245575 		"/>
		<polyline class="st1" points="33.5263977,16.8539734 31.6729126,11.1478882 28.8193054,12.0746765 		"/>
		<polyline class="st1" points="33.5263977,16.8539734 28.6729126,13.3270874 30.4359741,10.9003906 		"/>
		<polyline class="st1" points="26.4730835,16.8539734 31.3270874,13.3270874 29.5639954,10.9003906 		"/>
		<polyline class="st1" points="26.4730835,16.8539734 28.3270874,11.1478882 31.1806946,12.0746765 		"/>
		<polyline class="st1" points="24.2934875,10.1459961 29.1478882,13.6728821 30.9111023,11.245575 		"/>
		<polyline class="st1" points="24.2934875,10.1459961 30.2934875,10.1459961 30.2934875,13.1459961 		"/>
		<polyline class="st1" points="53.9999847,29.9999695 48.2938843,28.1459961 47.3661804,30.9989929 		"/>
		<polyline class="st1" points="53.9999847,29.9999695 48.2938843,31.8544617 47.3661804,29.0009766 		"/>
		<polyline class="st1" points="49.8544922,35.7060852 49.8544922,29.7064819 46.8544922,29.7064819 		"/>
		<polyline class="st1" points="49.8544922,35.7060852 46.3270874,30.8520813 48.7548828,29.0888672 		"/>
		<polyline class="st1" points="43.1455078,33.5263977 48.8525085,31.6728821 47.9247742,28.8193054 		"/>
		<polyline class="st1" points="43.1455078,33.5263977 46.6729126,28.6728821 49.0995789,30.4359741 		"/>
		<polyline class="st1" points="43.1455078,26.4730835 46.6729126,31.3270874 49.0995789,29.5639954 		"/>
		<polyline class="st1" points="43.1455078,26.4730835 48.8525085,28.3270874 47.9247742,31.1806641 		"/>
		<polyline class="st1" points="49.8544922,24.2934875 46.3270874,29.1478882 48.7548828,30.9111023 		"/>
		<polyline class="st1" points="49.8544922,24.2934875 49.8544922,30.2934875 46.8544922,30.2934875 		"/>
		<polyline class="st1" points="30,54 31.8544922,48.2938843 29.0010071,47.3661804 		"/>
		<polyline class="st1" points="30,54 28.1459961,48.2938843 30.9989929,47.3661804 		"/>
		<polyline class="st1" points="24.2934875,49.8544922 30.2934875,49.8544922 30.2934875,46.8544617 		"/>
		<polyline class="st1" points="24.2934875,49.8544922 29.1478882,46.3270874 30.9111023,48.7548828 		"/>
		<polyline class="st1" points="26.4730835,43.1454773 28.3270874,48.8525085 31.1806946,47.9247742 		"/>
		<polyline class="st1" points="26.4730835,43.1454773 31.3270874,46.6728821 29.5639954,49.0995789 		"/>
		<polyline class="st1" points="33.5263977,43.1454773 28.6729126,46.6728821 30.4359741,49.0995789 		"/>
		<polyline class="st1" points="33.5263977,43.1454773 31.6729126,48.8525085 28.8193054,47.9247742 		"/>
		<polyline class="st1" points="35.7060852,49.8544922 30.8520813,46.3270874 29.0888977,48.7548828 		"/>
		<polyline class="st1" points="35.7060852,49.8544922 29.7064819,49.8544922 29.7064819,46.8544617 		"/>
		<polyline class="st1" points="6,29.9999695 11.7064819,31.8544617 12.6333008,29.0009766 		"/>
		<polyline class="st1" points="6,29.9999695 11.7064819,28.1459961 12.6333008,30.9989929 		"/>
		<polyline class="st1" points="10.1459961,24.2934875 10.1459961,30.2934875 13.1459961,30.2934875 		"/>
		<polyline class="st1" points="10.1459961,24.2934875 13.6729126,29.1478882 11.2456055,30.9111023 		"/>
		<polyline class="st1" points="16.8539734,26.4730835 11.1478882,28.3270874 12.074707,31.1806641 		"/>
		<polyline class="st1" points="16.8539734,26.4730835 13.3270874,31.3270874 10.9003906,29.5639954 		"/>
		<polyline class="st1" points="16.8539734,33.5263977 13.3270874,28.6728821 10.9003906,30.4359741 		"/>
		<polyline class="st1" points="16.8539734,33.5263977 11.1478882,31.6728821 12.074707,28.8193054 		"/>
		<polyline class="st1" points="10.1459961,35.7060852 13.6729126,30.8520813 11.2456055,29.0888672 		"/>
		<polyline class="st1" points="10.1459961,35.7060852 10.1459961,29.7064819 13.1459961,29.7064819 		"/>
	</g>
</g>
</svg>
