<?xml version="1.0" encoding="utf-8"?>
<!-- Generator: Adobe Illustrator 22.1.0, SVG Export Plug-In . SVG Version: 6.00 Build 0)  -->
<svg version="1.1" id="Layer_1" xmlns="http://www.w3.org/2000/svg" xmlns:xlink="http://www.w3.org/1999/xlink" x="0px" y="0px"
	 viewBox="0 0 60 60" style="enable-background:new 0 0 60 60;" xml:space="preserve">
<style type="text/css">
	.st0{clip-path:url(#SVGID_2_);fill:#CE1327;}
	.st1{clip-path:url(#SVGID_2_);fill:#FFFFFF;}
	.st2{clip-path:url(#SVGID_5_);}
	.st3{clip-path:url(#SVGID_6_);fill:#F59A21;}
	.st4{clip-path:url(#SVGID_6_);fill:#154294;}
	.st5{clip-path:url(#SVGID_6_);fill:#CE1327;}
	.st6{clip-path:url(#SVGID_6_);fill:#631314;}
</style>
<g id="XMLID_1_">
	<g>
		<defs>
			<path id="SVGID_1_" d="M59,60H0.9999695C0.4477234,60,0,59.5526733,0,59V0.9999695c0-0.5522461,0.4477234-1,0.9999695-1H59
				c0.5526886,0,0.9999847,0.4477539,0.9999847,1V59C59.9999847,59.5526733,59.5526886,60,59,60L59,60z"/>
		</defs>
		<clipPath id="SVGID_2_">
			<use xlink:href="#SVGID_1_"  style="overflow:visible;"/>
		</clipPath>
		<polygon class="st0" points="-15,-0.0000305 74.9999847,-0.0000305 74.9999847,60 -15,60 -15,-0.0000305 		"/>
		<polygon class="st1" points="-15,14.9999695 74.9999847,14.9999695 74.9999847,44.9999695 -15,44.9999695 -15,14.9999695 		"/>
	</g>
	<g>
		<defs>
			<path id="SVGID_3_" d="M30,16.921875c7.1122742,0,12.8769836,5.9223328,12.8769836,13.2280273
				c0,7.3061829-5.7647095,13.2279663-12.8769836,13.2279663c-7.1117859,0-12.8774109-5.9217834-12.8774109-13.2279663
				C17.1225891,22.8442078,22.8882141,16.921875,30,16.921875L30,16.921875z"/>
		</defs>
		<defs>
			<path id="SVGID_4_" d="M59,60H0.9999695C0.4477234,60,0,59.5526733,0,59V0.9999695c0-0.5522461,0.4477234-1,0.9999695-1H59
				c0.5526886,0,0.9999847,0.4477539,0.9999847,1V59C59.9999847,59.5526733,59.5526886,60,59,60L59,60z"/>
		</defs>
		<clipPath id="SVGID_5_">
			<use xlink:href="#SVGID_3_"  style="overflow:visible;"/>
		</clipPath>
		<clipPath id="SVGID_6_" class="st2">
			<use xlink:href="#SVGID_4_"  style="overflow:visible;"/>
		</clipPath>
		<polygon class="st3" points="26.5932922,28.6528015 24.407196,28.5897827 24.407196,27.7255859 26.5932922,28.6528015 
			26.5932922,28.6528015 		"/>
		<path class="st3" d="M26.5845032,28.4008789l-2.1773071-1.1073914v-1.4404907c0,0-0.2549133,0.0361938-0.2187195-0.2519226
			c0.0122375-0.6000977,1.6001282,1.0952148,2.4140015,1.6473999L26.5845032,28.4008789L26.5845032,28.4008789
			L26.5845032,28.4008789z"/>
		<polygon class="st3" points="17.155304,32.155304 21.746582,32.1913757 21.746582,29.3466797 16.4994812,29.0961609 
			17.155304,32.1571655 17.155304,32.155304 		"/>
		<polygon class="st3" points="16.9364929,28.2299805 21.8192749,28.6981812 21.7826843,26.6815796 17.0092773,24.809082 
			16.9364929,28.2299805 16.9364929,28.2299805 		"/>
		<path class="st3" d="M17.9203796,24.1981812l3.753418,1.800293l0.535675-0.5531921c0,0-0.3451843-0.2348938-0.328186-0.4512024
			c0.006897-0.218689,0.3471985-0.2518921,0.3540955-0.4891968c0.0057983-0.2187805-0.3862915-0.2450867-0.3901978-0.4638977
			c-0.0259094-0.2373047,0.3023071-0.4912109,0.3023071-0.4912109l-3.3887024-2.9169922l-0.8384094,3.5650024V24.1981812
			L17.9203796,24.1981812z"/>
		<polygon class="st3" points="42.5517883,32.1913757 37.7060852,32.1913757 37.6698914,29.4188843 42.9892883,29.0224915 
			42.5517883,32.1913757 42.5517883,32.1913757 		"/>
		<path class="st3" d="M42.6708984,28.1864929c-0.0614929-0.4502258-0.1260071-0.8994141-0.2305298-1.3408203
			c-0.1395874-0.5907898-0.3173828-1.1723938-0.5340576-1.7388c-0.0157166-0.0419617-0.0401306-0.0805054-0.0557251-0.1219788
			l-4.1445007,1.7342834l0.0379944,2.0532837L42.6708984,28.1864929L42.6708984,28.1864929L42.6708984,28.1864929z"/>
		<path class="st3" d="M39.8388672,21.5204773c-0.827179,0.625-1.6533813,1.25-2.4804688,1.875
			c0.0048828,0.1791992,0.1835938,0.3173828,0.2323914,0.4893188c0.1143188,0.2406921-0.1133118,0.4535828-0.2539062,0.6239929
			c-0.1141968,0.157196,0.131897,0.2367859,0.2138977,0.3300781c0.179718,0.1845093,0.023407,0.4741211-0.1689758,0.5815125
			c0.2314758,0.1381836,0.3476868,0.3970032,0.3984985,0.651886c1.2382812-0.6440735,2.4755859-1.2875977,3.7128906-1.9316711
			C41.0487671,23.2055664,40.4950867,22.3207703,39.8388672,21.5204773L39.8388672,21.5204773L39.8388672,21.5204773z"/>
		<polygon class="st3" points="32.9335938,28.7157898 35.0106812,28.6259766 35.0469055,27.7973938 32.9335938,28.7157898 
			32.9335938,28.7157898 		"/>
		<path class="st3" d="M32.9325867,28.2660828l-0.0087891-0.9360046c0,0,1.9667664-1.7558899,2.3857727-2.0800781
			c0,0.3603821-0.2275696,0.6391907-0.2275696,0.6391907v1.3685913L32.9325867,28.2660828L32.9325867,28.2660828
			L32.9325867,28.2660828z"/>
		<path class="st3" d="M20.1812134,20.3803711c0.0360718,0.0361023,2.207489,2.4208984,2.207489,2.4208984
			c0.0609741-0.2255859,0.5614929-0.2602844,1.0716858-0.2241821c0.5103149,0.0361938,0.9165955-0.0335999,0.9165955,0.3262024
			c0,0.3604126-0.2587891,0.3091125-0.2587891,0.5610962c0,0.2523804,0.388092,0.2314148,0.388092,0.5551147
			c0,0.3237915-0.2812195,0.257782-0.2827148,0.5087891c-0.000885,0.207489,0.2935181,0.2182922,0.2935181,0.2182922
			l2.0674133,1.9809265l0.0092773-2.1157227l-4.2631836-6.6079102l-2.1493835,2.3770142V20.3803711L20.1812134,20.3803711z"/>
		<path class="st3" d="M23.5917969,17.8783875c0.0326843,0.0961914,2.8876953,5.835968,2.8876953,5.835968
			s0.032196-5.3867798,0.5190125-5.6752625L26.1875,16.5639648l-2.5952148,1.3144226H23.5917969L23.5917969,17.8783875z"/>
		<path class="st3" d="M32.9111023,17.2587585c-0.359314,1.242218-0.7187195,2.4844055-1.078125,3.7270203
			c0.3369141,0.0396118,0.6758118,0.0508118,1.0137024,0.0317993c0.3037109,0.0263062,0.0674133,0.3110046,0.0830078,0.4795227
			c-0.0010071,0.7635803-0.0028992,1.5278015-0.0039062,2.2914734c1.0155945-1.7934875,2.0312195-3.5874023,3.0469055-5.3813782
			c-0.7012024-0.3652039-1.444397-0.637207-2.1924133-0.8857117C33.4950867,17.4208679,33.2051086,17.3334656,32.9111023,17.2587585
			L32.9111023,17.2587585L32.9111023,17.2587585z"/>
		<path class="st3" d="M36.7030945,18.8158875c-1.2558289,1.9312134-2.5117188,3.862793-3.7684937,5.7940063
			c-0.0010071,0.7435913-0.0030212,1.4872742-0.0049133,2.230896c0.8398132-0.7983093,1.6825867-1.5923157,2.5195007-2.3934937
			c0.1591797-0.2246399-0.5038757-0.3345337-0.1727905-0.608429c0.2997742-0.0947876,0.3515015-0.5795898,0.0350952-0.6728821
			c-0.2606812-0.3822937,0.2353821-0.5848999,0.5479126-0.5429993c0.4354858,0.0200806,0.8837891-0.094696,1.3085938,0.0258789
			c0.2342834,0.2241211,0.4501648-0.3378601,0.6796875-0.4647827c0.4550171-0.4570007,0.9100952-0.9136047,1.359314-1.3760071
			C38.4657898,20.0365906,37.6210938,19.3661804,36.7030945,18.8158875L36.7030945,18.8158875L36.7030945,18.8158875z"/>
		<path class="st4" d="M26.9818726,41.3114929c-0.9266663,0.0527649-1.8500977,0.6777954-2.2826843,1.0126953
			c0.776886,0.3399048,1.6065063,0.6054993,2.4892883,0.7870789c1.4057007,0.2363892,2.8125,0.2344055,4.218689,0.2344055
			c0.2295227-0.0282898,0.4561462-0.0614929,0.679718-0.0985718l2.9618835-0.9981079c0,0-1.4247742-0.9404297-2.5546875-0.9003906
			c-1.1288757,0.0409851-1.8919678,1.1464844-2.8027039,1.0644531c-0.9110718-0.0819702-1.2758789-1.1015625-2.5873718-1.1015625
			C27.0629883,41.3114929,27.0228882,41.3095703,26.9818726,41.3114929L26.9818726,41.3114929L26.9818726,41.3114929z"/>
		<path class="st4" d="M25.0078125,42.2870789c0.704071,0.2900085,1.4472961,0.515625,2.2113647,0.6738281
			c1.3780212,0.2304688,2.7896118,0.2245789,4.1567993,0.2304688h0.0215149
			c0.2215881-0.0272827,0.4403992-0.0596008,0.6512756-0.093689l2.6348267-0.8887024
			c-0.460907-0.2617188-1.4043274-0.7315063-2.1836243-0.7061157c-0.5272827,0.0195923-0.9784851,0.2940369-1.414093,0.5596008
			c-0.4653015,0.2822266-0.9032898,0.5488281-1.4081726,0.5039062c-0.4422913-0.039093-0.7553101-0.2695007-1.0869141-0.5126953
			c-0.3934937-0.289093-0.8008118-0.5878906-1.4867859-0.5878906l-0.0439148-0.0010071
			c-0.0230103,0-0.0458984-0.0009155-0.0694275,0.0010071l0,0C26.2412109,41.507782,25.487793,41.945282,25.0078125,42.2870789
			L25.0078125,42.2870789z M31.344696,43.4999695c-1.3691101,0-2.7842102-0.0019836-4.1820984-0.2362976
			c-0.8809204-0.1817017-1.7284851-0.4491882-2.5253906-0.7978821l-0.2383118-0.1045227l0.2061157-0.1591797
			c0.4740601-0.3670959,1.4120789-0.9902039,2.3680725-1.0449219l0,0c0.031311-0.0018616,0.0621033-0.000885,0.092804-0.000885
			l0.0381165,0.000885c0.7870789,0,1.2558899,0.3448181,1.6693726,0.6485291
			c0.3086243,0.2265015,0.5752258,0.4217834,0.9317017,0.4541016c0.4028015,0.0370789,0.7998047-0.2061157,1.2202148-0.4610291
			c0.4476929-0.273407,0.9564819-0.5819702,1.5639954-0.6044617c1.1620789-0.0380249,2.5848999,0.8867798,2.6445007,0.9257812
			l0.2637024,0.1737976l-3.2861938,1.1054993c-0.2217102,0.0370789-0.4521179,0.0703125-0.6855164,0.0996094l-0.0498047,0.0009766
			C31.3652039,43.4999695,31.3554993,43.4999695,31.344696,43.4999695L31.344696,43.4999695z"/>
		<path class="st4" d="M21.601593,40.546875l16.8338928,0.0712891c0,0-1.4570007-1.5478821-3.1699219-1.5839844
			c-1.711853-0.0361938-1.2382812,0.719696-2.5497742,0.8280945c-1.3125,0.1083984-1.6405945-0.7919922-2.842804-0.7558899
			c-1.2021179,0.0351868-1.8945007,0.7558899-2.8050842,0.7919922c-0.9112244,0.0361938-2.0772095-0.9003906-2.7696228-0.8641968
			c-0.6922913,0.0361023-3.1698914,1.0801086-3.1698914,1.0801086l0.4737244,0.4325867H21.601593L21.601593,40.546875z"/>
		<path class="st4" d="M21.6581726,40.4013672l16.4121094,0.0703125c-0.4852905-0.4277954-1.5878906-1.2666016-2.8076172-1.2929993
			c-0.891571-0.0184937-1.1425781,0.1796875-1.4101562,0.389679c-0.2421265,0.1894226-0.4920959,0.3857422-1.125,0.438446
			c-0.7285461,0.0595703-1.1679382-0.1718445-1.5937195-0.3945312c-0.3700867-0.1942749-0.719696-0.3799133-1.2564087-0.3612976
			c-0.6185913,0.0185242-1.0952148,0.2256165-1.5566101,0.4266968c-0.4110718,0.1787109-0.7992859,0.3476868-1.2470703,0.3652954
			c-0.5200195,0.0244141-1.0805054-0.2373047-1.6240234-0.4872742c-0.4393921-0.2012329-0.8544922-0.3916321-1.1434631-0.3770142
			c-0.5445251,0.0283203-2.3028259,0.7324219-2.9117126,0.9823914L21.6581726,40.4013672L21.6581726,40.4013672z
			 M38.7724915,40.7645874l-17.1713867-0.0732117v-0.1434937l-0.0967102,0.1054077l-0.6411133-0.5848999l0.2090149-0.0878906
			c0.1019897-0.0430298,2.5091858-1.054718,3.218689-1.0909119c0.3598938-0.0175171,0.8067017,0.1856079,1.2793274,0.4033813
			c0.5126953,0.235321,1.0419617,0.4775085,1.4916687,0.460907c0.394104-0.0155945,0.757782-0.1737976,1.1430969-0.3417969
			c0.4638062-0.2020874,0.9892273-0.4306946,1.6640015-0.4512024c0.611908-0.0184937,1.012207,0.1914062,1.3984985,0.3945923
			c0.4082336,0.2138062,0.7929077,0.4160156,1.4355164,0.3623047c0.546875-0.0448914,0.7529907-0.2060852,0.9707031-0.3779907
			c0.2949829-0.2314148,0.6044922-0.4716187,1.5957031-0.4501953c1.7529907,0.0361938,3.2109985,1.5644836,3.2714844,1.6299133
			L38.7724915,40.7645874L38.7724915,40.7645874z"/>
		<path class="st4" d="M19.4520874,38.5653992l20.7685852,0.0712891c0.328125-0.467804-1.0194702-1.5840149-2.2587891-1.6924133
			c-1.0205078,0.0362244-1.7489929,1.0449829-2.5868835,1.0811157c-0.8379211,0.0350952-1.7852173-1.0448914-2.7323914-1.0088196
			c-0.9473267,0.0361023-1.9317322,1.0088196-2.8789368,1.0088196c-0.9472656,0-1.639679-1.0448914-2.8417969-1.0448914
			c-1.2026978,0-1.7489929,1.1522827-2.6601868,1.0799866c-0.9111023-0.071228-1.7128906-1.1523132-2.5869141-1.1523132
			c-0.8744812,0-2.3320007,1.2969055-2.6235046,1.2246094S19.4154968,38.6728821,19.4520874,38.5653992L19.4520874,38.5653992
			L19.4520874,38.5653992z"/>
		<path class="st4" d="M19.4232788,38.4198914h0.0292969L40.125,38.4921875
			c0.0048828-0.045929-0.0078125-0.1035156-0.0391235-0.1708984c-0.2294922-0.492218-1.2285156-1.1494141-2.1278992-1.2315063
			c-0.4940796,0.0205994-0.9266663,0.2940063-1.3456726,0.5585938c-0.4092407,0.2588196-0.795929,0.5029907-1.2314148,0.5215149
			c-0.4463196,0.0205078-0.8925781-0.2333984-1.3633118-0.5010071c-0.4541016-0.257782-0.9237671-0.523407-1.3700867-0.5078125
			c-0.4327087,0.0166321-0.8995056,0.2559204-1.3505859,0.4883118c-0.4990234,0.2558899-1.0155945,0.5205078-1.5332336,0.5205078
			c-0.4853821,0-0.8910828-0.2412109-1.3207703-0.4961243c-0.4541016-0.2695007-0.9239197-0.5487976-1.5210266-0.5487976
			c-0.581604,0-1.0014648,0.2939148-1.4072876,0.5771179c-0.3994141,0.2783813-0.7762756,0.5440063-1.2640991,0.5029907
			c-0.4829102-0.0380859-0.9228821-0.3280945-1.3482056-0.6083984c-0.4237976-0.2792969-0.8241882-0.5429993-1.2275085-0.5429993
			c-0.4784851,0-1.2041016,0.4580078-1.7338867,0.7929993c-0.3407898,0.2148132-0.5596008,0.3505859-0.717804,0.405304
			C19.2895813,38.3183899,19.3710938,38.3876648,19.4232788,38.4198914L19.4232788,38.4198914z M40.2958679,38.782196h-0.0751953
			L19.496582,38.7099609c-0.0357056,0.0146179-0.0785828,0.0175476-0.1275024,0.0028992
			c-0.1185913-0.0360718-0.5903015-0.391571-0.5307007-0.6064758c0.004425-0.0166016,0.050293-0.1629944,0.2474976-0.1142273
			c0.0835266-0.0009766,0.425293-0.2167969,0.7002258-0.390564c0.5908813-0.3731079,1.3266907-0.8378906,1.8886719-0.8378906
			c0.4902039,0,0.9458008,0.3007812,1.3867188,0.5907898c0.394989,0.2606812,0.8031921,0.5292664,1.2118835,0.5614929
			c0.3853149,0.031311,0.7041016-0.1924133,1.0751953-0.4512024c0.4224243-0.2949219,0.9009094-0.6289062,1.5733032-0.6289062
			c0.6766968,0,1.2036133,0.3125305,1.6689148,0.5888977c0.3945923,0.2344055,0.7670898,0.4551086,1.1728821,0.4551086
			c0.4477234,0,0.9321289-0.2480774,1.4004211-0.4883118c0.4803772-0.2460938,0.9754944-0.5009766,1.4725952-0.5194702
			c0.5253906-0.022522,1.0342102,0.2674866,1.5243835,0.5448914c0.4335938,0.2460938,0.8448181,0.4784851,1.2080078,0.4628906
			c0.358429-0.014679,0.7129211-0.2392883,1.0879211-0.476593c0.4541016-0.2871094,0.9238892-0.5830078,1.5-0.6035156h0.0087891
			h0.0088196c1.0108032,0.0888977,2.1054688,0.8241882,2.3730774,1.398407
			c0.118103,0.2530212,0.0604858,0.4238892-0.0079041,0.5224915L40.2958679,38.782196L40.2958679,38.782196z"/>
		<path class="st4" d="M27.4813843,36.5791016l4.6368103-0.0028992c0,0-1.0381165-1.5821228-2.3179016-1.4737244
			C28.3749695,35.1395874,27.4813843,36.5791016,27.4813843,36.5791016L27.4813843,36.5791016L27.4813843,36.5791016z"/>
		<path class="st4" d="M29.9267883,35.2421875c-0.0375977,0-0.0756836,0.0018921-0.1142883,0.0048828
			c-1.004425,0.0263367-1.7388,0.796814-2.0474243,1.1864929l4.0650024-0.0019836
			C31.5116882,36.0331726,30.7738953,35.2421875,29.9267883,35.2421875L29.9267883,35.2421875z M27.2206726,36.7236023
			l0.1376953-0.2207031c0.0381165-0.0615234,0.9521179-1.5068054,2.4380188-1.5449219
			c1.3412781-0.1132812,2.3979187,1.4717102,2.4429016,1.5391235l0.1463928,0.2235718L27.2206726,36.7236023L27.2206726,36.7236023z
			"/>
		<path class="st4" d="M42.2655945,36.467804H35.921875c0,0,0.8203125-0.4795227,1.0449219-0.921936
			c0.4102173,0.2217102,0.2977905,0.4424133,1.1191101,0.4795227c0.8212585,0.0370789,1.6044922-0.9219055,2.3886719-0.8847961
			C41.257782,35.1767578,42.2655945,36.5048828,42.2655945,36.467804L42.2655945,36.467804L42.2655945,36.467804z"/>
		<path class="st4" d="M36.4003906,36.3231812H41.9375c-0.6123047-0.671814-1.1063843-1.0213928-1.469696-1.0380249
			c-0.3457031-0.0156555-0.7061157,0.1933289-1.0879211,0.4160156c-0.4151001,0.2402039-0.8456726,0.4912109-1.3007812,0.4687195
			c-0.5732117-0.0254211-0.7344055-0.1357117-0.9326172-0.3135071c-0.0401001-0.0361023-0.0810852-0.0732117-0.132782-0.1102905
			C36.859375,35.9599915,36.6132812,36.1669617,36.4003906,36.3231812L36.4003906,36.3231812z M42.2606812,36.6152039
			c-0.008667,0-0.0166016-0.0009155-0.0243835-0.0019226h-6.8496094l0.4618835-0.2705078
			c0.217804-0.1279907,0.8213196-0.5312805,0.9883118-0.8622742l0.0674133-0.1328125l0.1308899,0.070282
			c0.1445007,0.0780945,0.2304077,0.1552124,0.305603,0.2236328c0.139679,0.1249695,0.2402954,0.2157593,0.7519836,0.2392883
			c0.3740234,0.0174866,0.7627258-0.2110291,1.1416321-0.4307251c0.4012756-0.2333679,0.8124695-0.477478,1.2469788-0.4550781
			c0.710022,0.0342102,1.5381165,0.9785156,1.8096008,1.289093c0.0137024,0.0146179,0.0254211,0.0283203,0.0342102,0.0390015
			h0.0849915l0.000885,0.2451782l-0.0946655,0.0361328C42.2958984,36.6122742,42.2782898,36.6152039,42.2606812,36.6152039
			L42.2606812,36.6152039z"/>
		<path class="st4" d="M17.2650757,36.467804h6.343811c0,0-0.8208008-0.4795227-1.0449219-0.921936
			c-0.4101868,0.2217102-0.2983704,0.4424133-1.1196899,0.4795227c-0.820282,0.0370789-1.6044922-0.9219055-2.3880615-0.8847961
			C18.2724915,35.1767578,17.2650757,36.5048828,17.2650757,36.467804L17.2650757,36.467804L17.2650757,36.467804z"/>
		<path class="st4" d="M17.592804,36.3231812h5.5371094c-0.2124023-0.1562195-0.4590454-0.3631897-0.6123047-0.5770874
			c-0.0523071,0.0370789-0.0933228,0.0741882-0.1338196,0.1102905c-0.1983032,0.1777954-0.3594055,0.2880859-0.9325867,0.3135071
			c-0.4590149,0.0224915-0.8858032-0.2285156-1.3003235-0.4687195c-0.381897-0.2226868-0.7427063-0.4325867-1.0878906-0.4160156
			C18.6996765,35.3017883,18.2055969,35.6513672,17.592804,36.3231812L17.592804,36.3231812z M17.2695007,36.6152039
			c-0.0171204,0-0.0350952-0.0029297-0.0551147-0.0107117l-0.0942993-0.0352173v-0.2460938h0.0849915
			C17.214386,36.3125,17.2260742,36.2987976,17.2388,36.2841797c0.2719116-0.3105774,1.1000977-1.2548828,1.8104858-1.289093
			c0.4311829-0.0223999,0.8457031,0.2217102,1.2476196,0.4550781c0.3778992,0.219696,0.7689819,0.4472961,1.1410828,0.4307251
			c0.5112-0.0235291,0.6123047-0.1143188,0.7518921-0.2392883c0.0757141-0.0684204,0.1612244-0.1455383,0.3057251-0.2236328
			l0.1308899-0.070282l0.0668945,0.1328125c0.1673889,0.3309937,0.7705078,0.7342834,0.9887085,0.8622742l0.4618835,0.2705078
			h-6.8500977C17.2860718,36.6142883,17.2778015,36.6152039,17.2695007,36.6152039L17.2695007,36.6152039z"/>
		<path class="st4" d="M17.7387695,34.4970703l4.5185242,0.0361023c0,0-0.2915039-0.6123047-0.3280945-1.3681946
			c-1.1660156-0.3963928-2.1133118,0.8642883-2.9517212,0.8995056c-0.8374023,0.0361023-1.7119141-0.8995056-1.7119141-0.8995056
			l0.4737244,1.3320923H17.7387695L17.7387695,34.4970703z"/>
		<path class="st4" d="M17.8417969,34.352478l4.1982117,0.0342102c-0.0863953-0.2333984-0.2124023-0.6387024-0.2490234-1.1123047
			c-0.6073914-0.1582031-1.1582031,0.1651001-1.6918945,0.4794922c-0.3851929,0.2266235-0.7490234,0.4404297-1.1152039,0.4560852
			c-0.5215149,0.0214233-1.0409851-0.289093-1.3920898-0.5605774L17.8417969,34.352478L17.8417969,34.352478z
			 M22.4872742,34.6796875l-4.8511047-0.0381165l-0.5072937-1.4286804l0.2427368-0.147522
			c0.0082703,0.0088196,0.8412781,0.8858337,1.6000671,0.8545227c0.2939148-0.0126953,0.6274109-0.2090149,0.9804077-0.4160156
			c0.5879211-0.3457031,1.2543945-0.7373047,2.0240173-0.476593l0.0932007,0.0322876l0.0048828,0.0976257
			c0.0346985,0.7187805,0.3110962,1.3075867,0.3135071,1.3134766L22.4872742,34.6796875L22.4872742,34.6796875z"/>
		<path class="st4" d="M41.8603821,34.4970703l-4.5185852,0.0361023c0,0,0.2919922-0.6123047,0.3280945-1.3681946
			c1.1660156-0.3963928,2.1132812,0.8642883,2.9522095,0.8995056c0.8378906,0.0361023,1.7118835-0.8995056,1.7118835-0.8995056
			L41.8603821,34.4970703L41.8603821,34.4970703L41.8603821,34.4970703z"/>
		<path class="st4" d="M37.8085938,33.2743835c-0.0371094,0.4736023-0.1631165,0.8789062-0.2490234,1.1123047l4.1982117-0.0342102
			l0.25-0.7030945c-0.3505859,0.2714844-0.8729858,0.5820007-1.3926086,0.5605774
			C40.2489624,34.1943054,39.8856812,33.9804993,39.5,33.7538757C38.9667969,33.4394836,38.414978,33.1161804,37.8085938,33.2743835
			L37.8085938,33.2743835z M37.1122742,34.6796875l0.0986023-0.2090149
			c0.0029907-0.0058899,0.2803345-0.5967102,0.3145142-1.3134766l0.0048828-0.0976257l0.093689-0.0322876
			c0.7696533-0.2607117,1.4356079,0.1308899,2.0235291,0.476593c0.352478,0.2070007,0.6864929,0.4033203,0.9804077,0.4160156
			c0.764679,0.032196,1.5917969-0.8457031,1.6005859-0.8545227l0.2421875,0.147522l-0.507782,1.4277039L37.1122742,34.6796875
			L37.1122742,34.6796875z"/>
		<path class="st4" d="M28.6333008,34.5331726l2.2954102,0.0010071c0,0,0.0365906-0.756897-1.1660156-0.756897
			C28.5604858,33.7772827,28.6333008,34.5331726,28.6333008,34.5331726L28.6333008,34.5331726L28.6333008,34.5331726z"/>
		<path class="st4" d="M28.7948914,34.3876953l1.9633789,0.0009766c-0.0204773-0.0606079-0.058075-0.1337891-0.1260071-0.203186
			c-0.168396-0.1727905-0.468689-0.2635803-0.8695679-0.2635803c-0.3989258,0-0.6934204,0.0897827-0.8516235,0.2606812
			C28.8457031,34.2528992,28.8120117,34.3270874,28.7948914,34.3876953L28.7948914,34.3876953z M31.0673828,34.6786804
			l-2.5653992-0.0009766l-0.0126953-0.1308289c-0.0009766-0.0117188-0.0263977-0.3027954,0.2030945-0.5546875
			c0.2167969-0.2392883,0.5771179-0.3603821,1.0703125-0.3603821c0.4927063,0,0.8573914,0.1210938,1.0840149,0.3583984
			c0.2382812,0.2499695,0.227478,0.5390625,0.2264709,0.5507812L31.0673828,34.6786804L31.0673828,34.6786804z"/>
		<path class="st5" d="M27.4306946,27.1499023l4.7733765,1.2606812v-6.734314
			c-2.1864624,0.1079102-4.0082703-4.1049805-0.1454773-4.3930969c-3.789978-0.5404968-4.2271118,0.4320984-4.6646118,1.4761047
			L27.4306946,27.1499023L27.4306946,27.1499023L27.4306946,27.1499023z"/>
		<path class="st6" d="M27.5751648,27.0380554l4.484436,1.1846313v-6.4003906
			c-1.2740173-0.0396118-2.3213196-1.3638-2.3946228-2.550293c-0.0589905-0.9458313,0.4644165-1.6377258,1.4336243-1.9551086
			c-2.8120117-0.2451172-3.1884155,0.5858765-3.5595093,1.4711609L27.5751648,27.0380554L27.5751648,27.0380554z
			 M32.204071,28.5551758c-0.0126648,0-0.0243835-0.0014954-0.0370789-0.0043945l-4.773407-1.2607727
			c-0.0635071-0.0166321-0.1074829-0.0737305-0.1080017-0.1391296l-0.0361023-8.3905945
			c0-0.0196228,0.0033875-0.0386047,0.0112305-0.0567017c0.4370728-1.0444031,0.8886719-2.1245117,4.8183899-1.5639954
			c0.0731812,0.0102844,0.1270142,0.0743103,0.1239929,0.148468c-0.0028992,0.0737305-0.0605164,0.1338501-0.1338196,0.1396484
			c-1.4095764,0.1049805-2.1805725,0.7704773-2.1152039,1.8266907c0.066925,1.0780945,1.0801392,2.3344727,2.2432251,2.2773132
			c0.0381165-0.0019226,0.0780945,0.0121765,0.1063843,0.0395508c0.0292969,0.0273132,0.0449219,0.0654297,0.0449219,0.105011
			v6.734314c0,0.0449829-0.0205078,0.0874023-0.055603,0.1148071C32.2666016,28.5448914,32.2354126,28.5551758,32.204071,28.5551758
			L32.204071,28.5551758z"/>
		<path class="st5" d="M28.4912109,33.2372742c-1.0386047,1.6992188-3.8140259,1.1953125-4.4629211,0.0087891
			C23.8334961,33.1913757,23.9487,25.9262695,23.9487,25.9262695s-0.3099976-0.139679-0.3242188-0.3633118
			c-0.0140686-0.2255859,0.4214172-0.2460938,0.4214172-0.534668c0-0.2886047-0.4448242-0.1757812-0.4541016-0.4658203
			c0.0019836-0.277771,0.4756165-0.2396851,0.4541016-0.4960938c-0.0249023-0.2894897-0.5298157-0.246582-0.5513-0.5131836
			c-0.0166321-0.2119141,0.3613892-0.3965149,0.4662781-0.4916992l-0.3529968-0.0053101l-0.7948914,0.0160828
			c-0.5645142,0.0005188,0.0097961,0.121521,0.0014954,0.4438171c-0.0048828,0.2105103-0.2861938,0.3500977-0.3115845,0.5332031
			c-0.0087891,0.1879883,0.4023743,0.3198242,0.4076843,0.5448914c0.0048828,0.2012024-0.4042969,0.2149048-0.3895874,0.401886
			c0.0253906,0.3164062,0.3622742,0.3857117,0.3573914,0.5771484c-0.0054016,0.1913757-0.4530945,0.2641907-0.4545898,0.4169617
			c0.015686,0.2949829,0.0650024,7.4707031,0.0650024,7.4707031C23.2025757,37.1161804,27.3227844,38.0469055,28.4912109,33.2372742
			L28.4912109,33.2372742L28.4912109,33.2372742z"/>
		<path class="st6" d="M24.0674133,33.1063843c0,0,0,0,0.0004883,0
			C24.0674133,33.1063843,24.0674133,33.1063843,24.0674133,33.1063843L24.0674133,33.1063843z M24.0679016,33.1063843
			L24.0679016,33.1063843L24.0679016,33.1063843L24.0679016,33.1063843z M24.0683899,33.1073914L24.0683899,33.1073914
			L24.0683899,33.1073914L24.0683899,33.1073914z M22.6337891,33.4462891
			c0.3363953,1.7001953,1.4844055,2.907196,2.7948914,2.9374695c0.0171204,0,0.0337219,0,0.050293,0
			c1.1670227,0,2.1416016-0.9316711,2.6851196-2.5370789c-0.4838867,0.4227905-1.1474915,0.6435242-1.9043274,0.6289062
			c-1.0136719-0.0244141-1.9701843-0.4873047-2.3422852-1.1308899c-0.1011047-0.1259155-0.1542969-0.6894226-0.1470032-3.7792969
			c0.0039368-1.5771179,0.0264282-3.167511,0.032196-3.5537109c-0.1175842-0.0703125-0.3085938-0.2187195-0.3226624-0.4393921
			c-0.0122375-0.1918945,0.1420898-0.2915039,0.2548828-0.3643188c0.112793-0.0726929,0.1664734-0.1141968,0.1664734-0.1796875
			c0-0.0346069-0.0063782-0.0483093-0.1323853-0.0975952c-0.1175842-0.045929-0.3143921-0.1235962-0.3217163-0.3638306
			c0.0014038-0.2348938,0.1928101-0.3295898,0.3193054-0.3920898c0.0947266-0.046875,0.137207-0.0717773,0.1347961-0.0966797
			c-0.0043945-0.0532227-0.0624695-0.0874329-0.1992798-0.1478882c-0.1411133-0.0630188-0.3348999-0.1489258-0.3519897-0.3657227
			c-0.0112305-0.1445923,0.0722961-0.2632141,0.1796875-0.361908l-0.6811829,0.0137024
			c0.0615845,0.0776062,0.1142883,0.1773071,0.1108704,0.3032227c-0.0038757,0.1655579-0.112793,0.2885742-0.2001648,0.3871765
			c-0.045929,0.0513-0.0967102,0.1094055-0.1098938,0.1504211c0.0141602,0.0312805,0.0888672,0.0932922,0.1347961,0.1308899
			c0.1190796,0.098114,0.2670898,0.2206726,0.2714844,0.4032898c0.0043945,0.1918945-0.1669922,0.2808228-0.280304,0.3394165
			c-0.0342102,0.0179749-0.0888977,0.0463867-0.1089172,0.0653687c0.0132141,0.1098938,0.0855408,0.1763306,0.1685181,0.2524109
			c0.0854187,0.0786133,0.1918945,0.1767883,0.1878967,0.3286133c-0.0048218,0.1846008-0.1810913,0.2797852-0.3227234,0.3564758
			c-0.0429688,0.0229187-0.1044922,0.0566101-0.1304016,0.0791016
			C22.5858765,26.5116882,22.6304016,33.0087585,22.6337891,33.4462891L22.6337891,33.4462891z M25.4799805,36.6737976
			c-0.019104,0-0.0385742,0-0.0575867-0.0009155c-1.4512024-0.0322876-2.7163086-1.3417969-3.0757141-3.1836243
			c-0.0019836-0.0087891-0.0028992-0.0185852-0.0028992-0.0273743c-0.0004883-0.0713196-0.049408-7.175293-0.0644836-7.4638977
			c0.0010071-0.1669006,0.1509094-0.2480164,0.2831726-0.3193054c0.0552368-0.0298157,0.1577148-0.0853882,0.1724243-0.1162109
			c-0.0010071-0.0131836-0.0581055-0.0653992-0.0957031-0.1005859c-0.1031189-0.0942078-0.2437134-0.2236023-0.2621765-0.4541016
			c-0.0152283-0.1885071,0.1532593-0.2759094,0.2650757-0.3339844c0.0395203-0.0205078,0.1133118-0.0591125,0.125-0.0805359
			c-0.0025024-0.0453796-0.0977173-0.1240845-0.1674805-0.1816711c-0.1167297-0.0966797-0.2490234-0.2055054-0.2412109-0.3691101
			c0.0186157-0.1416016,0.1063843-0.2406921,0.1835938-0.328125c0.0620117-0.0698547,0.1264954-0.1420898,0.1278992-0.202179
			c0.0020142-0.0770874-0.074707-0.1488953-0.1357117-0.2059937c-0.0625-0.0585938-0.1479797-0.1387024-0.1034851-0.2510071
			c0.050293-0.1274719,0.2113953-0.1274719,0.3822937-0.1279907l0.7919922-0.0161133l0.3579102,0.0054016
			c0.0596008,0.0010071,0.1123047,0.0381165,0.1333008,0.0932922c0.0209961,0.0556335,0.0058899,0.1186218-0.0381165,0.1587219
			c-0.0331726,0.0302124-0.0795898,0.0614929-0.132782,0.098114c-0.0801086,0.0546875-0.292511,0.1991882-0.2865906,0.2753906
			c0.0033875,0.0409851,0.0741882,0.0756836,0.1810913,0.1229858c0.1480103,0.0660095,0.3505859,0.1562805,0.3706055,0.3887024
			c0.0185852,0.2260742-0.1704102,0.3193054-0.2954102,0.3808899c-0.1185913,0.0586243-0.1577148,0.0854187-0.1582031,0.1289062
			c0.0010071,0.0336914,0.0151978,0.0493164,0.1381836,0.0971069c0.1182251,0.0463867,0.315918,0.1240845,0.315918,0.3677063
			c0,0.2304993-0.1802063,0.3466797-0.2992859,0.4233704c-0.0464172,0.0297241-0.1240234,0.0800171-0.1226196,0.1025085
			c0.0064087,0.1011047,0.164093,0.2056274,0.2398071,0.2397156c0.0521851,0.0239868,0.0858765,0.0766907,0.085022,0.1343079
			c-0.041626,2.5990906-0.0635376,6.8179016,0.0492554,7.2290039c0.004425,0.0058899,0.0088196,0.0126953,0.0122375,0.0195923
			c0.3129883,0.5711975,1.1810913,0.9862671,2.1112976,1.0086975c0.9223938,0.0195923,1.6894836-0.3505249,2.1005859-1.0243835
			c0.0375977-0.0605164,0.1132812-0.0849304,0.1791992-0.0576172c0.0658875,0.0274048,0.1019897,0.0986023,0.0854187,0.1679993
			C28.1133118,35.407196,26.9375,36.6737976,25.4799805,36.6737976L25.4799805,36.6737976z"/>
		<path class="st5" d="M31.2070007,33.2372742c1.039093,1.6992188,3.8144836,1.1953125,4.4628601,0.0087891
			C35.8642883,33.1913757,35.75,25.9262695,35.75,25.9262695s0.3095703-0.139679,0.3241882-0.3633118
			c0.0137024-0.2255859-0.3945007-0.2460938-0.3945007-0.534668c0-0.2886047,0.4179993-0.1757812,0.4266968-0.4658203
			c-0.0018921-0.277771-0.438385-0.2578125-0.4179077-0.5141602c0.0253906-0.2895203,0.368103-0.2553406,0.3877258-0.5224304
			c0.0166016-0.2294922-0.2149048-0.3692017-0.3203125-0.464386l0.3348999-0.0053101l0.7948914,0.0160828
			c0.5645142,0.0005188-0.0096741,0.121521-0.0018921,0.4438171c0.0048828,0.2105103,0.2860718,0.3500977,0.3115234,0.5332031
			c0.0087891,0.1879883-0.4023132,0.3198242-0.4072266,0.5448914c-0.0049133,0.2012024,0.4043274,0.2149048,0.3887024,0.401886
			c-0.0253906,0.3164062-0.3614197,0.3857117-0.3564758,0.5771484c0.0048828,0.1913757,0.453064,0.2641907,0.454071,0.4169617
			c-0.0155945,0.2949829-0.0643921,7.4707031-0.0643921,7.4707031
			C36.4960938,37.1171875,32.3760071,38.0469055,31.2070007,33.2372742L31.2070007,33.2372742L31.2070007,33.2372742z"/>
		<path class="st6" d="M35.6308899,33.1063843L35.6308899,33.1063843L35.6308899,33.1063843L35.6308899,33.1063843z
			 M35.6308899,33.1063843c0,0,0,0-0.0010071,0H35.6308899L35.6308899,33.1063843z M35.6298828,33.1073914L35.6298828,33.1073914
			L35.6298828,33.1073914L35.6298828,33.1073914z M35.6298828,33.1073914L35.6298828,33.1073914L35.6298828,33.1073914
			L35.6298828,33.1073914z M31.5341797,33.8466797c0.5517273,1.6278992,1.5516968,2.5674133,2.7352905,2.5370789
			c1.3106079-0.0302734,2.4590149-1.2372742,2.7950134-2.9374695c0.0039062-0.4356079,0.0477905-6.8687134,0.0643921-7.4341125
			c-0.0263977-0.0220032-0.0878906-0.0556946-0.1308899-0.0786133c-0.1416016-0.0766907-0.3173218-0.171875-0.3222046-0.3564758
			c-0.0048828-0.151825,0.1015015-0.25,0.1875-0.3286133c0.0830078-0.0760803,0.155304-0.1420898,0.1680298-0.2524109
			c-0.0196228-0.0189819-0.0743103-0.0473938-0.1083984-0.0653687c-0.1133423-0.0585938-0.2842102-0.147522-0.2803345-0.3394165
			c0.0049133-0.1826172,0.1522827-0.3051758,0.2715149-0.4032898c0.0458984-0.0375977,0.1210938-0.0996094,0.1347046-0.1308899
			c-0.0126953-0.0410156-0.0643921-0.0991211-0.109314-0.1504211c-0.0878906-0.0986023-0.1962891-0.2216187-0.2001953-0.3871765
			c-0.0038757-0.1259155,0.0487976-0.2256165,0.110321-0.3032227l-0.734436-0.0146179
			c0.0664062,0.0888062,0.1153259,0.1992188,0.1054993,0.3349304c-0.0145874,0.2016907-0.1513672,0.292511-0.2509766,0.359375
			c-0.0957031,0.0644226-0.1307983,0.0933228-0.1366882,0.1645203c-0.0019226,0.0288696,0.0214844,0.0493774,0.1259766,0.1098938
			c0.1162109,0.0668945,0.2909851,0.1679993,0.2919922,0.3911133c-0.006897,0.2436829-0.1933899,0.3212891-0.3046875,0.3681946
			c-0.1171875,0.0482788-0.1221008,0.0605164-0.1221008,0.0986023c0,0.0683899,0.0478821,0.1078796,0.155304,0.1820984
			c0.1063843,0.0727844,0.2510071,0.1729126,0.2392883,0.361908c-0.014679,0.2206726-0.2050781,0.3690796-0.3233032,0.4393921
			c0.0058899,0.3862,0.0283203,1.976593,0.032196,3.5537109c0.0078125,3.0898743-0.0458679,3.6533813-0.1463928,3.7792969
			c-0.3730774,0.6435852-1.3291931,1.1064758-2.3417664,1.1308899
			C32.6806946,34.4902039,32.0186157,34.2694702,31.5341797,33.8466797L31.5341797,33.8466797z M34.218811,36.6737976
			c-1.4581299,0-2.6338196-1.2666016-3.1524048-3.4023132c-0.0166321-0.069397,0.0194702-0.1405945,0.0858765-0.1679993
			c0.0655212-0.0282898,0.1416016-0.0028992,0.1788025,0.0576172c0.4111023,0.6738586,1.1738281,1.0458984,2.1004944,1.0243835
			c0.9307251-0.0224304,1.7988892-0.4375,2.1114197-1.0086975c0.0038757-0.006897,0.007782-0.0137024,0.0126648-0.0195923
			c0.1123352-0.4111023,0.0898438-4.6299133,0.0488281-7.2290039c-0.0010071-0.0576172,0.0331726-0.110321,0.0858765-0.1343079
			c0.0752258-0.0340881,0.2325134-0.1386108,0.2393188-0.2402039c0.0009766-0.0249023-0.0606079-0.0674133-0.1142883-0.1044922
			c-0.1112976-0.0766296-0.2802124-0.1932983-0.2802124-0.4208984c0-0.2412109,0.1875-0.3193359,0.2987976-0.3662109
			c0.1152039-0.0477905,0.1260071-0.0615234,0.1278992-0.1040039c-0.0010071-0.0439148-0.0361023-0.0717773-0.1473999-0.1366882
			c-0.1152954-0.065918-0.2881165-0.1659851-0.2695923-0.3853149c0.0186157-0.2167969,0.1601868-0.3119812,0.2647095-0.3812866
			c0.0887756-0.0596008,0.1180725-0.0834961,0.1219788-0.1391907c0.0079041-0.1074219-0.0838928-0.1914062-0.2049866-0.2900085
			c-0.0253906-0.0205078-0.0488892-0.0396118-0.0684204-0.0570984c-0.0438843-0.0401001-0.0585938-0.1026001-0.0380859-0.1582031
			c0.0215149-0.0556946,0.0742188-0.092804,0.1338196-0.093811l0.3339844-0.0054016l0.7998047,0.0161133
			c0.1679688,0.0005188,0.329071,0.0005188,0.3798828,0.1279907c0.0439148,0.1123047-0.0409851,0.1924133-0.1034851,0.2510071
			c-0.0606079,0.0570984-0.1377258,0.1289062-0.1358032,0.2059937c0.0020142,0.0600891,0.0654907,0.1323242,0.1279907,0.2026062
			c0.0771179,0.0874023,0.1650085,0.1865845,0.1826172,0.3150024c0.0087891,0.1763-0.1231079,0.2851257-0.2402954,0.3818054
			c-0.0693359,0.0575867-0.1650085,0.1362915-0.1660156,0.1860657c0.0097961,0.0170288,0.0840149,0.0556335,0.1239929,0.0761414
			c0.1114197,0.058075,0.280304,0.1454773,0.2647095,0.3339844c-0.0185852,0.2304993-0.1592102,0.3598938-0.2616882,0.4541016
			c-0.0381165,0.0346985-0.0948181,0.0874023-0.0948181,0.1073914c0.0137024,0.0240173,0.116333,0.0795898,0.1708984,0.1094055
			c0.1329346,0.0712891,0.2823181,0.1524048,0.2832031,0.3105774c-0.0146179,0.296814-0.063385,7.4013062-0.0643921,7.4726257
			c0,0.0097961-0.0010071,0.0185852-0.0028992,0.0273743c-0.3594055,1.8418274-1.6240845,3.1513367-3.0751953,3.1836243
			C34.2568054,36.6737976,34.2372742,36.6737976,34.218811,36.6737976L34.218811,36.6737976z"/>
		<path class="st6" d="M27.2489929,33.5595703c0.4008789-0.2157898,0.7651978-0.4325867,1.0204773-0.9365845l-1.566864,0.0361938
			c0,0-0.7285156,0.4325867-1.0932312,0.9003906H27.2489929L27.2489929,33.5595703L27.2489929,33.5595703z"/>
		<path class="st6" d="M26.1044922,33.3495789h1.0917969c0.272522-0.1483765,0.4980164-0.2880859,0.6820984-0.5078125
			l-1.1147156,0.0254211C26.6542969,32.9354858,26.3666687,33.1221008,26.1044922,33.3495789L26.1044922,33.3495789z
			 M27.3017883,33.7685852h-2.1206055l0.2631226-0.3379211c0.3842773-0.4931641,1.1201782-0.9335938,1.1513977-0.952179
			l0.0469055-0.0272827l1.9711609-0.045929l-0.1576538,0.3125305c-0.2754211,0.5448914-0.6646423,0.7870789-1.1075134,1.0262756
			L27.3017883,33.7685852L27.3017883,33.7685852z"/>
		<path class="st6" d="M32.3134766,33.5595703c-0.4013977-0.2157898-0.7655945-0.4325867-1.0205078-0.9365845l1.5664368,0.0361938
			c0,0,0.7284851,0.4325867,1.0926819,0.9003906h-1.6396179H32.3134766L32.3134766,33.5595703z"/>
		<path class="st6" d="M31.6835938,32.8417664c0.1835938,0.2197266,0.4101868,0.359436,0.6825867,0.5088196l1.0917969-0.0010071
			c-0.2626953-0.227478-0.5508118-0.414093-0.6600647-0.4823914L31.6835938,32.8417664L31.6835938,32.8417664z
			 M34.3808899,33.7685852h-2.1211243l-0.0458679-0.0245056c-0.4434204-0.2391968-0.8321228-0.4813843-1.108429-1.0262756
			l-0.1572876-0.3125305l1.9707031,0.045929l0.0479126,0.0272827c0.030304,0.0185852,0.766571,0.4590149,1.1513977,0.952179
			L34.3808899,33.7685852L34.3808899,33.7685852z"/>
		<line class="st6" x1="24.4066772" y1="32.0478821" x2="35.1923828" y2="32.0829773"/>
		<path class="st6" d="M35.1923828,32.2929993c-0.0009766,0-0.0009766,0-0.0009766,0l-10.785614-0.0362244
			c-0.1157837,0-0.2090149-0.094696-0.2085266-0.2098694c0.0005493-0.1153259,0.0937195-0.2090149,0.2090149-0.2090149
			c0.0003967,0,0.0003967,0,0.0009155,0l10.7851868,0.0361023c0.1162109,0,0.2090149,0.0947876,0.2090149,0.2099915
			S35.3075867,32.2929993,35.1923828,32.2929993L35.1923828,32.2929993z"/>
		<line class="st6" x1="24.9164734" y1="29.4916687" x2="26.1918945" y2="31.1845703"/>
		<path class="st6" d="M26.1918945,31.3935852c-0.0635071,0-0.1260071-0.0292969-0.1674805-0.0840149l-1.2754211-1.6918945
			c-0.0693054-0.092804-0.0508118-0.2236938,0.0414734-0.2934875c0.0923157-0.0693054,0.2237244-0.0513,0.2929993,0.0415039
			l1.2754211,1.6918945c0.0698242,0.092804,0.0513,0.2236938-0.0409851,0.2940063
			C26.2802734,31.3798523,26.2357788,31.3935852,26.1918945,31.3935852L26.1918945,31.3935852z"/>
		<line class="st6" x1="24.9164734" y1="31.1835632" x2="26.3013" y2="29.5268555"/>
		<path class="st6" d="M24.9164734,31.3925781c-0.0473938,0-0.0951843-0.0155945-0.1342773-0.0487976
			c-0.0888062-0.0743103-0.1006165-0.2061157-0.0263062-0.2949829l1.3847046-1.6562195
			c0.0741882-0.0884094,0.2061157-0.1005859,0.2948914-0.0263977c0.0888977,0.0742188,0.1006165,0.206604,0.0263977,0.2948914
			l-1.3847961,1.656311C25.0355835,31.3671875,24.9761047,31.3925781,24.9164734,31.3925781L24.9164734,31.3925781z"/>
		<line class="st6" x1="25.6454773" y1="29.3818054" x2="25.6088867" y2="30.4262695"/>
		<path class="st6" d="M25.609375,30.6356812c-0.0024719,0-0.0048828,0-0.007782-0.0003967
			c-0.1153259-0.0039978-0.2055969-0.1006165-0.2017212-0.2164001l0.0365906-1.0444031
			c0.0039368-0.1152039,0.1011047-0.2070007,0.2163391-0.2015991c0.1157837,0.0038757,0.2060852,0.1010132,0.202179,0.2162781
			l-0.0365906,1.0444031C25.8144836,30.5469055,25.7216797,30.6356812,25.609375,30.6356812L25.609375,30.6356812z"/>
		<line class="st6" x1="26.9569702" y1="29.4916687" x2="28.2323914" y2="31.1845703"/>
		<path class="st6" d="M28.2323914,31.3935852c-0.0635071,0-0.1260071-0.0292969-0.167511-0.0840149l-1.2749023-1.6918945
			c-0.0697937-0.092804-0.0512085-0.2236938,0.0411072-0.2934875c0.0921936-0.0693054,0.2236023-0.0513,0.2928772,0.0415039
			l1.2754211,1.6918945c0.0698242,0.092804,0.0513,0.2236938-0.0409851,0.2940063
			C28.3207703,31.3798523,28.2763977,31.3935852,28.2323914,31.3935852L28.2323914,31.3935852z"/>
		<line class="st6" x1="26.9569702" y1="31.1835632" x2="28.3417969" y2="29.5268555"/>
		<path class="st6" d="M26.9569702,31.3925781c-0.0472717,0-0.0951843-0.0155945-0.1341553-0.0487976
			c-0.0889282-0.0743103-0.1006165-0.2061157-0.0264282-0.2949829l1.3847961-1.6562195
			c0.0742188-0.0884094,0.2060242-0.1005859,0.2948914-0.0263977c0.0888062,0.0742188,0.1006165,0.206604,0.0263062,0.2948914
			l-1.3846741,1.656311C27.0762024,31.3671875,27.0166016,31.3925781,26.9569702,31.3925781L26.9569702,31.3925781z"/>
		<line class="st6" x1="27.6859741" y1="29.3818054" x2="27.6493835" y2="30.4262695"/>
		<path class="st6" d="M27.6498718,30.6356812c-0.0023804,0-0.0048828,0-0.0072937-0.0003967
			c-0.1156921-0.0039978-0.2060852-0.1006165-0.2022095-0.2164001l0.0362244-1.0444031
			c0.0043945-0.1152039,0.1020203-0.2070007,0.2167969-0.2015991c0.1156921,0.0038757,0.2060242,0.1010132,0.2020874,0.2162781
			l-0.0365906,1.0444031C27.8549805,30.5469055,27.7621765,30.6356812,27.6498718,30.6356812L27.6498718,30.6356812z"/>
		<line class="st6" x1="29.0336914" y1="29.4916687" x2="30.3091125" y2="31.1845703"/>
		<path class="st6" d="M30.3096008,31.3935852c-0.0635071,0-0.1264954-0.0292969-0.167511-0.0840149l-1.2753906-1.6918945
			c-0.0693054-0.092804-0.0513-0.2236938,0.0414734-0.2934875c0.0918274-0.0693054,0.223114-0.0513,0.2929993,0.0415039
			l1.2754211,1.6918945c0.0692749,0.092804,0.0512085,0.2236938-0.0415039,0.2940063
			C30.3974915,31.3798523,30.3534851,31.3935852,30.3096008,31.3935852L30.3096008,31.3935852z"/>
		<line class="st6" x1="29.0336914" y1="31.1835632" x2="30.4184875" y2="29.5268555"/>
		<path class="st6" d="M29.0336914,31.3925781c-0.0473938,0-0.0947266-0.0155945-0.1337891-0.0487976
			c-0.0889282-0.0743103-0.1006165-0.2061157-0.0263977-0.2949829l1.3843079-1.6562195
			c0.0741577-0.0884094,0.2060547-0.1005859,0.2948608-0.0263977c0.0889282,0.0742188,0.1006165,0.206604,0.0264282,0.2948914
			l-1.3847961,1.656311C29.1532898,31.3671875,29.0937805,31.3925781,29.0336914,31.3925781L29.0336914,31.3925781z"/>
		<line class="st6" x1="29.7626953" y1="29.3818054" x2="29.726593" y2="30.4262695"/>
		<path class="st6" d="M29.726593,30.6356812c-0.0025024,0-0.0048828,0-0.0074158-0.0003967
			c-0.1156921-0.0039978-0.2059937-0.1006165-0.2015991-0.2164001l0.0361023-1.0444031
			c0.0039062-0.1152039,0.1011047-0.2055969,0.2163086-0.2015991c0.1156921,0.0038757,0.2060852,0.1010132,0.2022095,0.2162781
			l-0.0362244,1.0444031C29.9315796,30.5469055,29.8388977,30.6356812,29.726593,30.6356812L29.726593,30.6356812z"/>
		<line class="st6" x1="31.1835938" y1="29.4916687" x2="32.4589844" y2="31.1845703"/>
		<path class="st6" d="M32.4589844,31.3935852c-0.0635071,0-0.1260071-0.0292969-0.1669922-0.0840149l-1.2753906-1.6918945
			c-0.0698242-0.092804-0.0513-0.2236938,0.0409851-0.2934875c0.092804-0.0693054,0.2236938-0.0513,0.2929993,0.0415039
			l1.2753906,1.6918945c0.0703125,0.092804,0.0517273,0.2236938-0.0409851,0.2940063
			C32.546875,31.3798523,32.5028687,31.3935852,32.4589844,31.3935852L32.4589844,31.3935852z"/>
		<line class="st6" x1="31.1835938" y1="31.1835632" x2="32.5683899" y2="29.5268555"/>
		<path class="st6" d="M31.1835938,31.3925781c-0.0469055,0-0.094696-0.0155945-0.1338196-0.0487976
			c-0.0888672-0.0743103-0.1011047-0.2061157-0.0263977-0.2949829l1.3848267-1.6562195
			c0.0741577-0.0884094,0.2060852-0.1005859,0.2948914-0.0263977c0.0878906,0.0742188,0.1006165,0.206604,0.0263977,0.2948914
			l-1.3847961,1.656311C31.3027039,31.3671875,31.2431641,31.3925781,31.1835938,31.3925781L31.1835938,31.3925781z"/>
		<line class="st6" x1="31.9130859" y1="29.3818054" x2="31.8759766" y2="30.4262695"/>
		<path class="st6" d="M31.8769836,30.6356812c-0.0029907,0-0.0058899,0-0.0078735-0.0003967
			c-0.1152344-0.0039978-0.2060242-0.1006165-0.2021179-0.2164001l0.0360718-1.0444031
			c0.0049438-0.1152039,0.1026001-0.2070007,0.2168274-0.2015991c0.1162109,0.0038757,0.2060852,0.1010132,0.202179,0.2162781
			l-0.0361633,1.0444031C32.0820007,30.5469055,31.9882812,30.6356812,31.8769836,30.6356812L31.8769836,30.6356812z"/>
		<line class="st6" x1="33.2606812" y1="29.4916687" x2="34.5360718" y2="31.1845703"/>
		<path class="st6" d="M34.5360718,31.3935852c-0.063385,0-0.125885-0.0292969-0.1669922-0.0840149l-1.2752686-1.6918945
			c-0.0704041-0.0923157-0.0518188-0.2236938,0.0409851-0.2934875c0.0917969-0.0693054,0.2235718-0.0513,0.2929077,0.0415039
			l1.2753601,1.6918945c0.0694275,0.092804,0.0518494,0.2236938-0.0409851,0.2940063
			C34.6239624,31.3798523,34.5800781,31.3935852,34.5360718,31.3935852L34.5360718,31.3935852z"/>
		<line class="st6" x1="33.2606812" y1="31.1835632" x2="34.6454773" y2="29.5268555"/>
		<path class="st6" d="M33.2606812,31.3925781c-0.0477905,0-0.094696-0.0155945-0.1346741-0.0487976
			c-0.0879211-0.0743103-0.1006165-0.2061157-0.0263977-0.2949829l1.3847961-1.6562195
			c0.0741882-0.0884094,0.2059937-0.1005859,0.2948608-0.0263977c0.0889282,0.0742188,0.1006165,0.206604,0.0263977,0.2948914
			l-1.3847656,1.656311C33.3798828,31.3671875,33.320282,31.3925781,33.2606812,31.3925781L33.2606812,31.3925781z"/>
		<line class="st6" x1="33.9892883" y1="29.3818054" x2="33.953064" y2="30.4262695"/>
		<path class="st6" d="M33.953064,30.6356812c-0.0018616,0-0.0048828,0-0.0067749-0.0003967
			c-0.1162109-0.0039978-0.2060852-0.1006165-0.2022095-0.2164001l0.0361938-1.0444031
			c0.0039062-0.1152039,0.0996094-0.2070007,0.2167969-0.2015991c0.1152039,0.0038757,0.2060242,0.1010132,0.2021179,0.2162781
			l-0.0371094,1.0444031C34.1581726,30.5469055,34.0653992,30.6356812,33.953064,30.6356812L33.953064,30.6356812z"/>
	</g>
</g>
</svg>
