<?xml version="1.0" encoding="utf-8"?>
<!-- Generator: Adobe Illustrator 22.1.0, SVG Export Plug-In . SVG Version: 6.00 Build 0)  -->
<svg version="1.1" id="Layer_1" xmlns="http://www.w3.org/2000/svg" xmlns:xlink="http://www.w3.org/1999/xlink" x="0px" y="0px"
	 viewBox="0 0 60 60" style="enable-background:new 0 0 60 60;" xml:space="preserve">
<style type="text/css">
	.st0{clip-path:url(#SVGID_2_);fill:#FFFFFF;}
	.st1{clip-path:url(#SVGID_2_);fill:#E52521;}
</style>
<g id="XMLID_1_">
	<g>
		<defs>
			<path id="SVGID_1_" d="M59,60H0.9999695C0.4477234,60,0,59.5526733,0,59V0.9999695c0-0.5522461,0.4477234-1,0.9999695-1H59
				c0.5526886,0,0.9999847,0.4477539,0.9999847,1V59C59.9999847,59.5526733,59.5526886,60,59,60L59,60z"/>
		</defs>
		<clipPath id="SVGID_2_">
			<use xlink:href="#SVGID_1_"  style="overflow:visible;"/>
		</clipPath>
		<polygon class="st0" points="74.9091949,60 -14.9087219,60 -14.9087219,-0.0000305 74.9091949,-0.0000305 74.9091949,60 		"/>
		<path class="st1" d="M45.953064,42.3729858c0,0,1.8867188,0.2920227,4.0791321,0c0,0-0.4823914,2.5733032-0.4823914,4.281311
			c0,0,2.5702972-0.1387329,4.2567749-0.5058899c0,0-0.2967834,2.1513672,0,4.079071c0,0-1.6004944-0.3680725-4.2948914-0.500885
			c0,0,0.0712891,1.8534851,0.5196075,4.2753906c0,0-1.7939911-0.2579041-4.0782318,0.0009155
			c0,0,0.4668274-2.4550171,0.5049133-4.2763062c0,0-2.7304993,0.1659851-4.2792664,0.4999695c0,0,0.2919617-2.0029907,0-4.0781555
			c0,0,2.2548828,0.4472656,4.2851868,0.5038757C46.4638977,46.6522827,46.2686157,43.8456726,45.953064,42.3729858
			L45.953064,42.3729858z"/>
		<polygon class="st1" points="35.9844055,60 24.0150757,60 24.0150757,-0.0000305 35.9844055,-0.0000305 35.9844055,60 		"/>
		<polygon class="st1" points="-14.9087219,35.9844055 -14.9087219,24.0150757 74.9091949,24.0150757 74.9091949,35.9844055 
			-14.9087219,35.9844055 		"/>
		<path class="st1" d="M9.9682617,42.3729858c0,0,1.8872375,0.2920227,4.0796509,0c0,0-0.4825439,2.5733032-0.4825439,4.281311
			c0,0,2.5703125-0.1387329,4.2564087-0.5058899c0,0-0.2963867,2.1513672,0,4.079071c0,0-1.6005859-0.3680725-4.2944946-0.500885
			c0,0,0.0708008,1.8534851,0.519104,4.2753906c0,0-1.7940063-0.2579041-4.078125,0.0009155
			c0,0,0.4672241-2.4550171,0.5048218-4.2763062c0,0-2.7299194,0.1659851-4.2792358,0.4999695
			c0,0,0.2915039-2.0029907-0.0004883-4.0781555c0,0,2.2553406,0.4472656,4.2851257,0.5038757
			C10.4784851,46.6522827,10.2836914,43.8456726,9.9682617,42.3729858L9.9682617,42.3729858z"/>
		<path class="st1" d="M9.9682617,6.3886719c0,0,1.8872375,0.2915039,4.0796509,0c0,0-0.4825439,2.5732117-0.4825439,4.2802124
			c0,0,2.5703125-0.1376038,4.2564087-0.5047913c0,0-0.2963867,2.1503906,0,4.0785828c0,0-1.6005859-0.3677063-4.2944946-0.5004883
			c0,0,0.0708008,1.8529968,0.519104,4.2749023c0,0-1.7940063-0.2573242-4.078125,0.0004883
			c0,0,0.4672241-2.4541016,0.5048218-4.2753906c0,0-2.7299194,0.1659851-4.2792358,0.4995117
			c0,0,0.2915039-2.0029297-0.0004883-4.0776062c0,0,2.2553406,0.4466858,4.2851257,0.5033875
			C10.4784851,10.6674805,10.2836914,7.860321,9.9682617,6.3886719L9.9682617,6.3886719z"/>
		<path class="st1" d="M45.953064,6.3886719c0,0,1.8867188,0.2915039,4.0791321,0c0,0-0.4823914,2.5732117-0.4823914,4.2802124
			c0,0,2.5702972-0.1376038,4.2567749-0.5047913c0,0-0.2967834,2.1503906,0,4.0785828c0,0-1.6004944-0.3677063-4.2948914-0.5004883
			c0,0,0.0712891,1.8529968,0.5196075,4.2749023c0,0-1.7939911-0.2573242-4.0782318,0.0004883
			c0,0,0.4668274-2.4541016,0.5049133-4.2753906c0,0-2.7304993,0.1659851-4.2792664,0.4995117c0,0,0.2919617-2.0029297,0-4.0776062
			c0,0,2.2548828,0.4466858,4.2851868,0.5033875C46.4638977,10.6674805,46.2686157,7.860321,45.953064,6.3886719
			L45.953064,6.3886719z"/>
	</g>
</g>
</svg>
