<?xml version="1.0" encoding="utf-8"?>
<!-- Generator: Adobe Illustrator 22.1.0, SVG Export Plug-In . SVG Version: 6.00 Build 0)  -->
<svg version="1.1" id="Layer_1" xmlns="http://www.w3.org/2000/svg" xmlns:xlink="http://www.w3.org/1999/xlink" x="0px" y="0px"
	 viewBox="0 0 60 60" style="enable-background:new 0 0 60 60;" xml:space="preserve">
<style type="text/css">
	.st0{clip-path:url(#SVGID_2_);fill:#DA0E15;}
	.st1{clip-path:url(#SVGID_2_);fill:#FFFFFF;}
	.st2{clip-path:url(#SVGID_2_);fill:#020203;}
	.st3{clip-path:url(#SVGID_2_);fill:#F8D80B;}
</style>
<g id="XMLID_1_">
	<g>
		<defs>
			<path id="SVGID_1_" d="M59,60H0.9999695C0.4477234,60,0,59.5526733,0,59V0.9999695c0-0.5522461,0.4477234-1,0.9999695-1H59
				c0.5526886,0,0.9999847,0.4477539,0.9999847,1V59C59.9999847,59.5526733,59.5526886,60,59,60L59,60z"/>
		</defs>
		<clipPath id="SVGID_2_">
			<use xlink:href="#SVGID_1_"  style="overflow:visible;"/>
		</clipPath>
		<polygon class="st0" points="-30,-0.0000305 89.9999847,-0.0000305 89.9999847,60 -30,60 -30,-0.0000305 		"/>
		<polygon class="st1" points="-30,-0.0000305 89.9999847,-0.0000305 89.9999847,40.195282 -30,40.195282 -30,-0.0000305 		"/>
		<polygon class="st2" points="16.0712891,27.2587891 31.0712891,27.2587891 31.0712891,37.5693054 16.0712891,37.5693054 
			16.0712891,27.2587891 		"/>
		<polyline class="st0" points="23.8638,36.0624695 14.7070007,36.0624695 12.6771851,37.3974609 12.6771851,38.8134766 
			23.8638,38.8134766 		"/>
		<polygon class="st2" points="23.9237976,38.8729858 12.6171875,38.8729858 12.6171875,37.3652039 14.6889954,36.0019836 
			23.9237976,36.0019836 23.9237976,36.1221008 14.7250977,36.1221008 12.7372742,37.4306641 12.7372742,38.7538757 
			23.9237976,38.7538757 23.9237976,38.8729858 		"/>
		<path class="st0" d="M20.0317078,30.1391602c1.3183899,0,2.3950806,1.0991211,2.3950806,2.4536133v3.4638062h1.7210999V22.9320984
			h-9.4408875v13.1244812h2.9296875v-3.4638062C17.6366882,31.2909851,18.6947937,30.1391602,20.0317078,30.1391602
			L20.0317078,30.1391602z"/>
		<path class="st2" d="M22.4867859,35.9970703h1.6011047V22.992157h-9.3208008v13.0049133h2.8096008v-3.4042969
			c0-1.3623047,1.1244812-2.5137024,2.4550171-2.5137024c1.3536072,0,2.4550781,1.1279297,2.4550781,2.5137024V35.9970703
			L22.4867859,35.9970703z M24.2080078,36.117157h-1.8413086v-3.5243835c0-1.319397-1.0473938-2.3935852-2.3349915-2.3935852
			c-1.2655945,0-2.3348999,1.0957031-2.3348999,2.3935852v3.5243835h-3.0498047V22.8720703h9.5610046V36.117157
			L24.2080078,36.117157z"/>
		<polygon class="st2" points="17.9364624,14.0536804 22.2778015,14.0536804 22.2778015,22.0126953 17.9364624,22.0126953 
			17.9364624,14.0536804 		"/>
		<path class="st0" d="M13.7915039,21.8686829h8.1962891v1.0634155h-8.1962891V21.8686829L13.7915039,21.8686829z
			 M22.2655945,20.7787781h-3.7988281v-1.3475952h-2.785553v1.3475952h-1.8897095v-1.3475952h-1.1278992v2.446228h9.6019897"/>
		<path class="st2" d="M13.851593,22.8720703h8.0760803v-0.9346008H13.851593V22.8720703L13.851593,22.8720703z
			 M22.0478821,22.992157h-8.3164978v-1.0546875h-1.1278992v-2.5664062h1.2481079v1.3477173h1.7695007v-1.3477173h2.9057922
			v1.3477173h3.7988281v0.1200867h-3.9190369v-1.3476868h-2.6654663v1.3476868h-2.0098267v-1.3476868h-1.007782v2.3262024h1.007782
			v-0.0088196h8.3164978v0.0088196h0.277832v0.1200867h-0.277832V22.992157L22.0478821,22.992157z"/>
		<path class="st0" d="M17.0435181,11.1620789v8.269104h1.4232483v-2.2705994c0-0.8504944,0.6006165-1.546814,1.4404297-1.589325
			c0.026886-0.0014954,0.0531921,0,0.0805969,0c0.8778992,0,1.5892944,0.7114258,1.5892944,1.589325v2.2705994h1.355011v-8.269104
			H17.0435181L17.0435181,11.1620789z"/>
		<path class="st2" d="M21.637207,19.3710632h1.2348938V11.222168h-5.7686157v8.1488953h1.3031921v-2.2104797
			c0-0.8969116,0.6436157-1.605896,1.4976196-1.6494141c0.0195007-0.000885,0.0381165-0.0004883,0.0570984,0h0.0263977
			c0.9096985,0,1.6494141,0.7398071,1.6494141,1.6494141V19.3710632L21.637207,19.3710632z M22.9921875,19.4911804h-1.4750977
			v-2.3305969c0-0.8432007-0.6860046-1.5292969-1.5292969-1.5292969l-0.0283203-0.0003967
			c-0.016571,0-0.0326843-0.0004883-0.0492554,0.0003967c-0.7886353,0.0401001-1.3833313,0.6972961-1.3833313,1.5292969v2.3305969
			h-1.5434875v-8.3890991h6.0087891V19.4911804L22.9921875,19.4911804z"/>
		<polygon class="st0" points="16.5307922,10.0414734 16.5307922,11.1620789 23.3862,11.1620789 23.3862,10.0414734 
			16.5307922,10.0414734 		"/>
		<path class="st2" d="M16.5907898,11.1020813h6.7354126v-1.0005188h-6.7354126V11.1020813L16.5907898,11.1020813z
			 M23.4462891,11.222168h-6.9755859V9.9814148h6.9755859V11.222168L23.4462891,11.222168z"/>
		<polygon class="st0" points="15.6519165,7.8954773 15.6519165,10.0414734 23.8770142,10.0414734 23.8770142,7.8954773 
			22.6098938,7.8954773 22.6098938,8.9867859 21.0791016,8.9867859 21.0791016,7.8954773 18.7427063,7.8954773 
			18.7427063,8.9867859 17.2119141,8.9867859 17.2119141,7.8954773 15.6519165,7.8954773 		"/>
		<path class="st2" d="M15.7119141,9.9814148h8.1049805V7.9555359h-1.1470032v1.0913086h-1.6509094V7.9555359h-2.2162781v1.0913086
			h-1.6507874V7.9555359h-1.4400024V9.9814148L15.7119141,9.9814148z M23.9370117,10.1015625h-8.3452148V7.8354187h1.6802063
			v1.0913086h1.4105835V7.8354187h2.456604v1.0913086h1.410614V7.8354187h1.387207V10.1015625L23.9370117,10.1015625z"/>
		<polygon class="st2" points="23.9663086,37.4579773 12.6171875,37.4579773 12.6171875,37.3378906 23.9663086,37.3378906 
			23.9663086,37.4579773 		"/>
		<polyline class="st0" points="31.1719055,36.7528992 23.5693054,36.7528992 21.2769165,37.8594055 21.2769165,39.5068054 
			31.1719055,39.5068054 		"/>
		<polygon class="st2" points="31.2313843,39.5663757 21.2167969,39.5663757 21.2167969,37.8212891 23.5693054,36.6933899 
			31.2313843,36.6933899 31.2313843,36.8124695 23.5829773,36.8124695 21.3369141,37.8964844 21.3369141,39.4472961 
			31.2313843,39.4472961 31.2313843,39.5663757 		"/>
		<polygon class="st2" points="31.406311,37.9159851 21.2743835,37.9159851 21.2743835,37.7958679 31.406311,37.7958679 
			31.406311,37.9159851 		"/>
		<polygon class="st2" points="43.9286804,27.2587891 28.9286804,27.2587891 28.9286804,37.5693054 43.9286804,37.5693054 
			43.9286804,27.2587891 		"/>
		<polyline class="st0" points="36.1356812,36.0624695 45.2929993,36.0624695 47.3222961,37.3974609 47.3222961,38.8134766 
			36.1356812,38.8134766 		"/>
		<polygon class="st2" points="47.382782,38.8729858 36.0762024,38.8729858 36.0762024,38.7538757 47.2626648,38.7538757 
			47.2626648,37.4306641 45.2753906,36.1221008 36.0762024,36.1221008 36.0762024,36.0019836 45.3104858,36.0019836 
			47.382782,37.3652039 47.382782,38.8729858 		"/>
		<path class="st0" d="M39.9687805,30.1391602c-1.3183899,0-2.3955994,1.0991211-2.3955994,2.4536133v3.4638062H35.851593
			V22.9320984h9.4414062v13.1244812h-2.9296875v-3.4638062C42.3633118,31.2909851,41.3046875,30.1391602,39.9687805,30.1391602
			L39.9687805,30.1391602z"/>
		<path class="st2" d="M42.4228821,35.9970703h2.8105164V22.992157h-9.3212891v13.0049133h1.601593v-3.4042969
			c0-1.3857727,1.1005859-2.5137024,2.454071-2.5137024c1.3310242,0,2.4551086,1.1513977,2.4551086,2.5137024V35.9970703
			L42.4228821,35.9970703z M45.352478,36.117157h-3.0487976v-3.5243835c0-1.2978821-1.0692749-2.3935852-2.335907-2.3935852
			c-1.2870789,0-2.3349915,1.0741882-2.3349915,2.3935852v3.5243835h-1.8407898V22.8720703h9.5604858V36.117157L45.352478,36.117157
			z"/>
		<polygon class="st2" points="42.0634766,14.0536804 37.7226868,14.0536804 37.7226868,22.0126953 42.0634766,22.0126953 
			42.0634766,14.0536804 		"/>
		<path class="st0" d="M46.2089844,21.8686829h-8.1962891v1.0634155h8.1962891V21.8686829L46.2089844,21.8686829z
			 M37.7344055,20.7787781h3.7987671v-1.3475952h2.7852173v1.3475952h1.8905945v-1.3475952h1.1268921v2.446228h-9.6014709"/>
		<path class="st2" d="M38.0722656,22.8720703h8.0761414v-0.9346008h-8.0761414V22.8720703L38.0722656,22.8720703z
			 M46.2686157,22.992157h-8.3165283v-1.0546875h-0.2773132v-0.1200867h0.2773132v-0.0088196h8.3165283v0.0088196h1.007782
			v-2.3262024h-1.007782v1.3476868h-2.0098267v-1.3476868h-2.6650085v1.3476868h-3.9190063v-0.1200867h3.7987976v-1.3477173
			h2.9053345v1.3477173h1.7695007v-1.3477173h1.2480774v2.5664062h-1.1278687V22.992157L46.2686157,22.992157z"/>
		<path class="st0" d="M42.9570007,11.1620789v8.269104h-1.4238281v-2.2705994c0-0.8504944-0.6005859-1.546814-1.4403687-1.589325
			c-0.0274048-0.0014954-0.0527954,0-0.0811157,0c-0.8778992,0-1.5887756,0.7114258-1.5887756,1.589325v2.2705994h-1.3545227
			v-8.269104H42.9570007L42.9570007,11.1620789z"/>
		<path class="st2" d="M41.5937805,19.3710632h1.3027039V11.222168h-5.7685852v8.1488953h1.2353821v-2.2104797
			c0-0.9096069,0.7392273-1.6494141,1.6494141-1.6494141h0.0253906c0.0195007-0.0004883,0.0380859-0.0004883,0.0576172,0
			c0.8534851,0.0435181,1.4980774,0.7525024,1.4980774,1.6494141V19.3710632L41.5937805,19.3710632z M43.0166016,19.4911804
			h-1.5430298v-2.3305969c0-0.8320007-0.594696-1.4891968-1.3837891-1.5292969
			c-0.0166016-0.000885-0.0332031-0.0003967-0.0497742-0.0003967l-0.0273132,0.0003967
			c-0.843811,0-1.5303345,0.6860962-1.5303345,1.5292969v2.3305969h-1.4745483v-8.3890991h6.0087891V19.4911804
			L43.0166016,19.4911804z"/>
		<polygon class="st0" points="43.4687805,10.0414734 43.4687805,11.1620789 36.6132812,11.1620789 36.6132812,10.0414734 
			43.4687805,10.0414734 		"/>
		<path class="st2" d="M36.6737976,11.1020813h6.7354126v-1.0005188h-6.7354126V11.1020813L36.6737976,11.1020813z
			 M43.5292969,11.222168h-6.9755859V9.9814148h6.9755859V11.222168L43.5292969,11.222168z"/>
		<polygon class="st0" points="44.3476868,7.8954773 44.3476868,10.0414734 36.1229858,10.0414734 36.1229858,7.8954773 
			37.3905945,7.8954773 37.3905945,8.9867859 38.9208984,8.9867859 38.9208984,7.8954773 41.257782,7.8954773 41.257782,8.9867859 
			42.7880859,8.9867859 42.7880859,7.8954773 44.3476868,7.8954773 		"/>
		<path class="st2" d="M36.1825867,9.9814148h8.1054993V7.9555359h-1.4403992v1.0913086h-1.6503906V7.9555359h-2.2168274v1.0913086
			h-1.6503601V7.9555359h-1.147522V9.9814148L36.1825867,9.9814148z M44.4082031,10.1015625h-8.3447266V7.8354187h1.3867188
			v1.0913086h1.4111023V7.8354187h2.4561157v1.0913086h1.4110718V7.8354187h1.679718V10.1015625L44.4082031,10.1015625z"/>
		<polygon class="st2" points="47.382782,37.4579773 36.0341797,37.4579773 36.0341797,37.3378906 47.382782,37.3378906 
			47.382782,37.4579773 		"/>
		<polyline class="st0" points="28.8280945,36.7528992 36.4306946,36.7528992 38.7226868,37.8594055 38.7226868,39.5068054 
			28.8280945,39.5068054 		"/>
		<polygon class="st2" points="38.7832031,39.5663757 28.7680969,39.5663757 28.7680969,39.4472961 38.6630859,39.4472961 
			38.6630859,37.8964844 36.4169922,36.8124695 28.7680969,36.8124695 28.7680969,36.6933899 36.4570007,36.6991882 
			38.7832031,37.8212891 38.7832031,39.5663757 		"/>
		<polygon class="st2" points="38.7255859,37.9159851 28.593811,37.9159851 28.593811,37.7958679 38.7255859,37.7958679 
			38.7255859,37.9159851 		"/>
		<path class="st3" d="M34.0536804,35.1630859c-0.6221008,0.2070007-1.1846008,0.5556946-1.75,0.8799133
			c-0.726593,0.4296875-1.4315796,0.8973999-2.0874023,1.4296875c-0.2304993,0.1523132-0.4520874,0.3182983-0.6299133,0.532196
			c-0.2406921,0.2059937-0.4842529,0.4823914-0.4379883,0.8242188c0.0118103,0.1503601,0.2046204-0.1777344,0.3311157-0.1934204
			c0.2211914-0.1268921,0.4883118-0.1679077,0.7362976-0.110321c0.2984009-0.3134766,0.6820984-0.5243835,1.0137024-0.7987671
			c0.7041016-0.5254211,1.4618835-0.9766235,2.2323914-1.3965149c0.2695007-0.1376953,0.539093-0.2782898,0.8262024-0.3760071
			C34.2099915,35.6903687,34.1317749,35.4267883,34.0536804,35.1630859L34.0536804,35.1630859L34.0536804,35.1630859z"/>
		<path class="st2" d="M34.0233765,35.2226868c-0.5204773,0.1795959-1.0067749,0.4608765-1.477478,0.7342834l-0.219696,0.1260071
			c-0.8037109,0.4746094-1.484436,0.9414062-2.0806274,1.4248047c-0.2055969,0.1366882-0.4374695,0.3027039-0.6239929,0.5274048
			c-0.2051086,0.1756897-0.4644165,0.4403687-0.4296875,0.7705078c0.0200195-0.0166321,0.0458984-0.0430298,0.0653992-0.0625305
			c0.0674133-0.0673828,0.1366882-0.1376953,0.206604-0.1513672c0.2220764-0.1250305,0.488678-0.1680298,0.7368164-0.117218
			c0.1835632-0.1885071,0.399353-0.3417969,0.6078796-0.4902039c0.1312866-0.0927734,0.2666016-0.1894836,0.3916016-0.2929993
			c0.6142883-0.4580078,1.3251953-0.9033203,2.2401733-1.4013672l0.0234985-0.0127258
			c0.2470093-0.1268921,0.5009155-0.2568054,0.7675171-0.3515015L34.0233765,35.2226868L34.0233765,35.2226868z
			 M29.1958008,38.835907h0.0014954H29.1958008L29.1958008,38.835907z M29.1728821,38.9150085
			c-0.0078735,0-0.0151978-0.0019226-0.0230103-0.0048218c-0.0282898-0.0098267-0.0443726-0.0361938-0.04776-0.078186
			c-0.0508118-0.3799133,0.2347717-0.6738281,0.4541016-0.8613281c0.1888733-0.2284851,0.4271545-0.3993835,0.6346741-0.5370789
			c0.5961914-0.4844055,1.2807922-0.953125,2.089386-1.4306946l0.2187195-0.1259155
			c0.4893188-0.2832031,0.9941711-0.5751953,1.5401001-0.756897l0.0458984-0.0155945l0.2597046,0.8799133l-0.0409851,0.0135803
			c-0.2764282,0.0937805-0.5410461,0.2294922-0.7969055,0.3614197l-0.023407,0.0116882
			c-0.9102173,0.4960632-1.6171875,0.9384766-2.226593,1.3925781c-0.1259155,0.1045227-0.262207,0.2021179-0.3950195,0.2958984
			c-0.2119141,0.1504211-0.4310913,0.3066101-0.6123047,0.4970093l-0.0180969,0.0195923l-0.0257874-0.0058899
			c-0.2359009-0.0546875-0.4917297-0.015625-0.7032166,0.1054993l-0.0169983,0.0057983
			c-0.0415955,0.0049133-0.111908,0.0752258-0.1625977,0.1270142
			C29.2606812,38.8700867,29.2167969,38.9150085,29.1728821,38.9150085L29.1728821,38.9150085z"/>
		<path class="st2" d="M31.031311,37.8652039c-0.0333252,0-0.0601196-0.0263062-0.0601196-0.0595398v-0.9169922
			c0-0.0332031,0.0267944-0.0596008,0.0601196-0.0596008c0.0331726,0,0.0604858,0.0263977,0.0604858,0.0596008v0.9169922
			C31.0917969,37.8388977,31.0644836,37.8652039,31.031311,37.8652039L31.031311,37.8652039z"/>
		<path class="st2" d="M31.5976868,37.4589539c-0.0331726,0-0.0596008-0.0273743-0.0596008-0.0605774v-0.9091187
			c0-0.0331726,0.0264282-0.0605774,0.0596008-0.0605774c0.0332031,0,0.0605164,0.0274048,0.0605164,0.0605774v0.9091187
			C31.6582031,37.4315796,31.6308899,37.4589539,31.5976868,37.4589539L31.5976868,37.4589539z"/>
		<path class="st2" d="M32.164093,37.1005859c-0.0332031,0-0.0596008-0.0274048-0.0596008-0.0605774v-0.9043274
			c0-0.0331726,0.0263977-0.0595093,0.0596008-0.0595093s0.0595093,0.0263367,0.0595093,0.0595093v0.9043274
			C32.2236023,37.0731812,32.1972961,37.1005859,32.164093,37.1005859L32.164093,37.1005859z"/>
		<path class="st2" d="M32.7304993,36.7802734c-0.0332031,0-0.0596008-0.0263977-0.0596008-0.0596008v-0.9335938
			c0-0.0332031,0.0263977-0.0595703,0.0596008-0.0595703c0.0331726,0,0.0594788,0.0263672,0.0594788,0.0595703v0.9335938
			C32.789978,36.7538757,32.7636719,36.7802734,32.7304993,36.7802734L32.7304993,36.7802734z"/>
		<path class="st3" d="M25.9901733,35.1923828c-0.0926819,0.2588196-0.1854858,0.5175781-0.2782898,0.7763977
			c1.2973938,0.493103,2.5332031,1.1434937,3.7026978,1.8895874c0.3959045,0.2695007,0.8125305,0.5312195,1.1239929,0.9013977
			c0.0682983,0.1903992-0.120575,0.3486023-0.308075,0.2920227c-0.1719055-0.0585938-0.3409119-0.1250305-0.5220032-0.0010071
			c-0.2593079,0.1171875-0.4937134,0.5019226-0.0996094,0.6298828c0.542511,0.3652039,1.4253235,0.2060242,1.6860046-0.4316711
			c0.1366882-0.3291016,0.1455078-0.7490234-0.1191101-1.0185242c-0.4828796-0.5536804-1.1239929-0.9394836-1.7392883-1.329071
			c-1.0986023-0.6611938-2.2436218-1.2597961-3.4463196-1.7080078V35.1923828L25.9901733,35.1923828z"/>
		<path class="st2" d="M29.9296875,39.0263672c-0.0644836,0-0.1283875,0.0166321-0.1947937,0.0625
			c-0.167511,0.0761108-0.2964172,0.2441101-0.2896118,0.3701172c0.0043945,0.0809937,0.0645142,0.141571,0.1777039,0.1787109
			l0.0112915,0.0048828c0.2749329,0.1845093,0.655304,0.235321,0.993103,0.1318054
			c0.2969055-0.0897827,0.519104-0.2832031,0.6246033-0.5429993c0.1162109-0.2782898,0.156189-0.6982117-0.1083984-0.9687195
			c-0.4462891-0.5106812-1.0317993-0.8808594-1.5976868-1.2382812l-0.1338196-0.0839844
			c-1.2246094-0.7373352-2.3358765-1.289032-3.3945007-1.6875l-0.2471008,0.6894836
			c1.2022095,0.4598999,2.4365234,1.0907898,3.6685181,1.8769226l0.1303101,0.0878906
			c0.3549805,0.2402649,0.7226868,0.4872742,1.004364,0.8232727l0.0078125,0.0136108
			c0.0357056,0.0976868,0.0147095,0.2002258-0.0550842,0.2734985c-0.0772095,0.0810242-0.198822,0.1112976-0.3096008,0.0780945
			l-0.023407-0.0087891C30.1000977,39.0556641,30.0145874,39.0263672,29.9296875,39.0263672L29.9296875,39.0263672z
			 M30.2714844,39.9188843c-0.2460938,0-0.4882812-0.0672913-0.683075-0.1961975
			c-0.1861267-0.0625-0.2305298-0.1748047-0.2354126-0.2588196c-0.0097046-0.1825867,0.1669922-0.3779907,0.3365173-0.4551086
			c0.1854553-0.1278687,0.3622742-0.0673828,0.5335693-0.0087891l0.0220032,0.0078125
			c0.0762024,0.0234985,0.1611938,0.0028992,0.214386-0.0537109c0.0444336-0.0458984,0.0581055-0.1083984,0.0381165-0.1708984
			c-0.2730103-0.3222656-0.6323853-0.5643921-0.980011-0.7998047l-0.1289062-0.0868835
			c-1.2402649-0.7910156-2.4833679-1.4248047-3.6933899-1.8838196l-0.0419922-0.016571l0.309082-0.8633118l0.0439148,0.0166016
			c1.0772095,0.4023743,2.2070923,0.9619141,3.4541016,1.7119141l0.1347961,0.0849609
			c0.5718079,0.3613281,1.1625977,0.734436,1.6156921,1.2539062c0.2950134,0.3008118,0.2530212,0.7627258,0.1270142,1.0664062
			c-0.117218,0.2852173-0.3599243,0.4980164-0.6836243,0.5967102
			C30.5297852,39.9003906,30.3999023,39.9188843,30.2714844,39.9188843L30.2714844,39.9188843z"/>
		<line class="st3" x1="29.5429993" y1="37.039093" x2="29.469696" y2="37.8222656"/>
		<path class="st2" d="M29.469696,37.8817749c-0.0019226,0-0.0039062,0-0.0053101,0
			c-0.0332031-0.0028992-0.0576782-0.032196-0.0541992-0.0653992l0.0727234-0.782196
			c0.0033875-0.0332031,0.0331726-0.0567017,0.0653687-0.0546875c0.0332031,0.0028687,0.0577087,0.032196,0.0541992,0.0653992
			l-0.0732117,0.7832031C29.5263672,37.8583679,29.5004883,37.8817749,29.469696,37.8817749L29.469696,37.8817749z"/>
		<line class="st3" x1="30.1947937" y1="37.4384766" x2="29.9931946" y2="38.2050781"/>
		<path class="st2" d="M29.9931946,38.265564c-0.0054016,0-0.0103149-0.0009766-0.0157166-0.0018616
			c-0.0316772-0.0088196-0.0506897-0.0420227-0.0423889-0.0742188l0.2020874-0.765686
			c0.0083008-0.0322266,0.0409851-0.0517273,0.0732117-0.0429077c0.0317993,0.0086975,0.0508118,0.0409851,0.0424805,0.0731812
			l-0.2020874,0.7666016C30.0438843,38.2470703,30.0195007,38.265564,29.9931946,38.265564L29.9931946,38.265564z"/>
		<line class="st3" x1="30.891571" y1="37.9716797" x2="30.467804" y2="38.5663757"/>
		<path class="st2" d="M30.467804,38.6259766c-0.012207,0-0.0244141-0.0039062-0.034729-0.0107727
			c-0.0272827-0.0195312-0.0336914-0.0566101-0.0141907-0.0839233l0.4239197-0.5947876
			c0.0194702-0.0273132,0.0566101-0.0332031,0.0834961-0.0136108c0.0273132,0.0184937,0.0336914,0.0566101,0.0140991,0.0830078
			l-0.4238281,0.594696C30.5048828,38.6171875,30.4862976,38.6259766,30.467804,38.6259766L30.467804,38.6259766z"/>
		<line class="st3" x1="31.1054688" y1="39.4169922" x2="30.4931641" y2="39.0888672"/>
		<path class="st2" d="M31.1054688,39.4775085c-0.0097656,0-0.0195923-0.0019226-0.0283813-0.0068359l-0.6123047-0.3291016
			c-0.0288086-0.0155945-0.039978-0.0517883-0.0244141-0.0810852c0.0157166-0.0292053,0.0523376-0.0400085,0.0811157-0.0244141
			l0.6123047,0.3282166c0.0292969,0.0155945,0.0400085,0.0527039,0.0243835,0.0809937
			C31.1474915,39.4657898,31.1269836,39.4775085,31.1054688,39.4775085L31.1054688,39.4775085z"/>
		<line class="st3" x1="31.2958679" y1="38.7724915" x2="30.5937805" y2="38.8378906"/>
		<path class="st2" d="M30.5932922,38.8983765c-0.030304,0-0.0567017-0.023407-0.0596008-0.0545959
			c-0.0028992-0.0332947,0.0215149-0.0625,0.0541992-0.0654907l0.7020874-0.0654297
			c0.0322876-0.0019836,0.0625,0.0205078,0.0655212,0.0537109c0.0028992,0.0332031-0.0215149,0.0625305-0.0546875,0.0654297
			l-0.7017212,0.0654602C30.597168,38.8983765,30.5951843,38.8983765,30.5932922,38.8983765L30.5932922,38.8983765z"/>
		<line class="st3" x1="30.3900757" y1="39.789093" x2="30.3422852" y2="39.1719055"/>
		<path class="st2" d="M30.3900757,39.8486023c-0.0306702,0-0.0570984-0.0244141-0.0595093-0.055603l-0.0484009-0.6162109
			c-0.0023804-0.0332031,0.022522-0.0625305,0.0552368-0.0645142c0.0332031-0.0048828,0.0619812,0.0215149,0.0644836,0.0546875
			l0.0483093,0.617218c0.0024109,0.0332031-0.0224915,0.0614929-0.0552063,0.0644226
			C30.3930969,39.8486023,30.3916016,39.8486023,30.3900757,39.8486023L30.3900757,39.8486023z"/>
		<line class="st3" x1="30.1333008" y1="39.0829773" x2="29.5536804" y2="39.5106812"/>
		<path class="st2" d="M29.5536804,39.570282c-0.0184937,0-0.0365906-0.0078125-0.0482788-0.0244141
			c-0.0200195-0.0263977-0.0142212-0.0644836,0.0126953-0.0839844l0.5795898-0.4267273
			c0.0262756-0.0195923,0.0639038-0.014679,0.0839233,0.0127258c0.0195923,0.0263062,0.0136719,0.0643921-0.0127258,0.0839233
			l-0.5799866,0.4267883C29.5785828,39.5663757,29.5658875,39.570282,29.5536804,39.570282L29.5536804,39.570282z"/>
		<path class="st2" d="M27.3461914,36.6347961c-0.0332031,0-0.0600891-0.0274353-0.0600891-0.0606079V35.844696
			c0-0.0332031,0.026886-0.0605164,0.0600891-0.0605164s0.0600891,0.0273132,0.0600891,0.0605164v0.7294922
			C27.4062805,36.6073608,27.3793945,36.6347961,27.3461914,36.6347961L27.3461914,36.6347961z"/>
		<path class="st2" d="M28.8193054,37.507782c-0.0327148,0-0.0595093-0.0263977-0.0595093-0.0596008v-0.8280945
			c0-0.0332031,0.0267944-0.0605164,0.0595093-0.0605164c0.0331726,0,0.0600891,0.0273132,0.0600891,0.0605164v0.8280945
			C28.8793945,37.4813843,28.852478,37.507782,28.8193054,37.507782L28.8193054,37.507782z"/>
		<path class="st2" d="M28.0829773,37.070282c-0.0332031,0-0.0600891-0.0263977-0.0600891-0.0596008v-0.7783203
			c0-0.0331726,0.026886-0.0594788,0.0600891-0.0594788c0.0332336,0,0.0596313,0.0263062,0.0596313,0.0594788v0.7783203
			C28.1426086,37.0438843,28.1162109,37.070282,28.0829773,37.070282L28.0829773,37.070282z"/>
		<path class="st3" d="M25.2612,55.9277039v1.889679h4.050293v-1.889679h-1.2670898v0.945282h-1.6040039v-0.945282H25.2612
			L25.2612,55.9277039z M25.2612,53.3349609v1.8818054h1.1791992v-0.9443054h1.6040039v0.9443054h1.2670898v-1.8818054H25.2612
			L25.2612,53.3349609z"/>
		<path class="st2" d="M28.1044922,55.157196h1.1470032v-1.7627258h-3.9302063v1.7627258h1.0591125v-0.9443054h1.7240906V55.157196
			L28.1044922,55.157196z M29.3716125,55.2772827h-1.387207v-0.9453125h-1.4839172v0.9453125h-1.2992859v-2.0018921h4.1704102
			V55.2772827L29.3716125,55.2772827z M25.3212891,57.757782h3.9302063v-1.7705078h-1.1470032v0.9453125h-1.7240906v-0.9453125
			h-1.0591125V57.757782L25.3212891,57.757782z M29.3716125,57.8769836h-4.1704102v-2.0087891h1.2992859V56.8125h1.4839172
			v-0.9443054h1.387207V57.8769836L29.3716125,57.8769836z"/>
		<polygon class="st3" points="29.309082,45.3866882 30.4784851,45.3866882 30.4784851,59.007782 29.309082,59.007782 
			29.309082,45.3866882 		"/>
		<path class="st2" d="M29.3690796,58.9481812h1.049408v-13.500885h-1.049408V58.9481812L29.3690796,58.9481812z
			 M30.5385742,59.0673828h-1.2895813V45.3270874h1.2895813V59.0673828L30.5385742,59.0673828z"/>
		<polygon class="st3" points="29.309082,46.5653687 30.4784851,46.5653687 30.4784851,58.2978821 29.309082,58.2978821 
			29.309082,46.5653687 		"/>
		<path class="st2" d="M29.3690796,58.2382812h1.049408V46.625h-1.049408V58.2382812L29.3690796,58.2382812z M30.5385742,58.3583984
			h-1.2895813V46.5058594h1.2895813V58.3583984L30.5385742,58.3583984z"/>
		<path class="st3" d="M26.5614624,42.9784851h-0.6522827v1.0401001h0.6522827l3.3321228,1.9335022l3.3330078-1.9335022h0.6513062
			v-1.0401001H33.226593l-3.3330078-1.9335938L26.5614624,42.9784851L26.5614624,42.9784851z M29.8935852,42.0487976
			l2.4902039,1.4491882l-2.4902039,1.4433899l-2.4902954-1.4433899L29.8935852,42.0487976L29.8935852,42.0487976z"/>
		<path class="st2" d="M27.5259094,43.4979858l2.3680725,1.3721008l2.3677063-1.3721008l-2.3677063-1.3789062L27.5259094,43.4979858
			L27.5259094,43.4979858z M29.8939819,45.0126648l-2.6126709-1.5136719l2.6126709-1.5215149l2.6128235,1.5215149
			L29.8939819,45.0126648L29.8939819,45.0126648z M25.9706726,43.9570007h0.6069031l3.3164062,1.9238892l3.3160095-1.9238892
			h0.6063843v-0.9169922h-0.6063843l-3.3160095-1.9238281l-3.3164062,1.9238281h-0.6069031V43.9570007L25.9706726,43.9570007z
			 M29.8939819,46.0233765l-3.3490906-1.9432983h-0.6968079v-1.1631165h0.6968079l3.3490906-1.9433594l3.3492126,1.9433594
			h0.6962891v1.1631165h-0.6962891L29.8939819,46.0233765L29.8939819,46.0233765z"/>
		<path class="st3" d="M31.2012024,39.4188843c-0.0928345,0.1748962-0.2852173,0.2783813-0.4395142,0.3702087v1.7606812
			c0.1562805,0.0907898,0.3125,0.1806946,0.468811,0.2714844c-0.0020142-0.7509766,0.0038757-1.5019836-0.0029907-2.2528992
			C31.2206726,39.5224915,31.2255859,39.4520874,31.2012024,39.4188843L31.2012024,39.4188843L31.2012024,39.4188843z
			 M29.8461914,38.5028687c-0.5668945,0.0801086-0.9902039,0.6407166-0.9595032,1.2041016
			c0.0020142,0.8760071-0.0043945,1.7520142,0.0033875,2.6280212c0.0298157,0.5643921,0.5230103,1.0703125,1.0957031,1.0751953
			c0.4649048,0.0438843,0.9321899-0.2276001,1.127533-0.6514282c-0.1343384-0.0810852-0.2686462-0.1611023-0.4029236-0.2421875
			c-0.1040039,0.2782898-0.4038086,0.4501953-0.6958008,0.4179993c-0.3833008,0.0107117-0.6932983-0.3623047-0.6590881-0.7344055
			c0.0023804-0.8700867-0.0043945-1.7412109,0.0033875-2.6112976c0.0209961-0.3554688,0.3599243-0.6454773,0.7142944-0.6094055
			c0.1470032-0.0419617,0.3487244,0.1582031,0.4395142-0.014679c0.1366882-0.1943054-0.097229-0.3465881-0.2271118-0.4541016
			C30.1420898,38.4911804,29.9916992,38.5087891,29.8461914,38.5028687L29.8461914,38.5028687L29.8461914,38.5028687z"/>
		<path class="st2" d="M30.8231812,41.5145874l0.3457031,0.2001953c-0.000885-0.2528992,0-0.5058289,0-0.7586975
			c0.0010071-0.4620056,0.0010071-0.9229126-0.0028687-1.3838196c-0.0986328,0.1083984-0.2290344,0.1845093-0.3398132,0.2500305
			l-0.0030212,0.0018921V41.5145874L30.8231812,41.5145874z M31.2919922,41.9276733l-0.5917969-0.3417969v-1.8320007
			l0.0639954-0.0370789c0.1425171-0.0840149,0.3051147-0.179718,0.3822937-0.3272095l0.0458984-0.0849304L31.25,39.3817749
			c0.0282898,0.0371094,0.032196,0.0899048,0.0351868,0.1347961c0.0009155,0.015625,0.0009155,0.0292969,0.0028992,0.0420227
			c0.0048828,0.4717102,0.0039062,0.9346008,0.0039062,1.3974915c0,0.2879944-0.0010071,0.5770874,0,0.8651733V41.9276733
			L31.2919922,41.9276733z M29.8495789,38.5653992c-0.5189819,0.0751648-0.9310913,0.5957031-0.9013977,1.1376953
			c0.0010071,0.3349915,0.0005188,0.6659851,0,0.9981079c-0.000885,0.5350647-0.0013733,1.0887756,0.0035095,1.6327515
			c0.0288086,0.5439453,0.5028992,1.0098267,1.0345764,1.0146179c0.4219055,0.0401001,0.8501282-0.1962891,1.0469055-0.5663757
			L30.7388,42.6054993c-0.1324158,0.2616577-0.4278259,0.4227905-0.7310181,0.3895874
			c-0.1806946,0.0087891-0.3685913-0.0762024-0.5078125-0.2236023c-0.1474609-0.1582031-0.2245789-0.3730774-0.2055969-0.5772095
			c0.0005188-0.3280945,0-0.6611023-0.0004883-0.9941101c-0.0003967-0.5282593-0.0013733-1.0741882,0.0035095-1.6122742
			c0.0112-0.1894836,0.1044922-0.3701172,0.2552795-0.4981079c0.1470337-0.125885,0.3340149-0.1875,0.5157166-0.1727905
			c0.0731812-0.0166321,0.148407,0.0087891,0.2158203,0.0302734c0.120575,0.0390015,0.1483765,0.0381165,0.1737671-0.0108032
			c0.0805969-0.1152039,0.0098267-0.2010803-0.1674805-0.3426819l-0.0298157-0.0244751
			c-0.0785828-0.0088196-0.1590881-0.0068054-0.2445679-0.0048218
			C29.9603882,38.5653992,29.9047852,38.5663757,29.8495789,38.5653992L29.8495789,38.5653992z M30.0863953,43.4765625
			c-0.035614,0-0.0713196-0.0019836-0.1064148-0.0048828c-0.589386-0.0048828-1.1187134-0.5244141-1.1513977-1.1337891
			c-0.0048828-0.5479126-0.0039062-1.1016235-0.0033875-1.6366882c0.0004883-0.3321228,0.0009766-0.6631165,0-0.9942322
			c-0.0332031-0.602478,0.4306946-1.1825867,1.0126953-1.2645874l0.0054016-0.0010071l0.0052795,0.0010071
			c0.0541992,0.0018921,0.1094055,0,0.1651306-0.0010071c0.0917969-0.0018921,0.1864624-0.0039062,0.2801819,0.0087891
			l0.0175781,0.0019226l0.0557251,0.0458984c0.1312866,0.1044922,0.351593,0.280304,0.1958008,0.5019836
			c-0.0742188,0.1436157-0.2201843,0.0957031-0.3168945,0.0645142c-0.0566101-0.0185852-0.1152039-0.0381165-0.1558228-0.0264282
			l-0.0111694,0.0039368l-0.012207-0.0010071c-0.1509094-0.0166016-0.3100891,0.0361023-0.4346008,0.1416016
			c-0.1255188,0.1074219-0.2030945,0.256897-0.2119141,0.4101868c-0.0048828,0.5332031-0.0043945,1.0791321-0.0033875,1.6073914
			c0.0004883,0.3330078,0.0009766,0.6670227,0,1c-0.0160828,0.1748047,0.0487976,0.3545227,0.1727905,0.4873352
			c0.1166992,0.1239929,0.2676086,0.1903992,0.4234314,0.1854858c0.2763672,0.0292969,0.5477905-0.132782,0.6395569-0.3778992
			l0.0259094-0.0682983l0.5137024,0.3076172l-0.0234985,0.0497742
			C30.9761047,43.2030945,30.5414734,43.4765625,30.0863953,43.4765625L30.0863953,43.4765625z"/>
		<polygon class="st2" points="26.4379883,8.9887695 33.3125,8.9887695 33.3125,21.4701843 26.4379883,21.4701843 
			26.4379883,8.9887695 		"/>
		<path class="st0" d="M31.5897827,10.8690796h0.6807251v2.6147766h-0.6807251V10.8690796L31.5897827,10.8690796z
			 M27.7294922,10.8690796h0.6810913v2.6147766h-0.6810913V10.8690796L27.7294922,10.8690796z M29.6630859,10.1659546h0.6738281
			v3.5742188h-0.6738281V10.1659546L29.6630859,10.1659546z M25.9570007,8.9941101v10.4443665h2.1825867V16.340271
			c0-0.7142944,0.4576111-1.7065125,1.8604126-1.7065125c1.4022827,0,1.8604126,0.992218,1.8604126,1.7065125v3.0982056h2.1825867
			V8.9941101H25.9570007L25.9570007,8.9941101z"/>
		<path class="st2" d="M27.7896118,13.4237671h0.5609741v-2.4945984h-0.5609741V13.4237671L27.7896118,13.4237671z
			 M28.4707031,13.5438843h-0.8013V10.809082h0.8013V13.5438843L28.4707031,13.5438843z M31.6494141,13.4237671h0.5614624
			v-2.4945984h-0.5614624V13.4237671L31.6494141,13.4237671z M32.3300781,13.5438843h-0.8007812V10.809082h0.8007812V13.5438843
			L32.3300781,13.5438843z M29.7230835,13.6801758h0.5538025v-3.4541016h-0.5538025V13.6801758L29.7230835,13.6801758z
			 M30.3970032,13.8002625h-0.7940063V10.105957h0.7940063V13.8002625L30.3970032,13.8002625z M31.9198914,19.3783875h2.0635071
			V9.0541687h-7.9663086v10.3242188h2.0625V16.340271c0-0.656189,0.4042969-1.7666016,1.9204102-1.7666016
			c1.515564,0,1.9198914,1.1104126,1.9198914,1.7666016V19.3783875L31.9198914,19.3783875z M34.102478,19.4985046h-2.3016968
			V16.340271c0-0.6112976-0.3798828-1.6464844-1.8007812-1.6464844c-1.4214172,0-1.800293,1.0351868-1.800293,1.6464844v3.1582336
			h-2.3027039V8.9340515h8.2054749V19.4985046L34.102478,19.4985046z"/>
		<polygon class="st0" points="25.2172852,7.4926453 25.2172852,8.9794617 34.7831726,8.9794617 34.7831726,7.4926453 
			25.2172852,7.4926453 		"/>
		<path class="st2" d="M25.2772827,8.9194031h9.4454041V7.5527039h-9.4454041V8.9194031L25.2772827,8.9194031z M34.842804,9.0395203
			H25.157196V7.4325867h9.6856079V9.0395203L34.842804,9.0395203z"/>
		<polygon class="st0" points="24.3164062,5.7641296 24.3164062,7.4926453 35.6835938,7.4926453 35.6835938,5.7641296 
			34.2558899,5.7641296 34.2558899,6.7162781 32.6445007,6.7162781 32.6445007,5.7641296 30.8056946,5.7641296 
			30.8056946,6.7162781 29.1943054,6.7162781 29.1943054,5.7641296 27.3559875,5.7641296 27.3559875,6.7162781 
			25.7445984,6.7162781 25.7445984,5.7641296 24.3164062,5.7641296 		"/>
		<path class="st2" d="M24.3764954,7.4325867h11.2474976V5.8241882h-1.3085938v0.9521484h-1.7314148V5.8241882h-1.7182922v0.9521484
			h-1.7313843V5.8241882h-1.7183228v0.9521484h-1.7313843V5.8241882h-1.3081055V7.4325867L24.3764954,7.4325867z
			 M35.7431641,7.5527039H24.2562866V5.704071h1.5484009v0.9521484h1.4912109V5.704071h1.9584961v0.9521484h1.4912109V5.704071
			h1.9584961v0.9521484h1.4912109V5.704071h1.5478516V7.5527039L35.7431641,7.5527039z"/>
		<polygon class="st0" points="22.2070007,22.9320984 22.2070007,24.0087585 37.7929993,24.0087585 37.7929993,22.9320984 
			22.2070007,22.9320984 		"/>
		<path class="st2" d="M22.2670898,23.9487h15.4663086v-0.956543H22.2670898V23.9487L22.2670898,23.9487z M37.852478,24.0687866
			H22.1470032v-1.1967163H37.852478V24.0687866L37.852478,24.0687866z"/>
		<polygon class="st0" points="21.5697937,19.4311829 21.5697937,22.9320984 38.4296875,22.9320984 38.4296875,19.4311829 
			36.8339844,19.4311829 36.8339844,20.7787781 34.7089844,20.7787781 34.7089844,19.4311829 31.8604126,19.4311829 
			31.8604126,20.7787781 28.1395874,20.7787781 28.1395874,19.4311829 25.2904968,19.4311829 25.2904968,20.7787781 
			23.1665039,20.7787781 23.1665039,19.4311829 21.5697937,19.4311829 		"/>
		<path class="st2" d="M21.6299133,22.8720703h16.7401733v-3.3808899h-1.4764709v1.3476868h-2.2442322v-1.3476868h-2.7294922
			v1.3476868h-3.8403015v-1.3476868h-2.7290039v1.3476868h-2.2442017v-1.3476868h-1.4764709V22.8720703L21.6299133,22.8720703z
			 M38.4902039,22.992157H21.5097961v-3.6210938h1.7167969v1.3477173h2.0039062v-1.3477173h2.9692078v1.3477173h3.6010742
			v-1.3477173h2.9687195v1.3477173h2.0039062v-1.3477173h1.7167969V22.992157L38.4902039,22.992157z"/>
		<path class="st0" d="M23.5986023,24.0087585v12.7373352h3.0102844v-4.7685852
			c0-2.2461243,1.4989929-3.3032227,3.3911133-3.3032227c1.8183899,0,3.390564,1.0570984,3.390564,3.3032227v4.7685852h3.0108337
			V24.0087585H23.5986023L23.5986023,24.0087585z"/>
		<path class="st2" d="M33.4512024,36.6854858h2.8905945V24.0687866H23.6586914v12.6166992h2.8901062v-4.7079773
			c0-2.0747375,1.3222961-3.3632507,3.4512024-3.3632507c1.5917664,0,3.4512024,0.8808289,3.4512024,3.3632507V36.6854858
			L33.4512024,36.6854858z M36.4013977,36.8056641h-3.0097961c-0.0332336,0-0.0604858-0.0273743-0.0604858-0.0605774v-4.7675781
			c0-2.394043-1.7940369-3.2431335-3.3311157-3.2431335c-2.085907,0-3.3311157,1.2124023-3.3311157,3.2431335v4.7675781
			c0,0.0332031-0.0267944,0.0605774-0.0599976,0.0605774h-3.0102844c-0.0332031,0-0.0599976-0.0273743-0.0599976-0.0605774
			V24.0087585c0-0.0331726,0.0267944-0.0600586,0.0599976-0.0600586h12.8027954c0.0331726,0,0.0594788,0.026886,0.0594788,0.0600586
			v12.7363281C36.4608765,36.7782898,36.4345703,36.8056641,36.4013977,36.8056641L36.4013977,36.8056641z"/>
	</g>
</g>
</svg>
