<?xml version="1.0" encoding="utf-8"?>
<!-- Generator: Adobe Illustrator 22.1.0, SVG Export Plug-In . SVG Version: 6.00 Build 0)  -->
<svg version="1.1" id="Layer_1" xmlns="http://www.w3.org/2000/svg" xmlns:xlink="http://www.w3.org/1999/xlink" x="0px" y="0px"
	 viewBox="0 0 60 60" style="enable-background:new 0 0 60 60;" xml:space="preserve">
<style type="text/css">
	.st0{clip-path:url(#SVGID_2_);fill:#185FAA;}
	.st1{clip-path:url(#SVGID_2_);fill:#FFFFFF;}
</style>
<g id="XMLID_1_">
	<g>
		<defs>
			<path id="SVGID_1_" d="M59,60H0.9999695C0.4477234,60,0,59.5526733,0,59V0.9999695c0-0.5522461,0.4477234-1,0.9999695-1H59
				c0.5526886,0,0.9999847,0.4477539,0.9999847,1V59C59.9999847,59.5526733,59.5526886,60,59,60L59,60z"/>
		</defs>
		<clipPath id="SVGID_2_">
			<use xlink:href="#SVGID_1_"  style="overflow:visible;"/>
		</clipPath>
		<polygon class="st0" points="0,-0.0000305 89.9999847,-0.0000305 89.9999847,60 0,60 0,-0.0000305 		"/>
		<path class="st1" d="M89.9999847,39.9999695H0v-6.6669922h13.3330078v-13.332489H0v-6.667511h13.3330078V-0.0000305h6.6674805
			v13.3330078h13.332489V6.6659851h56.6670074v6.6679993H33.3329773v6.6654968h56.6670074v6.667511H33.3329773v-6.6665039
			h-13.332489v13.332489h69.9994965V39.9999695L89.9999847,39.9999695z M89.9999847,53.3339844H0v-6.6679993h89.9999847V53.3339844
			L89.9999847,53.3339844z"/>
	</g>
</g>
</svg>
