<?xml version="1.0" encoding="utf-8"?>
<!-- Generator: Adobe Illustrator 22.1.0, SVG Export Plug-In . SVG Version: 6.00 Build 0)  -->
<svg version="1.1" id="Layer_1" xmlns="http://www.w3.org/2000/svg" xmlns:xlink="http://www.w3.org/1999/xlink" x="0px" y="0px"
	 viewBox="0 0 60 60" style="enable-background:new 0 0 60 60;" xml:space="preserve">
<style type="text/css">
	.st0{clip-path:url(#SVGID_2_);fill:#CE1327;}
	.st1{clip-path:url(#SVGID_2_);fill:#087B5F;}
	.st2{clip-path:url(#SVGID_2_);fill:#FDD21A;}
</style>
<g id="XMLID_1_">
	<g>
		<defs>
			<path id="SVGID_1_" d="M59,60H0.9999695C0.4477234,60,0,59.5526733,0,59V0.9999695c0-0.5522461,0.4477234-1,0.9999695-1H59
				c0.5526886,0,0.9999847,0.4477539,0.9999847,1V59C59.9999847,59.5526733,59.5526886,60,59,60L59,60z"/>
		</defs>
		<clipPath id="SVGID_2_">
			<use xlink:href="#SVGID_1_"  style="overflow:visible;"/>
		</clipPath>
		<polygon class="st0" points="-20.0000305,-0.0000305 79.9999847,-0.0000305 79.9999847,60 -20.0000305,60 -20.0000305,-0.0000305 
					"/>
		<polygon class="st1" points="-11.6000977,8.3999023 71.5995941,8.3999023 71.5995941,51.5995789 -11.6000977,51.5995789 
			-11.6000977,8.3999023 		"/>
		<polygon class="st2" points="-11.6000977,8.3999023 71.5995941,8.3999023 -11.6000977,51.5995789 71.5995941,51.5995789 
			-11.6000977,8.3999023 		"/>
		<path class="st0" d="M30,22.7997742c3.976593,0,7.2001953,3.2236023,7.2001953,7.2001953
			c0,3.9766235-3.2236023,7.2002258-7.2001953,7.2002258c-3.9766235,0-7.2002258-3.2236023-7.2002258-7.2002258
			C22.7997742,26.0233765,26.0233765,22.7997742,30,22.7997742L30,22.7997742z"/>
		<polyline class="st2" points="30,23.3999023 27.9603882,29.6767883 31.0986023,30.6967773 		"/>
		<polyline class="st2" points="30,23.3999023 32.039093,29.6767883 28.9008789,30.6967773 		"/>
		<polyline class="st2" points="36.2772827,27.9603882 29.6767883,27.9603882 29.6767883,31.2606812 		"/>
		<polyline class="st2" points="36.2772827,27.9603882 30.9375,31.8397827 28.9975891,29.1698914 		"/>
		<polyline class="st2" points="33.8789062,35.3397827 31.8397827,29.0624695 28.7012024,30.082489 		"/>
		<polyline class="st2" points="33.8789062,35.3397827 28.539978,31.4599915 30.4794922,28.7904968 		"/>
		<polyline class="st2" points="26.120575,35.3397827 31.4599915,31.4599915 29.5204773,28.7904968 		"/>
		<polyline class="st2" points="26.120575,35.3397827 28.1601868,29.0624695 31.2987671,30.082489 		"/>
		<polyline class="st2" points="23.7230835,27.9603882 29.0625,31.8397827 31.0020142,29.1698914 		"/>
		<polyline class="st2" points="23.7230835,27.9603882 30.3231812,27.9603882 30.3231812,31.2606812 		"/>
		<polyline class="st2" points="9.9999695,0.2997742 8.7949219,4.0092468 10.6494141,4.6118164 		"/>
		<polyline class="st2" points="9.9999695,0.2997742 11.2050781,4.0092468 9.3505859,4.6118164 		"/>
		<polyline class="st2" points="13.7089844,2.9946289 9.809082,2.9946289 9.809082,4.9447937 		"/>
		<polyline class="st2" points="13.7089844,2.9946289 10.5536804,5.2871094 9.4076843,3.7094727 		"/>
		<polyline class="st2" points="12.2924805,7.35495 11.0874023,3.6459656 9.2323914,4.2485352 		"/>
		<polyline class="st2" points="12.2924805,7.35495 9.1371765,5.0629883 10.2832031,3.4853516 		"/>
		<polyline class="st2" points="7.707489,7.35495 10.862793,5.0629883 9.7167969,3.4853516 		"/>
		<polyline class="st2" points="7.707489,7.35495 8.9125977,3.6459656 10.7675781,4.2485352 		"/>
		<polyline class="st2" points="6.2909851,2.9946289 9.4462585,5.2871094 10.5922852,3.7094727 		"/>
		<polyline class="st2" points="6.2909851,2.9946289 10.1908875,2.9946289 10.1908875,4.9447937 		"/>
		<polyline class="st2" points="30,0.2997742 28.7948914,4.0092468 30.6493835,4.6118164 		"/>
		<polyline class="st2" points="30,0.2997742 31.2050781,4.0092468 29.3505859,4.6118164 		"/>
		<polyline class="st2" points="33.7089844,2.9946289 29.809082,2.9946289 29.809082,4.9447937 		"/>
		<polyline class="st2" points="33.7089844,2.9946289 30.5537109,5.2871094 29.4076843,3.7094727 		"/>
		<polyline class="st2" points="32.2919922,7.35495 31.0869141,3.6459656 29.2323914,4.2485352 		"/>
		<polyline class="st2" points="32.2919922,7.35495 29.137207,5.0629883 30.2831726,3.4853516 		"/>
		<polyline class="st2" points="27.707489,7.35495 30.862793,5.0629883 29.7167664,3.4853516 		"/>
		<polyline class="st2" points="27.707489,7.35495 28.9125671,3.6459656 30.7676086,4.2485352 		"/>
		<polyline class="st2" points="26.2909851,2.9946289 29.4462891,5.2871094 30.5922852,3.7094727 		"/>
		<polyline class="st2" points="26.2909851,2.9946289 30.1908875,2.9946289 30.1908875,4.9447937 		"/>
		<polyline class="st2" points="50,0.2997742 48.7948608,4.0092468 50.6493988,4.6118164 		"/>
		<polyline class="st2" points="50,0.2997742 51.2050934,4.0092468 49.3505859,4.6118164 		"/>
		<polyline class="st2" points="53.7089844,2.9946289 49.8096008,2.9946289 49.8096008,4.9447937 		"/>
		<polyline class="st2" points="53.7089844,2.9946289 50.5536804,5.2871094 49.4081726,3.7094727 		"/>
		<polyline class="st2" points="52.2919769,7.35495 51.0868835,3.6459656 49.2323914,4.2485352 		"/>
		<polyline class="st2" points="52.2919769,7.35495 49.1366882,5.0629883 50.2831879,3.4853516 		"/>
		<polyline class="st2" points="47.7079773,7.35495 50.8632965,5.0629883 49.7167969,3.4853516 		"/>
		<polyline class="st2" points="47.7079773,7.35495 48.9130859,3.6459656 50.7675781,4.2485352 		"/>
		<polyline class="st2" points="46.2909851,2.9946289 49.4462891,5.2871094 50.5917969,3.7094727 		"/>
		<polyline class="st2" points="46.2909851,2.9946289 50.1903992,2.9946289 50.1903992,4.9447937 		"/>
		<path class="st0" d="M4.5498047,30.0820007c0.9008789,1.6777954,2.652832,3.5039062,4.183075,4.1455078
			c0.0249023-1.703125-0.5800781-3.8877258-1.4067078-5.6274109L4.5498047,30.0820007L4.5498047,30.0820007z"/>
		<path class="st2" d="M3.0224609,24.3261719c1.3056335,2.7217102-3.3867188,9.2157898,4.4311523,10.7383118
			c-0.9643555-1.3164978-1.5864258-3.4883118-1.3510742-5.2324829c1.6401062,0.6240845,3.3662109,2.4501953,4.063446,3.8456726
			C12.2118835,26.2479858,4.9179688,26.7001953,3.0224609,24.3261719L3.0224609,24.3261719z"/>
		<polyline class="st2" points="9.9999695,51.9003906 8.7949219,55.609375 10.6494141,56.2118835 		"/>
		<polyline class="st2" points="9.9999695,51.9003906 11.2050781,55.609375 9.3505859,56.2118835 		"/>
		<polyline class="st2" points="13.7089844,54.594696 9.809082,54.594696 9.809082,56.5448914 		"/>
		<polyline class="st2" points="13.7089844,54.594696 10.5536804,56.8866882 9.4076843,55.3095703 		"/>
		<polyline class="st2" points="12.2924805,58.9550781 11.0874023,55.2460938 9.2323914,55.8486023 		"/>
		<polyline class="st2" points="12.2924805,58.9550781 9.1371765,56.6630859 10.2832031,55.0849915 		"/>
		<polyline class="st2" points="7.707489,58.9550781 10.862793,56.6630859 9.7167969,55.0849915 		"/>
		<polyline class="st2" points="7.707489,58.9550781 8.9125977,55.2460938 10.7675781,55.8486023 		"/>
		<polyline class="st2" points="6.2909851,54.594696 9.4462585,56.8866882 10.5922852,55.3095703 		"/>
		<polyline class="st2" points="6.2909851,54.594696 10.1908875,54.594696 10.1908875,56.5448914 		"/>
		<polyline class="st2" points="30,51.9003906 28.7948914,55.609375 30.6493835,56.2118835 		"/>
		<polyline class="st2" points="30,51.9003906 31.2050781,55.609375 29.3505859,56.2118835 		"/>
		<polyline class="st2" points="33.7089844,54.594696 29.809082,54.594696 29.809082,56.5448914 		"/>
		<polyline class="st2" points="33.7089844,54.594696 30.5537109,56.8866882 29.4076843,55.3095703 		"/>
		<polyline class="st2" points="32.2919922,58.9550781 31.0869141,55.2460938 29.2323914,55.8486023 		"/>
		<polyline class="st2" points="32.2919922,58.9550781 29.137207,56.6630859 30.2831726,55.0849915 		"/>
		<polyline class="st2" points="27.707489,58.9550781 30.862793,56.6630859 29.7167664,55.0849915 		"/>
		<polyline class="st2" points="27.707489,58.9550781 28.9125671,55.2460938 30.7676086,55.8486023 		"/>
		<polyline class="st2" points="26.2909851,54.594696 29.4462891,56.8866882 30.5922852,55.3095703 		"/>
		<polyline class="st2" points="26.2909851,54.594696 30.1908875,54.594696 30.1908875,56.5448914 		"/>
		<polyline class="st2" points="50,51.9003906 48.7948608,55.609375 50.6493988,56.2118835 		"/>
		<polyline class="st2" points="50,51.9003906 51.2050934,55.609375 49.3505859,56.2118835 		"/>
		<polyline class="st2" points="53.7089844,54.594696 49.8096008,54.594696 49.8096008,56.5448914 		"/>
		<polyline class="st2" points="53.7089844,54.594696 50.5536804,56.8866882 49.4081726,55.3095703 		"/>
		<polyline class="st2" points="52.2919769,58.9550781 51.0868835,55.2460938 49.2323914,55.8486023 		"/>
		<polyline class="st2" points="52.2919769,58.9550781 49.1366882,56.6630859 50.2831879,55.0849915 		"/>
		<polyline class="st2" points="47.7079773,58.9550781 50.8632965,56.6630859 49.7167969,55.0849915 		"/>
		<polyline class="st2" points="47.7079773,58.9550781 48.9130859,55.2460938 50.7675781,55.8486023 		"/>
		<polyline class="st2" points="46.2909851,54.594696 49.4462891,56.8866882 50.5917969,55.3095703 		"/>
		<polyline class="st2" points="46.2909851,54.594696 50.1903992,54.594696 50.1903992,56.5448914 		"/>
	</g>
</g>
</svg>
