<?xml version="1.0" encoding="utf-8"?>
<!-- Generator: Adobe Illustrator 22.1.0, SVG Export Plug-In . SVG Version: 6.00 Build 0)  -->
<svg version="1.1" id="Layer_1" xmlns="http://www.w3.org/2000/svg" xmlns:xlink="http://www.w3.org/1999/xlink" x="0px" y="0px"
	 viewBox="0 0 60 60" style="enable-background:new 0 0 60 60;" xml:space="preserve">
<style type="text/css">
	.st0{clip-path:url(#SVGID_2_);fill:#C7243A;}
	.st1{clip-path:url(#SVGID_2_);fill:#24366C;}
	.st2{clip-path:url(#SVGID_2_);fill:#95D5F6;}
	.st3{clip-path:url(#SVGID_2_);fill:#3285C7;}
	.st4{clip-path:url(#SVGID_2_);fill:#9C8431;}
	.st5{clip-path:url(#SVGID_2_);fill:#FFDE53;}
	.st6{clip-path:url(#SVGID_2_);fill:#8D4414;}
	.st7{clip-path:url(#SVGID_2_);fill:#FFFFFF;}
	.st8{clip-path:url(#SVGID_2_);fill:#BD182B;}
	.st9{clip-path:url(#SVGID_2_);fill:#149539;}
	.st10{clip-path:url(#SVGID_2_);fill:#020203;}
	.st11{clip-path:url(#SVGID_2_);fill:#FDF9FC;}
</style>
<g id="XMLID_1_">
	<g>
		<defs>
			<path id="SVGID_1_" d="M59,60H0.9999695C0.4477234,60,0,59.5526733,0,59V0.9999695c0-0.5522461,0.4477234-1,0.9999695-1H59
				c0.5526886,0,0.9999847,0.4477539,0.9999847,1V59C59.9999847,59.5526733,59.5526886,60,59,60L59,60z"/>
		</defs>
		<clipPath id="SVGID_2_">
			<use xlink:href="#SVGID_1_"  style="overflow:visible;"/>
		</clipPath>
		<polygon class="st0" points="-25.9092102,-0.0000305 85.9091797,-0.0000305 85.9091797,60 -25.9092102,60 -25.9092102,-0.0000305 
					"/>
		<polygon class="st1" points="-23.1816101,2.7270203 83.1815796,2.7270203 83.1815796,57.2724609 -23.1816101,57.2724609 
			-23.1816101,2.7270203 		"/>
		<path class="st2" d="M30.0297852,14.7489624c0,0-9.3399048,7.4322205-9.3399048,15.1519165
			c0,7.7212219,9.3399048,15.3500977,9.3399048,15.3500977s9.2807007-7.0733032,9.2807007-15.3500977
			C39.3104858,21.6254578,30.0297852,14.7489624,30.0297852,14.7489624L30.0297852,14.7489624L30.0297852,14.7489624z"/>
		<path class="st3" d="M21.7230835,34.6132812c2.4307251,5.8378906,8.3067017,10.6376953,8.3067017,10.6376953
			s5.980896-4.5585938,8.3392944-10.6376953H21.7230835L21.7230835,34.6132812z"/>
		<path class="st4" d="M38.4022827,32.9286804c-1.4403992,1.030304-9.5423889,0.5351868-9.5423889,0.5351868l-0.4532166,1.1532898
			l9.6480103,0.0303345c0.0400085-0.1582031,0.1357117-0.3467102,0.1698914-0.5058899L38.4022827,32.9286804L38.4022827,32.9286804z
			"/>
		<path class="st5" d="M26.8192749,41.3759766c0.3653259-0.25,0.6166992-0.4453125,0.9717102-0.4561157
			c0.6889954-0.0204773,0.9237976-0.4471741,1.7202148-0.4462585c0.9047852,0.1659851,2.1313782-0.109314,2.8491821-0.2685242
			c1.2752991-0.2939758,0.6698914-1.1855774-0.101593-1.5087891c-0.6231079-0.2666016-1.7920227-0.0137024-2.5171204-0.2783203
			c-0.5487671-0.2148743-0.0966797-0.5567017,0.1987305-0.6288757c0.2978821-0.054718,0.6177063,0.0438843,0.9883118,0.1044922
			c0.6610718,0.0575867,1.4931946-0.0039978,2.0741882-0.093811c1.2012024-0.1846008,1.1523743-0.5371094,1.7315063-0.5448914
			c0.4237671-0.0195007,0.7450867-0.1454773,1.0342102-0.351593c0.3387756-0.226532,0.6922607-0.6903992,1.102478-0.6719055
			l0.2411804,0.0097961c-2.5341797,4.9013977-7.0839844,8.1192017-7.0839844,8.1192017S28.5575867,43.234375,26.8192749,41.3759766
			L26.8192749,41.3759766L26.8192749,41.3759766z M23.9042664,37.7020874
			c0.4102173,0.0137024,0.8188171,0.1005859,1.1860352,0.296875c0.6557922,0.3448181,1.0361633,0.3418274,1.7431946,0.3526306
			c0.7401733,0.0116882,1.3212891,0.5565796,2.1210938,0.579071c1.4736023,0.0410156,2.0932922,0.773407,0.9472961,0.7724304
			c-0.5411072,0-1.7012024-0.3633118-2.2622986-0.2871094c-0.8525085,0.0859985-1.3452148,0.1513977-1.9760132,0.6524048
			C25.0629883,39.3466797,24.4618835,38.5536804,23.9042664,37.7020874L23.9042664,37.7020874L23.9042664,37.7020874z"/>
		<path class="st6" d="M32.6435852,37.7861023c0.1572266,0.6083679,0.3242188,0.8144836,0.9627991,0.9707031
			c0.6308899,0.1562805,1.5947876-0.4570312,0.9971008-1.0527039c-0.5682983-0.5527344-1.1669922-0.6943054-1.6766968-1.1934204
			c-0.7901001-0.7831726-1.874115-2.4023132-2.3887024-3.9335938c-0.5629883-1.6742859-0.4653015-6.3866882-0.4400024-8.7744141
			c0.0005188-0.027771,0.0683899-0.0438843,0.0762024-0.0555725c0.0366211-0.0523376,0.0718079,0.0170593,0.0147095-0.3325195
			c-0.0152283-0.0899048-0.0859985-0.1827087-0.0855103-0.2734985c0.0005188-0.1615906-0.559082,0.1768188-0.7059937,0.4653015
			c-0.0337219,0.0660095,0.1069031,0.254425,0.1069031,0.2915039c0.0189819,2.2901001-0.2271118,6.8125,0.3808899,8.8598938
			c0.3764038,1.2666016,1.0628967,2.2460938,1.6839905,3.1513977
			C31.9423828,36.4892578,32.4813843,37.1152039,32.6435852,37.7861023L32.6435852,37.7861023L32.6435852,37.7861023z"/>
		<path class="st7" d="M33.3065796,31.0644836c-0.023407-0.006897-0.0497742-0.0341797-0.0566101-0.0596313
			c-0.0028992-0.0141602-0.0038757-0.367157-0.0019836-1.0927734l0.0040283-1.0717773l0.0145874-0.0195312
			c0.0282898-0.0375977,0.0263977-0.0370789,0.2842102-0.0365906c0.2147522,0.0005188,0.2333679,0.0010071,0.2509766,0.0102234
			c0.0106812,0.0058594,0.0244141,0.0180969,0.0302124,0.0273743c0.0058899,0.0087891,0.1260071,0.3618164,0.2666016,0.7832031
			c0.140686,0.4219055,0.256897,0.7670898,0.257782,0.7670898c0.0020142,0,0.1210938-0.342804,0.2666016-0.7612915
			c0.1641235-0.4759827,0.2686157-0.7695007,0.2774048-0.7826843c0.0282898-0.0419922,0.0263977-0.0415039,0.2626953-0.0410156
			c0.2012024,0,0.2108765,0.0005188,0.2294922,0.0117188c0.0107117,0.0058594,0.0263062,0.0205078,0.0342102,0.0312805
			l0.0126953,0.0205078l-0.0010071,1.0776062c-0.0019836,1.0160828-0.0029907,1.0785828-0.0116882,1.0951843
			c-0.0059204,0.0097961-0.0185852,0.0245056-0.030304,0.0322876l-0.0204773,0.015625h-0.1641235
			c-0.1631165,0-0.1639709,0-0.1815796-0.0137024C35.0204773,31.0517578,35.0068054,31.0380859,35,31.0282898l-0.0127258-0.0176086
			l-0.0018921-0.6185913l-0.0010071-0.6177063l-0.0292969,0.081604c-0.015564,0.0453796-0.1132812,0.3261108-0.2177734,0.6235046
			c-0.1816101,0.5204773-0.1894226,0.5419922-0.210022,0.5634766c-0.0135803,0.0136108-0.0292969,0.023407-0.0400085,0.0263367
			c-0.0106812,0.0019836-0.0791016,0.0029602-0.1532898,0.0029602c-0.1289062,0-0.1358032-0.0009766-0.1591797-0.0126648
			c-0.0137329-0.0069275-0.0292969-0.0205078-0.0352173-0.0292969c-0.0068054-0.0098267-0.1074219-0.2993164-0.2236023-0.6450195
			c-0.1161804-0.3448181-0.2138977-0.6270142-0.2157898-0.6270142c-0.0028992,0-0.0049133,0.2792969-0.0058899,0.6216125
			c-0.0009155,0.6962891,0.0019836,0.6454773-0.0410156,0.6737976l-0.0223999,0.0147095l-0.1533813,0.0009155
			C33.3935852,31.0693054,33.3164062,31.0673828,33.3065796,31.0644836L33.3065796,31.0644836L33.3065796,31.0644836z
			 M31.5986023,30.0019836c-0.0088196-0.0230103-0.2080078-0.558197-0.2138062-0.5708008
			c-0.0019836-0.0058899-0.0039062-0.0035095-0.0088196,0.0083008c-0.0087891,0.0278015-0.2138977,0.5731812-0.2157593,0.5780945
			c-0.0020447,0.0019226,0.0985718,0.0039062,0.2215576,0.0043945h0.2246094L31.5986023,30.0019836L31.5986023,30.0019836z
			 M30.3911133,31.0663757c-0.0073242-0.0009766-0.023407-0.0126953-0.0361328-0.0253906
			c-0.0263977-0.0263977-0.0336914-0.050293-0.0259094-0.0834961c0.0098267-0.0405273,0.8154297-2.1206055,0.8291016-2.137207
			c0.0244141-0.0341797,0.032196-0.0350952,0.2207031-0.0346985c0.1885071,0,0.1963196,0.0014954,0.2217102,0.0351868
			c0.0068054,0.0097961,0.2070007,0.4937134,0.4443054,1.0766907c0.3770142,0.926239,0.4317017,1.0625305,0.4317017,1.0874329
			c0,0.0316772-0.0126953,0.0531921-0.0419922,0.074707c-0.0176086,0.0116882-0.0186157,0.0116882-0.2071228,0.0116882h-0.188385
			l-0.0215149-0.0166321c-0.0253906-0.0194702-0.0253906-0.0175781-0.1474915-0.3373718
			c-0.055603-0.1455078-0.1034851-0.2695007-0.1063843-0.2743835c-0.0049133-0.0093384-0.0283203-0.0098267-0.3789062-0.0103149
			c-0.3516235-0.0010071-0.374115,0-0.3780212,0.0087891c-0.0018921,0.0049133-0.0492859,0.1348267-0.1053772,0.2886047
			c-0.0557251,0.1528015-0.1065063,0.2865906-0.112793,0.2963867c-0.0059204,0.0097351-0.019104,0.023407-0.0282898,0.0292969
			c-0.0166321,0.0127258-0.0201111,0.0127258-0.1871338,0.0136414
			C30.4799805,31.0693054,30.3978882,31.0683899,30.3911133,31.0663757L30.3911133,31.0663757L30.3911133,31.0663757z
			 M28.1636047,31.1015625c-0.2490234-0.0195923-0.4370117-0.0937805-0.5742188-0.2260742
			c-0.1352844-0.1304016-0.2022095-0.2934875-0.2319946-0.5658875c-0.0087891-0.0757141-0.0093079-0.155304-0.0087891-0.7710266
			c0.0009766-0.6625977,0.0014954-0.6875,0.0118103-0.707489c0.0057983-0.0112915,0.0189819-0.0274048,0.0291748-0.0357056
			l0.0195923-0.0140991l0.1636353-0.0015259c0.1576538-0.0014648,0.1644592-0.0014648,0.1875,0.0102539
			c0.0145874,0.0068665,0.0287781,0.0200806,0.0365906,0.0317688l0.0126648,0.0200195l0.0019226,0.7113953
			c0.0014954,0.6264954,0.0024719,0.7177734,0.0103149,0.7675781c0.0204773,0.128418,0.0409851,0.1768188,0.1014709,0.2368164
			c0.0757141,0.0751953,0.1542969,0.1029968,0.3042297,0.1083984c0.1371765,0.0039062,0.2319946-0.0112305,0.3124695-0.0513
			c0.0933228-0.0454102,0.1358337-0.1166992,0.167511-0.2807312c0.012207-0.0619812,0.012207-0.0717773,0.0166016-0.773468
			c0.0048828-0.7953796,0.0009766-0.7294006,0.0440063-0.7616882l0.019989-0.0151062h0.1698914
			c0.1899109,0.0004883,0.1841125-0.0005188,0.2144165,0.0394897l0.0155945,0.0201111l0.0005188,0.638092
			c0.0004883,0.6401978-0.002533,0.7745056-0.0196228,0.8950806c-0.0366211,0.2563171-0.1214905,0.4189148-0.285614,0.5454407
			c-0.0551758,0.0428772-0.0775757,0.0575867-0.1318054,0.0839844c-0.0829773,0.0419922-0.1786804,0.070282-0.2875671,0.085907
			C28.4071655,31.0995789,28.2211914,31.1054688,28.1636047,31.1015625L28.1636047,31.1015625L28.1636047,31.1015625z
			 M25.6747742,31.0800781c-0.0072937-0.0010071-0.0355835-0.0049133-0.0629883-0.0078125
			c-0.1943054-0.0243835-0.4023132-0.1059875-0.5541992-0.2192688c-0.2163086-0.1611023-0.3598022-0.4194336-0.4077148-0.7363281
			c-0.0131836-0.0888672-0.0126648-0.3173828,0.0005188-0.4042969c0.0381165-0.2445984,0.1278992-0.460907,0.2568054-0.6185913
			c0.0380859-0.0463867,0.1113892-0.1171875,0.156311-0.1508789c0.1053772-0.0806274,0.2421875-0.1431274,0.3856812-0.1783142
			c0.1029968-0.0258179,0.1665039-0.0335999,0.2904968-0.0371094c0.1719055-0.0043945,0.2929993,0.0112915,0.4291992,0.0567017
			c0.174408,0.0570984,0.309082,0.1499023,0.4042969,0.276825c0.0644836,0.0854797,0.1480103,0.2758789,0.1602173,0.3632812
			c0.0058899,0.0478821-0.0132141,0.0834961-0.0552063,0.101593c-0.0135803,0.0057983-0.0805054,0.0258789-0.1494141,0.0444031
			c-0.1387024,0.0371094-0.1586914,0.0380859-0.1893921,0.012207c-0.0205994-0.0176086-0.0278931-0.0307312-0.0458984-0.0869141
			c-0.0083008-0.0238953-0.0284119-0.0722961-0.0455017-0.1069031c-0.0257874-0.0532837-0.0371094-0.0689087-0.0722046-0.1044922
			c-0.035675-0.0361938-0.0513-0.0469055-0.1044922-0.0728149c-0.1171875-0.0570984-0.2495117-0.0765686-0.4013977-0.058075
			c-0.1112976,0.0131836-0.2319031,0.0585938-0.3075867,0.1156921c-0.1685181,0.1269836-0.262207,0.3775024-0.2524109,0.6734009
			c0.0126953,0.4032898,0.1839905,0.6254883,0.5355835,0.6962891c0.0679016,0.0131836,0.2153015,0.0131836,0.2871094,0
			c0.1054993-0.0195923,0.2593079-0.0800781,0.3467102-0.1357727l0.031189-0.0195312v-0.1283875l0.0004883-0.1288757
			l-0.277771-0.0020142l-0.2778015-0.0019226l-0.0176086-0.0121765c-0.0098267-0.0074158-0.0230103-0.0210266-0.0297852-0.0307922
			c-0.0122375-0.0171204-0.0122375-0.0195312-0.0122375-0.1704407c0.0005188-0.1508789,0.0005188-0.1537781,0.0127258-0.1703796
			c0.0068054-0.0097961,0.0204773-0.0234985,0.030304-0.030304l0.0174866-0.0126953l0.4761047,0.0009766l0.4761047,0.0010376
			l0.0170898,0.0126953c0.0097961,0.0062866,0.0228882,0.0213928,0.030304,0.0326843l0.0121765,0.0200195l0.0009155,0.3944702
			c0.0014954,0.4199219,0,0.4370422-0.0249023,0.4673157c-0.0072937,0.0087891-0.0404968,0.0357056-0.0726929,0.0596008
			c-0.2246094,0.1654968-0.4638977,0.2637024-0.7099915,0.2919922
			C25.898407,31.0829773,25.7138977,31.0858765,25.6747742,31.0800781L25.6747742,31.0800781L25.6747742,31.0800781z"/>
		<path class="st8" d="M33.342804,29.9252625l0.0018921-1.0507812l0.2070923,0.0019836l0.2049866,0.0019226l0.2784119,0.8374023
			c0.1532898,0.4605103,0.2870789,0.8662109,0.297821,0.901886c0.0107727,0.0346069,0.0204773,0.0625305,0.0214844,0.0614929
			c0.0010071-0.0014954,0.0361023-0.1011047,0.0761719-0.2216797c0.0420227-0.1200867,0.1806335-0.5238953,0.3105164-0.8973999
			l0.2354126-0.679718l0.1845093-0.0010071l0.1845703-0.0009766l-0.0018616,1.050293l-0.0030212,1.0508118l-0.1299133-0.0005188
			h-0.1307678l0.0018921-0.882782c0.0010071-0.4854126-0.0009155-0.8799133-0.0039368-0.8764954
			c-0.0018616,0.0029907-0.1317749,0.3700867-0.2870789,0.8149719c-0.155304,0.4453125-0.2919922,0.8398132-0.3055725,0.8764343
			l-0.0235291,0.0663757h-0.2460938l-0.2998047-0.8896179c-0.1650085-0.4887695-0.3027039-0.8930664-0.3046875-0.8983765
			c-0.0028992-0.0043945-0.0057983,0.3955078-0.0068054,0.8890991l-0.0020142,0.897522h-0.1307678l-0.1299133-0.0005493
			L33.342804,29.9252625L33.342804,29.9252625z M31.7392883,30.1078796c-0.0019836-0.0057983-0.0625-0.1679993-0.1347961-0.3607788
			c-0.0722961-0.1929321-0.1533203-0.4165344-0.1806946-0.4981079c-0.0263062-0.0810242-0.0498047-0.1484375-0.0508118-0.1499023
			c-0.0009155-0.0014343-0.0116882,0.0342102-0.0223999,0.0785828c-0.0351868,0.1490173-0.0693054,0.2510071-0.1962891,0.5864868
			c-0.0684204,0.1826172-0.1270142,0.3369141-0.1289062,0.3422241c-0.0039062,0.0102844,0.0155945,0.0107727,0.3563843,0.011322
			C31.7216797,30.1181641,31.7421875,30.1177063,31.7392883,30.1078796L31.7392883,30.1078796L31.7392883,30.1078796z
			 M30.433075,30.945282c0.0068054-0.0171204,0.1885071-0.4888,0.4048157-1.0483093l0.3934937-1.0176086l0.1464844-0.0009766
			l0.1485291-0.0014038l0.4237976,1.0409851c0.2323914,0.5727234,0.4248047,1.0458984,0.4267883,1.0512085
			c0.0039062,0.0097961-0.0058899,0.0103149-0.1503906,0.0103149l-0.1543274-0.0005188l-0.0273743-0.0693054
			c-0.0145874-0.0381165-0.0682983-0.1811829-0.1210938-0.3164062l-0.0937195-0.246582l-0.444397-0.0019836l-0.4443054-0.0024109
			l-0.1156921,0.3174133l-0.1152954,0.3173828l-0.144989-0.0004883h-0.1440125L30.433075,30.945282L30.433075,30.945282z
			 M28.1273804,31.0038757c-0.2020874-0.0219727-0.3592834-0.0869141-0.4707031-0.1953125
			c-0.1014709-0.098175-0.1595764-0.2206726-0.1899109-0.398407c-0.0220032-0.1279907-0.0233765-0.1938782-0.0224915-0.874054
			l0.0010376-0.6665039l0.1366882,0.0004883h0.1362915l0.0009155,0.7109985
			c0.0009766,0.7557983,0.0004883,0.7435913,0.0292969,0.8573914c0.0366821,0.1455078,0.1451111,0.253418,0.2993774,0.2977905
			c0.1240234,0.0362244,0.2910156,0.0366211,0.4316101,0.0020142c0.1669922-0.0419922,0.2563171-0.131897,0.3018188-0.3017883
			c0.0350952-0.1303101,0.0345764-0.118103,0.0379944-0.8710938l0.0038757-0.6928101l0.1362915,0.0003967h0.1362
			l-0.0014954,0.6426086c-0.0003967,0.3700867-0.0033875,0.6786804-0.0072937,0.7280884
			c-0.0228882,0.325592-0.1073914,0.5018921-0.3052063,0.6357117c-0.0775757,0.0531921-0.183075,0.0932922-0.2998047,0.1146851
			C28.4315796,31.0038757,28.1850891,31.0097961,28.1273804,31.0038757L28.1273804,31.0038757L28.1273804,31.0038757z
			 M25.6601868,30.9848938c-0.2792969-0.0318298-0.5307922-0.1558228-0.6827087-0.3359985
			c-0.1273804-0.1513062-0.2098694-0.351532-0.2373047-0.5761108c-0.0087891-0.0742798-0.0083008-0.2496033,0.0010376-0.3208008
			c0.0316772-0.2447205,0.1288757-0.4732056,0.2675781-0.6304016c0.2362976-0.2685852,0.7275085-0.3764954,1.1264954-0.2475891
			c0.2514038,0.0805969,0.4008179,0.2344055,0.4862976,0.4975891c0.0116882,0.0365906,0.0205078,0.0679016,0.0195312,0.0693054
			c-0.0034485,0.0019836-0.2178345,0.0600891-0.233429,0.0635071c-0.0093079,0.0014954-0.0140686-0.0073242-0.0278015-0.0487976
			c-0.0401001-0.1162415-0.1000977-0.2134094-0.1669922-0.2666016c-0.1465149-0.1167297-0.352478-0.1596985-0.5941772-0.1231079
			c-0.1548157,0.0238953-0.3086243,0.1035156-0.3965149,0.2055969c-0.1324158,0.1528015-0.1983032,0.3403015-0.2061157,0.5884094
			c-0.007782,0.2450867,0.0365906,0.4320984,0.1391907,0.5868835c0.1665039,0.2514038,0.5537109,0.3637085,0.8984375,0.2607117
			c0.1103821-0.0327148,0.2304688-0.0898132,0.3150024-0.1503906l0.0394897-0.0278015l0.0004883-0.1982117v-0.1992798
			l-0.3115234-0.0005188l-0.3119812-0.0003967l0.0009155-0.1216125v-0.121582l0.445282,0.0009766L26.6763,29.8891907
			l-0.0010071,0.3876648l-0.0004883,0.3877258l-0.0488281,0.0361023c-0.2006836,0.1470032-0.4013977,0.2362976-0.6161804,0.2743835
			C25.9301758,30.9892883,25.7406921,30.9940796,25.6601868,30.9848938L25.6601868,30.9848938L25.6601868,30.9848938z"/>
		<path class="st9" d="M24.2245789,23.1264648c0.0400085,0.0542297,0.0342102,0.2900085,0.0342102,0.2900085
			c0.0327148,0.0195312,0.5591125-0.4486694,0.5591125-0.4272156c0.0004883,0.098114,0.0126953,0.3012085,0.0126953,0.3012085
			s0.5448914-0.5184937,0.5677795-0.4638062c0.0254211,0.0615234-0.0018921,0.3618164-0.0018921,0.3618164
			s0.3628235-0.3999023,0.4291992-0.4721985c0.047821-0.0513,0.039978,0.0650024,0.0449219,0.2533875
			c0.0009766,0.0332336,0.594696-0.438385,0.6308594-0.4462585c0.0766296-0.0166321,0.1001282,0.2446594,0.0962219,0.3100586
			c-0.0029907,0.0483093,0.5477905-0.3144836,0.523407-0.266571l0.0409851,0.2787781
			c0.1533203-0.0209961,0.5195007-0.1576843,0.7393188-0.1221008c0.0707703,0.011322,0.0673828,0.0469055,0.0043945,0.0728149
			c-1.0606079,0.4291992-1.8764954,1.0765991-2.351593,1.9784851c-0.1621094,0.3070984-0.2114258,0.5751953-0.1689148,0.6426086
			c0,0,0.190918-0.4102173,0.4057007-0.4746094c0.0288086-0.0083008,0.0479126,0.2632141,0.0772095,0.2474976
			c0,0,0.1630859-0.4111023,0.2807007-0.5629883c0.031311-0.0404968,0.0839844,0.2164001,0.117218,0.1777954
			c0,0,0.0844727-0.2749023,0.2499695-0.4667969c0.0239258-0.0274048,0.0664062,0.2601929,0.092804,0.2362976
			c0.1719055-0.1582031,0.3330078-0.5551758,0.3973999-0.5845032c0.0450134-0.0350952,0.0527954,0.3296204,0.0953064,0.2984009
			c0,0,0.2450867-0.4916687,0.3911133-0.5810852c0.0941772-0.0576172,0.0903015,0.2685852,0.0903015,0.2685852
			c0.1864929-0.1841125,0.3920593-0.4892883,0.4897766-0.621582c0.0449219-0.0606079,0.0200195,0.4017944,0.0677795,0.4198914
			c0.0615234,0.0238953,0.4634399-0.3544922,0.5088501-0.3623047c0.0297852-0.0048828,0.0649719,0.1079102-0.0132141,0.1987
			c-0.0063171,0.0074158-0.4970093,0.5728149-0.4970093,0.5728149c0.0951843,0.0180969,0.1322937-0.0083008,0.2011108,0.0092773
			c0.2035828,0.0537109-0.3813171,0.3891296-0.371521,0.4521179c0,0,0.2817078-0.0048828,0.1875,0.0493164
			c-0.0678711,0.0401001-0.440979,0.5195618-0.440979,0.5029907c0-0.0088196,0.1875,0.0038757,0.1860962,0.0575867
			c-0.0014954,0.0996094-0.3096008,0.6123047-0.3125,0.6089172c-0.0171204-0.0166321,0.1654968-0.0220032,0.1898804,0.0287781
			c0.0454102,0.0932007-0.3164062,0.5078125-0.245575,0.5785828c0.0097656,0.0098267,0.2064819,0.0029297,0.2938843,0.022522
			c0.0424805,0.0091858,0.1611938,0.7533875,0.1314087,0.7236023c-0.0068054-0.0072937,0.1264954-0.6977844,0.207489-0.9082031
			c0.0492859-0.1270142,0.207489,0.1923828,0.2207031,0.1640015c-0.0067749,0-0.032196-0.4541016-0.0096741-0.6605835
			c0.0057983-0.0576172,0.1200867,0.0600891,0.1180725,0.0048828c-0.0038757-0.125-0.0140991-0.2588196,0.0116882-0.3814087
			c0.0196228-0.0921936,0.1162109,0.1665344,0.1538086,0.0971985c0,0-0.1170959-0.449707-0.0682983-0.5761719
			c0.0322266-0.0835266,0.1107788,0.202179,0.1621094,0.2133789c0,0-0.0288086-0.3495789,0.0253906-0.4399109l0.1636047,0.1753235
			c0.0350952-0.0562134,0.0288086-0.6000977,0.0614929-0.6513977c0.0273132-0.0429993,0.1972046,0.204071,0.2221985,0.1654968
			C29.25,24.3847656,29.1557922,23.980957,29.1767883,23.9487c0.0296936-0.045929,0.2157898,0.1122742,0.2191772,0.109375
			c0.0762024-0.0762024,0.0732117-0.2666016,0.1054993-0.3368835c0.0854492-0.1914368,0.5761414-0.2163086,0.6338196-0.0801086
			c0.0282898,0.065918,0.0086975,0.1508789-0.0025024,0.253418c0.0043945,0.0043945,0.2456055,0.0219727,0.2475891,0.0033875
			c0,0-0.0287781,0.2250977-0.0116882,0.4732056c0.0024109,0.0326843,0.2451172-0.0083008,0.2480164,0.0243835
			c0.0220032,0.2333984-0.031311,0.2554016-0.031311,0.2554016c0.0020142,0.0170898,0.1631165-0.0249023,0.1655884-0.006897
			c0.0176086,0.1138-0.019104,0.2524719-0.0907898,0.386322c-0.0112915,0.0189819,0.2304077-0.0186157,0.2342834,0.0033875
			c0.0292969,0.175293,0.0352173,0.3143921,0.0043945,0.5619812c-0.0023804,0.0200195,0.2368164-0.1748047,0.2407227-0.1547852
			c0.0361938,0.2079773-0.0057983,0.4331055,0.015686,0.6484985c0.0049438,0.0498047,0.1582031-0.1490173,0.171814-0.0914001
			c0.0137024,0.0567017-0.0341187,0.4687805-0.0107117,0.492218c0,0,0.2559204-0.0127258,0.2792969,0.0087891
			c0.203125,0.1904907,0.1641235,0.5234985,0.1641235,0.5234985c0.055603-0.0411072,0.0340881-0.441925-0.0215149-0.8091125
			c-0.0058899-0.0386047,0.1962891-0.023468,0.1903992-0.0596008c0,0-0.2225952-0.1343079-0.2958984-0.5073242
			c-0.0155945-0.0800781,0.2149048-0.0634766,0.2149048-0.0634766c-0.0634766-0.1470032-0.1757812-0.1748047-0.2714844-0.315918
			c-0.031311-0.0463867,0.2391968-0.0673828,0.2391968-0.0810852c0.0010071-0.1405945-0.2275085-0.207489-0.3457031-0.3539734
			c-0.0508118-0.0620117,0.2460938-0.0653992,0.2460938-0.0653992c-0.0868835-0.1211243-0.3739929-0.1743164-0.5204773-0.3345032
			c-0.0801086-0.0869141,0.2909546-0.1723022,0.2870789-0.1875c-0.0409851-0.128418-0.3895874-0.1684265-0.5591125-0.3134155
			c-0.0350952-0.0298157,0.2203064-0.1308899,0.2203064-0.1308899c-0.0253906-0.054718-0.5825806-0.4208984-0.299408-0.3877258
			c0.1197205,0.0146179,0.3628235,0.1846008,0.3814087,0.1592102c0,0-0.0097961-0.214386,0.0145874-0.2397766
			c0.093811-0.0971069,0.4151306,0.4111938,0.5244141,0.390686c0,0,0.0401001-0.3638,0.0899048-0.3735962
			c0.117218-0.0223999,0.2607117,0.5297852,0.3759766,0.5297852c0.015625,0,0.0244141-0.3192749,0.0840454-0.3368835
			c0.0682678-0.0195312,0.1434937,0.3578796,0.2293701,0.4413757c0.0791016,0.0766907,0.0801086-0.2948914,0.1270142-0.2240906
			c0.078064,0.1137085,0.0977173,0.3515015,0.2050781,0.4560242c0.0703125,0.0678711,0.0830078-0.3276062,0.1611023-0.2749023
			c0.0899048,0.0615845,0.0693054,0.2666016,0.170929,0.3676758c0.0478821,0.0478821,0.0800781-0.2612,0.1357727-0.2158203
			c0.0488281,0.0395508,0.0820007,0.4180298,0.1347046,0.4775391c0.0664062,0.0761719,0.1435852-0.1992188,0.2138977-0.1557007
			c0.0498047,0.032196,0.0380859,0.359314,0.0840149,0.4296875c0.094696,0.144989,0.1444702-0.1758118,0.2070007-0.1264954
			c0.0438843,0.0336914,0.1387024,0.4096985,0.1786804,0.4393921c0.0879211,0.0674133,0.1366882-0.1708679,0.203125-0.1376953
			c0.0488892,0.0239868,0.1464844,0.5083008,0.1865845,0.4960938c0.0263062-0.0083008,0.0918274-1.1040039-0.3300781-1.5663757
			c-0.6865234-0.753418-1.9170227-1.1884155-2.9208984-1.1992188c0,0,0.5038757-0.1006165,0.5175781-0.1841125
			c0.0273132-0.1664734,0.2772827-0.1468811,0.4521179-0.1088867c0.0312805,0.006897,0.014679-0.2939148,0.0185852-0.2954102
			c0.156189-0.0038757,0.2958984,0.0884094,0.445282,0.1792297c0.0469055,0.0283813-0.0947876-0.3017273-0.0448608-0.273407
			c0.1913757,0.1108093,0.4051514,0.1434937,0.5340576,0.2778015c0.0342407,0.0357056-0.0389709-0.2539062-0.0389709-0.2539062
			c0.0957031-0.023407,0.2850647,0.1147766,0.3592834,0.2442017c0.0362244,0.0639038-0.0018921-0.3374329,0.0263977-0.2662048
			c0,0,0.3340149,0.1133118,0.3701172,0.2539978c0,0,0.0273743-0.2543945,0.0722961-0.2413025
			c0.1337891,0.0352173,0.2509766,0.2612915,0.3563843,0.2939758c0,0-0.0439148-0.2270508-0.0096741-0.2182617
			c0.2518921,0.0634766,0.5243835,0.2192688,0.5243835,0.2182617c-0.1416016-0.3549805-0.6796875-0.7265625-1.625-0.8256836
			c-0.1737976-0.0180664-0.8789062-0.046875-1.4756165,0.0917969c-0.4902039,0.1133118-0.8764648,0.1777039-0.796875,0.1001282
			c0.3233032-0.316925,0.8466797-0.3555298,0.9902954-0.4291992c0.1035156-0.0527039-0.3467102-0.2261047-0.2578125-0.2510071
			c0.0888062-0.0210266,0.4912109-0.054718,0.4912109-0.054718c0.0869141-0.0677795-0.2919922-0.200592-0.2353821-0.2997742
			c0.1132812-0.1982117,0.7831726-0.0180359,0.8407898-0.0932007c0.0185852-0.0254211-0.2881165-0.206604-0.2753906-0.233429
			c0.0488892-0.1005859,0.6454773,0.0742188,0.6601562-0.0137024c0,0-0.1815796-0.1347961-0.3105774-0.2456055
			c-0.0146179-0.0136719,0.5332947-0.1611023,0.5332947-0.1611023c-0.0097961-0.0102844-0.093811-0.0688782-0.2198181-0.1176758
			c-0.1141968-0.0449219,0.4815369-0.2002258,0.4815369-0.2002258c-0.7549133-0.3451538-2.7163086,0.637207-3.1054993,1.6567383
			c-0.1011047,0.2431641-0.1040039-0.0215149-0.0830078-0.2275085c0.019989-0.2217102,0.0477905-0.4160156,0.0243835-0.6195984
			c-0.0072937-0.0601196-0.160614,0.1605835-0.1708984,0.1015015c-0.039093-0.2163086,0.0767212-0.4541016,0.0239258-0.6937866
			c-0.0175171-0.0811157-0.2207031,0.2382812-0.2474976,0.1576538c-0.0742188-0.222168,0.055603-0.534668,0.0028992-0.8407898
			c-0.0205078-0.1196899-0.2129211,0.2563171-0.2767944,0.1488953c-0.0757141-0.1239929-0.042511-0.5845032-0.0782471-0.6537781
			c-0.0287781-0.0556946-0.1996765,0.2201843-0.2142639,0.168396c-0.2319946-0.843689,0.0760803-0.9487-0.3692017-0.4730835
			c-0.0151062,0.016571-0.1141968-0.4990234-0.1313171-0.4814148c-0.1825867,0.3905945-0.4814758-0.2784119-0.5834961-0.2158813
			c-0.0762024,0.0473633,0.2084961,0.3061829,0.2113953,0.4223633c0.0014954,0.0561218-0.2616882,0.0601196-0.2616882,0.0601196
			c0.0054016,0.0960999,0.5010071,0.3661804,0.5171204,0.4721069c0.0126648,0.0868835-0.350647,0.0654907-0.350647,0.0654907
			c0.0112305,0.1176147,0.4238281,0.2298889,0.4468079,0.3554077C29.0513,19.1138,28.8451843,19.129364,28.8520813,19.1996765
			c0.0107117,0.1074219,0.3988953,0.3203125,0.4116211,0.4302063c0.0087891,0.0762024-0.2481079,0.1073914-0.2539062,0.1787109
			c-0.0078125,0.085907,0.5150757,0.375,0.5155945,0.4555969c0.0004883,0.1146851-0.2079773,0.0555725-0.3027039,0.1132202
			c-0.1337891,0.0810852,0.4281921,0.4086914,0.4515991,0.5024719c0.0186157,0.0814819-0.2246094,0.0097046-0.2329102,0.0845032
			c-0.0101929,0.0975952,0.2753906,0.2456055,0.3408203,0.4135132c0.0654907,0.1659851-0.0014038,0.2084961-0.0952148,0.1425781
			c-0.1885071-0.1328125-0.9467773-0.9389954-1.1483765-1.1538086c-0.292511-0.3119812-0.8921204-0.6620789-1.4898071-0.6825867
			c-0.0625305,0.0189819,0.3212891,0.2904968,0.3237915,0.3890991c0.0009155,0.0249023-0.1724243,0.0625305-0.1645813,0.0704041
			c0.1059875,0.1063843,0.4364929,0.2323914,0.4364929,0.2323914l-0.0952148,0.1708984
			c0.0224915,0.0498047,0.1791992,0.0630188,0.4302063,0.1455078c0,0-0.1880188,0.1166992-0.1743164,0.1274109
			c0.1328125,0.1064758,0.390625,0.1845703,0.390625,0.1845703l-0.253418,0.085022
			c-0.0151978,0.0487976,0.570282,0.2835999,0.570282,0.2835999s-0.1825562,0.1578064-0.1747742,0.1660767
			c0.0449219,0.0444336,0.4756165,0.1440125,0.4756165,0.1440125c0.0067749,0.0073242-0.3042297,0.1040039-0.3023376,0.1065063
			c0.112793,0.1127014,0.4243164,0.1493835,0.4971313,0.335907c0,0,0.042511,0.105896-0.0805969,0.085907
			c-0.484314-0.1758118-1.2348022-0.5395203-2.6899109-0.3969116c-1.4873047,0.1938171-2.6206055,1.4867859-2.6011047,1.6156921
			C23.6366882,23.4301758,24.1684875,23.0487671,24.2245789,23.1264648L24.2245789,23.1264648L24.2245789,23.1264648z"/>
		<path class="st6" d="M29.4276733,22.9398804c0.1460266-0.0942078,0.3452148-0.0448914,0.4449158,0.1098938
			c0.0996094,0.1547852,0.0620117,0.3565063-0.0840149,0.4501953c-0.1459656,0.0942383-0.3451843,0.0449219-0.4447632-0.1098938
			C29.2441101,23.2353821,29.2816772,23.0336914,29.4276733,22.9398804L29.4276733,22.9398804z"/>
		<path class="st6" d="M30.3378906,23.2006836c-0.1670227-0.1074219-0.3945007-0.0513-0.5083008,0.1254883
			c-0.1138,0.1766968-0.0708008,0.407196,0.0957031,0.5146179c0.1669922,0.1069946,0.3945007,0.0507812,0.5083008-0.1260071
			C30.5473633,23.5380859,30.5043945,23.3075867,30.3378906,23.2006836L30.3378906,23.2006836z"/>
		<path class="st6" d="M29.9262695,23.476593c-0.1777954-0.1148071-0.4203796-0.0546875-0.5419922,0.1341858
			c-0.1216125,0.1885071-0.0762024,0.4346008,0.1020203,0.5488892c0.1783142,0.1147156,0.4208679,0.054718,0.5424805-0.1342773
			C30.1503906,23.8368835,30.1044922,23.5912781,29.9262695,23.476593L29.9262695,23.476593z"/>
		<polygon class="st10" points="26.7636719,35.9257812 27.2373047,35.9257812 27.2373047,36.280304 26.7636719,36.280304 
			26.7636719,35.9257812 		"/>
		<path class="st6" d="M24.394989,36.1532898c0,0,3.1112976,0.2372742,5.019104-0.1719055
			c0,0,0.1605835,0.1083984-0.0699158,0.3780212c-0.2303772,0.2675781-0.813385,0.3260803-1.1333008,0.3837891
			c0,0-0.0765991,0.1717834-0.0708008,0.2616882c0.0069275,0.0898132,0.2022095,0.0809937,0.2979126,0.0614929l0.0961914-0.0195007
			c0,0-0.0448914,0.335907-1.2227173,0.3807983c-0.3866882,0.0147095-1.6610718,0.0420227-1.9305725-0.3358765
			c0,0,0.2333984,0.0194702,0.2944031,0c0.0605164-0.0195312,0.0160828-0.2627258-0.0064087-0.2979126
			c-0.0218811-0.0351257-0.8260803,0-1.2479858-0.3905945c-0.105011-0.1112976-0.1548157-0.2295227-0.1548157-0.2723999
			C24.2660828,36.1278992,24.394989,36.1532898,24.394989,36.1532898L24.394989,36.1532898z"/>
		<path class="st11" d="M24.8276062,36.0019836c0,0,1.1547852-1.2276001,0.8013-3.789093
			c0,0,1.2025757,0.3095703,2.4286804,2.079071c0,0,0.3579102,0.359436,0.7782898,1.640625L24.8276062,36.0019836
			L24.8276062,36.0019836z"/>
		<path class="st0" d="M30.0287781,44.3603821c0,0-8.7953796-6.7324829-8.7953796-14.4532166
			c0-7.7206726,8.7953796-14.2675781,8.7953796-14.2675781s8.737793,5.9916992,8.737793,14.2675781
			C38.766571,38.1835938,30.0287781,44.3603821,30.0287781,44.3603821L30.0287781,44.3603821z M30.0312805,13.8583679
			c0,0-9.8847961,7.3598938-9.8847961,16.0366211c0,8.6791992,9.8847961,16.2466125,9.8847961,16.2466125
			s9.8222046-6.9443359,9.8222046-16.2466125C39.8534851,20.5937805,30.0312805,13.8583679,30.0312805,13.8583679
			L30.0312805,13.8583679z"/>
		<path class="st3" d="M26.0160828,36.8065796c0,0,0.851593,0.1083984,1.831604,0c0,0,0.0252991,0.1856079-0.019104,0.2559204
			c-0.0448914,0.0712585-1.175293,0.1249695-1.7450867,0.0263977
			C25.9916687,37.0596008,25.9882812,36.9472656,26.0160828,36.8065796L26.0160828,36.8065796z"/>
	</g>
</g>
</svg>
