<?xml version="1.0" encoding="utf-8"?>
<!-- Generator: Adobe Illustrator 22.1.0, SVG Export Plug-In . SVG Version: 6.00 Build 0)  -->
<svg version="1.1" id="Layer_1" xmlns="http://www.w3.org/2000/svg" xmlns:xlink="http://www.w3.org/1999/xlink" x="0px" y="0px"
	 viewBox="0 0 60 60" style="enable-background:new 0 0 60 60;" xml:space="preserve">
<style type="text/css">
	.st0{clip-path:url(#SVGID_2_);fill:#243876;}
	.st1{clip-path:url(#SVGID_2_);fill:#FFFFFF;}
</style>
<g id="XMLID_1_">
	<g>
		<defs>
			<path id="SVGID_1_" d="M59,60H0.9999695C0.4477234,60,0,59.5526733,0,59V0.9999695c0-0.5522461,0.4477234-1,0.9999695-1H59
				c0.5526886,0,0.9999847,0.4477539,0.9999847,1V59C59.9999847,59.5526733,59.5526886,60,59,60L59,60z"/>
		</defs>
		<clipPath id="SVGID_2_">
			<use xlink:href="#SVGID_1_"  style="overflow:visible;"/>
		</clipPath>
		<polygon class="st0" points="-30,-0.0000305 89.9999847,-0.0000305 89.9999847,60 -30,60 -30,-0.0000305 		"/>
		<polygon class="st1" points="-30,20 89.9999847,20 89.9999847,39.9999695 -30,39.9999695 -30,20 		"/>
		<polygon class="st0" points="30.7485046,28.9696655 30,26.6664734 29.2514954,28.9696655 26.8301086,28.9696655 
			28.789093,30.3935852 28.0404968,32.6962891 30,31.2733765 31.9589844,32.6962891 31.2108765,30.3935852 33.1698914,28.9696655 
			30.7485046,28.9696655 		"/>
		<polygon class="st0" points="45.4560852,25.0600891 44.7070007,27.3632812 46.6669922,25.9398804 48.6259766,27.3632812 
			47.8778687,25.0600891 49.8368835,23.6366882 47.414978,23.6366882 46.6669922,21.3334656 45.9179688,23.6366882 
			43.4960938,23.6366882 45.4560852,25.0600891 		"/>
		<polygon class="st0" points="47.414978,33.6366882 46.6669922,31.3329773 45.9179688,33.6366882 43.4960938,33.6366882 
			45.4560852,35.0604858 44.7070007,37.3632812 46.6669922,35.9394836 48.6259766,37.3632812 47.8778687,35.0604858 
			49.8368835,33.6366882 47.414978,33.6366882 		"/>
		<polygon class="st0" points="13.3334961,21.3334656 12.5849915,23.6366882 10.1630859,23.6366882 12.1225891,25.0600891 
			11.3739624,27.3632812 13.3334961,25.9398804 15.2924805,27.3632812 14.5444031,25.0600891 16.5033875,23.6366882 
			14.0815125,23.6366882 13.3334961,21.3334656 		"/>
		<polygon class="st0" points="14.0815125,33.6366882 13.3334961,31.3329773 12.5849915,33.6366882 10.1630859,33.6366882 
			12.1225891,35.0604858 11.3739624,37.3632812 13.3334961,35.9394836 15.2924805,37.3632812 14.5444031,35.0604858 
			16.5033875,33.6366882 14.0815125,33.6366882 		"/>
	</g>
</g>
</svg>
