<?xml version="1.0" encoding="utf-8"?>
<!-- Generator: Adobe Illustrator 22.1.0, SVG Export Plug-In . SVG Version: 6.00 Build 0)  -->
<svg version="1.1" id="Layer_1" xmlns="http://www.w3.org/2000/svg" xmlns:xlink="http://www.w3.org/1999/xlink" x="0px" y="0px"
	 viewBox="0 0 60 60" style="enable-background:new 0 0 60 60;" xml:space="preserve">
<style type="text/css">
	.st0{clip-path:url(#SVGID_2_);fill:#DF2C14;}
	.st1{clip-path:url(#SVGID_2_);fill:#FFFFFF;}
</style>
<g id="XMLID_1_">
	<g>
		<defs>
			<path id="SVGID_1_" d="M59,60H0.9999695C0.4477234,60,0,59.5526733,0,59V0.9999695c0-0.5522461,0.4477234-1,0.9999695-1H59
				c0.5526886,0,0.9999847,0.4477539,0.9999847,1V59C59.9999847,59.5526733,59.5526886,60,59,60L59,60z"/>
		</defs>
		<clipPath id="SVGID_2_">
			<use xlink:href="#SVGID_1_"  style="overflow:visible;"/>
		</clipPath>
		<polygon class="st0" points="-15,-0.0000305 74.9999847,-0.0000305 74.9999847,60 -15,60 -15,-0.0000305 		"/>
		<path class="st1" d="M29.996582,29.9911804c-10.5263977-4.4487-5.8603821-18.1582031,4.2065125-17.468689
			c-2.0361023,1.0462952-2.3309937,2.9995117-1.1689148,4.8085938c1.3027039,2.0258179-0.1191711,5.2850952-1.8798828,6.0770874
			C28.2606812,24.7103882,27.6812134,28.183075,29.996582,29.9911804L29.996582,29.9911804L29.996582,29.9911804z"/>
		<polygon class="st0" points="29.4271851,20.0917664 28.8353882,21.0214844 28.620575,19.9398804 27.5526733,19.6640625 
			28.515564,19.1249695 28.4481812,18.0248718 29.2567749,18.7738953 30.2821655,18.3695984 29.8212891,19.370575 
			30.5214844,20.2211914 29.4271851,20.0917664 		"/>
		<path class="st0" d="M30.0561829,29.8759766c-1.2734985-0.6532898-2.2998962-2.0155945-2.7470703-3.6430969
			c-0.5112-1.867218-0.2173462-3.8744812,0.8085938-5.5039062l-0.2212219-0.1391907
			c-1.0639954,1.6929016-1.3692017,3.7740173-0.8384094,5.7120056c0.4727173,1.7221069,1.5215149,3.109314,2.8789368,3.8060913
			L30.0561829,29.8759766L30.0561829,29.8759766z"/>
		<path class="st1" d="M30.0072937,29.9941101c0.9780884-11.3862305,15.4584961-11.1845398,17.9136047-1.3974304
			c-1.6239929-1.6133118-3.5732117-1.2904968-4.9346008,0.3745117c-1.523407,1.8646851-5.0634155,1.5189819-6.360321,0.0892944
			C34.4931946,26.7108765,31.0116882,27.2333984,30.0072937,29.9941101L30.0072937,29.9941101L30.0072937,29.9941101z"/>
		<polygon class="st0" points="39.2460938,26.3935852 38.1796875,26.1176758 39.141571,25.5795898 39.0741882,24.4784851 
			39.8837891,25.2275085 40.9091797,24.8237 40.4472961,25.8241882 41.1483765,26.6747742 40.0536804,26.5453796 
			39.4608765,27.4740906 39.2460938,26.3935852 		"/>
		<path class="st0" d="M30.1352844,30.0150757c0.2280273-1.4129944,1.2065125-2.8099976,2.6157227-3.7381897
			c1.6180725-1.0635071,3.6180725-1.4039001,5.4844055-0.9321899l0.0643921-0.2528992
			c-1.9385376-0.4888306-4.0127258-0.1362-5.6914368,0.9672852c-1.492157,0.9819031-2.4872742,2.4082031-2.7304993,3.9140015
			L30.1352844,30.0150757L30.1352844,30.0150757z"/>
		<path class="st1" d="M30.007782,30.0048828c11.1309204-2.5884094,15.4141235,11.2460938,6.8652039,16.6054993
			c1.0322876-2.0440063,0.1231079-3.7969055-1.8818054-4.5772095c-2.2440796-0.8729858-3.0087891-4.3466797-2.0497742-6.0214844
			C34.5166016,33.2568054,32.9443054,30.1069031,30.007782,30.0048828L30.007782,30.0048828L30.007782,30.0048828z"/>
		<polygon class="st0" points="36.2871094,37.6786804 36.219696,36.5791016 37.0292664,37.328064 38.0546875,36.9237671 
			37.592804,37.9257812 38.2938843,38.7753906 37.1991882,38.6454773 36.6073608,39.5751648 36.3926086,38.4940796 
			35.3262024,38.2177734 36.2871094,37.6786804 		"/>
		<path class="st0" d="M30.0278015,30.1332703c1.4136047-0.219696,3.0444946,0.2788086,4.3638,1.3325195
			c1.5106812,1.2099915,2.453064,3.006897,2.5810852,4.9277954l0.2597046-0.0166016
			c-0.1337891-1.9951782-1.1102905-3.8583984-2.6787109-5.1143188c-1.3945007-1.1151733-3.0585938-1.621582-4.5658875-1.387207
			L30.0278015,30.1332703L30.0278015,30.1332703z"/>
		<path class="st1" d="M29.9979858,30.0092773c5.9013977,9.7855835-5.9320984,18.1343079-13.6717834,11.6596069
			c2.2631836,0.3506165,3.6499023-1.055603,3.7723694-3.2030945c0.1368408-2.4042969,3.2032166-4.2051086,5.0933228-3.8114929
			C28.2982788,35.3017883,30.808075,32.8329773,29.9979858,30.0092773L29.9979858,30.0092773L29.9979858,30.0092773z"/>
		<polygon class="st0" points="24.6395874,38.3525085 25.664978,37.9481812 25.2026062,38.9491882 25.9042969,39.8007812 
			24.809082,39.6708679 24.2167969,40.5995789 24.0028992,39.5185852 22.9354858,39.2431641 23.8969727,38.704071 
			23.8301086,37.6044922 24.6395874,38.3525085 		"/>
		<path class="st0" d="M29.8817749,30.0673828c0.6460266,1.2773132,0.6758118,2.9823914,0.0806274,4.5614929
			c-0.6836243,1.8114929-2.1011047,3.2627258-3.8887329,3.9775085l0.0967102,0.2431946
			c1.8559875-0.7440796,3.3262024-2.2490234,4.0357056-4.1278992c0.6297913-1.6719055,0.5971069-3.4101868-0.0914001-4.7720032
			L29.8817749,30.0673828L29.8817749,30.0673828z"/>
		<path class="st1" d="M29.9906616,30.0009766c-7.4838867,8.6357117-19.0804749-0.0380859-15.3138733-9.3994141
			c0.3657227,2.2602234,2.1323242,3.1445312,4.2124023,2.5976257c2.3291016-0.612793,4.9891968,1.7470703,5.1981812,3.6660156
			C24.4315796,30.0195007,27.5556946,31.6435852,29.9906616,30.0009766L29.9906616,30.0009766L29.9906616,30.0009766z"/>
		<polygon class="st0" points="20.3999023,27.4828796 21.1011047,28.3329773 20.0058899,28.2030945 19.4136047,29.1333008 
			19.1987,28.0512695 18.1318054,27.7753906 19.0937805,27.237793 19.0263672,26.1376953 19.8358765,26.8852844 
			20.8608093,26.4823914 20.3999023,27.4828796 		"/>
		<path class="st0" d="M29.8993835,29.9081726c-1.0151062,1.0093079-2.6274109,1.5645142-4.3139954,1.4863281
			c-1.9335022-0.0898132-3.7514038-0.9902344-4.984314-2.4692078l-0.2006836,0.1669922
			c1.281189,1.5350952,3.1665039,2.4682007,5.172821,2.5629883c1.7841797,0.0820007,3.4277954-0.4863892,4.5097656-1.5619812
			L29.8993835,29.9081726L29.8993835,29.9081726z"/>
	</g>
</g>
</svg>
