<?xml version="1.0" encoding="utf-8"?>
<!-- Generator: Adobe Illustrator 22.1.0, SVG Export Plug-In . SVG Version: 6.00 Build 0)  -->
<svg version="1.1" id="Layer_1" xmlns="http://www.w3.org/2000/svg" xmlns:xlink="http://www.w3.org/1999/xlink" x="0px" y="0px"
	 viewBox="0 0 60 60" style="enable-background:new 0 0 60 60;" xml:space="preserve">
<style type="text/css">
	.st0{clip-path:url(#SVGID_2_);fill:#04539C;}
	.st1{clip-path:url(#SVGID_2_);fill:#FFFFFF;}
	.st2{clip-path:url(#SVGID_2_);fill:#020203;}
	.st3{clip-path:url(#SVGID_2_);fill:#DD2136;}
</style>
<g id="XMLID_1_">
	<g>
		<defs>
			<path id="SVGID_1_" d="M59,60H0.9999695C0.4477234,60,0,59.5526733,0,59V0.9999695c0-0.5522461,0.4477234-1,0.9999695-1H59
				c0.5526886,0,0.9999847,0.4477539,0.9999847,1V59C59.9999847,59.5526733,59.5526886,60,59,60L59,60z"/>
		</defs>
		<clipPath id="SVGID_2_">
			<use xlink:href="#SVGID_1_"  style="overflow:visible;"/>
		</clipPath>
		<polygon class="st0" points="-11.6665344,-0.0000305 71.6669922,-0.0000305 71.6669922,60 -11.6665344,60 -11.6665344,-0.0000305 
					"/>
		<polygon class="st1" points="24.9999695,60 11.6665039,60 11.6665039,36.6669922 -11.6665344,36.6669922 -11.6665344,23.3334656 
			11.6665039,23.3334656 11.6665039,-0.0000305 24.9999695,-0.0000305 24.9999695,23.3334656 71.6669922,23.3334656 
			71.6669922,36.6669922 24.9999695,36.6669922 24.9999695,60 		"/>
		<path class="st2" d="M18.3334656-0.0000305V60 M-11.6665344,29.9999695h83.3335266"/>
		<polygon class="st3" points="21.6665039,60 15,60 15,33.3329773 -11.6665344,33.3329773 -11.6665344,26.6664734 15,26.6664734 
			15,-0.0000305 21.6665039,-0.0000305 21.6665039,26.6664734 71.6669922,26.6664734 71.6669922,33.3329773 21.6665039,33.3329773 
			21.6665039,60 		"/>
	</g>
</g>
</svg>
