<?xml version="1.0" encoding="utf-8"?>
<!-- Generator: Adobe Illustrator 22.1.0, SVG Export Plug-In . SVG Version: 6.00 Build 0)  -->
<svg version="1.1" id="Layer_1" xmlns="http://www.w3.org/2000/svg" xmlns:xlink="http://www.w3.org/1999/xlink" x="0px" y="0px"
	 viewBox="0 0 60 60" style="enable-background:new 0 0 60 60;" xml:space="preserve">
<style type="text/css">
	.st0{clip-path:url(#SVGID_2_);fill:#F49739;}
	.st1{clip-path:url(#SVGID_2_);fill:#FFFFFF;}
	.st2{clip-path:url(#SVGID_2_);fill:#178A37;}
	.st3{clip-path:url(#SVGID_2_);fill:#28306D;}
</style>
<g id="XMLID_1_">
	<g>
		<defs>
			<path id="SVGID_1_" d="M59,60H0.9999695C0.4477234,60,0,59.5526733,0,59V0.9999695c0-0.5522461,0.4477234-1,0.9999695-1H59
				c0.5526886,0,0.9999847,0.4477539,0.9999847,1V59C59.9999847,59.5526733,59.5526886,60,59,60L59,60z"/>
		</defs>
		<clipPath id="SVGID_2_">
			<use xlink:href="#SVGID_1_"  style="overflow:visible;"/>
		</clipPath>
		<polygon class="st0" points="-15,-0.0000305 74.9999847,-0.0000305 74.9999847,60 -15,60 -15,-0.0000305 		"/>
		<polygon class="st1" points="-15,20 74.9999847,20 74.9999847,39.9999695 -15,39.9999695 -15,20 		"/>
		<polygon class="st2" points="-15,39.9999695 74.9999847,39.9999695 74.9999847,60 -15,60 -15,39.9999695 		"/>
		<path class="st3" d="M30,21.9999695c4.4179993,0,8,3.5815125,8,8C38,34.4179688,34.4179993,38,30,38
			c-4.4185181,0-8.0000305-3.5820312-8.0000305-8.0000305C21.9999695,25.5814819,25.5814819,21.9999695,30,21.9999695L30,21.9999695
			z"/>
		<path class="st1" d="M30,23c3.8661804,0,6.9999695,3.1337891,6.9999695,6.9999695c0,3.8662109-3.1337891,7-6.9999695,7
			c-3.8662109,0-7-3.1337891-7-7C23,26.1337891,26.1337891,23,30,23L30,23z"/>
		<path class="st3" d="M30,28.6000977c0.773407,0,1.4003906,0.6264648,1.4003906,1.3998718
			c0,0.7734375-0.6269836,1.4003906-1.4003906,1.4003906s-1.3999023-0.6269531-1.3999023-1.4003906
			C28.6000977,29.2265625,29.226593,28.6000977,30,28.6000977L30,28.6000977z"/>
		<path class="st3" d="M36.9853821,30.566864c0.1923218,0.0249023,0.3271179,0.2007141,0.3016968,0.3926086
			c-0.0253906,0.1918945-0.2012024,0.3266296-0.3926086,0.3012085c-0.1913757-0.0252991-0.3260803-0.2010803-0.3016968-0.3925171
			C36.6181946,30.6762695,36.7938843,30.5414734,36.9853821,30.566864L36.9853821,30.566864z"/>
		<polygon class="st3" points="30,36.9999695 30.2402039,32.7997742 30,30.7997742 29.7597961,32.7997742 30,36.9999695 		"/>
		<path class="st3" d="M36.601593,32.3554688c0.1777039,0.0742188,0.2626953,0.2782898,0.188385,0.4570007
			c-0.0731812,0.1787109-0.2782898,0.2637024-0.4570007,0.1895142c-0.1786804-0.0743103-0.2626648-0.2783813-0.1893616-0.4570923
			C36.2177734,32.3661804,36.4228821,32.2812805,36.601593,32.3554688L36.601593,32.3554688z"/>
		<polygon class="st3" points="28.1884766,36.7616882 29.5072632,32.766571 29.7929688,30.7728882 29.0434875,32.6425781 
			28.1884766,36.7616882 		"/>
		<path class="st3" d="M35.766571,33.9833984c0.1533203,0.1181641,0.1826172,0.3378601,0.0645142,0.4911804
			c-0.117218,0.1533203-0.3370056,0.1817017-0.4902954,0.0645142c-0.1532898-0.1182251-0.1826172-0.3379211-0.0653992-0.4912109
			C35.3936157,33.8944702,35.6133118,33.8661804,35.766571,33.9833984L35.766571,33.9833984z"/>
		<polygon class="st3" points="26.4999695,36.0624695 28.8075867,32.5448914 29.6000977,30.6928711 28.3920898,32.3046875 
			26.4999695,36.0624695 		"/>
		<path class="st3" d="M34.539093,35.3407898c0.1171875,0.1532898,0.0888062,0.3730774-0.0645142,0.4902954
			c-0.1532898,0.118103-0.3729858,0.0888062-0.4911804-0.0645142c-0.117218-0.1532898-0.0889282-0.3729858,0.0644836-0.4911804
			C34.2012024,35.1581726,34.4208984,35.1875,34.539093,35.3407898L34.539093,35.3407898z"/>
		<polygon class="st3" points="25.050293,34.9501953 28.1898804,32.1493835 29.434082,30.5658875 27.8505859,31.8104858 
			25.050293,34.9501953 		"/>
		<path class="st3" d="M33.0019836,36.3329773c0.0742188,0.1787109-0.0107727,0.3838196-0.1894836,0.4570007
			c-0.1787109,0.0742798-0.3828125-0.0107117-0.4570007-0.188385c-0.0742188-0.1787109,0.0106812-0.3838196,0.1893921-0.4580078
			C32.7236023,36.070282,32.9276733,36.1542969,33.0019836,36.3329773L33.0019836,36.3329773z"/>
		<polygon class="st3" points="23.9379883,33.5 27.695282,31.6073914 29.3070984,30.3998718 27.4550781,31.1923523 23.9379883,33.5 
					"/>
		<path class="st3" d="M31.2606812,36.8944702c0.0254211,0.1914062-0.1092834,0.367218-0.301178,0.3926086
			s-0.3677063-0.109375-0.3926086-0.3016968c-0.0254211-0.1914978,0.109375-0.367218,0.3012695-0.3926086
			C31.0596008,36.5683594,31.2353821,36.7030945,31.2606812,36.8944702L31.2606812,36.8944702z"/>
		<polygon class="st3" points="23.2383118,31.8114624 27.3573914,30.9564819 29.2270813,30.2070007 27.2333984,30.4927063 
			23.2383118,31.8114624 		"/>
		<path class="st3" d="M29.4331055,36.9853821c-0.0249023,0.1923218-0.2007141,0.3270874-0.3926086,0.3016968
			c-0.1914062-0.0253906-0.3265991-0.2012024-0.3012085-0.3926086c0.0252991-0.1913757,0.2010803-0.3261108,0.3924866-0.3016968
			C29.3237,36.6181641,29.4584961,36.7938843,29.4331055,36.9853821L29.4331055,36.9853821z"/>
		<polygon class="st3" points="23,29.9999695 27.2001648,30.2402039 29.2001953,29.9999695 27.2001648,29.7597656 23,29.9999695 		
			"/>
		<path class="st3" d="M27.6445007,36.601593c-0.0737305,0.1776733-0.2788391,0.2626648-0.4570007,0.188385
			c-0.1787109-0.0731812-0.2637024-0.2782898-0.1895142-0.4570007c0.073822-0.1786804,0.2783813-0.2626953,0.4570923-0.1893921
			C27.6337891,36.2177734,27.7187805,36.4228821,27.6445007,36.601593L27.6445007,36.601593z"/>
		<polygon class="st3" points="23.2383118,28.1884766 27.2333984,29.5072632 29.2270813,29.7929688 27.3573914,29.043457 
			23.2383118,28.1884766 		"/>
		<path class="st3" d="M26.0160828,35.766571c-0.1176758,0.1533203-0.3368835,0.1826172-0.4906921,0.0645142
			c-0.1533203-0.117218-0.1820984-0.3370056-0.0645142-0.4902954c0.1177063-0.1532898,0.3374023-0.1826172,0.4908142-0.0653992
			C26.105011,35.3935852,26.1337891,35.6132812,26.0160828,35.766571L26.0160828,35.766571z"/>
		<polygon class="st3" points="23.9379883,26.4999695 27.4550781,28.8075867 29.3070984,29.6000671 27.695282,28.3920898 
			23.9379883,26.4999695 		"/>
		<path class="st3" d="M24.6596985,34.539093c-0.1534119,0.1171875-0.3731079,0.0888062-0.4908142-0.0645142
			c-0.1175842-0.1533203-0.0888062-0.3730164,0.0645142-0.4911804c0.1532898-0.117218,0.3729858-0.0889282,0.4906921,0.0644836
			C24.8417664,34.2011719,24.8129883,34.4208679,24.6596985,34.539093L24.6596985,34.539093z"/>
		<polygon class="st3" points="25.050293,25.0502625 27.8505859,28.1898804 29.434082,29.434082 28.1898804,27.8505859 
			25.050293,25.0502625 		"/>
		<path class="st3" d="M23.6669922,33.0019836c-0.1787109,0.0741882-0.3833008-0.0108032-0.457489-0.1895142
			c-0.0737915-0.1787109,0.0106812-0.382782,0.1893616-0.4570007c0.1787109-0.0741882,0.3833313,0.0107117,0.4575195,0.1894226
			C23.9302063,32.7236023,23.8451843,32.9276733,23.6669922,33.0019836L23.6669922,33.0019836z"/>
		<polygon class="st3" points="26.4999695,23.9379883 28.3920898,27.695282 29.6000977,29.3070984 28.8075867,27.4550781 
			26.4999695,23.9379883 		"/>
		<path class="st3" d="M23.1054993,31.2606812c-0.1914062,0.0254211-0.367218-0.109314-0.3926086-0.3012085
			s0.1098938-0.3677063,0.3013-0.3926086c0.191925-0.0253906,0.3676147,0.1094055,0.3925171,0.3013
			C23.4320984,31.0596008,23.2973938,31.2353821,23.1054993,31.2606812L23.1054993,31.2606812z"/>
		<polygon class="st3" points="28.1884766,23.2382812 29.0434875,27.3573914 29.7929688,29.2270813 29.5072632,27.2333984 
			28.1884766,23.2382812 		"/>
		<path class="st3" d="M23.0141907,29.433075c-0.1914062-0.0249023-0.3266907-0.2006836-0.3013-0.3925781
			c0.0253906-0.1914062,0.2012024-0.3266296,0.3926086-0.3012085c0.1918945,0.0252991,0.3265991,0.2010803,0.3012085,0.3924866
			C23.3818054,29.3237,23.2061157,29.4584961,23.0141907,29.433075L23.0141907,29.433075z"/>
		<polygon class="st3" points="30,23 29.7597961,27.2001648 30,29.2001648 30.2402039,27.2001648 30,23 		"/>
		<path class="st3" d="M23.3988647,27.6445007c-0.1786804-0.0737305-0.2631531-0.2788391-0.1893616-0.4570312
			c0.0741882-0.1787109,0.2787781-0.2636719,0.457489-0.1894836c0.1781921,0.0737915,0.2632141,0.2783813,0.1893921,0.4570923
			C23.782196,27.6337891,23.5775757,27.7187805,23.3988647,27.6445007L23.3988647,27.6445007z"/>
		<polygon class="st3" points="31.8114624,23.2382812 30.4927063,27.2333984 30.2070007,29.2270813 30.9564819,27.3573914 
			31.8114624,23.2382812 		"/>
		<path class="st3" d="M24.2333984,26.0160828c-0.1533203-0.1176758-0.1820984-0.3368835-0.0645142-0.4906921
			c0.1177063-0.1533203,0.3374023-0.1821289,0.4908142-0.0645142c0.1532898,0.1177063,0.1820679,0.3374023,0.0643921,0.4908142
			C24.6063843,26.1049805,24.3866882,26.1337891,24.2333984,26.0160828L24.2333984,26.0160828z"/>
		<polygon class="st3" points="33.5,23.9379883 31.1923828,27.4550781 30.3999023,29.3070984 31.6073914,27.695282 33.5,23.9379883 
					"/>
		<path class="st3" d="M25.4608765,24.6596985c-0.1175842-0.1534119-0.0888062-0.3731079,0.0645142-0.4908142
			c0.1538086-0.1176147,0.3730164-0.0888062,0.4906921,0.0645142c0.1177063,0.1532898,0.0889282,0.3729858-0.0643921,0.4906921
			C25.7982788,24.8417664,25.5785828,24.8129578,25.4608765,24.6596985L25.4608765,24.6596985z"/>
		<polygon class="st3" points="34.9501953,25.0502625 31.8104858,27.8505859 30.5658875,29.434082 32.1493835,28.1898804 
			34.9501953,25.0502625 		"/>
		<path class="st3" d="M26.9979858,23.6669922c-0.0741882-0.1787109,0.0108032-0.3833313,0.1895142-0.457489
			c0.1781616-0.0737915,0.3832703,0.0106812,0.4570007,0.1893616c0.0742798,0.1787109-0.0107117,0.3833313-0.1894226,0.4575195
			C27.2763672,23.9302063,27.0718079,23.8451843,26.9979858,23.6669922L26.9979858,23.6669922z"/>
		<polygon class="st3" points="36.0624695,26.4999695 32.3046875,28.3920898 30.6929016,29.6000671 32.5448914,28.8075867 
			36.0624695,26.4999695 		"/>
		<path class="st3" d="M28.7392883,23.1054993c-0.0253906-0.1914062,0.1098022-0.367218,0.3012085-0.3926086
			c0.1918945-0.0254211,0.3677063,0.1098938,0.3926086,0.3012695c0.0253906,0.191925-0.1094055,0.3676453-0.3013306,0.3925476
			C28.9403687,23.4320984,28.7645874,23.2973938,28.7392883,23.1054993L28.7392883,23.1054993z"/>
		<polygon class="st3" points="36.7616882,28.1884766 32.6426086,29.043457 30.7728882,29.7929688 32.766571,29.5072632 
			36.7616882,28.1884766 		"/>
		<path class="st3" d="M30.5668945,23.0141602c0.0249023-0.1913757,0.2007141-0.3266907,0.3926086-0.3012695
			c0.1918945,0.0253906,0.3265991,0.2012024,0.301178,0.3926086c-0.0252991,0.1918945-0.2010803,0.3265991-0.3925171,0.3012085
			C30.6762695,23.3818054,30.5414734,23.2060852,30.5668945,23.0141602L30.5668945,23.0141602z"/>
		<polygon class="st3" points="36.9999695,29.9999695 32.7997742,29.7597656 30.7998047,29.9999695 32.7997742,30.2402039 
			36.9999695,29.9999695 		"/>
		<path class="st3" d="M32.3554993,23.3988647c0.0741882-0.1786804,0.2782898-0.2631531,0.4570007-0.1893616
			c0.1787109,0.0741577,0.2637024,0.2787781,0.1894836,0.457489c-0.0743103,0.1781921-0.2783813,0.2632141-0.4570923,0.1893921
			C32.3661804,23.782196,32.2812805,23.5775757,32.3554993,23.3988647L32.3554993,23.3988647z"/>
		<polygon class="st3" points="36.7616882,31.8114624 32.766571,30.4927063 30.7728882,30.2070007 32.6426086,30.9564819 
			36.7616882,31.8114624 		"/>
		<path class="st3" d="M33.9833984,24.2333984c0.1181946-0.1533203,0.3378906-0.1821289,0.4911804-0.0645142
			c0.1533203,0.1177063,0.1817017,0.3374023,0.0645142,0.4908142c-0.1181946,0.1532593-0.3378906,0.1820679-0.4912109,0.0643921
			C33.8944702,24.6063843,33.8661804,24.3866882,33.9833984,24.2333984L33.9833984,24.2333984z"/>
		<polygon class="st3" points="36.0624695,33.5 32.5448914,31.1923523 30.6929016,30.3998718 32.3046875,31.6073914 
			36.0624695,33.5 		"/>
		<path class="st3" d="M35.3407898,25.4608765c0.1532898-0.1176147,0.3730774-0.0888062,0.4902954,0.0645142
			c0.118103,0.1538086,0.0888062,0.3730164-0.0645142,0.4906921c-0.1532593,0.1177063-0.3729553,0.0888977-0.4911804-0.0643921
			C35.1581726,25.7982788,35.1875,25.5785828,35.3407898,25.4608765L35.3407898,25.4608765z"/>
		<polygon class="st3" points="34.9501953,34.9501953 32.1493835,31.8104858 30.5658875,30.5658875 31.8104858,32.1493835 
			34.9501953,34.9501953 		"/>
		<path class="st3" d="M36.3329773,26.9979858c0.1787109-0.0741882,0.3838196,0.0107727,0.4570007,0.1894836
			c0.0743103,0.1781921-0.0106812,0.3833008-0.188385,0.4570312c-0.1787109,0.0742798-0.3838196-0.0107117-0.4579773-0.1894226
			C36.0703125,27.2763672,36.1542969,27.0717773,36.3329773,26.9979858L36.3329773,26.9979858z"/>
		<polygon class="st3" points="33.5,36.0624695 31.6073914,32.3046875 30.3999023,30.6928711 31.1923828,32.5448914 
			33.5,36.0624695 		"/>
		<path class="st3" d="M36.8944702,28.7392883c0.1914062-0.0254211,0.367218,0.1098022,0.3926086,0.3012085
			c0.0254211,0.1918945-0.109375,0.3676758-0.3016968,0.3925781c-0.1914978,0.0254211-0.3671875-0.109375-0.3926086-0.3013
			C36.5683899,28.9403687,36.7030945,28.7645874,36.8944702,28.7392883L36.8944702,28.7392883z"/>
		<polygon class="st3" points="31.8114624,36.7616882 30.9564819,32.6425781 30.2070007,30.7728882 30.4927063,32.766571 
			31.8114624,36.7616882 		"/>
	</g>
</g>
</svg>
