<?xml version="1.0" encoding="utf-8"?>
<!-- Generator: Adobe Illustrator 22.1.0, SVG Export Plug-In . SVG Version: 6.00 Build 0)  -->
<svg version="1.1" id="Layer_1" xmlns="http://www.w3.org/2000/svg" xmlns:xlink="http://www.w3.org/1999/xlink" x="0px" y="0px"
	 viewBox="0 0 60 60" style="enable-background:new 0 0 60 60;" xml:space="preserve">
<style type="text/css">
	.st0{clip-path:url(#SVGID_2_);fill:#DA0E15;}
	.st1{clip-path:url(#SVGID_2_);fill:#FFFFFF;}
	.st2{clip-path:url(#SVGID_2_);fill:#239F40;}
</style>
<g id="XMLID_1_">
	<g>
		<defs>
			<path id="SVGID_1_" d="M59,60H0.9999695C0.4477234,60,0,59.5526733,0,59V0.9999695c0-0.5522461,0.4477234-1,0.9999695-1H59
				c0.5526886,0,0.9999847,0.4477539,0.9999847,1V59C59.9999847,59.5526733,59.5526886,60,59,60L59,60z"/>
		</defs>
		<clipPath id="SVGID_2_">
			<use xlink:href="#SVGID_1_"  style="overflow:visible;"/>
		</clipPath>
		<polygon class="st0" points="-22.5,-0.0000305 82.4999847,-0.0000305 82.4999847,60 -22.5,60 -22.5,-0.0000305 		"/>
		<polygon class="st1" points="-22.5,-0.0000305 82.4999847,-0.0000305 82.4999847,39.9999695 -22.5,39.9999695 -22.5,-0.0000305 		
			"/>
		<polygon class="st2" points="-22.5,-0.0000305 82.4999847,-0.0000305 82.4999847,20 -22.5,20 -22.5,-0.0000305 		"/>
		<path class="st1" d="M3.6333008,17.1333008h-6.066925v-0.3335266h6.066925V17.1333008L3.6333008,17.1333008z
			 M-1.0332336,18.9999695H-1.5v-0.3334961h0.4667664V18.9999695L-1.0332336,18.9999695z M6.3666992,18.9999695H4.1665039
			v-0.9335938H2.6332703v0.6000977h1.0000305v0.3334961H2.2998047v-1.2666016h1.8666992v-0.9999695H4.5v1.933075h0.6000671
			v-1.933075h0.3335266v1.933075h0.5995789v-1.933075h0.3335266V18.9999695L6.3666992,18.9999695z M-2.0332031,19.0663757
			h-0.3334961v-1.3330078h2.2001953v0.9331055h1.5332031v-0.6000977h-1v-0.3330078h1.3334656v1.2666016h-2.2001953v-0.9335938
			h-1.5331726V19.0663757L-2.0332031,19.0663757z"/>
		<path class="st1" d="M1.7666016,20.1664734h-4.2002258v-0.3330078h4.2002258V20.1664734L1.7666016,20.1664734z
			 M6.4335938,20.1664734H2.2333679v-0.3330078h4.2002258V20.1664734L6.4335938,20.1664734z"/>
		<path class="st1" d="M1.7666016,40.1669922h-4.2002258v-0.3340149h4.2002258V40.1669922L1.7666016,40.1669922z
			 M6.4335938,40.1669922H2.2333679v-0.3340149h4.2002258V40.1669922L6.4335938,40.1669922z"/>
		<path class="st1" d="M3.6333008,41.3329773h-6.066925V41h6.066925V41.3329773L3.6333008,41.3329773z M-1.0332336,43.2001953H-1.5
			V42.867157h0.4667664V43.2001953L-1.0332336,43.2001953z M6.3666992,43.2001953H4.1665039V42.266571H2.6332703v0.6005859
			h1.0000305v0.3330383H2.2998047v-1.2666016h1.8666992v-1.0000305H4.5v1.9335938h0.6000671v-1.9335938h0.3335266v1.9335938
			h0.5995789v-1.9335938h0.3335266V43.2001953L6.3666992,43.2001953z M-2.0332031,43.266571h-0.3334961v-1.3329773h2.2001953
			v0.9335632h1.5332031V42.266571h-1v-0.3329773h1.3334656v1.2666016h-2.2001953V42.266571h-1.5331726V43.266571
			L-2.0332031,43.266571z"/>
		<path class="st1" d="M12.9667969,17.1333008H6.8999023v-0.3335266h6.0668945V17.1333008L12.9667969,17.1333008z
			 M8.2998047,18.9999695H7.8334656v-0.3334961h0.4663391V18.9999695L8.2998047,18.9999695z M15.7001953,18.9999695H13.5v-0.9335938
			h-1.5332031v0.6000977h1v0.3334961h-1.3335266v-1.2666016H13.5v-0.9999695h0.3334656v1.933075h0.6001282v-1.933075h0.3329773
			v1.933075h0.6001282v-1.933075h0.3334961V18.9999695L15.7001953,18.9999695z M7.2997742,19.0663757H6.9667969v-1.3330078
			h2.1996765v0.9331055h1.5336914v-0.6000977H9.7001953v-0.3330078h1.3330078v1.2666016h-2.199707v-0.9335938H7.2997742V19.0663757
			L7.2997742,19.0663757z"/>
		<path class="st1" d="M11.1000671,20.1664734H6.8999023v-0.3330078h4.2001648V20.1664734L11.1000671,20.1664734z
			 M15.7666016,20.1664734h-4.2001953v-0.3330078h4.2001953V20.1664734L15.7666016,20.1664734z"/>
		<path class="st1" d="M11.1000671,40.1669922H6.8999023v-0.3340149h4.2001648V40.1669922L11.1000671,40.1669922z
			 M15.7666016,40.1669922h-4.2001953v-0.3340149h4.2001953V40.1669922L15.7666016,40.1669922z"/>
		<path class="st1" d="M12.9667969,41.3329773H6.8999023V41h6.0668945V41.3329773L12.9667969,41.3329773z M8.2998047,43.2001953
			H7.8334656V42.867157h0.4663391V43.2001953L8.2998047,43.2001953z M15.7001953,43.2001953H13.5V42.266571h-1.5332031v0.6005859h1
			v0.3330383h-1.3335266v-1.2666016H13.5v-1.0000305h0.3334656v1.9335938h0.6001282v-1.9335938h0.3329773v1.9335938h0.6001282
			v-1.9335938h0.3334961V43.2001953L15.7001953,43.2001953z M7.2997742,43.266571H6.9667969v-1.3329773h2.1996765v0.9335632
			h1.5336914V42.266571H9.7001953v-0.3329773h1.3330078v1.2666016h-2.199707V42.266571H7.2997742V43.266571L7.2997742,43.266571z"/>
		<path class="st1" d="M22.2997742,17.1333008h-6.0663757v-0.3335266h6.0663757V17.1333008L22.2997742,17.1333008z
			 M17.6332703,18.9999695h-0.4667664v-0.3334961h0.4667664V18.9999695L17.6332703,18.9999695z M25.0331726,18.9999695h-2.199707
			v-0.9335938h-1.5336914v0.6000977h1v0.3334961h-1.3329773v-1.2666016h1.8666687v-0.9999695h0.3330383v1.933075h0.6000671
			v-1.933075h0.3335266v1.933075h0.6000977v-1.933075h0.3329773V18.9999695L25.0331726,18.9999695z M16.6333008,19.0663757
			h-0.3335266v-1.3330078H18.5v0.9331055h1.5332031v-0.6000977h-1.0000305v-0.3330078h1.3334961v1.2666016h-2.2001953v-0.9335938
			h-1.5331726V19.0663757L16.6333008,19.0663757z"/>
		<path class="st1" d="M20.4335938,20.1664734h-4.2001953v-0.3330078h4.2001953V20.1664734L20.4335938,20.1664734z
			 M25.1000977,20.1664734h-4.2002258v-0.3330078h4.2002258V20.1664734L25.1000977,20.1664734z"/>
		<path class="st1" d="M20.4335938,40.1669922h-4.2001953v-0.3340149h4.2001953V40.1669922L20.4335938,40.1669922z
			 M25.1000977,40.1669922h-4.2002258v-0.3340149h4.2002258V40.1669922L25.1000977,40.1669922z"/>
		<path class="st1" d="M22.2997742,41.3329773h-6.0663757V41h6.0663757V41.3329773L22.2997742,41.3329773z M17.6332703,43.2001953
			h-0.4667664V42.867157h0.4667664V43.2001953L17.6332703,43.2001953z M25.0331726,43.2001953h-2.199707V42.266571h-1.5336914
			v0.6005859h1v0.3330383h-1.3329773v-1.2666016h1.8666687v-1.0000305h0.3330383v1.9335938h0.6000671v-1.9335938h0.3335266
			v1.9335938h0.6000977v-1.9335938h0.3329773V43.2001953L25.0331726,43.2001953z M16.6333008,43.266571h-0.3335266v-1.3329773H18.5
			v0.9335632h1.5332031V42.266571h-1.0000305v-0.3329773h1.3334961v1.2666016h-2.2001953V42.266571h-1.5331726V43.266571
			L16.6333008,43.266571z"/>
		<path class="st1" d="M31.632782,17.1333008h-6.0664062v-0.3335266h6.0664062V17.1333008L31.632782,17.1333008z
			 M26.9667969,18.9999695h-0.4668274v-0.3334961h0.4668274V18.9999695L26.9667969,18.9999695z M34.3671875,18.9999695h-2.2001953
			v-0.9335938h-1.5336914v0.6000977h0.9994812v0.3334961h-1.3330078v-1.2666016h1.867218v-0.9999695h0.3329773v1.933075h0.5996399
			v-1.933075h0.3339844v1.933075h0.5995789v-1.933075h0.3340149V18.9999695L34.3671875,18.9999695z M25.9667664,19.0663757
			h-0.3334656v-1.3330078h2.2001953v0.9331055h1.5331726v-0.6000977h-0.9999695v-0.3330078h1.3334961v1.2666016H27.5v-0.9335938
			h-1.5332336V19.0663757L25.9667664,19.0663757z"/>
		<path class="st1" d="M29.766571,20.1664734h-4.2001953v-0.3330078h4.2001953V20.1664734L29.766571,20.1664734z
			 M34.4335938,20.1664734h-4.2001953v-0.3330078h4.2001953V20.1664734L34.4335938,20.1664734z"/>
		<path class="st1" d="M29.766571,40.1669922h-4.2001953v-0.3340149h4.2001953V40.1669922L29.766571,40.1669922z
			 M34.4335938,40.1669922h-4.2001953v-0.3340149h4.2001953V40.1669922L34.4335938,40.1669922z"/>
		<path class="st1" d="M31.632782,41.3329773h-6.0664062V41h6.0664062V41.3329773L31.632782,41.3329773z M26.9667969,43.2001953
			h-0.4668274V42.867157h0.4668274V43.2001953L26.9667969,43.2001953z M34.3671875,43.2001953h-2.2001953V42.266571h-1.5336914
			v0.6005859h0.9994812v0.3330383h-1.3330078v-1.2666016h1.867218v-1.0000305h0.3329773v1.9335938h0.5996399v-1.9335938h0.3339844
			v1.9335938h0.5995789v-1.9335938h0.3340149V43.2001953L34.3671875,43.2001953z M25.9667664,43.266571h-0.3334656v-1.3329773
			h2.2001953v0.9335632h1.5331726V42.266571h-0.9999695v-0.3329773h1.3334961v1.2666016H27.5V42.266571h-1.5332336V43.266571
			L25.9667664,43.266571z"/>
		<path class="st1" d="M40.9667664,17.1333008h-6.0663757v-0.3335266h6.0663757V17.1333008L40.9667664,17.1333008z
			 M36.2997742,18.9999695h-0.4667664v-0.3334961h0.4667664V18.9999695L36.2997742,18.9999695z M43.7001648,18.9999695h-2.2001953
			v-0.9335938h-1.5331726v0.6000977h0.9999695v0.3334961h-1.3339539v-1.2666016h1.867157v-0.9999695h0.3330383v1.933075h0.6005859
			v-1.933075h0.3330078v1.933075h0.6005859v-1.933075h0.3329773V18.9999695L43.7001648,18.9999695z M35.2998047,19.0663757
			h-0.3330383v-1.3330078h2.2002258v0.9331055h1.5332031v-0.6000977h-1.0000305v-0.3330078h1.3330078v1.2666016h-2.2001953
			v-0.9335938h-1.5331726V19.0663757L35.2998047,19.0663757z"/>
		<path class="st1" d="M39.0996094,20.1664734h-4.1992188v-0.3330078h4.1992188V20.1664734L39.0996094,20.1664734z
			 M43.7666016,20.1664734h-4.2002258v-0.3330078h4.2002258V20.1664734L43.7666016,20.1664734z"/>
		<path class="st1" d="M39.0996094,40.1669922h-4.1992188v-0.3340149h4.1992188V40.1669922L39.0996094,40.1669922z
			 M43.7666016,40.1669922h-4.2002258v-0.3340149h4.2002258V40.1669922L43.7666016,40.1669922z"/>
		<path class="st1" d="M40.9667664,41.3329773h-6.0663757V41h6.0663757V41.3329773L40.9667664,41.3329773z M36.2997742,43.2001953
			h-0.4667664V42.867157h0.4667664V43.2001953L36.2997742,43.2001953z M43.7001648,43.2001953h-2.2001953V42.266571h-1.5331726
			v0.6005859h0.9999695v0.3330383h-1.3339539v-1.2666016h1.867157v-1.0000305h0.3330383v1.9335938h0.6005859v-1.9335938h0.3330078
			v1.9335938h0.6005859v-1.9335938h0.3329773V43.2001953L43.7001648,43.2001953z M35.2998047,43.266571h-0.3330383v-1.3329773
			h2.2002258v0.9335632h1.5332031V42.266571h-1.0000305v-0.3329773h1.3330078v1.2666016h-2.2001953V42.266571h-1.5331726V43.266571
			L35.2998047,43.266571z"/>
		<path class="st1" d="M50.2997894,17.1333008h-6.0664215v-0.3335266h6.0664215V17.1333008L50.2997894,17.1333008z
			 M45.6328125,18.9999695h-0.4658203v-0.3334961h0.4658203V18.9999695L45.6328125,18.9999695z M53.0331879,18.9999695h-2.2001953
			v-0.9335938h-1.5332184v0.6000977h1.0000153v0.3334961h-1.3329926v-1.2666016h1.8661957v-0.9999695h0.3339844v1.933075h0.5996246
			v-1.933075h0.3329926v1.933075h0.6005859v-1.933075h0.3330078V18.9999695L53.0331879,18.9999695z M44.632782,19.0663757
			h-0.3329773v-1.3330078H46.5v0.9331055h1.5331726v-0.6000977h-0.9999695v-0.3330078h1.3339844v1.2666016h-2.2001953v-0.9335938
			H44.632782V19.0663757L44.632782,19.0663757z"/>
		<path class="st1" d="M48.4335938,20.1664734h-4.2002258v-0.3330078h4.2002258V20.1664734L48.4335938,20.1664734z
			 M53.0995789,20.1664734h-4.1991882v-0.3330078h4.1991882V20.1664734L53.0995789,20.1664734z"/>
		<path class="st1" d="M48.4335938,40.1669922h-4.2002258v-0.3340149h4.2002258V40.1669922L48.4335938,40.1669922z
			 M53.0995789,40.1669922h-4.1991882v-0.3340149h4.1991882V40.1669922L53.0995789,40.1669922z"/>
		<path class="st1" d="M50.2997894,41.3329773h-6.0664215V41h6.0664215V41.3329773L50.2997894,41.3329773z M45.6328125,43.2001953
			h-0.4658203V42.867157h0.4658203V43.2001953L45.6328125,43.2001953z M53.0331879,43.2001953h-2.2001953V42.266571h-1.5332184
			v0.6005859h1.0000153v0.3330383h-1.3329926v-1.2666016h1.8661957v-1.0000305h0.3339844v1.9335938h0.5996246v-1.9335938h0.3329926
			v1.9335938h0.6005859v-1.9335938h0.3330078V43.2001953L53.0331879,43.2001953z M44.632782,43.266571h-0.3329773v-1.3329773H46.5
			v0.9335632h1.5331726V42.266571h-0.9999695v-0.3329773h1.3339844v1.2666016h-2.2001953V42.266571H44.632782V43.266571
			L44.632782,43.266571z"/>
		<path class="st1" d="M59.632782,17.1333008h-6.066391v-0.3335266h6.066391V17.1333008L59.632782,17.1333008z
			 M54.9667816,18.9999695H54.5v-0.3334961h0.4667816V18.9999695L54.9667816,18.9999695z M62.3671722,18.9999695h-2.2001953
			v-0.9335938h-1.5341797v0.6000977h0.9999847v0.3334961h-1.3330078v-1.2666016h1.8672028v-0.9999695h0.3330078v1.933075h0.5996094
			v-1.933075h0.3339996v1.933075h0.5995941v-1.933075h0.3339844V18.9999695L62.3671722,18.9999695z M53.9667969,19.0663757
			H53.632782v-1.3330078h2.2001953v0.9331055h1.5342255v-0.6000977h-1.0000305v-0.3330078h1.3330078v1.2666016h-2.2001953
			v-0.9335938h-1.5331879V19.0663757L53.9667969,19.0663757z"/>
		<path class="st1" d="M57.7666016,20.1664734H53.566391v-0.3330078h4.2002106V20.1664734L57.7666016,20.1664734z
			 M62.4335938,20.1664734h-4.2002106v-0.3330078h4.2002106V20.1664734L62.4335938,20.1664734z"/>
		<path class="st1" d="M57.7666016,40.1669922H53.566391v-0.3340149h4.2002106V40.1669922L57.7666016,40.1669922z
			 M62.4335938,40.1669922h-4.2002106v-0.3340149h4.2002106V40.1669922L62.4335938,40.1669922z"/>
		<path class="st1" d="M59.632782,41.3329773h-6.066391V41h6.066391V41.3329773L59.632782,41.3329773z M54.9667816,43.2001953H54.5
			V42.867157h0.4667816V43.2001953L54.9667816,43.2001953z M62.3671722,43.2001953h-2.2001953V42.266571h-1.5341797v0.6005859
			h0.9999847v0.3330383h-1.3330078v-1.2666016h1.8672028v-1.0000305h0.3330078v1.9335938h0.5996094v-1.9335938h0.3339996v1.9335938
			h0.5995941v-1.9335938h0.3339844V43.2001953L62.3671722,43.2001953z M53.9667969,43.266571H53.632782v-1.3329773h2.2001953
			v0.9335632h1.5342255V42.266571h-1.0000305v-0.3329773h1.3330078v1.2666016h-2.2001953V42.266571h-1.5331879V43.266571
			L53.9667969,43.266571z"/>
		<path class="st0" d="M25.8887024,36.2724609c3.5931702,1.1679382,7.4520874-0.7988892,8.6190796-4.3916016
			c0.8526001-2.6225891,0.0469055-5.4999695-2.0438843-7.2988586c2.3192749,3.4321899,1.4179077,8.0947876-2.0147095,10.414093
			C29.1068726,35.9022827,27.5072937,36.3505859,25.8887024,36.2724609"/>
		<path class="st0" d="M34.6376953,34.9608765c2.7393188-1.5838928,3.6768188-5.0883179,2.093689-7.8280945
			c-0.7763062-1.3427734-2.0643921-2.3139954-3.5693054-2.6908875c3.3115234,2.4892883,3.9775085,7.1908875,1.4883118,10.5024109
			C34.6454773,34.9491882,34.641571,34.9550781,34.6376953,34.9608765"/>
		<path class="st0" d="M30,37.4999695l-0.375-7.5L30,24.0951843c0.2279663,0.3184204,0.532196,0.5742188,0.8852844,0.7431946
			v4.4086914l-0.3017883,7.4501953L30,37.4999695L30,37.4999695z"/>
		<path class="st0" d="M29.8500671,23.6249695L30,23.7660828c0.3437805,0.4888,1.0185852,0.6065063,1.507782,0.262207
			c0.4102173-0.2881165,0.5684204-0.8203125,0.382782-1.2861023c-0.1044617,0.5552063-0.6395569,0.9203796-1.195282,0.8153992
			C30.4028015,23.5023804,30.1488647,23.3227844,30,23.0653992"/>
		<path class="st0" d="M34.1112671,36.2724609c-3.5932007,1.1679382-7.4520874-0.7988892-8.6195679-4.3916016
			c-0.8521118-2.6225891-0.0458984-5.4999695,2.0444031-7.2988586c-2.3193359,3.4321899-1.4174194,8.0947876,2.014679,10.414093
			C30.8930664,35.9022827,32.4931946,36.3505859,34.1112671,36.2724609"/>
		<path class="st0" d="M25.3623047,34.9608765c-2.7393188-1.5838928-3.6768188-5.0883179-2.0933228-7.8280945
			c0.7764282-1.3427734,2.0640259-2.3139954,3.5689087-2.6908875c-3.3110046,2.4892883-3.9771118,7.1908875-1.4878235,10.5024109
			C25.3539734,34.9491882,25.3583984,34.9550781,25.3623047,34.9608765"/>
		<path class="st0" d="M30,37.4999695l0.375-7.5L30,24.0951843c-0.2279968,0.3184204-0.5322266,0.5742188-0.8853149,0.7431946
			v4.4086914l0.3017883,7.4501953L30,37.4999695L30,37.4999695z"/>
		<path class="st0" d="M30.1499023,23.6249695L30,23.7660828c-0.3437195,0.4888-1.0190125,0.6065063-1.5078125,0.262207
			c-0.4102173-0.2881165-0.5684204-0.8203125-0.382782-1.2861023c0.1049805,0.5552063,0.6400757,0.9203796,1.195282,0.8153992
			C29.5971985,23.5023804,29.8511047,23.3227844,30,23.0653992"/>
	</g>
</g>
</svg>
