<?xml version="1.0" encoding="utf-8"?>
<!-- Generator: Adobe Illustrator 22.1.0, SVG Export Plug-In . SVG Version: 6.00 Build 0)  -->
<svg version="1.1" id="Layer_1" xmlns="http://www.w3.org/2000/svg" xmlns:xlink="http://www.w3.org/1999/xlink" x="0px" y="0px"
	 viewBox="0 0 60 60" style="enable-background:new 0 0 60 60;" xml:space="preserve">
<style type="text/css">
	.st0{clip-path:url(#SVGID_2_);fill:#CE1327;}
	.st1{clip-path:url(#SVGID_2_);fill:#FFFFFF;}
	.st2{clip-path:url(#SVGID_2_);fill:#020203;}
	.st3{clip-path:url(#SVGID_2_);fill:#037B3E;}
</style>
<g id="XMLID_1_">
	<g>
		<defs>
			<path id="SVGID_1_" d="M59,60H0.9999695C0.4477234,60,0,59.5526733,0,59V0.9999695c0-0.5522461,0.4477234-1,0.9999695-1H59
				c0.5526886,0,0.9999847,0.4477539,0.9999847,1V59C59.9999847,59.5526733,59.5526886,60,59,60L59,60z"/>
		</defs>
		<clipPath id="SVGID_2_">
			<use xlink:href="#SVGID_1_"  style="overflow:visible;"/>
		</clipPath>
		<polygon class="st0" points="-15,-0.0000305 74.9999847,-0.0000305 74.9999847,60 -15,60 -15,-0.0000305 		"/>
		<polygon class="st1" points="-15,20 74.9999847,20 74.9999847,60 -15,60 -15,20 		"/>
		<polygon class="st2" points="-15,39.9999695 74.9999847,39.9999695 74.9999847,60 -15,60 -15,39.9999695 		"/>
		<path class="st3" d="M37.7479858,31.8573914c0.1572876,0.2353821,0.6914978,0.2304993,0.6661072-0.1660156
			C38.3262024,31.3652039,37.6221008,31.4892883,37.7479858,31.8573914L37.7479858,31.8573914z M40.4971008,27.7836609
			l1.1600952-1.0166016v5.1421204l0.8349915-0.0010071l-0.0263977-5.7675781
			c0.3388977-0.339325,1.0029907-0.8320007,1.1690063-1.1733093v9.2104187l-7.3233337,0.0029602
			c-0.1073608-1.9120789-0.1259766-3.891571,2.1026306-3.4658813v-0.7801819
			c-0.0654907-0.1314392-0.1904907,0.032196-0.218811-0.1416321c0.3535156-0.3540039,0.4736023-0.4443665,1.4317322-1.2812805
			l0.0174866,3.3945923l0.8447876,0.0009155c0,0,0.0078125-3.9916992,0.0078125-4.1240234V27.7836609L40.4971008,27.7836609z
			 M44.7479858,24.6278687c0.5440063,0.2929993,0.9756165,0.7007141,1.6426086,0.8697205
			c-0.0771179,0.2757874-0.3232117,0.3851929-0.3877258,0.6756897v5.8912048
			c0.7451172,0.1640015,0.9024048-0.2588196,1.256897-0.4833984c0.0966187,0.9432983,0.6972046,1.868103,0.6757202,2.6054077
			h-3.188385v-9.5630188L44.7479858,24.6278687L44.7479858,24.6278687z M25.245575,24.6854858
			c-0.0404968,0.2846985,0.5093384,1.0005188,0.7573242,1.129425c-0.168396,0.0756531-0.3783875,0.0410461-0.5332031,0.1259766
			c-0.8641968,0.8648071-4.0219116,3.9433899-4.598114,4.6787109c1.7080078,0.0336914,3.6015015-0.0229187,5.2026062-0.0962219
			c-0.0013733-1.160614,1.0990906-1.2201843,1.8349915-1.6425171c0.3789062,0.5966187,1.3305054,0.5507507,1.4492188,1.4487
			l0.0023804,3.8638306H14.7689819c-0.2567749,1.1336975-1.2796936,1.9989929-2.7055054,1.6425171
			c0.4414062-0.460907,1.1836243-0.6191101,1.4497375-1.2558289c0.2240906-1.3935852-0.4478149-2.2539062-0.8823242-3.0448914
			c0.7191772-0.2618103,0.8280945-0.3272095,1.559021-0.8179016c-0.5131226,1.559082,1.3359985,1.387207,2.7050781,1.3519897
			c0.0439758-0.5292969,0.0220032-1.1542969-0.3867188-1.2314148c0.5244141-0.1908875,0.6118164-0.2558594,1.449707-0.9662781
			v2.1011047l10.1034851-0.0224915c0-0.6572266,0.1743164-1.7134094-0.3461609-1.7134094
			c-0.4970093,0-0.023407,1.3520813-0.4090881,1.3520813h-7.8023376l-0.0048828-1.3413086
			c0.3280945-0.3286743,0.2910156-0.3022766,2.550293-2.5615845c0.2251282-0.2255859,1.8101196-1.657196,3.1973267-3.0028992
			L25.245575,24.6854858L25.245575,24.6854858z M40.030304,25.1094055
			c-0.1231079-0.1568298-0.2715149-0.7495117-0.2237244-0.8950195c0.0420227-0.1260071,0.0878906-0.1534119,0.2002258-0.1157837
			c0.2011719,0.0629883,0.2480774,0.2016602,0.217804,0.6713867C40.2012024,25.1522827,40.1445007,25.2528992,40.030304,25.1094055
			L40.030304,25.1094055L40.030304,25.1094055z M38.7743835,26.2572937c-0.1221008-0.0644226-0.2597961-0.1679077-0.305603-0.230896
			c-0.0683899-0.0957336-0.0283813-0.0996094,0.2548218-0.022522c0.507782,0.1376953,0.8349915,0.0834961,1.1601868-0.1913757
			l0.2860718-0.2412109l0.3379211,0.1713867c0.1856079,0.093689,0.382782,0.1586914,0.4395142,0.1434937
			c0.1464844-0.0384827,0.4491882-0.4266663,0.4393921-0.5614929c-0.0127258-0.1660156,0.1278992-0.1239929,0.1962891,0.0581055
			c0.1337891,0.3569031-0.0614929,0.7666016-0.4091797,0.8578796c-0.1689148,0.0440063-0.3251953,0.0279236-0.5820312-0.0614929
			c-0.3153687-0.1098938-0.3690796-0.1079102-0.5263672,0.0127258c-0.3545227,0.2714844-0.8476257,0.296875-1.2910156,0.0658875
			V26.2572937L38.7743835,26.2572937z"/>
		<path class="st3" d="M16.5483093,34.8300781c0.2470703,0,0.4472656,0.2001953,0.4472656,0.4472046
			c0,0.2471008-0.2001953,0.4472961-0.4472656,0.4472961c-0.246521,0-0.4467163-0.2001953-0.4467163-0.4472961
			C16.101593,35.0302734,16.3017883,34.8300781,16.5483093,34.8300781L16.5483093,34.8300781z"/>
		<path class="st3" d="M30.3490906,24.6371765c0.5448914,0.2935181,0.9760742,0.6987305,1.6430969,0.8695984
			c-0.0772095,0.2759094-0.3233032,0.3853149-0.3876953,0.6758118v5.8925781
			c0.7451172,0.1641235,0.9013977-0.257782,1.2568054-0.4823608c0.0956726,0.9432983,0.6972961,1.867157,0.6757812,2.6053772
			h-3.1884766l0.0004883-9.563385V24.6371765L30.3490906,24.6371765z"/>
	</g>
</g>
</svg>
