<?xml version="1.0" encoding="utf-8"?>
<!-- Generator: Adobe Illustrator 22.1.0, SVG Export Plug-In . SVG Version: 6.00 Build 0)  -->
<svg version="1.1" id="Layer_1" xmlns="http://www.w3.org/2000/svg" xmlns:xlink="http://www.w3.org/1999/xlink" x="0px" y="0px"
	 viewBox="0 0 60 60" style="enable-background:new 0 0 60 60;" xml:space="preserve">
<style type="text/css">
	.st0{clip-path:url(#SVGID_2_);fill:#CF172C;}
	.st1{clip-path:url(#SVGID_2_);fill:#F9DD16;}
	.st2{clip-path:url(#SVGID_2_);fill:#020203;}
	.st3{clip-path:url(#SVGID_2_);fill:#FFFFFF;}
</style>
<g id="XMLID_1_">
	<g>
		<defs>
			<path id="SVGID_1_" d="M59,60H0.9999695C0.4477234,60,0,59.5526733,0,59V0.9999695c0-0.5522461,0.4477234-1,0.9999695-1H59
				c0.5526886,0,0.9999847,0.4477539,0.9999847,1V59C59.9999847,59.5526733,59.5526886,60,59,60L59,60z"/>
		</defs>
		<clipPath id="SVGID_2_">
			<use xlink:href="#SVGID_1_"  style="overflow:visible;"/>
		</clipPath>
		<polygon class="st0" points="-30,-0.0000305 89.9999847,-0.0000305 89.9999847,60 -30,60 -30,-0.0000305 		"/>
		<path class="st1" d="M14.0019836,21.5731812c0.0449219,0.0484009,0.5913086,0.3974915,0.6019897,0.3793945
			c0.0103149-0.0174866,1.4702148-0.2992859,1.460022-0.281189c-0.0103149,0.0180969-0.8433228,0.9296875-0.8067322,0.949707
			c0.0366211,0.019989,0.8072205,0.9892883,0.8252258,0.9994812c0.0185852,0.0102844-1.5131836-0.1733093-1.5131836-0.1733093
			l-1.0424194,0.7719116l-0.1933899-1.0521851c0,0-1.2637329-0.4848938-1.2817078-0.4950867
			c-0.0186157-0.0098267,1.105896-0.3355103,1.105896-0.3355103l0.3599243-0.8413086
			C13.5176086,21.4950867,13.9447632,21.589386,14.0019836,21.5731812L14.0019836,21.5731812L14.0019836,21.5731812z"/>
		<path class="st2" d="M12.3461914,22.6801758c0.2680969,0.1035156,0.7006836,0.2695007,1.023407,0.3930054l0.0522766,0.0205994
			l0.1743164,0.949707l0.9458008-0.7001953l0.0391235,0.0043945c0.4037781,0.0482788,0.9574585,0.1141968,1.2684937,0.1488953
			c-0.0395203-0.0484009-0.0884399-0.1089172-0.1494141-0.1841125c-0.1860046-0.2299805-0.467804-0.5780945-0.5064087-0.6146851
			l-0.0423889-0.0230103L15.1576843,22.6362c-0.0112-0.0644226-0.0140686-0.0830078,0.6465149-0.8227234
			c-0.3612976,0.0653992-0.9810181,0.1864929-1.1333008,0.2236023l-0.0054321,0.0093079L14.6138,22.0526733
			c-0.0889282,0.0137024-0.5010071-0.2787781-0.6397095-0.3783875c-0.0546875-0.0014038-0.1640015-0.0145874-0.3973999-0.0643921
			l-0.3457031,0.8095093l-0.0455017,0.0131836C12.9354858,22.5048828,12.5830078,22.6083679,12.3461914,22.6801758
			L12.3461914,22.6801758z M13.457489,24.3954773l-0.2119141-1.155304c-1.218689-0.4672852-1.2348938-0.4765015-1.2426758-0.480896
			l-0.0581055-0.032196l0.0072937-0.0664978c0.0087891-0.0809937,0.0092773-0.0820007,1.131897-0.4067078l0.3739929-0.8745117
			l0.0811157,0.0181274c0.1800842,0.0394897,0.4022827,0.0791016,0.4458008,0.0776062l0.0585938-0.0161133l0.031189,0.0458984
			c0.0537109,0.0477905,0.425293,0.2855835,0.5327148,0.3423157c0.0888977-0.0254211,0.2774048-0.0625305,0.7035828-0.1446228
			c0.7549133-0.1454773,0.762207-0.141571,0.8023376-0.1185913l0.0868835,0.0493164l-0.0493164,0.0873718
			c-0.007782,0.0137329-0.007782,0.0137329-0.144104,0.1660156c-0.1478882,0.1654968-0.5112,0.5712891-0.625885,0.7207031
			c0.0649109,0.074707,0.1948242,0.2329102,0.4750977,0.579071c0.1190796,0.147522,0.2528992,0.3125305,0.2890015,0.3540344
			l0.0581055,0.0322876l-0.0249023,0.0785828c-0.0117188,0.0365906-0.0185242,0.0585938-0.1430054,0.0551147l-0.0009766,0.0014954
			c-0.0010376-0.0004883-0.0020447-0.0009766-0.0028992-0.0018921c-0.1695251-0.003479-0.5503235-0.0488892-1.4346313-0.1548157
			L13.457489,24.3954773L13.457489,24.3954773z"/>
		<path class="st3" d="M32.6395874,24.2289734c0.031311-0.8808899-1.6034851-4.9242859-1.8734741-5.5463867
			c-0.519043-0.6826172-1.0561218-1.7543945-1.2724304-2.6719055c-0.1293945-0.9233093-0.6054688-1.6596069-1.3012695-1.9266968
			c-0.7993164-0.4507141-1.5982056-0.3101196-2.3643188-0.2695007c-0.3769226,0.0658875-0.7041016,0.254303-0.8945007,0.5415039
			c-0.4316101,0.5668945-0.6543274,0.5150757-0.9478149,0.7557983c-2.3608093,0.2836914-4.6210938,1.4032898-6.3373718,2.1607056
			c-0.9145203,0.5814819-1.6860046,0.9115906-2.0404968,0.9745789c-0.9541321-0.0273743-1.6333008-0.4946594-1.9570007-0.7416687
			c-1.0487976-1.0010376-2.0977173-2.0020142-3.1470337-3.0030212c-0.9140625-0.7171936-1.1781921,0.2670898-1.0028992,0.4243774
			c0.2909851,0.670929-0.3989563,1.0507202,2.0932312,3.5146179c0.3032837,0.6660156,0.6065063,1.3320007,0.9096985,1.9981079
			c0,0-0.0718079,0.5355835-0.0273132,0.5604858c0.4335938,1.1143188,1.1879883,0.8642883,1.5498047,0.5674133
			c0.262207-0.219696,0.5243835-0.4389954,0.7861023-0.6586914c0,0,1.5287781-0.4219055,1.5536804-0.4658203
			c1.6152039,0.2904968,5.8227844-0.3569641,6.5230103-0.6562805c0.6322937-0.3222046,0.6625977-0.031189,1.2153015-0.4448242
			c0.4595032-0.2782898,0.2041016-0.0531921,1.0601196-0.7729797c0.2630615-0.2080078,0.4541016,0.1489868,0.4940796,0.3955994
			c-0.0297852,2.3222046,0.210907,3.8143921,0.3505859,6.1351929l3.4785156,1.8965149L32.6395874,24.2289734L32.6395874,24.2289734z
			"/>
		<path class="st2" d="M26.1347961,25.019989l3.3353882,1.8183899l3.0386047-2.6679993
			c-0.032196-0.9204102-1.5147095-4.6333008-1.8560181-5.421875c-0.563385-0.7461243-1.0795898-1.83255-1.2855835-2.7080078
			c-0.1278992-0.9092102-0.5834961-1.5908203-1.2216797-1.8354187c-0.6684265-0.3755188-1.3354187-0.3280945-1.980011-0.282196
			c-0.1108093,0.007782-0.2212219,0.0155945-0.3305054,0.0213928c-0.339386,0.0601196-0.6264954,0.2324829-0.7929993,0.4833984
			c-0.3096008,0.4073181-0.5244141,0.5209961-0.7144165,0.6216125c-0.0878906,0.0469055-0.1712952,0.0907898-0.2591858,0.1630859
			l-0.0292969,0.0239258l-0.0375977,0.0048828c-2.0625,0.2475891-4.0630188,1.1465149-5.6703796,1.8687134
			c-0.2173462,0.0970764-0.4273376,0.1918945-0.6304321,0.281189c-0.9198914,0.5869141-1.7060852,0.9190063-2.0697937,0.9838867
			l-0.0132141,0.0024109l-0.0131836-0.0003967c-0.717804-0.0205994-1.3822937-0.2720032-2.0326843-0.7681274l-3.1572266-3.0121765
			c-0.1674805-0.1304016-0.4946594-0.335022-0.7007141-0.1465149c-0.1367188,0.1245117-0.1489563,0.342804-0.1220703,0.3843079
			l0.0209961,0.0189819l0.0073242,0.0215149c0.0786133,0.1812134,0.0927429,0.3408203,0.1079102,0.5093079
			c0.0429688,0.4769897,0.1015625,1.1299133,1.9579468,2.9648132l0.0269165,0.0385742l0.9248047,2.0317078l-0.0048828,0.0371094
			c-0.0249023,0.184082-0.0454102,0.4101868-0.0400391,0.4825134l0.0053101,0.0135803
			c0.1586914,0.4086914,0.3702087,0.6499023,0.6289978,0.717804c0.3291016,0.085907,0.6318054-0.1337891,0.7167053-0.203125
			l0.8067017-0.6767578l0.0273132-0.0073242c0.6313782-0.1743164,1.3388977-0.3783875,1.4950867-0.4385071l0.0258789-0.0458679
			l0.0904236,0.0160828c1.5863953,0.2846985,5.7435913-0.3465881,6.4487-0.6479187
			c0.3022156-0.1542969,0.4862976-0.1757812,0.6337891-0.1928711c0.1644897-0.0190125,0.2832031-0.0327148,0.554718-0.2363281
			c0.1293945-0.0791016,0.2015686-0.1181641,0.2572937-0.1483765c0.1488953-0.0805969,0.168396-0.0909119,0.7974243-0.6202087
			c0.1156921-0.0912781,0.2406616-0.1156921,0.355896-0.0707703c0.2206726,0.0854797,0.3237,0.3828735,0.3495789,0.5453796
			l0.0020142,0.0108032v0.0112c-0.0196228,1.5386047,0.0820007,2.7382812,0.1898804,4.0078125
			C26.0326843,23.6117859,26.0888977,24.2709656,26.1347961,25.019989L26.1347961,25.019989z M29.5054016,27.1537781
			l-3.6216125-1.9746094l-0.0039062-0.0717773c-0.0469055-0.7754211-0.1044922-1.4545898-0.1601868-2.1112976
			c-0.1083984-1.273407-0.2104187-2.476593-0.1914062-4.0215149c-0.0273132-0.1537781-0.1108093-0.3051758-0.1855164-0.3339844
			c-0.0107727-0.0043945-0.0396118-0.015625-0.0971985,0.0302734c-0.6283875,0.5283203-0.6625671,0.5522156-0.8383789,0.6474915
			c-0.0527039,0.0288086-0.1220093,0.065918-0.2352905,0.1347351c-0.3174133,0.2382812-0.4888306,0.2583008-0.6698914,0.2792969
			c-0.1402283,0.0160828-0.2852173,0.0332031-0.5538025,0.1698914c-0.7246094,0.3101196-4.9179382,0.9501953-6.5664368,0.675293
			c-0.1395874,0.0596008-0.5013733,0.1708984-1.5072937,0.4487915l-0.7645874,0.640625
			C14,21.7572937,13.6103821,22.039093,13.1610718,21.9219055c-0.3358765-0.0879211-0.602478-0.3711243-0.7923889-0.8418274
			c-0.0415955-0.050293-0.0566711-0.1734009,0.0014038-0.6206055l-0.8842773-1.9424133
			c-1.907196-1.8891602-1.9701843-2.5941772-2.016571-3.109375C9.4560242,15.2612,9.4447937,15.1337891,9.3896484,14.9979858
			c-0.1221008-0.1503296-0.081543-0.4736023,0.0942383-0.6826172c0.1186523-0.1410828,0.4628906-0.4154968,1.1005859,0.085022
			l3.1562195,3.0112c0.5903931,0.4492188,1.2016907,0.683075,1.8573914,0.7050781
			c0.3345032-0.0644836,1.0899048-0.3876953,1.9804993-0.954071c0.219696-0.0986328,0.4291992-0.1929321,0.6459961-0.2900085
			c1.6138306-0.7250977,3.6200867-1.6265259,5.7090149-1.8853149c0.0961914-0.0741882,0.1854858-0.121582,0.2724915-0.167511
			c0.1821289-0.0966797,0.3540039-0.1879883,0.6239929-0.5424805c0.2015991-0.3041992,0.5498352-0.5166016,0.9756165-0.5907898
			c0.1235046-0.0078125,0.2323914-0.015625,0.3417969-0.0229187c0.6831055-0.0488892,1.3890991-0.0986938,2.1083984,0.3071289
			c0.7103882,0.2709961,1.2275085,1.0297852,1.3666992,2.0219727c0.1972046,0.8368835,0.699707,1.8911133,1.2469788,2.6112976
			l0.0157166,0.0269165c0.2397156,0.5521851,1.9174194,4.6640015,1.8841858,5.6029968l-0.0018921,0.0561218L29.5054016,27.1537781
			L29.5054016,27.1537781z"/>
		<path class="st1" d="M12.4468079,16.5175781C12.4779968,16.546875,11.7969055,18.5,11.7969055,18.5
			s-0.5498047-0.5757141-0.5445251-0.5849915l0.4654236-2.0600281L12.4468079,16.5175781L12.4468079,16.5175781z"/>
		<path class="st2" d="M11.2383118,17.9794617l-0.2183228-0.058075c0.0357056-0.1362,0.0718079-0.2842102,0.0888977-0.4434204
			L11.1138,17.4550781c0.0331726-0.101593,0.0546875-0.1821899,0.0765991-0.2651978
			c0.016571-0.0639038,0.0341797-0.1293945,0.0567017-0.2059937c0.0223999-0.1376953,0.0585938-0.300293,0.1073914-0.4844055
			c0.0336914-0.0947266,0.0663757-0.3182983,0.0907898-0.4814148c0.0117188-0.0810852,0.0224915-0.1524048,0.0308228-0.1962891
			c-0.0049133-0.0967102-0.0357056-0.2426758-0.0454102-0.2704773l0.2075195-0.0889282
			c0.0214539,0.0473938,0.0609741,0.2456055,0.0643921,0.3657227v0.0131836l-0.0024109,0.0132141
			c-0.0083008,0.039093-0.0190125,0.1117859-0.031311,0.1967773c-0.0283203,0.1914368-0.0605164,0.4082336-0.0986023,0.5151062
			c-0.0444031,0.1685181-0.0791016,0.324707-0.1034851,0.468811c-0.0249023,0.0873718-0.0420227,0.1508179-0.0581055,0.2127991
			c-0.0220032,0.0834961-0.0435181,0.1651001-0.0762024,0.2662048
			C11.3129883,17.6835632,11.2758789,17.8378906,11.2383118,17.9794617L11.2383118,17.9794617z M11.9242859,18.9291992
			l-0.2167969-0.0640259c0.0444946-0.1507874,0.0894165-0.3148804,0.1156921-0.4916687l0.0054321-0.0205078
			c0.0390625-0.1123047,0.0653687-0.2015991,0.0922852-0.2934265c0.0205078-0.0707703,0.0415039-0.1430969,0.0692749-0.2275696
			c0.0303345-0.1523132,0.0762024-0.3310242,0.1358337-0.5351257c0.0531921-0.1405945,0.1644897-0.6044922,0.2124023-0.8027954
			l0.0184631-0.0761108l0.2193298,0.0537109l-0.0180969,0.0751953c-0.0527039,0.219696-0.1625977,0.6762085-0.2183228,0.8222046
			c-0.0550842,0.1895142-0.0990906,0.3623047-0.1312866,0.5205078c-0.030304,0.0942688-0.0508118,0.1645813-0.0708008,0.2333984
			c-0.0273132,0.092804-0.0537109,0.1827087-0.0922852,0.2950134C12.0166016,18.6039734,11.9701843,18.773407,11.9242859,18.9291992
			L11.9242859,18.9291992z"/>
		<path class="st2" d="M22.7226868,18.6225586l-0.1954041-0.0419617c0.1435852-0.6651001,0.0097961-1.9947205-0.7368164-2.8666992
			l0.1524048-0.1299133C22.6605835,16.4223633,22.9028015,17.7875671,22.7226868,18.6225586L22.7226868,18.6225586z"/>
		<path class="st2" d="M18.7724915,20.4501648l0.0083008,0.004425L18.7724915,20.4501648L18.7724915,20.4501648z
			 M18.7720032,20.5673828c-0.0054016,0-0.0103149-0.0004883-0.0161133-0.0014954
			c-0.0708008-0.0097046-0.0870056-0.0762024-0.0932922-0.1044922c-0.0059204-0.0249023-0.0161133-0.0683289-0.0410156-0.1303101
			c-0.1054993-0.1528931-0.1401978-0.6275024,0.0127258-0.8950806c0.051178-0.1186218,0.1439819-0.3120117,0.2137756-0.434021
			c0.0170898-0.030304,0.042511-0.0533142,0.0645142-0.073822c0.0093079-0.0087891,0.023407-0.0214539,0.0272827-0.0272827
			l0.1729126,0.1000977c-0.0170898,0.0307007-0.042511,0.0536804-0.0645142,0.0741882
			c-0.0091858,0.0087891-0.023407,0.0215149-0.0272827,0.0269165c-0.0653992,0.1151733-0.1543274,0.3002014-0.2080078,0.4233093
			c-0.1275024,0.2250671-0.0762024,0.6317749-0.027771,0.6908875l0.016571,0.0274048
			c0.0340881,0.082489,0.047821,0.1405945,0.0551147,0.171814c-0.0024109-0.0073242-0.0278015-0.0410156-0.0727234-0.0473022
			l-0.0072937,0.0506897l0.1054077,0.0600891l0,0c-0.0018921,0.0028992-0.0039062,0.0064087-0.0057983,0.0097961
			l-0.0087891,0.015625h-0.0005188C18.8471985,20.5351868,18.8187866,20.5673828,18.7720032,20.5673828L18.7720032,20.5673828z"/>
		<path class="st2" d="M12.2157898,19.5160828l-0.1694031-0.1054993c0.0474243-0.0825195,0.0878906-0.1376953,0.1273804-0.190918
			c0.007843-0.0106812,0.0157166-0.0214539,0.0234985-0.032196l0.0664368-0.0976868
			c0.0492859-0.085907,0.1029968-0.1585999,0.1547852-0.2284851c0.0409851-0.0551147,0.0820007-0.110321,0.1210938-0.1737976
			c0.0522156-0.0684204,0.0952148-0.1367188,0.1376038-0.2041321c0.0455017-0.0717773,0.0904236-0.1425781,0.1373291-0.203064
			c0.032196-0.058136,0.0804749-0.120636,0.1273804-0.1807251c0.0444031-0.0570984,0.0863953-0.1112976,0.1190796-0.1688843
			c0.0337219-0.0572205,0.0737915-0.1138306,0.1148071-0.1719055c0.0438843-0.0625,0.0898132-0.1270142,0.1289062-0.1953125
			l0.0278015-0.0488892c0.0097961-0.0175171,0.019989-0.035614,0.031311-0.0516968l-0.0014954-0.0010071L13.3638,17.4628906
			c0.0004883-0.0005188,0.0004883-0.0005188,0.0004883-0.0005188l-0.0014954-0.0009766l0.0014954,0.0009766
			c0.0326843-0.0477905,0.0742188-0.0814819,0.1386108-0.0448914l0.0868835,0.0498047l-0.0390015,0.0682983l-0.0868835-0.0497742
			l0.0472717,0.0341797l0.0396118,0.0155945l-0.0727844,0.1269836c-0.0420227,0.0737305-0.0913086,0.144043-0.1386108,0.2114258
			c-0.0380859,0.0536804-0.0747986,0.1059875-0.1054993,0.1572876c-0.0391235,0.0682983-0.0874023,0.1307983-0.1343079,0.1908875
			c-0.0444031,0.0570984-0.0863953,0.1112976-0.1190796,0.1689148c-0.0513,0.0679016-0.0923157,0.1333008-0.1343079,0.1992188
			c-0.0458984,0.0727844-0.092804,0.1464844-0.1426086,0.210968c-0.0361023,0.0595093-0.0801086,0.1195984-0.1244812,0.1787109
			c-0.0508118,0.0688171-0.0986023,0.1338196-0.1440125,0.2134094c-0.0010071,0.000885-0.0014954,0.0018921-0.0020142,0.0028992
			v0.0004883c-0.0253906,0.0404968-0.0487976,0.0737-0.0718079,0.1054077L12.2157898,19.5160828L12.2157898,19.5160828z"/>
		<path class="st2" d="M10.5888672,17.1723633l-0.1948853-0.0469055c0.030304-0.1259766,0.0600891-0.2631836,0.0713196-0.4115906
			l0.0039062-0.0214844c0.0287781-0.0932922,0.0463562-0.167511,0.0649719-0.2442017
			c0.0141296-0.0595093,0.0288086-0.1206055,0.0487976-0.1918945c0.0166321-0.1274109,0.045929-0.2783203,0.0869141-0.449707
			c0.0297852-0.0877991,0.0536804-0.2958984,0.0712891-0.4477234c0.0087891-0.0756531,0.0166321-0.1410828,0.0230103-0.1816711
			c-0.0079041-0.0922241-0.0444946-0.230896-0.0546875-0.2568054l0.1796875-0.0868835
			c0.0204773,0.039978,0.0678101,0.2235718,0.075592,0.3417969l0.0010071,0.0121765l-0.0024109,0.012207
			c-0.006897,0.0361023-0.0141907,0.1034851-0.0234985,0.1820984c-0.0249023,0.2159119-0.0467834,0.3887024-0.0780945,0.4804993
			c-0.0365906,0.1557922-0.0649109,0.3007812-0.0834961,0.4346313c-0.0220032,0.0814514-0.0361023,0.1405945-0.0498047,0.1981812
			c-0.0184937,0.0772095-0.0365906,0.1524048-0.0643921,0.2450867
			C10.6509094,16.8978882,10.6200867,17.0409851,10.5888672,17.1723633L10.5888672,17.1723633z"/>
		<path class="st2" d="M12.5786133,20.4184875l-0.1245117-0.1567993l0.0224915-0.0175781
			c0.0443726-0.0346069,0.0731812-0.0571289,0.1108093-0.1108093l0.0185852-0.0200195
			c0.1210938-0.0986938,0.1889038-0.1596985,0.2705078-0.2412109c0.2562866-0.237793,0.5072937-0.3442688,0.657196-0.3657837
			l0.0126953-0.0014038l0.012207,0.0009766c0.0209961,0.0024109,0.0415039,0.0009155,0.0625,0
			c0.0961914-0.0043945,0.2284851-0.0107727,0.3925781,0.1699219l-0.1479797,0.1343079
			c-0.1005859-0.1109009-0.157196-0.1075134-0.2348022-0.1044922c-0.026886,0.0014038-0.0527954,0.0023804-0.0791016,0.0004883
			c-0.1171875,0.0200195-0.3233032,0.1123047-0.5366821,0.3099976c-0.0800171,0.0805969-0.1533203,0.1459961-0.2719116,0.2436829
			c-0.0513,0.0703125-0.0962219,0.1049194-0.1436157,0.1421204L12.5786133,20.4184875L12.5786133,20.4184875z"/>
		<path class="st2" d="M27.5150757,14.5639954c-0.031189-0.0776978-0.0462646-0.1426392-0.0609741-0.2056274
			c-0.0112-0.0487976-0.022522-0.0980835-0.042511-0.1557922c-0.0189819-0.1025085-0.0215149-0.1611023-0.0228882-0.1943054
			l0.0458679-0.0121765l-0.0610657-0.0352173l0,0c0.0009766-0.0018921,0.0024719-0.0043945,0.0038757-0.0068054l0.0102844-0.0185852
			l0.0005493,0.0004883c0.0228577-0.0355835,0.0595703-0.074707,0.1200867-0.0599976
			c0.0756836,0.0185242,0.0791016,0.0923157,0.0805969,0.1235046c0.000885,0.0288086,0.0028992,0.0791016,0.0155945,0.1532898
			c0.0184937,0.0493164,0.0317078,0.105011,0.0444031,0.1601868c0.0137024,0.058136,0.0263977,0.1133423,0.0522766,0.1767273
			L27.5150757,14.5639954L27.5150757,14.5639954z"/>
		<path class="st2" d="M25.3056946,18.5365906c-0.0625-0.0566101-0.1484985-0.1567078-0.2245789-0.2451172l-0.0835266-0.1034851
			c-0.0162048-0.0375977-0.0401001-0.0600891-0.0704041-0.0878906c-0.043396-0.0400391-0.0965881-0.0889282-0.1210022-0.1806946
			c-0.035675-0.0605164-0.0552063-0.1245117-0.0743103-0.1860352c-0.0160828-0.0517883-0.0307007-0.1010742-0.0550842-0.1494141
			l-0.0102844-0.0404663c-0.0019226-0.042511-0.0068054-0.0830994-0.0117188-0.1231079
			c-0.0072937-0.0620117-0.0151978-0.1259766-0.0131836-0.1987c-0.0083008-0.0899048-0.0244141-0.1758118-0.0394897-0.2588196
			c-0.0123291-0.0658875-0.0245361-0.1304016-0.0328369-0.1991882c-0.0506592-0.1708679-0.0228882-2.0961914,0.0357361-2.1991882
			L24.6918945,14.6138l0.0980835,0.0170593c-0.0184937,0.1464233-0.0853882,1.8862305-0.0253906,2.0932007
			c0.0112915,0.0805969,0.0224915,0.140625,0.0337219,0.2022095c0.016571,0.0878906,0.0331726,0.1787109,0.0429688,0.2900085
			c-0.0014954,0.0689087,0.0049133,0.1231079,0.012207,0.1801758c0.0043945,0.0386353,0.0093079,0.0771179,0.0116882,0.1177368
			c0.0259094,0.0565796,0.0430298,0.1112976,0.0581055,0.1600952c0.0180969,0.059082,0.0337219,0.1103821,0.0606079,0.1524048
			l0.0137024,0.0332031c0.0083008,0.0394897,0.0257874,0.0570984,0.0649109,0.0932007
			c0.0355835,0.0326843,0.0795898,0.0732727,0.1117859,0.140686l0.0585938,0.0673218
			c0.0684204,0.0795898,0.1538086,0.1786804,0.2070312,0.2270813L25.3056946,18.5365906L25.3056946,18.5365906z"/>
		<path class="st2" d="M23.1625977,19.8041687c-0.0386047-0.0141602-0.0830078-0.0443726-0.1577148-0.0966797
			c-0.0595703-0.0415039-0.1264954-0.0884094-0.1864929-0.1196289c-0.1806946-0.1083984-0.5395813-0.570282-0.5479126-0.8998718
			l0.2002258-0.0049133c0.0063782,0.2568054,0.327179,0.6592102,0.4457703,0.7304993
			c0.065918,0.0346069,0.1387329,0.0849304,0.2026062,0.1299133c0.0401306,0.0278015,0.0957031,0.0663757,0.112793,0.0731812
			L23.1625977,19.8041687L23.1625977,19.8041687z"/>
		<path class="st2" d="M14.5058899,20.4936829c-0.1054993,0-0.2138977-0.0162048-0.3115845-0.0615845
			c-0.1245117-0.0591125-0.2094116-0.1562195-0.253418-0.2900085c-0.0151062-0.0718079-0.0327148-0.1338196-0.0497742-0.1933899
			c-0.0293274-0.101532-0.0566101-0.1972351-0.0596313-0.2841187c-0.0361023-0.1372986-0.0205078-0.2734985-0.0068054-0.3936157
			l0.0083008-0.0800781c0.1431274-0.6216125,0.3452148-0.9248047,0.4424133-1.0703125
			c0.0176086-0.0259094,0.0317078-0.0473633,0.0420227-0.0649109l0.0721741-0.1269836l0.1739197,0.0991211l-0.0728149,0.1269836
			c-0.0116882,0.0209961-0.0282898,0.0458984-0.0487976,0.0771179c-0.0977173,0.1459961-0.2792969,0.4179688-0.4115906,0.9902954
			c-0.0005188,0.0140991-0.003418,0.0423889-0.0069275,0.0712891c-0.0126953,0.1107788-0.0257874,0.2254944,0.0039062,0.3286133
			l0.0039978,0.0272827c0,0.0635071,0.0253296,0.1508789,0.0517273,0.2442017
			c0.0185852,0.0648804,0.0380859,0.1318054,0.0513,0.1976929c0.0228577,0.0693054,0.0718079,0.125,0.1454773,0.1596985
			c0.1816101,0.0854187,0.4852905,0.023407,0.6343079-0.0351868c0.0882874-0.0434265,1.6922913-0.8974304,1.8021851-0.9804077
			l0.0230103-0.0131836c0.0444031-0.0181274,0.0868835-0.0430298,0.1322937-0.069397
			c0.0679321-0.0385132,0.1445007-0.0830078,0.243103-0.1191101c0.081604-0.0487976,0.1812134-0.0869141,0.269104-0.1201172
			c0.0513-0.0195923,0.0996094-0.0380859,0.1381836-0.0561829l0.0342407-0.0097046
			c0.0365906-0.0030212,0.0692749-0.0074158,0.1019592-0.0118103c0.0874023-0.0112,0.1777344-0.0229187,0.3042297-0.0087891
			c0.0326843-0.0014038,0.0766907-0.0009155,0.1190796,0c0.0757141,0.0014954,0.1412354,0.0029907,0.1958008-0.0083008
			l0.0162048-0.003418l0.0166016,0.002533c0.0980835,0.0126648,0.2445984,0.0249023,0.3480835,0.0292969l0.0200195,0.0023804
			c0.1376953,0.0283203,2.1289062,0.148407,2.4903259,0.0078125l0.0340576-0.0068054
			c0.1192017-0.0025024,0.2554016-0.0263977,0.4126282-0.0537109c0.0463867-0.0088196,0.0825806-0.0151978,0.1186829-0.0220032
			c0.1015015-0.0180969,0.2059937-0.0370789,0.3081055-0.0732117l0.0215149-0.0048828
			c0.0575867-0.0068665,0.144989-0.0575867,0.2216797-0.1026001c0.0570984-0.0331726,0.1166992-0.0672913,0.1727905-0.0903015
			c0.1196289-0.0419922,1.2407227-0.6357117,1.6557922-0.9892883c0.1557312-0.1463928,0.2851257-0.2661133,0.3769226-0.3504944
			c0.0844727-0.0782166,0.1357727-0.1255188,0.1474915-0.1376953l0.0610046,0.058075l0.1006165,0.0576172
			c-0.0101929,0.0176086-0.0101929,0.0176086-0.1733398,0.1688843c-0.0912781,0.0845032-0.2206726,0.2036133-0.3793945,0.3526306
			c-0.4272766,0.3641968-1.5678711,0.9745789-1.7187805,1.0272827c-0.0410156,0.0170898-0.0912781,0.0463867-0.1425781,0.0766907
			c-0.0942383,0.054718-0.1914368,0.1112976-0.2866211,0.1260071c-0.1137085,0.0394897-0.2236023,0.0589905-0.3301086,0.0780945
			c-0.0345764,0.0062866-0.0693054,0.0126953-0.1034851,0.0195007c-0.1738281,0.030304-0.3125,0.0541992-0.441925,0.0585938
			c-0.4530945,0.1538086-2.3661804,0.0253906-2.5770874-0.0028992c-0.1044922-0.0043945-0.2436829-0.0160828-0.3467102-0.0288086
			c-0.0708008,0.0122375-0.1444702,0.0107117-0.222168,0.0092163c-0.0395203-0.0009155-0.0805054-0.0019226-0.1240234-0.0009155
			c-0.1156921-0.0121765-0.1870117-0.0029907-0.269989,0.0083313c-0.0292969,0.0038757-0.0596008,0.007782-0.0922852,0.0106812
			c-0.0395203,0.0180969-0.0863953,0.0361023-0.1357117,0.0546875c-0.0834961,0.0317078-0.1777954,0.0679321-0.2456055,0.1094055
			l-0.0180969,0.0088196c-0.0868835,0.031189-0.1548157,0.070282-0.2201843,0.1079102
			c-0.0508118,0.0292969-0.0977173,0.0560608-0.1465149,0.0765686c-0.2035828,0.137207-1.8164062,0.9888-1.8305969,0.9956055
			C14.976593,20.4062805,14.7504883,20.4936829,14.5058899,20.4936829L14.5058899,20.4936829z"/>
		<path class="st2" d="M26.8534851,18.2587891l-0.1737976-0.0996094l0.203125-0.3560181
			c0.0585938-0.1019897,0.1191711-0.1898804,0.1772766-0.2743835c0.0278015-0.0404968,0.0560913-0.0809937,0.0838928-0.1235046
			c0.061615-0.0990906,0.1304016-0.1690063,0.1973267-0.2359009c0.034668-0.0350952,0.0697632-0.0708008,0.1054993-0.112793
			l0.0297852-0.0238953c0.0703125-0.0361023,0.1307983-0.0722961,0.1908875-0.1083984
			c0.0786133-0.0473022,0.1601257-0.0962219,0.2627258-0.1455078c0.1337891-0.0751953,0.2489929-0.1254883,0.4188843-0.1815796
			c0.0126953-0.0069275,0.0365906-0.0176086,0.0606079-0.0279236c0.0853882-0.0379944,0.152771-0.0678101,0.2090149-0.1346741
			l0.016571-0.0205078l0.0249023-0.0093384c0.0365906-0.0141602,0.0957031-0.0756531,0.1473999-0.1303711
			c0.032196-0.0337219,0.0650024-0.0679016,0.0982056-0.098114c0.0355835-0.0302734,0.0726929-0.0629883,0.1112976-0.0976868
			c0.0737-0.0658875,0.1499023-0.1338196,0.2201843-0.1865234c0.0361328-0.0419617,0.0615234-0.0727844,0.0762024-0.0912781
			c0.0620117-0.0762024,0.1162109-0.0635071,0.1513062-0.0396118c0.0332031,0.0224915,0.0629883,0.0650024,0.0254211,0.1407166
			l0.0004883,0.0003967l-0.0072937,0.0131836c-0.0004883,0.0005188-0.0004883,0.0010071-0.0010071,0.0014954l-0.0039062-0.0019836
			c-0.027771,0.0341797-0.0560913,0.0689087-0.0975952,0.1163025l-0.0157166,0.0145874
			c-0.066864,0.0498047-0.1434937,0.1187134-0.2153015,0.1821289c-0.039978,0.035675-0.0780945,0.0698853-0.1122742,0.0986938
			c-0.0269165,0.0244141-0.0562134,0.0555725-0.0849915,0.085907c-0.0654297,0.0683899-0.1274109,0.1333008-0.1963196,0.1679688
			c-0.0820007,0.0903015-0.1752014,0.1313171-0.2661133,0.1714172c-0.0213928,0.0097046-0.0438843,0.0195007-0.0668945,0.0306702
			c-0.1698914,0.0571289-0.2718811,0.1011047-0.4007874,0.1734314c-0.1011047,0.0487976-0.1763,0.0942078-0.2519836,0.1395874
			c-0.0585938,0.0352173-0.1177368,0.0703125-0.1846008,0.1054993c-0.0341187,0.0394897-0.0688171,0.074707-0.1025085,0.1088867
			c-0.0614929,0.0620422-0.1195984,0.120636-0.1704102,0.2026367c-0.0308228,0.0463867-0.0596008,0.0883789-0.0884094,0.1293945
			c-0.0585938,0.0854187-0.1138,0.1654968-0.1679993,0.2601929L26.8534851,18.2587891L26.8534851,18.2587891z"/>
		<path class="st2" d="M27.7436829,25.8432922c-0.0126953,0-0.0273743-0.0029907-0.0429993-0.0103149
			c-0.0845032-0.0385742-0.0527954-0.1264954-0.042511-0.155304c0.0078125-0.0213928,0.0195007-0.0541992,0.034729-0.0990906
			c0.0043945-0.1029968,0.0209961-0.2133789,0.0365906-0.3197937c0.0146179-0.0967102,0.0282898-0.1880188,0.031189-0.2637024
			c0.0391235-0.2020874,0.0728149-0.3847046,0.0801086-0.5581055l-0.0019226-0.1499023
			c-0.0009766-0.1528015-0.0019836-0.2969055-0.0204773-0.4482117c0.000885-0.1166687-0.0030212-0.222168-0.006897-0.3261719
			c-0.003418-0.0884094-0.0063171-0.1763-0.0063171-0.2612305c0.0028992-0.2001648-0.0087891-0.3461914-0.0396118-0.5054016
			c-0.0009766-0.1547852-0.0038757-0.3310547-0.0297852-0.4867859l-0.0028992-0.0171204l0.0028992-0.016571
			c0.0166016-0.0976868-0.0062866-0.1939087-0.0288086-0.2871094l-0.0062866-0.0273743
			c-0.0220032-0.0996094-0.0370789-0.1777344-0.0523071-0.2563477c-0.015564-0.082489-0.031189-0.1650696-0.0550842-0.2719727
			c-0.0126953-0.0477905-0.0249023-0.1044922-0.039093-0.1669922c-0.0171204-0.0762024-0.0355835-0.160614-0.0596313-0.2528992
			c-0.0101929-0.1094055-0.0453796-0.2290039-0.0760803-0.3349915c-0.0180969-0.0620117-0.0352173-0.120636-0.0463867-0.1699219
			c-0.0469055-0.1025085-0.0865173-0.2391968-0.1021118-0.352478l-0.0200195-0.045929
			c-0.0424805-0.0991821-0.0907898-0.210968-0.1078796-0.3222961c-0.0380859-0.0780945-0.0751953-0.1787109-0.1148071-0.2846985
			l-0.0360718-0.0961914c-0.0215149-0.0536804-0.0405273-0.1147156-0.0596313-0.1762085
			c-0.0204773-0.0658875-0.0409851-0.1322937-0.0663757-0.1908875c-0.0190125-0.0532837-0.0361023-0.097229-0.0527039-0.1401978
			c-0.0327148-0.0835266-0.0658875-0.1694336-0.0874023-0.2646179c-0.0317078-0.039093-0.0487976-0.0776672-0.0620117-0.1069641
			c-0.0054016-0.0127258-0.0108032-0.0244141-0.0170898-0.0351257l0.1708984-0.1044922
			c0.0106812,0.0184937,0.019989,0.0380859,0.0287781,0.0585938c0.0127258,0.0282898,0.022522,0.0508118,0.0430298,0.0713196
			l0.0209961,0.0209656l0.0053101,0.0298157c0.0180664,0.0883179,0.0497742,0.1708984,0.0839844,0.257782
			c0.0176086,0.0454102,0.035675,0.0918274,0.0523071,0.1405945c0.0253906,0.0571289,0.0483093,0.1304016,0.0712891,0.2036133
			c0.0174866,0.0562134,0.0346069,0.1123047,0.0550842,0.1631165l0.0371094,0.0996094
			c0.0401306,0.1073608,0.0776978,0.2089539,0.1133118,0.2778015l0.0103149,0.0336914
			c0.0106812,0.0888977,0.0555725,0.1933899,0.0956726,0.285675l0.032196,0.0863953
			c0.0142212,0.1152039,0.058136,0.2456055,0.0947266,0.3291016c0.016571,0.0644226,0.0322876,0.1182251,0.0493774,0.1758118
			c0.0335999,0.1152039,0.0716858,0.2450867,0.0810242,0.358429c0.0214844,0.0775757,0.0404663,0.1639709,0.058075,0.2416992
			c0.0131836,0.0604858,0.0254211,0.1151733,0.0380859,0.1639709c0.0254211,0.1123352,0.0415344,0.1968079,0.0576172,0.281311
			c0.0147095,0.0765991,0.0293274,0.1532898,0.050293,0.2494812l0.0064087,0.0253906
			c0.023407,0.0976257,0.0522156,0.2183228,0.0335999,0.3500977c0.0263977,0.1665344,0.0289001,0.3462219,0.0284119,0.485321
			c0.031189,0.151886,0.0444031,0.3150024,0.0415039,0.5254211c-0.0004883,0.0815735,0.0028992,0.1664734,0.0057983,0.2525024
			c0.0043945,0.1078796,0.0083008,0.2167969,0.0063782,0.3231812c0.0190125,0.1484985,0.0205078,0.2984009,0.0215149,0.4570007
			l0.0014038,0.1539001c-0.0078125,0.1932983-0.0444031,0.3919983-0.0815125,0.5791016
			c-0.0019836,0.0711975-0.0161133,0.1673889-0.031311,0.2695007c-0.0160828,0.1064148-0.032196,0.2157898-0.0355835,0.3125
			l-0.0049133,0.0273132c-0.0145874,0.0449829-0.0267944,0.0791016-0.0355835,0.1030884l0.0097046,0.0057983l-0.0151062,0.026886
			c-0.0020142,0.0028992-0.0039062,0.0072937-0.0068054,0.0116882l-0.006897,0.0122375h-0.0010071
			C27.8145142,25.8125,27.7855835,25.8432922,27.7436829,25.8432922L27.7436829,25.8432922z"/>
		<path class="st1" d="M27.746582,14.8207703c-0.1913757,0.3959961-0.6708984,0.9672852-0.6781921,0.980011l-0.4659119,0.8462219
			c-0.2080078,0.4647827-0.0912781,0.6571655-0.0116882,0.7963562c0.1646118,0.308136,0.1900024,0.4721375,0.3114929,0.706543
			c0.0391235,0.2890625-0.4829102,0.3690796-0.4902039,0.3818054c-1.0917969,0.3334656-1.6063843-0.703125-1.6107788-0.7553101
			c-0.1289062-0.5396423-0.1069946-0.6280212,0.2279663-0.7271423c0.3818359-0.0736694,0.5346985-0.0726624,0.7266235-0.2006836
			c0.3641968-0.2504883,0.6411133-1.0336914,0.648407-1.0467834c0.0072937-0.0126953,0.0678711-0.4473267,0.0678711-0.4473267
			c0.0346069-0.2095032-0.0575867-0.4052734,0.0625305-0.7348633c0.1522827-0.316925,0.2406921-0.401825,0.5775757-0.4165344
			C27.5517883,14.1781616,27.8822937,14.4940796,27.746582,14.8207703L27.746582,14.8207703L27.746582,14.8207703z"/>
		<path class="st2" d="M27.1591797,14.3017883c-0.0137024,0-0.0273743,0.0003967-0.0409851,0.000885
			c-0.2846985,0.012207-0.3492126,0.0596008-0.4937134,0.3603821c-0.0648804,0.1802063-0.0565796,0.3188171-0.0487976,0.453125
			c0.0048828,0.085907,0.0097046,0.1670227-0.0048828,0.2543945c-0.0629883,0.4517212-0.0679321,0.4605103-0.0801086,0.4815063
			c-0.1201172,0.3143921-0.3662109,0.8646851-0.6781921,1.0791016c-0.1685181,0.1117859-0.3096008,0.1362-0.5435181,0.1762085
			c-0.0643921,0.0112915-0.137207,0.0238953-0.2210999,0.0400696c-0.2421875,0.0722351-0.2744751,0.0820007-0.1490173,0.6054382
			c0.0030212,0.0102844,0.4541016,0.9926758,1.4776306,0.6850586c0.0135803-0.0058594,0.0302124-0.0097656,0.0487976-0.0146484
			c0.2518921-0.0664368,0.3793945-0.1484375,0.3789062-0.2451477c-0.0522156-0.1034851-0.0869141-0.1927795-0.1230164-0.2875671
			c-0.0450134-0.1167297-0.0914001-0.2373047-0.1783142-0.4003906c-0.0878906-0.1523438-0.2182007-0.378418,0.0083313-0.8842163
			l0.4697876-0.8536072c0.0018921-0.0033875,0.0140991-0.0205078,0.0361023-0.0473022
			c0.3158875-0.3930969,0.5308228-0.7045898,0.6382141-0.9248047c0.0482788-0.1196899,0.0087891-0.2153931-0.0337219-0.2748718
			C27.532196,14.3793945,27.3539734,14.3017883,27.1591797,14.3017883L27.1591797,14.3017883z M25.9945679,18.6967773
			c-0.2645569,0-0.5150757-0.0766907-0.7382812-0.2289734c-0.3652039-0.2490234-0.5493164-0.6177368-0.5545959-0.6836243
			c-0.1254883-0.5195923-0.1309204-0.7030945,0.2987976-0.8310852c0.0952148-0.0185242,0.1688843-0.0312195,0.2348938-0.042511
			c0.2215881-0.0379944,0.3334045-0.0576172,0.465332-0.144989c0.1937866-0.1338196,0.4139709-0.4912109,0.602478-0.980011
			c0.0025024-0.0057983,0.0043945-0.0107117,0.0058899-0.0151062c0.0078125-0.0386047,0.0386047-0.2450867,0.0643921-0.4296875
			c0.011322-0.0683289,0.0069275-0.1351929,0.002533-0.2128906c-0.0083008-0.1401062-0.0186157-0.3144226,0.0643921-0.542511
			c0.1679688-0.3496094,0.2866821-0.4658203,0.6674805-0.4824219c0.2803345-0.0150757,0.5400085,0.0942993,0.6767883,0.2866211
			c0.101532,0.1430664,0.120636,0.3096008,0.054718,0.4697876l-0.0025024,0.0053101
			c-0.1138,0.2344055-0.3373718,0.5591125-0.6639709,0.9653931l-0.0220032,0.0273132
			c-0.0054321,0.0108032-0.066925,0.1225891-0.4605408,0.8378906c-0.1810608,0.4047852-0.0892944,0.5644836-0.015564,0.6929016
			c0.0971985,0.1820984,0.1480103,0.3139038,0.1928711,0.430603c0.0365906,0.0947876,0.0708313,0.1841125,0.1235352,0.2851868
			l0.0102844,0.0327148c0.0444031,0.3280945-0.3779907,0.4413757-0.5220032,0.4790039l-0.0381165,0.0116882
			C26.2896118,18.6737976,26.1395874,18.6967773,25.9945679,18.6967773L25.9945679,18.6967773z"/>
		<path class="st1" d="M41.9960938,16.5272827c-0.0654297,0.0141907-0.6455078,0.3046875-0.6347961,0.3222961
			c0.0108032,0.0180969-0.469696,1.401886-0.4804077,1.3843079c-0.0108032-0.0180969-0.3984985-1.1835938-0.4346008-1.1626282
			c-0.0361023,0.0210266-1.2743835,0.191925-1.2919922,0.2021179C39.1356812,17.2841797,40.0625,16.0717773,40.0625,16.0717773
			l-0.1602173-1.2738953l1.0234985,0.3623047c0,0,1.0575867-0.8330994,1.0762024-0.843811
			c0.0175171-0.0101929-0.256897,1.1098938-0.256897,1.1098938l0.5614929,0.7279968
			C42.3065796,16.1542664,42.0106812,16.4706726,41.9960938,16.5272827L41.9960938,16.5272827L41.9960938,16.5272827z"/>
		<path class="st2" d="M40.454071,16.9535828l0.0292969,0.0238953c0.0596313,0.0220032,0.078125,0.0292969,0.4023132,0.9668274
			c0.1221008-0.3388367,0.3243103-0.9277344,0.3692017-1.0776062l-0.0058899-0.0093384l0.0205078-0.0487671
			c0.0351868-0.0811157,0.4970703-0.2896118,0.6542969-0.3574219c0.0292969-0.0458679,0.0957031-0.1323853,0.2520142-0.3032837
			l-0.5391235-0.6987l0.0117188-0.0469055c0.0605774-0.2494812,0.1464844-0.6040039,0.2011719-0.8408203
			c-0.2245789,0.1758118-0.5898132,0.4634094-0.8612976,0.6773071l-0.0439758,0.0341187l-0.922821-0.3265991l0.1445007,1.1537781
			l-0.0243835,0.0327148c-0.2432251,0.3183899-0.5771179,0.7559204-0.7627258,1.003418
			c0.0635376-0.0092163,0.1416016-0.0210266,0.2402039-0.0350952c0.2958984-0.0435181,0.7432251-0.109436,0.7940063-0.1236267
			L40.454071,16.9535828L40.454071,16.9535828z M40.8466797,18.3710938l-0.0517883-0.0855103
			c-0.007782-0.0131226-0.007782-0.0136108-0.0742188-0.2059937c-0.0722961-0.2099915-0.2499695-0.7246094-0.3231812-0.894989
			c-0.0966797,0.0170593-0.2998047,0.0482788-0.749115,0.1141968c-0.1893921,0.0278931-0.4022827,0.059082-0.4570007,0.0689087
			l-0.0575867,0.0341797l-0.0546875-0.0621033c-0.0254211-0.0288086-0.0400085-0.0453796,0.0253906-0.1507874L39.1034851,17.1875
			c0.0010071-0.0005188,0.0020142-0.0010376,0.0020142-0.0014954c0.0887756-0.1425171,0.3193054-0.4443359,0.8525085-1.1421204
			l-0.1748352-1.3945007l1.1240234,0.3980103c1.0204773-0.8033142,1.0361938-0.8125,1.0439758-0.816925l0.0576172-0.0336914
			l0.0536804,0.0394897c0.0645142,0.0488892,0.0654297,0.0493164-0.2089844,1.1670227l0.5849915,0.756897l-0.0585938,0.0625
			c-0.1239929,0.1328125-0.2705078,0.3002014-0.2910156,0.3397827l-0.015686,0.0596313L42.0176086,16.625
			c-0.0684204,0.0214539-0.4619446,0.2177734-0.5674438,0.2816772c-0.0214539,0.0894165-0.0839844,0.2695923-0.2226868,0.6699829
			c-0.2479858,0.7148132-0.2557678,0.7197266-0.2948914,0.7426453L40.8466797,18.3710938L40.8466797,18.3710938z"/>
		<path class="st3" d="M30.3529968,31.0644836c0.7603149,0.468689,5.137207,1.1025085,5.8207703,1.1835022
			c0.8604431-0.0996094,2.0733337-0.0214233,2.9893188,0.2548828c0.8778992,0.3526306,1.7637024,0.3154907,2.3467102-0.1434937
			c0.7958679-0.4541016,1.0712891-1.2051086,1.4179077-1.8779907c0.1298828-0.3540039,0.1269836-0.7265015-0.0312195-1.0327148
			c-0.2832031-0.6507874-0.1269836-0.8148804-0.1924133-1.1854858c0.9287109-2.151886,1.0703125-4.6367188,1.2607117-6.4771118
			c-0.055603-1.070282,0.0381165-1.8920898,0.1592102-2.2255859C44.625,18.7621765,45.375,18.4174805,45.7548828,18.2655945
			c1.405304-0.3916016,2.8105164-0.7836914,4.2157898-1.1753235c1.088913-0.4189148,0.3535309-1.1366882,0.1269989-1.0664062
			c-0.7353668-0.0883789-0.7265778-0.8661804-4.1406708,0.0220032c-0.7382202-0.0751953-1.4765015-0.1509094-2.2138062-0.2261047
			c0,0-0.436615-0.3295898-0.4804993-0.3036804c-1.1981812-0.1889954-1.3545227,0.5780945-1.273407,1.0351868
			c0.0625,0.3330078,0.125,0.6660156,0.1875,0.9989929c0,0-0.3916016,1.5132141-0.3652954,1.5561218
			c-1.0615234,1.230011-2.5917969,5.1362915-2.6777039,5.8823853c-0.032196,0.699707-0.3036804,0.5796204-0.2149048,1.2568054
			c0.0157166,0.5308228-0.055603,0.2012024,0.1514282,1.2900085c0.0517883,0.328186-0.3574219,0.3121033-0.5947266,0.2226868
			c-2.0312805-1.1879883-3.4657898-1.7304688-5.5801086-2.7738953L29.4888,26.9960938L30.3529968,31.0644836L30.3529968,31.0644836z
			"/>
		<path class="st2" d="M36.953064,32.0762024c0.7686157,0,1.6006165,0.1073914,2.2471008,0.3016968
			c0.8652344,0.3466797,1.6943359,0.3007812,2.2295227-0.1211243c0.6641235-0.3807983,0.9550781-0.9715881,1.2362976-1.5423889
			c0.0479126-0.0982056,0.0966797-0.1963196,0.1455078-0.292511c0.1162109-0.3173828,0.1073914-0.6469727-0.0302124-0.9135742
			c-0.2041931-0.467804-0.1972961-0.7085266-0.1914978-0.920929c0.0029907-0.0980835,0.0058899-0.1908875-0.0135803-0.3017883
			l-0.0069275-0.0379944l0.0157166-0.0357056c0.8104858-1.8789062,1.0175171-4.0317078,1.1835938-5.7612
			c0.0223999-0.230011,0.0439148-0.4536133,0.0653992-0.6679993c-0.0556946-1.092804,0.0439148-1.925293,0.1679993-2.2666016
			l0.0126038-0.0243835c0.3760071-0.6011047,0.929718-1.0420227,1.6915283-1.3467102l4.2293701-1.179718
			c0.1962891-0.0760803,0.5361938-0.25,0.4785919-0.5140991c-0.0401001-0.1821899-0.2255859-0.3022766-0.2802734-0.3022766
			c-0.0010071,0-0.0010071,0-0.0020294,0l-0.0262756,0.0082703l-0.0225067-0.0043945
			c-0.1982269-0.0238953-0.3456879-0.0913086-0.5009918-0.1625977c-0.4424133-0.2026062-1.047821-0.4798889-3.5927124,0.1817017
			l-0.0224915,0.0057983l-2.273407-0.2323914l-0.0292969-0.0220032c-0.1503906-0.1137085-0.3399048-0.2445984-0.406311-0.2763062
			l-0.0155945-0.0025024c-0.4443054-0.0697937-0.7666016-0.0087891-0.9541016,0.1826172
			c-0.2323914,0.2363892-0.1894836,0.5966797-0.1708984,0.7012024l0.1932983,1.0263672l-0.0078125,0.0283203
			c-0.1611023,0.6221008-0.3338928,1.324707-0.3592834,1.4902039l0.0282898,0.0464172l-0.0614929,0.0717773
			c-1.0429993,1.207489-2.5606079,5.0614929-2.6474915,5.8120117c-0.0147095,0.3354797-0.0879211,0.5028992-0.1465149,0.6376953
			c-0.0653992,0.1484985-0.1123047,0.2558899-0.0682983,0.5878906c0.0048218,0.1504211,0.0028992,0.2314148,0.0019226,0.2939148
			c-0.0028992,0.1669922-0.0039062,0.1885071,0.1483765,0.9888c0.030304,0.1918945-0.0566101,0.2944946-0.1112976,0.3388977
			c-0.1846008,0.1493835-0.5,0.0888977-0.657196,0.0292969l-0.0195007-0.0093079
			c-1.3466797-0.7875977-2.454071-1.3017883-3.6270142-1.8461914c-0.5897827-0.273407-1.1991882-0.5560913-1.8818054-0.8926086
			l-3.2660522,1.9287109l0.832489,3.9200134c0.8270874,0.4345093,4.8426819,1.0321655,5.7069702,1.1366882
			C36.4188843,32.0888672,36.6815796,32.0762024,36.953064,32.0762024L36.953064,32.0762024z M40.3153992,32.8700867
			c-0.3799133,0-0.7890015-0.0810242-1.2011108-0.2471008c-0.8370056-0.250885-2.0176086-0.3515015-2.9248047-0.2460022
			l-0.0157166,0.0018921l-0.015564-0.0018921c-0.5770874-0.0684204-5.0752258-0.710022-5.8735046-1.2012024l-0.0473938-0.0292969
			l-0.8955383-4.2149048l3.547821-2.094696l0.0635071,0.0308228c0.7061157,0.3485718,1.3330078,0.6395874,1.9395142,0.9208679
			c1.1757812,0.5458984,2.2860718,1.0614929,3.6387024,1.851532c0.1493835,0.0536804,0.3299866,0.058075,0.391571,0.0087891
			c0.007782-0.0068054,0.0302124-0.0244141,0.0195007-0.0927124c-0.1524048-0.7998962-0.1562805-0.8409119-0.1524048-1.0381165
			c0.0010071-0.0600891,0.0029907-0.1371765-0.000885-0.2685852c-0.0518188-0.3900757,0.0166016-0.5469055,0.0887756-0.7124023
			c0.054718-0.1268921,0.1123352-0.2583008,0.1260071-0.5546875c0.0889282-0.7720032,1.617218-4.6621094,2.6835938-5.9306335
			c0.0176086-0.1508789,0.1006165-0.5175781,0.3564148-1.5058899l-0.1825867-0.9706726
			c-0.0244141-0.137207-0.0780945-0.605011,0.2412109-0.9302063c0.2441711-0.2495117,0.6298828-0.3379211,1.1464539-0.2627258
			c0.0615234-0.0096741,0.179718,0.0391235,0.5430298,0.3115234l2.1552734,0.2207947
			c2.6142273-0.6777954,3.2666016-0.3789978,3.7431335-0.1607056c0.1357727,0.0625,0.2549133,0.1166992,0.4023895,0.1381836
			c0.195282-0.0307922,0.4668121,0.1777344,0.5566101,0.4365234c0.0585938,0.1694031,0.1151886,0.5957031-0.6318207,0.882782
			L45.789978,18.390564c-0.6903687,0.2774048-1.2010803,0.6802063-1.5477905,1.2271423
			c-0.1104126,0.316864-0.2022095,1.120575-0.1474915,2.1615601v0.0098267l-0.0009155,0.0101929
			c-0.0224915,0.2167969-0.0440063,0.4428711-0.0664978,0.6763c-0.1668701,1.7373047-0.3739929,3.8965149-1.1884155,5.8041992
			c0.0166321,0.1191101,0.0136414,0.2187195,0.0107422,0.3153992c-0.0057983,0.2026978-0.0107422,0.3945007,0.1659851,0.8018188
			c0.1679993,0.3241882,0.1817017,0.7279968,0.0341797,1.1293945c-0.0556946,0.1092834-0.1034851,0.2059937-0.1503906,0.3026733
			c-0.2987976,0.6064148-0.6073914,1.2333984-1.3251953,1.6435852
			C41.2412109,32.7353821,40.8026733,32.8700867,40.3153992,32.8700867L40.3153992,32.8700867z"/>
		<path class="st1" d="M47.2255859,17.7353821c-0.0409851,0.0117188-1.4208984-1.5458984-1.4208984-1.5458984
			s0.781189-0.1802063,0.7861023-0.1714172l1.5829773,1.4281921L47.2255859,17.7353821L47.2255859,17.7353821z"/>
		<path class="st2" d="M48.5585938,17.5766602c-0.0517883-0.0053711-0.2460938-0.0703735-0.3534851-0.1279907l-0.0205078-0.0145874
			c-0.030304-0.0263977-0.0889282-0.0718079-0.1573181-0.125c-0.1473694-0.1138-0.3299866-0.2559204-0.4051819-0.3418274
			c-0.1270142-0.1230774-0.2481384-0.230957-0.3623352-0.3232727c-0.0644836-0.0653992-0.1113892-0.1112976-0.1581726-0.156189
			c-0.0625-0.0606079-0.1231079-0.1196289-0.1963196-0.1978149c-0.140686-0.1025085-0.256897-0.210907-0.3622742-0.313385
			l0.1571655-0.1621094c0.1016235,0.0986023,0.2139282,0.2030945,0.3467407,0.2987976l0.016571,0.0151062
			c0.0732117,0.0785828,0.1338196,0.1371765,0.1953125,0.1967773c0.0477905,0.0469055,0.0975952,0.0947266,0.1532898,0.1523132
			c0.1094055,0.0874023,0.2354126,0.199707,0.3740234,0.3339844c0.0663757,0.0767212,0.2470703,0.2168274,0.3788757,0.3189392
			c0.0664062,0.051178,0.1231079,0.0956726,0.1573181,0.1244812c0.0887756,0.0448914,0.2342834,0.0917969,0.2626953,0.0976257
			L48.5585938,17.5766602L48.5585938,17.5766602z M47.2030945,17.8710632l-0.054718-0.0507812
			c-0.2547913-0.2368164-0.5282898-0.4931946-0.6170959-0.5996094c-0.139679-0.141571-0.2695923-0.2655945-0.3936157-0.3729858
			c-0.0683594-0.0733032-0.1200867-0.1260071-0.1708679-0.1778259c-0.0674133-0.0692749-0.1338196-0.1366882-0.2129211-0.2255859
			c-0.1483765-0.1166992-0.2753906-0.2411804-0.390564-0.3588867l0.1620789-0.1576843
			c0.1112976,0.1137695,0.234375,0.234375,0.3760071,0.3447876l0.0145874,0.0140991
			c0.0791016,0.0898743,0.1445007,0.1562805,0.2119141,0.2250671c0.0527954,0.0532227,0.1054993,0.1079102,0.1669922,0.1738281
			c0.1192017,0.1030884,0.2539062,0.2309875,0.4032898,0.3833008c0.0977173,0.1166992,0.4522095,0.4454041,0.6036072,0.5859985
			l0.055603,0.0513L47.2030945,17.8710632L47.2030945,17.8710632z"/>
		<path class="st2" d="M42.789978,26.3314819c-0.968689,0-2.000885-0.4160156-2.546814-0.8994141l0.1318054-0.1498718
			c0.5155945,0.4560852,1.7549133,1.0082703,2.8965149,0.8095703l0.0342102,0.1968384
			C43.1376648,26.3179016,42.9647827,26.3314819,42.789978,26.3314819L42.789978,26.3314819z"/>
		<path class="st2" d="M41.7118835,22.1693726c-0.0175781-0.0297852-0.0263977-0.0629883-0.0332031-0.0927124
			c-0.0028992-0.0117493-0.0067749-0.0302734-0.0097961-0.035675c-0.0693054-0.1146851-0.188385-0.2832031-0.2695007-0.3896179
			c-0.1356812-0.2236633-0.523407-0.3813782-0.5975952-0.370575l-0.014679,0.0023804l-0.0166321-0.0018921
			c-0.0897827-0.0122986-0.1474915-0.0298157-0.1787109-0.039093l0.0049438-0.0523071l-0.0713196,0.0435181v-0.0005188
			c-0.0019836-0.0023804-0.0028992-0.0054016-0.0048828-0.0083008l-0.0107422-0.0170898l0.0009155-0.0004883
			c-0.0194702-0.0356445-0.0350952-0.0815125,0-0.1274109c0.0450134-0.0570984,0.1104126-0.0375977,0.1387024-0.0288086
			c0.0253906,0.0072937,0.0683899,0.0205078,0.1358032,0.0307007c0.1903992-0.0155945,0.6201172,0.1938782,0.7792969,0.4575806
			c0.0791016,0.1020203,0.2020874,0.277832,0.2763062,0.3994141c0.0176086,0.0297852,0.0253906,0.0629883,0.032196,0.0918274
			c0.0029907,0.0121765,0.0079041,0.0306702,0.0108032,0.0365906L41.7118835,22.1693726L41.7118835,22.1693726z"/>
		<path class="st2" d="M45.8203125,18.2353821l-0.1162415-0.1929016c-0.0438843-0.0727844-0.0810852-0.1494141-0.1171875-0.2241211
			c-0.0282898-0.059082-0.055603-0.1166687-0.0858765-0.1684875c-0.0410156-0.0673828-0.0713196-0.1395874-0.1016235-0.2099915
			c-0.0272827-0.0663757-0.0546875-0.1293945-0.0888977-0.1860046c-0.0341187-0.0780945-0.0711975-0.1459961-0.1083984-0.2142944
			c-0.0409851-0.0757141-0.0830078-0.1524048-0.1141968-0.2270813c-0.0351868-0.0605164-0.0653992-0.1274109-0.0957031-0.1947937
			c-0.0352173-0.078125-0.0683899-0.1514282-0.1162109-0.230011c0-0.0010071-0.0010071-0.0024109-0.0019836-0.003418l0,0
			c-0.0223999-0.0415039-0.0400085-0.0780945-0.0566101-0.1133118l-0.1161804-0.2313843l0.1747742-0.0967102
			c0.0498047,0.0815125,0.0771179,0.1440125,0.1044922,0.2041016c0.0057983,0.012207,0.0107422,0.0244141,0.0166321,0.0371094
			l0.0527039,0.1044922c0.0517883,0.0848999,0.0888672,0.1669922,0.1249695,0.2466125
			c0.0273132,0.0625,0.0557251,0.1244812,0.0918274,0.1898804c0.0341797,0.0780945,0.0731812,0.1489258,0.1112976,0.2187195
			c0.0401001,0.0742798,0.0800781,0.1484985,0.1103821,0.2192993c0.0350952,0.0560913,0.0664062,0.1289062,0.0957031,0.1987
			c0.0283203,0.0663757,0.054718,0.1293945,0.0888977,0.1860962c0.0340881,0.0575867,0.063385,0.1201172,0.0947266,0.184021
			c0.0331726,0.0688782,0.0673828,0.1401672,0.1073914,0.2070923l0.0458679,0.0751953
			c0.0039062,0.0068054,0.0088196,0.0150757,0.0137329,0.0253906l0.000885-0.0004883l-0.000885,0.0004883l0,0h0.000885
			l0.014679,0.0243835l-0.0038757,0.0024109c0.0126953,0.0375977,0.0137024,0.0840149-0.0400085,0.117218L45.8203125,18.2353821
			L45.8203125,18.2353821z"/>
		<path class="st2" d="M49.4862671,17.2538757c-0.0448608-0.0028992-0.2294617-0.0537109-0.3378601-0.1064148l-0.0205078-0.0131836
			c-0.0283203-0.0234985-0.0830078-0.0639954-0.148407-0.1109009c-0.1777039-0.1293945-0.3184204-0.2342834-0.3838196-0.3070984
			c-0.1190796-0.1098938-0.2333984-0.2065125-0.3407593-0.289093c-0.0615234-0.059021-0.1055298-0.1004944-0.1494141-0.1411133
			c-0.0596008-0.0546875-0.1162109-0.1073914-0.1846008-0.1781921c-0.1328125-0.0898132-0.2431946-0.1880188-0.342804-0.280304
			l0.1357727-0.1468811c0.0957336,0.0892944,0.2021179,0.183075,0.3271179,0.2670898l0.0166016,0.0140991
			c0.0684204,0.0712891,0.125,0.1235046,0.1835938,0.1773071c0.0448914,0.0423889,0.0917969,0.0848999,0.1445007,0.1376953
			c0.1036072,0.0780945,0.2216797,0.1786804,0.3526306,0.2992859c0.0624695,0.0693054,0.234375,0.1943054,0.359375,0.2855835
			c0.0625,0.0449219,0.1161804,0.0845337,0.148407,0.1104431c0.085907,0.0394897,0.2275085,0.0785828,0.2558899,0.082489
			L49.4862671,17.2538757L49.4862671,17.2538757z"/>
		<path class="st2" d="M43.6591797,17.4887695l-0.0401001-0.1957703c0.1484985-0.0303345,0.1739197-0.0791016,0.2090149-0.1470337
			c0.0126953-0.0229797,0.0243835-0.0458984,0.039093-0.0673828c0.0400085-0.1094055,0.0614929-0.3296204-0.0059204-0.6094055
			c-0.031189-0.1098022-0.0516663-0.2045898-0.0780945-0.3535156c-0.0361023-0.0785828-0.0448914-0.1346741-0.0536804-0.1937561
			l-0.0039062-0.0259399l0.1972961-0.0317078l0.0039062,0.0278015c0.0086975,0.054718,0.0135803,0.0908203,0.0428772,0.1499329
			l0.007843,0.0263977c0.0263977,0.1507874,0.0458679,0.2391968,0.077179,0.3500977
			c0.0820007,0.3382874,0.0508118,0.6064148-0.0059204,0.7450867l-0.0126648,0.0224304
			c-0.0117188,0.016571-0.0205078,0.034668-0.0302124,0.0527954C43.9608765,17.3237,43.9003906,17.4398804,43.6591797,17.4887695
			L43.6591797,17.4887695z"/>
		<path class="st2" d="M41.9628906,31.9130554c-0.0322266,0-0.0606079-0.0146484-0.0772095-0.023468
			c-0.0262756-0.0136108-0.0722046-0.0371094-0.1434937-0.0634155c-0.0526733-0.0087891-0.1083984-0.0253906-0.1631165-0.0419922
			c-0.0585938-0.0176086-0.1132812-0.0351868-0.1825867-0.0448914l0.0293274-0.1983032
			c0.0839844,0.0126953,0.1483765,0.032196,0.211853,0.0518188c0.047821,0.0145874,0.0977173,0.0292969,0.1582031,0.0409851
			c0.0986328,0.0350952,0.1514282,0.0624695,0.1816101,0.0780945l-0.0116882,0.0448914l0.0585938-0.0361023l0.0010071,0.0010071
			c0.0010071,0.0010071,0.0010071,0.0018921,0.0018921,0.0038757l0.0126953,0.0195312l-0.000885,0.0009766
			c0.0204773,0.0371094,0.0379944,0.0878906-0.0049133,0.1347961
			C42.0106812,31.9052734,41.9862671,31.9130554,41.9628906,31.9130554L41.9628906,31.9130554z"/>
		<path class="st2" d="M42.727478,29.1908875c-0.1201172-0.0892944-1.6190796-1.0175781-1.8329773-1.0703125
			c-0.0761108-0.0307922-0.1347046-0.0512695-0.1953125-0.0726929c-0.0848999-0.0298157-0.1727905-0.0610962-0.2753906-0.1083984
			c-0.0605164-0.0357056-0.1112976-0.0571899-0.1660156-0.0801086c-0.0360718-0.0155945-0.0722961-0.0307922-0.109375-0.0493164
			c-0.0625305-0.0058899-0.1191406-0.0190735-0.1699219-0.0307922c-0.0614929-0.0137024-0.1171875-0.0258789-0.1660156-0.0243835
			l-0.0176086,0.0004883l-0.0175781-0.0054016c-0.0400085-0.0131836-0.0643921-0.0067749-0.1161804,0.0083008
			c-0.0458984,0.0142212-0.1035156,0.0317078-0.1787109,0.0249023l-0.0907898,0.0166016
			c-0.1035156,0.0181274-0.2333984,0.0410156-0.3018188,0.0620117l-0.0585022-0.190918
			c0.0800171-0.0249023,0.2098999-0.0478821,0.3251038-0.0683899l0.1182251-0.0213928l0.015564,0.0018921
			c0.0420227,0.0054016,0.0743103-0.0043945,0.1143188-0.0161133c0.0566101-0.0170898,0.125-0.0375671,0.217804-0.0121765l0,0
			c0.0713196,0,0.1366882,0.0151062,0.2010803,0.0297852c0.0537109,0.0126953,0.1045227,0.0244141,0.1592102,0.0278015
			l0.0391235,0.0112c0.0380859,0.0195923,0.0762024,0.0357056,0.1141968,0.0513
			c0.0585938,0.0249023,0.1191711,0.050293,0.1817017,0.0889282c0.0839844,0.0375671,0.1669922,0.0673828,0.2479858,0.0956726
			c0.0644836,0.0224304,0.1270142,0.0444031,0.1914062,0.0722351c0.1777954,0.0424805,1.8583679,1.0297852,1.9190063,1.1308594
			l-0.0860291,0.0513L42.727478,29.1908875L42.727478,29.1908875z"/>
		<path class="st2" d="M39.109375,25.3666687l-0.1249695-0.1552734c0.0311584-0.0259094,0.0801086-0.0483398,0.1630859-0.085907
			c0.0664062-0.0298157,0.1416016-0.0635071,0.1991882-0.0986328c0.1855164-0.0996704,0.7695312-0.1738586,1.0625305-0.0161438
			l-0.093811,0.1757812c-0.2304077-0.1235046-0.7470093-0.0522156-0.8700867,0.0137024
			c-0.0635376,0.0385742-0.1435242,0.0751953-0.2148132,0.1073914C39.1854858,25.328064,39.1239624,25.3554993,39.109375,25.3666687
			L39.109375,25.3666687z"/>
		<path class="st2" d="M40.5106812,27.9423828C40.5,27.9247742,40.5,27.9247742,40.4472961,27.7050781
			c-0.0284119-0.1200867-0.0694275-0.2880859-0.1202087-0.4950867c-0.1074219-0.5474243-0.0760803-1.8242798-0.0467834-1.9790039
			c0.0048828-0.0430298,0.0038757-0.1001282,0.0038757-0.1587219c-0.0019836-0.1078796-0.0028992-0.2192688,0.0312195-0.3085632
			c0.0224915-0.1167297,0.0605774-0.2207336,0.0967102-0.3208008c0.0116882-0.0327454,0.0233765-0.0655212,0.0341797-0.0977173
			l0.0068054-0.0190125c0.0546875-0.1469727,0.1026001-0.2749023,0.1620789-0.3866882
			c0.0918274-0.4644165,1.1573181-2.0249023,1.2901306-2.1933899c0.0555725-0.085907,0.1346741-0.1987,0.1981812-0.280304
			c0.0244141-0.0664062,0.0625-0.1283875,0.1026001-0.1938171c0.0205078-0.0332031,0.0419006-0.0678711,0.0625-0.1054993
			c0.0682983-0.0922852,0.0957031-0.1577148,0.1278992-0.2328796c0.0107117-0.0273132,0.0223999-0.054718,0.0361023-0.0840149
			c0.0039062-0.0424805,0.0117188-0.0913086,0.0195007-0.1425781c0.0137024-0.0869141,0.0284119-0.1845398,0.0263977-0.2627258
			l-0.0009766-0.0106812l0.0019836-0.0103149c0.0155945-0.0888062,0.0155945-0.1665039,0.0145874-0.2412109
			c0-0.0575867,0-0.1108093,0.0059204-0.1625977c-0.0195007-0.2445984,0.0351868-2.0419922,0.0361023-2.0575867
			c0.0038757-0.0272827,0.0742798-0.493103,0.3652954-0.6958008c0.1152039-0.0800781,0.2450867-0.105896,0.3866882-0.0751953
			c0.0703125,0.0230103,0.1337891,0.039093,0.195282,0.0541992c0.1035156,0.0259094,0.2012329,0.0508118,0.2793274,0.0913086
			c0.1387024,0.0375671,0.25,0.1192017,0.3496094,0.1908875l0.0663757,0.0473938
			c0.4756165,0.4326172,0.6416016,0.7564087,0.7207031,0.9121094c0.0147095,0.0278015,0.0263977,0.0507812,0.0361023,0.0679016
			l0.0762024,0.1255188l-0.1708984,0.1034546l-0.0762024-0.1254883c-0.0126038-0.0204773-0.0263062-0.0473633-0.0428772-0.0801086
			c-0.0801086-0.156189-0.2285156-0.4471741-0.6670227-0.8470764c-0.0126953-0.0073853-0.0360718-0.0245056-0.0606079-0.0415039
			c-0.0917969-0.0668945-0.1864929-0.1358032-0.2928772-0.1622009l-0.0244141-0.0097046
			c-0.0567017-0.0317688-0.1465149-0.0546875-0.2421875-0.0786133c-0.0664062-0.016571-0.1348267-0.0336914-0.1992188-0.0556946
			c-0.0751953-0.0150757-0.1513977-0.0009766-0.2197876,0.0469055c-0.1826172,0.1274109-0.2646179,0.4418945-0.2801819,0.5527039
			c-0.0059204,0.0961914-0.0547485,1.8882141-0.0362244,2.0244141l0.0019836,0.0131836l-0.0019836,0.0137024
			c-0.0057983,0.0464172-0.0048828,0.094696-0.0048828,0.1465149c0.0009766,0.0770874,0.0009766,0.1644897-0.015625,0.2674866
			c0.0010071,0.093811-0.0145874,0.1978149-0.0292969,0.2895813c-0.007782,0.0532227-0.0155945,0.1030273-0.0184937,0.1450195
			l-0.0097961,0.0357056c-0.0155945,0.0326843-0.0283203,0.0628967-0.0400085,0.0921936
			c-0.0341797,0.0805969-0.069397,0.1636047-0.1445923,0.264679c-0.0145874,0.0283203-0.0380859,0.0654297-0.0595093,0.1011047
			c-0.039093,0.0634155-0.0733032,0.1186218-0.0898743,0.1698914l-0.0166321,0.0293274
			c-0.0604858,0.0780945-0.1444702,0.1968079-0.1991882,0.2817078l-0.0126953,0.016571
			c-0.093811,0.1031189-1.1923828,1.7378235-1.2489929,2.1138306l-0.0117188,0.0341797
			c-0.0556946,0.1015015-0.1026001,0.2275085-0.156311,0.3735046c-0.016571,0.0479126-0.0292969,0.081604-0.0419617,0.1152039
			c-0.0342407,0.0957031-0.0703125,0.194397-0.0889282,0.2993774l-0.0068054,0.0214233
			c-0.0224915,0.0517883-0.0214844,0.1509094-0.0205078,0.2383118c0.0010376,0.0654907,0.0020447,0.1333008-0.0058899,0.1928711
			c-0.023407,0.1226196-0.0594788,1.3730164,0.0450134,1.9042969c0.0498047,0.2026367,0.0907898,0.3711243,0.1190796,0.4912109
			c0.0273132,0.1138,0.0439148,0.1831055,0.0488281,0.1992188l-0.0800171,0.0249023L40.5106812,27.9423828L40.5106812,27.9423828z"
			/>
		<path class="st2" d="M39.351593,32.6142883c-0.0284119,0-0.0596008-0.0137024-0.0899048-0.0577087h-0.0010071
			l-0.0047913-0.0086975c-0.0009766-0.0020142-0.0020142-0.0029907-0.0030212-0.0049133l-0.0067749-0.0097961l0.0059204-0.0039062
			c-0.0147095-0.0370789-0.0303345-0.0762024-0.0499268-0.1308899l-0.0048218-0.0213928
			c-0.0107727-0.0810852-0.0322876-0.1806946-0.0527954-0.2724915c-0.0116882-0.0527039-0.0223694-0.1025085-0.031189-0.1465149
			c-0.007782-0.0350952-0.0204773-0.0751953-0.0332031-0.1152039c-0.0273743-0.0899048-0.0536804-0.1748047-0.0498047-0.2510071
			c-0.0390625-0.1161804-0.0282898-0.2167969-0.0185852-0.3144836c0.0028992-0.0223999,0.0049133-0.046814,0.006897-0.0711975
			c0.0341187-0.1739197,0.0467834-0.2828064,0.0467834-0.4277954c0.0078125-0.1094055,0.0059204-0.1943054,0.0030212-0.2842102
			c-0.0020142-0.0672913-0.0030212-0.1352234-0.0009766-0.2098999c-0.0176086-0.0487976-0.0313416-0.0957031-0.0440063-0.1416016
			c-0.0244141-0.0834961-0.046814-0.1621094-0.0937195-0.2466125c-0.0254211-0.0487976-0.0478821-0.0941772-0.070282-0.1391602
			c-0.0449219-0.0927124-0.0879211-0.1801453-0.1446228-0.2739258l-0.2127686-0.351593l0.1708679-0.1034851v0.0004883
			l0.2127991,0.3511047c0.0606079,0.1011047,0.1083984,0.1967773,0.1534119,0.289093
			c0.0213928,0.0438843,0.0429077,0.0877991,0.0664062,0.1328125c0.0565796,0.1019897,0.0839844,0.195282,0.1102905,0.2855835
			c0.0126953,0.0473938,0.0274048,0.0952148,0.0458984,0.1465149l0.006897,0.0185852l-0.0010071,0.019989
			c-0.0029907,0.0780945-0.0009766,0.1479187,0.0010071,0.2172852c0.0018921,0.090332,0.0047913,0.184021-0.0029907,0.295929
			c-0.0010071,0.1513062-0.0135803,0.2744141-0.0498047,0.4481812c0,0.0137329-0.0028992,0.0400085-0.0048828,0.0645142
			c-0.0097046,0.0917053-0.0166321,0.1640015,0.014679,0.2451172l0.0088196,0.024353l-0.0039062,0.0273132
			c-0.0059204,0.0371399,0.0204773,0.1211243,0.0409851,0.1895142c0.0137024,0.0439148,0.0273132,0.0888062,0.0381165,0.1318054
			c0.0087891,0.046875,0.0194702,0.094696,0.0301819,0.1455078c0.0206299,0.0947876,0.0429993,0.1943665,0.054718,0.2792969
			c0.0185852,0.0527954,0.0332031,0.0888977,0.0419922,0.1112976c0.0361938,0.0908813-0.0019226,0.1318665-0.0390015,0.1513977
			C39.3837891,32.6094055,39.3681946,32.6142883,39.351593,32.6142883L39.351593,32.6142883z"/>
		<path class="st2" d="M38.2685852,29.0624695l-0.0273743-0.0097961c-0.0879211-0.0292969-0.1758118-0.0429077-0.2695007-0.0575867
			c-0.0488281-0.0078125-0.0996094-0.0155945-0.1504211-0.0259094c-0.0634766-0.0072937-0.1387024-0.0244141-0.2149048-0.0414734
			c-0.0585022-0.0131226-0.1170959-0.0263367-0.1717834-0.0346069l-0.1065369-0.0181274
			c-0.1141968-0.019989-0.2225952-0.039093-0.3016968-0.0434875l-0.0331726-0.0072937
			c-0.0840149-0.035614-0.1983337-0.0498047-0.2988892-0.0620117l-0.0927124-0.0151062
			c-0.108429-0.0458679-0.2461243-0.0737915-0.3388977-0.0849915c-0.0635071-0.0180969-0.1190796-0.031189-0.1787109-0.0458984
			c-0.1171875-0.0288086-0.2509766-0.0614929-0.3554993-0.110321c-0.0791016-0.0204773-0.164978-0.0478821-0.2421875-0.0717773
			c-0.0604858-0.0185852-0.1141968-0.0357056-0.1631165-0.0498047c-0.1123047-0.0346985-0.1943054-0.0630188-0.2762756-0.0917969
			c-0.0751953-0.0259094-0.1504211-0.0517883-0.2451172-0.081604l-0.0245056-0.0072937
			c-0.0975952-0.0288086-0.218689-0.0648804-0.3251953-0.1465149c-0.1600952-0.0610046-0.3203125-0.1488953-0.4422913-0.2192078
			c-0.1494141-0.0492554-0.2989197-0.1195679-0.4833984-0.227478c-0.0713196-0.0411072-0.1484985-0.0810852-0.2256165-0.1211243
			c-0.0966797-0.0507812-0.194397-0.1020813-0.2870789-0.1572876c-0.1407166-0.0575867-0.2735291-0.1318054-0.4141235-0.2103882
			l-0.1366882-0.0751953c-0.1659851-0.1040039-0.3222961-0.2344055-0.467804-0.3594055
			c-0.0625-0.0375977-0.1396179-0.0980835-0.2225952-0.1621094c-0.0849915-0.0663757-0.1738892-0.1352844-0.2569275-0.1864929
			l-0.0214539-0.0175781c-0.032196-0.034729-0.0566101-0.0625305-0.0732117-0.0820007l-0.0097961,0.0057983l-0.015625-0.0263062
			c-0.0018921-0.0035095-0.0048828-0.0079041-0.007782-0.0127258l-0.0068054-0.0117798v-0.0003967
			c-0.0176086-0.0362244-0.0342102-0.093811,0.0244141-0.1362915c0.0741882-0.0541992,0.1366882,0.0160828,0.156189,0.0390625
			c0.0155945,0.0176086,0.0381165,0.0439453,0.0703125,0.0791016c0.0888672,0.0561218,0.1777954,0.1250305,0.2637024,0.1918945
			c0.0780945,0.0605164,0.1524048,0.1182251,0.2177734,0.1592102c0.1513062,0.128418,0.3016968,0.253418,0.4512024,0.3471069
			l0.1328125,0.0737915c0.1357117,0.0756226,0.2635803,0.1469116,0.406189,0.2070312
			c0.1016235,0.059082,0.1962891,0.1083984,0.2901001,0.1571655c0.0791016,0.0415344,0.1582031,0.0825195,0.233429,0.1255188
			c0.1747742,0.1029968,0.3094788,0.1665039,0.4647827,0.219696c0.1366882,0.0766907,0.2929993,0.1621094,0.4442749,0.2183228
			l0.0284424,0.0160828c0.0791016,0.0639954,0.1756897,0.092804,0.2694702,0.1206055l0.0264282,0.0078125
			c0.0985718,0.0312805,0.1747742,0.0575867,0.2518921,0.0839844c0.0800781,0.0278015,0.1611023,0.0561829,0.2675781,0.0894165
			c0.047821,0.0131836,0.1045227,0.0307007,0.1660156,0.050293c0.0751953,0.0233765,0.1591797,0.0497742,0.2520142,0.0760803
			c0.1014709,0.045929,0.2254944,0.0762024,0.3338928,0.1026001c0.0634766,0.015625,0.1240845,0.0302124,0.1728821,0.0458984
			c0.1141968,0.0116882,0.2549133,0.0464172,0.3612976,0.089325l0.0518188,0.0068665
			c0.1083984,0.0131226,0.2303772,0.0278015,0.3368835,0.0693054c0.0869141,0.0063171,0.1942749,0.0249023,0.3076172,0.0444031
			l0.1034851,0.0176086c0.0576172,0.0088196,0.1210938,0.0229797,0.1856079,0.0375977
			c0.0682983,0.0155945,0.1366882,0.031311,0.2010803,0.0386047c0.0556946,0.0112,0.1036072,0.0185242,0.1504211,0.0258789
			c0.0898743,0.0140991,0.1817017,0.0283203,0.2763977,0.0576172c0.0498047-0.0072937,0.092804-0.0028992,0.125,0.0009766
			c0.0136719,0.0014343,0.0272827,0.0028992,0.039978,0.0028992l0.0029907,0.2002258
			c-0.0214539-0.0004883-0.0429688-0.0019836-0.0654602-0.0043945c-0.0312195-0.0033875-0.0566101-0.0064087-0.0848999,0.0004883
			L38.2685852,29.0624695L38.2685852,29.0624695z"/>
		<path class="st1" d="M41.0830078,31.6112976c-0.2529297-0.3612976-0.5166321-1.055603-0.5244141-1.0683289l-0.5126953-0.820282
			c-0.3056946-0.4102173-0.5342102-0.4073181-0.6963196-0.4087219c-0.3534851-0.014679-0.5106812-0.0751648-0.7772827-0.089386
			c-0.2744141-0.1112976-0.0849915-0.5957031-0.0917969-0.6079102c0.250885-1.0966797,1.4208984-1.015564,1.4696655-0.9931946
			c0.5391235,0.1601868,0.6064148,0.2232056,0.5264282,0.5581055c-0.1260071,0.361908-0.2032166,0.4916992-0.186615,0.7192993
			c0.0391235,0.4349976,0.5909119,1.0635071,0.5987244,1.0762024c0.007782,0.012207,0.3602905,0.2817078,0.3602905,0.2817078
			c0.1669922,0.1343079,0.3857727,0.1537781,0.6162109,0.4208679c0.203186,0.2886047,0.2344055,0.4062195,0.0791016,0.7001953
			C41.7460938,31.766571,41.3027039,31.8895874,41.0830078,31.6112976L41.0830078,31.6112976L41.0830078,31.6112976z"/>
		<path class="st2" d="M41.1630859,31.5517883c0.0840149,0.1034851,0.1914062,0.1161804,0.2676086,0.109314
			c0.1669922-0.0166321,0.3299866-0.1416016,0.4237976-0.3261108c0.1309204-0.2471008,0.1210938-0.3251953-0.0712891-0.5977173
			c-0.1260071-0.1459961-0.2528992-0.2089844-0.375-0.2694702c-0.078125-0.0386353-0.1523132-0.074707-0.2217407-0.1309204
			c-0.3651733-0.2792969-0.3710632-0.2885742-0.382782-0.3081055c-0.217804-0.2607117-0.5800781-0.7460938-0.6133118-1.1191101
			c-0.0145874-0.2001953,0.0352173-0.3329773,0.1162109-0.5527954c0.022522-0.0605164,0.0479126-0.1288757,0.0762329-0.2084656
			c0.0566711-0.2407227,0.0634766-0.2729187-0.460907-0.4291992c-0.0108032-0.0029297-1.1026306-0.1132202-1.3428345,0.9135742
			c-0.0019836,0.0147095-0.0058899,0.0307922-0.0106812,0.0484009c-0.0684204,0.2474976-0.0585938,0.3968811,0.0282898,0.4447937
			c0.1171875,0.0073242,0.2129211,0.0229187,0.3144226,0.039032c0.1259766,0.0204773,0.2548828,0.0414734,0.4433899,0.0488892
			c0.1767883,0.0018921,0.4403687,0.0043945,0.7714844,0.4486694c0.358429,0.5737305,0.4756165,0.7607422,0.5136108,0.8305969
			l0.0040283-0.0019836c0.0018616,0.0019836,0.0106812,0.0209961,0.0233765,0.0537109
			C40.8554688,31.0106812,41.0224915,31.3495789,41.1630859,31.5517883L41.1630859,31.5517883z M41.3964844,31.8622742
			c-0.1552734,0-0.2958984-0.0673828-0.3925781-0.1893921l-0.0028992-0.0049133
			c-0.1494141-0.2138977-0.3242188-0.5664062-0.5186157-1.0478821l-0.0145874-0.0346985
			c-0.0039062-0.0057983-0.506897-0.8099976-0.506897-0.8099976c-0.2675171-0.3579102-0.4550171-0.3598938-0.6054382-0.3613281
			c-0.2089844-0.0082703-0.3505859-0.0312805-0.476593-0.0513c-0.1005859-0.016571-0.1972961-0.032196-0.3124695-0.0380859
			l-0.032196-0.0072937c-0.2071228-0.0840149-0.2608032-0.3150024-0.1602478-0.6860962l0.0088196-0.0371094
			c0.0967102-0.4227905,0.3418274-0.7406921,0.7089844-0.9194031c0.4004211-0.1947937,0.8389282-0.1703796,0.9004211-0.1416016
			c0.5204773,0.1532898,0.6846008,0.2407227,0.5820007,0.6714172c-0.031189,0.0907898-0.0565796,0.1600952-0.0801086,0.2216797
			c-0.0770874,0.2075195-0.1152039,0.3115234-0.1034851,0.4673157c0.0205078,0.2313843,0.2255859,0.5971069,0.5614929,1.0028992
			c0.0039978,0.0048828,0.0079041,0.0088196,0.0108032,0.0126953c0.0292969,0.0259094,0.1963196,0.155304,0.3466797,0.2700195
			c0.054718,0.0438843,0.1162415,0.0741882,0.1865234,0.109375c0.1278992,0.0629883,0.2861023,0.1411133,0.4453125,0.3257141
			c0.2245789,0.3187866,0.2675781,0.4784851,0.0907898,0.8124695c-0.1240234,0.2441101-0.3476257,0.4101257-0.5820312,0.4336243
			C41.4315796,31.8612671,41.414093,31.8622742,41.3964844,31.8622742L41.3964844,31.8622742z"/>
		<path class="st1" d="M32.4667969,42.8876648c0.0195007-0.0614929,0.0536804-0.7011719,0.032196-0.7011719
			c-0.0205078,0-1-1.1025085-0.9784851-1.1025085c0.0205078,0,1.2411804,0.2538757,1.2401733,0.2119141
			c0-0.0410156,0.467804-1.1806946,0.4667969-1.2012024c0-0.0205078,0.6054993,1.375,0.6054993,1.375l1.2022095,0.5019836
			l-0.8301086,0.6903992c0,0,0.2060242,1.3174133,0.2060242,1.3379211c0,0.0204773-0.8496094-0.773407-0.8496094-0.773407
			l-0.9219055,0.1131897C32.6395874,43.3397827,32.5087891,42.9286804,32.4667969,42.8876648L32.4667969,42.8876648
			L32.4667969,42.8876648z"/>
		<path class="st2" d="M33.5956726,43.1210938l0.0342407,0.032196c0.1903992,0.1777954,0.4608765,0.4287109,0.6425781,0.5937805
			c-0.0429993-0.2792969-0.1133118-0.7324829-0.1661072-1.0703125l-0.0086975-0.0556946l0.7470093-0.6210938L33.757782,41.546875
			l-0.016571-0.0370789c-0.1601257-0.3692017-0.3807983-0.8760071-0.5049133-1.1573181
			c-0.023407,0.0586243-0.0537109,0.1329041-0.0908203,0.2256165c-0.1083984,0.2724915-0.273407,0.6856079-0.2870789,0.7363892
			l0.0010071,0.0477905L32.8241882,41.375c-0.0498047,0.0419617-0.0643921,0.0536804-1.0487976-0.1396179
			c0.2391968,0.2744141,0.6542969,0.7402039,0.7626953,0.8504944h0.0116882l0.0313416,0.0420227
			c0.0506592,0.0693665,0.0057678,0.5644836-0.0127258,0.734375c0.0263062,0.0479126,0.0692749,0.147522,0.1416016,0.3681946
			L33.5956726,43.1210938L33.5956726,43.1210938z M34.4159851,44.102478c-0.0635071,0-0.1825867-0.1112976-0.8887024-0.7713928
			l-0.9570007,0.118103l-0.0253906-0.0791016c-0.055603-0.1727905-0.1299133-0.3807983-0.1542969-0.4179993l-0.0449219-0.0429077
			l0.0254211-0.0508118c0.0145874-0.0703125,0.0380859-0.5019836,0.0351868-0.6220703
			c-0.0674133-0.0634155-0.1954041-0.2060242-0.4794922-0.5254211c-0.506897-0.5712891-0.506897-0.579071-0.506897-0.625885
			l-0.0010071-0.0996094l0.1006165-0.0020142c0.0175781,0.0020142,0.0157166,0,0.2158813,0.0400085
			c0.2216187,0.0440063,0.7655945,0.1513977,0.9520874,0.1729126c0.0342407-0.0917969,0.1083984-0.280304,0.272522-0.6924133
			c0.070282-0.1758118,0.148407-0.3721008,0.1679077-0.4237976l-0.0009155-0.0664062l0.0800171-0.0166016
			c0.0380859-0.0087891,0.0596008-0.0126953,0.1200867,0.0967102h0.0010071c0,0.0009155,0,0.0009155,0,0.0018921
			c0.0810852,0.1455078,0.2315063,0.4931946,0.5810852,1.2969055l1.3174133,0.5508118L34.3125,42.7020874
			c0.1981812,1.2695923,0.1981812,1.2871704,0.1981812,1.2958984l0.0019836,0.0664978l-0.0614929,0.0272827
			C34.4385071,44.0976562,34.4286804,44.102478,34.4159851,44.102478L34.4159851,44.102478z"/>
		<path class="st3" d="M25.4721985,25.6947937c-0.7915039,0.4125977-3.5352173,3.8227844-3.9477844,4.3637695
			c-0.3413086,0.7822266-1.0161133,1.7753906-1.7163391,2.4169922c-0.7489624,0.5713196-1.1591797,1.34375-1.0454102,2.070343
			c0.0028992,0.9042664,0.5269165,1.5145874,0.9463196,2.1464844c0.2471008,0.2881165,0.5765991,0.4725952,0.925293,0.4911804
			c0.7153015,0.085022,0.781189,0.3008423,1.140625,0.429718c1.4315796,1.868103,3.5497742,3.2344055,5.0766907,4.3173828
			c0.9702148,0.4882202,1.6473999,0.9804382,1.8802795,1.25c0.4536133,0.8261414,0.3824158,1.6376953,0.3272095,2.0371094
			c-0.3565063,1.3926086-0.7134094,2.7851257-1.0697937,4.1777039c-0.174408,1.1366882,0.8251953,0.8700867,0.8763733,0.6426086
			c0.4448242-0.5820007,1.1255493-0.1846008,2.0474243-3.5371094c0.4346313-0.5898743,0.8700867-1.1806946,1.304718-1.7714844
			c0,0,0.507782-0.2061157,0.507782-0.2568359c0.7637024-0.9247742,0.1660156-1.4423523-0.2763977-1.6025696
			c-0.3251953-0.1133118-0.6494141-0.2265015-0.9746094-0.3398132c0,0-1.1366882-1.0917969-1.1879883-1.0907898
			c-0.5531921-1.5195923-3.2304077-4.7792969-3.844696-5.2256165c-0.6005859-0.3779602-0.3594055-0.5488892-1.0004883-0.8124695
			c-0.4751282-0.2530212-0.1489258-0.147522-1.2119141-0.5176392c-0.3149109-0.1191711-0.0961914-0.4608765,0.1010742-0.6171875
			c2.0605164-1.1347656,3.254425-2.0839844,5.2290344-3.3617859l-0.0713196-3.9082031L25.4721985,25.6947937L25.4721985,25.6947937z
			"/>
		<path class="st2" d="M21.637207,30.125c-0.375,0.852478-1.0732117,1.8339844-1.7412109,2.4462891
			c-0.7363281,0.5625-1.1089172,1.2900085-1.0049133,1.9541016c0.0039062,0.7558899,0.3789062,1.2997742,0.7416992,1.8251953
			c0.0625,0.0897827,0.1244812,0.1796875,0.1846008,0.2704773c0.2225952,0.2578125,0.5184937,0.4170227,0.8237305,0.4326172
			c0.5126953,0.0606079,0.7201538,0.1864929,0.9037781,0.2979126c0.0855103,0.0516968,0.1659851,0.1004944,0.2738953,0.1395874
			l0.0357056,0.0126953l0.023407,0.030304c1.2509766,1.6318054,3.0440063,2.8866882,4.4848938,3.8945007
			c0.1947937,0.1358032,0.3833008,0.2676086,0.5639954,0.3955078c0.9770203,0.4902954,1.6640015,0.9942017,1.9037781,1.2714844
			l0.015625,0.022522c0.3413086,0.6229858,0.4530945,1.3153992,0.3413086,2.1171875l-1.0723267,4.1922913
			c-0.0375977,0.2510376-0.0336914,0.5811157,0.2124023,0.6631165c0.1827393,0.0605774,0.3887024-0.0410156,0.4131165-0.0868835
			l0.0063782-0.0283203l0.0151367-0.0166016c0.1200867-0.1572266,0.2528687-0.2480774,0.394104-0.3457031
			c0.3988953-0.2744141,0.945282-0.6503906,1.6317749-3.1464844l0.0205078-0.0429993l1.3262024-1.8008118l0.0340881-0.0135803
			c0.1749268-0.0713196,0.3858032-0.1670227,0.4463196-0.2080078L32.625,44.3905945
			c0.2792664-0.3388062,0.3856812-0.6377258,0.3173828-0.890625c-0.0888977-0.3231812-0.4335938-0.4696655-0.5370789-0.507782
			l-1-0.3486023l-0.0205078-0.0195923c-0.4698181-0.4511108-1.0049133-0.9521179-1.1348267-1.0537109h-0.0536804
			l-0.0317078-0.085907c-0.5429993-1.4921875-3.1806946-4.7157898-3.799408-5.1650696
			c-0.2871094-0.1806335-0.398407-0.3271179-0.487793-0.4443359c-0.0986023-0.1298828-0.1703796-0.2236023-0.4852905-0.3534851
			c-0.1343079-0.0713196-0.2051086-0.1133118-0.2593079-0.1455078c-0.1459961-0.0859985-0.1644897-0.0976868-0.9458008-0.3691711
			c-0.1854858-0.0703125-0.2314148-0.1992188-0.2421875-0.2695312c-0.0361023-0.2323914,0.1747742-0.468689,0.3046875-0.5722961
			l0.0186157-0.0126953c1.3646851-0.7509155,2.3701172-1.4364929,3.4344788-2.1621094
			c0.5357056-0.3651733,1.0884094-0.7421875,1.7255859-1.1552124l-0.0682678-3.7431946l-3.8731079-1.2558899
			C24.6933899,26.320282,22.1610718,29.4403992,21.637207,30.125L21.637207,30.125z M28.4487,50.3690796
			c-0.0420227,0-0.0834961-0.0039062-0.1245117-0.0116882c-0.1791992-0.0342102-0.5835266-0.1972046-0.4634094-0.9814148
			l1.0722961-4.1904907c0.1001282-0.7254944,0-1.3612976-0.308075-1.9295959
			c-0.2246094-0.2520142-0.8877258-0.7333984-1.8320312-1.2090149c-0.1967773-0.1376953-0.3847656-0.2695923-0.579071-0.4052734
			c-1.4472961-1.0127258-3.2456055-2.2705078-4.5195923-3.9189453c-0.1137085-0.0449524-0.2002258-0.0976562-0.2840881-0.148468
			c-0.1685181-0.1025085-0.3433228-0.2080078-0.7911072-0.2607117c-0.3686218-0.0195923-0.7295227-0.2109985-1.008728-0.5361938
			c-0.0689087-0.1015015-0.1299133-0.1903992-0.1914978-0.2792969c-0.3851929-0.5575867-0.7835999-1.1347046-0.7866211-1.9520874
			c-0.1171875-0.7402344,0.292511-1.5596313,1.0967102-2.1737976c0.6387329-0.5859985,1.315918-1.5401001,1.6763-2.3658142
			l0.0161133-0.026825c0.3486023-0.4570007,3.1596985-3.9667969,3.9907227-4.3998718l0.0482788-0.0254211l4.1558228,1.3471985
			l0.0746765,4.0732117l-0.0605164,0.039093c-0.6607056,0.4277039-1.2304993,0.8153992-1.7812805,1.1914062
			c-1.0673828,0.7275085-2.0751953,1.4150085-3.4458008,2.1698914c-0.1195984,0.0986328-0.2134094,0.2471313-0.2015991,0.3232117
			c0.0019226,0.0108032,0.0063171,0.039093,0.0741882,0.0645142c0.7803345,0.2714844,0.8183289,0.2880859,0.9897156,0.3905945
			c0.0517883,0.030304,0.1196899,0.0703125,0.2367859,0.132782c0.3692017,0.1513977,0.4727173,0.2871094,0.5821228,0.4317322
			c0.0843811,0.1112976,0.1717834,0.2255859,0.4266968,0.3856812c0.6358032,0.4619141,3.2992859,3.7128906,3.8837891,5.2548828
			c0.1230774,0.0898132,0.4038086,0.342804,1.1488953,1.0586243l0.9483032,0.3300781
			c0.1347961,0.0488281,0.5801086,0.2412109,0.7012024,0.6845093c0.0897827,0.3311157-0.0254211,0.6993103-0.3448181,1.0957031
			c-0.023407,0.061615-0.1229858,0.1347961-0.5477905,0.3086243l-1.2686157,1.7236633
			c-0.7089844,2.5664062-1.2982788,2.9717102-1.7284851,3.2685242c-0.1229858,0.0839844-0.230011,0.1582031-0.3217773,0.2724915
			C28.9198914,50.2538757,28.6835938,50.3690796,28.4487,50.3690796L28.4487,50.3690796z"/>
		<path class="st1" d="M28.7915039,46.7362976c0.0102844-0.0420227,2.0717773-0.4365234,2.0717773-0.4365234
			s-0.2315063,0.7559204-0.2421875,0.7559204l-2.0479126,0.6317749L28.7915039,46.7362976L28.7915039,46.7362976z"/>
		<path class="st2" d="M28.7489929,46.8642883l-0.0629883-0.2178345l0.077179-0.0224915
			c0.2192078-0.0643921,0.6758118-0.1981812,0.8310242-0.2236023c0.1943665-0.0478821,0.3686829-0.0966797,0.5253601-0.1483765
			c0.0982056-0.0215149,0.1704407-0.0391235,0.2412109-0.0556946c0.0948181-0.023407,0.1875-0.0458984,0.3057251-0.0683899
			c0.1781616-0.0682983,0.3510742-0.1142273,0.5112-0.1523438l0.0527954,0.2197266
			c-0.155304,0.0371094-0.3228149,0.0811157-0.4921875,0.1464844l-0.0195312,0.0058899
			c-0.1187134,0.0224304-0.2104797,0.0449219-0.3046875,0.0683289c-0.0727844,0.0176086-0.1470032,0.0351868-0.2353821,0.0546875
			c-0.1509094,0.0498047-0.3310242,0.1006165-0.5391235,0.1514282c-0.1502991,0.024353-0.6146851,0.1610718-0.8128967,0.218689
			L28.7489929,46.8642883L28.7489929,46.8642883z M28.4477844,48.0858765l-0.1788025-0.1376953
			c0.0307922-0.0419006,0.1856079-0.1737976,0.289093-0.2362976l0.023407-0.0107117
			c0.0386047-0.0126953,0.1080017-0.0401001,0.1889954-0.0712891c0.1737976-0.0684204,0.3897095-0.1524048,0.5029297-0.1737976
			c0.1723633-0.0469055,0.3276672-0.0957031,0.4648743-0.1465149c0.090332-0.0215149,0.1548157-0.039093,0.2182007-0.0566711
			c0.0839844-0.0224304,0.1665039-0.0449219,0.2709961-0.0674133c0.1592102-0.0682983,0.3135071-0.1132202,0.4571228-0.1523132
			l0.0585938,0.218811c-0.1381836,0.0371094-0.2861938,0.0800171-0.4361267,0.1455078l-0.0214844,0.0068054
			c-0.1053772,0.0224915-0.1864929,0.0438843-0.2700195,0.0673828c-0.0653687,0.0176086-0.1322632,0.0350952-0.211853,0.0546875
			c-0.1308289,0.0487976-0.292511,0.0996094-0.4805298,0.1504211c-0.1004944,0.0184937-0.3143921,0.1025085-0.4701843,0.1629944
			c-0.078125,0.030304-0.1459961,0.0567017-0.1884155,0.0722961C28.5810852,47.9638977,28.4672852,48.0644836,28.4477844,48.0858765
			L28.4477844,48.0858765z"/>
		<path class="st2" d="M23.4028015,39.1845703l-0.1875-0.069397c0.3789062-1.0292664,1.4589844-1.9169922,2.2846985-2.180603
			l0.0604858,0.1903992C24.9022827,37.3349915,23.7973938,38.1132812,23.4028015,39.1845703L23.4028015,39.1845703z"/>
		<path class="st2" d="M27.773407,40.046875c-0.0337219,0-0.065918-0.0097961-0.0942383-0.0176086
			c-0.0121765-0.0039062-0.0312805-0.0097656-0.0380859-0.0097656l-0.0014954-0.2001953
			c0.0336914-0.0009155,0.0679016,0.0097656,0.0966797,0.0185547c0.0122375,0.0029297,0.0313416,0.0088196,0.0376282,0.0088196
			c0.1362915-0.0010071,0.343811-0.0176086,0.4784851-0.0342102c0.2676086-0.0028992,0.5957031-0.2489929,0.6246033-0.3212891
			l0.015625-0.0283203c0.0560913-0.070282,0.1000977-0.1103821,0.1234741-0.132782
			C29.0112,39.3358765,28.9945679,39.3749695,29.0112,39.4179993l0.0473938-0.0186157l-0.0014954-0.1210938
			c0.0058899,0,0.0121765,0,0.0186157,0h0.0121765c0.0409851,0.0020142,0.0878906,0.0126953,0.1094055,0.0654907
			c0.0267944,0.0672913-0.0240173,0.1141968-0.045929,0.133728c-0.019104,0.0175781-0.0517883,0.0478821-0.0942688,0.0995789
			c-0.0820007,0.1661072-0.480896,0.4317017-0.7920227,0.4356079c-0.1293945,0.0155945-0.3457031,0.0331726-0.4891968,0.0341797
			C27.7749023,40.046875,27.7738953,40.046875,27.773407,40.046875L27.773407,40.046875z"/>
		<path class="st2" d="M31.5214844,45.6337891c-0.0859985,0-0.1494141-0.0068054-0.2109985-0.0127258
			c-0.0135803-0.0019836-0.0272827-0.0028992-0.0410156-0.0038757l-0.1180725-0.0078125
			c-0.0996094-0.0020142-0.1914062-0.0088196-0.2788086-0.0176086c-0.069397-0.007782-0.1381836-0.014679-0.2144165-0.0166016
			c-0.085907-0.0106812-0.1679993-0.0126953-0.2485046-0.0155945c-0.0854797-0.0029907-0.1703796-0.0058899-0.2475891-0.015686
			c-0.0664062,0.0019836-0.1465149-0.007782-0.2225952-0.0174866c-0.0733032-0.0098267-0.1425781-0.0176086-0.2089844-0.0176086
			c-0.0674133,0-0.137207-0.0058899-0.2090149-0.0116882c-0.0776978-0.0059204-0.157196-0.0127258-0.2368164-0.0117188
			l-0.2187805,0.0018921l-0.0087891-0.0996094c-0.0004883-0.0614929,0.0220032-0.085907,0.0772095-0.0956726l-0.0010071-0.0049133
			l0.0160828-0.0010071l0.0004883,0.0039368c0.0024109,0,0.0043945-0.0009155,0.0068054-0.0009155v-0.0030212l0.0004883,0.0030212
			c0.0323181-0.0030212,0.073822-0.0039062,0.1255188-0.0039062c0.0860291-0.0010071,0.1719055,0.0057983,0.2549133,0.0126953
			c0.070282,0.0057983,0.1391907,0.0117188,0.2025757,0.0107117c0.0757141,0,0.1514282,0.0097961,0.2242126,0.0195007
			c0.0731812,0.0087891,0.1430054,0.0175781,0.2088928,0.0166016c0.0855103,0.0107727,0.1636353,0.0126953,0.2427063,0.015686
			c0.0874023,0.0018921,0.1758118,0.0057983,0.256897,0.0155945c0.071228,0.0010071,0.1459045,0.0087891,0.2207336,0.0166016
			c0.0858765,0.0087891,0.1678467,0.0166016,0.2596741,0.0166016c0.0010071,0,0.0029907,0,0.0039062,0l0,0
			c0.0478821,0.0009766,0.0888977,0.0049133,0.1279907,0.0078125l0.2617188,0.0175781l-0.0049133,0.1992188
			C31.5352173,45.6337891,31.5282898,45.6337891,31.5214844,45.6337891L31.5214844,45.6337891z"/>
		<path class="st2" d="M28.2528992,49.0155945l-0.1631165-0.1152039c0.0253906-0.0371094,0.1625977-0.1690063,0.2623291-0.2344055
			l0.0218811-0.0106812c0.0346985-0.0127258,0.0976868-0.0391235,0.1714172-0.0713196
			c0.1596985-0.0674133,0.3583679-0.1524048,0.4623718-0.1729126c0.155304-0.0458984,0.2973938-0.0946655,0.4253235-0.1454773
			c0.0820007-0.0224304,0.1405945-0.0400085,0.1981812-0.0566101c0.0776978-0.0224915,0.1528931-0.0449219,0.2496033-0.0674133
			c0.1463928-0.0683899,0.2875977-0.1132812,0.4179077-0.1513977l0.0566711,0.1914062
			c-0.1259766,0.0372009-0.2612915,0.0801086-0.3989868,0.1455078l-0.0205078,0.006897
			c-0.0965881,0.0223999-0.1713867,0.0439148-0.2479858,0.0673828c-0.0596008,0.0175171-0.1206055,0.0351257-0.1929016,0.0537109
			c-0.1216125,0.0498047-0.2695007,0.0996094-0.4398804,0.1504211c-0.0923157,0.0184937-0.2881165,0.1014709-0.4312439,0.1630859
			c-0.0707703,0.0302124-0.1322632,0.0566101-0.1713867,0.0711975
			C28.3754883,48.8925781,28.2704773,48.9931641,28.2528992,49.0155945L28.2528992,49.0155945z"/>
		<path class="st2" d="M32.0888977,44.8622742l-0.0274048-0.0106812c-0.0527039-0.0205078-0.0868835-0.0342102-0.1533203-0.0391235
			l-0.0263977-0.0058899c-0.1473694-0.0536804-0.2352905-0.0809937-0.3475952-0.1092834
			c-0.3378906-0.0996094-0.5575867-0.2608032-0.651886-0.3780212l-0.0132141-0.0213928
			c-0.0083008-0.0186157-0.019989-0.0352173-0.031189-0.0527954c-0.0526733-0.0800781-0.125-0.1903992-0.0474243-0.4219055
			l0.1895447,0.0635071c-0.0469055,0.1397095-0.0166321,0.1855774,0.0248718,0.2489929
			c0.0146179,0.0224915,0.0282898,0.0439758,0.0400085,0.0674133c0.0762024,0.0888977,0.2608032,0.2177734,0.5419922,0.3007812
			c0.1112976,0.0282898,0.2051086,0.0575867,0.3505859,0.1104126c0.0879211,0.0086975,0.1405945,0.0292969,0.1973267,0.0516968
			l0.0253906,0.0087891L32.0888977,44.8622742L32.0888977,44.8622742z"/>
		<path class="st2" d="M19.0346985,35.3056641v-0.0009766c-0.042511-0.0019836-0.093811-0.0137024-0.1114197-0.0733032
			c-0.0223694-0.0760803,0.0411072-0.1152039,0.0679016-0.1318054c0.0249023-0.0155945,0.0684204-0.0429993,0.1279297-0.0907898
			c0.0336914-0.0400085,0.0766907-0.0791016,0.1181641-0.1171875c0.0449219-0.0410156,0.0869141-0.0791016,0.1304016-0.1328125
			l0.1552124,0.1259766c-0.0527039,0.0654297-0.1025085,0.110321-0.1508179,0.1542969
			c-0.0366821,0.0341187-0.0746765,0.0682983-0.1157837,0.1142273c-0.0805054,0.0664062-0.1307983,0.0986938-0.1590881,0.1162109
			l-0.0317993-0.0322266l0.0010071,0.0674133h-0.0024109c-0.002533,0-0.0048828,0-0.0074158,0.0009766H19.0346985
			L19.0346985,35.3056641z"/>
		<path class="st2" d="M20.9833679,37.3612976l-0.0019836-0.2002258l0.0010071,0.0996094l-0.0342102-0.093689
			c0.1382141-0.0566101,1.7041016-0.8681946,1.8580322-1.023407c0.0653687-0.0498047,0.1131592-0.0899048,0.1620789-0.1309204
			c0.0687866-0.0575867,0.1401062-0.1161804,0.2323914-0.1796875c0.0619812-0.0332031,0.1064148-0.0664062,0.1533203-0.1005859
			c0.0316772-0.023407,0.0634766-0.0469055,0.0976868-0.0693359c0.0365906-0.0497742,0.0765991-0.0917664,0.1123047-0.1288757
			c0.0428772-0.0448914,0.0799866-0.0840149,0.1040039-0.1278992l0.0218811-0.0283813
			c0.031311-0.0273132,0.0376282-0.0508118,0.0498047-0.101532c0.0108032-0.0469055,0.0245056-0.1044922,0.0679016-0.1659851
			l0.030304-0.0830994c0.0355835-0.0986023,0.0801086-0.2207031,0.0962219-0.2890015l0.1947937,0.0438843
			c-0.0185242,0.0821228-0.0635376,0.2051086-0.1035156,0.3135071l-0.0493164,0.1231079
			c-0.0249023,0.0332031-0.0326843,0.0643921-0.0419617,0.1035156c-0.0132141,0.0575867-0.0298462,0.1268921-0.0991211,0.1942749
			c-0.0352173,0.0596008-0.081604,0.1083984-0.1264954,0.155304c-0.0375977,0.0400085-0.0731812,0.0770874-0.1040039,0.1220093
			l-0.0292969,0.0283813c-0.0365906,0.0224304-0.0697937,0.046814-0.1025085,0.0713196
			c-0.0513,0.0370789-0.1036072,0.0761108-0.1684875,0.1102905c-0.0752258,0.0517883-0.1426086,0.1083984-0.2080078,0.1621094
			c-0.0523071,0.0440063-0.1029968,0.0868835-0.1596985,0.1278992
			C22.7826843,36.4520874,21.0756836,37.3603821,20.9833679,37.3612976L20.9833679,37.3612976z"/>
		<path class="st2" d="M25.7831726,37.289978l-0.1029663-0.1708984c0.2230835-0.1336975,0.4174805-0.6073914,0.4203796-0.7441101
			c-0.0025024-0.0732117,0.0057983-0.1601868,0.0132141-0.2373047c0.0043945-0.0478821,0.0106812-0.1132812,0.007782-0.1318054
			l0.1972046-0.0331726c0.006897,0.039978,0.0025024,0.093689-0.0057983,0.1835938
			c-0.0068054,0.0711975-0.014679,0.1513062-0.012207,0.2177124C26.2958984,36.5829773,26.0687866,37.1190796,25.7831726,37.289978
			L25.7831726,37.289978z"/>
		<path class="st2" d="M29.4740906,44.3866882c-0.0762024,0-0.137207-0.0039062-0.1844788-0.0068054
			c-0.0318298-0.0019836-0.0567322-0.0028992-0.0782471-0.0028992l-0.1483765,0.0018921l-0.0025024-0.2001953l0.1484985-0.0019226
			c0.0238953,0,0.054718,0.0019226,0.0917969,0.0039062c0.1777039,0.0097351,0.5088196,0.0282898,1.0805054-0.1445618
			c0.0126953-0.0068054,0.0396118-0.0185242,0.0664978-0.0292969c0.1044006-0.0449219,0.2124023-0.0918274,0.2890015-0.1689148
			l0.0209961-0.015625c0.0561829-0.0322571,0.1206055-0.0976868,0.1894836-0.1669922
			c0.047821-0.0478821,0.0976257-0.0976868,0.1494141-0.1426086c0.0488281-0.0537109,0.0742188-0.1230774,0.0674133-0.2030945
			c-0.0166016-0.195282-0.2221985-0.4219055-0.3477173-0.5185852c-0.0830078-0.0537109-1.6416016-0.9940796-1.7666016-1.0448914
			l-0.0228882-0.0127258c-0.0381165-0.0292969-0.0810852-0.0527039-0.1269836-0.0791016
			c-0.0684204-0.0380859-0.1455078-0.0810852-0.2269897-0.1464844c-0.0840454-0.0458984-0.1670227-0.1113281-0.2408447-0.1699219
			c-0.0428772-0.0331726-0.0829773-0.0653687-0.1185913-0.0888672l-0.0258789-0.0253906
			c-0.0205078-0.0292969-0.0409851-0.054718-0.0605164-0.0800171c-0.0541992-0.069397-0.1103821-0.140686-0.1611938-0.2559204
			c-0.0176086-0.0263977-0.0390015-0.0644836-0.0596008-0.1005859C27.969696,40.7216797,27.9379883,40.664978,27.9013977,40.625
			l-0.0180969-0.0283203c-0.0381165-0.0908203-0.1006165-0.2217102-0.148407-0.3114929l-0.0078125-0.0186157
			c-0.0450134-0.1318054-0.9375-1.8876953-1.2397766-2.1220703l-0.023407-0.0263367
			c-0.0625-0.101593-0.1529236-0.2070923-0.2574158-0.329071c-0.0273132-0.030304-0.0501709-0.0577087-0.0742188-0.0840149
			c-0.066864-0.0780945-0.1361694-0.1582031-0.219696-0.2276001l-0.015564-0.0155945
			c-0.0342102-0.0458984-0.1226196-0.094696-0.2002258-0.1376953c-0.0581055-0.0322266-0.1181946-0.0653992-0.1665039-0.1015015
			c-0.0966797-0.0810852-1.1816711-0.7393188-1.7011719-0.9161072c-0.2055969-0.0595093-0.375-0.109314-0.4956055-0.1454773
			c-0.112793-0.0332031-0.1807251-0.0537109-0.1972961-0.0576172l0.019104-0.1972046c0.0194702,0,0.0194702,0,0.2347717,0.0634155
			c0.1202087,0.0351868,0.2896118,0.085968,0.499115,0.1464844c0.5346069,0.1817017,1.6434937,0.8476868,1.7655945,0.9501953
			c0.035614,0.0263977,0.0869141,0.054718,0.1390991,0.0830078c0.0953064,0.0527039,0.1939087,0.1074219,0.2543945,0.1806946
			c0.0923157,0.0780945,0.1651306,0.1621094,0.2354126,0.2441101c0.0228882,0.0253906,0.0454102,0.0517883,0.0679016,0.0772095
			c0.1117859,0.1307678,0.2036133,0.2373047,0.273407,0.3465881c0.3617859,0.3096008,1.2055969,1.9990845,1.2880859,2.1963196
			c0.0483093,0.0908813,0.1079102,0.2148743,0.1478882,0.3095703c0.0464172,0.0546875,0.0821228,0.1182251,0.1197205,0.1856079
			c0.0190125,0.0331726,0.0389709,0.0693054,0.0614929,0.1054077c0.0473938,0.1044922,0.0913086,0.1601868,0.1421204,0.2255859
			c0.0179749,0.0224915,0.0365906,0.0469055,0.0555725,0.0722961c0.0352173,0.0244141,0.074707,0.055603,0.1158142,0.0878906
			c0.0697937,0.055603,0.1488953,0.1181335,0.2191772,0.1552124l0.0171204,0.0108032
			c0.070282,0.0576172,0.1391907,0.0966797,0.2051086,0.1338196c0.051178,0.0282898,0.0985718,0.0546875,0.1410828,0.0858765
			c0.2240906,0.1054993,1.7803345,1.0527039,1.7934265,1.0614929c0.0229797,0.0166321,0.4013977,0.3125305,0.4316711,0.6651001
			c0.0116882,0.1366882-0.032196,0.2597351-0.1278992,0.3633118c-0.0567017,0.0498047-0.101593,0.0957031-0.1464844,0.1405945
			c-0.0743103,0.0751953-0.1446228,0.1455078-0.2198181,0.1914062c-0.1025085,0.0986023-0.2298889,0.1532898-0.3426819,0.2021179
			l-0.074707,0.0322876C29.9994812,44.3603821,29.6815796,44.3866882,29.4740906,44.3866882L29.4740906,44.3866882z"/>
		<path class="st2" d="M22.6684875,33.8046875c-0.1075134,0-0.2055969-0.0068054-0.3008118-0.0137024
			c-0.050293-0.0039062-0.1005859-0.0068054-0.1528931-0.0097046c-0.118103-0.0029907-0.2138062-0.0263977-0.3060913-0.0498962
			c-0.0483093-0.0126038-0.0977173-0.0244141-0.1519165-0.0341187l-0.0355835-0.0136719
			c-0.066925-0.0410156-0.1289062-0.0742188-0.1903992-0.1073914c-0.081604-0.0430298-0.1656189-0.0889282-0.2608032-0.1514282
			c-0.1333008-0.0761719-0.2347717-0.1494141-0.3695984-0.2655945c-0.012207-0.007782-0.0336914-0.0224915-0.054718-0.0380859
			c-0.0762024-0.0537109-0.1366882-0.0967102-0.2240906-0.1104126l-0.0258789-0.0039062l-0.0205078-0.016571
			c-0.0307922-0.0244141-0.1181946-0.0449219-0.1885071-0.0605469c-0.0458984-0.0107727-0.092804-0.0214844-0.1357117-0.0351562
			c-0.0444946-0.0146179-0.0912781-0.0292969-0.1405945-0.0449219c-0.0909119-0.0292969-0.1939087-0.0614929-0.2758789-0.094696
			c-0.0562134-0.0108032-0.0962219-0.0166016-0.1197205-0.0195007c-0.0970764-0.0147095-0.113678-0.0683899-0.1107788-0.1113892
			c0.0028992-0.0400391,0.0243835-0.0869141,0.1098938-0.0927124V32.530304v0.0009766
			c0.0043945,0,0.0091858-0.0009766,0.0135803-0.0009766l0,0c0.0004883,0,0.0014954,0,0.0020142,0l0.0005188,0.0048828
			c0.0428772,0.0057983,0.0878906,0.0126953,0.1508789,0.0244141l0.0205078,0.0057983
			c0.0770874,0.0332031,0.1766663,0.0644836,0.2689819,0.0927734c0.0513,0.0166016,0.1001282,0.032196,0.1420898,0.0469055
			c0.0352173,0.0107117,0.0776062,0.0195007,0.1191406,0.0292969c0.0922852,0.0215149,0.1801758,0.0420227,0.2451782,0.0830078
			c0.1206055,0.0243835,0.2041016,0.0839844,0.2845764,0.1405945c0.0196533,0.0137024,0.0391235,0.0282898,0.0601196,0.0419922
			c0.1352234,0.1162109,0.2250977,0.1807251,0.3535156,0.2549133c0.092804,0.0605164,0.1693726,0.1015015,0.2499695,0.1455078
			c0.0601196,0.032196,0.1201172,0.0643921,0.1851196,0.1034851c0.0516968,0.0097961,0.1000977,0.0215149,0.1469116,0.0332031
			c0.0859985,0.0215149,0.1669922,0.0420227,0.2651978,0.0440063c0.0566101,0.0028992,0.1083984,0.0068054,0.1595764,0.0106812
			c0.1040039,0.0068054,0.2017212,0.0155945,0.3120117,0.0127258l0.4156189-0.0049133l0.0023804,0.2001953l-0.4160156,0.0049133
			C22.6864929,33.8046875,22.6776733,33.8046875,22.6684875,33.8046875L22.6684875,33.8046875z"/>
		<path class="st2" d="M23.3745117,33.6894836l-0.1738281-0.0997009c0.0101929-0.0175171,0.0229187-0.0350952,0.0365906-0.0536804
			c0.0186157-0.0244141,0.0332336-0.0439453,0.0410156-0.0713196l0.0087891-0.0282898l0.0224915-0.0195007
			c0.0693359-0.0596008,0.1259155-0.1278992,0.1855164-0.2002258c0.0312805-0.0380859,0.0629883-0.0761719,0.0977173-0.1151733
			c0.0375671-0.0498047,0.0907898-0.1065063,0.1434937-0.1621094c0.0409851-0.0429993,0.0815735-0.0859985,0.1161804-0.1289978
			l0.069397-0.0809937c0.074707-0.0878906,0.1450195-0.1698914,0.1885071-0.2354126l0.0238953-0.0243835
			c0.0727234-0.0537109,0.1420898-0.1445007,0.203125-0.2236023l0.0600891-0.0713196
			c0.0941772-0.0692749,0.1875-0.1727905,0.243103-0.2460938c0.0479126-0.0449219,0.0874023-0.085907,0.1293945-0.1289062
			c0.0845032-0.085907,0.1801758-0.1835938,0.2753906-0.2479858c0.0581055-0.0567017,0.1245117-0.1163025,0.1841125-0.1700134
			c0.0464172-0.0419922,0.0888977-0.079071,0.1255188-0.1141968c0.0858765-0.0772095,0.1522827-0.1338196,0.218689-0.1894836
			c0.0600891-0.0508118,0.120575-0.1015015,0.194397-0.167511l0.0190125-0.0175171
			c0.0746765-0.0688782,0.1664734-0.1537781,0.2915039-0.2035828c0.1342773-0.1059875,0.2909546-0.1978149,0.4135742-0.2666016
			c0.1185913-0.1026001,0.2554016-0.1949158,0.441925-0.2969055c0.0717773-0.0410156,0.144989-0.0859985,0.2191772-0.1313782
			c0.092804-0.0576172,0.1870117-0.1152039,0.2817993-0.1665344c0.1210938-0.0907898,0.2524109-0.1664734,0.3916016-0.246582
			l0.1347046-0.0786133c0.1742859-0.0892944,0.359375-0.1542664,0.550293-0.2192078
			c0.0645142-0.0336914,0.1557922-0.0692749,0.2528992-0.1073914c0.1016235-0.0395813,0.2071228-0.0805969,0.2940063-0.1259766
			l0.0259094-0.0093079c0.0458984-0.0097046,0.0820007-0.0166016,0.1078796-0.0209961l-0.0004883-0.0112l0.031189-0.0005188
			c0.0035095,0,0.0083008,0,0.0131836,0l0.0152283-0.0004883v0.0010071c0.039978,0.0028992,0.0986023,0.0180969,0.105896,0.0897827
			c0.0087891,0.092804-0.0839844,0.1098938-0.1141968,0.1153259c-0.0230103,0.0038757-0.0577087,0.0101929-0.1044922,0.0199585
			c-0.093811,0.047821-0.1991882,0.0889282-0.3013,0.1289062c-0.0923157,0.0361023-0.1791992,0.0698242-0.2480164,0.105011
			c-0.1968079,0.0678101-0.3746033,0.1299133-0.531311,0.2104187L27.9263,29.7548828
			c-0.1337891,0.0771179-0.2608032,0.1498718-0.3843079,0.2412109c-0.1035156,0.0575867-0.1939087,0.1132812-0.2841797,0.1688843
			c-0.0757141,0.0469055-0.1514282,0.0933228-0.226532,0.1358032c-0.1773071,0.0971069-0.300293,0.1796875-0.4258118,0.285614
			c-0.1352844,0.078186-0.2885742,0.1679688-0.4140625,0.2690735l-0.0283203,0.015625
			c-0.0952148,0.0351868-0.1690063,0.1029968-0.2402039,0.1689148l-0.0205994,0.0185852
			c-0.0765991,0.0683899-0.138092,0.1210938-0.199707,0.1727905c-0.0648804,0.054718-0.1297913,0.1094055-0.2119141,0.1827087
			c-0.0360718,0.0340881-0.0795593,0.0731812-0.1273804,0.1161804c-0.0585938,0.0527039-0.1235962,0.1112976-0.1928711,0.1767273
			c-0.0913391,0.0634766-0.179718,0.1533813-0.2573242,0.2333679c-0.0453796,0.045929-0.0878906,0.0899048-0.1260071,0.124115
			c-0.0673828,0.0908203-0.1679993,0.1932983-0.2597961,0.2626038l-0.031189,0.0400696
			c-0.065918,0.085907-0.1397095,0.1826172-0.2290039,0.2529297c-0.0493164,0.0712891-0.1192017,0.1524048-0.1929016,0.2392883
			l-0.0674133,0.0791016c-0.0365906,0.0448914-0.0805054,0.0917969-0.1254883,0.1386108
			c-0.0477905,0.0508118-0.0957031,0.1006165-0.1346741,0.1524048c-0.0376282,0.0419922-0.0674133,0.0780945-0.097229,0.1142883
			c-0.0570984,0.0692749-0.1162109,0.1405945-0.1889954,0.2070007c-0.0184937,0.0458984-0.0439148,0.0801086-0.063385,0.1063843
			C23.3886719,33.6679688,23.3808899,33.6776733,23.3745117,33.6894836L23.3745117,33.6894836z"/>
		<path class="st1" d="M19.6347961,34.5565796c0.4447937-0.0340881,1.1880188,0.0888977,1.2026062,0.0888977
			c0.0004883,0,0.9789734-0.0263977,0.9789734-0.0263977c0.5137329-0.0545959,0.6250305-0.25,0.7070312-0.3876953
			c0.1894836-0.2929077,0.3212891-0.3973999,0.4667664-0.6170959c0.2354126-0.1777954,0.5668945,0.2265015,0.5821228,0.2265015
			c0.840271,0.7637024,0.1849976,1.718811,0.1405945,1.7481079c-0.4101868,0.3798828-0.4989929,0.4042969-0.7543945,0.1688843
			c-0.2559204-0.2880859-0.3315125-0.4189148-0.5404968-0.5184937c-0.4028931-0.1846008-1.2319946-0.0292969-1.2466125-0.0292969
			c-0.0151062,0-0.4281921,0.1650085-0.4281921,0.1650085c-0.2016907,0.0751648-0.3282166,0.2519836-0.6783142,0.3144836
			c-0.355896,0.0283203-0.4750977-0.0039978-0.6567078-0.2842102
			C19.1664734,35.0438843,19.2792969,34.6044922,19.6347961,34.5565796L19.6347961,34.5565796L19.6347961,34.5565796z"/>
		<path class="st2" d="M21.8554993,35.0487671c0.2225952,0,0.4424133,0.0254211,0.6040039,0.0996094
			c0.1835632,0.0878906,0.2753906,0.1954041,0.4281616,0.375c0.0420227,0.0498047,0.0894165,0.1054993,0.1460266,0.1679993
			c0.1860046,0.1719055,0.210907,0.1943054,0.6112976-0.1757812c0.0365906-0.0390015,0.2695923-0.3916016,0.2519836-0.8164062
			c-0.0121765-0.2929077-0.1425781-0.555603-0.3866882-0.7792969c-0.0122986-0.0097046-0.0244751-0.0215149-0.0381165-0.0351257
			c-0.1855774-0.1826782-0.3232727-0.2490845-0.4091797-0.1992798c-0.0650024,0.0967102-0.1264954,0.1699829-0.1918945,0.2481079
			c-0.0801086,0.0967102-0.1630859,0.1962891-0.2637024,0.3525085c-0.0897827,0.1503601-0.2236023,0.3730774-0.780304,0.4326782
			c-0.0083008,0.0009155-0.9891968,0.0263062-0.9896851,0.0263062l0,0c-0.0014954,0-0.0220032-0.0019226-0.0566101-0.0068054
			c-0.5049133-0.0733032-0.8868103-0.1006165-1.1353149-0.0820007c-0.1343079,0.0195007-0.1996765,0.1044006-0.2304688,0.1737976
			c-0.0672913,0.1494141-0.0379944,0.3486023,0.0762024,0.5195007c0.1532593,0.2362976,0.2270813,0.2676086,0.5653992,0.2402039
			c0.1923828-0.0341187,0.3110962-0.1112976,0.4257812-0.1854858c0.0728149-0.0469055,0.1416016-0.0908203,0.2261047-0.1230164
			c0.4286804-0.1708984,0.4393921-0.1708984,0.4628906-0.1708984
			C21.3495789,35.0810852,21.6044922,35.0487671,21.8554993,35.0487671L21.8554993,35.0487671z M23.2323914,36.0106812
			c-0.1045227,0-0.2090149-0.0566101-0.3412781-0.1786804c-0.0644226-0.0722351-0.1128235-0.1289062-0.1557312-0.1787109
			c-0.1445923-0.1698914-0.2172852-0.2549133-0.3604126-0.3232117c-0.2153015-0.0996094-0.6410828-0.1083984-1.1669617-0.0244141
			c-0.0063171,0.0009155-0.0117188,0.0019226-0.0166321,0.0028992c-0.0370789,0.0117188-0.2348938,0.0889282-0.4110718,0.1592102
			c-0.0658875,0.0253906-0.1231079,0.0625305-0.1895142,0.1044922c-0.1191101,0.0771179-0.2670898,0.172821-0.5087891,0.2158203
			c-0.3911133,0.031189-0.5522156-0.0116882-0.7578125-0.3280945c-0.1517944-0.2276001-0.1870117-0.5000305-0.0917969-0.7120056
			c0.0728149-0.1611023,0.214386-0.2666016,0.3892212-0.2900085l0.0053711-0.0010071
			c0.263092-0.0205078,0.6605835,0.0078125,1.1826172,0.0830078l0.0370789,0.0059204l0.9672852-0.0263977
			c0.4492188-0.047821,0.5444336-0.2070312,0.620636-0.3340149c0.1117859-0.1737976,0.2025757-0.2832031,0.2831726-0.3798218
			c0.0649109-0.078186,0.1264343-0.1513977,0.1894226-0.2470703l0.0229797-0.0244141
			c0.2646179-0.2002258,0.5747375,0.1025085,0.6802368,0.2060242l0.0287781,0.0263977
			c0.3276062,0.2978821,0.485321,0.6708984,0.4549866,1.0780945c-0.032196,0.4355774-0.2705078,0.7909851-0.3255615,0.827179
			C23.5351868,35.8886719,23.3842773,36.0106812,23.2323914,36.0106812L23.2323914,36.0106812z"/>
		<path class="st1" d="M30.3329773,31.0526733c-0.3690796-0.1996765-0.6537781-0.2464905-0.793396-0.1600952
			c-0.1782837-1.2012024-0.3300781-2.4024048-0.5704041-3.6020813c-2.2718811-1.0170898-2.7518921-1.2480164-3.4969788-1.5957031
			c0.3602905-0.2138367,0.543396-0.4331055,0.5370789-0.5952148c1.1470032,0.449707,2.2812195,0.921875,3.4575195,1.3183899
			c2.030304-1.425293,2.4735718-1.717804,3.1513977-2.1782837c0.0087891,0.414093,0.1102905,0.6796875,0.2567749,0.7554016
			c-0.968689,0.7514954-1.9512024,1.4804688-2.8876953,2.2836914
			C30.2289734,29.7211914,30.2655945,30.2445984,30.3329773,31.0526733L30.3329773,31.0526733L30.3329773,31.0526733z"/>
		<path class="st2" d="M29.714386,30.7211914c0.1322937,0,0.2915039,0.0385742,0.4702148,0.1152039l-0.0058899-0.0732422
			c-0.0541992-0.6601562-0.1099243-1.3422852-0.3208008-3.4716797l-0.0063171-0.0673828l0.051178-0.0439148
			c0.7242432-0.6210938,1.4868164-1.2070923,2.2250977-1.7734985c0.1817017-0.1401062,0.3643188-0.2796936,0.545929-0.4203796
			c-0.085907-0.1157227-0.1434937-0.2895203-0.1699219-0.5117188l-0.0634766,0.0429993
			c-0.5537109,0.375-1.1269226,0.7632141-2.8988953,2.0068054l-0.0537109,0.0375977l-0.0625-0.0209961
			c-0.9102173-0.3065796-1.8091125-0.6640015-2.6777039-1.0093079c-0.2154236-0.085907-0.4306946-0.1712952-0.6464844-0.2562866
			c-0.058136,0.1308899-0.1812134,0.2670898-0.3628235,0.3999023l0.0682983,0.032196
			c0.6083984,0.284668,1.2373047,0.5785828,3.2159119,1.4644165l0.0610046,0.027771l0.0131836,0.0654297
			c0.1855164,0.9282837,0.3212891,1.871582,0.4515991,2.7836914c0.0328369,0.2255859,0.065033,0.4506836,0.0977173,0.6762695
			C29.6679993,30.7226868,29.6908875,30.7211914,29.714386,30.7211914L29.714386,30.7211914z M30.4823914,31.2812805
			l-0.2113953-0.1142883c-0.3905945-0.2113953-0.6005859-0.2026062-0.6631165-0.1641235l-0.1679993,0.1045227l-0.0287781-0.1958008
			c-0.0410156-0.2749023-0.0805054-0.5503235-0.1201172-0.8257141c-0.1268921-0.8871765-0.2583008-1.8036804-0.4364929-2.7041016
			c-1.9316101-0.8652039-2.5552063-1.1567078-3.1577148-1.4388733l-0.5025024-0.2344055l0.2115173-0.1255188
			c0.3797913-0.2255859,0.4765015-0.4067078,0.4736023-0.4779968l-0.0078125-0.1987l0.1850281,0.0722046
			c0.2626648,0.1029968,0.5248718,0.207489,0.7866821,0.3114929c0.8461914,0.3365173,1.7201843,0.6841125,2.6029968,0.983429
			c1.7314148-1.2148132,2.2987976-1.5991211,2.8485718-1.9712219l0.4483032-0.3041992l0.0048218,0.2392883
			c0.0097961,0.4356079,0.1221008,0.6089172,0.186615,0.6426086l0.1805725,0.093689l-0.1611023,0.1245117
			c-0.2216797,0.1723938-0.445282,0.3432922-0.6679993,0.514679c-0.7176819,0.5508118-1.4589844,1.1201172-2.1625977,1.7207031
			c0.2055969,2.078125,0.2608032,2.7539062,0.3139954,3.4077148L30.4823914,31.2812805L30.4823914,31.2812805z"/>
	</g>
</g>
</svg>
