<?xml version="1.0" encoding="utf-8"?>
<!-- Generator: Adobe Illustrator 22.1.0, SVG Export Plug-In . SVG Version: 6.00 Build 0)  -->
<svg version="1.1" id="Layer_1" xmlns="http://www.w3.org/2000/svg" xmlns:xlink="http://www.w3.org/1999/xlink" x="0px" y="0px"
	 viewBox="0 0 60 60" style="enable-background:new 0 0 60 60;" xml:space="preserve">
<style type="text/css">
	.st0{clip-path:url(#SVGID_2_);fill:#FFFFFF;}
	.st1{clip-path:url(#SVGID_2_);fill:#264697;}
</style>
<g id="XMLID_1_">
	<g>
		<defs>
			<path id="SVGID_1_" d="M59,60H0.9999695C0.4477234,60,0,59.5526733,0,59V0.9999695c0-0.5522461,0.4477234-1,0.9999695-1H59
				c0.5526886,0,0.9999847,0.4477539,0.9999847,1V59C59.9999847,59.5526733,59.5526886,60,59,60"/>
		</defs>
		<clipPath id="SVGID_2_">
			<use xlink:href="#SVGID_1_"  style="overflow:visible;"/>
		</clipPath>
		<polyline class="st0" points="-11.25,-0.0000305 71.2499847,-0.0000305 71.2499847,60 -11.25,60 -11.25,-0.0000305 		"/>
		<polygon class="st1" points="-11.25,5.6249695 71.2499847,5.6249695 71.2499847,14.9999695 -11.25,14.9999695 -11.25,5.6249695 		
			"/>
		<polygon class="st1" points="-11.25,44.9999695 71.2499847,44.9999695 71.2499847,54.375 -11.25,54.375 -11.25,44.9999695 		"/>
		<path class="st0" d="M37.8397827,34.5263672h-4.1438904l2.0720215-3.5888062L37.8397827,34.5263672 M26.3041077,34.5263672
			h-4.1439209l2.0718994-3.5888062L26.3041077,34.5263672 M32.071991,24.5361023H27.928009L30,20.9472656L32.071991,24.5361023"/>
		<path class="st1" d="M22.1601868,34.5263672h15.6795959L30,20.9472656L22.1601868,34.5263672 M41.0878906,36.4013672h-22.175293
			L30,17.1972656L41.0878906,36.4013672"/>
		<path class="st0" d="M30,40.9277039l-2.6133118-4.5263367h5.2266235L30,40.9277039 M23.1495972,29.0626831l-2.6134949-4.5265808
			h5.2268066L23.1495972,29.0626831 M36.8505859,29.0624084l-2.6134033-4.5263062h5.2266846L36.8505859,29.0624084"/>
		<polyline class="st0" points="33.6958923,34.5263672 26.3041077,34.5263672 24.2320862,30.937561 27.928009,24.5361023 
			32.071991,24.5361023 35.7679138,30.937561 33.6958923,34.5263672 		"/>
		<path class="st1" d="M32.6133118,36.4013672h-5.2266235l-1.0825806-1.875h7.3917847L32.6133118,36.4013672 M24.2320862,30.937561
			l-1.082489-1.8748779l2.6133118-4.5265808h2.1651001L24.2320862,30.937561 M35.7679138,30.937561l-3.6959229-6.4014587h2.1651917
			l2.6134033,4.5263062L35.7679138,30.937561"/>
		<path class="st1" d="M22.1601868,25.4736023L30,39.0527039l7.8397827-13.5791016H22.1601868L22.1601868,25.4736023z
			 M30,42.8027039L18.9125977,23.5986023h22.175293L30,42.8027039L30,42.8027039z"/>
	</g>
</g>
</svg>
