<?xml version="1.0" encoding="utf-8"?>
<!-- Generator: Adobe Illustrator 22.1.0, SVG Export Plug-In . SVG Version: 6.00 Build 0)  -->
<svg version="1.1" id="Layer_1" xmlns="http://www.w3.org/2000/svg" xmlns:xlink="http://www.w3.org/1999/xlink" x="0px" y="0px"
	 viewBox="0 0 60 60" style="enable-background:new 0 0 60 60;" xml:space="preserve">
<style type="text/css">
	.st0{clip-path:url(#SVGID_2_);fill:#FFFFFF;}
	.st1{clip-path:url(#SVGID_2_);fill:#020203;}
	.st2{clip-path:url(#SVGID_2_);fill:#037B3E;}
	.st3{clip-path:url(#SVGID_2_);fill:#CE1327;}
</style>
<g id="XMLID_1_">
	<g>
		<defs>
			<path id="SVGID_1_" d="M59,60H0.9999695C0.4477234,60,0,59.5526733,0,59V0.9999695c0-0.5522461,0.4477234-1,0.9999695-1H59
				c0.5526886,0,0.9999847,0.4477539,0.9999847,1V59C59.9999847,59.5526733,59.5526886,60,59,60L59,60z"/>
		</defs>
		<clipPath id="SVGID_2_">
			<use xlink:href="#SVGID_1_"  style="overflow:visible;"/>
		</clipPath>
		<polygon class="st0" points="0,-0.0000305 120,-0.0000305 120,60 0,60 0,-0.0000305 		"/>
		<polygon class="st1" points="0,-0.0000305 120,-0.0000305 120,20 0,20 0,-0.0000305 		"/>
		<polygon class="st2" points="0,39.9999695 120,39.9999695 120,60 0,60 0,39.9999695 		"/>
		<path class="st3" d="M18.5355835,25.714386l-0.9287109,2.3569031l-2.4164734-0.7378235l1.2616882,2.1904297l-2.0951843,1.4281921
			l2.512207,0.3808899l-0.1903992,2.5244141l1.8568726-1.7148132l1.8692017,1.7148132l-0.1903992-2.5244141l2.5-0.3808899
			l-2.0834961-1.4281921l1.2621765-2.1904297l-2.4169922,0.7378235L18.5355835,25.714386L18.5355835,25.714386z
			 M59.9999847,29.9999695L0,60V-0.0000305"/>
	</g>
</g>
</svg>
