<?xml version="1.0" encoding="utf-8"?>
<!-- Generator: Adobe Illustrator 22.1.0, SVG Export Plug-In . SVG Version: 6.00 Build 0)  -->
<svg version="1.1" id="Layer_1" xmlns="http://www.w3.org/2000/svg" xmlns:xlink="http://www.w3.org/1999/xlink" x="0px" y="0px"
	 viewBox="0 0 60 60" style="enable-background:new 0 0 60 60;" xml:space="preserve">
<style type="text/css">
	.st0{clip-path:url(#SVGID_2_);fill:#00B0CB;}
	.st1{clip-path:url(#SVGID_2_);fill:#FDC511;}
	.st2{clip-path:url(#SVGID_2_);fill:none;stroke:#00B0CB;stroke-width:0.381;}
</style>
<g id="XMLID_1_">
	<g>
		<defs>
			<path id="SVGID_1_" d="M59,60H0.9999695C0.4477234,60,0,59.5526733,0,59V0.9999695c0-0.5522461,0.4477234-1,0.9999695-1H59
				c0.5526886,0,0.9999847,0.4477539,0.9999847,1V59C59.9999847,59.5526733,59.5526886,60,59,60L59,60z"/>
		</defs>
		<clipPath id="SVGID_2_">
			<use xlink:href="#SVGID_1_"  style="overflow:visible;"/>
		</clipPath>
		<polygon class="st0" points="0,-0.0000305 120,-0.0000305 120,60 0,60 0,-0.0000305 		"/>
		<path class="st1" d="M35,17.1269836c4.4589844,0,8.0731812,3.6141968,8.0731812,8.0732117
			c0,4.4584656-3.6141968,8.0731812-8.0731812,8.0731812c-4.4585266,0-8.0728149-3.6147156-8.0728149-8.0731812
			C26.9271851,20.7411804,30.5414734,17.1269836,35,17.1269836L35,17.1269836z"/>
		<path class="st1" d="M35,16.0258789c0.4804993-0.0058899,0.6601868-0.3056946,0.6601868-0.6659851
			C35.6601868,14.8798828,35,12.5941772,35,12.5941772s-0.6602173,2.2857056-0.6602173,2.7657166
			C34.3397827,15.7201843,34.5195007,16.0258789,35,16.0258789L35,16.0258789z"/>
		<path class="st1" d="M44.1737976,25.2001953c0.0058899,0.4799805,0.3067017,0.6596985,0.6659851,0.6596985
			c0.4804993,0,2.7666016-0.6596985,2.7666016-0.6596985s-2.2861023-0.6602173-2.7666016-0.6602173
			C44.4804993,24.539978,44.1737976,24.7201843,44.1737976,25.2001953L44.1737976,25.2001953z"/>
		<path class="st1" d="M35,34.3739929c-0.4804993,0.0058899-0.6602173,0.3056946-0.6602173,0.6659851
			c0,0.4795227,0.6602173,2.765686,0.6602173,2.765686s0.6601868-2.2861633,0.6601868-2.765686
			C35.6601868,34.6796875,35.4804993,34.3739929,35,34.3739929L35,34.3739929z"/>
		<path class="st1" d="M25.8261719,25.2001953c-0.0063782-0.480011-0.3061829-0.6602173-0.6659851-0.6602173
			c-0.4799805,0-2.7662048,0.6602173-2.7662048,0.6602173s2.2862244,0.6596985,2.7662048,0.6596985
			C25.519989,25.8598938,25.8261719,25.6801758,25.8261719,25.2001953L25.8261719,25.2001953z"/>
		<path class="st1" d="M38.5106812,16.7240601c0.4454346,0.1782227,0.7266235-0.0297852,0.8643188-0.3622742
			c0.1835938-0.4438171,0.4491882-2.8081055,0.4491882-2.8081055s-1.4844055,1.859375-1.6678772,2.3027039
			C38.0186157,16.1889648,38.0673828,16.5404663,38.5106812,16.7240601L38.5106812,16.7240601z"/>
		<path class="st1" d="M43.4755859,28.710907c-0.1776733,0.4457703,0.030304,0.7265625,0.3633118,0.8642578
			c0.4432983,0.1841125,2.8075867,0.4487305,2.8075867,0.4487305s-1.8594055-1.484314-2.3026733-1.6679077
			C44.0106812,28.2182922,43.6591797,28.2670593,43.4755859,28.710907L43.4755859,28.710907z"/>
		<path class="st1" d="M31.4892883,33.6757812c-0.4454041-0.1786804-0.7271118,0.030304-0.8648071,0.3623047
			c-0.1835938,0.4432983-0.4486694,2.8085938-0.4486694,2.8085938s1.484375-1.8594055,1.6679688-2.3027954
			C31.9813843,34.2108765,31.9325867,33.859375,31.4892883,33.6757812L31.4892883,33.6757812z"/>
		<path class="st1" d="M26.5243835,21.6894836c0.1782227-0.4458008-0.030304-0.7270813-0.362793-0.8648071
			c-0.4432983-0.1835938-2.8081055-0.4487-2.8081055-0.4487s1.8594055,1.4844055,2.3027954,1.6679077
			C25.9892883,22.1820984,26.3407898,22.132782,26.5243835,21.6894836L26.5243835,21.6894836z"/>
		<path class="st1" d="M41.4873047,18.7128906c0.3437805,0.3353882,0.6825867,0.2504883,0.9375-0.0039368
			c0.3388977-0.3398438,1.4892883-2.4228821,1.4892883-2.4228821s-2.0830078,1.1499329-2.4229126,1.4893188
			C41.2362671,18.0297852,41.1474915,18.3735046,41.4873047,18.7128906L41.4873047,18.7128906z"/>
		<path class="st1" d="M41.4873047,31.6864929c-0.3359375,0.3437805-0.2510376,0.6835938,0.0038757,0.9384766
			c0.3399048,0.3389282,2.4229126,1.4893188,2.4229126,1.4893188s-1.1503906-2.0840149-1.4892883-2.4229126
			C42.1698914,31.4364624,41.8262024,31.3476868,41.4873047,31.6864929L41.4873047,31.6864929z"/>
		<path class="st1" d="M28.5132141,31.6864929c-0.3438416-0.3348999-0.683136-0.2500305-0.9380493,0.0048828
			c-0.3393555,0.3388977-1.4887695,2.4229126-1.4887695,2.4229126s2.0829773-1.1503906,2.4223938-1.4893188
			C28.7631836,32.3700867,28.852478,32.0263977,28.5132141,31.6864929L28.5132141,31.6864929z"/>
		<path class="st1" d="M28.5132141,18.7128906c0.3348694-0.3437805,0.2499695-0.6831055-0.004425-0.9375
			c-0.3394165-0.339386-2.4223938-1.4893188-2.4223938-1.4893188s1.1494141,2.0830383,1.4887695,2.4228821
			C27.8300781,18.9633789,28.1737976,19.0521851,28.5132141,18.7128906L28.5132141,18.7128906z"/>
		<path class="st1" d="M43.4755859,21.6894836c0.1893921,0.4408875,0.5350952,0.4926147,0.8682251,0.3544006
			c0.4432678-0.1835022,2.3026733-1.6679077,2.3026733-1.6679077s-2.3642883,0.2651062-2.8075867,0.4487
			C43.5058899,20.9624023,43.2919922,21.245575,43.4755859,21.6894836L43.4755859,21.6894836z"/>
		<path class="st1" d="M38.5106812,33.6757812c-0.4414062,0.1893921-0.4920654,0.5350952-0.3543701,0.868103
			c0.1834717,0.4433899,1.6678772,2.3027954,1.6678772,2.3027954S39.5585938,34.4813843,39.375,34.0380859
			C39.2373047,33.7060852,38.954071,33.492157,38.5106812,33.6757812L38.5106812,33.6757812z"/>
		<path class="st1" d="M26.5243835,28.710907c-0.1893921-0.4414368-0.5350952-0.4926147-0.868103-0.3549194
			c-0.4433899,0.1835938-2.3027954,1.6679077-2.3027954,1.6679077s2.3648071-0.2646179,2.8081055-0.4487305
			C26.4940796,29.4374695,26.7079773,29.1542664,26.5243835,28.710907L26.5243835,28.710907z"/>
		<path class="st1" d="M31.4892883,16.7240601c0.4414062-0.1888733,0.4920959-0.5350952,0.3544922-0.8676758
			c-0.1835938-0.4433289-1.6679688-2.3027039-1.6679688-2.3027039s0.2650757,2.3642883,0.4486694,2.8081055
			C30.7621765,16.6942749,31.0458984,16.9081726,31.4892883,16.7240601L31.4892883,16.7240601z"/>
		<path class="st1" d="M36.789978,16.2020874c0.4717102,0.0878906,0.7071228-0.1712952,0.7774353-0.5244141
			c0.093689-0.4706726-0.108429-2.8413086-0.108429-2.8413086s-1.0927734,2.1133118-1.1864929,2.5840149
			C36.2020874,15.7733765,36.3193054,16.1083679,36.789978,16.2020874L36.789978,16.2020874z"/>
		<path class="st1" d="M43.9979858,26.9896851c-0.0877991,0.4721985,0.1708984,0.7070923,0.5245056,0.7774048
			c0.4707031,0.093689,2.8417969-0.1079102,2.8417969-0.1079102s-2.1143188-1.0932922-2.5849915-1.1870117
			C44.4267883,26.4022827,44.0917969,26.5189819,43.9979858,26.9896851L43.9979858,26.9896851z"/>
		<path class="st1" d="M33.2099915,34.1972961c-0.4717102-0.0869141-0.7071228,0.1717834-0.7774048,0.5243835
			c-0.0937195,0.4717102,0.1083984,2.8417969,0.1083984,2.8417969s1.092804-2.1133118,1.1864929-2.5839844
			C33.7978821,34.6269836,33.6806641,34.2909851,33.2099915,34.1972961L33.2099915,34.1972961z"/>
		<path class="st1" d="M26.0024109,23.4101868c0.0873718-0.4717102-0.1712952-0.7071228-0.5244141-0.7774048
			C25.0067749,22.5395813,22.6362,22.7406921,22.6362,22.7406921s2.1132812,1.0932922,2.5839844,1.1869812
			C25.5732117,23.9979858,25.9086914,23.8808899,26.0024109,23.4101868L26.0024109,23.4101868z"/>
		<path class="st1" d="M40.0966797,17.5722656c0.4023132,0.2617188,0.7187195,0.1123047,0.9189148-0.1869812
			c0.2666016-0.3995056,0.9882812-2.6669922,0.9882812-2.6669922s-1.8193054,1.5340881-2.085907,1.9335938
			C39.717804,16.9511719,39.6972961,17.3056641,40.0966797,17.5722656L40.0966797,17.5722656z"/>
		<path class="st1" d="M42.6278687,30.296875c-0.2616577,0.4023132-0.1122742,0.7187195,0.1875,0.9189148
			c0.3984985,0.2666016,2.6660156,0.9873047,2.6660156,0.9873047s-1.5340881-1.8183289-1.9325867-2.0849304
			C43.2489624,29.9179688,42.8944702,29.8974609,42.6278687,30.296875L42.6278687,30.296875z"/>
		<path class="st1" d="M29.9032898,32.828064c-0.4023132-0.2616882-0.718689-0.1122742-0.9189148,0.1865234
			c-0.2666016,0.3995056-0.987793,2.6669922-0.987793,2.6669922s1.8188171-1.5340881,2.0854187-1.9335938
			C30.2816772,33.4491882,30.3021851,33.0946655,29.9032898,32.828064L29.9032898,32.828064z"/>
		<path class="st1" d="M27.3721008,20.1029663c0.2616882-0.4022827,0.1122742-0.718689-0.1870117-0.918396
			c-0.3989868-0.2666016-2.6664734-0.9883118-2.6664734-0.9883118s1.5340576,1.8188171,1.933075,2.0854187
			C26.7510071,20.4818726,27.1054993,20.5023804,27.3721008,20.1029663L27.3721008,20.1029663z"/>
		<path class="st1" d="M42.6278687,20.1029663c0.2715149,0.3960266,0.6210938,0.3789062,0.920929,0.1787109
			c0.3984985-0.2666016,1.9325867-2.0854187,1.9325867-2.0854187s-2.2675171,0.7217102-2.6660156,0.9883118
			C42.5155945,19.3842773,42.3612671,19.7041016,42.6278687,20.1029663L42.6278687,20.1029663z"/>
		<path class="st1" d="M40.0966797,32.828064c-0.3955078,0.2715149-0.3788757,0.6211243-0.1787109,0.9199219
			c0.2666016,0.3995056,2.085907,1.9335938,2.085907,1.9335938s-0.7216797-2.2674866-0.9882812-2.6669922
			C40.8153992,32.7157898,40.4960938,32.5614624,40.0966797,32.828064L40.0966797,32.828064z"/>
		<path class="st1" d="M27.3721008,30.296875c-0.2715149-0.3959961-0.6210938-0.3789062-0.9204102-0.1787109
			c-0.3990173,0.2666016-1.933075,2.0849304-1.933075,2.0849304s2.2674866-0.7207031,2.6664734-0.9873047
			C27.484375,31.0155945,27.6387024,30.6957703,27.3721008,30.296875L27.3721008,30.296875z"/>
		<path class="st1" d="M29.9032898,17.5722656c0.3955078-0.2719727,0.3783875-0.6210938,0.1787109-0.9203796
			c-0.2666016-0.3995056-2.0854187-1.9335938-2.0854187-1.9335938s0.7211914,2.2674866,0.987793,2.6669922
			C29.1846008,17.6845703,29.5038757,17.8388672,29.9032898,17.5722656L29.9032898,17.5722656z"/>
		<path class="st1" d="M43.9979858,23.4101868c0.0997009,0.469696,0.4288025,0.5877991,0.781311,0.5174866
			c0.4706726-0.093689,2.5849915-1.1869812,2.5849915-1.1869812s-2.3710938-0.2011108-2.8417969-0.1079102
			C44.1688843,22.703064,43.9042969,22.9394836,43.9979858,23.4101868L43.9979858,23.4101868z"/>
		<path class="st1" d="M36.789978,34.1972961c-0.469696,0.0996094-0.5878906,0.4296875-0.5174866,0.782196
			c0.0937195,0.4706726,1.1864929,2.5839844,1.1864929,2.5839844s0.2021179-2.3700867,0.108429-2.8417969
			C37.4971008,34.3690796,37.2606812,34.1044617,36.789978,34.1972961L36.789978,34.1972961z"/>
		<path class="st1" d="M26.0024109,26.9896851c-0.0996094-0.469696-0.4291992-0.5874023-0.7822266-0.5175171
			C24.7494812,26.5658875,22.6362,27.6591797,22.6362,27.6591797s2.370575,0.2015991,2.8417969,0.1079102
			C25.8311157,27.6967773,26.0956726,27.4603882,26.0024109,26.9896851L26.0024109,26.9896851z"/>
		<path class="st1" d="M33.2099915,16.2020874c0.469696-0.0996094,0.5878906-0.4287109,0.5174866-0.7817078
			c-0.093689-0.4707031-1.1864929-2.5840149-1.1864929-2.5840149s-0.2021179,2.370636-0.1083984,2.8413086
			C32.5028687,16.0307922,32.7392883,16.2958679,33.2099915,16.2020874L33.2099915,16.2020874z"/>
		<path class="st1" d="M33.5791016,42.6884766c-0.2157898,0.0116882-0.4258118,0.0390015-0.6318054,0.1054077
			c-0.2823181,0.0381165-0.5518188,0.1358032-0.8320923,0.1816711l-0.1123047,0.0185242l-0.1875,0.0176086
			c0.0116882,0.0527954,0.0195923,0.1044922,0.0195923,0.156311c0,0.0536804-0.0059204,0.1063843-0.0195923,0.1503601
			c-0.0127258,0.0420227-0.0508118,0.0937195-0.0800171,0.125946c-0.0401001,0.0439758-0.0820923,0.0820618-0.131897,0.1054688
			c-0.0487976,0.0244141-0.1025085,0.0342102-0.156189,0.0380859c-0.054718,0.0019226-0.1104126,0-0.1621094-0.0194702
			c-0.0538025-0.0186157-0.1044922-0.0528259-0.1504211-0.092804c-0.0556946,0.0146179-0.1132812,0.0243835-0.1674805,0.0302734
			c-0.0561829,0.0058289-0.1083984,0.0058289-0.1582031,0c-0.0561829-0.0156555-0.1138-0.0341797-0.1679993-0.0556946
			c-0.0541992-0.0224915-0.1063843-0.0498047-0.156189-0.0820007c-0.2035828,0.1201172-0.4317017,0.233429-0.5557251,0.4432983
			c-0.070282,0.0967102-0.0839844,0.2061157-0.1000671,0.3203125c-0.0103149,0.1407166,0.0259094,0.2881165,0.085907,0.4179993
			c0.0220032,0.0381165,0.0400696-0.1376953,0.1078796-0.1621094c0.1142883-0.0937805,0.2563782-0.1620789,0.3999939-0.1991882
			c0.1220093-0.0625,0.1059265,0.0039062,0.0561218,0.0995789c-0.0117188,0.0498047-0.0801086,0.2402344,0.0121765,0.1435242
			c0.4058228-0.1795959,0.8554993-0.2157898,1.2940063-0.25c0.6356812-0.0653992,1.273407-0.0799866,1.9121094-0.0877991
			c0.5996094,0.0078125,1.2001953,0.0166016,1.7997742,0.0379944c0.2861328,0.0078125,0.5742188,0.0722961,0.8564148,0.0245056
			c0.0674133-0.0185852,0.1737976-0.0224915,0.2138977-0.0625C36.4395142,44.0194702,36.289093,44.0175781,36.1474915,44h-1.1445923
			c-0.3174133-0.032196-0.6494141-0.0361328-0.9502258-0.1562195c-0.0799866-0.0323181-0.1532898-0.1074829-0.2294922-0.0253906
			c-0.1141968,0.039978-0.2362976,0.0672913-0.3564148,0.0751953c-0.2099609,0.016571-0.4198608-0.0274048-0.6132812-0.1054993
			c0.1397095-0.1943054,0.3076172-0.3642883,0.4619141-0.5440063c-0.1240234-0.0204773-0.2441101-0.0458984-0.368103-0.0760803
			C33.164978,43.0175781,33.3671875,42.8476868,33.5791016,42.6884766L33.5791016,42.6884766L33.5791016,42.6884766z"/>
		<path class="st1" d="M30.4790039,43.3056946c0.3388977,0.3104858,0.5756836-0.0585938,0.8920898-0.1924133
			c1.0614929-0.3652954,1.9883118-1.0039062,2.9013977-1.640625c0.5527039-0.4580688,1.032196-1.0517883,1.7753906-1.2001648
			c1.4492188-0.4385071,2.9902039-0.3848267,4.4453125-0.7901001c1.1073914-1.5166016,2.9891968-2.0576172,4.5653992-2.9296875
			c0.3544922-0.109314,0.4911804-0.4013062,0.6035156-0.7226257c0.602478-0.9501953,1.421875-1.7909851,2.3905945-2.3662109
			c0.4589844-0.2509766,1.0058899-0.3945618,1.5253906-0.2802734c-0.0371094,0.6181946-0.3916016,1.1659851-0.8203125,1.593689
			c0.3505859-0.007782,0.6524048-0.2284851,1.0059204-0.2167969c0.1219788,0.6347961-0.5635071,0.967804-0.9287109,1.3623962
			c0.2030945,0.0477905,0.9814148,0.1063843,0.5575867,0.3094788c-0.5400696,0.375-1.157196,0.6328125-1.6562805,1.0684204
			c0.4599915,0.0820007,0.5126953,0.180603,0.0449829,0.3467102c-0.2539978,0.171814-0.7402954,0.2313843-0.7881165,0.5664062
			c0.3476257,0.2138062-0.1601868,0.4256897-0.3554688,0.4950867c-0.375,0.0868835-0.7686157,0.2499695-0.2705078,0.5341797
			c-0.1885071,0.2841187-0.5917969,0.3447266-0.921875,0.3173218c0.1005554,0.3222961,0.2450867,0.6826782-0.172821,0.8243103
			c-0.9375,0.7089844-2.0381165,1.2246094-3.2159119,1.3427124c1.4717102,0.1122742,2.9882812-0.1601257,4.2460938-0.9609375
			c0.1661072-0.1962891,1.0371094-0.407196,0.5498047-0.5722656c-0.2294922-0.0957031-0.7207031-0.2021179-0.7538757-0.3769226
			c0.6806641-0.4198914,1.5390625-0.2704773,2.2724915-0.5205078c0.0184937-0.2373047-0.5576172-0.1708984-0.7724915-0.2255859
			c-0.5126953-0.0420227-0.4824219-0.1719055,0.0118103-0.2207336c0.6249695-0.1659851,1.3329773-0.1982727,1.8592834-0.6064758
			c-0.4277039-0.1982117-0.9667969-0.023407-1.4237976-0.1854858c0.7744141-0.3388977,1.6885071-0.3731079,2.3838043-0.8818054
			c0.3164062-0.3526001-0.4063263-0.242218-0.6161957-0.233429c-0.4287109,0.0742188-0.6270142-0.1308899-0.13974-0.3095703
			c0.8321381-0.6133118,1.8858185-1.0117188,2.4707336-1.9014282c0.1376953-0.1991882,0.3251953-0.7987671-0.1162262-0.5829773
			c-0.5809784,0.1923828-1.0917969,0.8457031-1.7538757,0.6435852c1.3047028-1.0107727,2.5448914-2.1611938,3.4364929-3.5596008
			c0.0458984-0.4032898-0.5869141-0.4472961-0.7519073-0.1308899c-0.8378906,0.8077087-1.5967102,1.7608032-2.6690063,2.2666016
			c1.02742-0.9911804,1.8770294-2.1659851,2.6182098-3.3822937c0.1582031-0.3618164,0.5849915-0.7973022,0.3534851-1.1991882
			c-0.3729706-0.3091125-0.8407898-0.0259094-1.03508,0.3441772c-0.6503906,0.8500977-1.1455078,1.8423157-1.9825287,2.5351868
			c0.7325134-1.3993835,1.492218-2.8891907,1.5108185-4.5028992c-0.0028992-0.3325806-0.0694122-0.8218079-0.5204926-0.7597656
			c-0.3573914,0.0639648-0.272522,0.5995789-0.4199066,0.8700867c-0.3251953,1.1026001-0.4776001,2.2969055-1.1436157,3.262207
			c0.1504211-0.8960266,0.4121246-1.8301086,0.210907-2.7348022c-0.093689-0.4042969-0.7470093-0.230011-0.6629639,0.1698914
			c-0.7803345,3.9521179-3.4317322,7.407196-6.8995056,9.407196c-1.5879211,0.898407-3.3613281,1.4775085-5.1660156,1.7402039
			c-0.4852905,0.1054993-1.0096741,0.0440063-1.4736023,0.2090149c-1.1239929,0.8622742-1.8046875,2.3046875-3.2284851,2.7558899
			c-0.6376953,0.3173828-1.4698181,0.3818054-1.9258118,0.9746094
			C30.4857788,43.1337585,30.4775085,43.2216797,30.4790039,43.3056946 M42.9229126,44.7606812
			c-0.4346313,0.2608032-0.7666321-0.2020874-1.1299438-0.3407898c-0.2587585,0.141571-0.2831726,0.6123047-0.5263672,0.8359985
			c-0.2900085,0.3300171-0.6455078-0.0918274-0.6191101-0.4179993c-0.3466797,0.2929993-0.5215149,0.9551086-1.0830078,0.8671875
			c-0.265686-0.2167969-0.4628906-0.6728821-0.6661072-0.1542969c-0.1659851,0.2539062-0.6073914,0.6141968-0.8348999,0.2314148
			c-0.0712891-0.3379211-0.2402954-0.735321-0.4238892-0.1982117c-0.125885,0.3789062-0.5312195,0.6581726-0.9227905,0.4921875
			c-0.2148132-0.1747742,0.171875-0.8233032-0.101593-0.7773743c-0.407196,0.2695618-0.6445007,0.9394836-1.2138062,0.8857727
			c-0.2217102-0.2480774,0.1337891-0.6689758-0.1083984-0.9443665c-0.2861938,0.367157-0.6045227,0.9052734-1.0996094,0.9443665
			c-0.2392883-0.1943665,0.0097046-0.75-0.1426086-0.8320923c-0.5087891,0.3046875-1.0448914,0.8477173-1.6835938,0.6778259
			c0.2490234-0.9532166,1.289978-1.2871399,2.1650085-1.3614197c1.5048828-0.1845093,3.0888977,0.155304,4.5371094-0.3876038
			c0.2333679-0.1426086,0.8007812-0.3447876,0.5986938-0.6748962c-0.1787109-0.2607117,0.4657898-0.1591187,0.5273132-0.4638062
			c-0.0381165-0.3858032,0.2958984-0.3320923,0.6220703-0.3662109c1.4629211-0.0634766,2.907196,0.2451172,4.3652039,0.296814
			c0.1104126,0.7109985-0.6776733,1.2099915-1.3125,0.9902954c-0.3026733,0.0487976-0.7578125-0.6972961-0.6688843-0.1542969
			C43.140564,44.1943054,43.1835938,44.570282,42.9229126,44.7606812"/>
		<path class="st1" d="M34.7392883,39.296875c-0.2099915,0.3818054-0.3339844,0.8193054-0.6036072,1.1611023
			c-0.8125-0.7391968-1.9902039-0.7147827-3.0213928-0.7645874c-0.8500977-0.0450134-1.7754211-0.1231079-2.4335938-0.7304993
			c-0.6918945-0.5664368-1.2573853-1.3027039-2.0307922-1.7637024c-0.7061157-0.1914062-1.4179993-0.4316101-1.9858093-0.9160156
			c-1.2133789-0.9883118-1.9082031-2.4560852-3.0933228-3.4755859c-0.2260742-0.2225952-0.4926758-0.3955078-0.7460938-0.5839844
			c-0.2401733,0.0585938-0.1312866,0.578186-0.4258118,0.3134766c-0.160553-0.1141968-0.5609741-0.125-0.5970764,0.0342102
			c0.3623047,0.4775085,0.7251282,1.0224915,0.7752991,1.6337891c-0.2470093,0.0253906-0.6865234-0.0527954-0.8089905,0.0400085
			c0.3280945,0.4912109,0.7489929,0.9277954,1.2269897,1.2753906c-0.2294922,0.0371094-0.6811218,0.0166016-0.7690125,0.1094055
			c0.4746094,0.3867188,0.983429,0.782196,1.605011,0.8807983c0.1269226,0.1679993-0.1860962,0.4921875,0.0771179,0.6347961
			c0.152771,0.0625,0.6566772,0.1669922,0.3096008,0.3407898c-0.2383118,0.1601868-0.1499023,0.5342102,0.1547852,0.5263977
			c0.1927795,0.0977173,0.625,0.1221313,0.6586914,0.2929993c-0.1705017,0.172821-0.7016907,0.3789062-0.2496033,0.5419922
			c0.4223938,0.2343445,0.9038086,0.3867188,1.3862915,0.4033203c-0.2421875,0.2030945-0.5400696,0.3182983-0.7895813,0.5107117
			c1.1132812,0.6524048,2.3471985,1.0810852,3.5664062,1.4950867c0.4853821,0.1621094,0.9760742,0.3135071,1.4794922,0.4082031
			c-1.4623718-0.0838928-2.8754883-0.5175171-4.2070007-1.109314c-0.6900024-0.3027649-1.3853149-0.5956726-2.0922852-0.8564758
			c0.3100891-0.1611023,0.6688843-0.2002258,0.9902039-0.3397827c-0.6674194-0.1338501-1.3969116-0.1778259-1.9839172-0.5449219
			c0.0899048-0.1602173,0.4312134-0.1679993,0.6196899-0.25c0.3544922-0.0849915,0.5747375-0.1875,0.074707-0.218811
			c-0.5043945-0.1367188-1.0829773-0.0751953-1.5273743-0.3798828c0.0287781-0.1826172,0.4936829-0.118103,0.683075-0.1972046
			c0.2388-0.0411072,0.5039978-0.0752258,0.694397-0.2363892c-0.7792969-0.3232117-1.7992859-0.0937195-2.4096985-0.7822266
			C19.125,36.4872742,19.703064,36.6991882,19.8677063,36.655304c0.4183655,0,0.8680725,0.1327515,1.266571-0.0362244
			c-1.1362915-0.4979858-2.3529968-0.9657898-3.2192688-1.8876953c-0.0962219-0.148407-0.3842163-0.5536804-0.151825-0.6034851
			c0.6742859,0.0888672,1.1626282,0.8251953,1.8838196,0.7099915c0.0956726-0.1289062-0.4190063-0.3408203-0.5479126-0.5254211
			c-1.0512085-0.9023132-2.0722046-1.8817749-2.8091125-3.0635071c-0.0506897-0.394989,0.5699158-0.454071,0.7329102-0.1493835
			c0.8041992,0.7744141,1.5308228,1.6787109,2.5328064,2.2080078c0.3553772,0.1719055-0.2041016-0.2041016-0.2788086-0.3407898
			c-0.925293-1.0752258-1.8067017-2.210022-2.4537048-3.4761047c-0.1156921-0.2280273-0.3076172-0.6411133,0.039093-0.7627258
			c0.3461914-0.1732788,0.6899109,0.0630188,0.8652344,0.3609009c0.6806641,0.8579102,1.1816711,1.878418,2.0292664,2.5937195
			c-0.7220764-1.4017944-1.4935913-2.8773804-1.5121765-4.4902039c0.0170898-0.3125,0.0370789-0.785675,0.460968-0.7724915
			c0.3564453-0.0541992,0.2998352,0.401886,0.4165344,0.6192017c0.3509827,1.1845093,0.5039062,2.4671936,1.207489,3.513092
			c-0.155304-0.8788757-0.3842773-1.7841187-0.2324219-2.6777039c0.0350952-0.293396,0.3657227-0.3823242,0.5810242-0.2045898
			c0.1742859,0.4263,0.2105103,0.9530945,0.3696899,1.4092102c0.9033203,3.0917664,2.9320984,5.8096008,5.5761108,7.6347961
			c2.1777954,1.4930725,4.7616882,2.3847046,7.3993835,2.539978C34.2616882,39.2743835,34.5009766,39.2821655,34.7392883,39.296875"
			/>
		<path class="st1" d="M31.3905945,43.1112671c0.0791016,0,0.1425781,0.0635071,0.1425781,0.1416321
			c0,0.0791016-0.0634766,0.1425781-0.1425781,0.1425781c-0.0780945,0-0.1416321-0.0634766-0.1416321-0.1425781
			C31.2489624,43.1747742,31.3125,43.1112671,31.3905945,43.1112671L31.3905945,43.1112671z"/>
		<path class="st1" d="M31.3788757,43.1728821c0.0322266,0,0.0575867,0.0252991,0.0575867,0.0575867
			c0,0.032196-0.0253601,0.0576172-0.0575867,0.0576172c-0.032196,0-0.0575867-0.0254211-0.0575867-0.0576172
			C31.3212891,43.1981812,31.3466797,43.1728821,31.3788757,43.1728821L31.3788757,43.1728821z"/>
		<path class="st2" d="M31.3788757,43.1728821c0.0322266,0,0.0575867,0.0252991,0.0575867,0.0575867
			c0,0.032196-0.0253601,0.0576172-0.0575867,0.0576172c-0.032196,0-0.0575867-0.0254211-0.0575867-0.0576172
			C31.3212891,43.1981812,31.3466797,43.1728821,31.3788757,43.1728821L31.3788757,43.1728821z"/>
		<path class="st1" d="M7.2001953,4.3754578c0,0-0.5766907-0.4848633-0.7724609-0.2416992
			C6.112793,4.5248718,7.3959961,6.4716492,7.3959961,7.1576843c0,1.1254883-0.7509766,1.4316711-1.6782227,1.5923157
			C5.0951843,8.8578796,4.0820007,8.7045898,4.0820007,8.7045898c0.1909485-0.2563477,0.3149414-0.3315735,0.636261-0.3520813
			c-0.3579407-0.1860352-0.722168-0.5893555-0.722168-1.2172852c0-0.9682617,0.3984375-1.3671875,0.3984375-2.4589539
			c0-0.6054993-0.496582-1.3764954-0.496582-1.3764954c0.8779297,0.0878906,1.3129883,0.9008789,1.0654297,1.550293
			C5.1029968,4.8700867,5.2299805,4.8383484,5.3388367,4.735321C5.402832,4.9154968,5.3017578,5.1245117,5.1659851,5.3041687
			c0.1094055,0.0585938,0.1894836,0.0234375,0.3638-0.012207C5.5131531,5.4775391,5.4023438,5.6742859,5.1303711,5.8598633
			c0.7890625-0.2050781,1.2744141,0.3451843,1.2744141,0.9208679c0,0.4350586-0.3046875,0.746582-0.6025391,0.746582
			c-0.0962219,0-0.2378235-0.0395508-0.3173828-0.0991211C5.4281921,7.547821,5.457489,7.7079773,5.5151367,7.8276062
			c-0.2182617-0.0575867-0.3569336-0.1875-0.2583313-0.4570312c-0.16745-0.015625-0.3007812-0.0722351-0.391571-0.1801758
			c0.0917969-0.1176453,0.2314453-0.1855469,0.391571-0.1801758C5.1347656,6.7582703,5.2709961,6.6171875,5.4692078,6.5029297
			c0,0-0.1259766,0.5072937,0.1958313,0.5072937c0.1450195,0,0.276825-0.046875,0.276825-0.2602539
			c0-0.1860352-0.1621094-0.4433289-0.5380554-0.4272156C5.0282898,6.339325,4.7241211,6.5820312,4.7241211,7.1811523
			c0,0.5531921,0.4458008,0.8280945,1.0336609,0.8457031c0.5302734,0.016571,0.9301758-0.2705383,0.9301758-0.8174133
			c0-0.7275391-1.0507507-2.3862305-1.0507507-3.034668c0-0.4868164,0.4375-0.7582703,0.8657227-0.7582703
			c0.5551758,0,1.0234375,0.5497742,1.0234375,0.5497742L7.2001953,4.3749695V4.3754578L7.2001953,4.3754578z"/>
		<path class="st1" d="M7.3212891,17.5282898c0,1.2163086-1.0918274,1.8413086-1.9502258,1.8413086
			c-1.1557617,0-1.7709961-0.690918-1.7709961-1.5957336c0-0.5131836,0.09375-0.8348999,0.3301086-1.3256836
			c0,0,1.9067078-3.9653015,2.6493835-5.4989929c0.0922852-0.1914062,0.1225891-0.4092102,0.1225891-0.7284851
			c0-0.4927063-0.4785461-0.8960266-0.9799805-0.9082031c-0.4570312-0.011261-0.9550781,0.4262695-0.9550781,0.9247742
			c0,0.6054993,0.3144531,0.8755188,0.6367188,0.8755188c0.3969727,0,0.5551758-0.1631165,0.5551758-0.441925
			c0-0.1943054-0.09375-0.2782898-0.2285156-0.2782898c-0.3403625,0-0.2446289,0.4584961-0.2446289,0.4584961
			c-0.1694336-0.0370789-0.308136-0.2099915-0.2290344-0.4258118c-0.1283875-0.0282898-0.2441101-0.0971985-0.3305359-0.1962891
			c0.0913086-0.0884094,0.1962891-0.1567078,0.3305359-0.1802063C5.1772461,9.785614,5.2836914,9.657196,5.5141602,9.6029968
			C5.4677429,9.704071,5.4662781,9.7973633,5.4814453,9.8852539c0.3627625-0.1030579,0.918457,0.0610046,0.918457,0.6875305
			c0,0.6214905-0.4316406,1.1455078-1.2407227,1.0146179c0.1923828,0.0917664,0.2900391,0.2802734,0.3100281,0.4906921
			c-0.1469421-0.0570984-0.3100281-0.0649109-0.3100281-0.0649109c0.0942383,0.1665039,0.2260742,0.3104858,0.2201843,0.6381836
			c-0.1498718-0.0683899-0.2895508-0.1948853-0.4814453-0.1147766c0.3017578,0.5937805-0.0693054,1.4107056-1.012207,1.6040039
			c0.3452454-0.4048157,0.5141602-0.8418274,0.5141602-1.276825c0-1.409668-0.3920593-1.6464844-0.3920593-2.6264954
			c0-0.4101562,0.2109375-0.8529968,0.6289062-1.1538086v0.0161133c-0.2763977-0.0737305-0.453125-0.2099609-0.554718-0.3945312
			C4.7128906,8.5258789,5.6298828,8.5292664,6.1220703,8.723114c0.5664062,0.0654297,0.9613953,0.5,1.0776367,0.7202148
			c0.1166687,0.2202148,0.3427734,1.0170593,0,1.7348328c-0.375,0.7852173-2.1425781,4.5332031-2.6938477,5.7119141
			c-0.1166992,0.2495117-0.1875,0.5147095-0.1875,0.8018188c0,0.7217102,0.6611328,0.9736023,1.0365906,0.9736023
			c0.448761,0,0.9062805-0.3417969,0.9062805-0.7690125c0-0.2705078-0.1469727-0.4335938-0.359375-0.4335938
			c-0.5073547,0-0.476593,0.4316101-0.3755188,0.7035828c-0.3158875-0.1420898-0.4995117-0.3955078-0.4491882-0.6625977
			c-0.1787109-0.0249023-0.3486328-0.1094055-0.5058899-0.2865906c0.1235657-0.1557922,0.2744446-0.2738953,0.5058899-0.2783203
			c-0.1010742-0.4145813,0.1767273-0.5899048,0.4491882-0.6869812c-0.0864258,0.3041992-0.1425476,0.6542969,0.3755188,0.6542969
			c0.3779297,0,0.675293,0.0653992,0.8490906,0.3110046C6.7612,16.8900757,6.7915039,15.597168,6.7915039,15.597168
			C6.8134766,15.1112671,6.141571,15.125,5.7143555,15.2694702c0.1611328-0.5595093,0.4916687-0.8617859,1.2568359-0.7855835
			c-0.1855774-0.0776062-0.3837891-0.2525024-0.3837891-0.5888977c0.0004883-0.4555054,0.3700867-0.9604187,0.6123047-1.1094055
			L7.3212891,17.5282898L7.3212891,17.5282898L7.3212891,17.5282898z"/>
		<path class="st1" d="M7.3212891,21.1763c0-1.2163391-1.0918274-1.8413086-1.9502258-1.8413086
			c-1.1557617,0-1.7709961,0.6914062-1.7709961,1.5961914c0,0.5126038,0.09375,0.8343811,0.3301086,1.3251038
			c0,0,1.9067078,3.9658813,2.6493835,5.4995728c0.0922852,0.190918,0.1225891,0.4087219,0.1225891,0.7279968
			c0,0.4932251-0.4785461,0.8960266-0.9799805,0.9082031c-0.4570312,0.0117188-0.9550781-0.4257812-0.9550781-0.9242859
			c0-0.6059875,0.3144531-0.8760071,0.6367188-0.8760071c0.3969727,0,0.5551758,0.1636047,0.5551758,0.441925
			c0,0.1943054-0.09375,0.2782898-0.2285156,0.2782898c-0.3403625,0-0.2446289-0.4580078-0.2446289-0.4580078
			c-0.1694336,0.0371094-0.308136,0.2095032-0.2290344,0.4253235c-0.1283875,0.0282898-0.2441101,0.097168-0.3305359,0.1962891
			c0.0913086,0.0888977,0.1962891,0.157196,0.3305359,0.1802063c-0.0795593,0.263092,0.026886,0.3920898,0.2573547,0.4458008
			c-0.0464172-0.1011047-0.0478821-0.194397-0.0327148-0.2822876c0.3627625,0.1035767,0.918457-0.0610046,0.918457-0.6870117
			c0-0.6220093-0.4316406-1.1460266-1.2407227-1.0151367c0.1923828-0.0917664,0.2900391-0.2802734,0.3100281-0.4906921
			c-0.1469421,0.0570984-0.3100281,0.0654297-0.3100281,0.0654297c0.0942383-0.1670227,0.2260742-0.3106079,0.2201843-0.6382141
			c-0.1498718,0.0683899-0.2895508,0.1943054-0.4814453,0.1148071c0.3017578-0.5942993-0.0693054-1.4111938-1.012207-1.6040039
			c0.3452454,0.4042969,0.5141602,0.8413086,0.5141602,1.2763062c0,1.409668-0.3920593,1.6469727-0.3920593,2.6269836
			c0,0.4101257,0.2109375,0.8530273,0.6289062,1.1538086v-0.0166016c-0.2763977,0.0741882-0.453125,0.2098999-0.554718,0.394989
			c0.6308899,0.1787109,1.5478821,0.1753235,2.0400696-0.0180969c0.5664062-0.0658875,0.9613953-0.5,1.0776367-0.7207031
			c0.1166687-0.219696,0.3427734-1.0170898,0-1.7342834c-0.375-0.7852173-2.1425781-4.5336914-2.6938477-5.7120056
			c-0.1166992-0.25-0.1875-0.5151062-0.1875-0.8022156c0-0.7216797,0.6611328-0.9736023,1.0365906-0.9736023
			c0.448761,0,0.9062805,0.3418274,0.9062805,0.7690125c0,0.2709961-0.1469727,0.4341125-0.359375,0.4341125
			c-0.5073547,0-0.476593-0.4320984-0.3755188-0.7041016c-0.3158875,0.1420898-0.4995117,0.3955078-0.4491882,0.6631165
			c-0.1787109,0.024353-0.3486328,0.1092834-0.5058899,0.2860718c0.1235657,0.156311,0.2744446,0.2744141,0.5058899,0.2782898
			c-0.1010742,0.4151001,0.1767273,0.5904236,0.4491882,0.6875305c-0.0864258-0.3041992-0.1425476-0.6547852,0.3755188-0.6547852
			c0.3779297,0,0.675293-0.0654297,0.8490906-0.3110352c0.0102539,0.3276062,0.0405579,1.6206055,0.0405579,1.6206055
			c0.0219727,0.4859009-0.6499329,0.4716797-1.0771484,0.3272095c0.1611328,0.5595093,0.4916687,0.8622742,1.2568359,0.7855835
			c-0.1855774,0.0776062-0.3837891,0.2524109-0.3837891,0.589386c0.0004883,0.4555359,0.3700867,0.9599304,0.6123047,1.109314
			L7.3212891,21.1763L7.3212891,21.1763L7.3212891,21.1763z"/>
		<path class="st1" d="M7.2001953,4.3754578c0,0,0.5761414-0.4848633,0.7724304-0.2416992
			c0.3149414,0.3911133-0.9687195,2.3378906-0.9687195,3.0239258c0,1.1254883,0.7509766,1.4316711,1.6787109,1.5923157
			c0.6220703,0.1078796,1.6352539-0.0454102,1.6352539-0.0454102c-0.1908875-0.2563477-0.3150024-0.3315735-0.6362305-0.3520813
			c0.3579407-0.1860352,0.7221375-0.5893555,0.7221375-1.2172852c0-0.9682617-0.3983765-1.3671875-0.3983765-2.4589539
			c0-0.6054993,0.496582-1.3764954,0.496582-1.3764954c-0.8779602,0.0878906-1.3130188,0.9008789-1.0654602,1.550293
			C9.2968445,4.8700867,9.1699219,4.8383484,9.0610046,4.735321C8.9970703,4.9154968,9.0986328,5.1245117,9.234375,5.3041687
			C9.125,5.3627625,9.0444336,5.3276062,8.8701172,5.2919617c0.016571,0.1855774,0.1278992,0.3823242,0.3999023,0.5679016
			c-0.789093-0.2050781-1.2749023,0.3451843-1.2749023,0.9208679c0,0.4350586,0.3046875,0.746582,0.6025391,0.746582
			c0.0966797,0,0.2377625-0.0395508,0.3173828-0.0991211C8.9716492,7.547821,8.9423523,7.7079773,8.8847656,7.8276062
			c0.2182617-0.0575867,0.3569336-0.1875,0.2582703-0.4570312C9.3105469,7.35495,9.4438477,7.2983398,9.534668,7.1903992
			C9.4428711,7.0727539,9.3032227,7.0048523,9.1430359,7.0102234c0.1221008-0.2519531-0.0141296-0.3930359-0.2124023-0.5072937
			c0,0,0.1259766,0.5072937-0.1957703,0.5072937c-0.1450195,0-0.2768555-0.046875-0.2768555-0.2602539
			c0-0.1860352,0.1625977-0.4433289,0.5380859-0.4272156c0.3754578,0.016571,0.6796875,0.2592773,0.6796875,0.8583984
			c0,0.5531921-0.4458008,0.8280945-1.0337219,0.8457031c-0.5297546,0.016571-0.9301758-0.2705383-0.9301758-0.8174133
			c0-0.7275391,1.0508118-2.3862305,1.0508118-3.034668c0-0.4868164-0.4375-0.7582703-0.8657227-0.7582703
			c-0.5551758,0-1.0234375,0.5497742-1.0234375,0.5497742L7.199707,4.3749695L7.2001953,4.3754578L7.2001953,4.3754578z"/>
		<path class="st1" d="M7.0786133,17.5282898c0,1.2163086,1.0922852,1.8413086,1.9501648,1.8413086
			c1.1557922,0,1.7715149-0.690918,1.7715149-1.5957336c0-0.5131836-0.0942078-0.8348999-0.3305969-1.3256836
			c0,0-1.9067383-3.9653015-2.6494141-5.4989929c-0.0922852-0.1914062-0.1220398-0.4092102-0.1220398-0.7284851
			c0-0.4927063,0.4779968-0.8960266,0.9794922-0.9082031c0.4570312-0.011261,0.9550781,0.4262695,0.9550781,0.9247742
			c0,0.6054993-0.3144531,0.8755188-0.6367188,0.8755188c-0.3969727,0-0.5551758-0.1631165-0.5551758-0.441925
			c0-0.1943054,0.09375-0.2782898,0.2285156-0.2782898c0.3403015,0,0.2450867,0.4584961,0.2450867,0.4584961
			c0.1689758-0.0370789,0.308136-0.2099915,0.2285156-0.4258118c0.128418-0.0282898,0.2441711-0.0971985,0.3305969-0.1962891
			c-0.0913086-0.0884094-0.1958313-0.1567078-0.3305969-0.1802063c0.0796204-0.2631531-0.026825-0.391571-0.2572937-0.4457703
			C8.9320984,9.704071,8.934082,9.7973633,8.918457,9.8852539C8.5556335,9.782196,8,9.9462585,8,10.5727844
			c0,0.6214905,0.4316406,1.1455078,1.2407227,1.0146179c-0.1923828,0.0917664-0.2900391,0.2802734-0.3100891,0.4906921
			c0.1470032-0.0570984,0.3100891-0.0649109,0.3100891-0.0649109c-0.0942383,0.1665039-0.2255859,0.3104858-0.2202148,0.6381836
			c0.1499023-0.0683899,0.2895203-0.1948853,0.4819336-0.1147766c-0.3022766,0.5937805,0.0688477,1.4107056,1.012146,1.6040039
			c-0.3451843-0.4048157-0.5146179-0.8418274-0.5146179-1.276825c0-1.409668,0.3921204-1.6464844,0.3921204-2.6264954
			c0-0.4101562-0.210907-0.8529968-0.628418-1.1538086v0.0161133c0.2759094-0.0737305,0.4526062-0.2099609,0.554718-0.3945312
			C9.6870117,8.5258789,8.7700195,8.5292664,8.277832,8.723114c-0.5659485,0.0654297-0.9614563,0.5-1.0776367,0.7202148
			c-0.1162109,0.2202148-0.3427734,1.0170593,0,1.7348328c0.375,0.7852173,2.1425781,4.5332031,2.6938477,5.7119141
			c0.1166687,0.2495117,0.1879272,0.5147095,0.1879272,0.8018188c0,0.7217102-0.6610718,0.9736023-1.0370789,0.9736023
			c-0.4487,0-0.9057312-0.3417969-0.9057312-0.7690125c0-0.2705078,0.1469421-0.4335938,0.3588867-0.4335938
			c0.5078125,0,0.476532,0.4316101,0.3754883,0.7035828c0.315918-0.1420898,0.4994812-0.3955078,0.4492188-0.6625977
			c0.1786804-0.0249023,0.3490906-0.1094055,0.5058289-0.2865906c-0.1235046-0.1557922-0.2743835-0.2738953-0.5058289-0.2783203
			c0.1010742-0.4145813-0.1767883-0.5899048-0.4492188-0.6869812c0.0863953,0.3041992,0.1430664,0.6542969-0.3754883,0.6542969
			c-0.3779297,0-0.675293,0.0653992-0.8491516,0.3110046c-0.0097351-0.3272095-0.0404968-1.6201172-0.0404968-1.6201172
			C7.5864258,15.1112671,8.2587891,15.125,8.6860352,15.2694702c-0.1616211-0.5595093-0.492218-0.8617859-1.2573242-0.7855835
			C7.6142578,14.4062805,7.8125,14.2313843,7.8125,13.894989c0-0.4555054-0.3696289-0.9604187-0.6123047-1.1094055
			L7.0786133,17.5282898L7.0786133,17.5282898L7.0786133,17.5282898z"/>
		<path class="st1" d="M7.0786133,21.1763c0-1.2163391,1.0922852-1.8413086,1.9501648-1.8413086
			c1.1557922,0,1.7715149,0.6914062,1.7715149,1.5961914c0,0.5126038-0.0942078,0.8343811-0.3305969,1.3251038
			c0,0-1.9067383,3.9658813-2.6494141,5.4995728c-0.0922852,0.190918-0.1220398,0.4087219-0.1220398,0.7279968
			c0,0.4932251,0.4779968,0.8960266,0.9794922,0.9082031c0.4570312,0.0117188,0.9550781-0.4257812,0.9550781-0.9242859
			c0-0.6059875-0.3144531-0.8760071-0.6367188-0.8760071c-0.3969727,0-0.5551758,0.1636047-0.5551758,0.441925
			c0,0.1943054,0.09375,0.2782898,0.2285156,0.2782898c0.3403015,0,0.2450867-0.4580078,0.2450867-0.4580078
			c0.1689758,0.0371094,0.308136,0.2095032,0.2285156,0.4253235c0.128418,0.0282898,0.2441711,0.097168,0.3305969,0.1962891
			c-0.0913086,0.0888977-0.1958313,0.157196-0.3305969,0.1802063c0.0796204,0.263092-0.026825,0.3920898-0.2572937,0.4458008
			c0.0463562-0.1011047,0.0483398-0.194397,0.0327148-0.2822876C8.5556335,28.9228821,8,28.7583008,8,28.1322937
			c0-0.6220093,0.4316406-1.1460266,1.2407227-1.0151367c-0.1923828-0.0917664-0.2900391-0.2802734-0.3100891-0.4906921
			c0.1470032,0.0570984,0.3100891,0.0654297,0.3100891,0.0654297c-0.0942383-0.1670227-0.2255859-0.3106079-0.2202148-0.6382141
			c0.1499023,0.0683899,0.2895203,0.1943054,0.4819336,0.1148071c-0.3022766-0.5942993,0.0688477-1.4111938,1.012146-1.6040039
			c-0.3451843,0.4042969-0.5146179,0.8413086-0.5146179,1.2763062c0,1.409668,0.3921204,1.6469727,0.3921204,2.6269836
			c0,0.4101257-0.210907,0.8530273-0.628418,1.1538086v-0.0166016c0.2759094,0.0741882,0.4526062,0.2098999,0.554718,0.394989
			c-0.6313782,0.1787109-1.5483704,0.1753235-2.0405579-0.0180969c-0.5659485-0.0658875-0.9614563-0.5-1.0776367-0.7207031
			c-0.1162109-0.219696-0.3427734-1.0170898,0-1.7342834c0.375-0.7852173,2.1425781-4.5336914,2.6938477-5.7120056
			c0.1166687-0.25,0.1879272-0.5151062,0.1879272-0.8022156c0-0.7216797-0.6610718-0.9736023-1.0370789-0.9736023
			c-0.4487,0-0.9057312,0.3418274-0.9057312,0.7690125c0,0.2709961,0.1469421,0.4341125,0.3588867,0.4341125
			c0.5078125,0,0.476532-0.4320984,0.3754883-0.7041016c0.315918,0.1420898,0.4994812,0.3955078,0.4492188,0.6631165
			c0.1786804,0.024353,0.3490906,0.1092834,0.5058289,0.2860718c-0.1235046,0.156311-0.2743835,0.2744141-0.5058289,0.2782898
			c0.1010742,0.4151001-0.1767883,0.5904236-0.4492188,0.6875305c0.0863953-0.3041992,0.1430664-0.6547852-0.3754883-0.6547852
			c-0.3779297,0-0.675293-0.0654297-0.8491516-0.3110352c-0.0097351,0.3276062-0.0404968,1.6206055-0.0404968,1.6206055
			c-0.0219727,0.4859009,0.6503906,0.4716797,1.0776367,0.3272095c-0.1616211,0.5595093-0.492218,0.8622742-1.2573242,0.7855835
			C7.6142578,24.2982788,7.8125,24.4730835,7.8125,24.8100586c0,0.4555359-0.3696289,0.9599304-0.6123047,1.109314
			L7.0786133,21.1763L7.0786133,21.1763L7.0786133,21.1763z"/>
		<path class="st1" d="M7.2001953,55.625c0,0-0.5766907,0.484375-0.7724609,0.2412109
			c-0.3149414-0.390625,0.9682617-2.3379211,0.9682617-3.0234375c0-1.1259766-0.7509766-1.4317017-1.6782227-1.592804
			c-0.6225891-0.1073914-1.6357727,0.0449219-1.6357727,0.0449219c0.1909485,0.256897,0.3149414,0.3320923,0.636261,0.3525696
			c-0.3579407,0.1855164-0.722168,0.5888367-0.722168,1.2168274c0,0.9687195,0.3984375,1.3680725,0.3984375,2.4588928
			c0,0.6054993-0.496582,1.3770142-0.496582,1.3770142c0.8779297-0.0879211,1.3129883-0.9004211,1.0654297-1.5498047
			c0.1396179-0.0205078,0.2666016,0.0106812,0.3754578,0.1141968c0.0639954-0.1795959-0.0370789-0.3886108-0.1728516-0.5693054
			c0.1094055-0.0585938,0.1894836-0.023407,0.3638,0.0126953c-0.0166321-0.1854858-0.1274414-0.382782-0.3994141-0.5683899
			c0.7890625,0.2051086,1.2744141-0.344696,1.2744141-0.9198914c0-0.4355164-0.3046875-0.7470093-0.6025391-0.7470093
			c-0.0962219,0-0.2378235,0.039978-0.3173828,0.0996094c-0.0566711-0.1202087-0.0273743-0.280304,0.0302734-0.4004211
			c-0.2182617,0.0585938-0.3569336,0.1875-0.2583313,0.4580078c-0.16745,0.0155945-0.3007812,0.0713196-0.391571,0.179718
			c0.0917969,0.118103,0.2314453,0.1854858,0.391571,0.179657c-0.1220398,0.2519531,0.0141907,0.3935242,0.2124023,0.5078125
			c0,0-0.1259766-0.5078125,0.1958313-0.5078125c0.1450195,0,0.276825,0.047821,0.276825,0.2607422
			c0,0.1864929-0.1621094,0.4433899-0.5380554,0.4267883c-0.3755188-0.0157166-0.6796875-0.2588196-0.6796875-0.8583984
			c0-0.5527954,0.4458008-0.828186,1.0336609-0.8457336c0.5302734-0.0156555,0.9301758,0.2714233,0.9301758,0.8173523
			c0,0.7285767-1.0507507,2.3867798-1.0507507,3.0351868c0,0.4862976,0.4375,0.757782,0.8657227,0.757782
			c0.5551758,0,1.0234375-0.5487976,1.0234375-0.5487976L7.2001953,55.625L7.2001953,55.625L7.2001953,55.625z"/>
		<path class="st1" d="M7.3212891,42.4716797c0-1.2158203-1.0918274-1.8417969-1.9502258-1.8417969
			c-1.1557617,0-1.7709961,0.6914062-1.7709961,1.5967102c0,0.5126953,0.09375,0.8338928,0.3301086,1.3251953
			c0,0,1.9067078,3.9657898,2.6493835,5.4989929c0.0922852,0.1914062,0.1225891,0.4092102,0.1225891,0.7284851
			c0,0.4932251-0.4785461,0.8955383-0.9799805,0.9082031c-0.4570312,0.0117188-0.9550781-0.4257812-0.9550781-0.9247742
			c0-0.6054993,0.3144531-0.875,0.6367188-0.875c0.3969727,0,0.5551758,0.1630859,0.5551758,0.4414062
			c0,0.1943054-0.09375,0.2782898-0.2285156,0.2782898c-0.3403625,0-0.2446289-0.4580078-0.2446289-0.4580078
			c-0.1694336,0.0371094-0.308136,0.2090149-0.2290344,0.4248047c-0.1283875,0.0283203-0.2441101,0.0977173-0.3305359,0.1972961
			c0.0913086,0.0879211,0.1962891,0.1562195,0.3305359,0.1796875c-0.0795593,0.2627258,0.026886,0.3916321,0.2573547,0.4463196
			c-0.0464172-0.101593-0.0478821-0.1954041-0.0327148-0.2832031c0.3627625,0.1034851,0.918457-0.0605774,0.918457-0.686615
			c0-0.6220093-0.4316406-1.1455078-1.2407227-1.0145874c0.1923828-0.092804,0.2900391-0.2812805,0.3100281-0.4912109
			c-0.1469421,0.0566101-0.3100281,0.0653992-0.3100281,0.0653992c0.0942383-0.1669922,0.2260742-0.3104858,0.2201843-0.6387024
			c-0.1498718,0.0683899-0.2895508,0.194397-0.4814453,0.1152954c0.3017578-0.5947876-0.0693054-1.4111938-1.012207-1.6044922
			c0.3452454,0.4042969,0.5141602,0.8418274,0.5141602,1.2763062c0,1.4101868-0.3920593,1.6474915-0.3920593,2.6270142
			c0,0.4101868,0.2109375,0.8535156,0.6289062,1.1542969v-0.0166016c-0.2763977,0.0741882-0.453125,0.2099915-0.554718,0.3945007
			c0.6308899,0.1786804,1.5478821,0.1757812,2.0400696-0.0176086c0.5664062-0.0663757,0.9613953-0.5,1.0776367-0.7207031
			c0.1166687-0.219696,0.3427734-1.0174866,0-1.7342834c-0.375-0.7852173-2.1425781-4.5342407-2.6938477-5.7119141
			c-0.1166992-0.25-0.1875-0.515686-0.1875-0.8027954c0-0.7217102,0.6611328-0.9736023,1.0365906-0.9736023
			c0.448761,0,0.9062805,0.342804,0.9062805,0.7695007c0,0.2705078-0.1469727,0.4335938-0.359375,0.4335938
			c-0.5073547,0-0.476593-0.4316101-0.3755188-0.7041016c-0.3158875,0.1426086-0.4995117,0.3955078-0.4491882,0.6631165
			c-0.1787109,0.0243835-0.3486328,0.1094055-0.5058899,0.2861023c0.1235657,0.1562805,0.2744446,0.2743835,0.5058899,0.2782898
			c-0.1010742,0.4151001,0.1767273,0.5909119,0.4491882,0.6875c-0.0864258-0.3036804-0.1425476-0.6542053,0.3755188-0.6542053
			c0.3779297,0,0.675293-0.0654907,0.8490906-0.3115845c0.0102539,0.328186,0.0405579,1.6210938,0.0405579,1.6210938
			c0.0219727,0.4853821-0.6499329,0.4716797-1.0771484,0.327179c0.1611328,0.5595398,0.4916687,0.8623047,1.2568359,0.7851257
			c-0.1855774,0.078186-0.3837891,0.2529907-0.3837891,0.5898743c0.0004883,0.4550171,0.3700867,0.9599304,0.6123047,1.109314
			L7.3212891,42.4716797L7.3212891,42.4716797L7.3212891,42.4716797z"/>
		<path class="st1" d="M7.3212891,38.8231812c0,1.2168274-1.0918274,1.8417969-1.9502258,1.8417969
			c-1.1557617,0-1.7709961-0.6914062-1.7709961-1.5956726c0-0.5136414,0.09375-0.8348999,0.3301086-1.3261414
			c0,0,1.9067078-3.9648743,2.6493835-5.4990845c0.0922852-0.1913757,0.1225891-0.4090881,0.1225891-0.7285156
			c0-0.4921875-0.4785461-0.8954773-0.9799805-0.9076843c-0.4570312-0.0117188-0.9550781,0.4263-0.9550781,0.9243164
			c0,0.6054993,0.3144531,0.8759766,0.6367188,0.8759766c0.3969727,0,0.5551758-0.1630859,0.5551758-0.4423828
			c0-0.1943054-0.09375-0.2783203-0.2285156-0.2783203c-0.3403625,0-0.2446289,0.4590149-0.2446289,0.4590149
			c-0.1694336-0.0371094-0.308136-0.2099915-0.2290344-0.4258118c-0.1283875-0.0282898-0.2441101-0.0976868-0.3305359-0.1962891
			c0.0913086-0.0888977,0.1962891-0.157196,0.3305359-0.180603c-0.0795593-0.2626953,0.026886-0.3916931,0.2573547-0.4454041
			c-0.0464172,0.1011047-0.0478821,0.194397-0.0327148,0.2822876c0.3627625-0.1035767,0.918457,0.0605164,0.918457,0.6875305
			c0,0.6220093-0.4316406,1.1455078-1.2407227,1.0145874c0.1923828,0.0917969,0.2900391,0.280304,0.3100281,0.4912109
			c-0.1469421-0.0576172-0.3100281-0.0653992-0.3100281-0.0653992c0.0942383,0.1659851,0.2260742,0.3104858,0.2201843,0.6376648
			c-0.1498718-0.0683594-0.2895508-0.1942749-0.4814453-0.1142578c0.3017578,0.5937805-0.0693054,1.4101868-1.012207,1.6034851
			c0.3452454-0.4042053,0.5141602-0.8417053,0.5141602-1.2763062c0-1.4102173-0.3920593-1.6464844-0.3920593-2.6269836
			c0-0.4101257,0.2109375-0.8530273,0.6289062-1.1538086v0.0166016c-0.2763977-0.0742188-0.453125-0.2098999-0.554718-0.3950195
			c0.6308899-0.1787109,1.5478821-0.175293,2.0400696,0.0181274C6.6884766,30.0839844,7.0834656,30.5180664,7.199707,30.7388
			c0.1166687,0.219696,0.3427734,1.0170898,0,1.7347717c-0.375,0.7852173-2.1425781,4.5332336-2.6938477,5.7119141
			c-0.1166992,0.2490845-0.1875,0.5147095-0.1875,0.8017883c0,0.7216797,0.6611328,0.9736328,1.0365906,0.9736328
			c0.448761,0,0.9062805-0.3418274,0.9062805-0.7695312c0-0.2705078-0.1469727-0.4335938-0.359375-0.4335938
			c-0.5073547,0-0.476593,0.4317017-0.3755188,0.7041016c-0.3158875-0.1425781-0.4995117-0.3955078-0.4491882-0.6631165
			c-0.1787109-0.0243835-0.3486328-0.1092834-0.5058899-0.2860718c0.1235657-0.156311,0.2744446-0.2744141,0.5058899-0.2782898
			c-0.1010742-0.4151001,0.1767273-0.5899353,0.4491882-0.6875305c-0.0864258,0.3046875-0.1425476,0.6542969,0.3755188,0.6542969
			c0.3779297,0,0.675293,0.0654297,0.8490906,0.3115234c0.0102539-0.3272095,0.0405579-1.6201172,0.0405579-1.6201172
			c0.0219727-0.4862976-0.6499329-0.4727173-1.0771484-0.3280945c0.1611328-0.5596008,0.4916687-0.8613892,1.2568359-0.7851868
			c-0.1855774-0.078125-0.3837891-0.2529297-0.3837891-0.5888977c0.0004883-0.4560242,0.3700867-0.960907,0.6123047-1.109314
			L7.3212891,38.8231812L7.3212891,38.8231812L7.3212891,38.8231812z"/>
		<path class="st1" d="M7.2001953,55.625c0,0,0.5761414,0.484375,0.7724304,0.2412109
			c0.3149414-0.390625-0.9687195-2.3379211-0.9687195-3.0234375c0-1.1259766,0.7509766-1.4317017,1.6787109-1.592804
			c0.6220703-0.1073914,1.6352539,0.0449219,1.6352539,0.0449219c-0.1908875,0.256897-0.3150024,0.3320923-0.6362305,0.3525696
			c0.3579407,0.1855164,0.7221375,0.5888367,0.7221375,1.2168274c0,0.9687195-0.3983765,1.3680725-0.3983765,2.4588928
			c0,0.6054993,0.496582,1.3770142,0.496582,1.3770142c-0.8779602-0.0879211-1.3130188-0.9004211-1.0654602-1.5498047
			c-0.139679-0.0205078-0.2666016,0.0106812-0.3755188,0.1141968c-0.0639343-0.1795959,0.0376282-0.3886108,0.1733704-0.5693054
			C9.125,54.6366882,9.0444336,54.671875,8.8701172,54.7079773c0.016571-0.1854858,0.1278992-0.382782,0.3999023-0.5683899
			c-0.789093,0.2051086-1.2749023-0.344696-1.2749023-0.9198914c0-0.4355164,0.3046875-0.7470093,0.6025391-0.7470093
			c0.0966797,0,0.2377625,0.039978,0.3173828,0.0996094c0.0566101-0.1202087,0.0273132-0.280304-0.0302734-0.4004211
			c0.2182617,0.0585938,0.3569336,0.1875,0.2582703,0.4580078c0.167511,0.0155945,0.3008118,0.0713196,0.3916321,0.179718
			c-0.0917969,0.118103-0.2314453,0.1854858-0.3916321,0.179657c0.1221008,0.2519531-0.0141296,0.3935242-0.2124023,0.5078125
			c0,0,0.1259766-0.5078125-0.1957703-0.5078125c-0.1450195,0-0.2768555,0.047821-0.2768555,0.2607422
			c0,0.1864929,0.1625977,0.4433899,0.5380859,0.4267883c0.3754578-0.0157166,0.6796875-0.2588196,0.6796875-0.8583984
			c0-0.5527954-0.4458008-0.828186-1.0337219-0.8457336c-0.5297546-0.0156555-0.9301758,0.2714233-0.9301758,0.8173523
			c0,0.7285767,1.0508118,2.3867798,1.0508118,3.0351868c0,0.4862976-0.4375,0.757782-0.8657227,0.757782
			c-0.5551758,0-1.0234375-0.5487976-1.0234375-0.5487976L7.199707,55.625H7.2001953L7.2001953,55.625z"/>
		<path class="st1" d="M7.0786133,42.4716797c0-1.2158203,1.0922852-1.8417969,1.9501648-1.8417969
			c1.1557922,0,1.7715149,0.6914062,1.7715149,1.5967102c0,0.5126953-0.0942078,0.8338928-0.3305969,1.3251953
			c0,0-1.9067383,3.9657898-2.6494141,5.4989929c-0.0922852,0.1914062-0.1220398,0.4092102-0.1220398,0.7284851
			c0,0.4932251,0.4779968,0.8955383,0.9794922,0.9082031c0.4570312,0.0117188,0.9550781-0.4257812,0.9550781-0.9247742
			c0-0.6054993-0.3144531-0.875-0.6367188-0.875c-0.3969727,0-0.5551758,0.1630859-0.5551758,0.4414062
			c0,0.1943054,0.09375,0.2782898,0.2285156,0.2782898c0.3403015,0,0.2450867-0.4580078,0.2450867-0.4580078
			c0.1689758,0.0371094,0.308136,0.2090149,0.2285156,0.4248047c0.128418,0.0283203,0.2441711,0.0977173,0.3305969,0.1972961
			c-0.0913086,0.0879211-0.1958313,0.1562195-0.3305969,0.1796875c0.0796204,0.2627258-0.026825,0.3916321-0.2572937,0.4463196
			c0.0463562-0.101593,0.0483398-0.1954041,0.0327148-0.2832031C8.5556335,50.2177734,8,50.0537109,8,49.4276733
			c0-0.6220093,0.4316406-1.1455078,1.2407227-1.0145874c-0.1923828-0.092804-0.2900391-0.2812805-0.3100891-0.4912109
			c0.1470032,0.0566101,0.3100891,0.0653992,0.3100891,0.0653992c-0.0942383-0.1669922-0.2255859-0.3104858-0.2202148-0.6387024
			c0.1499023,0.0683899,0.2895203,0.194397,0.4819336,0.1152954c-0.3022766-0.5947876,0.0688477-1.4111938,1.012146-1.6044922
			c-0.3451843,0.4042969-0.5146179,0.8418274-0.5146179,1.2763062c0,1.4101868,0.3921204,1.6474915,0.3921204,2.6270142
			c0,0.4101868-0.210907,0.8535156-0.628418,1.1542969v-0.0166016c0.2759094,0.0741882,0.4526062,0.2099915,0.554718,0.3945007
			c-0.6313782,0.1786804-1.5483704,0.1757812-2.0405579-0.0176086c-0.5659485-0.0663757-0.9614563-0.5-1.0776367-0.7207031
			c-0.1162109-0.219696-0.3427734-1.0174866,0-1.7342834c0.375-0.7852173,2.1425781-4.5342407,2.6938477-5.7119141
			c0.1166687-0.25,0.1879272-0.515686,0.1879272-0.8027954c0-0.7217102-0.6610718-0.9736023-1.0370789-0.9736023
			c-0.4487,0-0.9057312,0.342804-0.9057312,0.7695007c0,0.2705078,0.1469421,0.4335938,0.3588867,0.4335938
			c0.5078125,0,0.476532-0.4316101,0.3754883-0.7041016c0.315918,0.1426086,0.4994812,0.3955078,0.4492188,0.6631165
			c0.1786804,0.0243835,0.3490906,0.1094055,0.5058289,0.2861023c-0.1235046,0.1562805-0.2743835,0.2743835-0.5058289,0.2782898
			c0.1010742,0.4151001-0.1767883,0.5909119-0.4492188,0.6875c0.0863953-0.3036804,0.1430664-0.6542053-0.3754883-0.6542053
			c-0.3779297,0-0.675293-0.0654907-0.8491516-0.3115845c-0.0097351,0.328186-0.0404968,1.6210938-0.0404968,1.6210938
			c-0.0219727,0.4853821,0.6503906,0.4716797,1.0776367,0.327179c-0.1616211,0.5595398-0.492218,0.8623047-1.2573242,0.7851257
			C7.6142578,45.5937805,7.8125,45.7685852,7.8125,46.1054688c0,0.4550171-0.3696289,0.9599304-0.6123047,1.109314
			L7.0786133,42.4716797L7.0786133,42.4716797L7.0786133,42.4716797z"/>
		<path class="st1" d="M7.0786133,38.8231812c0,1.2168274,1.0922852,1.8417969,1.9501648,1.8417969
			c1.1557922,0,1.7715149-0.6914062,1.7715149-1.5956726c0-0.5136414-0.0942078-0.8348999-0.3305969-1.3261414
			c0,0-1.9067383-3.9648743-2.6494141-5.4990845c-0.0922852-0.1913757-0.1220398-0.4090881-0.1220398-0.7285156
			c0-0.4921875,0.4779968-0.8954773,0.9794922-0.9076843c0.4570312-0.0117188,0.9550781,0.4263,0.9550781,0.9243164
			c0,0.6054993-0.3144531,0.8759766-0.6367188,0.8759766c-0.3969727,0-0.5551758-0.1630859-0.5551758-0.4423828
			c0-0.1943054,0.09375-0.2783203,0.2285156-0.2783203c0.3403015,0,0.2450867,0.4590149,0.2450867,0.4590149
			c0.1689758-0.0371094,0.308136-0.2099915,0.2285156-0.4258118c0.128418-0.0282898,0.2441711-0.0976868,0.3305969-0.1962891
			c-0.0913086-0.0888977-0.1958313-0.157196-0.3305969-0.180603c0.0796204-0.2626953-0.026825-0.3916931-0.2572937-0.4454041
			c0.0463562,0.1011047,0.0483398,0.194397,0.0327148,0.2822876C8.5556335,31.0770874,8,31.2411804,8,31.8681946
			c0,0.6220093,0.4316406,1.1455078,1.2407227,1.0145874c-0.1923828,0.0917969-0.2900391,0.280304-0.3100891,0.4912109
			c0.1470032-0.0576172,0.3100891-0.0653992,0.3100891-0.0653992c-0.0942383,0.1659851-0.2255859,0.3104858-0.2202148,0.6376648
			c0.1499023-0.0683594,0.2895203-0.1942749,0.4819336-0.1142578c-0.3022766,0.5937805,0.0688477,1.4101868,1.012146,1.6034851
			c-0.3451843-0.4042053-0.5146179-0.8417053-0.5146179-1.2763062c0-1.4102173,0.3921204-1.6464844,0.3921204-2.6269836
			c0-0.4101257-0.210907-0.8530273-0.628418-1.1538086v0.0166016c0.2759094-0.0742188,0.4526062-0.2098999,0.554718-0.3950195
			c-0.6313782-0.1787109-1.5483704-0.175293-2.0405579,0.0181274C7.7118835,30.0839844,7.3163757,30.5180664,7.2001953,30.7388
			c-0.1162109,0.219696-0.3427734,1.0170898,0,1.7347717c0.375,0.7852173,2.1425781,4.5332336,2.6938477,5.7119141
			c0.1166687,0.2490845,0.1879272,0.5147095,0.1879272,0.8017883c0,0.7216797-0.6610718,0.9736328-1.0370789,0.9736328
			c-0.4487,0-0.9057312-0.3418274-0.9057312-0.7695312c0-0.2705078,0.1469421-0.4335938,0.3588867-0.4335938
			c0.5078125,0,0.476532,0.4317017,0.3754883,0.7041016c0.315918-0.1425781,0.4994812-0.3955078,0.4492188-0.6631165
			c0.1786804-0.0243835,0.3490906-0.1092834,0.5058289-0.2860718c-0.1235046-0.156311-0.2743835-0.2744141-0.5058289-0.2782898
			c0.1010742-0.4151001-0.1767883-0.5899353-0.4492188-0.6875305c0.0863953,0.3046875,0.1430664,0.6542969-0.3754883,0.6542969
			c-0.3779297,0-0.675293,0.0654297-0.8491516,0.3115234c-0.0097351-0.3272095-0.0404968-1.6201172-0.0404968-1.6201172
			c-0.0219727-0.4862976,0.6503906-0.4727173,1.0776367-0.3280945c-0.1616211-0.5596008-0.492218-0.8613892-1.2573242-0.7851868
			C7.6142578,35.7011719,7.8125,35.5263672,7.8125,35.1903992c0-0.4560242-0.3696289-0.960907-0.6123047-1.109314
			L7.0786133,38.8231812L7.0786133,38.8231812L7.0786133,38.8231812z"/>
	</g>
</g>
</svg>
