<?xml version="1.0" encoding="utf-8"?>
<!-- Generator: Adobe Illustrator 22.1.0, SVG Export Plug-In . SVG Version: 6.00 Build 0)  -->
<svg version="1.1" id="Layer_1" xmlns="http://www.w3.org/2000/svg" xmlns:xlink="http://www.w3.org/1999/xlink" x="0px" y="0px"
	 viewBox="0 0 60 60" style="enable-background:new 0 0 60 60;" xml:space="preserve">
<style type="text/css">
	.st0{clip-path:url(#SVGID_2_);fill:#FFFFFF;}
	.st1{clip-path:url(#SVGID_2_);fill:#020203;}
	.st2{clip-path:url(#SVGID_2_);fill:#BB1818;}
	.st3{clip-path:url(#SVGID_2_);fill:#0C682F;}
</style>
<g id="XMLID_1_">
	<g>
		<defs>
			<path id="SVGID_1_" d="M59,60H0.9999695C0.4477234,60,0,59.5526733,0,59V0.9999695c0-0.5522461,0.4477234-1,0.9999695-1H59
				c0.5526886,0,0.9999847,0.4477539,0.9999847,1V59C59.9999847,59.5526733,59.5526886,60,59,60L59,60z"/>
		</defs>
		<clipPath id="SVGID_2_">
			<use xlink:href="#SVGID_1_"  style="overflow:visible;"/>
		</clipPath>
		<polygon class="st0" points="-15,-0.0000305 74.9999847,-0.0000305 74.9999847,60 -15,60 -15,-0.0000305 		"/>
		<polygon class="st1" points="-15,-0.0000305 74.9999847,-0.0000305 74.9999847,17.9999695 -15,17.9999695 -15,-0.0000305 		"/>
		<polygon class="st2" points="-15,20.9999695 74.9999847,20.9999695 74.9999847,38.9999695 -15,38.9999695 -15,20.9999695 		"/>
		<polygon class="st3" points="-15,41.9999695 74.9999847,41.9999695 74.9999847,60 -15,60 -15,41.9999695 		"/>
		<path class="st1" d="M19.2826843,47.8124695L19.9325867,48.1875l17.5176086-30.3408203
			c1.0243835-0.2744141,1.5868835-1.2489929,2.1493835-2.2232056c0.375-0.6493835,1.875-3.2474976,2.5243835-6.6235046
			c-2.5985718,2.2510071-4.0985718,4.8491211-4.4735718,5.4985046c-0.5625,0.9742126-1.125,1.9487915-0.8505859,2.9732056
			L19.2826843,47.8124695L19.2826843,47.8124695z"/>
		<path class="st0" d="M19.2826843,47.8124695L19.9325867,48.1875l17.5176086-30.3408203
			c1.0243835-0.2744141,1.5868835-1.2489929,2.1493835-2.2232056c0.375-0.6493835,1.875-3.2474976,2.5243835-6.6235046
			c-2.5985718,2.2510071-4.0985718,4.8491211-4.4735718,5.4985046c-0.5625,0.9742126-1.125,1.9487915-0.8505859,2.9732056
			L19.2826843,47.8124695L19.2826843,47.8124695z"/>
		<path class="st1" d="M40.7167969,47.8124695L40.0673828,48.1875L22.550293,17.8466797
			c-1.0243835-0.2744141-1.5868835-1.2489929-2.1493835-2.2232056c-0.375-0.6493835-1.875-3.2474976-2.5254211-6.6235046
			c2.5986023,2.2510071,4.0986023,4.8491211,4.4736023,5.4985046c0.5625,0.9742126,1.125,1.9487915,0.8505859,2.9732056
			L40.7167969,47.8124695L40.7167969,47.8124695z"/>
		<path class="st0" d="M40.7167969,47.8124695L40.0673828,48.1875L22.550293,17.8466797
			c-1.0243835-0.2744141-1.5868835-1.2489929-2.1493835-2.2232056c-0.375-0.6493835-1.875-3.2474976-2.5254211-6.6235046
			c2.5986023,2.2510071,4.0986023,4.8491211,4.4736023,5.4985046c0.5625,0.9742126,1.125,1.9487915,0.8505859,2.9732056
			L40.7167969,47.8124695L40.7167969,47.8124695z"/>
		<path class="st2" d="M22.875,38.9999695c1.125,3,4.875,9,7.125,9s6-6,7.125-9v-18c-1.125-3-4.875-9-7.125-9s-6,6-7.125,9
			V38.9999695L22.875,38.9999695z"/>
		<path class="st1" d="M37.125,38.9999695c1.125-3,1.875-6,1.875-9s-0.75-6-1.875-9c-1.125,3-1.875,6-1.875,9
			S36,35.9999695,37.125,38.9999695L37.125,38.9999695z"/>
		<path class="st1" d="M22.875,38.9999695c-1.125-3-1.875-6-1.875-9s0.75-6,1.875-9c1.125,3,1.875,6,1.875,9
			S24,35.9999695,22.875,38.9999695L22.875,38.9999695z"/>
		<path class="st0" d="M30,27.7499695c0.8285828,0,1.5,1.0072937,1.5,2.25c0,1.2421875-0.6714172,2.25-1.5,2.25
			c-0.8286133,0-1.5-1.0078125-1.5-2.25C28.5,28.7572632,29.1713867,27.7499695,30,27.7499695L30,27.7499695z"/>
		<path class="st0" d="M30.375,32.1933899c0,0,1.5,3,1.5,7.875s-1.5,7.875-1.5,7.875V32.1933899L30.375,32.1933899z"/>
		<path class="st0" d="M29.625,27.8061829c0,0-1.5-3-1.5-7.875s1.5-7.875,1.5-7.875V27.8061829L29.625,27.8061829z"/>
		<path class="st0" d="M29.625,32.1933899c0,0-1.5,3-1.5,7.875s1.5,7.875,1.5,7.875V32.1933899L29.625,32.1933899z"/>
		<path class="st0" d="M30.375,27.8061829c0,0,1.5-3,1.5-7.875s-1.5-7.875-1.5-7.875V27.8061829L30.375,27.8061829z"/>
	</g>
</g>
</svg>
