<?xml version="1.0" encoding="utf-8"?>
<!-- Generator: Adobe Illustrator 22.1.0, SVG Export Plug-In . SVG Version: 6.00 Build 0)  -->
<svg version="1.1" id="Layer_1" xmlns="http://www.w3.org/2000/svg" xmlns:xlink="http://www.w3.org/1999/xlink" x="0px" y="0px"
	 viewBox="0 0 60 60" style="enable-background:new 0 0 60 60;" xml:space="preserve">
<style type="text/css">
	.st0{clip-path:url(#SVGID_2_);fill:#CE1327;}
	.st1{clip-path:url(#SVGID_2_);fill:#FDD21A;}
	.st2{clip-path:url(#SVGID_2_);fill:#BE9C07;}
	.st3{clip-path:url(#SVGID_2_);fill:#184283;}
	.st4{clip-path:url(#SVGID_2_);fill:#FFFFFF;}
</style>
<g id="XMLID_1_">
	<g>
		<defs>
			<path id="SVGID_1_" d="M59,60H0.9999695C0.4477234,60,0,59.5526733,0,59V0.9999695c0-0.5522461,0.4477234-1,0.9999695-1H59
				c0.5526886,0,0.9999847,0.4477539,0.9999847,1V59C59.9999847,59.5526733,59.5526886,60,59,60L59,60z"/>
		</defs>
		<clipPath id="SVGID_2_">
			<use xlink:href="#SVGID_1_"  style="overflow:visible;"/>
		</clipPath>
		<polygon class="st0" points="-30,-0.0000305 89.9999847,-0.0000305 89.9999847,60 -30,60 -30,-0.0000305 		"/>
		<path class="st1" d="M39.8778992,28.257782c1.7519836,0.4701843,4.4023743,0.3520813,5.5917664,1.7421875
			c-1.7499695-0.4702148-3.9100647,2.3623047-5.5917664,1.742218c1.4863892,1.0400085-21.6079102,0-19.7558289,0
			c-1.7519836-0.469696-4.401886-0.3526001-5.5922852-1.742218c1.75,0.4702148,3.9100952-2.3617859,5.5922852-1.7421875
			c-1.4858704-1.0400085-4.0619812-1.8457031-4.6601868-3.5498047c1.4863281,1.0400085,4.5083008-0.8881836,5.8521118,0.2759094
			c-1.0401001-1.4839172-3.2138977-3.1138-3.1661072-4.9277039c1.0401001,1.4857788,4.5419922,0.6899109,5.4039001,2.2597046
			c-0.467804-1.7518921-1.881897-4.0097046-1.2875977-5.7138062c0.469696,1.7514038,3.995575,2.1865234,4.305603,3.9721069
			c0.1582031-1.8066101-0.480011-4.4208984,0.7442017-5.8100281C27.1557922,16.5708008,30.3397827,18.1835938,30,19.9691772
			c0.7661133-1.6430054,1.1903687-4.2983093,2.6854858-5.2050171c-0.7655945,1.6434937,1.7344055,4.2397156,0.7442017,5.8100281
			c1.282196-1.2822266,2.5205078-3.657196,4.3066101-3.9721069c-1.282196,1.282196,0.0839844,4.547821-1.2881165,5.7138062
			c1.6416016-0.7661133,3.5821228-2.5751953,5.4034119-2.2597046c-1.6436157,0.7655945-1.4815063,4.3076172-3.1661072,4.9277039
			c1.8085938-0.1577148,4.2344055-1.1820984,5.8526001-0.2759094C42.7323914,24.8661804,41.7304993,28.257782,39.8778992,28.257782
			L39.8778992,28.257782z"/>
		<path class="st2" d="M20.1586914,31.6122742c0.7563171,0.0596313,5.1333008,0.2588196,9.6802063,0.3691101
			c8.7967834,0.2138977,9.8612976-0.1034851,9.9785156-0.2060242c-0.0176086,0.015625-0.0244141,0.0498047-0.0186157,0.0771179
			l0.1308899-0.250885c0.789093,0.289978,1.7138977-0.2559204,2.6932983-0.8340149
			c0.8067017-0.4755859,1.6367798-0.9653931,2.4239197-0.9701843c-0.8457336-0.6889954-2.1758118-0.8848267-3.4678345-1.0747375
			c-0.6249695-0.0922852-1.2147827-0.1791687-1.7402039-0.3198853l0.039032-0.2948914
			c0.8779907,0,1.5605774-0.8378906,2.2841797-1.7250977c0.5811157-0.7138977,1.179718-1.4476929,1.9092102-1.7201843
			c-1.0409851-0.3638-2.3545227-0.0908203-3.6298828,0.1737976c-0.617218,0.1283875-1.2002258,0.2494812-1.742218,0.296875
			l-0.0653992-0.289978c0.7900085-0.2906189,1.148407-1.3008118,1.5272827-2.3702087
			c0.3135071-0.8842163,0.6358032-1.7944031,1.2403259-2.3036804c-1.1005859,0.0058594-2.2442017,0.7158813-3.3534851,1.4052734
			c-0.5372314,0.3330078-1.0440369,0.647522-1.5362244,0.8774109l-0.1611023-0.2503967
			c0.6445007-0.5474243,0.6347961-1.6192017,0.625-2.7539062c-0.0087891-0.9365845-0.0175781-1.9004211,0.3760071-2.5855103
			c-1.0147095,0.379425-1.8536072,1.4394836-2.6679993,2.468811c-0.3926086,0.4964905-0.7637024,0.9653015-1.1474915,1.3490906
			l-0.233429-0.1860962c0.4717102-0.7470093,0.0772095-1.7666016-0.3407898-2.8461914
			c-0.3301086-0.8535156-0.6688843-1.7314148-0.5487976-2.4926147c-0.7851868,0.7098999-1.2256165,1.9902039-1.6524048,3.2339172
			c-0.2044983,0.594696-0.3978882,1.1567078-0.625,1.6434937l-0.2832031-0.0913086
			c0.1607361-0.8422852-0.5448914-1.6605835-1.2915039-2.5273132c-0.6123047-0.7109985-1.2416687-1.4418945-1.3763733-2.2197876
			c-0.5664062,0.9394836-0.5147095,2.2929993-0.4649353,3.6069946c0.0244141,0.6382141,0.0474243,1.2406921-0.0004883,1.785614
			l-0.2967834,0.0126953c-0.1459961-0.8403015-1.0845032-1.3681946-2.0776978-1.9266968
			c-0.8110046-0.4561157-1.6450195-0.9248962-2.0429077-1.6006165c-0.1641235,1.0673218,0.3280945,2.3203125,0.805603,3.5365906
			c0.2309875,0.5884094,0.4491882,1.144043,0.5894165,1.6684265l-0.2764282,0.1109009
			c-0.4047852-0.7373047-1.4696655-0.9121094-2.5967102-1.0971985c-0.9325562-0.1528015-1.8920593-0.3105164-2.4974976-0.8218079
			c0.171814,1.0660095,1.0820007,2.0772095,1.9658203,3.0585938c0.4276733,0.4751282,0.8319702,0.9239197,1.144989,1.3701172
			l-0.2211914,0.1992798c-0.629425-0.5449829-1.6870117-0.3476868-2.8066101-0.1391907
			c-0.9291687,0.1733093-1.8847961,0.351593-2.6298828,0.0811157c0.5385742,0.9335938,1.7338867,1.575592,2.8935852,2.1987
			c0.5605164,0.3012695,1.0898132,0.5854187,1.5350952,0.8974915l-0.1376953,0.2636108
			c-0.7894897-0.2915039-1.7142639,0.2548828-2.6937866,0.8334961c-0.8067322,0.4755859-1.6362915,0.9653931-2.4239197,0.9701843
			c0.8462219,0.6889954,2.1768188,0.8853149,3.4683228,1.074707c0.625,0.0917969,1.2153015,0.1788025,1.7396851,0.319397
			L20.1586914,31.6122742L20.1586914,31.6122742z M34.9804993,32.3544922c-1.3135071,0-2.968811-0.0205078-5.0586243-0.0713196
			c-4.6923828-0.1123047-9.7831726-0.3397827-9.9482727-0.3926086l-0.1230164-0.0380859l0.0033875-0.0223999
			c-0.4512024-0.1045227-0.9516907-0.1786804-1.476593-0.2558899c-1.5169678-0.2225952-3.0853882-0.4541016-3.9613953-1.4765015
			l-0.3148804-0.3681946l0.4676819,0.1254883c0.7998962,0.2153015,1.7427063-0.3422852,2.655304-0.8813782
			c0.7510071-0.4433289,1.5215149-0.8979187,2.2504883-0.949707c-0.2948914-0.1733093-0.6138-0.3447266-0.9432983-0.5214844
			c-1.3618774-0.7319336-2.7701111-1.4882507-3.2109985-2.7446289l-0.1542969-0.4399109l0.3819275,0.2671204
			c0.6786804,0.4750977,1.7606812,0.2733765,2.8065796,0.0780945c0.8534851-0.1592102,1.7290039-0.3222961,2.425293-0.1255188
			c-0.218811-0.2626953-0.4605103-0.5312805-0.7105103-0.809082c-1.0355835-1.1499023-2.1063843-2.3388977-2.0712891-3.6766968
			l0.0123291-0.4545898l0.2606812,0.372467c0.473114,0.6763306,1.5546875,0.8535156,2.6010742,1.0254211
			c0.8608093,0.1411133,1.7441101,0.2861938,2.3325195,0.7144165c-0.1118164-0.3179016-0.242218-0.6490173-0.3764954-0.9912109
			c-0.5620117-1.4312134-1.1430054-2.9111938-0.7055054-4.1656189l0.1600952-0.4598999l0.1260071,0.4701843
			c0.2142944,0.7974243,1.164093,1.3320312,2.0829773,1.8486328c0.7622375,0.4286804,1.5439148,0.8681946,1.9555969,1.4794922
			c0.0009155-0.3427734-0.0131836-0.7045898-0.0273743-1.0786133c-0.0585938-1.5361023-0.1191101-3.1249695,0.781311-4.1474915
			l0.3016968-0.3426819l-0.0395203,0.4549866c-0.0717773,0.819397,0.6387024,1.6435852,1.3252258,2.4410095
			c0.5731812,0.6654968,1.1610718,1.3480835,1.3353577,2.0653992c0.1192322-0.3125305,0.2339172-0.6470032,0.3526306-0.992218
			c0.5043945-1.467804,1.0263062-2.9852905,2.1317749-3.6557922l0.4219055-0.2557983l-0.2080078,0.4476929
			c-0.3437805,0.736908,0.0439148,1.7412109,0.4199219,2.7120056c0.3182983,0.8226929,0.6445007,1.6665039,0.5585938,2.4046936
			c0.2129211-0.2494812,0.4267273-0.519989,0.6473999-0.7992859c0.9561157-1.2089844,1.9454041-2.4590149,3.2618103-2.690918
			l0.468689-0.082489l-0.3368835,0.3363953c-0.585907,0.585907-0.5762024,1.6796875-0.5664062,2.7373047
			c0.0078125,0.8735046,0.0155945,1.769104-0.3066101,2.429718c0.296814-0.1685181,0.6035156-0.3589172,0.9208069-0.5552063
			c1.3008118-0.8085938,2.6484985-1.6440125,3.9882812-1.4116211l0.4717102,0.0815125l-0.4345703,0.2022095
			c-0.7509155,0.3500977-1.1171265,1.382782-1.4716187,2.3813171c-0.2911072,0.8222656-0.5899048,1.6660767-1.117218,2.175293
			c0.3369141-0.0566101,0.6894226-0.1298218,1.054718-0.2055359c1.4950867-0.3110962,3.0409851-0.6323853,4.2303772,0.0341187
			l0.4248047,0.237793l-0.4852905,0.042511c-0.8173828,0.0718079-1.4981079,0.907196-2.1562805,1.7148743
			c-0.5585938,0.6849976-1.1307983,1.387207-1.8203125,1.6865234c0.3320923,0.0614929,0.6846008,0.1132812,1.0487976,0.1669922
			c1.5166016,0.2230835,3.0849915,0.4535828,3.9609985,1.4765015l0.3143921,0.3681946l-0.4676819-0.1254883
			c-0.7989197-0.215332-1.742218,0.3422852-2.6542969,0.8813782c-0.9131165,0.5381165-1.8554993,1.0937195-2.7138977,0.922821
			C39.976593,32.0956726,39.5976868,32.3544922,34.9804993,32.3544922L34.9804993,32.3544922z"/>
		<polygon class="st1" points="21.671875,29.9999695 15.3539734,27.4179993 22.1737976,27.151886 17.1200867,22.5639648 
			23.6200867,24.6478882 20.4398804,18.6083984 25.8358765,22.7880859 24.914093,16.0263672 28.5541992,21.7997742 30,15.1293945 
			31.4462891,21.7997742 35.085907,16.0263672 34.164093,22.7880859 39.5575867,18.6083984 36.3798828,24.6478882 
			42.8778992,22.5639648 37.8261719,27.151886 44.6435852,27.4179993 38.3280945,29.9999695 44.6435852,32.5819702 
			15.3539734,32.5819702 21.671875,29.9999695 21.671875,29.9999695 		"/>
		<path class="st2" d="M16.1177063,32.4315796h27.7631836l-5.6094055-2.2929077
			c-0.0567017-0.0229797-0.093811-0.0776978-0.093811-0.1387024c0-0.0609741,0.0371094-0.1156921,0.093811-0.1386719
			l5.6758118-2.3203125l-6.1270142-0.2392273c-0.0614929-0.0024719-0.1141968-0.0410461-0.1356812-0.0986938
			c-0.0205078-0.0570984-0.0049133-0.1210632,0.0409851-0.1620789l4.5390015-4.1229858l-5.8388062,1.8729858
			c-0.0585938,0.0185852-0.1221008,0-0.1601868-0.0463867c-0.0400085-0.046814-0.046814-0.1123352-0.0185242-0.1665344
			l2.8564148-5.4276733l-4.8475952,3.7562866c-0.0479126,0.0371094-0.1142883,0.0415344-0.1669922,0.011322
			c-0.0527954-0.0308228-0.0820923-0.0899048-0.0733032-0.1504211l0.828186-6.0762024l-3.2705994,5.1885071
			c-0.0332031,0.0513-0.093689,0.0780945-0.1532898,0.0679016c-0.0595093-0.0108032-0.1073914-0.0567017-0.1201172-0.1163025
			L30,15.8373718l-1.2992859,5.9941101c-0.0132141,0.0596008-0.0606384,0.1054993-0.120636,0.1163025
			c-0.0605774,0.0101929-0.120575-0.0161743-0.1528931-0.0679016l-3.2709045-5.1885071l0.8286133,6.0762024
			c0.0078125,0.0605164-0.0210266,0.1195984-0.073822,0.1504211c-0.0531921,0.0302124-0.1185913,0.0257874-0.1669922-0.011322
			l-4.8490906-3.7562866l2.8579102,5.4276733c0.0283813,0.0537109,0.0209656,0.1197205-0.0180054,0.1665344
			c-0.039093,0.0463867-0.1031189,0.0644836-0.1607056,0.0463867l-5.8407898-1.8729858l4.5415039,4.1229858
			c0.0448914,0.0410156,0.0610046,0.1049805,0.039978,0.1620789c-0.0209961,0.0576477-0.0741882,0.0962219-0.1351929,0.0986938
			l-6.128418,0.2392273l5.6772156,2.3203125c0.0567322,0.0229797,0.0933228,0.0776978,0.0933228,0.1386719
			c0,0.0610046-0.0365906,0.1157227-0.0933228,0.1387024L16.1177063,32.4315796L16.1177063,32.4315796z M44.6435852,32.7323914
			H15.3539734c-0.0718079,0-0.1333008-0.0508118-0.1469727-0.1211243c-0.0141296-0.070282,0.0239868-0.1405945,0.0903931-0.1679077
			l5.9779968-2.4433899l-5.9779968-2.4433594c-0.0654907-0.0263367-0.1036072-0.0952148-0.0913086-0.1645203
			c0.0126953-0.0698242,0.0716858-0.1211243,0.1419983-0.1240234L21.8013,27.0166016l-4.7823181-4.3418274
			c-0.0522156-0.0473633-0.0643921-0.1244812-0.0288086-0.1859741c0.0352173-0.0611267,0.1079102-0.0894165,0.1758118-0.0679321
			l6.1503906,1.972229l-3.0092773-5.7149048c-0.0327148-0.0625-0.0174866-0.1391296,0.0367126-0.1845093
			c0.0540771-0.0454712,0.1322937-0.0469055,0.1878662-0.0039978l5.1060181,3.9551086l-0.8726196-6.398407
			c-0.0091858-0.0697937,0.031311-0.137207,0.0977173-0.1611023c0.065918-0.0240173,0.1405945,0.000885,0.1781921,0.0609741
			l3.4444275,5.4634094l1.3680725-6.3119812C29.8681946,15.0287781,29.9296875,14.9794617,30,14.9794617
			s0.1318054,0.0493164,0.1464844,0.1182251l1.368103,6.3119812l3.444397-5.4634094
			c0.0381165-0.0600891,0.1112976-0.0849915,0.1787109-0.0609741c0.0653992,0.0238953,0.1063843,0.0913086,0.0967102,0.1611023
			l-0.8721008,6.398407l5.1034851-3.9551086c0.0556946-0.0429077,0.1347961-0.0414734,0.1884766,0.0039978
			c0.0537109,0.0453796,0.0693359,0.1220093,0.0361328,0.1845093l-3.0068054,5.7149048l6.148407-1.972229
			c0.0673828-0.0209961,0.140686,0.0068054,0.1758118,0.0679321c0.0351868,0.0614929,0.0234985,0.1386108-0.0293274,0.1859741
			l-4.780304,4.3418274l6.4512024,0.2514648c0.0712891,0.0028992,0.1299133,0.0541992,0.1426086,0.1240234
			c0.0117188,0.0693054-0.0263977,0.1381836-0.0907898,0.1645203l-5.976593,2.4433594l5.976593,2.4433899
			c0.0653687,0.0273132,0.1034851,0.0976257,0.0897827,0.1679077
			C44.7772827,32.6815796,44.7157898,32.7323914,44.6435852,32.7323914L44.6435852,32.7323914z"/>
		<path class="st1" d="M30,21.7284851c4.5683899,0,8.2714844,3.7030945,8.2714844,8.2714844
			c0,4.5684204-3.7030945,8.2715149-8.2714844,8.2715149c-4.5684204,0-8.2715149-3.7030945-8.2715149-8.2715149
			C21.7284851,25.4315796,25.4315796,21.7284851,30,21.7284851L30,21.7284851z"/>
		<path class="st2" d="M30,21.9081726c-4.4619141,0-8.0917969,3.6298828-8.0917969,8.0917969S25.5380859,38.0917664,30,38.0917664
			c4.4618835,0,8.0917969-3.6298828,8.0917969-8.0917969S34.4618835,21.9081726,30,21.9081726L30,21.9081726z M30,38.4520874
			c-4.6602173,0-8.4517212-3.7919006-8.4517212-8.4521179c0-4.6601868,3.7915039-8.4516907,8.4517212-8.4516907
			c4.6601868,0,8.4520874,3.7915039,8.4520874,8.4516907C38.4520874,34.6601868,34.6601868,38.4520874,30,38.4520874L30,38.4520874z
			"/>
		<path class="st1" d="M32.7196655,9.9721375l4.436615,0.0298462c0.0273132-0.1880493-0.3798828-0.5610962-0.7304993-0.6157837
			c-1.1221008-0.176239-1.9638977,0.1870422-3.3280945,0.2011719L32.7196655,9.9721375L32.7196655,9.9721375L32.7196655,9.9721375z"
			/>
		<path class="st2" d="M33.0038757,9.8539734l3.9873047,0.026886c-0.1005859-0.1362305-0.343689-0.3383789-0.5839844-0.3760071
			c-0.6299133-0.0991211-1.1650085-0.0234375-1.7842102,0.0634766c-0.4491882,0.0635071-0.9129944,0.129425-1.4736023,0.1382141
			L33.0038757,9.8539734L33.0038757,9.8539734z M37.2597961,10.1225891l-4.8243103-0.0322876l0.6114197-0.6225281
			l0.0498047-0.0005188c0.5682983-0.0058594,1.0380554-0.0722656,1.4930725-0.1362305
			c0.6113892-0.0864258,1.1895142-0.1679382,1.8545227-0.0634766c0.3720703,0.058136,0.8730774,0.4638977,0.8300781,0.7519226
			L37.2597961,10.1225891L37.2597961,10.1225891z"/>
		<path class="st1" d="M23.8862,8.9287109c1.0419617,1.3158569,3.0619812,2.2304688,4.9897766,2.2426758
			c2.5996094,0.0155945,5.4844055-2.0884094,8.9697266-2.7324524l-11.3818054-0.234375
			c-1.4736938-1.0092773-2.5918274-0.8813171-3.3540039-0.2553711l-2.1757812,0.0654602
			c-0.308136,0.1679382,0.2538757,0.8686523,0.7098694,0.8945007L23.8862,8.9287109L23.8862,8.9287109z"/>
		<path class="st2" d="M20.9745789,8.1337585c-0.0082703,0.0117188-0.0137024,0.0327148-0.0038757,0.0757141
			c0.0513,0.226532,0.4110718,0.5644226,0.6801758,0.5795593l2.2934265,0.0200195l0.035675,0.0449524
			c1.0312195,1.3022766,2.9989929,2.1855774,4.8970032,2.1972961c1.3720093,0.0131836,2.8778992-0.6060181,4.4638062-1.2564087
			c1.1221008-0.4599609,2.2744141-0.9320984,3.5126953-1.2563477L26.4258118,8.3237305l-0.0298462-0.0205078
			c-1.2587891-0.8613586-2.3686829-0.9526672-3.2099915-0.261261l-0.0317078,0.0258789L20.9745789,8.1337585L20.9745789,8.1337585z
			 M28.9052734,11.2915039c-0.0102844,0-0.0199585-0.0005493-0.0302734-0.0005493
			c-1.9443054-0.0116882-3.9638977-0.9110718-5.046936-2.2426453l-2.184967-0.0195312
			c-0.3960266-0.0219727-0.8345032-0.4467773-0.906311-0.766571c-0.0350952-0.1567383,0.015625-0.2851868,0.139679-0.3525696
			l0.0254517-0.0136414l2.1639709-0.065918c0.6513977-0.5166321,1.7670898-0.874054,3.4361267,0.2548828l11.3465881,0.2338562
			l0.0195923,0.2378235c-1.5918274,0.2944336-3.0381165,0.8871765-4.436615,1.4604492
			C31.8339844,10.6723938,30.3241882,11.2909546,28.9052734,11.2915039L28.9052734,11.2915039z"/>
		<path class="st1" d="M29.032196,8.1737976c-0.4140015-1.9037781-1.9424133-2.7240906-3.7782898-2.9677734
			c-2.1221313-0.28125-7.0039368-0.5693054-10.2480164-1.500946c1.4042969,1.3803406,4.3421936,2.0693054,6.3841858,2.3808289
			c2.1617126,0.3300781,4.2657166,0.8110657,5.9341125,2.0703125L29.032196,8.1737976L29.032196,8.1737976L29.032196,8.1737976z"/>
		<path class="st2" d="M27.3646851,8.0366211l1.5151978,0.0155945c-0.3959961-1.5419617-1.6200867-2.4589539-3.6416016-2.7270203
			c-0.530304-0.0703125-1.2315063-0.140625-2.0439758-0.2226562c-2.2729187-0.2285156-5.3291016-0.535675-7.7099304-1.1435852
			c1.565918,1.1923828,4.3305359,1.7651367,5.9237976,2.0083008C23.4888,6.2851257,25.6494141,6.7558289,27.3646851,8.0366211
			L27.3646851,8.0366211z M29.1812134,8.2953796l-1.8980408-0.0195312l-0.0311584-0.0238953
			c-1.6778259-1.2666321-3.8174133-1.7324524-5.8799133-2.0473938c-1.7661133-0.2695312-4.9522095-0.9414062-6.4502258-2.4140625
			l0.117218-0.2006836c2.4204102,0.6948242,5.7489929,1.0297852,8.1791992,1.2739563
			c0.8143921,0.0820312,1.5174866,0.1528015,2.051178,0.2236023c2.1958008,0.2910156,3.5015259,1.3208008,3.8799133,3.0605774
			L29.1812134,8.2953796L29.1812134,8.2953796z"/>
		<path class="st1" d="M27.6537781,9.4443359c0.6782227,0.8705444,1.730011,0.821228,2.8623047,0.0615234
			c1.127533-0.7568665,2.3540039-2.8891907,2.9458008-2.9243469c4.1377258-0.2402344,9.1445007-1.9872742,11.532196-3.3359375
			c-3.0282898,0.4282227-6.0282898,0.9145508-9.0819702,0.9262695c-5.210022,0.0210266-5.8262329,2.3935547-7.9502258,4.0571289"/>
		<path class="st2" d="M28.9208984,10.2045898c-0.5386353,0-1.0054016-0.2295227-1.3618164-0.686554
			c-0.0404663-0.0522461-0.0312805-0.1278992,0.0210266-0.168457c0.0521545-0.0405273,0.1273804-0.0312195,0.168396,0.0209961
			c0.8222961,1.0561829,2.0449829,0.4755859,2.7006836,0.035675c0.5337219-0.3579407,1.1026001-1.0478821,1.6045227-1.6562805
			c0.5839539-0.7079773,1.0448914-1.2670898,1.4013672-1.2880554c3.9462891-0.2295227,8.4725952-1.7954407,10.8760071-3.0005188
			c-0.1152954,0.0161133-0.2304993,0.0327454-0.3447876,0.0493164c-2.6337891,0.3789368-5.3564148,0.7705078-8.0741882,0.78125
			c-3.897522,0.015625-5.1611328,1.3344727-6.4995117,2.7304688c-0.4204102,0.4389648-0.8554993,0.8930664-1.3764954,1.3013
			c-0.0522156,0.0404968-0.1278992,0.0317078-0.168396-0.0205078c-0.0410156-0.0522766-0.0318298-0.1274414,0.0204773-0.168457
			c0.5072937-0.3974915,0.9364929-0.8452148,1.3511047-1.2783508c1.3138733-1.3710938,2.6727905-2.7885742,6.671814-2.8046875
			c2.7011719-0.0102539,5.4151001-0.4008484,8.0409851-0.7783203c0.3409119-0.0493164,0.6826782-0.0986328,1.0253906-0.1469727
			l0.0752258,0.2236328C42.4550781,4.8173523,37.4121094,6.472168,33.468811,6.7016296
			c-0.2520142,0.0146484-0.7491455,0.6176758-1.2304993,1.2011719c-0.5117188,0.6210938-1.092804,1.3251953-1.655304,1.7026672
			C29.987793,10.0048828,29.4229126,10.2045898,28.9208984,10.2045898L28.9208984,10.2045898z"/>
		<path class="st2" d="M28.4619141,8.5405273c-0.0395203,0-0.078125-0.0195618-0.1011047-0.0556641
			c-0.0356445-0.0556641-0.0190125-0.1299133,0.0366821-0.1655273c0.6512756-0.4150696,1.2430725-0.9155273,1.8149109-1.3994446
			c0.394989-0.3349304,0.8041992-0.6806335,1.2299805-0.9970398c1.7705078-1.3125,3.7842102-1.3374023,5.9160156-1.3637695
			c1.8241882-0.0224915,4.9520874-0.7558594,6.8212891-1.1943665l0.1611023-0.0380859
			C44.4042969,3.3125,44.469696,3.351532,44.4844055,3.4159851c0.015564,0.0644531-0.0244141,0.129425-0.0889282,0.1445312
			l-0.1610718,0.0376282c-1.8789368,0.440918-5.0234985,1.1781921-6.8731079,1.2011719
			c-2.0917969,0.0258484-4.0674133,0.0502625-5.7754211,1.3163757c-0.4208984,0.3115234-0.8261108,0.6547852-1.218689,0.9873047
			c-0.5776062,0.4892578-1.175293,0.9951172-1.8407898,1.4189453C28.5062866,8.534668,28.4844055,8.5405273,28.4619141,8.5405273
			L28.4619141,8.5405273z"/>
		<path class="st2" d="M27.1879883,8.1098633c-0.3013-1.5732422-1.7494812-2.1064453-3.8320007-2.4228516
			c-0.5791016-0.0878906-1.1719055-0.1669922-1.7456055-0.2436829c-1.6040955-0.2138672-3.2626953-0.4345398-4.8764954-0.8808594
			c-0.3686829-0.101532-0.7221985-0.2563477-1.0644836-0.4057617c-0.171814-0.0751648-0.3432312-0.1503906-0.5175171-0.2192383
			l0.0883179-0.2231445c0.1767883,0.0698547,0.3510742,0.1460266,0.5253601,0.2221985
			c0.3345337,0.1464844,0.6802368,0.2973633,1.0323181,0.3945007c1.5976257,0.441925,3.2479858,0.6616516,4.8442078,0.8745117
			c0.5746765,0.0766602,1.1688843,0.1557617,1.75,0.2441711c2.1831055,0.3320007,3.7041016,0.9032898,4.0317078,2.6147461
			L27.1879883,8.1098633L27.1879883,8.1098633z"/>
		<path class="st2" d="M28.5990906,10.7387695c-0.1968079,0-0.3978882-0.0073853-0.6040039-0.0224915
			c-0.0658875-0.0048828-0.1156921-0.0625-0.1108093-0.128418c0.0049133-0.0658875,0.0620117-0.1137695,0.128418-0.1107788
			c2.1010742,0.1552124,3.6317749-0.5108032,5.273407-1.3291626c0.0585938-0.0292969,0.131897-0.0058594,0.1611938,0.0537109
			c0.0292969,0.0596008,0.0057983,0.1313782-0.0537109,0.1611328C31.9345703,10.0897827,30.464386,10.7387695,28.5990906,10.7387695
			L28.5990906,10.7387695z"/>
		<path class="st2" d="M23.5180969,8.4863281h-2.5923157c-0.0658875,0-0.1195984-0.0537415-0.1195984-0.1201172
			c0-0.0664368,0.0537109-0.1201172,0.1195984-0.1201172h2.5923157c0.0664062,0,0.1201172,0.0536804,0.1201172,0.1201172
			C23.6382141,8.4325867,23.5845032,8.4863281,23.5180969,8.4863281L23.5180969,8.4863281z"/>
		<path class="st2" d="M24.3500977,7.7631531c0.1787109,0,0.3237,0.1455078,0.3237,0.3242188s-0.144989,0.3242493-0.3237,0.3242493
			c-0.1792297,0-0.3242188-0.1455383-0.3242188-0.3242493S24.1708679,7.7631531,24.3500977,7.7631531L24.3500977,7.7631531z"/>
		<polygon class="st3" points="-30,32.9999695 89.9999847,32.9999695 89.9999847,60 -30,60 -30,32.9999695 		"/>
		<path class="st4" d="M-30,51.4277039C-26.0000305,51.4277039-22,54-18,54c3.9999695,0,8-2.5722961,12-2.5722961
			C-2.0000305,51.4277039,2,54,6,54c3.9999695,0,8-2.5722961,12-2.5722961C21.9999695,51.4277039,26,54,30,54
			c3.9999695,0,8-2.5722961,12-2.5722961C45.9999695,51.4277039,50,54,53.9999847,54c4,0,8-2.5722961,12-2.5722961
			s8,2.5722961,12,2.5722961s8-2.5722961,12-2.5722961V47.141571c-4,0-8,2.5722961-12,2.5722961s-8-2.5722961-12-2.5722961
			s-8,2.5722961-12,2.5722961C50,49.7138672,45.9999695,47.141571,42,47.141571c-4,0-8.0000305,2.5722961-12,2.5722961
			c-4,0-8.0000305-2.5722961-12-2.5722961c-4,0-8.0000305,2.5722961-12,2.5722961c-4,0-8.0000305-2.5722961-12-2.5722961
			c-4,0-8.0000305,2.5722961-12,2.5722961c-4,0-8.0000305-2.5722961-12-2.5722961V51.4277039L-30,51.4277039z"/>
		<path class="st4" d="M-30,42.8563843c3.9999695,0,8,2.5722961,12,2.5722961c3.9999695,0,8-2.5722961,12-2.5722961
			c3.9999695,0,8,2.5722961,12,2.5722961c3.9999695,0,8-2.5722961,12-2.5722961c3.9999695,0,8,2.5722961,12,2.5722961
			c3.9999695,0,8-2.5722961,12-2.5722961c3.9999695,0,8,2.5722961,11.9999847,2.5722961c4,0,8-2.5722961,12-2.5722961
			s8,2.5722961,12,2.5722961s8-2.5722961,12-2.5722961V38.570282c-4,0-8,2.5722961-12,2.5722961s-8-2.5722961-12-2.5722961
			s-8,2.5722961-12,2.5722961C50,41.1425781,45.9999695,38.570282,42,38.570282c-4,0-8.0000305,2.5722961-12,2.5722961
			c-4,0-8.0000305-2.5722961-12-2.5722961c-4,0-8.0000305,2.5722961-12,2.5722961c-4,0-8.0000305-2.5722961-12-2.5722961
			c-4,0-8.0000305,2.5722961-12,2.5722961c-4,0-8.0000305-2.5722961-12-2.5722961V42.8563843L-30,42.8563843z"/>
		<path class="st4" d="M-30,34.2851868c3.9999695,0,8,2.5722046,12,2.5722046c3.9999695,0,8-2.5722046,12-2.5722046
			c3.9999695,0,8,2.5722046,12,2.5722046c3.9999695,0,8-2.5722046,12-2.5722046c3.9999695,0,8,2.5722046,12,2.5722046
			c3.9999695,0,8-2.5722046,12-2.5722046c3.9999695,0,8,2.5722046,11.9999847,2.5722046c4,0,8-2.5722046,12-2.5722046
			s8,2.5722046,12,2.5722046s8-2.5722046,12-2.5722046v-4.2861938c-4,0-8,2.5722961-12,2.5722961s-8-2.5722961-12-2.5722961
			s-8,2.5722961-12,2.5722961C50,32.5712891,45.9999695,29.9989929,42,29.9989929c-4,0-8.0000305,2.5722961-12,2.5722961
			c-4,0-8.0000305-2.5722961-12-2.5722961c-4,0-8.0000305,2.5722961-12,2.5722961c-4,0-8.0000305-2.5722961-12-2.5722961
			c-4,0-8.0000305,2.5722961-12,2.5722961c-4,0-8.0000305-2.5722961-12-2.5722961V34.2851868L-30,34.2851868z"/>
	</g>
</g>
</svg>
