<?xml version="1.0" encoding="utf-8"?>
<!-- Generator: Adobe Illustrator 22.1.0, SVG Export Plug-In . SVG Version: 6.00 Build 0)  -->
<svg version="1.1" id="Layer_1" xmlns="http://www.w3.org/2000/svg" xmlns:xlink="http://www.w3.org/1999/xlink" x="0px" y="0px"
	 viewBox="0 0 60 60" style="enable-background:new 0 0 60 60;" xml:space="preserve">
<style type="text/css">
	.st0{clip-path:url(#SVGID_2_);fill:#E52521;}
	.st1{clip-path:url(#SVGID_2_);fill:#F4E600;}
</style>
<g id="XMLID_1_">
	<g>
		<defs>
			<path id="SVGID_1_" d="M59,60H0.9999695C0.4477234,60,0,59.5526733,0,59V0.9999695c0-0.5522461,0.4477234-1,0.9999695-1H59
				c0.5526886,0,0.9999847,0.4477539,0.9999847,1V59C59.9999847,59.5526733,59.5526886,60,59,60L59,60z"/>
		</defs>
		<clipPath id="SVGID_2_">
			<use xlink:href="#SVGID_1_"  style="overflow:visible;"/>
		</clipPath>
		<polygon class="st0" points="-20.0000305,-0.0000305 79.9999847,-0.0000305 79.9999847,60 -20.0000305,60 -20.0000305,-0.0000305 
					"/>
		<path class="st1" d="M34.7842102,16.7992859c-0.304718,0.3554688-0.6436462,0.8129883-0.9824219,1.5410156
			c-0.0849915-0.1860046-0.0849915-0.4062195-0.0341797-0.6435242c0.0848999-0.7787781,0.3055725-1.2529907,0.7118835-1.9136047
			c0.1347961-0.2368164,0.2704773-0.4403992,0.3388977-0.6943054c0.2538757-0.7621765,0.2030945-1.7783813-0.3565063-2.5742798
			c0.085022,0.8980103-0.1854858,1.6430664-0.4902039,2.1000977c-0.0517883,0.0845032-0.1026001,0.1353149-0.1698914,0.203186
			c-0.3212891,0.3217163-0.6778259,0.6434937-1.1347961,1.3886108c-0.2539062,0.4067993-0.507782,0.8974915-0.7450867,1.6768188
			c-0.1016235-0.1694336-0.1358032-0.3725891-0.1182251-0.6099243c-0.0341797-0.7958984,0.101593-1.2870789,0.3897095-2.0150757
			c0.1014709-0.2539368,0.2030945-0.4741211,0.2362976-0.7451172c0.1191101-0.7792969-0.0840149-1.7782898-0.7617188-2.4727173
			c0.2207336,0.8638306,0.0848999,1.6426086-0.1524048,2.1509094c-0.0507812,0.0845032-0.0848999,0.1524048-0.1356812,0.2202148
			c-0.2704773,0.3725891-0.5585938,0.7450867-0.914093,1.5409851c-0.1694031,0.4571228-0.355896,0.9819946-0.4575195,1.7784119
			c-0.1352844-0.1528931-0.203064-0.3559875-0.2201843-0.592804c-0.1524048-0.7792969-0.101593-1.2871094,0.0679016-2.0493164
			c0.0678101-0.2538757,0.1357117-0.4911804,0.1185913-0.7621765c0-0.795929-0.3554688-1.7442017-1.1347961-2.3370056
			c0.3560181,0.8300781,0.3388977,1.6259766,0.186615,2.1679688c-0.0342102,0.0674133-0.0679016,0.1524048-0.101593,0.2197266
			c-0.2036133,0.4234009-0.4403992,0.8301086-0.660614,1.6767883c-0.1016235,0.4741211-0.2032166,1.0332031-0.1860962,1.8291321
			c-0.1357117-0.1357117-0.2373047-0.3218384-0.3052063-0.5420227c-0.2709045-0.762207-0.3045959-1.2533875-0.2367859-2.0492859
			c0.016571-0.2709961,0.0336914-0.5078125,0-0.7616882c-0.1357117-0.7964172-0.6435242-1.6768188-1.4902344-2.1338196
			c0.4741211,0.7616882,0.5757141,1.5575867,0.5078125,2.0995789c-0.0170898,0.085022-0.0336914,0.1694031-0.0508118,0.2539368
			c-0.1351624,0.4403687-0.3046875,0.8808899-0.3895874,1.7611694c-0.0336914,0.4746094-0.0507812,1.0332336,0.1015015,1.8291321
			c-0.1689148-0.1186218-0.2875977-0.2875977-0.3890991-0.4912109c-0.3897095-0.710907-0.4911804-1.2020874-0.5591125-1.9814148
			c-0.016571-0.2705078-0.0336914-0.507782-0.1352844-0.7616882c-0.2373047-0.762207-0.8807983-1.5581055-1.7954102-1.862793
			c0.592804,0.6600952,0.8301086,1.4222717,0.8301086,1.9813843c0,0.0845032,0,0.1690063-0.0171204,0.2539062
			c-0.0677795,0.4570007-0.1522827,0.9312134-0.1014709,1.7948914c0.0506897,0.4742126,0.1185913,1.0332031,0.3895874,1.7950134
			c-0.1864929-0.0845032-0.3388977-0.236908-0.4740906-0.4234009c-0.4912109-0.6264038-0.6607056-1.1005859-0.8467102-1.8628235
			c-0.0679016-0.2709961-0.1185913-0.4906921-0.2543945-0.7450867c-0.3554993-0.6943054-1.1176758-1.3887024-2.065918-1.5575867
			c0.6772156,0.5756836,1.0332336,1.3036804,1.1348267,1.8456726c0.016571,0.0845337,0.016571,0.1694336,0.016571,0.2539062
			c0.0171204,0.4575195,0,0.9316406,0.1865234,1.7949219c0.1186218,0.457489,0.2709961,0.9994812,0.660614,1.6938782
			c-0.1865234-0.0508118-0.355896-0.1694641-0.5254211-0.3388977c-0.5921936-0.5419922-0.8465881-0.9819031-1.1341858-1.7103882
			c-0.1016235-0.2539978-0.2032166-0.4741821-0.3559875-0.694397c-0.4741211-0.6264038-1.3208313-1.1854858-2.3027039-1.2021179
			c0.7787781,0.4570007,1.2357788,1.1006165,1.4223022,1.6255188c0.0170593,0.0848999,0.0336914,0.1694031,0.0507812,0.2538757
			c0.0845032,0.4575195,0.1353149,0.9316101,0.4570923,1.7445984c0.1865234,0.4403992,0.4403992,0.9482117,0.9316101,1.574707
			c-0.2030945-0.0166016-0.3897095-0.1186829-0.5757141-0.2538757c-0.6605835-0.4404297-0.9823914-0.8467102-1.4057922-1.5073242
			c-0.1351929-0.2367859-0.2539062-0.4399719-0.4569702-0.6264954c-0.5591125-0.559082-1.4902344-0.9823914-2.4556274-0.8466797
			c0.8296204,0.3388977,1.3887024,0.9145813,1.6596985,1.4057922c0.0336914,0.0673828,0.0673828,0.1522827,0.1016235,0.2367859
			c0.1522827,0.4233093,0.2709961,0.8809204,0.7108765,1.6426086c0.254425,0.4067078,0.5762024,0.8638,1.1685181,1.422821
			c-0.2032166,0-0.4063416-0.0678101-0.6094055-0.1694031c-0.7279968-0.3388977-1.1011047-0.6777344-1.6089172-1.2700195
			c-0.1860046-0.2035828-0.3388977-0.389679-0.559082-0.5591125C16.664093,20.3388672,15.6815796,20.0678711,14.75,20.3554688
			c0.8808899,0.2036133,1.5244141,0.6777039,1.8461914,1.1176147c0.0679016,0.0679016,0.1016235,0.1358032,0.1351929,0.2203064
			c0.2203064,0.4066772,0.4234009,0.8465881,0.9824829,1.5072937c0.304718,0.3724976,0.6943054,0.7787781,1.3545227,1.2362976
			c-0.1860962,0.0336914-0.3892212,0-0.6264954-0.0848999c-0.7617188-0.2032166-1.1856079-0.4907837-1.7778015-0.9990845
			c-0.2037048-0.1694031-0.389679-0.3217163-0.6269836-0.4570007c-0.7109375-0.3560181-1.7270203-0.4575195-2.6079407-0.0342102
			c0.897522,0.0507812,1.6089172,0.4403992,2.0151062,0.8129883c0.0508118,0.0679321,0.1021118,0.1186829,0.1528931,0.2030945
			c0.2876282,0.3560181,0.5415344,0.7622375,1.2021179,1.3379211c0.3554993,0.3046875,0.8129883,0.6436157,1.5410156,0.9989929
			c-0.1860046,0.0679016-0.406189,0.0679016-0.6264343,0.0170898c-0.7958679-0.0844116-1.253479-0.3046875-1.9306946-0.7113953
			C15.5463867,25.3852844,15.342804,25.25,15.0888672,25.1820984c-0.7621765-0.2539368-1.7612915-0.203125-2.5571594,0.3554688
			c0.8808899-0.0844727,1.6425781,0.1865234,2.1000671,0.4912109c0.0674133,0.0508118,0.1353149,0.1016235,0.1860962,0.1694031
			c0.3388367,0.3218079,0.660614,0.6772766,1.3886108,1.1347961c0.4067993,0.2539062,0.9146118,0.5249023,1.6768188,0.7451172
			c-0.1694336,0.101593-0.3725891,0.1352844-0.6098938,0.1352844c-0.795929,0.0170898-1.2871094-0.1186829-2.0151062-0.4062805
			c-0.2539062-0.101532-0.4741211-0.2036133-0.7451172-0.2373047c-0.7792969-0.1186218-1.7782898,0.0844727-2.4727173,0.762207
			c0.8638306-0.2202148,1.6596985-0.0848999,2.1509399,0.1524048c0.0844727,0.0507507,0.1524048,0.0843811,0.2201843,0.1351624
			c0.3725891,0.2709961,0.7451172,0.5591125,1.5581055,0.9146118c0.4400024,0.1694031,0.9648743,0.3559265,1.7612915,0.4575195
			c-0.1528931,0.1352844-0.3559875,0.2030945-0.5762024,0.2201843c-0.7958984,0.1689758-1.2871094,0.101593-2.065918-0.0679016
			c-0.2538757-0.0678101-0.4911804-0.1185913-0.7621765-0.1185913c-0.7958984,0-1.7442017,0.3554688-2.3199158,1.1347961
			c0.8129883-0.3560181,1.6089172-0.3388977,2.1509094-0.186615c0.0845032,0.0342102,0.1524048,0.0674133,0.2367859,0.101593
			c0.4063416,0.203125,0.8301086,0.4403992,1.6768188,0.6602173c0.4570007,0.1025085,1.0161133,0.2041016,1.8120117,0.1864929
			c-0.1357117,0.1357117-0.3218384,0.2373047-0.5420227,0.3046875c-0.7450867,0.2714233-1.2533875,0.305603-2.0321655,0.2373047
			c-0.2710266-0.0166016-0.5083008-0.0341797-0.7788086,0c-0.7793274,0.1357117-1.659729,0.6435242-2.117218,1.5078125
			c0.7450867-0.4912109,1.5410156-0.592804,2.1000977-0.5253906c0.0845032,0.016571,0.1522827,0.0341797,0.2368164,0.0508118
			c0.4403992,0.1522827,0.8808899,0.3046875,1.7611694,0.3895874c0.4746094,0.0341797,1.0332336,0.0507812,1.8291321-0.101532
			c-0.1186218,0.1689453-0.2875977,0.2880249-0.4912109,0.3896179c-0.6943054,0.3887024-1.2020874,0.4912109-1.9814148,0.5586243
			c-0.2705078,0.0341797-0.507782,0.0507812-0.7616882,0.1356812c-0.7621765,0.2364197-1.5411072,0.8798828-1.862793,1.7950134
			c0.6772156-0.592804,1.4393921-0.8135376,1.9979858-0.8301086c0.0849915,0,0.1694031,0,0.2539062,0.016571
			c0.4403992,0.0683289,0.9146118,0.1523438,1.7953796,0.101532c0.4741211-0.0332031,1.0327148-0.118103,1.7779236-0.3886108
			c-0.0674133,0.1854858-0.2197876,0.3378906-0.4234009,0.4736023c-0.6264038,0.4912109-1.1005859,0.6601868-1.8628235,0.8467102
			c-0.2538757,0.0682983-0.4906921,0.1190796-0.7279968,0.2538757c-0.7113647,0.3564148-1.3887024,1.1181946-1.558075,2.0664368
			c0.559082-0.6777344,1.2870789-1.0332336,1.829071-1.1348267c0.0845337-0.016571,0.1694336-0.016571,0.2539368-0.016571
			c0.457489-0.0175171,0.9481812,0,1.7948914-0.1865234c0.457489-0.1181946,0.9994812-0.2705078,1.7105103-0.6600952
			c-0.0508118,0.1854858-0.1860962,0.3720093-0.3555298,0.5244141c-0.5419922,0.5926819-0.9818726,0.8465881-1.7103882,1.1347046
			c-0.2368774,0.1192017-0.4571228,0.203186-0.6773071,0.3554688c-0.6434631,0.4746094-1.2025757,1.3213196-1.2191772,2.3037109
			c0.4570007-0.7792969,1.1175842-1.2362976,1.6424866-1.422821c0.0845032-0.016571,0.1524048-0.0341797,0.236908-0.0507812
			c0.457489-0.0849915,0.9316101-0.1358032,1.7445984-0.4570007c0.4403687-0.1865845,0.9481812-0.4404907,1.5917969-0.9151001
			c-0.0337219,0.1865234-0.1187134,0.3731079-0.2709961,0.5596008c-0.4403992,0.6600952-0.8296204,0.9813843-1.5073242,1.405304
			c-0.2201843,0.1356812-0.4234009,0.2539062-0.6264648,0.4569702c-0.5591125,0.5586243-0.9653015,1.4902344-0.8296204,2.4560242
			c0.3218079-0.8300171,0.8974915-1.3886108,1.3887024-1.6600952c0.0845032-0.0332031,0.1522827-0.0673828,0.2367859-0.101593
			c0.4404297-0.1357117,0.897522-0.2705078,1.6426086-0.710907c0.4067078-0.2539062,0.8638-0.5762024,1.422821-1.1690063
			c0.016571,0.2032166-0.0507202,0.4062805-0.1694031,0.6104126c-0.3388977,0.7275085-0.6777344,1.1005859-1.2700195,1.6083984
			c-0.2035828,0.1864929-0.389679,0.3388977-0.5419922,0.5585938c-0.457489,0.6435242-0.7284851,1.6260071-0.4403992,2.5575867
			c0.1865234-0.8808899,0.6605835-1.5244141,1.1175842-1.8457031c0.0679321-0.0507812,0.1358032-0.1015625,0.2032166-0.1356812
			c0.4067078-0.2207031,0.8465881-0.4239197,1.5244141-0.9824829c0.3553772-0.304718,0.7616882-0.6943054,1.2191772-1.3545227
			c0.0336914,0.1865845,0,0.4062805-0.0678711,0.6260071c-0.2202454,0.7626953-0.4912415,1.1856079-1.0161133,1.7783203
			c-0.1694031,0.203186-0.3217163,0.3896484-0.4404297,0.6435852c-0.3554688,0.7118835-0.4740601,1.710907-0.0507812,2.5907898
			c0.0679016-0.8973999,0.4403992-1.6083984,0.8301086-1.9980164c0.0508118-0.0673828,0.1185913-0.1181641,0.1859741-0.1689758
			c0.3726196-0.2880859,0.7622375-0.5420227,1.3379211-1.2021179c0.3052063-0.3565063,0.6436157-0.8135071,0.9989929-1.5419922
			c0.0679016,0.1864929,0.0679016,0.407196,0.0342102,0.6269226c-0.1015015,0.7958679-0.304718,1.2529907-0.7114258,1.9306946
			c-0.1522827,0.2373047-0.2709961,0.4403992-0.3554688,0.6942749c-0.2373047,0.7618103-0.1865234,1.7784119,0.3725891,2.5743103
			c-0.0849915-0.897522,0.1694031-1.6601868,0.4911804-2.1171875c0.0508118-0.0674133,0.1016235-0.1358337,0.1523132-0.186615
			c0.3218079-0.3377991,0.6773071-0.6600952,1.1513977-1.3886108c0.2373047-0.4062805,0.5083008-0.914093,0.7285156-1.6758118
			c0.101593,0.1689453,0.1352844,0.3721008,0.1352844,0.6094055c0.0337219,0.795929-0.101593,1.2871094-0.4062805,2.0155945
			c-0.101532,0.2539368-0.1865234,0.4736328-0.2373047,0.7451172c-0.1185913,0.7783203,0.0844727,1.7773132,0.762207,2.4716797
			c-0.2202148-0.8632812-0.0848999-1.6591797,0.1694946-2.1503906c0.0336914-0.0849609,0.0672913-0.1522827,0.1180725-0.219696
			c0.2709961-0.3730774,0.5762329-0.7450867,0.9146423-1.5585938c0.1864624-0.4404907,0.372467-0.9648743,0.4740601-1.7607727
			c0.1187134,0.1523743,0.1865234,0.3554688,0.2202148,0.5751648c0.1524048,0.795929,0.101593,1.2871094-0.0845032,2.0664062
			c-0.0677795,0.2539062-0.1185913,0.4912109-0.1185913,0.7618103c0,0.7958984,0.3724976,1.7440796,1.1513977,2.3203125
			c-0.3554993-0.8125305-0.3554993-1.6083984-0.1860962-2.1503906c0.0171204-0.085022,0.050293-0.1524048,0.0845032-0.2373047
			c0.2030945-0.406311,0.4403687-0.8301086,0.6601868-1.6768188c0.1025085-0.4570007,0.2041321-1.0155945,0.1865234-1.8115234
			c0.1522827,0.1348267,0.2373047,0.3213196,0.3046875,0.5420227c0.2879944,0.7450867,0.3055725,1.2528992,0.2539062,2.0487976
			c-0.0332336,0.2539062-0.0508118,0.4912109,0,0.7616882c0.1190796,0.795929,0.6268921,1.6768188,1.4911804,2.1338196
			c-0.4745789-0.7616882-0.592804-1.5576172-0.5087891-2.0996094c0-0.0849915,0.0176086-0.1688843,0.0507812-0.2539062
			c0.1357117-0.4403992,0.304718-0.8808899,0.3896179-1.7616882c0.0166016-0.4736938,0.0342102-1.0332031-0.1015015-1.8291016
			c0.1523132,0.1191101,0.2879944,0.2880859,0.3895874,0.4912109c0.3897095,0.6942749,0.4912109,1.2030945,0.5585938,1.9813843
			c0.0176086,0.2715149,0.0342407,0.5087891,0.1191101,0.7627258c0.2539062,0.7617798,0.8798828,1.5409851,1.8115845,1.8622742
			c-0.5927734-0.6766968-0.8300781-1.4393921-0.8466797-1.9979858c0-0.0849915,0-0.1698914,0.0166016-0.2539062
			c0.0682983-0.4403992,0.1699219-0.9151001,0.1015015-1.7948914c-0.0332031-0.4746094-0.118103-1.0332031-0.3720093-1.7784119
			c0.1688843,0.0840149,0.3212891,0.2197876,0.4570007,0.4229126c0.4912109,0.6268921,0.6777039,1.1005859,0.8643188,1.8633118
			c0.0506897,0.2538757,0.118103,0.4911804,0.2362671,0.7284851c0.3730164,0.710907,1.1182251,1.3887024,2.0830078,1.5575867
			c-0.6943054-0.5585938-1.0497742-1.2870789-1.1513977-1.8291016c-0.016571-0.0849915-0.016571-0.1689148-0.016571-0.2539062
			c0-0.4570007,0.016571-0.9316101-0.1699219-1.7948914c-0.1181946-0.4570923-0.2871094-0.9989929-0.6766968-1.7109985
			c0.203125,0.0508118,0.3720093,0.1865845,0.5244141,0.3554993c0.5926819,0.5420227,0.8465881,0.9824219,1.1513062,1.710907
			c0.1026001,0.2373962,0.1865845,0.4570923,0.3564758,0.6777954c0.4736023,0.6435242,1.3203125,1.2020874,2.2861023,1.2187195
			c-0.7626953-0.4570312-1.219696-1.117218-1.406189-1.6425171c-0.0332031-0.0849915-0.0508118-0.1524048-0.0674133-0.2373962
			c-0.0673828-0.4570007-0.1358032-0.930603-0.4570007-1.7441101c-0.1865845-0.4403992-0.4238892-0.9482117-0.9151001-1.5751953
			c0.203125,0.0176086,0.3897095,0.101593,0.5762329,0.2549133c0.6600647,0.4393921,0.9823608,0.829071,1.3887024,1.5068054
			c0.1356506,0.2197876,0.2704773,0.4404602,0.4569702,0.6269836c0.5585938,0.5585938,1.4902039,0.9648132,2.4559937,0.8291016
			c-0.8299866-0.3213196-1.3886108-0.897522-1.6424866-1.3887024c-0.0508118-0.0839844-0.0849915-0.1522827-0.101593-0.2373047
			c-0.1533203-0.4393921-0.2881165-0.8974915-0.7285156-1.6425781c-0.2539062-0.4062195-0.5762024-0.8633118-1.1513977-1.421814
			c0.1856079,0,0.3887024,0.0507202,0.6094055,0.1688843c0.710907,0.3388977,1.1006165,0.6777344,1.6083984,1.2705078
			c0.1698914,0.2030945,0.3222961,0.389679,0.5419922,0.5419922c0.6435242,0.4736328,1.6260071,0.7275085,2.5575867,0.4570312
			c-0.8642883-0.203125-1.507782-0.6777039-1.8457031-1.1347046c-0.0507812-0.0674133-0.1015625-0.1358337-0.1356506-0.2032166
			c-0.2207336-0.406189-0.4063416-0.8465881-0.9659424-1.5243835c-0.3212891-0.3554077-0.7108765-0.7617188-1.3710938-1.2187195
			c0.2032166-0.0342102,0.406311,0,0.6260071,0.0673828c0.7626953,0.219696,1.1856079,0.5078125,1.7958984,1.015625
			c0.2030945,0.1698914,0.3887024,0.3222961,0.6260071,0.4403992c0.7118835,0.3554993,1.710907,0.4746094,2.5908203,0.0507812
			c-0.8974304-0.0673828-1.5918274-0.4403992-1.9980164-0.829071c-0.0673828-0.0508118-0.1181946-0.1191101-0.1690063-0.1864929
			c-0.2715149-0.3731384-0.5420227-0.7617188-1.1854858-1.3379211c-0.3731384-0.304718-0.8301392-0.6436157-1.5410156-0.9990234
			c0.1864929-0.0683594,0.3895874-0.0683594,0.625885-0.0341797c0.7792969,0.101532,1.2539062,0.3046875,1.9141235,0.7284851
			c0.2373047,0.1357117,0.4403992,0.2539368,0.6942749,0.3389282c0.7618103,0.2362976,1.7784119,0.1854858,2.5743103-0.3731079
			c-0.8974915,0.0849915-1.6425781-0.1688843-2.1006165-0.4911804c-0.0673828-0.0508118-0.1347961-0.101593-0.203186-0.1523132
			c-0.3211975-0.3213196-0.6434937-0.6778259-1.3885803-1.1513977c-0.406311-0.2373047-0.897522-0.5078125-1.6758118-0.7285156
			c0.1689148-0.101593,0.3887024-0.1347961,0.6094055-0.1347961c0.8125-0.0342102,1.3037109,0.1016235,2.0155945,0.406311
			c0.2539062,0.1014709,0.4736023,0.1854858,0.7450867,0.2362976c0.7783203,0.1191101,1.7773132-0.0840149,2.4717102-0.7617188
			c-0.8633118,0.2207336-1.6426086,0.0848999-2.1503906-0.1689758c-0.0673828-0.0342102-0.1522827-0.0683289-0.219696-0.1191406
			c-0.3731079-0.2704468-0.7451172-0.5585632-1.5409851-0.9140625c-0.4405212-0.1694031-0.9825134-0.3559265-1.7784119-0.4740906
			c0.1524048-0.1187134,0.3554688-0.1865234,0.5927734-0.2202454c0.7783203-0.1523438,1.2871094-0.1015625,2.0487976,0.0845337
			c0.2539062,0.0678101,0.4912109,0.1185913,0.7618103,0.1185913c0.7958984,0,1.7441101-0.3724976,2.3368835-1.1347961
			c-0.8291016,0.3388977-1.6249695,0.3388977-2.1503906,0.1694946c-0.0849915-0.0171204-0.1689758-0.0508118-0.2373047-0.0845032
			c-0.4228821-0.2030945-0.8291016-0.4403687-1.6767578-0.660614c-0.4736328-0.101593-1.015625-0.203186-1.828125-0.1860657
			c0.1348267-0.1528015,0.3212891-0.2373047,0.5420227-0.3052063c0.7616882-0.2875061,1.2694702-0.3045959,2.0487671-0.2539062
			c0.2705078,0.0336914,0.5078125,0.0508118,0.7792969,0c0.7783203-0.1185913,1.6592102-0.6264038,2.1162109-1.4902039
			c-0.7616882,0.4740906-1.5409851,0.592804-2.0995789,0.5249023c-0.085022-0.0170898-0.1699219-0.0336914-0.2539368-0.0678711
			c-0.4403687-0.1352234-0.8808899-0.3046265-1.7440796-0.3891296c-0.4745789-0.0170898-1.0508118-0.0342102-1.8291016,0.1186218
			c0.1015015-0.1694336,0.2705078-0.3051453,0.4911804-0.4067078c0.6943054-0.3897095,1.1855164-0.4912109,1.9638062-0.5585938
			c0.2715149-0.0171204,0.5078125-0.0342102,0.7627258-0.1187134c0.7618103-0.2538757,1.5575867-0.8808289,1.8622742-1.8120117
			c-0.6600952,0.592804-1.4227905,0.8295898-1.9813843,0.8467102c-0.0840149,0-0.1690063,0-0.2539062-0.0171204
			c-0.4570007-0.0673828-0.9317017-0.1694031-1.7948914-0.1014709c-0.4745789,0.0340881-1.0332031,0.1185913-1.7950134,0.3895874
			c0.0840149-0.1865234,0.2373047-0.3388977,0.4229126-0.4740906c0.6268921-0.4912109,1.1005859-0.6777344,1.8633118-0.8638
			c0.2705078-0.0508118,0.4911804-0.1186218,0.7450867-0.2373047c0.6943054-0.3724976,1.3887024-1.1176758,1.5575867-2.0830078
			c-0.5751953,0.6943054-1.2871094,1.050293-1.8457031,1.1519165c-0.0849915,0.0170898-0.1688843,0.0170898-0.2538757,0.0170898
			c-0.4570007,0-0.9316101-0.0170898-1.7782898,0.1689148c-0.4737244,0.1186829-1.015625,0.2880554-1.710022,0.6777039
			c0.0508118-0.2036133,0.1690063-0.3725281,0.3378906-0.5254211c0.5420227-0.5922241,0.9824219-0.8465881,1.710907-1.1512756
			c0.2539978-0.1016235,0.4736938-0.1861267,0.694397-0.3555298c0.6269226-0.4741211,1.1854858-1.3208008,1.2021179-2.2861023
			c-0.4570007,0.7616882-1.1006165,1.2192078-1.625885,1.4052124c-0.0840454,0.0341797-0.1690369,0.0508118-0.2540283,0.0679016
			c-0.4570007,0.0845032-0.9316101,0.1352844-1.7440796,0.4570923c-0.422821,0.1864929-0.9316101,0.4233093-1.5752258,0.9144897
			c0.0176086-0.1860046,0.1192322-0.3891907,0.2549133-0.5756836c0.4393921-0.660614,0.8466797-0.9823914,1.5068054-1.3887024
			c0.2373047-0.1351929,0.4404907-0.2709961,0.6259766-0.4570007c0.5596008-0.559082,0.9824219-1.4902039,0.8477173-2.4555969
			c-0.3388977,0.8295898-0.9151306,1.3887024-1.406311,1.6596985c-0.0673828,0.0336914-0.1522827,0.0673828-0.219696,0.0845032
			c-0.4403992,0.1523132-0.897522,0.2880859-1.6601868,0.7279968c-0.4062195,0.2543945-0.8633118,0.5762024-1.421814,1.151886
			c0-0.1865845,0.0672913-0.3897095,0.1688843-0.592804c0.3389282-0.7279968,0.6777344-1.1005859,1.2705383-1.6259766
			c0.203064-0.1689148,0.389679-0.3218079,0.5585938-0.5415039c0.4570007-0.6435242,0.7284851-1.6260071,0.4403992-2.5575867
			c-0.203125,0.8637695-0.6777039,1.5072937-1.1181335,1.8461914c-0.0673828,0.0508118-0.1347961,0.101593-0.2197876,0.1351929
			c-0.406189,0.2203064-0.8465881,0.4067993-1.5067749,0.9653931c-0.3730164,0.3218079-0.7792969,0.7113953-1.2197266,1.3716125
			c-0.0508118-0.1860962-0.016571-0.406311,0.0674133-0.6264954c0.2207031-0.7617188,0.4911804-1.1856079,0.9989929-1.7948914
			c0.1698914-0.2032166,0.3388977-0.3726196,0.4580078-0.6265259c0.3554993-0.7113953,0.4570007-1.7104187,0.0331726-2.5913086
			c-0.0507812,0.897522-0.4228821,1.5918274-0.8124695,1.9985046c-0.0673828,0.0673828-0.1181946,0.1186829-0.1865234,0.1694946
			C35.766571,15.8681946,35.359375,16.1387024,34.7842102,16.7992859L34.7842102,16.7992859L34.7842102,16.7992859z
			 M30.0082703,19.1703796c5.9614258,0,10.8218079,4.8598938,10.8218079,10.8213196
			c0,5.9603882-4.8603821,10.8208008-10.8218079,10.8208008c-5.9608765,0-10.8212891-4.8604126-10.8212891-10.8208008
			C19.1869812,24.0302734,24.0473938,19.1703796,30.0082703,19.1703796L30.0082703,19.1703796z M21.9984741,35.0888672
			c1.1685181-3.1161804,3.0142212-5.7749023,5.3174133-7.9086914c-0.304718-0.2367859-0.6098022-0.4570923-0.9316101-0.6773071
			c-1.3544922,1.253418-2.5737915,2.7095337-3.5898743,4.3521118c-0.5927124,0.9653015-1.1010132,1.9642944-1.5244141,2.980896
			C21.4730835,34.2763977,21.727478,34.6825867,21.9984741,35.0888672L21.9984741,35.0888672L21.9984741,35.0888672z
			 M30.8212891,28.7045898c1.9979858,2.032196,3.6239929,4.487793,4.742218,7.2983093
			c0.1522827,0.389679,0.2870789,0.7792969,0.42276,1.1689758c0.3731384-0.304718,0.7285156-0.6269836,1.0498352-0.9823914
			c-1.1513062-3.2344055-3.0136108-6.0289001-5.3340149-8.2807922
			C31.3974915,28.1796875,31.1094055,28.4335938,30.8212891,28.7045898L30.8212891,28.7045898L30.8212891,28.7045898z
			 M24.3691101,36.0028992c1.1005859-2.8105164,2.7265625-5.2661133,4.7246704-7.2983093
			c-0.2875671-0.2709961-0.5756836-0.5249023-0.8804016-0.7958984c-2.320282,2.2518921-4.1831055,5.0463867-5.3173828,8.2807922
			c0.3218079,0.3554077,0.6602173,0.6776733,1.0326843,0.9823914C24.0645142,36.782196,24.2167969,36.3925781,24.3691101,36.0028992
			L24.3691101,36.0028992L24.3691101,36.0028992z M29.957489,29.5849915
			c-1.2871094,1.3885803-2.4213867,2.9804077-3.335907,4.7587891c-0.6264954,1.1854858-1.1177063,2.4217834-1.4902954,3.6582031
			c1.4223938,0.7958984,3.0650024,1.2695007,4.8262024,1.2695007c1.7612915,0,3.4037781-0.4736023,4.8267212-1.2695007
			c-0.3731079-1.2364197-0.8643188-2.4727173-1.4903259-3.6582031
			C32.3789062,32.5653992,31.2616882,30.9735718,29.957489,29.5849915L29.957489,29.5849915L29.957489,29.5849915z
			 M29.957489,26.418457c-0.2875977,0.2202454-0.5756836,0.4570007-0.8804016,0.7109375
			c0.304718,0.2373047,0.592804,0.4911804,0.8804016,0.7450867c0.2880859-0.2539062,0.5757141-0.507782,0.8808899-0.7450867
			C30.550293,26.8925781,30.2626953,26.6387024,29.957489,26.418457L29.957489,26.418457z M29.0429688,25.7406921
			c-0.3217773-0.2202148-0.6264648-0.4233093-0.9482727-0.6264038c-0.2875977,0.2201843-0.5757141,0.4403992-0.8637085,0.6605835
			c0.3216858,0.2202148,0.6268921,0.4233093,0.9315796,0.6435852
			C28.4506836,26.1811829,28.7382812,25.9608765,29.0429688,25.7406921L29.0429688,25.7406921L29.0429688,25.7406921z
			 M29.957489,25.0805664c0.3217773-0.2031555,0.6607056-0.4067688,0.9654236-0.592804
			c-0.3218079-0.203064-0.6436462-0.4066772-0.9654236-0.5927734c-0.3218079,0.1860962-0.6264038,0.3897095-0.9482117,0.5927734
			C29.3310852,24.6737976,29.6356812,24.8774109,29.957489,25.0805664L29.957489,25.0805664z M31.7528687,26.4350891
			c0.304718-0.2203064,0.6094055-0.4400024,0.9317017-0.6436157c-0.2714844-0.2367859-0.5596008-0.4570007-0.8466797-0.6771851
			c-0.3223267,0.2030945-0.6436157,0.406189-0.9657898,0.6264038h0.0170898
			C31.1767883,25.9608765,31.4647827,26.1981812,31.7528687,26.4350891L31.7528687,26.4350891L31.7528687,26.4350891z
			 M37.1210938,30.8383789c-1.0155945-1.6426086-2.2354126-3.0990906-3.5898132-4.3355103
			c-0.3046875,0.2202148-0.6270142,0.4405212-0.9150696,0.6607056c2.2860718,2.1338196,4.1317749,4.8091125,5.3007812,7.925293
			c0.2705078-0.4062805,0.5253906-0.8300781,0.7285156-1.2529907C38.2216797,32.8192749,37.7138977,31.820282,37.1210938,30.8383789
			L37.1210938,30.8383789z M37.9512024,24.1996765c-1.2198181,0.457489-2.3876953,1.0332031-3.5059204,1.7275085
			c1.0332031,0.9312134,1.9649048,1.9981079,2.8115234,3.1836243c0.7618103,1.0839844,1.4052734,2.2182617,1.9306946,3.3871765
			c0.2704773-0.9316101,0.4228821-1.8798218,0.4228821-2.8788757
			C39.6103821,27.6034851,39.0009766,25.7406921,37.9512024,24.1996765L37.9512024,24.1996765L37.9512024,24.1996765z
			 M36.8329773,22.8617859c-1.4052734,0.4233704-2.7597961,0.9995117-4.0643616,1.7104797
			c0.2879639,0.203125,0.5760803,0.4233093,0.8465881,0.6435242c1.203186-0.6943359,2.4726868-1.2871094,3.7940063-1.7441101
			C37.2392883,23.2514648,37.0536804,23.0482788,36.8329773,22.8617859L36.8329773,22.8617859L36.8329773,22.8617859z
			 M35.5126953,21.727478c-1.592804,0.3725891-3.1337891,0.9312134-4.5897827,1.6592102
			c0.3221741,0.1864929,0.6268921,0.3730774,0.9481812,0.5762024c1.3887024-0.7284851,2.8457031-1.2871094,4.352478-1.6939087
			C36.0028992,22.0658875,35.766571,21.8798828,35.5126953,21.727478L35.5126953,21.727478L35.5126953,21.727478z
			 M25.1312866,21.2533875c1.6763,0.3383789,3.3023071,0.8803711,4.8262024,1.6254883
			c1.5415039-0.7451172,3.1664734-1.2871094,4.8267212-1.6254883c-1.4053345-0.8301086-3.0654297-1.3041992-4.8267212-1.3041992
			C28.1962891,19.9491882,26.5536804,20.4232788,25.1312866,21.2533875L25.1312866,21.2533875L25.1312866,21.2533875z
			 M23.6918945,22.2689819c1.5238953,0.4067993,2.9804993,0.9654236,4.3519897,1.6939087
			c0.3218079-0.203125,0.6436157-0.3897095,0.9483032-0.5762024c-1.4560852-0.7451172-2.9971008-1.2866211-4.589386-1.6763
			C24.1488647,21.8798828,23.9121094,22.0658875,23.6918945,22.2689819L23.6918945,22.2689819L23.6918945,22.2689819z
			 M22.5062866,23.4716797c1.3208008,0.4570007,2.5909119,1.0497742,3.8106079,1.7441101
			c0.2705078-0.2368164,0.5585938-0.4403992,0.8295898-0.6435242c-1.2870789-0.710968-2.6586914-1.2871094-4.0644836-1.7270813
			C22.8788757,23.0482788,22.6758118,23.2514648,22.5062866,23.4716797L22.5062866,23.4716797z M25.4867859,25.9271851
			c-1.1176758-0.6943054-2.3031921-1.2700195-3.5223999-1.7441101c-1.0498047,1.5576172-1.6596985,3.4204102-1.6596985,5.4360352
			c0,0.999054,0.1523132,1.9638672,0.4403992,2.8788757c0.507782-1.1689148,1.1513977-2.3031921,1.9307251-3.3871765
			C23.5054016,27.925293,24.4535828,26.8583984,25.4867859,25.9271851L25.4867859,25.9271851L25.4867859,25.9271851z"/>
	</g>
</g>
</svg>
