<?xml version="1.0" encoding="utf-8"?>
<!-- Generator: Adobe Illustrator 22.1.0, SVG Export Plug-In . SVG Version: 6.00 Build 0)  -->
<svg version="1.1" id="Layer_1" xmlns="http://www.w3.org/2000/svg" xmlns:xlink="http://www.w3.org/1999/xlink" x="0px" y="0px"
	 viewBox="0 0 60 60" style="enable-background:new 0 0 60 60;" xml:space="preserve">
<style type="text/css">
	.st0{clip-path:url(#SVGID_2_);fill:#E52629;}
	.st1{clip-path:url(#SVGID_2_);fill:#FFFFFF;}
	.st2{clip-path:url(#SVGID_2_);fill:#10A651;}
</style>
<g id="XMLID_1_">
	<g>
		<defs>
			<path id="SVGID_1_" d="M59,60H0.9999695C0.4477234,60,0,59.5526733,0,59V0.9999695c0-0.5522461,0.4477234-1,0.9999695-1H59
				c0.5526886,0,0.9999847,0.4477539,0.9999847,1V59C59.9999847,59.5526733,59.5526886,60,59,60L59,60z"/>
		</defs>
		<clipPath id="SVGID_2_">
			<use xlink:href="#SVGID_1_"  style="overflow:visible;"/>
		</clipPath>
		<polygon class="st0" points="-15,-0.0000305 74.9999847,-0.0000305 74.9999847,60 -15,60 -15,-0.0000305 		"/>
		<polygon class="st1" points="-15,14.9999695 74.9999847,14.9999695 74.9999847,44.9999695 -15,44.9999695 -15,14.9999695 		"/>
		<path class="st2" d="M27.2865906,34.1190796c0.5137024-0.1170959,0.9848938,0.5488892,0.699707,0.9931946
			C27.4740906,35.1571655,27.2080078,34.5497742,27.2865906,34.1190796L27.2865906,34.1190796z M29.1376953,33.7880554
			c0.5126953-0.2216797,1.175293,0.390625,0.8964844,0.9101257c-0.1991882,0.4228821-0.9760742,0.281311-0.9506836-0.2088928
			c-0.0010071-0.2344055-0.0200195-0.4747009,0.0541992-0.7022095V33.7880554L29.1376953,33.7880554z M25.332489,33.5028992
			c0.4956055-0.0488281,0.949707,0.4423828,0.8847961,0.9317017c0.3588867,0.352478-0.2763977,1.0106812-0.6343079,0.6445007
			c-0.3149109-0.3809204-0.3129883-0.8994141-0.4350891-1.3564148
			C25.1420898,33.6220703,25.2172852,33.4901733,25.332489,33.5028992L25.332489,33.5028992L25.332489,33.5028992z
			 M38.6455078,32.6903687c0.5351868-0.0917664,0.9569702,0.6719055,0.5741882,1.0674133
			c-0.3612976,0.5449219-1.2246094,0.6885071-1.7177124,0.2412109c-0.1914978-0.4520874,0.1981812-0.9237976,0.6132202-1.0683289
			C38.2938843,32.8544922,38.4628906,32.7568054,38.6455078,32.6903687L38.6455078,32.6903687L38.6455078,32.6903687z
			 M35.9979858,32.1171875c0.4708252-0.2315063,0.9776001,0.516571,0.5830994,0.8661804
			c-0.4931946,0.5674133-1.4433899,0.6729126-2.0332031,0.1963196c-0.0704041-0.5028992,0.4316101-0.867218,0.8768921-0.9394836
			C35.6122742,32.1864624,35.7987671,32.1073608,35.9979858,32.1171875L35.9979858,32.1171875L35.9979858,32.1171875z
			 M23.4457703,30.2904968c0.3696289-0.1079102,0.9077148,0.0058899,1.0098267,0.4296875
			c0.0428772,0.3980103-0.3951111,0.6049805-0.7163086,0.7036133c-0.5141907,0.1591797-1.0171204,0.4199829-1.5704041,0.3847961
			c-0.4150085-0.2373047-0.563385-0.7217102-0.7113953-1.1450195c0.3999023-0.375,0.9892883-0.2651672,1.4854126-0.3589172
			C23.1103821,30.2958679,23.2782898,30.2919922,23.4457703,30.2904968L23.4457703,30.2904968L23.4457703,30.2904968z
			 M31.5380859,29.4789734c0.5575867-0.1401062,0.3574219,1.0254211-0.1083984,0.6211243
			C31.2744141,29.9164734,31.3573914,29.6142883,31.5380859,29.4789734L31.5380859,29.4789734L31.5380859,29.4789734z
			 M30.2494812,28.7138672c0.4325867,0.2632141,0.6895142,0.753418,0.7431946,1.2480164
			c-0.2074585,0.4624023-1.0082703,0.3511047-1.0986938-0.1411133c-0.1582031-0.3895874-0.012207-0.8901062,0.355011-1.1069031
			H30.2494812L30.2494812,28.7138672z M26.5570679,28.6362c0.3736267-0.2646179,0.855011,0.3803711,0.5445251,0.6806946
			C26.7294922,29.579071,26.246582,28.9447632,26.5570679,28.6362L26.5570679,28.6362z M28.8793945,28.2143555
			c0.457489,0.0585327,0.3096008,0.8520203-0.1138,0.8252258C28.3114929,28.9550781,28.4154968,28.1698914,28.8793945,28.2143555
			L28.8793945,28.2143555z M35.828064,27.2191772c0.545929-0.1434937,0.9424438,0.7286072,0.4737244,1.0444946
			c-0.4288025,0.3891296-1.2626953-0.1264954-1.0391235-0.6821899
			C35.3739624,27.3754883,35.5966797,27.2387695,35.828064,27.2191772L35.828064,27.2191772L35.828064,27.2191772z
			 M23.5874023,25.3031616c0.5028687,0.0689087,0.8305969,0.5254211,1.016571,0.9605408
			c0.0454102,0.5301819-0.7367859,0.8212585-1.0780945,0.4354858c-0.3837891-0.2406921-0.7196655-0.7358093-0.5185852-1.1953125
			C23.1312866,25.3212585,23.3783875,25.2460938,23.5874023,25.3031616L23.5874023,25.3031616L23.5874023,25.3031616z
			 M25.6333008,24.9594727c0.4437866-0.2411804,0.9145813,0.4839172,0.5370789,0.8037109
			c-0.2494812,0.367218-0.8910828,0.5175781-1.1737976,0.1088867
			C24.7616882,25.4730835,25.1416016,24.8031921,25.6333008,24.9594727L25.6333008,24.9594727L25.6333008,24.9594727z
			 M33.5556946,24.8192749c0.5361023-0.1665039,1.1816101,0.3858032,1.007782,0.9463196
			c-0.2392883,0.4345703-0.8301086,0.4892883-1.2538757,0.327179c-0.4864197-0.0244141-0.8125305-0.7548828-0.3799133-1.0644836
			C33.109375,24.8930664,33.3349915,24.8373718,33.5556946,24.8192749L33.5556946,24.8192749z M29.976593,24.3505859
			c0.4891968,0.2294922,0.1156921,1.0458984-0.3770142,0.9281921c-0.5112-0.0599976-0.5014954-0.9584961,0.0620117-0.8774109
			C29.7675781,24.3964844,29.8773804,24.3935852,29.976593,24.3505859L29.976593,24.3505859z M31.6366882,24.2572632
			c0.5234985,0.2471313,0.2578125,1.1900024-0.3164062,1.1314087c-0.4716797-0.1196899-0.4100952-0.9287109,0.0645142-0.9931946
			C31.4745789,24.3612671,31.5575867,24.3104858,31.6366882,24.2572632L31.6366882,24.2572632z M27.4633789,22.3173828
			c0.3657227,0.348114,0.1494141,1.0190125-0.3007812,1.1796875c-0.324707,0.1806335-0.7676086,0.6079102-1.1216125,0.2563171
			c-0.1918945-0.4296875,0.2901001-0.7528992,0.5733032-0.9916992
			C26.8671875,22.5653687,27.1464844,22.3866882,27.4633789,22.3173828L27.4633789,22.3173828L27.4633789,22.3173828z
			 M33.0703125,21.3222656c0.4970703,0.1811218,0.3222961,1.0586243-0.2021179,1.0473328
			c-0.4960938,0.0663757-0.726593-0.7602234-0.2647095-0.956543C32.7528992,21.3598938,32.9101868,21.3153992,33.0703125,21.3222656
			L33.0703125,21.3222656L33.0703125,21.3222656z M29.7466125,21.3183899
			c0.5155945,0.1015015,0.4237671,0.9999695-0.0967102,1.0078125c-0.3804016,0.0848999-0.7910156,0.3446655-1.1763,0.1498718
			c-0.3130188-0.3315735,0.139679-0.8213196,0.4892883-0.9291687
			C29.2309875,21.4931946,29.4779663,21.3710938,29.7466125,21.3183899L29.7466125,21.3183899L29.7466125,21.3183899z
			 M31.1903687,21.1972656c0.5088196-0.0908813,0.617218,0.8374329,0.1083984,0.8808289
			C30.7695007,22.1733093,30.5731812,21.1386719,31.1903687,21.1972656L31.1903687,21.1972656z M26.2597656,20.6898804
			c0.5229187,0.015686,0.4423218,0.9580078-0.0722656,0.8951111C25.6879883,21.5526733,25.7182922,20.5888977,26.2597656,20.6898804
			L26.2597656,20.6898804z M29.5907898,14.9999695c-0.6439819,1.3560181-1.8569031,2.3037109-3.0155945,3.2007141
			c-0.190918,0.1665039-0.6650085,0.4888-0.3213196,0.7344055c0.2949219-0.3291016,1.1035156,0.1069031,0.6338196,0.4608765
			c-0.4214172,0.394043-1.0010071,0.5386047-1.4682922,0.8638c-0.4140015,0.2246094-0.8340149,0.4594116-1.1626282,0.8037109
			c-0.0218811,0.5381165,0.667511,0.2402039,0.9473267,0.464325c0.3646851,0.389679-0.1543274,1.046875-0.6328125,0.8964844
			c-0.6112976,0.0185852-1.0336914,0.5570984-1.2651062,1.0703125c-0.4786072,0.7397766-1.3853149,0.9589844-2.1069946,1.3798828
			c-0.4130859,0.2406921-0.8139038,0.5072937-1.1981812,0.7880859c-0.495636,0.3389282-0.0645142,1.0103149,0.4628906,0.8452148
			c0.5692749-0.0565796,1.0814819-0.5039062,1.6708679-0.375c0.5346069,0.1880188,0.6845398,0.8862,0.5024109,1.3740234
			c-0.1347961,0.390686-0.4618835,0.6655884-0.7236023,0.9706726c-0.425293,0.4311829-0.9815063,0.7105103-1.5679016,0.8442993
			c-0.5668945,0.1899109-1.0762024,0.5371094-1.4481812,1.0063171c-0.4312134,0.434082-0.8614197,0.8759766-1.3569946,1.2372742
			c-0.1567078,0.4004211,0.2852173,0.7412109,0.6537781,0.7305298c0.7769165-0.0488281,1.3150024-0.6846008,1.9766235-1.0117188
			c0.5487671-0.2471008,1.1947632,0.344696,1.0604858,0.9169922c-0.0423889,0.5566101-0.563385,0.8388062-1.0263062,1.0097351
			c-1.3617859,0.6845703-2.5440063,1.6767578-3.5932922,2.7724609c-0.2172852,0.4424133-0.8139038,0.3125-1.1351929,0.6211243
			c-0.2095032,0.3905945,0.315918,0.5966797,0.629425,0.5565796c1.3470459-0.1620789,2.6039734-0.7313843,3.7943726-1.3583679
			c0.4429016-0.2119141,0.8588867-0.4902344,1.3193054-0.6591187c0.4322205-0.1065063,1.0351868,0.0809937,1.112793,0.5731812
			c-0.0010071,0.5195312-0.5155945,0.8076172-0.9233093,1.0107117c-1.256897,0.6602173-2.6362915,1.0253906-3.9799805,1.4620056
			c-0.5028992-0.1407166-0.8818054,0.7539062-0.3301086,0.9150085c0.5834961,0.2001648,1.2035828,0.039978,1.8008118,0.0136719
			c1.8451843-0.2831726,3.4595032-1.2812805,5.184082-1.9267883c0.7173157-0.234375,1.5639038,0.092804,1.9179993,0.7647095
			c0.3554077,0.5985718,0.3227234,1.3866882-0.0522766,1.968689c-0.5928345,1.2676086-1.4941101,2.4335938-2.7036133,3.1621094
			c-0.7593079,0.3770142-1.6460266,0.5205078-2.2969055,1.0957031c-0.6019897,0.1983032,0.3017883,1.0116882,0.4325867,0.3662109
			c0.3614197-0.493103,0.9995117-0.640625,1.5782166-0.6611328c0.8695984-0.094696,1.793396-0.2548828,2.4691772-0.8563843
			c0.6055298-0.4707947,1.2026062-1.1201782,2.0254211-1.1299133c0.4545898,0.0537109,0.9042969,0.4189148,1.3656921,0.1963196
			c0.4042969-0.1856079,1.0376282-0.0772095,1.1431274,0.4198914c0.1932983,0.5810242,0.7919617,0.8457031,1.2670898,1.156189
			c0.1717834,0.2412109,0.743103,0.8643188,0.875,0.3154907c-0.1065369-0.391571,0.0448914-0.991272,0.5585938-0.8603821
			c0.4491882,0.0205078,0.875885,0.1856079,1.3241882,0.2128906c0.5967102,0.1240234,1.0937195,0.5322266,1.4325867,1.0244141
			c0.2324219,0.3222961,0.7432251,0.875,1.1221008,0.4483032c0.235321-0.4414978-0.2138977-0.8096008-0.5800781-0.9667969
			c-0.532196-0.3301086-0.9882812-0.7705994-1.4541016-1.1865845c-0.6875-0.6416016-1.280304-1.4580078-1.3897095-2.4160156
			c-0.1473999-0.9550781-0.070282-1.930603,0.0546875-2.8828125c0.1573486-0.6142883,0.9414368-0.9492188,1.4903259-0.6229858
			c0.7713928,0.3525085,1.5379944,0.8563843,2.4237976,0.8016968c1.2782898,0.0274048,2.5927734-0.217804,3.842804,0.1532898
			c1.2157898,0.3828125,2.0848999,1.4092102,3.2695007,1.8536072c0.2655945,0.1610718,0.6044922,0.0078125,0.7020874-0.2754211
			c0.117218-0.2548828,0.0341797-0.5800781-0.210907-0.7255859c-1.3729858-1.3858032-3.2489929-2.0585938-4.8378906-3.1416016
			c-0.5-0.1269836-0.5907898-0.9316711-0.1289062-1.164093c0.608429-0.4423828,1.467804-0.2362976,2.0068054,0.218811
			c0.4561157,0.2674866,0.968811,0.4667969,1.5029907,0.4677124c0.5477905-0.171814,0.2822266-0.9638367-0.2080078-1.023407
			c-0.8876953-0.5010071-1.5234985-1.3232117-2.2929688-1.9756165c-0.4424133-0.375-0.9277039-0.7548828-1.5224915-0.8271179
			c-0.3252258-0.0595703-0.6582336-0.0722961-0.9882202-0.0507812c-0.3085938-0.3354797,0.1035156-0.8500977,0.5028992-0.8081055
			c0.4100952,0.0278015,0.8182983,0.0581055,1.227478,0.0010071c0.4580383-0.0336914,0.9151306-0.0811157,1.3750305-0.0840149
			c0.3710938,0.2524109,1.1114197-0.1835938,0.7774048-0.6191711c-0.3662109-0.3203125-0.8946228-0.292511-1.3321228-0.4570007
			c-0.766571-0.2510071-1.5477905-0.4561157-2.3387756-0.6152039c-0.5537109-0.0328064-0.4854126-0.7608032,0.000885-0.8413086
			c0.3184204-0.1187134,0.5947876,0.1259155,0.9003906,0.1634827c0.5215149,0.1123352,1.0606079,0.1109314,1.5821228,0.2246399
			c0.4423828-0.2182312,0.1006165-0.8642273-0.2998352-0.9023438c-0.9433899-0.3373718-1.7597656-0.9462891-2.5566711-1.5390625
			c-0.8807983-0.6621094-1.679718-1.4277344-2.5703125-2.074707c-0.3231812-0.2001953-0.8534851-0.2578125-0.9384766-0.7021179
			c-0.0302124-0.4086914,0.4501953-0.5942688,0.7919617-0.4989929c0.4833984,0.1430054,0.9336243,0.3916016,1.4268188,0.5135803
			c0.3866882,0.065918,0.7850952,0.1802063,1.1582031,0.1314392c0.4736023-0.2974243-0.2030945-0.4873352-0.4472961-0.5904236
			c-0.6307983-0.3403015-1.1914062-0.793396-1.7597046-1.2259827c-0.4794922-0.409729,0.407196-0.5903931,0.7118835-0.4327087
			c0.5107117,0.2133789,0.5682983-0.5296936,0.1875-0.7167053c-0.4491577-0.190979-0.835968-0.5078735-1.2431641-0.7846985
			c-0.7352905-0.5238953-1.5693359-0.9385071-2.4736023-1.0537109c-1.01474-0.1020813-1.9610291-0.6850891-2.4990234-1.5523071
			C30.0722961,16.0917969,29.8275757,15.5453796,29.5907898,14.9999695L29.5907898,14.9999695L29.5907898,14.9999695z"/>
	</g>
</g>
</svg>
