<?xml version="1.0" encoding="utf-8"?>
<!-- Generator: Adobe Illustrator 22.1.0, SVG Export Plug-In . SVG Version: 6.00 Build 0)  -->
<svg version="1.1" id="Layer_1" xmlns="http://www.w3.org/2000/svg" xmlns:xlink="http://www.w3.org/1999/xlink" x="0px" y="0px"
	 viewBox="0 0 60 60" style="enable-background:new 0 0 60 60;" xml:space="preserve">
<style type="text/css">
	.st0{clip-path:url(#SVGID_2_);fill:#009643;}
	.st1{clip-path:url(#SVGID_2_);fill:#FFFFFF;}
	.st2{clip-path:url(#SVGID_2_);fill:#253885;}
	.st3{clip-path:url(#SVGID_2_);fill:#020203;}
</style>
<g id="XMLID_1_">
	<g>
		<defs>
			<path id="SVGID_1_" d="M59,60H0.9999695C0.4477234,60,0,59.5526733,0,59V0.9999695c0-0.5522461,0.4477234-1,0.9999695-1H59
				c0.5526886,0,0.9999847,0.4477539,0.9999847,1V59C59.9999847,59.5526733,59.5526886,60,59,60L59,60z"/>
		</defs>
		<clipPath id="SVGID_2_">
			<use xlink:href="#SVGID_1_"  style="overflow:visible;"/>
		</clipPath>
		<polygon class="st0" points="-15,-0.0000305 74.9999847,-0.0000305 74.9999847,60 -15,60 -15,-0.0000305 		"/>
		<polygon class="st1" points="-15,-0.0000305 74.9999847,-0.0000305 74.9999847,41.9999695 -15,41.9999695 -15,-0.0000305 		"/>
		<polygon class="st2" points="-15,-0.0000305 74.9999847,-0.0000305 74.9999847,17.9999695 -15,17.9999695 -15,-0.0000305 		"/>
		<path class="st3" d="M27.7909851,38.5429688l0.7373047,1.1523132l-1.7518921-0.2528992l-0.1846008-0.4844055
			L27.7909851,38.5429688L27.7909851,38.5429688z M30.8334961,38.5429688l0.7611694,1.1289062l-2.0287781,0.0693054
			L29.219696,39.141571L30.8334961,38.5429688L30.8334961,38.5429688z M33.484375,38.3583679l0.7832031,0.921936
			l-1.7284851,0.2762756l-0.3457031-0.5527039L33.484375,38.3583679L33.484375,38.3583679z M25.2543945,38.0361023
			l0.5990906,1.2675781l-1.4980164-0.3681946l-0.1616821-0.5536804L25.2543945,38.0361023L25.2543945,38.0361023z
			 M23.0639954,37.8280945l0.1845093,0.7373047l-1.1064148-0.4375305L23.0639954,37.8280945L23.0639954,37.8280945z
			 M35.8818054,37.8036804l0.6690063,0.8994141l-1.429718,0.3692017l-0.2763977-0.4844055L35.8818054,37.8036804
			L35.8818054,37.8036804z M28.2738647,37.5976868l2.0982361,0.0927124l0.184082,0.4374695l-1.6368103,0.5996399
			L28.2738647,37.5976868L28.2738647,37.5976868z M32.8623047,37.4599915l0.3457031,0.5067749l-1.2910156,0.6221313
			l-0.5527039-0.9453125L32.8623047,37.4599915L32.8623047,37.4599915z M25.8539734,37.2275085l1.2910156,0.2773743
			l0.3686829,0.5527039l-1.1293945,0.4384766L25.8539734,37.2275085L25.8539734,37.2275085z M37.7958984,37.0897827
			l0.4385071,0.8760071l-0.8760071,0.2997742l-0.0693054-0.414978L37.7958984,37.0897827L37.7958984,37.0897827z
			 M35.2831726,36.9512024l0.3691101,0.391571l-1.0838928,0.8535156l-0.6679993-0.8301086L35.2831726,36.9512024
			L35.2831726,36.9512024z M23.480011,36.5361023l1.2909851,0.3916016l0.2998047,0.6454773l-1.1299133,0.3233032
			L23.480011,36.5361023L23.480011,36.5361023z M22.558075,36.5136719l0.2993164,0.9227905l-0.8760071,0.1836243
			C21.9813843,37.6200867,22.4888,36.6063843,22.558075,36.5136719L22.558075,36.5136719z M37.3114929,36.1679688
			l0.2538757,0.3691101l-0.7147827,1.0606079l-0.7373047-0.9454041L37.3114929,36.1679688L37.3114929,36.1679688z
			 M29.1835938,20.4745789l0.0219727,3.032196l-1.4111938,1.4781189h1.167511l-0.007782,2.1875l-0.7886353,1.0614929
			c-0.1019592-0.2211914-0.3065796-0.667511-0.5707703-1.4859009c-0.3426819-1.059021-0.6385803-2.3940125-0.5293274-3.3881226
			c0.1177368-1.0664062,0.4698181-1.7919922,0.9502258-2.2582703
			C28.3388977,20.7875671,28.7279663,20.5795593,29.1835938,20.4745789L29.1835938,20.4745789L29.1835938,20.4745789z
			 M30.7421875,20.4594727c0.5028992,0.0942078,0.8876953,0.2890015,1.1943054,0.5820007
			c0.4609985,0.4389954,0.7831726,1.1548157,0.9375,2.2416992c0.141571,0.9951172-0.1503906,2.3491211-0.5000305,3.4267883
			c-0.2147522,0.6611328-0.4042969,1.1201172-0.5370483,1.421814l-0.7187195-0.9510803l-0.0087891-2.2559204h1.1864929
			l-1.5601196-1.4653015L30.7421875,20.4594727L30.7421875,20.4594727z M30.0454102,19.0116882l-0.0952148,0.0019836
			c-0.207489,0.0043945-0.3901062,0.1142273-0.5249023,0.2163086c-0.1343079,0.1020203-0.2241211,0.2041016-0.2241211,0.2041016
			l-0.0204773,0.023407c-0.7055969,0.1239929-1.3486938,0.4286804-1.8613892,0.9263
			c-0.6787415,0.6592102-1.1113281,1.6298828-1.2475281,2.8666992c-0.139679,1.2675781,0.2080078,2.6810913,0.5713196,3.8051758
			c0.3631897,1.1235046,0.7601929,1.960907,0.7601929,1.960907l0.0708008,0.1484375l-4.5751953,6.1611633l-0.9199219-0.3183899
			l-1.6566772,3.5332031l0.0751953,0.0479126c0,0,3.9344788,2.4638062,9.6385803,2.3964844
			c6.2549133-0.0743103,9.6700439-2.5127258,9.6700439-2.5127258l0.0692749-0.0497742L38.0625,34.9325867l-0.8153992,0.3544922
			l-4.7481079-6.2802734l0.0361938,0.0141602c0,0,0.4169006-0.8559875,0.7900085-2.0023804
			c0.3721008-1.1459961,0.7226868-2.5864868,0.539093-3.8760071c-0.1728821-1.218811-0.5567017-2.1748047-1.2373047-2.8246765
			c-0.4981079-0.4751282-1.1376953-0.7559204-1.8823853-0.8677368v-0.0194702l-0.0282898-0.0293274
			c0,0-0.0942383-0.0976868-0.2329102-0.1938782c-0.1162109-0.0801086-0.2700195-0.1509094-0.4364929-0.1737976
			L30.0454102,19.0116882L30.0454102,19.0116882z"/>
	</g>
</g>
</svg>
