<?xml version="1.0" encoding="utf-8"?>
<!-- Generator: Adobe Illustrator 22.1.0, SVG Export Plug-In . SVG Version: 6.00 Build 0)  -->
<svg version="1.1" id="Layer_1" xmlns="http://www.w3.org/2000/svg" xmlns:xlink="http://www.w3.org/1999/xlink" x="0px" y="0px"
	 viewBox="0 0 60 60" style="enable-background:new 0 0 60 60;" xml:space="preserve">
<style type="text/css">
	.st0{clip-path:url(#SVGID_2_);fill:#BF1731;}
	.st1{clip-path:url(#SVGID_2_);fill:#020203;}
	.st2{clip-path:url(#SVGID_2_);fill:#FFFFFF;}
	.st3{clip-path:url(#SVGID_2_);fill:#22325F;}
</style>
<g id="XMLID_1_">
	<g>
		<defs>
			<path id="SVGID_1_" d="M59,60H0.9999695C0.4477234,60,0,59.5526733,0,59V0.9999695c0-0.5522461,0.4477234-1,0.9999695-1H59
				c0.5526886,0,0.9999847,0.4477539,0.9999847,1V59C59.9999847,59.5526733,59.5526886,60,59,60L59,60z"/>
		</defs>
		<clipPath id="SVGID_2_">
			<use xlink:href="#SVGID_1_"  style="overflow:visible;"/>
		</clipPath>
		<polygon class="st0" points="0,-0.0000305 114,-0.0000305 114,60 0,60 0,-0.0000305 		"/>
		<path class="st1" d="M0,51.8183899h114 M0,40.9091797h114 M0,29.9999695h114 M0,19.0907898h114 M0,8.1816406h114"/>
		<path class="st2" d="M114,10.9315796H0V5.4316101h114V10.9315796L114,10.9315796z M114,21.8407898H0v-5.5h114V21.8407898
			L114,21.8407898z M114,32.75H0v-5.5000305h114V32.75L114,32.75z M114,43.6591797H0v-5.5h114V43.6591797L114,43.6591797z
			 M114,54.5683594H0v-5.4999695h114V54.5683594L114,54.5683594z"/>
		<polygon class="st3" points="0,-0.0000305 27.2728882,-0.0000305 27.2728882,27.2728882 0,27.2728882 0,-0.0000305 		"/>
		<polygon class="st2" points="13.6362,5.4545593 11.1079102,13.2357788 14.9985046,14.4999695 13.6362,5.4545593 		"/>
		<polygon class="st2" points="13.6362,5.4545593 16.1646118,13.2357788 12.2738953,14.4999695 13.6362,5.4545593 		"/>
		<polygon class="st2" points="21.4179993,11.1078796 13.2357788,11.1078796 13.2357788,15.1986694 21.4179993,11.1078796 		"/>
		<polygon class="st2" points="21.4179993,11.1078796 14.7982788,15.9169617 12.3940125,12.6073914 21.4179993,11.1078796 		"/>
		<polygon class="st2" points="5.8549805,11.1078796 12.4740906,15.9169617 14.8788757,12.6073914 5.8549805,11.1078796 		"/>
		<polygon class="st2" points="5.8549805,11.1078796 14.0365906,11.1078796 14.0365906,15.1986694 5.8549805,11.1078796 		"/>
		<polygon class="st2" points="18.4453125,20.2553711 15.9169922,12.4740906 12.0263977,13.7382812 18.4453125,20.2553711 		"/>
		<polygon class="st2" points="18.4453125,20.2553711 11.8262024,15.4462891 14.2309875,12.1366882 18.4453125,20.2553711 		"/>
		<polygon class="st2" points="8.8271484,20.2553711 15.4462891,15.4462891 13.0419922,12.1366882 8.8271484,20.2553711 		"/>
		<polygon class="st2" points="8.8271484,20.2553711 11.3554993,12.4740906 15.2460938,13.7382812 8.8271484,20.2553711 		"/>
	</g>
</g>
</svg>
