<?xml version="1.0" encoding="utf-8"?>
<!-- Generator: Adobe Illustrator 22.1.0, SVG Export Plug-In . SVG Version: 6.00 Build 0)  -->
<svg version="1.1" id="Layer_1" xmlns="http://www.w3.org/2000/svg" xmlns:xlink="http://www.w3.org/1999/xlink" x="0px" y="0px"
	 viewBox="0 0 60 60" style="enable-background:new 0 0 60 60;" xml:space="preserve">
<style type="text/css">
	.st0{clip-path:url(#SVGID_2_);fill:#239E46;}
	.st1{clip-path:url(#SVGID_2_);fill:#020203;}
	.st2{clip-path:url(#SVGID_2_);fill:#E40D1A;}
	.st3{clip-path:url(#SVGID_2_);fill:#FFFFFF;}
</style>
<g id="XMLID_1_">
	<g>
		<defs>
			<path id="SVGID_1_" d="M59,60H0.9999695C0.4477234,60,0,59.5526733,0,59V0.9999695c0-0.5522461,0.4477234-1,0.9999695-1H59
				c0.5526886,0,0.9999847,0.4477539,0.9999847,1V59C59.9999847,59.5526733,59.5526886,60,59,60L59,60z"/>
		</defs>
		<clipPath id="SVGID_2_">
			<use xlink:href="#SVGID_1_"  style="overflow:visible;"/>
		</clipPath>
		<polygon class="st0" points="-30,-0.0000305 89.9999847,-0.0000305 89.9999847,60 -30,60 -30,-0.0000305 		"/>
		<polygon class="st1" points="-30,-0.0000305 89.9999847,-0.0000305 89.9999847,44.9999695 -30,44.9999695 -30,-0.0000305 		"/>
		<polygon class="st2" points="-30,-0.0000305 89.9999847,-0.0000305 89.9999847,14.9999695 -30,14.9999695 -30,-0.0000305 		"/>
		<path class="st3" d="M30,22.4999695c4.1426086,0,7.5,3.3579102,7.5,7.5c0,4.1426086-3.3573914,7.5-7.5,7.5
			c-4.1421204,0-7.5-3.3573914-7.5-7.5C22.5,25.8578796,25.8578796,22.4999695,30,22.4999695L30,22.4999695z"/>
		<path class="st1" d="M31.516571,23.4833984c3.5986328,0,6.5166321,2.9174805,6.5166321,6.516571
			c0,3.5986023-2.9179993,6.5166016-6.5166321,6.5166016c-3.5990906,0-6.5166016-2.9179993-6.5166016-6.5166016
			C24.9999695,26.4008789,27.9174805,23.4833984,31.516571,23.4833984L31.516571,23.4833984z"/>
		<polygon class="st3" points="33.6464844,29.9999695 43.7344055,26.7221985 37.5,35.3036804 37.5,24.6967773 
			43.7344055,33.2772827 33.6464844,29.9999695 		"/>
	</g>
</g>
</svg>
