<?xml version="1.0" encoding="utf-8"?>
<!-- Generator: Adobe Illustrator 22.1.0, SVG Export Plug-In . SVG Version: 6.00 Build 0)  -->
<svg version="1.1" id="Layer_1" xmlns="http://www.w3.org/2000/svg" xmlns:xlink="http://www.w3.org/1999/xlink" x="0px" y="0px"
	 viewBox="0 0 60 60" style="enable-background:new 0 0 60 60;" xml:space="preserve">
<style type="text/css">
	.st0{clip-path:url(#SVGID_2_);fill:#243770;}
	.st1{clip-path:url(#SVGID_2_);fill:#CE1327;}
	.st2{clip-path:url(#SVGID_2_);fill:#FFD840;}
	.st3{clip-path:url(#SVGID_2_);fill:#020203;}
</style>
<g id="XMLID_1_">
	<g>
		<defs>
			<path id="SVGID_1_" d="M59,60H0.9999695C0.4477234,60,0,59.5526733,0,59V0.9999695c0-0.5522461,0.4477234-1,0.9999695-1H59
				c0.5526886,0,0.9999847,0.4477539,0.9999847,1V59C59.9999847,59.5526733,59.5526886,60,59,60L59,60z"/>
		</defs>
		<clipPath id="SVGID_2_">
			<use xlink:href="#SVGID_1_"  style="overflow:visible;"/>
		</clipPath>
		<polygon class="st0" points="0,-0.0000305 99.9999847,-0.0000305 99.9999847,60 0,60 0,-0.0000305 		"/>
		<polygon class="st1" points="0,29.9999695 99.9999847,29.9999695 99.9999847,60 0,60 0,29.9999695 		"/>
		<path class="st2" d="M21.6376953,12.2290039l-0.1835938,6.2499695h-6.3423157
			c-0.780304-1.5170898-1.4242859-2.8052063-1.4242859-4.5498047c0-1.4599915,1.1478882-2.6195984,2.8031616-2.6195984
			C18.2426758,11.3095703,20.1674805,11.8998718,21.6376953,12.2290039L21.6376953,12.2290039z"/>
		<path class="st3" d="M14.4457703,16.1987c-0.0414734,0-0.0751953-0.0337219-0.0751953-0.0752258v-3.6073914
			c0-0.0415039,0.0337219-0.0752258,0.0751953-0.0752258c0.0410156,0,0.074707,0.0337219,0.074707,0.0752258v3.6073914
			C14.5204773,16.164978,14.4867859,16.1987,14.4457703,16.1987L14.4457703,16.1987z"/>
		<path class="st3" d="M14.9550781,17.0263977c-0.0414734,0-0.0751648-0.0336914-0.0751648-0.0752258v-4.8032837
			c0-0.0415039,0.0336914-0.0751038,0.0751648-0.0751038c0.0415039,0,0.074707,0.0335999,0.074707,0.0751038v4.8032837
			C15.0297852,16.9927063,14.996582,17.0263977,14.9550781,17.0263977L14.9550781,17.0263977z"/>
		<path class="st3" d="M15.4644165,17.6929016c-0.0415344,0-0.0752258-0.0337219-0.0752258-0.0752258V11.894989
			c0-0.0415344,0.0336914-0.074707,0.0752258-0.074707c0.0414734,0,0.0746765,0.0331726,0.0746765,0.074707v5.7226868
			C15.539093,17.6591797,15.5058899,17.6929016,15.4644165,17.6929016L15.4644165,17.6929016z"/>
		<path class="st3" d="M15.9735718,16.340271c-0.0414734,0-0.0751953-0.0336914-0.0751953-0.0751953v-4.487793
			c0-0.0415039,0.0337219-0.0751953,0.0751953-0.0751953c0.0415344,0,0.0752258,0.0336914,0.0752258,0.0751953v4.487793
			C16.0487976,16.3065796,16.0151062,16.340271,15.9735718,16.340271L15.9735718,16.340271z"/>
		<path class="st3" d="M16.4828796,16.3622742c-0.0414734,0-0.074707-0.0331726-0.074707-0.074707v-4.5326843
			c0-0.0415039,0.0332336-0.0751953,0.074707-0.0751953c0.0415039,0,0.0751953,0.0336914,0.0751953,0.0751953v4.5326843
			C16.558075,16.3291016,16.5243835,16.3622742,16.4828796,16.3622742L16.4828796,16.3622742z"/>
		<path class="st3" d="M16.9921875,16.3598938c-0.0409851,0-0.0746765-0.0336914-0.0746765-0.074707v-4.6885071
			c0-0.0415039,0.0336914-0.0751953,0.0746765-0.0751953c0.0415039,0,0.0751953,0.0336914,0.0751953,0.0751953v4.6885071
			C17.0673828,16.3262024,17.0336914,16.3598938,16.9921875,16.3598938L16.9921875,16.3598938z"/>
		<path class="st3" d="M17.5014648,16.3598938c-0.0410767,0-0.0746765-0.0336914-0.0746765-0.074707v-4.6885071
			c0-0.0415039,0.0335999-0.0751953,0.0746765-0.0751953c0.0415344,0,0.0752258,0.0336914,0.0752258,0.0751953v4.6885071
			C17.5766907,16.3262024,17.5429993,16.3598938,17.5014648,16.3598938L17.5014648,16.3598938z"/>
		<path class="st3" d="M18.0111694,16.4057922c-0.0414734,0-0.0751648-0.0337219-0.0751648-0.074707v-4.6885071
			c0-0.0415039,0.0336914-0.0751953,0.0751648-0.0751953c0.0410156,0,0.074707,0.0336914,0.074707,0.0751953v4.6885071
			C18.0858765,16.3720703,18.0521851,16.4057922,18.0111694,16.4057922L18.0111694,16.4057922z"/>
		<path class="st3" d="M18.5204773,16.4520874c-0.0414734,0-0.0751648-0.0335999-0.0751648-0.0751038v-4.6885071
			c0-0.0415039,0.0336914-0.0751953,0.0751648-0.0751953c0.0410156,0,0.074707,0.0336914,0.074707,0.0751953v4.6885071
			C18.5951843,16.4184875,18.5614929,16.4520874,18.5204773,16.4520874L18.5204773,16.4520874z"/>
		<path class="st3" d="M19.0297852,16.7504578c-0.0415039,0-0.0751953-0.0336914-0.0751953-0.0746765v-4.6885071
			c0-0.0415039,0.0336914-0.0751953,0.0751953-0.0751953s0.074707,0.0336914,0.074707,0.0751953v4.6885071
			C19.1044922,16.7167664,19.0712891,16.7504578,19.0297852,16.7504578L19.0297852,16.7504578z"/>
		<path class="st3" d="M19.539093,17.3939819c-0.0415039,0-0.0751953-0.0335999-0.0751953-0.0751953v-5.285614
			c0-0.0414734,0.0336914-0.0751953,0.0751953-0.0751953s0.0751953,0.0337219,0.0751953,0.0751953v5.285614
			C19.6142883,17.3603821,19.5805969,17.3939819,19.539093,17.3939819L19.539093,17.3939819z"/>
		<path class="st3" d="M20.0482788,16.7963867c-0.0414734,0-0.0746765-0.0336914-0.0746765-0.074707v-4.6885071
			c0-0.0414734,0.0332031-0.0751953,0.0746765-0.0751953c0.0415039,0,0.0751953,0.0337219,0.0751953,0.0751953v4.6885071
			C20.1234741,16.7626953,20.0897827,16.7963867,20.0482788,16.7963867L20.0482788,16.7963867z"/>
		<path class="st3" d="M20.5575867,16.7963867c-0.0409851,0-0.0746765-0.0336914-0.0746765-0.074707v-4.6885071
			c0-0.0414734,0.0336914-0.0751953,0.0746765-0.0751953c0.0415039,0,0.0751953,0.0337219,0.0751953,0.0751953v4.6885071
			C20.632782,16.7626953,20.5990906,16.7963867,20.5575867,16.7963867L20.5575867,16.7963867z"/>
		<path class="st3" d="M17.6395874,11.7924805c1.0762024,0.1772156,3.4404907,1.2836914,3.1708984,2.780304
			c-0.3823242,2.120575-1.6206055,1.2694702-3.2626038,0.9647827l-1.241272,0.4136353
			c-0.4438171,0.453064-1.0976257,0.8685913-1.5395203,0.3216858H14.032196v2.8721008h8.1337891v-6.9389038L17.6395874,11.7924805
			L17.6395874,11.7924805z"/>
		<path class="st3" d="M14.1069031,19.070282h7.9844055v-6.7958984l-3.6396179-0.332489
			c0.7635803,0.2831726,1.6615906,0.7934875,2.1307983,1.4589844c0.272522,0.3857117,0.3739929,0.7846069,0.3018188,1.1849976
			c-0.1216125,0.6739197-0.3301392,1.0849915-0.6572266,1.2940063c-0.4584961,0.292511-1.0805969,0.1299133-1.8013-0.0585938
			c-0.2792969-0.0733032-0.5673828-0.1489258-0.8731079-0.2061157l-1.2049561,0.4013977
			c-0.233429,0.2358093-0.6758423,0.6133118-1.108429,0.5908203c-0.1948853-0.0093079-0.3652954-0.0967102-0.506897-0.2593079
			h-0.6254883V19.070282L14.1069031,19.070282z M22.1659851,19.2201843H14.032196
			c-0.0415039,0-0.0751953-0.0336914-0.0751953-0.0751953v-2.8721008c0-0.0415039,0.0336914-0.074707,0.0751953-0.074707h0.7348938
			c0.0228882,0,0.0444031,0.0097961,0.0586243,0.0278931c0.1195679,0.1478882,0.2572632,0.2236023,0.4208679,0.2313843
			c0.3812866,0.0186157,0.7944031-0.3422546,1.0068054-0.5585938c0.0083008-0.0087891,0.0186157-0.0150757,0.0298157-0.0189819
			l1.2406921-0.4131165c0.012207-0.0043945,0.0249023-0.0054016,0.0375671-0.0028992
			c0.3174133,0.059021,0.6148376,0.1366882,0.9024048,0.2119141c0.6865234,0.1796875,1.2793274,0.3348999,1.6826172,0.0776062
			c0.2851257-0.1821289,0.4785156-0.5726929,0.5903015-1.1937866c0.0645142-0.3599243-0.0282898-0.7207031-0.2767944-1.0723267
			c-0.6285095-0.8905945-2.0615845-1.4935913-2.8326111-1.6210938c-0.039978-0.0062866-0.0672913-0.043396-0.0624695-0.0834961
			c0.0053711-0.0400085,0.0405579-0.0688171,0.0815735-0.0648804l4.5263977,0.4134827
			c0.0390015,0.003479,0.0682983,0.035675,0.0682983,0.0747986v6.9389038
			C22.2411804,19.1864929,22.207489,19.2201843,22.1659851,19.2201843L22.1659851,19.2201843z"/>
		<path class="st2" d="M21.2816772,10.8041687c0.272522,0,0.4937134,0.2212219,0.4937134,0.4941101
			c0,0.2730103-0.2211914,0.4942017-0.4937134,0.4942017c-0.2728882,0-0.4940796-0.2211914-0.4940796-0.4942017
			C20.7875977,11.0253906,21.0087891,10.8041687,21.2816772,10.8041687L21.2816772,10.8041687z"/>
		<path class="st3" d="M21.2816772,10.9042664c-0.2171631,0-0.3939819,0.1768188-0.3939819,0.3940125
			c0,0.2173157,0.1768188,0.394104,0.3939819,0.394104c0.2172852,0,0.394104-0.1767883,0.394104-0.394104
			C21.6757812,11.0810852,21.4989624,10.9042664,21.2816772,10.9042664L21.2816772,10.9042664z M21.2816772,11.8920898
			c-0.3276062,0-0.5942078-0.2661133-0.5942078-0.593811c0-0.3275757,0.2666016-0.5941772,0.5942078-0.5941772
			c0.3272095,0,0.593811,0.2666016,0.593811,0.5941772C21.8754883,11.6259766,21.6088867,11.8920898,21.2816772,11.8920898
			L21.2816772,11.8920898z"/>
		<path class="st2" d="M20.1713867,10.5370789c0.2728882,0,0.4940796,0.2212219,0.4940796,0.4942017
			c0,0.2723999-0.2211914,0.4935913-0.4940796,0.4935913c-0.2729797,0-0.4942017-0.2211914-0.4942017-0.4935913
			C19.6771851,10.7583008,19.898407,10.5370789,20.1713867,10.5370789L20.1713867,10.5370789z"/>
		<path class="st3" d="M20.1713867,10.6371765c-0.2172852,0-0.394104,0.1768188-0.394104,0.394104
			c0,0.2171936,0.1768188,0.3940125,0.394104,0.3940125s0.3940125-0.1768188,0.3940125-0.3940125
			C20.5653992,10.8139954,20.3886719,10.6371765,20.1713867,10.6371765L20.1713867,10.6371765z M20.1713867,11.6249695
			c-0.3276062,0-0.5942993-0.2666016-0.5942993-0.593689c0-0.3276978,0.2666931-0.5942993,0.5942993-0.5942993
			s0.593689,0.2666016,0.593689,0.5942993C20.7650757,11.3583679,20.4989929,11.6249695,20.1713867,11.6249695
			L20.1713867,11.6249695z"/>
		<path class="st2" d="M19.0448914,10.2543945c0.2729797,0,0.4942017,0.2206726,0.4942017,0.4935913
			c0,0.2729797-0.2212219,0.4942017-0.4942017,0.4942017c-0.2728882,0-0.4940796-0.2212219-0.4940796-0.4942017
			C18.5508118,10.4750671,18.7720032,10.2543945,19.0448914,10.2543945L19.0448914,10.2543945z"/>
		<path class="st3" d="M19.0448914,10.3540039c-0.2172852,0-0.3940125,0.1767578-0.3940125,0.3939819
			c0,0.2172852,0.1767273,0.394104,0.3940125,0.394104s0.394104-0.1768188,0.394104-0.394104
			C19.4389954,10.5307617,19.2621765,10.3540039,19.0448914,10.3540039L19.0448914,10.3540039z M19.0448914,11.3422546
			c-0.3276062,0-0.593689-0.266571-0.593689-0.5942688c0-0.3271179,0.2660828-0.5937195,0.593689-0.5937195
			c0.3276978,0,0.5942993,0.2666016,0.5942993,0.5937195C19.6391907,11.0756836,19.3725891,11.3422546,19.0448914,11.3422546
			L19.0448914,11.3422546z"/>
		<path class="st2" d="M17.914093,10.0653992c0.2728882,0,0.4940796,0.2211914,0.4940796,0.4941711
			c0,0.2728882-0.2211914,0.4941101-0.4940796,0.4941101c-0.2724915,0-0.4937134-0.2212219-0.4937134-0.4941101
			C17.4203796,10.2865906,17.6416016,10.0653992,17.914093,10.0653992L17.914093,10.0653992z"/>
		<path class="st3" d="M17.914093,10.1654663c-0.2167969,0-0.3936157,0.1768188-0.3936157,0.394104
			c0,0.2173157,0.1768188,0.3940125,0.3936157,0.3940125c0.2171936,0,0.3939819-0.1766968,0.3939819-0.3940125
			C18.308075,10.3422852,18.1312866,10.1654663,17.914093,10.1654663L17.914093,10.1654663z M17.914093,11.1537781
			c-0.327179,0-0.5937805-0.2666016-0.5937805-0.5942078c0-0.3276978,0.2666016-0.59375,0.5937805-0.59375
			c0.3276062,0,0.5942078,0.2660522,0.5942078,0.59375C18.5083008,10.8871765,18.2416992,11.1537781,17.914093,11.1537781
			L17.914093,11.1537781z"/>
		<path class="st2" d="M16.7836914,9.9541016c0.2729187,0,0.4941101,0.2211914,0.4941101,0.4940796
			c0,0.2724915-0.2211914,0.4937134-0.4941101,0.4937134c-0.2730103,0-0.4941101-0.2212219-0.4941101-0.4937134
			C16.2895813,10.175293,16.5106812,9.9541016,16.7836914,9.9541016L16.7836914,9.9541016z"/>
		<path class="st3" d="M16.7836914,10.0541687c-0.2173157,0-0.394104,0.1768188-0.394104,0.3940125
			c0,0.2172852,0.1767883,0.394104,0.394104,0.394104s0.3939819-0.1768188,0.3939819-0.394104
			C17.1776733,10.2309875,17.0010071,10.0541687,16.7836914,10.0541687L16.7836914,10.0541687z M16.7836914,11.0419617
			c-0.3275757,0-0.5941772-0.2666016-0.5941772-0.5937805c0-0.3276062,0.2666016-0.5942078,0.5941772-0.5942078
			c0.3276062,0,0.5937195,0.2666016,0.5937195,0.5942078C17.3774109,10.7753601,17.1112976,11.0419617,16.7836914,11.0419617
			L16.7836914,11.0419617z"/>
		<path class="st2" d="M15.6747742,10.0170898c0.2730408,0,0.4941101,0.2211914,0.4941101,0.4940796
			c0,0.2730103-0.2210693,0.4942017-0.4941101,0.4942017c-0.2728882,0-0.4940796-0.2211914-0.4940796-0.4942017
			C15.1806946,10.2382812,15.401886,10.0170898,15.6747742,10.0170898L15.6747742,10.0170898z"/>
		<path class="st3" d="M15.6747742,10.1171875c-0.2172852,0-0.3939819,0.1766968-0.3939819,0.3939819
			s0.1766968,0.394104,0.3939819,0.394104c0.2173157,0,0.3940125-0.1768188,0.3940125-0.394104
			S15.8920898,10.1171875,15.6747742,10.1171875L15.6747742,10.1171875z M15.6747742,11.1054993
			c-0.3270874,0-0.593689-0.2666016-0.593689-0.5943298c0-0.3276062,0.2666016-0.5942078,0.593689-0.5942078
			c0.3276062,0,0.5942078,0.2666016,0.5942078,0.5942078C16.2689819,10.8388977,16.0023804,11.1054993,15.6747742,11.1054993
			L15.6747742,11.1054993z"/>
		<path class="st2" d="M14.6181946,10.3788757c0.2723999,0,0.4935913,0.2212219,0.4935913,0.4941101
			c0,0.2729797-0.2211914,0.4941711-0.4935913,0.4941711c-0.2730103,0-0.4942017-0.2211914-0.4942017-0.4941711
			C14.1239929,10.6000977,14.3451843,10.3788757,14.6181946,10.3788757L14.6181946,10.3788757z"/>
		<path class="st3" d="M14.6181946,10.4789734c-0.2172852,0-0.394104,0.1768188-0.394104,0.3940125
			c0,0.2172852,0.1768188,0.394104,0.394104,0.394104c0.2167969,0,0.3934937-0.1768188,0.3934937-0.394104
			C15.0116882,10.6557922,14.8349915,10.4789734,14.6181946,10.4789734L14.6181946,10.4789734z M14.6181946,11.4672852
			c-0.3277283,0-0.5943298-0.2666016-0.5943298-0.5942993c0-0.3276062,0.2666016-0.593689,0.5943298-0.593689
			c0.3270874,0,0.593689,0.2660828,0.593689,0.593689C15.2118835,11.2006836,14.945282,11.4672852,14.6181946,11.4672852
			L14.6181946,11.4672852z"/>
		<path class="st2" d="M13.727478,11.0341797c0.2730103,0,0.4942017,0.2211914,0.4942017,0.4935913
			c0,0.2730103-0.2211914,0.4942017-0.4942017,0.4942017c-0.2728882,0-0.4940796-0.2211914-0.4940796-0.4942017
			C13.2333984,11.2553711,13.4545898,11.0341797,13.727478,11.0341797L13.727478,11.0341797z"/>
		<path class="st3" d="M13.727478,11.1337891c-0.2171631,0-0.3939819,0.1766968-0.3939819,0.3939819
			s0.1768188,0.394104,0.3939819,0.394104c0.2172852,0,0.394104-0.1768188,0.394104-0.394104
			S13.9447632,11.1337891,13.727478,11.1337891L13.727478,11.1337891z M13.727478,12.1221008
			c-0.3276062,0-0.593689-0.2666016-0.593689-0.5943298c0-0.3270874,0.2660828-0.593689,0.593689-0.593689
			c0.3277283,0,0.5943298,0.2666016,0.5943298,0.593689C14.3218079,11.8554993,14.0552063,12.1221008,13.727478,12.1221008
			L13.727478,12.1221008z"/>
		<path class="st2" d="M13.0957031,11.9472656c0.2729797,0,0.4940796,0.2211914,0.4940796,0.4941101
			c0,0.2730103-0.2210999,0.4941101-0.4940796,0.4941101c-0.2729187,0-0.4941101-0.2210999-0.4941101-0.4941101
			C12.601593,12.168457,12.8227844,11.9472656,13.0957031,11.9472656L13.0957031,11.9472656z"/>
		<path class="st3" d="M13.0957031,12.0473938c-0.2173157,0-0.3940125,0.1766663-0.3940125,0.3939819
			s0.1766968,0.3940125,0.3940125,0.3940125c0.2172852,0,0.3939819-0.1766968,0.3939819-0.3940125
			S13.3129883,12.0473938,13.0957031,12.0473938L13.0957031,12.0473938z M13.0957031,13.0355835
			c-0.3276062,0-0.5942078-0.2666016-0.5942078-0.5942078s0.2666016-0.5942078,0.5942078-0.5942078
			c0.3275757,0,0.5937805,0.2666016,0.5937805,0.5942078S13.4232788,13.0355835,13.0957031,13.0355835L13.0957031,13.0355835z"/>
		<path class="st2" d="M12.7909851,13.0214844c0.2730103,0,0.4942017,0.2211914,0.4942017,0.4940796
			c0,0.2730103-0.2211914,0.4942017-0.4942017,0.4942017c-0.2723694,0-0.4935913-0.2211914-0.4935913-0.4942017
			C12.2973938,13.2426758,12.5186157,13.0214844,12.7909851,13.0214844L12.7909851,13.0214844z"/>
		<path class="st3" d="M12.7909851,13.121582c-0.2173157,0-0.3939819,0.1766968-0.3939819,0.3939819
			c0,0.2173157,0.1766663,0.394104,0.3939819,0.394104s0.394104-0.1767883,0.394104-0.394104
			C13.1850891,13.2982788,13.0083008,13.121582,12.7909851,13.121582L12.7909851,13.121582z M12.7909851,14.1098938
			c-0.3271179,0-0.5937195-0.2666016-0.5937195-0.5943298c0-0.3276062,0.2666016-0.5942078,0.5937195-0.5942078
			c0.3276978,0,0.5942993,0.2666016,0.5942993,0.5942078C13.3852844,13.8432922,13.1186829,14.1098938,12.7909851,14.1098938
			L12.7909851,14.1098938z"/>
		<path class="st2" d="M12.8027039,14.1362c0.2729797,0,0.4942017,0.2211914,0.4942017,0.4936829
			c0,0.2728882-0.2212219,0.4940796-0.4942017,0.4940796c-0.2729187,0-0.4941101-0.2211914-0.4941101-0.4940796
			C12.3085938,14.3573914,12.5297852,14.1362,12.8027039,14.1362L12.8027039,14.1362z"/>
		<path class="st3" d="M12.8027039,14.2357788c-0.2173157,0-0.3940125,0.1767883-0.3940125,0.394104
			c0,0.2172852,0.1766968,0.3940125,0.3940125,0.3940125c0.2172852,0,0.394104-0.1767273,0.394104-0.3940125
			C13.1968079,14.4125671,13.019989,14.2357788,12.8027039,14.2357788L12.8027039,14.2357788z M12.8027039,15.2240601
			c-0.3276062,0-0.5942078-0.2666016-0.5942078-0.5941772c0-0.3272095,0.2666016-0.593811,0.5942078-0.593811
			c0.3276672,0,0.5937805,0.2666016,0.5937805,0.593811C13.3964844,14.9574585,13.1303711,15.2240601,12.8027039,15.2240601
			L12.8027039,15.2240601z"/>
		<path class="st2" d="M13.0151062,15.227478c0.2729797,0,0.4941711,0.2212219,0.4941711,0.4942017
			c0,0.2723999-0.2211914,0.4935913-0.4941711,0.4935913c-0.2729187,0-0.4941406-0.2211914-0.4941406-0.4935913
			C12.5209656,15.4487,12.7421875,15.227478,13.0151062,15.227478L13.0151062,15.227478z"/>
		<path class="st3" d="M13.0151062,15.3275757c-0.2172241,0-0.3940125,0.1768188-0.3940125,0.394104
			s0.1767883,0.3939819,0.3940125,0.3939819c0.2172852,0,0.394104-0.1766968,0.394104-0.3939819
			S13.2323914,15.3275757,13.0151062,15.3275757L13.0151062,15.3275757z M13.0151062,16.3153687
			c-0.3276062,0-0.5937195-0.2666016-0.5937195-0.593689c0-0.3276978,0.2661133-0.5942993,0.5937195-0.5942993
			c0.3276672,0,0.5942688,0.2666016,0.5942688,0.5942993C13.609375,16.0487671,13.3427734,16.3153687,13.0151062,16.3153687
			L13.0151062,16.3153687z"/>
		<path class="st2" d="M21.5,11.953064l-0.0458984,0.6436157c-1.2295227-0.1885071-2.9717102-0.8735962-4.5957336-0.8735962
			c-1.5009766,0-2.6654663,0.6005859-2.6654663,2.1143188c0,1.4916687,0.6317749,2.8485718,1.4707031,4.2279663
			l-0.8736267,0.4136047c-0.7796936-1.5170898-1.4242859-2.8052063-1.4242859-4.5498047
			c0-1.4599915,1.1484985-2.894989,3.1249695-2.894989C18.2426758,11.0341797,20.0297852,11.6244812,21.5,11.953064L21.5,11.953064z
			"/>
		<path class="st3" d="M16.4906616,11.1337891c-1.9647827,0-3.0248718,1.4403687-3.0248718,2.7953796
			c0,1.7202148,0.6586914,3.0361023,1.3692017,4.4179993l0.6854858-0.3246765
			c-0.715271-1.1890259-1.4277039-2.6079102-1.4277039-4.1850891c0-1.4072266,1.0078125-2.2139282,2.7655945-2.2139282
			c1.0566406,0,2.1611328,0.2857056,3.1353455,0.5381165c0.4920959,0.1275024,0.9588623,0.2480774,1.3680725,0.3188782
			l0.032196-0.4487915c-0.3251953-0.0742188-0.6620789-0.1596069-1.016571-0.2489929
			C19.1757812,11.4784546,17.8134766,11.1337891,16.4906616,11.1337891L16.4906616,11.1337891z M14.7904968,18.5791016
			c-0.0365906,0-0.0713196-0.0200195-0.0892944-0.054718c-0.7383118-1.4349976-1.4356079-2.7910156-1.4356079-4.5952148
			c0-1.4520874,1.1303711-2.9950867,3.2250671-2.9950867c1.3477173,0,2.7227173,0.3475952,3.9356384,0.6548157
			c0.3841858,0.0970764,0.7469788,0.1889038,1.0951843,0.2666016c0.0483093,0.0106812,0.0814819,0.055603,0.0780945,0.1048889
			l-0.0458679,0.6430664c-0.0019226,0.027832-0.015625,0.0537109-0.0376282,0.0713196
			c-0.0215149,0.0171204-0.0498047,0.0249023-0.0771179,0.0205078c-0.4443665-0.0679016-0.9545593-0.2002258-1.4951782-0.3403015
			c-0.9627991-0.2489929-2.0541992-0.5317993-3.0854187-0.5317993c-0.9579773,0-2.5653687,0.2617798-2.5653687,2.0142212
			c0,1.5697632,0.7357788,2.9916687,1.4559937,4.1757812c0.0147095,0.0243835,0.0186157,0.0537109,0.0102844,0.0805969
			c-0.0083008,0.0273132-0.0274048,0.0498047-0.0531616,0.0620117l-0.8731079,0.4134827
			C14.8192749,18.5756836,14.8046875,18.5791016,14.7904968,18.5791016L14.7904968,18.5791016z"/>
		<path class="st2" d="M22.7558899,12.2290039l0.1839905,6.2499695h6.3417969
			c0.780304-1.5170898,1.4248047-2.8052063,1.4248047-4.5498047c0-1.4599915-1.148407-2.6195984-2.8031921-2.6195984
			C26.1513672,11.3095703,24.2261047,11.8998718,22.7558899,12.2290039L22.7558899,12.2290039z"/>
		<path class="st3" d="M29.9481812,16.1987c-0.0415039,0-0.0751953-0.0337219-0.0751953-0.0752258v-3.6073914
			c0-0.0415039,0.0336914-0.0752258,0.0751953-0.0752258s0.074707,0.0337219,0.074707,0.0752258v3.6073914
			C30.0228882,16.164978,29.9896851,16.1987,29.9481812,16.1987L29.9481812,16.1987z"/>
		<path class="st3" d="M29.4389954,17.0263977c-0.0415039,0-0.0752258-0.0336914-0.0752258-0.0752258v-4.8032837
			c0-0.0415039,0.0337219-0.0751038,0.0752258-0.0751038c0.0410156,0,0.074707,0.0335999,0.074707,0.0751038v4.8032837
			C29.5137024,16.9927063,29.480011,17.0263977,29.4389954,17.0263977L29.4389954,17.0263977z"/>
		<path class="st3" d="M28.9296875,17.6929016c-0.0414734,0-0.0751953-0.0337219-0.0751953-0.0752258V11.894989
			c0-0.0415344,0.0337219-0.074707,0.0751953-0.074707c0.0409851,0,0.074707,0.0331726,0.074707,0.074707v5.7226868
			C29.0043945,17.6591797,28.9706726,17.6929016,28.9296875,17.6929016L28.9296875,17.6929016z"/>
		<path class="st3" d="M28.4198914,16.340271c-0.0410156,0-0.074707-0.0336914-0.074707-0.0751953v-4.487793
			c0-0.0415039,0.0336914-0.0751953,0.074707-0.0751953c0.0414734,0,0.0751953,0.0336914,0.0751953,0.0751953v4.487793
			C28.4950867,16.3065796,28.4613647,16.340271,28.4198914,16.340271L28.4198914,16.340271z"/>
		<path class="st3" d="M27.9105835,16.3622742c-0.0415039,0-0.074707-0.0331726-0.074707-0.074707v-4.5326843
			c0-0.0415039,0.0332031-0.0751953,0.074707-0.0751953s0.0752258,0.0336914,0.0752258,0.0751953v4.5326843
			C27.9858093,16.3291016,27.9520874,16.3622742,27.9105835,16.3622742L27.9105835,16.3622742z"/>
		<path class="st3" d="M27.4013977,16.3598938c-0.0415039,0-0.0752258-0.0336914-0.0752258-0.074707v-4.6885071
			c0-0.0415039,0.0337219-0.0751953,0.0752258-0.0751953s0.0751953,0.0336914,0.0751953,0.0751953v4.6885071
			C27.476593,16.3262024,27.4429016,16.3598938,27.4013977,16.3598938L27.4013977,16.3598938z"/>
		<path class="st3" d="M26.8920898,16.3598938c-0.0415039,0-0.0751953-0.0336914-0.0751953-0.074707v-4.6885071
			c0-0.0415039,0.0336914-0.0751953,0.0751953-0.0751953s0.0751953,0.0336914,0.0751953,0.0751953v4.6885071
			C26.9672852,16.3262024,26.9335938,16.3598938,26.8920898,16.3598938L26.8920898,16.3598938z"/>
		<path class="st3" d="M26.382782,16.4057922c-0.0415039,0-0.0751953-0.0337219-0.0751953-0.074707v-4.6885071
			c0-0.0415039,0.0336914-0.0751953,0.0751953-0.0751953s0.074707,0.0336914,0.074707,0.0751953v4.6885071
			C26.457489,16.3720703,26.4242859,16.4057922,26.382782,16.4057922L26.382782,16.4057922z"/>
		<path class="st3" d="M25.8735046,16.4520874c-0.0415344,0-0.0752258-0.0335999-0.0752258-0.0751038v-4.6885071
			c0-0.0415039,0.0336914-0.0751953,0.0752258-0.0751953c0.0414734,0,0.074707,0.0336914,0.074707,0.0751953v4.6885071
			C25.9482117,16.4184875,25.914978,16.4520874,25.8735046,16.4520874L25.8735046,16.4520874z"/>
		<path class="st3" d="M25.3642883,16.7504578c-0.0414734,0-0.0751953-0.0336914-0.0751953-0.0746765v-4.6885071
			c0-0.0415039,0.0337219-0.0751953,0.0751953-0.0751953c0.0410156,0,0.074707,0.0336914,0.074707,0.0751953v4.6885071
			C25.4389954,16.7167664,25.405304,16.7504578,25.3642883,16.7504578L25.3642883,16.7504578z"/>
		<path class="st3" d="M24.8544922,17.3939819c-0.0410156,0-0.074707-0.0335999-0.074707-0.0751953v-5.285614
			c0-0.0414734,0.0336914-0.0751953,0.074707-0.0751953c0.0414734,0,0.0751953,0.0337219,0.0751953,0.0751953v5.285614
			C24.9296875,17.3603821,24.8959656,17.3939819,24.8544922,17.3939819L24.8544922,17.3939819z"/>
		<path class="st3" d="M24.3451843,16.7963867c-0.0415039,0-0.074707-0.0336914-0.074707-0.074707v-4.6885071
			c0-0.0414734,0.0332031-0.0751953,0.074707-0.0751953s0.0752258,0.0337219,0.0752258,0.0751953v4.6885071
			C24.4204102,16.7626953,24.3866882,16.7963867,24.3451843,16.7963867L24.3451843,16.7963867z"/>
		<path class="st3" d="M23.835907,16.7963867c-0.0415344,0-0.0752258-0.0336914-0.0752258-0.074707v-4.6885071
			c0-0.0414734,0.0336914-0.0751953,0.0752258-0.0751953c0.0414734,0,0.0751953,0.0337219,0.0751953,0.0751953v4.6885071
			C23.9111023,16.7626953,23.8773804,16.7963867,23.835907,16.7963867L23.835907,16.7963867z"/>
		<path class="st3" d="M26.7543945,11.7924805c-1.0767212,0.1772156-3.440918,1.2836914-3.1714172,2.780304
			c0.3823242,2.120575,1.6211243,1.2694702,3.2632141,0.9647827l1.2407227,0.4136353
			c0.4438782,0.453064,1.0976868,0.8685913,1.5395813,0.3216858h0.7352905v2.8721008h-8.1342773v-6.9389038L26.7543945,11.7924805
			L26.7543945,11.7924805z"/>
		<path class="st3" d="M22.3026733,19.070282h7.9839172v-2.7221985h-0.625c-0.1420898,0.1625977-0.3119812,0.25-0.5073242,0.2593079
			c-0.4325867,0.0229797-0.8749695-0.355011-1.1083679-0.5908203l-1.2051086-0.4013977
			c-0.3052063,0.0571899-0.593689,0.1328125-0.8729858,0.2061157c-0.7202148,0.1885071-1.3428345,0.351593-1.8013306,0.0585938
			c-0.3266907-0.2090149-0.5355835-0.6200867-0.6571655-1.2940063c-0.0718079-0.4003906,0.0292969-0.7992859,0.3016968-1.1849976
			c0.4697876-0.6654968,1.3676758-1.1758118,2.1308899-1.4589844l-3.6392212,0.332489V19.070282L22.3026733,19.070282z
			 M30.3617859,19.2201843h-8.1342773c-0.0415344,0-0.0752258-0.0336914-0.0752258-0.0751953v-6.9389038
			c0-0.0391235,0.0298157-0.0713196,0.0683899-0.0747986l4.5269165-0.4134827
			c0.0394897-0.0039368,0.075592,0.0248718,0.0810242,0.0648804c0.0053711,0.0401001-0.0224304,0.0772095-0.0620422,0.0834961
			c-0.7709961,0.1275024-2.2045898,0.7304993-2.8329773,1.6210938c-0.2481079,0.3516235-0.3413086,0.7124023-0.2763977,1.0723267
			c0.1117859,0.6210938,0.304718,1.0116577,0.5898743,1.1937866c0.4033203,0.2572937,0.9961243,0.1020813,1.6831055-0.0776062
			c0.2876282-0.0752258,0.5844116-0.1528931,0.9023132-0.2119141c0.012207-0.0019836,0.0254211-0.0014954,0.0371094,0.0028992
			l1.2411804,0.4131165c0.011322,0.0039062,0.0215149,0.0101929,0.0297852,0.0189819
			c0.2119141,0.2163391,0.6226196,0.5762024,1.0069275,0.5585938c0.1629944-0.007782,0.3006897-0.0834961,0.4208984-0.2313843
			c0.0140991-0.0180969,0.0355835-0.0278931,0.0581055-0.0278931h0.7352905c0.0415039,0,0.074707,0.0332031,0.074707,0.074707
			v2.8721008C30.4364929,19.1864929,30.4032898,19.2201843,30.3617859,19.2201843L30.3617859,19.2201843z"/>
		<path class="st2" d="M23.1123047,10.8041687c-0.2729187,0-0.4941101,0.2212219-0.4941101,0.4941101
			c0,0.2730103,0.2211914,0.4942017,0.4941101,0.4942017c0.2729797,0,0.4940796-0.2211914,0.4940796-0.4942017
			C23.6063843,11.0253906,23.3852844,10.8041687,23.1123047,10.8041687L23.1123047,10.8041687z"/>
		<path class="st3" d="M23.1123047,10.9042664c-0.2173157,0-0.3940125,0.1768188-0.3940125,0.3940125
			c0,0.2173157,0.1766968,0.394104,0.3940125,0.394104c0.2172852,0,0.3939819-0.1767883,0.3939819-0.394104
			C23.5062866,11.0810852,23.3295898,10.9042664,23.1123047,10.9042664L23.1123047,10.9042664z M23.1123047,11.8920898
			c-0.3276062,0-0.5942078-0.2661133-0.5942078-0.593811c0-0.3275757,0.2666016-0.5941772,0.5942078-0.5941772
			c0.3275757,0,0.5937805,0.2666016,0.5937805,0.5941772C23.7060852,11.6259766,23.4398804,11.8920898,23.1123047,11.8920898
			L23.1123047,11.8920898z"/>
		<path class="st2" d="M24.2226868,10.5370789c-0.2730103,0-0.4942017,0.2212219-0.4942017,0.4942017
			c0,0.2723999,0.2211914,0.4935913,0.4942017,0.4935913c0.2723999,0,0.4936218-0.2211914,0.4936218-0.4935913
			C24.7163086,10.7583008,24.4950867,10.5370789,24.2226868,10.5370789L24.2226868,10.5370789z"/>
		<path class="st3" d="M24.2226868,10.6371765c-0.2173157,0-0.3940735,0.1768188-0.3940735,0.394104
			c0,0.2171936,0.1767578,0.3940125,0.3940735,0.3940125c0.2168274,0,0.3934937-0.1768188,0.3934937-0.3940125
			C24.6161804,10.8139954,24.4395142,10.6371765,24.2226868,10.6371765L24.2226868,10.6371765z M24.2226868,11.6249695
			c-0.3276978,0-0.5942993-0.2666016-0.5942993-0.593689c0-0.3276978,0.2666016-0.5942993,0.5942993-0.5942993
			c0.3270874,0,0.593689,0.2666016,0.593689,0.5942993C24.8163757,11.3583679,24.5497742,11.6249695,24.2226868,11.6249695
			L24.2226868,11.6249695z"/>
		<path class="st2" d="M25.3485718,10.2543945c-0.2723999,0-0.4935913,0.2206726-0.4935913,0.4935913
			c0,0.2729797,0.2211914,0.4942017,0.4935913,0.4942017c0.2730408,0,0.4942322-0.2212219,0.4942322-0.4942017
			C25.842804,10.4750671,25.6216125,10.2543945,25.3485718,10.2543945L25.3485718,10.2543945z"/>
		<path class="st3" d="M25.3485718,10.3540039c-0.2172852,0-0.3939819,0.1767578-0.3939819,0.3939819
			c0,0.2172852,0.1766968,0.394104,0.3939819,0.394104c0.2173157,0,0.394104-0.1768188,0.394104-0.394104
			C25.7426758,10.5307617,25.5658875,10.3540039,25.3485718,10.3540039L25.3485718,10.3540039z M25.3485718,11.3422546
			c-0.3270874,0-0.593689-0.266571-0.593689-0.5942688c0-0.3271179,0.2666016-0.5937195,0.593689-0.5937195
			c0.3277283,0,0.5943298,0.2666016,0.5943298,0.5937195C25.9429016,11.0756836,25.6763,11.3422546,25.3485718,11.3422546
			L25.3485718,11.3422546z"/>
		<path class="st2" d="M26.4794922,10.0653992c-0.2730103,0-0.4941101,0.2211914-0.4941101,0.4941711
			c0,0.2728882,0.2210999,0.4941101,0.4941101,0.4941101c0.2729187,0,0.4941101-0.2212219,0.4941101-0.4941101
			C26.9736023,10.2865906,26.7524109,10.0653992,26.4794922,10.0653992L26.4794922,10.0653992z"/>
		<path class="st3" d="M26.4794922,10.1654663c-0.2173157,0-0.394104,0.1768188-0.394104,0.394104
			c0,0.2173157,0.1767883,0.3940125,0.394104,0.3940125s0.3939819-0.1766968,0.3939819-0.3940125
			C26.8734741,10.3422852,26.6968079,10.1654663,26.4794922,10.1654663L26.4794922,10.1654663z M26.4794922,11.1537781
			c-0.3276062,0-0.5941772-0.2666016-0.5941772-0.5942078c0-0.3276978,0.266571-0.59375,0.5941772-0.59375
			s0.5937195,0.2660522,0.5937195,0.59375C27.0732117,10.8871765,26.8070984,11.1537781,26.4794922,11.1537781
			L26.4794922,11.1537781z"/>
		<path class="st2" d="M27.6103821,9.9541016c-0.2729797,0-0.4942017,0.2211914-0.4942017,0.4940796
			c0,0.2724915,0.2212219,0.4937134,0.4942017,0.4937134c0.2723999,0,0.4935913-0.2212219,0.4935913-0.4937134
			C28.1039734,10.175293,27.882782,9.9541016,27.6103821,9.9541016L27.6103821,9.9541016z"/>
		<path class="st3" d="M27.6103821,10.0541687c-0.2172852,0-0.394104,0.1768188-0.394104,0.3940125
			c0,0.2172852,0.1768188,0.394104,0.394104,0.394104c0.2167053,0,0.3934937-0.1768188,0.3934937-0.394104
			C28.0038757,10.2309875,27.8270874,10.0541687,27.6103821,10.0541687L27.6103821,10.0541687z M27.6103821,11.0419617
			c-0.3276978,0-0.5942688-0.2666016-0.5942688-0.5937805c0-0.3276062,0.266571-0.5942078,0.5942688-0.5942078
			c0.3271179,0,0.5937195,0.2666016,0.5937195,0.5942078C28.2041016,10.7753601,27.9375,11.0419617,27.6103821,11.0419617
			L27.6103821,11.0419617z"/>
		<path class="st2" d="M28.7187805,10.0170898c-0.2729797,0-0.4941711,0.2211914-0.4941711,0.4940796
			c0,0.2730103,0.2211914,0.4942017,0.4941711,0.4942017c0.2728882,0,0.4941101-0.2211914,0.4941101-0.4942017
			C29.2128906,10.2382812,28.9916687,10.0170898,28.7187805,10.0170898L28.7187805,10.0170898z"/>
		<path class="st3" d="M28.7187805,10.1171875c-0.2172852,0-0.394104,0.1766968-0.394104,0.3939819
			s0.1768188,0.394104,0.394104,0.394104c0.2171936,0,0.3940125-0.1768188,0.3940125-0.394104
			S28.9359741,10.1171875,28.7187805,10.1171875L28.7187805,10.1171875z M28.7187805,11.1054993
			c-0.3276978,0-0.5937805-0.2666016-0.5937805-0.5943298c0-0.3276062,0.2660828-0.5942078,0.5937805-0.5942078
			c0.3276062,0,0.5942078,0.2666016,0.5942078,0.5942078C29.3129883,10.8388977,29.0463867,11.1054993,28.7187805,11.1054993
			L28.7187805,11.1054993z"/>
		<path class="st2" d="M29.7759094,10.3788757c-0.2730408,0-0.4942322,0.2212219-0.4942322,0.4941101
			c0,0.2729797,0.2211914,0.4941711,0.4942322,0.4941711c0.2728882,0,0.4940796-0.2211914,0.4940796-0.4941711
			C30.269989,10.6000977,30.0487976,10.3788757,29.7759094,10.3788757L29.7759094,10.3788757z"/>
		<path class="st3" d="M29.7759094,10.4789734c-0.2173157,0-0.394104,0.1768188-0.394104,0.3940125
			c0,0.2172852,0.1767883,0.394104,0.394104,0.394104c0.2172852,0,0.3939819-0.1768188,0.3939819-0.394104
			C30.1698914,10.6557922,29.9931946,10.4789734,29.7759094,10.4789734L29.7759094,10.4789734z M29.7759094,11.4672852
			c-0.3277283,0-0.5943298-0.2666016-0.5943298-0.5942993c0-0.3276062,0.2666016-0.593689,0.5943298-0.593689
			c0.3275757,0,0.593689,0.2660828,0.593689,0.593689C30.3695984,11.2006836,30.1034851,11.4672852,29.7759094,11.4672852
			L29.7759094,11.4672852z"/>
		<path class="st2" d="M30.6659851,11.0341797c-0.2723999,0-0.4936218,0.2211914-0.4936218,0.4935913
			c0,0.2730103,0.2212219,0.4942017,0.4936218,0.4942017c0.2730103,0,0.4942322-0.2211914,0.4942322-0.4942017
			C31.1602173,11.2553711,30.9389954,11.0341797,30.6659851,11.0341797L30.6659851,11.0341797z"/>
		<path class="st3" d="M30.6659851,11.1337891c-0.2172852,0-0.3940125,0.1766968-0.3940125,0.3939819
			s0.1767273,0.394104,0.3940125,0.394104c0.2173157,0,0.3945007-0.1768188,0.3945007-0.394104
			S30.8833008,11.1337891,30.6659851,11.1337891L30.6659851,11.1337891z M30.6659851,12.1221008
			c-0.3270874,0-0.593689-0.2666016-0.593689-0.5943298c0-0.3270874,0.2666016-0.593689,0.593689-0.593689
			c0.3276978,0,0.593811,0.2666016,0.593811,0.593689C31.2597961,11.8554993,30.9936829,12.1221008,30.6659851,12.1221008
			L30.6659851,12.1221008z"/>
		<path class="st2" d="M31.2979126,11.9472656c-0.272522,0-0.4937134,0.2211914-0.4937134,0.4941101
			c0,0.2730103,0.2211914,0.4941101,0.4937134,0.4941101c0.2733765,0,0.4940796-0.2210999,0.4940796-0.4941101
			C31.7919922,12.168457,31.5712891,11.9472656,31.2979126,11.9472656L31.2979126,11.9472656z"/>
		<path class="st3" d="M31.2979126,12.0473938c-0.2167969,0-0.3936157,0.1766663-0.3936157,0.3939819
			s0.1768188,0.3940125,0.3936157,0.3940125c0.2176514,0,0.3944702-0.1766968,0.3944702-0.3940125
			S31.515564,12.0473938,31.2979126,12.0473938L31.2979126,12.0473938z M31.2979126,13.0355835
			c-0.32724,0-0.5938416-0.2666016-0.5938416-0.5942078s0.2666016-0.5942078,0.5938416-0.5942078
			c0.3280945,0,0.594696,0.2666016,0.594696,0.5942078S31.6260071,13.0355835,31.2979126,13.0355835L31.2979126,13.0355835z"/>
		<path class="st2" d="M31.6025085,13.0214844c-0.2723999,0-0.4941406,0.2211914-0.4941406,0.4940796
			c0,0.2730103,0.2217407,0.4942017,0.4941406,0.4942017c0.2724915,0,0.4941711-0.2211914,0.4941711-0.4942017
			C32.0966797,13.2426758,31.875,13.0214844,31.6025085,13.0214844L31.6025085,13.0214844z"/>
		<path class="st3" d="M31.6025085,13.121582c-0.2168274,0-0.3935242,0.1766968-0.3935242,0.3939819
			c0,0.2173157,0.1766968,0.394104,0.3935242,0.394104c0.2177734,0,0.3935852-0.1767883,0.3935852-0.394104
			C31.9960938,13.2982788,31.820282,13.121582,31.6025085,13.121582L31.6025085,13.121582z M31.6025085,14.1098938
			c-0.3271179,0-0.5937195-0.2666016-0.5937195-0.5943298c0-0.3276062,0.2666016-0.5942078,0.5937195-0.5942078
			c0.327179,0,0.5937805,0.2666016,0.5937805,0.5942078C32.1962891,13.8432922,31.9296875,14.1098938,31.6025085,14.1098938
			L31.6025085,14.1098938z"/>
		<path class="st2" d="M31.5907898,14.1362c-0.2723999,0-0.4941101,0.2211914-0.4941101,0.4936829
			c0,0.2728882,0.2217102,0.4940796,0.4941101,0.4940796c0.2734985,0,0.4942017-0.2211914,0.4942017-0.4940796
			C32.0849915,14.3573914,31.8642883,14.1362,31.5907898,14.1362L31.5907898,14.1362z"/>
		<path class="st3" d="M31.5907898,14.2357788c-0.2167969,0-0.3934937,0.1767883-0.3934937,0.394104
			c0,0.2172852,0.1766968,0.3940125,0.3934937,0.3940125c0.217804,0,0.3945923-0.1767273,0.3945923-0.3940125
			C31.9853821,14.4125671,31.8085938,14.2357788,31.5907898,14.2357788L31.5907898,14.2357788z M31.5907898,15.2240601
			c-0.3271179,0-0.5937195-0.2666016-0.5937195-0.5941772c0-0.3272095,0.2666016-0.593811,0.5937195-0.593811
			c0.3280945,0,0.594696,0.2666016,0.594696,0.593811C32.1854858,14.9574585,31.9188843,15.2240601,31.5907898,15.2240601
			L31.5907898,15.2240601z"/>
		<path class="st2" d="M31.3788757,15.227478c-0.273407,0-0.4945984,0.2212219-0.4945984,0.4942017
			c0,0.2723999,0.2211914,0.4935913,0.4945984,0.4935913c0.272522,0,0.4932251-0.2211914,0.4932251-0.4935913
			C31.8721008,15.4487,31.6513977,15.227478,31.3788757,15.227478L31.3788757,15.227478z"/>
		<path class="st3" d="M31.3788757,15.3275757c-0.217804,0-0.3944702,0.1768188-0.3944702,0.394104
			s0.1766663,0.3939819,0.3944702,0.3939819c0.2167969,0,0.3936157-0.1766968,0.3936157-0.3939819
			S31.5956726,15.3275757,31.3788757,15.3275757L31.3788757,15.3275757z M31.3788757,16.3153687
			c-0.3280945,0-0.5942078-0.2666016-0.5942078-0.593689c0-0.3276978,0.2661133-0.5942993,0.5942078-0.5942993
			c0.3272095,0,0.593811,0.2666016,0.593811,0.5942993C31.9726868,16.0487671,31.7060852,16.3153687,31.3788757,16.3153687
			L31.3788757,16.3153687z"/>
		<path class="st2" d="M22.8939819,11.953064l0.0458984,0.6436157c1.2290039-0.1885071,2.9711914-0.8735962,4.5957031-0.8735962
			c1.5005188,0,2.6651306,0.6005859,2.6651306,2.1143188c0,1.4916687-0.6314087,2.8485718-1.4702148,4.2279663l0.8729858,0.4136047
			c0.780304-1.5170898,1.4248047-2.8052063,1.4248047-4.5498047c0-1.4599915-1.1483765-2.894989-3.125-2.894989
			C26.1513672,11.0341797,24.3642883,11.6244812,22.8939819,11.953064L22.8939819,11.953064z"/>
		<path class="st3" d="M28.8729858,18.0224915l0.6856079,0.3246765c0.7103882-1.381897,1.3695679-2.6977844,1.3695679-4.4179993
			c0-1.355011-1.059967-2.7953796-3.0248718-2.7953796c-1.3232117,0-2.6849976,0.3446655-3.8866882,0.6488953
			C23.6615906,11.8720703,23.324707,11.9574585,23,12.0316772l0.0317078,0.4487915
			c0.4091797-0.0708008,0.8764648-0.1913757,1.3681946-0.3188782c0.9745789-0.2524109,2.079071-0.5381165,3.1356812-0.5381165
			c1.7574158,0,2.7651978,0.8067017,2.7651978,2.2139282C30.3007812,15.4145813,29.5888977,16.8334656,28.8729858,18.0224915
			L28.8729858,18.0224915z M29.6034851,18.5791016c-0.0145874,0-0.0292969-0.003418-0.0429993-0.0098267L28.6875,18.1557922
			c-0.0254211-0.012207-0.0449219-0.0346985-0.0527039-0.0620117c-0.0083008-0.026886-0.0043945-0.0562134,0.0101929-0.0805969
			c0.719696-1.1841125,1.4561157-2.6060181,1.4561157-4.1757812c0-1.7524414-1.6074219-2.0142212-2.5655212-2.0142212
			c-1.031189,0-2.1224976,0.2828064-3.0853882,0.5317993c-0.5404968,0.1400757-1.0513306,0.2723999-1.4951172,0.3403015
			c-0.0278931,0.0043945-0.0556946-0.0033875-0.0776978-0.0205078c-0.0219116-0.0176086-0.0350952-0.0434875-0.0375977-0.0713196
			l-0.0458984-0.6430664c-0.0033875-0.0492859,0.0298157-0.0942078,0.0782166-0.1048889
			c0.3480835-0.0776978,0.7113647-0.1695251,1.0951843-0.2666016c1.2134094-0.3072205,2.5879211-0.6548157,3.9360046-0.6548157
			c2.094696,0,3.2246094,1.5429993,3.2246094,2.9950867c0,1.8041992-0.6972046,3.1602173-1.4354858,4.5952148
			C29.6748047,18.559082,29.6395874,18.5791016,29.6034851,18.5791016L29.6034851,18.5791016z"/>
		<path class="st2" d="M22.1968079,7.7499695l-0.5155945,0.9624023l0.5155945,0.9658203l0.5155945-0.9658203L22.1968079,7.7499695
			L22.1968079,7.7499695z M22.1968079,5.3124695l-0.5155945,0.9658203l0.5155945,0.9624023l0.5155945-0.9624023
			L22.1968079,5.3124695L22.1968079,5.3124695z"/>
		<path class="st3" d="M21.7948914,6.2778015l0.4019165,0.7510071l0.4022827-0.7510071l-0.4022827-0.7529297L21.7948914,6.2778015
			L21.7948914,6.2778015z M22.1968079,7.3408203c-0.0366211,0-0.0708313-0.0205078-0.0879211-0.0527344l-0.5155945-0.9629211
			c-0.0162048-0.0292969-0.0162048-0.0644531-0.0005188-0.0942383l0.5155945-0.965332
			c0.0352173-0.0654297,0.1416321-0.0654297,0.1768188,0l0.5155945,0.965332c0.015625,0.0297852,0.015625,0.0649414,0,0.0942383
			l-0.5155945,0.9629211C22.2675781,7.3203125,22.2338867,7.3408203,22.1968079,7.3408203L22.1968079,7.3408203z
			 M21.7948914,8.7123718l0.4019165,0.753418l0.4022827-0.753418l-0.4022827-0.7504883L21.7948914,8.7123718L21.7948914,8.7123718z
			 M22.1968079,9.7783203c-0.0366211,0-0.0708313-0.0205078-0.0884399-0.0532532l-0.5155945-0.965332
			c-0.015686-0.0297852-0.015686-0.0649414,0.0005188-0.094696l0.5155945-0.9624023
			c0.0346985-0.0649719,0.1411133-0.0649719,0.1763,0l0.5155945,0.9624023c0.015625,0.0297546,0.015625,0.0649109,0,0.094696
			l-0.5155945,0.965332C22.2675781,9.7578125,22.2338867,9.7783203,22.1968079,9.7783203L22.1968079,9.7783203z"/>
		<path class="st2" d="M22.4111023,7.4950867l0.8105774,0.515625l0.8135071-0.515625l-0.8135071-0.515625L22.4111023,7.4950867
			L22.4111023,7.4950867z M20.3588867,7.4950867l0.8130188,0.515625l0.8104858-0.515625l-0.8104858-0.515625L20.3588867,7.4950867
			L20.3588867,7.4950867z"/>
		<path class="st3" d="M20.5453796,7.4950867l0.6265259,0.3974609l0.6239929-0.3974609L21.1719055,7.098114L20.5453796,7.4950867
			L20.5453796,7.4950867z M21.1719055,8.1108093c-0.0186157,0-0.0371094-0.0048828-0.0537109-0.015625l-0.8130188-0.5155945
			c-0.0287781-0.0180969-0.0463867-0.0503235-0.0463867-0.0845032c0-0.0341492,0.0176086-0.065918,0.0463867-0.0844727
			l0.8130188-0.515625c0.0327148-0.0205078,0.0746765-0.0205078,0.1073914,0.0005188l0.8105164,0.515625
			c0.0288086,0.0180359,0.0463867,0.0498047,0.0463867,0.0839539c0,0.0341797-0.0175781,0.0664062-0.0463867,0.0845032
			l-0.8105164,0.5155945C21.2089844,8.1054688,21.1903992,8.1108093,21.1719055,8.1108093L21.1719055,8.1108093z
			 M22.5976868,7.4950867l0.6245117,0.3974609l0.625885-0.3974609l-0.625885-0.3969727L22.5976868,7.4950867L22.5976868,7.4950867z
			 M23.2216797,8.1108093c-0.0185852,0-0.0370789-0.0053406-0.0536804-0.015625l-0.8106079-0.5155945
			c-0.0287781-0.0180969-0.0458984-0.0503235-0.0458984-0.0845032c0-0.0341492,0.0171204-0.065918,0.0458984-0.0839539
			l0.8106079-0.515625c0.0331726-0.0210266,0.074707-0.0210266,0.1073914-0.0005188l0.8129883,0.515625
			c0.0293274,0.0185547,0.0464172,0.0503235,0.0464172,0.0844727c0,0.0341797-0.0170898,0.0664062-0.0464172,0.0845032
			l-0.8129883,0.5155945C23.2592773,8.1059265,23.2401733,8.1108093,23.2216797,8.1108093L23.2216797,8.1108093z"/>
		<path class="st2" d="M22.1968079,7.1161804c0.2157898,0,0.390564,0.1748352,0.390564,0.390625
			c0,0.2158203-0.1747742,0.3906555-0.390564,0.3906555c-0.2158203,0-0.390625-0.1748352-0.390625-0.3906555
			C21.8061829,7.2910156,21.9809875,7.1161804,22.1968079,7.1161804L22.1968079,7.1161804z"/>
		<path class="st3" d="M22.1968079,7.2163086c-0.1602173,0-0.2905273,0.1303711-0.2905273,0.2904968
			c0,0.1601562,0.1303101,0.2905273,0.2905273,0.2905273c0.1600647,0,0.2904663-0.1303711,0.2904663-0.2905273
			C22.4872742,7.3466797,22.3568726,7.2163086,22.1968079,7.2163086L22.1968079,7.2163086z M22.1968079,7.9975281
			c-0.2705078,0-0.4906921-0.2201843-0.4906921-0.4907227c0-0.2705078,0.2201843-0.4907227,0.4906921-0.4907227
			c0.2704773,0,0.4906921,0.2202148,0.4906921,0.4907227C22.6875,7.7773438,22.4672852,7.9975281,22.1968079,7.9975281
			L22.1968079,7.9975281z"/>
		<path class="st2" d="M22.1968079,8.9545593c0.5775757,0,1.0453796,0.467804,1.0453796,1.0454102
			s-0.467804,1.0454102-1.0453796,1.0454102c-0.5772095,0-1.0454102-0.467804-1.0454102-1.0454102
			S21.6195984,8.9545593,22.1968079,8.9545593L22.1968079,8.9545593z"/>
		<path class="st3" d="M22.1968079,9.0546875c-0.5210266,0-0.945343,0.4237976-0.945343,0.945282
			c0,0.5215149,0.4243164,0.9453125,0.945343,0.9453125c0.5214844,0,0.9457703-0.4237976,0.9457703-0.9453125
			C23.1425781,9.4784851,22.7182922,9.0546875,22.1968079,9.0546875L22.1968079,9.0546875z M22.1968079,11.1454773
			c-0.6314087,0-1.1455078-0.5137024-1.1455078-1.1455078s0.5140991-1.1455078,1.1455078-1.1455078
			c0.6317749,0,1.1454773,0.5137024,1.1454773,1.1455078S22.8285828,11.1454773,22.1968079,11.1454773L22.1968079,11.1454773z"/>
		<path class="st3" d="M21.1875,9.8032227c-0.0361023,0-0.0679321-0.0259094-0.0742188-0.0630188
			c-0.0063782-0.0405273,0.0209961-0.079071,0.0620117-0.0859375c0.2250977-0.0375977,0.4541016-0.0629883,0.6816101-0.0756836
			l0.0004883-0.0737305c0.0010071-0.1342773,0.0019836-0.2915039,0.0019836-0.5175781
			c0-0.0409851,0.0336914-0.0746765,0.0752258-0.0746765c0.0409851,0,0.074707,0.0336914,0.074707,0.0746765
			c0,0.2265625-0.0010071,0.3842773-0.0020447,0.5185852l-0.0009766,0.1445007
			c-0.0003967,0.0400696-0.0317078,0.0727539-0.0716858,0.074707c-0.2451172,0.0107727-0.4921875,0.0366211-0.7349243,0.0771484
			C21.1957703,9.8027039,21.1913757,9.8032227,21.1875,9.8032227L21.1875,9.8032227z M23.2064819,9.8032227
			c-0.0043945,0-0.0083008-0.0005188-0.0126953-0.0010071c-0.2425842-0.0405273-0.4896851-0.0663757-0.7348022-0.0771484
			c-0.0401001-0.0019531-0.0712891-0.0351562-0.0712891-0.0751953V8.9872742c0-0.0409851,0.0332031-0.0746765,0.074707-0.0746765
			c0.0414734,0,0.0751648,0.0336914,0.0751648,0.0746765v0.5913086c0.2270203,0.0126953,0.4561462,0.0380859,0.6812134,0.0756836
			c0.0404968,0.0068665,0.0682983,0.0454102,0.0614929,0.0859375C23.2738953,9.7773132,23.2421875,9.8032227,23.2064819,9.8032227
			L23.2064819,9.8032227z M23.2095032,10.3310852c-0.0039368,0-0.0083313,0-0.012207-0.0010071
			c-0.6626282-0.1104126-1.3384094-0.1104126-2.0005188,0c-0.0414734,0.0068054-0.0795898-0.0205078-0.0863953-0.0614929
			c-0.006897-0.0411072,0.0209045-0.0795898,0.0615234-0.0865173c0.6786804-0.1132812,1.3710938-0.1132812,2.0497742,0
			c0.0409851,0.0069275,0.0682983,0.0454102,0.0614929,0.0865173
			C23.2772827,10.3051758,23.2456055,10.3310852,23.2095032,10.3310852L23.2095032,10.3310852z"/>
		<path class="st2" d="M23.2187805,11.7685852l-0.6875,0.1156921c0.1146851,0.875,0.1943054,2.7265015,0.5716858,4.1596069
			l1.0816345,0.4375C23.5195007,15.2167664,23.3179016,13.4770813,23.2187805,11.7685852L23.2187805,11.7685852z
			 M21.1747742,11.7685852c-0.0990906,1.7084961-0.3007812,3.4481812-0.965271,4.7127991l1.0809937-0.4375
			c0.3779907-1.4331055,0.4570923-3.2846069,0.5717773-4.1596069L21.1747742,11.7685852L21.1747742,11.7685852z"/>
		<path class="st3" d="M21.2680969,11.8856812c-0.0899353,1.4863892-0.2686157,3.1397095-0.8531189,4.4042969l0.7915039-0.3203125
			c0.2641907-1.0262756,0.379425-2.2767944,0.4638977-3.1932983c0.0288086-0.3110962,0.0541992-0.5854797,0.0811157-0.809082
			L21.2680969,11.8856812L21.2680969,11.8856812z M20.2095032,16.5810852c-0.0279236,0-0.054718-0.011322-0.0742188-0.0328064
			c-0.0284119-0.031189-0.0336914-0.0765991-0.0141907-0.113678c0.6763-1.2871094,0.8617859-3.0840454,0.9541016-4.671936
			c0.0014954-0.0282898,0.0150757-0.0546875,0.0375977-0.0722961c0.0220032-0.0174866,0.0507812-0.0249023,0.0785828-0.0204773
			l0.6875305,0.1156921c0.0531921,0.0092773,0.0898743,0.0585938,0.0829773,0.1118774
			c-0.031189,0.2358093-0.0596008,0.5424194-0.0923157,0.8974304c-0.0863953,0.9379883-0.2049866,2.2226868-0.4823914,3.2743835
			c-0.007782,0.030304-0.0297852,0.0552063-0.059082,0.0668945L20.2471008,16.5737
			C20.2348938,16.579071,20.2221985,16.5810852,20.2095032,16.5810852L20.2095032,16.5810852z M23.1875,15.9696655
			l0.7909851,0.3203125c-0.5845032-1.2645874-0.7631836-2.9179077-0.8529968-4.4042969l-0.4829102,0.081604
			c0.0267944,0.2236023,0.0516968,0.4979858,0.0805054,0.809082C22.8075867,13.6928711,22.9233093,14.9433899,23.1875,15.9696655
			L23.1875,15.9696655z M24.1846008,16.5810852c-0.0126953,0-0.0254211-0.0020142-0.0375977-0.0073853l-1.081604-0.4375305
			c-0.0292969-0.0116882-0.0508118-0.0365906-0.0591125-0.0668945c-0.2767944-1.0516968-0.3955078-2.3363953-0.4823914-3.2743835
			c-0.0326843-0.355011-0.0610046-0.6616211-0.0918274-0.8974304c-0.0067749-0.0532837,0.0292969-0.1026001,0.0825195-0.1118774
			l0.6875-0.1156921c0.0283813-0.004425,0.0567017,0.0029907,0.0791931,0.0204773
			c0.0219116,0.0176086,0.035614,0.0440063,0.0371094,0.0722961c0.0921936,1.5878906,0.2778015,3.3848267,0.9544983,4.671936
			c0.0195923,0.0370789,0.0137024,0.082489-0.0145874,0.113678C24.2392883,16.5697632,24.2118835,16.5810852,24.1846008,16.5810852
			L24.1846008,16.5810852z"/>
		<path class="st2" d="M22.1953125,15.4687805c-1.2915344,0-2.2397156,0.6087952-2.2969055,2.1591187
			c-0.3154297-0.5551147-1.6508179-2.3022156-2.8969116-2.0683289c-0.7408142,0.1386108-1.3955078,1.1665344-1.2842102,2.3437195
			c-0.6138-1.7632141-2.410675-2.0522156-3.7221985-1.0097046c1.1645813,0.9575195,1.6820984,3.7835999,2.6625977,5.0097046
			h7.5376282h7.5375671c0.9805298-1.2261047,1.5014954-4.0521851,2.6654968-5.0097046
			c-1.3114624-1.042511-3.1083984-0.7535095-3.7215881,1.0097046c0.1112976-1.1771851-0.5469055-2.2051086-1.2875977-2.3437195
			c-1.2460938-0.2338867-2.5782166,1.5132141-2.894104,2.0683289
			C24.4384766,16.0775757,23.4867859,15.4687805,22.1953125,15.4687805L22.1953125,15.4687805z"/>
		<path class="st3" d="M14.7064819,21.8031921H29.684082c0.409729-0.5312195,0.7358093-1.3417969,1.0809937-2.1987
			c0.4214172-1.0473938,0.8560181-2.1289368,1.4751282-2.7055969c-0.6357117-0.4658203-1.3730164-0.6224976-2.0390015-0.429718
			c-0.6596985,0.1914062-1.167511,0.7120056-1.4302063,1.4668274c-0.0166016,0.0478516-0.0658875,0.0756836-0.1156921,0.0649719
			c-0.0493164-0.0107727-0.0830078-0.0566711-0.0782166-0.1073914c0.1098938-1.1636047-0.547821-2.1123047-1.2064819-2.2359314
			c-1.2183228-0.2289734-2.5293274,1.5640259-2.7886047,2.02005c-0.0219116,0.0385742-0.066925,0.058075-0.1102905,0.0473938
			c-0.0435181-0.0103149-0.074707-0.0488281-0.0762024-0.0933228c-0.0625305-1.7049866-1.2309265-2.0629883-2.2001953-2.0629883
			c-0.9678345,0-2.1343079,0.3580017-2.1968079,2.0629883c-0.0018921,0.0444946-0.0327148,0.0830078-0.0761108,0.0933228
			c-0.0440063,0.0106812-0.0889282-0.0088196-0.1109314-0.0473938c-0.1337585-0.2358398-0.5316772-0.8115234-1.0795898-1.3056335
			c-0.4339905-0.3910828-1.0829773-0.832489-1.7118835-0.7144165c-0.6576843,0.1236267-1.3135071,1.0718384-1.2030945,2.2359314
			c0.0043945,0.0507202-0.0288086,0.0966187-0.0785828,0.1073914c-0.0493164,0.0101929-0.0991211-0.0171204-0.1157227-0.0649719
			c-0.2621765-0.7548218-0.7704773-1.2754211-1.4302063-1.4668274c-0.6659851-0.1927795-1.4032898-0.0361023-2.039093,0.429718
			c0.6187134,0.5766602,1.0527954,1.6577148,1.4732056,2.7045898C13.9707031,20.460907,14.2963867,21.2719727,14.7064819,21.8031921
			L14.7064819,21.8031921z M29.7328796,22.0028687H14.6576843c-0.030304,0-0.059082-0.0135803-0.0780945-0.0370789
			c-0.4418945-0.5532227-0.780304-1.3955078-1.1387024-2.2876282c-0.4320984-1.0760803-0.8789062-2.1888733-1.5093079-2.7069702
			c-0.0228882-0.0195007-0.0365906-0.0479126-0.0361023-0.0780945c0-0.030304,0.0137329-0.0585938,0.0375977-0.0776978
			c0.7085266-0.5634155,1.5523376-0.7592163,2.3149109-0.5381165c0.5811157,0.1679993,1.0532837,0.5654907,1.3638,1.1387024
			c0.0776978-1.047821,0.7139282-1.8315125,1.3710938-1.9551086c1.1768188-0.2207031,2.3612976,1.1626282,2.8394165,1.8609009
			c0.1552124-1.2626953,0.987793-1.9530945,2.3730164-1.9530945c1.3871765,0,2.2211609,0.6903992,2.3759766,1.9530945
			c0.4779968-0.6982727,1.6631165-2.0805969,2.8363953-1.8609009c0.6587219,0.124115,1.2964172,0.9072876,1.3739929,1.9551086
			c0.3110962-0.5726929,0.7832031-0.9707031,1.3638-1.1387024c0.7627258-0.2215881,1.6065369-0.0249023,2.3154297,0.5381165
			c0.0234985,0.019104,0.0370789,0.0473938,0.0370789,0.0776978c0.0010071,0.0301819-0.0126038,0.0585938-0.0361023,0.0780945
			c-0.6299133,0.5180969-1.0780945,1.6312866-1.5112,2.7080078c-0.3588867,0.891571-0.6978149,1.7333679-1.139679,2.2865906
			C29.7919922,21.9892883,29.7631836,22.0028687,29.7328796,22.0028687L29.7328796,22.0028687z"/>
		<path class="st3" d="M29.7103882,21.9022827c0,0.5581055-3.3657227,1.1719055-7.5135803,1.1719055
			c-4.147522,0-7.5137329-0.6138-7.5137329-1.1719055c0-0.5575867,3.3662109-0.8500977,7.5137329-0.8500977
			C26.3446655,21.0521851,29.7103882,21.344696,29.7103882,21.9022827L29.7103882,21.9022827z"/>
		<path class="st3" d="M22.1968079,21.1274109c-4.8833313,0-7.4385071,0.3901672-7.4385071,0.7748718
			c0,0.4418945,3.1234741,1.0971985,7.4385071,1.0971985c4.3153992,0,7.4388733-0.655304,7.4388733-1.0971985
			C29.6356812,21.5175781,27.0805969,21.1274109,22.1968079,21.1274109L22.1968079,21.1274109z M22.1968079,23.1493835
			c-4.042511,0-7.5889282-0.582489-7.5889282-1.2471008c0-0.8583984,5.8085938-0.9248047,7.5889282-0.9248047
			c1.7802734,0,7.5887756,0.0664062,7.5887756,0.9248047C29.7855835,22.5668945,26.2392883,23.1493835,22.1968079,23.1493835
			L22.1968079,23.1493835z"/>
		<path class="st2" d="M22.1968079,11.0941772c0.1937866,0,0.3505859,0.1567993,0.3505859,0.3500977
			c0,0.1939087-0.1567993,0.3505859-0.3505859,0.3505859c-0.1934204,0-0.3500977-0.1566772-0.3500977-0.3505859
			C21.8467102,11.2509766,22.0033875,11.0941772,22.1968079,11.0941772L22.1968079,11.0941772z"/>
		<path class="st3" d="M22.1968079,11.1688843c-0.1519165,0-0.2754211,0.1235962-0.2754211,0.2753906
			c0,0.1519165,0.1235046,0.2753906,0.2754211,0.2753906c0.1517639,0,0.2753906-0.1234741,0.2753906-0.2753906
			C22.4721985,11.2924805,22.3485718,11.1688843,22.1968079,11.1688843L22.1968079,11.1688843z M22.1968079,11.8700867
			c-0.2344055,0-0.4253235-0.190918-0.4253235-0.4258118c0-0.2342834,0.190918-0.425293,0.4253235-0.425293
			c0.2347717,0,0.425293,0.1910095,0.425293,0.425293C22.6221008,11.6791687,22.4315796,11.8700867,22.1968079,11.8700867
			L22.1968079,11.8700867z"/>
		<path class="st2" d="M22.1968079,11.8291016c0.2064819,0,0.3735046,0.1674805,0.3735046,0.3734741
			c0,0.206604-0.1670227,0.3736267-0.3735046,0.3736267c-0.2061157,0-0.3735962-0.1670227-0.3735962-0.3736267
			C21.8232117,11.996582,21.9906921,11.8291016,22.1968079,11.8291016L22.1968079,11.8291016z"/>
		<path class="st3" d="M22.1968079,11.9042664c-0.1646423,0-0.2984314,0.1337891-0.2984314,0.2983093
			c0,0.1646118,0.1337891,0.2984009,0.2984314,0.2984009c0.1644897,0,0.2982788-0.1337891,0.2982788-0.2984009
			C22.4950867,12.0380554,22.3612976,11.9042664,22.1968079,11.9042664L22.1968079,11.9042664z M22.1968079,12.6513672
			c-0.2471313,0-0.4483032-0.2011719-0.4483032-0.4487915c0-0.2470093,0.2011719-0.4481812,0.4483032-0.4481812
			c0.2474976,0,0.4486694,0.2011719,0.4486694,0.4481812C22.6454773,12.4501953,22.4443054,12.6513672,22.1968079,12.6513672
			L22.1968079,12.6513672z"/>
		<path class="st2" d="M22.1968079,12.6103821c0.2255859,0,0.4076843,0.1826172,0.4076843,0.4082031
			c0,0.2250977-0.1820984,0.4076843-0.4076843,0.4076843c-0.2251282,0-0.4077148-0.1825867-0.4077148-0.4076843
			C21.789093,12.7929993,21.9716797,12.6103821,22.1968079,12.6103821L22.1968079,12.6103821z"/>
		<path class="st3" d="M22.1968079,12.6854858c-0.1836243,0-0.3325195,0.1494751-0.3325195,0.3330994
			c0,0.1835022,0.1488953,0.3330078,0.3325195,0.3330078c0.1835938,0,0.3329773-0.1495056,0.3329773-0.3330078
			C22.5297852,12.8349609,22.3804016,12.6854858,22.1968079,12.6854858L22.1968079,12.6854858z M22.1968079,13.5014648
			c-0.2661133,0-0.4829102-0.2167969-0.4829102-0.4828796c0-0.2666016,0.2167969-0.4830017,0.4829102-0.4830017
			c0.2660828,0,0.4828796,0.2164001,0.4828796,0.4830017C22.6796875,13.284668,22.4628906,13.5014648,22.1968079,13.5014648
			L22.1968079,13.5014648z"/>
		<path class="st2" d="M22.1968079,13.4608765c0.2567749,0,0.465271,0.2080078,0.465271,0.4653931
			c0,0.2568054-0.2084961,0.4653015-0.465271,0.4653015c-0.2569275,0-0.4654236-0.2084961-0.4654236-0.4653015
			C21.7313843,13.6688843,21.9398804,13.4608765,22.1968079,13.4608765L22.1968079,13.4608765z"/>
		<path class="st3" d="M22.1968079,13.5355835c-0.2154236,0-0.3902283,0.175293-0.3902283,0.390686
			c0,0.2148132,0.1748047,0.3901062,0.3902283,0.3901062c0.2153015,0,0.3900757-0.175293,0.3900757-0.3901062
			C22.5868835,13.7108765,22.4121094,13.5355835,22.1968079,13.5355835L22.1968079,13.5355835z M22.1968079,14.4662781
			c-0.2979431,0-0.5401306-0.2421875-0.5401306-0.5400085c0-0.2983704,0.2421875-0.5405884,0.5401306-0.5405884
			c0.2977905,0,0.5404968,0.242218,0.5404968,0.5405884C22.7373047,14.2240906,22.4945984,14.4662781,22.1968079,14.4662781
			L22.1968079,14.4662781z"/>
		<path class="st2" d="M22.1968079,14.4257812c0.2821655,0,0.5112,0.2290039,0.5112,0.5112s-0.2290344,0.5112-0.5112,0.5112
			c-0.2822266,0-0.511322-0.2290039-0.511322-0.5112S21.9145813,14.4257812,22.1968079,14.4257812L22.1968079,14.4257812z"/>
		<path class="st3" d="M22.1968079,14.5009766c-0.2407227,0-0.4361267,0.1953125-0.4361267,0.4360046
			s0.1954041,0.4364929,0.4361267,0.4364929c0.2406921,0,0.4364929-0.1958008,0.4364929-0.4364929
			S22.4375,14.5009766,22.1968079,14.5009766L22.1968079,14.5009766z M22.1968079,15.5233765
			c-0.3233337,0-0.5864258-0.263092-0.5864258-0.5863953c0-0.3231812,0.263092-0.5863953,0.5864258-0.5863953
			c0.3231812,0,0.5863647,0.2632141,0.5863647,0.5863953C22.7831726,15.2602844,22.519989,15.5233765,22.1968079,15.5233765
			L22.1968079,15.5233765z"/>
		<path class="st3" d="M30.2782898,17.9828796c-0.0292969,0.0028992-0.070282,0.0220032-0.1094055,0.0531921
			c-0.1054077,0.0830078-0.426178,0.4131165-0.5532227,0.5845032c-0.1273804,0.1714172-0.2606812,0.1436157-0.2938538,0.093811
			c-0.0332031-0.0498047-0.0811462-0.1817017-0.1060181-0.281311c-0.0371094-0.1469727-0.1264038-0.1577148-0.1347046,0
			c-0.0082703,0.1577148,0.0595093,0.3417969,0.109314,0.6157227c0.0497742,0.273468-0.0053101,0.7255859-0.234314,1.2592773
			c-0.0747986,0.1743164,0.0599976,0.1074219,0.1596069-0.0751953c0.2446899-0.4481812,0.8540039-0.9418945,1.4623718-1.3842773
			c0.1182251-0.0859375,0.0943298-0.172821-0.0717773-0.1342163c-0.1659851,0.0385132-0.2548218,0.171814-0.4375,0.171814
			c-0.0610046,0-0.1268921,0.0014648-0.1156921-0.1313171c0.0112915-0.1328125,0.1758118-0.4423828,0.3251953-0.6470032
			C30.3437805,18.0180969,30.3270874,17.9784851,30.2782898,17.9828796L30.2782898,17.9828796z M14.1156921,17.9828796
			c-0.0487976-0.0043945-0.065918,0.0352173,0,0.125c0.1493835,0.2046204,0.3139954,0.5141907,0.324707,0.6470032
			C14.4516907,18.8876648,14.3862,18.8862,14.3251953,18.8862c-0.1826172,0-0.2720032-0.1333008-0.4375305-0.171814
			c-0.1659851-0.0386047-0.1898499,0.0482788-0.0722656,0.1342163c0.6083679,0.4423828,1.2182922,0.9360962,1.4628906,1.3842773
			c0.0990906,0.1826172,0.2338867,0.2495117,0.1591797,0.0751953c-0.2284851-0.5336914-0.2841797-0.9858093-0.2344055-1.2592773
			c0.0498047-0.2739258,0.1177368-0.4580078,0.109436-0.6157227c-0.0083313-0.1577148-0.0977173-0.1469727-0.1343079,0
			c-0.0249023,0.0996094-0.0732117,0.2315063-0.1063843,0.281311c-0.0332031,0.0498047-0.1665039,0.0776062-0.2935181-0.093811
			c-0.1274109-0.1713867-0.4482117-0.5014954-0.5531921-0.5845032
			C14.1854858,18.0048828,14.144989,17.9857788,14.1156921,17.9828796L14.1156921,17.9828796z M28.1874695,17.5658875
			c-0.0272827,0.0028992-0.0546875,0.0155945-0.0687866,0.0404968c-0.0498962,0.0883789-0.160675,0.2315063-0.2344055,0.3500977
			c-0.0718079,0.1163025,0.0400085,0.136322,0.0845032,0.0810852c0.0444031-0.0551758,0.1712952-0.1601868,0.2875061-0.309082
			c0.0723267-0.0937195,0.0181274-0.1533203-0.0439148-0.1625977
			C28.2030945,17.5644836,28.1968079,17.5649109,28.1874695,17.5658875L28.1874695,17.5658875z M16.1811829,17.5658875
			c-0.0620728,0.0092773-0.116272,0.0688782-0.0435181,0.1625977c0.1157227,0.1488953,0.2432251,0.2539062,0.2871094,0.309082
			c0.0444336,0.0552368,0.156311,0.0352173,0.0845032-0.0810852c-0.0732727-0.1185913-0.1846008-0.2617188-0.234375-0.3500977
			C16.2562866,17.5731812,16.2182922,17.5600891,16.1811829,17.5658875L16.1811829,17.5658875z M29.5219727,17.4237671
			c-0.0395813,0.002533-0.0854797,0.0381165-0.093811,0.0904236c-0.016571,0.1054077-0.0345459,0.2162781-0.0345459,0.3158875
			c0,0.0995789,0.0726624,0.1177063,0.1000671,0.012207c0.0278015-0.105011,0.0615234-0.1977844,0.0844116-0.3091125
			C29.594696,17.453064,29.5614624,17.4208679,29.5219727,17.4237671L29.5219727,17.4237671z M14.8720703,17.4237671
			c-0.0395813-0.0028992-0.0733032,0.0292969-0.0566711,0.1094055c0.0234985,0.1113281,0.0571899,0.2041016,0.0844727,0.3091125
			C14.9276733,17.9477844,15,17.929657,15,17.8300781c0-0.0996094-0.0176086-0.2104797-0.0342102-0.3158875
			C14.957489,17.4618835,14.9111023,17.4263,14.8720703,17.4237671L14.8720703,17.4237671z M28.0717773,17.0282898
			c-0.0209961,0.0039062-0.0478821,0.0288086-0.0810852,0.0810852c-0.1328125,0.2103882-0.2065125,0.2983093-0.2562866,0.3813171
			C27.6846008,17.5737,27.7357788,17.6620789,27.8187866,17.5625c0.1000977-0.1201172,0.1997986-0.2271118,0.2720032-0.3154297
			C28.1445007,17.1806946,28.1353149,17.0170593,28.0717773,17.0282898L28.0717773,17.0282898z M16.3217773,17.0282898
			c-0.0634766-0.0112305-0.0728149,0.1524048-0.0186157,0.2187805c0.0718079,0.0883179,0.171936,0.1953125,0.2720337,0.3154297
			c0.082489,0.0995789,0.1337891,0.0112,0.0839844-0.0718079s-0.1235962-0.170929-0.2558899-0.3813171
			C16.3700867,17.0570984,16.3432922,17.032196,16.3217773,17.0282898L16.3217773,17.0282898z M29.9501953,17.2016602
			c-0.054718-0.0004883-0.1171875,0.0337219-0.128418,0.0971375c-0.0220032,0.1269836-0.030304,0.1962891-0.046875,0.3124695
			c-0.0166016,0.1162415,0.0722656,0.1548157,0.1000671,0.0718079s0.1104431-0.226593,0.1499329-0.359375
			C30.0498047,17.2406616,30.0043945,17.2025757,29.9501953,17.2016602L29.9501953,17.2016602z M14.4437866,17.2016602
			c-0.0545959,0.0009155-0.0999756,0.0390015-0.0750732,0.1220398c0.039978,0.132782,0.122467,0.2763672,0.1498718,0.359375
			c0.0278015,0.0830078,0.1167297,0.0444336,0.1000977-0.0718079c-0.0166016-0.1161804-0.0244751-0.1854858-0.0469055-0.3124695
			C14.5609741,17.2353821,14.4984741,17.2011719,14.4437866,17.2016602L14.4437866,17.2016602z M26.8905945,16.9594727
			c-0.0259094,0.0049133-0.0560913,0.0381165-0.0809937,0.109314c-0.0664062,0.190979-0.2891235,0.6113892-0.3970032,0.769104
			c-0.1079102,0.157196-0.242218,0.0853882-0.3251953-0.0971985c-0.1245117-0.273407-0.2026367-0.1118164-0.1250305,0.0562134
			c0.2075195,0.4481812,0.1812134,1.1625671,0.0439148,2.031189c-0.0249023,0.1576843,0.0635071,0.1410828,0.0966797,0
			c0.1625977-0.6893921,0.5821228-1.2583008,1.1875305-1.7557983c0.1191711-0.0982056,0.0332031-0.1675415-0.0498047-0.1094055
			c-0.0830078,0.0575867-0.1899109,0.1176758-0.281189,0.1592102c-0.0913086,0.0414734-0.159729,0.024353-0.1846008-0.1001282
			c-0.0249023-0.1245117,0.0185852-0.390686,0.1596985-0.8970032c0.0253906-0.0907898,0.0057983-0.156189-0.0282898-0.1654968
			C26.9013672,16.9579773,26.8959961,16.9584656,26.8905945,16.9594727L26.8905945,16.9594727z M17.4873047,16.9594727
			c-0.0336914,0.0093079-0.0532227,0.074707-0.0278015,0.1654968c0.1410828,0.5063171,0.184082,0.7724915,0.1591797,0.8970032
			c-0.0249023,0.1244812-0.0932922,0.1416016-0.184082,0.1001282c-0.0913086-0.0415344-0.198822-0.1016235-0.281311-0.1592102
			c-0.0830078-0.058136-0.1694031,0.0112-0.0503235,0.1094055c0.6055298,0.4974976,1.0254211,1.0664062,1.1875305,1.7557983
			c0.0332031,0.1410828,0.1220703,0.1576843,0.097168,0c-0.1371765-0.8686218-0.1635742-1.5830078,0.0435181-2.031189
			c0.0780945-0.1680298-0.0004883-0.3296204-0.1249695-0.0562134c-0.0831299,0.1825867-0.2173462,0.2543945-0.3248291,0.0971985
			c-0.1079102-0.1577148-0.3305054-0.578125-0.3968811-0.769104c-0.0249023-0.0711975-0.0557251-0.1044006-0.0816345-0.109314
			C17.4975891,16.9584656,17.4921875,16.9579773,17.4873047,16.9594727L17.4873047,16.9594727z M23.8778687,17.1581726
			c-0.0297852,0.004425-0.0599976,0.0337219-0.074707,0.093811c-0.0385742,0.1600952-0.0497742,0.2915039-0.0717773,0.3969116
			c-0.0223999,0.1049805,0.111908,0.1035156,0.1343079-0.0127258c0.0230103-0.1200867,0.0605774-0.243103,0.093811-0.3592834
			c0.0179749-0.0635071-0.0195923-0.112793-0.0625305-0.1187134C23.8905945,17.1571655,23.8843079,17.1571655,23.8778687,17.1581726
			L23.8778687,17.1581726z M20.4970703,17.1581726c-0.043457,0.0059204-0.0810852,0.0552063-0.0624695,0.1187134
			c0.0331726,0.1161804,0.0708008,0.2391968,0.093689,0.3592834c0.0220032,0.1162415,0.1562805,0.1177063,0.1342773,0.0127258
			c-0.0220032-0.1054077-0.0331726-0.2368164-0.0717773-0.3969116c-0.0146179-0.0600891-0.0448914-0.089386-0.0751953-0.093811
			C20.5093079,17.1571655,20.5028687,17.1571655,20.4970703,17.1581726L20.4970703,17.1581726z M31.4628906,17.0863953
			c-0.0264282-0.0005188-0.0586243,0.0073853-0.1005859,0.0278931c-0.1660156,0.0829773-0.2305298,0.1669922-0.2969055,0.2499695
			c-0.065918,0.0830078-0.0175171,0.1748352,0.1065063,0.0752258c0.1063843-0.0849915,0.2147827-0.1587219,0.3065796-0.2250977
			C31.5469055,17.1645813,31.539978,17.0868835,31.4628906,17.0863953L31.4628906,17.0863953z M12.9311829,17.0863953
			c-0.077179,0.0004883-0.0839844,0.078186-0.015686,0.1279907c0.0912781,0.0663757,0.2001953,0.1401062,0.3062134,0.2250977
			c0.1244812,0.0996094,0.1727905,0.007782,0.1063538-0.0752258c-0.0663757-0.0829773-0.1307678-0.1669922-0.2967529-0.2499695
			C12.9896851,17.0937805,12.9570007,17.0858765,12.9311829,17.0863953L12.9311829,17.0863953z M30.4872742,17.0517883
			c-0.0531921-0.0004883-0.1254883,0.0375977-0.152771,0.109314c-0.0552368,0.1440735-0.0674133,0.2236633-0.128418,0.378479
			c-0.0606079,0.1546936,0.0907898,0.1210022,0.1405945,0.0214233c0.0498047-0.0996094,0.128418-0.2475281,0.1875-0.3779297
			C30.5757141,17.0917664,30.5404968,17.0527039,30.4872742,17.0517883L30.4872742,17.0517883z M13.9062805,17.0517883
			c-0.0532837,0.0009155-0.0883789,0.039978-0.046875,0.1312866c0.0594788,0.1304016,0.1376953,0.2783203,0.1875,0.3779297
			c0.0497742,0.0995789,0.2015991,0.1332703,0.1405945-0.0214233c-0.0610046-0.1548157-0.0728149-0.2344055-0.1278992-0.378479
			C14.0317078,17.089386,13.9594727,17.0513,13.9062805,17.0517883L13.9062805,17.0517883z M30.9906921,16.9516907
			c-0.030304,0.0018921-0.0703125,0.0287781-0.1156921,0.0970764c-0.0830078,0.1245117-0.1431274,0.2002258-0.1846008,0.2749329
			c-0.0415039,0.0746765-0.0171204,0.1713867,0.0658875,0.0966797c0.1044922-0.0942078,0.1679993-0.1557922,0.2593079-0.2715149
			C31.0780945,17.0687866,31.0575867,16.9481812,30.9906921,16.9516907L30.9906921,16.9516907z M13.4032898,16.9516907
			c-0.0668945-0.0035095-0.0878906,0.1170959-0.0254211,0.1971741c0.0913391,0.1157227,0.1548157,0.1773071,0.2598267,0.2715149
			c0.0829773,0.074707,0.1069031-0.0220032,0.0653687-0.0966797c-0.0414734-0.074707-0.1014709-0.1504211-0.1844788-0.2749329
			C13.4730835,16.9804688,13.4335938,16.9535828,13.4032898,16.9516907L13.4032898,16.9516907z M27.8218079,16.6190796
			c-0.034729-0.0028992-0.0762024,0.019104-0.1030273,0.074707c-0.0718079,0.1495056-0.0923157,0.2700806-0.1533813,0.375
			c-0.0605164,0.1049805,0.0253906,0.1611938,0.0751953,0.078186s0.1586914-0.2280884,0.2216797-0.343811
			C27.9213867,16.6962585,27.8798828,16.6235046,27.8218079,16.6190796L27.8218079,16.6190796z M16.5718079,16.6190796
			c-0.0576172,0.004425-0.0991211,0.077179-0.0405273,0.184082c0.063385,0.1157227,0.1717834,0.2608032,0.2215881,0.343811
			s0.136322,0.0267944,0.0752258-0.078186c-0.0610046-0.1049194-0.0810242-0.2254944-0.1533203-0.375
			C16.6478882,16.6381836,16.6063843,16.6161804,16.5718079,16.6190796L16.5718079,16.6190796z M25.7250671,16.5780945
			c-0.0438843,0.0014954-0.1005554,0.0498047-0.1186829,0.1283875c-0.0331726,0.1435852-0.0316772,0.1822205-0.0594788,0.309082
			c-0.0279236,0.1275024,0.0878906,0.147522,0.1156921,0.0532227c0.0272827-0.093689,0.0971985-0.2905273,0.1156921-0.390625
			c0.0103149-0.0560608-0.0078125-0.0883789-0.0346069-0.0966797
			C25.7382812,16.5795898,25.7313843,16.5780945,25.7250671,16.5780945L25.7250671,16.5780945z M18.6688843,16.5780945
			c-0.0062866,0-0.013092,0.0014954-0.0190125,0.0033875c-0.026886,0.0083008-0.0443726,0.0406189-0.0341797,0.0966797
			c0.0186157,0.1000977,0.0878906,0.296936,0.1156921,0.390625c0.0274048,0.0942993,0.1431274,0.0742798,0.1153259-0.0532227
			c-0.0274353-0.1268616-0.0259094-0.1654968-0.0591431-0.309082
			C18.7695007,16.6278992,18.7128906,16.5795898,18.6688843,16.5780945L18.6688843,16.5780945z M22.1968079,16.7392883
			c-0.0718079,0-0.0816345,0.0965881-0.0845337,0.175293c-0.0083008,0.2568054-0.1146851,0.5067749-0.2059937,0.6307983
			c-0.0914001,0.1245117-0.2255859,0.0913086-0.3500977,0.0253906c-0.1246033-0.0663757-0.1983032-0.1161804-0.3311157-0.2157898
			c-0.132782-0.0996094-0.2333679-0.0415039-0.0751648,0.1846008c0.4618835,0.6576843,0.9623718,1.2201843,0.9623718,2.293396
			c0,0.1387024,0.0244141,0.1811829,0.0845337,0.1811829c0.0599976,0,0.0873718-0.0424805,0.0873718-0.1811829
			c0-1.0732117,0.4979858-1.6357117,0.9595032-2.293396c0.1585999-0.2261047,0.0576172-0.2842102-0.0747986-0.1846008
			c-0.132782,0.0996094-0.2070007,0.1494141-0.3314819,0.2157898c-0.1245117,0.065918-0.2588196,0.0991211-0.3501282-0.0253906
			c-0.0912781-0.1240234-0.1976929-0.3739929-0.2059937-0.6307983
			C22.2788086,16.8358765,22.2686157,16.7392883,22.1968079,16.7392883L22.1968079,16.7392883z M23.6221008,16.620575
			c-0.0351868,0-0.0699158,0.0293274-0.0845032,0.1000977c-0.0386047,0.1879883-0.0537109,0.3081055-0.0596313,0.3970032
			c-0.0052795,0.0884094,0.0889282,0.1542969,0.1221313,0.0215149c0.0370789-0.1495056,0.0883789-0.252533,0.1216125-0.3687134
			C23.7427063,16.6981812,23.6801758,16.620575,23.6221008,16.620575L23.6221008,16.620575z M20.7720032,16.620575
			c-0.0586243,0-0.1206055,0.0776062-0.1000977,0.1499023c0.0331726,0.1161804,0.0843811,0.2192078,0.1219788,0.3687134
			c0.0332031,0.132782,0.1275024,0.0668945,0.1216125-0.0215149c-0.0053101-0.0888977-0.0205078-0.2090149-0.0591125-0.3970032
			C20.8417969,16.6499023,20.8070984,16.620575,20.7720032,16.620575L20.7720032,16.620575z M27.4750977,16.3407898
			c-0.0337219-0.003418-0.0674133,0.0220032-0.0874329,0.1029968c-0.027771,0.1109009-0.0561829,0.2006836-0.078064,0.2783813
			c-0.0224915,0.0771179,0.0380859,0.1714172,0.093689,0.0498047c0.0531921-0.1171875,0.0883789-0.1548157,0.1436157-0.265686
			C27.5814819,16.4375,27.5307922,16.3466797,27.4750977,16.3407898L27.4750977,16.3407898z M16.9188843,16.3407898
			C16.8633118,16.3466797,16.8125,16.4375,16.8466797,16.5062866c0.055603,0.1108704,0.0903015,0.1484985,0.1440125,0.265686
			c0.0551758,0.1216125,0.1156921,0.0273132,0.093811-0.0498047c-0.022522-0.0776978-0.0508118-0.1674805-0.0782166-0.2783813
			C16.9857788,16.362793,16.9520874,16.3373718,16.9188843,16.3407898L16.9188843,16.3407898z M26.2372742,16.2720032
			c-0.0394897-0.0074158-0.0863953,0.0282898-0.1152039,0.1249695c-0.0663757,0.2212219-0.0937805,0.3676147-0.1157837,0.4565125
			c-0.0223999,0.0884094,0.0699158,0.1161804,0.125-0.0220032c0.0551758-0.1381226,0.1181946-0.2533875,0.1625977-0.375
			C26.3285828,16.3603821,26.289093,16.2816772,26.2372742,16.2720032L26.2372742,16.2720032z M18.1562805,16.2720032
			c-0.0513,0.0096741-0.0914001,0.0883789-0.0561829,0.1844788c0.0438843,0.1216125,0.1069031,0.2368774,0.1625977,0.375
			c0.0552063,0.1381836,0.1469727,0.1104126,0.1249695,0.0220032c-0.0224609-0.0888977-0.0492554-0.2352905-0.1156921-0.4565125
			C18.2426758,16.300293,18.1962891,16.2645874,18.1562805,16.2720032L18.1562805,16.2720032z M26.7060852,16.175293
			c-0.0346985,0.0072937-0.0747986,0.0409851-0.0997009,0.1156921c-0.0663757,0.1987-0.0760803,0.2602844-0.109314,0.3652954
			c-0.0331726,0.1054077,0.0649414,0.138092,0.109314,0.0218811c0.0498962-0.1317749,0.1221008-0.2562866,0.1719055-0.3778687
			c0.0248718-0.0610352,0-0.1128235-0.0410156-0.125C26.7275085,16.171875,26.717804,16.1728821,26.7060852,16.175293
			L26.7060852,16.175293z M17.6562805,16.175293c-0.0410767,0.0121765-0.0654907,0.0639648-0.0406189,0.125
			c0.0498047,0.121582,0.1216125,0.2460938,0.171936,0.3778687c0.0438843,0.1162109,0.1426086,0.0835266,0.109375-0.0218811
			c-0.0331726-0.105011-0.0429993-0.1665955-0.109375-0.3652954C17.7543945,16.1913757,17.6972961,16.1625671,17.6562805,16.175293
			L17.6562805,16.175293z M27.1376953,16.1688843c-0.0332031,0.0010071-0.0723267,0.0292969-0.1035156,0.1000977
			c-0.082489,0.1879883-0.112793,0.2866821-0.1405945,0.375c-0.0274048,0.0884094,0.0575867,0.1674805,0.1127014,0.0405884
			c0.0621033-0.1430969,0.1264954-0.226593,0.1875-0.3594055C27.2318726,16.242157,27.1928711,16.1669922,27.1376953,16.1688843
			L27.1376953,16.1688843z M17.2562866,16.1688843c-0.055603-0.0018921-0.0941772,0.0732727-0.0560913,0.1562805
			c0.0604858,0.1328125,0.125,0.2163086,0.1875,0.3594055c0.0551758,0.1268921,0.1400757,0.047821,0.1122742-0.0405884
			c-0.0278015-0.0883179-0.0575867-0.1870117-0.1405945-0.375C17.3280945,16.1981812,17.2896118,16.1698914,17.2562866,16.1688843
			L17.2562866,16.1688843z M23.1654968,16.151886c-0.0326843,0.0091858-0.0625305,0.0477905-0.0625305,0.1312866
			c0,0.1488953,0.0103149,0.3130188,0.0157166,0.3905945c0.0057983,0.0772095,0.1000977,0.1167297,0.1000977,0.0064087
			c0-0.1293945,0.0253296-0.269989,0.0532227-0.3970032c0.0135803-0.0635071-0.0288086-0.1195679-0.0752258-0.1312866
			C23.1850891,16.1488953,23.1767883,16.1488953,23.1654968,16.151886L23.1654968,16.151886z M21.1967773,16.151886
			c-0.0463867,0.0117188-0.0888977,0.0677795-0.0746765,0.1312866c0.0273132,0.1270142,0.0526733,0.2676086,0.0526733,0.3970032
			c0,0.110321,0.0947266,0.0708008,0.1000977-0.0064087c0.0054321-0.0775757,0.015625-0.2416992,0.015625-0.3905945
			C21.2904968,16.171875,21.2431946,16.1395874,21.1967773,16.151886L21.1967773,16.151886z M22.7406921,15.9770813
			c-0.0336914,0.0039062-0.0614929,0.032196-0.065918,0.0965881C22.664093,16.2450562,22.6763,16.3759766,22.6875,16.464386
			c0.0111694,0.0882874,0.1200867,0.1483765,0.1312866-0.0064087c0.0108032-0.1499023,0.0380859-0.2690125,0.0434875-0.3685913
			c0.0033875-0.0546875-0.0492859-0.1054993-0.0995789-0.1123047
			C22.7554016,15.9761047,22.7475891,15.9761047,22.7406921,15.9770813L22.7406921,15.9770813z M21.6312866,15.9770813
			c-0.0506897,0.0068054-0.1029968,0.0576172-0.1000061,0.1123047c0.0053101,0.0995789,0.0332031,0.218689,0.0438843,0.3685913
			c0.0107422,0.1547852,0.1201172,0.094696,0.1309509,0.0064087c0.0111694-0.0884094,0.0238647-0.2193298,0.0126648-0.3907166
			c-0.0039978-0.0643921-0.0323181-0.0926819-0.0654907-0.0965881
			C21.6459961,15.9761047,21.6387024,15.9761047,21.6312866,15.9770813L21.6312866,15.9770813z M22.3998718,15.9203796
			c-0.0551758,0.0009766-0.1151733,0.0487976-0.1122742,0.1562805c0.0053711,0.2158203-0.003418,0.2905273,0.0185852,0.4062195
			c0.0224304,0.1162109,0.109314,0.1528015,0.1313171,0.0033875c0.0194702-0.1317749,0.039978-0.3270874,0.0561829-0.4310608
			C22.507782,15.9662781,22.4550781,15.9198608,22.3998718,15.9203796L22.3998718,15.9203796z M21.9936829,15.9203796
			c-0.0552063-0.0005188-0.1074829,0.0458984-0.0937805,0.1348267c0.016571,0.1039734,0.0365906,0.2992859,0.0561829,0.4310608
			c0.0223999,0.1494141,0.109314,0.1128235,0.1313171-0.0033875c0.0224915-0.1156921,0.0131836-0.1903992,0.0189819-0.4062195
			C22.1088867,15.9691772,22.0487976,15.9213562,21.9936829,15.9203796L21.9936829,15.9203796z"/>
		<path class="st2" d="M22.1968079,20.5585938v0.7118835 M22.9442749,20.6005859l-0.0272827,0.6469727 M23.5453796,20.6166992
			l-0.0272827,0.6469727 M24.0679016,20.6493835l-0.0323181,0.6464844 M24.5419922,20.6820984l-0.0380859,0.6459961
			 M25.0649109,20.6820984l-0.0439148,0.6459961 M25.5541992,20.7323914l-0.0801086,0.6425781 M26.0414734,20.7978821
			l-0.0800781,0.6419983 M26.5453796,20.7650757l-0.0805969,0.6426086 M27.0805969,20.9462891l-0.1109009,0.6376953
			 M27.6293945,20.945282l-0.1034851,0.6391907 M28.1445007,20.996582l-0.1269226,0.6347046 M28.5469055,21.0766907
			l-0.1187134,0.6366882 M28.9799805,21.1478882l-0.1729126,0.6240845 M29.3808899,21.2651062l-0.1949158,0.6171875
			 M21.449707,20.6005859l0.026886,0.6469727 M20.8480835,20.6166992l0.0274048,0.6469727 M20.3256836,20.6493835
			l0.0327148,0.6464844 M19.851593,20.6820984l0.0384827,0.6459961 M19.3286133,20.6820984l0.0443726,0.6459961
			 M18.8394165,20.7323914l0.0804749,0.6425781 M18.3520813,20.7978821l0.0805054,0.6419983 M17.8480835,20.7650757
			l0.0805969,0.6426086 M17.3129883,20.9462891l0.1112976,0.6376953 M16.7645874,20.945282l0.1031189,0.6391907
			 M16.2489624,20.996582l0.1270142,0.6347046 M15.8471985,21.0766907l0.1185913,0.6366882 M15.4136047,21.1478882
			l0.1727905,0.6240845 M15.0126648,21.2651062l0.1948242,0.6171875"/>
		<path class="st3" d="M21.476593,21.3222656c-0.0401001,0-0.0733032-0.0312805-0.074707-0.0718079l-0.0274048-0.6469727
			c-0.0014954-0.0415039,0.030304-0.0762024,0.0718079-0.078125c0.0394897-0.0004883,0.0762024,0.0303345,0.078125,0.0718079
			l0.0273743,0.6469116c0.0013733,0.0415039-0.0308228,0.0762024-0.0718079,0.078186
			C21.4784851,21.3222656,21.4775085,21.3222656,21.476593,21.3222656L21.476593,21.3222656z M22.9169922,21.3222656
			c-0.0010071,0-0.0020142,0-0.0028992,0c-0.0415039-0.0019836-0.0737915-0.0366821-0.0718079-0.078186l0.026825-0.6469116
			c0.0019836-0.0414734,0.0371704-0.0722961,0.078186-0.0718079c0.0414734,0.0019226,0.0736694,0.0366211,0.0716858,0.078125
			l-0.0267944,0.6469727C22.9901733,21.2909851,22.9570007,21.3222656,22.9169922,21.3222656L22.9169922,21.3222656z
			 M20.8754883,21.3388977c-0.0401001,0-0.0733032-0.0318298-0.0746765-0.0723267l-0.0274353-0.6469727
			c-0.0018921-0.0410156,0.0303345-0.0761108,0.0718079-0.0776062c0.0396118-0.0019836,0.0762024,0.0302734,0.0780945,0.0718079
			l0.0269165,0.6469116c0.0018921,0.0410461-0.030304,0.0761719-0.0718079,0.0776672
			C20.8773804,21.3388977,20.8764648,21.3388977,20.8754883,21.3388977L20.8754883,21.3388977z M23.5185852,21.3388977
			c-0.0014954,0-0.0025024,0-0.003479-0.0005188c-0.0415344-0.0014954-0.0737305-0.0366211-0.0717163-0.0776672L23.4706726,20.6138
			c0.0014954-0.0415344,0.0365906-0.0742188,0.0776062-0.0718079c0.0415039,0.0014954,0.073822,0.0365906,0.0718079,0.0776062
			l-0.0267944,0.6469727C23.5913086,21.3070679,23.558075,21.3388977,23.5185852,21.3388977L23.5185852,21.3388977z
			 M22.1968079,21.3456726c-0.0415344,0-0.074707-0.0336914-0.074707-0.0751953v-0.7118835
			c0-0.0415039,0.0331726-0.0751953,0.074707-0.0751953c0.0414734,0,0.0751953,0.0336914,0.0751953,0.0751953v0.7118835
			C22.2720032,21.3119812,22.2382812,21.3456726,22.1968079,21.3456726L22.1968079,21.3456726z M20.3583984,21.3710938
			c-0.0400085,0-0.0731812-0.031311-0.0752258-0.0713196l-0.032196-0.6464844
			c-0.0024719-0.0415039,0.0292969-0.0766296,0.0708313-0.0791016c0.0414734-0.0019226,0.0765686,0.0297852,0.0785828,0.0712891
			l0.0327148,0.6465149c0.0023804,0.0414734-0.0298157,0.0766907-0.0708313,0.0791016
			C20.3607788,21.3710938,20.359375,21.3710938,20.3583984,21.3710938L20.3583984,21.3710938z M24.0355835,21.3710938
			c-0.0014038,0-0.0024109,0-0.0039062,0c-0.0415039-0.0024109-0.0732117-0.0376282-0.0712891-0.0791016l0.0328064-0.6465149
			c0.0018921-0.0415039,0.0380859-0.0732117,0.0786133-0.0712891c0.0414734,0.0024719,0.0731812,0.0375977,0.0712585,0.0791016
			l-0.0326843,0.6464844C24.1083984,21.3397827,24.0751953,21.3710938,24.0355835,21.3710938L24.0355835,21.3710938z
			 M19.3729858,21.4032898c-0.0390015,0-0.0721741-0.030304-0.074707-0.0703125l-0.0443726-0.6455078
			c-0.0028992-0.0414734,0.0282898-0.0770874,0.0697632-0.0800781c0.0410156-0.003418,0.0772095,0.0282898,0.0796204,0.0697937
			l0.0444946,0.6459961c0.0028992,0.0411072-0.0283813,0.0772095-0.0699158,0.0796204
			C19.3764648,21.4032898,19.3744812,21.4032898,19.3729858,21.4032898L19.3729858,21.4032898z M25.0209961,21.4032898
			c-0.0020142,0-0.003418,0-0.0054016-0.0004883c-0.0410156-0.0024109-0.0722046-0.0385132-0.0698242-0.0796204l0.0444336-0.6459961
			c0.0029907-0.0415039,0.0395813-0.0737,0.0800781-0.0697937c0.0409851,0.0029907,0.0723267,0.0386047,0.0693054,0.0800781
			l-0.0438843,0.6455078C25.092804,21.3729858,25.0600891,21.4032898,25.0209961,21.4032898L25.0209961,21.4032898z
			 M19.8900757,21.4032898c-0.0394897,0-0.0726929-0.0307007-0.0751648-0.0703125l-0.0379944-0.6464844
			c-0.002533-0.0415039,0.0287781-0.0770874,0.070282-0.0796204c0.0423889-0.0018921,0.0765991,0.0292969,0.0791016,0.0708313
			L19.9647827,21.3237c0.0025024,0.0414734-0.0292969,0.077179-0.070282,0.0795898
			C19.8930969,21.4032898,19.8916016,21.4032898,19.8900757,21.4032898L19.8900757,21.4032898z M24.5039062,21.4032898
			c-0.0014954,0-0.0028992,0-0.0043945,0C24.4579773,21.4008789,24.4263,21.3651733,24.4286804,21.3237l0.0386047-0.6459961
			c0.0023804-0.0415344,0.0375977-0.0732422,0.0791016-0.0708313c0.0415039,0.002533,0.0732117,0.0381165,0.0708008,0.0796204
			l-0.0385742,0.6464844C24.5762024,21.3725891,24.5429688,21.4032898,24.5039062,21.4032898L24.5039062,21.4032898z
			 M18.9198914,21.4501953c-0.0375977,0-0.0697937-0.0278015-0.0742188-0.065918l-0.0805969-0.6421204
			c-0.0053101-0.0414734,0.0240173-0.0785522,0.0650024-0.0839844c0.0410156-0.0048828,0.0786133,0.0239258,0.0840149,0.0649109
			l0.0799866,0.6425781c0.0054016,0.0410156-0.0238953,0.0786133-0.0648804,0.0840149
			C18.9258118,21.4496765,18.9229126,21.4501953,18.9198914,21.4501953L18.9198914,21.4501953z M25.4740906,21.4501953
			c-0.0033875,0-0.0062866-0.0005188-0.0097046-0.0005188c-0.0411072-0.0054016-0.0698853-0.0429993-0.0650024-0.0840149
			l0.0805969-0.6425781c0.0049133-0.0409851,0.042511-0.0697937,0.0834961-0.0649109
			c0.0410156,0.0054321,0.0703125,0.042511,0.0654297,0.0839844l-0.0805969,0.6421204
			C25.5434875,21.4223938,25.5111694,21.4501953,25.4740906,21.4501953L25.4740906,21.4501953z M17.9286804,21.4823914
			c-0.0370789,0-0.0697937-0.0273132-0.0741882-0.0653992l-0.0806274-0.6426086
			c-0.0048828-0.0410156,0.0240479-0.0785828,0.065033-0.0834961c0.0410156-0.0054016,0.0785828,0.0238953,0.0839844,0.0650024
			l0.0800171,0.6425171c0.0053711,0.0410767-0.0239258,0.0786743-0.0649109,0.0834961
			C17.9350891,21.4823914,17.9315796,21.4823914,17.9286804,21.4823914L17.9286804,21.4823914z M26.4653015,21.4823914
			c-0.003418,0-0.0063171,0-0.0097046-0.0004883c-0.0410156-0.0048218-0.0699158-0.0424194-0.0650024-0.0834961l0.0800781-0.6425171
			c0.0054321-0.0411072,0.0435181-0.0704041,0.0840149-0.0650024c0.0410156,0.0049133,0.0703125,0.0424805,0.0649109,0.0834961
			l-0.0800171,0.6426086C26.5346985,21.4550781,26.5023804,21.4823914,26.4653015,21.4823914L26.4653015,21.4823914z
			 M18.4320984,21.5150757c-0.0371094,0-0.0693054-0.0278015-0.0742188-0.0658875l-0.0801086-0.6420898
			c-0.0052795-0.0415039,0.0240173-0.0786133,0.065033-0.0840149c0.0414734-0.004303,0.0785828,0.0240173,0.0834961,0.0650024
			l0.0805054,0.6425781c0.0048828,0.0410156-0.0239258,0.0786133-0.0649109,0.0839233
			C18.4384766,21.5150757,18.4354858,21.5150757,18.4320984,21.5150757L18.4320984,21.5150757z M25.9613953,21.5150757
			c-0.0028992,0-0.0063171,0-0.0093079-0.0004883c-0.0410156-0.0053101-0.0703125-0.0429077-0.0653992-0.0839233
			l0.0805969-0.6425781c0.0054016-0.0409851,0.0429993-0.0693054,0.0835266-0.0650024
			c0.0414734,0.0054016,0.070282,0.042511,0.0653687,0.0840149l-0.0805969,0.6420898
			C26.0312805,21.4872742,25.9984741,21.5150757,25.9613953,21.5150757L25.9613953,21.5150757z M17.4242859,21.6591797
			c-0.035614,0-0.0673828-0.0258789-0.0737-0.0625l-0.1112976-0.6377258
			c-0.0074158-0.0404663,0.019989-0.0795593,0.0610046-0.0868835c0.0404968-0.0068665,0.0795898,0.0205078,0.0863953,0.0610046
			l0.1112976,0.6381836c0.0074158,0.0405273-0.0200195,0.0796204-0.0610046,0.0864258
			C17.4325867,21.6586914,17.4287109,21.6591797,17.4242859,21.6591797L17.4242859,21.6591797z M26.969696,21.6591797
			c-0.0043945,0-0.0088196-0.0004883-0.0132141-0.0014954c-0.0404968-0.0068054-0.0677795-0.0458984-0.0610046-0.0864258
			l0.1112976-0.6381836c0.0074158-0.0404968,0.0464172-0.0678711,0.0870361-0.0610046
			c0.0404663,0.0073242,0.0677795,0.0464172,0.0609741,0.0868835l-0.1112976,0.6377258
			C27.0370789,21.6333008,27.0053711,21.6591797,26.969696,21.6591797L26.969696,21.6591797z M16.8677063,21.6596985
			c-0.0362244,0-0.0679321-0.0259094-0.073822-0.0630188l-0.1034851-0.6391907
			c-0.0063171-0.0410156,0.0214844-0.0796204,0.0619812-0.085907c0.0411072-0.006897,0.0795898,0.0209961,0.0860291,0.0620117
			l0.1034851,0.6391907c0.0068054,0.0409851-0.0209961,0.0794983-0.0620117,0.085907
			C16.8759766,21.6591797,16.871582,21.6596985,16.8677063,21.6596985L16.8677063,21.6596985z M27.5259094,21.6596985
			c-0.0039062,0-0.007843-0.0005188-0.0122375-0.0010071c-0.0405884-0.0064087-0.0683594-0.0449219-0.0619812-0.085907
			l0.1035156-0.6391907c0.0062866-0.0410156,0.0448608-0.0693054,0.0858765-0.0620117
			c0.0409851,0.0062866,0.0689087,0.0448914,0.0620117,0.085907l-0.1030273,0.6391907
			C27.5937805,21.6337891,27.5619812,21.6596985,27.5259094,21.6596985L27.5259094,21.6596985z M16.3759766,21.7060852
			c-0.0351868,0-0.0663757-0.0245056-0.0732727-0.0601196l-0.1274109-0.6347961
			c-0.007782-0.0404968,0.0184937-0.0799866,0.059082-0.0882874c0.0405273-0.0078735,0.0801086,0.0180054,0.0878906,0.0585022
			l0.1274109,0.6352844c0.0078125,0.0404968-0.0184631,0.0801086-0.059082,0.0884094
			C16.3857117,21.7060852,16.3808899,21.7060852,16.3759766,21.7060852L16.3759766,21.7060852z M28.0175781,21.7060852
			c-0.0048828,0-0.0097656,0-0.0147095-0.0010071c-0.0404663-0.0083008-0.066864-0.0479126-0.0585938-0.0884094l0.1270142-0.6352844
			c0.0083008-0.0404968,0.047821-0.0663757,0.0883789-0.0585022c0.0405273,0.0083008,0.066925,0.0477905,0.0586243,0.0882874
			l-0.1269836,0.6347961C28.0839844,21.6815796,28.0526733,21.7060852,28.0175781,21.7060852L28.0175781,21.7060852z
			 M15.9657898,21.7880554c-0.0355835,0-0.0674133-0.0248718-0.0737-0.0609741l-0.1186829-0.6362915
			c-0.007843-0.0410156,0.019104-0.0801086,0.0595703-0.0878906c0.0409851-0.0078125,0.0801086,0.0195923,0.0878906,0.0600586
			l0.1187134,0.6367188c0.0072937,0.0404968-0.0195923,0.0795898-0.0600891,0.0874023
			C15.9745789,21.7880554,15.9701843,21.7880554,15.9657898,21.7880554L15.9657898,21.7880554z M28.4281921,21.7880554
			c-0.0043945,0-0.0093079,0-0.0140991-0.0009766c-0.0406189-0.0078125-0.0674133-0.0469055-0.0596008-0.0874023
			l0.1185913-0.6367188c0.0073853-0.0404663,0.0464172-0.0673828,0.0874023-0.0600586
			c0.0406189,0.007782,0.0674133,0.046875,0.0600891,0.0878906l-0.1185913,0.6362915
			C28.4950867,21.7631836,28.4634094,21.7880554,28.4281921,21.7880554L28.4281921,21.7880554z M15.5863953,21.8471985
			c-0.0326843,0-0.0630188-0.0220032-0.0722046-0.0552063l-0.1728821-0.6240234
			c-0.0107422-0.0400696,0.0121765-0.0810852,0.0522766-0.0922852c0.0400085-0.0108032,0.0815125,0.0121765,0.0921936,0.0522156
			l0.1729126,0.6240845c0.0112,0.0400085-0.012207,0.0814819-0.0523071,0.0921936
			C15.5995789,21.8461914,15.5932922,21.8471985,15.5863953,21.8471985L15.5863953,21.8471985z M28.8070679,21.8471985
			c-0.0062866,0-0.0131836-0.0010071-0.0199585-0.0030212c-0.0400391-0.0107117-0.0635376-0.0521851-0.0522156-0.0921936
			l0.1727905-0.6240845c0.0112-0.0400391,0.0527039-0.0630188,0.0923157-0.0522156
			c0.039978,0.0112,0.0634766,0.0522156,0.0521851,0.0922852l-0.1727905,0.6240234
			C28.8700867,21.8251953,28.8403015,21.8471985,28.8070679,21.8471985L28.8070679,21.8471985z M15.207489,21.957489
			c-0.0316772,0-0.0610046-0.0205078-0.0712891-0.0522156l-0.1947937-0.6176758
			c-0.0127258-0.0396118,0.0092773-0.0815125,0.0487671-0.0942383c0.0396118-0.0121765,0.0816345,0.0097046,0.093811,0.0493164
			l0.195282,0.6171875c0.0122375,0.0395203-0.0097656,0.0815125-0.0487671,0.0942383
			C15.2226868,21.9564819,15.2153015,21.957489,15.207489,21.957489L15.207489,21.957489z M29.1859741,21.957489
			c-0.0072937,0-0.0150757-0.0010071-0.0223694-0.0033875c-0.0396118-0.0127258-0.0614929-0.054718-0.0489197-0.0942383
			l0.1948853-0.6171875c0.0127258-0.0396118,0.054718-0.0614929,0.0942383-0.0493164
			c0.0395813,0.0127258,0.0609741,0.0546265,0.0487671,0.0942383l-0.1947937,0.6176758
			C29.2475891,21.9369812,29.217804,21.957489,29.1859741,21.957489L29.1859741,21.957489z"/>
	</g>
</g>
</svg>
