<?xml version="1.0" encoding="utf-8"?>
<!-- Generator: Adobe Illustrator 22.1.0, SVG Export Plug-In . SVG Version: 6.00 Build 0)  -->
<svg version="1.1" id="Layer_1" xmlns="http://www.w3.org/2000/svg" xmlns:xlink="http://www.w3.org/1999/xlink" x="0px" y="0px"
	 viewBox="0 0 60 60" style="enable-background:new 0 0 60 60;" xml:space="preserve">
<style type="text/css">
	.st0{clip-path:url(#SVGID_2_);fill:#0E7663;}
	.st1{clip-path:url(#SVGID_2_);fill:#FFDE23;}
	.st2{clip-path:url(#SVGID_2_);fill:#FFFFFF;}
</style>
<g id="XMLID_1_">
	<g>
		<defs>
			<path id="SVGID_1_" d="M59,60H0.9999695C0.4477234,60,0,59.5526733,0,59V0.9999695c0-0.5522461,0.4477234-1,0.9999695-1H59
				c0.5526886,0,0.9999847,0.4477539,0.9999847,1V59C59.9999847,59.5526733,59.5526886,60,59,60L59,60z"/>
		</defs>
		<clipPath id="SVGID_2_">
			<use xlink:href="#SVGID_1_"  style="overflow:visible;"/>
		</clipPath>
		<polygon class="st0" points="-15,-0.0000305 74.9999847,-0.0000305 74.9999847,60 -15,60 -15,-0.0000305 		"/>
		<polygon class="st1" points="31.1972961,14.9989929 33.1356812,13.5907593 30.7402039,13.5907593 30,11.3124695 
			29.2597656,13.5907593 26.8642883,13.5907593 28.8021851,14.9989929 28.0625,17.2763672 30,15.8686829 31.9374695,17.2763672 
			31.1972961,14.9989929 		"/>
		<polygon class="st1" points="17.9169922,23.1776733 19.3661804,22.3739929 17.7217102,22.1723938 17.405304,20.5458679 
			16.7055969,22.0473633 15.0604858,21.8456726 16.2724915,22.9760742 15.5722656,24.4784851 17.0214844,23.6747742 
			18.2333984,24.8046875 17.9169922,23.1776733 		"/>
		<polygon class="st1" points="22.3534851,17.8910828 24.0106812,17.9198914 22.6869812,16.9228821 23.226593,15.3554688 
			21.8687134,16.3065796 20.5448914,15.3096008 21.0292969,16.8939819 19.6719055,17.844696 21.3285828,17.8734741 
			21.8134766,19.4589539 22.3534851,17.8910828 		"/>
		<path class="st2" d="M18.2958984,42.484375c0.3164062,0.2714844,0.6425781,0.532196,0.977478,0.7812195H30h10.726593
			c0.3348999-0.2490234,0.6611023-0.5097351,0.9775085-0.7812195H30H18.2958984L18.2958984,42.484375z"/>
		<path class="st2" d="M20.4130859,44.0469055c0.5805969,0.3661804,1.1831055,0.7010803,1.8057251,0.9999695H30h7.781311
			c0.6229858-0.2988892,1.2254639-0.6337891,1.8055725-0.9999695H30H20.4130859L20.4130859,44.0469055z"/>
		<path class="st2" d="M23.3612976,45.5469055C25.4159851,46.3632812,27.6557922,46.8125,30,46.8125
			c2.3446655,0,4.5839844-0.4492188,6.6387024-1.2655945H30H23.3612976L23.3612976,45.5469055z"/>
		<path class="st2" d="M16.7147827,40.9530945c0.155304,0.1698914,0.3140259,0.3359985,0.4756165,0.4999695H30h12.8095703
			c0.1611023-0.1639709,0.3203125-0.3300781,0.4756165-0.4999695H30H16.7147827L16.7147827,40.9530945z"/>
		<path class="st2" d="M34.0614624,38.4892883C32.0692749,37.8866882,30.7187805,36.7958984,30,36.1161804
			c-0.7187195,0.679718-2.0693054,1.7705078-4.0615234,2.3731079C25.0083008,38.7704773,24.0220032,38.921875,23,38.921875
			h-7.8916016c0.2323914,0.3417969,0.476593,0.6757812,0.7313843,1.0000305h7.6289978
			c2.4873047,0,4.7666016-0.897522,6.5312195-2.3858337c1.7645874,1.4883118,4.0438843,2.3858337,6.5312805,2.3858337h7.6289062
			c0.2547913-0.3242493,0.4989929-0.6582336,0.7314148-1.0000305h-7.8916321
			C35.9784851,38.921875,34.9921875,38.7704773,34.0614624,38.4892883L34.0614624,38.4892883z"/>
		<path class="st2" d="M36.656311,37.2969055c-0.6153259,0-1.2178345-0.0547485-1.8028259-0.1602173
			c0.2743835,0.0224915,0.5527954,0.0351868,0.8339844,0.0351868c4.335022,0,8.0381165-2.7255859,9.4873047-6.5556946
			c-1.4110718-0.5883789-2.9579773-0.9130859-4.5809631-0.9130859c-2.9043274,0-5.5674133,1.0405884-7.6358337,2.7685852
			c2.1660156-2.2597961,5.2119141-3.6694946,8.585907-3.6748047c0.2159119-0.4184875,0.5030212-0.7944946,0.8437805-1.1122742
			c-0.179657-0.0083313-0.3612671-0.0127258-0.5438843-0.0127258c-3.3916931,0-6.453186,1.4189148-8.625,3.6953125
			c1.2470093-1.6846008,1.984314-3.7680969,1.984314-6.023407c0-1.8134766-0.4765015-3.5151978-1.3115234-4.9883118
			c-0.1846008,0.6147156-0.5116882,1.168396-0.9413757,1.6230164c0.6229858,1.3145142,0.9717102,2.7836914,0.9717102,4.3339844
			c0,2.3339844-0.7901001,4.4844055-2.117218,6.1982117c1.0809937-1.6123047,1.710907-3.5507202,1.710907-5.6357117
			c0-1.0043945-0.1465149-1.9750671-0.4188843-2.8916016C32.3690796,21.5355835,30.8241882,19.9389648,30,19.2001953
			c-0.8242188,0.7387695-2.3687134,2.3353882-3.0967102,4.7831726c-0.2723999,0.9165344-0.4188843,1.887207-0.4188843,2.8916016
			c0,2.0849915,0.6302795,4.023407,1.710907,5.6357117c-1.3271179-1.7138062-2.1172485-3.8642273-2.1172485-6.1982117
			c0-1.550293,0.3487244-3.0194702,0.9717407-4.3339844c-0.4302063-0.4546204-0.7568054-1.0083008-0.9414062-1.6230164
			c-0.835022,1.473114-1.3114929,3.1748352-1.3114929,4.9883118c0,2.2553101,0.7372742,4.3388062,1.984375,6.023407
			c-2.1713867-2.2763977-5.2333679-3.6953125-8.625-3.6953125c-0.1821899,0-0.3638,0.0043945-0.5440063,0.0127258
			c0.3413086,0.3177795,0.6279297,0.6937866,0.843811,1.1122742c3.3739929,0.0053101,6.4199219,1.4150085,8.585907,3.6748047
			c-2.0689087-1.7279968-4.7315063-2.7685852-7.6356812-2.7685852c-1.6231079,0-3.1705322,0.324707-4.5811462,0.9130859
			c1.4497375,3.8301086,5.1519165,6.5556946,9.4873352,6.5556946c0.2807922,0,0.5591125-0.0126953,0.8339844-0.0351868
			c-0.5849915,0.1054688-1.1875,0.1602173-1.8026733,0.1602173c-2.7354431,0-5.2183228-1.085022-7.0429993-2.8477173
			c-0.3799438,0.1464844-0.7871399,0.2373047-1.2119446,0.2626953c1.858429,2.101593,4.5742188,3.4287109,7.5986328,3.4287109
			c2.8725891,0,5.4667969-1.1963196,7.3125-3.118103c1.8457031,1.9217834,4.4394836,3.118103,7.3125,3.118103
			c3.0243835,0,5.7401733-1.3271179,7.5985718-3.4287109c-0.4247742-0.0253906-0.8319702-0.1162109-1.2118835-0.2626953
			C41.8749695,36.2118835,39.3916016,37.2969055,36.656311,37.2969055L36.656311,37.2969055z"/>
		<polygon class="st1" points="43.727478,22.9760742 44.9394836,21.8456726 43.2948914,22.0473633 42.594696,20.5458679 
			42.2782898,22.1723938 40.6337891,22.3739929 42.0829773,23.1776733 41.766571,24.8046875 42.9784851,23.6747742 
			44.4276733,24.4784851 43.727478,22.9760742 		"/>
		<polygon class="st1" points="38.6708984,17.8734741 40.328064,17.844696 38.9707031,16.8939819 39.4550781,15.3096008 
			38.1318054,16.3065796 36.773407,15.3554688 37.3134766,16.9228821 35.9892883,17.9198914 37.6464844,17.8910828 
			38.1864624,19.4589539 38.6708984,17.8734741 		"/>
	</g>
</g>
</svg>
