<?xml version="1.0" encoding="utf-8"?>
<!-- Generator: Adobe Illustrator 22.1.0, SVG Export Plug-In . SVG Version: 6.00 Build 0)  -->
<svg version="1.1" id="Layer_1" xmlns="http://www.w3.org/2000/svg" xmlns:xlink="http://www.w3.org/1999/xlink" x="0px" y="0px"
	 viewBox="0 0 60 60" style="enable-background:new 0 0 60 60;" xml:space="preserve">
<style type="text/css">
	.st0{clip-path:url(#SVGID_2_);fill:#FFFFFF;}
	.st1{clip-path:url(#SVGID_2_);fill:#CC1417;}
	.st2{clip-path:url(#SVGID_2_);fill:#232856;}
	.st3{clip-path:url(#SVGID_2_);fill:#FFCC07;}
</style>
<g id="XMLID_1_">
	<g>
		<defs>
			<path id="SVGID_1_" d="M59,60H0.9999695C0.4477234,60,0,59.5526733,0,59V0.9999695c0-0.5522461,0.4477234-1,0.9999695-1H59
				c0.5526886,0,0.9999847,0.4477539,0.9999847,1V59C59.9999847,59.5526733,59.5526886,60,59,60L59,60z"/>
		</defs>
		<clipPath id="SVGID_2_">
			<use xlink:href="#SVGID_1_"  style="overflow:visible;"/>
		</clipPath>
		<polygon class="st0" points="-7,0.1069031 112.7859955,0.1069031 112.7859955,60 -7,60 -7,0.1069031 		"/>
		<path class="st1" d="M112.7859955,4.492157H-2.7221985v-4.4921875h115.508194V4.492157L112.7859955,4.492157z
			 M112.7859955,13.0482788H-2.7221985v-4.492157h115.508194V13.0482788L112.7859955,13.0482788z M112.7859955,21.6039734
			H-2.7221985v-4.4916992h115.508194V21.6039734L112.7859955,21.6039734z M112.7859955,30.1605835H-2.7221985V25.668457h115.508194
			V30.1605835L112.7859955,30.1605835z"/>
		<polygon class="st2" points="-7,0.1069031 52.8925934,0.1069031 52.8925934,36.4706726 -7,36.4706726 -7,0.1069031 		"/>
		<path class="st1" d="M112.7859955,38.7167664H-7v-4.4921875h119.7859955V38.7167664L112.7859955,38.7167664z
			 M112.7859955,47.2724915H-7v-4.492218h119.7859955V47.2724915L112.7859955,47.2724915z M112.7859955,55.829071H-7v-4.4921875
			h119.7859955V55.829071L112.7859955,55.829071z"/>
		<path class="st3" d="M25.0853882,6.7915039c-5.7586975-2.5552063-12.4989929,0.0419617-15.0545959,5.8007812
			c-2.5552063,5.7592773,0.0419922,12.4995117,5.8012085,15.0546875c2.9458008,1.3070984,6.3075867,1.3070984,9.2533875,0
			c-5.7586975,4.1322937-13.7773132,2.8134155-17.9096375-2.9458008C3.0439453,18.941864,4.362793,10.9232788,10.1221008,6.7915039
			C14.5937805,3.5829773,20.6138,3.5829773,25.0853882,6.7915039L25.0853882,6.7915039z M30.433075,6.5238953l0.9536133,6.5243835
			l3.6895142-5.4638367l-1.9785156,6.2925415l5.695282-3.3243103l-4.5097656,4.8125305l6.578064-0.5258179l-6.1503601,2.3797913
			l6.1503601,2.3799133l-6.578064-0.5259094l4.5097656,4.8125305l-5.695282-3.3242493l1.9785156,6.292511l-3.6895142-5.4638977
			l-0.9536133,6.5245056l-0.9535828-6.5245056l-3.6899109,5.4638977l1.9785156-6.292511l-5.6949158,3.3242493l4.5097961-4.8125305
			l-6.5775757,0.5259094l6.1499023-2.3799133l-6.1499023-2.3797913l6.5775757,0.5258179l-4.5097961-4.8125305l5.6949158,3.3243103
			l-1.9785156-6.2925415l3.6899109,5.4638367L30.433075,6.5238953L30.433075,6.5238953z"/>
	</g>
</g>
</svg>
