<?xml version="1.0" encoding="utf-8"?>
<!-- Generator: Adobe Illustrator 22.1.0, SVG Export Plug-In . SVG Version: 6.00 Build 0)  -->
<svg version="1.1" id="Layer_1" xmlns="http://www.w3.org/2000/svg" xmlns:xlink="http://www.w3.org/1999/xlink" x="0px" y="0px"
	 viewBox="0 0 60 60" style="enable-background:new 0 0 60 60;" xml:space="preserve">
<style type="text/css">
	.st0{clip-path:url(#SVGID_2_);fill:#020203;}
	.st1{clip-path:url(#SVGID_2_);fill:#CE1327;}
	.st2{clip-path:url(#SVGID_2_);fill:#349E37;}
</style>
<g id="XMLID_1_">
	<g>
		<defs>
			<path id="SVGID_1_" d="M59,60H0.9999695C0.4477234,60,0,59.5526733,0,59V0.9999695c0-0.5522461,0.4477234-1,0.9999695-1H59
				c0.5526886,0,0.9999847,0.4477539,0.9999847,1V59C59.9999847,59.5526733,59.5526886,60,59,60L59,60z"/>
		</defs>
		<clipPath id="SVGID_2_">
			<use xlink:href="#SVGID_1_"  style="overflow:visible;"/>
		</clipPath>
		<polygon class="st0" points="-15,-0.0000305 74.9999847,-0.0000305 74.9999847,60 -15,60 -15,-0.0000305 		"/>
		<path class="st1" d="M30,9.8999023c7.1239929,0,12.9003906,5.7753601,12.9003906,12.8998718S37.1239929,35.7001953,30,35.7001953
			c-7.1245117,0-12.8999329-5.7759094-12.8999329-12.9004211S22.8754883,9.8999023,30,9.8999023L30,9.8999023z"/>
		<path class="st1" d="M30,2.3999023c-0.4331055,0-0.6000977,0.6498718-0.6000977,1.3002625
			c0,1.5664368,0.1918945,2.3857422,0.6000977,4.6997375c0.4081726-2.3139954,0.6000671-3.1333008,0.6000671-4.6997375
			C30.6000671,3.0497742,30.433075,2.3999023,30,2.3999023L30,2.3999023z"/>
		<path class="st1" d="M31.7782898,2.4775391c-0.4316101-0.0376282-0.6542969,0.5951843-0.710907,1.2426453
			c-0.1371765,1.5610657-0.0176086,2.3935547,0.1875,4.734375c0.608429-2.2695007,0.8710938-3.0688477,1.007782-4.629364
			C32.3193054,3.1772156,32.2099915,2.515625,31.7782898,2.4775391L31.7782898,2.4775391z"/>
		<path class="st1" d="M33.5419922,2.7099304c-0.4268188-0.0751953-0.7030945,0.5361328-0.8164062,1.1757812
			c-0.2714844,1.5429688-0.2246094,2.3828125-0.2246094,4.7329102c0.8037109-2.2080078,1.1347046-2.9814148,1.4062195-4.5244141
			C34.0204773,3.454071,33.9687805,2.7851562,33.5419922,2.7099304L33.5419922,2.7099304z"/>
		<path class="st1" d="M35.2802734,3.0951843c-0.4190063-0.1122742-0.7480774,0.4726562-0.9159851,1.1000977
			c-0.4062805,1.5137024-0.4327087,2.3544922-0.6376953,4.695343c0.993103-2.1298828,1.3905945-2.8710938,1.7967834-4.3842773
			C35.6913757,3.8783875,35.6981812,3.2070312,35.2802734,3.0951843L35.2802734,3.0951843z"/>
		<path class="st1" d="M36.977478,3.6303711c-0.407196-0.148468-0.7861023,0.4052429-1.0086975,1.0160828
			c-0.5361938,1.472168-0.6358032,2.3076477-1.0439758,4.6220703c1.1748047-2.0351562,1.6356812-2.7392273,2.171875-4.2113953
			C37.3183899,4.4462891,37.3847961,3.7783203,36.977478,3.6303711L36.977478,3.6303711z"/>
		<path class="st1" d="M38.6210938,4.3115234c-0.3926086-0.1831055-0.8184204,0.3354492-1.092804,0.9243164
			c-0.6621094,1.4198914-0.8339844,2.2431335-1.4424133,4.5131836c1.3477173-1.9248047,1.8682251-2.585968,2.5303345-4.0058899
			C38.8905945,5.1538086,39.0137024,4.4946289,38.6210938,4.3115234L38.6210938,4.3115234z"/>
		<path class="st1" d="M40.2001953,5.1333008c-0.375-0.2167969-0.8447266,0.2626648-1.1699219,0.8256531
			c-0.7831726,1.3569641-1.0263672,2.1621094-1.8300781,4.3701477c1.5106812-1.800293,2.085907-2.4136047,2.8691101-3.77005
			C40.3945007,5.9960938,40.5751953,5.3495789,40.2001953,5.1333008L40.2001953,5.1333008z"/>
		<path class="st1" d="M41.7012024,6.089325c-0.3555298-0.2485046-0.8643188,0.1884766-1.2373047,0.7207031
			c-0.8984985,1.2832031-1.2110291,2.0644836-2.2041321,4.1943665c1.6611023-1.6621399,2.2881165-2.2226868,3.1875-3.5058899
			C41.8192749,6.9658203,42.0556946,6.3378601,41.7012024,6.089325L41.7012024,6.089325z"/>
		<path class="st1" d="M43.1133118,7.172821c-0.3320312-0.2787781-0.8779297,0.1123352-1.295929,0.6098633
			c-1.006897,1.2002258-1.3867188,1.9511719-2.5614929,3.9862976c1.8006897-1.5107117,2.4736023-2.0146179,3.4813843-3.2148132
			C43.1542969,8.0561218,43.4443054,7.4511414,43.1133118,7.172821L43.1133118,7.172821z"/>
		<path class="st1" d="M44.4247742,8.375c-0.3065796-0.3061523-0.8837891,0.0351562-1.3436584,0.4951172
			c-1.1075134,1.1078796-1.5508118,1.8227539-2.8985291,3.7475586c1.9248047-1.348175,2.6397095-1.7915039,3.7471008-2.8989563
			C44.3895874,9.2587585,44.7313843,8.6816101,44.4247742,8.375L44.4247742,8.375z"/>
		<path class="st1" d="M45.6270142,9.6869812c-0.2784119-0.3320007-0.8829346-0.0415039-1.3809204,0.3760071
			c-1.2001953,1.0072937-1.7041016,1.6806946-3.2148132,3.480896c2.0351257-1.1752014,2.7861023-1.5545959,3.9863281-2.5614929
			C45.5145874,10.5644836,45.9062805,10.0189819,45.6270142,9.6869812L45.6270142,9.6869812z"/>
		<path class="st1" d="M46.710907,11.0990601c-0.2490234-0.3549805-0.8769226-0.1185913-1.4091187,0.2539368
			c-1.2831726,0.8989868-1.8448181,1.5258789-3.5059204,3.1875c2.1299133-0.993103,2.9111328-1.3056335,4.1943359-2.2046204
			C46.5224915,11.9633789,46.9589844,11.4541016,46.710907,11.0990601L46.710907,11.0990601z"/>
		<path class="st1" d="M47.6669922,12.6000671c-0.2168274-0.3754883-0.8633118-0.1947937-1.4258118,0.1304016
			c-1.3563843,0.7832336-1.9706726,1.3589172-3.7705078,2.8695984c2.2080078-0.8037109,3.0137024-1.0473938,4.3701172-1.8305969
			C47.4042969,13.4447937,47.8837891,12.9750671,47.6669922,12.6000671L47.6669922,12.6000671z"/>
		<path class="st1" d="M48.4882812,14.1786804c-0.1826172-0.3930969-0.8417969-0.2690125-1.4317017,0.0054016
			c-1.4198914,0.6620789-2.0809937,1.1820984-4.0057983,2.530304c2.2695007-0.6083984,3.0937195-0.780304,4.5137024-1.4424133
			C48.1532898,14.9970703,48.671875,14.5712891,48.4882812,14.1786804L48.4882812,14.1786804z"/>
		<path class="st1" d="M49.1698608,15.8227844c-0.1483765-0.4073181-0.8163757-0.3414001-1.4266968-0.1192017
			c-1.4726868,0.535675-2.1767883,0.9960938-4.2118835,2.1713867c2.3143921-0.4082031,3.1502991-0.5078125,4.6220093-1.0438843
			C48.7637024,16.6088867,49.3183899,16.2299805,49.1698608,15.8227844L49.1698608,15.8227844z"/>
		<path class="st1" d="M49.7051086,17.519989c-0.1123047-0.418396-0.7832031-0.4111023-1.4112244-0.243103
			c-1.5135803,0.4057007-2.2547913,0.8031921-4.3847046,1.7962952c2.3408203-0.2049866,3.1816101-0.2314148,4.6953125-0.637207
			C49.2323914,18.2680664,49.8173828,17.9384766,49.7051086,17.519989L49.7051086,17.519989z"/>
		<path class="st1" d="M9.9101562,19.257782c-0.0757141,0.4263,0.5356445,0.7036133,1.1757507,0.8164062
			c1.5429688,0.2720032,2.3828735,0.2250977,4.7328796,0.2250977c-2.2084045-0.8037109-2.9814148-1.1347046-4.5243835-1.4067078
			C10.6542969,18.7797852,9.985321,18.8310852,9.9101562,19.257782L9.9101562,19.257782z"/>
		<path class="st1" d="M10.2948914,17.519989c-0.1118164,0.4184875,0.4726868,0.7480774,1.1005859,0.9159851
			c1.5132141,0.4057922,2.3540039,0.4322205,4.6953125,0.637207c-2.1299133-0.993103-2.8716125-1.3905945-4.3847046-1.7962952
			C11.078064,17.1088867,10.4071655,17.101593,10.2948914,17.519989L10.2948914,17.519989z"/>
		<path class="st1" d="M10.8300781,15.8227844c-0.1479797,0.407196,0.4057007,0.7861023,1.0166016,1.0083008
			c1.4721069,0.5360718,2.3075867,0.6356812,4.6216125,1.0438843c-2.0351868-1.175293-2.7388-1.6357117-4.2110291-2.1713867
			C11.6464844,15.4813843,10.9784851,15.4154663,10.8300781,15.8227844L10.8300781,15.8227844z"/>
		<path class="st1" d="M11.5112,14.1786804c-0.1831055,0.3926086,0.3354797,0.8183899,0.9247742,1.0932922
			c1.4200134,0.6621094,2.2432251,0.8340149,4.5132141,1.4424133c-1.925293-1.3482056-2.5863953-1.8682251-4.0063171-2.530304
			C12.3539734,13.909668,11.6942749,13.7855835,11.5112,14.1786804L11.5112,14.1786804z"/>
		<path class="st1" d="M12.3329773,12.6000671c-0.2167969,0.375,0.2632141,0.8447266,0.8257141,1.1694031
			c1.3569031,0.7832031,2.1621094,1.026886,4.370575,1.8305969c-1.800293-1.5106812-2.4135742-2.0863647-3.7704773-2.8695984
			C13.1958008,12.4052734,12.5497742,12.2245789,12.3329773,12.6000671L12.3329773,12.6000671z"/>
		<path class="st1" d="M13.289093,11.0990601c-0.2485962,0.3550415,0.188385,0.8643188,0.7211914,1.2368164
			c1.2832031,0.8989868,2.0639038,1.2115173,4.1938171,2.2046204c-1.6615906-1.6616211-2.2227173-2.2885132-3.5058899-3.1875
			C14.1659851,10.9804688,13.5380859,10.7440796,13.289093,11.0990601L13.289093,11.0990601z"/>
		<path class="st1" d="M14.3725891,9.6869812c-0.2784119,0.3320007,0.1123047,0.8775024,0.6102905,1.2954102
			c1.2001953,1.006897,1.9507141,1.3862915,3.9859009,2.5614929c-1.5102844-1.8002014-2.0141907-2.4736023-3.214386-3.480896
			C15.2562866,9.6454773,14.6513977,9.3549805,14.3725891,9.6869812L14.3725891,9.6869812z"/>
		<path class="st1" d="M15.5751953,8.375c-0.3066101,0.3066101,0.0351868,0.8837585,0.4945984,1.3437195
			c1.1078796,1.1074524,1.8227844,1.5507812,3.7481079,2.8989563c-1.3482361-1.9248047-1.7915039-2.639679-2.8994141-3.7475586
			C16.4589844,8.4101562,15.8812866,8.0688477,15.5751953,8.375L15.5751953,8.375z"/>
		<path class="st1" d="M16.8871765,7.172821c-0.3320007,0.2783203-0.0419922,0.8833008,0.3760376,1.3813477
			c1.0067749,1.2001953,1.6805725,1.7041016,3.4804993,3.2148132c-1.1749268-2.0351257-1.5541992-2.7860718-2.5611267-3.9862976
			C17.7645874,7.2851562,17.2192078,6.894043,16.8871765,7.172821L16.8871765,7.172821z"/>
		<path class="st1" d="M18.2987976,6.089325c-0.355011,0.2485352-0.1185913,0.8764954,0.254364,1.4091797
			c0.8985291,1.2832031,1.5254517,1.84375,3.1875,3.5058899c-0.9930725-2.1298828-1.3060608-2.9111633-2.2045898-4.1943665
			C19.1636047,6.2778015,18.6537781,5.8408203,18.2987976,6.089325L18.2987976,6.089325z"/>
		<path class="st1" d="M19.7997742,5.1333008c-0.375,0.2162781-0.1942749,0.862793,0.1304016,1.4257507
			c0.7836914,1.3564453,1.3594055,1.9697571,2.8695984,3.77005c-0.8036804-2.2080383-1.046875-3.0131836-1.8300781-4.3701477
			C20.6445007,5.3959656,20.175293,4.9165039,19.7997742,5.1333008L19.7997742,5.1333008z"/>
		<path class="st1" d="M21.3783875,4.3115234c-0.3926086,0.1831055-0.2690125,0.8422852,0.0058899,1.4316101
			c0.6621094,1.4199219,1.1820984,2.0810852,2.5298157,4.0058899c-0.6079102-2.27005-0.780304-3.0932922-1.4424133-4.5131836
			C22.1972961,4.6469727,21.7714844,4.128418,21.3783875,4.3115234L21.3783875,4.3115234z"/>
		<path class="st1" d="M23.0228882,3.6303711c-0.407196,0.1479492-0.3417053,0.815918-0.1191101,1.4267578
			c0.5357056,1.472168,0.9960938,2.176239,2.1708984,4.2113953c-0.4076843-2.3144226-0.507782-3.1499023-1.043396-4.6220703
			C23.809082,4.035614,23.4302063,3.4819031,23.0228882,3.6303711L23.0228882,3.6303711z"/>
		<path class="st1" d="M24.7201843,3.0951843c-0.418396,0.1118469-0.4115906,0.7832031-0.243103,1.4111633
			c0.4052124,1.5131836,0.8027039,2.2543945,1.7958069,4.3842773C26.0683899,6.5497742,26.0414734,5.7089844,25.6362,4.195282
			C25.467804,3.5678406,25.1387024,2.9829102,24.7201843,3.0951843L24.7201843,3.0951843z"/>
		<path class="st1" d="M26.457489,2.7099304c-0.4266968,0.0752258-0.4779968,0.7441406-0.3652039,1.3842773
			c0.2720032,1.5429993,0.6035156,2.3164062,1.4072266,4.5244141c0-2.3500977,0.046875-3.1899414-0.2251282-4.7329102
			C27.1611023,3.2460632,26.8843079,2.6347351,26.457489,2.7099304L26.457489,2.7099304z"/>
		<path class="st1" d="M28.2221985,2.4775391c-0.4317322,0.0380859-0.5409851,0.6996765-0.4844055,1.3476562
			c0.1361694,1.5605164,0.3988953,2.3598633,1.0072937,4.629364c0.2046204-2.3408203,0.324707-3.1733093,0.1879883-4.734375
			C28.8764954,3.0727234,28.6538086,2.4399109,28.2221985,2.4775391L28.2221985,2.4775391z"/>
		<polygon class="st0" points="-15,18.5 74.9999847,18.5 74.9999847,60 -15,60 -15,18.5 		"/>
		<polygon class="st1" points="-15,20 74.9999847,20 74.9999847,60 -15,60 -15,20 		"/>
		<polygon class="st2" points="-15,39.9999695 74.9999847,39.9999695 74.9999847,60 -15,60 -15,39.9999695 		"/>
	</g>
</g>
</svg>
