<?xml version="1.0" encoding="utf-8"?>
<!-- Generator: Adobe Illustrator 22.1.0, SVG Export Plug-In . SVG Version: 6.00 Build 0)  -->
<svg version="1.1" id="Layer_1" xmlns="http://www.w3.org/2000/svg" xmlns:xlink="http://www.w3.org/1999/xlink" x="0px" y="0px"
	 viewBox="0 0 60 60" style="enable-background:new 0 0 60 60;" xml:space="preserve">
<style type="text/css">
	.st0{clip-path:url(#SVGID_2_);fill:#D21036;}
	.st1{clip-path:url(#SVGID_2_);fill:#037F3B;}
	.st2{clip-path:url(#SVGID_2_);fill:#FFFFFF;}
</style>
<g id="XMLID_1_">
	<g>
		<defs>
			<path id="SVGID_1_" d="M59,60H0.9999695C0.4477234,60,0,59.5526733,0,59V0.9999695c0-0.5522461,0.4477234-1,0.9999695-1H59
				c0.5526886,0,0.9999847,0.4477539,0.9999847,1V59C59.9999847,59.5526733,59.5526886,60,59,60L59,60z"/>
		</defs>
		<clipPath id="SVGID_2_">
			<use xlink:href="#SVGID_1_"  style="overflow:visible;"/>
		</clipPath>
		<polygon class="st0" points="-3.2851562,-0.0000305 63.285202,-0.0000305 63.285202,60 -3.2851562,60 -3.2851562,-0.0000305 		"/>
		<polygon class="st1" points="7.8100281,18.9047852 52.1903839,18.9047852 52.1903839,41.094696 7.8100281,41.094696 
			7.8100281,18.9047852 		"/>
		<path class="st2" d="M32.7733765,22.6034851c4.085022,0,7.397522,3.3114929,7.397522,7.3964844
			c0,4.085022-3.3125,7.3965149-7.397522,7.3965149c-4.0848999,0-7.3963623-3.3114929-7.3963623-7.3965149
			C25.3770142,25.914978,28.6884766,22.6034851,32.7733765,22.6034851L32.7733765,22.6034851z"/>
		<path class="st1" d="M35.5478821,22.6034851c4.0849304,0,7.3963928,3.3114929,7.3963928,7.3964844
			c0,4.085022-3.3114624,7.3965149-7.3963928,7.3965149c-4.0849915,0-7.3970032-3.3114929-7.3970032-7.3965149
			C28.1508789,25.914978,31.4628906,22.6034851,35.5478821,22.6034851L35.5478821,22.6034851z"/>
	</g>
</g>
</svg>
