<?xml version="1.0" encoding="utf-8"?>
<!-- Generator: Adobe Illustrator 22.1.0, SVG Export Plug-In . SVG Version: 6.00 Build 0)  -->
<svg version="1.1" id="Layer_1" xmlns="http://www.w3.org/2000/svg" xmlns:xlink="http://www.w3.org/1999/xlink" x="0px" y="0px"
	 viewBox="0 0 60 60" style="enable-background:new 0 0 60 60;" xml:space="preserve">
<style type="text/css">
	.st0{clip-path:url(#SVGID_2_);fill:#CF172C;}
	.st1{clip-path:url(#SVGID_2_);fill:#FFFFFF;}
	.st2{fill:#E51631;}
	.st3{fill:#96877E;}
	.st4{fill:#CDCCCC;}
	.st5{fill:#D0D0D0;}
	.st6{fill:#020203;}
</style>
<g id="XMLID_1_">
	<g>
		<defs>
			<path id="SVGID_1_" d="M59,60H0.9999695C0.4477234,60,0,59.5526733,0,59V0.9999695c0-0.5522461,0.4477234-1,0.9999695-1H59
				c0.5526886,0,0.9999847,0.4477539,0.9999847,1V59C59.9999847,59.5526733,59.5526886,60,59,60L59,60z"/>
		</defs>
		<clipPath id="SVGID_2_">
			<use xlink:href="#SVGID_1_"  style="overflow:visible;"/>
		</clipPath>
		<polygon class="st0" points="-15,-0.0000305 74.9999847,-0.0000305 74.9999847,60 -15,60 -15,-0.0000305 		"/>
		<polygon class="st1" points="-15,-0.0000305 30,-0.0000305 30,60 -15,60 -15,-0.0000305 		"/>
	</g>
	<path class="st2" d="M3.2221375,8.2826843v4.5458984h4.5454102c0,0.7572937,0.757843,1.5151978,1.5151672,1.5151978v4.5453796
		h4.5453796v-4.5453796c0.757782,0,1.5151978-0.7579041,1.5151978-1.5151978h4.5454102V8.2826843h-4.5454102
		c0-0.7572937-0.7579041-1.5151367-1.5151978-1.5151367V2.2221375H9.2827148v4.5454102
		c-0.7573242,0-1.5151672,0.757843-1.5151672,1.5151367H3.2221375L3.2221375,8.2826843z"/>
	<path class="st3" d="M3.5253601,8.5859375v3.9394531h4.5454102c0,0.7572937,0.7573547,1.5150757,1.5151672,1.5150757v4.5454407
		h3.9389648v-4.5454407c0.757782,0,1.5150757-0.757782,1.5150757-1.5150757h4.5454102V8.5859375H15.039978
		c0-0.757843-0.7572937-1.5151672-1.5150757-1.5151672V2.5253601H9.5859375v4.5454102
		c-0.7578125,0-1.5151672,0.7573242-1.5151672,1.5151672H3.5253601L3.5253601,8.5859375z"/>
	<path class="st4" d="M3.6772461,8.7372742v3.6362H8.222168c0,0.7578125,0.7578125,1.5157166,1.5151062,1.5157166v4.5453796h3.6362
		v-4.5453796c0.7578125,0,1.5152283-0.7583313,1.5152283-1.5157166h4.5454102v-3.6362h-4.5454102
		c0-0.7573242-0.7574158-1.5151062-1.5152283-1.5151062V2.6767578h-3.6362V7.222168
		c-0.7572937,0-1.5151062,0.757782-1.5151062,1.5151062H3.6772461L3.6772461,8.7372742z"/>
	<path class="st3" d="M9.4535828,7.1679688c0.2661438,0.2666016,0.1943665,0.769989-0.160614,1.125
		c-0.355011,0.35495-0.8589172,0.4272156-1.125,0.160614c-0.2661133-0.2660828-0.1943359-0.7695312,0.160614-1.125
		C8.6835938,6.9736023,9.1875,6.901825,9.4535828,7.1679688L9.4535828,7.1679688z"/>
	<polygon class="st5" points="8.1142578,7.9716492 8.2211914,7.8642273 8.6499023,8.0785828 8.4355164,7.6499023 
		8.5429688,7.5429688 8.9711914,8.3999023 8.1142578,7.9711609 8.1142578,7.9716492 	"/>
	<polygon class="st5" points="8.7573242,7.3285828 8.8642578,7.2216492 9.5073242,7.8642273 9.3999023,7.9716492 
		8.7573242,7.3285828 	"/>
	<path class="st3" d="M14.9429016,8.4535828c-0.2661133,0.2666016-0.7696228,0.1943359-1.125-0.160614
		c-0.355011-0.355011-0.4268188-0.8583984-0.1607056-1.125c0.2666016-0.2661438,0.769989-0.1938782,1.125,0.1611328
		C15.1371765,7.6840515,15.2095032,8.1875,14.9429016,8.4535828L14.9429016,8.4535828z"/>
	<polygon class="st5" points="14.1395874,7.1142273 14.2471008,7.2216492 14.0326843,7.6503601 14.4613953,7.4360352 
		14.5683899,7.5429688 13.7113953,7.9716492 14.1401062,7.1142273 14.1395874,7.1142273 	"/>
	<polygon class="st5" points="14.7826843,7.7572937 14.8895874,7.8647156 14.246582,8.5072937 14.1395874,8.4003601 
		14.7826843,7.7572937 	"/>
	<path class="st3" d="M13.657196,13.9433899c-0.2661133-0.2662048-0.1943054-0.7701111,0.1611938-1.125
		c0.3548889-0.355011,0.8583984-0.4273071,1.1245117-0.1607361c0.2666016,0.2661133,0.1942749,0.7700195-0.1607056,1.125
		C14.4271851,14.1376953,13.9237976,14.2095032,13.657196,13.9433899L13.657196,13.9433899z"/>
	<polygon class="st5" points="14.996582,13.1400757 14.8895874,13.2471008 14.460907,13.0326538 14.675293,13.4613647 
		14.5683899,13.5687866 14.1395874,12.7113647 14.996582,13.1400757 14.996582,13.1400757 	"/>
	<polygon class="st5" points="14.3540039,13.7826538 14.246582,13.8895874 13.6040039,13.2471008 13.710907,13.1395874 
		14.3540039,13.7826538 	"/>
	<path class="st3" d="M8.1679688,12.6576538c0.2660828-0.266571,0.769989-0.1942749,1.125,0.1607361
		c0.3549805,0.3548889,0.4267578,0.8583984,0.160614,1.125c-0.2660828,0.2661133-0.769989,0.1943054-1.125-0.1607361
		C7.9736328,13.4271851,7.9018555,12.9237671,8.1679688,12.6576538L8.1679688,12.6576538z"/>
	<polygon class="st5" points="8.9711914,13.9971008 8.8642578,13.8895874 9.078125,13.4613647 8.6499023,13.675293 
		8.54245,13.5683899 9.3999023,13.1395874 8.9711914,13.9971008 8.9711914,13.9971008 	"/>
	<polygon class="st5" points="8.3285828,13.3540039 8.2211914,13.2471008 8.8642578,12.6040039 8.9711914,12.7108765 
		8.3285828,13.3540039 	"/>
	<path class="st3" d="M11.5556946,7.3994141c-1.7407532,0-3.1567993,1.4159851-3.1567993,3.15625
		c0,1.7407227,1.4160461,3.1567078,3.1567993,3.1567078c1.7401733,0,3.156189-1.4159851,3.156189-3.1567078
		C14.7118835,8.8153992,13.2958679,7.3994141,11.5556946,7.3994141L11.5556946,7.3994141z M11.5556946,13.7636719
		c-1.7690735,0-3.2080688-1.4389954-3.2080688-3.2080078c0-1.7685852,1.4389954-3.2080383,3.2080688-3.2080383
		c1.7684937,0,3.207489,1.4394531,3.207489,3.2080383C14.7631836,12.3246765,13.3241882,13.7636719,11.5556946,13.7636719
		L11.5556946,13.7636719z"/>
	<path class="st3" d="M11.5556946,8.1567383c-1.3228149,0-2.3989563,1.0761414-2.3989563,2.3989258
		c0,1.3226929,1.0761414,2.3989258,2.3989563,2.3989258c1.3226929,0,2.398407-1.0762329,2.398407-2.3989258
		C13.9541016,9.2328796,12.8783875,8.1567383,11.5556946,8.1567383L11.5556946,8.1567383z M11.5556946,13.0058899
		c-1.3511047,0-2.4502258-1.0992126-2.4502258-2.4502258c0-1.3511047,1.0991211-2.4501953,2.4502258-2.4501953
		c1.3510132,0,2.4501953,1.0990906,2.4501953,2.4501953C14.0058899,11.9066772,12.9067078,13.0058899,11.5556946,13.0058899
		L11.5556946,13.0058899z"/>
	<path class="st6" d="M10.3432922,12.9794922c0.0838928,0,0.1517944,0.0678711,0.1517944,0.1513672
		c0,0.0839233-0.0679016,0.151825-0.1517944,0.151825c-0.0834961,0-0.1513977-0.0679016-0.1513977-0.151825
		C10.1918945,13.0473633,10.2597961,12.9794922,10.3432922,12.9794922L10.3432922,12.9794922z"/>
	<path class="st6" d="M12.7676086,12.9794922c0.0834961,0,0.1512756,0.0678711,0.1512756,0.1513672
		c0,0.0839233-0.0677795,0.151825-0.1512756,0.151825s-0.1514282-0.0679016-0.1514282-0.151825
		C12.6161804,13.0473633,12.6841125,12.9794922,12.7676086,12.9794922L12.7676086,12.9794922z"/>
	<path class="st6" d="M11.4551086,13.1308594v0.1582031h-0.2022095c-0.2020874,0-0.2020874,0.1577148,0,0.1577148h0.2022095
		v0.1582031c0.0004883,0.1636047,0.176178,0.1835938,0.1889038,0.0137024l0.0131836-0.1708984h0.2016907
		c0.2020874,0,0.2020874-0.1578064,0-0.1578064H11.657196v-0.1582031c0-0.1577148-0.2020874-0.1577148-0.2020874,0V13.1308594
		L11.4551086,13.1308594z"/>
	<path class="st6" d="M14.4999695,11.4481812l-0.0478821,0.184082L14.4375,11.6283875l0.0028992-0.0097046
		c0.0014954-0.0069275,0.0009766-0.0176086-0.0014038-0.0323181c-0.0025024-0.0140991-0.0078125-0.0282898-0.0160828-0.0419922
		c-0.0088196-0.0135803-0.0234985-0.031189-0.0445251-0.0536804l-0.1664734-0.1792297l-0.1323242-0.0350952
		c-0.0326843-0.0082703-0.0536804-0.0097656-0.0635071-0.0048828c-0.0136719,0.0068054-0.0228882,0.0209961-0.0288086,0.042511
		l-0.0043945,0.0170898l-0.0140686-0.0039978l0.0584717-0.2236328l0.0141907,0.0034485l-0.0048828,0.0190735
		c-0.0057983,0.0219116-0.0028992,0.0395203,0.007782,0.0527039c0.0069275,0.007782,0.0249023,0.0155945,0.054718,0.023407
		l0.1245117,0.0328064l0.2587891-0.0870056c0.0307922-0.0101929,0.0497742-0.0174866,0.0581055-0.0219116
		c0.007782-0.0043945,0.019104-0.0151978,0.0332031-0.0317993c0.0038757-0.0043945,0.0068665-0.0116882,0.0097656-0.0213928
		l0.0142212,0.0039062l-0.059082,0.2250977l-0.0142212-0.0035095l0.0028992-0.0117188
		c0.0030212-0.0121765,0.0035095-0.0243835,0-0.0360718c-0.0028992-0.0116882-0.0097046-0.019104-0.0213928-0.0220032
		c-0.0093079-0.0024109-0.0284119,0.0009766-0.0567017,0.0103149l-0.1987,0.0653687l0.1351929,0.1465149
		c0.0205994,0.0214844,0.0367126,0.0342102,0.0484009,0.0375977c0.0072937,0.0014038,0.0140991,0.0014038,0.0210266-0.0004883
		c0.0067749-0.0024109,0.0126648-0.0068054,0.0175781-0.0127258c0.0047913-0.0062866,0.0092163-0.016571,0.0131226-0.030304
		l0.0141602,0.0039062V11.4481812L14.4999695,11.4481812z M14.3505859,10.3275757
		c0.0005188,0.0049133,0.0005188,0.0093079,0.0005188,0.0132141c0.0004883,0.0033875,0.0004883,0.0068665,0.0004883,0.0092773
		c0.0028992,0.0518188,0.0160828,0.090332,0.039978,0.1157227c0.023407,0.0249023,0.0527039,0.0365906,0.0879211,0.0346985
		c0.0336914-0.0014954,0.0610046-0.0137329,0.0809937-0.0361023c0.0200806-0.0224915,0.0292969-0.0508118,0.0274048-0.0860291
		c-0.0004883-0.015564-0.004425-0.0365906-0.0108032-0.0624695L14.3505859,10.3275757L14.3505859,10.3275757L14.3505859,10.3275757z
		 M14.0912781,10.7284546l-0.007782-0.1454773l0.2450867-0.1972961c-0.0014954-0.0136108-0.0023804-0.0249023-0.0028992-0.0332031
		c0-0.003418,0-0.0072937,0-0.0112c-0.0004883-0.0039062-0.0004883-0.0083008,0-0.0126953l-0.1582031,0.0083008
		c-0.0341797,0.0019836-0.0556946,0.006897-0.0634766,0.0147095c-0.0112305,0.0106812-0.0161133,0.0262756-0.0151062,0.0467834
		l0.000885,0.0209961l-0.0146179,0.0010071l-0.0121765-0.2333984l0.0145874-0.0005188l0.0015259,0.0205078
		c0.0010071,0.0230103,0.0092773,0.0391235,0.0249023,0.0479126c0.0083008,0.0054016,0.0282593,0.0068054,0.0596008,0.0054016
		l0.3515015-0.0181274c0.0341797-0.0019836,0.0551758-0.0067749,0.0629883-0.014679
		c0.0112915-0.0112,0.0161133-0.0267944,0.0151978-0.0473022l-0.0010071-0.0205078l0.0145874-0.0010071l0.0108337,0.1982422
		c0.0028992,0.058075,0.0009766,0.1005554-0.0064392,0.128479c-0.0067749,0.0278015-0.0209656,0.0521851-0.0428772,0.0722046
		c-0.0215149,0.0205078-0.0479126,0.0312805-0.0791016,0.0331726c-0.0336914,0.0014954-0.0629883-0.007782-0.0888977-0.0282898
		c-0.0258789-0.0204773-0.0448914-0.0531921-0.0575867-0.0985718l-0.1499023,0.120575
		c-0.0346985,0.0273132-0.0576172,0.0508118-0.0684204,0.0698242c-0.0106812,0.0189819-0.0170898,0.0434875-0.0184937,0.0731812
		L14.0912781,10.7284546L14.0912781,10.7284546L14.0912781,10.7284546z M14.5224915,9.7616882l-0.1186829,0.0483398
		l-0.0049438-0.0141296c0.0200195-0.0102844,0.0342407-0.0195618,0.0415344-0.0273743
		c0.0116882-0.0131836,0.019104-0.0273438,0.0214844-0.0429382c0.0020142-0.0156555-0.0004883-0.0337219-0.007782-0.0552063
		L14.4281921,9.598114l-0.3926086,0.1391602c-0.031189,0.0112305-0.0498047,0.0214844-0.0550842,0.0307922
		c-0.0074158,0.0136414-0.0074158,0.0302429-0.0005188,0.0502625l0.0063171,0.0175781l-0.0136108,0.0048828l-0.077179-0.2177429
		l0.0136719-0.0049133l0.0068054,0.0180969c0.0073242,0.0219727,0.0195007,0.0351562,0.0357056,0.0395508
		c0.0101929,0.0024109,0.0296936-0.0010071,0.0585938-0.011261l0.3925171-0.1391602l-0.0219116-0.0615234
		c-0.0087891-0.0238953-0.0162048-0.0405273-0.0234985-0.0493164c-0.0093079-0.0117188-0.0223999-0.0195312-0.0394897-0.0239258
		C14.3007812,9.3862,14.2802734,9.387207,14.2567749,9.3935242l-0.0052795-0.0146484l0.122467-0.0366211L14.5224915,9.7616882
		L14.5224915,9.7616882L14.5224915,9.7616882z M13.8353882,8.4956055l0.0879211,0.1191101l-0.1298218,0.5107422l0.2523804-0.1870117
		c0.026947-0.019989,0.0415344-0.0356445,0.0439148-0.0463562c0.0029907-0.0146484-0.0018921-0.0307617-0.0146179-0.0478821
		l-0.0111694-0.0151062l0.0117188-0.0087891l0.1132812,0.1523438l-0.012207,0.0087891l-0.0112915-0.0156555
		C14.1519165,8.9472351,14.1362,8.938446,14.1195984,8.9389343C14.1088867,8.9394226,14.0912781,8.9487,14.0668945,8.9667969
		l-0.3690796,0.273407l-0.0083313-0.0117188l0.1386108-0.5498047l-0.2695007,0.199707
		c-0.0273132,0.0200195-0.0415039,0.035675-0.0440063,0.0463867c-0.0028992,0.0146484,0.0015259,0.0307617,0.0141907,0.0478821
		l0.0116882,0.0151062l-0.0121765,0.0087891l-0.112793-0.1523438l0.0116882-0.0087891l0.011322,0.0151367
		c0.0140686,0.019043,0.0292969,0.027832,0.0463867,0.0273438c0.0101929-0.0004578,0.027771-0.0097656,0.0521851-0.027832
		l0.304718-0.2255859c0.0054016-0.0238953,0.0083008-0.0405273,0.007782-0.0507812
		c0-0.0097656-0.0028992-0.0229187-0.007782-0.0385742c-0.0028992-0.007782-0.0088196-0.0180359-0.0186157-0.0307617
		L13.8353882,8.4956055L13.8353882,8.4956055L13.8353882,8.4956055z M13.1889954,8.3764343l0.0516968-0.2329102l-0.2045898,0.125
		L13.1889954,8.3764343L13.1889954,8.3764343L13.1889954,8.3764343z M13.1811829,8.4072266L13.0087891,8.285614
		l-0.0795898,0.0488281c-0.0200195,0.0117188-0.0327148,0.0220032-0.0386047,0.0307617
		c-0.0049133,0.0068665-0.0057983,0.0151367-0.0028992,0.0244446c0.0023804,0.0097351,0.0141907,0.0229187,0.0346985,0.0400085
		l-0.0088196,0.0117188L12.773407,8.3422546l0.0087891-0.0117188c0.0209961,0.0097656,0.0361938,0.0137024,0.0448914,0.0126953
		c0.0186157-0.0029297,0.0463867-0.0151062,0.0826111-0.0380859l0.4154663-0.2553711l0.0117188,0.0083008l-0.1073914,0.4795227
		c-0.0083008,0.0385437-0.0106812,0.065918-0.0068054,0.0820312c0.0039062,0.0161133,0.0145874,0.0312195,0.0317078,0.0448914
		l-0.0083008,0.0122375l-0.1758118-0.124054l0.0087891-0.0121765c0.0181274,0.0117188,0.032196,0.0170593,0.0420227,0.016571
		c0.0097961-0.0004578,0.0176086-0.0048523,0.0224915-0.0117188c0.0068054-0.0097656,0.013092-0.027832,0.0189819-0.0551758
		L13.1811829,8.4072266L13.1811829,8.4072266L13.1811829,8.4072266z M12.5961914,8.0976257l0.0117188,0.0068359
		l-0.0908203,0.1259766l-0.4004211-0.1328125l0.004425-0.0141296l0.0195007,0.0068054
		c0.0220032,0.0068359,0.0401001,0.0048828,0.0541992-0.0058594c0.007782-0.0063171,0.0166016-0.0243835,0.0263977-0.0541992
		l0.1107788-0.3334656c0.0103149-0.0327454,0.0137329-0.0537415,0.0093384-0.0644531
		c-0.0063171-0.0146484-0.0190125-0.0249023-0.0386353-0.0312805L12.2832031,7.594696l0.0043945-0.0141602l0.2344055,0.0771484
		L12.5170898,7.671875c-0.0274048-0.0093079-0.0474243-0.0131836-0.0600891-0.011261
		c-0.0127258,0.0014648-0.0224304,0.0058594-0.0292969,0.0127258C12.4208984,7.6801453,12.4125671,7.6987,12.4022827,7.7294617
		L12.2948914,8.054657c-0.0072937,0.0209961-0.0097046,0.0361633-0.0083008,0.0454102
		c0.0010071,0.0063477,0.0043945,0.0117188,0.0097961,0.0166016c0.0057983,0.0043945,0.0253906,0.0126953,0.0585938,0.0234375
		l0.0376282,0.0126953c0.0394897,0.0132141,0.0682678,0.0190735,0.0863953,0.0185852
		c0.0180969-0.0005188,0.0360718-0.0058594,0.0541992-0.0166321C12.5513,8.1445007,12.5722656,8.1254578,12.5961914,8.0976257
		L12.5961914,8.0976257L12.5961914,8.0976257z M11.870575,7.9033203l0.0132141,0.0033875l-0.0522766,0.1459961l-0.421814-0.0166016
		l0.0004883-0.0146484l0.0205078,0.0009766c0.0229187,0.0004883,0.039978-0.0063171,0.050293-0.0205078
		c0.0057983-0.0087891,0.0097046-0.0282898,0.0107117-0.0595703l0.0137024-0.3510437
		c0.0013733-0.0342102-0.0015259-0.0556946-0.0088196-0.0644531c-0.0097961-0.0122375-0.0253906-0.0185852-0.0458679-0.0195618
		l-0.0205078-0.0004883l0.0004883-0.0151062l0.2464905,0.0097351l-0.0003967,0.0146484
		c-0.0289001-0.0014648-0.049408,0.0005188-0.0610962,0.0058594c-0.0117188,0.0049133-0.019989,0.0117188-0.0249023,0.0205078
		c-0.004425,0.0083008-0.0073242,0.0288086-0.0088196,0.0610352l-0.0131836,0.3423157
		c-0.000885,0.0219727,0.0005188,0.0375671,0.0049133,0.0458679c0.0029907,0.0058594,0.0074158,0.0102539,0.0141907,0.0131836
		c0.0063171,0.0029297,0.0272827,0.0048828,0.0625,0.0063477l0.0394897,0.0014648
		c0.0420227,0.0014648,0.0713196-0.0004883,0.0884094-0.0058594s0.0332031-0.0155945,0.0474243-0.0307617
		C11.8403015,7.960907,11.8554993,7.9364929,11.870575,7.9033203L11.870575,7.9033203L11.870575,7.9033203z M10.9081726,7.90625
		l-0.1454773-0.1889648L10.727478,7.9545898L10.9081726,7.90625L10.9081726,7.90625L10.9081726,7.90625z M10.9267883,7.9320984
		l-0.2037048,0.0541992l-0.0135803,0.092804c-0.003418,0.0224304-0.0039062,0.039032-0.0010071,0.0492859
		c0.0018921,0.007843,0.007782,0.0141602,0.0170898,0.0180664s0.0267944,0.003418,0.0527039-0.0014343l0.0033875,0.0146484
		l-0.1654968,0.0439453l-0.0039062-0.014679c0.0210266-0.0092773,0.0336914-0.0185547,0.0386353-0.0263367
		c0.0101929-0.0156555,0.0179749-0.0449524,0.0238647-0.0874023l0.0698242-0.4824219l0.0137024-0.0039368l0.2998047,0.3896484
		c0.0238953,0.03125,0.0434875,0.050293,0.0585938,0.0576172c0.0145874,0.0073242,0.0331726,0.0087891,0.0546875,0.0043945
		L11.175293,8.054657l-0.207489,0.0552063l-0.0039368-0.0141907C10.984375,8.0893555,10.9975891,8.0820312,11.0033875,8.0737
		c0.0058899-0.007782,0.0078125-0.0161133,0.0054016-0.0244141c-0.0028992-0.0112-0.0132141-0.0283203-0.0297852-0.0498047
		L10.9267883,7.9320984L10.9267883,7.9320984L10.9267883,7.9320984z M10.0395813,7.870575l0.1054077,0.1367493l-0.0117188,0.007782
		c-0.0355835-0.0282898-0.0683594-0.0454102-0.0990601-0.0512695C9.9897156,7.9550476,9.9462891,7.964325,9.9038086,7.992157
		C9.8457031,8.0297852,9.815918,8.0815125,9.8153992,8.1474304c0,0.0551758,0.0171204,0.1098633,0.0522766,0.1636047
		c0.0282898,0.043457,0.0625,0.0780945,0.1025085,0.1029968c0.0401001,0.0249023,0.0791016,0.0371399,0.1177063,0.0361633
		c0.0380859-0.0010071,0.0712891-0.0107422,0.1000977-0.0293274c0.0170898-0.0107117,0.0316772-0.0234375,0.0448914-0.0380859
		s0.0239258-0.0307617,0.0332031-0.0483398l-0.0853882-0.1322937c-0.0152283-0.0229797-0.0263977-0.0366211-0.0346985-0.0415344
		c-0.007782-0.0048828-0.0166016-0.0068054-0.0263977-0.0058594c-0.0097046,0.0009766-0.0238953,0.0073242-0.042511,0.0195618
		l-0.0083008-0.0127258l0.1773071-0.1147156l0.0083008,0.0126648l-0.0083008,0.0053711
		c-0.0176086,0.011261-0.0259094,0.0249023-0.0249023,0.0410156c0.0010071,0.011261,0.0093079,0.0292969,0.0249023,0.0537415
		l0.0907898,0.1396179C10.320282,8.3300476,10.3013,8.3569031,10.280304,8.3798523
		c-0.0210266,0.0229797-0.0469055,0.0439453-0.0776978,0.0639954c-0.0883179,0.0575867-0.1738281,0.0727234-0.2563171,0.0454102
		c-0.0620422-0.02005-0.1108398-0.058136-0.1470032-0.1133118C9.7734375,8.3354492,9.7578125,8.2904968,9.753418,8.2411804
		c-0.0054016-0.0585938,0.0043945-0.112793,0.0288086-0.1620789c0.0209961-0.0415344,0.0541992-0.0766907,0.0996094-0.1064758
		c0.0170593-0.0107422,0.0327148-0.019043,0.0483398-0.0253601C9.9453125,7.9414062,9.96875,7.9345398,9.9995117,7.9277039
		c0.0155945-0.003418,0.0253601-0.0063477,0.0297546-0.0092773c0.004425-0.0029297,0.0068359-0.0073242,0.0073242-0.0131836
		c0.0005188-0.0058594-0.0028992-0.0146179-0.0093079-0.0263672L10.0395813,7.870575L10.0395813,7.870575L10.0395813,7.870575z
		 M8.8798828,9.6757812c0.0019531-0.0043945,0.003418-0.0087891,0.0048828-0.0122375
		c0.0014648-0.003418,0.0029297-0.0063477,0.0033875-0.0082703C8.9067383,9.6064148,8.9101257,9.565918,8.898407,9.5331726
		c-0.0112-0.0327148-0.0336914-0.0551453-0.065918-0.0673828c-0.0317078-0.012207-0.0615234-0.012207-0.0888367,0
		C8.7158203,9.4784851,8.6958008,9.500946,8.6835938,9.5336914C8.6777344,9.5483398,8.672821,9.5688477,8.6679688,9.5951843
		L8.8798828,9.6757812L8.8798828,9.6757812L8.8798828,9.6757812z M9.2792664,9.414032L9.2275391,9.5497742L8.9238281,9.6318359
		C8.9194336,9.6445007,8.9160156,9.6552734,8.9125977,9.6630554c-0.0010071,0.003418-0.0024719,0.0068665-0.0039368,0.0102539
		C8.907196,9.6772461,8.9052734,9.6811218,8.9038086,9.6850281l0.1479492,0.0561523
		C9.0834961,9.753418,9.10495,9.7578125,9.1152039,9.753418c0.0146484-0.0054016,0.0259094-0.0175781,0.0327454-0.0366211
		l0.0078125-0.0195618l0.0136414,0.0053711l-0.0829773,0.217804L9.0727234,9.9154968l0.0073242-0.0195312
		c0.0083313-0.0214844,0.0068665-0.0395508-0.0033875-0.0541992C9.0708008,9.8339539,9.0532227,9.8241882,9.0243835,9.8129578
		l-0.329071-0.125c-0.0322266-0.0121765-0.0532532-0.016571-0.0639648-0.0121765
		C8.6166992,9.6811218,8.605957,9.6933594,8.5986328,9.7128601l-0.0073242,0.019043L8.5771484,9.726532l0.0707703-0.1855164
		C8.6684265,9.4872742,8.6874695,9.4487305,8.7050476,9.426239c0.0180969-0.0229187,0.0405579-0.039032,0.0688477-0.0488281
		c0.027832-0.0097656,0.0566711-0.0092468,0.085968,0.0019531c0.0312195,0.0117188,0.0541992,0.0322266,0.0698242,0.0615234
		C8.9448242,9.4701843,8.9492188,9.507782,8.9423523,9.5541992l0.1860352-0.0493469
		C9.1708679,9.4936218,9.2011719,9.4814148,9.21875,9.4682312s0.0332031-0.0326843,0.046875-0.0595703L9.2792664,9.414032
		L9.2792664,9.414032L9.2792664,9.414032z M8.4902344,10.4091797c-0.0029297,0.0482788,0.0126648,0.0888062,0.0473633,0.1200867
		c0.0429382,0.0391235,0.1079102,0.0610046,0.1943359,0.0658875c0.0888367,0.0054321,0.1582031-0.0097656,0.2080078-0.0453796
		c0.0380859-0.026886,0.0585938-0.0643921,0.0615234-0.1122742c0.0024109-0.0513-0.0146484-0.0942383-0.0527344-0.1299133
		c-0.0380859-0.0355835-0.1001282-0.055603-0.1860352-0.0604858c-0.092804-0.0054321-0.1635742,0.0087891-0.2114563,0.0428772
		C8.5136719,10.3173828,8.4931641,10.3569031,8.4902344,10.4091797L8.4902344,10.4091797L8.4902344,10.4091797z
		 M8.4614258,10.3998718c0.0039062-0.0707703,0.0341797-0.1304016,0.090332-0.1791687
		c0.0566101-0.0488281,0.125-0.0708313,0.2055664-0.0664368c0.082489,0.0049133,0.1498718,0.034729,0.2011414,0.0898132
		c0.0517883,0.0551758,0.0757141,0.1202087,0.0713196,0.194397c-0.0043945,0.074707-0.0341797,0.1362-0.0903625,0.1841125
		c-0.0561218,0.0477905-0.1264343,0.0692749-0.210907,0.0648804c-0.0864563-0.0048828-0.155304-0.0386047-0.2065735-0.1005859
		C8.4775391,10.5331726,8.4570312,10.4706726,8.4614258,10.3998718L8.4614258,10.3998718L8.4614258,10.3998718z
		 M8.5951843,11.3397827l0.2085266-0.0493164l-0.0229492-0.0966797c-0.0054016-0.0223999-0.0141907-0.0371094-0.0263977-0.0454102
		c-0.0121765-0.007782-0.0332031-0.0101929-0.0629578-0.0062866l-0.003418-0.0147095l0.179657-0.0429077l0.0034485,0.0145874
		c-0.0205078,0.0054321-0.0351562,0.011322-0.043457,0.019104c-0.0083313,0.0072937-0.0141907,0.0161133-0.0166016,0.0258179
		c-0.0029297,0.0102844-0.0019836,0.0245056,0.0019531,0.0419922l0.0234375,0.0967102l0.1665039-0.0400085
		c0.0268555-0.0064087,0.0439453-0.012207,0.0517578-0.0176086c0.0058594-0.0038757,0.0102539-0.0106812,0.0126953-0.0205078
		c0.0038757-0.0126648,0.0038757-0.0253906,0.000946-0.0380859l-0.0043945-0.0190125l0.0141907-0.003479l0.0541992,0.2276001
		L9.1181335,11.375L9.113739,11.3559875c-0.0053406-0.0220032-0.0155945-0.0362244-0.0307617-0.0430298
		c-0.0097351-0.0043945-0.0307617-0.0024719-0.0624695,0.0049438l-0.3422852,0.0814819
		c-0.0268555,0.0064087-0.0444336,0.0126953-0.0517578,0.0180969c-0.0063782,0.0038757-0.0102539,0.0107117-0.0131836,0.019989
		c-0.0034485,0.0126953-0.0039062,0.0254211-0.0010071,0.0380859l0.004425,0.0185242l-0.0141907,0.0039062l-0.0942078-0.3945312
		l0.1152344-0.0331726l0.003418,0.0137024c-0.0229797,0.0126953-0.0395508,0.0249023-0.0488281,0.0365906
		c-0.0097656,0.012207-0.0151672,0.0249023-0.0175781,0.0396118c-0.0019836,0.0140991,0.0004883,0.0350952,0.0068054,0.0628967
		L8.5951843,11.3397827L8.5951843,11.3397827L8.5951843,11.3397827z"/>
	<path class="st3" d="M13.2851868,11.0189819c0.0531921-0.0136108,0.1405945-0.0024109,0.1405945-0.0024109
		s0.0078125,0.0361023-0.0151978,0.0483093c0.0253906,0.0151978,0.1177063,0.0102844,0.1177063,0.0102844
		s-0.0355835,0.0278015-0.0537109,0.0386047c0.0332031,0.003418,0.0742188,0.0464172,0.0742188,0.0464172
		s-0.0765991,0.0126953-0.1098022-0.0054321c0.0205078,0.0410156,0.0174866,0.0766296,0.0174866,0.0766296
		s-0.1239929-0.0307007-0.1688843-0.1123047"/>
	<path class="st6" d="M13.4657898,11.2440796l-0.0117188-0.0023804c-0.0048828-0.0015259-0.1289062-0.0327454-0.1752625-0.1177368
		l0.0175781-0.0096741c0.0342102,0.0614929,0.1177063,0.0931702,0.1499023,0.1034851
		c-0.0010071-0.0132141-0.0048828-0.0352173-0.0166016-0.0585938l-0.0141907-0.0282898l0.0278931,0.0150757
		c0.0190125,0.0098267,0.0566101,0.0093384,0.082489,0.0063171c-0.0147095-0.012207-0.0357056-0.026825-0.0522766-0.0283203
		l-0.0302124-0.0028992l0.0258179-0.0160828c0.0073853-0.004425,0.0180664-0.0117188,0.0278931-0.0185852
		c-0.0307922,0-0.073822-0.0024109-0.0913086-0.0127258l-0.0162048-0.0087891l0.0162048-0.0086975
		c0.0107117-0.0058899,0.0116882-0.0209961,0.0112-0.030304c-0.0224915-0.0025024-0.0878906-0.0078125-0.1293945,0.0028992
		l-0.0049133-0.0195007c0.0541992-0.0137024,0.1405945-0.0033875,0.1445007-0.0029907l0.0074158,0.0010071l0.0013733,0.0068665
		c0,0.0014038,0.0054321,0.0278015-0.0062866,0.046814c0.0249023,0.0054016,0.0708008,0.0058899,0.098114,0.0043945
		l0.0326843-0.0018921l-0.0258179,0.0200195c-0.0009766,0.0009766-0.0195923,0.0145874-0.0361633,0.026886
		c0.0292969,0.013092,0.0561829,0.0409851,0.0576782,0.0423889l0.013092,0.0142212l-0.0184937,0.0028992
		c-0.0028992,0.0004883-0.0551758,0.0087891-0.0942993,0.0014954c0.0122986,0.0336914,0.0103149,0.0595703,0.0103149,0.0609741
		L13.4657898,11.2440796L13.4657898,11.2440796z"/>
	<path class="st3" d="M13.0770874,10.9491882c-0.0302124,0.0741882-0.250885-0.0644226-0.250885-0.0644226
		s0.0970764,0.1548157,0.243103,0.171814"/>
	<path class="st6" d="M13.0683899,11.0663757c-0.1495056-0.0176086-0.2471008-0.1694031-0.2509766-0.1758118l0.0140686-0.0140991
		c0.0450134,0.0283203,0.1729126,0.098114,0.2211914,0.0820007c0.0074158-0.0023804,0.0122375-0.0063782,0.0147095-0.0131836
		l0.0189819,0.0072937c-0.0048828,0.0126953-0.0140686,0.0210266-0.0272522,0.0254211
		c-0.0474243,0.0151978-0.1392212-0.0283203-0.1944275-0.0585938c0.0386047,0.0453796,0.1124268,0.1161804,0.2055969,0.1269531
		L13.0683899,11.0663757L13.0683899,11.0663757z"/>
	<polygon class="st3" points="10.3178711,12.3661804 12.9057922,12.3661804 13.1054688,12.2070007 12.7724915,12.027771 
		12.2602844,11.8534546 12.0551758,11.7406616 11.6757812,11.7611694 11.3583984,11.9306946 10.9228821,11.9813843 
		10.820282,12.0995789 10.4975891,12.125 9.9902344,12.1146851 10.8353882,12.2479858 10.1387024,12.2123718 10.3178711,12.3661804 
		10.3178711,12.3661804 	"/>
	<path class="st6" d="M10.3217773,12.355957h2.5805054l0.1851196-0.1469727l-0.3197937-0.1724243l-0.5108337-0.1732788
		l-0.204071-0.1123047l-0.3740234,0.0204773l-0.3193054,0.1689453l-0.4316711,0.0507812l-0.1025085,0.1181946l-0.0039062,0.0004883
		l-0.3233032,0.0254211l-0.3592834-0.0073853l0.6987,0.1103821l-0.0024109,0.0200195l-0.6669922-0.0342407L10.3217773,12.355957
		L10.3217773,12.355957z M12.9091797,12.3759766h-2.594696l-0.2050781-0.175293l0.5336609,0.0272827L9.9887695,12.125
		l0.0014648-0.0200195l0.5073547,0.0101929l0.3178101-0.0253906l0.1021118-0.1176147l0.0038757-0.0004883l0.4341125-0.0513
		l0.3197937-0.1694031l0.3822937-0.0205078l0.0025024,0.0014038l0.2050171,0.112793l0.5107727,0.1734314l0.348114,0.1875
		L12.9091797,12.3759766L12.9091797,12.3759766z"/>
	<path class="st3" d="M11.7118835,11.6229858c-0.3241882-0.1743164-0.4188843,0.2548828-0.5585938,0.3588867
		c0.1884766,0.0318298,0.3305969-0.144989,0.492218-0.230896c0.1220703,0.3334961,0.3148804,0.112793,0.3148804,0.112793
		s0.2012024,0.3188171,0.468811,0.1742859c0.0732117,0.0552368,0.1538086,0.0049438,0.1538086,0.0049438
		s0.0976868,0.0179749,0.1181641-0.0254211c0.0512085,0.0180054,0.1074219-0.0463867,0.1074219-0.0463867
		s0.1112976,0.0014954,0.1333008-0.0562134c0.164978,0.0292969,0.3843079-0.3383179,0.3843079-0.3383179l0.0663757-0.1279907
		l0.0975952-0.0204773c0,0,0.0064087-0.0639343-0.0463867-0.0615234c-0.000885-0.0385742-0.0345764-0.059082-0.0820007-0.0513
		c0.0093079-0.0228882-0.0253906-0.0409851-0.0253906-0.0409851c-0.0923157,0.0230103-0.0976257,0.2564087-0.0976257,0.2564087
		s-0.1611938,0.1229858-0.2201843,0.1537781c-0.0025024-0.1333008-0.2255859-0.3139954-0.1791687-0.3999023
		c0.0458679-0.0859985,0.1908875,0.1318054,0.3177795,0.0923157c0.1264954-0.0396118,0.1889954-0.2046204,0.194397-0.3330994
		c-0.0357056-0.0869141-0.1231079-0.2304077-0.1231079-0.2304077l-0.0814819-0.0054016l-0.0718079-0.1742859
		c0,0-0.1514282,0.0986023-0.1488953,0.1846008c0.0028992,0.0858765,0.1590881,0.1590881,0.1590881,0.1590881
		s-0.0903015,0.0562134-0.1742859,0.0307922c-0.0078125,0.0869141,0.1026001,0.0703125,0.1435852,0.0713196
		c0.0205078,0.0629883,0.0820007,0.0975952,0.0820007,0.0975952s0.0381165,0.0961914-0.0614929,0.0870056
		c-0.1001282-0.0088196-0.217804-0.2392883-0.3588867-0.1333008c-0.1499329,0.112793,0.066864,0.3177795,0.066864,0.3177795
		s-0.1322937,0.069397-0.2103577,0.2460938C12.2538757,11.4257812,12.0668945,11.5512695,11.7118835,11.6229858
		L11.7118835,11.6229858L11.7118835,11.6229858z"/>
	<path class="st6" d="M11.9619141,11.8466797l0.0072937,0.0117188c0.0078735,0.0126648,0.198761,0.309082,0.4555969,0.1708679
		l0.0053711-0.0033875l0.0053101,0.0039062c0.0664978,0.050293,0.1391907,0.0067749,0.1420898,0.0048828l0.0035095-0.0025024
		l0.0039062,0.0010071c0.0249023,0.0043945,0.0926819,0.0098267,0.1069031-0.019989l0.0039062-0.0083008l0.0087891,0.0028992
		c0.0439148,0.0155945,0.0957031-0.0424805,0.0961914-0.0429993l0.003418-0.003418h0.0043945
		c0.0033875,0,0.1049805,0.0005188,0.1235046-0.0497742l0.0033875-0.0078125l0.0079041,0.0015259
		c0.0062866,0.0009766,0.012207,0.0013733,0.0180054,0.0013733c0.1542969,0,0.3540039-0.3315125,0.3559875-0.3348999
		l0.0683289-0.131897l0.0942688-0.0200195c0-0.0092773-0.0019836-0.0253906-0.0107727-0.0345764
		c-0.0057983-0.0064087-0.0136414-0.0087891-0.0249023-0.0083008l-0.0101929,0.0003967l-0.0005188-0.0102234
		c0-0.0131836-0.0049133-0.0238647-0.0141907-0.0312805c-0.0127258-0.0106812-0.0327148-0.0140991-0.055603-0.0101929
		l-0.0176086,0.0024109l0.0062866-0.0161133c0.004425-0.0112-0.0106812-0.0220032-0.0174866-0.0263977
		c-0.0663757,0.0224915-0.0845032,0.184082-0.0860291,0.245697v0.0048218l-0.0038757,0.0029907
		c-0.0063171,0.0047913-0.1625977,0.1234741-0.2217102,0.1542969l-0.0145874,0.007782l-0.0004883-0.0166016
		c-0.0010376-0.0605774-0.0513-0.1333008-0.0996094-0.203186c-0.0541992-0.0776062-0.105011-0.1513062-0.0780945-0.2015991
		c0.0067749-0.0126953,0.0166016-0.0210266,0.0287781-0.0239258c0.0298157-0.0078735,0.0674133,0.0180359,0.1112976,0.0473328
		c0.0576172,0.0385742,0.1235352,0.082489,0.1831055,0.0639648c0.1152039-0.035675,0.1812134-0.1884766,0.1875-0.3212891
		c-0.0316772-0.0770874-0.1034851-0.1977844-0.1185913-0.2226868l-0.0830994-0.0053101l-0.0693054-0.1684875
		c-0.0331726,0.0234985-0.1356812,0.1021118-0.1337891,0.1690063c0.0025024,0.0780945,0.1513977,0.1488647,0.1528931,0.1499023
		l0.0169983,0.007782l-0.0155945,0.0097046c-0.0038757,0.0025024-0.0863953,0.0538025-0.1699219,0.0351868
		c0.0010376,0.0117188,0.004425,0.0209961,0.0112305,0.0282898c0.0209656,0.022522,0.069397,0.0215149,0.101593,0.0205078
		c0.0078125,0,0.0151062-0.0004883,0.0209961,0h0.0073242l0.0024719,0.0069275
		c0.0184937,0.0581055,0.0766296,0.0912781,0.0771179,0.0917969l0.0028992,0.0014038l0.0014954,0.0033875
		c0.0010071,0.0019836,0.0189819,0.049408-0.0028992,0.0791016c-0.0132141,0.0176086-0.0357056,0.0249023-0.0689087,0.0220032
		c-0.039978-0.0033875-0.0805054-0.0376282-0.1229858-0.0742188c-0.0718079-0.0605774-0.1460266-0.1230774-0.2285156-0.0609741
		c-0.0307922,0.0228882-0.0469055,0.0512085-0.0488892,0.0848999c-0.0057983,0.1005859,0.1148071,0.2162781,0.1161804,0.2172852
		l0.0103149,0.0098267l-0.0127258,0.0067749c-0.0009766,0.0005188-0.1298828,0.0697937-0.2055664,0.2407227l-0.0053101,0.0126648
		l-0.0103149-0.0087891c-0.2562866-0.2162781-0.4219055-0.1748047-0.671875-0.1117859
		c-0.0566101,0.0141907-0.1152039,0.0288086-0.1806335,0.0419922l-0.003479,0.0009766l-0.0033875-0.0019836
		c-0.2211914-0.1190796-0.3309937,0.0532837-0.4277039,0.2046204c-0.0342102,0.0536804-0.0664062,0.1049805-0.1016235,0.1381836
		c0.1167297,0.0098267,0.2153931-0.0619812,0.3189087-0.137207c0.0464172-0.0336914,0.0947266-0.0687866,0.1439819-0.0952148
		l0.0103149-0.0053711l0.0039062,0.0108032c0.0390015,0.1058655,0.0884094,0.1650085,0.1470032,0.1756897
		c0.0791016,0.0147095,0.1502991-0.0653992,0.1513062-0.0663757L11.9619141,11.8466797L11.9619141,11.8466797z
		 M12.2886047,12.0853882c-0.0674133,0-0.1347961-0.0239258-0.2002258-0.0722046
		c-0.0668945-0.0492859-0.1123047-0.1089172-0.1293945-0.1333008c-0.0230103,0.0228882-0.0878906,0.0775757-0.1610718,0.0635071
		c-0.0640259-0.0118103-0.1167297-0.0718079-0.1578369-0.1778259c-0.0448914,0.0249023-0.0888062,0.0572205-0.1317749,0.0878906
		c-0.1083984,0.0791016-0.2207336,0.1611328-0.3563843,0.1382446l-0.0235291-0.0039062l0.019104-0.0142212
		c0.0389709-0.0292969,0.075592-0.0868835,0.1146851-0.1478882c0.0962219-0.1509094,0.2153015-0.3374023,0.4512024-0.2134094
		c0.0635071-0.0126953,0.1206055-0.0272827,0.1762085-0.0409851c0.2437134-0.0614929,0.4208984-0.1065063,0.6796875,0.1069031
		c0.0660095-0.1405945,0.1636047-0.2104187,0.1973267-0.2314148c-0.0298157-0.0307922-0.1182251-0.1304016-0.1128235-0.2236938
		c0.0020142-0.0400085,0.0209961-0.0737,0.0566101-0.1000977c0.0953064-0.0716858,0.1796875-0.0009155,0.2539978,0.0621033
		c0.0400085,0.0336914,0.0780945,0.0658875,0.1117859,0.0692749c0.0249023,0.0024109,0.0420227-0.0023804,0.0503235-0.0141907
		c0.013092-0.0170898,0.0047913-0.0467834,0.0018921-0.0560913c-0.0132141-0.0083008-0.0604858-0.0404968-0.0809937-0.0942993
		c-0.0039062,0-0.0083008,0-0.0131836,0.0004883c-0.0357361,0.0005188-0.0894165,0.0020142-0.1167297-0.0272827
		c-0.0131836-0.0137329-0.0186157-0.0327148-0.016571-0.0556946l0.0009766-0.0127258l0.012207,0.0039062
		c0.058075,0.0176086,0.1206055-0.0068054,0.1494141-0.0209961c-0.042511-0.0223999-0.1450195-0.0848999-0.1470337-0.1586914
		c-0.0028992-0.090332,0.1465149-0.1889038,0.152832-0.1932983l0.0102844-0.0068054l0.0741882,0.1795959l0.0811157,0.0054016
		l0.0023804,0.0043945c0.0039062,0.0059204,0.0878906,0.1450195,0.1240234,0.2319031l0.0004883,0.0019836v0.0024109
		c-0.0057983,0.136322-0.0712891,0.3013306-0.2015991,0.3423157c-0.0688782,0.0220032-0.1420898-0.0273132-0.2006836-0.0664062
		c-0.0386353-0.0258789-0.073822-0.050293-0.0952148-0.0448914c-0.0043945,0.0009766-0.0102844,0.0033875-0.0162048,0.0141907
		c-0.0209961,0.0390015,0.0269165,0.1079102,0.0772095,0.1800842c0.0463867,0.066925,0.093689,0.1353149,0.1019897,0.1983337
		c0.0596313-0.0352173,0.1788025-0.1250305,0.2017212-0.1426392c0.0014954-0.0351868,0.0131836-0.237793,0.1049805-0.2607727
		l0.0039062-0.000885l0.0033875,0.0018616c0.012207,0.0064087,0.0298157,0.0205078,0.032196,0.0386047
		c0.0234985-0.0023804,0.0445251,0.0039062,0.0585938,0.0161133c0.011322,0.0087891,0.0186157,0.0214844,0.0210266,0.0365906
		c0.012207,0.0010071,0.0224915,0.0058899,0.0307922,0.0142212c0.019989,0.0209656,0.0166016,0.0565796,0.0161133,0.0581055
		l-0.0005188,0.0072937l-0.1000977,0.0209961l-0.0643921,0.1239929c-0.0087891,0.0151978-0.2076111,0.3452759-0.3740845,0.3452759
		c-0.0043945,0-0.0088196,0-0.013092-0.0004883c-0.0264282,0.0498047-0.1133423,0.0546875-0.1348267,0.0551147
		c-0.0126953,0.0132141-0.0596008,0.058197-0.1074219,0.0478821c-0.0263977,0.0371094-0.1015625,0.0273132-0.120575,0.0244141
		c-0.0166016,0.0087891-0.0888977,0.042511-0.156311-0.0039062C12.382782,12.0737,12.3353882,12.0853882,12.2886047,12.0853882
		L12.2886047,12.0853882z"/>
	<path class="st3" d="M11.2460938,11.1669922c0.1333008,0.1254883,0.039978,0.3339844,0.0922852,0.3739929
		c0.0552368,0.0424805,0.1333008-0.0205078,0.1333008-0.0205078c0.1395874,0.0370789,0.3891296-0.0409851,0.3891296-0.0409851
		c0.1098938,0.0614929,0.0663757-0.0293274,0.1333008-0.0253906c0.059082,0.1508789,0.2563782,0.1229858,0.2563782,0.1229858
		s-0.1807251-0.1845093-0.2920227-0.2358093c-0.0858765,0.0513-0.3358765,0.0591125-0.3793945,0.0513
		c-0.0482788-0.0087891-0.0180969-0.0679016-0.0409851-0.1026001c0.0917969-0.0892944,0.0189819-0.3114929-0.0308228-0.3945007
		C11.3036804,10.7597961,11.0604858,10.992157,11.2460938,11.1669922L11.2460938,11.1669922L11.2460938,11.1669922z"/>
	<path class="st6" d="M11.9901733,11.4437866c0.0015259,0,0.0030212,0,0.004425,0l0.006897,0.0004883l0.0018921,0.0058899
		c0.0444946,0.1133118,0.1729126,0.1201172,0.2240906,0.1182251c-0.0453796-0.0445251-0.1791687-0.1724243-0.2690125-0.2159119
		c-0.0917664,0.0498047-0.3354797,0.0581055-0.3813782,0.0498047c-0.0370789-0.0063171-0.0379944-0.0380249-0.0384827-0.0628967
		c-0.0005188-0.0162048-0.0014954-0.0323181-0.0088196-0.0440063l-0.0049133-0.0067749l0.0064392-0.0059204
		c0.0873718-0.0854187,0.0145874-0.3016968-0.0313416-0.3804016c-0.1059875-0.0688171-0.2211914-0.0335999-0.2758789,0.0346985
		c-0.042511,0.0541992-0.0575867,0.1410828,0.0288086,0.2227173l0,0c0.0854797,0.0804749,0.0815735,0.1932983,0.0785828,0.2753906
		c-0.0014038,0.0462952-0.0028992,0.0858765,0.0126953,0.098114c0.0484009,0.0370789,0.1202087-0.0200195,0.1211243-0.0205078
		l0.0038757-0.003418l0.0049133,0.0014038c0.1353149,0.0361938,0.3814087-0.0400085,0.3838196-0.0410156l0.0038757-0.000885
		l0.0039062,0.0018921c0.0575867,0.032196,0.0650024,0.0200195,0.0757141,0.0033875
		C11.9496765,11.4608765,11.9608765,11.4437866,11.9901733,11.4437866L11.9901733,11.4437866z M12.2153015,11.5888977
		c-0.0610046,0-0.1806335-0.0147095-0.2280273-0.1250305c-0.0160828,0.0009155-0.0214844,0.0097046-0.0288086,0.0210266
		c-0.0160828,0.0249023-0.0336914,0.0409851-0.0985718,0.0057983c-0.0341797,0.0102844-0.2530212,0.0737915-0.386322,0.0409851
		c-0.0174866,0.0126953-0.0873718,0.0591125-0.141571,0.0176086c-0.0239258-0.0184937-0.0224304-0.0610046-0.0205078-0.1147156
		c0.0025024-0.0785828,0.0064087-0.1860962-0.0722046-0.2602844l0,0c-0.0967102-0.0913086-0.077179-0.1914062-0.0308228-0.2495117
		c0.0605469-0.0766907,0.1880188-0.1156921,0.304718-0.0381165l0.0028992,0.003418
		c0.054718,0.0913086,0.1210938,0.3062134,0.0346985,0.4014282c0.0068054,0.0150757,0.0072937,0.0316772,0.0078125,0.046875
		c0.0010071,0.0292969,0.003418,0.0404968,0.022522,0.0439148c0.0433655,0.0082703,0.2894592-0.0005188,0.3719788-0.0498047
		l0.0043945-0.0028992l0.0049133,0.0023804c0.1117859,0.0513,0.2875671,0.2305298,0.2954102,0.2378235l0.0136719,0.0141602
		l-0.0194702,0.0029297C12.2514954,11.5868835,12.2367859,11.5888977,12.2153015,11.5888977L12.2153015,11.5888977z"/>
	<path class="st3" d="M10.3598938,10.7919922c-0.1674805,0.0454102-0.4585266-0.2163086-0.5942993-0.1156921
		c-0.1357117,0.1000671-0.0722351,0.3475647,0.0180969,0.4706726c0.0883789,0.1206055-0.129425,0.1640015-0.1885071,0.2358093
		c-0.0551758,0.0668945,0.0180664,0.1445007,0.0180664,0.1445007l0.0620422,0.0401001l-0.0112305,0.0907898l0.0326843,0.1083984
		c0,0,0.0298157,0.0263977,0.0400696-0.0072937c0.027832,0.0282898,0.0029297,0.1094055,0.0722656,0.1195984
		c-0.0249023-0.0517883,0.0180359-0.1958008,0.0180359-0.1958008s0.121582,0.0093079,0.1523438-0.0434875
		c0.0308228-0.0521851-0.0287781-0.1665039-0.0287781-0.1665039h0.0361023
		c-0.0410156-0.0278015-0.054657-0.1123047-0.054657-0.1123047s0.1689453-0.0531921,0.1669617-0.1811218
		c-0.0018921-0.1278687-0.2734375-0.2637024-0.1738281-0.3295898c0.110321-0.0737,0.3022461,0.1899109,0.4673157,0.0688171
		c0.1631165-0.1201172,0.0581055-0.0039062,0.0581055-0.0039062S10.5249023,10.7475586,10.3598938,10.7919922L10.3598938,10.7919922
		L10.3598938,10.7919922z"/>
	<path class="st6" d="M9.7319031,11.7401733l0.0117188,0.012207c0.0127258,0.012207,0.0161133,0.0317993,0.02005,0.0518188
		c0.0048523,0.0297852,0.0102539,0.050293,0.0302734,0.0600891c-0.0122375-0.0635071,0.0219727-0.1783142,0.0234375-0.1836243
		l0.0024109-0.007782l0.0083313,0.0003967c0.0317383,0.0025024,0.1201172,0,0.1425476-0.0385132
		c0.0229797-0.039093-0.0131836-0.1264648-0.0292969-0.1567993l-0.007782-0.0150757h0.0282898
		c-0.0287781-0.0371094-0.039032-0.097229-0.0395508-0.1006165l-0.0014648-0.0083008l0.0083313-0.0028992
		c0.0014648-0.0004883,0.1615906-0.0527954,0.1596985-0.1714172c-0.0010071-0.0546875-0.0585938-0.1147766-0.109436-0.1679688
		c-0.0483398-0.0498047-0.0903015-0.0932007-0.0864258-0.1318054c0.0019836-0.0151978,0.0107727-0.0278015,0.0263672-0.0380859
		c0.0537109-0.0361023,0.1225891-0.0005188,0.1957703,0.0370789c0.0909119,0.0469055,0.1846008,0.0957031,0.2715149,0.0317078
		c0.0317993-0.023407,0.0537109-0.0379944,0.0683899-0.0462952c0.0033875-0.0209961,0.0033875-0.0429993-0.007782-0.0562134
		c-0.0171204-0.0195007-0.0552063-0.0141907-0.0845032-0.0063171l0,0c-0.0810852,0.0214233-0.1875-0.0239868-0.2904968-0.0683594
		c-0.1142883-0.0488281-0.2319946-0.0996094-0.3003235-0.0493164c-0.1269531,0.093689-0.073761,0.3295898,0.019989,0.4570007
		c0.019043,0.0259094,0.0263672,0.0513,0.0215149,0.074707c-0.0102539,0.0479126-0.0673828,0.0805969-0.1225891,0.1117859
		c-0.0361023,0.0205078-0.0697937,0.0401001-0.0878906,0.0615845c-0.0487976,0.0595093,0.0171204,0.1308289,0.0180969,0.1313171
		L9.6860352,11.5625l-0.011261,0.0946655l0.0307617,0.1035156c0.0043945,0.003479,0.011261,0.006897,0.0151672,0.0054016
		c0.003418-0.0010071,0.0053406-0.0063171,0.0063477-0.0097961L9.7319031,11.7401733L9.7319031,11.7401733z M9.8266602,11.891571
		l-0.019043-0.0023804c-0.0512695-0.0079041-0.058136-0.0484009-0.0639954-0.081604
		c-0.0019226-0.0101929-0.0038757-0.0205078-0.0068054-0.0282898c-0.0034485,0.0033875-0.0073242,0.0053711-0.0107727,0.0062866
		c-0.016571,0.0043945-0.0341797-0.0097046-0.0361023-0.0112l-0.0019836-0.0018921l-0.0341492-0.1138306l0.0004578-0.0019836
		l0.0097961-0.0844116l-0.0561523-0.0361633c-0.0292969-0.0307007-0.0688477-0.1010132-0.0205078-0.1601257
		c0.019989-0.0243835,0.0556641-0.0444946,0.0932312-0.065918c0.0512695-0.0292969,0.1045227-0.0595703,0.112793-0.0986938
		c0.0039368-0.0175781-0.0019226-0.0370789-0.0175781-0.0581055c-0.0990906-0.1346741-0.1528015-0.3842773-0.0161133-0.4852905
		c0.0776367-0.0575867,0.2012024-0.0043945,0.320343,0.046814c0.1000977,0.0429993,0.203125,0.0878906,0.2773132,0.0673828l0,0
		c0.0508118-0.0135803,0.0859985-0.0092773,0.105011,0.0127258c0.0136719,0.0160828,0.0160828,0.0380859,0.0141907,0.0595703
		c0.0078125-0.0014954,0.0112,0.0010071,0.0140991,0.0039062c0.0043945,0.0054321,0.012207,0.0137024-0.0327148,0.0635071
		l-0.016571-0.0108032c0.0019836-0.0047913,0.0043945-0.0112,0.0067749-0.0189819
		c-0.0117188,0.007782-0.0278015,0.0189819-0.0498047,0.0346985c-0.0965881,0.0716858-0.200592,0.0174866-0.2923889-0.0298157
		c-0.0708008-0.0365906-0.1313782-0.0679016-0.1753235-0.0386047c-0.0107422,0.0073242-0.0161133,0.0146179-0.0171204,0.0238953
		c-0.0033875,0.0288086,0.0376282,0.0708313,0.0805664,0.1157227c0.0532837,0.0552063,0.1142578,0.1181946,0.1152954,0.1816711
		c0.0013733,0.1182251-0.1299438,0.1748352-0.1655579,0.1880188c0.0048523,0.0209961,0.019043,0.0765991,0.0487976,0.0971069
		l0.0268555,0.0186157H9.9667969c0.0151367,0.0336914,0.0477905,0.1161804,0.0214539,0.1615906
		c-0.0292969,0.0492859-0.1245117,0.050293-0.1532898,0.0487976c-0.0126953,0.0439758-0.034668,0.1435852-0.0166321,0.1806946
		L9.8266602,11.891571L9.8266602,11.891571z"/>
	<path class="st3" d="M11.2250977,8.9970398c-0.2240906-0.0932312-0.6820984-0.0990906-0.9380188-0.2255859
		C10.175293,8.7787781,10.125,8.8671875,10.1206055,8.9023438c-0.117218-0.0058899-0.1962891,0.1786804-0.1792297,0.215332
		C9.7280273,9.03125,9.6289062,9.3686218,9.6977539,9.4379578C9.5161133,9.445282,9.5385437,9.6781921,9.5209656,9.7426453
		c-0.058075,0.1416016,0.0131836,0.1889648,0.1284485,0.1382141C9.6665039,9.9423828,9.6425476,9.9770203,9.590332,9.988739
		c0.3158875,0.3613281,0.4941711-0.2226562,0.7709656-0.2206726c0.3461914-0.1010742,0.4819946-0.2715149,0.4819946-0.2715149
		l0.1357117,0.0180969L11.2250977,8.9970398L11.2250977,8.9970398L11.2250977,8.9970398z"/>
	<path class="st6" d="M9.6088562,9.9941101c0.0605774,0.065979,0.1186523,0.0991821,0.1772461,0.1020813
		c0.0029297,0.0004883,0.0058594,0.0004883,0.0083313,0.0004883c0.0952148,0,0.1796875-0.0795898,0.2690735-0.1636047
		c0.0912781-0.085907,0.1860046-0.1748047,0.296875-0.1748047l0,0c0.3374329-0.0996094,0.4736023-0.2661133,0.4750061-0.2680664
		l0.0035095-0.0043945l0.1341858,0.0175781l0.2382812-0.5009766c-0.1000671-0.0390625-0.2425537-0.0625-0.3939819-0.0874023
		c-0.1918945-0.03125-0.3905945-0.0639343-0.532196-0.1333008c-0.1054993,0.0083008-0.1509094,0.0932617-0.1542969,0.121582
		l-0.0010071,0.0097656l-0.0097961-0.0004578c-0.0609741-0.0039368-0.1069031,0.0507507-0.1283875,0.0834961
		C9.957489,9.0468445,9.9443054,9.1000977,9.9506836,9.1132812l0.0112,0.0234375L9.9375,9.1269226
		C9.8329773,9.0844421,9.7680664,9.152832,9.7382812,9.1977234c-0.0571289,0.0859375-0.065918,0.2001953-0.0332031,0.2329102
		l0.016571,0.0161133L9.6982117,9.4477234C9.5615234,9.4535828,9.5478516,9.594696,9.5385437,9.688446
		C9.5366211,9.7118835,9.534668,9.7314453,9.5312195,9.7450867C9.5053711,9.808075,9.5039062,9.8539734,9.5263672,9.875946
		c0.0214844,0.0210266,0.0649109,0.0195618,0.1186523-0.0043945L9.6557312,9.867157l0.0034485,0.0112305
		C9.668457,9.9111023,9.6665039,9.938446,9.6542664,9.9589539C9.6450195,9.9750671,9.629364,9.9863281,9.6088562,9.9941101
		L9.6088562,9.9941101z M9.7944336,10.1166992c-0.0029297,0-0.0063477,0-0.0092773,0
		c-0.0679016-0.003418-0.1338196-0.0430298-0.2026672-0.121582L9.5717773,9.9823914l0.016571-0.0039062
		C9.6117859,9.9736023,9.6278992,9.9633484,9.6366882,9.9487C9.6450195,9.9350586,9.6469421,9.9169617,9.6420898,9.894989
		C9.5854187,9.9174805,9.5385437,9.9160156,9.5121765,9.8905945c-0.0205078-0.019989-0.0370789-0.0624695-0.0004578-0.151825
		C9.5146484,9.7279968,9.516571,9.7089539,9.5185547,9.6864929c0.0087891-0.090332,0.0229187-0.2397461,0.1611328-0.2573242
		c-0.027832-0.0527344-0.0102539-0.1640625,0.0415039-0.2426453c0.0527344-0.0796204,0.1278992-0.1094055,0.2080078-0.0840149
		C9.929657,9.0727234,9.9472351,9.0253906,9.9746094,8.9848328c0.0229492-0.034668,0.0707703-0.0913086,0.1376648-0.0927429
		c0.0107117-0.0400696,0.0620117-0.1235657,0.1743164-0.1303711L10.2895813,8.7612l0.0024109,0.0014648
		c0.1387024,0.0683594,0.3369141,0.1010742,0.5288086,0.1323547c0.157196,0.0258484,0.3062134,0.0502625,0.4081726,0.0927429
		L11.2388,8.9916992l-0.0043945,0.0097351l-0.2495117,0.5244141l-0.137207-0.0185242
		c-0.0245056,0.0282898-0.1651001,0.1777039-0.4833984,0.2704773l-0.0029907,0.0005188c-0.0004883,0-0.0004883,0-0.0009155,0
		c-0.1030884,0-0.194397,0.0864258-0.2828064,0.1694031C9.9892578,10.0307922,9.8979492,10.1166992,9.7944336,10.1166992
		L9.7944336,10.1166992z"/>
	<path class="st3" d="M11.5145874,8.4076843c0.1827087,0,0.3305969,0.1479492,0.3305969,0.3305969
		c0,0.1825867-0.1478882,0.3305359-0.3305969,0.3305359c-0.1825867,0-0.3304749-0.1479492-0.3304749-0.3305359
		C11.1841125,8.5556335,11.3320007,8.4076843,11.5145874,8.4076843L11.5145874,8.4076843z"/>
	<path class="st6" d="M11.5145874,8.4179382c-0.1766968,0-0.320282,0.1435547-0.320282,0.320343
		c0,0.1767273,0.1435852,0.320282,0.320282,0.320282c0.1767883,0,0.3204041-0.1435547,0.3204041-0.320282
		C11.8349915,8.5614929,11.6913757,8.4179382,11.5145874,8.4179382L11.5145874,8.4179382z M11.5145874,9.079071
		c-0.1878967,0-0.3407898-0.152832-0.3407898-0.3407898c0-0.1875,0.1528931-0.3403625,0.3407898-0.3403625
		c0.1875,0,0.3404236,0.1528625,0.3404236,0.3403625C11.855011,8.926239,11.7020874,9.079071,11.5145874,9.079071
		L11.5145874,9.079071z"/>
	<path class="st3" d="M10.933075,11.3407593c-0.2051086-0.0370789-0.5443726-0.2494812-0.579071-0.527771
		c0.1908875-0.7489929,1.1752625-0.3579102,1.2602844-0.9214172c-0.0214844-0.3720703,0.0448914-0.7402039,0.2514038-1.0512695
		c0.0956726-0.121582,0.2201843-0.1538086,0.2201843-0.1538086s0.022522,0.0796204-0.0101929,0.1333008
		C12.2382812,8.8017273,12.4613953,8.8930359,12.6138,8.901825c0.0448914,0.0908203,0.0409851,0.1245117,0.0307007,0.1791992
		C12.6343079,9.1362,12.5728149,9.1220703,12.5728149,9.1220703c-0.0401306,0.0380859-0.0874329,0.0761719-0.1949158,0.0566101
		c-0.0805054,0.0615234-0.2509155,0.0766907-0.2509155,0.0766907s0.355896,0.3754578,0.2973022,0.4921875
		c0.0741882,0.0341492,0.1841125,0.1996765,0.1841125,0.1996765s0.2436829-0.1278992,0.3232117-0.2460938
		c0.140686,0,0.3710632,0.1474915,0.4863892,0.1640625c0.1410828,0.1138,0.2821655,0.2304688,0.2821655,0.2304688
		s-0.1679688,0.1104126-0.2411804-0.0355835c-0.0884094,0.0072937-0.2792969-0.2036743-0.5429993-0.1387329
		c-0.007782,0.2349243-0.2666016,0.3999023-0.2666016,0.3999023s0.2416992-0.0336914,0.3739929,0.045929
		c0.137207,0.1156921,0.3384094,0.2719727,0.3384094,0.2719727l0.1791992,0.3071289c0,0-0.1636047,0.0282898-0.2250977-0.1846008
		c-0.0614929,0.171875-0.0643921-0.105896-0.3075867-0.235321c-0.0742188,0.0087891-0.1112976,0.0140991-0.1743164-0.0361938
		c-0.175293,0.0473938-0.382782,0.1499023-0.6303711,0.1231079c-0.1753235,0.0551758-0.3032227,0.2012024-0.4814148,0.2817078
		c-0.1783142,0.0810852-0.2304993,0.0409851-0.2304993,0.0409851l-0.1436157,0.0054016
		c-0.0209961,0.0864258-0.0092163,0.217804-0.0874023,0.2406921c0.050293,0.0537109-0.0355835,0.2832031-0.1224976,0.3228149
		c0.0404968,0.1473999,0.160614,0.1924133,0.2865906,0.266571c0,0,0.1113281-0.0513,0.1846313,0.0151367
		c0.0731812,0.066864,0.1483765,0.2564087,0.1483765,0.2564087s-0.1517944,0.0101929-0.199707-0.0103149
		c-0.0477905-0.0205078-0.0526733-0.070282-0.1073608-0.0561218c-0.347229-0.309082-0.530304-0.1860962-0.5640259-0.2564087
		C10.852478,11.6478882,10.968811,11.4599915,10.933075,11.3407593L10.933075,11.3407593L10.933075,11.3407593z"/>
	<path class="st6" d="M11.4682922,11.9638977c0.0263062,0,0.0410156,0.0150757,0.0550842,0.0297852
		c0.0108337,0.0112,0.0220032,0.0223999,0.0386353,0.0296936c0.0370789,0.0157166,0.1425781,0.012207,0.1811829,0.0102844
		c-0.0185852-0.0439758-0.0811157-0.1850891-0.1407166-0.2392883c-0.0672913-0.0614929-0.1722717-0.0140991-0.1732788-0.0135803
		l-0.0049133,0.0018921l-0.0043945-0.0024109c-0.0189819-0.0112915-0.0375977-0.0214844-0.055603-0.0317993
		c-0.1031189-0.0570984-0.2001953-0.1112976-0.2359009-0.2406921l-0.0024109-0.0083008l0.0078125-0.0039062
		c0.0541992-0.0244141,0.110321-0.1333008,0.1265259-0.2157898c0.0086975-0.0435181,0.0062866-0.0767212-0.0069275-0.0907898
		l-0.0112-0.0118103l0.0155945-0.0048218c0.0508118-0.0151978,0.0596313-0.0864868,0.0684204-0.1557922
		c0.0028992-0.0263977,0.0062866-0.0537109,0.0121765-0.0775757l0.0014038-0.0074158l0.1548157-0.0057983l0.0029907,0.0024109
		c0.0003967,0,0.0527039,0.0336914,0.2202148-0.042511c0.0791016-0.035614,0.1483765-0.0848999,0.2157898-0.1323242
		c0.0869141-0.0609741,0.1684875-0.1185913,0.2671204-0.1498718l0.0018616-0.0004883h0.002533
		c0.1860046,0.0204773,0.3500977-0.0337219,0.4950867-0.0815125c0.0458984-0.0151978,0.0894165-0.0292969,0.1312866-0.0410156
		l0.0049133-0.0010071l0.0038757,0.0028992c0.0591431,0.0469055,0.0918274,0.0430298,0.1646423,0.0342407l0.0028992-0.0005188
		l0.0053711,0.0010071c0.1239929,0.0663757,0.1875,0.171875,0.2255859,0.2348938
		c0.015625,0.0252991,0.0332336,0.0541992,0.0410156,0.0541992c0,0,0,0,0.0005188,0
		c0.0014038,0,0.0096741-0.0035095,0.0258789-0.0473938l0.0107117-0.0297852l0.0088196,0.0302734
		c0.046875,0.1621094,0.1552734,0.1781921,0.1971741,0.1781921c0.0005188,0,0.0010071,0,0.0014954,0l-0.1703796-0.2919922
		c-0.0190125-0.0145874-0.2075195-0.1616211-0.3369141-0.2705078c-0.1264954-0.0762024-0.3638-0.0438843-0.3662109-0.0434875
		l-0.006897-0.0190125c0.0025024-0.0014954,0.2543945-0.164978,0.2618103-0.3911133l0.0004883-0.0078125l0.0072937-0.0019226
		c0.1777344-0.0439453,0.3213196,0.0336914,0.4258118,0.0903625c0.0493164,0.0267944,0.0926819,0.0492859,0.1190796,0.0477905
		l0.0068359-0.0004883l0.0029907,0.0058899c0.0174866,0.035614,0.0423889,0.0576172,0.0742188,0.0664062
		c0.0541992,0.0145874,0.1146851-0.0132141,0.1395874-0.0274048C13.6464844,10.0648804,13.5297852,9.96875,13.414093,9.875
		c-0.050293-0.0083313-0.1202087-0.039093-0.1939087-0.0713196c-0.0961914-0.0424805-0.2050781-0.090332-0.2836914-0.0922852
		c-0.082489,0.1171875-0.3135071,0.2397766-0.3232117,0.2446289l-0.007782,0.0043945l-0.0054321-0.007782
		c-0.0009766-0.0014648-0.109375-0.1631165-0.1801758-0.1962891l-0.0097046-0.0043945l0.0047913-0.0093079
		c0.0458984-0.0903015-0.1976929-0.3774414-0.2954102-0.4804688l-0.0145874-0.0151367l0.0210266-0.0019226
		c0.0018921,0,0.168396-0.0156555,0.2460938-0.074707l0.0033875-0.0024719l0.0043945,0.0004883
		c0.0996094,0.0185547,0.1450195-0.0146484,0.1860046-0.0536804l0.0039062-0.0034485l0.0053711,0.0009766
		c0,0,0.0254211,0.0054016,0.0430298-0.0058594c0.0088196-0.0058594,0.0140686-0.0146484,0.0161133-0.0273438
		c0.0101929-0.0536804,0.0131836-0.0839844-0.0274048-0.1674805c-0.0615234-0.0043945-0.1333008-0.0209656-0.2090149-0.0390625
		c-0.1112976-0.0258484-0.2265015-0.0527344-0.3211975-0.0424805l-0.0205078,0.0019836l0.0107117-0.0175781
		c0.0233765-0.0380859,0.0160828-0.092804,0.0116882-0.1147766c-0.031189,0.0102539-0.1278992,0.0493164-0.2051086,0.1470032
		c-0.1889038,0.2846375-0.2728882,0.6362-0.2489929,1.0444336c-0.0410156,0.2724915-0.2850647,0.3285522-0.5438843,0.3886719
		c-0.2886047,0.0668945-0.6158142,0.1425781-0.7163086,0.5342102c0.0365906,0.2816772,0.3851929,0.4833984,0.5708008,0.5170898
		l-0.0014954,0.0067749l0.0062866-0.0038757l0.0230103,0.0228882l-0.0160828-0.0033875
		c0.0121765,0.0634766-0.0103149,0.1416016-0.030304,0.2105103c-0.0180969,0.0624695-0.0352173,0.1214905-0.0205078,0.1517639
		c0.0083008,0.0171204,0.0297852,0.0196228,0.0736694,0.0230103c0.0879211,0.0073242,0.2505188,0.0205078,0.4833984,0.226532
		C11.4589844,11.964386,11.4638977,11.9638977,11.4682922,11.9638977L11.4682922,11.9638977z M11.6763,12.0556641
		c-0.0450134,0-0.0967102-0.0024719-0.1221313-0.0136719c-0.0204773-0.0088196-0.0336914-0.0220032-0.0448608-0.0342102
		c-0.0171204-0.0170898-0.0283203-0.0288086-0.0562439-0.0215149l-0.005249,0.0010071l-0.0040283-0.003418
		c-0.2303772-0.2045593-0.3836975-0.2172852-0.4754944-0.2245789c-0.0463867-0.0039062-0.077179-0.0063782-0.0909119-0.0346985
		c-0.0174866-0.0371094-0.0003967-0.0971985,0.0196228-0.1659851c0.019989-0.0703125,0.0428772-0.1489258,0.0278015-0.2090149
		c-0.222229-0.0429993-0.5474243-0.2651062-0.5810242-0.5350952V10.8125l0.0003967-0.0020142
		c0.1031189-0.4046936,0.4371338-0.4824219,0.7320251-0.5502014c0.2626648-0.0610962,0.4896851-0.1138,0.5282898-0.3701782
		c-0.0244141-0.4101562,0.0609741-0.7661133,0.2524109-1.0551453c0.0976868-0.124054,0.2211914-0.1567383,0.226593-0.1582031
		l0.0093079-0.0024719l0.0028992,0.0097961c0.0010071,0.0029297,0.0189819,0.0693054-0.0028992,0.1239929
		c0.093689-0.0053711,0.2035828,0.02005,0.3099976,0.0449219c0.077179,0.0180664,0.1498718,0.0351562,0.2114868,0.0385742
		l0.0057983,0.0005188l0.0025024,0.0053406c0.0458984,0.0927734,0.0424194,0.129425,0.0316772,0.1855469
		c-0.0033875,0.0180664-0.0116882,0.0317688-0.0248718,0.0400391c-0.0190125,0.0126953-0.042511,0.0117188-0.0531921,0.0097656
		c-0.0420227,0.039093-0.0923157,0.0742493-0.1958313,0.0566711c-0.066864,0.0483398-0.1846008,0.0678406-0.2324829,0.0737
		c0.0704041,0.0757141,0.3267212,0.3628235,0.289093,0.4794922c0.0664062,0.0375977,0.1528015,0.1591797,0.1748047,0.1914062
		c0.0424805-0.0234375,0.242218-0.1362305,0.3111267-0.2387695l0.0028992-0.0043945h0.0057983
		c0.0829773,0,0.1962891,0.050293,0.2963867,0.0942383c0.0741882,0.0322266,0.1440735,0.0629883,0.1918945,0.0698242
		l0.0025024,0.0004883l0.0023804,0.0019836c0.1392212,0.1127625,0.2803345,0.2294617,0.2817383,0.2304688l0.0107727,0.0087891
		l-0.0116882,0.007782c-0.0035095,0.0019226-0.0899048,0.0581055-0.1685181,0.0366211
		c-0.0355835-0.0097961-0.0639954-0.0337219-0.0839844-0.0708008c-0.032196-0.0004883-0.0726929-0.0229187-0.1235046-0.050293
		c-0.1000977-0.0541687-0.2367859-0.128418-0.4037781-0.090332c-0.0103149,0.1855164-0.1690369,0.3247375-0.2388,0.3774414
		c0.0746765-0.0057983,0.2388-0.0107422,0.3417664,0.0517883c0.1366882,0.1146851,0.3374023,0.2705078,0.3394165,0.2720032
		l0.0023804,0.0028992l0.1865234,0.320282l-0.0140991,0.0024109c-0.0020142,0.0004883-0.1592102,0.0249023-0.2281189-0.1644897
		c-0.0106812,0.0228882-0.0209961,0.0331726-0.0326843,0.0341797c-0.0200195,0.0028992-0.0355835-0.0224915-0.0604858-0.0639954
		c-0.0391235-0.0643921-0.0982056-0.1620789-0.2154236-0.2256165c-0.0722046,0.0088196-0.1123047,0.0127258-0.1742859-0.0350952
		c-0.0400085,0.0112-0.0820007,0.0249023-0.1255188,0.0390015c-0.1463928,0.0484009-0.3119812,0.1031189-0.5018921,0.0830078
		c-0.0942078,0.030304-0.1743164,0.0869141-0.2593079,0.1465149c-0.0679016,0.0484009-0.1386719,0.0982056-0.2191772,0.1342773
		c-0.1602173,0.0728149-0.222229,0.0508118-0.2373047,0.0420227l-0.1324158,0.0048828
		c-0.0047913,0.0205078-0.0072937,0.043396-0.0101929,0.0678101c-0.0088196,0.0704041-0.0176086,0.1430969-0.0697937,0.1679993
		c0.0135803,0.0263977,0.0101929,0.0658875,0.0038757,0.0971985c-0.0170593,0.0845032-0.0707703,0.191925-0.1304016,0.2261047
		c0.035614,0.1152039,0.1230164,0.1640015,0.2240906,0.2207031c0.0171204,0.0091858,0.0342407,0.0190125,0.0518494,0.0292969
		c0.0233765-0.0097961,0.121582-0.0440063,0.1903992,0.0190125c0.0736694,0.0673828,0.1479797,0.2519836,0.1513672,0.2597961
		l0.0049133,0.013092l-0.0137024,0.0010071C11.7554016,12.0531921,11.718811,12.0556641,11.6763,12.0556641L11.6763,12.0556641z"/>
	<path class="st3" d="M10.0990906,9.9653015c0.0180969-0.0224609,0.144989,0.0254211,0.144989,0.0254211l0.2319946,0.1449585
		l0.4707336,0.3041992L11.1138,10.683075l-0.3008118-0.098114l-0.4169922-0.3583679l-0.2246094-0.1451111
		C10.1713867,10.0814819,10.0811157,9.9882507,10.0990906,9.9653015L10.0990906,9.9653015L10.0990906,9.9653015z"/>
	<path class="st6" d="M10.8179016,10.5761719l0.2704773,0.0878906l-0.1488647-0.2162781l-0.4693298-0.3032837l-0.2314148-0.144989
		c-0.0605774-0.0224915-0.1240845-0.0366211-0.131897-0.027832c-0.0043945,0.0087891,0.0249023,0.0546875,0.0718079,0.1025085
		l0.2232361,0.1436157L10.8179016,10.5761719L10.8179016,10.5761719z M11.1387024,10.7016907l-0.332489-0.1088867
		l-0.416626-0.3589172l-0.2236023-0.144104c-0.0380859-0.0385132-0.0957031-0.1049194-0.0746765-0.1308289l0,0
		c0.0204773-0.0253601,0.1161804,0.0073242,0.1562805,0.0224609l0.2337952,0.1455688l0.4736938,0.3076172L11.1387024,10.7016907
		L11.1387024,10.7016907z"/>
	<path class="st3" d="M12.8852844,10.7367859c-0.1630859-0.0410156-0.5639954,0.4457703-0.5639954,0.4457703l0.3021851,0.328125
		C12.6234741,11.5106812,12.6328125,10.9520874,12.8852844,10.7367859L12.8852844,10.7367859z"/>
	<path class="st6" d="M12.3349915,11.1825562l0.2792969,0.3032227c0.0047913-0.1098022,0.0370789-0.5415039,0.2470093-0.7412109
		C12.7064819,10.7475586,12.3817749,11.1269836,12.3349915,11.1825562L12.3349915,11.1825562z M12.6333008,11.5361023
		L12.308075,11.183075l0.0054321-0.0068054c0.0160828-0.019104,0.3744812-0.4516907,0.551178-0.4516907
		c0.0083008,0,0.0157166,0.0009766,0.0230103,0.0025024l0.0190125,0.0048218l-0.0151367,0.0126648
		c-0.2460938,0.210022-0.257782,0.7608337-0.257782,0.7661133L12.6333008,11.5361023L12.6333008,11.5361023z"/>
	<path class="st3" d="M10.9022827,9.3788757c-0.0887756,0.1138-0.0965881,0.3427734,0.0186157,0.4355469
		c0.0112,0.1386719,0.1293945,0.4194641,0.2221985,0.4458618c0.1015015,0.0287781,0.5072937,0.1230164,0.6659851,0.0971069
		c-0.0302734,0.257782,0.1719055,0.464386,0.3588867,0.5995789c-0.0014954,0.0234985-0.0014954,0.0513,0.0200195,0.0801086
		c0.0209961,0.0274048,0.1190796,0.0326843,0.1234741,0.0176086c0.0435181,0.0610046,0.2549133,0.0878906,0.27005,0.0604858
		c0.014679-0.0263062-0.3105164-0.2528992-0.382843-0.3222046c-0.0614929-0.1142883-0.1776733-0.3692017-0.2049866-0.5737915
		c-0.1596985-0.1899109-0.434082-0.1859741-0.434082-0.1859741l0.0087891-0.3725891l0.0155945-0.4198914l-0.1488953-0.077179
		c0,0,0.0302124-0.0136414,0.0462952-0.0307617c0.0361938,0.0156555,0.1040039-0.0566406,0.1128235-0.0771484
		c0.0341797,0.0117188,0.0649719,0.0117188,0.0707703-0.0063477c0.0054321-0.0161133,0.0118103-0.0878906,0.0240173-0.1249695
		c0.1123047-0.0991211-0.0161133-0.308136-0.1875-0.311554c-0.1700134-0.0033875-0.2080078,0.2021484-0.2045898,0.217804
		c0.0160828,0.0644531,0.0126648,0.0971375,0,0.112793c-0.0127258,0.0161133-0.0718079,0.0512695-0.0718079,0.0512695
		s-0.094696-0.0449524-0.210022,0c-0.1151733,0.0448914-0.2445984,0.10495-0.250885,0.1791687
		c-0.0527954,0.0078125-0.1387024,0.0757141-0.1538086,0.1333008c-0.0463867-0.0087891-0.1065063,0.0292969-0.2050781,0.1894531
		c-0.1768188,0.0781555-0.1870117,0.4560852-0.1870117,0.4560852s-0.0478821,0.0698242-0.0498047,0.1064453
		c-0.0025024,0.0371094,0.0166016,0.070282,0.0394897,0.0639038c0.0024109,0.0245056,0.0346985,0.0464172,0.0488281,0.0385742
		c0.0048828,0.0244141,0.0401001,0.0381165,0.0615845,0.034729c0.0014038,0.016571,0.0697937,0.0121765,0.0751953-0.0025024
		c0.0062866-0.0166016-0.0063782-0.1000061,0.0014038-0.1063843c0.0072937-0.0063171,0.0639954,0.0370789,0.0795898,0.0253906
		c0.0151062-0.0112305-0.0028992-0.0483093-0.0116882-0.0625305c-0.0078125-0.0126648-0.0562134-0.026886-0.0679016-0.0873718
		c-0.0116882-0.0600586,0.0307922-0.1435547,0.0307922-0.1435547s0.1918945-0.1508789,0.2138062-0.280304
		C10.7846985,9.5531921,10.8607788,9.4267578,10.9022827,9.3788757L10.9022827,9.3788757L10.9022827,9.3788757z"/>
	<path class="st6" d="M12.3075867,11.0312805l0.012207,0.0174866c0.0249023,0.034729,0.1176758,0.0611267,0.1933899,0.0664062
		c0.0350952,0.0020142,0.0522156-0.0014038,0.0575867-0.0038757c-0.0131836-0.0254211-0.1376953-0.120636-0.2206726-0.1841125
		c-0.0674133-0.0516968-0.1309204-0.1000977-0.1582031-0.1269226l-0.0020142-0.0023804
		c-0.063385-0.1181946-0.1777039-0.3716125-0.2059937-0.5742798c-0.1547852-0.1821289-0.421875-0.1806335-0.4237976-0.1806335
		l-0.0108032,0.0005188L11.558075,9.660614l0.0151062-0.414032l-0.1611023-0.0834961l0.019104-0.0087891
		c0,0,0.0283203-0.0127258,0.0429077-0.0283508l0.0049133-0.0048828l0.0063782,0.0024719
		c0.0116882,0.0048523,0.032196-0.0039368,0.0561218-0.0234375c0.0224915-0.0190735,0.039978-0.0405579,0.0434875-0.0488586
		l0.003418-0.0082703l0.0092773,0.0029297c0.0223999,0.007782,0.0428772,0.0097351,0.0531921,0.0053406
		c0.003418-0.0019531,0.0043945-0.0038757,0.0049133-0.0053406c0.0014038-0.0054016,0.0038757-0.0210266,0.0062866-0.0376282
		c0.004425-0.0282898,0.0093079-0.0639648,0.0171204-0.0874023l0.0009766-0.0024109l0.0019226-0.0019836
		c0.0386047-0.0341797,0.0488892-0.0854492,0.0282898-0.141571c-0.0267944-0.0742493-0.1073914-0.1499329-0.2094116-0.151886
		c-0.0497742-0.0019226-0.0932922,0.0171204-0.1279907,0.0546875c-0.0521851,0.0576477-0.0672913,0.1411438-0.0658875,0.1513977
		c0.0151978,0.0610046,0.0141907,0.0996094-0.0024109,0.120575c-0.0131836,0.0171204-0.0684204,0.0498047-0.0742188,0.0537415
		l-0.0048828,0.0024109l-0.0048828-0.0019531c-0.0010071-0.0004578-0.0923157-0.0424805-0.2020874,0
		c-0.1021118,0.0400391-0.2383118,0.1006165-0.2447205,0.1708984l-0.0005188,0.0078125l-0.007782,0.0014648
		c-0.0487976,0.0068665-0.1313171,0.0717773-0.1455078,0.1255188l-0.0024109,0.0092468l-0.0092773-0.0014648
		c-0.0493164-0.0097656-0.1108093,0.0488281-0.1943054,0.1845703l-0.0019836,0.0029297l-0.0028992,0.0010071
		c-0.1690369,0.074707-0.1807251,0.4433289-0.1807251,0.4472351v0.0029297L10.226593,9.9584961
		c-0.0127258,0.0185242-0.0464172,0.0731812-0.0484009,0.1011047c-0.0014038,0.0238647,0.0072937,0.0438843,0.0160828,0.0507812
		c0.0054321,0.004303,0.0098267,0.003418,0.0108032,0.0028992l0.0116882-0.0028992l0.0015259,0.0116882
		c0.000885,0.0112,0.0116882,0.0224304,0.0213928,0.0278015c0.0064087,0.003418,0.0108032,0.003418,0.0122986,0.0028992
		l0.0116882-0.0067749l0.0028992,0.0136719c0.0039062,0.0180054,0.0337219,0.0293274,0.0498047,0.0263062l0.0107117-0.0014038
		l0.0009766,0.0101929c0.0010376-0.0004883,0.007843,0.0020142,0.0205078,0.0020142c0.0020142,0,0.0039062,0,0.0059204,0
		c0.0175781-0.0009766,0.0283203-0.0054016,0.030304-0.0072937c0.0014038-0.0054016,0-0.031311-0.0010071-0.0489197
		c-0.0025024-0.0409851-0.0028992-0.0546875,0.0049133-0.0610046c0.0082703-0.0067749,0.0189819-0.0014954,0.0389709,0.0093384
		c0.0108337,0.0052795,0.0342407,0.0174866,0.0411072,0.015564c0.0048218-0.0033875-0.0004883-0.0253906-0.0147095-0.0492859
		c-0.0009766-0.0014954-0.0062866-0.0054016-0.0106812-0.0083008c-0.0186157-0.0126953-0.049408-0.0341797-0.0581055-0.0820618
		c-0.0122986-0.0629883,0.0297241-0.1464844,0.0312195-0.1498718l0.0028992-0.0034485
		c0.0019836-0.0014648,0.1894836-0.1503601,0.2104797-0.2744141l0.0014038-0.0092468l0.0093079,0.000946
		C10.7612,9.5404968,10.8329773,9.4496765,10.8759766,9.394989C10.882782,9.3862,10.8891907,9.378418,10.8945007,9.3720398
		l0.015686,0.0131836c-0.0855103,0.109375-0.0922852,0.3334961,0.0169983,0.420929l0.0035095,0.0029297l0.0004883,0.0043945
		c0.0107117,0.1337585,0.1278992,0.4125977,0.2148132,0.4370117c0.1011047,0.0288086,0.5062866,0.121582,0.6615906,0.097168
		l0.0131836-0.0019836l-0.0014954,0.0132141C11.7953796,10.5624695,11.9145813,10.7612,12.1737671,10.9487l0.004425,0.0033875
		v0.0054016c-0.0014038,0.0234985-0.0010071,0.0484009,0.0175781,0.0733032
		c0.0161133,0.0209961,0.0923157,0.0263062,0.1064148,0.0189819L12.3075867,11.0312805L12.3075867,11.0312805z M12.5351868,11.1362
		c-0.0650024,0-0.1827087-0.023407-0.2250977-0.0678406c-0.0038757,0.0019226-0.0079041,0.0024109-0.0097961,0.0028992
		c-0.0307922,0.0054321-0.1006165-0.0019836-0.1206055-0.0282898c-0.0214844-0.0283813-0.0229797-0.0561829-0.0220032-0.0810852
		c-0.2539062-0.1846008-0.3778992-0.3890991-0.3597717-0.5923157c-0.1778259,0.0200195-0.5875244-0.0795898-0.6578064-0.0996094
		c-0.0971375-0.0272827-0.2158203-0.3061218-0.2290344-0.4506226c-0.0922852-0.0776367-0.105896-0.2378235-0.0629883-0.3594055
		c-0.0454102,0.0478516-0.1083984,0.0957336-0.2001953,0.0898438c-0.0278015,0.1240234-0.1932983,0.2597656-0.2137756,0.2763672
		c-0.0064392,0.0126953-0.0391235,0.0840149-0.0293274,0.1347656c0.0078125,0.0400696,0.0332031,0.0576782,0.0498047,0.069397
		c0.0078125,0.0048828,0.0137024,0.0092773,0.0170898,0.0145874c0.0078125,0.0137024,0.032196,0.0585938,0.0087891,0.0762024
		c-0.0141602,0.0106812-0.0385742-0.0020142-0.0619812-0.0142212c-0.0048828-0.0028992-0.011322-0.0057983-0.0162048-0.0083008
		c-0.0003662,0.0097961,0.0010071,0.0278931,0.0014954,0.0410156c0.0020142,0.0292969,0.0028992,0.0483704-0.0004883,0.0577087
		c-0.0068054,0.0179749-0.0463867,0.0214844-0.0664062,0.0189819c-0.0132141-0.0014954-0.0205078-0.0054016-0.0243835-0.0093079
		c-0.0005188,0-0.0005188,0-0.0010071,0c-0.0219116,0-0.0508118-0.0116882-0.0614929-0.0336914l0,0
		c-0.0059204,0-0.0127258-0.0018921-0.0195007-0.0052795c-0.012207-0.0064392-0.0249023-0.0186157-0.030304-0.0342407
		c-0.0068054,0-0.0132141-0.0028992-0.0186157-0.0072937c-0.0155945-0.0126648-0.0252991-0.0401001-0.023407-0.0678711
		c0.0020142-0.0357056,0.0410156-0.0957031,0.0498047-0.1088867c0.0014954-0.0386047,0.0186157-0.3813782,0.1903992-0.460968
		c0.0845032-0.1366882,0.1480103-0.1958008,0.2046204-0.1928711c0.0209656-0.0576172,0.0982056-0.1181641,0.1519165-0.1303711
		C10.7695007,9.0883789,10.8988953,9.0287781,11.0112,8.985321c0.1040039-0.0410156,0.1913757-0.0112,0.2128906-0.0019531
		c0.0230103-0.0136414,0.0571899-0.0366211,0.0650024-0.0463867c0.0083008-0.0102539,0.0145874-0.0366211-0.0020142-0.1040039
		c-0.0028992-0.0131836,0.0117188-0.0981445,0.0640259-0.160614c0.0384827-0.0464172,0.0873718-0.0698547,0.1459656-0.0698547
		c0.0014038,0,0.0028992,0,0.004425,0c0.1107788,0.0019531,0.1987,0.0849609,0.2279968,0.1650696
		c0.023407,0.063446,0.0116882,0.1225281-0.0317078,0.1620789c-0.006897,0.0219727-0.0118103,0.0551758-0.015686,0.081543
		c-0.0028992,0.019043-0.0049133,0.0336914-0.0072937,0.0410156c-0.0024109,0.0073242-0.0078125,0.0131836-0.0151367,0.0171204
		c-0.0136719,0.0068054-0.035675,0.0063171-0.0610657-0.0014648c-0.0088196,0.0136414-0.0263062,0.0326843-0.0444336,0.047821
		c-0.0194702,0.0161133-0.0469055,0.0336914-0.0697632,0.0288086c-0.0083008,0.0073242-0.0186157,0.0141907-0.0274048,0.019043
		l0.137207,0.0708008l-0.015625,0.4267883l-0.0083008,0.3617554c0.0523071,0.0019836,0.2881165,0.0195923,0.4312134,0.1899719
		l0.0018921,0.0019226l0.0004883,0.0030212c0.0269165,0.1996765,0.13974,0.4510803,0.203125,0.5692749
		c0.0274048,0.0259094,0.089386,0.0733032,0.1552734,0.1239929c0.2012024,0.1538086,0.2393188,0.1889954,0.2280273,0.2090149
		c-0.0053101,0.0097961-0.0185242,0.0147095-0.0429077,0.0155945C12.5438843,11.1362,12.5395813,11.1362,12.5351868,11.1362
		L12.5351868,11.1362z"/>
	<path class="st3" d="M10.5679016,8.8368835c0.0438843-0.1073914,0.2025757-0.0971375,0.2025757-0.0971375
		s0.0566101-0.1494141,0.2700195-0.0605774c0.0805969-0.0620117,0.2919922,0.0273438,0.2919922,0.0273438
		s0.0795898-0.1059265,0.1835938-0.09375c0.1924133,0.0224609,0.2240906,0.198761,0.2124023,0.2295227
		c-0.1054993,0.0263672-0.2880859-0.085968-0.4266968-0.0541992c-0.0810852,0.0458679-0.2120056,0.0942078-0.2612915,0.1601257
		C10.9120789,8.9618835,10.7748718,8.8300476,10.5679016,8.8368835L10.5679016,8.8368835L10.5679016,8.8368835z"/>
	<path class="st6" d="M10.5844727,8.8266296c0.1064148,0,0.1938171,0.0351562,0.2715149,0.0664062
		c0.0664062,0.026886,0.1239929,0.0503235,0.1791992,0.0454102c0.0379944-0.047821,0.1170959-0.0864258,0.1864929-0.1206055
		c0.0273132-0.0131836,0.0532227-0.0258789,0.0752258-0.0385437l0.0028992-0.0010071
		C11.3754883,8.7612,11.460907,8.7841492,11.5434875,8.8071289c0.066925,0.0180664,0.1298218,0.035614,0.1766968,0.0263672
		c0.0020142-0.0161133-0.0028992-0.0585938-0.0298157-0.1035461C11.6646118,8.6874695,11.6138,8.6342773,11.5145874,8.6230164
		c-0.0966187-0.0107422-0.172821,0.0883789-0.1737976,0.0893555l-0.0049133,0.0063477l-0.0072937-0.0029297
		c-0.0018921-0.000946-0.2070007-0.085907-0.2816772-0.0283203l-0.0049133,0.003418l-0.0054016-0.0019531
		c-0.0737-0.0307617-0.1362-0.0361328-0.1849976-0.0151062c-0.0533142,0.0224304-0.0718079,0.0688477-0.0718079,0.0693054
		L10.7772827,8.75h-0.007782C10.7685852,8.7494812,10.632782,8.742157,10.5844727,8.8266296L10.5844727,8.8266296z
		 M11.0214844,8.9594727c-0.054718,0-0.1104126-0.0219727-0.1734009-0.0473938
		c-0.0761108-0.0307617-0.1615906-0.0653992-0.2645874-0.0653992c-0.0054016,0-0.0102844,0.0004578-0.0151062,0.0004578
		l-0.015686,0.0004883l0.0058899-0.0146484c0.0410156-0.1005554,0.1727905-0.1030273,0.2051086-0.1034851
		c0.007782-0.0156555,0.0307007-0.0532532,0.0795898-0.0742493c0.0527039-0.0229492,0.1190796-0.0185547,0.1958008,0.0127258
		c0.0791016-0.0532532,0.2524109,0.0112,0.2904968,0.0263672c0.0195007-0.0234375,0.0923157-0.1030579,0.1875-0.0918274
		c0.1069031,0.0126953,0.1625977,0.0703125,0.1903992,0.1171875c0.0317993,0.0522766,0.0380859,0.1069336,0.030304,0.1259766
		l-0.0014954,0.0048828l-0.0053101,0.0014648c-0.0523071,0.0131836-0.120575-0.0053406-0.1929016-0.0253906
		c-0.0795898-0.0219727-0.1615906-0.0444031-0.2323914-0.0288086c-0.022522,0.0126953-0.0479126,0.0254211-0.0752258,0.0386047
		c-0.0693665,0.0336914-0.1474609,0.0722351-0.1817017,0.1181335l-0.0028992,0.0034485l-0.0043945,0.0004578
		C11.0351868,8.9589539,11.0282898,8.9594727,11.0214844,8.9594727L11.0214844,8.9594727z"/>
	<path class="st3" d="M10.968811,9.0151367c0.0482788-0.0292969,0.1659851-0.0815735,0.2459717-0.0180969
		c0.0840149,0.090332,0.2128906,0.1743164,0.2128906,0.1743164L11.5737,9.2328796l0.0663757,0.0410156l-0.043396,0.6684875
		c-0.1352844-0.1382141-0.2616882-0.1621399-0.3588867-0.3251953c-0.0518188-0.0698547-0.012207-0.2378235-0.1025085-0.3486633
		C11.0448914,9.1576843,10.9491882,9.0829773,10.968811,9.0151367L10.968811,9.0151367L10.968811,9.0151367z"/>
	<path class="st6" d="M10.9775085,9.0214539c-0.0092163,0.0444336,0.0375671,0.0962219,0.0966797,0.1611328
		c0.0224915,0.0249023,0.0454102,0.0508118,0.069397,0.0795898c0.0531921,0.065918,0.0625305,0.1489258,0.0708008,0.222168
		c0.0057983,0.0532227,0.0112,0.0991516,0.0317078,0.1269836c0.0570984,0.0956726,0.1255188,0.1435547,0.1981812,0.1943054
		c0.0464172,0.0327454,0.0943298,0.065918,0.1436157,0.1137695l0.0419922-0.6401367l-0.0614929-0.0375977l-0.1451111-0.0610046
		c-0.0024109-0.0014648-0.1322937-0.0864258-0.2157898-0.1767883C11.1270142,8.9404297,11.0033875,9.0063477,10.9775085,9.0214539
		L10.9775085,9.0214539z M11.6054688,9.9658203L11.589386,9.949707c-0.0538025-0.0552063-0.1064758-0.0918274-0.1567993-0.1274414
		c-0.0741882-0.0517883-0.1445007-0.1010742-0.2036133-0.1997375c-0.0228577-0.0317078-0.0282898-0.0800476-0.034668-0.1362305
		c-0.0083313-0.0703125-0.0171204-0.1503601-0.066925-0.2109375c-0.0228882-0.0287781-0.0458679-0.0541992-0.0682983-0.0791016
		c-0.0650024-0.0717773-0.1161804-0.1283875-0.1000977-0.1840515l0.0014038-0.0039368l0.0029907-0.0019226
		c0.0166016-0.0097961,0.160614-0.0942688,0.2578125-0.0171204c0.0830078,0.0893555,0.2104187,0.1728516,0.2119141,0.1738586
		l0.1444702,0.0605164l0.0733032,0.0449219l-0.0004883,0.0058899L11.6054688,9.9658203L11.6054688,9.9658203z"/>
	<path class="st3" d="M11.3197632,9.2079773c0,0,0.0767212-0.0141296,0.0982056,0.0039062
		c0.0263062,0.0087891,0.0522156,0.0166016,0.0595093,0.0395508c0.0292969,0.0087891,0.0488892,0.0239258,0.0488892,0.0454102
		c0.0273132,0.0073242,0.0381165,0.0561523,0.0381165,0.0561523L11.539093,9.3910828c0,0-0.0288086-0.0273132-0.0323181-0.0561523
		c-0.0184937-0.0087891-0.05896-0.0185547-0.0687866-0.0454102c-0.0317078-0.0029297-0.0523071-0.0195007-0.0581055-0.046875
		C11.3505859,9.2495117,11.3197632,9.2079773,11.3197632,9.2079773L11.3197632,9.2079773L11.3197632,9.2079773z"/>
	<path class="st6" d="M11.3876953,9.2304688l0.0018921,0.0102539c0.0048828,0.0229187,0.0215149,0.0361023,0.049408,0.039032
		l0.0062866,0.0005188l0.0019836,0.0058594C11.4536133,9.3027039,11.477478,9.3125,11.495575,9.3193054
		c0.0059204,0.0024414,0.0112,0.0043945,0.015625,0.0068359l0.0048828,0.0019531l0.0005188,0.0058594
		c0.0019836,0.015625,0.0131836,0.03125,0.0214844,0.0410156l0.0155945-0.0239258
		c-0.0039062-0.0131836-0.0140991-0.0400085-0.0297852-0.0444031L11.5166016,9.304657V9.2968445
		c0-0.019043-0.0229187-0.0297546-0.0420227-0.035614L11.469696,9.2597656l-0.0019226-0.0049133
		c-0.0053711-0.0170593-0.0253906-0.0239258-0.0492859-0.0322266L11.4111023,9.219696
		c-0.0097046-0.0082703-0.0429077-0.0078125-0.0713196-0.0043945c0.0108032,0.0102539,0.0253906,0.0205078,0.0376282,0.0175781
		L11.3876953,9.2304688L11.3876953,9.2304688z M11.5409851,9.4067078L11.5321655,9.398407
		c-0.0008545-0.000946-0.0282898-0.0263672-0.0345764-0.0566101c-0.0029907-0.0010071-0.0058899-0.0024719-0.0093079-0.0034485
		c-0.0195007-0.0078125-0.0458984-0.0180664-0.0575867-0.039032c-0.0292969-0.0049133-0.0498047-0.0205078-0.0585938-0.045929
		c-0.0308228-0.0004883-0.0572205-0.0346375-0.0601196-0.039032l-0.0097961-0.0131836l0.0162048-0.0029297
		c0.013092-0.0024719,0.0791016-0.0137024,0.1045227,0.0043945l0.0018616,0.000946
		c0.0249023,0.0083008,0.050293,0.0170898,0.0606079,0.0400696c0.0297241,0.0097351,0.0473022,0.0258484,0.0507202,0.0458679
		c0.026886,0.0131836,0.0370789,0.0561523,0.0385742,0.0615234l0.0005188,0.0039368L11.5409851,9.4067078L11.5409851,9.4067078z"/>
	<path class="st3" d="M11.967804,8.7714539c-0.0435181-0.0483398-0.1201172-0.0126648-0.1201172-0.0126648l-0.2050781,0.3534851
		l-0.0899353,0.0742493l-0.0072937,0.2768555l0.0742188,0.2587585L11.5937805,9.921875c0,0,0.1035156-0.0966797,0.1156921-0.1508789
		c0.0112305-0.0517883-0.0385742-0.2202454-0.0385742-0.2202454s-0.0614929-0.1054688,0.0126953-0.2997742
		C11.757782,9.0561523,11.9271851,8.8945007,11.967804,8.7714539L11.967804,8.7714539L11.967804,8.7714539z"/>
	<path class="st6" d="M11.5556946,9.4623718l0.0741882,0.2592773l-0.0004883,0.0019531L11.6078796,9.894043
		c0.0303345-0.0307617,0.0834961-0.0893555,0.0913086-0.1255188c0.0093079-0.0400085-0.0243835-0.1689148-0.0381165-0.2148438
		c-0.0014038-0.0024109-0.0619812-0.1093445,0.0132141-0.3066406c0.0404968-0.1064453,0.1089172-0.2026062,0.1694946-0.2875671
		c0.0498047-0.0703125,0.0932312-0.1313477,0.1127014-0.1850891c-0.0340881-0.0322266-0.0888062-0.0126648-0.1019897-0.0073242
		l-0.2055969,0.3530273l-0.085907,0.0712891L11.5556946,9.4623718L11.5556946,9.4623718z M11.5800781,9.9487l0.0293274-0.2255859
		l-0.0742188-0.2582703l0.0078125-0.2832336l0.0917664-0.0756531l0.2055359-0.355011l0.0029907-0.0014648
		c0.0033875-0.0014648,0.0843811-0.0380859,0.1322937,0.0151672l0.0039062,0.0048523L11.977478,8.7749023
		c-0.0190125,0.058075-0.0643921,0.1220398-0.1170959,0.1962891c-0.0600891,0.0839539-0.1275024,0.1791687-0.1674805,0.2831726
		c-0.0713196,0.1870422-0.0137024,0.2900391-0.0132141,0.2910461c0.0028992,0.0092468,0.0513,0.1737976,0.0394897,0.2275085
		c-0.0126953,0.0571289-0.1141968,0.1523438-0.118103,0.1567383L11.5800781,9.9487L11.5800781,9.9487z"/>
	<path class="st3" d="M12.4740906,9.0869141c0,0-0.320282,0.4570312-0.8442078,0.6200867
		c-0.1445007,0.0341797-0.0922852-0.3383789-0.0922852-0.3383789l-0.0355835,0.0102539c0,0-0.0806274,0.3652344,0.1126709,0.3691406
		c0.5263977-0.1040039,0.9214172-0.6581726,0.9214172-0.6581726l-0.0630188-0.0029297H12.4740906L12.4740906,9.0869141z"/>
	<path class="st6" d="M11.5107117,9.3866882c-0.0073242,0.0366211-0.0415344,0.2294922,0.0244751,0.3129883
		c0.0195007,0.0249023,0.0453796,0.0371094,0.0794983,0.0380859c0.4659119-0.0922852,0.8335266-0.5493164,0.901886-0.6386719
		L12.4790039,9.097168c-0.0361023,0.0492859-0.3535156,0.4662781-0.8457336,0.6196289
		c-0.026886,0.0063171-0.0487671,0.000946-0.066864-0.0151672c-0.0654297-0.0595398-0.0474243-0.2612305-0.0405273-0.3188171
		L11.5107117,9.3866882L11.5107117,9.3866882z M11.6166992,9.7578125c-0.042511-0.0005188-0.0742188-0.0161133-0.0977173-0.0454102
		C11.4408875,9.612793,11.4896851,9.3862,11.4921875,9.3764343l0.0010071-0.0058594l0.0565796-0.0161133l-0.0018921,0.015625
		c-0.0004883,0.0024719-0.0351868,0.2553711,0.032196,0.3164062c0.0127258,0.0117188,0.0282898,0.0151367,0.047821,0.0102539
		c0.5136719-0.1591797,0.8344727-0.6112976,0.8378906-0.6157227l0.0064087,0.004425l-0.0004883-0.0083313l0.0238647-0.0043945
		l-0.0033875,0.0048828l0.0630188,0.0029297l-0.0108337,0.0151672C12.5404968,9.1010437,12.1410828,9.6542664,11.6166992,9.7578125
		L11.6166992,9.7578125z"/>
	<path class="st3" d="M12.6908875,11.7157593c0,0-0.0487976,0.0362244-0.1128235,0
		c-0.0331726-0.0765686-0.1229858-0.0820007-0.1229858-0.0820007s-0.0575867-0.1654968-0.1484985-0.1176758
		c-0.0140991-0.085907-0.112793-0.0410156-0.112793-0.0410156s-0.0024109-0.1239929-0.1175842-0.1073914
		c0.0384827-0.1420898-0.1587219-0.1332703-0.1587219-0.1332703s-0.006897-0.1602478-0.2973938-0.1280212
		c0.6264954-0.2807007,1.1221008,0.4404907,1.1221008,0.4404907"/>
	<path class="st6" d="M12.6362,11.742157c-0.0185242,0-0.0395203-0.0043945-0.0630188-0.0175781l-0.0028992-0.0014954
		l-0.0014954-0.0029297c-0.0302124-0.070282-0.1131897-0.0761719-0.1141968-0.0761719l-0.0068054-0.0003967l-0.0019836-0.0064087
		c-0.0004883-0.0010071-0.0337219-0.0951843-0.0863953-0.1156921c-0.015625-0.0064087-0.0318298-0.0049133-0.0479431,0.0038757
		l-0.0126648,0.0063171l-0.0019226-0.0140991c-0.0033875-0.019104-0.0107727-0.0312805-0.0234985-0.0380859
		c-0.0292969-0.015625-0.074707,0.0048828-0.0751953,0.0048828l-0.0140991,0.0063171l-0.0004883-0.0151367
		c0-0.0009766-0.0014954-0.0536499-0.034729-0.0819702c-0.0175781-0.0147095-0.0419617-0.0205994-0.0712585-0.0162048
		l-0.0151367,0.0025024l0.0039062-0.0151978c0.0083313-0.0317078,0.0049133-0.0570984-0.0101929-0.0766296
		c-0.0380859-0.0473633-0.1372986-0.043457-0.1387024-0.043457l-0.0097961,0.0004883l-0.0005188-0.0101929
		c0-0.0015259-0.0023804-0.0406189-0.0419617-0.0743103c-0.0483093-0.0415039-0.1328125-0.0571289-0.2441101-0.0444031
		l-0.0054016-0.0195007c0.6275024-0.280304,1.1299133,0.4370117,1.1347961,0.4443054l-0.0166016,0.0116882
		c-0.0014954-0.0018921-0.1254883-0.1810913-0.3242188-0.3232117c-0.2446899-0.1757812-0.4887695-0.222168-0.726593-0.1376953
		c0.0869141-0.0023804,0.1523132,0.0166321,0.1958008,0.0537109c0.0342102,0.0292969,0.0440063,0.0625,0.0473938,0.0786133
		c0.0273132,0,0.1079102,0.0043945,0.1455383,0.0513c0.0170593,0.0214844,0.0228577,0.0487976,0.0176086,0.0805969
		c0.0292969-0.0014954,0.0536499,0.0057983,0.0726624,0.0223999c0.0288086,0.0244141,0.0380859,0.0619812,0.0404968,0.082489
		c0.019104-0.0057983,0.0533142-0.0136108,0.0801086,0.0005188c0.0151978,0.0082703,0.0259094,0.0214844,0.031311,0.0405884
		c0.0174866-0.0064087,0.0350952-0.0064087,0.0527039,0.0003967c0.0531921,0.0209961,0.0868835,0.0991821,0.0956726,0.1221008
		c0.022522,0.0028992,0.0928345,0.0171204,0.1235352,0.0845032c0.0566711,0.0292969,0.0986938-0.0010071,0.0991821-0.0010071
		l0.012207,0.0161133C12.6958008,11.7250977,12.671875,11.742157,12.6362,11.742157L12.6362,11.742157z"/>
	<path class="st3" d="M12.987793,11.776886c0,0,0.144989,0.1625977,0.2207031,0.1640015
		c0.0751953,0.0014954,0.0820007-0.1586914,0.0820007-0.1586914s0.0239868,0.0689087,0.061615,0.0513
		c-0.0040283,0.0482788,0.0457764,0.0614929,0.0457764,0.0614929s-0.1307983,0.3031921-0.5019226,0.0151978"/>
	<path class="st6" d="M13.183075,12.0448914c-0.0868835,0-0.1850891-0.042511-0.2934875-0.1269226l0.0122986-0.015686
		c0.1297913,0.1005859,0.2436218,0.1392212,0.3377991,0.1152954c0.0854797-0.0224915,0.1299133-0.0913086,0.144104-0.117218
		c-0.0176086-0.007782-0.0386047-0.0249023-0.0419922-0.0541992c-0.0054016,0.0005188-0.0112-0.0004883-0.0160828-0.0023804
		c-0.0117188-0.0049133-0.0215149-0.0151978-0.0288086-0.0259094c-0.0069275,0.0493164-0.0274353,0.1333008-0.0874329,0.1333008
		c-0.0004883,0-0.0009766,0-0.0014954,0c-0.0791016-0.0014954-0.2216797-0.1607056-0.227478-0.1674805l0.0150757-0.0132141
		c0.0396118,0.0440063,0.1548157,0.1591797,0.2129211,0.1602173c0.0004883,0,0.0004883,0,0.0004883,0
		c0.0537109,0,0.0693054-0.1075134,0.0713196-0.1490173l0.0194702-0.0028992
		c0.0039368,0.0102844,0.0171204,0.0395813,0.0332336,0.0458984c0.0048828,0.0020142,0.0092773,0.0020142,0.014679-0.0005188
		l0.0155945-0.007782l-0.0014954,0.0176086c-0.0028992,0.039978,0.0371094,0.0508118,0.0386047,0.0513l0.0117188,0.0028992
		l-0.0049438,0.0106812c-0.0018616,0.0043945-0.04776,0.1083984-0.1625977,0.1382141
		C13.2250977,12.0419922,13.2041016,12.0448914,13.183075,12.0448914L13.183075,12.0448914z"/>
	<path class="st3" d="M11.855011,11.8388672l-0.0513,0.2104187c0,0-0.0654297,0.0585938-0.045929,0.0712891
		c0.019104,0.0132141,0.1231079-0.0204773,0.1231079-0.0204773s0.1611023-0.0190125,0.2098999-0.0664368
		c0.0331726,0.0757141,0.1073914,0.0820007,0.1073914,0.0820007s0.0054321-0.032196-0.0047913-0.051178
		c0.035614,0.0063171,0.0664062-0.0049133,0.0664062-0.0049133s0.0205078-0.059082-0.0253906-0.0820923
		c0.0048828-0.0438843,0.0267944-0.0820007-0.0513-0.0771179c-0.0576172,0.0615234-0.2002258,0.1318054-0.2358093,0.1079102
		c-0.0357056-0.0244141,0.1410828-0.102478,0.0923157-0.2050781"/>
	<path class="st6" d="M11.7733765,12.1337891c-0.0091858,0-0.016571-0.0014954-0.0213928-0.0043945
		c-0.0048828-0.003418-0.0074158-0.0083008-0.0079041-0.0142212c-0.0014038-0.0213928,0.0357056-0.0575867,0.050293-0.0716858
		l0.0508118-0.2070923l0.0195007,0.0048828l-0.0516968,0.2134094l-0.0025024,0.0018921
		c-0.0249023,0.0224915-0.046814,0.0498047-0.0462952,0.0571899c0.0078125,0.0039062,0.0599976-0.0058899,0.1131897-0.0230103
		c0.0035095-0.0009766,0.1607056-0.0199585,0.2061157-0.0643921l0.0106812-0.0102844l0.0059204,0.0137024
		c0.0233765,0.0531921,0.0692749,0.0693054,0.089386,0.0741882c0.0003967-0.0106812,0-0.0253906-0.0054016-0.0346985
		l-0.0097961-0.0184937l0.0205078,0.0039062c0.0253906,0.0043945,0.0473938-0.0005188,0.0567017-0.003418
		c0.003418-0.0132141,0.0092163-0.0492859-0.0220032-0.0650024l-0.0064087-0.0028992l0.0010071-0.0072937
		c0.0009766-0.0072937,0.0020142-0.0141907,0.0033875-0.0209961c0.0030212-0.0166016,0.0054321-0.0307922-0.0003662-0.0371094
		c-0.00354-0.0043945-0.0132141-0.0087891-0.0396118-0.007782c-0.0576172,0.0589905-0.2030945,0.1357117-0.2460938,0.1064148
		c-0.0068054-0.0049438-0.0088196-0.0107422-0.0093384-0.0151367c-0.0008545-0.0147095,0.0137329-0.0292969,0.0367126-0.0513
		c0.0371094-0.0365906,0.0883179-0.0863953,0.0614929-0.1425781l0.0185242-0.0088196
		c0.0326843,0.069397-0.0267944,0.1275024-0.065918,0.1660156c-0.0126953,0.0122986-0.030304,0.0292969-0.030304,0.0351868
		c0.0269165,0.0181274,0.1621094-0.0415039,0.2232361-0.1063843l0.0023804-0.0029907h0.0039062
		c0.0312805-0.0024109,0.0498047,0.0019836,0.0600891,0.0136719c0.0127258,0.0142212,0.0093079,0.0337219,0.0054016,0.0546875
		c-0.0010071,0.0039368-0.0014954,0.0083313-0.0025024,0.0127258c0.0362244,0.023407,0.032196,0.0687866,0.0244141,0.0907898
		l-0.0014038,0.0049133l-0.0049133,0.0014038c-0.0009766,0.0004883-0.0249023,0.0087891-0.0551758,0.0073853
		c0.0038757,0.0189819,0.0009766,0.0385132,0.0004883,0.0409851l-0.0014954,0.0093384l-0.0097351-0.0005188
		c-0.0029907-0.0004883-0.0727539-0.0072937-0.1098938-0.0762024c-0.059082,0.0430298-0.1991882,0.0600891-0.2055969,0.0606079
		C11.8579102,12.1181946,11.8056946,12.1337891,11.7733765,12.1337891L11.7733765,12.1337891z"/>
</g>
</svg>
