<?xml version="1.0" encoding="utf-8"?>
<!-- Generator: Adobe Illustrator 22.1.0, SVG Export Plug-In . SVG Version: 6.00 Build 0)  -->
<svg version="1.1" id="Layer_1" xmlns="http://www.w3.org/2000/svg" xmlns:xlink="http://www.w3.org/1999/xlink" x="0px" y="0px"
	 viewBox="0 0 60 60" style="enable-background:new 0 0 60 60;" xml:space="preserve">
<style type="text/css">
	.st0{clip-path:url(#SVGID_2_);fill:#1D3E89;}
	.st1{clip-path:url(#SVGID_2_);fill:#FFFFFF;}
	.st2{clip-path:url(#SVGID_2_);fill:#DD760E;}
</style>
<g id="XMLID_1_">
	<g>
		<defs>
			<path id="SVGID_1_" d="M59,60H0.9999695C0.4477234,60,0,59.5526733,0,59V0.9999695c0-0.5522461,0.4477234-1,0.9999695-1H59
				c0.5526886,0,0.9999847,0.4477539,0.9999847,1V59C59.9999847,59.5526733,59.5526886,60,59,60L59,60z"/>
		</defs>
		<clipPath id="SVGID_2_">
			<use xlink:href="#SVGID_1_"  style="overflow:visible;"/>
		</clipPath>
		<polygon class="st0" points="0,-0.0000305 114,-0.0000305 114,60 0,60 0,-0.0000305 		"/>
		<polygon class="st1" points="0,59.039978 0,57.5995789 114,6.9999695 114,24.4799805 0,59.039978 		"/>
		<polygon class="st2" points="0,58.0800781 0,57.1200867 114,0.9599609 114,12.7201843 0,58.0800781 		"/>
		<polygon class="st1" points="21.907196,3.3070984 23.0253906,21.907196 20.789093,21.907196 21.907196,3.3070984 		"/>
		<polygon class="st1" points="25.3539734,9.0434265 23.2255859,22.2602844 20.5888977,21.5541992 25.3539734,9.0434265 		"/>
		<polygon class="st1" points="28.5658875,10.3739624 23.089386,22.5897827 20.7250977,21.2245789 28.5658875,10.3739624 		"/>
		<polygon class="st1" points="31.3241882,12.4901733 22.8721008,22.8720703 20.9423828,20.9423828 31.3241882,12.4901733 		"/>
		<polygon class="st1" points="33.4403687,15.2484741 22.5897827,23.089386 21.2245789,20.7250977 33.4403687,15.2484741 		"/>
		<polygon class="st1" points="34.7714844,18.4603882 22.2602844,23.2255859 21.5541992,20.5888977 34.7714844,18.4603882 		"/>
		<polygon class="st1" points="40.5067749,21.907196 21.907196,23.0253906 21.907196,20.7890625 40.5067749,21.907196 		"/>
		<polygon class="st1" points="34.7714844,25.3539734 21.5541992,23.2255859 22.2602844,20.5888977 34.7714844,25.3539734 		"/>
		<polygon class="st1" points="33.4403687,28.5658875 21.2245789,23.089386 22.5897827,20.7250977 33.4403687,28.5658875 		"/>
		<polygon class="st1" points="31.3241882,31.3241882 20.9423828,22.8720703 22.8721008,20.9423828 31.3241882,31.3241882 		"/>
		<polygon class="st1" points="28.5658875,33.4403687 20.7250977,22.5897827 23.089386,21.2245789 28.5658875,33.4403687 		"/>
		<polygon class="st1" points="25.3539734,34.7714844 20.5888977,22.2602844 23.2255859,21.5541992 25.3539734,34.7714844 		"/>
		<polygon class="st1" points="21.907196,40.5067749 20.789093,21.907196 23.0253906,21.907196 21.907196,40.5067749 		"/>
		<polygon class="st1" points="18.4603882,34.7714844 20.5888977,21.5541992 23.2255859,22.2602844 18.4603882,34.7714844 		"/>
		<polygon class="st1" points="15.2484741,33.4403687 20.7250977,21.2245789 23.089386,22.5897827 15.2484741,33.4403687 		"/>
		<polygon class="st1" points="12.4901733,31.3241882 20.9423828,20.9423828 22.8721008,22.8720703 12.4901733,31.3241882 		"/>
		<polygon class="st1" points="10.3739929,28.5658875 21.2245789,20.7250977 22.5897827,23.089386 10.3739929,28.5658875 		"/>
		<polygon class="st1" points="9.0434265,25.3539734 21.5541992,20.5888977 22.2602844,23.2255859 9.0434265,25.3539734 		"/>
		<polygon class="st1" points="3.3070984,21.907196 21.907196,20.7890625 21.907196,23.0253906 3.3070984,21.907196 		"/>
		<polygon class="st1" points="9.0434265,18.4603882 22.2602844,20.5888977 21.5541992,23.2255859 9.0434265,18.4603882 		"/>
		<polygon class="st1" points="10.3739929,15.2484741 22.5897827,20.7250977 21.2245789,23.089386 10.3739929,15.2484741 		"/>
		<polygon class="st1" points="12.4901733,12.4901733 22.8721008,20.9423828 20.9423828,22.8720703 12.4901733,12.4901733 		"/>
		<polygon class="st1" points="15.2484741,10.3739624 23.089386,21.2245789 20.7250977,22.5897827 15.2484741,10.3739624 		"/>
		<polygon class="st1" points="18.4603882,9.0434265 23.2255859,21.5541992 20.5888977,22.2602844 18.4603882,9.0434265 		"/>
	</g>
</g>
</svg>
