<?xml version="1.0" encoding="utf-8"?>
<!-- Generator: Adobe Illustrator 22.1.0, SVG Export Plug-In . SVG Version: 6.00 Build 0)  -->
<svg version="1.1" id="Layer_1" xmlns="http://www.w3.org/2000/svg" xmlns:xlink="http://www.w3.org/1999/xlink" x="0px" y="0px"
	 viewBox="0 0 60 60" style="enable-background:new 0 0 60 60;" xml:space="preserve">
<style type="text/css">
	.st0{clip-path:url(#SVGID_2_);fill:#CE2C3F;}
	.st1{clip-path:url(#SVGID_2_);fill:#036333;}
	.st2{clip-path:url(#SVGID_2_);fill:#FDC30B;}
</style>
<g id="XMLID_1_">
	<g>
		<defs>
			<path id="SVGID_1_" d="M59,60H0.9999695C0.4477234,60,0,59.5526733,0,59V0.9999695c0-0.5522461,0.4477234-1,0.9999695-1H59
				c0.5526886,0,0.9999847,0.4477539,0.9999847,1V59C59.9999847,59.5526733,59.5526886,60,59,60L59,60z"/>
		</defs>
		<clipPath id="SVGID_2_">
			<use xlink:href="#SVGID_1_"  style="overflow:visible;"/>
		</clipPath>
		<polygon class="st0" points="-15,-0.0000305 74.9999847,-0.0000305 74.9999847,60 -15,60 -15,-0.0000305 		"/>
		<polygon class="st1" points="-15,8.9999695 74.9999847,8.9999695 74.9999847,51 -15,51 -15,8.9999695 		"/>
		<path class="st2" d="M48.75,19.3251648C48.7001953,29.6347656,40.320282,37.9745789,30,37.9745789
			c-10.3197937,0-18.7001953-8.3398132-18.75-18.6494141c-0.4102173,1.5698242-0.6299133,3.2099915-0.6299133,4.8999023
			c0,10.699707,8.6698914,19.3804016,19.3799133,19.3804016c10.7099915,0,19.3799133-8.6708984,19.3799133-19.3804016
			C49.3799133,22.5351562,49.1601868,20.8847961,48.75,19.3251648L48.75,19.3251648L48.75,19.3251648z"/>
		<polygon class="st2" points="30,11.7250977 28.3158875,16.9071655 22.8671875,16.9071655 27.2753906,20.1103821 
			25.5917664,25.2924805 30,22.0897827 34.4081726,25.2924805 32.7246094,20.1103821 37.132782,16.9071655 31.6835938,16.9071655 
			30,11.7250977 		"/>
	</g>
</g>
</svg>
