<?xml version="1.0" encoding="utf-8"?>
<!-- Generator: Adobe Illustrator 22.1.0, SVG Export Plug-In . SVG Version: 6.00 Build 0)  -->
<svg version="1.1" id="Layer_1" xmlns="http://www.w3.org/2000/svg" xmlns:xlink="http://www.w3.org/1999/xlink" x="0px" y="0px"
	 viewBox="0 0 60 60" style="enable-background:new 0 0 60 60;" xml:space="preserve">
<style type="text/css">
	.st0{clip-path:url(#SVGID_2_);fill:#DB2133;}
	.st1{clip-path:url(#SVGID_2_);fill:#1166B0;}
	.st2{clip-path:url(#SVGID_2_);fill:#FFD902;}
</style>
<g id="XMLID_1_">
	<g>
		<defs>
			<path id="SVGID_1_" d="M59,60H0.9999695C0.4477234,60,0,59.5526733,0,59V0.9999695c0-0.5522461,0.4477234-1,0.9999695-1H59
				c0.5526886,0,0.9999847,0.4477539,0.9999847,1V59C59.9999847,59.5526733,59.5526886,60,59,60L59,60z"/>
		</defs>
		<clipPath id="SVGID_2_">
			<use xlink:href="#SVGID_1_"  style="overflow:visible;"/>
		</clipPath>
		<polygon class="st0" points="0,-0.0000305 59.9999847,-0.0000305 59.9999847,60 0,60 0,-0.0000305 		"/>
		<polygon class="st1" points="20,-0.0000305 39.9999695,-0.0000305 39.9999695,60 20,60 20,-0.0000305 		"/>
		<path class="st2" d="M9.9999695,35.3251953c0.2764282,0,0.5000305,0.2236023,0.5000305,0.4999695
			c0,0.2764282-0.2236023,0.5-0.5000305,0.5c-0.2763367,0-0.4999695-0.2235718-0.4999695-0.5
			C9.5,35.5487976,9.7236328,35.3251953,9.9999695,35.3251953L9.9999695,35.3251953z M11.1875,32.3027039
			c0.1859741,0.2529602,0.2865906,0.5585938,0.2870789,0.8720703c0.0004883,0.8145142-0.6600952,1.4756165-1.4746094,1.4756165
			c-0.6489258,0-1.1747742,0.5263672-1.1747742,1.1747742c0,0.6484375,0.5258484,1.1748047,1.1747742,1.1748047
			c1.3809204,0,2.5000305-1.1190796,2.5000305-2.5C12.5,33.5820007,11.9950867,32.7382812,11.1875,32.3027039L11.1875,32.3027039
			L11.1875,32.3027039z M7.5,30.5h5v0.9999695h-5V30.5L7.5,30.5z M7.5,28.4999695l2.4999695,1.5l2.5000305-1.5H7.5L7.5,28.4999695z
			 M7.5,37.4999695h5v1h-5V37.4999695L7.5,37.4999695z M7.5,38.9999695l2.4999695,1.5l2.5000305-1.5H7.5L7.5,38.9999695z
			 M12.9999695,28.4999695H15.5v12h-2.5000305V28.4999695L12.9999695,28.4999695z M4.5,28.4999695h2.4999695v12H4.5V28.4999695
			L4.5,28.4999695z"/>
		<path class="st2" d="M7.2548523,25.195282C7.2529297,25.2133789,7.2514343,25.2319031,7.25,25.25
			c0,1.5185852,1.2309265,2.7499695,2.7499695,2.7499695C11.5185852,27.9999695,12.75,26.7685852,12.75,25.25
			c0-0.0166321,0-0.0332336,0-0.0498047c-0.4771118,1.0922852-1.5556946,1.7987976-2.7479858,1.7997742
			C8.8090515,26.9979858,7.7304688,26.2895813,7.2548523,25.195282L7.2548523,25.195282L7.2548523,25.195282z M9.9999695,33.6747742
			c-0.2763367,0-0.4999695-0.2236023-0.4999695-0.5s0.2236328-0.5,0.4999695-0.5c0.2764282,0,0.5000305,0.2236023,0.5000305,0.5
			S10.2763977,33.6747742,9.9999695,33.6747742L9.9999695,33.6747742z M8.8125,36.6972656
			c-0.1860352-0.2529602-0.2866211-0.5585938-0.2871094-0.8721008c-0.0005188-0.8144836,0.6601257-1.4755859,1.4745789-1.4755859
			c0.6488953,0,1.1748047-0.5263977,1.1748047-1.1748047S10.6488647,32,9.9999695,32C8.6191406,32,7.5,33.1190796,7.5,34.4999695
			C7.5,35.4179688,8.0048523,36.2616882,8.8125,36.6972656L8.8125,36.6972656L8.8125,36.6972656z"/>
		<path class="st2" d="M10.0020142,22.4999695c1.1043701,0,1.9999695,0.8955078,1.9999695,2.0000305
			c0,1.1044922-0.8955994,1.9999695-1.9999695,1.9999695c-1.1045532,0-2.0000916-0.8954773-2.0000916-1.9999695
			C8.0019226,23.3954773,8.8974609,22.4999695,10.0020142,22.4999695L10.0020142,22.4999695z"/>
		<path class="st2" d="M10.2099915,18.0004883c-0.2481079,0.112793-0.3413391,0.3164062-0.3613586,0.5184937
			c-0.012207,0.1705017,0.0629883,0.3628235,0.0703125,0.5292969c0,0.2871094-0.2969055,0.3813782-0.2969055,0.7911072
			c0,0.1410828,0.1299133,0.2958984,0.1299133,0.6610718c-0.0224609,0.191925-0.1293945,0.235321-0.2500305,0.2500305
			c-0.1376953,0-0.2499695-0.1117859-0.2499695-0.2500305c0.0004883-0.0639648,0.0253906-0.1254578,0.0693359-0.171875
			c0.007782-0.0088196,0.016571-0.0170898,0.0258789-0.0249023c0.0566101-0.0575867,0.1347656-0.0800781,0.1342468-0.2314148
			c0-0.078186-0.0502625-0.1489563-0.0986023-0.2870789c-0.0454102-0.1343079-0.012207-0.3580017,0.0956726-0.4902954
			c-0.1747742,0.0673828-0.2827148,0.2348938-0.3378601,0.3858032c-0.0576477,0.184967-0.0073242,0.2915039-0.0869446,0.445282
			c-0.0483398,0.0990906-0.1059265,0.140625-0.160614,0.2236023C8.828125,20.4398804,8.7519226,20.651886,8.7519226,20.75
			c0,0.6903687,0.5595703,1.2499695,1.2500916,1.2499695l0,0c0.6903687,0,1.2499695-0.5596008,1.2499695-1.2499695l0,0
			c0-0.098114-0.0747986-0.3101196-0.139679-0.4004211c-0.054718-0.0829773-0.1133423-0.1245117-0.1621094-0.2236023
			c-0.0786133-0.1537781-0.0278015-0.2603149-0.085907-0.445282c-0.0551758-0.1509094-0.1630859-0.3184204-0.3378906-0.3858032
			c0.1083984,0.1322937,0.1410828,0.3559875,0.0957031,0.4902954c-0.0484009,0.1376953-0.0996094,0.2088928-0.0996094,0.2870789
			c0,0.1513367,0.0780945,0.1738281,0.1347046,0.2314148c0.0092773,0.0078125,0.0175781,0.0160828,0.0259094,0.0249023
			c0.0440063,0.0464172,0.0689087,0.1079102,0.0689087,0.171875c0,0.1382446-0.1119385,0.2500305-0.2500305,0.2500305
			c-0.1381836-0.0176086-0.2373962-0.0820007-0.25-0.2500305c0-0.4809875,0.2059937-0.5116882,0.2059937-0.8681641
			c0-0.5083008-0.4559631-0.7490234-0.4559631-1.1210938C10.0020142,18.3852844,10.0316772,18.1703796,10.2099915,18.0004883
			L10.2099915,18.0004883L10.2099915,18.0004883z"/>
	</g>
</g>
</svg>
