<?xml version="1.0" encoding="utf-8"?>
<!-- Generator: Adobe Illustrator 22.1.0, SVG Export Plug-In . SVG Version: 6.00 Build 0)  -->
<svg version="1.1" id="Layer_1" xmlns="http://www.w3.org/2000/svg" xmlns:xlink="http://www.w3.org/1999/xlink" x="0px" y="0px"
	 viewBox="0 0 60 60" style="enable-background:new 0 0 60 60;" xml:space="preserve">
<style type="text/css">
	.st0{clip-path:url(#SVGID_2_);fill:#232F5D;}
	.st1{clip-path:url(#SVGID_2_);fill:#020203;}
	.st2{clip-path:url(#SVGID_2_);fill:#FFFFFF;}
	.st3{clip-path:url(#SVGID_5_);}
	.st4{clip-path:url(#SVGID_6_);fill:#020203;}
	.st5{clip-path:url(#SVGID_6_);fill:#C91430;}
	.st6{clip-path:url(#SVGID_8_);fill:#020203;}
	.st7{clip-path:url(#SVGID_8_);fill:#FFFFFF;}
	.st8{clip-path:url(#SVGID_8_);fill:#C91430;}
	.st9{clip-path:url(#SVGID_8_);fill:#232F5D;}
	.st10{clip-path:url(#SVGID_8_);fill:#08A2BD;}
	.st11{clip-path:url(#SVGID_8_);fill:#A63F17;}
	.st12{clip-path:url(#SVGID_8_);fill:#F4991D;}
	.st13{clip-path:url(#SVGID_8_);fill:#FFDF0C;}
	.st14{clip-path:url(#SVGID_8_);fill:#FDE0D1;}
</style>
<g id="XMLID_1_">
	<g>
		<defs>
			<path id="SVGID_1_" d="M59,60H0.9999695C0.4477234,60,0,59.5526733,0,59V0.9999695c0-0.5522461,0.4477234-1,0.9999695-1H59
				c0.5526886,0,0.9999847,0.4477539,0.9999847,1V59C59.9999847,59.5526733,59.5526886,60,59,60L59,60z"/>
		</defs>
		<clipPath id="SVGID_2_">
			<use xlink:href="#SVGID_1_"  style="overflow:visible;"/>
		</clipPath>
		<polygon class="st0" points="-29.3027039,0.0268555 90.6435852,0.0268555 90.6435852,60 -29.3027039,60 -29.3027039,0.0268555 		
			"/>
		<path class="st1" d="M30.6703796,0.0268555l-59.9730835,29.9863281 M-29.3027039,0.0268555l59.9730835,29.9863281"/>
		<polygon class="st2" points="29.3295898,32.695282 0.684082,18.3725891 -27.9619141,32.695282 -30.6440125,27.3310852 
			-6.0214844,15.019989 -30.6440125,2.7089844 -27.9619141,-2.6552734 0.684082,11.6674805 29.3295898,-2.6552734 
			32.0116882,2.7089844 7.3891602,15.019989 32.0116882,27.3310852 29.3295898,32.695282 		"/>
	</g>
	<g>
		<defs>
			<path id="SVGID_3_" d="M30.6703796,0.0268555H0.684082v34.9838257h-29.9867859v-4.9974976L30.6703796,0.0268555
				L30.6703796,0.0268555z M-29.3027039,0.0268555V15.019989h69.968689v14.9931946h-9.9956055L-29.3027039,0.0268555
				L-29.3027039,0.0268555z"/>
		</defs>
		<defs>
			<path id="SVGID_4_" d="M59,60H0.9999695C0.4477234,60,0,59.5526733,0,59V0.9999695c0-0.5522461,0.4477234-1,0.9999695-1H59
				c0.5526886,0,0.9999847,0.4477539,0.9999847,1V59C59.9999847,59.5526733,59.5526886,60,59,60L59,60z"/>
		</defs>
		<clipPath id="SVGID_5_">
			<use xlink:href="#SVGID_3_"  style="overflow:visible;"/>
		</clipPath>
		<clipPath id="SVGID_6_" class="st3">
			<use xlink:href="#SVGID_4_"  style="overflow:visible;"/>
		</clipPath>
		<path class="st4" d="M30.6703796,0.0268555l-59.9730835,29.9863281 M-29.3027039,0.0268555l59.9730835,29.9863281"/>
		<polygon class="st5" points="29.7763977,31.8017578 0.684082,17.2548828 -28.4087219,31.8017578 -30.1968079,28.2250977 
			-3.7861328,15.019989 -30.1968079,1.8149109 -28.4087219,-1.761261 0.684082,12.784668 29.7763977,-1.761261 
			31.5645142,1.8149109 5.1538086,15.019989 31.5645142,28.2250977 29.7763977,31.8017578 		"/>
	</g>
	<g>
		<defs>
			<path id="SVGID_7_" d="M59,60H0.9999695C0.4477234,60,0,59.5526733,0,59V0.9999695c0-0.5522461,0.4477234-1,0.9999695-1H59
				c0.5526886,0,0.9999847,0.4477539,0.9999847,1V59C59.9999847,59.5526733,59.5526886,60,59,60L59,60z"/>
		</defs>
		<clipPath id="SVGID_8_">
			<use xlink:href="#SVGID_7_"  style="overflow:visible;"/>
		</clipPath>
		<path class="st6" d="M-29.3027039,15.019989h69.968689 M0.684082,0.0268555v34.9838257"/>
		<polygon class="st7" points="5.6816101,35.0106812 -4.3139648,35.0106812 -4.3139648,20.0175781 -29.3027039,20.0175781 
			-29.3027039,10.0219727 -4.3139648,10.0219727 -4.3139648,0.0268555 5.6816101,0.0268555 5.6816101,10.0219727 
			40.6659851,10.0219727 40.6659851,20.0175781 5.6816101,20.0175781 5.6816101,35.0106812 		"/>
		<path class="st6" d="M-29.3027039,15.019989h69.968689 M0.684082,0.0268555v34.9838257"/>
		<polygon class="st8" points="3.6826172,35.0106812 -2.3149719,35.0106812 -2.3149719,18.0185852 -29.3027039,18.0185852 
			-29.3027039,12.0214844 -2.3149719,12.0214844 -2.3149719,0.0268555 3.6826172,0.0268555 3.6826172,12.0214844 
			40.6659851,12.0214844 40.6659851,18.0185852 3.6826172,18.0185852 3.6826172,35.0106812 		"/>
		<polygon class="st9" points="-29.3027039,30.0131836 30.6703796,30.0131836 30.6703796,0.0268555 90.6435852,0.0268555 
			90.6435852,60 -29.3027039,60 -29.3027039,30.0131836 		"/>
		<path class="st7" d="M47.6094055,14.7724915H73.286087l-0.0301971,18.2705078
			C73.4687958,40.3876953,68.8915863,44.945282,60.4677887,47c-5.9804993-1.4854126-12.878006-4.5566101-12.8877106-13.7480164
			l0.0303345-18.4794922H47.6094055L47.6094055,14.7724915z"/>
		<path class="st10" d="M48.1776733,15.3231812h24.5391083l-0.0292969,17.5079041
			c0.2041016,7.0379944-4.1708984,11.4051819-12.2206879,13.3739929
			c-5.7168121-1.4228821-12.3076172-4.3671875-12.3174133-13.1737976l0.0293274-17.7080994H48.1776733L48.1776733,15.3231812z"/>
		<path class="st6" d="M48.2685852,15.414093l-0.0292969,17.6171875
			c0.0106812,8.9862976,6.9764862,11.7705078,12.2275085,13.0809937c8.2460785-2.023407,12.3270874-6.4902039,12.1298828-13.2782898
			l0.0292969-17.4198914H48.2685852L48.2685852,15.414093z M60.4667969,46.2987671l-0.0225067-0.0057983
			c-5.3125-1.3222961-12.3759003-4.1357727-12.3856964-13.2616882l0.0292969-17.7080994h0.0897827v-0.0903015h24.6289215v0.0907898
			L72.777298,32.8310852c0.2001801,6.8886108-3.9345093,11.4188843-12.2890167,13.4618835L60.4667969,46.2987671
			L60.4667969,46.2987671z"/>
		<path class="st11" d="M72.5263824,34.9052734c-0.8936005,6.7177124-6.0673981,9.6533203-12.0606079,11.210907
			c-5.3046875-1.4227905-11.0126801-3.695282-12.1190948-11.1777039L72.5263824,34.9052734L72.5263824,34.9052734
			L72.5263824,34.9052734z"/>
		<polygon class="st6" points="59.4940948,18.5849915 59.4599915,16.3783569 61.2050934,16.3954773 61.2216797,18.5849915 
			65.9940796,18.5849915 66.0106812,20.2953796 61.2216797,20.3124695 61.1835785,40.4853821 59.4813843,40.4960938 
			59.4599915,20.2953796 54.7040863,20.3124695 54.7050781,18.5678711 59.4940948,18.5849915 		"/>
		<path class="st12" d="M55.6308899,35.7372742l4.368103,4.532196c1.5108032-1.6600647,0.4628906-7.8661804-1.523407-9.0097046
			c-0.2382965,0.735321-0.6436005,1.6162109-1.0742035,1.9004211c-0.9462891,0.6454773-3.2675934,1.4002991-2.4921875,1.882782
			c0.1776733-0.2441711,0.6396027-0.4755859,0.8573914,0.0683289c0.2588196,0.8574829-0.9657898,0.9121094-0.9657898,0.9121094
			s-0.7754059-0.0957336-0.9121094-0.8847351c-0.135788-0.789093,1.1552124-1.5097961,1.2655945-1.5654907
			c0.1094055-0.0400085,1.7969055-0.4891968,2.082016-1.9862976c0.3544922-1.4702148,0.7216949-1.2518921,0.7900848-1.2792969
			c2.2041168,0.217804,3.6464996,4.164093,3.7285004,6.9403992c0.0809937,2.7763977-1.1298981,4.6133118-1.347702,4.7353821
			c-0.2176971,0.1230164-5.2528992-5.9736023-5.2528992-5.9736023L55.6308899,35.7372742L55.6308899,35.7372742
			L55.6308899,35.7372742z"/>
		<path class="st6" d="M55.6942902,35.734375l4.3027954,4.4638062c0.6406097-0.7547913,0.843689-2.4570007,0.5283051-4.4677124
			c-0.3311005-2.1191711-1.1220856-3.8329773-2.023407-4.3974915c-0.2422028,0.7285156-0.6455841,1.5849915-1.073288,1.8671875
			c-0.2978058,0.203125-0.7344208,0.4179993-1.155304,0.6269226c-0.683609,0.3378906-1.4580078,0.7197876-1.4716034,0.9931946
			c-0.0019989,0.0556946,0.0292969,0.1074219,0.09758,0.1582031c0.1182251-0.1416016,0.3203125-0.2705078,0.5235138-0.2450867
			c0.1170959,0.0136719,0.2801971,0.0888672,0.3885956,0.3603821c0.069397,0.2265015,0.0469055,0.4189148-0.0643921,0.5751038
			C55.7313843,35.6923828,55.7138824,35.7138672,55.6942902,35.734375L55.6942902,35.734375z M55.2285004,36.023407
			c1.9316864,2.3378906,4.8544922,5.7841797,5.1659851,5.9111938c0.2324982-0.1670227,1.3916016-1.9649048,1.3125-4.6856384
			c-0.0809937-2.7303772-1.5184937-6.6688843-3.6766815-6.8925781c-0.0137177,0.0030212-0.02742,0.0024719-0.0440063,0.0019836
			c-0.0986176-0.0014954-0.4013062-0.0112-0.7021027,1.2393188c-0.1026154,0.5332031-0.5077972,1.5068054-2.0781097,2.0096741
			c-0.0165863,0.0059204-0.0283966,0.0088196-0.0341949,0.0117188c-0.2871094,0.1435852-1.3535156,0.828186-1.2354126,1.5118103
			c0.1289062,0.7450867,0.8623199,0.843689,0.8701172,0.844696c-0.0009155-0.0010071,0.253891-0.0137024,0.4999847-0.1083984
			l0.2715149-0.155304c0.0341949-0.0292969,0.0644836-0.0625,0.0907898-0.0986023
			c0.0928192-0.1309204,0.1093903-0.2948914,0.0518036-0.4883118c-0.0723114-0.1786804-0.1768036-0.2792969-0.3104858-0.2958984
			c-0.1719208-0.0214844-0.3623199,0.1054993-0.4610291,0.2421875l-0.0272675,0.0371399l-0.0381165-0.0244141
			c-0.1231079-0.0762024-0.183609-0.1669922-0.1787109-0.2685852c0.0166168-0.3300171,0.7490082-0.6914062,1.5254059-1.0751953
			c0.4189148-0.2070312,0.8515015-0.4208984,1.1435089-0.6201172c0.4198914-0.2763062,0.820282-1.1494141,1.0546875-1.875
			l0.0186005-0.0566101l0.051712,0.030304c0.9472809,0.5439148,1.780304,2.3095093,2.1220856,4.4960022
			c0.2549133,1.6260071,0.2344055,3.6856079-0.585907,4.5870056l-0.0351868,0.0379944l-4.3760071-4.5400085
			c-0.0830078,0.0674133-0.1805878,0.1181946-0.2782898,0.156311L55.2285004,36.023407L55.2285004,36.023407z M60.402298,42.0351562
			c-0.0976257,0-0.4461975-0.2695618-2.7391968-2.960968c-1.272522-1.4921875-2.5332184-3.0185242-2.5458984-3.0342102
			l-0.0098267-0.0116882c-0.1640015,0.0361938-0.2928772,0.0429993-0.3046875,0.0429993
			c-0.0156097-0.0010071-0.8213043-0.1094055-0.9618988-0.9248047c-0.1473846-0.8545227,1.2774048-1.6083984,1.2919922-1.6162109
			c0.0117188-0.0048828,0.0254059-0.0088196,0.0440063-0.014679c0.6532898-0.2090149,1.7831879-0.7391968,2.0126953-1.9375
			c0.2832184-1.1791992,0.5791168-1.3261108,0.7998047-1.3164062c0.0086975,0,0.0166168,0.0010071,0.0213928,0l0.011795-0.004425
			l0.0088196,0.0020142c1.0096893,0.1001282,1.968689,1.0014038,2.6991882,2.5386047
			c0.6289062,1.3232117,1.0293121,2.9873047,1.0722046,4.4482117c0.0829926,2.8065796-1.1591034,4.6610718-1.3710938,4.7802734
			C60.4228973,42.0302734,60.414978,42.0351562,60.402298,42.0351562L60.402298,42.0351562z"/>
		<line class="st12" x1="58.8153992" y1="31.5185852" x2="58.8427887" y2="39.6972656"/>
		<polygon class="st6" points="58.7938995,39.6981812 58.7665863,31.5185852 58.8632965,31.5185852 58.8905792,39.6972656 
			58.7938995,39.6981812 		"/>
		<path class="st12" d="M58.3251801,31.6679688c0,0.0136414,0.027298,7.4306335,0.027298,7.4306335"/>
		<path class="st6" d="M58.3047028,39.0995789c-0.0020294-0.3037109-0.02742-7.4179688-0.02742-7.4316101h0.0966949
			c0,0.0224304,0.0263977,7.3564148,0.0274048,7.4306335L58.3047028,39.0995789L58.3047028,39.0995789z"/>
		<line class="st12" x1="57.7948761" y1="32.7431641" x2="57.8222961" y2="38.6493835"/>
		<polygon class="st6" points="57.7733917,38.6503906 57.7460938,32.7440796 57.842804,32.7431641 57.8700714,38.6493835 
			57.7733917,38.6503906 		"/>
		<line class="st12" x1="57.3594055" y1="33.164978" x2="57.386673" y2="38.0507812"/>
		<polygon class="st6" points="57.3379059,38.0517883 57.3104858,33.1659851 57.4071808,33.164978 57.4345856,38.0507812 
			57.3379059,38.0517883 		"/>
		<polygon class="st6" points="56.9442902,37.5067749 56.848587,37.5067749 56.848587,33.382782 56.9442902,33.382782 
			56.9442902,37.5067749 		"/>
		<polygon class="st6" points="56.441391,36.9755554 56.3446808,36.9755554 56.3446808,33.7099915 56.441391,33.7099915 
			56.441391,36.9755554 		"/>
		<polygon class="st6" points="56.0058899,36.4726868 55.9091797,36.4726868 55.9091797,33.9687805 56.0058899,33.9687805 
			56.0058899,36.4726868 		"/>
		<path class="st13" d="M60.0673981,41.460907c-0.0137024,0-0.02742-0.0058289-0.0361176-0.0166321l-4.5048981-5.1581726
			c-0.0176086-0.0195312-0.0157013-0.0498047,0.0048981-0.0673218c0.019516-0.0175781,0.050705-0.0157166,0.0683136,0.0038757
			l4.5039062,5.1582336c0.0176086,0.0195007,0.0155792,0.0506897-0.0039062,0.0682983
			C60.0897827,41.4570007,60.0790863,41.460907,60.0673981,41.460907L60.0673981,41.460907z"/>
		<path class="st13" d="M55.0321808,35.4062805c-0.0106964,0-0.0214996-0.0019836-0.032196-0.0058899
			c-0.0469055-0.0185852-0.070282-0.0703125-0.0527039-0.117218c0.0175171-0.0458984,0.1141968-0.2802734,0.2793121-0.3222961
			c0.0488129-0.0135803,0.1250153-0.0135803,0.2049866,0.054718c0.0372162,0.0322876,0.0420074,0.0899048,0.0098114,0.1279907
			c-0.0332184,0.0370789-0.0897827,0.0419006-0.1278992,0.0097046c-0.0244141-0.0214844-0.0370941-0.0184937-0.0420227-0.0176086
			c-0.0536652,0.0137024-0.1239777,0.131897-0.1552734,0.2120056
			C55.1024933,35.3837891,55.0683899,35.4062805,55.0321808,35.4062805L55.0321808,35.4062805z"/>
		<path class="st13" d="M54.3104858,35.4472656c-0.0233917,0-0.0467987-0.0097961-0.0644073-0.0273743
			c-0.1122894-0.1162109-0.1659851-0.2548828-0.1601868-0.4130859c0.0166016-0.4423218,0.5117798-0.8838196,0.5322876-0.9023438
			c0.0381165-0.0331726,0.0947266-0.0292969,0.1279144,0.0078125c0.0331879,0.0381165,0.0292969,0.0947266-0.0077972,0.1278992
			c-0.0049133,0.0039062-0.4579926,0.4092102-0.4717102,0.7744141c-0.003891,0.1074829,0.032196,0.1993103,0.1094055,0.2784119
			c0.0350952,0.0360718,0.0341797,0.093689-0.0019989,0.1289062C54.3563843,35.4384766,54.3339691,35.4472656,54.3104858,35.4472656
			L54.3104858,35.4472656z"/>
		<path class="st14" d="M59.4706879,24.6078796c-0.4042969,0.1010742-1.0527039-0.0717773-1.5430145-0.0140991
			c-0.2158051,0.0252991-0.3885956-0.0864868-0.3592987-0.3027954c0.0283051-0.2163086,0.0576019-0.5477905,0.0136261-0.8505859
			c-0.0674133-0.4712219,0.1581726-1.1240234,0.4755707-1.8447266c0.3174133-0.7202148,0.4756165-1.1239929,0.4756165-1.4623718
			c0-0.2236328,0.0214996-0.4761047,0.223587-0.6054993c0.1495056-0.0957336,0.1778107-0.1889343,0.2305145-0.2666016
			c0.1221008-0.1801147,0.2373047-0.2236023,0.2520142-0.1152039c0.0086975,0.0639648-0.0147095,0.1225891-0.0723114,0.2089844
			c0.1298981-0.1083984,0.3506012-0.2344055,0.4004059-0.2704773c0.0507965-0.0357056,0.3065796-0.2158203,0.3202972-0.0469055
			c0.1016083-0.0503235,0.1698914-0.0469055,0.1952972,0.0072937c0.0273895,0.0585938,0.0108032,0.0830078-0.0399933,0.1260071
			c0.0721893-0.0142212,0.1551819,0.1117859,0.0106964,0.2236023c0.0762024-0.0254211,0.1513977,0.1010742,0.0186005,0.2162781
			c-0.1386871,0.1187134-0.2958984,0.2017212-0.3466949,0.2955017C59.6757965,20,59.3329926,20.2626648,59.1962891,20.320282
			s-0.1444855,0.1367188-0.1444855,0.3388977c0,2.2192078-0.2657318,2.0390015-0.2657318,2.5726929
			c0,0.144104-0.0292969,0.2735291,0.1153107,0.2304993c0.1434937-0.0434875,0.3525085-0.1083984,0.5693054-0.1083984V24.6078796
			L59.4706879,24.6078796L59.4706879,24.6078796z"/>
		<path class="st6" d="M58.1562805,24.5614929c0.1669006,0,0.3427124,0.0151978,0.5146027,0.0302734
			c0.2910004,0.0254211,0.5674133,0.0493164,0.7792969,0.0005188v-1.217804
			c-0.1981964,0.003418-0.3886871,0.0606079-0.5282898,0.1026001l-0.0156097,0.004303
			c-0.046875,0.0141907-0.0811005,0.0122986-0.1054993-0.0063171c-0.0409851-0.0312805-0.0390778-0.1005859-0.0361786-0.1811829
			c0.0009918-0.019989,0.0009918-0.0409851,0.0009918-0.0620117c0-0.1787109,0.0302887-0.281189,0.0683746-0.4115906
			c0.0791016-0.2684937,0.1982269-0.6748047,0.1982269-2.1611023c0-0.202179,0.0068817-0.2940063,0.1562958-0.3569946
			c0.1386108-0.0585022,0.473587-0.3197937,0.5195007-0.4057007c0.0351868-0.0635071,0.1112976-0.1195984,0.2001801-0.1846008
			c0.0498047-0.0361023,0.1016083-0.0737,0.1504059-0.1162109c0.0723114-0.0625,0.0752106-0.1239929,0.0566101-0.157196
			c-0.0126953-0.0224915-0.0341034-0.0317993-0.055603-0.0249023l-0.0186157-0.0346985
			c0.0918274-0.0708008,0.0723114-0.1333008,0.0645142-0.1508789c-0.0116882-0.0259094-0.0362091-0.0420227-0.0585938-0.0376282
			l-0.0751953,0.0151978l0.0585938-0.0498047c0.046814-0.0401001,0.0565948-0.0551758,0.0342102-0.1025696
			c-0.0059204-0.0136108-0.0157013-0.0223999-0.0293274-0.0273132c-0.0214691-0.0072937-0.0624847-0.0083008-0.1386871,0.0298157
			l-0.0263977,0.013092l-0.0019073-0.0292053c-0.0029907-0.0386047-0.0195923-0.0458984-0.0253906-0.0488892
			c-0.0409851-0.0190125-0.140686,0.0220032-0.2637024,0.1103821c-0.0155945,0.0101929-0.0459137,0.0292969-0.0839996,0.0531921
			c-0.089798,0.0561218-0.2245941,0.140625-0.3154144,0.2158203l-0.0292969-0.0263062
			c0.0585938-0.0869751,0.0771179-0.1397095,0.0693207-0.1953735c-0.0028992-0.0239258-0.0117188-0.0376282-0.0243988-0.0405273
			c-0.0332031-0.0078125-0.1074066,0.0405273-0.1914062,0.1646118c-0.0117188,0.016571-0.0214996,0.0341187-0.032196,0.0521851
			c-0.0391083,0.0668945-0.0840149,0.1426086-0.2041016,0.2197266c-0.1885071,0.1210938-0.2138977,0.3544922-0.2138977,0.5888977
			c0,0.3314819-0.1416016,0.7050781-0.4775085,1.4706726c-0.2753906,0.6245117-0.5458984,1.3305969-0.4746094,1.8340149
			c0.0341034,0.2373047,0.0293274,0.5253906-0.0136871,0.8554993c-0.0116882,0.0834961,0.0087891,0.1538086,0.0585938,0.2041016
			c0.0605011,0.0619812,0.1620941,0.0897827,0.2793121,0.0760803
			C57.9999847,24.5648804,58.0770874,24.5614929,58.1562805,24.5614929L58.1562805,24.5614929z M59.1503754,24.6601868
			c-0.1503754,0-0.3144989-0.0142212-0.4833984-0.0289001c-0.2519836-0.0219116-0.5126953-0.0444031-0.7362823-0.0180054
			c-0.1298981,0.0155945-0.2431946-0.0166016-0.3125153-0.0874023c-0.0585938-0.0596008-0.0829926-0.1416016-0.070282-0.2373047
			c0.0428925-0.3266907,0.0477905-0.6108704,0.0145874-0.8452148c-0.0732117-0.5126953,0.2001953-1.2261047,0.4766083-1.8554688
			c0.3348846-0.7598267,0.4746094-1.1299133,0.4746094-1.4545898c0-0.245636,0.0283051-0.4907227,0.2323761-0.6221313
			c0.1123047-0.0721741,0.1523132-0.1405945,0.1914062-0.2064819c0.0106964-0.019104,0.0214996-0.0371094,0.0342102-0.0546875
			c0.085907-0.1274109,0.1727905-0.1947937,0.2323914-0.1806946c0.0176086,0.0038757,0.0478973,0.0190735,0.0546875,0.0737915
			c0.0068054,0.0467834-0.0028992,0.0892944-0.0233765,0.1341858c0.0799866-0.0576172,0.1717987-0.1152039,0.2391815-0.1567078
			c0.0371246-0.023407,0.0664215-0.0415039,0.0811005-0.0521851c0.0986023-0.0704041,0.2314148-0.147522,0.3037109-0.1138
			c0.0215149,0.0101929,0.0361023,0.0282898,0.0438843,0.0541992c0.0596313-0.0263977,0.1083984-0.0332336,0.1446228-0.0205078
			c0.0243988,0.0083008,0.0418854,0.0244141,0.0527039,0.0483093c0.0263977,0.0561829,0.0155792,0.0888977-0.0137177,0.1200867
			c0.0234985,0.0097961,0.0430145,0.0288086,0.0547028,0.054718c0.0195007,0.0424805,0.0166016,0.1044922-0.039093,0.1655884
			c0.0186157,0.0068054,0.0351868,0.0213928,0.046875,0.0415039c0.0264282,0.046814,0.0254059,0.1289062-0.0643921,0.2070007
			c-0.0507965,0.0438843-0.1026001,0.0820007-0.1533966,0.1185913c-0.0848999,0.0621033-0.1582031,0.1158142-0.1884003,0.1713867
			c-0.0536804,0.0996094-0.4042969,0.3662109-0.539093,0.4234009c-0.1260071,0.0527039-0.1318054,0.1191101-0.1318054,0.3203125
			c0,1.4921875-0.1201782,1.9013062-0.2001953,2.1723022c-0.0381165,0.1323853-0.0664062,0.2276001-0.0664062,0.4003906
			c0,0.0215149-0.0010071,0.0429993-0.0010071,0.0635071c-0.0019836,0.0664062-0.003891,0.1289062,0.0205078,0.1479797
			c0.0127258,0.0097046,0.0361023,0.0097046,0.0703125,0l0.014679-0.0048828
			c0.1464081-0.0440063,0.3486023-0.1040039,0.5605164-0.1040039h0.0195007v1.2890015l-0.0146179,0.0039062
			C59.3778992,24.6513672,59.2686005,24.6601868,59.1503754,24.6601868L59.1503754,24.6601868z"/>
		<path class="st14" d="M59.5565796,29.3925781c0.651413-0.3257141,1.3975067-0.4467773,1.7872009-0.5473938
			c0.3886108-0.1011047,1.0086975-0.4032898,1.3115082-0.5620117c0.3026886-0.1586914,0.5477905-0.375,0.7207031-0.4325867
			c0.1727905-0.0575867,0.3662109-0.1767883,0.4756012-0.3891907c0.5615082-1.0952148,0.8641968-1.9741211,0.8641968-2.7383118
			c0-0.504303-0.1289062-1.0664062-0.6190948-0.6625977c-0.4610138,0.3793945-0.9629059,1.1104126-1.0957031,1.6425781
			c-0.2012024,0.8072205-0.3740082,0.9804993-0.4180145,1.1387024c-0.0429993,0.1587219-0.2059784,0.1587219-0.4033051,0.2017212
			c-0.8505859,0.1875-1.0526886,0.3172913-1.6864777,0.7929077c-0.6338043,0.4755859-1.3262024,0.8935852-1.7870941,1.1528625
			c-0.4610291,0.2592468-0.5469208,0.2880249-0.6485291,0.4970398c-0.1005707,0.2089844-0.1942902,0.3676758-0.281189,0.4614868
			c-0.0859833,0.093689-0.1113892,0.2030945-0.0927734,0.316803c0.0136719,0.0937805-0.0293274,0.5263977-0.0361328,0.6705017
			c-0.0078735,0.1439819,0.0283051,0.1801147,0.085907,0.1869812c0.0575867,0.0078125,0.1366882-0.0214844,0.1659851-0.1943665
			c-0.0292969,0.1728821,0.2090149,0.1152649,0.2236328-0.0141296c-0.0078278,0.1870117,0.2441864,0.0791016,0.2587738-0.093811
			c0,0.1221008,0.1914062,0.0376282,0.2089996-0.0218811c0.0430145-0.144104,0.0791016-0.3027954,0.1367035-0.4179993
			c0.0839996-0.1669922,0.1739044-0.3837891,0.338913-0.504425C59.253891,29.7387695,59.1669922,29.5874023,59.5565796,29.3925781
			L59.5565796,29.3925781L59.5565796,29.3925781z"/>
		<path class="st6" d="M64.3896027,23.9423828c-0.0791016,0-0.172821,0.0444031-0.2802277,0.1333008
			c-0.4726868,0.3895874-0.9609985,1.1216125-1.0888824,1.6322937c-0.1426086,0.5708008-0.2725067,0.8286133-0.3496094,0.9823914
			c-0.0331879,0.0650024-0.0565796,0.1118164-0.0683899,0.1567993c-0.0390015,0.1434937-0.1709137,0.168396-0.3222046,0.1967163
			c-0.0312958,0.0058899-0.0634918,0.0117798-0.0966949,0.0190735c-0.8524933,0.1880188-1.0508118,0.3188171-1.6786957,0.7891235
			c-0.6856079,0.5145874-1.4151001,0.9443054-1.7891083,1.1547241c-0.051712,0.0287781-0.0976105,0.0546875-0.1405945,0.0785828
			c-0.3418121,0.1900024-0.4121246,0.2294922-0.5000153,0.4096985C57.9687805,29.717804,57.875,29.870575,57.7909698,29.9613647
			c-0.0761871,0.0830078-0.106369,0.1841125-0.0878906,0.3003235c0.0098267,0.0668945-0.007782,0.2944946-0.0223999,0.4776001
			c-0.0058899,0.0804749-0.0117798,0.1522827-0.0136871,0.1967163c-0.0077972,0.1450806,0.0302887,0.1616821,0.0692902,0.1664734
			c0.0703125,0.0087891,0.1231079-0.0536804,0.1436157-0.1781921l0.0389862,0.006897
			c-0.003891,0.0238953-0.003891,0.0560913,0.0166168,0.0726929c0.0195923,0.0147095,0.0527954,0.015625,0.0878906,0.0009766
			c0.0331879-0.0136719,0.074295-0.0463562,0.0791016-0.09375l0.0401001,0.0029602
			c-0.0009918,0.0337219,0.0057983,0.074707,0.0487823,0.0776062c0.0020294,0,0.0028992,0,0.0049286,0
			c0.0614929,0,0.1582031-0.0751953,0.1659851-0.1737671l0.0399933,0.0018616c0,0.0332336,0.0166168,0.0396118,0.0302887,0.0420227
			c0.0518341,0.006897,0.1309052-0.0409851,0.1397247-0.0693054c0.0096893-0.0357056,0.0205078-0.0718079,0.0301971-0.1083984
			c0.0312958-0.1104126,0.0634918-0.2246094,0.1074982-0.3129883c0.0106964-0.0220032,0.0213928-0.0444336,0.0331879-0.0679016
			c0.0771179-0.1572266,0.1640015-0.335907,0.3115234-0.4438171c0.0692749-0.0498047,0.0985718-0.1011047,0.1317749-0.1596985
			c0.054718-0.094696,0.1162109-0.2021179,0.3614044-0.3246765l0,0c0.5155945-0.2578125,1.0848999-0.3867188,1.5009003-0.4810181
			c0.1114044-0.0248718,0.2080078-0.046814,0.2901001-0.0682983c0.3476105-0.0898743,0.9209137-0.3579102,1.3066101-0.5600891
			c0.1416016-0.0737,0.2705078-0.160614,0.3847961-0.2373047c0.1307983-0.0884094,0.2440948-0.1650085,0.3387909-0.1962891
			c0.1221008-0.0405273,0.343811-0.1435242,0.4649048-0.3793945c0.5967102-1.1635132,0.8622894-2.0048218,0.8622894-2.7295227
			c0-0.4165039-0.0829926-0.6947937-0.227478-0.7635803C64.4442749,23.9481812,64.417984,23.9423828,64.3896027,23.9423828
			L64.3896027,23.9423828z M57.7489929,31.1435852c-0.0067902,0-0.0127106-0.0010071-0.0176086-0.0020142
			c-0.0810089-0.0097961-0.1112976-0.070282-0.1043854-0.2079773c0.0018768-0.0444336,0.0077972-0.1162415,0.0145874-0.1978149
			c0.0126953-0.1708984,0.0312958-0.4052124,0.0215149-0.4682007c-0.019516-0.1289062,0.0136719-0.2412109,0.0985718-0.3334961
			c0.0821228-0.0879211,0.1729126-0.2367859,0.2783203-0.4561157c0.0927887-0.1913757,0.1738892-0.2367859,0.515686-0.4271851
			c0.0428925-0.0238953,0.0888062-0.0498047,0.1405945-0.0791016c0.3730164-0.2095032,1.1016235-0.6381836,1.7851257-1.1513977
			c0.6328888-0.4746094,0.8330841-0.6064148,1.6933899-0.7963867c0.0341949-0.0072937,0.066391-0.0132141,0.098587-0.0190125
			c0.1495056-0.0283203,0.2579041-0.0487976,0.2901154-0.1684875c0.0135956-0.0488281,0.0380859-0.0971375,0.0713043-0.1640015
			c0.0770874-0.1524048,0.2050018-0.4078064,0.3465881-0.9737244c0.1298981-0.5180054,0.624115-1.2597046,1.1026001-1.6537781
			c0.1592102-0.1313171,0.2938995-0.1719055,0.4013977-0.1210938c0.2177124,0.1030884,0.2509003,0.5449829,0.2509003,0.7992859
			c0,0.7309875-0.2674866,1.5787048-0.8672028,2.7475891c-0.1278992,0.2485352-0.3602905,0.3564148-0.4872894,0.3988953
			c-0.0888062,0.0298157-0.2002106,0.105011-0.3300018,0.1914062c-0.1143036,0.0777283-0.2442017,0.1651001-0.3876953,0.2398071
			c-0.1397095,0.0737-0.8623199,0.4462891-1.315506,0.5635071c-0.0830078,0.0213928-0.1786957,0.043396-0.2910156,0.0687866
			c-0.4139862,0.093811-0.9804688,0.2216797-1.4921722,0.4775085c-0.234314,0.1171875-0.2900085,0.214386-0.3437042,0.3085938
			c-0.0352173,0.0606079-0.0674133,0.117218-0.1436157,0.1723938c-0.1396027,0.1021118-0.2236023,0.2759094-0.2987976,0.4291992
			c-0.0116882,0.0234375-0.0225067,0.0464172-0.0341949,0.0684204c-0.0420074,0.0848999-0.0731812,0.1972046-0.1045074,0.305603
			c-0.0096893,0.0365906-0.0194702,0.0733032-0.0301971,0.1088867c-0.0157013,0.0523071-0.1181793,0.1065063-0.1826935,0.0971985
			c-0.0166168-0.0025024-0.0302124-0.0083008-0.0409851-0.0176086c-0.0342255,0.085907-0.1201172,0.1480103-0.1903992,0.1480103
			c-0.0020294,0-0.0049286,0-0.0068054,0c-0.0342102-0.0020142-0.0596161-0.0195923-0.0743256-0.0478821
			c-0.0204773,0.0272827-0.0497742,0.0478821-0.0770721,0.0585938c-0.0479126,0.0194702-0.0967102,0.0176086-0.1270142-0.0068054
			c-0.0047913-0.0039062-0.0106812-0.0088196-0.0146179-0.015686C57.8563995,31.1249695,57.789978,31.1435852,57.7489929,31.1435852
			L57.7489929,31.1435852z"/>
		<path class="st6" d="M58.4022827,30.8208008l-0.0399933-0.0020142c0.0010071-0.023407,0.0010071-0.046814,0.0019989-0.0708008
			c0.0009003-0.138092,0.0028992-0.2812195,0.1533051-0.4945984l0.032196,0.0229797
			c-0.1434937,0.203125-0.1444855,0.3398132-0.1465149,0.4721375
			C58.4032745,30.7724915,58.4032745,30.7963867,58.4022827,30.8208008L58.4022827,30.8208008z"/>
		<path class="st6" d="M58.1425934,30.9140625l-0.0401001-0.0014954l0.003891-0.0922852
			c0.0176086-0.469696,0.0196075-0.5302734,0.1758118-0.6782227l0.0273895,0.0288086
			c-0.1436157,0.137207-0.1455078,0.1855164-0.1630859,0.6509094L58.1425934,30.9140625L58.1425934,30.9140625z"/>
		<path class="st6" d="M57.9198761,30.9281616l-0.039978-0.0009766c0.0009918-0.089325,0-0.1660156-0.0010071-0.2337952
			c-0.0049133-0.233429-0.0067902-0.361908,0.1190948-0.5615845l0.0333099,0.0209961
			c-0.1192017,0.1899719-0.117218,0.3144531-0.1133118,0.5400696
			C57.9198761,30.7606812,57.9208832,30.8378601,57.9198761,30.9281616L57.9198761,30.9281616z"/>
		<path class="st6" d="M59.3271027,19.4823914l-0.023407-0.0317078c0.1513977-0.1156921,0.5116882-0.389679,0.5733032-0.429718
			l0.0213928,0.0336914C59.8378906,19.0937805,59.4795074,19.3666687,59.3271027,19.4823914L59.3271027,19.4823914z"/>
		<path class="st6" d="M59.4355011,19.6337891l-0.0244141-0.0317078l0.1534119-0.1192017
			c0.2655945-0.207489,0.4120789-0.3218079,0.4754791-0.3315125l0.0059204,0.0395203
			c-0.0527039,0.0083008-0.2138977,0.1333008-0.4570007,0.3233032L59.4355011,19.6337891L59.4355011,19.6337891z"/>
		<path class="st6" d="M59.5458832,19.8036804l-0.0224915-0.0327148c0.0829926-0.0585938,0.167984-0.1278992,0.2499847-0.195282
			c0.1104279-0.0907898,0.2061005-0.1694031,0.272522-0.1992188l0.0155792,0.0361328
			c-0.0604858,0.0278015-0.1591949,0.1083984-0.2626953,0.1937866
			C59.7157745,19.6742859,59.6308746,19.7440796,59.5458832,19.8036804L59.5458832,19.8036804z"/>
		<path class="st6" d="M58.9706726,19.5648804l-0.0243683-0.0312195c0.0224915-0.0175781,0.0575867-0.0517883,0.093689-0.0883789
			c0.0420074-0.0415039,0.0859833-0.0844727,0.1153107-0.1064148l0.0233765,0.032196
			c-0.027298,0.0200195-0.0692902,0.0620117-0.1103058,0.1025391
			C59.0312958,19.5106812,58.9950714,19.5458984,58.9706726,19.5648804L58.9706726,19.5648804z"/>
	</g>
</g>
</svg>
