<?xml version="1.0" encoding="utf-8"?>
<!-- Generator: Adobe Illustrator 22.1.0, SVG Export Plug-In . SVG Version: 6.00 Build 0)  -->
<svg version="1.1" id="Layer_1" xmlns="http://www.w3.org/2000/svg" xmlns:xlink="http://www.w3.org/1999/xlink" x="0px" y="0px"
	 viewBox="0 0 60 60" style="enable-background:new 0 0 60 60;" xml:space="preserve">
<style type="text/css">
	.st0{clip-path:url(#SVGID_2_);fill:#C1292E;}
	.st1{clip-path:url(#SVGID_2_);fill:#036333;}
</style>
<g id="XMLID_1_">
	<g>
		<defs>
			<path id="SVGID_1_" d="M59,60H0.9999695C0.4477234,60,0,59.5526733,0,59V0.9999695c0-0.5522461,0.4477234-1,0.9999695-1H59
				c0.5526886,0,0.9999847,0.4477539,0.9999847,1V59C59.9999847,59.5526733,59.5526886,60,59,60L59,60z"/>
		</defs>
		<clipPath id="SVGID_2_">
			<use xlink:href="#SVGID_1_"  style="overflow:visible;"/>
		</clipPath>
		<polygon class="st0" points="-15,-0.0000305 74.9999847,-0.0000305 74.9999847,60 -15,60 -15,-0.0000305 		"/>
		<path class="st1" d="M29.3070984,26.9311829h1.3858032L30,24.7987976L29.3070984,26.9311829L29.3070984,26.9311829z
			 M32.7060852,28.3939819l0.4266968,1.3139954l1.8085938-1.3139954H32.7060852L32.7060852,28.3939819z M25.058075,28.3939819
			l1.8086243,1.3139954l0.4271851-1.3139954H25.058075L25.058075,28.3939819z M28.1112671,30.6122742L30,31.984375
			l1.8887024-1.3721008l-0.7207031-2.2182922h-2.3360291L28.1112671,30.6122742L28.1112671,30.6122742z M27.6362,32.0751648
			l-0.6918945,2.1289062l1.8110962-1.3153992L27.6362,32.0751648L27.6362,32.0751648z M31.2440796,32.8886719l1.811615,1.3153992
			l-0.6914062-2.1289062L31.2440796,32.8886719L31.2440796,32.8886719z M24.1620789,38.0331726l2.2294922-6.8622742
			l-5.8368835-4.2397156h7.2142944L30,20.0639648l2.2313843,6.867218h7.2139282l-5.8369141,4.2397156l2.2294922,6.8622742
			L30,33.7919922L24.1620789,38.0331726L24.1620789,38.0331726z"/>
	</g>
</g>
</svg>
