<?xml version="1.0" encoding="utf-8"?>
<!-- Generator: Adobe Illustrator 22.1.0, SVG Export Plug-In . SVG Version: 6.00 Build 0)  -->
<svg version="1.1" id="Layer_1" xmlns="http://www.w3.org/2000/svg" xmlns:xlink="http://www.w3.org/1999/xlink" x="0px" y="0px"
	 viewBox="0 0 60 60" style="enable-background:new 0 0 60 60;" xml:space="preserve">
<style type="text/css">
	.st0{clip-path:url(#SVGID_2_);fill:#020203;}
	.st1{clip-path:url(#SVGID_2_);fill:#FFFFFF;}
	.st2{clip-path:url(#SVGID_2_);fill:#007269;}
	.st3{clip-path:url(#SVGID_2_);fill:#FCE108;}
	.st4{clip-path:url(#SVGID_2_);fill:#D21036;}
</style>
<g id="XMLID_1_">
	<g>
		<defs>
			<path id="SVGID_1_" d="M59,60H0.9999695C0.4477234,60,0,59.5526733,0,59V0.9999695c0-0.5522461,0.4477234-1,0.9999695-1H59
				c0.5526886,0,0.9999847,0.4477539,0.9999847,1V59C59.9999847,59.5526733,59.5526886,60,59,60L59,60z"/>
		</defs>
		<clipPath id="SVGID_2_">
			<use xlink:href="#SVGID_1_"  style="overflow:visible;"/>
		</clipPath>
		<polygon class="st0" points="0,-0.0000305 89.9999847,-0.0000305 89.9999847,60 0,60 0,-0.0000305 		"/>
		<polygon class="st1" points="0,-0.0000305 89.9999847,-0.0000305 89.9999847,20.6249695 0,20.6249695 0,-0.0000305 		"/>
		<polygon class="st2" points="0,-0.0000305 89.9999847,-0.0000305 89.9999847,18.7499695 0,18.7499695 0,-0.0000305 		"/>
		<polygon class="st1" points="0,39.3495789 89.9999847,39.3495789 89.9999847,60 0,60 0,39.3495789 		"/>
		<polygon class="st3" points="0,41.2499695 89.9999847,41.2499695 89.9999847,60 0,60 0,41.2499695 		"/>
		<polygon class="st4" points="0,-0.0000305 0,60 39.375,29.9999695 0,-0.0000305 		"/>
		<polygon class="st3" points="20.4369812,41.2479858 13.121582,35.8925781 5.815918,41.2499695 8.6493835,32.6376648 
			1.2963867,27.3451843 10.362793,27.3783875 13.1239929,18.7499695 15.8939819,27.382782 24.9536133,27.3427734 
			17.5990906,32.6445007 20.4369812,41.2479858 		"/>
		<path class="st1" d="M6.7724609,35.2431946h5.27005c0.4237671,0.4755859,1.3700867,0.6688843,2.2709656-0.0059204
			c1.651825-0.9042969,4.8471069,0.0059204,4.8471069,0.0059204l0.629425-0.6690063l-1.5341187-5.0341797l-0.550293-0.5898132
			c0,0-1.179718-0.707489-3.4214172-0.4717102c-2.2416687,0.2359009-3.0282898-0.0786133-3.0282898-0.0786133
			s-1.9663696,0.2358093-2.5171509,0.5112c-0.0605164,0.0488892-0.629364,0.6289368-0.629364,0.6289368L6.7724609,35.2431946
			L6.7724609,35.2431946z"/>
		<path class="st0" d="M6.8510742,35.1806641h5.1914368c0.0175781,0,0.0345764,0.0068359,0.0463562,0.0205078
			c0.420929,0.4726257,1.3305359,0.6279297,2.1870117-0.0136719c0.7041016-0.3867188,1.7407227-0.5020142,3.0874023-0.3486023
			c0.878418,0.0995789,1.6083984,0.2880859,1.777832,0.3339844l0.5785828-0.6152954l-1.5189819-4.985321L17.6659851,29
			c-0.1015015-0.0570984-1.2723999-0.6812134-3.3755188-0.4595337c-2.0892639,0.2198181-2.9178772-0.0331726-3.0424805-0.0765686
			c-0.1816101,0.0223694-1.9559937,0.2460938-2.4745483,0.4999695c-0.058136,0.0507202-0.386261,0.3828125-0.6069336,0.6074219
			L6.8510742,35.1806641L6.8510742,35.1806641z M13.0957031,35.7392578c-0.4448242,0-0.8334961-0.1699524-1.0811157-0.4335938
			H6.7724609c-0.019043,0-0.0371094-0.0087891-0.0488281-0.0243835c-0.0122375-0.014679-0.0166321-0.0342102-0.0122375-0.0527954
			l1.3374023-5.7026062c0.0024719-0.0112915,0.007843-0.0209961,0.0161133-0.0292969
			c0.0586243-0.0596008,0.5727844-0.5845032,0.6342773-0.6343079c0.0039368-0.0028687,0.007843-0.0048828,0.0117188-0.0072937
			c0.5537109-0.276886,2.4565735-0.5073242,2.5370789-0.5170898c0.0102844-0.0014954,0.0210266,0,0.0307922,0.0038757
			c0.0078125,0.0029297,0.8062134,0.3052368,2.9985046,0.0742188c2.236908-0.2348022,3.4111938,0.4512024,3.4605103,0.4804993
			c0.0049133,0.0033875,0.0093079,0.0068054,0.0132141,0.0112l0.5507812,0.5898743
			c0.0062866,0.0068359,0.0112,0.0151367,0.0140991,0.0244141l1.5336914,5.0336914
			c0.0068054,0.0214233,0.0010071,0.0449219-0.0141907,0.0614929l-0.629303,0.6679993
			c-0.0157166,0.0175476-0.0401001,0.0244141-0.0625,0.0175476c-0.0317993-0.0088196-3.1899719-0.8925171-4.800293-0.0107117
			C13.9233093,35.6073914,13.487793,35.7392578,13.0957031,35.7392578L13.0957031,35.7392578z"/>
		<path class="st0" d="M12.093811,35.2704773c0.6937561,0.4854126,1.3582764,0.4716797,2.1390686-0.0419922
			c-0.2533875-0.3125-0.6073914-0.5537109-1.019989-0.7391968C12.5492859,34.8085938,12.2016907,35.1503601,12.093811,35.2704773
			L12.093811,35.2704773z M13.1010742,35.7471008c-0.3852844,0-0.7592773-0.1387329-1.1352844-0.4151001
			c-0.0258789-0.0185242-0.0332031-0.054718-0.0166016-0.0820312c0.0986938-0.1640625,0.4551086-0.5087891,1.1029968-0.8280945
			c-1.9989929-0.8008118-5.1703796-0.4198914-5.2103882-0.4150696c-0.0341797,0.0038757-0.0654602-0.0195312-0.0693359-0.0537415
			c-0.0043945-0.0341797,0.019989-0.0653992,0.0541992-0.070282c0.0126953-0.0018921,1.2802734-0.157196,2.7099304-0.0742188
			c1.1010742,0.0644226,1.9942017,0.2441101,2.6723938,0.539093c0.9945984-0.452179,2.5942078-0.8203735,4.898407-0.5038757
			c0.0341797,0.0048218,0.0581055,0.0361023,0.0531921,0.070282c-0.004303,0.0341187-0.0366211,0.0585938-0.0703125,0.0537109
			c-2.2621765-0.3114929-3.7782898,0.0332031-4.7245789,0.4511108c0.4346008,0.2109985,0.7709961,0.4727173,1.0072937,0.7861938
			c0.0108032,0.0137024,0.0147095,0.031189,0.0122986,0.047821c-0.0029907,0.0166016-0.0122986,0.0322571-0.0263977,0.0409851
			C13.917511,35.5956726,13.5033875,35.7471008,13.1010742,35.7471008L13.1010742,35.7471008z"/>
		<path class="st0" d="M8.7905273,28.9203796l-0.523468,2.2719727 M17.7055969,28.9896851l0.9437866,4.4048157
			 M13.2221985,28.9110718l-0.0396118,5.5450134"/>
		<path class="st0" d="M8.2670593,31.2548828c-0.0048523,0-0.0097351-0.0010071-0.0141296-0.0019836
			c-0.0336914-0.0078125-0.054718-0.0410156-0.046875-0.0751953L8.72995,28.9062805
			c0.0073242-0.0336914,0.0410156-0.054718,0.074707-0.046875c0.0336914,0.007782,0.054718,0.0414734,0.046875,0.0751648
			l-0.5238953,2.2715149C8.3212585,31.2353821,8.2954102,31.2548828,8.2670593,31.2548828L8.2670593,31.2548828z
			 M18.6493835,33.4570007c-0.0288086,0-0.0546875-0.0205078-0.0610046-0.0498047l-0.9438782-4.4042969
			c-0.0073242-0.0341187,0.0141907-0.0674133,0.0479126-0.0742188c0.0336914-0.0068054,0.066864,0.0142212,0.0741577,0.0479126
			l0.9438171,4.4042664c0.0074158,0.0341187-0.0140991,0.0673218-0.0477905,0.0742188
			C18.6581726,33.4560852,18.6537781,33.4570007,18.6493835,33.4570007L18.6493835,33.4570007z M13.1825867,34.5185852
			L13.1825867,34.5185852c-0.0346985,0-0.0625-0.0283813-0.0625-0.0625l0.0395813-5.5455017
			c0-0.0346069,0.0283203-0.0619812,0.0625305-0.0619812h0.0004883c0.0341187,0,0.0620117,0.0283813,0.0620117,0.0629883
			l-0.0396118,5.5453796C13.2450867,34.4911804,13.2172852,34.5185852,13.1825867,34.5185852L13.1825867,34.5185852z"/>
		<path class="st0" d="M3.3495789,35.8466797l1.2392578,1.4530945c0.1455383,0.0869141,0.2749329,0.0811157,0.4042969,0
			l1.8364563-2.2041016l0.7714844-0.9551086c0.1195984-0.141571,0.1576843-0.2997742,0.1469727-0.4403992l1.4750671-1.3105774
			c0.1206055,0.0079041,0.1923828,0.0215149,0.3130188,0.0292969c-0.1426086-0.0361023-0.2470703-0.1054077-0.1347656-0.2617188
			l0.3305359-0.257782l0.2568665,0.3310852c0,0-0.3671875,0.4775085-0.4038086,0.4775085s-0.4042969,0-0.4042969,0
			l-0.7715149,0.6983032L8.746582,33.704071l0.507782,1.3916016l0.6245422-0.4413757l-0.4042969-1.4326172l0.8817749-0.9550781
			l-0.3305054-0.5137329l0.2202148-0.2939148c0,0,3.0513,1.920929,4.2269897,1.40625
			c0.0318298,0.0117798,0.0708008-1.3701172,0.0708008-1.3701172s-3.1590881-0.3301086-3.2323914-0.9545898
			c-0.0737-0.6245117,0.6977844-0.6977234,0.6977844-0.6977234l-0.3305969-0.4776001l0.0737305-0.2572937l0.5507812,0.6978149
			l1.2489929-1.0654907l7.3467102,8.3759766c0.4013977-0.1631165,0.4867859-0.2607117,0.5147095-0.6611023
			c-0.0103149-0.0107727-7.2001953-8.2655945-7.2001953-8.2655945l0.551178-0.5878906
			c0.1083984-0.1221008,0.1465149-0.174408,0.1470032-0.367218l0.844696-0.7348938
			c0.2539978,0.0874023,0.4161072,0.2397766,0.5508118,0.440918l2.3228149-1.9687195
			c0.0614929,0.0614929,0.2474976,0.1225281,0.3734741,0.0536804l3.8403931-3.6859741l-4.1856079,2.9559937L18.5112,24.1854858
			c0-0.1225281,0.151886-0.1528015,0-0.3676147c-0.1625977-0.1948853-0.4038086,0.1841125-0.4403992,0.1841125
			c-0.0371094,0-0.6060181-0.2012024-0.7305298-0.4561157l-0.0409851,0.6763l-1.0653992,0.9916992l-0.8081055-0.0366821
			L14.25,26.3158875l-0.1465149,0.440918l0.1835938,0.367157c0,0-0.6244812,0.5513-0.6244812,0.5147095
			c0-0.0370789-0.1265259-0.1625977-0.1318054-0.1787109l0.5355835-0.4828796l0.0737305-0.3305969l-0.1787109-0.2787781
			c-0.0541992,0.0390015-0.7396851,0.7562561-0.7763062,0.683075c-0.0615845-0.0689087-1.9839172-2.2407227-1.9839172-2.2407227
			l0.110321-0.4042969L10.0625,23.0469055c-0.4551086-0.1573181-1.175293-0.1841125-1.3222961,0.808075
			c-0.1147156,0.2328796-1.0654297,0.0365906-1.0654297,0.0365906L7.160614,24.0019836l-2.9023132,4.1141968l1.6162109,1.9467773
			l3.3061523-4.1879883l0.0981445-1.1859741l0.6938477,0.7753906c0.2314453,0.0297241,0.4516296,0.032196,0.6611328-0.0733032
			l1.9589844,2.1860046l-0.3261719,0.3183899c0.1103821,0.1225891,0.1860046,0.2007141,0.2963867,0.3233032
			c0.1098938-0.0737915,0.2153015-0.1617126,0.3256836-0.2353821c0.0366211,0.0492859,0.0976257,0.1420898,0.1347046,0.1913757
			c-0.1644897,0.089386-0.2792664,0.2080078-0.4437866,0.2973938c-0.262207-0.1708679-0.5161133-0.3842773-0.4966125-0.7236633
			l-1.1019897,0.918457l-0.0372009,0.1836243l-3.2690125,2.718689l-0.2939453,0.0361938l-0.0732422,0.8457336L9.4379883,30.6875
			v-0.2573242l0.2202148,0.1835938l1.6532898-1.3222961c0,0,0.1098938,0.1470032,0.0733032,0.1470032
			c-0.0367126,0-1.4692688,1.3222046-1.4692688,1.3222046l-0.0366211,0.1470032L9.621582,31.1278992l-0.1469727-0.110321
			l-1.9833984,1.7637024H7.1972656l-1.1020508,1.1025085c-0.2841797,0.0243835-0.5307922,0.0546875-0.7714844,0.219696
			L3.3495789,35.8466797L3.3495789,35.8466797z"/>
		<path class="st0" d="M18.0434875,23.9467773L18.0434875,23.9467773L18.0434875,23.9467773L18.0434875,23.9467773z
			 M13.5307922,27.4599609h0.000885H13.5307922L13.5307922,27.4599609z M13.6166687,27.4667664
			c0.0292969,0.0337219,0.0527039,0.0615234,0.0698242,0.085022c0.0956726-0.0733032,0.3164062-0.2608032,0.5230103-0.4424133
			l-0.074707-0.1504211l-0.0074158,0.0317078c-0.0028992,0.0127258-0.0091858,0.0244141-0.0189819,0.0327454L13.6166687,27.4667664
			L13.6166687,27.4667664z M13.6000977,27.6386719L13.6000977,27.6386719L13.6000977,27.6386719L13.6000977,27.6386719z
			 M13.601593,27.6498718L13.601593,27.6498718L13.601593,27.6498718L13.601593,27.6498718z M11.4082031,29.4960632
			c-0.0078125,0.003418-0.015625,0.0049133-0.023407,0.0049133C11.3954773,29.5009766,11.4032898,29.4984741,11.4082031,29.4960632
			L11.4082031,29.4960632z M4.6298523,37.2509766c0.1138,0.0653992,0.2138672,0.0653992,0.3218079,0.0010071l1.8300476-2.1962891
			l0.7710266-0.9541321c0.1239929-0.1474609,0.140625-0.296875,0.1333008-0.3974915
			c-0.0014648-0.0194702,0.0058594-0.0380859,0.0205078-0.0507812l1.4750977-1.3104858
			c0.012207-0.0117188,0.027832-0.0166321,0.0458984-0.0157166c0.026825,0.0019836,0.0517273,0.0039978,0.0751648,0.0058899
			c-0.0004578-0.0009766-0.000946-0.0028992-0.0019226-0.0039062c-0.0219727-0.0614929-0.0054016-0.1318054,0.0498047-0.2089844
			c0.0033875-0.0048828,0.007782-0.0087891,0.0121765-0.0127258l0.3305969-0.2567749
			c0.0273438-0.0215149,0.0663757-0.0166321,0.0878906,0.0106812l0.2568359,0.3301086
			c0.0176086,0.023407,0.0176086,0.054718,0.0005188,0.0772095c-0.386261,0.5018921-0.4189758,0.5018921-0.4536438,0.5018921
			H9.2050781l-0.702179,0.6347961l0.2851868,0.2518921c0.007782,0.0069275,0.0136414,0.0157166,0.0170898,0.0254211
			l0.47995,1.3145142l0.5214844-0.3682251l-0.3920593-1.3895874c-0.0058594-0.0205078-0.0005188-0.0440063,0.0141296-0.0596008
			l0.8491211-0.9199219L9.973114,31.7861023c-0.0141602-0.0215149-0.0131531-0.0498047,0.0024719-0.0713196l0.2207031-0.2939148
			c0.0195007-0.0253906,0.0556946-0.032196,0.0830078-0.0145874c0.030304,0.0184937,2.9906921,1.868103,4.1420898,1.4129944
			c0.0195007-0.1424866,0.0454102-0.8143921,0.0586243-1.2674866c-0.5186157-0.0576782-3.1567993-0.3779907-3.2305298-1.0039062
			c-0.0214844-0.1796875,0.0200195-0.3345032,0.1221313-0.4609985c0.1498718-0.1855164,0.3929749-0.2612,0.530304-0.289978
			l-0.2745361-0.3965149c-0.0106812-0.0151062-0.0140686-0.0346985-0.0086975-0.0527039l0.0737305-0.256897
			c0.0062866-0.0229187,0.0248718-0.0400085,0.04776-0.0444336c0.0234985-0.0043945,0.0464172,0.004425,0.0611267,0.0224304
			l0.5107117,0.6474915l1.1996765-1.023407c0.0258789-0.0220032,0.0650024-0.019104,0.0874023,0.0063171l7.3174133,8.3417969
			c0.342804-0.1426086,0.4066772-0.2285156,0.4325867-0.5653992c-0.3094788-0.3534851-4.0366211-4.6328125-7.1825867-8.2451172
			c-0.0210266-0.0243835-0.0205078-0.0605774,0.0014954-0.0839844l0.5508118-0.5874023
			c0.1029663-0.1156921,0.1297607-0.1538086,0.1302795-0.324707c0-0.0180969,0.0078125-0.0351868,0.0214844-0.0473938
			l0.8447266-0.7344055c0.0170898-0.0145874,0.0405884-0.0189819,0.0610962-0.0121765
			c0.2235718,0.0766907,0.3930054,0.2035828,0.5428772,0.4081726l2.2705078-1.9242859
			c0.0245056-0.0209961,0.0615845-0.0195007,0.0845032,0.0033875c0.0458984,0.0458984,0.1947937,0.093811,0.292511,0.0464172
			l3.2333984-3.1040039l-3.5058899,2.476593c-0.0219116,0.0155945-0.0517273,0.0151062-0.0732117-0.0010071l-0.1470032-0.1102905
			c-0.0161133-0.0118103-0.0253906-0.030304-0.0253906-0.0498962c0-0.0570984,0.0230103-0.0986023,0.0414734-0.1322937
			c0.0292969-0.0532227,0.0489197-0.0878906-0.0297852-0.1992188c-0.0214233-0.0248718-0.0415039-0.0288086-0.0545959-0.0292969
			c-0.073822-0.0018921-0.1748047,0.1069031-0.2294922,0.1650085c-0.0479126,0.0513-0.069397,0.0747986-0.1054993,0.0747986
			c-0.0522156,0-0.460022-0.144104-0.6782227-0.3511047l-0.0307922,0.5127258
			c-0.0010071,0.015564-0.0083008,0.0306702-0.0200195,0.0419617l-1.0653687,0.9916992
			c-0.012207,0.0112-0.0278931,0.0180359-0.0454102,0.0166321l-0.7812805-0.0357056l-1.1450195,1.1094055l-0.1044922,0.3135071
			l-0.022522,0.1019897l0.1651306,0.3305969c0.0126953,0.0253906,0.0068054,0.0560913-0.0147095,0.0746765
			c-0.6279297,0.5541992-0.6459961,0.545929-0.6903992,0.5259094c-0.0195007-0.0087891-0.0336914-0.0278931-0.0371094-0.0488892
			c-0.0097961-0.0209045-0.0575867-0.0756226-0.0785828-0.0996094c-0.0336914-0.0385132-0.0445251-0.051178-0.0503235-0.0687866
			c-0.007782-0.023407-0.0009766-0.0493164,0.0171204-0.0658875l0.5209961-0.4692993l0.0360718-0.1625977
			c-0.0058899-0.0141296-0.0067749-0.0302124-0.0019836-0.0449219l0.0274048-0.0815125L13.9487,26.464386
			c-0.0267944,0.0263062-0.0615234,0.0599976-0.0952148,0.093689c-0.4971008,0.4916992-0.6039734,0.5708008-0.6719055,0.559082
			c-0.0145874-0.0019836-0.0316772-0.0126648-0.0428772-0.0249023h-0.0004883
			c-0.0606384-0.0678711-1.9644165-2.2192688-1.9839478-2.2406616c-0.0136719-0.0162048-0.0185547-0.0376282-0.0131836-0.0581055
			l0.1011047-0.3706055l-1.2149048-1.3223267c-0.1943054-0.0649719-0.5458679-0.1405945-0.8271179,0.0303345
			c-0.2113953,0.1283875-0.3451843,0.375-0.3984375,0.7328796c-0.000946,0.0063171-0.0029297,0.0126953-0.0058594,0.0184937
			c-0.1259766,0.256897-0.9277344,0.1123352-1.1210938,0.0733032l-0.4775085,0.1020203L4.3368835,28.112793l1.5366211,1.8505859
			l3.2466125-4.1123047l0.0966797-1.1674805c0.0019531-0.0249023,0.0185242-0.0458984,0.0424805-0.0541992
			c0.0234375-0.0078125,0.0498047-0.0010071,0.0664062,0.0175781l0.6781921,0.7583313
			c0.1968079,0.0238647,0.4048157,0.0297852,0.6021118-0.0703125c0.0249023-0.012207,0.055603-0.0069275,0.074707,0.0140991
			l1.9584961,2.1864929c0.0223999,0.0249023,0.0209961,0.0629883-0.0029907,0.0864868l-0.2827148,0.2763062
			c0.0381165,0.0415039,0.0722961,0.0791016,0.1069031,0.1162109c0.0362244,0.0386047,0.0718079,0.0776978,0.1118774,0.121582
			c0.039032-0.0278015,0.0776062-0.0566101,0.1162415-0.0853882c0.0546875-0.0409851,0.109375-0.0820007,0.164978-0.1191711
			c0.0278015-0.0185242,0.0650024-0.0122375,0.0849915,0.0141602c0.0185242,0.0249023,0.0434265,0.0610046,0.0682983,0.0971985
			c0.0245361,0.0351257,0.0484009,0.0703125,0.0664062,0.0942078c0.0108032,0.0147095,0.0152283,0.0332031,0.011322,0.0507812
			c-0.0039368,0.0176086-0.0157166,0.0327148-0.031311,0.0415344c-0.078125,0.042511-0.1445007,0.0917664-0.214325,0.1439819
			c-0.070282,0.0527954-0.1430664,0.1069946-0.2289734,0.1538086c-0.0205078,0.0107727-0.0450134,0.0097961-0.0640259-0.0028992
			c-0.237793-0.1547852-0.4779663-0.3510742-0.519989-0.6469727l-0.9882812,0.8232727l-0.032196,0.1621094
			c-0.0029907,0.0141907-0.0103149,0.0267944-0.0215149,0.0361023L7.7148132,31.617157
			C7.7055664,31.625,7.6943054,31.6298828,7.6825867,31.6308899l-0.2436523,0.0302124l-0.0561218,0.6464844l1.9926758-1.6494141
			v-0.2279968c0-0.0238953,0.0141602-0.0464172,0.0361328-0.0566711c0.0219727-0.0102234,0.047821-0.0068054,0.0664062,0.0087891
			l0.1811523,0.1508789l1.6133118-1.2904968c0.013092-0.0102844,0.0296936-0.0151978,0.0467834-0.0132141
			c0.0166016,0.0019226,0.0318298,0.0112,0.0420227,0.0244141c0.1142883,0.1524048,0.0982056,0.1850891,0.085968,0.2090149
			c-0.0068665,0.0137024-0.0209656,0.0258789-0.0366821,0.032196c-0.082489,0.0551758-0.8979187,0.7998047-1.4389038,1.2993164
			l-0.0322266,0.128479c-0.0029297,0.0126038-0.0102539,0.0238953-0.02005,0.032196l-0.2572937,0.2207031
			c-0.0219727,0.0184937-0.054718,0.0195007-0.0781555,0.0019226l-0.1059265-0.0791016l-1.945343,1.7294617
			c-0.0116882,0.0098267-0.0263367,0.0157166-0.0414734,0.0157166H7.2231445l-1.0839844,1.0839233
			c-0.0102539,0.0097656-0.0239563,0.016571-0.0386047,0.0175781c-0.29245,0.0253906-0.5170898,0.0556946-0.7412109,0.2099915
			L3.4370117,35.852478L4.6298523,37.2509766L4.6298523,37.2509766z M4.7939148,37.4257812
			c-0.0776367,0-0.1562195-0.0244141-0.2367859-0.0722961c-0.0058594-0.0039062-0.0112305-0.0078125-0.015625-0.0137024
			l-1.2392578-1.4530945c-0.0224609-0.0253906-0.0195312-0.0644226,0.0058594-0.0869141l1.9741211-1.7431946
			c0.2490234-0.1708984,0.4931335-0.2070007,0.7846375-0.2333984l1.085968-1.085907
			c0.0117188-0.0116882,0.027832-0.0184937,0.0444336-0.0184937h0.269989l1.9658203-1.7476196
			c0.0219727-0.0194702,0.0552063-0.0209961,0.0791016-0.0028992l0.1069336,0.0796204l0.2041321-0.1743774L9.85495,30.745575
			c0.0029297-0.0117188,0.0093079-0.0224915,0.0180969-0.0307922c1.0126343-0.9345093,1.3330688-1.2167969,1.4448547-1.3022156
			c-0.0054321-0.0087891-0.012207-0.0195007-0.0195923-0.0307617l-1.6010437,1.2807922
			c-0.0229492,0.0185852-0.0561829,0.0185852-0.0791016-0.0005188l-0.1177063-0.0986023V30.6875
			c0,0.0185852-0.0082703,0.0361023-0.0224304,0.0482788l-2.1308899,1.7632141
			c-0.0195007,0.0155945-0.0463562,0.0185852-0.0688477,0.006897c-0.0224304-0.0118103-0.0351562-0.0352173-0.0331726-0.0606079
			l0.0732422-0.844696c0.0029297-0.0292969,0.0253906-0.0537109,0.0546875-0.0567017l0.2758484-0.0341187l3.2382812-2.6928711
			l0.0322266-0.1621094c0.0029907-0.0141907,0.0102844-0.026886,0.0214844-0.0357056l1.1021118-0.918396
			c0.0189819-0.0160828,0.0458679-0.019104,0.0677795-0.0078125c0.022522,0.0112,0.0357056,0.0346069,0.0346985,0.0595093
			c-0.0170898,0.2940063,0.1958313,0.4859009,0.4365234,0.6465149c0.0649719-0.0380859,0.1220703-0.0805359,0.1821899-0.1255188
			c0.0532227-0.0394897,0.1079102-0.0804749,0.168396-0.118103c-0.0093079-0.0131836-0.0190125-0.0273743-0.0287781-0.0409851
			c-0.0101929-0.0151978-0.0205078-0.0303345-0.0303345-0.0444946c-0.0370789,0.0263977-0.0731812,0.0537109-0.1097717,0.0805969
			c-0.054718,0.0415039-0.1099243,0.0829773-0.1660156,0.1200867c-0.0259094,0.0176086-0.0606079,0.0132141-0.0811157-0.0101929
			c-0.0551758-0.0606079-0.101593-0.1109009-0.1478882-0.1607056c-0.0463867-0.050293-0.0932922-0.1005859-0.1484985-0.1621094
			c-0.0223694-0.0249023-0.0215149-0.0635071,0.0025024-0.0868835l0.2835999-0.2763977l-1.888092-2.1069031
			c-0.2221985,0.0966797-0.4535828,0.0848999-0.6533813,0.059082c-0.0151062-0.0019836-0.0287781-0.0087891-0.0385437-0.0200806
			L9.329071,24.8388672l-0.085907,1.0415039c-0.0009766,0.012207-0.0058594,0.0238953-0.0131836,0.0337219l-3.3061523,4.1875
			C5.9121094,30.1161804,5.8945312,30.125,5.8754883,30.1254883c-0.0234375,0.0010071-0.0366211-0.0083313-0.0488586-0.0224915
			l-1.6161804-1.9472351c-0.0180664-0.0214844-0.0195312-0.0527649-0.0029297-0.0756836l2.9018555-4.1142883
			c0.0087891-0.0126953,0.0224304-0.0220032,0.0380859-0.0253906l0.5141602-0.1098022
			c0.0083008-0.0020142,0.0170898-0.0020142,0.0258789-0.0005188c0.4257507,0.0878906,0.9189453,0.1133118,0.9921875,0.0039062
			c0.0605164-0.390625,0.2133789-0.6631165,0.4555664-0.8101196c0.3320312-0.2015991,0.7363281-0.1092834,0.9477234-0.0365906
			c0.0098267,0.003418,0.0186157,0.0093079,0.0253906,0.0171204l1.2490234,1.3588867
			c0.0147095,0.0160828,0.0200195,0.0380859,0.0142212,0.0591125l-0.1011047,0.3714905
			c0.2035828,0.230011,1.7250671,1.9493103,1.9379883,2.1889954c0.1054993-0.0668945,0.417511-0.3754883,0.5570984-0.5137024
			c0.1040039-0.1029968,0.1420898-0.1401062,0.1586914-0.1522827c0.0141907-0.0103149,0.0317993-0.0141907,0.0484009-0.0107117
			c0.0169983,0.0028992,0.0317078,0.013092,0.0409851,0.0278015l0.1083984,0.1688843l0.0688171-0.2064819
			c0.003418-0.0097961,0.0087891-0.0180969,0.0155945-0.0253906l1.1758118-1.1387024
			c0.012207-0.0117188,0.0292969-0.0184937,0.0463867-0.0176086l0.7817078,0.0357056l1.0279236-0.9570312l0.0394897-0.6513672
			c0.0014954-0.0283203,0.0220032-0.0517883,0.050293-0.0576172c0.0278931-0.0054016,0.0556946,0.0087891,0.0683899,0.0342102
			c0.1000977,0.2050171,0.5487976,0.382782,0.6600952,0.4160156c0.0079346-0.007843,0.0176086-0.0186157,0.0284119-0.0303345
			c0.0776062-0.0830078,0.1971741-0.2069702,0.3246765-0.2045898c0.0395203,0.0010071,0.0976257,0.0155945,0.1499329,0.0786133
			c0.1171875,0.1654968,0.0858765,0.2529907,0.0404663,0.3354797c-0.0097656,0.0171204-0.0170593,0.0307007-0.0214539,0.0439148
			l0.0810852,0.0605774l4.1478882-2.9301758c0.0263977-0.0185852,0.0635071-0.0137024,0.0845032,0.0116882
			c0.0204773,0.0249023,0.0184937,0.0620117-0.0049133,0.0845032L19.046875,25.070282
			c-0.0038757,0.0039062-0.0087891,0.0072937-0.0137024,0.0102844c-0.1278687,0.0693054-0.3013,0.0337219-0.4009094-0.0288086
			l-2.2845459,1.9365234c-0.0137329,0.0112-0.0318298,0.0160828-0.0489502,0.0140991
			c-0.0174866-0.0024109-0.0336914-0.012207-0.0433655-0.0273132c-0.1358032-0.2025757-0.2866211-0.3285828-0.4859009-0.4042969
			l-0.7958984,0.6924133c-0.0043945,0.1938171-0.054718,0.2588196-0.1621094,0.3798828l-0.5136108,0.547821
			c0.5571289,0.639679,7.1102905,8.1645813,7.1621094,8.2211914c0.0112,0.0126953,0.0170898,0.030304,0.0155945,0.0469055
			c-0.0287781,0.4198914-0.1216125,0.5400085-0.5527039,0.7148132c-0.0249939,0.0097656-0.0532837,0.0029907-0.0707703-0.0166016
			l-7.3062134-8.3291016l-1.2021179,1.0253906c-0.0126648,0.0108032-0.0297852,0.0166016-0.0463867,0.014679
			c-0.0170898-0.0019836-0.0328064-0.0102844-0.0429993-0.023468l-0.4755859-0.6025085l-0.0317078,0.1112976l0.313385,0.4536133
			c0.0127258,0.0180664,0.0147095,0.0414734,0.0054016,0.0615845c-0.0093079,0.0205078-0.0283203,0.0340881-0.0503235,0.0360718
			c-0.0038757,0.0005493-0.3676758,0.0381165-0.5472717,0.2607422c-0.0801086,0.0996094-0.111908,0.2232056-0.0948181,0.3676758
			c0.0494385,0.4189148,1.9750977,0.7744141,3.1773071,0.9004211c0.032196,0.0028687,0.0566101,0.031189,0.055603,0.0634766
			c-0.0390015,1.3807983-0.0648804,1.398407-0.0970764,1.4199219c-0.0049133,0.0028992-0.0098267,0.0058899-0.015625,0.007782
			c-1.1260071,0.4853821-3.8204041-1.1289062-4.2319946-1.382782l-0.1600952,0.2138977l0.3076172,0.477478
			c0.0150757,0.023407,0.0126648,0.0546875-0.0069275,0.0762024l-0.8578796,0.929718l0.3945618,1.3983765
			c0.0073242,0.0254211-0.0024414,0.0527344-0.0239563,0.0684204l-0.6244812,0.4403992
			c-0.0161133,0.0116882-0.0366211,0.0146179-0.0546875,0.0088196c-0.019043-0.0059204-0.0336914-0.0196228-0.0400696-0.0381165
			l-0.5024414-1.3769836l-0.3251953-0.2871094c-0.0136414-0.0117188-0.0209656-0.0292969-0.0214539-0.046814
			c0-0.0175781,0.0078125-0.0351868,0.0209961-0.046875l0.7709656-0.6983337
			c0.0117188-0.0097046,0.026886-0.0155945,0.0420227-0.0155945h0.3857117
			c0.0483398-0.0439148,0.2021484-0.2333984,0.3437805-0.4150085l-0.1894531-0.2431946l-0.2734375,0.2128906
			c-0.0253906,0.0371094-0.0356445,0.0674133-0.0288391,0.085907c0.0043945,0.0127258,0.026886,0.0450134,0.1333008,0.0722961
			c0.0312805,0.0087891,0.0512695,0.0391235,0.045929,0.0713196c-0.0049133,0.0312195-0.0332031,0.0546875-0.065918,0.0516968
			c-0.0615234-0.0039062-0.1108398-0.0097046-0.159668-0.0146179c-0.0400696-0.0048828-0.0800781-0.0097656-0.1274414-0.0137024
			l-1.4326172,1.2734985c0.003418,0.1220398-0.0249023,0.2910156-0.1631165,0.4541016l-0.7705078,0.9541321l-1.8373718,2.2049866
			c-0.0039368,0.0049133-0.0092773,0.0087891-0.0146484,0.0126953C4.9491882,37.4013672,4.8720703,37.4257812,4.7939148,37.4257812
			L4.7939148,37.4257812z"/>
	</g>
</g>
</svg>
