<?xml version="1.0" encoding="utf-8"?>
<!-- Generator: Adobe Illustrator 22.1.0, SVG Export Plug-In . SVG Version: 6.00 Build 0)  -->
<svg version="1.1" id="Layer_1" xmlns="http://www.w3.org/2000/svg" xmlns:xlink="http://www.w3.org/1999/xlink" x="0px" y="0px"
	 viewBox="0 0 60 60" style="enable-background:new 0 0 60 60;" xml:space="preserve">
<style type="text/css">
	.st0{clip-path:url(#SVGID_2_);fill:#FECB05;}
	.st1{clip-path:url(#SVGID_2_);fill:#44AC38;}
	.st2{clip-path:url(#SVGID_2_);fill:#E62D3B;}
	.st3{clip-path:url(#SVGID_2_);fill:#FFFFFF;}
</style>
<g id="XMLID_1_">
	<g>
		<defs>
			<path id="SVGID_1_" d="M59,60H0.9999695C0.4477234,60,0,59.5526733,0,59V0.9999695c0-0.5522461,0.4477234-1,0.9999695-1H59
				c0.5526886,0,0.9999847,0.4477539,0.9999847,1V59C59.9999847,59.5526733,59.5526886,60,59,60L59,60z"/>
		</defs>
		<clipPath id="SVGID_2_">
			<use xlink:href="#SVGID_1_"  style="overflow:visible;"/>
		</clipPath>
		<polygon class="st0" points="-15,-0.0000305 74.9999847,-0.0000305 74.9999847,60 -15,60 -15,-0.0000305 		"/>
		<polygon class="st1" points="-15,20 74.9999847,20 74.9999847,60 -15,60 -15,20 		"/>
		<polygon class="st2" points="-15,39.9999695 74.9999847,39.9999695 74.9999847,60 -15,60 -15,39.9999695 		"/>
		<polygon class="st3" points="22.8158875,32.1103821 30,9.9999695 37.1835938,32.1103821 22.8158875,32.1103821 		"/>
		<polygon class="st3" points="35.8114929,36.3329773 17.0039062,49.9971008 24.1879883,27.8871765 35.8114929,36.3329773 		"/>
		<polygon class="st3" points="27.7802734,38.9423828 8.972168,25.2778015 32.219696,25.2778015 27.7802734,38.9423828 		"/>
		<polygon class="st3" points="27.7802734,25.2778015 51.0282898,25.2778015 32.219696,38.9423828 27.7802734,25.2778015 		"/>
		<polygon class="st3" points="35.8114929,27.8871765 42.9960938,49.9971008 24.1879883,36.3329773 35.8114929,27.8871765 		"/>
	</g>
</g>
</svg>
