<?xml version="1.0" encoding="utf-8"?>
<!-- Generator: Adobe Illustrator 22.1.0, SVG Export Plug-In . SVG Version: 6.00 Build 0)  -->
<svg version="1.1" id="Layer_1" xmlns="http://www.w3.org/2000/svg" xmlns:xlink="http://www.w3.org/1999/xlink" x="0px" y="0px"
	 viewBox="0 0 60 60" style="enable-background:new 0 0 60 60;" xml:space="preserve">
<style type="text/css">
	.st0{clip-path:url(#SVGID_2_);fill:#203B75;}
	.st1{clip-path:url(#SVGID_2_);fill:#009643;}
	.st2{clip-path:url(#SVGID_5_);}
	.st3{clip-path:url(#SVGID_6_);fill:#FFFFFF;}
	.st4{clip-path:url(#SVGID_6_);fill:#D21036;}
	.st5{clip-path:url(#SVGID_8_);fill:#FFCE05;}
	.st6{clip-path:url(#SVGID_8_);fill:#203B75;}
</style>
<g id="XMLID_1_">
	<g>
		<defs>
			<path id="SVGID_1_" d="M59,60H0.9999695C0.4477234,60,0,59.5526733,0,59V0.9999695c0-0.5522461,0.4477234-1,0.9999695-1H59
				c0.5526886,0,0.9999847,0.4477539,0.9999847,1V59C59.9999847,59.5526733,59.5526886,60,59,60L59,60z"/>
		</defs>
		<clipPath id="SVGID_2_">
			<use xlink:href="#SVGID_1_"  style="overflow:visible;"/>
		</clipPath>
		<polygon class="st0" points="0,60 0,-0.0000305 89.9999847,-0.0000305 0,60 		"/>
		<polygon class="st1" points="89.9999847,-0.0000305 89.9999847,60 0,60 89.9999847,-0.0000305 		"/>
	</g>
	<g>
		<defs>
			<polygon id="SVGID_3_" points="0,-0.0000305 89.9999847,-0.0000305 89.9999847,60 0,60 0,-0.0000305 			"/>
		</defs>
		<defs>
			<path id="SVGID_4_" d="M59,60H0.9999695C0.4477234,60,0,59.5526733,0,59V0.9999695c0-0.5522461,0.4477234-1,0.9999695-1H59
				c0.5526886,0,0.9999847,0.4477539,0.9999847,1V59C59.9999847,59.5526733,59.5526886,60,59,60L59,60z"/>
		</defs>
		<clipPath id="SVGID_5_">
			<use xlink:href="#SVGID_3_"  style="overflow:visible;"/>
		</clipPath>
		<clipPath id="SVGID_6_" class="st2">
			<use xlink:href="#SVGID_4_"  style="overflow:visible;"/>
		</clipPath>
		<polygon class="st3" points="5.5468445,68.3203125 -5.546875,51.6796875 84.4530945,-8.320343 95.5468903,8.320282 
			5.5468445,68.3203125 		"/>
		<polygon class="st4" points="4.1601562,66.2401733 -4.1601562,53.7597656 85.8397827,-6.2402649 94.1601868,6.2402039 
			4.1601562,66.2401733 		"/>
	</g>
	<g>
		<defs>
			<path id="SVGID_7_" d="M59,60H0.9999695C0.4477234,60,0,59.5526733,0,59V0.9999695c0-0.5522461,0.4477234-1,0.9999695-1H59
				c0.5526886,0,0.9999847,0.4477539,0.9999847,1V59C59.9999847,59.5526733,59.5526886,60,59,60L59,60z"/>
		</defs>
		<clipPath id="SVGID_8_">
			<use xlink:href="#SVGID_7_"  style="overflow:visible;"/>
		</clipPath>
		<polygon class="st5" points="18,6.3412781 19.5498047,10.5415039 23,7.6816101 22.2401733,12.101593 26.6601868,11.3412781 
			23.7997742,14.7914734 27.9999695,16.3412781 23.7997742,17.891571 26.6601868,21.3412781 22.2401733,20.5814819 23,25.0014648 
			19.5498047,22.1416016 18,26.3412781 16.4501953,22.1416016 12.9999695,25.0014648 13.7597961,20.5814819 9.3398438,21.3412781 
			12.2001648,17.891571 8,16.3412781 12.2001648,14.7914734 9.3398438,11.3412781 13.7597961,12.101593 12.9999695,7.6816101 
			16.4501953,10.5415039 18,6.3412781 		"/>
		<path class="st5" d="M18,10.8412781c3.0375671,0,5.4999695,2.4624023,5.4999695,5.5s-2.4624023,5.5-5.4999695,5.5
			c-3.0375977,0-5.5-2.4624023-5.5-5.5S14.9624023,10.8412781,18,10.8412781L18,10.8412781z"/>
		<path class="st6" d="M18,10.8916016c-3.0049133,0-5.4502258,2.4447937-5.4502258,5.4496765
			c0,3.0054016,2.4453125,5.4501953,5.4502258,5.4501953c3.0048828,0,5.4501648-2.4447937,5.4501648-5.4501953
			C23.4501648,13.3363953,21.0048828,10.8916016,18,10.8916016L18,10.8916016z M18,21.891571
			c-3.0605164,0-5.5498047-2.4896851-5.5498047-5.550293c0-3.0599976,2.4892883-5.5498047,5.5498047-5.5498047
			c3.0604858,0,5.5497742,2.4898071,5.5497742,5.5498047C23.5497742,19.401886,21.0604858,21.891571,18,21.891571L18,21.891571z"/>
	</g>
</g>
</svg>
