<?xml version="1.0" encoding="utf-8"?>
<!-- Generator: Adobe Illustrator 22.1.0, SVG Export Plug-In . SVG Version: 6.00 Build 0)  -->
<svg version="1.1" id="Layer_1" xmlns="http://www.w3.org/2000/svg" xmlns:xlink="http://www.w3.org/1999/xlink" x="0px" y="0px"
	 viewBox="0 0 60 60" style="enable-background:new 0 0 60 60;" xml:space="preserve">
<style type="text/css">
	.st0{clip-path:url(#SVGID_2_);fill:#243770;}
	.st1{clip-path:url(#SVGID_2_);fill:#FDC623;}
	.st2{clip-path:url(#SVGID_2_);fill:#FFFFFF;}
</style>
<g id="XMLID_1_">
	<g>
		<defs>
			<path id="SVGID_1_" d="M59,60H0.9999695C0.4477234,60,0,59.5526733,0,59V0.9999695c0-0.5522461,0.4477234-1,0.9999695-1H59
				c0.5526886,0,0.9999847,0.4477539,0.9999847,1V59C59.9999847,59.5526733,59.5526886,60,59,60L59,60z"/>
		</defs>
		<clipPath id="SVGID_2_">
			<use xlink:href="#SVGID_1_"  style="overflow:visible;"/>
		</clipPath>
		<polygon class="st0" points="-12.9590149,-0.0000305 107.0409851,-0.0000305 107.0409851,60 -12.9590149,60 
			-12.9590149,-0.0000305 		"/>
		<polygon class="st1" points="-12.9590149,27.5 107.0409851,27.5 107.0409851,32.4999695 -12.9590149,32.4999695 -12.9590149,27.5 
					"/>
		<polygon class="st2" points="17.0409851,52.5 15.7471008,47.3300781 12.0409851,51.1601868 13.5058899,46.0351868 
			8.3808594,47.4999695 12.2113953,43.7938843 7.0409851,42.5 12.2113953,41.2060852 8.3808594,37.4999695 13.5058899,38.9647827 
			12.0409851,33.8397827 15.7471008,37.6698914 17.0409851,32.4999695 18.3353882,37.6698914 22.0409851,33.8397827 
			20.5766907,38.9647827 25.7016907,37.4999695 21.870575,41.2060852 27.0409851,42.5 21.870575,43.7938843 25.7016907,47.4999695 
			20.5766907,46.0351868 22.0409851,51.1601868 18.3353882,47.3300781 17.0409851,52.5 		"/>
	</g>
</g>
</svg>
