<?xml version="1.0" encoding="utf-8"?>
<!-- Generator: Adobe Illustrator 22.1.0, SVG Export Plug-In . SVG Version: 6.00 Build 0)  -->
<svg version="1.1" id="Layer_1" xmlns="http://www.w3.org/2000/svg" xmlns:xlink="http://www.w3.org/1999/xlink" x="0px" y="0px"
	 viewBox="0 0 60 60" style="enable-background:new 0 0 60 60;" xml:space="preserve">
<style type="text/css">
	.st0{fill:#DC173E;}
	.st1{fill:#1D3E89;}
	.st2{fill:#FFFFFF;}
</style>
<g id="XMLID_1_">
	<polygon class="st0" points="7.1796875,29.0082703 48.5985718,29.0082703 7.1796875,3.0727234 7.1796875,58.2987671 
		48.5985718,58.2987671 7.1796875,16.879364 7.1796875,29.0082703 	"/>
	<path class="st1" d="M8.8808289,27.3065796h6.3203735l-6.3203735-6.3197937V27.3065796L8.8808289,27.3065796z
		 M20.0131836,27.3065796h22.6625977L8.8808289,6.1455078v10.0287781L20.0131836,27.3065796L20.0131836,27.3065796z
		 M8.8808289,56.5976868h35.6103516L18.6034851,30.7095032H8.8808289V56.5976868L8.8808289,56.5976868z M52.7061005,60H5.4779968
		V-0.0000305l49.0434723,30.7095337h-31.105484L52.7061005,60L52.7061005,60z"/>
	<polygon class="st0" points="7.1796875,29.0082703 48.5985718,29.0082703 7.1796875,3.0727234 7.1796875,58.2987671 
		48.5985718,58.2987671 7.1796875,16.879364 7.1796875,29.0082703 	"/>
	<path class="st2" d="M17.5342102,27.5307922c4.5560913,0,8.2494812-3.6929016,8.2494812-8.2490845
		c-0.7245789,1.8427734-2.0365906,3.3686829-3.7070007,4.362793l-0.7041016-0.5249023l1.3807983-1.0350952l-1.6708984-0.4282227
		l0.8837891-1.4981079l-1.7261047,0.2485352l0.2559204-1.7119141l-1.4981079,0.8974609l-0.4281921-1.6913757l-1.0355835,1.3808289
		l-1.0352173-1.3808289l-0.4349976,1.6845093l-1.4912109-0.883728l0.2552795,1.7255249L13.102478,20.171875L14,21.6698914
		l-1.6846008,0.4281921l1.3808899,1.0352173l-0.6903992,0.5316772c-1.636322-0.9663086-2.9682922-2.457489-3.7138977-4.362793
		c0,4.5562134,3.6933899,8.2496033,8.2495117,8.2496033L17.5342102,27.5307922L17.5342102,27.5307922z"/>
	<polygon class="st2" points="13.558075,39.6806641 9.8578796,39.2245789 12.101593,42.1933594 8.6704102,43.657196 
		12.101593,45.1063843 9.8578796,48.0751953 13.558075,47.6190796 13.102478,51.3261719 16.0708008,49.0829773 
		17.5342102,52.5205078 18.9838867,49.0829773 21.9662781,51.3329773 21.5106812,47.632782 25.2108765,48.0956726 
		22.9672852,45.1269836 26.3978882,43.6777039 22.9672852,42.2138672 25.2108765,39.2460632 21.5106812,39.6943054 
		21.9662781,35.9940796 18.9979858,38.2382812 17.5342102,34.7929688 16.0845032,38.2236023 13.102478,35.9804688 
		13.558075,39.6806641 13.558075,39.6806641 	"/>
</g>
</svg>
