<?xml version="1.0" encoding="utf-8"?>
<!-- Generator: Adobe Illustrator 22.1.0, SVG Export Plug-In . SVG Version: 6.00 Build 0)  -->
<svg version="1.1" id="Layer_1" xmlns="http://www.w3.org/2000/svg" xmlns:xlink="http://www.w3.org/1999/xlink" x="0px" y="0px"
	 viewBox="0 0 60 60" style="enable-background:new 0 0 60 60;" xml:space="preserve">
<style type="text/css">
	.st0{clip-path:url(#SVGID_2_);fill:#232F5D;}
	.st1{clip-path:url(#SVGID_5_);}
	.st2{clip-path:url(#SVGID_6_);fill:#020203;}
	.st3{clip-path:url(#SVGID_6_);fill:#FFFFFF;}
	.st4{clip-path:url(#SVGID_9_);}
	.st5{clip-path:url(#SVGID_10_);fill:#020203;}
	.st6{clip-path:url(#SVGID_10_);fill:#C91430;}
	.st7{clip-path:url(#SVGID_13_);}
	.st8{clip-path:url(#SVGID_14_);fill:#020203;}
	.st9{clip-path:url(#SVGID_14_);fill:#FFFFFF;}
	.st10{clip-path:url(#SVGID_17_);}
	.st11{clip-path:url(#SVGID_18_);fill:#020203;}
	.st12{clip-path:url(#SVGID_18_);fill:#C91430;}
	.st13{clip-path:url(#SVGID_20_);fill:#FFFFFF;}
	.st14{clip-path:url(#SVGID_20_);fill:#C91430;}
</style>
<g id="XMLID_1_">
	<g>
		<defs>
			<path id="SVGID_1_" d="M59,60H0.9999695C0.4477234,60,0,59.5526733,0,59V0.9999695c0-0.5522461,0.4477234-1,0.9999695-1H59
				c0.5526886,0,0.9999847,0.4477539,0.9999847,1V59C59.9999847,59.5526733,59.5526886,60,59,60L59,60z"/>
		</defs>
		<clipPath id="SVGID_2_">
			<use xlink:href="#SVGID_1_"  style="overflow:visible;"/>
		</clipPath>
		<polygon class="st0" points="-30,-0.0000305 89.9999847,-0.0000305 89.9999847,60 -30,60 -30,-0.0000305 		"/>
	</g>
	<g>
		<defs>
			<polygon id="SVGID_3_" points="-30,-0.0000305 30,-0.0000305 30,29.9999695 -30,29.9999695 -30,-0.0000305 			"/>
		</defs>
		<defs>
			<path id="SVGID_4_" d="M59,60H0.9999695C0.4477234,60,0,59.5526733,0,59V0.9999695c0-0.5522461,0.4477234-1,0.9999695-1H59
				c0.5526886,0,0.9999847,0.4477539,0.9999847,1V59C59.9999847,59.5526733,59.5526886,60,59,60L59,60z"/>
		</defs>
		<clipPath id="SVGID_5_">
			<use xlink:href="#SVGID_3_"  style="overflow:visible;"/>
		</clipPath>
		<clipPath id="SVGID_6_" class="st1">
			<use xlink:href="#SVGID_4_"  style="overflow:visible;"/>
		</clipPath>
		<path class="st2" d="M-30,29.9999695l60-30 M-30-0.0000305l60,30"></path>
		<polygon class="st3" points="28.6582031,32.6835632 0,18.3539734 -28.6582031,32.6835632 -31.3417969,27.3168945 
			-6.7080383,14.9999695 -31.3417969,2.683075 -28.6582031,-2.6831055 0,11.6459961 28.6582031,-2.6831055 31.3417969,2.683075 
			6.7080078,14.9999695 31.3417969,27.3168945 28.6582031,32.6835632 		"/>
	</g>
	<g>
		<defs>
			<path id="SVGID_7_" d="M0,14.9999695v15h-30L0,14.9999695L0,14.9999695z M0,14.9999695h30v15L0,14.9999695L0,14.9999695z
				 M0-0.0000305h30l-30,15V-0.0000305L0-0.0000305z M-30-0.0000305l30,15h-30V-0.0000305L-30-0.0000305z"/>
		</defs>
		<defs>
			<path id="SVGID_8_" d="M59,60H0.9999695C0.4477234,60,0,59.5526733,0,59V0.9999695c0-0.5522461,0.4477234-1,0.9999695-1H59
				c0.5526886,0,0.9999847,0.4477539,0.9999847,1V59C59.9999847,59.5526733,59.5526886,60,59,60L59,60z"/>
		</defs>
		<clipPath id="SVGID_9_">
			<use xlink:href="#SVGID_7_"  style="overflow:visible;"/>
		</clipPath>
		<clipPath id="SVGID_10_" class="st4">
			<use xlink:href="#SVGID_8_"  style="overflow:visible;"/>
		</clipPath>
		<path class="st5" d="M-30,29.9999695l60-30 M-30-0.0000305l60,30"></path>
		<polygon class="st6" points="29.1054993,31.789093 0,17.2362671 -29.1055298,31.789093 -30.8945007,28.2108765 
			-4.472168,14.9999695 -30.8945007,1.7890625 -29.1055298,-1.789093 0,12.7637024 29.1054993,-1.789093 30.8944702,1.7890625 
			4.472168,14.9999695 30.8944702,28.2108765 29.1054993,31.789093 		"/>
	</g>
	<g>
		<defs>
			<polygon id="SVGID_11_" points="-30,-0.0000305 30,-0.0000305 30,29.9999695 -30,29.9999695 -30,-0.0000305 			"/>
		</defs>
		<defs>
			<path id="SVGID_12_" d="M59,60H0.9999695C0.4477234,60,0,59.5526733,0,59V0.9999695c0-0.5522461,0.4477234-1,0.9999695-1H59
				c0.5526886,0,0.9999847,0.4477539,0.9999847,1V59C59.9999847,59.5526733,59.5526886,60,59,60L59,60z"/>
		</defs>
		<clipPath id="SVGID_13_">
			<use xlink:href="#SVGID_11_"  style="overflow:visible;"/>
		</clipPath>
		<clipPath id="SVGID_14_" class="st7">
			<use xlink:href="#SVGID_12_"  style="overflow:visible;"/>
		</clipPath>
		<path class="st8" d="M-30,14.9999695h60 M0-0.0000305v30"></path>
		<polygon class="st9" points="5,29.9999695 -5.0000305,29.9999695 -5.0000305,20 -30,20 -30,9.9999695 -5.0000305,9.9999695 
			-5.0000305,-0.0000305 5,-0.0000305 5,9.9999695 30,9.9999695 30,20 5,20 5,29.9999695 		"/>
	</g>
	<g>
		<defs>
			<polygon id="SVGID_15_" points="-30,-0.0000305 30,-0.0000305 30,29.9999695 -30,29.9999695 -30,-0.0000305 			"/>
		</defs>
		<defs>
			<path id="SVGID_16_" d="M59,60H0.9999695C0.4477234,60,0,59.5526733,0,59V0.9999695c0-0.5522461,0.4477234-1,0.9999695-1H59
				c0.5526886,0,0.9999847,0.4477539,0.9999847,1V59C59.9999847,59.5526733,59.5526886,60,59,60L59,60z"/>
		</defs>
		<clipPath id="SVGID_17_">
			<use xlink:href="#SVGID_15_"  style="overflow:visible;"/>
		</clipPath>
		<clipPath id="SVGID_18_" class="st10">
			<use xlink:href="#SVGID_16_"  style="overflow:visible;"/>
		</clipPath>
		<path class="st11" d="M-30,14.9999695h60 M0-0.0000305v30"></path>
		<polygon class="st12" points="3,29.9999695 -3,29.9999695 -3,17.9999695 -30,17.9999695 -30,11.9999695 -3,11.9999695 
			-3,-0.0000305 3,-0.0000305 3,11.9999695 30,11.9999695 30,17.9999695 3,17.9999695 3,29.9999695 		"/>
	</g>
	<g>
		<defs>
			<path id="SVGID_19_" d="M59,60H0.9999695C0.4477234,60,0,59.5526733,0,59V0.9999695c0-0.5522461,0.4477234-1,0.9999695-1H59
				c0.5526886,0,0.9999847,0.4477539,0.9999847,1V59C59.9999847,59.5526733,59.5526886,60,59,60L59,60z"/>
		</defs>
		<clipPath id="SVGID_20_">
			<use xlink:href="#SVGID_19_"  style="overflow:visible;"/>
		</clipPath>
		<polygon class="st13" points="59.9999847,10.5248718 59.9999847,12.7948914 64.539978,10.5248718 59.9999847,10.5248718 		"/>
		<polygon class="st13" points="60.8671722,13.1933899 59.5331726,11.3568726 64.539978,10.5248718 60.8671722,13.1933899 		"/>
		<polygon class="st13" points="59.9999847,10.5248718 59.9999847,12.7948914 55.4600067,10.5248718 59.9999847,10.5248718 		"/>
		<polygon class="st13" points="59.1327972,13.1933899 60.4667969,11.3568726 55.4600067,10.5248718 59.1327972,13.1933899 		"/>
		<polygon class="st13" points="61.4032745,11.5438843 59.2440796,12.245575 62.8056946,15.8617859 61.4032745,11.5438843 		"/>
		<polygon class="st13" points="59.1327972,13.1933899 60.4667969,11.3568726 62.8056946,15.8617859 59.1327972,13.1933899 		"/>
		<polygon class="st13" points="58.5966949,11.5438843 60.7558899,12.245575 59.9999847,7.2265625 58.5966949,11.5438843 		"/>
		<polygon class="st13" points="61.4032745,11.5438843 59.2440796,12.245575 59.9999847,7.2265625 61.4032745,11.5438843 		"/>
		<polygon class="st13" points="58.5966949,11.5438843 60.7558899,12.245575 57.1942902,15.8617859 58.5966949,11.5438843 		"/>
		<polygon class="st13" points="60.8671722,13.1933899 59.5331726,11.3568726 57.1942902,15.8617859 60.8671722,13.1933899 		"/>
		<polygon class="st14" points="59.9999847,11.0253906 59.9999847,12.5253906 62.9999847,11.0253906 59.9999847,11.0253906 		"/>
		<polygon class="st14" points="60.5731812,12.7886047 59.6913757,11.5751648 62.9999847,11.0253906 60.5731812,12.7886047 		"/>
		<polygon class="st14" points="59.9999847,11.0253906 59.9999847,12.5253906 56.9999847,11.0253906 59.9999847,11.0253906 		"/>
		<polygon class="st14" points="59.4268036,12.7886047 60.3085938,11.5751648 56.9999847,11.0253906 59.4268036,12.7886047 		"/>
		<polygon class="st14" points="60.9267883,11.6987 59.4999847,12.1620789 61.8544769,14.5517578 60.9267883,11.6987 		"/>
		<polygon class="st14" points="59.4268036,12.7886047 60.3085938,11.5751648 61.8544769,14.5517578 59.4268036,12.7886047 		"/>
		<polygon class="st14" points="59.0731812,11.6987 60.4999847,12.1620789 59.9999847,8.8456726 59.0731812,11.6987 		"/>
		<polygon class="st14" points="60.9267883,11.6987 59.4999847,12.1620789 59.9999847,8.8456726 60.9267883,11.6987 		"/>
		<polygon class="st14" points="59.0731812,11.6987 60.4999847,12.1620789 58.1454926,14.5517578 59.0731812,11.6987 		"/>
		<polygon class="st14" points="60.5731812,12.7886047 59.6913757,11.5751648 58.1454926,14.5517578 60.5731812,12.7886047 		"/>
		<polygon class="st13" points="46.1366882,24.4730835 46.1366882,26.7431946 50.6757965,24.4730835 46.1366882,24.4730835 		"/>
		<polygon class="st13" points="47.0028992,27.141571 45.6688843,25.3051758 50.6757965,24.4730835 47.0028992,27.141571 		"/>
		<polygon class="st13" points="46.1366882,24.4730835 46.1366882,26.7431946 41.5966797,24.4730835 46.1366882,24.4730835 		"/>
		<polygon class="st13" points="45.2695007,27.141571 46.6034851,25.3051758 41.5966797,24.4730835 45.2695007,27.141571 		"/>
		<polygon class="st13" points="47.539093,25.4926758 45.3798828,26.1937866 48.9423828,29.8104858 47.539093,25.4926758 		"/>
		<polygon class="st13" points="45.2695007,27.141571 46.6034851,25.3051758 48.9423828,29.8104858 45.2695007,27.141571 		"/>
		<polygon class="st13" points="44.7333984,25.4926758 46.8926086,26.1937866 46.1356812,21.1747742 44.7333984,25.4926758 		"/>
		<polygon class="st13" points="47.539093,25.4926758 45.3798828,26.1937866 46.1356812,21.1747742 47.539093,25.4926758 		"/>
		<polygon class="st13" points="44.7333984,25.4926758 46.8926086,26.1937866 43.3301086,29.8104858 44.7333984,25.4926758 		"/>
		<polygon class="st13" points="47.0028992,27.141571 45.6688843,25.3051758 43.3301086,29.8104858 47.0028992,27.141571 		"/>
		<polygon class="st14" points="46.1366882,24.9735718 46.1366882,26.4735718 49.1366882,24.9735718 46.1366882,24.9735718 		"/>
		<polygon class="st14" points="46.7089844,26.7367859 45.8270874,25.523407 49.1366882,24.9735718 46.7089844,26.7367859 		"/>
		<polygon class="st14" points="46.1366882,24.9735718 46.1366882,26.4735718 43.1366882,24.9735718 46.1366882,24.9735718 		"/>
		<polygon class="st14" points="45.5634766,26.7367859 46.445282,25.523407 43.1366882,24.9735718 45.5634766,26.7367859 		"/>
		<polygon class="st14" points="47.0634766,25.6470032 45.6366882,26.1108093 47.9901733,28.5004883 47.0634766,25.6470032 		"/>
		<polygon class="st14" points="45.5634766,26.7367859 46.445282,25.523407 47.9901733,28.5004883 45.5634766,26.7367859 		"/>
		<polygon class="st14" points="45.2089844,25.6470032 46.6356812,26.1108093 46.1366882,22.7938843 45.2089844,25.6470032 		"/>
		<polygon class="st14" points="47.0634766,25.6470032 45.6366882,26.1108093 46.1366882,22.7938843 47.0634766,25.6470032 		"/>
		<polygon class="st14" points="45.2089844,25.6470032 46.6356812,26.1108093 44.282196,28.5004883 45.2089844,25.6470032 		"/>
		<polygon class="st14" points="46.7089844,26.7367859 45.8270874,25.523407 44.282196,28.5004883 46.7089844,26.7367859 		"/>
		<polygon class="st13" points="59.9999847,46.3622742 59.9999847,48.882782 65.0399933,46.3622742 59.9999847,46.3622742 		"/>
		<polygon class="st13" points="60.9628906,49.3251648 59.4813843,47.2860718 65.0399933,46.3622742 60.9628906,49.3251648 		"/>
		<polygon class="st13" points="59.9999847,46.3622742 59.9999847,48.882782 54.9599915,46.3622742 59.9999847,46.3622742 		"/>
		<polygon class="st13" points="59.0370941,49.3251648 60.5185852,47.2860718 54.9599915,46.3622742 59.0370941,49.3251648 		"/>
		<polygon class="st13" points="61.5575867,47.4940796 59.1610718,48.2724609 63.1151886,52.2870789 61.5575867,47.4940796 		"/>
		<polygon class="st13" points="59.0370941,49.3251648 60.5185852,47.2860718 63.1151886,52.2870789 59.0370941,49.3251648 		"/>
		<polygon class="st13" points="58.4423981,47.4940796 60.8388977,48.2724609 59.9999847,42.7001648 58.4423981,47.4940796 		"/>
		<polygon class="st13" points="61.5575867,47.4940796 59.1610718,48.2724609 59.9999847,42.7001648 61.5575867,47.4940796 		"/>
		<polygon class="st13" points="58.4423981,47.4940796 60.8388977,48.2724609 56.8847961,52.2870789 58.4423981,47.4940796 		"/>
		<polygon class="st13" points="60.9628906,49.3251648 59.4813843,47.2860718 56.8847961,52.2870789 60.9628906,49.3251648 		"/>
		<polygon class="st14" points="59.9999847,46.8622742 59.9999847,48.6123047 63.4999847,46.8622742 59.9999847,46.8622742 		"/>
		<polygon class="st14" points="60.667984,48.9198914 59.6395874,47.5038757 63.4999847,46.8622742 60.667984,48.9198914 		"/>
		<polygon class="st14" points="59.9999847,46.8622742 59.9999847,48.6123047 56.4999847,46.8622742 59.9999847,46.8622742 		"/>
		<polygon class="st14" points="59.3319855,48.9198914 60.3603821,47.5038757 56.4999847,46.8622742 59.3319855,48.9198914 		"/>
		<polygon class="st14" points="61.0819855,47.648407 59.4169769,48.1894836 62.1631012,50.977478 61.0819855,47.648407 		"/>
		<polygon class="st14" points="59.3319855,48.9198914 60.3603821,47.5038757 62.1631012,50.977478 59.3319855,48.9198914 		"/>
		<polygon class="st14" points="58.9179993,47.648407 60.5829773,48.1894836 59.9999847,44.320282 58.9179993,47.648407 		"/>
		<polygon class="st14" points="61.0810852,47.648407 59.4169769,48.1894836 59.9999847,44.320282 61.0810852,47.648407 		"/>
		<polygon class="st14" points="58.9179993,47.648407 60.5829773,48.1894836 57.8368835,50.977478 58.9179993,47.648407 		"/>
		<polygon class="st14" points="60.667984,48.9198914 59.6395874,47.5038757 57.8368835,50.977478 60.667984,48.9198914 		"/>
	</g>
</g>
</svg>
