<?xml version="1.0" encoding="utf-8"?>
<!-- Generator: Adobe Illustrator 22.1.0, SVG Export Plug-In . SVG Version: 6.00 Build 0)  -->
<svg version="1.1" id="Layer_1" xmlns="http://www.w3.org/2000/svg" xmlns:xlink="http://www.w3.org/1999/xlink" x="0px" y="0px"
	 viewBox="0 0 60 60" style="enable-background:new 0 0 60 60;" xml:space="preserve">
<style type="text/css">
	.st0{clip-path:url(#SVGID_2_);fill:#232F5D;}
	.st1{clip-path:url(#SVGID_2_);fill:#FFFFFF;}
	.st2{clip-path:url(#SVGID_2_);fill:#020203;}
	.st3{clip-path:url(#SVGID_5_);}
	.st4{clip-path:url(#SVGID_6_);fill:#020203;}
	.st5{clip-path:url(#SVGID_6_);fill:#C91430;}
	.st6{clip-path:url(#SVGID_8_);fill:#020203;}
	.st7{clip-path:url(#SVGID_8_);fill:#FFFFFF;}
	.st8{clip-path:url(#SVGID_8_);fill:#C91430;}
	.st9{clip-path:url(#SVGID_8_);fill:#FEDD0A;}
	.st10{clip-path:url(#SVGID_8_);fill:#232F5D;}
	.st11{fill:#FEDD0A;}
</style>
<g id="XMLID_1_">
	<g>
		<defs>
			<path id="SVGID_1_" d="M59,60H0.9999695C0.4477234,60,0,59.5526733,0,59V0.9999695c0-0.5522461,0.4477234-1,0.9999695-1H59
				c0.5526886,0,0.9999847,0.4477539,0.9999847,1V59C59.9999847,59.5526733,59.5526886,60,59,60L59,60z"/>
		</defs>
		<clipPath id="SVGID_2_">
			<use xlink:href="#SVGID_1_"  style="overflow:visible;"/>
		</clipPath>
		<polygon class="st0" points="-0.4111328,-0.8740234 77.8349915,-0.8740234 77.8349915,38.2489929 -0.4111328,38.2489929 
			-0.4111328,-0.8740234 		"/>
		<polygon class="st1" points="37.9833984,20.1454773 -1.1401672,0.5839539 0.3178711,-2.3320618 39.4413757,17.2294617 
			37.9833984,20.1454773 		"/>
		<polygon class="st1" points="0.3178711,20.1454773 -1.1401672,17.2294617 37.9833984,-2.3320618 39.4413757,0.5839539 
			0.3178711,20.1454773 		"/>
		<path class="st2" d="M38.7118835-0.8740234L-0.4111328,18.6875 M-0.4111328-0.8740234L38.7118835,18.6875"></path>
		<polygon class="st1" points="38.5371094,19.0375977 19.1503906,9.3442078 -0.2363586,19.0375977 -0.5859375,18.3378906 
			18.2758789,8.9067383 -0.5859375,-0.5239258 -0.2363586,-1.2241211 19.1503906,8.4692078 38.5371094,-1.2241211 
			38.8866882,-0.5239258 20.0253906,8.9067383 38.8866882,18.3378906 38.5371094,19.0375977 		"/>
	</g>
	<g>
		<defs>
			<path id="SVGID_3_" d="M-0.4111328,18.6875v6.5204773h19.5615234V-0.8740234h19.5614929L-0.4111328,18.6875L-0.4111328,18.6875z
				 M-0.4111328-0.8740234v9.7807617h45.6434937V18.6875h-6.5204773L-0.4111328-0.8740234L-0.4111328-0.8740234z"/>
		</defs>
		<defs>
			<path id="SVGID_4_" d="M59,60H0.9999695C0.4477234,60,0,59.5526733,0,59V0.9999695c0-0.5522461,0.4477234-1,0.9999695-1H59
				c0.5526886,0,0.9999847,0.4477539,0.9999847,1V59C59.9999847,59.5526733,59.5526886,60,59,60L59,60z"/>
		</defs>
		<clipPath id="SVGID_5_">
			<use xlink:href="#SVGID_3_"  style="overflow:visible;"/>
		</clipPath>
		<clipPath id="SVGID_6_" class="st3">
			<use xlink:href="#SVGID_4_"  style="overflow:visible;"/>
		</clipPath>
		<path class="st4" d="M38.7118835-0.8740234L-0.4111328,18.6875 M-0.4111328-0.8740234L38.7118835,18.6875"></path>
		<polygon class="st5" points="38.1288757,19.8539734 19.1503906,10.3646851 0.1723328,19.8539734 -0.9941406,17.5209656 
			16.234375,8.9067383 -0.9941406,0.29245 0.1723328,-2.0405579 19.1503906,7.4487 38.1288757,-2.0405579 39.2948914,0.29245 
			22.0664062,8.9067383 39.2948914,17.5209656 38.1288757,19.8539734 		"/>
	</g>
	<g>
		<defs>
			<path id="SVGID_7_" d="M59,60H0.9999695C0.4477234,60,0,59.5526733,0,59V0.9999695c0-0.5522461,0.4477234-1,0.9999695-1H59
				c0.5526886,0,0.9999847,0.4477539,0.9999847,1V59C59.9999847,59.5526733,59.5526886,60,59,60L59,60z"/>
		</defs>
		<clipPath id="SVGID_8_">
			<use xlink:href="#SVGID_7_"  style="overflow:visible;"/>
		</clipPath>
		<path class="st6" d="M-0.4111328,8.9067383h45.6434937 M19.1503906-0.8740234v26.0820007"></path>
		<polygon class="st7" points="22.4105835,25.2079773 15.8900757,25.2079773 15.8900757,12.1669617 -0.4111328,12.1669617 
			-0.4111328,5.6464539 15.8900757,5.6464539 15.8900757,-0.8740234 22.4105835,-0.8740234 22.4105835,5.6464539 
			45.2323608,5.6464539 45.2323608,12.1669617 22.4105835,12.1669617 22.4105835,25.2079773 		"/>
		<path class="st6" d="M-0.4111328,8.9067383h45.6434937 M19.1503906-0.8740234v26.0820007"></path>
		<polygon class="st8" points="21.1069031,25.2079773 17.1943054,25.2079773 17.1943054,10.862793 -0.4111328,10.862793 
			-0.4111328,6.9506531 17.1943054,6.9506531 17.1943054,-0.8740234 21.1069031,-0.8740234 21.1069031,6.9506531 
			45.2323608,6.9506531 45.2323608,10.862793 21.1069031,10.862793 21.1069031,25.2079773 		"/>
		<polygon class="st9" points="38.7118835,-0.8740234 77.8349915,-0.8740234 77.8349915,60 -0.4111328,60 -0.4111328,18.6875 
			38.7118835,18.6875 38.7118835,-0.8740234 		"/>
		<path class="st10" d="M19.1503906,5.5786133c1.8384094,0,3.3280945,1.4902039,3.3280945,3.328125
			c0,1.8378296-1.4896851,3.3281555-3.3280945,3.3281555c-1.8379211,0-3.3276062-1.4903259-3.3276062-3.3281555
			C15.8227844,7.0688171,17.3124695,5.5786133,19.1503906,5.5786133L19.1503906,5.5786133z"/>
		<polyline class="st9" points="19.1503906,5.5786133 19.8978882,7.878418 21.1069031,11.5990906 15.9853821,7.878418 
			22.3153992,7.878418 17.1943054,11.5990906 		"/>
		<polyline class="st9" points="7.7397156,7.1396179 8.8891602,10.6781921 5.879364,8.4911804 9.6000671,8.4911804 
			6.5898132,10.6781921 		"/>
		<polyline class="st9" points="30.5614929,7.1396179 31.710907,10.6781921 28.7012024,8.4911804 32.4219055,8.4911804 
			29.4115906,10.6781921 		"/>
		<polyline class="st9" points="19.1503906,13.6601868 20.300293,17.1986694 17.289978,15.0116577 21.0106812,15.0116577 
			18.0009766,17.1986694 		"/>
		<polyline class="st9" points="19.1503906,0.6191101 20.300293,4.1576843 17.289978,1.9707031 21.0106812,1.9707031 
			18.0009766,4.1576843 		"/>
	</g>
	<polygon class="st11" points="19.1503906,0.6191101 19.5897827,1.9707031 21.0106812,1.9707031 19.8612671,2.8061218 
		20.300293,4.1576843 19.1503906,3.3227539 18.0009766,4.1576843 18.4389648,2.8056641 17.289978,1.9707031 18.7084656,1.9707031 
		19.1503906,0.6191101 	"/>
	<polygon class="st11" points="7.7397156,7.137207 8.1787109,8.4892578 9.6000671,8.4892578 8.4501953,9.3242188 8.8891602,10.6763 
		7.7397156,9.8407898 6.5898132,10.6763 7.0283203,9.3237 5.879364,8.4892578 7.2973328,8.4892578 7.7397156,7.137207 	"/>
	<polygon class="st11" points="19.1503906,13.6601868 19.5897827,15.0116577 21.0106812,15.0116577 19.8612671,15.8471985 
		20.300293,17.1986694 19.1503906,16.3637695 18.0009766,17.1986694 18.4389648,15.8466797 17.289978,15.0116577 
		18.7084656,15.0116577 19.1503906,13.6601868 	"/>
</g>
</svg>
