<?xml version="1.0" encoding="utf-8"?>
<!-- Generator: Adobe Illustrator 22.1.0, SVG Export Plug-In . SVG Version: 6.00 Build 0)  -->
<svg version="1.1" id="Layer_1" xmlns="http://www.w3.org/2000/svg" xmlns:xlink="http://www.w3.org/1999/xlink" x="0px" y="0px"
	 viewBox="0 0 60 60" style="enable-background:new 0 0 60 60;" xml:space="preserve">
<style type="text/css">
	.st0{clip-path:url(#SVGID_2_);fill:#0A7A35;}
	.st1{clip-path:url(#SVGID_2_);fill:#FFFFFF;}
</style>
<g id="XMLID_1_">
	<g>
		<defs>
			<path id="SVGID_1_" d="M59,60H0.9999695C0.4477234,60,0,59.5526733,0,59V0.9999695c0-0.5522461,0.4477234-1,0.9999695-1H59
				c0.5526886,0,0.9999847,0.4477539,0.9999847,1V59C59.9999847,59.5526733,59.5526886,60,59,60L59,60z"/>
		</defs>
		<clipPath id="SVGID_2_">
			<use xlink:href="#SVGID_1_"  style="overflow:visible;"/>
		</clipPath>
		<polygon class="st0" points="0,-0.0000305 59.9999847,-0.0000305 59.9999847,60 0,60 0,-0.0000305 		"/>
		<polygon class="st1" points="18.2607117,-0.0000305 41.7392883,-0.0000305 41.7392883,60 18.2607117,60 18.2607117,-0.0000305 		
			"/>
		<path class="st0" d="M31.0625,36.9101868c0.2812805-0.0020142,0.6200867,0.063385,0.6698914,0.1582031
			c0.0087891,0.0195007,0.0058899,0.039978-0.0117188,0.0624695c-0.1386719,0.1670227-0.9291992,0.0146179-0.9291992,0.0146179
			v-0.2041016C30.8617859,36.9208679,30.9584961,36.9101868,31.0625,36.9101868L31.0625,36.9101868L31.0625,36.9101868z
			 M26.2650757,36.8721008c0.2520142-0.0147095,0.5336914,0.1395874,0.5655212,0.1542664c0.0004883,0,0.0014038,0,0.0018921,0
			c0,0.0088196-0.0096741,0.2793274-0.0096741,0.2793274s-0.4986267-0.1376953-0.656311-0.4170227
			C26.1981812,36.8808899,26.2318726,36.8739624,26.2650757,36.8721008L26.2650757,36.8721008L26.2650757,36.8721008z
			 M29.105011,36.7284851c0.2753906-0.0126953,0.5746765,0.0967102,0.5746765,0.0967102
			c0.0068054,0.0136719,0.1478882,0.2900085,0.0229187,0.382782c-0.0048218,0.0028992-0.0097046,0.0068054-0.0151367,0.0087891
			c-0.1537781,0.0801392-0.8886719-0.0625-0.9315796-0.3563843C28.8422852,36.7695007,28.9701843,36.7353821,29.105011,36.7284851
			L29.105011,36.7284851L29.105011,36.7284851z M31.6503906,35.9765625c0.1210938-0.0068665,0.1727905,0.0302124,0.078125,0.164032
			c-0.2637329,0.3710938-0.9448242,0.218811-0.9448242,0.218811l-0.0283203-0.2305298
			C30.995575,36.1386719,31.4346008,35.9872742,31.6503906,35.9765625L31.6503906,35.9765625L31.6503906,35.9765625z
			 M28.2645874,35.8329773c0.1578064-0.0078125,0.2955017,0.094696,0.4400024,0.1767883
			c0.3222961-0.0654602,0.9823914,0.0507202,0.9823914,0.0507202v0.2910767l-0.0014954,0.0019226
			c-0.0003967,0-0.0014038,0-0.0018921,0c-0.0600891,0.0108032-0.8345032-0.023407-1.0072937-0.1318054
			c-0.1411133,0-0.5406189-0.2099915-0.5708313-0.3174133c-0.0004883-0.0009766-0.0019836-0.0028992-0.0019836-0.0039062
			c-0.0004883-0.0009766,0-0.0038757,0-0.0048828c0-0.0009766,0-0.0028992,0-0.0039062c0-0.0009766-0.0004883-0.0028992,0-0.0038757
			c0-0.0010071,0-0.0020142,0-0.0020142c0-0.000885,0.0014954-0.0028992,0.0019836-0.0038757c0,0-0.0004883-0.0019226,0-0.0019226
			C28.1605835,35.8505554,28.214386,35.8349915,28.2645874,35.8329773L28.2645874,35.8329773L28.2645874,35.8329773z
			 M31.2841797,35.257782c0.055603-0.0028992,0.1015015,0.0028992,0.1269226,0.0185852
			c0.0039062,0.0019226,0.007782,0.0049133,0.0097961,0.0078125c0.0009766,0.0009766,0.0028992,0.0028992,0.0038757,0.0038757
			c0.0010071,0.0010376,0.0028992,0.0039368,0.0039062,0.0049438c0.0010071,0.0018616,0.0010071,0.0048828,0.0019836,0.0057983
			c0.0048218,0.014679,0.0029297,0.0341797-0.0097656,0.0566711c-0.1171875,0.2187195-0.6298828,0.1376953-0.6298828,0.1376953
			v-0.1523743c0.0004578,0,0.0019836,0,0.0019836,0C30.8218079,35.342804,31.1044922,35.2645874,31.2841797,35.257782
			L31.2841797,35.257782L31.2841797,35.257782z M32.8837891,34.4501648
			c0.0292969-0.0009766,0.0566101,0.0049133,0.0751953,0.0166321c0.0078125,0.0058899,0.0155945,0.0126648,0.0214844,0.0214844
			c0.0068054,0.0116882,0.0117188,0.0272827,0.0127258,0.0448914c-0.0772095,0.1201172-0.4804993,0.0674133-0.5058899,0.0645142
			C32.5078125,34.5897827,32.7401733,34.4560852,32.8837891,34.4501648L32.8837891,34.4501648L32.8837891,34.4501648z
			 M28.6059875,34.4013672c0.0039062,0,0.0072937,0,0.0112,0c0.746582,0.0800171,1.0254211,0.3574219,1.1040039,0.4697266
			c-0.148407,0.2597961-1.3280945-0.3232117-1.2041016-0.4472961
			C28.5312805,34.4111023,28.5600891,34.4022827,28.6059875,34.4013672L28.6059875,34.4013672L28.6059875,34.4013672z
			 M33.023407,33.4052734c0.1464844-0.0010071,0.2579041,0.0205078,0.3212891,0.0664062h0.0019836c0,0,0,0.0010071,0,0.0019226
			c0,0,0,0.0009766,0,0.0019836v0.0028992c-0.006897,0.0458984-0.0996094,0.257782-0.4248047,0.3496094
			c-0.4072876-0.0361023-2.132782,0.4706726-2.1665039,0.4784851c-0.0004883,0-0.0019836,0-0.0019836,0
			c-0.0004883,0,0-0.0028992,0-0.0038757c-0.0010071-0.0322266,0.0224915-0.2070312,0.0224915-0.2070312
			C31.3710938,33.7421875,32.4520874,33.4110718,33.023407,33.4052734L33.023407,33.4052734L33.023407,33.4052734z
			 M32.3300781,33.1464539c0.0390015,0,0.0625,0.0058289,0.0664062,0.0176086c0,0.0009155,0,0.0028992,0,0.0039062
			c-0.0028687,0.0097351-0.0137024,0.0244141-0.0380859,0.0410156c-0.3301086,0.2333984-1.5673828,0.4716797-1.5673828,0.4716797
			s0.015564-0.1630859,0.0229492-0.202179c0.0346375,0,1.2192383-0.3241882,1.5151367-0.3320312H32.3300781L32.3300781,33.1464539z
			 M31.5048828,32.8095703c0.1260071-0.0048828,0.2246094,0.0028992,0.2539062,0.032196
			c0.0018921,0.0020142,0.0039062,0.0049133,0.0057983,0.0068054c0,0.0019836,0.0010071,0.0049133,0.0020142,0.0059204
			c0,0.0018921,0,0.0039062,0,0.0058899c0,0.0018921,0,0.0068054,0,0.0097046
			c-0.0020142,0.0048828-0.0059204,0.0117188-0.0098267,0.0185852c-0.1698914,0.1650085-0.9941101,0.1903992-0.9941101,0.1903992
			v-0.2060852C30.9174805,32.8681641,31.2616882,32.8183594,31.5048828,32.8095703L31.5048828,32.8095703L31.5048828,32.8095703z
			 M32.7870789,31.6356812c0.1260071-0.0038757,0.1807251,0.0166016,0.1973267,0.045929
			c0.0010071,0.0019836,0.0028687,0.0068665,0.0039062,0.0087891c0.0009766,0.0048828,0.0018921,0.0116882,0.0018921,0.0175781
			c-0.0047913,0.0371094-0.0449219,0.0820312-0.0761108,0.1113281c-0.125,0.1161804-2.1075134,0.7411804-2.1075134,0.7411804
			s-0.0151062-0.4150085-0.007782-0.4511108C31.9579773,31.7597961,32.5253906,31.6464539,32.7870789,31.6356812
			L32.7870789,31.6356812L32.7870789,31.6356812z M31.7714844,31.3310852
			c0.0996094-0.0030212,0.1708984,0.0086975,0.1864929,0.0370789c0.0078125,0.0195312-0.007782,0.0488281-0.0556946,0.0869141
			c-0.3652039,0.2977905-1.1620789,0.3563843-1.1620789,0.3563843v-0.3280945h0.0014954
			C30.7870789,31.477478,31.4414062,31.3388672,31.7714844,31.3310852L31.7714844,31.3310852L31.7714844,31.3310852z
			 M30.7383118,30.7494812c0.0302734,0.0068054,0.4579773,0.0209961,0.5370789,0.0869141
			c0,0.0004883,0.0010071,0.0014648,0.0010071,0.0019836c0.000885,0,0.0018921,0.0014038,0.0018921,0.0018921
			c0.0010071,0,0.0020142,0.0014954,0.0020142,0.0019836c0.0009766,0.0010376,0.0018921,0.0024109,0.0018921,0.003418
			c0,0.0005188,0.0019836,0.0020142,0.0019836,0.0020142c0.0010071,0.0014038,0.0019226,0.0043945,0.0019226,0.0057983
			c0,0.0004883,0,0.0014954,0,0.0019836c0,0,0,0.0014343,0,0.0019226s0,0.0029907,0,0.0033875c0,0.0005188,0,0.0014954,0,0.0019836
			c0,0.0010071-0.0009155,0.0029297-0.0019226,0.0039062c0,0.0004883,0,0.0014954,0,0.0020142
			c0,0.0003967-0.0009766,0.0028687-0.0019836,0.003418c-0.0654297,0.1019897-0.5116882,0.1395874-0.5116882,0.1395874
			S30.7485046,30.8119812,30.7383118,30.7494812L30.7383118,30.7494812L30.7383118,30.7494812z M27.3822937,30.1025085
			c0.2505188-0.015625,0.8700867,0.0869751,2.3999023,0.639679l0.0513,0.297821c0,0-2.5473938-0.8173523-2.6195984-0.8432312
			V30.195282c0-0.0019226-0.0005188-0.0057983,0-0.0097961c0.000885-0.0073242,0.0043945-0.0190125,0.0132141-0.0302124
			C27.2450867,30.1337891,27.2861023,30.1088867,27.3822937,30.1025085L27.3822937,30.1025085L27.3822937,30.1025085z
			 M31.7567749,30.0404663c0.0860291-0.0028992,0.1465149,0.0020142,0.1612244,0.0171204l0.0018921,0.0019836
			c0,0.0004883,0,0.0028992,0,0.0033875c0,0.0005188,0.0020142,0.0015259,0.0020142,0.0019226
			c0,0.0004883-0.0020142,0.0014954-0.0020142,0.0020142c0,0.0010071,0,0.0028687,0,0.0039062
			c0,0-0.0018921,0.0014954-0.0018921,0.0019836c-0.0010071,0.0014038-0.0019836,0.0039062-0.0039062,0.0053101
			c-0.0010071,0.0014954-0.0038757,0.0043945-0.0059204,0.0058899c-0.1318054,0.1132812-1.1684875,0.3301086-1.1684875,0.3301086
			s-0.0283203-0.2476196-0.0283203-0.2549133C30.7402039,30.1601868,31.4335938,30.0512695,31.7567749,30.0404663
			L31.7567749,30.0404663L31.7567749,30.0404663z M31.8554688,29.2616882c0.0888062-0.0039062,0.1543274,0,0.1748352,0.0112
			c0.0018921,0.0014954,0.0048828,0.003479,0.0048828,0.0054016c0.0009155,0.0004883,0,0.0014954,0,0.0019836
			s0,0.0014038,0,0.0019226c0,0.0009766,0.0009155,0.0029602,0,0.0038757c0,0.0005188-0.0010071,0.0014954-0.0019836,0.0019836
			c-0.0010071,0.0015259-0.0028992,0.0039368-0.0049133,0.0054321c-0.1318054,0.1166992-1.3544922,0.3563843-1.3544922,0.3563843
			s-0.0057983-0.2250977-0.0057983-0.2470703C30.7025757,29.3954773,31.4921875,29.2772827,31.8554688,29.2616882
			L31.8554688,29.2616882L31.8554688,29.2616882z M28.039093,29.1068726
			c0.4266968-0.0218811,1.7211914,0.5684204,1.7845764,0.5865173c0.0005188,0,0.0020447,0,0.0020447,0
			c-0.0064392,0.0262756-0.007843,0.2396851-0.0132141,0.273407c0,0.0009766,0,0.0033875,0,0.0038757h-0.0020142
			c-0.0345764-0.0185852-1.8084717-0.7504883-1.887207-0.6923828C27.8739624,29.1630859,27.9247742,29.112793,28.039093,29.1068726
			L28.039093,29.1068726L28.039093,29.1068726z M32.257782,28.4750671c0.0722961-0.0028992,0.1192017,0.0029297,0.1308899,0.0186157
			c0.0009155,0.0018921,0.0019226,0.0057983,0.0019226,0.007782c-0.0010071,0.0072937-0.0068054,0.0171204-0.0195007,0.0283203
			c-0.2246094,0.2020874-1.659729,0.4468079-1.710907,0.4506836c0,0-0.0014954,0-0.0020142,0h-0.0014954
			c-0.0003662,0-0.0018921-0.0014954-0.0018921-0.0019836c-0.0005188-0.0004883-0.0014954-0.0028992-0.0020142-0.0039062v-0.0014954
			c-0.0004883-0.000885-0.0018921-0.0028992-0.0018921-0.0039062c-0.0092773-0.0467834,0.0205078-0.2108765,0.0229187-0.2337952
			c0-0.0004883,0-0.0019836,0-0.0019836h0.0014954c0.0004883,0,0.0018921,0.0019836,0.0018921,0.0019836
			c0.0004883,0,0.0014954,0,0.0019836,0C30.7709961,28.7338867,31.8710938,28.4911804,32.257782,28.4750671L32.257782,28.4750671
			L32.257782,28.4750671z M27.532196,27.390564c0.2823181-0.0150757,0.9184875,0.1338196,2.3448181,0.8052368
			c0,0.0068054,0.0125732,0.2388,0.007782,0.2602844c-0.0004883,0-0.0019836,0-0.0019836,0
			c-0.0848999-0.0269165-2.566925-0.894104-2.566925-0.894104C27.3135071,27.5526733,27.2763672,27.4037781,27.532196,27.390564
			L27.532196,27.390564L27.532196,27.390564z M31.6719055,27.3563843c0.0566101-0.0028992,0.0975952,0.0030212,0.1112671,0.0171204
			c0.0010376,0.0004883,0.0020142,0.0014648,0.0020142,0.0019836c0.0009155,0.0009766,0.0019226,0.0038757,0.0019226,0.0053711
			c0,0.0014343,0.0019836,0.004425,0.0019836,0.0058289c-0.0010071,0.0078125-0.0069275,0.0185852-0.0176086,0.030304
			c-0.1747742,0.1962891-1.1187134,0.3920898-1.1187134,0.3920898s0-0.2471008,0-0.2543945c0,0,0.0014954,0,0.0020142,0
			C30.6977844,27.5531616,31.3905945,27.370575,31.6719055,27.3563843L31.6719055,27.3563843L31.6719055,27.3563843z
			 M27.9726868,26.9433899c0.2147827-0.011322,0.7153015,0.105896,1.8304749,0.5751953l0.0073242,0.2773132
			c0,0-1.8875732-0.5693054-1.9535828-0.664093C27.8241882,27.0853882,27.7641907,26.9545593,27.9726868,26.9433899
			L27.9726868,26.9433899L27.9726868,26.9433899z M31.5917664,25.7436829
			c0.2559204-0.0049133,0.4365234,0.0170288,0.3701172,0.0942078c-0.1835938,0.2113953-1.4476929,0.3847961-1.4476929,0.3847961
			l-0.022522-0.3847961C30.5186157,25.8339539,31.1610718,25.7519836,31.5917664,25.7436829L31.5917664,25.7436829
			L31.5917664,25.7436829z M28.9512024,25.0834656c0.2684937-0.0092773,0.9111023,0.1445312,0.9466858,0.1357117
			c0,0.0513,0.0283813,0.2919922-0.0039062,0.3417969c-0.0003967,0-0.0014038,0.0014954-0.0018921,0.0014954
			c0,0.0004883-0.0014954,0.0020142-0.0019836,0.0020142c-0.0005188,0.0003967-0.0014038,0.0018921-0.0019226,0.0018921
			c-0.0004883,0.0005188-0.0028992,0.0015259-0.0038757,0.0020142h-0.0014954c-0.0010376,0-0.0028992,0-0.0039368,0
			c-0.0004883,0-0.0014954,0-0.0018616,0c-0.0547485-0.0137024-1.0035095-0.3130188-1.0396118-0.4356079
			c-0.0004883-0.0019226,0-0.0057983,0-0.0078125c0.0004883-0.0038757,0.0023804-0.0093079,0.0058899-0.0131836
			c0-0.0005188,0.0014038-0.0014038,0.0018921-0.0018921l0.0014954-0.0015259
			C28.8651733,25.0937805,28.9028015,25.0853882,28.9512024,25.0834656L28.9512024,25.0834656L28.9512024,25.0834656z
			 M28.0785828,24.3725891c0.2505188-0.0126953,0.7475891,0.0458984,1.6806946,0.3016968
			c0,0.0200195,0.0190125,0.2602844,0.0112,0.2998047c0,0.0004883-0.0014954,0.0020142-0.0014954,0.0020142
			c-0.0003662,0.0004883,0,0.0018616,0,0.0018616c-0.0003662,0-0.0018921,0.0020142-0.0018921,0.0020142
			c-0.0147095-0.0073242-1.6977844-0.4883118-1.851593-0.4810181c-0.0043945,0-0.0092163,0.0005188-0.0132141,0
			c-0.003418-0.0004883-0.0083008-0.0013733-0.0112-0.0018616c-0.0043945-0.0010071-0.0097961-0.0039062-0.0136719-0.0059204
			c-0.0009155-0.0004883-0.004425-0.0010071-0.0053101-0.0014954c-0.0004883-0.0004272-0.0015259-0.0019226-0.0020142-0.0019226
			c-0.0054016-0.0033875-0.0101929-0.0087891-0.0131836-0.0131836c-0.0005188-0.0004883-0.0019226-0.0014954-0.0019226-0.0018921
			c-0.0004883-0.0010071-0.0019836-0.0030212-0.0019836-0.0039062c0-0.0004883,0-0.0015259,0-0.0020142
			c-0.0004883-0.0004883-0.0018921-0.0028992-0.0018921-0.0039062v-0.0014648c0-0.0010071,0-0.0029297,0-0.0039062
			c0-0.0010071,0-0.0028992,0-0.0039062c0-0.0018921,0.0009766-0.0053711,0.0018921-0.0072937
			c0.0019836-0.0054016,0.0063782-0.0117188,0.0112915-0.0171204
			C27.8900757,24.4042664,27.9545898,24.3788757,28.0785828,24.3725891L28.0785828,24.3725891L28.0785828,24.3725891z
			 M30.417511,23.7427063c0.0004883,0,0.0018616,0,0.0018616,0c0.0005188,0,0.0015259,0,0.0020142,0
			c0.0453796,0.0116882,0.3632812,0.0218811,0.4023132,0.0751648c0,0.0004883,0.0014954,0.0014038,0.0014954,0.0019226
			c0.0004883,0.0004883,0,0.0019836,0,0.0019836c0.0004883,0.0004883,0.0018921,0.0014038,0.0018921,0.0018921
			c0.0005188,0.0005188,0,0.0014954,0,0.0020142c0,0,0,0.0014038,0,0.0018921c0,0,0,0.0015259,0,0.0020142v0.0014954
			c0,0.0003967,0.0005188,0.0018921,0,0.0018921c0,0.0005188-0.0014038,0.0020142-0.0018921,0.0020142
			c0,0.0003967,0.0004883,0.0014038,0,0.0018921c-0.0004883,0.0010071-0.0010071,0.0028992-0.0014954,0.0039062
			c-0.0005188,0-0.0018921,0.0014954-0.0018921,0.0019836c-0.0005188,0,0,0.0014038,0,0.0014038
			c-0.065918,0.0801086-0.359436,0.1021118-0.3740234,0.1021118c0,0-0.0014954,0-0.0019836,0c0,0,0.0004883-0.0019836,0-0.0019836
			c0-0.0005188-0.0015259-0.0014343-0.0015259-0.0019226C30.4306946,23.9154968,30.417511,23.7427063,30.417511,23.7427063
			L30.417511,23.7427063L30.417511,23.7427063z M30.4613953,23.2689819c0.0132141,0,0.7807922,0.006897,0.8482056,0.1060181
			c0,0.0004883,0.000885,0.0028992,0.000885,0.0033875C31.3114929,23.3798828,31.3125,23.382782,31.3125,23.3842773
			c0.0009766,0.0010071,0,0.0028992,0,0.0039062c0,0.0014038,0.0009766,0.0038757,0,0.0054016
			c0,0.0014038-0.0010071,0.004303-0.0020142,0.0057983c-0.0575867,0.1235046-0.8338928,0.1977844-0.8338928,0.1977844
			L30.4613953,23.2689819L30.4613953,23.2689819L30.4613953,23.2689819z M29.905304,22.9506836v0.2392273
			c0,0-0.3916016-0.0200195-0.4644165-0.0810242c-0.0004883-0.0004883-0.0018921-0.0014954-0.0018921-0.0020142
			c-0.0005188,0-0.0020142-0.0013733-0.0020142-0.0018921c-0.0004883,0-0.0018921-0.0014954-0.0018921-0.0020142
			c-0.0004883,0-0.0019836-0.0013733-0.0019836-0.0013733c-0.0005188-0.0010376-0.0014954-0.0030212-0.0019226-0.0039368
			c0-0.0004883,0-0.0014954,0-0.0019836s-0.0019836-0.0014954-0.0019836-0.0018921c0,0,0-0.0014954,0-0.0020142
			c0-0.0004883,0-0.0028992,0-0.0033875s0-0.0019836,0-0.0019836c0-0.0004883,0-0.0019226,0-0.0019226
			c0.0004883-0.0014954,0.0014954-0.0043945,0.0019836-0.0058899c0-0.0005188,0.0019226-0.0014954,0.0019226-0.0018921
			c0.0009766-0.0015259,0.0023804-0.0039062,0.0038757-0.0054321c0.0005188-0.0004883,0.0014954-0.0014648,0.0020142-0.0019836
			c0.0004883-0.0009155,0.0028992-0.0028992,0.0033875-0.0038757c0.0028992-0.0024109,0.0062866-0.0049133,0.0097046-0.0073242
			c0.1313782-0.0917969,0.394104-0.0892944,0.4458008-0.1040039c0.0004883,0,0.0014954,0.0005188,0.0019836,0
			c0,0,0.0014954-0.0014648,0.0020142-0.0019836c0,0,0.0014038,0.0005188,0.0014038,0
			C29.9037781,22.9520874,29.905304,22.9506836,29.905304,22.9506836L29.905304,22.9506836L29.905304,22.9506836z
			 M30.2162781,16.9940796c-0.0521851,0.5673828-0.1049805,1.1353149-0.157196,1.703186
			c-0.1923828,0.0288086-0.3842773,0.0576172-0.5766907,0.0869141c0,0,0.4004211,0.2246094,0.4701843,0.4506836
			c0.011322,0.0361023,0.0069275,0.065918-0.0091858,0.0883179c-0.0054016,0.0074158-0.0137024,0.0151978-0.0209961,0.0209961
			c-0.1157837,0.0888977-0.4590149,0.0469055-0.4590149,0.0469055s0.4546204,0.3837891,0.4891968,0.522522
			c0.0010071,0.0033875,0.0020142,0.0062866,0.0020142,0.0097046c0,0.0024719,0.0004883,0.0068665,0,0.0092773
			c-0.0005188,0.0019836-0.0028992,0.0058899-0.003418,0.007782c-0.0033875,0.0069275-0.0087891,0.0142212-0.015686,0.0205078
			c-0.1063843,0.0986938-0.6102905,0.1264954-0.6102905,0.1264954s0.5585938,0.3984375,0.5932922,0.6240234
			c0.0317078,0.2050781,0.0053101,0.3246765,0,0.3451843c-0.0385742-0.0331726-0.9400024-0.7904968-1.5209961-0.5693054
			c-0.0288086,0.0151062-0.0463867,0.0292969-0.0533142,0.0435181c-0.0028992,0.0068054-0.0038757,0.0155945-0.0018921,0.0223999
			c0.0410156,0.1259766,0.862793,0.2548828,1.4360046,0.7504883c-0.0140991,0.1245117-1.6337891-0.3945007-1.6937866-0.0693054
			c0.0508118,0.0913086,1.7430725,0.3354187,1.8680725,0.5560913c-0.6229858,0.0234985-1.9105835-0.1371765-1.8680725,0.0679016
			c-0.1304016,0.2368164,1.2162781,0.1030273,1.781189,0.2964172c0.1655884,0.1869812,0.1493835,0.3442078-0.1386108,0.3638
			c-0.5444946-0.2588196-1.7631836-0.4512024-1.7661743-0.120697c0,0.0004883,0,0.0014954,0,0.0019836
			c0.0004883,0.0004883,0.0019836,0.0014954,0.0019836,0.0019836c0.0004883,0.0009155,0.0010071,0.0024109,0.0018921,0.0034485
			c0.0020142,0.0018616,0.0064087,0.0038757,0.0097961,0.0057983c0.137207,0.0688782,1.2720032,0.0351868,1.6992188,0.316864
			c-0.6054077,0.1367188-2.6596069-0.2778015-2.6723022-0.0756836c0.058075,0.0947876,0.3832703,0.5097961,0.9422913,0.4927063
			c0.5596008-0.0176086,1.8536072,0.2261047,1.9410095,0.3994141c0.0024109,0.0058594,0.0024109,0.0112915,0.0018921,0.0151978
			c-0.0381165,0.121582-1.7041016-0.3696899-2.344696-0.0679321c-0.6641235,0.3130188,1.9042969,0.1235046,2.3237,0.5059204
			c0.4194946,0.3822937-0.8384094-0.0362244-0.8384094-0.0362244s-1.7469788-0.2421875-2.0086975-0.120575
			c-0.2622986,0.1216125-0.5596008,0.3999023-0.5596008,0.3999023s0.1737976,0.3466797,0.3486023,0.2773743
			c0.0269165-0.0107727,0.0448914-0.0126953,0.0552063-0.0097961c0.0004883,0.0005188,0.0014954,0,0.0018921,0
			c0,0.0005188,0.0014954,0.0020142,0.0020142,0.0020142c0.0004883,0.0003967,0.0014954,0.0014038,0.0019836,0.0018921
			c0,0.0004883,0.0014038,0.0014954,0.0018921,0.0019836c0,0,0.0014954,0.0014343,0.0014954,0.0019226
			c0.0009155,0.0014954,0.0019226,0.0053711,0.0019226,0.0072937c0.0043945,0.0523071-0.1191101,0.2037048-0.1191101,0.2037048
			s2.4476929,0.5897827,2.9891968,1.1112976c0.5420227,0.5209961-3.1108093-0.8168945-3.1108093-0.8168945
			s-1.467804,0.5385742,0.0874023,0.5731812c-0.1732788,0.2525024,0.0718079,0.4077454,0.0869141,0.4170227
			c0,0,2.5874023,0.539093,2.8496094,0.9560852c0.2616882,0.417511-1.7651062-0.3999023-2.2197266-0.6260071
			c-0.4379883-0.2177734-1.6586914,0.1152344-1.7279663,0.2168274c-0.0005188,0.0010071-0.0014954,0.0028687-0.0020142,0.0039062
			c0,0.0004883,0.0005188,0.0014954,0,0.0019836c0,0.0004272,0,0.0028992,0,0.0039062v0.0014038
			c0.0005188,0.0004883,0,0.0019836,0,0.0019836c0.0005188,0.0004883,0.0020142,0.0014038,0.0020142,0.0019226
			c0,0.0004883,0,0.0014648,0,0.0019836c0.000885,0.0014038,0.0028992,0.0043945,0.0038757,0.0057983
			c0.0005188,0,0.0014038,0.0014954,0.0019226,0.0014954c0.078186,0.085907,0.6225891,0.2036133,0.6391907,0.3511047
			c0,0.0005188,0,0.0014038,0,0.0018921c0.0004883,0.0078125-0.0019836,0.0171204-0.0058899,0.0244141
			c-0.0683289,0.1324158-0.7182007,0.1884766-0.7451172,0.3129883c-0.0004883,0.0025024-0.0018921,0.0054016-0.0018921,0.0079041
			c0,0.1390991,3.2690125,0.8164062,4.1424866,1.5462952c0.874115,0.730011-2.5682678-0.8695984-2.5682678-0.8695984
			s0.1923828,0.2608032,0,0.3301086c-0.1924438,0.0697937-0.8750305-0.9726868-1.9937134-0.3301086
			c-0.2036133,0.2647095,0.976593,0.4746094,1.276886,0.5039062c-0.1026001,0.2616882-0.1918945,0.3486023,0.2275085,0.6088867
			c0.0458984,0.0288086,0.0718079,0.0458984,0.0815735,0.0546875c0,0.0005188,0.0014038,0.0019226,0.0019226,0.0019226
			l0.0020142,0.0020142v0.0018921v0.0020142c-0.0005188,0-0.0020142,0-0.0020142,0c-0.0005188,0-0.0013733,0-0.0019226,0
			c-0.0649719-0.0103149-0.8183594-0.3950195-0.8974609-0.4111328c-0.0005188,0-0.0028992,0-0.003418,0
			c-0.0004883,0-0.0020142,0-0.0020142,0c0,0.0346069,0.0869141,0.4526062,0.0869141,0.4526062
			c-0.387207-0.3129883-0.8548889-0.407196-1.293396-0.0868835c-0.0005188,0.0184937-0.0039062,0.3183899,0.4364929,0.5039062
			c-0.2484741,0.5038757,0.280304,0.3471985,1.1192017,0.8163757c-1.2471008-0.3237-1.3466797,0.2778015-0.4555969,0.4170227
			c0.8916016,0.1391907,3.3383789,0.2255859,3.9154968,0.9736023c0.121582,0.1572876,0.1543274,0.2363892,0.1309204,0.2616882
			c-0.0962219,0.0869751-0.9815063-0.5498047-1.1099243-0.5732117c0,0-0.0014954,0-0.0018921,0
			c0,0-0.0014954,0.0020142-0.0020142,0.0020142c-0.0014954,0.0018921-0.0038757,0.0057983-0.0053711,0.0086975
			C28.6542969,31.5673523,28.625,31.8681946,28.625,31.8681946c-0.3726196-0.2149048-0.7148132-0.4073181-1.160614-0.4981079
			c-0.0351868,0.069397-0.0278931,0.1679688-0.0625,0.2382812c-0.4047852-0.2909851-0.7573853-0.4950867-1.3452759-0.5224915
			c-0.023407,0.0918274-0.046814,0.1855774-0.0703125,0.2784119c0,0-0.4897156-0.6080017-1.4507141,0
			c-0.5370789,0.382782,2.0274048,0.1386108,2.4468079,0.5907898c0.4194946,0.4512024,0.0873718,0.5204773,0.0873718,0.5204773
			c-0.3495789-0.1278687-0.6976624-0.2538757-1.0472717-0.3808594c0,0-1.2416992-0.2275085-1.5913086,0.0507812
			c-0.3497009,0.2782898,5.1025085,0.9561157,5.2597046,1.703125c0.1065063,0.4052734-1.2807007-0.4238281-2.480896-0.7812195
			c-0.0464172,0.132782-0.093811,0.2655945-0.1402283,0.398407c-0.0287781-0.0283203-0.4930725-0.4765015-1.0131531-0.5546875
			l-0.0019226,0.0019836c0,0.0010071,0,0.0028992,0,0.0039062c0.0010071,0.0566101,0.1064148,0.4638672,0.1064148,0.4638672
			s-1.3447266-0.6259766-2.0258179-0.2958984c-0.6816711,0.3300171,2.3759155,0.5039062,2.6552124,0.8164368
			c0.0307922,0.0340881,0.0434875,0.0595093,0.0419922,0.0751953c-0.0004883,0.0028992-0.0023804,0.007782-0.0038757,0.0097046
			c-0.0674133,0.0986938-0.9795227-0.2646179-1.0698242-0.0848999c-0.1049805,0.2089844-1.5899048-0.3819275-1.5722961-0.1035156
			c0.0171204,0.2782898,0.2105103,0.4335022,0.2105103,0.4335022s3.0931702,0.2949829,3.1981812,0.6602173
			c0.1044922,0.3651733-1.7128906-0.2070312-1.7128906-0.2070312s-0.1758118,0.2588196-0.0361023,0.3808289
			c0.0054016,0.0048828,0.0097961,0.0087891,0.0112,0.0108032c0,0.000885,0,0.0018616,0,0.0018616s-0.0014038,0-0.0019226,0
			c-0.0629883-0.0204773-1.0478821-0.6620789-0.952179-0.1688843c-0.3852234-0.1532898-1.3804016-0.6260071-1.2407227-0.2608032
			c0.1377258,0.3594055,2.7329102,0.8711243,2.8096008,0.8868103c-0.0688782,0.0048218-1.1659851,0.0965881-1.1152954,0.382782
			c-1.4711609-0.891571-1.4676819-0.3565063-1.4339905-0.3154907v0.0019836
			c-0.0830994-0.0126648-1.8925781-0.4608765-0.4537048,0.3135071c0.7720032,0.4150085,0.960022,0.5771179,0.9638977,0.6396179
			c0,0.0010071,0,0.0039062,0,0.0048828c-0.0004883,0.0020142-0.0014954,0.0049133-0.0018921,0.0058899
			c0,0.0009155-0.0019836,0.0019226-0.0019836,0.0019226c-0.0005188,0.0009766-0.0010071,0.0028992-0.0020142,0.0039062
			c0,0-0.0014038,0.0020142-0.0018921,0.0020142c0,0-0.0014954,0.0018616-0.0019836,0.0018616
			c0,0-0.0014038,0.0020142-0.0019226,0.0020142c0,0-0.0014954,0.0010071-0.0014954,0.0019226
			c-0.030304,0.0185547-0.1025085,0.0107727-0.1235046,0.0107727c-0.0010071,0-0.0028992,0-0.0039062,0
			c-0.0004883,0-0.0019836,0.0019226-0.0019836,0.0019226l0.0019836,0.0019836
			c0.0205078,0.030304,0.1338196,0.3369141,0.1274109,0.3905945c-0.0005188,0.0010071-0.0018921,0.0029297-0.0018921,0.0039062
			c-0.0004883,0,0,0.0019836,0,0.0019836c-0.0004883,0-0.0020142,0-0.0020142,0c-0.0005188,0,0,0.0019226,0,0.0019226
			c-0.0005188,0-0.0018921,0-0.0018921,0h-0.0020142c-0.0629883-0.0155945-1.0161133-0.5223999-1.3432922-0.5566101
			c-0.3320007-0.0351868-1.9052124,0.4336243-0.227478,1.164032c1.6776733,0.7294922,2.7084961-0.1748352,3.6347961-0.0703125
			c0.9257812,0.1044922,1.363678,0.2607727,1.2762756,0.5566711c-0.0873718,0.2949219-0.9471741-0.9687805-1.8515015,0.1240234
			c-1.0278931-0.2022095-1.7255859-0.3193054-1.1947632,0.4325867c-1.6792297-0.6240234-2.7046509,0.1904297-0.5899353,0.5205078
			c2.0776062,0.0606079,3.3555298-0.5039062,3.3555298-0.5039062s0.3505859,0.6445007,0.8573914,0.1924133
			c0.4829102-0.4307251,0.5209961,0.1171875,0.5386047,0.1698914c0.0004883,0.0010071,0.0018921,0.0010071,0.0018921,0.0019836
			v0.0019226h0.0019836c0.0371094-0.0097046,0.4873047-0.2099304,0.4873047-0.2099304c0.0410156,0,0.082489,0,0.1235046,0v4.170929
			c0.5650024,0.0057983,1.1289062,0.0106812,1.694397,0.0166016c0,0-0.5419922-3.6309204-0.2451782-4.117218
			c0.2880554-0.4717102,0.5596008-0.4208984,0.5761719-0.4169922c0,0,1.1016235,0.3291016,1.2236023,0.2772827
			c0.0020142-0.0009766,0.0049133-0.0009766,0.0058899-0.0018616c0.0010071-0.0010071,0.0028992-0.0010071,0.0039062-0.0020142
			c0.0019836-0.0010071,0.0059204-0.0039062,0.007782-0.0058289c0,0,0.0010376-0.0009766,0.0020447-0.0019836
			c0.0887756-0.0809937-0.0020447-0.4013977,0.5575867-0.3525085c0.1727905-0.0624695,0.1063843-0.3359985,0.217804-0.4033813
			c0.0018921-0.0009155,0.0057983-0.0028992,0.007782-0.0038757c0.0039062-0.0019226,0.0107117-0.0039062,0.0145874-0.0058289
			c0.0069275-0.0020142,0.0157166-0.0028992,0.0234985-0.0038757c0.1748352-0.0166321,3.546814,0.9375,4.2812195,0.0341797
			c-0.1923828-0.5039978-0.8573914-0.0341797-1.032196-0.0166016c-0.157196,0-0.8212891-0.3134766-1.2060852,0
			c-0.3496399-0.2608032-1.9384155-0.4346008-1.9384155-0.4346008c-0.210022-0.2080078,3.7919922,0.1044922,4.0195007-0.0527954
			c0.4717102-0.4687195-0.8739929-0.4160156-1.0839844-0.2597046c-0.3721008-0.2255859-0.8408203-0.2090149-1.1260071-0.0527954
			c-0.1376953-0.3261108-1.4365234-0.1845093-2.1592102-0.2773132c-0.2314148-0.1347656-0.1922913-0.2118835-0.0361023-0.2958984
			c1.5087891,0.0635071,3.0097961,0.2598267,4.5263977,0.1924133c0.4092102-0.531311-0.5155945-0.7315063-1.0829773-0.2792969
			c-0.3330078-0.5449219-1.0137329-0.0176086-1.4688416-0.0703125c-0.4541016-0.0517883-0.2440796-0.6074219,0.3321228-0.5204773
			c0.5770874,0.0868835,1.6083984-0.0352173,1.8006897-0.2958984c0.1914062-0.2608032-0.1151733-0.5244141-1.0664062-0.2774048
			c-0.3222046-0.3125305-1.0301819,0-1.3623047,0.1034851C34.5282898,35.219696,33.5,35.4306946,33.1503906,35.5175781
			c-0.3417969-0.2109985,1.8008118-0.5556946,1.8008118-0.5556946c0.8270874-0.0145874,1.2928772-0.1572266,1.555603-0.2265015
			c1.25-0.6660767-0.0175171-0.7373962-0.6737976-0.2529907c-0.407196-0.3164062-0.7939148,0.0273743-1.1611023,0.1494141
			c-0.3438416,0.1132812-0.9804993,0.1962891-1.0586243,0.1640625c0-0.0009766-0.0028992-0.0019836-0.0028992-0.0019836
			c-0.0009766,0-0.0019836-0.0018921-0.0019836-0.0018921l-0.0020142-0.0019836v-0.0019226v-0.0019836
			c0-0.0009155,0.0009766-0.0029297,0.0020142-0.0039368c0.0508118-0.0791016,0.9931946-0.6542664,0.9931946-0.6542664
			s1.2235718-0.0878906,1.4687195-0.1230164c0.1493835-0.0205078,0.671875-0.2666016,0.6708984-0.3583984
			c-0.0039368-0.0567017-0.2217407-0.0508118-0.8818054,0.1152039c-0.5938416,0.0527954-0.9434204,0.0185852-1.1699219,0.0361938
			c-0.3652954-0.0381165-0.5196228-0.0762024-0.5507812-0.1094055c-0.0010376-0.0020142-0.0030212-0.0038757-0.0030212-0.0058899
			c-0.0028992-0.0058289-0.0009155-0.0126953,0.0030212-0.0184937c0.0018616-0.0020142,0.0048828-0.0049133,0.0057983-0.0059204
			C34.234375,33.5868835,34.8125,33.5351868,34.8125,33.5351868s1.7645874-0.1602173,1.8818054-0.2520142
			c0-0.0010071,0.0009766-0.0018921,0.0019836-0.0018921c0-0.0009766,0.0010071-0.0029907,0.0018921-0.0039978
			c0-0.0009155,0.0020142-0.0019226,0.0020142-0.0019226c0.0360718-0.7177734-1.4981079-0.3866882-1.539093-0.3808594
			c0.0048828-0.5049133-1.3838196-0.0078125-1.4492188,0c0,0-0.0010071,0-0.0018921,0
			c-0.0596008-0.0351257-0.085022-0.0722351-0.0909119-0.1054382c-0.000885-0.0136719,0-0.0273743,0.0039062-0.0401001
			c0.0351868-0.1034851,0.2451782-0.1844788,0.2451782-0.1844788c0.3838196-0.092804,0.9589233-0.1221008,1.1093445-0.2431946
			c0,0,1.0849609-0.0097961,1.2138672-0.2969055c-0.2655945-0.7304993-2.2958984,0.1298828-2.5683899,0.2607727
			c-0.0545959,0-0.0877991-0.0136719-0.1043701-0.0361633c-0.0889282-0.1299133,0.3514709-0.5566101,0.3661804-0.5712891
			l0.0018921-0.0019226c0.0674133-0.0185852,1.6885071-0.101593,2.4619141-1.144989
			c0.0546875-0.6451111-0.9256897,0.3641968-0.9256897,0.3641968c-0.0723267-0.8369141-1.0655518,0.0531921-1.6426392,0.1225891
			c-0.5761719,0.0693054-0.5927734-0.2608032-0.1913757-0.3130188c0.4022827-0.0522766,0.8563843-0.0180969,1.0830078-0.6264648
			c0.227478-0.6079102,0.9100647,0.035675,1.032196-0.1903992c0.1181641-0.218811-0.2236023-0.405304-0.2451172-0.4165344
			c0,0,0.5068054-0.5229797-0.3144836-0.5058899c-0.8134155,0.0176086-1.8641968-0.1009827-1.8857117-0.1034851
			c0.0508118-0.0195007,0.8788757-0.3301086,1.6582031-0.3129883c0.8036804,0.0170898,0.3671875-0.5737305-0.4024048-0.5737305
			c-0.7684937,0-1.1698914-0.2602844-1.1698914-0.2602844c0.4365845-0.1621094,0.8731079-0.3242188,1.3106079-0.4862976
			c-0.0292969-0.121582-0.0585938-0.2427063-0.0878906-0.3641968c0,0,0.7694702-0.608429-0.3145142-0.4698181
			c-1.0830078,0.1392212-1.2059937,0.1567993-1.2059937,0.1567993s-2.1333313,0.324707-2.1836243,0.3300171h-0.0019836
			c-0.0205078-0.003418-0.2319031-0.0682983-0.2715149-0.1488953c-0.000885-0.0028992-0.0028992-0.0068054-0.0033875-0.0097046
			c-0.0010071-0.0030212-0.0018921-0.0079041-0.0018921-0.0112915c-0.0005188-0.0039062-0.0010071-0.0093079,0-0.0131836
			c0.0087891-0.04245,0.074707-0.0883179,0.2425842-0.1298218c0.5596008-0.1391907,2.5351868-0.5381165,2.8321228-0.4341125
			c0.0380859,0.0136108,0.0663757,0.0107117,0.0839844-0.0038757c0.1112976-0.1001282-0.2597961-0.7393188-1.1690063-0.8296204
			c-1.0487976-0.1044922-1.6937866,0.2601929-1.6937866,0.2601929s-0.6822205-0.2441101-0.0533142-0.4526062
			c0.6290283-0.2084656,1.6259766,0.0698242,1.6259766,0.0698242s1.117218-0.3305054,0.1914368-0.4697266
			c-0.9267273-0.1391907-1.2187195,0.125-1.6424866,0.1396179c-0.1695251-0.2103882,1.454071-0.2601929,1.5555725-0.4339905
			c-0.1719055-0.3125-1.1758118,0-1.7645874,0c-0.2500305-0.1054993-0.2666016-0.2774048,0.0170898-0.3828125
			c0.6000977-0.0230103,1.1645203,0.0117188,1.7640991-0.0112915c-0.0176086-0.3182983,0-0.6962891-0.0166016-1.0146179
			c-0.7616882-0.1381836-1.6542969,0.1010132-2.0814819,0.0810242c0.1141968-0.3476257,1.7572632-0.4375305,1.9408875-0.5317078
			c0.3768921-0.4692993-1.5762024-0.0072937-1.6239929,0c-0.3467102-0.0513-0.3257141-0.269104-0.1059875-0.3999023
			c0.5063782-0.0581055,1.6430664,0.0737,1.5570679-0.2680969c-0.0653992-0.3198242-0.7879639-0.148407-1.0848999-0.0791016
			c-0.2969055,0.069397-0.7338867,0.0170898-0.7338867,0.0170898c-0.1903992-0.2548828,1.7134094-0.1508789,1.6958008-0.347168
			c-0.0254211-0.2255249-1.2065125-0.0703125-1.6089172-0.0527344c-0.3091125-0.2124023,1.4536133-0.3529968,1.5365906-0.3808899
			c0-0.0003967,0.0020447-0.0018921,0.0020447-0.0018921c0.0653687-0.5776062-1.2237244,0-1.4683228,0
			c-0.0419922,0-0.0737-0.0107117-0.0967102-0.0282898c-0.0052795-0.004425-0.0106812-0.0103149-0.0151062-0.0151978
			c-0.0839844-0.0976257-0.0097961-0.3208008-0.0097961-0.3208008s0.4595032-0.2050171,0.487793-0.254425
			c0-0.0003967,0.0014954-0.0013733,0.0020142-0.0019226v-0.0019836v-0.0018921
			c-0.0005188,0-0.0020142-0.0014954-0.0020142-0.0019836c-0.0008545-0.0014343-0.0038757-0.0039062-0.0057983-0.0053101
			c-0.0536804-0.0415039-0.3700562-0.1455994-0.4115906-0.1495056c0,0-0.0014954,0-0.0019836,0
			c0,0-0.0014954-0.0014038-0.0020142-0.0014038c-0.0003967-0.0005188-0.0013733-0.0014954-0.0018921-0.0019836
			c0-0.0005188-0.0015259-0.0014343-0.0015259-0.0019226c-0.0238647-0.0488892,0.0054321-0.394104,0.0054321-0.394104
			s0.3643188-0.2714844,0.3871765-0.3793945c0-0.000885-0.0004883-0.0028992,0-0.0038757c0-0.0009155,0-0.0029297,0-0.003418
			c0-0.0009766,0-0.0028992,0-0.0039062c0-0.0009766,0-0.0028992,0-0.0038757c0-0.0005188,0-0.0014954,0-0.0020142
			c-0.0004883-0.000885-0.0014954-0.0023804-0.0018921-0.003418c0-0.0004883,0-0.0018616,0-0.0018616
			c0-0.0005493-0.0019836-0.0015259-0.0019836-0.0020142c-0.0005188-0.0005188-0.0014954-0.0014038-0.0020142-0.0019226
			c-0.0003967-0.0010071-0.000885-0.0029907-0.0018921-0.0039062c0,0-0.0014954-0.0014954-0.0019836-0.0019836
			c-0.0014038-0.0009766-0.0039062-0.0024109-0.0053101-0.0033875c-0.0010071-0.0005188-0.0035095-0.0014954-0.0039062-0.0019836
			c-0.0923157-0.0439453-0.4726868,0.0864563-0.4726868,0.0864563c0-0.1157532,0-0.2309875,0-0.3466797
			c0,0,0.3329773-0.0361938,0.3681946-0.1924133c0.0018921-0.0092773,0.000885-0.0185852,0-0.0263672
			c-0.0004883-0.003418-0.0010071-0.0083008-0.0019836-0.0117188c-0.0019226-0.0063171-0.0054321-0.0146179-0.0093384-0.0205078
			c-0.000885-0.0009766-0.0033875-0.0028992-0.0038757-0.0038757c-0.0761108-0.0977173-0.3872375-0.1112976-0.3872375-0.1112976
			C30.332489,18.2099915,30.2743835,17.602478,30.2162781,16.9940796L30.2162781,16.9940796L30.2162781,16.9940796z"/>
	</g>
</g>
</svg>
