<?xml version="1.0" encoding="utf-8"?>
<!-- Generator: Adobe Illustrator 22.1.0, SVG Export Plug-In . SVG Version: 6.00 Build 0)  -->
<svg version="1.1" id="Layer_1" xmlns="http://www.w3.org/2000/svg" xmlns:xlink="http://www.w3.org/1999/xlink" x="0px" y="0px"
	 viewBox="0 0 60 60" style="enable-background:new 0 0 60 60;" xml:space="preserve">
<style type="text/css">
	.st0{clip-path:url(#SVGID_2_);fill:#FFFFFF;}
	.st1{clip-path:url(#SVGID_2_);fill:#094120;}
</style>
<g id="XMLID_1_">
	<g>
		<defs>
			<path id="SVGID_1_" d="M59,60H0.9999695C0.4477234,60,0,59.5526733,0,59V0.9999695c0-0.5522461,0.4477234-1,0.9999695-1H59
				c0.5526886,0,0.9999847,0.4477539,0.9999847,1V59C59.9999847,59.5526733,59.5526886,60,59,60L59,60z"/>
		</defs>
		<clipPath id="SVGID_2_">
			<use xlink:href="#SVGID_1_"  style="overflow:visible;"/>
		</clipPath>
		<polygon class="st0" points="-15,-0.0000305 74.9999847,-0.0000305 74.9999847,60 -15,60 -15,-0.0000305 		"/>
		<polygon class="st1" points="14.9975891,-0.0000305 74.9999847,-0.0000305 74.9999847,60 14.9975891,60 14.9975891,-0.0000305 		
			"/>
		<path class="st0" d="M38.25,11.9999695c9.9413757,0,17.9999847,8.0591125,17.9999847,18c0,9.9414062-8.058609,18-17.9999847,18
			c-9.940918,0-18-8.0585938-18-18C20.25,20.059082,28.309082,11.9999695,38.25,11.9999695L38.25,11.9999695z"/>
		<path class="st1" d="M31.8887024,13.5780945c6.8114929-6.0541687,17.2401733-5.440918,23.2948761,1.3700867
			c6.0537109,6.8110962,5.4403992,17.2402954-1.3700867,23.2940063c-6.8115082,6.0546875-17.2403107,5.4414062-23.2948761-1.3700867
			C24.4647827,30.0614929,25.0780945,19.6322937,31.8887024,13.5780945L31.8887024,13.5780945z"/>
		<polygon class="st0" points="44.8134766,16.5307617 52.3954926,25.0609741 41.2479858,22.6166687 51.7030792,18.0414734 
			45.9335938,27.8881836 44.8134766,16.5307617 		"/>
	</g>
</g>
</svg>
