<?xml version="1.0" encoding="utf-8"?>
<!-- Generator: Adobe Illustrator 22.1.0, SVG Export Plug-In . SVG Version: 6.00 Build 0)  -->
<svg version="1.1" id="Layer_1" xmlns="http://www.w3.org/2000/svg" xmlns:xlink="http://www.w3.org/1999/xlink" x="0px" y="0px"
	 viewBox="0 0 60 60" style="enable-background:new 0 0 60 60;" xml:space="preserve">
<style type="text/css">
	.st0{clip-path:url(#SVGID_2_);fill:#FFFFFF;}
	.st1{clip-path:url(#SVGID_2_);fill:#202B51;}
	.st2{clip-path:url(#SVGID_2_);fill:#DA171C;}
	.st3{fill:#202B51;}
</style>
<g id="XMLID_1_">
	<g>
		<defs>
			<path id="SVGID_1_" d="M0,0.9999695c0-0.5522461,0.4477234-1,0.9999695-1H59c0.5526886,0,0.9999847,0.4477539,0.9999847,1V59
				c0,0.5526733-0.4472961,1-0.9999847,1H0.9999695C0.4477234,60,0,59.5526733,0,59"/>
		</defs>
		<clipPath id="SVGID_2_">
			<use xlink:href="#SVGID_1_"  style="overflow:visible;"/>
		</clipPath>
		<polygon class="st0" points="-15,-0.0000305 74.9999847,-0.0000305 74.9999847,60 -15,60 -15,-0.0000305 		"/>
		<polygon class="st1" points="-15,29.9999695 30,29.9999695 30,60 -15,60 -15,29.9999695 		"/>
		<polygon class="st2" points="30,-0.0000305 74.9999847,-0.0000305 74.9999847,29.9999695 30,29.9999695 30,-0.0000305 		"/>
		<polygon class="st2" points="45,37.4999695 42.6825867,44.632782 46.2489624,45.7919922 45,37.4999695 		"/>
		<polygon class="st2" points="45,37.4999695 47.3174133,44.632782 43.7509766,45.7919922 45,37.4999695 		"/>
		<polygon class="st2" points="52.132782,42.6825867 44.632782,42.6825867 44.632782,46.4325867 52.132782,42.6825867 		"/>
		<polygon class="st2" points="52.132782,42.6825867 46.0653992,47.0907898 43.8612671,44.0565796 52.132782,42.6825867 		"/>
		<polygon class="st2" points="49.4081726,51.0673828 47.0907898,43.9345703 43.5243835,45.0937805 49.4081726,51.0673828 		"/>
		<polygon class="st2" points="49.4081726,51.0673828 43.3407898,46.6591797 45.5448914,43.625 49.4081726,51.0673828 		"/>
		<polygon class="st2" points="40.5917664,51.0673828 46.6591797,46.6591797 44.4551086,43.625 40.5917664,51.0673828 		"/>
		<polygon class="st2" points="40.5917664,51.0673828 42.9091797,43.9345703 46.4755859,45.0937805 40.5917664,51.0673828 		"/>
		<polygon class="st2" points="37.8671875,42.6825867 43.9345703,47.0907898 46.1387024,44.0565796 37.8671875,42.6825867 		"/>
		<polygon class="st2" points="37.8671875,42.6825867 45.3671875,42.6825867 45.3671875,46.4325867 37.8671875,42.6825867 		"/>
	</g>
	<polygon class="st3" points="15,7.4999695 16.684082,12.6820679 22.132782,12.6820679 17.7246094,15.8852844 
		19.4081726,21.0679016 15,17.8646851 10.5917664,21.0679016 12.2597961,15.9306946 7.867157,12.6820679 13.3158875,12.6820679 
		15,7.4999695 	"/>
</g>
</svg>
