<?xml version="1.0" encoding="utf-8"?>
<!-- Generator: Adobe Illustrator 22.1.0, SVG Export Plug-In . SVG Version: 6.00 Build 0)  -->
<svg version="1.1" id="Layer_1" xmlns="http://www.w3.org/2000/svg" xmlns:xlink="http://www.w3.org/1999/xlink" x="0px" y="0px"
	 viewBox="0 0 60 60" style="enable-background:new 0 0 60 60;" xml:space="preserve">
<style type="text/css">
	.st0{clip-path:url(#SVGID_2_);fill:#020203;}
	.st1{clip-path:url(#SVGID_2_);fill:#CE1327;}
	.st2{clip-path:url(#SVGID_2_);fill:#FDD21A;}
	.st3{clip-path:url(#SVGID_2_);fill:#FFFFFF;}
</style>
<g id="XMLID_1_">
	<g>
		<defs>
			<path id="SVGID_1_" d="M59,60H0.9999695C0.4477234,60,0,59.5526733,0,59V0.9999695c0-0.5522461,0.4477234-1,0.9999695-1H59
				c0.5526886,0,0.9999847,0.4477539,0.9999847,1V59C59.9999847,59.5526733,59.5526886,60,59,60L59,60z"/>
		</defs>
		<clipPath id="SVGID_2_">
			<use xlink:href="#SVGID_1_"  style="overflow:visible;"/>
		</clipPath>
		<polygon class="st0" points="-10,-0.0000305 69.9999847,-0.0000305 69.9999847,60 -10,60 -10,-0.0000305 		"/>
		<polygon class="st1" points="-10,-0.0000305 69.9999847,-0.0000305 69.9999847,60 -10,-0.0000305 		"/>
		<path class="st2" d="M49.7538757,22.3529663c0.8379211,0.8374329,6.4912262,4.6059875,6.4912262,9.2124023
			c0,4.6065369-4.1181183,4.4668274-5.3047028,4.3272095c1.3261871,1.1162109,6.351593,0.907196,6.351593-4.3272095
			c0-4.6064148-6.4911957-9.2124023-7.328125-9.6312866C49.1259766,21.5155945,48.9169922,21.5155945,49.7538757,22.3529663
			L49.7538757,22.3529663z M39.5292969,17.4325867c-0.5907898,0.7631836-1.9883118-0.7676086-3.664093-0.8027039
			c-1.6748352-0.034729-2.8613281,1.6054993-3.3496094,2.1636047c-0.4883118,0.5585938-2.0585938,3.4896851-2.0239258,3.8037109
			c0.034729,0.3138733,0.9771118-0.8726196,1.3257141-1.081604c0.0350952,0.4184875-0.3837891,0.9072876-0.2792969,1.046875
			c0.1055298,0.1392212,1.2217102-0.8378906,1.6055298-0.8725586c0.1043701,0.2792664-0.2090149,0.558075-0.1045227,0.9770508
			c0.1396179,0.1396179,0.7674866-0.6977844,1.1864929-0.8725891c0.0693054,0.3144836-0.3838196,0.9077148-0.1397095,1.2915344
			c0.1748047,0.034668,1.2217102-1.1865234,1.5704041-1.3261414c0.3486023-0.139679-0.1748962,1.1513062,0,1.2563171
			c0.3144226-0.2095032,1.2909851-1.3261719,1.6054077-1.4657898c0.3135071-0.1397095-0.0350952,1.4306946,0.1044922,1.4306946
			c0.3837891-0.2792969,1.3613281-1.605011,1.4658203-1.8145142c0.1044617-0.2095032-0.1044922,2.0239258,0.976593,3.2105103
			c1.0819702,1.1864929,2.7226868,2.5473022,2.8964844,2.5473022c0.2098999-0.3837891-0.069397-1.1864929,0.1044922-1.1513977
			c0.4891968,0.5234985,1.3965454,1.2910767,1.6054077,1.2910767c0.2090149,0-0.1395874-0.8374023,0.1397095-0.8374023
			c0.5585938,0.5234375,2.1630859,2.5820312,5.3036804,3.5244141c-0.2089844-0.5932922-0.6630554-1.1166992-0.6972961-1.3959961
			c0.2090149,0.0351257,0.9423981,0.3843079,1.0821228,0.3491211c0.1385956-0.0352173-1.5362244-2.0937195-1.4317017-2.3730164
			c0.3847961-0.0346985,0.5585938,0.2094116,0.6982727,0.0346069c-0.1747742-0.2788086-1.639679-1.9189148-1.639679-2.3027344
			c0-0.3842773,0.4530945,0.0698242,0.592804,0c0.1395874-0.0697632-0.5586243-1.535675-0.4190063-1.7099915
			c0.1397095-0.1742859,1.6748962,0.941925,2.0595856,0.941925c0.3838196,0,0.1045074-1.3608093,0.2783203-1.4306335
			c0.1747894-0.0698853,1.4659119,0.7329407,1.7451935,0.7329407c0.2793121,0,0.2440948-0.5933228,0.3486023-0.5234985
			c0.1054993,0.0698853,3.1405945,3.1059875,2.0937042,6.6650696c-1.046814,2.5473328-3.1396027,3.9087219-6.2109222,2.7915039
			c0.1748352,0.2793274,1.8145142,1.6405945,3.5937042,1.1523132c1.7803192-0.4891968,3.9434204-1.8847046,3.6993256-5.3745117
			c-0.2442169-3.4892883-1.3954926-3.9779968-1.5703125-4.5014954c-0.1739044-0.523407,0.2793121,0.1397095,0.6629944,0.2793274
			c0.3838043,0.139679-0.0692902-0.7329407-0.1747894-1.1167297c-0.1045074-0.3841858,1.1523895,0.8023071,1.4658966,0.9072876
			c0.3144073,0.1045227-0.7325134-2.8613892-1.0468903-3.0707703c-0.3135071-0.2095032,0.3143768,0.0697937,0.5233765,0.1395874
			c0.2100067,0.0697937-1.9188843-3.2456055-2.3729858-3.2456055c-0.453186,0,0.3837891-0.1742859,0.628891-0.1742859
			c0.2440948,0-2.4433899-2.1636047-2.8964996-2.1636047c-0.4541016,0,0.9766235-0.5586243,1.1162109-0.5932007
			c0.2441101,0.0345764-3.105484-1.7797852-6.1063995,0.0345764c-0.1747742-0.1390991,1.4129944-1.238678,1.4658203-1.7093811
			c0.0175781-0.1225891-0.5235291-0.3843079-0.5586243-0.5234985c-0.0352173-0.1395874,0.8378906-0.5585938,0.8721008-0.8724976
			c-0.2089844-0.2792969-0.592804-0.174408-0.8027954-0.2442017c-0.0517273-0.2616882,0.7333984-0.9072266,0.6630859-1.1864929
			c-0.0516968-0.1567383-0.6278687-0.2094727-0.7676086-0.1045227c-0.1395874,0.1045227,0.3662109-0.7329102,0.2793274-0.9770508
			c-0.0693054-0.10495-0.3486023-0.0351562-0.6279297,0.034668c-0.1747742-0.034668,0.9072266-1.535614,0.6982117-1.7446289
			c-0.2098694-0.2094727-3.1416016,1.5351562-4.2225952,3.4892578c-1.0819702,1.954071-0.2442017,3.5244751-0.3837891,4.1874695
			c-0.1397095,0.6630859-0.3145142,1.3262024-0.7676086,1.3262024c-0.4541016,0-1.5009766-0.6976929-1.8495789-1.0469055
			c-0.3496094-0.3490906-0.4189148-0.5932007-0.9072266-0.7329102c-0.4893188-0.1395874-1.6054993,0.2793274-2.0244141,0.3139954
			c-0.4189758,0.0352173-2.0585632-0.3139954-2.1630554-0.2089844c-0.1054993,0.1044922,1.6044922,0.7324219,1.9882812,0.9418945
			c0.3847046,0.2095032,0.4188843,0.4888,0.6982117,0.6630859C37.7499695,15.5829773,40.3671875,16.3511047,39.5292969,17.4325867
			L39.5292969,17.4325867z"/>
		<polygon class="st3" points="12.9433899,43.6044922 14.1362,39.765564 15.3295898,43.6454773 12.1875,41.2675781 
			16.0853882,41.2675781 12.9433899,43.6044922 		"/>
		<polygon class="st3" points="10.0434875,18.5932617 7.6572266,26.2704773 13.9413757,21.5976868 6.1459656,21.5976868 
			12.4296875,26.3539734 10.0434875,18.5932617 		"/>
		<polygon class="st3" points="0.8769226,30.3125 -1.5093079,37.9901733 4.7744141,33.3163757 -3.0210266,33.3163757 
			3.2631531,38.0731812 0.8769226,30.3125 		"/>
		<polygon class="st3" points="19.1664734,29.4789734 16.780304,37.1562805 23.0644836,32.4833984 15.2689819,32.4833984 
			21.5531616,37.2401733 19.1664734,29.4789734 		"/>
		<polygon class="st3" points="10.0434875,46.1454773 7.6572266,53.8231812 13.9413757,49.1503906 6.1459656,49.1503906 
			12.4296875,53.9062805 10.0434875,46.1454773 		"/>
	</g>
</g>
</svg>
