<?xml version="1.0" encoding="utf-8"?>
<!-- Generator: Adobe Illustrator 22.1.0, SVG Export Plug-In . SVG Version: 6.00 Build 0)  -->
<svg version="1.1" id="Layer_1" xmlns="http://www.w3.org/2000/svg" xmlns:xlink="http://www.w3.org/1999/xlink" x="0px" y="0px"
	 viewBox="0 0 60 60" style="enable-background:new 0 0 60 60;" xml:space="preserve">
<style type="text/css">
	.st0{clip-path:url(#SVGID_2_);fill:#204295;}
	.st1{clip-path:url(#SVGID_2_);fill:#CE1327;}
	.st2{clip-path:url(#SVGID_2_);fill:#FFFFFF;}
	.st3{clip-path:url(#SVGID_2_);fill:#FDD21A;}
</style>
<g id="XMLID_1_">
	<g>
		<defs>
			<path id="SVGID_1_" d="M59,60H0.9999695C0.4477234,60,0,59.5526733,0,59V0.9999695c0-0.5522461,0.4477234-1,0.9999695-1H59
				c0.5526886,0,0.9999847,0.4477539,0.9999847,1V59C59.9999847,59.5526733,59.5526886,60,59,60L59,60z"/>
		</defs>
		<clipPath id="SVGID_2_">
			<use xlink:href="#SVGID_1_"  style="overflow:visible;"/>
		</clipPath>
		<polygon class="st0" points="0,-0.0000305 120,-0.0000305 120,60 0,60 0,-0.0000305 		"/>
		<polygon class="st1" points="0,29.9999695 120,29.9999695 120,60 0,60 0,29.9999695 		"/>
		<polyline class="st2" points="51.9618988,29.9999695 0,60 0,-0.0000305 		"/>
		<polygon class="st3" points="3,5.1962891 4.8061523,6.7568054 6.8969727,5.6059265 5.9707031,7.8056335 7.7118835,9.4384766 
			5.3334961,9.237793 4.3183594,11.3978882 3.7743835,9.0737305 1.40625,8.7758484 3.4487305,7.5404968 3,5.1962891 		"/>
		<polygon class="st3" points="43.6582031,26.8295898 43.7070007,29.2162781 45.9618835,29.9999695 43.7070007,30.7836609 
			43.6582031,33.1698914 42.2157898,31.2685852 39.9315796,31.9589844 41.2948608,29.9999695 39.9315796,28.0404968 
			42.2157898,28.7318726 43.6582031,26.8295898 		"/>
		<polygon class="st3" points="4.3183594,48.601593 5.3334961,50.7626953 7.7118835,50.5614624 5.9707031,52.1942749 
			6.8969727,54.3945007 4.8061523,53.2431946 3,54.8036804 3.4487305,52.4589844 1.40625,51.2235718 3.7743835,50.9257812 
			4.3183594,48.601593 		"/>
		<path class="st3" d="M18.6665039,17.3334656l-0.7788086,0.7788086l0.3862,5.9003906
			c-0.1313171,0.0083313-0.2612305,0.0209961-0.3901062,0.0381165l-0.7095032-5.3843079l-0.6356812,0.6357117l0.9569702,4.8125
			c-0.7870789,0.1557922-1.5189819,0.4649048-2.1625977,0.8960266l-2.7255859-4.0791321h-0.8994141l3.3062134,4.3091125
			c-0.1040039,0.0795898-0.2045898,0.1630859-0.3027954,0.2489929l-3.8999329-4.4466858h-1.101532v1.1019897l4.4467468,3.8999023
			c-0.0863953,0.098175-0.1698914,0.1992188-0.2494812,0.3031921l-4.309082-3.3070984v0.8994141l4.0800781,2.726593
			c-0.430603,0.6434937-0.7412109,1.375-0.8969116,2.1620789L7.96875,27.8721008L7.3330078,28.507782l5.3842773,0.7090149
			c-0.0166016,0.1293945-0.0292969,0.2593079-0.0381165,0.3905945l-5.9003906-0.3862L6,29.9999695l0.7787781,0.7788086
			l5.9003906-0.3862c0.0088196,0.1312866,0.0215149,0.2621765,0.0381165,0.3910828l-5.3842773,0.7085266L7.96875,32.1278687
			l4.8125305-0.9569702c0.1557007,0.7870789,0.465332,1.5185852,0.8963928,2.1630554L9.598114,36.0595703v0.8994141
			l4.309082-3.3067017c0.0795898,0.1044922,0.1630859,0.2041016,0.2494812,0.3027954l-4.4467468,3.8993835v1.1025085h1.101532
			l3.8999329-4.4472046c0.0986938,0.0869141,0.1991882,0.1699219,0.3031921,0.2500305l-3.3066101,4.3085938h0.8994141
			l2.726593-4.0801086c0.6431274,0.4316101,1.3745117,0.7421875,2.1615906,0.8973999l-0.9569702,4.8125l0.6356812,0.6358032
			l0.7095032-5.3847961c0.1288757,0.0166016,0.2587891,0.0292969,0.3901062,0.0380859l-0.3862,5.9004211l0.7788086,0.7792969
			l0.7792969-0.7792969l-0.3862-5.9004211c0.1312866-0.0087891,0.2611694-0.0214844,0.3900757-0.0380859l0.7095337,5.3847961
			l0.6351624-0.6358032l-0.9569702-4.813385c0.7875977-0.155304,1.5189819-0.4649048,2.1630859-0.8955383l2.7255859,4.0791321
			h0.8994141l-3.3062134-4.3085938c0.1040039-0.0801086,0.2041321-0.1631165,0.3028259-0.2500305l3.8993835,4.4472046h1.1019897
			v-1.1025085l-4.4466858-3.8993835c0.0864258-0.0986938,0.1694031-0.1992188,0.2495117-0.3027954l4.3091125,3.3067017v-0.8994141
			l-4.0806274-2.726593c0.4310913-0.6434937,0.7412109-1.375,0.8970032-2.1620789l4.8125,0.9569702L30,31.4921875
			l-5.3838196-0.7095032c0.0166321-0.1289062,0.0292969-0.2588196,0.0375977-0.3901062l5.9004211,0.3862l0.7788086-0.7788086
			l-0.7788086-0.7787781l-5.9004211,0.3862c-0.0083008-0.1312866-0.0209656-0.2612-0.0375977-0.3905945L30,28.507782
			l-0.6357117-0.6356812l-4.8125,0.9569702c-0.1557922-0.7870789-0.4649048-1.5189819-0.8959961-2.1625977l4.0796204-2.7260742
			v-0.8994141L23.4263,26.3471985c-0.0801086-0.1035156-0.1630859-0.2041321-0.2495117-0.3023071l4.4466858-3.8999023v-1.1019897
			h-1.1019897l-3.8993835,4.4466858c-0.0986938-0.0863953-0.199707-0.1694031-0.3033142-0.2489929l3.3067017-4.3091125h-0.8994141
			l-2.726593,4.0801086c-0.6434631-0.4310913-1.375-0.7412109-2.1620789-0.8970032l0.9569702-4.8125l-0.6351624-0.6357117
			l-0.7095337,5.3843079c-0.1289062-0.0171204-0.2593079-0.0297852-0.3900757-0.0381165l0.3862-5.9003906L18.6665039,17.3334656
			L18.6665039,17.3334656z"/>
	</g>
</g>
</svg>
