<?xml version="1.0" encoding="utf-8"?>
<!-- Generator: Adobe Illustrator 22.1.0, SVG Export Plug-In . SVG Version: 6.00 Build 0)  -->
<svg version="1.1" id="Layer_1" xmlns="http://www.w3.org/2000/svg" xmlns:xlink="http://www.w3.org/1999/xlink" x="0px" y="0px"
	 viewBox="0 0 60 60" style="enable-background:new 0 0 60 60;" xml:space="preserve">
<style type="text/css">
	.st0{clip-path:url(#SVGID_2_);fill:#8E1C3E;}
	.st1{clip-path:url(#SVGID_2_);fill:#FFFFFF;}
</style>
<g id="XMLID_1_">
	<g>
		<defs>
			<path id="SVGID_1_" d="M59,60H0.9999695C0.4477234,60,0,59.5526733,0,59V0.9999695c0-0.5522461,0.4477234-1,0.9999695-1H59
				c0.5526886,0,0.9999847,0.4477539,0.9999847,1V59C59.9999847,59.5526733,59.5526886,60,59,60L59,60z"/>
		</defs>
		<clipPath id="SVGID_2_">
			<use xlink:href="#SVGID_1_"  style="overflow:visible;"/>
		</clipPath>
		<polygon class="st0" points="-26.3638,-0.0000305 126.3629761,-0.0000305 126.3629761,60 -26.3638,60 -26.3638,-0.0000305 		"/>
		<polygon class="st1" points="17.2728882,60 -26.3638,60 -26.3638,-0.0000305 17.2728882,-0.0000305 28.1815796,3.3334656 
			17.2728882,6.6664734 28.1815796,9.9999695 17.2728882,13.3334961 28.1815796,16.6664734 17.2728882,20 28.1815796,23.3334656 
			17.2728882,26.6664734 28.1815796,29.9999695 17.2728882,33.3329773 28.1815796,36.6669922 17.2728882,39.9999695 
			28.1815796,43.3329773 17.2728882,46.6669617 28.1815796,50 17.2728882,53.3329773 28.1815796,56.6669922 17.2728882,60 		"/>
	</g>
</g>
</svg>
