<?xml version="1.0" encoding="utf-8"?>
<!-- Generator: Adobe Illustrator 22.1.0, SVG Export Plug-In . SVG Version: 6.00 Build 0)  -->
<svg version="1.1" id="Layer_1" xmlns="http://www.w3.org/2000/svg" xmlns:xlink="http://www.w3.org/1999/xlink" x="0px" y="0px"
	 viewBox="0 0 60 60" style="enable-background:new 0 0 60 60;" xml:space="preserve">
<style type="text/css">
	.st0{clip-path:url(#SVGID_2_);fill:#1F4C9C;}
	.st1{clip-path:url(#SVGID_2_);fill:#FFD207;}
	.st2{clip-path:url(#SVGID_2_);fill:#CC1332;}
	.st3{fill:#020203;}
	.st4{fill:#F5D500;}
	.st5{fill:#B08055;}
	.st6{fill:#D1112B;}
	.st7{fill:#CC1332;}
	.st8{fill:#0E7855;}
	.st9{fill:#284E9D;}
	.st10{fill:#FFD207;}
</style>
<g id="XMLID_1_">
	<g>
		<defs>
			<path id="SVGID_1_" d="M59,60H0.9999695C0.4477234,60,0,59.5526733,0,59V0.9999695c0-0.5522461,0.4477234-1,0.9999695-1H59
				c0.5526886,0,0.9999847,0.4477539,0.9999847,1V59C59.9999847,59.5526733,59.5526886,60,59,60L59,60z"/>
		</defs>
		<clipPath id="SVGID_2_">
			<use xlink:href="#SVGID_1_"  style="overflow:visible;"/>
		</clipPath>
		<polygon class="st0" points="20,60 0,60 0,-0.0000305 20,-0.0000305 20,60 		"/>
		<polygon class="st1" points="39.9999695,60 20,60 20,-0.0000305 39.9999695,-0.0000305 39.9999695,60 		"/>
		<polygon class="st2" points="59.9999847,60 39.9999695,60 39.9999695,-0.0000305 59.9999847,-0.0000305 59.9999847,60 		"/>
	</g>
	<path class="st3" d="M28.2592773,21.612793c-0.1069946,0-0.2006836,0.0273132-0.2554016,0.0697937
		c0.0869141,0.0253906,0.1499023,0.1054688,0.1499023,0.2030945v0.2471008h-0.2470703
		c-0.0966187,0-0.1767273-0.0625-0.2026367-0.148407c-0.0424805,0.054718-0.0697632,0.148407-0.0697632,0.2553101
		c0,0.1074829,0.0272827,0.2012024,0.0697632,0.2558899c0.0254211-0.0868835,0.1054993-0.1499023,0.2026367-0.1499023h0.2470703
		v1.1875c0,0.0932922-0.058075,0.1708984-0.1395874,0.1992188c0.1175842,0.0160828,0.2192078,0.1742859,0.2470093,0.2608032
		c0.0278931-0.0865173,0.1293945-0.2447205,0.2470703-0.2608032c-0.0820007-0.0278015-0.141571-0.1054077-0.141571-0.1992188
		v-1.1875h0.2470703c0.0966187,0,0.1767273,0.0620117,0.203125,0.1480103
		c0.042511-0.0546875,0.0697937-0.1484985,0.0697937-0.2554016c0-0.1074219-0.0272827-0.2012024-0.0697937-0.2558899
		c-0.0253906,0.0869141-0.1054993,0.1499023-0.203125,0.1499023h-0.2470703v-0.2466125
		c0-0.0970764,0.0624695-0.1772156,0.1483765-0.2030945C28.4603882,21.6401062,28.3666992,21.612793,28.2592773,21.612793
		L28.2592773,21.612793L28.2592773,21.612793z"/>
	<path class="st4" d="M28.2592773,21.664093c-0.0556946,0-0.1049805,0.0106812-0.1464844,0.0238953
		c0.0556946,0.0482788,0.0922852,0.1181946,0.0922852,0.1976929v0.2471008c0,0.0033875-0.0009766,0.0068054-0.0019836,0.0103149
		v0.0390015H28.164093c-0.0035095,0.0009766-0.006897,0.0019836-0.0103149,0.0019836h-0.2470703
		c-0.0786133,0-0.1479187-0.0361938-0.1958313-0.0903015c-0.0140991,0.0419006-0.0257874,0.0897827-0.0257874,0.1463928
		c0,0.0556946,0.0107117,0.105011,0.0238953,0.1465149c0.0483093-0.055603,0.118103-0.0917969,0.1977234-0.0917969h0.2983704
		c-0.0004883,0.0048828-0.0019836,0.0097961-0.0019836,0.0151978v0.0252991
		c0.0010071,0.003479,0.0019836,0.006897,0.0019836,0.0102844v1.1875c0,0.0772095-0.0401001,0.1377258-0.0922852,0.1860046
		c0.0375977,0.0229797,0.0697937,0.0517883,0.0971985,0.085022c0.0243835,0.0292969,0.0340881,0.058075,0.0512085,0.0883789
		c0.0166016-0.0297852,0.0263977-0.059082,0.0513-0.0883789c0.026886-0.0327454,0.0585938-0.0605164,0.0951843-0.0835266
		c-0.0526733-0.0477905-0.0922852-0.1098938-0.0922852-0.1875v-1.2368164h0.0409851
		c0.0035095-0.0009766,0.006897-0.0019836,0.0103149-0.0019836h0.2470703c0.0786133,0,0.1479187,0.0362244,0.1958313,0.0904236
		c0.0140991-0.0415344,0.0257874-0.0894165,0.0257874-0.1465149c0-0.0556946-0.0107117-0.105011-0.0239258-0.1464844
		c-0.0482788,0.0556946-0.1180725,0.0917664-0.1976929,0.0917664h-0.2470703c-0.003418,0-0.0068054-0.0009766-0.0103149-0.0014648
		h-0.0390015v-0.0390015c-0.0004883-0.0035095-0.0019836-0.0069275-0.0019836-0.0103149v-0.2471008
		c0-0.0791016,0.0361938-0.1478882,0.0903931-0.1957703C28.3642883,21.6757812,28.3163757,21.664093,28.2592773,21.664093"/>
	<path class="st3" d="M31.351593,25.9643555c-0.1503906-0.1069641-0.2745056-0.2280579-0.3623047-0.3696899
		c-0.2124023-0.340271-0.3017883-0.757782-0.3017883-1.1825867c0-0.1791992,0.2011719-0.3813171,0.2011719-0.5263672
		c0-0.2192383-0.0205078-0.3510132-0.0205078-0.3510132c0.0713196,0.0097046,0.1963196,0.1362,0.1963196,0.1362
		s-0.0048828-0.3638-0.1196899-0.4272156c0,0,0.0463867-0.0479126,0.214386-0.0527954
		c-0.0469055-0.1201172-0.2807922-0.2661133-0.2807922-0.2661133c0.0116882-0.0209961,0.0332031-0.039093,0.0610962-0.0541992
		c0.0589905-0.0326843,0.1416321-0.0541992,0.2050171-0.0668945c-0.0674133-0.0136719-0.1455078-0.0350952-0.2304077-0.0629883
		c-0.194397-0.0630188-0.4234009-0.1562195-0.637207-0.2588196c-0.390686-0.1875-0.6879883-0.1991882-0.8521118-0.1991882
		c-0.1185913,0-0.2938843,0.0028992-0.3969727,0.0712891c-0.0937195,0.0625-0.085907,0.1436157-0.1191101,0.1723938
		c-0.0775757,0.066925-0.2105103,0.0644226-0.2744141,0.0644226c-0.414093,0-0.4291992,0.4433899-0.4291992,0.4433899
		s0.1059265-0.1601868,0.2929077-0.1601868c0.3111267,0,0.5469055,0.1694641,0.5469055,0.2333984
		c0,0.0259094-0.032196,0.030304-0.0342102,0.030304c-0.2030945,0-0.5097046-0.1167297-0.6727905-0.1226196v0.0801086
		c0.3638,0.1264954,0.7323914,0.3056946,0.7323914,1.0957031c0,0.4971008-0.059082,1.0049133-0.308075,1.4037781
		c-0.0884399,0.1416321-0.2138977,0.262207-0.3647156,0.3696899l1.477478,0.2666016L31.351593,25.9643555L31.351593,25.9643555z"/>
	<path class="st3" d="M29.8744812,25.6318054l-1.4769897,0.33255c-0.0668945-0.0200806-0.3833008-0.1181641-0.6049805-0.2416992
		c-0.3902283-0.2172852-0.5923462-0.4335938-1.0562134-0.4550781V24.914978c0-0.1884155,0.0683899-0.3583679,0.0683899-0.5385132
		c-0.1958008-0.0522766-0.7383118-0.7158813-1.2388-1.0102844c-0.7367859,0.4770813-1.3070984,1.2602844-1.3070984,1.6201172
		c0,0,0.022522,7.7382812,0,10.4345703c0,0.155304-0.0932922,0.375-0.0932922,0.375
		c0.2685852-0.1142883,0.7616882-0.7880859,0.8652954-1.0448914v0.1230164
		c0.4062195-0.1855164,0.7036133-0.6719055,0.8363953-0.9238281c0.0024109,0.0361328,0.0087891,0.1279297,0.0087891,0.1279297
		c0.3628235-0.3183289,0.824707-2.1982117,0.824707-2.1982117l0.7695007,0.7568054c0,0-0.2782898,0.5645142-0.3866882,0.6659851
		c0,0,0.0727844,0.0087891,0.1547852,0.0087891c-0.050293,0.0722961-0.4374695,0.6299133-0.5585938,0.8399048
		c-0.1138,0.1962891-0.1938782,0.109314-0.3681946,0.109314c-0.1445007,0-0.4725952,0.2304993-0.5263062,0.3233032
		c-0.0567017,0.0975952-0.0986938,0.2167969-0.0986938,0.3153992c0,0.1074219,0.1138,0.2559204,0.1138,0.2559204
		c0.0126953-0.0518188,0.0342102-0.0703125,0.0342102-0.0703125s0.2998047,0.3739929,0.3441772,0.4227905
		c0.0342102,0.0380859,0.1879883,0.0625,0.2421875,0.0137024c0.1353455-0.1231079,0.2661133-0.2090149,0.3867188-0.3866882
		c0.0620117-0.0918274,0.0664062-0.1973267,0.1376953-0.2950134c0.2383118-0.3291016,0.7128906-0.9588928,0.8213196-1.1025085
		c0.0072937,0.0400085,0.0136719,0.0732117,0.0204773,0.1143188c0.1231079-0.2481079,0.7138977-0.7227173,0.7138977-0.7227173
		l0.618103,0.2852173c0,0-1.1542969,2.6532898-2.1791687,3.0614929c0,0,0.4457703,0.1894226,0.9936829,0.4736023
		c0.0795898,0.0410156,0.1621094,0.0859985,0.2450867,0.1308899c0.0689087-0.0830078,0.1416016-0.1748047,0.2129211-0.2705078
		c0.3275757-0.4384766,0.6474915-0.9462891,0.6474915-0.9462891c0.0223999,0.1318054-0.1503906,0.5390015-0.4429016,1.0419922
		c-0.0575867,0.0986023-0.117218,0.2011108-0.184082,0.3066101c0.0741577,0.0419922,0.1479797,0.085022,0.2216797,0.1289062
		c0.5424805,0.3261719,1.0516968,0.7011719,1.2402039,1.0458984l0.1333008-0.3330078l-0.1333008-0.3330078V26.0736694
		l0.0664062-0.1664734L29.8744812,25.6318054L29.8744812,25.6318054z"/>
	<path class="st5" d="M29.8739929,37.7206726c-0.1914062-0.2069702-0.5913086-0.460907-1.0410156-0.6953125
		c0.5435181-0.9755859,0.8130188-2.5175781,0.6865234-2.8241882c0,0-0.223114,0.7998047-0.495636,1.2549133
		c-0.2523804,0.4227905-0.5634766,0.8973999-0.863678,1.2489929c-0.2475891-0.1054993-0.4873047-0.1933899-0.6918945-0.2548828
		c0.9003906-0.6943054,1.8213196-2.9873352,1.8213196-2.9873352l-0.9522095-0.4413757c0,0-0.3564148,0.4150085-0.472229,0.4921875
		c0,0-0.0492859-0.2060852-0.0780945-0.2792969c0,0-0.1366882,0.1035156-0.2113647,0.1064148
		c0,0-0.0220032-0.140625-0.0391235-0.2324219c-0.093689,0.0625-0.2504883,0.0498047-0.2504883,0.0498047
		c0.137207-0.0653687,0.2998047-0.4638672,0.2998047-0.4638672l-0.9091187-1.2089233c0,0-0.319397,1.5341187-0.683075,1.8496094
		v-6.6089172l0.2875671,0.2676086l0.4365234-0.4073181v-0.3099976l-0.3867188,0.3612976v-0.9355774
		c0.0581055-0.0883179,0.0965881-0.1537781,0.1259155-0.2059937c0.0625,0.1088867,0.2647095,0.4433899,0.5025024,0.6488953
		c0.0390015-0.1586914,0.2963867-0.3099976,0.2963867-0.3099976s0.0921936,0.25,0.2333984,0.3119812
		c0.0498047-0.0874023,0.3460999-0.281311,0.3460999-0.281311s-0.2533875,0.0386047-0.3563843,0.1348267
		c-0.0878906-0.0200195-0.110321-0.3681946-0.110321-0.3681946s-0.3730774,0.1817017-0.4379883,0.3114929
		c-0.0712891-0.0190125-0.1822205-0.2987976-0.2250977-0.4135132c0.0648804-0.0073853,0.157196-0.015686,0.277771-0.015686
		c0.1064148,0,0.2427368,0.050293,0.3853149,0.1177063c0.1562195,0.0737915,0.3203125,0.1669922,0.4667053,0.2333679
		c0.1875,0.085022,0.4707947,0.1021423,0.5538025,0.1055298c-0.0948181,0.0668945-0.198822,0.1273804-0.3121033,0.1841125
		c0,0,0.4463196-0.0039368,0.7598267-0.1602173c0.1122742-0.0717773,0.2279663-0.1435242,0.327179-0.2279968
		c-0.0429993,0.1190796-0.1098938,0.2607117-0.214386,0.3812866c0.4604797-0.0390015,0.6894836-0.3016968,0.7548828-0.3900757
		c0.030304,0.0791016,0.0849915,0.2060547,0.1698914,0.3153687h0.1665039v11.315918L29.8739929,37.7206726L29.8739929,37.7206726z"
		/>
	<path class="st5" d="M26.4809875,24.4105835l0.0083008,0.2114868v0.6216125
		c-0.1669922-0.0571899-0.3769836-0.3320923-0.4786072-0.4770813v-0.085022c0-0.0799866,0.0469055-0.1386108,0.081604-0.1703796
		l-0.1006165-0.035614c-0.0380859,0.043396-0.0800781,0.1083984-0.0800781,0.1923828v0.0493164l-0.2998047,0.3222961
		l-0.2944031-0.4468079v-0.1088867c0-0.0733032,0.0560913-0.155304,0.1035156-0.2114258l-0.0986328-0.035675
		c-0.0497742,0.0644836-0.1020813,0.1519165-0.1020813,0.2333984v0.0888977
		c-0.0693054,0.0713196-0.3392944,0.3490906-0.3392944,0.3490906s-0.1352844-0.2909851-0.1719055-0.3695984
		c0.2065125-0.2861938,0.5415039-0.6065063,0.8569031-0.8364868C25.5658875,23.7020874,26.2504883,24.3305664,26.4809875,24.4105835
		L26.4809875,24.4105835L26.4809875,24.4105835z"/>
	<path class="st5" d="M24.7460938,25.0136719v0.5132141l-0.2383118,0.2210999v-0.7616882
		c0-0.0727234,0.030304-0.160614,0.081604-0.2573242L24.7460938,25.0136719L24.7460938,25.0136719z"/>
	<polygon class="st5" points="25.4888,25.2113953 25.4888,25.5282898 25.2147827,25.7855835 25.2147827,24.7938843 
		25.4888,25.2113953 	"/>
	<polygon class="st5" points="25.1177063,25.7836914 24.8432922,25.5282898 24.8432922,25.1566772 25.1177063,24.8690796 
		25.1177063,25.7836914 	"/>
	<path class="st5" d="M26.3695679,25.3988953c-0.063385,0.0899048-0.2303772,0.3100891-0.4105835,0.4072876v-0.870697
		C26.0004883,25.0038757,26.1899109,25.3104858,26.3695679,25.3988953L26.3695679,25.3988953z"/>
	<polygon class="st5" points="25.8617859,24.9794922 25.8617859,25.7836914 25.5878906,25.5282898 25.5878906,25.2436829 
		25.8617859,24.9794922 	"/>
	<polygon class="st5" points="24.7460938,25.8368835 24.7460938,26.6391907 24.5072937,26.4159851 24.5072937,26.0600891 
		24.7460938,25.8368835 	"/>
	<polygon class="st5" points="25.1171875,26.0937805 25.1171875,26.3818054 24.842804,26.6371765 24.842804,25.8383789 
		25.1171875,26.0937805 	"/>
	<polygon class="st5" points="25.4888,25.8383789 25.4888,26.6376648 25.214386,26.3803711 25.214386,26.0956726 
		25.4888,25.8383789 	"/>
	<polygon class="st5" points="25.8617859,26.0956726 25.8617859,26.3803711 25.5873718,26.6376648 25.5873718,25.8383789 
		25.8617859,26.0956726 	"/>
	<path class="st5" d="M26.2333679,26.6391907l-0.2743835-0.2573853v-0.2675171
		c0.0947266-0.0576782,0.1893921-0.1636047,0.2743835-0.2759094V26.6391907L26.2333679,26.6391907z"/>
	<path class="st5" d="M25.5380859,26.9936829l0.2894897-0.269104v6.6104126c0,0,0.0205078,0.3280945,0.0342102,0.5419922
		c-0.1288757,0.1298218-0.6133118,0.6200867-0.6133118,0.6200867v-7.7743835L25.5380859,26.9936829L25.5380859,26.9936829z"/>
	<path class="st5" d="M25.0829773,34.25c0,0.2128906-0.3876953,0.7079773-0.5756836,0.8212585v-8.3451843l0.2861938,0.2676086
		l0.2894897-0.269104V34.25L25.0829773,34.25z"/>
	<path class="st6" d="M27.4887695,33.5331726l0.2114258-0.1455078c0,0,0.0141907,0.0703125,0.032196,0.1660156
		c-0.0903015,0.1230774-0.6098022,0.8320007-0.8671875,1.1786804c-0.0639038,0.0860291-0.1176147,0.304718-0.1176147,0.304718
		s-0.093811-0.0439148-0.093811-0.1240234c0-0.0791016,0.0103149-0.171875,0.0103149-0.171875
		s-0.0698853,0.0801086-0.1910095,0.0801086c0-0.0967102,0.1871033-0.2022095,0.1944275-0.3399048
		c-0.1426392,0.1064758-0.2661133,0.0517883-0.4312439,0.1026001c-0.1791687,0.055603-0.2294617,0.1307983-0.2841797,0.1278992
		c-0.0327148-0.0018921-0.0620117-0.0575867-0.0492859-0.0917969c0.0209961-0.0596008,0.2431946-0.2246094,0.3984985-0.2539062
		c0.0370789-0.0068054,0.3295898,0.0634766,0.3885803-0.0273132c0.2427063-0.375,0.6362915-0.9824829,0.674408-1.0409851
		c0.0252991-0.0058899,0.0482788-0.0126953,0.0664062-0.0245056C27.4306946,33.2733765,27.4286804,33.4647827,27.4887695,33.5331726
		L27.4887695,33.5331726L27.4887695,33.5331726z"/>
	<path class="st6" d="M26.1304016,34.7001648c0.0116882,0.0137024,0.0106812,0.0332336-0.0020142,0.0439148l-0.0951843,0.0830078
		c-0.0122375,0.0108032-0.032196,0.0087891-0.0444336-0.0048218c-0.0116882-0.0136719-0.0107727-0.0331726,0.0019226-0.0439758
		l0.0952148-0.0840149c0.0063782-0.0047913,0.014679-0.007782,0.0224915-0.0068054
		C26.1161804,34.6884766,26.1244812,34.6933594,26.1304016,34.7001648L26.1304016,34.7001648L26.1304016,34.7001648z"/>
	<path class="st6" d="M26.2753906,34.8007812c0.0282898,0.032196,0.0263977,0.0791016-0.0033875,0.1054993l-0.2320251,0.2021179
		c-0.0301819,0.0263977-0.0785828,0.0214844-0.1073914-0.0117188c-0.0282898-0.032196-0.0267944-0.0810852,0.0033875-0.1074219
		l0.2320251-0.2011719c0.0111694-0.0097961,0.0263062-0.015625,0.0409851-0.0166016
		C26.2323914,34.7695007,26.2572937,34.780304,26.2753906,34.8007812L26.2753906,34.8007812z"/>
	<path class="st6" d="M26.4082031,34.9570007c0.0282898,0.0331726,0.0263977,0.0791016-0.003418,0.1054688l-0.2333984,0.2030945
		c-0.030304,0.0264282-0.0772095,0.0205078-0.1059875-0.0116882c-0.0283203-0.0332031-0.0263062-0.0809937,0.0033875-0.1073914
		l0.2319946-0.2012024c0.0112-0.0097961,0.0249023-0.0155945,0.0390015-0.0175781
		C26.3637695,34.9257812,26.3900757,34.9364929,26.4082031,34.9570007L26.4082031,34.9570007L26.4082031,34.9570007z"/>
	<path class="st6" d="M26.487793,35.0810852c0.0238953-0.0019836,0.0487976,0.0068054,0.0668945,0.0273132
		c0.0282898,0.0331726,0.0264282,0.0810852-0.003418,0.1073914l-0.2319946,0.2011719
		c-0.0301819,0.0263977-0.0770874,0.0215149-0.1053772-0.0116882c-0.0288086-0.0331726-0.0288086-0.0791016,0.0014038-0.1054993
		l0.2333679-0.2030945C26.4599915,35.0868835,26.4735718,35.0829773,26.487793,35.0810852L26.487793,35.0810852
		L26.487793,35.0810852z"/>
	<path class="st3" d="M29.8734741,25.6318054l1.4771118,0.33255c0.0674133-0.0200806,0.3828125-0.1181641,0.6044922-0.2416992
		c0.3905945-0.2172852,0.592804-0.4335938,1.0566101-0.4550781V24.914978c0-0.1884155-0.0682983-0.3583679-0.0682983-0.5385132
		c0.195282-0.0522766,0.7381897-0.7158813,1.2391968-1.0102844c0.7362976,0.4770813,1.3067017,1.2602844,1.3067017,1.6201172
		c0,0-0.0224915,7.7382812,0,10.4345703c0,0.155304,0.093689,0.375,0.093689,0.375
		c-0.2695007-0.1142883-0.7616882-0.7880859-0.8661804-1.0448914v0.1230164
		c-0.405304-0.1855164-0.7030945-0.6719055-0.835907-0.9238281c-0.0029907,0.0361328-0.0087891,0.1279297-0.0087891,0.1279297
		c-0.3623047-0.3183289-0.8242188-2.1982117-0.8242188-2.1982117l-0.7695923,0.7568054c0,0,0.2782898,0.5645142,0.3866882,0.6659851
		c0,0-0.0731812,0.0087891-0.1551819,0.0087891c0.0506897,0.0722961,0.4375,0.6299133,0.5585938,0.8399048
		c0.1131897,0.1962891,0.1932983,0.109314,0.368103,0.109314c0.1445923,0,0.4726868,0.2304993,0.5263977,0.3233032
		c0.0566101,0.0975952,0.0985718,0.2167969,0.0985718,0.3153992c0,0.1074219-0.1141968,0.2559204-0.1141968,0.2559204
		c-0.0117798-0.0518188-0.0341797-0.0703125-0.0341797-0.0703125s-0.2998047,0.3739929-0.343811,0.4227905
		c-0.0340881,0.0380859-0.1875,0.0625-0.2421875,0.0137024c-0.1347046-0.1231079-0.2655945-0.2090149-0.3866882-0.3866882
		c-0.0615234-0.0918274-0.0664062-0.1973267-0.1376953-0.2950134c-0.2382202-0.3291016-0.7129211-0.9588928-0.8213196-1.1025085
		c-0.0067749,0.0400085-0.0135803,0.0732117-0.0205078,0.1143188c-0.1229858-0.2481079-0.7137756-0.7227173-0.7137756-0.7227173
		l-0.6182251,0.2852173c0,0,1.1542969,2.6532898,2.1787109,3.0614929c0,0-0.4453125,0.1894226-0.993103,0.4736023
		c-0.0800781,0.0410156-0.1622009,0.0859985-0.2452087,0.1308899C31.5,36.9970703,31.4276733,36.9052734,31.3563843,36.8095703
		c-0.3271179-0.4384766-0.6473999-0.9462891-0.6473999-0.9462891c-0.022522,0.1318054,0.1503906,0.5390015,0.4432983,1.0419922
		c0.0567017,0.0986023,0.1171875,0.2011108,0.1836243,0.3066101c-0.0742188,0.0419922-0.1474304,0.085022-0.2216187,0.1289062
		c-0.5420227,0.3261719-1.0518188,0.7011719-1.2402954,1.0458984l-0.1333008-0.3330078l0.1333008-0.3330078V26.0736694
		l-0.0664062-0.1664734L29.8734741,25.6318054L29.8734741,25.6318054z"/>
	<path class="st5" d="M29.8739929,37.7206726c0.1913757-0.2069702,0.5912781-0.460907,1.0409851-0.6953125
		c-0.543396-0.9755859-0.8128967-2.5175781-0.6864929-2.8241882c0,0,0.2232056,0.7998047,0.4956055,1.2549133
		c0.2525024,0.4227905,0.5629883,0.8973999,0.8638,1.2489929c0.2471008-0.1054993,0.4872742-0.1933899,0.6923828-0.2548828
		c-0.9013977-0.6943054-1.8217773-2.9873352-1.8217773-2.9873352l0.9526062-0.4413757c0,0,0.3554993,0.4150085,0.4716797,0.4921875
		c0,0,0.0487976-0.2060852,0.0780945-0.2792969c0,0,0.1368103,0.1035156,0.2109985,0.1064148
		c0,0,0.0224304-0.140625,0.0400085-0.2324219c0.093811,0.0625,0.25,0.0498047,0.25,0.0498047
		c-0.1376953-0.0653687-0.2997742-0.4638672-0.2997742-0.4638672l0.9091797-1.2089233c0,0,0.3192749,1.5341187,0.6835938,1.8496094
		v-6.6089172l-0.2881165,0.2676086l-0.4364929-0.4073181v-0.3099976l0.3867188,0.3612976v-0.9355774
		c-0.0575867-0.0883179-0.0967102-0.1537781-0.1260071-0.2059937c-0.0625,0.1088867-0.2645874,0.4433899-0.5028992,0.6488953
		c-0.0391235-0.1586914-0.2958984-0.3099976-0.2958984-0.3099976s-0.092804,0.25-0.2333984,0.3119812
		c-0.0498047-0.0874023-0.3457031-0.281311-0.3457031-0.281311s0.2528992,0.0386047,0.3554993,0.1348267
		c0.0888062-0.0200195,0.1112976-0.3681946,0.1112976-0.3681946s0.3730164,0.1817017,0.4375,0.3114929
		c0.0713196-0.0190125,0.1816101-0.2987976,0.2246094-0.4135132c-0.0645142-0.0073853-0.156311-0.015686-0.2774048-0.015686
		c-0.1064148,0-0.2420959,0.050293-0.3847046,0.1177063c-0.157196,0.0737915-0.320282,0.1669922-0.4667969,0.2333679
		c-0.1875,0.085022-0.4716797,0.1021423-0.5536804,0.1055298c0.0946655,0.0668945,0.1981812,0.1273804,0.3114624,0.1841125
		c0,0-0.4462585-0.0039368-0.7597656-0.1602173c-0.1118164-0.0717773-0.2280273-0.1435242-0.3271179-0.2279968
		c0.0430298,0.1190796,0.1098022,0.2607117,0.214325,0.3812866c-0.4604187-0.0390015-0.6894226-0.3016968-0.754425-0.3900757
		c-0.0306702,0.0791016-0.0848999,0.2060547-0.1704102,0.3153687h-0.1664734v11.315918L29.8739929,37.7206726L29.8739929,37.7206726
		z"/>
	<path class="st5" d="M33.2675781,24.4105835l-0.0087891,0.2114868v0.6216125
		c0.1669922-0.0571899,0.3768921-0.3320923,0.4784851-0.4770813v-0.085022c0-0.0799866-0.046875-0.1386108-0.0809631-0.1703796
		l0.0995789-0.035614c0.0389709,0.043396,0.0799866,0.1083984,0.0799866,0.1923828v0.0493164l0.2998047,0.3222961
		l0.2949829-0.4468079v-0.1088867c0-0.0733032-0.0566711-0.155304-0.1035767-0.2114258l0.0986938-0.035675
		c0.0498047,0.0644836,0.1025085,0.1519165,0.1025085,0.2333984v0.0888977
		c0.069397,0.0713196,0.3388977,0.3490906,0.3388977,0.3490906s0.1357117-0.2909851,0.1719055-0.3695984
		c-0.2061157-0.2861938-0.5411072-0.6065063-0.8565063-0.8364868
		C34.1825867,23.7020874,33.4979858,24.3305664,33.2675781,24.4105835L33.2675781,24.4105835L33.2675781,24.4105835z"/>
	<path class="st5" d="M35.0019836,25.0136719v0.5132141l0.2382202,0.2210999v-0.7616882
		c0-0.0727234-0.0302124-0.160614-0.0809937-0.2573242L35.0019836,25.0136719L35.0019836,25.0136719z"/>
	<polygon class="st5" points="34.2587891,25.2113953 34.2587891,25.5282898 34.5331726,25.7855835 34.5331726,24.7938843 
		34.2587891,25.2113953 	"/>
	<polygon class="st5" points="34.6308899,25.7836914 34.9052734,25.5282898 34.9052734,25.1566772 34.6308899,24.8690796 
		34.6308899,25.7836914 	"/>
	<path class="st5" d="M33.3778992,25.3988953c0.0645142,0.0899048,0.2304993,0.3100891,0.4111938,0.4072876v-0.870697
		C33.7479858,25.0038757,33.5585938,25.3104858,33.3778992,25.3988953L33.3778992,25.3988953z"/>
	<polygon class="st5" points="33.8856812,24.9794922 33.8856812,25.7836914 34.1601868,25.5282898 34.1601868,25.2436829 
		33.8856812,24.9794922 	"/>
	<polygon class="st5" points="35.0019836,25.8368835 35.0019836,26.6391907 35.2402039,26.4159851 35.2402039,26.0600891 
		35.0019836,25.8368835 	"/>
	<polygon class="st5" points="34.6308899,26.0937805 34.6308899,26.3818054 34.9052734,26.6371765 34.9052734,25.8383789 
		34.6308899,26.0937805 	"/>
	<polygon class="st5" points="34.2597961,25.8383789 34.2597961,26.6376648 34.5341797,26.3803711 34.5341797,26.0956726 
		34.2597961,25.8383789 	"/>
	<polygon class="st5" points="33.8866882,26.0956726 33.8866882,26.3803711 34.1601868,26.6376648 34.1601868,25.8383789 
		33.8866882,26.0956726 	"/>
	<path class="st5" d="M33.5145874,26.6391907l0.2745056-0.2573853v-0.2675171
		c-0.0947876-0.0576782-0.1895142-0.1636047-0.2745056-0.2759094V26.6391907L33.5145874,26.6391907z"/>
	<path class="st5" d="M34.2099915,26.9936829l-0.2901001-0.269104v6.6104126c0,0-0.0195007,0.3280945-0.0342102,0.5419922
		C34.0145874,34.0068054,34.5,34.4970703,34.5,34.4970703v-7.7743835L34.2099915,26.9936829L34.2099915,26.9936829z"/>
	<path class="st5" d="M34.664978,34.25c0,0.2128906,0.3877258,0.7079773,0.5762329,0.8212585v-8.3451843l-0.2861328,0.2676086
		l-0.2901001-0.269104V34.25L34.664978,34.25z"/>
	<path class="st6" d="M32.2597656,33.5331726l-0.211853-0.1455078c0,0-0.0137329,0.0703125-0.0323181,0.1660156
		c0.0907898,0.1230774,0.6103821,0.8320007,0.867218,1.1786804c0.0644836,0.0860291,0.1181641,0.304718,0.1181641,0.304718
		s0.0928345-0.0439148,0.0928345-0.1240234c0-0.0791016-0.0098267-0.171875-0.0098267-0.171875
		s0.0703125,0.0801086,0.1903992,0.0801086c0-0.0967102-0.1864929-0.2022095-0.1943054-0.3399048
		c0.1426086,0.1064758,0.2666016,0.0517883,0.4316101,0.1026001c0.179718,0.055603,0.2295227,0.1307983,0.2842102,0.1278992
		c0.032196-0.0018921,0.0614929-0.0575867,0.0497742-0.0917969c-0.0214844-0.0596008-0.2431946-0.2246094-0.3983765-0.2539062
		c-0.0371094-0.0068054-0.3301086,0.0634766-0.3887024-0.0273132c-0.2431946-0.375-0.6366882-0.9824829-0.6748047-1.0409851
		c-0.0253906-0.0058899-0.0479126-0.0126953-0.0663757-0.0245056
		C32.3174133,33.2733765,32.3193054,33.4647827,32.2597656,33.5331726L32.2597656,33.5331726L32.2597656,33.5331726z"/>
	<path class="st6" d="M33.6181946,34.7001648c-0.0126953,0.0137024-0.0108337,0.0332336,0.000885,0.0439148l0.0957031,0.0830078
		c0.0126953,0.0108032,0.0323181,0.0087891,0.0440063-0.0048218c0.0117188-0.0136719,0.0107117-0.0331726-0.0010071-0.0439758
		l-0.0956726-0.0840149c-0.0057983-0.0047913-0.0146179-0.007782-0.022522-0.0068054
		C33.6318054,34.6884766,33.6239929,34.6933594,33.6181946,34.7001648L33.6181946,34.7001648L33.6181946,34.7001648z"/>
	<path class="st6" d="M33.4726868,34.8007812c-0.0283813,0.032196-0.0263977,0.0791016,0.0039062,0.1054993l0.2313843,0.2021179
		c0.0303345,0.0263977,0.0791016,0.0214844,0.1073914-0.0117188c0.0284424-0.032196,0.0263977-0.0810852-0.0038757-0.1074219
		l-0.2313843-0.2011719c-0.0108337-0.0097961-0.0263977-0.015625-0.0410156-0.0166016
		C33.5155945,34.7695007,33.4911804,34.780304,33.4726868,34.8007812L33.4726868,34.8007812z"/>
	<path class="st6" d="M33.3397827,34.9570007c-0.0283203,0.0331726-0.0262756,0.0791016,0.0039978,0.1054688l0.2333069,0.2030945
		c0.0302734,0.0264282,0.077179,0.0205078,0.1054993-0.0116882c0.0282898-0.0332031,0.0263977-0.0809937-0.0039062-0.1073914
		l-0.2313843-0.2012024c-0.0108032-0.0097961-0.0244141-0.0155945-0.0391235-0.0175781
		C33.3847656,34.9257812,33.3583679,34.9364929,33.3397827,34.9570007L33.3397827,34.9570007L33.3397827,34.9570007z"/>
	<path class="st6" d="M33.2597961,35.0810852c-0.0234985-0.0019836-0.0479126,0.0068054-0.0664062,0.0273132
		c-0.0284119,0.0331726-0.0263977,0.0810852,0.0038757,0.1073914l0.2314148,0.2011719
		c0.030304,0.0263977,0.0772095,0.0215149,0.1054993-0.0116882c0.0283203-0.0331726,0.0283203-0.0791016-0.0009766-0.1054993
		l-0.2344055-0.2030945C33.2880859,35.0868835,33.2743835,35.0829773,33.2597961,35.0810852L33.2597961,35.0810852
		L33.2597961,35.0810852z"/>
	<path class="st5" d="M29.5321655,22.391571c0.3814392,0,0.6494446,0.1737976,1.0108032,0.3339844
		c0.0942383,0.0420227,0.1811218,0.0757141,0.2588196,0.1020203c-0.0488892,0.0429993-0.0864868,0.0865173-0.0971985,0.1231079
		c0,0,0.1615906,0.0297852,0.2348938,0.1650085c0,0-0.1539001,0.0176086-0.1788025,0.1073914
		c0.0860291,0.0063782,0.1719055,0.1152954,0.1719055,0.2197876l-0.217804-0.0683899c0,0,0.0528259,0.2451172,0.0528259,0.5112305
		c0,0.136261-0.1958313,0.2963867-0.1958313,0.5268555c0,0.723114,0.1820984,1.0010071,0.3115234,1.2246094
		c0.0507812,0.0878906,0.0922852,0.1885071,0.1771851,0.2641907C30.6875,25.7025757,30.409668,25.454071,30.409668,25.2230835
		v-0.8739929H30.3125v0.8739929c0,0.167511,0.0409851,0.245697,0.0409851,0.245697
		c0.0585938,0.1849976,0.1773071,0.4710999,0.2504883,0.585907c-0.3432922-0.1855774-0.5180969-0.4179993-0.5180969-0.5043945
		v-1.2012024H29.9888v1.2182922l0.0189819,0.0834961c-0.0419922,0.0625-0.0956726,0.1367188-0.1328125,0.1621094
		c-0.0370789-0.0253906-0.0897827-0.0996094-0.1312561-0.1621094l0.0184631-0.0834961v-1.2182922H29.664978v1.2012024
		c0,0.0863953-0.1742859,0.3188171-0.5180054,0.5043945c0.0737305-0.1148071,0.1918945-0.4009094,0.2505188-0.585907
		c0,0,0.0409851-0.078186,0.0409851-0.245697v-0.8739929h-0.0971985v0.8739929c0,0.2309875-0.2763977,0.4794922-0.6488953,0.6782837
		c0.0845032-0.0756836,0.125-0.1767883,0.1753235-0.2641907c0.141571-0.2445984,0.3168945-0.5552063,0.3168945-1.4393921
		c0-0.3320923-0.0489197-0.5577087-0.1348267-0.7159119c-0.0259094-0.0516968-0.0604858-0.1908875,0.1382141-0.1908875
		c0.1029968,0,0.3388977,0.1825867,0.3388977,0.1825867s-0.0093079-0.1454773-0.1293945-0.2284851
		c-0.0195923-0.0137024-0.0528259-0.0566101-0.0528259-0.0971985c0-0.0297241,0.0518188-0.1040039,0.0918274-0.1224976
		c0.0278931-0.0127258-0.4052124-0.0879211-0.4052124-0.2846985c0-0.0405273,0.0258179-0.0678101,0.1156921-0.0678101
		c0.118103,0,0.3100281,0.1411133,0.4804077,0.1411133c0.1265259,0,0.1757812-0.0308228,0.3052063-0.0308228
		c0.1576843,0,0.4867859,0.2993164,0.5996094,0.2880859c-0.1259155-0.0791016-0.3291321-0.3783875-0.637207-0.3783875
		c-0.1069031,0-0.2036133,0.0238953-0.3031921,0.0238953c-0.1278992,0-0.2539062-0.1171875-0.3921204-0.1171875
		c-0.0922852,0-0.1957703,0.0049133-0.210907-0.0190125c-0.026886-0.0414734-0.0029907-0.065979,0.0219116-0.1005859
		c0.0469055-0.0649719,0.1788025-0.0840149,0.3085938-0.0884094c0.0386047-0.0014648,0.0777283-0.0019836,0.1143188-0.0019836
		C29.469696,22.3901062,29.5033875,22.391571,29.5321655,22.391571L29.5321655,22.391571L29.5321655,22.391571z"/>
	<path class="st7" d="M28.2938843,22.8594055c0,0,0.0805969-0.1524048,0.2842102-0.1524048
		c0.0849915,0,0.3656921-0.0057983,0.3656921-0.0057983c0.0375977,0.0970764,0.2080994,0.2591858,0.2080994,0.4281921
		c0,0-0.1728821-0.3120117-0.6562805-0.3120117C28.3739929,22.8173828,28.2938843,22.8594055,28.2938843,22.8594055
		L28.2938843,22.8594055L28.2938843,22.8594055z"/>
	<path class="st6" d="M29.0801086,23.1889954c0,0-0.1030273,0.1088867-0.1255188,0.1664734
		c-0.1021118-0.0385742-0.2798157-0.2216797-0.2798157-0.2216797S28.8256836,23.2216797,29.0801086,23.1889954
		L29.0801086,23.1889954L29.0801086,23.1889954z"/>
	<path class="st3" d="M28.9169922,22.901886c0,0-0.1191101-0.0380859-0.1191101-0.0776978
		c0-0.0508118,0.0581055-0.0508118,0.0921936-0.0112C28.914093,22.8397827,28.9169922,22.901886,28.9169922,22.901886
		L28.9169922,22.901886L28.9169922,22.901886z"/>
	<path class="st3" d="M29.4276733,22.7704773c0.0942993,0,0.1704102,0.0600891,0.1704102,0.1343079
		c0,0.074707-0.0761108,0.1347961-0.1704102,0.1347961c-0.093689,0-0.1698914-0.0600891-0.1698914-0.1347961
		C29.257782,22.8305664,29.3339844,22.7704773,29.4276733,22.7704773L29.4276733,22.7704773z"/>
	<path class="st4" d="M29.4281616,22.7865906c0.0655212,0,0.1182251,0.0527954,0.1182251,0.1181946
		s-0.0527039,0.1185913-0.1182251,0.1185913c-0.0653687,0-0.1185913-0.0531921-0.1185913-0.1185913
		S29.362793,22.7865906,29.4281616,22.7865906L29.4281616,22.7865906z"/>
	<path class="st3" d="M29.4276733,22.8544617c0.0279236,0,0.050293,0.022522,0.050293,0.0503235
		s-0.0223694,0.050293-0.050293,0.050293c-0.0272827,0-0.0497742-0.0224915-0.0497742-0.050293
		S29.4003906,22.8544617,29.4276733,22.8544617L29.4276733,22.8544617z"/>
	<polygon class="st3" points="26.7182922,35.2157898 27.2572632,35.5097961 27.1264954,36.1103821 26.5874023,35.8153992 
		26.7182922,35.2157898 	"/>
	<path class="st3" d="M26.7938843,35.1190796l-0.1582031,0.164093l0.0986938,0.217804l0.1928101-0.0888977L26.7938843,35.1190796
		L26.7938843,35.1190796z M24.2060852,29.4506836l-0.194397,0.0884094l2.1947937,4.8065796h0.2333984L24.2060852,29.4506836
		L24.2060852,29.4506836z"/>
	<path class="st3" d="M24.8881836,33.2402039c0,0,0.1846008,0.3818665,0.3251953,0.4345703
		c-0.0728149-0.0205078-0.3085938,0.0664062-0.3085938,0.0664062s0.4159851,0.3721008,0.7689819,0.3964844
		c0.2989197,0.0205078,0.4444275-0.1288757,0.4444275-0.1288757l-0.0600891-0.3174133c0,0-0.1831055-0.2207031-0.4761047-0.3231812
		C25.2861023,33.2655945,24.8881836,33.2402039,24.8881836,33.2402039L24.8881836,33.2402039L24.8881836,33.2402039z"/>
	<path class="st3" d="M26.2816772,32.5565796c0,0-0.2552795,0.218811-0.3251953,0.4717102
		c-0.0697937,0.2529907,0.0455017,0.5400696,0.0455017,0.5400696l0.214325,0.4004211c0,0,0.2973938-0.1582947,0.4237671-0.3945923
		c0.1264954-0.2362976,0.0801086-0.555603,0.0801086-0.555603s-0.2352905,0.0877991-0.2655945,0.125885
		c0.0498047-0.2616882-0.1733093-0.5878906-0.1733093-0.5878906H26.2816772L26.2816772,32.5565796z"/>
	<path class="st3" d="M25.4608765,32.4541016c0,0-0.289978,0.0985718-0.5716858,0.0810852
		c-0.2686157-0.015686-0.4921875-0.2413025-0.4921875-0.2413025s0.2225952-0.1513062,0.332489-0.1307983
		c-0.1206055-0.0440063-0.2958984-0.3467102-0.2958984-0.3467102s0.2489929-0.0751953,0.469696,0.0078125
		s0.4130859,0.3251953,0.4130859,0.3251953L25.4608765,32.4541016L25.4608765,32.4541016L25.4608765,32.4541016z"/>
	<path class="st3" d="M25.5609741,31.0361023c0,0,0.1451111,0.3007812,0.1109314,0.4052734
		c0.0448914-0.0693054,0.215271-0.1777039,0.215271-0.1777039s0.1029968,0.4862976,0.004425,0.7871094
		c-0.0986023,0.3008118-0.398407,0.4150085-0.398407,0.4150085l-0.3311157-0.6435242c0,0-0.0492859-0.2382812,0.0541992-0.4267883
		C25.3192749,31.2060852,25.5609741,31.0361023,25.5609741,31.0361023L25.5609741,31.0361023L25.5609741,31.0361023z"/>
	<path class="st3" d="M23.6723938,30.2406921c0,0,0.313385-0.0332031,0.6004944,0.085968
		c0.2402954,0.0996094,0.3135071,0.2807312,0.3135071,0.2807312l0.1181946,0.3168945c0,0-0.3412781,0.1274719-0.6112976,0.0297852
		c-0.2696228-0.0976868-0.467804-0.421875-0.467804-0.421875s0.1885071-0.0713196,0.2602234-0.0444336
		C23.7812805,30.4413757,23.6723938,30.2406921,23.6723938,30.2406921L23.6723938,30.2406921L23.6723938,30.2406921
		L23.6723938,30.2406921z"/>
	<path class="st3" d="M24.6592102,29.6522827c0,0,0.1376953,0.1773071,0.141571,0.3804016
		c0.0365906-0.1079102,0.2085266-0.2275085,0.2085266-0.2275085s0.1766663,0.4277039,0.1381836,0.7314148
		c-0.0391235,0.3036804-0.2929993,0.4838867-0.2929993,0.4838867l-0.3174133-0.602478c0,0-0.1034851-0.2466431-0.0726929-0.4380188
		C24.4945679,29.7885742,24.6592102,29.6522827,24.6592102,29.6522827L24.6592102,29.6522827L24.6592102,29.6522827z"/>
	<path class="st3" d="M23.5722961,28.5009766c0,0-0.0567017,0.3280945,0.039978,0.5170898
		c0.0864258,0.168396,0.1416321,0.2055359,0.1416321,0.2055359c-0.1650085-0.1089172-0.4141235-0.118103-0.4141235-0.118103
		s0.0883789,0.3563843,0.3007812,0.5194702c0.2119141,0.1625977,0.5386353,0.1245117,0.5386353,0.1245117
		s0.2153015-0.2861023,0.2001953-0.5947266c-0.0151062-0.308075-0.2598267-0.6386719-0.2598267-0.6386719
		s-0.0966797,0.2001953-0.1049805,0.3500977C23.9520874,28.7118835,23.5722961,28.5009766,23.5722961,28.5009766
		L23.5722961,28.5009766L23.5722961,28.5009766z"/>
	<path class="st3" d="M26.1352844,33.9950867l0.0086975,0.1171875c0.1954041,0.0020142,0.2247314-0.0175781,0.2745056,0.0440063
		c0.0335999,0.0410156,0.1128235,0.0770874,0.1927795,0.0410156c0.0796204-0.0371399,0.1158142-0.1328125,0.0791016-0.2129211
		c-0.0365906-0.0791016-0.1107788-0.0967102-0.1820679-0.0829773c-0.0439148,0.0087891-0.0728149,0.0438843-0.1099243,0.063385
		C26.3276062,34.0009766,26.1352844,33.9950867,26.1352844,33.9950867L26.1352844,33.9950867L26.1352844,33.9950867z"/>
	<path class="st3" d="M26.1181946,33.9052734l0.0952148,0.0693054c-0.1021118,0.1670227-0.1343079,0.1817017-0.1083984,0.2568054
		c0.0170593,0.0498962,0.0053711,0.1358032-0.0679321,0.1846008c-0.0726929,0.0487976-0.1732788,0.0283203-0.2216797-0.0449219
		c-0.0483093-0.0731812-0.0238953-0.1454773,0.0259094-0.1991882c0.0307922-0.0322876,0.0756836-0.0381165,0.1117859-0.0596008
		C26.0214844,34.0712891,26.1181946,33.9052734,26.1181946,33.9052734L26.1181946,33.9052734L26.1181946,33.9052734z"/>
	<path class="st3" d="M25.4555664,32.5068054l0.0088196,0.1181641c0.1958008,0.0020142,0.2250977-0.0175781,0.2749023,0.0439148
		c0.0335999,0.0410767,0.112793,0.0772095,0.1928101,0.0401001c0.0795898-0.0361023,0.1158142-0.131897,0.0791016-0.2119141
		c-0.0365906-0.0801086-0.1108093-0.0966797-0.1821289-0.0830078c-0.0438843,0.0088196-0.0727844,0.0439148-0.1102905,0.0625305
		C25.6478882,32.5136719,25.4555664,32.5068054,25.4555664,32.5068054L25.4555664,32.5068054L25.4555664,32.5068054z"/>
	<path class="st3" d="M25.4956055,32.5487976l0.0829773,0.0839844c-0.1268921,0.1484985-0.1605835,0.1582031-0.1470032,0.2362976
		c0.0093079,0.0517883-0.0155945,0.1358032-0.0956726,0.1719055c-0.0796204,0.0361023-0.1753235,0.0010071-0.2119141-0.0791016
		c-0.0365906-0.0800781-0.0010071-0.1473999,0.0567017-0.1924133c0.0350952-0.0273132,0.0805054-0.0263062,0.1195984-0.0419617
		C25.3739929,32.6981812,25.4956055,32.5487976,25.4956055,32.5487976L25.4956055,32.5487976L25.4956055,32.5487976z"/>
	<path class="st3" d="M24.7973938,31.1142883l0.0087891,0.118103c0.1958313,0.0009766,0.2246094-0.0176086,0.2749329,0.0440063
		c0.0331726,0.0409851,0.1126709,0.0760803,0.192749,0.039978c0.0796204-0.0361023,0.1153259-0.1318054,0.0791016-0.2119141
		c-0.0365906-0.0800781-0.1107788-0.0976868-0.1820679-0.0829773c-0.0439148,0.0088196-0.0732117,0.0429993-0.1104126,0.0624695
		C24.9896851,31.1210938,24.7973938,31.1142883,24.7973938,31.1142883L24.7973938,31.1142883L24.7973938,31.1142883z"/>
	<path class="st3" d="M24.851593,31.0897827l0.0834961,0.0840149c-0.1270142,0.148468-0.1607056,0.1582031-0.1470032,0.2363892
		c0.0093079,0.0516968-0.0155945,0.1357117-0.0957031,0.171814c-0.0795898,0.0361633-0.1758118,0.0009766-0.2118835-0.0791016
		c-0.0367126-0.0800171-0.0010071-0.1473999,0.0565796-0.1924133c0.0351868-0.0273132,0.0805969-0.0263062,0.1195984-0.0419006
		C24.7304688,31.2392578,24.851593,31.0897827,24.851593,31.0897827L24.851593,31.0897827L24.851593,31.0897827z"/>
	<path class="st3" d="M24.0961914,29.6439819l0.0087891,0.1177063c0.1958008,0.0014954,0.2246094-0.0176086,0.2749023,0.0440063
		c0.0332031,0.0409851,0.1128235,0.0765686,0.1923828,0.0404663c0.0800171-0.0365906,0.1157227-0.1322937,0.0796204-0.2124023
		c-0.0366821-0.0800781-0.1109009-0.097168-0.1827087-0.0829773c-0.0438843,0.0088196-0.0726929,0.0434265-0.1097717,0.0630188
		C24.2886047,29.6503906,24.0961914,29.6439819,24.0961914,29.6439819L24.0961914,29.6439819L24.0961914,29.6439819z"/>
	<path class="st3" d="M24.1503906,29.6191101l0.0830078,0.0839844c-0.1264954,0.1489868-0.1601868,0.1582031-0.1465149,0.2363892
		c0.0093079,0.0522156-0.0155945,0.1357117-0.0956726,0.171814c-0.0801086,0.0365906-0.1758118,0.0009766-0.2124023-0.0791016
		c-0.0361023-0.0796204-0.0005188-0.1469116,0.0565796-0.1918945c0.0357056-0.0273132,0.0811157-0.0263367,0.1196899-0.0420227
		C24.0292969,29.7689819,24.1503906,29.6191101,24.1503906,29.6191101L24.1503906,29.6191101L24.1503906,29.6191101z"/>
	<polygon class="st4" points="26.7958679,35.3856812 27.1304016,35.5683899 27.0487976,35.9403992 26.714386,35.757782 
		26.7958679,35.3856812 	"/>
	<path class="st4" d="M25.3314819,32.1581726c-0.0697937,0.0293274-0.1737976-0.2763977-0.2503662-0.4433899
		c-0.0782471-0.1708984-0.2373047-0.4354858-0.191925-0.4559937c0.0492859-0.0224915,0.1146851,0.1161804,0.1947937,0.2909851
		C25.164093,31.7255554,25.3974915,32.1308899,25.3314819,32.1581726L25.3314819,32.1581726L25.3314819,32.1581726z"/>
	<path class="st4" d="M24.6117859,30.5513c-0.0703125,0.0292969-0.1470032-0.170929-0.2230835-0.3379211
		c-0.0782166-0.1713867-0.1548157-0.2929993-0.109436-0.3135071c0.0493164-0.0224915,0.1226196,0.1279297,0.1870117,0.2680969
		C24.5282898,30.3041687,24.6771851,30.5238647,24.6117859,30.5513L24.6117859,30.5513L24.6117859,30.5513z"/>
	<path class="st4" d="M26.2772827,34.195282c-0.0550842,0.014679-0.2953796-0.4883118-0.4891968-0.9131165
		c-0.1942749-0.4257812-0.3388977-0.7694702-0.2939758-0.789978c0.0497742-0.0224915,0.2070923,0.3788757,0.4013977,0.8046875
		C26.089386,33.7216797,26.3183899,34.1845703,26.2772827,34.195282L26.2772827,34.195282L26.2772827,34.195282z"/>
	<path class="st8" d="M23.6688843,28.7001648c0,0-0.0086975,0.2397156,0.0708008,0.3760376
		c0.0791016,0.1356812,0.2564087,0.1898804,0.2564087,0.1898804s0.0083008-0.2396851-0.0708008-0.3755188
		C23.8456726,28.7548828,23.6688843,28.7001648,23.6688843,28.7001648L23.6688843,28.7001648z"/>
	<path class="st8" d="M23.5028687,29.2426758c0,0,0.2085266,0.012207,0.3286133,0.1040039
		c0.1202087,0.0922852,0.1665039,0.2841797,0.1665039,0.2841797s-0.1376038,0.0141296-0.2578125-0.078186
		C23.6200867,29.4603882,23.5028687,29.2426758,23.5028687,29.2426758L23.5028687,29.2426758z"/>
	<path class="st8" d="M24.1562805,28.7587891c0,0-0.0689087,0.1586914-0.0610962,0.3295898
		c0.0078125,0.1713867,0.1078796,0.3641968,0.1078796,0.3641968s0.0904236-0.2055054,0.0821228-0.3768921
		C24.2772827,28.9047852,24.1806946,28.8070679,24.1562805,28.7587891L24.1562805,28.7587891L24.1562805,28.7587891z"/>
	<path class="st8" d="M23.8061829,30.3017578c0,0,0.1019897,0.1425171,0.2591858,0.2202454
		c0.1577148,0.078064,0.3921204,0.0804749,0.3921204,0.0804749s-0.1171875-0.1513062-0.2743835-0.2294922
		c-0.1577148-0.0776062-0.3769226-0.0717163-0.3769226-0.0717163V30.3017578L23.8061829,30.3017578z"/>
	<path class="st8" d="M23.8563843,30.632782c0,0,0.0751953,0.1474915,0.2124023,0.2105103
		c0.1376953,0.0629883,0.4190063,0.0581055,0.4190063,0.0581055s-0.1079102-0.1376953-0.2456055-0.2007141
		C24.1049805,30.6371765,23.8563843,30.632782,23.8563843,30.632782L23.8563843,30.632782L23.8563843,30.632782z"/>
	<path class="st8" d="M24.6478882,29.8480835c0,0-0.0834045,0.1372986-0.0750732,0.2886047
		c0.0082703,0.1513977,0.1073914,0.3164062,0.1073914,0.3164062S24.75,30.2636719,24.7416992,30.1122742
		c-0.0078125-0.1509094-0.0942078-0.2641907-0.0942078-0.2641907H24.6478882L24.6478882,29.8480835z"/>
	<path class="st8" d="M24.9536133,30.0424805c0,0-0.1421204,0.1903992-0.1626282,0.3866882
		c-0.0204773,0.1958008,0.0811157,0.397522,0.0811157,0.397522s0.1713867-0.1724243,0.1918945-0.3687134
		C25.0845032,30.2621765,24.9536133,30.0424805,24.9536133,30.0424805L24.9536133,30.0424805L24.9536133,30.0424805z"/>
	<path class="st8" d="M24.5619812,31.852478c0,0,0.0171204,0.0704041,0.0762024,0.1455078
		c0.0596008,0.0751953,0.1611023,0.1542969,0.1611023,0.1542969s0.0982056-0.0312195,0.2202148-0.0048218
		c0.1221008,0.0263367,0.2842102,0.1347351,0.2842102,0.1347351s-0.1748352-0.2607422-0.355896-0.3623047
		C24.7666016,31.8193054,24.5619812,31.852478,24.5619812,31.852478L24.5619812,31.852478L24.5619812,31.852478z"/>
	<path class="st8" d="M24.5438843,32.3007812c0,0,0.2261047-0.0967102,0.4122009-0.0713196
		c0.1865234,0.0244141,0.3540039,0.171936,0.3540039,0.171936s-0.2514954,0.0868835-0.4375,0.0624695
		C24.6859741,32.4384766,24.5438843,32.3007812,24.5438843,32.3007812L24.5438843,32.3007812L24.5438843,32.3007812z"/>
	<path class="st8" d="M25.4994812,31.25c0,0-0.2001953,0.2118835-0.2167969,0.3954773S25.4447937,32,25.4447937,32
		s-0.0088196-0.117218,0.0220032-0.195343c0.0307922-0.077179,0.0961914-0.1601868,0.0961914-0.1601868
		s0.0278015-0.094696,0.0170898-0.1708679C25.5648804,31.3681641,25.4994812,31.25,25.4994812,31.25L25.4994812,31.25
		L25.4994812,31.25z"/>
	<path class="st8" d="M25.7861023,31.4950867c0,0-0.1884155,0.1903992-0.2382202,0.3945007
		c-0.0498962,0.2041931,0.0390015,0.4219055,0.0390015,0.4219055s0.1714172-0.1347351,0.2211914-0.3388062
		C25.8578796,31.7685852,25.7861023,31.4950867,25.7861023,31.4950867L25.7861023,31.4950867L25.7861023,31.4950867z"/>
	<path class="st8" d="M26.2582703,32.7255859c0,0,0.0855408,0.1786804,0.1069031,0.3271179
		c0.0215149,0.1493835,0.0014954,0.2011719,0.0014954,0.2011719s-0.0883789,0.0869141-0.1278687,0.1377258
		c-0.0508118,0.0653992-0.0581055,0.1854858-0.0581055,0.1854858s-0.1773071-0.2636108-0.1499023-0.4559937
		C26.0581055,32.9286804,26.2582703,32.7255859,26.2582703,32.7255859L26.2582703,32.7255859L26.2582703,32.7255859z"/>
	<path class="st8" d="M26.6317749,33.1386719c0,0-0.2269897,0.1494141-0.3168945,0.3027039
		c-0.0903015,0.1542969-0.043396,0.3115234-0.043396,0.3115234s0.1616211-0.0146179,0.2514038-0.1679077
		c0.0904236-0.1534119,0.1088867-0.4473267,0.1088867-0.4473267V33.1386719L26.6317749,33.1386719z"/>
	<path class="st8" d="M25.140564,33.7714844c0,0,0.32724-0.0088196,0.5269165,0.0400085
		c0.199707,0.0488892,0.2723999,0.1562805,0.2723999,0.1562805s-0.2245789,0.1054077-0.4243164,0.055603
		C25.3153992,33.9745789,25.140564,33.7714844,25.140564,33.7714844L25.140564,33.7714844L25.140564,33.7714844z"/>
	<path class="st8" d="M25.0853882,33.382782c0,0,0.1474915,0.2294922,0.3384094,0.3125
		c0.2626953,0.1142883,0.5668945,0.0585938,0.5668945,0.0585938s-0.1650085-0.2030945-0.3926086-0.2919922
		C25.370575,33.3720703,25.0853882,33.382782,25.0853882,33.382782L25.0853882,33.382782L25.0853882,33.382782z"/>
	<path class="st3" d="M33.015564,35.4179688c-0.0145874,0.0292969-0.0175781,0.0683289,0,0.1035156
		c0,0-0.1190796-0.0371094-0.1600647-0.0166016c-0.0381165,0.0184937,0,0.5809937,0,0.5809937
		s0.4764709-0.3006897,0.468689-0.3427124c-0.007782-0.0449829-0.1073914-0.1210938-0.1073914-0.1210938
		c0.039093-0.0058899,0.0683899-0.0302734,0.0839844-0.0595703c0.015625-0.0312195,0.0176086-0.1191406-0.0907898-0.1738281
		c-0.0401001-0.0205078-0.0762024-0.0263977-0.1054993-0.0234985C33.0556946,35.3700867,33.0253906,35.3983765,33.015564,35.4179688
		L33.015564,35.4179688L33.015564,35.4179688z M36.2821655,28.8920898l0.0430298,0.0898132
		c0,0-0.0693054,0.0239868-0.1006165,0.0854797c-0.031189,0.0614929,0.0205078,0.1479187,0.0205078,0.1479187
		s-0.3602905-0.0312195-0.4159851,0.0053711c-0.0508118,0.0327148,0.0214844,0.282196-0.0117188,0.4921875
		c-0.0469055,0.2934265-0.1630859,0.2685242-0.1669922,0.3257446c-0.0048828,0.0551758,0.0439148,0.1410828,0.0439148,0.1410828
		s-0.0673218,0.0215149-0.0820312,0.0498047c-0.0224915,0.0453796,0.0166016,0.1288757-0.0116882,0.1835632
		c-0.156311,0.3071289-0.3876953,0.7607422-0.5401001,1.0596313c-0.0213928,0.0419006-0.0791016,0.0585938-0.1073914,0.1141968
		c-0.0263062,0.0527039-0.0049133,0.1278992-0.0049133,0.1278992s-0.1015015,0.0058899-0.1367188,0.0752258
		c-0.0370789,0.0732727-0.015564,0.171875-0.015564,0.171875s-0.0635376,0.0087891-0.094696,0.0703125
		c-0.0342102,0.0654602,0.0233765,0.1005859,0.0087891,0.1289062c-0.2061157,0.4033813-0.4472961,0.8779907-0.5947876,1.1669922
		c-0.054718,0.1073914-0.2441101,0.1279907-0.3545227,0.3447876c-0.1073914,0.2098999,0.0458984,0.3641968,0.0458984,0.3641968
		s-0.1590881,0.014679-0.2010803,0.0976868c-0.0429993,0.0840149-0.0088196,0.2119141,0.1053772,0.2705383
		c0.1143188,0.0585938,0.2403259,0.0116882,0.2832031-0.0733032c0.0420227-0.0830383-0.0428772-0.2197266-0.0428772-0.2197266
		s0.2147827,0.031311,0.3221741-0.1786804c0.1104126-0.2167969,0.0176086-0.3808899,0.0713196-0.4873047
		c0.1474915-0.2900085,0.3897095-0.7647095,0.5948181-1.1670227c0.0145874-0.0292969,0.0750732-0.0038757,0.1092529-0.0703125
		c0.0313416-0.0614929,0-0.1171875,0-0.1171875s0.093811-0.0409851,0.1309204-0.1142578
		c0.0350952-0.0693359-0.0185852-0.1552429-0.0185852-0.1552429s0.0743103-0.0263977,0.1005859-0.078186
		c0.0282898-0.0566101,0.0078125-0.1112976,0.0282898-0.1532898c0.1534119-0.2998047,0.3838196-0.7529297,0.5411072-1.0599976
		c0.0273132-0.054718,0.118103-0.0737915,0.1405945-0.1192017c0.0145874-0.0283203-0.007782-0.0952148-0.007782-0.0952148
		s0.0985718-0.0101929,0.1405945-0.0463867c0.0438843-0.0371094-0.0440063-0.1166992,0.1659851-0.3271179
		c0.1504211-0.1503906,0.3926086-0.2392883,0.3897095-0.2997742c-0.0030212-0.066925-0.2403259-0.3389282-0.2403259-0.3389282
		s0.0996094-0.0082703,0.1319275-0.0697632c0.0312195-0.0615234,0.0097046-0.1328125,0.0097046-0.1328125l0.0986938-0.0171204
		v-0.4687805L36.2821655,28.8920898L36.2821655,28.8920898z"/>
	<polygon class="st4" points="36.3681946,28.9105835 36.5937805,29.0249023 36.5897827,28.7538757 36.3681946,28.9105835 	"/>
	<path class="st4" d="M36.2821655,29.0741882c-0.0292969,0.0567017-0.0008545,0.1293945,0.0625305,0.1620789
		c0.0644836,0.0323181,0.1376953,0.0122375,0.1669922-0.0443726s0.0010071-0.129425-0.0625-0.1621094
		c-0.0243835-0.012207-0.0498047-0.0166016-0.0732117-0.0151978C36.3349915,29.0175781,36.2997742,29.0390625,36.2821655,29.0741882
		L36.2821655,29.0741882L36.2821655,29.0741882z"/>
	<path class="st4" d="M35.8954773,29.2802734c-0.0243835,0.015625,0.0078125,0.2182007,0.0010071,0.3901062
		c-0.0058899,0.1625977-0.0585938,0.2084961-0.0868835,0.2642212c-0.0263977,0.0516663-0.1211243,0.112793-0.1211243,0.112793
		l0.0791016,0.0780945c0,0,0.0508118-0.0795898,0.1307983-0.2368164c0.0948181-0.1855774,0.0918274-0.5220032,0.1192322-0.5400696
		c0.0243835-0.015625,0.2216797-0.0649414,0.2216797-0.0649414s-0.1806946-0.0097656-0.281311-0.0082703
		C35.9247742,29.2758789,35.9003906,29.276886,35.8954773,29.2802734L35.8954773,29.2802734z"/>
	<path class="st4" d="M35.9159851,30.2157898c0,0,0.0254211-0.0727234,0.1171875-0.2518921
		c0.1104431-0.2163086,0.3457031-0.3735962,0.3506165-0.4126282c0.0057983-0.0400696-0.0811157-0.2299805-0.0811157-0.2299805
		s-0.2080078,0.0400085-0.2373047,0.0682983c-0.0282898,0.0273743-0.015564,0.308197-0.125885,0.5245056
		c-0.0909119,0.1796875-0.1367798,0.245575-0.1367798,0.245575L35.9159851,30.2157898L35.9159851,30.2157898z"/>
	<path class="st4" d="M36.4453125,29.5668945c0.0019836,0.0326843-0.2715454,0.2279968-0.3662109,0.4135742
		c-0.0801086,0.1577148-0.1143188,0.245636-0.1143188,0.245636l0.1094055,0.0170593c0,0-0.0078125-0.1122742,0.0186157-0.1635742
		c0.0282898-0.0556946,0.0361023-0.1240234,0.1640015-0.2250977c0.1347961-0.1065063,0.3183594-0.2002258,0.3163757-0.2280273
		c-0.0009155-0.0263977-0.2041016-0.2778625-0.2041016-0.2778625S36.4443054,29.5380859,36.4453125,29.5668945
		L36.4453125,29.5668945L36.4453125,29.5668945z"/>
	<path class="st4" d="M35.6445007,30.7812805c0.164093-0.3222961,0.2149048-0.3442993,0.2354126-0.3847961
		c0.0223694-0.0440063,0.016571-0.1026001-0.0567322-0.1397095c-0.0273132-0.0140991-0.0506897-0.0174866-0.0711975-0.0155945
		c-0.0341797,0.0039062-0.0595703,0.0259094-0.0733032,0.0532227c-0.0205078,0.0405884-0.0097961,0.0947876-0.1737671,0.4174805
		l-0.3731079,0.7304993c0,0-0.039032,0.0722046,0.0341797,0.1094055c0.0733032,0.0370789,0.1054993-0.0380859,0.1054993-0.0380859
		L35.6445007,30.7812805L35.6445007,30.7812805z"/>
	<path class="st4" d="M34.9853821,31.6200867C34.9647827,31.6601868,35,31.7187805,35.0634766,31.7509766
		c0.0643921,0.032196,0.1338196,0.0263062,0.1533203-0.0137024c0.0204773-0.0400085-0.015625-0.0986023-0.0801086-0.1308899
		c-0.031189-0.0166016-0.0644226-0.023407-0.0917969-0.0205078C35.0175781,31.5878601,34.9960938,31.5995789,34.9853821,31.6200867
		L34.9853821,31.6200867z"/>
	<path class="st4" d="M34.8476868,31.8280945c-0.0263977,0.0507812,0.0145874,0.125,0.0918274,0.1650696
		c0.0770569,0.039032,0.1610718,0.0293274,0.1875-0.0224915c0.0262756-0.0517883-0.0147095-0.1259766-0.0918274-0.1650085
		c-0.0292969-0.014679-0.0576782-0.0224915-0.0859985-0.0243835C34.9042969,31.7792664,34.8642883,31.7948914,34.8476868,31.8280945
		L34.8476868,31.8280945L34.8476868,31.8280945z"/>
	<path class="st4" d="M34.7606812,32.0595703c-0.0204773,0.0400085,0.0147095,0.0986023,0.0782166,0.1308289
		c0.063385,0.0322876,0.1328125,0.0263977,0.1532898-0.0136414c0.0205078-0.0400696-0.014679-0.0986938-0.0780945-0.1308899
		c-0.0323181-0.016571-0.0664062-0.0233765-0.093811-0.0204773C34.7929993,32.0272827,34.7704773,32.0390625,34.7606812,32.0595703
		L34.7606812,32.0595703L34.7606812,32.0595703z"/>
	<path class="st4" d="M34.7041016,32.2812805c0,0-0.4141235,0.8153992-0.5605164,1.1015015
		c-0.0469055,0.0917969-0.2431946,0.1494141-0.3204041,0.3008118c-0.0770874,0.1513672-0.0223999,0.2938843,0.0782166,0.3456726
		c0.1014709,0.0518188,0.25,0.0137024,0.3270874-0.1386719c0.0772095-0.1503906,0.0078125-0.343689,0.054718-0.4355164
		c0.1464844-0.2871094,0.5605774-1.1025696,0.5605774-1.1025696s0.0409851-0.0722351-0.0323181-0.109314
		c-0.0184631-0.0087891-0.0341797-0.0098267-0.04776-0.0078125C34.7235718,32.2402039,34.7041016,32.2812805,34.7041016,32.2812805
		L34.7041016,32.2812805z"/>
	<path class="st4" d="M33.656311,34.1737976c-0.0313416,0.0605774,0.0038757,0.1416016,0.0799561,0.1806946
		c0.0752258,0.0380859,0.1631165,0.0195007,0.1944275-0.0410156c0.031189-0.0605774-0.0069275-0.1416016-0.0820923-0.1806946
		c-0.0282898-0.0145874-0.0576172-0.0215149-0.0848999-0.0205078C33.7167969,34.1142883,33.6757812,34.1356812,33.656311,34.1737976
		L33.656311,34.1737976L33.656311,34.1737976z"/>
	<path class="st4" d="M33.1044922,35.4188843c-0.023407,0.0010071-0.0429993,0.0088196-0.0517883,0.0244751
		c-0.015625,0.0312195,0.0176086,0.0800171,0.0733032,0.1083984c0.0565796,0.0293274,0.1161804,0.0263367,0.1318054-0.0048828
		c0.015564-0.0312805-0.0176086-0.0801086-0.0732117-0.1083984C33.1562805,35.4237671,33.1278992,35.4188843,33.1044922,35.4188843
		L33.1044922,35.4188843L33.1044922,35.4188843z"/>
	<path class="st4" d="M32.9101868,35.5722656v0.4023132l0.3271179-0.235321c0,0-0.0449219-0.078186-0.1416321-0.1279907
		C32.9989929,35.5625,32.9101868,35.5722656,32.9101868,35.5722656L32.9101868,35.5722656L32.9101868,35.5722656z"/>
	<path class="st4" d="M33.1171875,26.6171875c0-0.2207336,0.2900085-0.4380188,0.2900085-0.4380188H26.342804
		c0,0,0.2894897,0.2172852,0.2894897,0.4380188v5.257782c0,0.1387024,0.0429993,0.2285156,0.1109009,0.3174133
		c0.0678101,0.094696,0.2129211,0.2255859,0.362793,0.3232117c0.4638062,0.3017883,1.2396851,0.6191711,1.8265991,0.8857727
		c0.4888,0.2226257,0.6880188,0.3125305,0.9423828,0.6278992c0.2539368-0.3153687,0.4546204-0.4052734,0.9438171-0.6278992
		c0.5865173-0.2666016,1.362793-0.5839844,1.8267212-0.8857727c0.1503601-0.0976257,0.2948914-0.2285156,0.3622742-0.3232117
		c0.0684204-0.0888977,0.1094055-0.1787109,0.1094055-0.3174133V26.6171875L33.1171875,26.6171875z"/>
	<path class="st6" d="M26.7992859,29.5917969v-2.9746094c0-0.1685181-0.0848999-0.2709961-0.0848999-0.2709961h6.3208008
		c0,0-0.0849915,0.102478-0.0849915,0.2709961l0.0018921,2.9746094l-3.0765991,0.9320679L26.7992859,29.5917969
		L26.7992859,29.5917969z"/>
	<path class="st9" d="M32.9520874,29.5917969l-1.9052124-0.035614h-2.3427734l-1.9048157,0.035614v2.2831726
		c0,0.1152039,0.1192017,0.3837891,0.8062134,0.7256165c1.1351929,0.5663757,2.0078125,0.8300781,2.2694702,1.1523132
		c0.2612305-0.3222351,1.1338196-0.5859375,2.2695312-1.1523132c0.6865845-0.3418274,0.8056946-0.6104126,0.8056946-0.7256165
		L32.9520874,29.5917969L32.9520874,29.5917969z"/>
	<path class="st3" d="M31.0009766,29.4726562c0,0,1.0986023-0.276886,1.0986023-1.4516907
		c0-0.9169922-1.101593-1.3720703-1.132782-1.5912781c-0.1074219,0.3789062,0.3681946,0.9022827,0.3681946,1.5215149
		c0,0.8016663-0.5913086,0.840271-0.5913086,0.840271c-0.1381836,0-0.194397,0.0986023-0.2485962,0.0986023
		c-0.1166992-0.0121765-0.1713867-0.1600952-0.2865906-0.1600952c-0.1079102,0-0.1908875,0.1669922-0.3340149,0.1669922
		c-0.1425781,0-0.2240906-0.1669922-0.3320007-0.1669922c-0.1152954,0-0.1698914,0.1479187-0.2861938,0.1600952
		c-0.0545959,0-0.1102905-0.0986023-0.2489929-0.0986023c0,0-0.5907898-0.0386047-0.5907898-0.840271
		c0-0.6192322,0.4755859-1.1426086,0.3677063-1.5215149c-0.0313416,0.2192078-1.132843,0.6742859-1.132843,1.5912781
		c0,1.1748047,1.0991211,1.4516907,1.0991211,1.4516907l-0.3134766,0.5708313c0,0,0.4541016,0.0228882,0.6947632,0.2284851
		c0.2906189,0.2480164,0.2626953,0.7729187,0.2626953,1.1547852c0,0.3017273-0.0380859,0.6191101-0.1927795,0.75
		c-0.2076111,0.1757507-0.3477173,0.1884155-0.3477173,0.3955078c0,0.171814,0.1323242,0.2070312,0.3477173,0.3203125
		c0.2757874,0.1454773,0.263092,0.3408203,0.6727905,0.3408203c0.4102173,0,0.3988953-0.195343,0.6748047-0.3408203
		c0.2153015-0.1132812,0.3477173-0.1484985,0.3477173-0.3203125c0-0.2070923-0.1402283-0.2197571-0.3477173-0.3955078
		c-0.1542969-0.1308899-0.1924133-0.4482727-0.1924133-0.75c0-0.3818665-0.0282898-0.9067688,0.262207-1.1547852
		c0.2413025-0.2055969,0.6954041-0.2284851,0.6954041-0.2284851L31.0009766,29.4726562L31.0009766,29.4726562z"/>
	<polygon class="st3" points="29.8744812,26.5112 29.6835938,27.0531921 29.164093,26.8061829 29.4111023,27.3256836 
		28.8691101,27.5185852 29.4111023,27.7108765 29.164093,28.2289734 29.6835938,27.9818726 29.8744812,28.523407 
		30.0674133,27.9818726 30.5868835,28.2289734 30.3397827,27.7108765 30.8818054,27.5185852 30.3397827,27.3256836 
		30.5868835,26.8061829 30.0674133,27.0531921 29.8744812,26.5112 	"/>
	<path class="st3" d="M28.7041016,29.5561829c0,0-0.6787109-0.1655884-0.9320984-0.5004883
		c-0.4429321,0.398407-0.9727173,0.5365906-0.9727173,0.5365906s0.5527954,0.2494812,0.9727173,0.5673828
		C27.9657898,29.8822632,28.7041016,29.5561829,28.7041016,29.5561829L28.7041016,29.5561829L28.7041016,29.5561829z"/>
	<path class="st3" d="M31.046875,29.5561829c0,0,0.7383118,0.325592,0.9316101,0.6034851
		c0.4208984-0.3179016,0.9736023-0.5673828,0.9736023-0.5673828s-0.5301819-0.1381836-0.9736023-0.5365906
		C31.7255859,29.3905945,31.046875,29.5561829,31.046875,29.5561829L31.046875,29.5561829L31.046875,29.5561829z"/>
	<polygon class="st3" points="28.9819031,30.2787781 28.7177734,30.5424805 28.9819031,30.8065796 29.2460938,30.5424805 
		28.9819031,30.2787781 	"/>
	<polygon class="st3" points="30.7689819,30.2787781 30.5054016,30.5424805 30.7689819,30.8065796 31.0331726,30.5424805 
		30.7689819,30.2787781 	"/>
	<path class="st3" d="M28.9154663,31.820282c0,0.3339844-0.032196,0.5097961-0.032196,0.5097961
		s0.3721008-0.1094055,0.4463196-0.4873047c0.0346985-0.1767883,0.0737-0.8291016-0.1054993-0.9404907l-0.4858093-0.0957031
		C28.7909851,30.9364929,28.9154663,31.3388672,28.9154663,31.820282L28.9154663,31.820282L28.9154663,31.820282z"/>
	<path class="st3" d="M30.5272827,30.9022827c-0.1791992,0.1113892-0.1405945,0.7637024-0.1053772,0.9404907
		c0.0736694,0.3778992,0.4462585,0.4873047,0.4462585,0.4873047s-0.0322876-0.1758118-0.0322876-0.5097961
		c0-0.4814148,0.1245117-0.8837891,0.1768188-1.0137024L30.5272827,30.9022827L30.5272827,30.9022827z"/>
	<path class="st3" d="M27.7705078,30.9208679c-0.1670227,0.0420227-0.2685242,0.2128906-0.2266235,0.3799133
		c0.0069275,0.0263062,0.0171204,0.0497742,0.0292969,0.0722046c-0.0244141-0.0086975-0.0498047-0.0136108-0.0765686-0.0155945
		c-0.0108337-0.0010071-0.0220032-0.0010071-0.0327454,0c-0.1581726,0.0048828-0.2905884,0.1298828-0.3012695,0.2909851
		c-0.0116882,0.1729126,0.1190796,0.3204041,0.2915039,0.3320923c0.0253906,0.0019226,0.050293,0.0009155,0.074707-0.0029602
		c-0.0146179,0.0204773-0.0278015,0.0419617-0.0376282,0.0663757c-0.0643921,0.1601868,0.0137024,0.3447876,0.1738281,0.4091797
		c0.1601868,0.0645142,0.342804-0.0155945,0.4072876-0.1757812c0.0096741-0.0243835,0.0155945-0.047821,0.0190125-0.0732117
		c0.014679,0.0205078,0.032196,0.0391235,0.0526733,0.0566101c0.1324158,0.1104126,0.3305969,0.092804,0.4410095-0.0400085
		c0.1107788-0.1318054,0.0931702-0.3280945-0.039093-0.4393921c-0.0200195-0.0166931-0.0420227-0.0292969-0.0645142-0.0410767
		c0.0239868-0.0068054,0.0473938-0.0175171,0.0699158-0.0322266c0.1459656-0.0917969,0.1903992-0.2861023,0.0986023-0.4325867
		c-0.0630188-0.1006165-0.1738281-0.1524048-0.2846985-0.1445312c-0.0503235,0.0028992-0.1006165,0.0185242-0.1463928,0.047821
		c-0.022522,0.0136719-0.0420227,0.0292969-0.0596313,0.0479126c0-0.0254211-0.0019836-0.0518188-0.0083008-0.0772095
		c-0.0370789-0.1465149-0.1719055-0.243103-0.3168945-0.2368164C27.8129883,30.9135742,27.7914734,30.9159851,27.7705078,30.9208679
		L27.7705078,30.9208679L27.7705078,30.9208679z"/>
	<path class="st3" d="M31.092804,31.8310852c0.0341797,0.3192749,0.2928772,0.5858765,0.6132812,0.6620789
		c-0.0546875-0.0888672-0.0909119-0.1884766-0.101593-0.2939758c-0.0410156-0.3789062,0.2518921-0.6854858,0.6522827-0.6854858
		c0.0625305,0,0.124115,0.007782,0.1836243,0.0223694c-0.1405945-0.2313843-0.4062195-0.391571-0.6953125-0.391571
		C31.3456726,31.1445007,31.0526733,31.4520874,31.092804,31.8310852L31.092804,31.8310852z"/>
	<path class="st10" d="M30.2973938,32.4813843c-0.0581055,0-0.1244812,0.0361938-0.1244812,0.1133118
		c0,0.0762024,0.0663757,0.1103821,0.1244812,0.1103821c0.218689,0,0.3579102-0.0440063,0.3579102-0.1103821
		C30.655304,32.5282898,30.5160828,32.4813843,30.2973938,32.4813843L30.2973938,32.4813843L30.2973938,32.4813843z
		 M29.4541016,32.4813843c-0.218689,0-0.3579102,0.0469055-0.3579102,0.1133118
		c0,0.0663757,0.1392212,0.1103821,0.3579102,0.1103821c0.0581055,0,0.1239929-0.0341797,0.1239929-0.1103821
		C29.5780945,32.5175781,29.512207,32.4813843,29.4541016,32.4813843L29.4541016,32.4813843L29.4541016,32.4813843z
		 M28.2562866,27.9512024c0,0.6034851,0.3218079,0.9593811,0.7514954,0.9593811c0.081604,0,0.1713867,0.1108704,0.2485046,0.1108704
		c0.1260071,0,0.2095032-0.1401672,0.2861938-0.1401672c0.0975952,0,0.1631165,0.1533813,0.332489,0.1533813
		c0.1689148,0,0.2363281-0.1533813,0.3340149-0.1533813c0.0765991,0,0.1601257,0.1401672,0.2861023,0.1401672
		c0.077179,0,0.1665039-0.1108704,0.2485962-0.1108704c0.4301147,0,0.7514038-0.355896,0.7514038-0.9593811
		c0-0.4917297-0.4131165-1.0918274-0.368103-1.1890259c0,0,0.805603,0.5776062,0.805603,1.2587891
		c0,1.0971985-1.1122742,1.3681946-1.1122742,1.3681946l0.2509766,0.5639343c0,0-0.3452148,0.0517883-0.5556946,0.2216797
		c-0.2807007,0.226593-0.2846069,0.8388977-0.2846069,1.2519836c0,0.4882202,0.0180054,0.6943054,0.1943054,0.8271179
		c0.1855164,0.1387024,0.3251953,0.1690063,0.3251953,0.3115234c0,0.1240845-0.1445007,0.1747742-0.3320007,0.2568665
		c-0.2133789,0.0947266-0.2348938,0.2578125-0.5435181,0.2578125c-0.309082,0-0.3285828-0.1630859-0.5419922-0.2578125
		c-0.1875-0.0820923-0.3319702-0.132782-0.3319702-0.2568665c0-0.1425171,0.1395874-0.172821,0.3251953-0.3115234
		c0.176178-0.1328125,0.1942749-0.3388977,0.1942749-0.8271179c0-0.4130859-0.0038757-1.0253906-0.2846985-1.2519836
		c-0.2103882-0.1698914-0.5550842-0.2216797-0.5550842-0.2216797l0.25-0.5639343c0,0-1.1123047-0.2709961-1.1123047-1.3681946
		c0-0.6806641,0.8055725-1.2587891,0.8055725-1.2587891C28.6693726,26.859375,28.2562866,27.4594727,28.2562866,27.9512024
		L28.2562866,27.9512024L28.2562866,27.9512024z"/>
	<polygon class="st10" points="29.8764648,26.8759766 29.9994812,27.222168 30.3300781,27.0634766 30.1729126,27.3959961 
		30.5170898,27.5185852 30.1729126,27.6410828 30.3300781,27.9716797 29.9994812,27.8148804 29.8749695,28.1591797 
		29.7523804,27.8148804 29.4219055,27.9716797 29.5785828,27.6410828 29.2344055,27.5185852 29.5785828,27.3959961 
		29.4219055,27.0634766 29.7523804,27.222168 29.8764648,26.8759766 29.8764648,26.8759766 	"/>
	<path class="st10" d="M28.3412781,29.5770874l-0.5692749,0.4223938l-0.0069275,0.0083008l-0.0116882-0.0101929
		l-0.6304016-0.3951111c0,0,0.4024048-0.1386108,0.6387024-0.3797913
		C27.9858093,29.4789734,28.3412781,29.5770874,28.3412781,29.5770874L28.3412781,29.5770874L28.3412781,29.5770874z"/>
	<path class="st10" d="M32.6278992,29.602478c0,0-0.4199219,0.2090149-0.6307983,0.3951111l-0.0117188,0.0101929
		l-0.006897-0.0083008c-0.1992188-0.2285156-0.5682983-0.4223938-0.5682983-0.4223938s0.3554077-0.098114,0.5791016-0.3544006
		C32.2255859,29.4638672,32.6278992,29.602478,32.6278992,29.602478L32.6278992,29.602478z"/>
	<polygon class="st10" points="28.9819031,30.4047852 29.1200867,30.5424805 28.9819031,30.6825867 28.8422852,30.5424805 
		28.9819031,30.4047852 	"/>
	<polygon class="st10" points="30.7689819,30.4047852 30.9091797,30.5424805 30.7689819,30.6825867 30.6312866,30.5424805 
		30.7689819,30.4047852 	"/>
	<path class="st10" d="M29.1694031,31.007782c0.0967102,0.132782,0.0800781,0.3486023,0.0800781,0.6474915
		c0,0.3017273-0.226593,0.4169922-0.226593,0.4169922c0-0.7245789-0.074707-0.8993835-0.1141968-1.1192017L29.1694031,31.007782
		L29.1694031,31.007782z"/>
	<path class="st10" d="M30.8422852,30.953064c-0.039093,0.2198181-0.1138,0.3946228-0.1138,1.1192017
		c0,0-0.2265015-0.1152649-0.2265015-0.4169922c0-0.2997742-0.0166016-0.5147095,0.0800171-0.6474915L30.8422852,30.953064
		L30.8422852,30.953064L30.8422852,30.953064z"/>
	<path class="st10" d="M28.0976868,31.2275085c0.0068054,0.0273743,0.007782,0.053772,0.0053101,0.0800781
		c-0.0019226,0.0224915-0.0078125,0.0419922-0.0155945,0.0614929c-0.0376282-0.0135803-0.0780945-0.0205078-0.1206055-0.0205078
		c-0.1054993,0-0.1991882,0.045929-0.2642212,0.1192017c-0.0170898-0.014679-0.0316772-0.031311-0.0444031-0.0507812
		c-0.0141907-0.0215149-0.0259094-0.0449219-0.032196-0.0713196c-0.0326843-0.1308899,0.0469055-0.2626953,0.1772156-0.2948914
		c0.0160828-0.0039062,0.0332031-0.006897,0.0493164-0.006897C27.9653015,31.039093,28.0693054,31.1142883,28.0976868,31.2275085
		L28.0976868,31.2275085L28.0976868,31.2275085z"/>
	<path class="st10" d="M28.4608765,31.6825867c-0.0233765,0.014679-0.0487671,0.0234985-0.0746765,0.0292969
		c-0.0209961,0.0048828-0.0415039,0.0058899-0.0630188,0.0039062c0.0014954-0.0400085-0.0047913-0.0801086-0.0174866-0.1211243
		c-0.0328064-0.0995789-0.1059875-0.1747742-0.195282-0.2137756c0.0091858-0.0215149,0.0204773-0.0401001,0.0350952-0.0586243
		c0.0160828-0.0195618,0.034668-0.0380859,0.058075-0.0527954c0.1133118-0.0712891,0.2637024-0.0361023,0.335022,0.0782166
		c0.0087891,0.0136108,0.0160828,0.0292969,0.0214844,0.0448914C28.5996094,31.4979858,28.5604858,31.6200867,28.4608765,31.6825867
		L28.4608765,31.6825867L28.4608765,31.6825867z"/>
	<path class="st10" d="M28.1411133,32.1679688c-0.0215149-0.0176086-0.0381165-0.039093-0.0513306-0.0615845
		c-0.0112-0.0184937-0.0180054-0.0380249-0.0238953-0.0585022c0.0386047-0.0108032,0.0757141-0.0292969,0.1104126-0.054718
		c0.0848999-0.0615845,0.1337891-0.1542664,0.1429749-0.2519836c0.0230103,0.0028992,0.0445251,0.0068054,0.0660095,0.0155945
		c0.0239258,0.0088196,0.0477905,0.0215149,0.0682983,0.039093c0.1029968,0.085907,0.1161804,0.2393188,0.0297852,0.342804
		c-0.0106812,0.0126953-0.0229797,0.0244141-0.0355835,0.0342102
		C28.3588867,32.2431946,28.2309875,32.2431946,28.1411133,32.1679688L28.1411133,32.1679688L28.1411133,32.1679688z"/>
	<path class="st10" d="M27.5801086,32.0136719c0.0101929-0.0253906,0.0253906-0.0478821,0.0428772-0.0673828
		c0.0142212-0.0166016,0.0307922-0.0292969,0.0484009-0.0410156c0.0223999,0.0332031,0.0513,0.0635071,0.085907,0.0878906
		c0.0849915,0.0615234,0.1879883,0.0800171,0.2836914,0.0586243c0.0049133,0.0223999,0.006897,0.0448914,0.0058899,0.0672913
		c-0.0014954,0.0263977-0.0058899,0.0517883-0.0160828,0.0772095c-0.0498047,0.125-0.191925,0.1846008-0.3164062,0.1347961
		c-0.015686-0.006897-0.0307922-0.0147095-0.0440063-0.0245056C27.5762024,32.2440796,27.5361023,32.1229858,27.5801086,32.0136719
		L27.5801086,32.0136719L27.5801086,32.0136719z"/>
	<path class="st10" d="M27.5531616,31.4325867c0.0279236,0.0020142,0.0537109,0.0097961,0.0777283,0.0205078
		c0.019989,0.007782,0.0371094,0.0195923,0.0537109,0.0331726c-0.0249023,0.031311-0.0440063,0.0684204-0.0567322,0.1083984
		c-0.0326843,0.1006165-0.0174866,0.2041321,0.0318298,0.2881165c-0.0195923,0.0117188-0.0401001,0.0205078-0.0625305,0.0263977
		c-0.0249023,0.0068054-0.0507812,0.0107117-0.078186,0.0088196c-0.133667-0.0088196-0.2342834-0.1260071-0.2254944-0.2598267
		c0.0014038-0.0166016,0.0043945-0.0331726,0.0086975-0.0487976C27.332489,31.4999695,27.4359741,31.4247742,27.5531616,31.4325867
		L27.5531616,31.4325867L27.5531616,31.4325867z"/>
	<path class="st10" d="M27.9667969,31.469696c0.1298828,0,0.2348938,0.1054993,0.2348938,0.2353821
		c0,0.1299133-0.105011,0.2352905-0.2348938,0.2352905c-0.1299133,0-0.2354126-0.1053772-0.2354126-0.2352905
		C27.7313843,31.5751953,27.8368835,31.469696,27.9667969,31.469696L27.9667969,31.469696z"/>
	<path class="st10" d="M32.094696,31.3876953c-0.390625,0.0762024-0.6708984,0.4208984-0.6307983,0.8231812
		c-0.124115-0.1035156-0.2149353-0.2420959-0.2315063-0.3954773c-0.031189-0.2988281,0.1856079-0.5292969,0.5126953-0.5292969
		C31.8710938,31.2861023,31.9911804,31.3241882,32.094696,31.3876953L32.094696,31.3876953L32.094696,31.3876953z"/>
</g>
</svg>
