<?xml version="1.0" encoding="utf-8"?>
<!-- Generator: Adobe Illustrator 22.1.0, SVG Export Plug-In . SVG Version: 6.00 Build 0)  -->
<svg version="1.1" id="Layer_1" xmlns="http://www.w3.org/2000/svg" xmlns:xlink="http://www.w3.org/1999/xlink" x="0px" y="0px"
	 viewBox="0 0 60 60" style="enable-background:new 0 0 60 60;" xml:space="preserve">
<style type="text/css">
	.st0{clip-path:url(#SVGID_2_);fill:#FFFFFF;}
	.st1{clip-path:url(#SVGID_2_);fill:#020203;}
	.st2{clip-path:url(#SVGID_2_);fill:#CF2F3B;}
	.st3{clip-path:url(#SVGID_2_);fill:#0F499A;}
</style>
<g id="XMLID_1_">
	<g>
		<defs>
			<path id="SVGID_1_" d="M59,60H0.9999695C0.4477234,60,0,59.5526733,0,59V0.9999695c0-0.5522461,0.4477234-1,0.9999695-1H59
				c0.5526886,0,0.9999847,0.4477539,0.9999847,1V59C59.9999847,59.5526733,59.5526886,60,59,60L59,60z"/>
		</defs>
		<clipPath id="SVGID_2_">
			<use xlink:href="#SVGID_1_"  style="overflow:visible;"/>
		</clipPath>
		<polygon class="st0" points="-7.5913391,-0.0000305 67.5917816,-0.0000305 67.5917816,60 -7.5913391,60 -7.5913391,-0.0000305 		
			"/>
		<path class="st1" d="M10.0166016,24.2079773l6.9506836-10.4263 M7.4101257,22.4701843l6.9506531-10.4263 M4.8037109,20.7323914
			l6.9506836-10.4258118"/>
		<path class="st1" d="M5.672821,21.3114624l-1.7377625-1.1581726l6.9506226-10.426239l1.737793,1.1586304L5.672821,21.3114624
			L5.672821,21.3114624z M8.2792969,23.0492859l-1.7378235-1.1582031l6.9507141-10.4263l1.7378235,1.1586914L8.2792969,23.0492859
			L8.2792969,23.0492859z M10.8856812,24.7870789l-1.7377319-1.1586914l6.9506531-10.4258118l1.737793,1.1582031
			L10.8856812,24.7870789L10.8856812,24.7870789z"/>
		<path class="st1" d="M48.2450867,49.6933594l6.9512177-10.4257812 M45.6387024,47.9560852l6.9510803-10.4258118
			 M43.0321655,46.217804l6.9512329-10.4258423"/>
		<path class="st1" d="M43.9013977,46.7978821l-1.7373047-1.1592102l6.9501953-10.4257812l1.7373199,1.1582031
			L43.9013977,46.7978821L43.9013977,46.7978821z M46.507782,48.5351868l-1.7373047-1.1582031l6.9502106-10.4268188
			l1.7373047,1.1592102L46.507782,48.5351868L46.507782,48.5351868z M49.1142883,50.2724915l-1.7373047-1.1582031
			l6.9501038-10.4258118l1.7382965,1.1582031L49.1142883,50.2724915L49.1142883,50.2724915z"/>
		<line class="st1" x1="44.7704773" y1="39.8466797" x2="53.4589996" y2="45.6386719"/>
		<polygon class="st0" points="52.878891,46.507782 44.1914062,40.7157898 45.3495789,38.977478 54.0380707,44.7704773 
			52.878891,46.507782 		"/>
		<path class="st2" d="M19.5741882,23.0492859c3.8384094-5.7583008,11.6181946-7.3139038,17.3759766-3.4750977
			c5.7588196,3.8383789,7.3144226,11.6181641,3.4756165,17.3759766c-3.8388977,5.7587891-11.6181946,7.3144226-17.3764954,3.4756165
			C17.2909851,36.5868835,15.7354126,28.8075867,19.5741882,23.0492859L19.5741882,23.0492859z"/>
		<path class="st3" d="M19.5741882,23.0492859c-1.9194031,2.8789062-1.1416016,6.7690735,1.7372742,8.6879883
			c2.879425,1.9198914,6.769104,1.1416016,8.6885376-1.7373047c1.9188843-2.8788757,5.8096008-3.6571655,8.6884766-1.737793
			c2.8789062,1.9194336,3.6572266,5.8091125,1.7373047,8.6879883c-3.8388977,5.7587891-11.6181946,7.3144226-17.3764954,3.4756165
			C17.2909851,36.5868835,15.7354126,28.8075867,19.5741882,23.0492859L19.5741882,23.0492859z"/>
		<path class="st1" d="M16.9672852,46.217804l-6.9506836-10.4258423 M14.3607788,47.9560852L7.4101257,37.5302734
			 M11.7543945,49.6933594L4.8037109,39.2675781"/>
		<path class="st1" d="M16.0986023,46.7978821L9.1479492,36.3710938l1.7377319-1.1582031l6.9507141,10.4257812
			L16.0986023,46.7978821L16.0986023,46.7978821z M13.4921875,48.5351868L6.5414734,38.109375l1.7378235-1.1592102
			l6.9507141,10.4268188L13.4921875,48.5351868L13.4921875,48.5351868z M10.8856812,50.2724915L3.9350586,39.8466797
			l1.7377625-1.1582031l6.9506531,10.4258118L10.8856812,50.2724915L10.8856812,50.2724915z"/>
		<path class="st1" d="M55.1963043,20.7323914l-6.9512177-10.4258118 M52.5897827,22.4701843l-6.9510803-10.4263
			 M49.9833984,24.2079773l-6.9512329-10.4263"/>
		<path class="st1" d="M54.3270874,21.3114624l-6.9501038-10.4257812l1.7373047-1.1586304l6.9510956,10.426239
			L54.3270874,21.3114624L54.3270874,21.3114624z M51.7206879,23.0492859l-6.9502106-10.4258118l1.7373047-1.1586914
			l6.9502106,10.4263L51.7206879,23.0492859L51.7206879,23.0492859z M49.1142883,24.7870789l-6.9501953-10.4263l1.7373047-1.1582031
			l6.9502106,10.4258118L49.1142883,24.7870789L49.1142883,24.7870789z"/>
		<path class="st1" d="M50.417984,16.3881836l2.6063843-1.737793 M44.7704773,20.1532898l3.0410156-2.0273132 M9.582489,43.6112976
			l2.6065063-1.7373047"/>
		<path class="st0" d="M50.9970856,17.2567749l-1.1581879-1.7373047l2.6063995-1.737793l1.1581879,1.737793L50.9970856,17.2567749
			L50.9970856,17.2567749z M45.3495789,21.0219727l-1.1581726-1.737793l3.039978-2.0274048l1.1591797,1.7378235
			L45.3495789,21.0219727L45.3495789,21.0219727z M10.1615906,44.4804993L9.003418,42.7431946l2.6064758-1.7383118
			l1.1582031,1.7383118L10.1615906,44.4804993L10.1615906,44.4804993z"/>
	</g>
</g>
</svg>
