<?xml version="1.0" encoding="utf-8"?>
<!-- Generator: Adobe Illustrator 22.1.0, SVG Export Plug-In . SVG Version: 6.00 Build 0)  -->
<svg version="1.1" id="Layer_1" xmlns="http://www.w3.org/2000/svg" xmlns:xlink="http://www.w3.org/1999/xlink" x="0px" y="0px"
	 viewBox="0 0 60 60" style="enable-background:new 0 0 60 60;" xml:space="preserve">
<style type="text/css">
	.st0{clip-path:url(#SVGID_2_);fill:#22613E;}
	.st1{clip-path:url(#SVGID_2_);fill:#FBD202;}
	.st2{clip-path:url(#SVGID_2_);fill:#16A1DC;}
	.st3{clip-path:url(#SVGID_2_);fill:#E5BF05;}
	.st4{clip-path:url(#SVGID_2_);fill:none;stroke:#16A1DC;stroke-width:3.4000001;}
	.st5{fill:#E5BF05;}
</style>
<g id="XMLID_1_">
	<g>
		<defs>
			<path id="SVGID_1_" d="M59,60H0.9999695C0.4477234,60,0,59.5526733,0,59V0.9999695c0-0.5522461,0.4477234-1,0.9999695-1H59
				c0.5526886,0,0.9999847,0.4477539,0.9999847,1V59C59.9999847,59.5526733,59.5526886,60,59,60L59,60z"/>
		</defs>
		<clipPath id="SVGID_2_">
			<use xlink:href="#SVGID_1_"  style="overflow:visible;"/>
		</clipPath>
		<polygon class="st0" points="-30,-0.0000305 59.9999847,-0.0000305 59.9999847,60 -30,60 -30,-0.0000305 		"/>
		<polygon class="st1" points="-30,-0.0000305 59.9999847,-0.0000305 59.9999847,44.9999695 -30,44.9999695 -30,-0.0000305 		"/>
		<polygon class="st2" points="-30,-0.0000305 59.9999847,-0.0000305 59.9999847,29.9999695 -30,29.9999695 -30,-0.0000305 		"/>
		<polygon class="st3" points="53.5497894,15.6747742 46.8495789,16.0663757 53.2206879,18.1791992 46.6464844,16.8231812 
			52.253891,20.5126953 46.2548828,17.5014648 50.7157745,22.5160828 45.7011719,18.0551758 48.7128906,24.0536804 
			45.023407,18.4467773 46.3788757,25.0204773 44.2666016,18.6493835 43.875,25.3500671 43.7919922,15.5917664 
			53.5497894,15.6747742 		"/>
		<polygon class="st3" points="53.5497894,15.6747742 46.8495789,15.2832031 53.2206879,13.1708984 46.6464844,14.526886 
			52.253891,10.8374023 46.2548828,13.8485718 50.7157745,8.8339539 45.7011719,13.2948608 48.7128906,7.2963562 
			45.023407,12.9032898 46.3788757,6.3295593 44.2666016,12.7006836 43.875,5.9999695 43.7919922,15.7582703 53.5497894,15.6747742 
					"/>
		<polygon class="st3" points="34.2001953,15.6747742 40.9003906,16.0663757 34.5292969,18.1791992 41.1034851,16.8231812 
			35.4960938,20.5126953 41.4950867,17.5014648 37.0342102,22.5160828 42.0487976,18.0551758 39.0370789,24.0536804 
			42.726593,18.4467773 41.3710938,25.0204773 43.4833679,18.6493835 43.875,25.3500671 43.9579773,15.5917664 
			34.2001953,15.6747742 		"/>
		<polygon class="st3" points="34.2001953,15.6747742 40.9003906,15.2832031 34.5292969,13.1708984 41.1034851,14.526886 
			35.4960938,10.8374023 41.4950867,13.8485718 37.0342102,8.8339539 42.0487976,13.2948608 39.0370789,7.2963562 
			42.726593,12.9032898 41.3710938,6.3295593 43.4833679,12.7006836 43.875,5.9999695 43.9579773,15.7582703 34.2001953,15.6747742 
					"/>
		<path class="st3" d="M43.875,12.8168945c1.5791016,0,2.8583984,1.2792664,2.8583984,2.8578796
			S45.4541016,18.5331726,43.875,18.5331726s-2.858429-1.2797852-2.858429-2.8583984S42.2958984,12.8168945,43.875,12.8168945
			L43.875,12.8168945z"/>
		<path class="st4" d="M43.875,12.8168945c1.5791016,0,2.8583984,1.2792664,2.8583984,2.8578796
			S45.4541016,18.5331726,43.875,18.5331726s-2.858429-1.2797852-2.858429-2.8583984S42.2958984,12.8168945,43.875,12.8168945
			L43.875,12.8168945z"/>
	</g>
	<path class="st5" d="M47.9931946,15.6532593c0,2.2744141-1.843811,4.1187134-4.1181946,4.1187134
		c-2.2744141,0-4.1182251-1.8442993-4.1182251-4.1187134c0-2.2749023,1.843811-4.1185608,4.1182251-4.1185608
		C46.1493835,11.5346985,47.9931946,13.3783569,47.9931946,15.6532593L47.9931946,15.6532593z"/>
</g>
</svg>
