<?xml version="1.0" encoding="utf-8"?>
<!-- Generator: Adobe Illustrator 22.1.0, SVG Export Plug-In . SVG Version: 6.00 Build 0)  -->
<svg version="1.1" id="Layer_1" xmlns="http://www.w3.org/2000/svg" xmlns:xlink="http://www.w3.org/1999/xlink" x="0px" y="0px"
	 viewBox="0 0 60 60" style="enable-background:new 0 0 60 60;" xml:space="preserve">
<style type="text/css">
	.st0{clip-path:url(#SVGID_2_);fill:#029E49;}
	.st1{clip-path:url(#SVGID_2_);fill:#CE1327;}
	.st2{clip-path:url(#SVGID_2_);fill:#020203;}
	.st3{clip-path:url(#SVGID_2_);fill:#FDD21A;}
	.st4{clip-path:url(#SVGID_2_);fill:#FFFFFF;}
</style>
<g id="XMLID_1_">
	<g>
		<defs>
			<path id="SVGID_1_" d="M59,60H0.9999695C0.4477234,60,0,59.5526733,0,59V0.9999695c0-0.5522461,0.4477234-1,0.9999695-1H59
				c0.5526886,0,0.9999847,0.4477539,0.9999847,1V59C59.9999847,59.5526733,59.5526886,60,59,60L59,60z"/>
		</defs>
		<clipPath id="SVGID_2_">
			<use xlink:href="#SVGID_1_"  style="overflow:visible;"/>
		</clipPath>
		<polyline class="st0" points="75.101593,-0.0679016 -15.1021118,-0.0679016 -15.1021118,60.0673828 		"/>
		<polyline class="st1" points="-15.1021118,60.0673828 75.101593,60.0673828 75.101593,-0.0679016 		"/>
		<line class="st2" x1="-15.1021118" y1="60.0673828" x2="75.101593" y2="-0.0679016"/>
		<polygon class="st3" points="-8.097168,70.5751953 -22.1069031,49.5604858 68.0966797,-10.5752258 82.1063843,10.4394836 
			-8.097168,70.5751953 		"/>
		<line class="st2" x1="-15.1021118" y1="60.0673828" x2="75.101593" y2="-0.0679016"/>
		<polygon class="st2" points="-10.0986023,67.5731812 -20.1055298,52.5624695 70.0976868,-7.5732727 80.105484,7.4375 
			-10.0986023,67.5731812 		"/>
		<polyline class="st4" points="42.468811,11.5692749 44.7450867,19.6742859 48.7978821,18.5361023 		"/>
		<polyline class="st4" points="42.468811,11.5692749 49.0741882,16.7880859 46.4647827,20.0912781 		"/>
		<polyline class="st4" points="52.3573761,11.9682922 45.352478,16.6381836 47.6874695,20.1405945 		"/>
		<polyline class="st4" points="52.3573761,11.9682922 49.4354858,19.8638 45.4872742,18.4022827 		"/>
		<polyline class="st4" points="55.0341949,21.496582 48.4277039,16.2772827 45.8183899,19.5805664 		"/>
		<polyline class="st4" points="55.0341949,21.496582 46.6221008,21.157196 46.7919922,16.9511719 		"/>
		<polyline class="st4" points="46.7987976,26.9862671 49.7216797,19.0907898 45.773407,17.6298828 		"/>
		<polyline class="st4" points="46.7987976,26.9862671 44.5224915,18.8808899 48.5751648,17.7427063 		"/>
		<polyline class="st4" points="39.0331726,20.8511047 47.445282,21.1903992 47.6151733,16.984375 		"/>
		<polyline class="st4" points="39.0331726,20.8511047 46.0380859,16.1811829 48.3729858,19.6835938 		"/>
		<polyline class="st4" points="8.1908875,34.4208679 10.467804,42.5263977 14.5204773,41.3876648 		"/>
		<polyline class="st4" points="8.1908875,34.4208679 14.7973938,39.6395874 12.1875,42.9433594 		"/>
		<polyline class="st4" points="18.0800781,34.8193054 11.0751648,39.4892578 13.4101868,42.9921875 		"/>
		<polyline class="st4" points="18.0800781,34.8193054 15.1576843,42.7147827 11.2099915,41.2538757 		"/>
		<polyline class="st4" points="20.7568054,44.3476868 14.1503906,39.1288757 11.5409851,42.4315796 		"/>
		<polyline class="st4" points="20.7568054,44.3476868 12.344696,44.0087891 12.5141907,39.8027039 		"/>
		<polyline class="st4" points="12.5220032,49.8378906 15.4437866,41.9423828 11.4960938,40.4813843 		"/>
		<polyline class="st4" points="12.5220032,49.8378906 10.2450867,41.7323914 14.2978821,40.5946655 		"/>
		<polyline class="st4" points="4.7558289,43.7020874 13.1679993,44.0419617 13.3374023,39.8358765 		"/>
		<polyline class="st4" points="4.7558289,43.7020874 11.7606812,39.032196 14.0956726,42.5351868 		"/>
	</g>
</g>
</svg>
