<?xml version="1.0" encoding="utf-8"?>
<!-- Generator: Adobe Illustrator 22.1.0, SVG Export Plug-In . SVG Version: 6.00 Build 0)  -->
<svg version="1.1" id="Layer_1" xmlns="http://www.w3.org/2000/svg" xmlns:xlink="http://www.w3.org/1999/xlink" x="0px" y="0px"
	 viewBox="0 0 60 60" style="enable-background:new 0 0 60 60;" xml:space="preserve">
<style type="text/css">
	.st0{clip-path:url(#SVGID_2_);fill:#CE1327;}
	.st1{clip-path:url(#SVGID_2_);fill:#243770;}
	.st2{clip-path:url(#SVGID_2_);fill:#FFFFFF;}
</style>
<g id="XMLID_1_">
	<g>
		<defs>
			<path id="SVGID_1_" d="M59,60H0.9999695C0.4477234,60,0,59.5526733,0,59V0.9999695c0-0.5522461,0.4477234-1,0.9999695-1H59
				c0.5526886,0,0.9999847,0.4477539,0.9999847,1V59C59.9999847,59.5526733,59.5526886,60,59,60L59,60z"/>
		</defs>
		<clipPath id="SVGID_2_">
			<use xlink:href="#SVGID_1_"  style="overflow:visible;"/>
		</clipPath>
		<polygon class="st0" points="0,-0.0000305 101.0009918,-0.0000305 101.0009918,60 0,60 0,-0.0000305 		"/>
		<polygon class="st1" points="0,-0.0000305 50.4999847,-0.0000305 50.4999847,25.25 0,25.25 0,-0.0000305 		"/>
		<polygon class="st2" points="25.25,1.0522461 26.9844055,6.3886719 22.4447937,3.0903015 28.0556946,3.0903015 
			23.5160828,6.3886719 25.25,1.0522461 		"/>
		<polygon class="st2" points="17.5346985,7.3647156 19.2689819,12.7011719 14.7294922,9.4028015 20.340271,9.4028015 
			15.8007812,12.7011719 17.5346985,7.3647156 		"/>
		<polygon class="st2" points="33.1405945,6.3125 34.7666016,11.3153687 30.5106812,8.2236023 35.7714844,8.2236023 
			31.515564,11.3153687 33.1405945,6.3125 		"/>
		<polygon class="st2" points="29.1079102,12.796875 30.1913757,16.1317749 27.3544922,14.0707703 30.8612976,14.0707703 
			28.0238953,16.1317749 29.1079102,12.796875 		"/>
		<polygon class="st2" points="25.25,17.5272827 27.417511,24.1981812 21.7431946,20.0751648 28.7572632,20.0751648 
			23.0830078,24.1981812 25.25,17.5272827 		"/>
		<polygon class="st2" points="25.25,1.0522461 25.9125671,3.0903015 28.0556946,3.0903015 26.3218079,4.3500671 
			26.9844055,6.3886719 25.25,5.1289062 23.5160828,6.3886719 24.1787109,4.3500671 22.4447937,3.0903015 24.5878906,3.0903015 
			25.25,1.0522461 		"/>
		<polygon class="st2" points="25.25,17.5272827 26.078064,20.0751648 28.7572632,20.0751648 26.5897827,21.6503601 
			27.417511,24.1981812 25.25,22.6234741 23.0830078,24.1981812 23.9105835,21.6503601 21.7431946,20.0751648 
			24.4223938,20.0751648 25.25,17.5272827 		"/>
	</g>
</g>
</svg>
