<?xml version="1.0" encoding="utf-8"?>
<!-- Generator: Adobe Illustrator 22.1.0, SVG Export Plug-In . SVG Version: 6.00 Build 0)  -->
<svg version="1.1" id="Layer_1" xmlns="http://www.w3.org/2000/svg" xmlns:xlink="http://www.w3.org/1999/xlink" x="0px" y="0px"
	 viewBox="0 0 60 60" style="enable-background:new 0 0 60 60;" xml:space="preserve">
<style type="text/css">
	.st0{clip-path:url(#SVGID_2_);fill:#026D36;}
	.st1{clip-path:url(#SVGID_2_);fill:#FFFFFF;}
</style>
<g id="XMLID_1_">
	<g>
		<defs>
			<path id="SVGID_1_" d="M59,60H0.9999695C0.4477234,60,0,59.5526733,0,59V0.9999695c0-0.5522461,0.4477234-1,0.9999695-1H59
				c0.5526886,0,0.9999847,0.4477539,0.9999847,1V59C59.9999847,59.5526733,59.5526886,60,59,60L59,60z"/>
		</defs>
		<clipPath id="SVGID_2_">
			<use xlink:href="#SVGID_1_"  style="overflow:visible;"/>
		</clipPath>
		<polygon class="st0" points="-15,-0.0000305 74.9999847,-0.0000305 74.9999847,60 -15,60 -15,-0.0000305 		"/>
		<path class="st1" d="M41.7450867,43.5810852c0.0020142-0.0010071,0.0028992,0,0.0038757,0
			c1.1162109,0.0458984,2.1651306,0.0086975,3.281311,0.0545959c0.1767273,0.1270142,0.0888062,0.4179993-0.0263977,0.4707031
			c-0.0067749,0.0029907-0.0126648,0.0049133-0.0194702,0.006897c-0.0039368,0-0.0098267-0.0010071-0.0147095,0
			c-0.0057983,0-0.0107117,0-0.015625,0l-0.9354553-0.0234985c-0.0010376-0.0146179-0.0030212-0.0302124-0.0079346-0.0448914
			c-0.0858765-0.2148132-0.7088928-0.2001953-0.8554077-0.0322266c-0.0029907,0.0029297-0.0048828,0.0068054-0.007782,0.0098267
			c-0.0029907,0.0039062-0.0058899,0.0087891-0.0079041,0.0126953c-0.0028992,0.0057983-0.0048218,0.0106812-0.0078125,0.0166016
			c-0.0018921,0.0057983-0.0028992,0.0155945-0.0038757,0.0223999c-0.0009155,0.0087891-0.0039062,0.0175781-0.0039062,0.0253906
			c-0.4883118,0.0498047-0.930603-0.0136719-1.4208984-0.0283203c-0.1426086-0.1513977-0.1269226-0.4248047,0.0429993-0.4901733
			H41.7450867L41.7450867,43.5810852z M41.2255859,41.2499695c-0.0010071,0-0.0019836,0.0029297-0.0028992,0.0029297
			c-0.7247009,0.1572876-0.702179,0.7909851-0.2373047,1.070282c-7.6503906,0-19.3912048-0.109314-21.9092102-0.109314
			c-1.4086609,0-5.8652954-0.141571-5.9511719-0.141571c0.9555969,1.1796875,2.340271,1.4198914,4.151886,1.4443054
			l23.6245117-0.0361328c-0.3184204,0.4775085,0.0292969,1.2470398,0.2782898,1.3867188
			c0.0057983,0.0028992,0.0137024,0.0068054,0.0195007,0.0097961c0.0097961,0.0039062,0.0195923,0.0078125,0.030304,0.0097046
			c0.0028992,0,0.0088196-0.0010071,0.0117188,0c0.296875,0.0585938,0.4267883-0.1230164,0.5274048-0.2549133
			c0.4803772,0.0352173,3.1893616,0.0684204,3.4374695-0.0028992c0.0009155-0.0009766,0.0028992-0.0028992,0.0039062-0.0039062
			c0.1669922,0.2090149,0.3338928,0.405304,0.6532898,0.3711243c0.5576172-0.101593,0.9979858-0.1523132,1.0117188-1.1094055
			c0,0-0.0566101-1.6298828-1.3252258-1.5272827c-0.3007812,0.0380859-1.1425781,0.109375-1.1425781,0.109375
			c-0.9746094-0.0976868-1.6884155-0.1075134-2.7842102-0.1416931c0.1006165-0.1083069,0.2792969-0.546814,0.0606079-0.7059937
			c-0.0566101-0.0400085-0.1416016-0.0625-0.2598267-0.054718h-0.0028992c-0.0019836,0-0.0067749,0-0.007782,0
			c-0.0010071-0.0009766-0.0028992-0.0028992-0.0039062-0.0038757c-0.0028992-0.0010376-0.0087891-0.0010376-0.0116882-0.0028992
			c-0.006897-0.0049438-0.0126953-0.0098267-0.0185852-0.0157166c-0.0019226-0.0018921-0.0068054-0.0047913-0.0078125-0.0068054
			c-0.0557251-0.0682983-0.085907-0.2352905-0.1221008-0.2773132l-0.0039062-0.0029907
			c-0.0010071,0-0.0028992-0.0028992-0.0038757-0.0028992c-0.0019226-0.0018921-0.0049438-0.0028992-0.007843-0.0039062H41.226593
			H41.2255859L41.2255859,41.2499695z"/>
		<path class="st1" d="M33.7421875,17.1586914c0.0195007,0.0868835,0.0419922,0.1742859,0.0566101,0.2637024
			c0.046875,0.1918945,0.0878906,0.3822937,0.131897,0.5722046c-0.1827087-0.2324219-0.3340149-0.4194336-0.3994141-0.4858093
			C33.1171875,17.0551758,33.539978,17.2118835,33.7421875,17.1586914L33.7421875,17.1586914L33.7421875,17.1586914z
			 M31.9823914,17.2153015c0.8310852,1.0292969,1.6308899,2.0639954,2.4032898,3.1342773
			c0.1202087,0.7948914,0.2099915,1.5717773,0.2666016,2.3461914c0.125,1.6978149,0.1631165,3.8110046,0.0489197,5.5986023
			c0.3457031,0.0151978,0.8983765-0.5136108,1.0926819-1.2840881c0.1260071-1.0660095-0.0449219-3.2413025-0.055603-3.8701782
			c-0.0087891-0.2607422-0.0263977-0.5727234-0.0458679-0.8989258c0.9393921,1.4136047,1.8153687,2.8682251,2.625,4.3594055
			c0.3124695-0.1358032,0.2430725-1.7543945,0.0604858-1.9819031c-0.6845093-1.3580017-1.6307983-2.6983032-1.9325867-3.2144165
			c-0.108429-0.1845703-0.4795227-0.7055664-0.9189453-1.3046875c-0.0800781-0.855011-0.1679688-1.5791016-0.2255859-1.7983093
			c-0.141571-0.9037781,0.4033203,0.101532,0.3271179-0.4234009c-0.1766968-0.902771-0.7168274-1.5160828-1.3554077-2.3432007
			c-0.2060852-0.2685852-0.2012024-0.3237915-0.5195923,0.0639038c-0.1903992,0.3974915-0.1875,0.7276306-0.1318054,1.0381165
			c-0.1054993-0.1416016-0.2167969-0.2782898-0.3349915-0.4092102l-1.0439148-0.8153992
			c-0.1436157-0.094696-0.4190063-0.2412109-0.6289062-0.2225952c-0.1260071,0.0151062-0.2255859,0.0785828-0.2637024,0.25
			c-0.0498047,0.4033203-0.0233765,0.6224976,0.0487976,0.9579773c0.0567017,0.2241211,0.4102173,0.598114,0.5840149,0.815918
			V17.2153015L31.9823914,17.2153015z M27.784668,22.2460938c0.495636,0.217804,1.6772156,0.0903015,1.3896179-0.6138306
			c0-0.0634766-0.0189819-0.2841797-0.0259094-0.343689c-0.0506897-0.1083984-0.1439819-0.1494141-0.2333984-0.1352844
			c-0.0897827,0.0151978-0.176178,0.0834961-0.207489,0.194397c-0.0195007,0.0737,0.0386047,0.195282-0.0332031,0.2329102
			c-0.0409851,0.0428772-0.2020874,0.0150757-0.1958008-0.1875c0-0.0640259-0.0516968-0.136322-0.0830078-0.1773071
			c-0.031189-0.0209961-0.0483093-0.0283203-0.1054993-0.0283203c-0.0687866,0.0020142-0.0697937,0.0210266-0.1087952,0.0728149
			c-0.016571,0.0498047-0.0375977,0.1083984-0.0375977,0.1698914c-0.0088196,0.0722351-0.0361938,0.0976257-0.0942993,0.1079102
			c-0.0643921,0-0.050293,0.0072937-0.1020203-0.0283203c-0.0292969-0.035675-0.0712585-0.042511-0.0712585-0.0971985
			c0-0.0497742-0.0122375-0.1439819-0.0298157-0.1801758c-0.0269165-0.0351257-0.074707-0.042511-0.1239929-0.0566101
			c-0.2709961,0.0010071-0.2871094,0.2841797-0.2715149,0.3920898c-0.0195007,0.0209961-0.0336914,0.532196,0.3353882,0.6733093
			L27.784668,22.2460938L27.784668,22.2460938z M19.1088867,24.7318726c-0.0112,0.1763,0.5282898,0.3911133,0.5610046,0.7984009
			c0.077179,0.1679077-0.1152039,0.7065125,0.0454102,0.7568054c0.1474915,0.0562134,0.3520813-0.3721008,0.4296875-0.7704773
			c0.042511-0.2183228-0.1855164-0.9814148-0.5726929-1.1177063c-0.0601196-0.0151367-0.1226196-0.0215149-0.1846008-0.0151367
			c-0.1870117,0.0151367-0.3540039,0.1040039-0.2788086,0.3471985V24.7318726L19.1088867,24.7318726z M29.2095032,26.0853882
			c-0.4619141,0.1459961-0.905304,0.2602844-0.9073181,0.875c0.0601196,0.304718,0.0473938,0.4638977-0.0039062,0.5375977
			c-0.0043945,0.0058899-0.0091858,0.0151978-0.0145874,0.0214844l-0.0039062,0.003418l-0.0038757,0.0039978
			c-0.0010071,0.0009155-0.002533,0.0018921-0.003418,0.0039062l-0.0038757,0.0033875
			c-0.002533,0.0010071-0.0054321,0.0019226-0.0079346,0.0039062c-0.0072937,0.0053711-0.0145874,0.0053711-0.0228882,0.0150757
			c-0.0064087,0.0020142-0.0151062,0.0020142-0.022522,0.0034485c-0.1098022,0.0151672-0.2689819-0.0815125-0.3876648-0.1386108
			c-0.2851257-0.1885071-1.0844116-0.6451111-1.1977234-1.6245117c-0.016571-0.2211914,0.1630859-0.4117126,0.4515991-0.4302063
			c0.0141907-0.0010071,0.0263977,0,0.0411072,0h0.0078125c0.4794922,0.1195984,1.1864929,0.1322937,1.8007812,0.1903992
			c0.4995117,0.0283203,0.746521,0.3901062,0.2783203,0.5415039V26.0853882L29.2095032,26.0853882z M30.9306946,22.1117859
			c0.0028992-0.0146179,0.007782-0.0209961,0.0145874-0.0351257c0.002533-0.0038757,0.0048828-0.0058899,0.0083313-0.0151978
			l0.0033875-0.0038757c0.0058899-0.0073242,0.0121765-0.0146179,0.0185852-0.0209961
			c0.0264282-0.0209961,0.0653992-0.035614,0.1094055-0.042511c0.093689-0.007782,0.2167969,0.0210266,0.3348999,0.0834961
			c0.1708984,0.0917969,0.2773743,0.2295227,0.2637024,0.3301086c-0.0010071,0.0020142,0.0010071,0.0058899,0,0.0151978
			c-0.0010071,0.0018921-0.0068054,0.0057983-0.007782,0.0151062l-0.0039062,0.0151062
			c-0.0010376,0.0014648-0.0030212,0.0053711-0.0039368,0.0053711c-0.0009766,0.0019226-0.0019836,0.0039368-0.0038757,0.0073242
			c-0.0058899,0.0078125-0.0137024,0.0214844-0.022522,0.0283203c-0.0820007,0.0712585-0.2724915,0.0566711-0.4520569-0.0351562
			c-0.1700134-0.0907898-0.2745361-0.2294617-0.2632141-0.3295898c0.0004883-0.0019836,0.0028992-0.0058594,0.0033875-0.0150757
			L30.9306946,22.1117859L30.9306946,22.1117859z M34.4813843,24.6029663l0.0040283-0.0033875
			c0-0.0004883,0.0028992-0.0039062,0.0028992-0.0039062c0.0009766-0.0004883,0.0028992-0.0018921,0.0038757-0.0039062v-0.0072937
			c0.0010071-0.012207-0.0009766-0.0239868-0.0038757-0.0357056l-0.2178345-0.118103l-4.3051758-0.0209961
			c-0.0531921-0.0214844-0.0927124-0.0429688-0.1167297-0.0497742c-0.0023804-0.0025024-0.0052795-0.0049133-0.007782-0.0074158
			l-0.0039062-0.0038757l-0.0033875-0.0039062l-0.0039062-0.0053101l-0.0038757-0.0039978v-0.0039062l-0.0039368-0.0033875
			v-0.0151062v-0.0185852l0.0039368-0.0039062l0.0038757-0.0057983c0.019989-0.0284119,0.0717773-0.0498047,0.1357117-0.0728149
			c1.0278931-0.1289062,2.8539734-0.4047852,2.9750977-2.023407c-0.0195007-0.8422852-0.3916016-1.3955078-1.5136108-1.5484009
			c-0.8251953,0.0567017-1.4130859,0.7940063-1.3183899,1.6040039c-0.0391235,0.2172852,0.0800781,0.6459961-0.1621094,0.6933899
			c-1.5820007,0.1333008-3.3091125,1.0458984-3.367218,1.7007141h-0.0033875l-0.0039062,0.0039062l-0.007782,0.0038757h-0.0083008
			c-0.0035095,0.0010071-0.0078125,0.0014954-0.0108032,0.003418h-0.0229187
			c-0.0048828-0.0010071-0.0097656-0.0019226-0.0147095-0.003418c-0.1029663-0.0282898-0.23526-0.1831055-0.2147522-0.4028015
			c-0.0601196-1.1303711-0.4595337-2.4091797-1.0845337-3.3945923c-0.2230835-0.2054749-0.3212891-0.2880859-0.3842773-0.2983093
			c-0.0018921,0-0.0053101,0-0.0078125,0H24.792511c-0.007843,0.0024109-0.0147095,0.0078125-0.0181274,0.0151367
			c-0.0043945,0.0019836-0.007782,0.0039062-0.0111694,0.0053711c-0.0484314,0.035614-0.1060486,0.1108093-0.2339172,0.1943054
			c-0.2153015,0.2261047-0.2539062,0.3833008-0.2406921,0.8365173c0.0116882,0.0423889,0.4091797,1.0643921,0.7456055,1.7807007
			c0.2264709,0.7431946,0.4364929,1.5947876,0.2821655,2.3984985c-0.5307922,1.0629883-1.5980835,2.0160828-2.6283875,2.5336914
			c-0.5249023,0.1547241-0.9784851,0.1019897-1.0996094-0.0039978l-0.0038757-0.0033875
			c-0.3013306-0.1875-0.308136-0.5180054-0.2896118-0.5761414v-0.0038757l0.0039062-0.0039978
			c0.8692017-0.5581055,1.8623047-1.008728,2.6397095-2.5160828c0.2299805-0.5761108,0.2997742-0.9214172,0.0718079-1.8120117
			c-0.0889282-0.3315125-0.198822-0.6044922-0.4444275-0.8398132l0.003418-0.0039062
			c0.1479797-0.0639954,0.5322876,0.1958008,0.5912781,0.035614c-0.0908203-0.425293-0.4028015-0.9960938-0.7567749-1.2880859
			c-0.3096313-0.2592163-0.6470337-0.289032-0.9302063-0.0493164c-0.3193054,0.1635742-0.3872375,0.7519836-0.233429,1.2666016
			c0.1704102,0.3876953,0.6319275,0.4551086,0.960022,1.2359009v0.0033875
			c0.0067749,0.0429077,0.112793,0.5835266-0.0523071,0.7983093c-0.1342163,0.3858032-1.8578796,1.6387024-1.980896,1.7149048
			c-0.0014954,0.0014038-0.0102844,0.0053101-0.0116882,0.0072937l-0.003418,0.0039062
			c-0.0014954,0.0009766-0.0024719,0.0018921-0.0039978,0.0038757c-0.0014038,0.0010071-0.0024109,0.0019226-0.0039062,0.003418
			H21.1362c-0.0014038-0.0010071-0.0024109-0.0019226-0.0039062-0.003418v-0.0038757
			c-0.0014038-0.0025024-0.0024109-0.0049133-0.0033875-0.0072937c-0.0054321-0.0357056,0.0038757-0.1109009,0-0.2398071
			c-0.0117188-0.2344055,0.093811-0.7661133,0.0863953-0.8573914v-0.0039062l-0.0039062-0.0033875V25.164093h-0.0033875
			c-0.570343,0.3388062-0.7583313,1.3793945-0.8628235,1.6870117c-1.4429016,0.9188843-3.0830078,1.6029663-4.0259094,2.5336609
			c-0.4916687,0.707489,3.387207-0.8119812,3.8378906-0.9960938c0.0039368,0.0019226,0.007843,0.0072937,0.011322,0.0151062
			c0.0853882,0.0863953,0.0932007,0.3897095,0.3500977,0.6625977c0.4032898,0.5029297,1.2601929,0.8130188,2.0942078,0.6206055
			c1.3983765-0.4653015,2.2041016-1.3442078,3.0243835-2.3182983c0.117218-0.1572876,0.3008118-0.2808228,0.4707336-0.1596985
			c0.5634766,1.1630859,2.1884766,1.9906921,4.2895813,2.0756836c0.4862976-0.5449829,0.2538757-0.8125,0.0560913-0.9267883
			c-0.0599976-0.0424805-1.0448914-0.3911133-1.1976929-0.7426758c-0.0961914-0.3276062,0.1377258-0.6181335,0.6064148-0.8364258
			c1.3485718-0.1503906,2.6748047-0.3173828,3.9580078-0.6972961c0.0126648-0.3978882,0.2675781-0.9916992,0.4374695-1.25
			c0.1181946-0.1791992,0.1933899-0.1966858,0.2217102-0.2221069L34.4813843,24.6029663L34.4813843,24.6029663z
			 M32.2079773,29.0263977c0,0.0209961,0.1943054,0.1708679,0.4219055,0.0423889
			c0.4804993-0.1689148,0.780304-0.3334045,1.4541016-0.4682007c0.1766968-0.0039062,0.1660156-0.4395142-0.1133118-0.4541016
			c-0.3651733,0.0209961-0.7011719,0.0350952-1.0664062,0.2983093c-0.2235718,0.0424805-0.2626648-0.078125-0.3124695-0.190918
			c-0.0566101-0.2797852,0.1278687-0.4775085,0.0907898-0.6875c0.0098267,0.0078125-0.1132812-0.0927734-0.2714844-0.1005859
			c-0.0576172-0.0019226-0.1141968,0.0078125-0.1660156,0.0357056c-0.0096741,0-0.5068054,0.3089905-0.6659851,0.5233765
			c-0.0977173,0.0713196-0.0869141,0.1279297-0.0566101,0.246582c0.0761108,0.1611328,0.2098999,0.1108093,0.3622742,0.0356445
			c0.2011414-0.0283203,0.2988281,0.0961914,0.2822266,0.319397C32.0741882,28.9042664,32.2079773,29.0087891,32.2079773,29.0263977
			L32.2079773,29.0263977L32.2079773,29.0263977z M49.7675781,18.3486023
			c0.0810242,0.2289734-0.1221008,0.9662781,0.0449219,1.0341797c0.1542664,0.0756836,0.371109-0.5092773,0.4520721-1.0516968
			c0.0440063-0.2958984-0.1942902-1.3378906-0.5995941-1.5235291c-0.031189-0.0057983-0.0643921-0.0150757-0.0975647-0.0150757
			c-0.2315063-0.0054016-0.483429,0.1542969-0.3838196,0.4721069c-0.0585938,0.1728821,0.4940796,0.7612915,0.5839844,1.0825806
			V18.3486023L49.7675781,18.3486023z M43.9257812,17.5658875c0.6982117,0.7919922,1.3818054,1.5977173,2.0487976,2.4160156
			c0.1455078,1.723175,0.1846008,3.3032532,0.3311157,5.0292969c-0.0205078,0.7382812-0.2666016,1.7187805-0.5,1.8119812
			c0,0-0.3575134,0.1885071-0.5957031-0.0213928c-0.1729126-0.0635071-0.8661804-1.0654907-0.8661804-1.0654907
			c-0.3545227-0.2998352-0.5909424-0.2138062-0.843811,0c-0.6953125,0.6191711-1.0107117,1.7797852-1.4833984,2.5791016
			c-0.1221008,0.1782837-0.4658203,0.3295898-0.8477173-0.0151062c-0.7850952-0.9902039-0.5625-2.3179016-0.5135803-2.5493164
			l-0.0098267,0.042511c-0.8641968,0.8973999-0.4813843,2.3842163-0.2860718,2.7041016
			c0.2842102,0.5249023,0.5145874,0.8612976,1.0693054,1.1210938c0.5048828,0.3421936,0.8983765,0.1289062,1.1151733-0.1109009
			c0.5079041-0.4852905,0.5147095-1.7255859,0.7530212-1.9711914c0.1669922-0.4516296,0.5858765-0.3735046,0.7909851-0.1737976
			c0.1981812,0.2621765,0.4316101,0.4335938,0.7225952,0.5761719c0.4747009,0.3847046,1.0401001,0.4550171,1.5976868,0.1045227
			c0.3809204-0.1972961,0.6279297-0.4537048,0.8506165-0.9585266c0.2391968-0.589386,0.1210938-3.6806641,0.0674133-5.4003601
			l1.0625,1.4193726c0.1532898,1.5088196,0.2236023,2.9960938,0.1727905,4.4219055
			c-0.0361023,0.2836914,1.0733032-0.8461914,1.0664062-1.3813782v-1.2875977
			c0.5381012,0.7919617,1.0585785,1.5971985,1.5507965,2.4120789c0.3056946-0.1478882,0.2011871-1.7411804,0.0077972-1.960907
			C50.6708984,24.5106812,50.0106964,23.6488953,49.5,22.9823914c-0.1016235-0.8423157-0.2393188-1.8340149-0.3018188-2.1382141
			c-0.0975952-0.4740906-0.1953125-1.1864929-0.3426819-1.7494812c-0.0401306-0.219696-0.1621094-0.9214172-0.124115-0.9887085
			c0.0606079-0.1567993,0.2872009,0.0053101,0.3995056-0.1773071c0.1670227-0.1689148-0.5811157-1.9546204-0.9609985-2.4648132
			c-0.1367188-0.2284851-0.3828125-0.1489868-0.6885071,0.2225952c-0.2840881,0.2447205-0.1815796,0.8023376-0.0722046,1.3330078
			c0.281189,1.3521118,0.5322266,2.7295227,0.7304077,4.1026306l-1.2578125-1.7007141l-0.055603-0.2676086
			c0-0.0282898-0.0605774-1.1063843-0.1132812-1.3641968c-0.0098267-0.1045227-0.0361023-0.1347961,0.0830078-0.1210938
			c0.1260071,0.0975952,0.1436157,0.1029663,0.2227173,0.1351929c0.1268616,0.0214844,0.2381592-0.1772156,0.1620483-0.360321
			l-1.1826782-2.0131836c-0.047821-0.0424805-0.1004944-0.0888977-0.1621094-0.0971985
			c-0.0614929-0.0078125-0.1289062,0.0209961-0.2041016,0.1210938c-0.1434937,0.1162109-0.2977905,0.3266907-0.2928772,0.5967102
			c0.0340881,0.4761047,0.1268921,0.9638062,0.1621094,1.4403992l0.0370789,0.190918
			c-0.0409851-0.0503235-0.0849915-0.0975952-0.1318054-0.1425171c-1.0079041-0.9756165,0.4618835-0.1596985-0.1923828-0.9130859
			c-0.5537109-0.5606079-0.7159119-0.7388306-1.1895142-1.0762024c-0.2382812-0.1416321-0.3818054-0.4121094-0.4598694,0.0424805
			c-0.0293274,0.4047852-0.0635376,0.8740234-0.0332336,1.2153015c-0.0019836,0.1890259,0.210907,0.5464172,0.3955078,0.7564087
			L43.9257812,17.5658875L43.9257812,17.5658875z M45.5429688,21.7802734
			c-0.0136719-0.0019836-0.0283813-0.0004883-0.0409851,0.0039062l-2.3544922,1.558075
			c-0.2276001,0.1875-0.1132812,0.8432312,0,0.7676086c0.1650085,0.0566101,2.477478-1.3862915,2.4335938-1.5551758
			c0.1004944,0.0053711,0.1493835-0.7431946-0.0381165-0.7739258V21.7802734L45.5429688,21.7802734z M36.5917969,17.0424805
			c0.1777039,0.4565125-0.1347961,0.8916016,0.0498047,0.9545898c0.1688843,0.0708313,0.4042969-0.4721985,0.4931641-0.972168
			c0.101532-0.4043274-0.211853-1.234436-0.6552734-1.4053345c-0.0341797-0.007782-0.0703125-0.007782-0.1054993-0.0150757
			c-0.2539062-0.0073242-0.5350952,0.1410828-0.4258118,0.4335938c-0.063385,0.1600952,0.5458984,0.7035828,0.6436157,0.9994812
			V17.0424805L36.5917969,17.0424805z M38.570282,27.0180969c-0.7969055,0.7670593-1.9462891,1.7124023-3.1972961,2.1488953
			c-0.1346741,0.1386719,0.3340149,0.7328796,0.9414978,0.7323914c1.0146179-0.1083984,1.907196-0.6338196,2.734314-2.0166016
			c0.2207031-0.3226929,0.609375-1.0131836,0.6210938-1.5483093c0.0772095-3.137207-0.170929-5.5766907-0.6815796-7.8442993
			c-0.032196-0.2211914-0.0108337-0.4814148,0.0302734-0.5487976c0.0643921-0.0722961,0.2879944,0.0020142,0.4062195-0.1772156
			c0.1737671-0.1625977-0.4629211-1.516571-0.8242188-2.0375977c-0.0722961-0.1304016-0.1171875-0.2344055-0.1817017-0.2285767
			c-0.0487976,0.0035095-0.1102905,0.0751953-0.2030945,0.2573853c-0.2236023,0.3379211-0.375,0.9248047-0.3574219,1.4750977
			c0.4833984,3.0892944,0.6318359,5.7929077,0.9482117,8.8823242c0.0264282,0.2987976-0.0213928,0.7328796-0.2362976,0.9057922
			V27.0180969L38.570282,27.0180969z M41.1611023,27.7328796c0.3457031,0.0020142,0.7452087-0.7279968,0.9151001-1.4506836
			c0.093689-0.9956055-0.0625-1.6015015-0.0899353-2.1865234c-0.0282898-0.5853882-0.7186584-5.3330078-0.8592529-5.7758789
			c-0.1680298-0.8369141,0.6717529-0.1108093,0.5799866-0.5967102c-0.2900085-0.6137085-1.015625-1.5086975-1.242218-2.0410156
			c-0.085907-0.1430054-0.0965881-0.2749023-0.1660156-0.2631836c-0.0419617,0.0073853-0.1034546,0.0635071-0.218689,0.2045898
			c-0.2831726,0.8540039-0.382782,1.5517883-0.2743835,2.0826111c0.727478,3.5024109,1.4736023,6.6932983,1.3554077,10.0272827
			V27.7328796L41.1611023,27.7328796z M44.25,21.7987976c0.0087891-0.4301147,0.0536804-1.0018921,0.0791016-1.3574219
			c0.0106812-0.1347961,0.0448608-0.282196,0.1846008-0.315918c0.1395874-0.035675,0.3807983,0.1289062,0.3837891-0.0150757
			c-0.0254211-0.2734985-0.0849915-0.6767883-0.2519836-0.8676758c-0.085907-0.1177368-0.2266235-0.1807251-0.3730164-0.1880493
			c-0.2431946-0.0146484-0.5029907,0.1348267-0.5694275,0.440918c0.0020447,0.1807251,0.0889282,0.280304,0.0723267,0.4439087
			c-0.0254211,0.0932007-0.1309204,0.1552124-0.3808899,0.0424194c0.0401001-0.035614-0.1621094-0.2954102-0.1621094-0.2954102
			c-0.195282-0.1094055-0.4551086,0.0053711-0.6250305,0.1073914c-0.0927734,0.156311-0.1620483,0.424408-0.0555725,0.6972961
			c0.2792969,0.4771118,1.2402039,1.2904968,1.6982117,1.2984009V21.7987976L44.25,21.7987976z M36.2578125,19.8998718
			c0.4950867,0.2173157,1.4286804,0.1221313,1.389679-0.6142883c0-0.0639038-0.0195923-0.2841187-0.0263977-0.3437195
			c-0.0507812-0.109375-0.1445007-0.1493835-0.2333984-0.1352844c-0.0897827,0.0147095-0.1758118,0.0854797-0.2070007,0.1983032
			c-0.0205078,0.0737,0.0381165,0.1918945-0.0342102,0.2290039c-0.0410156,0.042511-0.2022095,0.0150757-0.1963196-0.1880188
			c0-0.0634766-0.0507812-0.1362-0.0829773-0.1771851c-0.031311-0.0209961-0.0518188-0.0284119-0.1083984-0.0284119
			c-0.0693054,0.0019836-0.0673828,0.0215149-0.1054993,0.0733032c-0.0166016,0.0493164-0.0380859,0.1079102-0.0380859,0.1698914
			c-0.007843,0.0722961-0.0361023,0.0971985-0.0937195,0.1079102c-0.0644836,0-0.0536804,0.0054016-0.1054993-0.0283203
			c-0.030304-0.035675-0.0673828-0.0424805-0.0673828-0.097168c0-0.0498047-0.015625-0.1439819-0.0341187-0.180603
			c-0.0273743-0.0357056-0.0704041-0.0430298-0.1202087-0.0567017c-0.2713928,0.0010071-0.2871094,0.2842102-0.2713928,0.3916016
			c-0.0195923,0.0209961-0.0341797,0.532196,0.3349304,0.6734009V19.8998718L36.2578125,19.8998718z M42.5438843,29.507782
			l-1.1151733,0.1109009L42.5438843,29.507782L42.5438843,29.507782z M15.0634766,23.4379883
			c-0.0004883,0.0004883,0,0.0038757,0,0.0038757c-0.0010071,0.0014954-0.0029907,0.0054016-0.0039062,0.0054016
			c-0.0498047,0.0566101-0.2255859,0.035614-0.3500977,0.035614c-0.1513977-0.0057983-0.2255859-0.0282898-0.3164062-0.1426086
			c-0.043457-0.1263733,0.0883179-0.2499695,0.1469421-0.343689c0.0004883-0.0010071,0.0029907-0.0020142,0.003479-0.0038757
			c0.007782-0.0054321,0.0166016-0.0210266,0.0263062-0.0283508c0.0453796-0.0424805,0.1235962-0.0737915,0.2070923-0.0834961
			c0.0166016-0.0019836,0.032196-0.0038757,0.0493164-0.0038757c0.1161804,0.0014038,0.2396851,0.0498047,0.3046875,0.2050171
			c0.0483093,0.120575,0.0223999,0.2558594-0.0674133,0.3544922V23.4379883L15.0634766,23.4379883z M17.539093,26.6439819
			c0.5160828-1.5825195-0.0103149-2.7763062,0.1621094-2.9223022c0.0014038-0.0014954,0.0062866-0.0020142,0.0082703-0.0038757
			c0.0014038-0.0010376,0.0053101-0.0020142,0.0078125-0.0039368c0.0015259-0.0004883,0.0054016-0.0039062,0.0078125-0.0039062
			c0.0072937-0.0019836,0.0145874-0.003479,0.0224915-0.003479c0.6362,0.6314087,1.5292969,0.0801086,1.7250977-0.1390991
			c0.0838928-0.1088867,0.2939148-0.179718,0.4403992-0.042511c0.4966125,0.3291016,1.3661804,0.1738281,1.5477905-0.4057922
			c0.105011-0.5672913,0.1939087-1.1508179,0.2149048-1.7562866c-0.3233032,0.0927734-0.5840149,0.1621094-0.6895142,0.2636719
			c-0.024353,0.0282898-0.0428772,0.0493164-0.0487671,0.0835266l-0.0830078,0.5028687
			c-0.0023804,0.0151367-0.0078125,0.0283203-0.0147095,0.0430298c-0.0146179,0.0209961-0.0360718,0.0423889-0.0599976,0.0492859
			c-0.1143188,0.0566101-0.3139954,0.0283203-0.3241882-0.1279907c-0.1534119-0.6445007-0.7867126-0.7284851-1.1708984,0.2705994
			c-0.2588196,0.1932983-0.7309875,0.230896-0.7798157-0.0567017c0.0625-0.6704102-0.2309875-0.7601929-0.8174133-0.4443054
			l-0.5648804-3.9219055c0.2451172-0.0058899,0.4692078,0.1567383,0.6932983-0.101593
			c-0.2412109-0.6943054-0.7548828-2.1063843-1.043396-2.238678c-0.0020142-0.0010071-0.0054016-0.0020447-0.0079041-0.0039062
			c-0.0131226-0.0147095-0.0267944-0.0288086-0.0410156-0.042511c-0.0057983-0.0039062-0.0121765-0.0072937-0.0184631-0.0151978
			c-0.0054321-0.003418-0.0132141-0.0053101-0.0181274-0.0145874c-0.012207-0.0059204-0.0249023-0.0151367-0.0375671-0.0151367
			c-0.0259094-0.0058899-0.0527039-0.0058899-0.0791016-0.0058899l0,0
			c-0.0718079,0.0058899-0.1514282,0.0430298-0.2445984,0.0639954c-0.3076172,0.0908203-0.5957336,0.3354187-0.5049133,0.8120117
			l0.964386,5.6269226c0.055603,0.2377625-0.1612244,0.5522766-0.4410095,0.5204773
			c-0.4750977-0.2958984-0.5921936-0.8973999-1.4042664-0.8710938c-0.5874023,0.0058899-1.2573242,0.5953064-1.3408203,1.1625977
			c-0.098114,0.4507141-0.132782,0.9400024,0,1.3330994c0.4115906,0.4570007,0.907196,0.4091187,1.3408203,0.305603
			c0.3564758-0.1357117,0.6494751-0.4595032,0.7753906-0.3822937c0.0004883,0.0004883,0.003479,0,0.0039062,0
			c0.0004883,0.0004883-0.0004272,0.0038757,0,0.0038757c0.0776978,0.1255188-0.0072937,1.1841125-1.6796265,2.0029297
			c-1.0278931,0.4248047-1.8461914,0.5263977-2.2861938-0.2470093c-0.2728882-0.4830017,0.0195007-2.3228149-0.6517944-1.8984985
			c-1.9853821,4.7167969,4.6517944,5.3754883,5.3934937,0.1938782c0.0479126-0.1454773,0.194397-0.2924805,0.2973938-0.2563782
			c0.0449219,0.0214844,0.0869141,0.074707,0.1020203,0.1801758c-0.1542969,4.690918-5.1352234,5.0126953-5.980896,3.5371094
			c-0.2095032-0.348114-0.2730103-1.1225891-0.2940369-1.5863953c-0.0380859-0.2807922-0.1146851-0.4429016-0.203064-0.506897
			c-0.2007141-0.1386108-0.4721985,0.2255859-0.53125,0.8574829c-0.0839844,0.5088196-0.0600586,0.6479187-0.0600586,1.1386108
			c0.2655945,3.7046204,6.675293,2.1133118,7.7167969-0.9476929L17.539093,26.6439819L17.539093,26.6439819z M8.6611023,28.2064819
			c-0.3129578,0.5859985-0.4433289,0.1846008-0.4706726-0.1424866c-0.0473633-0.6210938,0.0170898-1.1924133,0.090332-1.6451111
			c0.039032-0.2324219,0.0375671-0.313385,0.0078125-0.3125c-0.0297852,0.0010071-0.0898438,0.0835266-0.1694641,0.175293
			c-0.7079773,1.0401001-0.7709961,2.5918274-0.3803406,3.054718c0.207489,0.218811,0.5498047,0.3144836,0.8022461,0.246582
			c0.4448242-0.1781921,0.6401062-1.0083008,0.5346375-1.3120117c-0.148407-0.2147827-0.2660828-0.2480774-0.414032-0.0634766
			L8.6611023,28.2064819L8.6611023,28.2064819z M7.9902039,24.6108093l3.7660828-1.6660461
			c-0.2059937-0.2831726-0.0125732-0.5380859-0.7871094-0.5585632C9.7792969,22.4071655,8.0361328,23.8236694,7.9902039,24.6108093
			L7.9902039,24.6108093L7.9902039,24.6108093z M51.9247742,18.4589844
			c-0.032196-0.2211914-0.1386871-0.7285156-0.0976715-0.7948914c0.0654755-0.155304,0.3974915,0.0150757,0.515686-0.1631165
			c0.1738129-0.1636047-0.8583984-1.3813782-1.2198181-1.9019165c-0.0721741-0.1302795-0.1170959-0.2382812-0.1805725-0.2323608
			c-0.0498047,0.0033875-0.1112976,0.0785828-0.2041168,0.2597656c-0.2236786,0.3379211-0.3007965,0.941925-0.2109985,1.4751282
			c0.5381012,3.3548889,0.9384918,6.6034851,1.0206146,9.5765991c-0.0458984,0.282196-0.0586243,0.4325867-0.2032013,0.7880859
			c-0.3173981,0.3745117-0.6679077,0.8457031-0.9980011,1.0723267c-0.3301086,0.2269897-1.0322113,0.4432983-1.2617035,0.6107788
			c-0.7286072,0.3887024-0.7333984,0.8344727-0.1426086,0.8505859c1.0146179-0.1083984,2.2158051-0.1850891,3.0430145-1.3363953
			c0.2206879-0.3222961,0.4813995-1.1968079,0.4930878-1.7319946C52.5556793,23.7943726,52.4354706,20.726593,51.9247742,18.4589844
			L51.9247742,18.4589844L51.9247742,18.4589844z M48.8397827,28.9154663
			c-0.093689-0.0990906-0.305603-0.0428772-0.4481812-0.0498047c-0.0674133,0-0.2910156-0.0355835-0.1846008-0.2118835
			c0.0888977-0.112793,0.1210938-0.1801758,0.1817017-0.3197937c0.0663757-0.1358032,0.007782-0.2271118-0.2344055-0.3018188
			c-0.1221008-0.0209656-0.2080078-0.0282898-0.296936-0.0282898c-0.0897827,0.0039062-0.1835632,0.0151062-0.3202515,0.0282898
			c-0.147522,0.0283203-0.1992188,0.0884094-0.2256165,0.2530212c0.0108032,0.2503967,0.1767883,0.2373047,0.3457031,0.3369141
			c0.0986938,0.1151733,0.1630859,0.219696-0.0078125,0.4086914l-0.4364929,0.3471069
			c-0.0762024,0.1191711-0.1231079,0.3032837,0.1094055,0.3608704c0.4296875,0.1112976,1.4237976-0.4838867,1.4237976-0.496582
			c0.1601868-0.1112976,0.1073914-0.3228149,0.093689-0.3228149V28.9154663L48.8397827,28.9154663z M20.5078125,19.0248718
			c-0.4385376,0.2183228-0.6079102,0.867218-0.3349304,1.2461243c0.2547913,0.3334656,0.6577148,0.2124023,0.7114258,0.2124023
			c0.4296875,0.0492859,0.6854858-0.7431946,0.6854858-0.7431946s0.0126953-0.223114-0.4970093,0.1977539
			c-0.2148743,0.042511-0.2436829-0.0351562-0.2973938-0.144989c-0.0448914-0.2065735-0.0352173-0.4155884,0.0668945-0.6210938
			c0.047821-0.1230774,0.0004883-0.2016907-0.101593-0.2118835c-0.0599976-0.0054016-0.1411133,0.0150757-0.233429,0.0639038
			L20.5078125,19.0248718L20.5078125,19.0248718z M23.5380859,20.4052734
			c0.5785828,0.2207031,0.9458008-0.7939758,1.1826172-1.9052734c0.1620789-0.3125305,0.2855835-0.3471985,0.3690796-0.1880188
			c-0.0213928,1.4780273,0.1148071,1.8081055,0.5274048,2.2564087c0.9194031,0.6537781,1.6802063,0.0829773,1.7396851,0.0282898
			l0.7159119-0.6596985c0.1591187-0.1548157,0.3701172-0.1636047,0.594696-0.0283203
			c0.2192078,0.1826172,0.1908875,0.4995117,0.6592102,0.7187195c0.3945007,0.1451111,1.2362976,0.0351868,1.4315796-0.2778015
			c0.262207-0.4154968,0.3267212-0.5581055,0.4478149-0.7153015c0.1875-0.2304993,0.5086975-0.1275024,0.5086975-0.0493164
			c-0.0301819,0.1279297-0.218689,0.254425-0.0908203,0.4858093c0.2237244,0.1538086,0.2754211,0.0498047,0.4073181,0.0215149
			c0.4667053-0.2055969,0.8172913-1.1387024,0.8172913-1.1387024c0.0205078-0.3480835-0.1942749-0.3208008-0.3319702-0.25
			c-0.1787109,0.1011047-0.1895142,0.1352844-0.3691101,0.2359009c-0.2276001,0.0350952-0.6700134,0.1699219-0.8887024-0.1426086
			c-0.2226868-0.375-0.2245789-0.8979797-0.3950195-1.2773743c0-0.0283203-0.2988892-0.5952148-0.0229797-0.6313171
			c0.1392212,0.0282898,0.4385071,0.094696,0.4862976-0.1353149c0.1455994-0.2245789-0.3153992-0.8623047-0.629303-1.1835938
			c-0.2724915-0.2757874-0.6489868-0.3089905-1.0132141-0.0282898c-0.2548828,0.2157898-0.2172852,0.4584961-0.2675781,0.6875
			c-0.0644836,0.2626953-0.0523071,0.5888977,0.2373047,0.9370117c0.2549133,0.4618835,0.717804,1.0566711,0.5653992,1.894989
			c0,0-0.2690125,0.398468-0.742218,0.3471985c-0.1972046-0.0424805-0.5184937-0.118103-0.6893921-1.2807007
			c-0.1289062-0.8799133,0.032196-2.112793-0.3725891-2.6900024c-0.090332-0.2173157-0.1704102-0.4291992-0.3012085-0.4130859
			c-0.0791016,0.0058899-0.175293,0.1011047-0.3091125,0.3266907c-0.0956726,0.2338867-0.5092773,0.5883789-0.2109985,1.3192749
			c0.2442017,0.4624023,0.3442993,1.2158508,0.2339172,2.054718c-0.1694031,0.237793-0.2080078,0.3208008-0.4296875,0.5581055
			c-0.3110352,0.309082-0.648407,0.2299805-0.9072266,0.1147766c-0.2421875-0.1498718-0.4320984-0.2270813-0.5424805-0.704071
			c0.0195923-0.7608032,0.0673828-2.0059204-0.0830383-2.2701111c-0.2225952-0.4090881-0.5887756-0.262207-0.745575-0.1390991
			c-0.7528992,0.6343079-1.125,1.7055054-1.3520203,2.558075c-0.2089539,0.6201477-0.4316711,0.4414368-0.5878601,0.1904297
			c-0.3804321-0.3286133-0.4068298-2.8970032-0.8662109-2.4746094c-0.7353821,1.9370117,0.4223022,4.0591125,1.2240906,3.8530273
			V20.4052734L23.5380859,20.4052734z M20.921875,16.1132812c0.0083313-0.0015259,0.0151367-0.0038757,0.0229187-0.0038757
			c0.1156921-0.0147095,0.2553711,0.0873718,0.3237915,0.2255859c0.0732117,0.1473694,0.0361023,0.2885132-0.0825806,0.3158875
			c-0.1191101,0.0283203-0.273407-0.0708008-0.3466187-0.2183228c-0.0728149-0.1473694-0.0362244-0.2924805,0.0830078-0.3197632
			L20.921875,16.1132812L20.921875,16.1132812z M18.1156921,19.2362976c0.0004883,0,0.0030212-0.0005188,0.0038757,0
			c0.0005188,0,0.0030212,0.0033875,0.0039368,0.0033875c0.0004578,0.0004883,0.0025024,0,0.003479,0l0.0039062,0.0039978
			c0.0941772,0.0566101,1.2539062,0.0566101,1.3823242,0.0039062c0.0009766-0.0010071,0.0028992-0.0039062,0.0033875-0.0039062
			c0.0010071-0.0004883,0.0033875,0.0003967,0.0039062,0c0.0004883,0,0-0.0039978,0-0.0039978
			c0.3983765-0.1352234,2.289978-2.1274109,2.289978-2.1274109c-0.0980835-0.0776062-0.1884155-0.1347961-0.2860718-0.2118835
			c-0.1050415-0.0845032-0.0947266-0.1660156,0-0.25c0.4682617-0.2510071,0.3197632-0.8041992,0.0751648-1.0557251
			c-0.2030945-0.0834961-0.3939819-0.1117859-0.5649109-0.1040039c-0.1572876,0.0049133-0.3115845,0.0440063-0.452179,0.1148376
			c-0.3286133,0.2894592-0.4057007,0.7543945-0.1464844,1.0444031c0.2514648,0.109375,0.5019836,0.3432922,0.3349609,0.472168
			c-0.7128601,0.7011108-2.5653687,1.8725281-2.6591797,2.085907c-0.0004883,0.0019836-0.0018921,0.0039062-0.0033875,0.0058899
			c-0.0005188,0.0014038,0,0.0053101,0,0.0073242v0.0039062c0.0009766,0.0019836,0.0019836,0.0038757,0.0033875,0.0072937
			L18.1156921,19.2362976L18.1156921,19.2362976L18.1156921,19.2362976z M8.7939453,21.4374695
			c1.4472351,0.128418,0.6479187-2.2539062,1.1713867-2.6864929c0.0991516-0.2134094,0.2826538-0.2172852,0.2978516,0.0498047
			v2.023407c-0.0136719,0.6577148,0.4565125,0.8534851,0.8208008,0.9892883
			c0.3793945-0.0282898,0.6307983-0.0209961,0.7798157,0.3226929l0.180603,3.5020142c0,0,0.8769836,0.2319031,0.9189758-1.967804
			c0.0420227-1.2919922-0.2792664-2.3764954-0.0903931-2.6273804c0.0064087-0.2466431,0.3500977-0.2598267,0.5874023-0.1392212
			c0.3785095,0.2461243,0.5464172,0.5483093,1.1338196,0.4267883c0.8940735-0.2270813,1.433075-0.6274719,1.4462891-1.2602844
			c-0.0516968-0.6015015-0.1278992-1.203125-0.4105835-1.8046875c0.0389709-0.109314-0.170929-0.3935242-0.1319275-0.503418
			c0.1607056,0.2324219,0.4039001,0.2128906,0.4595032,0c-0.1523132-0.4618835-0.3890991-0.905304-0.7720032-1.0967102
			c-0.3164062-0.2572937-0.7796936-0.2035828-0.9492188,0.3330383c-0.0785828,0.617157,0.2432251,1.3491821,0.7310181,1.9472656
			c0.1035156,0.2329102,0.2485046,0.6221313,0.1841125,0.972229c-0.2593079,0.1362-0.5166321,0.0791016-0.7344055-0.131897
			c0,0-0.7113953-0.4912109-0.7113953-0.6006165c0.1884155-1.1146851,0.039978-1.2420959-0.0640259-1.5517273
			c-0.0731812-0.4263-0.2924805-0.5619812-0.4706726-0.8534546c-0.1782227-0.1739197-0.4194031-0.1739197-0.5346985,0
			c-0.3149109,0.5023804-0.1670227,1.582489,0.0600891,2.0653687c0.1644897,0.4443054,0.4159851,0.7217102,0.2977905,0.7217102
			c-0.098114,0.2510071-0.301178,0.1929016-0.4482117-0.0971985c-0.2099915-0.5996094-0.2523804-1.4921875-0.2523804-1.8950195
			c-0.0625-0.4989624-0.1333008-1.5653687-0.4897766-1.8363647c-0.0952148-0.1197205-0.2075195-0.1607361-0.3164062-0.1494141
			c-0.1401062,0.0151062-0.2720032,0.1201172-0.335022,0.2601929c-0.023407,0.4956055-0.0263062,0.9907227,0.0336914,1.4472961
			c0.2447205,0.8012085,0.3223267,1.5053101,0.4410095,2.3257141c0.0326843,1.0986023-0.6885071,0.4745789-0.6552734-0.0708008
			c0.1664734-0.7076111,0.1200867-1.8213196-0.0263977-2.1036072c-0.117218-0.282196-0.2529297-0.3520203-0.5386353-0.305603
			c-0.2265015-0.0147095-0.8119507,0.5757141-0.9755249,1.5483093c0,0-0.1362305,0.4994812-0.1958313,0.944397
			c-0.0800476,0.5024109-0.4413757,0.8583984-0.6928711-0.0713196c-0.2177429-0.6738892-0.3515625-2.3359985-0.7157898-1.9467773
			c-0.1045227,1.2973938-0.2280273,3.5800781,0.9682617,3.8143921L8.7939453,21.4374695L8.7939453,21.4374695z
			 M23.2479858,16.5561829c0.140686,0.1854858,0.2792969,0.1665039,0.5610962,0.0355835
			c0.1621094-0.1098938,0.2167969-0.1811829,0.2715149-0.3651733c0.0668945-0.3091125-0.3530884,0.1459656-0.4067993-0.1983337
			c-0.0942078-0.3197937,0.1742859-0.4506836,0.4291992-0.7601929c0.0058899-0.1454773,0.0083008-0.2641907-0.0942078-0.2680969
			c-0.046875-0.0009766-0.1166992,0.0215149-0.2144165,0.0757141C23.5737,15.2113953,23.137207,15.6312866,23.1239929,16.1138
			c-0.0136108,0.2718811-0.0687866,0.2704773,0.1239929,0.4442749V16.5561829L23.2479858,16.5561829z M26.7846985,16.7538757
			c0.2845764-0.7089844,0.2861023-1.0112,0.3050842-1.3119812c-0.0438843-0.2290039-0.1522827-0.3394165-0.2749023-0.3301086
			c-0.122467,0.0147095-0.2583008,0.1410828-0.3685913,0.3955078c-0.0951843,0.1938782-0.2113953,1.2041016-0.1924133,1.2041016
			c-0.0756836,0.3012695,0.3413086,0.4281921,0.5308228,0.0429993V16.7538757L26.7846985,16.7538757z M9.2792664,16.5463867
			c0.0761719,0.1742859-0.0751648,0.7358093,0.0830078,0.7875977c0.1455078,0.0566101,0.3457336-0.3892212,0.4219055-0.8018188
			c0.0419922-0.2259827,0.0097656-0.9994812-0.5610657-1.1591797c-0.0297546-0.0057983-0.0595703-0.0151062-0.090332-0.0151062
			c-0.2187195-0.0054016-0.4594421,0.1192017-0.3656921,0.3609009c-0.054718,0.1318054,0.4277344,0.5765991,0.5121765,0.8226929
			V16.5463867L9.2792664,16.5463867z M13.2524109,16.5746765c0.4960632,0.2173157,1.425293,0.1260071,1.3862915-0.6108093
			c0-0.0639648-0.0157166-0.2842102-0.0230103-0.3437805c-0.050293-0.1083984-0.1440125-0.1493835-0.2333984-0.1357117
			l0.0010071,0.0004883C14.2929993,15.5,14.207489,15.5683594,14.1762695,15.6791687
			c-0.0199585,0.0737,0.0337219,0.1953125-0.0375671,0.2324219c-0.0410156,0.042511-0.198822,0.0147095-0.1924133-0.190918
			c0-0.0635071-0.0517883-0.1322937-0.082489-0.1732788c-0.031311-0.0215149-0.0528259-0.0284119-0.1094055-0.0284119
			c-0.0689087,0.0014954-0.0674133,0.0209961-0.1055298,0.0727844c-0.0170593,0.0498047-0.0380859,0.1079102-0.0380859,0.1698914
			c-0.0082703,0.0723267-0.039978,0.097229-0.098114,0.1079102c-0.0644836,0-0.0502625,0.0054321-0.1015625-0.0282898
			c-0.0298157-0.035614-0.0673218-0.0424805-0.0673218-0.0971985c0-0.0498047-0.0157166-0.1445007-0.0341797-0.180603
			c-0.0274048-0.035675-0.0699158-0.0498047-0.1200867-0.0639954c-0.2710266,0.0010071-0.2906494,0.2870789-0.2754211,0.3954773
			c-0.0196228,0.0210266-0.030304,0.5274048,0.3392944,0.6699219L13.2524109,16.5746765L13.2524109,16.5746765z
			 M45.2157898,25.8642883c0.1542969,0.075592,0.5606079-0.3843079,0.5458984-0.9614868
			c0.0448914-0.2964172-0.1141968-1.390625-0.5195007-1.5761108c-0.0469055-0.0147095-0.0977173-0.0210266-0.1465149-0.0147095
			c-0.2118835,0.0282898-0.4120789,0.2080078-0.320282,0.5028992c-0.0575867,0.1729126,0.2870789,0.7789001,0.3768921,1.1000977
			c0.0800781,0.2290039-0.1044006,0.8760071,0.0635071,0.9444275V25.8642883L45.2157898,25.8642883z"/>
	</g>
</g>
</svg>
