<?xml version="1.0" encoding="utf-8"?>
<!-- Generator: Adobe Illustrator 22.1.0, SVG Export Plug-In . SVG Version: 6.00 Build 0)  -->
<svg version="1.1" id="Layer_1" xmlns="http://www.w3.org/2000/svg" xmlns:xlink="http://www.w3.org/1999/xlink" x="0px" y="0px"
	 viewBox="0 0 60 60" style="enable-background:new 0 0 60 60;" xml:space="preserve">
<style type="text/css">
	.st0{clip-path:url(#SVGID_2_);fill:#05863F;}
	.st1{clip-path:url(#SVGID_2_);fill:#FBEC4C;}
	.st2{clip-path:url(#SVGID_2_);fill:#E31F24;}
</style>
<g id="XMLID_1_">
	<g>
		<defs>
			<path id="SVGID_1_" d="M59,60H0.9999695C0.4477234,60,0,59.5526733,0,59V0.9999695c0-0.5522461,0.4477234-1,0.9999695-1H59
				c0.5526886,0,0.9999847,0.4477539,0.9999847,1V59C59.9999847,59.5526733,59.5526886,60,59,60L59,60z"/>
		</defs>
		<clipPath id="SVGID_2_">
			<use xlink:href="#SVGID_1_"  style="overflow:visible;"/>
		</clipPath>
		<polygon class="st0" points="-15,-0.0000305 74.9999847,-0.0000305 74.9999847,60 -15,60 -15,-0.0000305 		"/>
		<polygon class="st1" points="15,-0.0000305 74.9999847,-0.0000305 74.9999847,60 15,60 15,-0.0000305 		"/>
		<polygon class="st2" points="45,-0.0000305 74.9999847,-0.0000305 74.9999847,60 45,60 45,-0.0000305 		"/>
		<polygon class="st0" points="30,20 26.9096985,29.5106812 31.664978,31.0556641 30,20 		"/>
		<polygon class="st0" points="30,20 33.0897827,29.5106812 28.3349915,31.0556641 30,20 		"/>
		<polygon class="st0" points="39.5106812,26.9096985 29.5106812,26.9096985 29.5106812,31.9101868 39.5106812,26.9096985 		"/>
		<polygon class="st0" points="39.5106812,26.9096985 31.4198914,32.7880859 28.4813843,28.7426758 39.5106812,26.9096985 		"/>
		<polygon class="st0" points="35.8778687,38.0897827 32.7880859,28.5795898 28.0321655,30.1244812 35.8778687,38.0897827 		"/>
		<polygon class="st0" points="35.8778687,38.0897827 27.7875671,32.2118835 30.726593,28.1669922 35.8778687,38.0897827 		"/>
		<polygon class="st0" points="24.1221008,38.0897827 32.2118835,32.2118835 29.273407,28.1669922 24.1221008,38.0897827 		"/>
		<polygon class="st0" points="24.1221008,38.0897827 27.2124023,28.5795898 31.967804,30.1244812 24.1221008,38.0897827 		"/>
		<polygon class="st0" points="20.4892883,26.9096985 28.5795898,32.7880859 31.5185852,28.7426758 20.4892883,26.9096985 		"/>
		<polygon class="st0" points="20.4892883,26.9096985 30.4892883,26.9096985 30.4892883,31.9101868 20.4892883,26.9096985 		"/>
	</g>
</g>
</svg>
