<?xml version="1.0" encoding="utf-8"?>
<!-- Generator: Adobe Illustrator 22.1.0, SVG Export Plug-In . SVG Version: 6.00 Build 0)  -->
<svg version="1.1" id="Layer_1" xmlns="http://www.w3.org/2000/svg" xmlns:xlink="http://www.w3.org/1999/xlink" x="0px" y="0px"
	 viewBox="0 0 60 60" style="enable-background:new 0 0 60 60;" xml:space="preserve">
<style type="text/css">
	.st0{clip-path:url(#SVGID_2_);fill:#E72E3C;}
	.st1{clip-path:url(#SVGID_2_);fill:#FFFFFF;}
</style>
<g id="XMLID_1_">
	<g>
		<defs>
			<path id="SVGID_1_" d="M59,60H0.9999695C0.4477234,60,0,59.5526733,0,59V0.9999695c0-0.5522461,0.4477234-1,0.9999695-1H59
				c0.5526886,0,0.9999847,0.4477539,0.9999847,1V59C59.9999847,59.5526733,59.5526886,60,59,60L59,60z"/>
		</defs>
		<clipPath id="SVGID_2_">
			<use xlink:href="#SVGID_1_"  style="overflow:visible;"/>
		</clipPath>
		<polygon class="st0" points="0,-0.0000305 89.9999847,-0.0000305 89.9999847,60 0,60 0,-0.0000305 		"/>
		<polygon class="st1" points="0,29.9999695 89.9999847,29.9999695 89.9999847,60 0,60 0,29.9999695 		"/>
		<path class="st1" d="M30.8681641,14.9999695c0,6.2305298-5.0507812,11.281311-11.2812805,11.281311
			S8.3056641,21.2304993,8.3056641,14.9999695c0-6.2304688,5.0507202-11.28125,11.2812195-11.28125
			S30.8681641,8.7695007,30.8681641,14.9999695L30.8681641,14.9999695z"/>
		<path class="st0" d="M34.4130859,14.9999695c0,5.8882141-4.7730103,10.6611328-10.6611023,10.6611328
			c-5.8876953,0-10.6611938-4.7729187-10.6611938-10.6611328c0-5.8881531,4.7734985-10.6611328,10.6611938-10.6611328
			C29.6400757,4.3388367,34.4130859,9.1118164,34.4130859,14.9999695L34.4130859,14.9999695z"/>
		<polygon class="st1" points="20.9833679,15.2719727 19.4506836,14.0966797 17.9184875,15.2728882 18.5083008,13.3769836 
			16.9711914,12.2084961 18.8681946,12.2123718 19.4501953,10.3139648 20.0326843,12.2123718 21.9296875,12.207489 
			20.3925781,13.3764954 20.9833679,15.2719727 		"/>
		<polygon class="st1" points="33.007782,15.2719727 31.4755859,14.0966797 29.9433899,15.2728882 30.5332031,13.3769836 
			28.995575,12.2084961 30.8930664,12.2123718 31.4745789,10.3139648 32.0575867,12.2123718 33.9541016,12.207489 
			32.4179688,13.3764954 33.007782,15.2719727 		"/>
		<polygon class="st1" points="27.0019836,10.8096008 25.4692078,9.6337585 23.9370117,10.8100891 24.526886,8.9140625 
			22.9896851,7.7456055 24.8866882,7.7495117 25.4687805,5.851532 26.0513,7.7495117 27.9481812,7.7445984 26.4111023,8.9140625 
			27.0019836,10.8096008 		"/>
		<polygon class="st1" points="23.2333679,22.4125977 21.7006836,21.2372742 20.1684875,22.4135742 20.7583008,20.5175781 
			19.2211914,19.3490906 21.1181946,19.3529663 21.7001953,17.4545898 22.2826843,19.3529663 24.1796875,19.3480835 
			22.6425781,20.5170898 23.2333679,22.4125977 		"/>
		<polygon class="st1" points="30.757782,22.4125977 29.2255859,21.2372742 27.6933899,22.4135742 28.2832031,20.5175781 
			26.745575,19.3490906 28.6430664,19.3529663 29.2250977,17.4545898 29.8075867,19.3529663 31.704071,19.3480835 
			30.1674805,20.5170898 30.757782,22.4125977 		"/>
	</g>
</g>
</svg>
