<?xml version="1.0" encoding="utf-8"?>
<!-- Generator: Adobe Illustrator 22.1.0, SVG Export Plug-In . SVG Version: 6.00 Build 0)  -->
<svg version="1.1" id="Layer_1" xmlns="http://www.w3.org/2000/svg" xmlns:xlink="http://www.w3.org/1999/xlink" x="0px" y="0px"
	 viewBox="0 0 60 60" style="enable-background:new 0 0 60 60;" xml:space="preserve">
<style type="text/css">
	.st0{clip-path:url(#SVGID_2_);fill:#253776;}
	.st1{clip-path:url(#SVGID_2_);fill:#DC1A1E;}
	.st2{clip-path:url(#SVGID_2_);fill:#FFFFFF;}
	.st3{clip-path:url(#SVGID_2_);fill:#F4E600;}
	.st4{clip-path:url(#SVGID_2_);fill:#F9D90D;}
	.st5{clip-path:url(#SVGID_2_);fill:#020203;}
	.st6{clip-path:url(#SVGID_2_);fill:#64AFE1;}
	.st7{clip-path:url(#SVGID_2_);fill:#7E7F7F;}
	.st8{clip-path:url(#SVGID_2_);fill:#FAB715;}
	.st9{clip-path:url(#SVGID_2_);fill:#BC715F;}
	.st10{clip-path:url(#SVGID_2_);fill:#068938;}
</style>
<g id="XMLID_1_">
	<g>
		<defs>
			<path id="SVGID_1_" d="M59,60H0.9999695C0.4477234,60,0,59.5526733,0,59V0.9999695c0-0.5522461,0.4477234-1,0.9999695-1H59
				c0.5526886,0,0.9999847,0.4477539,0.9999847,1V59C59.9999847,59.5526733,59.5526886,60,59,60L59,60z"/>
		</defs>
		<clipPath id="SVGID_2_">
			<use xlink:href="#SVGID_1_"  style="overflow:visible;"/>
		</clipPath>
		<polygon class="st0" points="0,-0.0000305 89.9999847,-0.0000305 89.9999847,60 0,60 0,-0.0000305 		"/>
		<polygon class="st1" points="0,-0.0000305 89.9999847,-0.0000305 89.9999847,29.9999695 0,29.9999695 0,-0.0000305 		"/>
		<polygon class="st2" points="0,-0.0000305 0,60 39.9999695,29.9999695 0,-0.0000305 		"/>
		<path class="st3" d="M20.2020874,22.6420593l0.0122986-0.4643555c0,0-0.2496033-0.3974304,0.0400085-0.8242188
			c0,0-0.6152039-0.3251953-0.472229-0.8348999c0,0-0.5555725-0.1420898-0.5145874-0.7539978
			c0,0-0.6000977-0.0415039-0.6625671-0.5522156c0,0-0.6001282,0.0986328-0.8643188-0.3994141
			c0,0-0.5853882,0.1142273-0.7505188-0.2958984c0,0-0.5692749,0.1973267-0.907196-0.285675
			c0,0-0.6010742,0.2431946-0.8529663-0.2124023c-0.2486267,0.4541016-0.8496094,0.2129211-0.8496094,0.2129211
			c-0.3334961,0.4804993-0.9067993,0.2807617-0.9067993,0.2807617c-0.1596069,0.4121094-0.7431335,0.2954102-0.7431335,0.2954102
			c-0.2631836,0.4981079-0.862793,0.3989258-0.862793,0.3989258c-0.059082,0.5092773-0.6581726,0.5513-0.6581726,0.5513
			c0.0472717,0.6132812-0.5083008,0.7524109-0.5083008,0.7524109c0.1468811,0.5092773-0.467804,0.8334961-0.467804,0.8334961
			c0.2973938,0.4296875,0.050293,0.8237915,0.050293,0.8237915l-0.0142212,0.4281921l9.9346008,0.0458679"/>
		<path class="st4" d="M20.2020874,22.6420593l0.0122986-0.4643555c0,0-0.2496033-0.3974304,0.0404968-0.8242188
			c0,0-0.6156921-0.3256836-0.4721985-0.8348999c0,0-0.5560913-0.1420898-0.5151062-0.7539978
			c0,0-0.6000977-0.0415039-0.6620789-0.5527039c0,0-0.6006165,0.0991211-0.8648071-0.3989258
			c0,0-0.5853882,0.1142273-0.7505188-0.2958984c0,0-0.5692749,0.1973267-0.9067078-0.285675
			c0,0-0.6015625,0.2431946-0.8529663-0.2124023c-0.2486267,0.4541016-0.8500977,0.2124023-0.8500977,0.2124023
			c-0.3334961,0.4810181-0.9067993,0.2812805-0.9067993,0.2812805c-0.1596069,0.4121094-0.7436218,0.2954102-0.7436218,0.2954102
			c-0.2632141,0.4981079-0.8623047,0.3989258-0.8623047,0.3989258c-0.059082,0.5097656-0.6586914,0.5513-0.6586914,0.5513
			c0.0477905,0.6132812-0.507782,0.7519836-0.507782,0.7519836c0.1464844,0.5092163-0.4673157,0.8339233-0.4673157,0.8339233
			c0.2969055,0.4291992,0.0498047,0.8232727,0.0498047,0.8232727l-0.0137024,0.4287109l9.934082,0.0458679H20.2020874
			L20.2020874,22.6420593L20.2020874,22.6420593z"/>
		<path class="st5" d="M10.2885742,22.5780945l9.8960266,0.0453796l0.0116882-0.4413757
			c-0.0274048-0.046814-0.2266235-0.422821,0.0326843-0.8226929c-0.0990601-0.058136-0.5830078-0.3697205-0.4682617-0.828125
			c-0.1982422-0.058197-0.5351257-0.281311-0.512207-0.7504883c-0.1000977-0.012207-0.5913391-0.0953064-0.6587219-0.5488892
			c-0.1034851,0.0117798-0.6156921,0.0429993-0.8587952-0.3989258c-0.0878906,0.0137024-0.589386,0.0733032-0.7510071-0.2939148
			c-0.0957031,0.0273132-0.5932922,0.1430054-0.9032898-0.285675c-0.0899048,0.0317993-0.6036072,0.1929016-0.8461914-0.1987
			c-0.2398071,0.3900757-0.7533875,0.2304993-0.8433228,0.1987c-0.3065796,0.4273071-0.8065796,0.3096008-0.9032898,0.2817993
			c-0.1567993,0.3685913-0.6562805,0.3070679-0.7442017,0.2929077c-0.2420959,0.4418945-0.7528992,0.4111633-0.8563843,0.3989868
			c-0.0649109,0.4521179-0.5541992,0.5350952-0.6548157,0.5473022c0.0278015,0.4702148-0.3070984,0.6914062-0.5049133,0.7485046
			c0.117218,0.4584961-0.3646851,0.769104-0.4637756,0.827179c0.2666016,0.4038086,0.0672913,0.777832,0.0415039,0.8228149
			L10.2885742,22.5780945L10.2885742,22.5780945z M20.2035828,22.6601868l-0.0184937-0.0005188l-9.934082-0.0458984
			l0.0145874-0.4516907l0.0024719-0.0039062c0.0024109-0.0039062,0.2368164-0.3895874-0.0492554-0.8037109l-0.0118103-0.016571
			l0.0180969-0.0097961c0.0062866-0.0029297,0.5995789-0.3237305,0.4589844-0.8125l-0.0053711-0.0180359l0.0180664-0.0048828
			c0.0014038,0,0.1377258-0.0351868,0.2655945-0.1430969c0.170929-0.1440125,0.2480164-0.3422852,0.2290344-0.5897827
			l-0.0014954-0.0181274l0.0180664-0.0014648c0.0059204-0.0005188,0.5849915-0.0468445,0.6416016-0.5351257l0.0020142-0.019104
			l0.0189819,0.0029907c0.0059204,0.0014038,0.5898132,0.0913086,0.843811-0.3891907l0.0063171-0.012207l0.0131836,0.0028992
			c0.0057983,0.0010071,0.5708008,0.1089172,0.7225952-0.2841797l0.0064087-0.0161133l0.0166016,0.0054016
			c0.0054016,0.0020142,0.5643921,0.1895142,0.8862-0.2744141l0.0082703-0.0116882l0.0132141,0.0053101
			c0.0058899,0.0025024,0.5894165,0.2299805,0.8272095-0.2044983l0.015625-0.0289001l0.0160828,0.0289001
			c0.2411804,0.4364929,0.824707,0.2070007,0.8305969,0.2044983l0.013092-0.0053101l0.0083008,0.0116882
			C16.4242859,18.6869812,16.9784851,18.5014954,16.984375,18.5l0.0161133-0.0059204l0.0063171,0.0162048
			c0.1577759,0.3916016,0.7245789,0.2861023,0.7304688,0.2850952l0.0132141-0.0023804l0.0063171,0.0116882
			c0.254364,0.4799805,0.839386,0.3905945,0.8453064,0.3895874l0.0184631-0.0033875l0.0024109,0.0190735
			c0.0249023,0.2046204,0.1407166,0.3574219,0.3432922,0.453125c0.1533203,0.0722961,0.3008118,0.0834961,0.3023376,0.0834961
			l0.0179749,0.0014038l-0.0010071,0.0176086c-0.0394897,0.5898743,0.4960938,0.7338867,0.5015259,0.7353821l0.0180969,0.0049133
			l-0.0049133,0.0174866c-0.1376953,0.4892883,0.4564819,0.8111267,0.4629211,0.8140259l0.0175781,0.0092773L20.2695007,21.3638
			c-0.2793274,0.4110718-0.0424194,0.800293-0.0400085,0.8041992l0.0028992,0.0043945l-0.012207,0.4701843l-0.0161133-0.0005188
			L20.2035828,22.6601868L20.2035828,22.6601868z"/>
		<path class="st1" d="M19.9701843,22.0619812c-1.5605164-0.1557007-3.3573914-0.5263977-4.7440796,0.2543945
			c-0.929718-0.5477905-2.2240906-0.5141907-3.3267212-0.4067078c-0.5986023,0.1069031-1.3026733,0.1069031-1.9281921,0.2090149
			L9.8730469,22.132782c-1.1352539,0.0751953-2.1645508-0.2601929-3.1508789-0.7006836
			c0.3134766,1.7774048,0.6606445,3.5991821,0.8315125,5.4599915c0.3720703,2.7557983-1.3041687,5.0697937-0.6166992,7.7924805
			c0.410675,1.3066101,1.847168,2.0664062,3.1625977,2.2168274c1.2730103,0.0751953,2.590332,0.2831726,3.769104,0.5390015
			c0.2240906,0.046875,0.4897156,0.1513672,0.6445007,0.2177734c0.3242188,0.1357117,0.5625,0.3349915,0.7710266,0.5487976
			c0.7113647-0.7411804,1.7538757-0.9472046,2.7826843-1.055603c1.8540039-0.2167969,4.1391907-0.0986938,5.2743835-1.7783813
			v-0.094696c0.6166992-0.9287109,0.5346985-2.3457031,0.2676086-3.398407
			c-0.0180969-0.367218-0.1162109-0.6903992-0.1694031-1.0404968c-1.1323853-2.9907837-0.1625977-6.3545227,0.324707-9.3692017
			c-0.5953064,0.3251953-1.2593079,0.4790039-1.9213867,0.6416016c-0.5283203,0.0708008-1.117218,0.039093-1.6519165,0.0097961
			l-0.2217102-0.0596008"/>
		<path class="st6" d="M22.3008118,30.6454773c-0.007843,0.1973267,0.0985718,0.351593,0.1371765,0.5342102
			c0.2167969,1.3066101,0.4263,3.039093-0.9199219,3.8496094c-1.4892578,0.9472656-3.441864,0.5419922-5.1651001,1.0429993
			c-0.3441772,0.0956726-0.8187866,0.4120789-1.0604858,0.6356812c-0.155304-0.102478-0.3114929-0.2587891-0.5121765-0.351593
			c-1.4179993-0.7539062-3.2608032-0.500885-4.8613586-0.9082031c-0.8037415-0.2538757-1.6420898-0.8807983-1.8457031-1.7030945
			c-0.5234375-2.1582031,0.72995-3.9979858,0.5820007-6.1390991c-0.0956726-1.6353149-0.3706055-3.2051086-0.7480164-4.7383118
			c1.2509766,0.5830078,2.6991577,0.6802063,4.1059875,0.4009094c1.0414734-0.1455994,2.2543945-0.1489868,3.2308655,0.2919006
			c0.5381165-0.2319031,1.167511-0.3354187,1.7475891-0.3993835c1.1021423,0.1074829,2.2871399,0.3066711,3.4224243,0.2988892
			c0.7578125-0.0396118,1.4462891-0.2588196,2.1054077-0.5508118c-0.390625,2.5342102-1.1416016,5.1879883-0.2197266,7.7362976"/>
		<polyline class="st2" points="20.0497742,31.1503906 20.0380859,28.7680664 20.3314819,28.7680664 16.6889954,26.4159851 
			16.6825867,25.1933899 17.0341797,25.1933899 15.2128906,23.8891907 13.4008789,25.1929016 13.7514954,25.1929016 
			13.7583008,26.4140625 10.1353149,28.7631836 10.4247742,28.7651062 10.4370117,31.1454773 20.0487671,31.1522827 		"/>
		<path class="st5" d="M10.5141907,31.0683899l9.4580078,0.0067749l-0.012207-2.3847656h0.1083984l-3.456604-2.2319031
			l-0.0072937-1.3423157h0.1879883l-1.5795898-1.1312866l-1.5713196,1.1302795h0.1870117l0.0072937,1.3409119l-3.4403992,2.230896
			l0.1065063,0.0004883L10.5141907,31.0683899L10.5141907,31.0683899z M20.0937805,31.2304688h-0.0450134l-9.6888733-0.0068665
			l-0.012207-2.3818054l-0.472229-0.0024109l3.8047485-2.4672852l-0.0059204-1.1016235H13.159668l2.0532227-1.476593
			l2.0629883,1.4775696h-0.5155945l0.0057983,1.1020203l3.8286133,2.4721985h-0.4790039l0.0121765,2.3252258L20.0937805,31.2304688
			L20.0937805,31.2304688z"/>
		<polyline class="st2" points="21.1693726,34.2802734 21.1703796,35.0263977 9.4365234,35.0136719 9.4316101,34.2704773 
			21.1703796,34.2802734 		"/>
		<path class="st5" d="M9.5131836,34.9354858l11.5796204,0.0126953l-0.0005188-0.5897827L9.5097656,34.3485718L9.5131836,34.9354858
			L9.5131836,34.9354858z M21.2479858,35.1034851L9.359375,35.0907898l-0.0058594-0.8973999h0.0780945l11.6601562,0.0097046
			v-0.0273132l0.1016235,0.030304l-0.0112915,0.0741882h0.0649719L21.2479858,35.1034851L21.2479858,35.1034851z"/>
		<polyline class="st2" points="10.2157898,34.2353821 10.2060852,31.7118835 10.6811829,31.7118835 10.6547852,34.2636719 
			10.6835938,31.7323914 9.9990234,31.7128906 9.9990234,31.1708984 20.4862976,31.1825867 20.4911804,31.7187805 
			19.8442078,31.7187805 19.8563843,34.2743835 19.8334656,31.7187805 20.3148804,31.7187805 20.3256836,34.2450867 		"/>
		<path class="st5" d="M11.5072632,30.2997742l0.4903259,0.0014954l-0.0043945-0.8652649h-0.4888L11.5072632,30.2997742
			L11.5072632,30.2997742z M12.1532898,30.4564819l-0.8007812-0.0018921l-0.003418-1.0957031l0.0776978-0.0005188v-0.0776062
			h0.7207031L12.1532898,30.4564819L12.1532898,30.4564819z M14.0566101,30.3017578l0.4887695,0.0024109l-0.0028992-0.8666992
			h-0.4887695L14.0566101,30.3017578L14.0566101,30.3017578z M14.7016907,30.4599609l-0.7998047-0.0038757l-0.003479-1.0957031
			h0.0776978v-0.078186h0.7207031L14.7016907,30.4599609L14.7016907,30.4599609z M16.0209961,30.3061829h0.4893188
			l-0.0030212-0.8666992h-0.4906921L16.0209961,30.3061829L16.0209961,30.3061829z M16.6659851,30.4613953h-0.7998047
			l-0.0054016-1.0991211l0.0776978-0.0004883v-0.0776062h0.7236023L16.6659851,30.4613953L16.6659851,30.4613953z
			 M18.3920898,30.3075867h0.4888l-0.0010071-0.8652039h-0.4911804L18.3920898,30.3075867L18.3920898,30.3075867z
			 M19.0361023,30.4628601h-0.7987976l-0.0043945-1.0976868l0.0785522-0.0004883v-0.0776062h0.7237244L19.0361023,30.4628601
			L19.0361023,30.4628601z M13.6771851,30.6732788h1.2519836l-0.0058899-1.6010132l-1.2513733-0.0014954L13.6771851,30.6732788
			L13.6771851,30.6732788z M15.0849915,30.8285828h-1.5625l-0.0063782-1.9131165l1.5614929,0.0015259L15.0849915,30.8285828
			L15.0849915,30.8285828z M15.6401062,30.6732788l1.253479,0.0029907l-0.0093079-1.6040039l-1.2504883-0.0014954
			L15.6401062,30.6732788L15.6401062,30.6732788z M16.9717102,30.8314819l-1.4863281-0.0033875l-0.0073853-1.9126282
			l1.5605774,0.0020142l0.0101929,1.8363953l-0.0770569,0.0004883V30.8314819L16.9717102,30.8314819z M18.0116882,30.6762695
			h1.2528992l-0.0072937-1.6040039h-1.25L18.0116882,30.6762695L18.0116882,30.6762695z M19.3437805,30.8314819h-1.4868774
			l-0.0053101-1.9144897h1.5599976l0.0087891,1.8363953l-0.0765991,0.0004883V30.8314819L19.3437805,30.8314819z
			 M11.1273804,30.6688843h1.2535095l-0.0087891-1.6000977l-1.2505188-0.0014038L11.1273804,30.6688843L11.1273804,30.6688843z
			 M12.3822937,30.8725891l-0.0005188-0.0484009h-1.4090881l-0.0074158-1.9121094l1.5611267,0.0020142l0.0101929,1.8803101
			L12.3822937,30.8725891L12.3822937,30.8725891z M11.5185852,33.1659851h0.4891968l-0.0024109-0.8671875h-0.4902649
			L11.5185852,33.1659851L11.5185852,33.1659851z M12.1635742,33.3212891h-0.7992859l-0.0049133-1.1777039h0.8003235
			L12.1635742,33.3212891L12.1635742,33.3212891z M18.4057922,33.1688843h0.4881897l-0.0047913-0.8632202h-0.4898071
			L18.4057922,33.1688843L18.4057922,33.1688843z M19.050293,33.3241882h-0.7988281l-0.007782-1.0957031l0.0776062-0.0010071
			v-0.0771179h0.7221985L19.050293,33.3241882L19.050293,33.3241882z M11.1395874,33.5351868l1.2520142,0.0009155
			l-0.0068359-1.6035156h-1.2525024L11.1395874,33.5351868L11.1395874,33.5351868z M12.4696655,33.6913757l-1.4847717-0.0018921
			l-0.0087891-1.9122009h1.5638733l0.0079346,1.8359985l-0.0777283,0.0010071L12.4696655,33.6913757L12.4696655,33.6913757z
			 M18.0258789,33.5409851h1.2495117l-0.0073242-1.6025085l-1.2485657-0.0010071L18.0258789,33.5409851L18.0258789,33.5409851z
			 M19.4312134,33.6962891h-1.5601196L17.8638,31.7812805l1.5585938,0.0018921L19.4312134,33.6962891L19.4312134,33.6962891z
			 M19.7787781,34.2743835L19.7787781,34.2743835l-0.0238647-2.6328125h0.6576843l-0.003418-0.3818054l-10.332489-0.0108032
			v0.3877258l0.0512085,0.0019836v-0.0039062l0.6314087-0.0009766v0.0224915h0.0023804l-0.0292969,2.6083069l-0.155304-0.0009155
			l0.0254211-2.4560852l-0.3188171-0.0097046l0.0097961,2.4375l-0.1552734,0.0009155l-0.0098267-2.4424133l-0.2070007-0.0057983
			v-0.6943054l10.6416016,0.0116882l0.0063171,0.6914062h-0.176239l0.0102234,2.4482117h-0.155304L20.237793,31.796875h-0.3158875
			l0.0116882,2.4765015L19.7787781,34.2743835L19.7787781,34.2743835z"/>
		<polyline class="st2" points="17.3197632,30.2147827 17.3349915,34.2704773 13.2602844,34.2636719 13.245575,30.2113953 
			17.3187866,30.214386 		"/>
		<path class="st5" d="M14.214386,26.3656921l2.0131226,0.0014648l-0.003418-0.8671875l-2.0132141-0.0009766L14.214386,26.3656921
			L14.214386,26.3656921z M16.3833008,26.5224609l-2.3237-0.0019836l-0.0049133-1.1772156l2.3241882,0.0019226
			L16.3833008,26.5224609L16.3833008,26.5224609z M11.8939819,28.4032898l6.6748047,0.0058899l-2.0815125-1.519989
			L13.9594727,26.8862L11.8939819,28.4032898L11.8939819,28.4032898z M18.8070984,28.5644836l-7.3862305-0.0064087
			l2.4878235-1.8270874l2.6293945,0.0028992l2.3149109,1.6903992l-0.0458984,0.0629883V28.5644836L18.8070984,28.5644836z
			 M13.3270874,31.2948914l3.9190063,0.0029907l-0.0039062-1.0058899l-3.9190063-0.0028992L13.3270874,31.2948914
			L13.3270874,31.2948914z M13.3374023,34.1864929l0.3173828,0.0009766l-0.0132141-2.7373047h-0.3139954L13.3374023,34.1864929
			L13.3374023,34.1864929z M13.8100891,34.1874695l2.9515991,0.0049133l-0.0132141-2.7392883l-2.9515991-0.0029297
			L13.8100891,34.1874695L13.8100891,34.1874695z M16.9164734,34.1923828l0.3408203,0.0010071l-0.0107117-2.7402954h-0.3432922
			L16.9164734,34.1923828L16.9164734,34.1923828z M17.4130859,34.3485718l-4.230011-0.0068054l-0.015564-4.2079773
			l4.2284546,0.0033875l0.0010376,0.0772095L17.4130859,34.3485718L17.4130859,34.3485718z"/>
		<path class="st5" d="M14.2138977,26.3656921l2.0136108,0.0014648l-0.003418-0.8671875l-2.0137024-0.0009766L14.2138977,26.3656921
			L14.2138977,26.3656921z M16.3833008,26.5224609l-2.3237-0.0019836l-0.0049133-1.1772156l2.3241882,0.0019226
			L16.3833008,26.5224609L16.3833008,26.5224609z"/>
		<path class="st5" d="M14.2597656,25.030304l1.914032,0.0028687l-0.960907-0.6791992L14.2597656,25.030304L14.2597656,25.030304z
			 M16.664093,25.1894836l-2.8912048-0.0039978l0,0l0,0v-0.0004272l0,0l0,0l0,0l0,0l0,0l1.3950806-0.9902649l0.0449219,0.0635071
			l0.0449219-0.0635071l1.4062805,0.9941711l0,0l0,0l0,0l0,0l0,0V25.1894836L16.664093,25.1894836L16.664093,25.1894836
			L16.664093,25.1894836z M14.8008118,26.1059875h0.8407898l-0.0020142-0.3540039h-0.8408203L14.8008118,26.1059875
			L14.8008118,26.1059875z M15.7978821,26.2611694h-1.1508789l-0.0043945-0.6644897h1.1508789L15.7978821,26.2611694
			L15.7978821,26.2611694z"/>
		<path class="st2" d="M20.0903015,23.6801758c0.342804-0.0083008,0.4306946,1.4111023,0.4316711,2.1142273
			c0.2944031,0.0829773,0.9468384,0.4931641,1.2358093,0.8642578l-3.3104858-0.0048828
			c0.2845764-0.3662109,0.9320984-0.7782898,1.2240906-0.8608093c0-0.704071,0.0722961-2.1225891,0.4189148-2.1142883"/>
		<path class="st5" d="M18.6181946,26.5766602l2.9682007,0.004425c-0.3144226-0.3262024-0.8423157-0.6436157-1.0854187-0.7119751
			l-0.0567017-0.015625v-0.059082c-0.000885-0.8530273-0.1054077-1.8183289-0.3036804-2.0117188
			c-0.0263062-0.0253906-0.0439148-0.0253906-0.0487976-0.0249023l-0.0014954-0.0727234l-0.0019226,0.071228
			c-0.0092773-0.0014038-0.0258789,0.0019836-0.0492859,0.0249939c-0.1993103,0.1943054-0.2901001,1.1791077-0.2901001,2.0116882
			v0.0585938l-0.0561218,0.0161133C19.4530945,25.9354858,18.9267883,26.2587585,18.6181946,26.5766602L18.6181946,26.5766602z
			 M21.9164734,26.7362976l-3.6278687-0.0049133l0.0975647-0.125c0.2881165-0.3710022,0.8907166-0.7557983,1.2080078-0.8700867
			c0.002533-0.3974304,0.0328064-1.7695007,0.3365173-2.065918c0.0604858-0.0591125,0.1219788-0.0688171,0.1615906-0.0693054
			v0.0014038c0,0,0.0004883,0,0.0010071,0c0.0565796,0,0.1087952,0.0230103,0.1557007,0.0689087
			c0.315918,0.308075,0.3471985,1.7265015,0.3500977,2.0664062c0.3212891,0.1142883,0.9302063,0.5010071,1.219696,0.8734741
			L21.9164734,26.7362976L21.9164734,26.7362976z M13.5683899,30.4066772l0.0169983,0.0307922l0.0171204-0.0307922H13.5683899
			L13.5683899,30.4066772z M13.5858765,30.5365906l-0.0052795,0.0058899
			c-0.0996094,0.1020203-0.0176086,0.2684937,0.0004883,0.3021851l0.0033875-0.0048828
			C13.6879883,30.6846008,13.5951843,30.5492859,13.5858765,30.5365906L13.5858765,30.5365906z M13.5727844,30.9516907h0.0249023
			l-0.0122986-0.0224915L13.5727844,30.9516907L13.5727844,30.9516907z M13.8559875,31.1073914h-0.5478821l0.1220703-0.2182312
			c-0.0370789-0.0800781-0.0990906-0.2597656,0.0014038-0.4086914l-0.0628967-0.1137695l0.0672913-0.0376282v-0.0780945H13.8638l0,0
			l0,0l0,0l0,0l0,0l0,0v0.0004883l0,0l-0.1275024,0.2339172c0.0484009,0.0888062,0.0859985,0.2416992,0.0014954,0.3999023
			L13.8559875,31.1073914L13.8559875,31.1073914z M14.1728821,30.4066772l0.0180054,0.0328064l0.0175781-0.0328064H14.1728821
			L14.1728821,30.4066772z M14.1914062,30.5361023l-0.0059204,0.0058594c-0.0971069,0.1016235-0.0180054,0.2685242,0,0.3032227
			l0.0030212-0.0043945c0.1098022-0.1669922,0.0043945-0.3027039,0.0033875-0.3041992L14.1914062,30.5361023L14.1914062,30.5361023z
			 M14.1767883,30.9520874h0.0249023l-0.012207-0.023407L14.1767883,30.9520874L14.1767883,30.9520874z M14.4584961,31.1073914
			h-0.5448914l0.120575-0.2182312c-0.0361938-0.0795898-0.0967102-0.2592773,0.0024109-0.4081726l-0.0629883-0.1142883
			l0.0678711-0.0371399v-0.0780945h0.4273071l-0.1259766,0.2333984c0.0477905,0.0879211,0.0848694,0.2402039-0.0005188,0.4008179
			L14.4584961,31.1073914L14.4584961,31.1073914z M15.5795898,30.4081726l0.0181274,0.032196l0.0169678-0.032196H15.5795898
			L15.5795898,30.4081726z M15.5977173,30.5414734l-0.0049438,0.0048828
			c-0.0961609,0.0981445-0.0224915,0.2612305-0.0024719,0.3003235l0.0038757-0.0054016
			C15.6967773,30.6884766,15.6098938,30.558075,15.5977173,30.5414734L15.5977173,30.5414734z M15.582489,30.9555969h0.0263977
			l-0.0132141-0.0244141L15.582489,30.9555969L15.582489,30.9555969z M15.8687134,31.1103821h-0.549408l0.120575-0.2183228
			c-0.0355835-0.0795898-0.0960999-0.2597961,0.0039062-0.4081726l-0.0639038-0.1152039l0.066925-0.0375977v-0.0782166h0.4286804
			l-0.1275024,0.2359009c0.0479126,0.0879211,0.0845032,0.2392273-0.0003967,0.3974304L15.8687134,31.1103821L15.8687134,31.1103821
			z M16.2406921,30.4081726l0.0170898,0.031311l0.0171204-0.031311H16.2406921L16.2406921,30.4081726z M16.2583008,30.5419617
			l-0.0049133,0.0043945c-0.0986023,0.1006165-0.0228882,0.2646179-0.0038757,0.3013306l0.0053711-0.0074158
			C16.3563843,30.6894836,16.2738647,30.5634766,16.2583008,30.5419617L16.2583008,30.5419617z M16.2416687,30.9555969h0.0273132
			l-0.013092-0.0259094L16.2416687,30.9555969L16.2416687,30.9555969z M16.5258789,31.1112671h-0.5429688l0.1161804-0.2182007
			c-0.0361023-0.0795898-0.0970764-0.2597656,0.0058899-0.4096985l-0.0639954-0.1146851l0.0679016-0.0375977v-0.0782166h0.4263306
			l-0.127533,0.2354126c0.0484314,0.0884094,0.0859985,0.2397156,0.0004883,0.3979187L16.5258789,31.1112671L16.5258789,31.1112671z
			 M16.8978882,30.409668l0.0175781,0.0317078l0.0171204-0.032196L16.8978882,30.409668L16.8978882,30.409668z
			 M16.9154663,30.5404968l-0.0048828,0.0058594c-0.1000977,0.1030273-0.0169983,0.273407-0.0009155,0.3042297l0.0063171-0.0097961
			C17.0209656,30.6850891,16.9277039,30.5561829,16.9154663,30.5404968L16.9154663,30.5404968z M16.8993835,30.9560852h0.0298157
			l-0.0142212-0.0283813L16.8993835,30.9560852L16.8993835,30.9560852z M17.1802063,31.1112671h-0.5435181l0.120575-0.218689
			c-0.0360718-0.0796204-0.0966797-0.2597961,0.004425-0.4086914l-0.125-0.2279968l0.5576172-0.0035095l-0.1279297,0.2359009
			c0.0498047,0.0884094,0.0884094,0.2406921,0.0024109,0.3993835L17.1802063,31.1112671L17.1802063,31.1112671z
			 M14.8310852,30.407196l0.0169983,0.0312805l0.0176086-0.0312805H14.8310852L14.8310852,30.407196z M14.8485718,30.5370789
			l-0.0047913,0.0048828c-0.097168,0.1030273-0.0186157,0.2666016,0.0003967,0.3027039l0.0029907-0.0043945
			C14.9535828,30.6825867,14.8554993,30.5463562,14.8485718,30.5370789L14.8485718,30.5370789z M14.835907,30.954071h0.0249023
			l-0.0122375-0.0233765L14.835907,30.954071L14.835907,30.954071z M15.1176758,31.1122742l-0.5424805-0.0058899
			l0.1185913-0.2163086c-0.0365906-0.0795898-0.0980835-0.2587891,0.0009766-0.4090881l-0.1249695-0.2286072l0.5596008-0.0003967
			l-0.1299133,0.2337952c0.0484009,0.089386,0.0863953,0.242218,0.0010071,0.4004211L15.1176758,31.1122742L15.1176758,31.1122742z"
			/>
		<path class="st4" d="M15.3021851,39.4696655c1.5259094,0.0049133,3.4024048-0.3065796,4.2817993-0.7606812l1.930603-0.1708984
			l0.0380859,2.3554993c-1.6351624,0.9013062-5.4115601,1.0957031-6.2425842,1.0888062
			c-0.831604,0.006897-4.6547852-0.1904297-6.2978821-1.0957031l0.0214844-2.3574219l1.9346008,0.1748047
			c0.8793945,0.4522095,2.813385,0.7666016,4.3374023,0.7666016h-0.0039062"/>
		<path class="st5" d="M15.3021851,39.4520874v0.0019836V39.4520874L15.3021851,39.4520874z M9.0307617,40.8759766
			c1.6689148,0.9130859,5.4589233,1.0888062,6.2436218,1.0888062c0.0244141,0,0.0449219,0,0.0698242,0
			c0.7734985,0,4.5331726-0.1757202,6.1904907-1.0820007l-0.0380859-2.3251953l-1.9077454,0.1690063
			c-0.8461609,0.4354858-2.6659851,0.7616882-4.2494812,0.7616882c-0.0112915,0-0.0220032,0-0.0331726,0l0,0l0,0l0,0
			c-1.5977173,0-3.5040283-0.3368835-4.3428345-0.7666016l-1.9116211-0.1719055L9.0307617,40.8759766L9.0307617,40.8759766z
			 M15.2743835,42.0009766c-0.7870789,0-4.5990906-0.1777954-6.2705078-1.0976868l-0.0097351-0.0057983l0.0004883-0.0108032
			l0.0209656-2.3768921l0.0195618,0.0018921l1.941925,0.1757812c0.8320007,0.4287109,2.7314148,0.7637024,4.3251038,0.7646179l0,0
			c0.0122986,0,0.0249023,0,0.0372009,0c1.5805054,0,3.3955078-0.3251038,4.2362976-0.7597046l0.0068054-0.0020142
			l1.949707-0.1717834l0.0004883,0.0184937l0.0386047,2.3671875l-0.0093079,0.0049133
			c-1.6591797,0.9150085-5.4408875,1.0917969-6.2177734,1.0917969
			C15.3193054,42.0009766,15.2992859,42.0009766,15.2743835,42.0009766L15.2743835,42.0009766z"/>
		<path class="st4" d="M4.04245,29.4223938l1.7006836,0.5409851l-0.5141602,2.754425l-1.610321,0.2499695
			c0,0-0.2709961-1.4482727,0.4237976-3.5469055"/>
		<path class="st5" d="M4.0532227,29.4447937c-0.6377258,1.9389954-0.4462891,3.332489-0.4194641,3.5024719l1.5796204-0.2460938
			l0.5092468-2.7250977L4.0532227,29.4447937L4.0532227,29.4447937z M3.6044617,32.9882812l-0.0033875-0.0176086
			c-0.0029297-0.0145874-0.2641602-1.4765625,0.4243164-3.5556946l0.0185242,0.0029907l0.0039368-0.0126953l1.7163086,0.5458984
			l-0.5200195,2.782196L3.6044617,32.9882812L3.6044617,32.9882812z"/>
		<polyline class="st7" points="5.2280273,32.6874695 3.6186523,32.9677734 4.6367188,31.5195007 5.2280273,32.6874695 		"/>
		<polyline class="st8" points="5.2280273,32.6864929 3.6186523,32.9677734 4.6367188,31.5195007 5.2280273,32.6864929 		"/>
		<path class="st5" d="M4.6342468,31.5546875l-0.9755859,1.3876953l1.5420227-0.2685852L4.6342468,31.5546875L4.6342468,31.5546875z
			 M3.5791016,32.9931946l1.0600586-1.5087891l0.6049805,1.1942749l-0.0161133,0.0078125l0.003418,0.0185852L3.5791016,32.9931946
			L3.5791016,32.9931946z"/>
		<path class="st4" d="M3.0249023,31.4062805l1.6396484,0.118103c0.0370789,1.3897095,0.2055359,6.6903992,6.5366211,6.9784851
			l-0.1972656,1.9287109C3.2973633,40.5116882,2.7119141,33.9296875,3.0249023,31.4062805"/>
		<path class="st5" d="M3.0410156,31.4247742c-0.2294922,1.8808899,0.1176758,4.7549133,1.8491211,6.6943054
			c1.3569031,1.5195923,3.3603516,2.2911072,5.9570618,2.2950134l0.1245117-0.0274048l0,0l0,0l0,0l0,0l0,0l0,0l0,0h0.0004883
			l0.0057983,0.0274048c0.0029907,0,0.0063782,0,0.0097961-0.0010071l0.1934204-1.8935852
			c-2.6836548-0.1259155-4.5762329-1.1640015-5.6245728-3.0840149c-0.8403625-1.5400085-0.8920898-3.2373047-0.909668-3.8945007
			L3.0410156,31.4247742L3.0410156,31.4247742z M9.0473633,40.8437805L9.0473633,40.8437805L9.0473633,40.8437805
			L9.0473633,40.8437805L9.0473633,40.8437805L9.0473633,40.8437805H9.046875l0,0l0,0l-0.007843-0.0351868l1.6479492-0.3594055
			c-2.5297852-0.0341797-4.4877625-0.8096008-5.8237-2.305603c-1.7451477-1.9551086-2.090332-4.8526001-1.855957-6.7402954
			l0.0170593,0.0020142l0.0010071-0.0176086h0.0200195v0.0018921l1.6367188,0.1181946l0.0004578,0.015625
			c0.0171204,0.6425781,0.0625305,2.3495789,0.9057922,3.8945618c1.0444336,1.9131165,2.933075,2.9453125,5.6133118,3.0664062
			l0.0195007,0.0010071l-0.2007141,1.9638062h-0.0160828c-0.0513,0.0009766-0.1025085,0.0009766-0.1528015,0.0009766
			L9.0473633,40.8437805L9.0473633,40.8437805z"/>
		<path class="st3" d="M26.4281616,29.441864l-1.6947937,0.5361328l0.5371094,2.7495117l1.6133118,0.2587585
			c0,0,0.2598267-1.4462891-0.4561157-3.5463867"/>
		<path class="st4" d="M26.4276733,29.441864l-1.6943054,0.5361328l0.5375977,2.7495117l1.6133423,0.2597656
			c0,0,0.2593079-1.4472961-0.4566345-3.546875V29.441864L26.4276733,29.441864L26.4276733,29.441864z"/>
		<path class="st5" d="M25.2861023,32.7118835l1.5829773,0.2549133c0.0259094-0.170929,0.2046204-1.5645142-0.4520874-3.5024109
			l-1.6625977,0.5262756L25.2861023,32.7118835L25.2861023,32.7118835z M26.8988953,33.007782l-0.0176086-0.0028992
			l-1.625885-0.2608032l-0.5429993-2.7782898l1.7099915-0.5410156l0.0043945,0.0132141h0.000885v-0.0142212l0.002533,0.0137024
			l0.0145874-0.0028992c0.7090149,2.0800171,0.4599915,3.5410156,0.4570923,3.5556335L26.8988953,33.007782L26.8988953,33.007782z"
			/>
		<polyline class="st7" points="25.2704773,32.6991882 26.8837891,32.9882812 25.8520813,31.539978 25.2704773,32.6991882 		"/>
		<polyline class="st8" points="25.2704773,32.6991882 26.8843079,32.9882812 25.8520813,31.539978 25.2704773,32.6991882 		"/>
		<path class="st5" d="M25.2979126,32.6854858l1.5458679,0.2774048l-0.9888-1.3876953L25.2979126,32.6854858L25.2979126,32.6854858z
			 M26.9242859,33.0145874l-1.6567078-0.297821l0.0028992-0.0175781l-0.0160828-0.0078125l0.5951843-1.1864929l0.0171204,0.0243835
			L26.9242859,33.0145874L26.9242859,33.0145874z"/>
		<path class="st4" d="M27.4638672,31.4276733l-1.6420898,0.1123047c-0.0234985,1.3876953-0.1445923,6.6914062-6.4761047,6.9727173
			l0.2153015,1.9267883c7.7051086,0.0888062,8.2349243-6.4902954,7.9028931-9.0127258"/>
		<path class="st5" d="M19.593811,40.3945007l0.1249695,0.0283813c2.5927124-0.0010071,4.5874329-0.7686157,5.9311218-2.2832947
			c1.7167969-1.9345093,2.0419922-4.8095093,1.7983093-6.6923218l-1.608429,0.109314
			c-0.0112,0.6573181-0.0473022,2.3536072-0.8744812,3.8935852c-1.0322266,1.9199219-2.9155273,2.9561157-5.5991211,3.0801392
			l0.2114258,1.891571c0.0029907,0,0.0068665,0,0.0102844,0L19.593811,40.3945007L19.593811,40.3945007z M21.5228882,40.8544617
			l-1.8081055-0.3955078c-0.0512085,0-0.1019897-0.0009766-0.1538086-0.0009766l-0.0160828-0.0010071l-0.2191772-1.9618835
			l0.0194702-0.0010071c2.6802063-0.118103,4.5606079-1.148407,5.5879211-3.0614929
			c0.8305969-1.5449219,0.8598938-3.2510071,0.870575-3.8926086l0.0004883-0.016571l0.0166321-0.0009155l1.6420898-0.1123047
			l0.0009766,0.016571l0.0180359-0.0019836c0.2490845,1.8897095-0.074707,4.789093-1.8051147,6.7393188
			c-1.3228149,1.4912109-3.2720032,2.2616882-5.7973938,2.2938843l1.6513977,0.3613281L21.5228882,40.8544617L21.5228882,40.8544617
			z"/>
		<path class="st0" d="M7.6875,39.5517883l0.1488953-0.4454041l0.3335266,0.1083984
			c0.0600586,0.0157166,0.1029968,0.0372009,0.1245117,0.0596008c0.0410156,0.0361023,0.0531921,0.0908203,0.0326843,0.1591797
			l-0.0498047,0.1768188c-0.0116882,0.0438843-0.0175476,0.0722046-0.0224304,0.0848999
			c0,0.0147095,0,0.0292969,0.0024414,0.0391235l0.1762695,0.0565796l0.0107117-0.0243835
			c-0.019043-0.015625-0.0297546-0.0420227-0.0287781-0.0752258c0.0038757-0.0214844,0.0097351-0.0536804,0.0209961-0.0908203
			l0.0429382-0.1425781c0.0171204-0.0625,0.0234375-0.109375,0.007843-0.1425781
			c-0.0146484-0.0381165-0.0395508-0.0722351-0.0717773-0.0966187c0.0551453-0.0108032,0.1040039-0.0274048,0.1445007-0.0576782
			c0.0386047-0.0332031,0.0713196-0.0800171,0.0908203-0.1455383c0.0400696-0.1190796,0.0180969-0.2176819-0.0707703-0.2928772
			c-0.0439453-0.0391235-0.1069641-0.0733032-0.1894531-0.1036072l-0.5004883-0.1542969l-0.3500977,1.0420227l0.1464844,0.0449829
			 M7.996582,38.6337585L8.35495,38.7471008c0.0503235,0.015564,0.0874329,0.0350952,0.1118469,0.0575867
			c0.0458984,0.0429688,0.058075,0.1054993,0.03125,0.1806946c-0.0219727,0.0653992-0.0556641,0.1074219-0.1083984,0.1259155
			c-0.0464172,0.007782-0.105011,0.007782-0.1738586-0.0136108l-0.3378601-0.1074829L7.996582,38.6337585 M6.2319336,38.8144836
			l0.5961914-0.9346008l0.7050476,0.4277039l-0.0737,0.1112976l-0.5791016-0.3466187l-0.1792297,0.2832031l0.5327454,0.3232117
			l-0.0688477,0.1065063l-0.5332031-0.3213196l-0.2031555,0.3164062l0.5864563,0.3525085l-0.0703125,0.1103821L6.2319336,38.8144836
			 M5.2406921,37.9315796l0.3467102-0.3182983l0.2460938,0.2489929c0.0791016,0.0811157,0.1601257,0.1181946,0.2450867,0.1162109
			c0.0849609-0.0039062,0.1660461-0.0390015,0.226593-0.0986023c0.0737-0.0653992,0.1088562-0.1426086,0.1088562-0.2246094
			c-0.000946-0.0800781-0.0375671-0.1562805-0.1054688-0.2256165l-0.3534851-0.3612671l-0.8227844,0.7557983l0.1064758,0.1073914
			 M6.0395508,37.8300781c-0.0498047-0.0107727-0.0991211-0.039093-0.1474609-0.0898743L5.6821289,37.523407l0.2827148-0.2588196
			l0.2118835,0.2158813c0.0410156,0.0400085,0.066925,0.0791016,0.0810852,0.1133118
			c0.0195312,0.0643921,0,0.1229858-0.0595703,0.1786804C6.144043,37.8222656,6.0903015,37.8427734,6.0395508,37.8300781
			 M4.1860046,36.3661804l0.9951477-0.5273132l0.105957,0.1845398l-0.6836243,0.7236633l0.9985657-0.1708679l0.1029968,0.1835632
			l-0.992157,0.5244141l-0.0703125-0.1221008l0.5854492-0.3075867c0.0214539-0.0127258,0.0541992-0.031311,0.1015625-0.0556946
			c0.0468445-0.0215149,0.0991211-0.0498047,0.1513367-0.0771179l-0.9946289,0.1689148l-0.0727234-0.1289062l0.6787109-0.7207031
			l-0.0322266,0.0166016c-0.0215149,0.0126953-0.058136,0.0302734-0.1083984,0.0585938
			c-0.0346985,0.0224915-0.0713196,0.0419922-0.1094055,0.0596008l-0.5839539,0.3125l-0.0722961-0.1239929 M3.7070007,35.0458679
			l1.0810547-0.3251953l0.2519531,0.7616882l-0.1318359,0.0410156L4.7021484,34.898407l-0.3286438,0.0986938l0.1904297,0.578064
			l-0.1259766,0.0400391l-0.1889648-0.5800171l-0.3662109,0.109314l0.2094727,0.639679l-0.129364,0.0370789L3.7070007,35.0458679
			 M3.7763672,33.5966797l0.0253906,0.1377258c-0.0610657,0.0126648-0.1103516,0.0370789-0.1464844,0.0682983
			c-0.0644531,0.0605774-0.0864258,0.1513977-0.0644531,0.2753906c0.0097656,0.0517883,0.0288086,0.1034851,0.0522461,0.1445923
			c0.0492859,0.0830078,0.1132812,0.1161804,0.1938477,0.1035156C3.8969727,34.3153992,3.9360352,34.2929688,3.9550781,34.25
			c0.0180359-0.0420227,0.0307617-0.1054993,0.0351562-0.1875l0.0073242-0.1543274
			c0.0048828-0.0957031,0.0155945-0.1708984,0.0366211-0.2128906c0.0336914-0.0751953,0.0966797-0.1210938,0.190918-0.1366882
			c0.0927429-0.0195312,0.1894226,0.0038757,0.2646484,0.0614929c0.0771179,0.0537109,0.1279297,0.1454773,0.1464844,0.2685852
			c0.0239258,0.1123047,0.0131836,0.2128906-0.0312805,0.3027039c-0.0424805,0.0888977-0.1239929,0.1426086-0.2490234,0.1659851
			L4.3310242,34.217804c0.058136-0.0205078,0.101593-0.0410156,0.1303711-0.0703125
			c0.0488586-0.054718,0.0639954-0.1338196,0.0449524-0.242218c-0.0146484-0.0888977-0.0449524-0.1465149-0.0908203-0.1748047
			c-0.0454102-0.0332031-0.0898438-0.046875-0.1391602-0.0380859c-0.0546875,0.007782-0.0908203,0.0380859-0.1079407,0.0868835
			c-0.0107422,0.0332031-0.0185242,0.1006165-0.0263672,0.2051086l-0.0073242,0.1592102
			c-0.0038757,0.0760803-0.0155945,0.1376953-0.0410156,0.180603c-0.0400085,0.0780945-0.1078796,0.1259766-0.2070007,0.1426086
			c-0.125,0.0204773-0.2211914-0.007843-0.2900391-0.0879211c-0.0708008-0.0780945-0.1138-0.171875-0.1362305-0.289093
			c-0.0244446-0.1396179-0.0063477-0.2469788,0.0493164-0.3339233c0.0566101-0.0888672,0.1455078-0.1406555,0.2666016-0.1572876
			 M26.6958008,33.664093l0.0136719-0.1387024c0.0639038,0.0018921,0.118103-0.0078125,0.1587219-0.030304
			c0.0805054-0.0429993,0.1268921-0.1260071,0.1390991-0.2480164c0.0048828-0.0566711,0.0024719-0.1064758-0.0107117-0.1542664
			c-0.0234985-0.0918274-0.0751953-0.1426392-0.1576843-0.1504211c-0.0610962-0.006897-0.1054993,0.007782-0.137207,0.0420227
			c-0.0288086,0.0380859-0.059082,0.093689-0.0820923,0.171875l-0.0508118,0.1445007
			c-0.032196,0.094696-0.0625,0.1600952-0.0952148,0.1972046c-0.0527039,0.0683899-0.125885,0.092804-0.2201843,0.0859985
			c-0.1006165-0.0108032-0.1820984-0.0508118-0.2402039-0.1278992c-0.0596008-0.0704041-0.0845032-0.1708984-0.069397-0.2949829
			c0.0097961-0.1142273,0.0473938-0.2099304,0.1143188-0.2861328c0.0624695-0.070282,0.1586914-0.1044922,0.2821655-0.0907898
			l-0.0111694,0.1387024c-0.0605164,0-0.1089172,0.0107117-0.1440125,0.0350952
			c-0.0639954,0.0352173-0.0991821,0.1104126-0.109375,0.218811c-0.0093384,0.0897827,0.0028992,0.1502991,0.0375671,0.1961975
			c0.0342102,0.0380859,0.0776062,0.0625,0.128418,0.0673828c0.0537109,0.0049133,0.0961914-0.0126648,0.1254883-0.0546875
			c0.0209961-0.0282898,0.0463867-0.0898132,0.0809937-0.1914062l0.0498047-0.1512756
			c0.0245056-0.0703125,0.0541992-0.1250305,0.0883789-0.1631165c0.0611267-0.0635071,0.1411438-0.0908203,0.2422485-0.0829773
			c0.1225586,0.0126648,0.2099915,0.0634766,0.2548828,0.1571655c0.0444031,0.093811,0.0614929,0.1973267,0.0507812,0.3154297
			c-0.0137024,0.132782-0.0571899,0.2373047-0.1376953,0.3075867C26.9169922,33.6493835,26.8168945,33.6737976,26.6958008,33.664093
			 M26.7832031,35.0683594l-1.1055298-0.2451782l0.0367126-0.1698914l1.0213928-0.3457031l-0.8968811-0.1972046l0.0326843-0.1348267
			l1.1054993,0.2383118l-0.0351868,0.1660156l-1.022522,0.352478l0.8965149,0.1934204l-0.0317078,0.1425781 M26.300293,36.3583679
			l-1.0507812-0.4198914l0.3100586-0.7392883l0.1274109,0.0487976l-0.2523804,0.609375l0.3163757,0.1240234l0.2362976-0.5614929
			l0.1211243,0.0507812l-0.2339172,0.5596008l0.3540039,0.1434937l0.2593079-0.6161804l0.1278687,0.0478821l-0.3158569,0.7528992
			 M25.9184875,37.0224609l-0.9732056-0.5722656l0.0791016-0.1250305l0.9745789,0.5684204l-0.0795898,0.1297913
			 M25.2636719,37.8749695c0.1274109-0.1405945,0.1557312-0.2919922,0.0810242-0.4628906
			c-0.0477905-0.0996094-0.1162109-0.1884766-0.2011108-0.2607117c-0.1152954-0.101593-0.2353821-0.1542969-0.3623047-0.164093
			c-0.140686-0.0106812-0.2597961,0.0400085-0.3637695,0.1532898l-0.3067322,0.3291321l0.8453064,0.7372742l0.3070984-0.3299866
			 M24.3125,37.4462891l0.1802063-0.1983032c0.0834961-0.0878296,0.1713867-0.1289062,0.2679749-0.1171265
			c0.0967102,0.008728,0.1949158,0.0586243,0.299408,0.1504211c0.0288086,0.0223999,0.0541992,0.0507202,0.0799866,0.0830078
			c0.0458984,0.0595093,0.0733032,0.1122742,0.0904236,0.1640015c0.0145874,0.0654907,0.0116882,0.1260071-0.011322,0.1826172
			c-0.0135803,0.0283813-0.0384827,0.0624695-0.0751953,0.1025696l-0.180603,0.1962891l-0.6498718-0.5654602 M23.7641907,39.0624695
			l-0.6275024-0.914093l0.6884766-0.4393921l0.0762024,0.110321l-0.5639954,0.3603516l0.1929321,0.2793274L24.0513,38.1239929
			l0.0712891,0.1073914l-0.5209961,0.3349915l0.2128906,0.3085938l0.5737305-0.3671875l0.0761719,0.1083984l-0.7012024,0.4462891
			 M22.4779968,39.6073608l-0.171814-0.4403992l0.3271179-0.1181641c0.0614929-0.0195312,0.1040039-0.0302124,0.1356812-0.0263062
			c0.0581055,0.0067749,0.1026001,0.0419922,0.131897,0.109314l0.074707,0.1679688
			c0.0160828,0.0410156,0.0292969,0.0664062,0.0400085,0.078125c0.0048828,0.014679,0.0151978,0.023468,0.0234985,0.0331726
			l0.1772156-0.0653992l-0.0093384-0.023407c-0.0262756,0-0.0516663-0.014679-0.0707703-0.0439758
			c-0.0136108-0.0195007-0.0267944-0.0487976-0.0458984-0.0840149l-0.0576172-0.1366882
			c-0.0263977-0.0596008-0.0536804-0.0967102-0.0844727-0.1191101c-0.0361328-0.0185852-0.0761108-0.0292969-0.1167297-0.031311
			c0.0357056-0.0419617,0.0621033-0.0839844,0.0718079-0.132782c0.0108032-0.0498047,0.0058899-0.1054993-0.0179749-0.1679993
			c-0.0450134-0.1161804-0.1275024-0.180603-0.2437439-0.1884155c-0.0609741-0.0048828-0.1318054,0.0078125-0.2124023,0.0371094
			l-0.4940796,0.1757812l0.3988953,1.0332336l0.144989-0.0537109 M22.1259766,38.6991882l0.3520203-0.1278992
			c0.0478821-0.0176086,0.0899048-0.023407,0.1254883-0.0195312c0.0650024,0.0048218,0.1123047,0.0429382,0.1391907,0.1201172
			c0.0254211,0.0653992,0.0254211,0.1230164-0.0033875,0.1631165c-0.0297852,0.0409851-0.0772095,0.0721741-0.1459961,0.0965881
			l-0.3305969,0.1192017L22.1259766,38.6991882 M21.0166016,38.7841797
			c0.1054993-0.0176086,0.1972961-0.0127258,0.2802734,0.0155945c0.1230164,0.039093,0.2055359,0.1298828,0.2568359,0.2686157
			l-0.1514282,0.0204773c-0.0326843-0.0742798-0.0791016-0.1259766-0.1419983-0.1552734
			c-0.061615-0.0264282-0.1381836-0.0332336-0.226593-0.0205078c-0.0986023,0.0136719-0.1870117,0.0673828-0.2437134,0.1493835
			c-0.0570984,0.0889282-0.0741882,0.2070312-0.0492859,0.3564148c0.0214844,0.125,0.0674133,0.2304993,0.1426086,0.3008118
			c0.0692749,0.0712891,0.1713867,0.0966797,0.3046875,0.078186c0.1000977-0.0166016,0.1802063-0.0567017,0.2362976-0.125
			c0.0591125-0.0655212,0.0762024-0.164093,0.0567017-0.2920227l-0.3526001,0.0537109l-0.0180054-0.1200867l0.4907227-0.0762024
			l0.0956726,0.5820007l-0.0971985,0.014679l-0.0604858-0.1347961c-0.0411072,0.0615234-0.0820923,0.1074219-0.1177063,0.1347961
			c-0.0606079,0.0468445-0.1421204,0.0771179-0.2445984,0.0918274c-0.1324158,0.0204773-0.2535095-0.0030212-0.362793-0.0733032
			c-0.1206055-0.0897827-0.1983337-0.2216797-0.2276306-0.405304c-0.032196-0.180603-0.0033875-0.335907,0.0801086-0.4570007
			c0.0791016-0.1181946,0.1943359-0.1864929,0.3501282-0.2089844 M15.8520813,40.3642883
			c-0.0698853,0.109314-0.0986938,0.2352905-0.0914001,0.3866882c0.0108032,0.1650085,0.061615,0.3008118,0.1572876,0.4023132
			c0.1059265,0.1025696,0.2466431,0.1542969,0.4204102,0.1445923c0.1855164-0.0087891,0.3251953-0.0791016,0.4199219-0.2080994
			c0.0770874-0.1170959,0.1138-0.2528992,0.1054993-0.4198914c-0.0108032-0.1503906-0.0537109-0.2715149-0.1348267-0.3623047
			c-0.1019897-0.1221008-0.2518921-0.1758118-0.4545593-0.1679993c-0.1914368,0.0126953-0.3320312,0.0830994-0.422821,0.2247009
			 M16.0321655,41.0565796c-0.0673828-0.0820007-0.1029663-0.1845093-0.1112976-0.3045959
			c-0.0072937-0.1524048,0.0220032-0.2686157,0.0913391-0.3466797c0.0707703-0.0860291,0.1611023-0.1260071,0.2797852-0.1328125
			c0.1195984-0.006897,0.2177734,0.031189,0.2904968,0.1063843c0.074707,0.0742188,0.1166992,0.1767883,0.1245117,0.3037109
			c0.0039062,0.1230774-0.0175171,0.2315063-0.0737,0.327179c-0.0556946,0.0975952-0.1478882,0.1523132-0.284729,0.1552429
			C16.2064819,41.1728821,16.1000977,41.1386719,16.0321655,41.0565796 M14.8652039,41.2860718l0.003479-0.4676819
			l0.3496094,0.0047913c0.0625,0,0.1078796,0.0049133,0.1395874,0.0205994
			c0.0517883,0.023407,0.0772095,0.0732117,0.0795898,0.1425171l0.0088196,0.1835938
			c0.0024109,0.0440063,0.003418,0.0712891,0.0057983,0.0898743c0.0049133,0.0127258,0.0073853,0.0263062,0.0137024,0.0361328
			h0.1879883l-0.0028992-0.023407c-0.0214844-0.0118103-0.0385742-0.0332031-0.0458679-0.0664062
			c-0.0064392-0.0214844-0.0098267-0.0538025-0.0112305-0.093811l-0.003479-0.1464844
			c-0.0024109-0.0664062-0.0136108-0.1123047-0.0390015-0.1367188c-0.0249023-0.0341797-0.0596313-0.0585938-0.0992126-0.0712891
			c0.0523071-0.0272827,0.0917969-0.0596008,0.1201782-0.0986023c0.0273132-0.0429993,0.0410156-0.0976868,0.0410156-0.1651001
			c0-0.1259155-0.0513-0.2118835-0.1562805-0.2586975c-0.0561218-0.0254211-0.128418-0.0380859-0.2133179-0.0401001
			l-0.5258789-0.0049133l-0.0039368,1.0987244h0.1513367 M14.8720703,40.3153992l0.3725281,0.0038757
			c0.0541992,0.0049133,0.0967102,0.0118103,0.1279907,0.0263977c0.0570984,0.0273132,0.0838928,0.0810852,0.0838928,0.1592102
			c0,0.0741882-0.0209961,0.1230164-0.0628967,0.1523132c-0.0401001,0.0273743-0.0982056,0.0390625-0.1674805,0.0390625
			l-0.358429-0.0038757l0.003418-0.3769836 M14.8720703,40.3153992l0.3725281,0.0038757 M14.8720703,40.3153992l0.3725281,0.0038757
			 M14.8720703,40.3153992l0.3725281,0.0038757 M14.8720703,40.3153992l0.3725281,0.0038757 M13.7631836,41.2323914
			l0.030304-0.4658203l0.3563843,0.0244141c0.1152039,0.0097961,0.2012329-0.0205078,0.2593079-0.0791016
			c0.0599976-0.0575867,0.0913086-0.1328125,0.0957336-0.217804c0.0072937-0.0995789-0.0181274-0.180603-0.07724-0.2402039
			c-0.0560608-0.0565796-0.1366882-0.0868835-0.2372742-0.0966797l-0.5092163-0.0322266l-0.0704041,1.0957031l0.1514282,0.0097961
			 M14.2772827,40.6308899c-0.0428772,0.0282898-0.1019897,0.0350952-0.1698914,0.032196l-0.305603-0.0155945l0.0257874-0.381897
			l0.3033142,0.0166016c0.0595093,0.0039062,0.1074219,0.015686,0.1367188,0.0332031
			c0.0614929,0.0322571,0.0883789,0.0908813,0.0829773,0.1728821c-0.0043945,0.070282-0.0287781,0.1162109-0.0737,0.1426086"/>
		<path class="st9" d="M9.2055664,20.5805664c0.129364-0.3115845,1.3266296-1.1611633,5.2548218-0.789093
			c0,0,0.6641235,0.405304,1.0541992,0.3535156c0.2226868-0.0288086-0.1303101,0.0137024-0.4207764-0.2275085
			c-0.2958984-0.2406921-0.3589172-0.7359009,0.3172607-0.7227173c0.6729126,0.0171204,3.1924133,0.159729,3.2398071,0.3858032
			c0.0439148,0.2290344-1.3320923,0.324707-1.843811,0.3115234c-0.5145874-0.0137024-0.4545898,0.2460938,0.0572205,0.226593
			c1.5995789-0.0571899,3.3457031-0.620697,5.1893921,0.6835022c0.2201843,0.1586914-0.5560913,0.184082-1.156189-0.0711975
			c0,0-1.6270142,0.0844116-2.3301086-0.0307922c0,0-0.5404968,0.4393921-1.2445984,0.3964844
			c0.0913086,0.2279968-0.2602844,1.0791016-2.4736938,0.4389038c-0.3656921,0.1118774-1.6976929,0.3349915-1.5521851-0.0604858
			c-0.3506165,0-0.9657898,0.112793-1.0572205-0.0869141c-0.0882874-0.1958008,1.0825806-0.4931946,1.2881165-0.7055969
			c0,0-2.4775085,0.0238953-2.9467163-0.1470032c0,0-1.4614868,0.328186-1.3755188,0.0434875"/>
		<path class="st10" d="M9.9995117,24.0487976c0.0536804-0.0717163,0.0746765-0.2011414,0.1874695-0.1976929
			c0.2456055,0.0653687,0.4121094,0.5140686,0.7138977,0.2230835c0.1069031-0.0238953,0.1478882,0.1220703,0.2363281,0.1391907
			c0.0561829,0.2489929,0.2567749-0.0508118,0.4062805-0.0336914c0.3197937-0.1426086,0.7153015-0.1763,1.0942078-0.1054993
			c0.0112,0.2442017-0.1802063,0.5141907-0.4204102,0.6532898c0.0048828,0.2460938,0.2285156,0.4038086,0.2240906,0.6513977
			c-0.0385742,0.092804-0.0062866,0.237793-0.1464844,0.2681274c-0.1772156-0.0318298-0.3525085-0.0503235-0.4995117-0.1494141
			c-0.0180969-0.0181274-0.0326843-0.0532837-0.070282-0.0415039c-0.0180969,0.0825195,0.1112976,0.1644897,0.1615906,0.2485046
			c-0.0892944,0.1517944-0.2367859,0.0131836-0.3612976,0.0145874c-0.0365906,0.0878906-0.0014954,0.1983032-0.0913086,0.254425
			c-0.157196-0.0048218-0.1889954-0.1753235-0.2857056-0.2607117c-0.0990906,0.1069031,0.0694275,0.1708679,0.0933228,0.2558899
			c-0.0604858,0.3222046-0.0522156,0.6371765-0.3745117,0.8480835l-0.2157898,0.1069336
			c-0.0585938-0.1621094-0.0220032-0.4072266-0.061615-0.5765991c-0.1273804,0.2080078-0.2269897,0.3895874-0.4144897,0.5648804
			c-0.2192688-0.0717773-0.3467102-0.3301086-0.3945312-0.5443726c-0.0918274-0.2495422-0.0395508-0.5479126,0.1576843-0.7285461
			c-0.0673828-0.1308899-0.2973633-0.1005554-0.3295898-0.2870789c-0.344696-0.2241821-0.534668,0.3925171-0.7573242,0.0722046
			c-0.0722351-0.2993164,0.0137024-0.6719055,0.2304993-0.894989c-0.0478516-0.1226196-0.2084961-0.090332-0.3032227-0.1611023
			C8.5625,24.1845703,8.2494812,23.9901733,8.265625,23.6576843c0.5922852-0.2240906,1.3017578-0.0596008,1.7324219,0.3911133"/>
		<path class="st4" d="M10.1273804,24.6322632c0.0596008,0.0855103-0.0126953,0.2026978,0.0629883,0.2984314
			c0.1197205-0.2232056,0.2349243,0.0482788,0.3770447,0.0267944c0.0433655,0.0532227,0.0145874,0.1270142,0.0228577,0.1875
			c-0.1756897,0.0463867-0.3876648,0.1021118-0.5428772-0.0386047l-0.0435181,0.0498962
			c0.0923157,0.0858765,0.1802063,0.1831055,0.1065369,0.3270874c-0.131897,0.0288086-0.3355103,0.0317078-0.4014282-0.1039734
			c-0.034668-0.1118164,0.0795898-0.1929016-0.0410156-0.2827148c-0.0874023,0.1088867-0.0834961,0.254425-0.2656555,0.155304
			c-0.1132507-0.0621033-0.1469421-0.1905212-0.0903015-0.2984009c0.1176758-0.1854858,0.3242188,0.0058899,0.4516602-0.0848999
			c0.0175781-0.159729-0.0410156-0.2988892,0.1049805-0.3867798c0.1254578-0.0224304,0.1835327,0.0717773,0.2592468,0.1503601
			 M11.0409851,24.237793c0.0072937,0.0527039-0.0273132,0.1260071,0.0415039,0.1630859
			c0.089386-0.0484009,0.1841125-0.0116882,0.2354126,0.0766296c-0.0004883,0.0473938,0.0140991,0.1098633-0.0479126,0.1328735
			l-0.1390991-0.0263977c0.0097046-0.026886-0.0346985-0.0440063-0.0517883-0.0703125
			c-0.0610352-0.019104-0.0971985,0.0307007-0.1431274,0.0610046c0.034729,0.0527039,0.1138,0.0811157,0.0948181,0.1480103
			c-0.081604,0.0820007-0.1216125-0.0704041-0.2120056-0.0317993c-0.0609741-0.023407,0.022522-0.1513062-0.0741882-0.1893921
			c-0.1141968,0-0.0385132,0.1875-0.1845093,0.1141968c-0.0527954-0.059082-0.1039734-0.1381836-0.0479126-0.2046204
			c0.0615234-0.0409851,0.1654968-0.0302124,0.2173157,0.0230103c0.0892944-0.0986938,0.0986023-0.4804993,0.3119812-0.1962891
			 M10.3070984,24.015564c-0.0136108,0.2710266,0.1835938,0.0733032,0.3295898,0.2378235
			c-0.1141968-0.0448914-0.1976929,0.1977844-0.3096008,0.0585938l-0.0708008,0.0673828
			c0.0411072,0.0928345,0.1202087,0.1054993,0.0375977,0.2075195c-0.1224976,0.0469055-0.1468811-0.1069031-0.2041016-0.167511
			c-0.0097046-0.0267944,0.0185852-0.0775757-0.0262756-0.0956726c-0.069397,0.0585938-0.1421204,0.0800781-0.237854,0.070282
			c-0.0263672-0.0521851-0.0766296-0.1210938-0.0253601-0.1611023c0.09375-0.1264954,0.2397156,0.0458984,0.3104858-0.0429993
			c0.0118103-0.0791016-0.0570984-0.1743164,0.0318298-0.2285156c0.0614929,0.0108032,0.1400757-0.0223694,0.1654968,0.0541992"/>
		<path class="st2" d="M11.2632141,25.0243835c-0.1421204,0.0401001-0.1201172-0.137207-0.1903992-0.2070007l0.0545654-0.0498047
			C11.1791687,24.8300781,11.2182922,24.941864,11.2632141,25.0243835 M10.6260071,24.7294617
			c-0.0585938,0.2709961-0.2632141-0.0141602-0.3589172-0.0253906
			C10.394989,24.4775085,10.4750977,24.7772827,10.6260071,24.7294617"/>
		<path class="st4" d="M11.070282,24.9701843c0.0405273,0.0942993-0.0927734,0.1694031,0.0209961,0.2382812
			c0.0361023-0.0302734,0.0801086-0.0722961,0.0991211-0.0893555c0.097168,0.0287781,0.2099915,0.0458679,0.2783813,0.1420898
			c0.0727234,0.1996765-0.129364,0.1948853-0.2442017,0.2504883l-0.1132812-0.0049133
			c0.026886-0.055603-0.0493164-0.0791016-0.0683289-0.1175842c-0.0522766-0.0132141-0.0951843,0.0033875-0.1244812,0.0472717
			c0.0249023,0.1264954,0.1795959,0.2256165,0.019989,0.3384094c-0.1347961-0.0087891-0.3442993,0.0435181-0.3320923-0.1430664
			c-0.0502014-0.1049194,0.1376953-0.2680359-0.063385-0.2744141c-0.0664062,0.1420898-0.1392212,0.2792969-0.311615,0.1445923
			l0.0210266-0.2026978c0.1655884,0.0049133,0.3608704,0.0332031,0.4350891-0.1513977
			c0.0473938-0.1336975-0.0825195-0.2572937,0.0336914-0.3637085C10.8895874,24.745575,10.984375,24.8588867,11.070282,24.9701843"
			/>
		<path class="st5" d="M10.9491882,25.2753906c0.0424805,0.1005859-0.0718079,0.1068726-0.1260071,0.157196
			c-0.0726929,0.0054016-0.1235046-0.0228882-0.1673889-0.0722046c-0.0328064-0.1216125,0.0575867-0.1343079,0.1274109-0.1821899
			C10.8642883,25.1445007,10.8978882,25.2387695,10.9491882,25.2753906"/>
		<path class="st2" d="M10.8500977,25.3407898c-0.0181274,0.0238953-0.0430298,0.0160828-0.0703125,0.0224915l-0.0253906-0.1216125
			C10.8085938,25.246582,10.8783875,25.2636719,10.8500977,25.3407898"/>
	</g>
</g>
</svg>
