<?xml version="1.0" encoding="utf-8"?>
<!-- Generator: Adobe Illustrator 22.1.0, SVG Export Plug-In . SVG Version: 6.00 Build 0)  -->
<svg version="1.1" id="Layer_1" xmlns="http://www.w3.org/2000/svg" xmlns:xlink="http://www.w3.org/1999/xlink" x="0px" y="0px"
	 viewBox="0 0 60 60" style="enable-background:new 0 0 60 60;" xml:space="preserve">
<style type="text/css">
	.st0{clip-path:url(#SVGID_2_);fill:#E52521;}
	.st1{clip-path:url(#SVGID_2_);fill:#325DA8;}
	.st2{clip-path:url(#SVGID_2_);fill:#FFFFFF;}
	.st3{clip-path:url(#SVGID_2_);fill:#FFE505;}
</style>
<g id="XMLID_1_">
	<g>
		<defs>
			<path id="SVGID_1_" d="M59,60H0.9999695C0.4477234,60,0,59.5526733,0,59V0.9999695c0-0.5522461,0.4477234-1,0.9999695-1H59
				c0.5526886,0,0.9999847,0.4477539,0.9999847,1V59C59.9999847,59.5526733,59.5526886,60,59,60L59,60z"/>
		</defs>
		<clipPath id="SVGID_2_">
			<use xlink:href="#SVGID_1_"  style="overflow:visible;"/>
		</clipPath>
		<polygon class="st0" points="-10,-0.0000305 109.9999847,-0.0000305 109.9999847,60 -10,60 -10,-0.0000305 		"/>
		<polygon class="st1" points="-10,-0.0000305 109.9999847,-0.0000305 109.9999847,39.9999695 -10,39.9999695 -10,-0.0000305 		"/>
		<polygon class="st2" points="-10,-0.0000305 109.9999847,-0.0000305 109.9999847,20 -10,20 -10,-0.0000305 		"/>
		<path class="st1" d="M19.9971008,10.5209961c-0.1343079,0-0.2681274,0.0028992-0.4019165,0.0067749
			c-2.5975952,0.0673828-5.0360718,0.7383118-6.7728882,1.5562134l0.0004883,0.0023804
			c-0.1899719,0.0791016-0.3759766,0.1587219-0.5527954,0.2383118l0.5966797,9.3491211
			c0.4136353,4.8858032,3.5977173,7.7299805,7.1353149,8.847168c3.5371094-1.1171875,6.7210999-3.9613647,7.1347046-8.847168
			l0.5932922-9.3193359c-0.1773071-0.0917664-0.362793-0.1806946-0.5527954-0.2680969l0.0004883-0.0023804
			c-1.8251953-0.8598938-4.4256592-1.5581055-7.1717834-1.5629883c-0.0019836,0-0.0039062,0-0.0058899,0
			C19.9989624,10.5209961,19.9979858,10.5209961,19.9971008,10.5209961L19.9971008,10.5209961z"/>
		<path class="st2" d="M18.0687866,25.8173828c-0.6445007,0-1.2884827,0.5151062-1.9331055,0.5151062
			c-0.1401062,0-0.2728882-0.0161133-0.4017944-0.0410156c1.1147156,1.4892883,2.6352234,2.4858093,4.2666016,3.0591125
			c1.6273804-0.5722961,3.1459961-1.5698242,4.2597961-3.0567017c-0.1260071,0.0240173-0.2564087,0.0386047-0.3930969,0.0386047
			c-0.644104,0-1.2886047-0.5151062-1.9325867-0.5151062c-0.6445923,0-1.2886047,0.5151062-1.9331055,0.5151062
			C19.3573914,26.332489,18.7128906,25.8173828,18.0687866,25.8173828L18.0687866,25.8173828L18.0687866,25.8173828z
			 M18.0687866,24.7255859c-0.6445007,0-1.2884827,0.5155945-1.9331055,0.5155945
			c-0.5097046,0-0.9476929-0.1806946-1.2871094-0.4370117c0.1197205,0.254425,0.2466125,0.5020142,0.3853149,0.7358093
			c0.265625,0.1656189,0.5679016,0.2774048,0.9017944,0.2774048c0.6446228,0,1.2886047-0.5155945,1.9331055-0.5155945
			c0.644104,0,1.2886047,0.5155945,1.9327087,0.5155945c0.6445007,0,1.2885132-0.5155945,1.9331055-0.5155945
			c0.6439819,0,1.2884827,0.5155945,1.9325867,0.5155945c0.3295898,0,0.6273804-0.1094055,0.8905945-0.2709961
			c0.1387024-0.2329102,0.2651062-0.4794922,0.3853149-0.7329102c-0.3379211,0.2514343-0.7720032,0.4277039-1.2759094,0.4277039
			c-0.644104,0-1.2886047-0.5155945-1.9325867-0.5155945c-0.6445923,0-1.2886047,0.5155945-1.9331055,0.5155945
			C19.3573914,25.2411804,18.7128906,24.7255859,18.0687866,24.7255859L18.0687866,24.7255859L18.0687866,24.7255859z
			 M20.0014954,16.9901733l-1.7460938,3.409729l-1.1289368-1.4663086l-2.9492798,3.8978882
			c0.0532837,0.2421875,0.1158142,0.4756165,0.1841125,0.7037048c0.3295898,0.5560913,0.9624023,1.1903992,1.7743835,1.1903992
			c0.6446228,0,1.2886047-0.5151978,1.9331055-0.5151978c0.644104,0,1.2886047,0.5151978,1.9327087,0.5151978
			c0.6445007,0,1.2885132-0.5151978,1.9331055-0.5151978c0.6439819,0,1.2884827,0.5151978,1.9325867,0.5151978
			c0.8046875,0,1.4336243-0.6225891,1.7655945-1.1748047c0.0708313-0.2344055,0.1343079-0.4756165,0.1895142-0.7246094
			l-2.9458008-3.8925781l-1.1289062,1.4663086L20.0014954,16.9901733L20.0014954,16.9901733z"/>
		<polyline class="st3" points="17.0951843,11.7720032 18.5566101,11.7720032 17.8257141,13.0375977 		"/>
		<polyline class="st3" points="17.0951843,12.6156921 18.5566101,12.6156921 17.8262024,11.3495789 		"/>
		<polyline class="st3" points="21.4462891,11.7720032 22.9081726,11.7720032 22.1771851,13.0375977 		"/>
		<polyline class="st3" points="21.4462891,12.6156921 22.9081726,12.6156921 22.1771851,11.3495789 		"/>
		<polyline class="st3" points="19.2704773,14.6854858 20.7323914,14.6854858 20.0014954,15.9512024 		"/>
		<polyline class="st3" points="19.2704773,15.5292969 20.7323914,15.5292969 20.0014954,14.2637024 		"/>
		<path class="st0" d="M12.8227844,12.0863647c-0.1899719,0.0791016-0.3759766,0.1587219-0.5527954,0.2383118l0.5971985,9.3491211
			c0.4136047,4.8858032,3.5971985,7.7299805,7.1347961,8.847168c3.5371094-1.1171875,6.7210999-3.9613647,7.1347046-8.847168
			l0.5932922-9.3193359c-0.1773071-0.0917664-0.362793-0.1806946-0.5527954-0.2680969l-0.5536804,9.2779236
			c-0.3838196,4.75-3.339325,7.5155945-6.6235046,8.6015015c-3.2837219-1.085907-6.2392883-3.8515015-6.6229858-8.6015015
			L12.8227844,12.0863647L12.8227844,12.0863647z M19.9975891,10.5209961c-0.1387024,0-0.2769165,0.0028992-0.4146118,0.0072937
			C19.7206726,10.5243835,19.8588867,10.5209961,19.9975891,10.5209961L19.9975891,10.5209961z"/>
	</g>
</g>
</svg>
