<?xml version="1.0" encoding="utf-8"?>
<!-- Generator: Adobe Illustrator 22.1.0, SVG Export Plug-In . SVG Version: 6.00 Build 0)  -->
<svg version="1.1" id="Layer_1" xmlns="http://www.w3.org/2000/svg" xmlns:xlink="http://www.w3.org/1999/xlink" x="0px" y="0px"
	 viewBox="0 0 60 60" style="enable-background:new 0 0 60 60;" xml:space="preserve">
<style type="text/css">
	.st0{clip-path:url(#SVGID_2_);fill:#E5262A;}
	.st1{clip-path:url(#SVGID_2_);fill:#144F9F;}
	.st2{clip-path:url(#SVGID_2_);fill:#FFFFFF;}
</style>
<g id="XMLID_1_">
	<g>
		<defs>
			<path id="SVGID_1_" d="M59,60H0.9999695C0.4477234,60,0,59.5526733,0,59V0.9999695c0-0.5522461,0.4477234-1,0.9999695-1H59
				c0.5526886,0,0.9999847,0.4477539,0.9999847,1V59C59.9999847,59.5526733,59.5526886,60,59,60L59,60z"/>
		</defs>
		<clipPath id="SVGID_2_">
			<use xlink:href="#SVGID_1_"  style="overflow:visible;"/>
		</clipPath>
		<polygon class="st0" points="-5.0000305,-0.0000305 84.9999847,-0.0000305 84.9999847,60 -5.0000305,60 -5.0000305,-0.0000305 		
			"/>
		<polygon class="st1" points="-5.0000305,-0.0000305 84.9999847,-0.0000305 84.9999847,39.9999695 -5.0000305,39.9999695 
			-5.0000305,-0.0000305 		"/>
		<polygon class="st2" points="-5.0000305,-0.0000305 84.9999847,-0.0000305 84.9999847,20 -5.0000305,20 -5.0000305,-0.0000305 		
			"/>
		<path class="st2" d="M34.3476868,14.1000671h-0.8106079H21.9916992H10.4462891H9.6357422l-0.0844727,0.8057251
			c-0.0185852,0.175293-0.4511719,4.3973694-0.4511719,13.6688843c0,4.3569031,1.4726868,8.199707,4.3769836,11.4233093
			c2.0346069,2.2588196,4.6922913,4.1601868,8.1240234,5.8125l0.3905945,0.1885071l0.390564-0.1885071
			c3.4322205-1.6523132,6.0894165-3.5536804,8.1245422-5.8125c2.9042664-3.2236023,4.3769836-7.0664062,4.3769836-11.4233093
			c0-9.2715149-0.4326172-13.4935913-0.4512024-13.6688843L34.3476868,14.1000671L34.3476868,14.1000671L34.3476868,14.1000671z"/>
		<path class="st0" d="M21.9916992,44.9999695c-4.9341125-2.3769836-11.9917297-7.093689-11.9917297-16.425293
			c0-9.3309937,0.4463196-13.574707,0.4463196-13.574707h11.5454102h11.5453796c0,0,0.4473267,4.2437134,0.4473267,13.574707
			C33.9844055,37.9062805,26.9262695,42.6229858,21.9916992,44.9999695L21.9916992,44.9999695L21.9916992,44.9999695z"/>
		<path class="st2" d="M23.0482788,26.1283875c1.3359985,0.0214844,3.9423828,0.0737,6.2637024-0.7026062
			c0,0-0.0614929,0.8305054-0.0614929,1.7977905c0,0.967804,0.0614929,1.7984314,0.0614929,1.7984314
			c-2.1288757-0.7124329-4.7582703-0.7276306-6.2637024-0.7085266v5.1543274h-2.1102905v-5.1543274
			c-1.5054016-0.019104-4.1343079-0.0039062-6.2637024,0.7085266c0,0,0.0614929-0.8306274,0.0614929-1.7984314
			c0-0.9672852-0.0614929-1.7977905-0.0614929-1.7977905c2.3212891,0.7763062,4.9277954,0.7240906,6.2637024,0.7026062v-3.2367859
			c-1.217804-0.0107422-2.9721985,0.0473633-4.9560852,0.7113953c0,0,0.0610962-0.8305359,0.0610962-1.7983093
			c0-0.967804-0.0610962-1.7978821-0.0610962-1.7978821c1.9809875,0.6625671,3.7333984,0.7216797,4.9506836,0.7109985
			c-0.0625-2.0498352-0.6596985-4.6328125-0.6596985-4.6328125s1.2290955,0.0956726,1.7203064,0.0956726
			c0.4916992,0,1.7201843-0.0956726,1.7201843-0.0956726s-0.5966797,2.5834961-0.659668,4.6328125
			c1.2172852,0.0106812,2.9701538-0.0484314,4.9512024-0.7115173c0,0-0.0615234,0.8305969-0.0615234,1.7984009
			c0,0.9672852,0.0615234,1.7977905,0.0615234,1.7977905c-1.9839478-0.6635132-3.7388306-0.7221069-4.9566345-0.7108765V26.1283875
			L23.0482788,26.1283875L23.0482788,26.1283875z"/>
		<path class="st1" d="M21.9902039,32.9091797c-2.4848328,0-3.815918,3.4472046-3.815918,3.4472046
			s-0.7388-1.6347046-2.7661133-1.6347046c-1.3720703,0-2.3833008,1.2207031-3.0258789,2.3505859
			c2.4960938,3.969696,6.4780884,6.4199219,9.6079102,7.9277039c3.1304016-1.507782,7.1152954-3.9570007,9.6113892-7.9277039
			c-0.6426086-1.1298828-1.6538086-2.3505859-3.0259094-2.3505859c-2.0274048,0-2.769104,1.6347046-2.769104,1.6347046
			S24.4755859,32.9091797,21.9902039,32.9091797L21.9902039,32.9091797L21.9902039,32.9091797z"/>
	</g>
</g>
</svg>
