<?xml version="1.0" encoding="utf-8"?>
<!-- Generator: Adobe Illustrator 22.1.0, SVG Export Plug-In . SVG Version: 6.00 Build 0)  -->
<svg version="1.1" id="Layer_1" xmlns="http://www.w3.org/2000/svg" xmlns:xlink="http://www.w3.org/1999/xlink" x="0px" y="0px"
	 viewBox="0 0 60 60" style="enable-background:new 0 0 60 60;" xml:space="preserve">
<style type="text/css">
	.st0{clip-path:url(#SVGID_2_);fill:#2255A3;}
	.st1{clip-path:url(#SVGID_2_);fill:#225C34;}
	.st2{clip-path:url(#SVGID_2_);fill:#020203;}
	.st3{clip-path:url(#SVGID_2_);fill:#FDD21A;}
	.st4{clip-path:url(#SVGID_2_);fill:#FFFFFF;}
</style>
<g id="XMLID_1_">
	<g>
		<defs>
			<path id="SVGID_1_" d="M59,60H0.9999695C0.4477234,60,0,59.5526733,0,59V0.9999695c0-0.5522461,0.4477234-1,0.9999695-1H59
				c0.5526886,0,0.9999847,0.4477539,0.9999847,1V59C59.9999847,59.5526733,59.5526886,60,59,60L59,60z"/>
		</defs>
		<clipPath id="SVGID_2_">
			<use xlink:href="#SVGID_1_"  style="overflow:visible;"/>
		</clipPath>
		<polygon class="st0" points="-0.9272461,60.0663757 -0.9272461,-0.0664368 119.3369904,-0.0664368 -0.9272461,60.0663757 		"/>
		<polygon class="st1" points="-0.9272461,60.0663757 119.3369904,60.0663757 119.3369904,-0.0664368 -0.9272461,60.0663757 		"/>
		<line class="st2" x1="-0.9272461" y1="60.0663757" x2="119.3369904" y2="-0.0664368"/>
		<polygon class="st3" points="0.2827148,62.4862976 -2.1377258,57.6454773 118.1269836,-2.4863586 120.5469971,2.3539734 
			0.2827148,62.4862976 		"/>
		<polygon class="st4" points="8.2480164,22.1347656 9.598114,26.289978 13.9667664,26.289978 10.4325867,28.8578796 
			11.7826843,33.0126648 8.2480164,30.4447632 4.7133484,33.0126648 6.0634766,28.8578796 2.5292664,26.289978 6.8979492,26.289978 
			8.2480164,22.1347656 		"/>
		<polygon class="st4" points="8.2480164,1.785614 9.598114,5.9408875 13.9667664,5.9408875 10.4325867,8.5087585 
			11.7826843,12.664093 8.2480164,10.0956726 4.7133484,12.664093 6.0634766,8.5087585 2.5292664,5.9408875 6.8979492,5.9408875 
			8.2480164,1.785614 		"/>
		<polygon class="st4" points="20.1186829,11.9603882 21.468811,16.1152039 25.8378906,16.1152039 22.3031616,18.683075 
			23.6532898,22.8383789 20.1186829,20.2704773 16.5844727,22.8383789 17.9346008,18.683075 14.3999023,16.1152039 
			18.7685852,16.1152039 20.1186829,11.9603882 		"/>
		<polygon class="st4" points="31.9892883,1.785614 33.3397827,5.9408875 37.7089844,5.9408875 34.1737976,8.5087585 
			35.5243835,12.664093 31.9892883,10.0956726 28.4550781,12.664093 29.8052063,8.5087585 26.2705078,5.9408875 
			30.6395874,5.9408875 31.9892883,1.785614 		"/>
		<polygon class="st4" points="31.9892883,22.1347656 33.3397827,26.289978 37.7089844,26.289978 34.1737976,28.8578796 
			35.5243835,33.0126648 31.9892883,30.4447632 28.4550781,33.0126648 29.8052063,28.8578796 26.2705078,26.289978 
			30.6395874,26.289978 31.9892883,22.1347656 		"/>
	</g>
</g>
</svg>
