<?xml version="1.0" encoding="utf-8"?>
<!-- Generator: Adobe Illustrator 22.1.0, SVG Export Plug-In . SVG Version: 6.00 Build 0)  -->
<svg version="1.1" id="Layer_1" xmlns="http://www.w3.org/2000/svg" xmlns:xlink="http://www.w3.org/1999/xlink" x="0px" y="0px"
	 viewBox="0 0 60 60" style="enable-background:new 0 0 60 60;" xml:space="preserve">
<style type="text/css">
	.st0{clip-path:url(#SVGID_2_);fill:#4D85C5;}
	.st1{clip-path:url(#SVGID_2_);fill:#FFFFFF;}
</style>
<g id="XMLID_1_">
	<g>
		<defs>
			<path id="SVGID_1_" d="M59,60H0.9999695C0.4477234,60,0,59.5526733,0,59V0.9999695c0-0.5522461,0.4477234-1,0.9999695-1H59
				c0.5526886,0,0.9999847,0.4477539,0.9999847,1V59C59.9999847,59.5526733,59.5526886,60,59,60L59,60z"/>
		</defs>
		<clipPath id="SVGID_2_">
			<use xlink:href="#SVGID_1_"  style="overflow:visible;"/>
		</clipPath>
		<polygon class="st0" points="-15,-0.0000305 74.9999847,-0.0000305 74.9999847,60 -15,60 -15,-0.0000305 		"/>
		<polygon class="st1" points="30,15.5556946 25.5365906,29.2929993 32.405304,31.5243835 30,15.5556946 		"/>
		<polygon class="st1" points="30,15.5556946 34.4638977,29.2929993 27.594696,31.5243835 30,15.5556946 		"/>
		<polygon class="st1" points="43.7373047,25.5365906 29.2929993,25.5365906 29.2929993,32.7587891 43.7373047,25.5365906 		"/>
		<polygon class="st1" points="43.7373047,25.5365906 32.0517883,34.0263672 27.8065796,28.1835632 43.7373047,25.5365906 		"/>
		<polygon class="st1" points="16.2626953,25.5365906 27.9481812,34.0263672 32.1933899,28.1835632 16.2626953,25.5365906 		"/>
		<polygon class="st1" points="16.2626953,25.5365906 30.7069702,25.5365906 30.7069702,32.7587891 16.2626953,25.5365906 		"/>
		<polygon class="st1" points="38.4902039,41.6854858 34.0263672,27.9481812 27.1576843,30.1801758 38.4902039,41.6854858 		"/>
		<polygon class="st1" points="38.4902039,41.6854858 26.8041992,33.195282 31.0497742,27.352478 38.4902039,41.6854858 		"/>
		<polygon class="st1" points="21.5097961,41.6854858 33.195282,33.195282 28.9506836,27.352478 21.5097961,41.6854858 		"/>
		<polygon class="st1" points="21.5097961,41.6854858 25.9730835,27.9481812 32.8417969,30.1801758 21.5097961,41.6854858 		"/>
	</g>
</g>
</svg>
