<?xml version="1.0" encoding="utf-8"?>
<!-- Generator: Adobe Illustrator 22.1.0, SVG Export Plug-In . SVG Version: 6.00 Build 0)  -->
<svg version="1.1" id="Layer_1" xmlns="http://www.w3.org/2000/svg" xmlns:xlink="http://www.w3.org/1999/xlink" x="0px" y="0px"
	 viewBox="0 0 60 60" style="enable-background:new 0 0 60 60;" xml:space="preserve">
<style type="text/css">
	.st0{clip-path:url(#SVGID_2_);fill:#273371;}
	.st1{clip-path:url(#SVGID_2_);fill:#E03D31;}
	.st2{clip-path:url(#SVGID_2_);fill:#020203;}
	.st3{clip-path:url(#SVGID_2_);fill:#FFFFFF;}
	.st4{clip-path:url(#SVGID_2_);fill:#FAB725;}
	.st5{clip-path:url(#SVGID_2_);fill:#00784A;}
</style>
<g id="XMLID_1_">
	<g>
		<defs>
			<path id="SVGID_1_" d="M59,60H0.9999695C0.4477234,60,0,59.5526733,0,59V0.9999695c0-0.5522461,0.4477234-1,0.9999695-1H59
				c0.5526886,0,0.9999847,0.4477539,0.9999847,1V59C59.9999847,59.5526733,59.5526886,60,59,60L59,60z"/>
		</defs>
		<clipPath id="SVGID_2_">
			<use xlink:href="#SVGID_1_"  style="overflow:visible;"/>
		</clipPath>
		<polygon class="st0" points="-0.1811523,-0.289093 -0.1811523,60.289093 90.6854858,60.289093 90.6854858,-0.289093 
			-0.1811523,-0.289093 		"/>
		<polygon class="st1" points="-0.1811523,-0.289093 -0.1811523,29.9999695 90.6854858,29.9999695 90.6854858,-0.289093 
			-0.1811523,-0.289093 		"/>
		<path class="st2" d="M45.2520142,29.9999695h45.4334717 M-0.1811523-0.289093l45.4331665,30.2890625L-0.1811523,60.289093"/>
		<polygon class="st3" points="5.4189453,68.6894836 -5.7817383,51.8886719 27.0507812,29.9999695 -5.7817383,8.1117859 
			5.4189453,-8.6894836 48.3085938,19.9037781 90.6854858,19.9037781 90.6854858,40.0966797 48.3085938,40.0966797 
			5.4189453,68.6894836 		"/>
		<polyline class="st2" points="-0.1811523,-0.289093 45.2520142,29.9999695 -0.1811523,60.289093 		"/>
		<polygon class="st4" points="2.8100586,64.7753906 -5.7817383,51.8886719 27.0507812,29.9999695 -5.7817383,8.1117859 
			2.6694336,-4.5649719 54.9033051,29.9999695 2.8100586,64.7753906 		"/>
		<polygon class="st5" points="3.1791992,65.3291016 -3.5415039,55.2489624 34.3310852,29.9999695 -3.5415039,4.7514343 
			3.1791992,-5.3291321 47.085907,23.9423828 90.6854858,23.9423828 90.6854858,36.0575867 47.085907,36.0575867 
			3.1791992,65.3291016 		"/>
	</g>
</g>
</svg>
