<?xml version="1.0" encoding="utf-8"?>
<!-- Generator: Adobe Illustrator 22.1.0, SVG Export Plug-In . SVG Version: 6.00 Build 0)  -->
<svg version="1.1" id="Layer_1" xmlns="http://www.w3.org/2000/svg" xmlns:xlink="http://www.w3.org/1999/xlink" x="0px" y="0px"
	 viewBox="0 0 60 60" style="enable-background:new 0 0 60 60;" xml:space="preserve">
<style type="text/css">
	.st0{clip-path:url(#SVGID_2_);fill:#0C8A38;}
	.st1{clip-path:url(#SVGID_2_);fill:#FFFFFF;}
	.st2{clip-path:url(#SVGID_2_);fill:#020203;}
	.st3{clip-path:url(#SVGID_2_);fill:#DA171C;}
	.st4{clip-path:url(#SVGID_2_);fill:#244D9C;}
	.st5{clip-path:url(#SVGID_2_);fill:#FCDD0C;}
</style>
<g id="XMLID_1_">
	<g>
		<defs>
			<path id="SVGID_1_" d="M59,60H0.9999695C0.4477234,60,0,59.5526733,0,59V0.9999695c0-0.5522461,0.4477234-1,0.9999695-1H59
				c0.5526886,0,0.9999847,0.4477539,0.9999847,1V59C59.9999847,59.5526733,59.5526886,60,59,60L59,60z"/>
		</defs>
		<clipPath id="SVGID_2_">
			<use xlink:href="#SVGID_1_"  style="overflow:visible;"/>
		</clipPath>
		<polygon class="st0" points="0,-0.0000305 120,-0.0000305 120,60 0,60 0,-0.0000305 		"/>
		<polygon class="st1" points="0,-0.0000305 120,-0.0000305 120,41.9999695 0,41.9999695 0,-0.0000305 		"/>
		<polygon class="st2" points="0,-0.0000305 120,-0.0000305 120,17.9999695 0,17.9999695 0,-0.0000305 		"/>
		<polygon class="st3" points="0,20.9999695 120,20.9999695 120,38.9999695 0,38.9999695 0,20.9999695 		"/>
		<polygon class="st4" points="0,-0.0000305 51.9618988,29.9999695 0,60 0,-0.0000305 		"/>
		<polygon class="st5" points="7.7206726,29.9999695 25.0869141,35.6425781 14.3540039,20.8695984 14.3540039,39.1298828 
			25.0869141,24.3573914 7.7206726,29.9999695 		"/>
	</g>
</g>
</svg>
