<?xml version="1.0" encoding="utf-8"?>
<!-- Generator: Adobe Illustrator 22.1.0, SVG Export Plug-In . SVG Version: 6.00 Build 0)  -->
<svg version="1.1" id="Layer_1" xmlns="http://www.w3.org/2000/svg" xmlns:xlink="http://www.w3.org/1999/xlink" x="0px" y="0px"
	 viewBox="0 0 60 60" style="enable-background:new 0 0 60 60;" xml:space="preserve">
<style type="text/css">
	.st0{clip-path:url(#SVGID_2_);fill:#020203;}
	.st1{clip-path:url(#SVGID_2_);fill:#FFFFFF;}
	.st2{clip-path:url(#SVGID_2_);fill:#CE1327;}
	.st3{fill:#037B3E;}
</style>
<g id="XMLID_1_">
	<g>
		<defs>
			<path id="SVGID_1_" d="M59,60H0.9999695C0.4477234,60,0,59.5526733,0,59V0.9999695c0-0.5522461,0.4477234-1,0.9999695-1H59
				c0.5526886,0,0.9999847,0.4477539,0.9999847,1V59C59.9999847,59.5526733,59.5526886,60,59,60L59,60z"/>
		</defs>
		<clipPath id="SVGID_2_">
			<use xlink:href="#SVGID_1_"  style="overflow:visible;"/>
		</clipPath>
		<polygon class="st0" points="-5.3100586,-0.0000305 65.3095856,-0.0000305 65.3095856,60 -5.3100586,60 -5.3100586,-0.0000305 		
			"/>
		<polygon class="st1" points="-5.3100586,-0.0000305 65.3095856,-0.0000305 65.3095856,39.9999695 -5.3100586,39.9999695 
			-5.3100586,-0.0000305 		"/>
		<polygon class="st2" points="-5.3100586,-0.0000305 65.3095856,-0.0000305 65.3095856,20 -5.3100586,20 -5.3100586,-0.0000305 		
			"/>
	</g>
	<polygon class="st3" points="45,22.4999695 46.8622742,28.2294922 52.8856812,28.2294922 48.0106812,31.766571 
		49.8739929,37.4999695 45,33.9589844 40.1259766,37.4999695 41.9883118,31.7704773 37.1142883,28.2294922 43.1387024,28.2294922 
		45,22.4999695 	"/>
	<polygon class="st3" points="15,22.4999695 16.8617859,28.2294922 22.8861694,28.2294922 18.0111694,31.766571 
		19.8739929,37.4999695 15,33.9589844 10.1264954,37.4999695 11.987793,31.7704773 7.1137695,28.2294922 13.1387024,28.2294922 
		15,22.4999695 	"/>
</g>
</svg>
