<?xml version="1.0" encoding="utf-8"?>
<!-- Generator: Adobe Illustrator 22.1.0, SVG Export Plug-In . SVG Version: 6.00 Build 0)  -->
<svg version="1.1" id="Layer_1" xmlns="http://www.w3.org/2000/svg" xmlns:xlink="http://www.w3.org/1999/xlink" x="0px" y="0px"
	 viewBox="0 0 60 60" style="enable-background:new 0 0 60 60;" xml:space="preserve">
<style type="text/css">
	.st0{clip-path:url(#SVGID_2_);fill:#E52520;}
	.st1{clip-path:url(#SVGID_2_);fill:#283376;}
	.st2{clip-path:url(#SVGID_2_);fill:#FFFFFF;}
</style>
<g id="XMLID_1_">
	<g>
		<defs>
			<path id="SVGID_1_" d="M59,60H0.9999695C0.4477234,60,0,59.5526733,0,59V0.9999695c0-0.5522461,0.4477234-1,0.9999695-1H59
				c0.5526886,0,0.9999847,0.4477539,0.9999847,1V59C59.9999847,59.5526733,59.5526886,60,59,60L59,60z"/>
		</defs>
		<clipPath id="SVGID_2_">
			<use xlink:href="#SVGID_1_"  style="overflow:visible;"/>
		</clipPath>
		<polygon class="st0" points="0,-0.0000305 89.9999847,-0.0000305 89.9999847,60 0,60 0,-0.0000305 		"/>
		<polygon class="st1" points="0,-0.0000305 45,-0.0000305 45,29.9999695 0,29.9999695 0,-0.0000305 		"/>
		<path class="st2" d="M22.5,9.3749695c3.1063843,0,5.625,2.5186157,5.625,5.625c0,3.1064148-2.5186157,5.625-5.625,5.625
			c-3.1064148,0-5.625-2.5185852-5.625-5.625C16.875,11.8935852,19.3935852,9.3749695,22.5,9.3749695L22.5,9.3749695z"/>
		<path class="st2" d="M23.8378906,21.2338867L22.5,26.2499695l-1.3379211-5.0160828
			c0.4320984,0.0932007,0.8789062,0.1410828,1.3379211,0.1410828
			C22.9589844,21.3749695,23.4057922,21.3270874,23.8378906,21.2338867L23.8378906,21.2338867z"/>
		<path class="st2" d="M26.7759094,19.7299805L28.125,24.7426758l-3.6665039-3.6747742
			c0.4204102-0.1358337,0.8314819-0.3174133,1.2290039-0.546936C26.0849915,20.2914734,26.4481812,20.0263977,26.7759094,19.7299805
			L26.7759094,19.7299805z"/>
		<path class="st2" d="M28.5679016,16.9584656l3.675293,3.6665039l-5.0131836-1.3490906
			c0.2963867-0.3276978,0.5614624-0.6908875,0.7909851-1.0884094C28.2504883,17.789978,28.4320679,17.3788757,28.5679016,16.9584656
			L28.5679016,16.9584656z"/>
		<path class="st2" d="M28.7338867,13.6620789L33.75,14.9999695l-5.0161133,1.3379211
			C28.8270874,15.9057922,28.875,15.4589844,28.875,14.9999695C28.875,14.5409851,28.8270874,14.0941772,28.7338867,13.6620789
			L28.7338867,13.6620789z"/>
		<path class="st2" d="M27.230011,10.7240601l5.0131836-1.3490906l-3.675293,3.6665039
			c-0.1358337-0.4204102-0.3174133-0.8314819-0.5469055-1.2290039C27.7914734,11.414978,27.5263977,11.0517883,27.230011,10.7240601
			L27.230011,10.7240601z"/>
		<path class="st2" d="M24.4584961,8.9320984L28.125,5.2572937l-1.3490906,5.0126648
			c-0.3277283-0.2963562-0.690918-0.5614929-1.0884094-0.7909851C25.289978,9.2495117,24.8789062,9.0678711,24.4584961,8.9320984
			L24.4584961,8.9320984z"/>
		<path class="st2" d="M21.1620789,8.7661133L22.5,3.7499695l1.3378906,5.0161438
			C23.4057922,8.672821,22.9589844,8.6249695,22.5,8.6249695C22.0409851,8.6249695,21.5941772,8.672821,21.1620789,8.7661133
			L21.1620789,8.7661133z"/>
		<path class="st2" d="M18.2240906,10.2699585L16.875,5.2572937l3.6665039,3.6748047
			c-0.4204102,0.1357727-0.8315125,0.3174133-1.2290039,0.546875C18.914978,9.7084656,18.5517883,9.9736023,18.2240906,10.2699585
			L18.2240906,10.2699585z"/>
		<path class="st2" d="M16.4320679,13.0414734l-3.6747742-3.6665039l5.0126953,1.3490906
			c-0.2964172,0.3277283-0.5615234,0.690918-0.7909851,1.0884094
			C16.7494812,12.2099915,16.5679016,12.6210632,16.4320679,13.0414734L16.4320679,13.0414734z"/>
		<path class="st2" d="M16.2660828,16.3378906L11.25,14.9999695l5.0160828-1.3378906
			C16.1728821,14.0941772,16.125,14.5409851,16.125,14.9999695C16.125,15.4589844,16.1728821,15.9057922,16.2660828,16.3378906
			L16.2660828,16.3378906z"/>
		<path class="st2" d="M17.769989,19.2758789l-5.0126953,1.3490906l3.6747742-3.6665039
			c0.1358337,0.4204102,0.3174133,0.8315125,0.546936,1.2290039C17.2084656,18.5849915,17.4735718,18.9481812,17.769989,19.2758789
			L17.769989,19.2758789z"/>
		<path class="st2" d="M20.5415039,21.0679016L16.875,24.7426758l1.3490906-5.0126953
			c0.3276978,0.2964172,0.6908875,0.5614929,1.0884094,0.7909851
			C19.7099915,20.7504883,20.1210938,20.9320679,20.5415039,21.0679016L20.5415039,21.0679016z"/>
	</g>
</g>
</svg>
