<?xml version="1.0" encoding="utf-8"?>
<!-- Generator: Adobe Illustrator 22.1.0, SVG Export Plug-In . SVG Version: 6.00 Build 0)  -->
<svg version="1.1" id="Layer_1" xmlns="http://www.w3.org/2000/svg" xmlns:xlink="http://www.w3.org/1999/xlink" x="0px" y="0px"
	 viewBox="0 0 60 60" style="enable-background:new 0 0 60 60;" xml:space="preserve">
<style type="text/css">
	.st0{clip-path:url(#SVGID_2_);fill:#0C682F;}
	.st1{clip-path:url(#SVGID_2_);fill:#FFFFFF;}
	.st2{clip-path:url(#SVGID_2_);fill:#CC1417;}
	.st3{clip-path:url(#SVGID_2_);fill:#F8C300;}
	.st4{fill:#F8C300;}
</style>
<g id="XMLID_1_">
	<g>
		<defs>
			<path id="SVGID_1_" d="M59,60H0.9999695C0.4477234,60,0,59.5526733,0,59V0.9999695c0-0.5522461,0.4477234-1,0.9999695-1H59
				c0.5526886,0,0.9999847,0.4477539,0.9999847,1V59C59.9999847,59.5526733,59.5526886,60,59,60L59,60z"/>
		</defs>
		<clipPath id="SVGID_2_">
			<use xlink:href="#SVGID_1_"  style="overflow:visible;"/>
		</clipPath>
		<polygon class="st0" points="-30,-0.0000305 89.9999847,-0.0000305 89.9999847,60 -30,60 -30,-0.0000305 		"/>
		<polygon class="st1" points="-30,-0.0000305 89.9999847,-0.0000305 89.9999847,42.8573914 -30,42.8573914 -30,-0.0000305 		"/>
		<polygon class="st2" points="-30,-0.0000305 89.9999847,-0.0000305 89.9999847,17.1430664 -30,17.1430664 -30,-0.0000305 		"/>
		<path class="st3" d="M27.6000671,29.2025757c0.2974243-0.5112,0.953125-0.6849976,1.4648132-0.3871765
			c0.3199158,0.1855774,0.5209961,0.523468,0.5323181,0.8930664v4.285614h0.805603v-4.285614
			c0.0180969-0.5912781,0.5121765-1.0561829,1.1039734-1.0380859c0.3692017,0.0112305,0.7071228,0.2128906,0.8936157,0.532196
			c0.4393921-1.3251648-0.2792969-2.7563171-1.6044922-3.1957703c-1.3252258-0.4394226-2.7563171,0.2783508-3.1958313,1.6040039
			C27.4286804,28.1273804,27.4286804,28.6860046,27.6000671,29.2025757"/>
		<path class="st1" d="M28.1742859,28.0845032C28.8955078,27.9369812,29.6303711,28.2660828,30,28.9028015
			c0.3695984-0.6367188,1.1044922-0.9658203,1.8261719-0.8182983c-0.1386719-1.0083313-1.0688782-1.7134094-2.0772095-1.5752258
			C28.9306946,26.621582,28.2865906,27.2655945,28.1742859,28.0845032"/>
		<path class="st3" d="M29.5971985,32.282196c-0.1611938,1.7919922-1.7437134,3.1132812-3.5357056,2.953186
			c-0.7240906-0.0654907-1.406189-0.3710938-1.9369812-0.8692017c-0.691925,1.7373047-2.6611328,2.585022-4.3979187,1.8926086
			c-0.2558899-0.101593-0.4981079-0.2344055-0.7216797-0.3955078c0.3124695,3.1229858,4.9926758,2.485321,5.3412781-0.5508118
			c1.4707031,2.5811157,4.7035828,1.8417969,5.6494141-1.3193054L29.5971985,32.282196L29.5971985,32.282196z"/>
		<path class="st3" d="M30.4028015,32.282196c0.1611938,1.7919922,1.7436829,3.1132812,3.535675,2.953186
			c0.7246094-0.0654907,1.406189-0.3710938,1.9364929-0.8692017c0.6924133,1.7373047,2.6611328,2.585022,4.398407,1.8926086
			c0.2559204-0.101593,0.4981079-0.2344055,0.7217102-0.3955078c-0.3125,3.1229858-4.993103,2.485321-5.3417969-0.5508118
			c-1.469696,2.5811157-4.703125,1.8417969-5.6488953-1.3193054L30.4028015,32.282196L30.4028015,32.282196z"/>
		<path class="st3" d="M26.472168,37.8261719c-0.6533813,1.4101257-1.9584961,1.6523132-3.1000671,0.5146179
			c0,0,0.4589844-0.3242188,0.9501953-0.4140015c-0.0917969-0.3916321,0.0970764-0.9346008,0.3631897-1.2276001
			c0.2792969,0.1903992,0.6690063,0.5733032,0.7680969,1.0175781C26.1416016,37.6278992,26.472168,37.8261719,26.472168,37.8261719
			L26.472168,37.8261719L26.472168,37.8261719z"/>
		<path class="st3" d="M31.5800781,37.6669617c-0.8735962,1.2842102-2.2006836,1.3105164-3.141571,0.0019226
			c0,0,0.5052795-0.2450867,1.0048828-0.2528992c-0.0274048-0.4023132,0.2474976-0.9062195,0.5581055-1.1523132
			c0.2440796,0.233429,0.5663757,0.6748047,0.5917969,1.1289062C31.2870789,37.4169922,31.5800781,37.6669617,31.5800781,37.6669617
			L31.5800781,37.6669617L31.5800781,37.6669617z"/>
		<path class="st3" d="M36.6464844,38.3407898c-1.0712891,1.1259766-2.3847961,0.9355774-3.1006165-0.5088196
			c0,0,0.5391235-0.1600647,1.0332336-0.0868835c0.0380859-0.4003906,0.391571-0.8535156,0.7383118-1.0458984
			c0.203064,0.2705078,0.4491577,0.757782,0.4003906,1.210968C36.3974915,38.0469055,36.6464844,38.3407898,36.6464844,38.3407898
			L36.6464844,38.3407898L36.6464844,38.3407898z"/>
		<path class="st3" d="M38.085907,41.7382812c-5.2900391-1.5752258-10.8822937-1.5752258-16.171814,0l-0.456604-1.5342102
			c5.5884094-1.6630859,11.496582-1.6630859,17.0845032,0L38.085907,41.7382812L38.085907,41.7382812z"/>
	</g>
	<polygon class="st4" points="42,30.4286804 42.4813843,31.9091797 44.0380859,31.9091797 42.7782898,32.8241882 
		43.2597961,34.3046875 42,33.3895874 40.7402039,34.3046875 41.2216797,32.8241882 39.9618835,31.9091797 41.5185852,31.9091797 
		42,30.4286804 	"/>
	<polygon class="st4" points="17.9912109,30.4286804 18.4721985,31.9091797 20.0292969,31.9091797 18.7695007,32.8241882 
		19.2504883,34.3046875 17.9912109,33.3895874 16.7313843,34.3046875 17.2128906,32.8241882 15.953064,31.9091797 
		17.5102844,31.9091797 17.9912109,30.4286804 	"/>
	<polygon class="st4" points="40.3925781,24.4277039 40.8729858,25.9081726 42.4306946,25.9081726 41.1708984,26.8231812 
		41.6522827,28.3041992 40.3925781,27.3891907 39.132782,28.3041992 39.6142883,26.8231812 38.3544922,25.9081726 
		39.9111023,25.9081726 40.3925781,24.4277039 	"/>
	<polygon class="st4" points="19.5849915,24.4277039 20.0658875,25.9081726 21.6225891,25.9081726 20.3632812,26.8231812 
		20.8441772,28.3041992 19.5849915,27.3891907 18.3251953,28.3041992 18.8061829,26.8231812 17.546875,25.9081726 
		19.1034851,25.9081726 19.5849915,24.4277039 	"/>
	<polygon class="st4" points="35.9971008,20.0390625 36.4775085,21.5194702 38.0351868,21.5194702 36.7753906,22.4346008 
		37.2568054,23.9154968 35.9971008,23.0004883 34.7373047,23.9154968 35.2187805,22.4346008 33.9589844,21.5194702 
		35.5155945,21.5194702 35.9971008,20.0390625 	"/>
	<polygon class="st4" points="30,18.4277039 30.4809875,19.9081726 32.0380859,19.9081726 30.7782898,20.8236694 
		31.2597961,22.3041992 30,21.3891907 28.7402039,22.3041992 29.2216797,20.8236694 27.9618835,19.9081726 29.5189819,19.9081726 
		30,18.4277039 	"/>
	<polygon class="st4" points="24.0028992,20.0390625 24.4838867,21.5194702 26.0404968,21.5194702 24.7812805,22.4346008 
		25.2621765,23.9154968 24.0028992,23.0004883 22.7431946,23.9154968 23.2240906,22.4346008 21.9647827,21.5194702 
		23.5214844,21.5194702 24.0028992,20.0390625 	"/>
</g>
</svg>
