<?xml version="1.0" encoding="utf-8"?>
<!-- Generator: Adobe Illustrator 22.1.0, SVG Export Plug-In . SVG Version: 6.00 Build 0)  -->
<svg version="1.1" id="Layer_1" xmlns="http://www.w3.org/2000/svg" xmlns:xlink="http://www.w3.org/1999/xlink" x="0px" y="0px"
	 viewBox="0 0 60 60" style="enable-background:new 0 0 60 60;" xml:space="preserve">
<style type="text/css">
	.st0{clip-path:url(#SVGID_2_);fill:#25377E;}
	.st1{clip-path:url(#SVGID_2_);fill:#FFFFFF;}
	.st2{clip-path:url(#SVGID_2_);fill:#E72E3C;}
	.st3{fill:#FFFFFF;}
</style>
<g id="XMLID_1_">
	<g>
		<defs>
			<path id="SVGID_1_" d="M59,60H0.9999695C0.4477234,60,0,59.5526733,0,59V0.9999695c0-0.5522461,0.4477234-1,0.9999695-1H59
				c0.5526886,0,0.9999847,0.4477539,0.9999847,1V59C59.9999847,59.5526733,59.5526886,60,59,60L59,60z"/>
		</defs>
		<clipPath id="SVGID_2_">
			<use xlink:href="#SVGID_1_"  style="overflow:visible;"/>
		</clipPath>
		<polygon class="st0" points="-15,-0.0000305 74.9999847,-0.0000305 74.9999847,60 -15,60 -15,-0.0000305 		"/>
		<polygon class="st1" points="0,-0.0000305 36.5995789,-0.0000305 36.5995789,24.6000671 0,24.6000671 0,-0.0000305 		"/>
		<polygon class="st0" points="0,-0.0000305 12,-0.0000305 12,23.9999695 0,23.9999695 0,-0.0000305 		"/>
		<polygon class="st2" points="24,-0.0000305 36,-0.0000305 36,23.9999695 24,23.9999695 24,-0.0000305 		"/>
		<path class="st1" d="M56.0995789,40.5751953h-6v2.0995789h6V40.5751953L56.0995789,40.5751953z M44.7001953,40.5751953h-6
			v2.0995789h6V40.5751953L44.7001953,40.5751953z M38.25,27.4501953l1.9315796,3.074707h5.4931946v10.7250671l-4.125-6.4501953
			L36,43.6503906h2.7001953l2.8495789-5.1006165l5.8506165,10.5l5.8495941-10.5l2.8495941,5.1006165h2.7002106l-5.5498047-8.8506165
			L49.125,41.2499695v-5.9247742h2.4745789l1.8379059-2.9248047H49.125v-1.8754883h5.4940948l1.9306946-3.074707H38.25
			L38.25,27.4501953z"/>
		<polygon class="st1" points="47.4003906,51.1503906 49.2519836,56.8485718 44.4042969,53.3261719 50.3954773,53.3261719 
			45.5487671,56.8485718 47.4003906,51.1503906 		"/>
		<polygon class="st1" points="40.6503906,46.0497742 42.5019836,51.7479858 37.6542969,48.226593 43.6454773,48.226593 
			38.7987671,51.7479858 40.6503906,46.0497742 		"/>
		<polygon class="st1" points="54.1504059,46.0497742 56.0019989,51.7479858 51.1542969,48.226593 57.1454773,48.226593 
			52.2987823,51.7479858 54.1504059,46.0497742 		"/>
		<polygon class="st1" points="34.9501953,30.8998718 36.8017883,36.5985718 31.9541016,33.0761719 37.9462891,33.0761719 
			33.0986023,36.5985718 34.9501953,30.8998718 		"/>
		<polygon class="st1" points="59.8495789,30.8998718 61.7011871,36.5985718 56.8545074,33.0761719 62.8456879,33.0761719 
			57.9979858,36.5985718 59.8495789,30.8998718 		"/>
	</g>
	<polygon class="st3" points="34.9501953,30.8998718 35.657196,33.0761719 37.9462891,33.0761719 36.0946655,34.421875 
		36.8017883,36.5985718 34.9501953,35.2528992 33.0986023,36.5985718 33.8056946,34.421875 31.9541016,33.0761719 
		34.2431641,33.0761719 34.9501953,30.8998718 	"/>
</g>
</svg>
