<?xml version="1.0" encoding="utf-8"?>
<!-- Generator: Adobe Illustrator 22.1.0, SVG Export Plug-In . SVG Version: 6.00 Build 0)  -->
<svg version="1.1" id="Layer_1" xmlns="http://www.w3.org/2000/svg" xmlns:xlink="http://www.w3.org/1999/xlink" x="0px" y="0px"
	 viewBox="0 0 60 60" style="enable-background:new 0 0 60 60;" xml:space="preserve">
<style type="text/css">
	.st0{clip-path:url(#SVGID_2_);fill:#CF2228;}
	.st1{clip-path:url(#SVGID_2_);fill:#FAD718;}
</style>
<g id="XMLID_1_">
	<g>
		<defs>
			<path id="SVGID_1_" d="M59,60H0.9999695C0.4477234,60,0,59.5526733,0,59V0.9999695c0-0.5522461,0.4477234-1,0.9999695-1H59
				c0.5526886,0,0.9999847,0.4477539,0.9999847,1V59C59.9999847,59.5526733,59.5526886,60,59,60L59,60z"/>
		</defs>
		<clipPath id="SVGID_2_">
			<use xlink:href="#SVGID_1_"  style="overflow:visible;"/>
		</clipPath>
		<polygon class="st0" points="-30,-0.0000305 -30,60 89.9999847,60 89.9999847,-0.0000305 -30,-0.0000305 		"/>
		<path class="st1" d="M36-0.0000305l-4.0830078,20.4189148c-0.6200867-0.1239929-1.2612-0.1889038-1.9169922-0.1889038
			c-0.6558228,0-1.296936,0.0649109-1.9170227,0.1889038L24-0.0000305H36L36-0.0000305z"/>
		<path class="st1" d="M89.9999847-0.0000305L38.9267883,26.0249023c-0.3399048-0.7627258-0.7745056-1.4741211-1.2919922-2.1191101
			L71.9999847-0.0000305H89.9999847L89.9999847-0.0000305z"/>
		<path class="st1" d="M89.9999847,23.9999695v12l-50.2783051-5.026886c0.032196-0.3203125,0.047821-0.644989,0.047821-0.973114
			c0-0.3280945-0.015625-0.652771-0.047821-0.9730835L89.9999847,23.9999695L89.9999847,23.9999695z"/>
		<path class="st1" d="M89.9999847,60h-18L37.6347961,36.0937805c0.5174866-0.6445923,0.9520874-1.3554993,1.2919922-2.1192017
			L89.9999847,60L89.9999847,60z"/>
		<path class="st1" d="M36,60H24l4.0829773-20.4189148c0.6200867,0.1239929,1.2612,0.1884155,1.9170227,0.1884155
			c0.6557922,0,1.2969055-0.0644226,1.9169922-0.1884155L36,60L36,60z"/>
		<path class="st1" d="M21.0732117,33.9745789c0.3398743,0.7637024,0.7748718,1.4746094,1.2919922,2.1192017L-12,60h-18
			L21.0732117,33.9745789L21.0732117,33.9745789z"/>
		<path class="st1" d="M20.2778015,29.0278015c-0.0317078,0.320282-0.047821,0.6440735-0.047821,0.972168
			c0,0.328125,0.0161133,0.651886,0.047821,0.9721985L-30,35.9999695v-12L20.2778015,29.0278015L20.2778015,29.0278015z"/>
		<path class="st1" d="M22.3652039,23.9057922c-0.5171204,0.644989-0.9521179,1.3563843-1.2919922,2.1191101L-30-0.0000305h18
			L22.3652039,23.9057922L22.3652039,23.9057922z"/>
		<path class="st1" d="M39.5106812,29.9999695c0,5.2529297-4.257782,9.5107117-9.5106812,9.5107117
			c-5.2524109,0-9.5107117-4.257782-9.5107117-9.5107117c0-5.2523804,4.2583008-9.5106812,9.5107117-9.5106812
			C35.2528992,20.4892883,39.5106812,24.7475891,39.5106812,29.9999695L39.5106812,29.9999695z"/>
	</g>
</g>
</svg>
