<?xml version="1.0" encoding="utf-8"?>
<!-- Generator: Adobe Illustrator 22.1.0, SVG Export Plug-In . SVG Version: 6.00 Build 0)  -->
<svg version="1.1" id="Layer_1" xmlns="http://www.w3.org/2000/svg" xmlns:xlink="http://www.w3.org/1999/xlink" x="0px" y="0px"
	 viewBox="0 0 60 60" style="enable-background:new 0 0 60 60;" xml:space="preserve">
<style type="text/css">
	.st0{clip-path:url(#SVGID_2_);fill:#DC2720;}
	.st1{clip-path:url(#SVGID_2_);fill:#FDC72A;}
	.st2{clip-path:url(#SVGID_2_);fill:#020203;}
	.st3{clip-path:url(#SVGID_2_);fill:#FFFFFF;}
</style>
<g id="XMLID_1_">
	<g>
		<defs>
			<path id="SVGID_1_" d="M59,60H0.9999695C0.4477234,60,0,59.5526733,0,59V0.9999695c0-0.5522461,0.4477234-1,0.9999695-1H59
				c0.5526886,0,0.9999847,0.4477539,0.9999847,1V59C59.9999847,59.5526733,59.5526886,60,59,60L59,60z"/>
		</defs>
		<clipPath id="SVGID_2_">
			<use xlink:href="#SVGID_1_"  style="overflow:visible;"/>
		</clipPath>
		<polygon class="st0" points="120,60 120,-0.0000305 0,-0.0000305 0,60 120,60 		"/>
		<polygon class="st1" points="0,-0.0000305 0,60 59.9999847,29.9999695 0,-0.0000305 		"/>
		<polygon class="st2" points="0,-0.0000305 0,60 39.9999695,29.9999695 0,-0.0000305 		"/>
		<polygon class="st3" points="10.3041992,20.6083679 11.8681946,30.9911804 16.8125,30.246582 10.3041992,20.6083679 		"/>
		<polygon class="st3" points="10.3041992,20.6083679 17.6723938,28.089386 14.1098938,31.5976868 10.3041992,20.6083679 		"/>
		<polygon class="st3" points="22.4809875,22.6318054 13.089386,27.3275757 15.3251953,31.7997742 22.4809875,22.6318054 		"/>
		<polygon class="st3" points="22.4809875,22.6318054 17.6430969,31.9511719 13.2050781,29.6474915 22.4809875,22.6318054 		"/>
		<polygon class="st3" points="4.6171875,31.5634766 14.9750977,33.2851868 15.7948914,28.352478 4.6171875,31.5634766 		"/>
		<polygon class="st3" points="4.6171875,31.5634766 14.0087891,26.8681641 16.2445679,31.3397827 4.6171875,31.5634766 		"/>
		<polygon class="st3" points="24.3193054,34.8378906 16.9512024,27.3568726 13.3887024,30.8656921 24.3193054,34.8378906 		"/>
		<polygon class="st3" points="24.3193054,34.8378906 13.9608765,33.1161804 14.7807922,28.184082 24.3193054,34.8378906 		"/>
		<polygon class="st3" points="13.2788086,40.3583984 18.1166687,31.039093 13.6787109,28.7353821 13.2788086,40.3583984 		"/>
		<polygon class="st3" points="13.2788086,40.3583984 11.7147827,29.9750671 16.6591797,29.2304688 13.2788086,40.3583984 		"/>
	</g>
</g>
</svg>
