<?xml version="1.0" encoding="utf-8"?>
<!-- Generator: Adobe Illustrator 22.1.0, SVG Export Plug-In . SVG Version: 6.00 Build 0)  -->
<svg version="1.1" id="Layer_1" xmlns="http://www.w3.org/2000/svg" xmlns:xlink="http://www.w3.org/1999/xlink" x="0px" y="0px"
	 viewBox="0 0 60 60" style="enable-background:new 0 0 60 60;" xml:space="preserve">
<style type="text/css">
	.st0{clip-path:url(#SVGID_2_);fill:#232F5D;}
	.st1{clip-path:url(#SVGID_2_);fill:#FFD207;}
	.st2{clip-path:url(#SVGID_2_);fill:#FFFFFF;}
</style>
<g id="XMLID_1_">
	<g>
		<defs>
			<path id="SVGID_1_" d="M59,60H0.9999695C0.4477234,60,0,59.5526733,0,59V0.9999695c0-0.5522461,0.4477234-1,0.9999695-1H59
				c0.5526886,0,0.9999847,0.4477539,0.9999847,1V59C59.9999847,59.5526733,59.5526886,60,59,60L59,60z"/>
		</defs>
		<clipPath id="SVGID_2_">
			<use xlink:href="#SVGID_1_"  style="overflow:visible;"/>
		</clipPath>
		<polygon class="st0" points="-1.2983704,-0.0000305 61.2978821,-0.0000305 61.2978821,60 -1.2983704,60 -1.2983704,-0.0000305 		
			"/>
		<path class="st1" d="M10.1562805,41.3808899c-0.624054-0.0049133,5.8637085-3.4580078,11.2939148-7.8799133
			c7.1166992-5.7964172,22.4443054-15.0756836,26.9501953-16.5839844c0.4707031-0.157196-0.9657898,0.8026733-1.1524048,1.1137695
			c-4.8114929,5.6938171-0.9715881,16.4389343,5.0410919,21.840332c1.8086243,1.382782,1.7158051,1.4559937,5.0673065,1.5907898
			v0.3135071L10.1562805,41.3808899L10.1562805,41.3808899L10.1562805,41.3808899z"/>
		<path class="st1" d="M9.7646484,42.0087585c0,0-0.45755,0.3271179-0.4560852,0.570343
			c0.0014648,0.2704773,0.5132141,0.6278992,0.5132141,0.6278992l46.5561218,0.5136719l0.8554993-0.570282l-1.1982117-0.742218
			L9.7646484,42.0087585L9.7646484,42.0087585L9.7646484,42.0087585z"/>
		<polygon class="st2" points="12.1933899,17.7572937 10.6283875,17.7572937 10.6283875,18.539978 12.1933899,17.7572937 		"/>
		<polygon class="st2" points="12.1933899,17.7572937 10.9271851,18.6771851 10.4672852,18.0444031 12.1933899,17.7572937 		"/>
		<polygon class="st2" points="11.5957031,19.5971985 11.1117859,18.1088867 10.3676758,18.3505859 11.5957031,19.5971985 		"/>
		<polygon class="st2" points="11.5957031,19.5971985 10.3295898,18.6771851 10.7895813,18.0444031 11.5957031,19.5971985 		"/>
		<polygon class="st2" points="9.6611328,19.5971985 10.9271851,18.6771851 10.4672852,18.0444031 9.6611328,19.5971985 		"/>
		<polygon class="st2" points="9.6611328,19.5971985 10.144989,18.1088867 10.8891907,18.3505859 9.6611328,19.5971985 		"/>
		<polygon class="st2" points="9.0634766,17.7572937 10.3295898,18.6771851 10.7895813,18.0444031 9.0634766,17.7572937 		"/>
		<polygon class="st2" points="9.0634766,17.7572937 10.6283875,17.7572937 10.6283875,18.539978 9.0634766,17.7572937 		"/>
		<polygon class="st2" points="10.6283875,16.620575 10.144989,18.1088867 10.8891907,18.3505859 10.6283875,16.620575 		"/>
		<polygon class="st2" points="10.6283875,16.620575 11.1117859,18.1088867 10.3676758,18.3505859 10.6283875,16.620575 		"/>
		<polygon class="st2" points="18.1312866,23.230957 16.8270874,23.230957 16.8270874,23.882782 18.1312866,23.230957 		"/>
		<polygon class="st2" points="18.1312866,23.230957 17.0762024,23.9970703 16.6928711,23.469696 18.1312866,23.230957 		"/>
		<polygon class="st2" points="17.6332703,24.7637024 17.2299805,23.5233765 16.6098938,23.7250977 17.6332703,24.7637024 		"/>
		<polygon class="st2" points="17.6332703,24.7637024 16.5780945,23.9970703 16.9613953,23.469696 17.6332703,24.7637024 		"/>
		<polygon class="st2" points="16.0209961,24.7637024 17.0762024,23.9970703 16.6928711,23.469696 16.0209961,24.7637024 		"/>
		<polygon class="st2" points="16.0209961,24.7637024 16.4242859,23.5233765 17.0443726,23.7250977 16.0209961,24.7637024 		"/>
		<polygon class="st2" points="15.5228882,23.230957 16.5780945,23.9970703 16.9613953,23.469696 15.5228882,23.230957 		"/>
		<polygon class="st2" points="15.5228882,23.230957 16.8270874,23.230957 16.8270874,23.882782 15.5228882,23.230957 		"/>
		<polygon class="st2" points="16.8270874,22.2831726 16.4242859,23.5233765 17.0443726,23.7250977 16.8270874,22.2831726 		"/>
		<polygon class="st2" points="16.8270874,22.2831726 17.2299805,23.5233765 16.6098938,23.7250977 16.8270874,22.2831726 		"/>
		<polygon class="st2" points="4.9614258,25.0336914 3.3964539,25.0336914 3.3964539,25.8158875 4.9614258,25.0336914 		"/>
		<polygon class="st2" points="4.9614258,25.0336914 3.695282,25.9530945 3.235321,25.320282 4.9614258,25.0336914 		"/>
		<polygon class="st2" points="4.3637695,26.8729858 3.8803711,25.3847961 3.1362305,25.6264954 4.3637695,26.8729858 		"/>
		<polygon class="st2" points="4.3637695,26.8729858 3.0976257,25.9535828 3.5575867,25.320282 4.3637695,26.8729858 		"/>
		<polygon class="st2" points="2.4291992,26.8729858 3.695282,25.9535828 3.235321,25.320282 2.4291992,26.8729858 		"/>
		<polygon class="st2" points="2.4291992,26.8729858 2.9130554,25.3847961 3.657196,25.6264954 2.4291992,26.8729858 		"/>
		<polygon class="st2" points="1.831543,25.0336914 3.0976257,25.9535828 3.5575867,25.320282 1.831543,25.0336914 		"/>
		<polygon class="st2" points="1.831543,25.0336914 3.3964539,25.0336914 3.3964539,25.8158875 1.831543,25.0336914 		"/>
		<polygon class="st2" points="3.3964539,23.8964844 2.9130554,25.3847961 3.657196,25.6264954 3.3964539,23.8964844 		"/>
		<polygon class="st2" points="3.3964539,23.8964844 3.8803711,25.3847961 3.1362305,25.6264954 3.3964539,23.8964844 		"/>
		<polygon class="st2" points="12.4541016,36.4520874 10.6283875,36.4520874 10.6283875,37.3642883 12.4541016,36.4520874 		"/>
		<polygon class="st2" points="12.4541016,36.4520874 10.9770813,37.5243835 10.4403992,36.7860718 12.4541016,36.4520874 		"/>
		<polygon class="st2" points="11.7568054,38.5976868 11.1923828,36.8612976 10.3241882,37.1435852 11.7568054,38.5976868 		"/>
		<polygon class="st2" points="11.7568054,38.5976868 10.2797852,37.5243835 10.8164062,36.7860718 11.7568054,38.5976868 		"/>
		<polygon class="st2" points="9.5,38.5976868 10.9770813,37.5243835 10.4403992,36.7860718 9.5,38.5976868 		"/>
		<polygon class="st2" points="9.5,38.5976868 10.0644836,36.8612976 10.9325867,37.1435852 9.5,38.5976868 		"/>
		<polygon class="st2" points="8.8027039,36.4520874 10.2797852,37.5243835 10.8164062,36.7860718 8.8027039,36.4520874 		"/>
		<polygon class="st2" points="8.8027039,36.4520874 10.6283875,36.4520874 10.6283875,37.3642883 8.8027039,36.4520874 		"/>
		<polygon class="st2" points="10.6283875,35.1249695 10.0644836,36.8612976 10.9325867,37.1435852 10.6283875,35.1249695 		"/>
		<polygon class="st2" points="10.6283875,35.1249695 11.1923828,36.8612976 10.3241882,37.1435852 10.6283875,35.1249695 		"/>
	</g>
</g>
</svg>
