<?xml version="1.0" encoding="utf-8"?>
<!-- Generator: Adobe Illustrator 22.1.0, SVG Export Plug-In . SVG Version: 6.00 Build 0)  -->
<svg version="1.1" id="Layer_1" xmlns="http://www.w3.org/2000/svg" xmlns:xlink="http://www.w3.org/1999/xlink" x="0px" y="0px"
	 viewBox="0 0 60 60" style="enable-background:new 0 0 60 60;" xml:space="preserve">
<style type="text/css">
	.st0{clip-path:url(#SVGID_2_);fill:#E40D1A;}
	.st1{clip-path:url(#SVGID_2_);fill:#FFFFFF;}
</style>
<g id="XMLID_1_">
	<g>
		<defs>
			<path id="SVGID_1_" d="M59,60H0.9999695C0.4477234,60,0,59.5526733,0,59V0.9999695c0-0.5522461,0.4477234-1,0.9999695-1H59
				c0.5526886,0,0.9999847,0.4477539,0.9999847,1V59C59.9999847,59.5526733,59.5526886,60,59,60L59,60z"/>
		</defs>
		<clipPath id="SVGID_2_">
			<use xlink:href="#SVGID_1_"  style="overflow:visible;"/>
		</clipPath>
		<polygon class="st0" points="-15,-0.0000305 74.9999847,-0.0000305 74.9999847,60 -15,60 -15,-0.0000305 		"/>
		<path class="st1" d="M30,14.9999695c8.2841797,0,15,6.7158203,15,15c0,8.2842102-6.7158203,15-15,15
			c-8.2842102,0-15-6.7157898-15-15C15,21.7157898,21.7157898,14.9999695,30,14.9999695L30,14.9999695z"/>
		<path class="st0" d="M30,18.7499695c-6.2134094,0-11.25,5.0366211-11.25,11.25c0,6.2129211,5.0365906,11.25,11.25,11.25
			c3.5897827-0.0048828,6.9618835-1.7226868,9.0762024-4.6239929C37.4188843,38.1493835,35.2509766,38.9960938,33,38.9999695
			c-4.9707336,0-9-4.0292969-9-9s4.0292664-9,9-9c2.2509766,0.0039062,4.4188843,0.8516235,6.0762024,2.3755188
			C36.9618835,20.4735718,33.5897827,18.7553711,30,18.7499695L30,18.7499695z"/>
		<polygon class="st0" points="26.25,29.9999695 38.460907,26.0326843 30.914978,36.4198608 30.914978,23.5800781 
			38.4599915,33.9677734 26.25,29.9999695 		"/>
	</g>
</g>
</svg>
