<?xml version="1.0" encoding="utf-8"?>
<!-- Generator: Adobe Illustrator 22.1.0, SVG Export Plug-In . SVG Version: 6.00 Build 0)  -->
<svg version="1.1" id="Layer_1" xmlns="http://www.w3.org/2000/svg" xmlns:xlink="http://www.w3.org/1999/xlink" x="0px" y="0px"
	 viewBox="0 0 60 60" style="enable-background:new 0 0 60 60;" xml:space="preserve">
<style type="text/css">
	.st0{clip-path:url(#SVGID_2_);fill:#22325F;}
	.st1{clip-path:url(#SVGID_2_);fill:#FDD21A;}
	.st2{clip-path:url(#SVGID_2_);fill:#020203;}
	.st3{clip-path:url(#SVGID_2_);fill:#FFFFFF;}
	.st4{clip-path:url(#SVGID_2_);fill:#F7AC57;}
	.st5{clip-path:url(#SVGID_2_);fill:#F39EA1;}
	.st6{clip-path:url(#SVGID_2_);fill:#EBB3D3;}
	.st7{clip-path:url(#SVGID_2_);fill:#029E49;}
	.st8{clip-path:url(#SVGID_2_);fill:#CE1327;}
	.st9{clip-path:url(#SVGID_5_);}
	.st10{clip-path:url(#SVGID_6_);fill:#020203;}
	.st11{clip-path:url(#SVGID_6_);fill:#FFFFFF;}
	.st12{clip-path:url(#SVGID_10_);}
	.st13{clip-path:url(#SVGID_11_);}
	.st14{clip-path:url(#SVGID_12_);fill:#020203;}
	.st15{clip-path:url(#SVGID_12_);fill:#C91432;}
	.st16{clip-path:url(#SVGID_15_);}
	.st17{clip-path:url(#SVGID_16_);fill:#020203;}
	.st18{clip-path:url(#SVGID_16_);fill:#FFFFFF;}
	.st19{clip-path:url(#SVGID_16_);fill:#C91432;}
</style>
<g id="XMLID_1_">
	<g>
		<defs>
			<path id="SVGID_1_" d="M59,60H0.9999695C0.4477234,60,0,59.5526733,0,59V0.9999695c0-0.5522461,0.4477234-1,0.9999695-1H59
				c0.5526886,0,0.9999847,0.4477539,0.9999847,1V59C59.9999847,59.5526733,59.5526886,60,59,60L59,60z"/>
		</defs>
		<clipPath id="SVGID_2_">
			<use xlink:href="#SVGID_1_"  style="overflow:visible;"/>
		</clipPath>
		<path class="st0" d="M-30-0.0000305h60c8.2841797,16.5684204,1.5683899,36.7158203-15,45
			c-16.5683594,8.2842102-36.7158203,1.5684204-45-15V-0.0000305L-30-0.0000305z"/>
		<polyline class="st0" points="-30,29.9999695 30,29.9999695 30,-0.0000305 89.9999847,-0.0000305 89.9999847,60 -30,60 		"/>
		<path class="st1" d="M70.4999847,17.4999695v9c0,6-3,12.4629211-10.5,15.9628906
			C52.4999847,38.9628906,49.5,32.4999695,49.5,26.4999695v-9H70.4999847L70.4999847,17.4999695z"/>
		<path class="st2" d="M52.7001801,20.7001953v5.7997742c0,2.5479126,0.7431946,8.6143188,7.2998047,12.3633118
			c6.5565948-3.7489929,7.2997894-9.8153992,7.2997894-12.3633118v-5.7997742H52.7001801L52.7001801,20.7001953z
			 M59.9999847,45.9940796l-1.3535156-0.6318054c-4.1142731-1.9198914-7.2939758-4.7099915-9.4501801-8.2929688
			c-1.8945007-3.1473999-2.8965149-6.8017273-2.8965149-10.5693359V14.2997742h27.4004211v12.2001953
			c0,3.7676086-1.0019989,7.421936-2.8965149,10.5693359c-2.156189,3.5829773-5.3358917,6.3730774-9.4501953,8.2929688
			L59.9999847,45.9940796L59.9999847,45.9940796z"/>
		<path class="st3" d="M52.2997742,20.2997742v6.2001953c0,2.6459961,0.7793274,8.983429,7.7002106,12.8222961
			c6.9208984-3.8388672,7.7002106-10.1763,7.7002106-12.8222961v-6.2001953H52.2997742L52.2997742,20.2997742z
			 M59.9999847,45.5526733l-1.1835938-0.5527039c-4.0410004-1.8856812-7.1621094-4.6229858-9.277298-8.1366882
			c-1.8575134-3.0849915-2.8389282-6.6684875-2.8389282-10.3633118V14.7001953h26.5996094v11.7997742
			c0,3.6948242-0.9813843,7.2783203-2.8388977,10.3633118c-2.1151886,3.5137024-5.2362823,6.2510071-9.277298,8.1366882
			L59.9999847,45.5526733L59.9999847,45.5526733z"/>
		<path class="st4" d="M56.2129059,27.4125671c-0.2754211,0.4624329-0.7383118,0.5625-1.1006317,0.4126282
			c-0.375-0.1504211-0.7118835-1.0254211-1.0868835-1.5c-0.3633118-0.4629211-0.4628906-0.2627258-0.7129059-0.5375977
			c-0.2373047-0.2627258-0.6123047-0.4624329-1.2002106-0.7378235c-0.3251953-0.1498718-0.6620789-0.2871094-0.8876953-0.8623047
			C51.3125,23.9501648,51.5497742,23.75,51.7372742,23.6747742c0.1875-0.0625,0.3379059-0.3374023,0.3623199-0.574707
			c0.0253906-0.2250977,0.2255859-0.4750671,0.5-0.6625671c-0.125,0.0249023-0.3867188-0.0249023-0.5116882-0.1123352
			c-0.113327-0.1000671-0.300827-0.0751648-0.4131165,0.012207c-0.1123047,0.0752258-0.25,0.1001282-0.4502106,0.0752258
			c0.0752106-0.0625305,0.2129059-0.2002258,0.2256165-0.3251953c0.0126801-0.1250305,0.1620941-0.1875,0.4502106-0.1875
			c0.2743835,0,0.4618835-0.3247375,0.6874695-0.3247375c-0.1630859,0-0.1249695-0.2753906-0.0380859-0.2875671
			c-0.3993988-0.0752258-0.3495941-0.3999023-0.1875-0.3999023c-0.0127106-0.0503235-0.0625153-0.1001282-0.2500153-0.1625977
			c-0.1747894-0.0625305-0.0868988-0.2251282,0.0498047-0.3251953c-0.1249847-0.2500305-0.0116882-0.4375305,0.1875-0.6001282
			c-0.2743988-0.0121765,0.0254059-0.3999023,0.1006012-0.6123047c0.0752106-0.2001953,0.1123047-0.2250977,0.2002258-0.1000671
			c0.0995789,0.112793,0.3241882,0.375,0.5868683,0.4501648c0.2500153,0.074707,0.4004059,0.2124023,0.4502106,0.4248047
			c0.0498047,0.2251282,0.1504059,0.3374023,0.4248047,0.4375305c0.2881012,0.0873718,0.6747894,0.3251953,0.6249847,0.862793
			c0.2256165,0.0121765,0.3877106,0.074707,0.5254059,0.1875"/>
		<path class="st2" d="M55.4384918,27.9994812c-0.1289062,0-0.2549133-0.0259094-0.3681946-0.0726929
			c-0.2695007-0.1083984-0.4961243-0.4981079-0.7352905-0.9112244c-0.1289062-0.2225952-0.2627106-0.4525757-0.3965149-0.6224976
			c-0.1895142-0.2416992-0.2901001-0.2807922-0.3955078-0.3222961c-0.0878906-0.0341797-0.1875-0.0727844-0.3115997-0.2095032
			c-0.219696-0.2425842-0.5791016-0.4374695-1.1659851-0.7118835l-0.0341034-0.015625
			c-0.3165283-0.1454773-0.6758118-0.3105469-0.9083252-0.9062805c-0.0096893-0.0249023-0.0106812-0.0527039-0.0008698-0.0780945
			c0.102478-0.2792969,0.3700714-0.4945984,0.5741882-0.5765991c0.1376953-0.045929,0.2714996-0.2709961,0.2938995-0.4844055
			c0.0204773-0.1835938,0.136795-0.381897,0.3213043-0.5591125c-0.1063995-0.0229797-0.2118988-0.0619812-0.2871094-0.1142578
			c-0.003891-0.0024109-0.0067902-0.0048218-0.0097809-0.007843c-0.0693207-0.0610046-0.1982269-0.039978-0.2723999,0.0171204
			c-0.1445312,0.0967102-0.3057251,0.1254883-0.531311,0.0971985c-0.0429077-0.0054016-0.0791016-0.0361023-0.0918121-0.0780945
			c-0.0116882-0.0420227,0.0020294-0.0874023,0.0352173-0.1153259c0.0849915-0.070282,0.1786804-0.1791687,0.1865082-0.2514038
			c0.0186005-0.1904602,0.2070923-0.2866821,0.5596008-0.2866821c0.1073914,0,0.2069702-0.0741882,0.3124695-0.1528015
			c0.0537109-0.0394897,0.1074066-0.0800781,0.1650085-0.1117859c-0.0068054-0.0200195-0.0106964-0.0420227-0.0116882-0.0654297
			c-0.0028992-0.0370789,0-0.0751953,0.0097809-0.1108704c-0.1817017-0.0801086-0.2548828-0.223114-0.2431946-0.3496094
			c0.0048981-0.0498047,0.0225067-0.0947266,0.0488129-0.1304016c-0.0253143-0.0112-0.0585938-0.0249023-0.1035156-0.039978
			c-0.1327972-0.0469055-0.1640015-0.1357117-0.1708832-0.1846008c-0.0127106-0.090332,0.0322876-0.1894226,0.1220856-0.2767944
			c-0.0849915-0.2461243,0.0263977-0.4302368,0.1327972-0.5449219c-0.0028992-0.0049133-0.0057983-0.0097961-0.0087891-0.0141907
			c-0.0732117-0.1274109,0.0147095-0.2983093,0.1083984-0.4794922c0.0352173-0.066925,0.0674133-0.1299133,0.0849915-0.1782227
			c0.0498047-0.1337891,0.0957184-0.2359009,0.1981964-0.2485962c0.097702-0.012207,0.1602173,0.0712891,0.1914215,0.1166992
			l0.0077972,0.0087891c0.097702,0.1104126,0.3017883,0.3403931,0.5234985,0.4038086
			c0.2920074,0.0874023,0.468689,0.2579041,0.5272827,0.5058899c0.0381165,0.1733398,0.0987091,0.265625,0.3555298,0.3594055
			c0.4393921,0.1333008,0.6962891,0.453125,0.7011871,0.8656921c0.1903992,0.0259094,0.3447113,0.0913086,0.4804077,0.2021179
			c0.046875,0.0386047,0.0536804,0.1080017,0.0156708,0.1547852c-0.0380859,0.0469055-0.1074829,0.0541992-0.1542664,0.0157166
			c-0.1250153-0.1016235-0.2676086-0.1519165-0.4620209-0.1631165c-0.0301971-0.0014954-0.0576019-0.0151978-0.0771027-0.0375671
			c-0.0194855-0.0230408-0.0292969-0.0523376-0.0263977-0.0821228c0.0458984-0.4911804-0.3232117-0.6791992-0.5477905-0.7469788
			c-0.3067169-0.1118164-0.440506-0.2515259-0.5000153-0.519104c-0.0400848-0.1694031-0.1591949-0.2788086-0.3739777-0.3432312
			c-0.2823029-0.0805969-0.5147095-0.3432922-0.6270142-0.4692688l-0.003891-0.0043945
			c-0.0059204,0.0151672-0.0137177,0.0336914-0.0225067,0.0566711c-0.0214081,0.0605164-0.0575867,0.1303101-0.0957031,0.2041321
			c-0.0370941,0.0726929-0.1045074,0.2025757-0.1112976,0.2592773c0.0028992,0.0003967,0.0059204,0.0003967,0.0098114,0.0003967
			c0.0448761,0.0025024,0.0848999,0.0322876,0.098587,0.0757141c0.0147095,0.0434875,0.0009918,0.0907898-0.0351868,0.1196899
			c-0.1972046,0.1605835-0.243103,0.2954102-0.1582031,0.4653015c0.0244904,0.0482788,0.0097809,0.1069031-0.0332031,0.1381836
			c-0.0693054,0.0508118-0.1005096,0.1030273-0.1025085,0.1220093c0.0019989,0.0004883,0.0097961,0.0054016,0.0244141,0.0108032
			c0.1689758,0.0561218,0.2901001,0.1191101,0.319397,0.2392273c0.0086975,0.0327759,0.0009003,0.0678711-0.0196075,0.0942688
			c-0.0205078,0.0267944-0.0527039,0.042511-0.0868988,0.042511c-0.003891,0.0014038-0.0127106,0.0140991-0.0098114,0.0375977
			c0.0069122,0.0512085,0.0684052,0.1162109,0.2178192,0.1440125c0.0526886,0.0102844,0.0907898,0.0570984,0.0898895,0.1108093
			c-0.0009918,0.0439453-0.0283966,0.0820618-0.066391,0.0986938c-0.0098114,0.0204773-0.0118103,0.0595093-0.0049133,0.0760803
			c0.0332184,0.0004883,0.0625153,0.015686,0.0830231,0.039093c0.0165863,0.0190125,0.0272675,0.0448914,0.0272675,0.0732117
			c0,0.0606079-0.0507965,0.1080017-0.1112976,0.1080017c-0.070282,0-0.1542664,0.0625-0.2431946,0.1283875
			c-0.1240082,0.0923157-0.2635803,0.1963196-0.4442749,0.1963196c-0.2295227,0-0.3369141,0.0448608-0.3408203,0.0888062
			c-0.0069122,0.0717773-0.0409851,0.141571-0.0829926,0.203186c0.0527039-0.0108032,0.09758-0.0292969,0.1376953-0.0556946
			c0.1385956-0.108429,0.3817902-0.1436157,0.5410004-0.0083313c0.1015015,0.0679321,0.3291168,0.1108093,0.4228058,0.0918274
			c0.0507965-0.0103149,0.1026001,0.0170898,0.1231079,0.0653992c0.0204773,0.0484009,0.003891,0.1040039-0.0391083,0.1333008
			c-0.2588196,0.1767883-0.4326019,0.4003906-0.4531097,0.5839844c-0.0273895,0.2651367-0.1991882,0.5879211-0.4364929,0.6670227
			c-0.1465149,0.0585938-0.342804,0.2201843-0.4286957,0.4086914c0.2000885,0.4794922,0.4813995,0.6088867,0.7792053,0.7460938
			l0.0351868,0.0160828c0.6270142,0.2935181,0.9902039,0.4917297,1.2362976,0.7637024
			c0.088913,0.0975952,0.1504059,0.121521,0.2276001,0.1517944c0.1229858,0.0484314,0.2627106,0.1026306,0.4891968,0.3916321
			c0.1436157,0.1816711,0.281311,0.4184875,0.4141235,0.6480103c0.2099915,0.3622742,0.4266815,0.7372742,0.6278839,0.8173828
			c0.2987976,0.1239929,0.7118835,0.058075,0.9648895-0.3663025c0.0302124-0.0527039,0.0986176-0.0693054,0.1504211-0.0385132
			c0.0527039,0.0312195,0.0692749,0.0986023,0.0379944,0.1509094
			C56.0811005,27.8480835,55.7499847,27.9994812,55.4384918,27.9994812L55.4384918,27.9994812z"/>
		<path class="st5" d="M56.9003754,20.6376648c0,0.2998352,0.1367035,0.4873352,0.3125153,0.637207
			c0.1875,0.1499023,0.3495941,0.2749023,0.3125153,0.4624023c-0.0381165,0.2001953,0.0370789,0.3252258,0.1991882,0.4501953
			c0.1758118,0.125,0.3007812,0.2749329,0.2499847,0.5249023c-0.0498047,0.25-0.0116882,0.3999023,0.0879211,0.5874023
			c0.0995789,0.1875,0.2753906,0.3378906,0.2001801,0.6377258c-0.0751953,0.2997742-0.0380859,0.7001953,0.0625,0.8998718
			c0.0869141,0.1875,0,0.3374023-0.1747894,0.675293c-0.1758118,0.3247375-0.2753906,0.449707-0.6377106,0.574707
			c-0.375,0.112793-0.4003906,0.3374023-0.4003906,0.7250977c0,0.3999023-0.2627106,0.6000977-0.75,0.5249329
			c-0.5000153,0.4125671-0.8125-0.074707-0.9375-0.6875305c-0.1250153-0.6123047-0.1493835-1.2749023-0.8876953-1.8125
			c-0.7246094-0.5497742-0.4375-1.4750977,0.1758118-1.8500977c0.6122742-0.3622742,0.5370941-1.4375,0.4618835-2.0995789
			c-0.0625153-0.6626282,0.375-1.0376282,0.7128906-1.4004211C56.3378754,19.6625671,56.9003754,20.3500977,56.9003754,20.6376648
			L56.9003754,20.6376648z"/>
		<path class="st2" d="M55.9141083,19.6195679c-0.0176086,0.0186157-0.0352173,0.0371399-0.0528259,0.0557251
			c-0.3085938,0.3226929-0.6278992,0.6567078-0.5770874,1.2016907c0.093689,0.8280945,0.1200867,1.8286133-0.5155945,2.2050171
			c-0.315506,0.1933899-0.531311,0.5439758-0.5489197,0.8930664c-0.0106812,0.2124023,0.0479126,0.5195007,0.3837891,0.7749023
			c0.6768188,0.4927368,0.7871246,1.1025085,0.8848267,1.6411133c0.0136871,0.0795898,0.0283051,0.1586914,0.0448914,0.2368164
			c0.0820007,0.4023743,0.2324066,0.6786804,0.4032898,0.7392883c0.1006165,0.035614,0.2207031-0.0028992,0.3565216-0.1148071
			c0.0233765-0.0195007,0.0555725-0.0282898,0.0858917-0.0238953c0.2236023,0.0346985,0.3965149,0.0064087,0.4989929-0.0820312
			c0.0829926-0.0707703,0.125-0.183075,0.125-0.3339844c0-0.4022827,0.0341949-0.6972656,0.4776001-0.8305664
			c0.3300018-0.1137085,0.4100952-0.2207031,0.5722046-0.5215149l0.0243988-0.046814
			c0.1582947-0.3041687,0.2061005-0.406311,0.1485138-0.5297852c-0.1161957-0.2324219-0.147522-0.6611328-0.0693207-0.9732056
			c0.0458221-0.1864929-0.0234985-0.293396-0.1113892-0.4291992c-0.0283051-0.0424194-0.055603-0.0849304-0.0791016-0.1297913
			c-0.1035004-0.1939087-0.1562042-0.3721008-0.0986176-0.6607056c0.0332336-0.1679993-0.0243683-0.2842102-0.2061005-0.4140015
			c-0.1434937-0.1104126-0.2977753-0.2714844-0.2440643-0.5596008c0.0224915-0.1138-0.0791016-0.2012024-0.2607117-0.3467102
			l-0.0126953-0.0097961c-0.1534271-0.1312866-0.3536072-0.3465881-0.3536072-0.723114
			C56.7899933,20.4237671,56.3242035,19.8217773,55.9141083,19.6195679L55.9141083,19.6195679z M56.0145874,27.6005554
			c-0.051712,0-0.1015167-0.0082703-0.1512909-0.0258789c-0.3388977-0.1200867-0.4883118-0.6171875-0.5459137-0.9028015
			c-0.0165863-0.0795898-0.0312958-0.160675-0.0459137-0.2416992c-0.0985718-0.5458984-0.1923828-1.0614929-0.7987671-1.5038757
			c-0.3243256-0.2456055-0.4913177-0.5869141-0.4727173-0.9624023c0.0215149-0.4194946,0.2782898-0.8394165,0.6553192-1.0703125
			c0.5341949-0.3164978,0.4901886-1.289093,0.4100952-1.9937134c-0.0605011-0.6469727,0.3095856-1.034668,0.6366882-1.3769836
			c0.035202-0.0371094,0.0703888-0.0737,0.1044922-0.1102905c0.0313263-0.0327148,0.0791016-0.0439148,0.121109-0.0278015
			c0.4648895,0.1810913,1.0820923,0.8954773,1.0820923,1.2528687c0,0.2236328,0.0820007,0.3892212,0.2744141,0.5537109
			l0.0097046,0.0078125c0.1904907,0.1528931,0.3886719,0.3110962,0.3388977,0.5600891
			c-0.026413,0.1426086,0.0136871,0.2290039,0.1592102,0.3407898c0.1552734,0.1108093,0.3573914,0.2998047,0.2909698,0.6338196
			c-0.0458832,0.2279968-0.0097809,0.3520203,0.0762024,0.5140991c0.0214996,0.039093,0.0459137,0.0762024,0.0693207,0.1133118
			c0.0937805,0.144104,0.2109985,0.3232727,0.1405945,0.6030884c-0.0711975,0.2850952-0.0292969,0.656189,0.0546875,0.8236694
			c0.1074982,0.2305298,0.0157166,0.4067078-0.1513062,0.7270203l-0.0244904,0.0478821
			c-0.1825867,0.3384094-0.2967834,0.4892273-0.6992035,0.628418c-0.2998047,0.0899048-0.3261108,0.2333984-0.3261108,0.6210938
			c0,0.2148132-0.0693665,0.3882141-0.2011719,0.5010071c-0.1465149,0.1260071-0.3574219,0.172821-0.6278992,0.1396179
			C56.2637024,27.5513,56.1367035,27.6005554,56.0145874,27.6005554L56.0145874,27.6005554z"/>
		<path class="st6" d="M55.8379059,24.8999023c-0.1377258-0.3247375-0.2881165-0.6499329,0.074173-1.3501282
			c0.375-0.7123718,0.1376953-1.25,0.0254059-1.6123047c-0.1123047-0.3500977-0.1376953-0.6747742,0-0.8251953
			c0.1504059-0.137207,0.2128906-0.2245789,0.2246094-0.4624023c0.0126953-0.2250977,0.2001953-0.1499023,0.2255859-0.0375977
			c0.0244141,0.1128235,0.0498047,0.3003235-0.1504059,0.6376953c-0.2001801,0.3500977,0.5625,1.2001953,0.2129059,2.1123047
			c-0.2372742,0.6376953,0.0751953,1.4501953,0.2002106,2.0126953s0.1991882,1.9126282-0.6249847,2.1123047
			C56.5879059,27.2123718,56.0624847,25.4247742,55.8379059,24.8999023L55.8379059,24.8999023z"/>
		<path class="st2" d="M55.9384766,24.8569031c0.108429,0.2514648,0.3027191,0.8354797,0.3964996,1.4130859
			c0.0595093,0.3637695,0.0673065,0.6562805,0.0244141,0.8759766c0.3553925-0.453064,0.2636108-1.3832703,0.1835938-1.7470703
			c-0.0243988-0.1074219-0.0546875-0.2246094-0.0878906-0.3486328c-0.1387177-0.5258789-0.3115082-1.1796875-0.1083984-1.7260742
			c0.1923981-0.5019226,0.0214844-0.9921875-0.117218-1.3857117c-0.1083984-0.3106079-0.1942902-0.5561829-0.0878906-0.7431946
			c0.1914062-0.3218079,0.155304-0.4819031,0.1387024-0.5591125c-0.0010071-0.0028992-0.0029907-0.0057983-0.0048981-0.0087891
			c-0.0009918,0.0073853-0.0019989,0.0166016-0.0028992,0.0289001c-0.0147095,0.2684937-0.0918121,0.3828125-0.2608032,0.5370789
			c-0.0878906,0.0966492-0.0781097,0.3711243,0.0302887,0.7104187c0.0106964,0.0336914,0.0225067,0.0679016,0.0332031,0.1034851
			c0.1182098,0.3609009,0.2969208,0.9057922-0.0653992,1.593811c-0.3321075,0.6405945-0.2089996,0.9311218-0.078186,1.2382812
			L55.9384766,24.8569031L55.9384766,24.8569031z M56.0254059,27.5976562c-0.0459137,0-0.0879211-0.0283813-0.1035156-0.0727539
			c-0.0195923-0.0527039,0.0039062-0.1118469,0.0547028-0.1362C56.4101868,27.1767883,56,25.558075,55.7362976,24.9433594
			v-0.0004883l-0.0078278-0.0175781c-0.1376953-0.3247375-0.292984-0.6929016,0.0860291-1.4258118
			c0.3193054-0.6063843,0.1649933-1.0786133,0.0516968-1.4233093c-0.0117188-0.0370789-0.023407-0.0722961-0.0342102-0.1059875
			c-0.0799866-0.25-0.183609-0.7045898,0.0243988-0.9321289c0.1386871-0.1274719,0.1855927-0.1879883,0.1962891-0.3940735
			c0.0098114-0.172821,0.1065216-0.2416992,0.1934204-0.2489929c0.1132965-0.0093079,0.2226868,0.0776978,0.2489929,0.1939087
			c0.0331879,0.1498718,0.0449066,0.3666687-0.1631012,0.7172852c-0.055603,0.0980835,0.0225067,0.3222046,0.1054993,0.5595093
			c0.1416016,0.4047852,0.3358917,0.9599915,0.1152039,1.5361938c-0.1787109,0.4798889-0.0155945,1.0965881,0.1153107,1.5921936
			c0.0331879,0.1260071,0.0643921,0.2456055,0.089798,0.3570251c0.1210785,0.5467834,0.2315063,2.0160828-0.7070007,2.2430725
			C56.0419769,27.5966797,56.0331879,27.5976562,56.0254059,27.5976562L56.0254059,27.5976562z"/>
		<path class="st2" d="M52.625,19.9975891c-0.0527039,0-0.0957184-0.0367126-0.1074066-0.0855103
			c-0.031311-0.0063171-0.092804-0.0039062-0.121109-0.003418c-0.0176086,0.0010071-0.0331879,0.0015259-0.0469055,0.0015259
			c-0.0605011,0-0.1093903-0.049408-0.1093903-0.1104126c0-0.0604858,0.0488892-0.1098938,0.1093903-0.1098938
			c0.0117188,0,0.0243988-0.0003967,0.0391083-0.0009155c0.0907898-0.003479,0.2148132-0.0073547,0.2910156,0.065918
			c0.036087,0.0346985,0.0556946,0.0805054,0.0556946,0.132782C52.7353973,19.9482117,52.6855011,19.9975891,52.625,19.9975891
			L52.625,19.9975891z M52.1620789,20.5097961c-0.032196,0-0.0643921-0.0142212-0.0858917-0.0420227
			c-0.0380859-0.0484009-0.0292969-0.1171875,0.0185089-0.1548157c0.0811005-0.0624695,0.1786804-0.0634766,0.2657013-0.0649719
			c0.0848999-0.0009155,0.1659851-0.0018921,0.2411957-0.0522156c0.0506897-0.0331726,0.1190948-0.019989,0.1522827,0.0307922
			c0.0342255,0.0503235,0.0205078,0.1186218-0.0302887,0.1523132c-0.1289062,0.085907-0.2627106,0.0878906-0.3602905,0.089386
			c-0.0576019,0.0005188-0.1112976,0.0014343-0.1328125,0.0185242
			C52.2099762,20.5023804,52.1864777,20.5097961,52.1620789,20.5097961L52.1620789,20.5097961z M52.3622894,20.9975891
			c-0.0604858,0-0.1093903-0.049408-0.1093903-0.1098938c0-0.0610046,0.0489044-0.1104126,0.1093903-0.1104126
			c0.1376953,0,0.2978973-0.0097046,0.4599915-0.1283875c0.0488129-0.0361023,0.118103-0.0253906,0.1543121,0.0234985
			c0.0350952,0.0492859,0.0254059,0.1175842-0.0244904,0.1538086
			C52.7470856,20.9770813,52.5391083,20.9975891,52.3622894,20.9975891L52.3622894,20.9975891z M52.5497894,21.3974915
			c-0.0604858,0-0.1093903-0.049408-0.1093903-0.1098938c0-0.0610046,0.0489044-0.1099243,0.1093903-0.1099243
			c0.098587,0,0.3017883-0.075592,0.3320007-0.183075c0.0166016-0.058136,0.078186-0.0918274,0.135788-0.0751953
			c0.0586243,0.016571,0.0928192,0.0776672,0.0762024,0.1357727C53.0243683,21.296875,52.7050934,21.3974915,52.5497894,21.3974915
			L52.5497894,21.3974915z M53.9003754,21.5600891c-0.0175781,0-0.0351868-0.0043945-0.0517883-0.0131836
			c-0.0537109-0.0283203-0.0742188-0.0952148-0.0459137-0.1484985c0.0147095-0.0273132,0.0147095-0.0273132-0.0243683-0.0796204
			c-0.051712-0.0678101-0.1377258-0.1820984-0.0848999-0.3841858l0.0018921-0.0088196
			c0.0136871-0.0697937,0.0292969-0.1493835,0.0234985-0.1694946c0-0.0003967-0.0186005-0.012207-0.1104126-0.0375061
			c-0.1885071-0.0523071-0.1875-0.1992798-0.1875-0.2866821c0.0010223-0.0864258,0.0010223-0.1542969-0.1005859-0.2324219
			c-0.0879211-0.0663757-0.1133118-0.155304-0.1307983-0.2201843c-0.0225067-0.0810852-0.0352173-0.1255188-0.1582031-0.1611023
			c-0.057724-0.0171204-0.0917969-0.078186-0.0743103-0.1367798c0.0165863-0.0586243,0.0782013-0.0918274,0.136795-0.074707
			c0.239212,0.0698853,0.2801971,0.2162781,0.3076172,0.3134766c0.0155792,0.0552063,0.0233765,0.0830078,0.0516815,0.1040039
			c0.1895142,0.1459961,0.1885223,0.3100891,0.1885223,0.4082031c-0.0010223,0.0224915-0.0010223,0.0556946,0.0028992,0.0658875l0,0
			c0.0019989,0,0.0077972,0.0039062,0.0225067,0.0078125c0.3056793,0.0849915,0.2958984,0.2036743,0.2440643,0.4624939
			l-0.0028992,0.0150757c-0.0272675,0.1055298,0.0020294,0.144043,0.0459137,0.2026367
			c0.0458984,0.0610657,0.1240082,0.164093,0.0429993,0.3154907C53.9774933,21.5390625,53.9394989,21.5600891,53.9003754,21.5600891
			L53.9003754,21.5600891z M54.0995941,21.7099915c-0.0156097,0-0.031189-0.0030212-0.0458984-0.0103149
			c-0.0547028-0.0253906-0.0791016-0.0907898-0.0537109-0.1459961c0.0849915-0.1831055,0.281311-0.4013977,0.7372894-0.4013977
			c0.0606232,0,0.1104279,0.049408,0.1104279,0.1104126c0,0.0604858-0.0498047,0.1098938-0.1104279,0.1098938
			c-0.2724915,0-0.4541016,0.0917969-0.5370941,0.2733765C54.1815796,21.6864624,54.1415863,21.7099915,54.0995941,21.7099915
			L54.0995941,21.7099915z M53.1093903,21.7172852c-0.0645142,0-0.1376953-0.0072937-0.2177887-0.015625
			c-0.1016083-0.0102844-0.207016-0.0209656-0.2987976-0.016571c-0.065506,0.0024109-0.1123199-0.0444946-0.1153107-0.105011
			c-0.0028992-0.0606079,0.0440063-0.1122742,0.1044922-0.1148071c0.1074982-0.0053101,0.2266235,0.0069275,0.3321228,0.0176086
			c0.0829926,0.0083008,0.2059784,0.0209961,0.2499847,0.0108032c0.0312042-0.0396118,0.0878906-0.0533142,0.1347046-0.0298157
			c0.0547028,0.0273132,0.0771942,0.0937195,0.0497742,0.1479187
			C53.3065948,21.6943054,53.2216949,21.7172852,53.1093903,21.7172852L53.1093903,21.7172852z M52.5995941,22.5473938
			c-0.0292969,0-0.0586243-0.0118103-0.0800934-0.0352173c-0.0410156-0.0444031-0.0390167-0.1138,0.0058899-0.155304
			c0.0878906-0.0814819,0.2225952-0.1498718,0.3535004-0.2157898c0.1327972-0.0668945,0.2978821-0.1503906,0.3379059-0.2207031
			c0.0302887-0.0526733,0.097702-0.0708008,0.1503754-0.0409851c0.0527039,0.0302734,0.0713196,0.0971985,0.0410156,0.1503601
			c-0.0732117,0.1274414-0.2460938,0.2148132-0.4296875,0.3076172c-0.117218,0.0591125-0.239212,0.1206055-0.3037262,0.1807251
			C52.6533051,22.5375671,52.6269989,22.5473938,52.5995941,22.5473938L52.5995941,22.5473938z M52.1747894,24.9145813
			c-0.0224915,0-0.0458984-0.0020142-0.0693054-0.0064087c-0.0596008-0.0106812-0.0995789-0.0683899-0.0888977-0.1278992
			c0.0106964-0.0596008,0.0684204-0.0995789,0.1279144-0.0883789c0.0478973,0.0082703,0.0956879,0.0053711,0.1288757-0.0728149
			c0.0469055-0.1073914,0.0996094-0.1981812,0.2784119-0.2162781c0.0028992,0,0.0067902-0.0005188,0.0106964-0.0005188
			c0.1347961,0,0.2559052-0.0434265,0.2754211-0.0741882c0.0350952-0.0830078,0.1073914-0.1059265,0.1561737-0.1210938
			c0.0567169-0.0180359,0.1104279-0.0350952,0.1719208-0.1474304c0.014679-0.030304,0.0302887-0.0668945,0.0469055-0.1034851
			c0.1073914-0.2398071,0.2284851-0.5108032,0.5643768-0.6231079c0.0577087-0.0190125,0.1201935,0.012207,0.1397095,0.0698242
			c0.0184937,0.0575867-0.0116882,0.1196594-0.0693207,0.1391907c-0.2451782,0.0815125-0.332077,0.2772827-0.4335938,0.5039062
			c-0.0176086,0.0380859-0.0341797,0.0762024-0.0527954,0.1137695c-0.1063995,0.1958008-0.2284851,0.2339172-0.3007812,0.2573242
			c-0.0078278,0.0023804-0.0185242,0.0054016-0.0253143,0.007782c-0.0927887,0.1846008-0.4081879,0.1968079-0.4667816,0.1977844
			c-0.0596313,0.0058289-0.061615,0.0107422-0.0918274,0.0835266
			C52.4188995,24.8397827,52.3085938,24.9145813,52.1747894,24.9145813L52.1747894,24.9145813z"/>
		<path class="st7" d="M59.9999847,38.9003601c-0.5370941,0.5000305-1.5751953,0.1748352-1.9003906-0.0507812
			c-0.3369141,0.1133118-1.2373047-0.2373047-1.4746094-0.625c-0.6503906,0.0878906-0.875-0.8368835-0.7627106-1.0741882
			c0.1748199-0.3506165-0.1376953-0.5752258,0.0879211-0.8125c0.3124847-0.3008118-0.1748199-0.5878906,0.1249847-0.7881165
			C56.375,35.3378601,56,34.9872742,56.2997894,34.7626953c0.3124847-0.2373047-0.1620941-0.5625,0.1631012-0.7256165
			c0.3242035-0.1620789-0.0381165-0.5868835,0.2373047-0.75c0.2743988-0.1620789-0.1631012-0.5742188,0.2118988-0.7617188
			c0.3632812-0.1875,0.0380859-0.5126953,0.3251953-0.6503906c0.3124847-0.1620789,0.0254059-0.5,0.3124847-0.6123047
			c0.3252258-0.1376953,0.0879211-0.5,0.3623199-0.6000671c0.2382965-0.0874329,0.0878906-0.3125305,0.2382965-0.5126953h1.8495941"
			/>
		<path class="st2" d="M59.223587,39.2724609c-0.4559937,0-0.9159851-0.1650696-1.1424866-0.3036804
			c-0.4102173,0.0839233-1.2237244-0.2559204-1.5098114-0.6289978c-0.2393036,0.0108032-0.4550934-0.1004944-0.6123047-0.3164062
			c-0.219696-0.2998047-0.2842102-0.7333984-0.1962891-0.9208984c0.0692902-0.1376953,0.0448761-0.2499695,0.0194855-0.3680725
			c-0.0301819-0.1377258-0.0673828-0.3086243,0.0879211-0.4727173c0.1093903-0.1044922,0.0888824-0.1855164,0.0390778-0.3320312
			c-0.0440063-0.1308899-0.1112976-0.327179,0.1045074-0.4706726c0.0897827-0.0635071,0.0839844-0.1366882,0.0643921-0.2832031
			c-0.0194855-0.1474915-0.0458832-0.3496094,0.1563263-0.5010071c0.0878906-0.0673828,0.079071-0.1278992,0.036087-0.2744141
			c-0.0381165-0.1269836-0.101593-0.3388977,0.1425934-0.4608765c0.0918121-0.0458984,0.093689-0.1142883,0.0752106-0.2823181
			c-0.015625-0.1483765-0.0370941-0.3505859,0.1562042-0.4647827c0.0497742-0.0292969,0.0536804-0.0673828,0.0225067-0.2236023
			c-0.0322266-0.1601868-0.0801392-0.4042969,0.1962891-0.5419922c0.1307831-0.0674133,0.1307831-0.1426086,0.1298981-0.2666016
			c-0.0009918-0.1221008-0.0009918-0.289093,0.1971893-0.3848267c0.093811-0.0487671,0.0996094-0.1112976,0.1026001-0.2353821
			c0.0039062-0.1191101,0.0077972-0.297821,0.2167969-0.3797913c0.1035156-0.0440063,0.1161957-0.1123047,0.1328125-0.2402954
			c0.0155792-0.1220093,0.0370789-0.2900085,0.2324066-0.3608093c0.0653839-0.0238953,0.0722809-0.0464172,0.0839996-0.1611938
			c0.0087891-0.0908203,0.0205078-0.2036133,0.1035004-0.3139038c0.0204773-0.0278015,0.0526733-0.0440063,0.0878906-0.0440063
			h1.8495941c0.0605011,0,0.1103973,0.0493774,0.1103973,0.1099243c0,0.0610046-0.0498962,0.1098938-0.1103973,0.1098938h-1.7881012
			c-0.023407,0.0492859-0.0283051,0.1014709-0.0341949,0.1600952c-0.0117188,0.1147766-0.027298,0.2720032-0.2275085,0.3456726
			c-0.0614929,0.0224915-0.0731812,0.0572205-0.0888977,0.1826172c-0.0166016,0.1269836-0.0409851,0.319397-0.2684937,0.4151001
			c-0.0694122,0.0273132-0.0762024,0.0566101-0.0791016,0.1826172c-0.0039062,0.1249695-0.0087891,0.3135071-0.2255859,0.4267883
			c-0.0693207,0.0332031-0.0752106,0.0643921-0.0752106,0.1875c0.0009918,0.1318054,0.0019073,0.3320007-0.2499847,0.4627991
			c-0.117218,0.0585938-0.1152344,0.1259766-0.0801086,0.303772c0.0282745,0.1435242,0.0673828,0.3408203-0.1269073,0.4550171
			c-0.0645142,0.0380859-0.0645142,0.1026001-0.0489044,0.2510071c0.0165863,0.1532898,0.0419922,0.3847961-0.195282,0.5028992
			c-0.0683289,0.0341797-0.0752106,0.0508118-0.0303192,0.2022095c0.0410919,0.1376953,0.1025848,0.3466797-0.1152039,0.5116882
			c-0.0946808,0.0713196-0.0888824,0.1513977-0.0692902,0.2978821c0.0194855,0.1464233,0.0459137,0.3476257-0.1582031,0.4921265
			c-0.0684052,0.0458984-0.0713043,0.0722961-0.0214996,0.2197876c0.0478058,0.1405945,0.1200867,0.3544922-0.0907898,0.5576172
			c-0.0684052,0.0722656-0.0585938,0.1357117-0.0292969,0.2705078c0.0292969,0.1366882,0.066391,0.3065796-0.0362091,0.5116882
			c-0.0449219,0.0957031-0.0048065,0.4483032,0.1758118,0.694397c0.1259766,0.1727905,0.2861938,0.2479858,0.4736938,0.2225952
			c0.0428925-0.0057983,0.085907,0.0147095,0.1083984,0.0517883c0.2098846,0.3427124,1.0624847,0.671814,1.3466034,0.578125
			c0.0322876-0.0107117,0.0683746-0.0059204,0.0966797,0.0136719c0.2891083,0.1991882,1.2676239,0.5205383,1.7627106,0.0595093
			c0.0449066-0.0409851,0.1142883-0.0390015,0.155304,0.0058899c0.0420074,0.0439148,0.0389862,0.1143188-0.0048981,0.155304
			C59.8437805,39.195282,59.535202,39.2724609,59.223587,39.2724609L59.223587,39.2724609z"/>
		<path class="st2" d="M56.6249847,38.3349609c-0.036087,0-0.0722961-0.0185852-0.093689-0.0517883
			c-0.088913-0.1425781-0.0606079-0.4219055,0.1405945-0.6229858c0.0370941-0.0372009,0.0390015-0.078186,0.0350952-0.1788025
			c-0.0048828-0.1240234-0.0116882-0.2948914,0.1524048-0.4589233c0.0643921-0.0644836,0.0595093-0.1201782,0.0409851-0.2392883
			c-0.0204773-0.1366882-0.0498047-0.3232117,0.1309052-0.5195007c0.1170959-0.1230774,0.1112976-0.2421875,0.1035004-0.3945923
			c-0.0087891-0.1562195-0.0176086-0.3338928,0.1357117-0.4951172c0.0849915-0.0848694,0.0829926-0.1650085,0.0722961-0.2987976
			c-0.0127106-0.1435852-0.0273895-0.3212891,0.1416016-0.4902039c0.0878906-0.0878906,0.0800934-0.1513672,0.0693054-0.2578735
			c-0.0137024-0.118103-0.0312195-0.2812195,0.1259766-0.4619141c0.1016083-0.1064148,0.0937195-0.1913757,0.0840302-0.3085938
			c-0.0117188-0.1297913-0.0264282-0.2919922,0.1317749-0.4570007c0.0996094-0.0957031,0.093811-0.1620789,0.085022-0.2724915
			c-0.0098114-0.1230164-0.0225067-0.2763062,0.1210785-0.4580078c0.089798-0.1191101,0.0752106-0.1932983,0.0547028-0.2958984
			c-0.0234985-0.1132202-0.0527954-0.2547913,0.0820007-0.4277039c0.0771027-0.1005859,0.0771027-0.1737976,0.0771027-0.2753906
			c-0.0009003-0.1260071-0.0009003-0.2832031,0.1631012-0.4785156c0.0957184-0.1142883,0.0860138-0.1991882,0.0742035-0.3065796
			c-0.0127106-0.1231079-0.0292969-0.2759094,0.131897-0.4375c0.0428925-0.0429993,0.1132965-0.0429993,0.1551971,0
			c0.0429993,0.0423889,0.0429993,0.1123047,0,0.1551819c-0.0868988,0.0874023-0.0799866,0.1519165-0.0682983,0.2588196
			c0.0137177,0.1200867,0.0312042,0.2846985-0.1250153,0.4716797c-0.1122894,0.1338196-0.1112976,0.2227173-0.1112976,0.335907
			c0,0.1113892,0.0009155,0.25-0.1230774,0.4101868c-0.0722961,0.0937195-0.0605164,0.1533203-0.0410156,0.2500305
			c0.0244141,0.1161804,0.0566101,0.2743835-0.0956726,0.4745789c-0.0908203,0.1152039-0.0840302,0.1992188-0.0762024,0.3056946
			c0.0107727,0.1250305,0.0234985,0.2812195-0.1484222,0.4453125c-0.0849915,0.0898132-0.0781097,0.1660156-0.0684052,0.282196
			c0.0117188,0.1347961,0.02742,0.3007812-0.1405945,0.476593c-0.089798,0.1035156-0.0820007,0.1816101-0.070282,0.2900085
			c0.0136719,0.1221008,0.0302887,0.2744141-0.1309052,0.4365234c-0.0976105,0.0966797-0.089798,0.1894836-0.0791016,0.3163757
			c0.0116882,0.1387024,0.0254059,0.3115845-0.1338043,0.4707031c-0.0820007,0.0870056-0.0809937,0.1777954-0.0732117,0.3311157
			c0.0088196,0.1630859,0.019516,0.3651733-0.1630859,0.5556946c-0.1074066,0.1171875-0.0917969,0.2137756-0.0732117,0.3358765
			c0.0185089,0.1260071,0.0429077,0.282196-0.1026001,0.4277344c-0.0966797,0.0956726-0.0926971,0.1845703-0.0888062,0.2958984
			c0.0039062,0.1044922,0.0087128,0.234375-0.0986938,0.3417969c-0.1317749,0.1308899-0.1416016,0.3007812-0.1092834,0.351593
			c0.0312042,0.0517883,0.0155945,0.1190796-0.0352173,0.1513977C56.664978,38.3300781,56.6445007,38.3349609,56.6249847,38.3349609
			L56.6249847,38.3349609z M58.0995941,38.9599915c-0.0176086,0-0.0350952-0.0039062-0.0527039-0.0137024
			c-0.0585938-0.0312805-0.0967102-0.0849915-0.1123047-0.1533203c-0.0469055-0.2099915,0.1493835-0.4911804,0.1894073-0.5458984
			c0.0283051-0.0381165,0.0225067-0.0732727,0.0009918-0.1650696c-0.0292969-0.1240234-0.0703125-0.2939148,0.089798-0.4891968
			c0.0987091-0.1143188,0.0821228-0.2354431,0.061615-0.3740234c-0.0196075-0.1337891-0.0410156-0.2851868,0.0634003-0.4131165
			c0.0449982-0.0585938,0.0351868-0.1308899,0.0136719-0.2529602c-0.0243683-0.1416321-0.0546875-0.3183289,0.0694122-0.492218
			c0.0576019-0.0760803,0.0449066-0.1396179,0.0166168-0.2539062c-0.0323181-0.1278992-0.0762024-0.3027039,0.0750885-0.4881897
			c0.0908966-0.1104126,0.0703888-0.1983032,0.0420074-0.3204041c-0.0283051-0.1220093-0.0643921-0.2753296,0.0566864-0.4286804
			c0.0547028-0.0654297,0.0469055-0.109314,0.0214996-0.2119446c-0.0292969-0.1171875-0.0684052-0.2782898,0.0605011-0.4794617
			c0.0762024-0.1083984,0.0576019-0.1787109,0.0283051-0.2861328c-0.0332031-0.1210938-0.0781097-0.2880859,0.0771942-0.4853821
			c0.0829926-0.1102905,0.0643921-0.2041016,0.0390015-0.3330078c-0.0272827-0.1396179-0.0625-0.3124695,0.0703888-0.4999695
			c0.0810089-0.1142273,0.0664215-0.1679077,0.042923-0.2578125c-0.0254059-0.094696-0.0605011-0.2236023,0.0380859-0.4052124
			c0.0557251-0.1045227,0.0381165-0.1631165,0.0127106-0.2451782c-0.031189-0.101532-0.0742035-0.2402344,0.0731964-0.4218445
			c0.065506-0.0776672,0.0517883-0.1210632,0.0224915-0.2162781c-0.0370941-0.1157837-0.0868988-0.2739868,0.0614929-0.4790955
			c0.0352173-0.0493164,0.1035156-0.0599976,0.1534271-0.0249023c0.0487823,0.0357056,0.0605011,0.1044922,0.0243835,0.1539001
			c-0.0830078,0.1151733-0.0615845,0.1825867-0.030304,0.2841187c0.0342255,0.1074829,0.0801086,0.2543945-0.0624847,0.4228516
			c-0.0713043,0.0879211-0.0585938,0.1289062-0.031311,0.2168274c0.0292969,0.0966797,0.069397,0.2284851-0.0301819,0.4140015
			c-0.0567169,0.1045227-0.0420074,0.1601868-0.0196075,0.2431946c0.0292969,0.1083984,0.0654907,0.2441101-0.0751953,0.4434204
			c-0.0781097,0.1092834-0.0595093,0.2010803-0.0341034,0.329071c0.0283051,0.1425171,0.0634003,0.3193054-0.0800934,0.5107117
			c-0.0889282,0.1112976-0.0693207,0.1835938-0.0391235,0.2929993c0.0313263,0.1171875,0.0752106,0.2773132-0.059494,0.4667969
			c-0.074295,0.117218-0.0547028,0.1992188-0.0283966,0.3037109c0.0274048,0.1123047,0.0625,0.2518921-0.0643921,0.4032898
			c-0.0507965,0.0653992-0.0401001,0.1239929-0.0127106,0.2402039c0.0312042,0.1329041,0.0732117,0.3155212-0.0868988,0.5088196
			c-0.078186,0.0956726-0.0645142,0.1679688-0.0323029,0.2958984c0.031311,0.1230774,0.069397,0.2763672-0.0516815,0.4384766
			c-0.0693207,0.0967102-0.0508118,0.2022095-0.030304,0.3232117c0.0234985,0.1347961,0.0487823,0.2872009-0.0576172,0.4267883
			c-0.0438843,0.0537109-0.0351868,0.1279297-0.0186005,0.2460938c0.0235138,0.1601868,0.0518188,0.358429-0.1112823,0.5469055
			c-0.088913,0.1094055-0.0703125,0.1875-0.0439148,0.2969055c0.023407,0.0986023,0.0537109,0.2225952-0.0380859,0.3466187
			c-0.1397095,0.1904907-0.1680145,0.3496094-0.1484985,0.375c0.0527954,0.0292969,0.0733032,0.0966797,0.0440063,0.1493835
			C58.1757965,38.9394836,58.1387024,38.9599915,58.0995941,38.9599915L58.0995941,38.9599915z"/>
		<path class="st7" d="M59.9999847,38.9003601c0.5371094,0.5000305,1.5752106,0.1748352,1.9004059-0.0507812
			c0.3368988,0.1133118,1.2372894-0.2373047,1.4745941-0.625c0.6503906,0.0878906,0.875-0.8368835,0.7627106-1.0741882
			c-0.1748047-0.3506165,0.1376953-0.5752258-0.0879059-0.8125c-0.3125-0.3008118,0.1748047-0.5878906-0.125-0.7881165
			c-0.2998047-0.2119141,0.0751953-0.5625-0.2246094-0.7870789c-0.3124847-0.2373047,0.1621094-0.5625-0.1630859-0.7256165
			c-0.3242035-0.1620789,0.0381012-0.5868835-0.2373047-0.75c-0.2743988-0.1620789,0.1630859-0.5742188-0.2119141-0.7617188
			c-0.3632812-0.1875-0.0380859-0.5126953-0.3251953-0.6503906c-0.3124847-0.1620789-0.0253906-0.5-0.3124847-0.6123047
			c-0.3252106-0.1376953-0.0879059-0.5-0.3623047-0.6000671c-0.2382965-0.0874329-0.0879059-0.3125305-0.2382965-0.5126953
			h-1.8496094"/>
		<path class="st2" d="M60.7763824,39.2724609c-0.3115997,0-0.6200867-0.077179-0.851593-0.2919922
			c-0.0438843-0.0409851-0.0469055-0.1113892-0.0048981-0.155304c0.0409851-0.0448914,0.1103973-0.046875,0.155304-0.0058899
			c0.4950867,0.4610291,1.4736023,0.139679,1.7626953-0.0595093c0.0282898-0.0195923,0.0644073-0.0243835,0.0966949-0.0136719
			c0.2842102,0.094696,1.1367188-0.2354126,1.3466949-0.578125c0.0223999-0.0370789,0.0664062-0.0575867,0.1083069-0.0517883
			c0.1875,0.0244141,0.347702-0.0498047,0.4736938-0.2225952c0.1806183-0.2460938,0.2207031-0.5986938,0.1748199-0.6962891
			c-0.1016083-0.2032166-0.0645142-0.3731079-0.0352173-0.5097961c0.0293121-0.1347961,0.0391083-0.1982422-0.0332031-0.2744446
			c-0.2069855-0.1991882-0.1347046-0.4130859-0.0868835-0.5536804c0.0497894-0.1474915,0.0469055-0.1738892-0.0185242-0.2177734
			c-0.2070923-0.1465149-0.1806793-0.3477173-0.1611938-0.4941406c0.0196075-0.1464844,0.0254059-0.2265625-0.0692749-0.296875
			c-0.2178192-0.1660156-0.1563263-0.375-0.1152191-0.5126953c0.0449066-0.1513977,0.0379944-0.1680298-0.030304-0.2022095
			c-0.2373047-0.118103-0.2118835-0.3496094-0.1952972-0.5028992c0.0156097-0.148407,0.0156097-0.2129211-0.0488892-0.2510071
			c-0.1943054-0.1141968-0.1551971-0.3114929-0.1269226-0.4550171c0.0351105-0.1777954,0.0371246-0.2451782-0.0790863-0.303772
			c-0.2528992-0.1307983-0.2519989-0.3309937-0.2509918-0.4627991c0-0.1231079-0.0057983-0.1542969-0.0723114-0.1856079
			c-0.219696-0.1151733-0.2245941-0.3037109-0.2284851-0.4286804c-0.0029144-0.1260071-0.0097046-0.155304-0.0761108-0.1806946
			c-0.2305145-0.0976257-0.2548981-0.2900391-0.2714996-0.4170227c-0.0157013-0.1253967-0.0273895-0.1601257-0.0888977-0.1820984
			c-0.2001953-0.0741882-0.2158051-0.2314148-0.2275085-0.3461914c-0.0058899-0.0586243-0.010788-0.1108093-0.0341797-0.1600952
			h-1.7881165c-0.0604858,0-0.1103821-0.0488892-0.1103821-0.1098938c0-0.0605469,0.0498962-0.1099243,0.1103821-0.1099243
			h1.8496094c0.035202,0,0.0673981,0.0162048,0.0878906,0.0440063c0.0829926,0.1102905,0.0947113,0.2230835,0.1035004,0.3139038
			c0.0117035,0.1147766,0.0186005,0.1372986,0.0839996,0.1611938c0.1952972,0.0708008,0.2168121,0.2388,0.2324066,0.3608093
			c0.0166016,0.1279907,0.0292969,0.1962891,0.135788,0.2411804c0.2060089,0.0810852,0.2099152,0.2597961,0.2138062,0.3789062
			c0.0029907,0.1240845,0.0087891,0.186615,0.1065063,0.2373047c0.1942902,0.093811,0.1942902,0.2608032,0.1932983,0.3829041
			c-0.0009155,0.1239929-0.0009155,0.1991882,0.1308899,0.2675171c0.2754059,0.1367798,0.2275085,0.3808899,0.1952972,0.5410767
			c-0.0312042,0.1562195-0.0272827,0.1943054,0.0225067,0.2236023c0.1932983,0.1141968,0.1717987,0.3164062,0.1562042,0.4647827
			c-0.0184937,0.1680298-0.0166168,0.2364197,0.0752106,0.2823181c0.2441864,0.1219788,0.1806946,0.3338928,0.1425781,0.4608765
			c-0.042984,0.1465149-0.0517883,0.2070312,0.0371094,0.2744141c0.2012024,0.1513977,0.1748047,0.3535156,0.155304,0.5010071
			c-0.0196075,0.1465149-0.0254059,0.219696,0.0664062,0.2842102c0.2138062,0.1424866,0.1464996,0.3387756,0.1024933,0.4696655
			c-0.0497894,0.1465149-0.0702972,0.2275391,0.035202,0.328125c0.1591949,0.1679993,0.121994,0.3388977,0.0917816,0.4766235
			c-0.0253906,0.118103-0.0497894,0.2303772,0.0185089,0.3661804c0.088913,0.1893921,0.0244141,0.6229858-0.195282,0.9227905
			c-0.1572113,0.2159119-0.3730164,0.3262024-0.6123047,0.3164062c-0.2861176,0.3730774-1.0996094,0.7120056-1.5098114,0.6289978
			C61.6923828,39.1073914,61.2323914,39.2724609,60.7763824,39.2724609L60.7763824,39.2724609z"/>
		<path class="st7" d="M59.9999847,39.0097656c-0.0604858,0-0.1103821-0.0488892-0.1103821-0.1094055v-8.7504578
			c0-0.0605469,0.0498962-0.1099243,0.1103821-0.1099243c0.0605011,0,0.1103973,0.0493774,0.1103973,0.1099243v8.7504578
			C60.1103821,38.9608765,60.0604858,39.0097656,59.9999847,39.0097656L59.9999847,39.0097656z"/>
		<path class="st2" d="M59.9999847,39.0097656c-0.0116882,0-0.0224915-0.0019836-0.0341797-0.0048828
			c-0.0576324-0.0186157-0.0888062-0.0810852-0.0703125-0.1387024c0.0556946-0.1737976,0.0282898-0.2900085-0.0039062-0.4257812
			c-0.0381165-0.1572266-0.0800934-0.335907,0.0332031-0.5859375c0.0713043-0.1611023,0.0282898-0.2499695-0.0273132-0.3632812
			c-0.0634766-0.1318054-0.1435852-0.2948914,0.0097046-0.5381165c0.0986938-0.156189,0.0645142-0.2880554,0.0166016-0.4716797
			c-0.0458984-0.1757202-0.1025085-0.3945007-0.0301971-0.671814c0.051712-0.1904907,0.0185089-0.3105774-0.0165863-0.4374695
			c-0.0429993-0.1543274-0.0918121-0.3301392,0.0213928-0.6016235c0.0870056-0.2148132,0.0469055-0.3808899,0.003891-0.5556946
			c-0.0399933-0.1650085-0.0810089-0.335907-0.0048065-0.5301819c0.0614929-0.1573181,0.0410156-0.2852173,0.0166168-0.4326172
			c-0.0234985-0.1387024-0.0489044-0.2940063,0.0057983-0.4717102c0.0302887-0.1113892,0.003891-0.1991882-0.0292969-0.3105774
			c-0.042923-0.1465149-0.0967102-0.3291016,0.0077972-0.5859375c0.0733032-0.1864929,0.0429993-0.3808594,0.0069122-0.6064758
			c-0.0332184-0.2098999-0.0713043-0.4487-0.0127106-0.7021179c0.0137024-0.059082,0.0732117-0.0956726,0.1318054-0.0824585
			c0.0595856,0.0135803,0.0967102,0.0726929,0.0829926,0.1317749c-0.0488129,0.2119141-0.0166168,0.4184875,0.0155945,0.6186829
			c0.0372009,0.235321,0.0751953,0.4785156-0.0204926,0.7216187c-0.0761108,0.1875-0.0410156,0.3056946-0.0009003,0.4424133
			c0.036087,0.1210938,0.0771027,0.2587891,0.0292969,0.4335938c-0.0401154,0.131897-0.0214996,0.2441711,0,0.375
			c0.0263062,0.157196,0.055603,0.3359985-0.0283966,0.5497742c-0.050705,0.1289062-0.0223999,0.2471313,0.0136871,0.3974915
			c0.0469055,0.1914368,0.0996094,0.4092407-0.0145874,0.6904297c-0.0839996,0.2030945-0.0527954,0.3164062-0.0127106,0.4599915
			c0.0390167,0.1426086,0.0840149,0.304718,0.0175171,0.5527039c-0.0576019,0.2207031-0.0126038,0.3936157,0.0302887,0.5596008
			c0.0527954,0.2012024,0.1064911,0.4082031-0.0438843,0.6455078c-0.0879211,0.1386719-0.0557251,0.2041016,0.0028687,0.3232117
			c0.0606232,0.1240845,0.1426239,0.2939758,0.0303192,0.5498047c-0.0829926,0.1826782-0.0556946,0.2978821-0.0205078,0.445282
			c0.0350952,0.1465149,0.0742188,0.3115845-0.0009918,0.5440063
			C60.0897827,38.9804688,60.0468903,39.0097656,59.9999847,39.0097656L59.9999847,39.0097656z"/>
		<path class="st1" d="M58.5126801,31.7626953c-0.1249847,0.2001648,0.0498047,0.4374695-0.1376953,0.6874695
			c-0.1875,0.2626953,0,0.5869141-0.1875,0.7998047c-0.1875,0.2002258,0.0498047,0.5996094-0.1875,0.7627258
			c-0.2373047,0.1620789-0.0878906,0.6493835-0.2753906,0.8124695c-0.1875,0.1621094,0,0.625-0.2119141,0.8623047
			c-0.2128906,0.2373047-0.1122894,0.7246094-0.2373047,0.8379211c-0.1132812,0.1123047,0.1621094,0.3496094-0.0380859,0.5116882
			c-0.2118988,0.1631165-0.2118988,0.4883118-0.4872894,0.7001953c0.1620941-0.1620789-0.0498047-0.3993835,0.1875-0.6376953
			c0.2245941-0.2245789-0.0996094-0.4618835,0.1747894-0.7616882c0.2881012-0.3008118-0.0126953-0.6250305,0.2373047-0.8877258
			c0.2499847-0.25-0.0498047-0.5253906,0.2128906-0.7880859c0.25-0.25-0.0498047-0.4375,0.2001953-0.7246094
			c0.2626953-0.2753906-0.0380859-0.5,0.2118988-0.7626953c0.2627106-0.25-0.0243988-0.4375,0.2129059-0.7373047
			c0.2373047-0.3125-0.0752106-0.4501953,0.1376953-0.7245789c0.0996094-0.1250305,0.0996094-0.2383118,0.0996094-0.3379211
			C58.5751953,30.9872742,58.5751953,31.6620789,58.5126801,31.7626953L58.5126801,31.7626953z M59.1376953,32.5751648
			c-0.0879211,0.1494141,0.1493835,0.4375-0.0625153,0.7246094c-0.1503906,0.2002258,0.0996094,0.4375-0.1123047,0.7255859
			c-0.1376953,0.1992188,0.1367035,0.4492188-0.0507965,0.7373352C58.7870941,34.9247742,59,35.2372742,58.8495941,35.4745789
			c-0.1494141,0.25,0.0751953,0.4501953-0.1875,0.7753906c-0.1494141,0.1748047,0.1132812,0.6123047-0.0498047,0.75
			c-0.1621094,0.1376953-0.0126953,0.6748047-0.1250153,0.75c-0.0995789,0.0879211,0,0.4746094-0.2743988,0.5625
			c0.1367035-0.1875-0.1376953-0.375,0.0868988-0.6503906c0.2373047-0.2743835-0.0370941-0.5869141,0.1250153-0.7870789
			c0.1630859-0.2129211-0.0996094-0.4873352,0.0878906-0.75c0.1875-0.2500305-0.1376953-0.4629211,0.0869141-0.7373352
			c0.2383118-0.2880859-0.0869141-0.5126953,0.1005859-0.75c0.1875-0.2255859-0.1123047-0.3876648,0.0869141-0.7001953
			C59,33.6376953,58.6504059,33.4745789,58.8876801,33.1747742C59.1122894,32.8749695,58.7870941,32.6376648,59,32.3378601
			c0.2129059-0.3007812-0.0752106-0.375,0.0878906-0.6757812C59.3876801,31.7753601,59.2372742,32.4247742,59.1376953,32.5751648
			L59.1376953,32.5751648z M60.1874847,32.1747742c-0.0624847,0.1376953,0.1875,0.4628906,0.0498047,0.7129211
			C60.0878754,33.125,60.3124847,33.5,60.1620941,33.7997742c-0.1494141,0.2998047,0.2382965,0.6748047,0.0878906,1.0253906
			c-0.1621094,0.3496094,0.0751953,0.7871094,0,1.1123352c-0.0625,0.3251953,0.1621094,0.9501648,0,1.1747742
			c-0.1621094,0.2373047,0.1621094,0.2998047-0.0254059,0.875c-0.1875,0.5752258-0.3124847,0.0878906-0.1991882-0.0868835
			c0.2373047-0.3877258-0.2627106-0.5126953-0.0254059-0.8876953s-0.1376953-0.6504211,0-1.1748047
			c0.1250153-0.4628906-0.1875-0.5752258,0-1.0253906c0.1875-0.4629211-0.1376953-0.7373352,0-1.0879211
			c0.1376953-0.3496094-0.0751953-0.5869141,0.0254059-0.9121094c0.0868988-0.3251953-0.1875-0.4872742-0.0254059-0.8876953
			C60.125,31.5253906,60.2499847,32.0370789,60.1874847,32.1747742L60.1874847,32.1747742z"/>
		<path class="st2" d="M58.0497894,33.2558899c-0.0839996,0.0897827-0.0771179,0.1659851-0.0674133,0.281189
			c0.0117188,0.1240234,0.0243988,0.2763977-0.1053772,0.4375c0.0174866-0.0195007,0.0379944-0.0371094,0.0604858-0.0526733
			c0.0713196-0.0489197,0.0713196-0.1446228,0.0645142-0.295929C57.9960785,33.5048828,57.9901886,33.3700867,58.0497894,33.2558899
			L58.0497894,33.2558899z M57.855484,33.9989929c-0.0048828,0.0048828-0.0087891,0.0097961-0.0137024,0.014679
			c-0.0596008,0.0682983-0.0762024,0.1259155-0.0771942,0.1875C57.7821808,34.1269836,57.8095856,34.0575867,57.855484,33.9989929
			L57.855484,33.9989929z M57.6894989,34.6835938c-0.0137177,0.0194702-0.030304,0.0380859-0.0489044,0.0566101
			c-0.0420074,0.0410767-0.0643921,0.0820618-0.0752106,0.125c0.0196075-0.046814,0.0479126-0.0888367,0.0878906-0.1230164
			C57.667984,34.7284851,57.6806793,34.7089844,57.6894989,34.6835938L57.6894989,34.6835938z M57.5048981,35.4286804
			c-0.019516,0.0332031-0.0449219,0.0664062-0.0772095,0.0986023c-0.0565948,0.0596008-0.0742035,0.1211243-0.0761108,0.2041016
			c0.0214233-0.0419006,0.046814-0.0809937,0.0791016-0.1170959C57.472702,35.5663757,57.4940796,35.5019836,57.5048981,35.4286804
			L57.5048981,35.4286804z M57.2226715,36.3798828c-0.0097809,0.0106812-0.0195923,0.0223999-0.0312805,0.0342102
			c-0.1074066,0.1171875-0.0917969,0.2137756-0.0732117,0.3358765c0.0107117,0.0732117,0.023407,0.156311,0.0039215,0.242218
			c0.0145874-0.0147095,0.0312042-0.0283203,0.0487823-0.0420227c0.0420074-0.0341797,0.0429993-0.0663757,0.0020142-0.1894836
			c-0.0303192-0.0907898-0.0722961-0.2167969,0.0243835-0.313385
			C57.2070007,36.4364929,57.2157898,36.4110718,57.2226715,36.3798828L57.2226715,36.3798828z M56.75,37.8476868
			c-0.0303192,0-0.0605011-0.0126953-0.0829926-0.0372009c-0.0381165-0.0439148-0.0361328-0.1092834,0.0048828-0.1502991
			c0.0370941-0.0372009,0.0390015-0.078186,0.0350952-0.1788025c-0.0048828-0.1240234-0.0116882-0.2948914,0.1524048-0.4589233
			c0.0643921-0.0644836,0.0595093-0.1201782,0.0409851-0.2392883c-0.0204773-0.1366882-0.0498047-0.3232117,0.1309052-0.5195007
			c0.1170959-0.1230774,0.1112976-0.2421875,0.1035004-0.3945923c-0.0087891-0.1562195-0.0176086-0.3338928,0.1357117-0.4951172
			c0.0849915-0.0848694,0.0829926-0.1650085,0.0722961-0.2987976c-0.0127106-0.1435852-0.0273895-0.3212891,0.1416016-0.4902039
			c0.0878906-0.0878906,0.0800934-0.1513672,0.0693054-0.2578735c-0.0137024-0.118103-0.0312195-0.2812195,0.1259766-0.4619141
			c0.1016083-0.1064148,0.0937195-0.1913757,0.0840302-0.3085938c-0.0117188-0.1297913-0.0264282-0.2919922,0.1317749-0.4570007
			c0.0996094-0.0957031,0.093811-0.1620789,0.085022-0.2724915c-0.0098114-0.1230164-0.0225067-0.2763062,0.1210785-0.4580078
			c0.089798-0.1191101,0.0752106-0.1932983,0.0547028-0.2958984c-0.0234985-0.1132202-0.0527954-0.2547913,0.0820007-0.4277039
			c0.0771027-0.0966797,0.0771027-0.1766968,0.0771027-0.2705078c0-0.0136719,0.0019989-0.0272827,0.006897-0.039978
			c0.0361176-0.0928345,0.0820007-0.1807251,0.1689148-0.1885071c0.0508118-0.0039062,0.0966797,0.0205078,0.1249847,0.0663757
			c0.0703125,0.1133423,0.0527039,0.5068359-0.0106964,0.6074219c-0.0380859,0.0614929-0.0341797,0.1347961-0.0302887,0.2284851
			c0.0067902,0.1328125,0.0145874,0.2979126-0.1122894,0.4668274c-0.0713196,0.1005859-0.0713196,0.2236633-0.0713196,0.3534851
			c0,0.1484985,0,0.3164062-0.1221008,0.453186c-0.0585938,0.0634155-0.0537109,0.1757202-0.0477905,0.2939148
			c0.0068054,0.1630859,0.0165863,0.367218-0.1591949,0.4873047c-0.0840302,0.0566711-0.0986176,0.2089844-0.1123199,0.3565063
			c-0.0155945,0.1688843-0.032196,0.3426819-0.1532898,0.4481812c-0.0536957,0.0469055-0.0567169,0.1787109-0.0585938,0.3066101
			c-0.0028992,0.1846008-0.0069122,0.3935852-0.1436157,0.5458984c-0.0957031,0.1065063-0.1141968,0.2969055-0.1298981,0.4648743
			c-0.0155792,0.1572266-0.0292969,0.2939148-0.1083984,0.3730164c0,0.0195923,0.0147095,0.0625305,0.0244904,0.092804
			c0.0371246,0.1083984,0.0986176,0.2909851-0.074295,0.4316101c-0.0810089,0.0615845-0.125885,0.1572876-0.1786804,0.2685852
			c-0.0674133,0.1426086-0.1434937,0.3037109-0.3105164,0.4326172C56.7969055,37.8397827,56.7733765,37.8476868,56.75,37.8476868
			L56.75,37.8476868z M60.1874847,32.1747742h0.0010071H60.1874847L60.1874847,32.1747742z M60.0888824,32
			c-0.0458832,0.1366882-0.0332031,0.2362671-0.006897,0.3358765c-0.0174866-0.0741882-0.023407-0.1445007,0.0048981-0.2059937l0,0
			C60.097702,32.1073608,60.0966949,32.0536804,60.0888824,32L60.0888824,32z M60.1200714,32.469696
			c0.0283051,0.1054688,0.0508118,0.2255859,0.0108185,0.3710938c-0.0019989,0.007782-0.003891,0.0147095-0.0058899,0.0224915
			c0.0058899-0.0116882,0.0126801-0.0234985,0.0194855-0.0341797C60.1972809,32.7323914,60.1581879,32.5937805,60.1200714,32.469696
			L60.1200714,32.469696z M60.1688843,34.5673828c-0.0057983,0.0878906-0.0252838,0.1825867-0.0672913,0.2861023
			c-0.0839996,0.2030945-0.0527954,0.3164062-0.0127106,0.4599915c0.0039215,0.0146179,0.0088196,0.030304,0.0127106,0.0458984
			c-0.0273895-0.1904907-0.0381165-0.3935852,0.0488129-0.5810852
			C60.1786957,34.7128906,60.1806946,34.641571,60.1688843,34.5673828L60.1688843,34.5673828z M60.1405792,35.6142883
			c0.0010071,0.0731812-0.0087891,0.156189-0.0341797,0.2518921c-0.0576019,0.2207031-0.0126038,0.3936157,0.0302887,0.5596008
			c0.0527954,0.2012024,0.1064911,0.4082031-0.0438843,0.6455078c-0.0840302,0.1337891-0.0459137,0.2070007,0.0165863,0.3280945
			c0.0127106,0.0253906,0.0263062,0.0517883,0.039978,0.0800781c-0.0067902-0.0205078-0.0126801-0.039978-0.0194702-0.0595703
			c-0.0342255-0.1025085-0.0733032-0.2187195,0.0292969-0.3691101c0.0692749-0.0966797,0.036087-0.3506165,0.0057983-0.5751953
			c-0.0263062-0.1983032-0.0527039-0.4032898-0.023407-0.5585938
			C60.1620941,35.8270874,60.1552887,35.7245789,60.1405792,35.6142883L60.1405792,35.6142883z M60.1190796,37.9560852
			c0,0.0009155,0,0.0009155,0,0.0009155c-0.0106964,0.0166016-0.0174866,0.039093-0.0213776,0.0624695
			C60.1044922,38.0009766,60.1112823,37.9804688,60.1190796,37.9560852L60.1190796,37.9560852z M60.0585785,38.3700867
			c-0.0536957,0-0.1035004-0.030304-0.1366882-0.0820312c-0.0634918-0.1005554-0.0723114-0.3183899,0.0106812-0.4472656
			c0.085022-0.1395874,0.0440063-0.219696-0.0184784-0.3398132c-0.0674133-0.1299133-0.1591949-0.3075867-0.0069122-0.5479126
			c0.0986938-0.156189,0.0645142-0.2880554,0.0166016-0.4716797c-0.0458984-0.1757202-0.1025085-0.3945007-0.0301971-0.671814
			c0.051712-0.1904907,0.0185089-0.3105774-0.0165863-0.4374695c-0.0429993-0.1543274-0.0918121-0.3301392,0.0213928-0.6016235
			c0.0870056-0.2148132,0.0469055-0.3808899,0.003891-0.5556946c-0.0399933-0.1650085-0.0810089-0.335907-0.0048065-0.5301819
			c0.0614929-0.1573181,0.0410156-0.2852173,0.0166168-0.4326172c-0.0234985-0.1387024-0.0489044-0.2940063,0.0057983-0.4717102
			c0.0302887-0.1113892,0.003891-0.1991882-0.0292969-0.3105774c-0.042923-0.1465149-0.0967102-0.3291016,0.0077972-0.5859375
			c0.0263977-0.0868835,0.0733032-0.1982727,0.1739044-0.2157898c0.027298-0.0058899,0.0946808-0.0087891,0.1522827,0.0644226
			c0.0840149,0.1073914,0.117218,0.3671875,0.0635223,0.4873047c-0.0068207,0.0253906,0.0194702,0.1123047,0.0370789,0.1698914
			c0.047821,0.1533813,0.1123047,0.3633118,0.0088043,0.5508118c-0.0567017,0.0908813-0.0419922,0.2167969-0.0253906,0.3622742
			c0.0204926,0.1719055,0.042984,0.3652954-0.0479126,0.5469055c-0.0526886,0.1065063-0.0067902,0.242218,0.0468903,0.4004211
			c0.0635223,0.1884766,0.1367188,0.4013977,0.0440063,0.6181946c-0.0800934,0.1708679-0.0478973,0.3710938-0.0136871,0.5830078
			c0.0282898,0.1717834,0.0565948,0.3495789,0.0194855,0.5106812c-0.0223846,0.1171875,0.0020142,0.3037109,0.0263977,0.4854126
			c0.0381165,0.289978,0.0742188,0.5643921-0.0448761,0.7294922c-0.0381165,0.055603-0.0323181,0.0800171,0,0.1737671
			c0.0419922,0.1260071,0.1063843,0.3164062-0.0088043,0.6708984c-0.0762024,0.2305298-0.1513977,0.3349304-0.2529907,0.3467102
			C60.0713043,38.3690796,60.0644989,38.3700867,60.0585785,38.3700867L60.0585785,38.3700867z M59.098587,32.3886719
			c-0.0028992,0.0039062-0.0057983,0.007782-0.0087891,0.0127258c-0.032196,0.0448608-0.047821,0.0868835-0.0537109,0.1289062
			c0.0019989-0.0030212,0.0039062-0.0069275,0.006897-0.0108032c0.0009003-0.0019226,0.0018921-0.0039062,0.0028992-0.0058289
			C59.0624847,32.4892883,59.0811005,32.4442749,59.098587,32.3886719L59.098587,32.3886719z M59.0409851,33.1298828
			c-0.0155792,0.0361023-0.0370941,0.0731812-0.0653839,0.1112976c-0.0615234,0.0772095-0.0703125,0.1358032-0.0615234,0.2001953
			c0.0039215-0.0683899,0.0214081-0.1387024,0.0732117-0.2070007
			C59.0126801,33.1991882,59.0302887,33.1640625,59.0409851,33.1298828L59.0409851,33.1298828z M58.8710938,34.5243835
			c-0.0088196,0.0585938-0.0331879,0.1200867-0.0868988,0.1835938c-0.0440063,0.0566101-0.0420074,0.1083984-0.0235138,0.1962891
			c0.0010223-0.0741882,0.0157013-0.1454773,0.0644989-0.2089844
			C58.8622742,34.6386719,58.8730011,34.5829773,58.8710938,34.5243835L58.8710938,34.5243835z M58.7948914,35.2226868
			c-0.0117188,0.0741882-0.0428925,0.1532898-0.1103058,0.234314c-0.078186,0.0956726-0.0645142,0.1679688-0.0323029,0.2958984
			c0.0157013,0.0615845,0.0332184,0.131897,0.031311,0.2060547c0.0087891-0.0556641,0.0058899-0.109375,0.0028992-0.1669922
			c-0.0067902-0.1103821-0.0127106-0.2362976,0.0694122-0.3739929
			C58.7919922,35.3612976,58.7987823,35.2938843,58.7948914,35.2226868L58.7948914,35.2226868z M58.5575867,36.8661804
			c-0.0116882,0.0253906-0.0263062,0.0507812-0.0449066,0.0751953c-0.0058899,0.0068054-0.0106964,0.0147095-0.014679,0.0215149
			c0.0126801-0.0176086,0.0273895-0.0332031,0.0429688-0.0469055
			C58.5507965,36.9081726,58.5556793,36.8895874,58.5575867,36.8661804L58.5575867,36.8661804z M58.3437805,37.7929688
			c-0.0254059,0.0488281-0.0292969,0.0937195-0.0244904,0.1405945c0.0009918-0.0038757,0.0009918-0.0067749,0.0009918-0.0106812
			C58.3270874,37.8778992,58.3329926,37.8329773,58.3437805,37.7929688L58.3437805,37.7929688z M58.2128754,38.4228821
			c-0.0351868,0-0.0683746-0.0166016-0.0898743-0.0458984c-0.0273132-0.0391235-0.0273132-0.0909119,0.0009918-0.1299133
			c0.0283051-0.0381165,0.0225067-0.0732727,0.0009918-0.1650696c-0.0292969-0.1240234-0.0703125-0.2939148,0.089798-0.4891968
			c0.0987091-0.1143188,0.0821228-0.2354431,0.061615-0.3740234c-0.0196075-0.1337891-0.0410156-0.2851868,0.0634003-0.4131165
			c0.0449982-0.0585938,0.0351868-0.1308899,0.0136719-0.2529602c-0.0243683-0.1416321-0.0546875-0.3183289,0.0694122-0.492218
			c0.0576019-0.0760803,0.0449066-0.1396179,0.0166168-0.2539062c-0.0323181-0.1278992-0.0762024-0.3027039,0.0750885-0.4881897
			c0.0908966-0.1104126,0.0703888-0.1983032,0.0420074-0.3204041c-0.0283051-0.1220093-0.0643921-0.2753296,0.0566864-0.4286804
			c0.0547028-0.0654297,0.0469055-0.109314,0.0214996-0.2119446c-0.0292969-0.1171875-0.0684052-0.2782898,0.0605011-0.4794617
			c0.0762024-0.1083984,0.0576019-0.1787109,0.0283051-0.2861328c-0.0332031-0.1210938-0.0781097-0.2880859,0.0771942-0.4853821
			c0.0829926-0.1102905,0.0643921-0.2041016,0.0390015-0.3330078c-0.0272827-0.1396179-0.0625-0.3124695,0.0703888-0.4999695
			c0.0810089-0.1142273,0.0664215-0.1679077,0.042923-0.2578125c-0.0254059-0.094696-0.0605011-0.2236023,0.0380859-0.4052124
			c0.0254059-0.0488892,0.0839996-0.069397,0.1347961-0.0508118c0.0713043,0.0263062,0.1670227,0.0908203,0.2158051,0.243103
			c0.088913,0.2744141-0.0194855,0.6885071-0.1103973,0.8291016c-0.0116882,0.0245056,0.0030212,0.0977173,0.0147095,0.156311
			c0.0312042,0.1542969,0.0742035,0.3641968-0.0829926,0.5771179c-0.0391235,0.0527954-0.032196,0.1103821-0.0166168,0.2167969
			c0.019516,0.132782,0.0469055,0.3154907-0.0956879,0.5087891c-0.031311,0.0458984-0.0195007,0.1083984,0.0057831,0.2157898
			c0.031311,0.1358032,0.0751953,0.3213196-0.0516815,0.515686c-0.0361023,0.046814-0.0225067,0.1367188-0.0087891,0.2314148
			c0.0214691,0.1426086,0.0477753,0.320282-0.0527039,0.4794922c-0.0469055,0.0780945-0.0430145,0.148407-0.0371246,0.2471008
			c0.0077972,0.1435242,0.0175171,0.3213196-0.1582947,0.539032c-0.0428925,0.0497742-0.0174866,0.1865845,0.0019989,0.296875
			c0.0303192,0.1679993,0.0635071,0.3573914-0.066391,0.4677734c-0.0488129,0.0410156-0.0440063,0.2383118-0.0410156,0.3564453
			c0.003891,0.1796875,0.0067902,0.3222961-0.0829926,0.3935547c-0.006897,0.0137329-0.0147095,0.0762024-0.0205078,0.1181335
			c-0.0214844,0.1552734-0.0527954,0.3887024-0.2929688,0.4648743
			C58.2343903,38.4208679,58.2235718,38.4228821,58.2128754,38.4228821L58.2128754,38.4228821z"/>
		<path class="st8" d="M58.2626801,30.4374695c0-2.625,0.3623199-3.5375977,1.7373047-3.5375977
			c1.375,0,1.7373047,0.9125977,1.7373047,3.5375977H58.2626801L58.2626801,30.4374695z"/>
		<path class="st2" d="M58.3729858,30.3275757h3.2540131c-0.0098267-2.570282-0.3819275-3.3178101-1.6270142-3.3178101
			S58.3827972,27.7572937,58.3729858,30.3275757L58.3729858,30.3275757z M61.7372894,30.5473633h-3.4746094
			c-0.0605774,0-0.1103821-0.0493774-0.1103821-0.1098938c0-2.4711914,0.2763824-3.6474915,1.8476868-3.6474915
			c1.5713196,0,1.847702,1.1763,1.847702,3.6474915C61.8476868,30.4979858,61.7978821,30.5473633,61.7372894,30.5473633
			L61.7372894,30.5473633z"/>
		<path class="st2" d="M60.6503754,30.3876648c0-0.3876953,0.0117035-1.300293-0.2001801-1.6000671
			c-0.1504059-0.2378235-0.1504059-0.4878235,0.0243835-0.2124023c0.1757965,0.2748718,0.2627106,0.1371765,0.1377106-0.1376953
			c-0.1494141-0.3500977-0.3495941-0.7373352-0.2998047-0.8125305c0.0625-0.0874023,0.0996094-0.0498047,0.2246094,0.1376953
			c0.1249847,0.1875,0.1503906-0.0878906,0.0126953-0.2753906c-0.1376953-0.1747742-0.125-0.2124023,0.1631012-0.0874023
			c0.5116882,0.2124023,0.7617035,0.8252258,0.7617035,2.8877258L60.6503754,30.3876648L60.6503754,30.3876648z
			 M58.2626801,30.4374695c0-2.625,0.3623199-3.5375977,1.7373047-3.5375977c-0.6249847,0-1.0126953,0.487793-1.1123047,0.8125305
			c-0.1123047,0.3251953-0.0497742,0.300293,0.0869141,0.1752625c0.1376953-0.125,0.0751801,0.1499329-0.0498047,0.2998047
			c-0.1122894,0.1499023-0.2246094,0.5874023-0.0625153,0.4501953c0.1631317-0.1503906,0.2881012,0.0122375,0.1123199,0.262207
			c-0.1748047,0.2378235-0.3241882,0.8125-0.1494141,0.6128235C59,29.3124695,59.0370941,29.6376648,58.9247894,29.7997742
			c-0.0996094,0.1626282-0.0868835,0.3125,0,0.237793c0.1006165-0.0751648,0.0878906,0.262207,0,0.3999023H58.2626801
			L58.2626801,30.4374695z"/>
		<path class="st2" d="M60.6493835,27.7270813L60.6493835,27.7270813L60.6493835,27.7270813L60.6493835,27.7270813z
			 M60.601593,28.8334656c0.152298,0.3461914,0.1590881,1.015625,0.1582031,1.429718l0.6053925-0.0733032
			c-0.0088043-1.9653015-0.2636108-2.495575-0.6738129-2.6791992c0.0596161,0.1221008,0.0791016,0.2597961,0.0420074,0.3403931
			c-0.0225067,0.0483093-0.0644836,0.0796204-0.1142883,0.0834961c-0.0595093,0.0049133-0.1045074-0.0287781-0.1357117-0.0619812
			c0.0371094,0.0883179,0.0820007,0.188385,0.1201019,0.2738953c0.0370941,0.0815125,0.0751953,0.1654968,0.1104126,0.2474976
			c0.0956879,0.2109985,0.0907898,0.3663025-0.0157013,0.4238892C60.6669922,28.8349915,60.6347961,28.8403015,60.601593,28.8334656
			L60.601593,28.8334656z M60.6503754,30.4975891c-0.0273895,0-0.0526886-0.0098267-0.073288-0.0279236
			c-0.023407-0.0209656-0.0370941-0.0507812-0.0370941-0.0820007v-0.0619812
			c0.0009918-0.3643188,0.0019836-1.2182922-0.1796112-1.4746094c-0.0126953-0.019989-0.2373962-0.3789062-0.0664825-0.4867859
			c0.0683899-0.0435181,0.1308899-0.0142212,0.1806793,0.032196c-0.0233917-0.0537109-0.0477905-0.1074219-0.0712891-0.1596985
			c-0.1923981-0.4267273-0.2489929-0.5726929-0.1826019-0.672821c0.0186005-0.0253906,0.0674133-0.0937805,0.1513977-0.0937805
			c0,0,0.0009155,0,0.0019073,0c0.0097809,0,0.0196075,0.0010071,0.0283051,0.0028992
			c-0.0439148-0.066803-0.0712128-0.1405945-0.0205078-0.2059937c0.0702972-0.0913086,0.194397-0.0464172,0.3740997,0.032196
			c0.5243988,0.2172852,0.8290863,0.7758789,0.8290863,2.9883118c0,0.0556946-0.0419769,0.102478-0.0966949,0.1088867
			l-0.8251801,0.1000977C60.6591797,30.4971008,60.6542969,30.4975891,60.6503754,30.4975891L60.6503754,30.4975891z
			 M58.3729858,30.3275757h0.4824982c0.0175171-0.0498047,0.027298-0.1112976,0.0292969-0.1596069
			c-0.0341949-0.0004883-0.0654907-0.0141907-0.0868988-0.0326843c-0.0948029-0.0805969-0.0507965-0.2554016,0.0332184-0.3931274
			c0.0262756-0.0385742,0.0399933-0.0854797,0.0458832-0.1254578c-0.093811,0.0814819-0.1660919,0.0365906-0.1865997,0.0194702
			c-0.1582031-0.1263733,0.1006165-0.6723022,0.1962891-0.801178c0.0371246-0.0541992,0.0537109-0.0967102,0.0596313-0.125
			c-0.0028992,0.0023804-0.0059204,0.0053101-0.0088196,0.0082703c-0.1200867,0.1010437-0.2020874,0.0337219-0.217804,0.0195312
			c-0.1278992-0.1211243,0.0401154-0.5137024,0.1171875-0.6162109c0.0108185-0.0121765,0.019516-0.0253906,0.0283051-0.0386047
			c-0.0283051,0.0039062-0.0565643-0.0014954-0.0858917-0.0204773c-0.097702-0.0645142-0.0596008-0.2007141,0.003891-0.3857422
			c0.0225067-0.0732727,0.0586243-0.1542664,0.1064148-0.2363892
			C58.5145874,27.9032898,58.3788757,28.7885742,58.3729858,30.3275757L58.3729858,30.3275757z M58.9247894,30.5473633h-0.6621094
			c-0.0605774,0-0.1103821-0.0493774-0.1103821-0.1098938c0-2.4711914,0.2763824-3.6474915,1.8476868-3.6474915
			c0.0605011,0,0.1103973,0.049408,0.1103973,0.1098938c0,0.0610046-0.0498962,0.1098938-0.1103973,0.1098938
			c-0.5692902,0-0.9198914,0.4511108-1.0078125,0.735321c0,0.0019836-0.0009918,0.0043945-0.0019836,0.0063782
			c0.0674133-0.0205078,0.1132812,0.0151367,0.1289062,0.0298157c0.1202087,0.1157227-0.0410156,0.3934937-0.109314,0.4765015
			c-0.0370789,0.0488281-0.0733032,0.1416016-0.0967102,0.2216797c0.0781097-0.0238953,0.1455231-0.0019836,0.1875,0.0351257
			c0.085907,0.0751953,0.1083984,0.2431946-0.0351868,0.4482727c-0.0742035,0.1001282-0.1376953,0.2568359-0.1748047,0.3789062
			C58.9540863,29.3300781,59,29.3588867,59.0186005,29.3729858c0.1170807,0.0914001,0.0965881,0.3457947-0.0030212,0.4898071
			c-0.0126801,0.0205078-0.0223999,0.0404968-0.0301971,0.059082c0.0224152,0.0057983,0.042923,0.0171204,0.0585022,0.0312195
			c0.1142883,0.1059875,0.0498962,0.4242859-0.0263062,0.5434875
			C58.9979858,30.5282898,58.9628754,30.5473633,58.9247894,30.5473633L58.9247894,30.5473633z"/>
		<path class="st8" d="M59.9999847,30.8124695c-0.5498047,0-1.1503906-0.0874023-1.5498047-0.25
			c-0.4756012-0.1875-0.5-0.3500977-0.3379059-0.5498047c0.1250153-0.1503906,0.375-0.0625,0.6250153,0.0498047
			c0.2373047,0.1000977,0.9131012,0.1748047,1.2626953,0.1748047c0.3496094,0,1.0253906-0.074707,1.2626953-0.1875
			c0.2500153-0.0996094,0.5000153-0.1875,0.6250153-0.0371094c0.1620941,0.199707,0.1376953,0.3623047-0.3379059,0.5498047
			C61.1503906,30.7250671,60.5497894,30.8124695,59.9999847,30.8124695L59.9999847,30.8124695z"/>
		<path class="st2" d="M58.3047028,30.0424805c-0.0469055,0-0.0840302,0.0116882-0.1074066,0.0404968
			c-0.0507965,0.0614929-0.0723114,0.1103821-0.0635223,0.1436157c0.0107269,0.0385132,0.0703125,0.120575,0.3563995,0.2333679
			c0.3682098,0.1499329,0.9463196,0.2426147,1.5098114,0.2426147c0.5635071,0,1.1416016-0.0926819,1.5087891-0.2421875
			c0.2871094-0.1132202,0.3467102-0.195282,0.3574066-0.2337952c0.0088043-0.0332336-0.0126953-0.0821228-0.0644073-0.1445923
			c-0.074295-0.089325-0.2871857-0.0146179-0.4980927,0.070282c-0.2490082,0.1181946-0.9403992,0.1954041-1.3036957,0.1954041
			c-0.3457031,0-1.0429993-0.0733032-1.3047028-0.1836243C58.5536957,30.1005859,58.4071808,30.0424805,58.3047028,30.0424805
			L58.3047028,30.0424805z M59.9999847,30.9223633c-0.589798,0-1.1992035-0.0986633-1.5918121-0.257782
			c-0.2977753-0.1176758-0.4481812-0.2359009-0.4872894-0.3824158c-0.0409851-0.1576843,0.0693054-0.2943726,0.1063995-0.3387756
			c0.1944122-0.233429,0.5596008-0.069397,0.7548981,0.0190125c0.2070923,0.0868835,0.8544922,0.164978,1.217804,0.164978
			c0.338913,0,0.9989929-0.0741882,1.2157898-0.1766968c0.2315063-0.0932922,0.5723267-0.2290039,0.7559052-0.0087891
			c0.0381012,0.0458984,0.148407,0.1825867,0.1074066,0.340271c-0.039093,0.1465149-0.1894989,0.26474-0.4883118,0.382843
			C61.1991882,30.8237,60.589798,30.9223633,59.9999847,30.9223633L59.9999847,30.9223633z"/>
		<polygon class="st0" points="-30,-0.0000305 30,-0.0000305 30,29.9999695 -30,29.9999695 -30,-0.0000305 		"/>
	</g>
	<g>
		<defs>
			<polygon id="SVGID_3_" points="-30,-0.0000305 30,-0.0000305 30,29.9999695 -30,29.9999695 -30,-0.0000305 			"/>
		</defs>
		<defs>
			<path id="SVGID_4_" d="M59,60H0.9999695C0.4477234,60,0,59.5526733,0,59V0.9999695c0-0.5522461,0.4477234-1,0.9999695-1H59
				c0.5526886,0,0.9999847,0.4477539,0.9999847,1V59C59.9999847,59.5526733,59.5526886,60,59,60L59,60z"/>
		</defs>
		<clipPath id="SVGID_5_">
			<use xlink:href="#SVGID_3_"  style="overflow:visible;"/>
		</clipPath>
		<clipPath id="SVGID_6_" class="st9">
			<use xlink:href="#SVGID_4_"  style="overflow:visible;"/>
		</clipPath>
		<path class="st10" d="M30-0.0000305l-60,30 M-30-0.0000305l60,30"/>
		<polygon class="st11" points="29.3291016,31.3417664 0,16.6771851 -29.3291016,31.3417664 -30.6708984,28.6581726 
			-3.3540039,14.9999695 -30.6708984,1.3417664 -29.3291016,-1.3418274 0,13.3227844 29.3291016,-1.3418274 30.6708984,1.3417664 
			3.3539734,14.9999695 30.6708984,28.6581726 29.3291016,31.3417664 		"/>
	</g>
	<g>
		<defs>
			<path id="SVGID_7_" d="M30-0.0000305H0v40h-30v-10L30-0.0000305L30-0.0000305z M-30-0.0000305v15h69.9999695v15H30L-30-0.0000305
				L-30-0.0000305z"/>
		</defs>
		<defs>
			<polygon id="SVGID_8_" points="-30,-0.0000305 30,-0.0000305 30,29.9999695 -30,29.9999695 -30,-0.0000305 			"/>
		</defs>
		<defs>
			<path id="SVGID_9_" d="M59,60H0.9999695C0.4477234,60,0,59.5526733,0,59V0.9999695c0-0.5522461,0.4477234-1,0.9999695-1H59
				c0.5526886,0,0.9999847,0.4477539,0.9999847,1V59C59.9999847,59.5526733,59.5526886,60,59,60L59,60z"/>
		</defs>
		<clipPath id="SVGID_10_">
			<use xlink:href="#SVGID_7_"  style="overflow:visible;"/>
		</clipPath>
		<clipPath id="SVGID_11_" class="st12">
			<use xlink:href="#SVGID_8_"  style="overflow:visible;"/>
		</clipPath>
		<clipPath id="SVGID_12_" class="st13">
			<use xlink:href="#SVGID_9_"  style="overflow:visible;"/>
		</clipPath>
		<path class="st14" d="M30-0.0000305l-60,30 M-30-0.0000305l60,30"/>
		<polygon class="st15" points="29.5526733,30.8944702 0,16.1181946 -29.5527039,30.8944702 -30.4473267,29.1054993 
			-2.2358704,14.9999695 -30.4473267,0.8945007 -29.5527039,-0.8945312 0,13.8817749 29.5526733,-0.8945312 30.4472961,0.8945007 
			2.2362976,14.9999695 30.4472961,29.1054993 29.5526733,30.8944702 		"/>
	</g>
	<g>
		<defs>
			<polygon id="SVGID_13_" points="-30,-0.0000305 30,-0.0000305 30,29.9999695 -30,29.9999695 -30,-0.0000305 			"/>
		</defs>
		<defs>
			<path id="SVGID_14_" d="M59,60H0.9999695C0.4477234,60,0,59.5526733,0,59V0.9999695c0-0.5522461,0.4477234-1,0.9999695-1H59
				c0.5526886,0,0.9999847,0.4477539,0.9999847,1V59C59.9999847,59.5526733,59.5526886,60,59,60L59,60z"/>
		</defs>
		<clipPath id="SVGID_15_">
			<use xlink:href="#SVGID_13_"  style="overflow:visible;"/>
		</clipPath>
		<clipPath id="SVGID_16_" class="st16">
			<use xlink:href="#SVGID_14_"  style="overflow:visible;"/>
		</clipPath>
		<path class="st17" d="M-30,14.9999695h69.9999695 M0-0.0000305v40"/>
		<polygon class="st18" points="2.4999695,39.9999695 -2.5,39.9999695 -2.5,17.4999695 -30,17.4999695 -30,12.5 -2.5,12.5 
			-2.5,-0.0000305 2.4999695,-0.0000305 2.4999695,12.5 39.9999695,12.5 39.9999695,17.4999695 2.4999695,17.4999695 
			2.4999695,39.9999695 		"/>
		<path class="st17" d="M-30,14.9999695h69.9999695 M0-0.0000305v40"/>
		<polygon class="st19" points="1.5,39.9999695 -1.5,39.9999695 -1.5,16.4999695 -30,16.4999695 -30,13.4999695 -1.5,13.4999695 
			-1.5,-0.0000305 1.5,-0.0000305 1.5,13.4999695 39.9999695,13.4999695 39.9999695,16.4999695 1.5,16.4999695 1.5,39.9999695 		"/>
	</g>
</g>
</svg>
