<?xml version="1.0" encoding="utf-8"?>
<!-- Generator: Adobe Illustrator 22.1.0, SVG Export Plug-In . SVG Version: 6.00 Build 0)  -->
<svg version="1.1" id="Layer_1" xmlns="http://www.w3.org/2000/svg" xmlns:xlink="http://www.w3.org/1999/xlink" x="0px" y="0px"
	 viewBox="0 0 60 60" style="enable-background:new 0 0 60 60;" xml:space="preserve">
<style type="text/css">
	.st0{clip-path:url(#SVGID_2_);fill:#E3131B;}
	.st1{clip-path:url(#SVGID_2_);fill:#FFFFFF;}
</style>
<g id="XMLID_1_">
	<g>
		<defs>
			<path id="SVGID_1_" d="M59,60H0.9999695C0.4477234,60,0,59.5526733,0,59V0.9999695c0-0.5522461,0.4477234-1,0.9999695-1H59
				c0.5526886,0,0.9999847,0.4477539,0.9999847,1V59C59.9999847,59.5526733,59.5526886,60,59,60L59,60z"/>
		</defs>
		<clipPath id="SVGID_2_">
			<use xlink:href="#SVGID_1_"  style="overflow:visible;"/>
		</clipPath>
		<polygon class="st0" points="-11.0000305,-0.0000305 78.9999847,-0.0000305 78.9999847,60 -11.0000305,60 -11.0000305,-0.0000305 
					"/>
		<path class="st1" d="M20.8749695,14.9999695c8.2842407,0,15,6.7158203,15,15c0,8.2842102-6.7157593,15-15,15
			c-8.2841797,0-15-6.7157898-15-15C5.8749695,21.7157898,12.5907898,14.9999695,20.8749695,14.9999695L20.8749695,14.9999695z"/>
		<path class="st0" d="M24.6249695,17.9999695c6.6270142,0,12,5.3726196,12,12c0,6.6270142-5.3729858,12-12,12
			c-6.6273804,0-12-5.3729858-12-12C12.6249695,23.3725891,17.9975891,17.9999695,24.6249695,17.9999695L24.6249695,17.9999695z"/>
		<polygon class="st1" points="32.75,29.9999695 46.3173828,34.4081726 37.9325867,22.8671875 37.9325867,37.132782 
			46.3173828,25.5917664 32.75,29.9999695 		"/>
	</g>
</g>
</svg>
