<?xml version="1.0" encoding="utf-8"?>
<!-- Generator: Adobe Illustrator 22.1.0, SVG Export Plug-In . SVG Version: 6.00 Build 0)  -->
<svg version="1.1" id="Layer_1" xmlns="http://www.w3.org/2000/svg" xmlns:xlink="http://www.w3.org/1999/xlink" x="0px" y="0px"
	 viewBox="0 0 60 60" style="enable-background:new 0 0 60 60;" xml:space="preserve">
<style type="text/css">
	.st0{clip-path:url(#SVGID_2_);fill:#232F5D;}
	.st1{clip-path:url(#SVGID_2_);fill:#020203;}
	.st2{clip-path:url(#SVGID_2_);fill:#FFFFFF;}
	.st3{clip-path:url(#SVGID_5_);}
	.st4{clip-path:url(#SVGID_6_);fill:#020203;}
	.st5{clip-path:url(#SVGID_6_);fill:#C91430;}
	.st6{clip-path:url(#SVGID_8_);fill:#020203;}
	.st7{clip-path:url(#SVGID_8_);fill:#FFFFFF;}
	.st8{clip-path:url(#SVGID_8_);fill:#C91430;}
	.st9{clip-path:url(#SVGID_8_);fill:#0296C9;}
	.st10{clip-path:url(#SVGID_8_);fill:#FFCE05;}
</style>
<g id="XMLID_1_">
	<g>
		<defs>
			<path id="SVGID_1_" d="M59,60H0.9999695C0.4477234,60,0,59.5526733,0,59V0.9999695c0-0.5522461,0.4477234-1,0.9999695-1H59
				c0.5526886,0,0.9999847,0.4477539,0.9999847,1V59C59.9999847,59.5526733,59.5526886,60,59,60L59,60z"/>
		</defs>
		<clipPath id="SVGID_2_">
			<use xlink:href="#SVGID_1_"  style="overflow:visible;"/>
		</clipPath>
		<polygon class="st0" points="-30.0239258,-0.0170898 90.0106812,-0.0170898 90.0106812,60 -30.0239258,60 -30.0239258,-0.0170898 
					"/>
		<path class="st1" d="M29.9931946-0.0170898l-60.0171204,30.0082703 M-30.0239258-0.0170898l60.0171204,30.0082703"/>
		<polygon class="st2" points="28.6513977,32.6757812 -0.0151672,18.3422852 -28.6816101,32.6757812 -31.3657227,27.3070679 
			-6.7256165,14.9872742 -31.3657227,2.6669617 -28.6816101,-2.7012024 -0.0151672,11.6317749 28.6513977,-2.7012024 
			31.3349915,2.6669617 6.6948242,14.9872742 31.3349915,27.3070679 28.6513977,32.6757812 		"/>
	</g>
	<g>
		<defs>
			<path id="SVGID_3_" d="M-30.0239258,29.9911804v5.0019836h30.0087585V-0.0170898h30.0083618L-30.0239258,29.9911804
				L-30.0239258,29.9911804z M-30.0239258-0.0170898v15.004364h70.0200195v15.0039062H29.9931946L-30.0239258-0.0170898
				L-30.0239258-0.0170898z"/>
		</defs>
		<defs>
			<path id="SVGID_4_" d="M59,60H0.9999695C0.4477234,60,0,59.5526733,0,59V0.9999695c0-0.5522461,0.4477234-1,0.9999695-1H59
				c0.5526886,0,0.9999847,0.4477539,0.9999847,1V59C59.9999847,59.5526733,59.5526886,60,59,60L59,60z"/>
		</defs>
		<clipPath id="SVGID_5_">
			<use xlink:href="#SVGID_3_"  style="overflow:visible;"/>
		</clipPath>
		<clipPath id="SVGID_6_" class="st3">
			<use xlink:href="#SVGID_4_"  style="overflow:visible;"/>
		</clipPath>
		<path class="st4" d="M29.9931946-0.0170898l-60.0171204,30.0082703 M-30.0239258-0.0170898l60.0171204,30.0082703"/>
		<polygon class="st5" points="29.0985718,31.7812805 -0.0151672,17.2235718 -29.129425,31.7812805 -30.9185181,28.2020874 
			-4.4888,14.9872742 -30.9185181,1.7719421 -29.129425,-1.8066711 -0.0151672,12.7504883 29.0985718,-1.8066711 
			30.8881836,1.7719421 4.4580078,14.9872742 30.8881836,28.2020874 29.0985718,31.7812805 		"/>
	</g>
	<g>
		<defs>
			<path id="SVGID_7_" d="M59,60H0.9999695C0.4477234,60,0,59.5526733,0,59V0.9999695c0-0.5522461,0.4477234-1,0.9999695-1H59
				c0.5526886,0,0.9999847,0.4477539,0.9999847,1V59C59.9999847,59.5526733,59.5526886,60,59,60L59,60z"/>
		</defs>
		<clipPath id="SVGID_8_">
			<use xlink:href="#SVGID_7_"  style="overflow:visible;"/>
		</clipPath>
		<path class="st6" d="M-0.0151672-0.0170898v35.0102539 M-30.0239258,14.9872742h70.0200195"/>
		<polygon class="st7" points="4.9863281,34.9931641 -5.0166016,34.9931641 -5.0166016,19.9882812 -30.0239258,19.9882812 
			-30.0239258,9.9858093 -5.0166016,9.9858093 -5.0166016,-0.0170898 4.9863281,-0.0170898 4.9863281,9.9858093 
			39.9960938,9.9858093 39.9960938,19.9882812 4.9863281,19.9882812 4.9863281,34.9931641 		"/>
		<path class="st6" d="M-0.0151672-0.0170898v35.0102539 M-30.0239258,14.9872742h70.0200195"/>
		<polygon class="st8" points="2.9853516,34.9931641 -3.0161133,34.9931641 -3.0161133,17.987793 -30.0239258,17.987793 
			-30.0239258,11.9862671 -3.0161133,11.9862671 -3.0161133,-0.0170898 2.9853516,-0.0170898 2.9853516,11.9862671 
			39.9960938,11.9862671 39.9960938,17.987793 2.9853516,17.987793 2.9853516,34.9931641 		"/>
		<polygon class="st9" points="-30.0239258,29.9911804 29.9931946,29.9911804 29.9931946,-0.0170898 90.0106812,-0.0170898 
			90.0106812,60 -30.0239258,60 -30.0239258,29.9911804 		"/>
		<polygon class="st10" points="34.5282898,49.0878906 37.4726868,58.1503906 29.7641907,52.5498047 39.2929993,52.5498047 
			31.5839844,58.1503906 34.5282898,49.0878906 		"/>
		<polygon class="st10" points="51.7460938,46.3964844 48.8007812,55.4579773 45.8563843,46.3964844 53.5653992,51.9970703 
			44.0370789,51.9970703 51.7460938,46.3964844 		"/>
		<polygon class="st10" points="51.7460938,34.1943054 48.8007812,43.2568054 45.8563843,34.1943054 53.5653992,39.7948608 
			44.0370789,39.7948608 51.7460938,34.1943054 		"/>
		<polygon class="st10" points="64.3495789,43.3124695 61.4052887,52.3739929 58.4608765,43.3124695 66.1698761,48.9130859 
			56.6405792,48.9130859 64.3495789,43.3124695 		"/>
		<polygon class="st10" points="64.3495789,16.7631836 61.4052887,25.8251648 58.4608765,16.7631836 66.1698761,22.3637695 
			56.6405792,22.3637695 64.3495789,16.7631836 		"/>
		<polygon class="st10" points="31.5839844,58.1503906 32.7089844,54.6884766 34.5282898,56.0106812 31.5839844,58.1503906 		"/>
	</g>
</g>
</svg>
