<?xml version="1.0" encoding="utf-8"?>
<!-- Generator: Adobe Illustrator 22.1.0, SVG Export Plug-In . SVG Version: 6.00 Build 0)  -->
<svg version="1.1" id="Layer_1" xmlns="http://www.w3.org/2000/svg" xmlns:xlink="http://www.w3.org/1999/xlink" x="0px" y="0px"
	 viewBox="0 0 60 60" style="enable-background:new 0 0 60 60;" xml:space="preserve">
<style type="text/css">
	.st0{clip-path:url(#SVGID_2_);fill:#020203;}
	.st1{clip-path:url(#SVGID_2_);fill:#FCDC08;}
	.st2{clip-path:url(#SVGID_2_);fill:#D90E15;}
	.st3{clip-path:url(#SVGID_2_);fill:#FFFFFF;}
	.st4{clip-path:url(#SVGID_2_);fill:#9DA69C;}
</style>
<g id="XMLID_1_">
	<g>
		<defs>
			<path id="SVGID_1_" d="M59,60H0.9999695C0.4477234,60,0,59.5526733,0,59V0.9999695c0-0.5522461,0.4477234-1,0.9999695-1H59
				c0.5526886,0,0.9999847,0.4477539,0.9999847,1V59C59.9999847,59.5526733,59.5526886,60,59,60L59,60z"/>
		</defs>
		<clipPath id="SVGID_2_">
			<use xlink:href="#SVGID_1_"  style="overflow:visible;"/>
		</clipPath>
		<polygon class="st0" points="-15,-0.0000305 74.9999847,-0.0000305 74.9999847,60 -15,60 -15,-0.0000305 		"/>
		<polygon class="st1" points="-15,9.9999695 74.9999847,9.9999695 74.9999847,29.9999695 -15,29.9999695 -15,9.9999695 		"/>
		<polygon class="st2" points="-15,20 74.9999847,20 74.9999847,29.9999695 -15,29.9999695 -15,20 		"/>
		<polygon class="st1" points="-15,39.9999695 74.9999847,39.9999695 74.9999847,60 -15,60 -15,39.9999695 		"/>
		<polygon class="st2" points="-15,50 74.9999847,50 74.9999847,60 -15,60 -15,50 		"/>
		<path class="st3" d="M30,20.6498718c5.164093,0,9.3495789,4.1860046,9.3495789,9.3500977
			c0,5.1641235-4.1854858,9.3496094-9.3495789,9.3496094c-5.1641235,0-9.3500977-4.1854858-9.3500977-9.3496094
			C20.6499023,24.8358765,24.8358765,20.6498718,30,20.6498718L30,20.6498718z"/>
		<path class="st2" d="M28.3521118,22.8388977l-0.6065063-1.1167297c0.2338867-0.2344055,0.6278687-0.4151001,1.2554016-0.4151001
			c0,0.042511-0.0640259,1.2236938-0.0640259,1.2236938L28.3521118,22.8388977L28.3521118,22.8388977z"/>
		<path class="st0" d="M27.8075867,21.7313843l0.5650024,1.0405884l0.5161133-0.2724915
			c0.0218811-0.4057007,0.0516663-0.9701843,0.0599976-1.1420898
			C28.4550781,21.3661804,28.0620117,21.4945679,27.8075867,21.7313843L27.8075867,21.7313843z M28.3314819,22.9062805
			l-0.6478882-1.1933899l0.0267944-0.0264282c0.2807922-0.2807007,0.7271118-0.4291992,1.2906189-0.4291992h0.0498047v0.0498047
			c0,0.042511-0.0570984,1.105011-0.0635376,1.2261047l-0.0018921,0.0283203L28.3314819,22.9062805L28.3314819,22.9062805z"/>
		<path class="st1" d="M28.9369812,22.5409851l0.0855103-1.2339172c0,0,1.2547913-0.0741882,1.9360046,0.7446899
			c0.0106812-0.0107727-0.6704102,0.9575195-0.6704102,0.9575195L28.9369812,22.5409851L28.9369812,22.5409851z"/>
		<path class="st0" d="M28.9896851,22.5062866l1.2792969,0.4433899c0.2286072-0.3251953,0.5444946-0.7749023,0.6269836-0.8944702
			c-0.5903015-0.6778259-1.6039734-0.7017212-1.827179-0.6992188L28.9896851,22.5062866L28.9896851,22.5062866z
			 M30.3075867,23.0687866l-1.422821-0.4926147l0.0908203-1.3163757l0.043396-0.002533
			c0.0527954-0.0033875,1.2886047-0.0663757,1.9780884,0.7627258c0.0302124,0.0238953,0.0302124,0.0238953-0.3320618,0.5395813
			L30.3075867,23.0687866L30.3075867,23.0687866z"/>
		<path class="st2" d="M30.3096008,22.9984741l0.6166992-0.957489c0.4154968,0.4364929,0.5853882,0.7445984,0.6488953,1.2128906
			c0.0106812,0.0107117-0.9785156,0.2445984-0.9785156,0.2339172C30.5966797,23.477478,30.320282,23.0092773,30.3096008,22.9984741
			L30.3096008,22.9984741z"/>
		<path class="st0" d="M30.3681946,23c0.0560913,0.0907898,0.1987,0.3251953,0.2547913,0.4335938
			c0.1446228-0.0273132,0.7452087-0.170929,0.8965149-0.2134094c-0.0625305-0.4131165-0.2157898-0.7006836-0.5854187-1.098114
			L30.3681946,23L30.3681946,23z M30.5845032,23.5365906c-0.0005188,0-0.0005188,0-0.0005188,0l-0.0370789-0.0102234v-0.0273743
			c-0.0337219-0.0644226-0.2597961-0.4458313-0.2769165-0.469696l-0.0282898-0.0283203l0.0258789-0.0292969l0.6513062-1.0112915
			l0.0440063,0.0463867c0.4248047,0.4468079,0.593689,0.7578125,0.6600952,1.2236938l0.0147095,0.0151062l-0.0186157,0.0336914
			C31.5868835,23.3349609,30.601593,23.5365906,30.5845032,23.5365906L30.5845032,23.5365906z"/>
		<path class="st0" d="M28.6605835,38.8075867c0,0,1.1596985-1.3301086,3.4145813-1.0429993
			c-0.3397827-0.5527039-1.4359741-0.4891968-1.4359741-0.4891968s-0.3403931-2.5849915-0.0743103-2.7129211
			c0.2657166-0.1278687,1.3930969,0.0107117,1.3930969,0.0107117c0.1493835,0,0.4042969-0.4042969,0.2022095-0.6591187
			c-0.2022095-0.2558899-0.7978821-1.234375-0.5527954-1.4257812s1.5741882,0.1064148,1.5741882,0.1064148L29.4263,27.7860718
			c0,0-0.3828125-1.8085632,0.3833008-2.6810913c0.9252625-0.7660828,0.8295898-1.5957031,0.7977905-1.5849915
			c-0.1278992-0.8403015-1.4042969-1.4468079-2.2661133-0.6704102c-0.5106812,0.6171875-0.1703796,1.085022-0.1703796,1.085022
			s-1.3403015,0.3617859-1.3936157,0.5961914c-0.0531921,0.2337952,1.5108032-0.042511,1.5108032-0.042511l-0.1488953,1.0741882
			c0,0-3.042511,2.7661133-0.7128906,5.1596985c0.0214844-0.0108032,0.074707-0.1064758,0.074707-0.1064758
			s0.8192749,1.0102844,1.6805725,1.2338867c0.8085938,0.8301086,0.7344055,0.702179,0.7344055,0.702179
			s0.1592102,1.3086243,0.0108032,1.5644226c-0.2026978-0.0644226-2.2662048-0.1387024-2.574707-0.0214844
			c-0.276886,0.0849915-1.3403931,0.0312805-1.0747986,1.765686c0.2022095-0.467804,0.3833008-0.8828735,0.3833008-0.8828735
			s-0.032196,0.6279602,0.2232056,0.8505554c-0.042511-0.6591797,0.2445984-1.1054077,0.2445984-1.1054077
			s0.0532227,0.7226257,0.2129211,0.8291016c0.1596985,0.1064148,0.1596985-1.1699524,1.0424805-1.0634766
			c0.8833008,0.1063843,1.5215149,0.0741882,1.5215149,0.0741882s0.29776,2.5000305,0.2020874,2.734436
			c-0.6386108-0.1494141-2.1595764,0.0634766-2.2553101,0.4462585c0.8934937-0.0527649,1.3085022,0.0537109,1.3085022,0.0537109
			S28.4370117,38.4345703,28.6605835,38.8075867L28.6605835,38.8075867z"/>
		<path class="st0" d="M28.3345032,37.6786804c0.5581055,0,0.824707,0.0653992,0.8383789,0.0693054l0.0917053,0.0234985
			l-0.0708008,0.0624695c-0.1787109,0.1572266-0.5897827,0.5996399-0.5169983,0.8838501
			c0.109314-0.109436,0.3828125-0.3555298,0.8222046-0.5840149c0.5107727-0.2647095,1.3471985-0.5488281,2.4677734-0.4317017
			c-0.3798828-0.4256897-1.3144836-0.3769226-1.3246765-0.3769226l-0.0464172,0.0028992l-0.0058899-0.0458679
			c-0.0809937-0.6152039-0.3237-2.6318054-0.0462952-2.7646179c0.2752991-0.132782,1.3745117,0,1.4212952,0.0058289
			c0.0362244,0,0.1163025-0.0693359,0.1700134-0.1816406c0.0273132-0.0556641,0.1054077-0.2470703-0.0137024-0.3974915
			c-0.1376953-0.1737976-0.6621094-0.9842834-0.6191101-1.3486023c0.007782-0.0643921,0.0332336-0.1142883,0.0742188-0.1464844
			c0.2167969-0.1699219,1.1219788-0.0058289,1.4813843,0.0673828l-3.6777039-4.7089844l-0.0025024-0.0112
			c-0.0155945-0.074707-0.3793945-1.8432922,0.3946228-2.7241211c0.7675781-0.6362915,0.8231812-1.3110657,0.8026733-1.4888
			l-0.007782,0.0024109l-0.0087891-0.0585938c-0.0596313-0.3895874-0.3848267-0.7445984-0.8291016-0.9033203
			c-0.4839172-0.1727905-0.9769897-0.0770874-1.3540344,0.2627258c-0.4755554,0.5751953-0.1664734,1.0141907-0.1635742,1.0186157
			l0.0429993,0.059082l-0.0703125,0.0184937c-0.6445007,0.1743164-1.3285828,0.4307251-1.3578796,0.5585938
			c0.0604858,0.0801086,0.8002625,0.0127258,1.4530945-0.1025085l0.0678711-0.0121765l-0.1611938,1.1605835l-0.013092,0.012207
			c-0.0151978,0.0137024-1.5239868,1.4042969-1.5733032,3.0327148c-0.0224915,0.7354126,0.2549133,1.4130859,0.8242188,2.0151672
			c0.0102844-0.0161743,0.0224915-0.0366516,0.0332031-0.0561829l0.0361938-0.0643921l0.0463867,0.0575867
			c0.0083313,0.0097046,0.8193054,1.0004883,1.6547241,1.2172852l0.0136719,0.0028992l0.0098267,0.0098267
			c0.5941772,0.6102905,0.6976929,0.688385,0.7147827,0.6982117l-0.0145874,0.0282898l0.0409851-0.0146179l0.0223999,0.0381165
			l-0.0121765,0.0126038c0.0273743,0.2315063,0.1450806,1.3154907,0.0004883,1.5634766l-0.0200195,0.0352173l-0.0380859-0.0127258
			c-0.2045898-0.0644531-2.2510071-0.1317749-2.5419922-0.0214539c-0.0395203,0.0116882-0.0869141,0.0204773-0.1411133,0.0302734
			c-0.3778992,0.0693054-1.0668945,0.1953125-0.925293,1.5028992c0.1713867-0.3964844,0.3114929-0.7177734,0.3114929-0.7177734
			l0.0957031,0.023468c-0.0003967,0.0049133-0.0200195,0.4424133,0.1192017,0.6972351
			c0.0043945-0.5820312,0.2456055-0.9648132,0.2568054-0.9824219l0.0810852-0.1259766l0.0112305,0.1494751
			c0.0204773,0.2783203,0.0883789,0.6914062,0.1786804,0.782196c0.0205078-0.032196,0.0488892-0.1191711,0.0722961-0.1904907
			c0.1102905-0.3320007,0.3149109-0.9501038,0.9604187-0.8720093c0.8686829,0.1045227,1.5063782,0.0741882,1.5126648,0.0741882
			l0.0464172-0.0019836l0.0058899,0.0458984c0.0303345,0.256897,0.2963867,2.5195923,0.1987305,2.7588196l-0.0161133,0.0401001
			l-0.0420227-0.0098267c-0.6019897-0.1405945-1.914978,0.0469055-2.1591797,0.342804
			C28.082489,37.6815796,28.215271,37.6786804,28.3345032,37.6786804L28.3345032,37.6786804z M28.6528015,38.891571
			l-0.0350952-0.0585938c-0.198822-0.3320007,0.2528992-0.8251953,0.4369812-1.0058899
			c-0.1670227-0.0273132-0.5614929-0.0711975-1.199707-0.0341187l-0.0679016,0.0039062l0.0166016-0.0654907
			c0.1098938-0.4394226,1.6318054-0.6152039,2.2666321-0.493103c0.0395813-0.2901001-0.0976257-1.6806946-0.2095032-2.6240234
			c-0.1630249,0.0048218-0.7402344,0.0127258-1.4829407-0.0762024c-0.5633545-0.0683594-0.7450562,0.4775391-0.8529663,0.8047485
			c-0.0513,0.1551819-0.0795898,0.2401733-0.1401367,0.2606812c-0.0234985,0.0087891-0.0488892,0.0048828-0.0712585-0.0097046
			c-0.128418-0.0859985-0.190918-0.4609985-0.2183228-0.6962891c-0.079071,0.1805725-0.1880188,0.5116882-0.1615906,0.9276733
			l0.0078125,0.1201172l-0.0903015-0.0791016c-0.1690063-0.1473999-0.2212219-0.4472961-0.2364197-0.6582031
			c-0.0716858,0.1650085-0.1781921,0.4102173-0.2914734,0.6729126l-0.0688171,0.1590881l-0.0263977-0.171814
			c-0.2407227-1.570282,0.5854797-1.7216797,0.9823914-1.7939758c0.0513-0.0097046,0.0958252-0.0176086,0.1270142-0.0273132
			c0.309082-0.1171875,2.2041016-0.0469055,2.5604858,0.0117188c0.0899048-0.2461243,0.0147095-1.1074219-0.0282898-1.4707031
			c-0.0796204-0.054718-0.2578125-0.2256165-0.7138062-0.6933899c-0.7564087-0.203125-1.4628906-0.9775391-1.6480103-1.1928406
			c-0.0346985,0.0532227-0.0516968,0.0614929-0.059082,0.0649109l-0.0327148,0.0166016l-0.0254211-0.0263977
			c-0.6151733-0.6317749-0.914978-1.3475952-0.8910828-2.1278992c0.0484009-1.5868835,1.4400024-2.9462891,1.592804-3.0908203
			l0.137207-0.9892883c-0.3838196,0.065918-1.3325195,0.2095032-1.476593,0.0581055
			c-0.0229187-0.0238953-0.031189-0.0550842-0.0244141-0.0874023c0.0532227-0.2328796,1.0435181-0.5257874,1.367218-0.6161804
			c-0.0752258-0.1517944-0.2153015-0.574707,0.2069702-1.0854187c0.4043274-0.3652954,0.9483032-0.4707031,1.460022-0.2880859
			c0.4726868,0.1688843,0.8208008,0.5473022,0.891571,0.9672852l0.0015259,0.0024109
			c0.0375977,0.0679016,0.1112976,0.8778992-0.8145142,1.644104c-0.7045898,0.8037109-0.3978882,2.4682007-0.3681946,2.6210022
			l3.8345032,4.9092102l-0.1367188-0.0302124c-0.5253601-0.1182251-1.3671875-0.2460938-1.532196-0.1163025
			c-0.0205078,0.015686-0.0331726,0.0420227-0.0370789,0.0801086c-0.0352173,0.2929688,0.4090881,1.0361938,0.5975952,1.2753906
			c0.1044922,0.1318054,0.1142883,0.3193054,0.0253906,0.5020142c-0.0565796,0.1190796-0.1611023,0.2381897-0.2666016,0.2381897
			c-0.3153992-0.0380249-1.164093-0.1152039-1.371582-0.0155945c-0.1421204,0.0683899-0.0610046,1.4023743,0.0966797,2.6162109
			c0.2178345-0.0057983,1.1195984,0.0029907,1.4351196,0.514679l0.0546875,0.0888062l-0.1036072-0.0126038
			c-1.1522827-0.1465149-2.0087891,0.1405945-2.5238953,0.4082031c-0.5570984,0.2890015-0.8441772,0.6141968-0.8471985,0.6170959
			L28.6528015,38.891571L28.6528015,38.891571z"/>
		<path class="st4" d="M29.0189819,25.1659851c0,0-2.2137756,2.4403992-1.258667,4.3075867
			c0.0506592-0.2601929,0.0287781-0.4237976,0.0604858-0.4134827c-0.0531921-0.0317993,0.2749023,0.2245789,0.25,0.1748047
			c0.0067749-0.1348267-0.1001282-0.424408-0.1001282-0.424408c0.1001282,0.0249023,0.1997375,0.0498962,0.2998047,0.0747986
			c-0.0585938-0.1080017-0.1166992-0.2164001-0.1747742-0.3243103c0.1410828,0.0166321,0.2826843,0.0332031,0.4242859,0.0498047
			c0,0-0.1499023-0.3993835-0.1000977-0.3993835s0.3496094,0.0249023,0.3496094,0.0249023
			C28.1400757,27.1063843,28.7338867,26.1684875,29.0189819,25.1659851L29.0189819,25.1659851z"/>
		<path class="st4" d="M28.898407,25.3876953c-0.4682007,0.5849915-1.7817383,2.4188843-1.1626282,3.914093
			c0.0064087-0.0562134,0.0098267-0.1036072,0.012207-0.1412048c0.0025024-0.0404968,0.0043945-0.0697937,0.0093079-0.0913086
			l-0.0068054-0.0072937l0.0531921-0.0698242l0.0430298,0.0254211l-0.0103149,0.0220032l0.0166016-0.0141907
			c0.0141907,0.0141907,0.0977173,0.0795898,0.1611938,0.1249695c-0.0180969-0.1117859-0.0679016-0.2616577-0.0904236-0.3222656
			l-0.0326843-0.0888062l0.2817993,0.0703125l-0.1669922-0.3096313l0.4389038,0.0518188
			c-0.1102905-0.3101196-0.0848999-0.3467102-0.0722046-0.3652954l0.0146179-0.0215149l0.0326843-0.0033875
			c0.0341797,0,0.1689758,0.0102844,0.262207,0.0175781c-0.4515991-0.8852844-0.1762085-1.6659851,0.089386-2.4219055
			C28.8144836,25.6362,28.8578796,25.5121765,28.898407,25.3876953L28.898407,25.3876953z M27.7816772,29.6249695
			l-0.0658875-0.1289062c-0.9598999-1.8759766,1.2442017-4.3388672,1.2661133-4.3637695l0.0854797,0.0473938
			c-0.0585938,0.2060242-0.1314087,0.4120789-0.2011719,0.6108093c-0.2793274,0.7929688-0.5430298,1.5419922-0.0527039,2.4213867
			l0.0453796,0.0820007l-0.0932922-0.007782c-0.0664062-0.0053101-0.2225952-0.0180359-0.3027039-0.0229187
			c0.0126953,0.0674133,0.0591125,0.2104187,0.1040039,0.3301086l0.0287781,0.0765991l-0.4105835-0.0477905l0.1831055,0.3392944
			l-0.3203125-0.0801086c0.0307007,0.0953064,0.0732117,0.245697,0.0732117,0.3423157l0.0136719,0.0278625l-0.0351868,0.0307312
			c-0.0454102,0.0307617-0.1714172-0.0620117-0.2509766-0.1279297c-0.0005188,0.0039062-0.0005188,0.0088196-0.0009155,0.0127258
			c-0.0048828,0.0726929-0.0122986,0.1820984-0.0381165,0.3164062L27.7816772,29.6249695L27.7816772,29.6249695z"/>
		<path class="st4" d="M29.7880859,23.0731812c0,0,0.117218,0.8403931-0.340271,1.0849915
			c-0.0743408,0.0532227-0.361908,0.1488953-0.3194275,0.3193359c0.0531921,0.2338562,0.1811829,0.1913757,0.3618164,0.1489563
			C29.9692078,24.5409851,30.5224915,23.519989,29.7880859,23.0731812L29.7880859,23.0731812z"/>
		<path class="st4" d="M29.8480835,23.1757812c0.0151978,0.243103,0.0083008,0.8208008-0.3768921,1.0263062
			c-0.0116882,0.0093079-0.0400085,0.0240173-0.0733032,0.0410767c-0.1235046,0.0644226-0.2425842,0.1342163-0.2207031,0.2221069
			c0.0157166,0.0699158,0.0375977,0.1118164,0.0674133,0.1304016c0.0440063,0.0273132,0.1166992,0.0098267,0.2090149-0.0121765
			l0.0253601-0.0059204c0.2564087-0.0458679,0.535614-0.3886108,0.6006165-0.7348022
			C30.1098938,23.6796875,30.1156921,23.3891602,29.8480835,23.1757812L29.8480835,23.1757812z M29.3027039,24.7099915
			c-0.0400391,0-0.0766296-0.0079041-0.1108093-0.0292969c-0.0541992-0.0337219-0.0897827-0.0947876-0.1117859-0.1924133
			c-0.0430298-0.1704102,0.1542969-0.2724915,0.2719727-0.3339844c0.0278015-0.0142212,0.0517273-0.0263977,0.066803-0.0365906
			c0.4273071-0.2290344,0.3208008-1.0298157,0.3198853-1.0376282l-0.014679-0.1044922l0.0899048,0.0546875
			c0.3006897,0.1831055,0.4300842,0.4780273,0.363678,0.8310242c-0.0726929,0.3886719-0.3837891,0.7616882-0.6786804,0.8139648
			l-0.0218811,0.0054321C29.414093,24.6957703,29.3559875,24.7099915,29.3027039,24.7099915L29.3027039,24.7099915z"/>
		<path class="st3" d="M28.7997742,23.6200867c0.0996094,0,0.1802063,0.0805969,0.1802063,0.1796875
			c0,0.0996094-0.0805969,0.1802063-0.1802063,0.1802063c-0.0990601,0-0.1796875-0.0805969-0.1796875-0.1802063
			C28.6200867,23.7006836,28.7007141,23.6200867,28.7997742,23.6200867L28.7997742,23.6200867z"/>
		<path class="st2" d="M28.2562866,24.4984741c-0.1170959,0.0957031-0.7337952,0.7344055-0.1278992,0.9683228
			c0.6278992-0.1704407,0.457489-0.2871094,0.5961914-0.4258118C28.7279663,24.7538757,28.4121094,24.679657,28.2562866,24.4984741
			L28.2562866,24.4984741z"/>
		<path class="st0" d="M28.2533875,24.5678711c-0.1260071,0.118103-0.3685913,0.4111023-0.3345032,0.6240234
			c0.0157166,0.097168,0.0849915,0.1698914,0.2124023,0.2221985c0.4136047-0.1138,0.4468079-0.1978149,0.4790955-0.2788086
			c0.0135803-0.0346985,0.0288086-0.0733032,0.063385-0.1133118c-0.0067749-0.1528931-0.1219788-0.2328796-0.254364-0.3251953
			C28.3623047,24.6571655,28.3031616,24.6161804,28.2533875,24.5678711L28.2533875,24.5678711z M28.1259766,25.5195007
			l-0.015564-0.0063171c-0.1705322-0.0653992-0.2681274-0.1684875-0.2901001-0.3052063
			c-0.0483093-0.3031921,0.3124695-0.6727905,0.4042969-0.7480164l0.0375671-0.0307922l0.0317078,0.0366211
			c0.0479126,0.0556641,0.1132812,0.1010742,0.1827087,0.1488953c0.1405945,0.0982056,0.300293,0.2090149,0.2977905,0.4273071
			l-0.0004883,0.019989l-0.0140991,0.014679c-0.031311,0.0312195-0.0429993,0.0610046-0.0567322,0.0952148
			c-0.0492554,0.1250305-0.1185913,0.223114-0.5614624,0.3432007L28.1259766,25.5195007L28.1259766,25.5195007z"/>
		<path class="st4" d="M29.5966797,30.5307922c-0.0317993,0.138092-0.1703796,0.6488953,0.0215149,1.0423889
			c0.5317078-0.2236023,0.7763062-0.1590881,0.9575195-0.0429077C30.1391907,31.1796875,29.9692078,31.030304,29.5966797,30.5307922
			L29.5966797,30.5307922z"/>
		<path class="st4" d="M29.6210938,30.6464844c-0.0435181,0.1976929-0.1035156,0.5596008,0.0224915,0.8622742
			c0.3007202-0.1210632,0.5117188-0.1474609,0.6689148-0.1278687C30.0513,31.1620789,29.8862,30.9950867,29.6210938,30.6464844
			L29.6210938,30.6464844z M29.5937805,31.6376648l-0.0205994-0.0429993
			c-0.1889038-0.3876648-0.0741882-0.868103-0.031189-1.0492859l0.030304-0.1312866l0.0643921,0.0868835
			c0.3721008,0.4989929,0.5396118,0.6445007,0.9701843,0.9912109l-0.0585938,0.0801086
			c-0.1635132-0.1054993-0.3866882-0.1729126-0.9111023,0.0467834L29.5937805,31.6376648L29.5937805,31.6376648z"/>
		<path class="st3" d="M30.5116882,32.945282l0.0317993,1.1914062c0,0,0.4150085,0.0751953,0.605896,0
			C31.3417969,34.0625,31.1395874,33.3075867,30.5116882,32.945282L30.5116882,32.945282z"/>
		<path class="st3" d="M30.5922852,34.0937805c0.1064148,0.0166016,0.3965149,0.0527039,0.5394897-0.0029907
			c0.0196228-0.0078125,0.0332031-0.039032,0.0362244-0.085907c0.0174866-0.2294922-0.1875-0.6903992-0.6040039-0.967804
			L30.5922852,34.0937805L30.5922852,34.0937805z M30.9057922,34.2196655c-0.179718,0-0.3599243-0.031189-0.3710938-0.0331726
			l-0.0401306-0.0078125l-0.0350952-1.3213196l0.0771179,0.0449219c0.503418,0.2901001,0.7525024,0.8409119,0.7309875,1.1104126
			c-0.0087891,0.1181641-0.0663757,0.1582031-0.0995789,0.1708679
			C31.0976868,34.2108765,31.0020142,34.2196655,30.9057922,34.2196655L30.9057922,34.2196655z"/>
		<path class="st4" d="M33.5224915,33.0946655c0,0-0.7666016-1.8515015-2.7236938-2.3192749
			c-1.957489-0.4683228-1.7021179-2.5531921-1.542511-2.6811829c0.0849915-0.1806335,0.1490173-0.4575195,0.7129211-0.1914062
			c0.5634766,0.2660828,3.1596985,1.5746765,3.5317993,1.6381836
			C33.8729858,29.6049805,33.5537109,33.1366882,33.5224915,33.0946655L33.5224915,33.0946655z"/>
		<path class="st0" d="M29.5849915,27.842804c-0.0352173,0-0.0660095,0.0052795-0.092804,0.0150757
			c-0.0912781,0.0341797-0.1314087,0.1245117-0.1698914,0.2124023c-0.0074158,0.0155945-0.0137024,0.0307922-0.0205078,0.0453796
			l-0.0054016,0.0103149l-0.0088196,0.0072937c-0.0521545,0.0469055-0.160553,0.5488281-0.0150757,1.1254883
			c0.1351929,0.5342102,0.5116882,1.2226257,1.5379944,1.467804c1.6367798,0.3916321,2.4580994,1.7548218,2.6884766,2.2041016
			c0.0713196-0.6171875,0.2422485-2.9516907,0.0215149-3.3119812c-0.0145874-0.0244751-0.0253906-0.0278931-0.0282898-0.0283813
			c-0.2929993-0.050293-1.8526001-0.8149414-2.8842773-1.3208313c-0.2930298-0.1434937-0.5308228-0.2601929-0.6601257-0.3212891
			C29.7992859,27.8778992,29.6777039,27.842804,29.5849915,27.842804L29.5849915,27.842804z M33.5058899,33.1552734
			l-0.0292969-0.0419922c-0.007782-0.0176086-0.780304-1.8330078-2.6895142-2.2895813
			c-1.1069031-0.2646179-1.4960938-1.0195007-1.6268921-1.6064148c-0.1166992-0.5200195-0.0484009-1.0410156,0.0545959-1.1524048
			c0.0054016-0.0112,0.0103149-0.0228882,0.015686-0.0351257c0.0429382-0.0966797,0.0962219-0.2167969,0.226532-0.265564
			c0.1259766-0.0469055,0.300293-0.0162048,0.5331726,0.093689c0.1299133,0.0610046,0.3677063,0.1777039,0.6617126,0.3218079
			c0.9642944,0.4725952,2.5776062,1.2640991,2.8579102,1.3125c0.1015015,0.0170898,0.1611023,0.1659851,0.1932983,0.4823914
			c0.0741882,0.7250977-0.0488281,3.1221008-0.1621094,3.1669922L33.5058899,33.1552734L33.5058899,33.1552734z"/>
		<path class="st2" d="M31.6601868,30.7645874c-0.0312805,0.0214844,2.6170959,1.5635071,1.8193054,2.8935852
			c0.7558899-0.5,0.5107117-1.3721008,0.5107117-1.3721008s0.6171875,1.6065063-0.8828125,2.3936157
			c0.1592102,0.1387024,0.2655945,0.1064148,0.2655945,0.1064148l-0.2548218,0.2548828c0,0-0.1171875,0.1914062,0.8935242-0.297821
			c-0.2762756,0.2236023-0.2977905,0.3828125-0.2977905,0.3828125s0.0741882,0.2128906,0.7342834-0.3613892
			c-0.532196,0.5742798-0.6493835,0.8721008-0.6493835,0.8613892c1.436615-0.1269836,4.5634766-4.7973938-0.9891968-6.1806946
			c0.2977905,0.3085938,0.2549133,0.2661133,0.2549133,0.2661133L31.6601868,30.7645874L31.6601868,30.7645874z"/>
		<path class="st0" d="M34.4150085,34.726593l0.069397,0.0722046c-0.2617188,0.2832031-0.4698181,0.5498047-0.5928345,0.7626648
			c0.7480164-0.1678772,1.920929-1.4803772,2.0322266-2.9120789c0.1142883-1.4628906-0.9336243-2.5629883-2.9550171-3.1108093
			c0.0438843,0.0464172,0.0771179,0.0810242,0.0996094,0.1074219l0.0009155-0.0005188l0.0312805,0.0307922l-0.0038757,0.003418
			c0.032196,0.0429993,0.0233765,0.0516968,0.0048828,0.0692749l-0.0352173,0.034729l-0.0058899-0.0064087l-1.3182983,0.9882812
			c0.0176086,0.0122375,0.0381165,0.0269165,0.0596008,0.0415344c1.0390015,0.7172852,2.1562195,1.7436829,1.8153992,2.6801758
			c0.5145874-0.4775085,0.3340149-1.156189,0.3251953-1.1875l0.0947266-0.032196
			c0.0058899,0.0166016,0.5966797,1.6074219-0.8379211,2.4189148c0.0986938,0.0654907,0.1602173,0.0517883,0.1612244,0.0507812
			l0.1727905-0.0419922l-0.3251953,0.3261719c0.0898743-0.0194702,0.2987976-0.0888672,0.782196-0.3232727l0.0527954,0.0839844
			c-0.1962891,0.1582031-0.2559204,0.281311-0.2734985,0.3291321c0.0029907,0.0009766,0.006897,0.0019836,0.0117798,0.0029907
			C33.8300781,35.1210632,33.9921875,35.0956726,34.4150085,34.726593L34.4150085,34.726593z M33.8007812,35.6767883
			c-0.0048828,0-0.0087891,0-0.0137024-0.0020142l-0.0380859-0.0087891v-0.085907l0.0186157-0.0010071
			c0.0751953-0.1416016,0.1875-0.3056641,0.3270874-0.4814148c-0.1523132,0.0947266-0.2684937,0.1328125-0.3475952,0.1112976
			c-0.0596008-0.015564-0.0772095-0.0575867-0.0801086-0.0663757l-0.0048828-0.0107727l0.0019836-0.0117188
			c0.0018921-0.0127258,0.0155945-0.0907898,0.1073914-0.2080078c-0.6103821,0.2774048-0.6611023,0.2207031-0.6903992,0.1895142
			c-0.0245056-0.0274048-0.0205994-0.0625305-0.0058899-0.0859985l0.007782-0.0097046l0.1787109-0.1788025
			c-0.0507812-0.015625-0.1141968-0.0467834-0.1875-0.109314l-0.0546875-0.0488892l0.0644836-0.0332031
			c0.920929-0.4833984,1.0264282-1.2744141,0.9756165-1.7997742c-0.0429993,0.2841797-0.1817017,0.6181641-0.5518188,0.8642578
			l-0.0712891-0.0673828c0.3056946-0.5088196,0.2597961-1.3973999-1.6914062-2.7431946
			c-0.1328125-0.0917053-0.1347046-0.0932007-0.1347046-0.125v-0.0263062l0.0205078-0.0141907l1.359314-1.0190125
			c-0.0340881-0.0357056-0.0976257-0.1020813-0.2168274-0.2250977l-0.1210938-0.125l0.1690063,0.0420227
			c1.2666016,0.3153687,3.3662109,1.1581726,3.2021179,3.2601929c-0.0527039,0.6846008-0.3623352,1.4306946-0.8486328,2.0478821
			c-0.4413757,0.5595093-0.9618835,0.9296875-1.3623047,0.9707031
			C33.8085938,35.6767883,33.8046875,35.6767883,33.8007812,35.6767883L33.8007812,35.6767883z"/>
		<path class="st3" d="M31.7772827,30.3070679c0.3623047,0.2554016,0.4893188,0.3403931,0.5322876,0.4683228
			c-0.3300781-0.074707-0.6279602-0.0532227-0.6279602-0.0532227s-0.7124329-0.6806946-0.840332-0.7338867
			c-0.0956726,0-0.6488953-0.3511047-0.6488953-0.3511047c-0.2763977-0.1387024-0.5317993-1.0961914,0.4891968-0.8193054
			c1.0538025,0.5000305,1.2022095,0.542511,1.2022095,0.542511c0.4189148,0.1312866,0.8368835,0.2626038,1.2557983,0.3934937
			c0.2413025,0.2695312,0.4815063,0.539093,0.7226868,0.8085938c0,0-1.2870789-0.6381836-1.4462891-0.6488953
			c0.3505859,0.2871094,0.5527954,0.680603,0.5527954,0.680603C32.5614624,30.4775085,32.2069702,30.3710938,31.7772827,30.3070679
			L31.7772827,30.3070679z"/>
		<path class="st0" d="M31.7880859,30.6688843c0.0975952,0,0.2518921,0.0063782,0.4227905,0.0361938
			c-0.0643921-0.0762024-0.1875-0.1631165-0.4120789-0.3218079l-0.0498047-0.0351868l0.0361938-0.0903015
			c0.3895874,0.0581055,0.7118835,0.1488953,1.0780945,0.2543945c-0.0829773-0.1347961-0.2489929-0.3721008-0.4784851-0.5600891
			l-0.1210938-0.0986023l0.1551819,0.0102844c0.1270142,0.0083008,0.8497009,0.3529968,1.2353821,0.5404968l-0.5429688-0.6063843
			l-1.2421875-0.3897095c-0.0048218-0.0014648-0.1640015-0.0492859-1.2089233-0.5453796
			c-0.3461914-0.092804-0.5708008-0.0464172-0.6412048,0.1381836c-0.0794983,0.2094116,0.0660095,0.5263062,0.1958008,0.5913086
			c0.2608032,0.1650085,0.5718079,0.342804,0.6269836,0.3457031l0.0190125,0.0039062
			c0.1255188,0.0522156,0.7173157,0.6117859,0.8404236,0.7289734C31.719696,30.6698914,31.7499695,30.6688843,31.7880859,30.6688843
			L31.7880859,30.6688843z M32.3847961,30.8437805l-0.0859985-0.0195923
			c-0.3182983-0.0718079-0.610321-0.0527039-0.6133118-0.0522156l-0.0223999,0.0014343l-0.0155945-0.0151367
			c-0.2676086-0.2558899-0.7203064-0.6713867-0.8198853-0.7216797c-0.1230164-0.019989-0.5346069-0.2763062-0.6621094-0.3574219
			c-0.1810913-0.090271-0.335907-0.4613953-0.2397156-0.7138977c0.0516968-0.1366882,0.2212219-0.3441772,0.7690125-0.1957703
			c1.0317993,0.4892578,1.1967773,0.5409851,1.2036133,0.5429688l1.2685852,0.3979187l0.7333984,0.8189087l-0.0596008,0.0780945
			c-0.3661804-0.1816101-0.9150085-0.4438171-1.217804-0.5703125c0.2460938,0.2554016,0.3837891,0.5209961,0.3907166,0.5346985
			l0.0526733,0.1025085l-0.1933899-0.0552063c-0.3075867-0.0888062-0.5820007-0.1679077-0.8866882-0.2259827
			c0.2344055,0.1679077,0.3311157,0.2489929,0.3710938,0.3661804L32.3847961,30.8437805L32.3847961,30.8437805z"/>
		<path class="st0" d="M26.7670898,24.5941772c0,0,1.2338867-0.2977905,1.3828125-0.2552795"></path>
		<path class="st3" d="M26.7788086,24.6430664l-0.023407-0.0971985c0.2080078-0.050293,1.2543945-0.2987976,1.4082031-0.2548828
			l-0.0274353,0.0961914C28.0473938,24.3617859,27.3706055,24.5,26.7788086,24.6430664L26.7788086,24.6430664z"/>
	</g>
</g>
</svg>
