<?xml version="1.0" encoding="utf-8"?>
<!-- Generator: Adobe Illustrator 22.1.0, SVG Export Plug-In . SVG Version: 6.00 Build 0)  -->
<svg version="1.1" id="Layer_1" xmlns="http://www.w3.org/2000/svg" xmlns:xlink="http://www.w3.org/1999/xlink" x="0px" y="0px"
	 viewBox="0 0 60 60" style="enable-background:new 0 0 60 60;" xml:space="preserve">
<style type="text/css">
	.st0{clip-path:url(#SVGID_2_);fill:#B32335;}
	.st1{clip-path:url(#SVGID_2_);fill:#FFFFFF;}
	.st2{clip-path:url(#SVGID_2_);fill:#3C3C6F;}
</style>
<g id="XMLID_1_">
	<g>
		<defs>
			<path id="SVGID_1_" d="M59,60H0.9999695C0.4477234,60,0,59.5526733,0,59V0.9999695c0-0.5522461,0.4477234-1,0.9999695-1H59
				c0.5526886,0,0.9999847,0.4477539,0.9999847,1V59C59.9999847,59.5526733,59.5526886,60,59,60L59,60z"/>
		</defs>
		<clipPath id="SVGID_2_">
			<use xlink:href="#SVGID_1_"  style="overflow:visible;"/>
		</clipPath>
		<polygon class="st0" points="0,-0.0000305 114,-0.0000305 114,60 0,60 0,-0.0000305 		"/>
		<path class="st1" d="M114,9.2309265H0V4.6152039h114V9.2309265L114,9.2309265z M114,18.4613953H0v-4.6152039h114V18.4613953
			L114,18.4613953z M114,27.6923828H0v-4.6152954h114V27.6923828L114,27.6923828z M114,36.9228821H0v-4.6152954h114V36.9228821
			L114,36.9228821z M114,46.1542664H0v-4.6161804h114V46.1542664L114,46.1542664z M114,55.3847961H0v-4.6153259h114V55.3847961
			L114,55.3847961z"/>
		<polygon class="st2" points="0,-0.0000305 45.5995789,-0.0000305 45.5995789,32.3075867 0,32.3075867 0,-0.0000305 		"/>
		<polygon class="st1" points="3.7998047,1.3847656 4.2143555,2.6601257 5.5556335,2.6601257 4.4707031,3.4487305 
			4.8852539,4.7240906 3.7998047,3.9360046 2.7148438,4.7240906 3.1293945,3.4487305 2.0444031,2.6601257 3.3857422,2.6601257 
			3.7998047,1.3847656 		"/>
		<polygon class="st1" points="11.3999023,1.3847656 11.8144836,2.6601257 13.1557922,2.6601257 12.0708008,3.4487305 
			12.4853821,4.7240906 11.3999023,3.9360046 10.3148804,4.7240906 10.7294922,3.4487305 9.6440125,2.6601257 10.9853821,2.6601257 
			11.3999023,1.3847656 		"/>
		<polygon class="st1" points="18.9999695,1.3847656 19.4145813,2.6601257 20.7558899,2.6601257 19.6708679,3.4487305 
			20.0849915,4.7240906 18.9999695,3.9360046 17.9150085,4.7240906 18.329071,3.4487305 17.2441101,2.6601257 18.5853882,2.6601257 
			18.9999695,1.3847656 		"/>
		<polygon class="st1" points="26.6000977,1.3847656 27.0145874,2.6601257 28.3559875,2.6601257 27.2704773,3.4487305 
			27.6850891,4.7240906 26.6000977,3.9360046 25.5145874,4.7240906 25.9291992,3.4487305 24.8441772,2.6601257 
			26.1854858,2.6601257 26.6000977,1.3847656 		"/>
		<polygon class="st1" points="34.2001953,1.3847656 34.6142883,2.6601257 35.9561157,2.6601257 34.8710938,3.4487305 
			35.2851868,4.7240906 34.2001953,3.9360046 33.1151733,4.7240906 33.5292969,3.4487305 32.4442749,2.6601257 
			33.7851868,2.6601257 34.2001953,1.3847656 		"/>
		<polygon class="st1" points="41.7997742,1.3847656 42.2147827,2.6601257 43.5556946,2.6601257 42.4706726,3.4487305 
			42.8847961,4.7240906 41.7997742,3.9360046 40.7147827,4.7240906 41.1288757,3.4487305 40.0438843,2.6601257 
			41.3856812,2.6601257 41.7997742,1.3847656 		"/>
		<polygon class="st1" points="3.7998047,7.8461914 4.2143555,9.1215515 5.5556335,9.1215515 4.4707031,9.9101562 
			4.8852539,11.1859741 3.7998047,10.3974609 2.7148438,11.1859741 3.1293945,9.9101562 2.0444031,9.1215515 3.3857422,9.1215515 
			3.7998047,7.8461914 		"/>
		<polygon class="st1" points="11.3999023,7.8461914 11.8144836,9.1215515 13.1557922,9.1215515 12.0708008,9.9101562 
			12.4853821,11.1859741 11.3999023,10.3974609 10.3148804,11.1859741 10.7294922,9.9101562 9.6440125,9.1215515 
			10.9853821,9.1215515 11.3999023,7.8461914 		"/>
		<polygon class="st1" points="18.9999695,7.8461914 19.4145813,9.1215515 20.7558899,9.1215515 19.6708679,9.9101562 
			20.0849915,11.1859741 18.9999695,10.3974609 17.9150085,11.1859741 18.329071,9.9101562 17.2441101,9.1215515 
			18.5853882,9.1215515 18.9999695,7.8461914 		"/>
		<polygon class="st1" points="26.6000977,7.8461914 27.0145874,9.1215515 28.3559875,9.1215515 27.2704773,9.9101562 
			27.6850891,11.1859741 26.6000977,10.3974609 25.5145874,11.1859741 25.9291992,9.9101562 24.8441772,9.1215515 
			26.1854858,9.1215515 26.6000977,7.8461914 		"/>
		<polygon class="st1" points="34.2001953,7.8461914 34.6142883,9.1215515 35.9561157,9.1215515 34.8710938,9.9101562 
			35.2851868,11.1859741 34.2001953,10.3974609 33.1151733,11.1859741 33.5292969,9.9101562 32.4442749,9.1215515 
			33.7851868,9.1215515 34.2001953,7.8461914 		"/>
		<polygon class="st1" points="41.7997742,7.8461914 42.2147827,9.1215515 43.5556946,9.1215515 42.4706726,9.9101562 
			42.8847961,11.1859741 41.7997742,10.3974609 40.7147827,11.1859741 41.1288757,9.9101562 40.0438843,9.1215515 
			41.3856812,9.1215515 41.7997742,7.8461914 		"/>
		<polygon class="st1" points="3.7998047,14.3075867 4.2143555,15.5834961 5.5556335,15.5834961 4.4707031,16.371582 
			4.8852539,17.6474915 3.7998047,16.8588562 2.7148438,17.6474915 3.1293945,16.371582 2.0444031,15.5834961 3.3857422,15.5834961 
			3.7998047,14.3075867 		"/>
		<polygon class="st1" points="11.3999023,14.3075867 11.8144836,15.5834961 13.1557922,15.5834961 12.0708008,16.371582 
			12.4853821,17.6474915 11.3999023,16.8588562 10.3148804,17.6474915 10.7294922,16.371582 9.6440125,15.5834961 
			10.9853821,15.5834961 11.3999023,14.3075867 		"/>
		<polygon class="st1" points="18.9999695,14.3075867 19.4145813,15.5834961 20.7558899,15.5834961 19.6708679,16.371582 
			20.0849915,17.6474915 18.9999695,16.8588562 17.9150085,17.6474915 18.329071,16.371582 17.2441101,15.5834961 
			18.5853882,15.5834961 18.9999695,14.3075867 		"/>
		<polygon class="st1" points="26.6000977,14.3075867 27.0145874,15.5834961 28.3559875,15.5834961 27.2704773,16.371582 
			27.6850891,17.6474915 26.6000977,16.8588562 25.5145874,17.6474915 25.9291992,16.371582 24.8441772,15.5834961 
			26.1854858,15.5834961 26.6000977,14.3075867 		"/>
		<polygon class="st1" points="34.2001953,14.3075867 34.6142883,15.5834961 35.9561157,15.5834961 34.8710938,16.371582 
			35.2851868,17.6474915 34.2001953,16.8588562 33.1151733,17.6474915 33.5292969,16.371582 32.4442749,15.5834961 
			33.7851868,15.5834961 34.2001953,14.3075867 		"/>
		<polygon class="st1" points="41.7997742,14.3075867 42.2147827,15.5834961 43.5556946,15.5834961 42.4706726,16.371582 
			42.8847961,17.6474915 41.7997742,16.8588562 40.7147827,17.6474915 41.1288757,16.371582 40.0438843,15.5834961 
			41.3856812,15.5834961 41.7997742,14.3075867 		"/>
		<polygon class="st1" points="3.7998047,20.7689819 4.2143555,22.0448914 5.5556335,22.0448914 4.4707031,22.8334656 
			4.8852539,24.1088867 3.7998047,23.320282 2.7148438,24.1088867 3.1293945,22.8334656 2.0444031,22.0448914 3.3857422,22.0448914 
			3.7998047,20.7689819 		"/>
		<polygon class="st1" points="11.3999023,20.7689819 11.8144836,22.0448914 13.1557922,22.0448914 12.0708008,22.8334656 
			12.4853821,24.1088867 11.3999023,23.320282 10.3148804,24.1088867 10.7294922,22.8334656 9.6440125,22.0448914 
			10.9853821,22.0448914 11.3999023,20.7689819 		"/>
		<polygon class="st1" points="18.9999695,20.7689819 19.4145813,22.0448914 20.7558899,22.0448914 19.6708679,22.8334656 
			20.0849915,24.1088867 18.9999695,23.320282 17.9150085,24.1088867 18.329071,22.8334656 17.2441101,22.0448914 
			18.5853882,22.0448914 18.9999695,20.7689819 		"/>
		<polygon class="st1" points="26.6000977,20.7689819 27.0145874,22.0448914 28.3559875,22.0448914 27.2704773,22.8334656 
			27.6850891,24.1088867 26.6000977,23.320282 25.5145874,24.1088867 25.9291992,22.8334656 24.8441772,22.0448914 
			26.1854858,22.0448914 26.6000977,20.7689819 		"/>
		<polygon class="st1" points="34.2001953,20.7689819 34.6142883,22.0448914 35.9561157,22.0448914 34.8710938,22.8334656 
			35.2851868,24.1088867 34.2001953,23.320282 33.1151733,24.1088867 33.5292969,22.8334656 32.4442749,22.0448914 
			33.7851868,22.0448914 34.2001953,20.7689819 		"/>
		<polygon class="st1" points="41.7997742,20.7689819 42.2147827,22.0448914 43.5556946,22.0448914 42.4706726,22.8334656 
			42.8847961,24.1088867 41.7997742,23.320282 40.7147827,24.1088867 41.1288757,22.8334656 40.0438843,22.0448914 
			41.3856812,22.0448914 41.7997742,20.7689819 		"/>
		<polygon class="st1" points="3.7998047,27.2309875 4.2143555,28.5062866 5.5556335,28.5062866 4.4707031,29.2948914 
			4.8852539,30.570282 3.7998047,29.782196 2.7148438,30.570282 3.1293945,29.2948914 2.0444031,28.5062866 3.3857422,28.5062866 
			3.7998047,27.2309875 		"/>
		<polygon class="st1" points="11.3999023,27.2309875 11.8144836,28.5062866 13.1557922,28.5062866 12.0708008,29.2948914 
			12.4853821,30.570282 11.3999023,29.782196 10.3148804,30.570282 10.7294922,29.2948914 9.6440125,28.5062866 
			10.9853821,28.5062866 11.3999023,27.2309875 		"/>
		<polygon class="st1" points="18.9999695,27.2309875 19.4145813,28.5062866 20.7558899,28.5062866 19.6708679,29.2948914 
			20.0849915,30.570282 18.9999695,29.782196 17.9150085,30.570282 18.329071,29.2948914 17.2441101,28.5062866 
			18.5853882,28.5062866 18.9999695,27.2309875 		"/>
		<polygon class="st1" points="26.6000977,27.2309875 27.0145874,28.5062866 28.3559875,28.5062866 27.2704773,29.2948914 
			27.6850891,30.570282 26.6000977,29.782196 25.5145874,30.570282 25.9291992,29.2948914 24.8441772,28.5062866 
			26.1854858,28.5062866 26.6000977,27.2309875 		"/>
		<polygon class="st1" points="34.2001953,27.2309875 34.6142883,28.5062866 35.9561157,28.5062866 34.8710938,29.2948914 
			35.2851868,30.570282 34.2001953,29.782196 33.1151733,30.570282 33.5292969,29.2948914 32.4442749,28.5062866 
			33.7851868,28.5062866 34.2001953,27.2309875 		"/>
		<polygon class="st1" points="41.7997742,27.2309875 42.2147827,28.5062866 43.5556946,28.5062866 42.4706726,29.2948914 
			42.8847961,30.570282 41.7997742,29.782196 40.7147827,30.570282 41.1288757,29.2948914 40.0438843,28.5062866 
			41.3856812,28.5062866 41.7997742,27.2309875 		"/>
		<polygon class="st1" points="7.6000977,23.9999695 8.0146484,25.2758789 9.355957,25.2758789 8.2705078,26.0639648 
			8.6850586,27.3397827 7.6000977,26.5512695 6.5146484,27.3397827 6.9291992,26.0639648 5.8442078,25.2758789 
			7.1855469,25.2758789 7.6000977,23.9999695 		"/>
		<polygon class="st1" points="15.2001648,23.9999695 15.6142883,25.2758789 16.9555969,25.2758789 15.870575,26.0639648 
			16.2851868,27.3397827 15.2001648,26.5512695 14.1146851,27.3397827 14.5292664,26.0639648 13.4443054,25.2758789 
			14.7855835,25.2758789 15.2001648,23.9999695 		"/>
		<polygon class="st1" points="22.7997742,23.9999695 23.214386,25.2758789 24.5556946,25.2758789 23.4706726,26.0639648 
			23.8852844,27.3397827 22.7997742,26.5512695 21.7147827,27.3397827 22.1293945,26.0639648 21.0443726,25.2758789 
			22.3857117,25.2758789 22.7997742,23.9999695 		"/>
		<polygon class="st1" points="30.3999023,23.9999695 30.8145142,25.2758789 32.156311,25.2758789 31.070282,26.0639648 
			31.4854126,27.3397827 30.3999023,26.5512695 29.3148804,27.3397827 29.7294922,26.0639648 28.6439819,25.2758789 
			29.9854126,25.2758789 30.3999023,23.9999695 		"/>
		<polygon class="st1" points="38,23.9999695 38.414093,25.2758789 39.7558899,25.2758789 38.6708984,26.0639648 
			39.0849915,27.3397827 38,26.5512695 36.914978,27.3397827 37.3291016,26.0639648 36.2440796,25.2758789 37.5858765,25.2758789 
			38,23.9999695 		"/>
		<polygon class="st1" points="7.6000977,17.5385742 8.0146484,18.8139648 9.355957,18.8139648 8.2705078,19.6025085 
			8.6850586,20.8783875 7.6000977,20.0897827 6.5146484,20.8783875 6.9291992,19.6025085 5.8442078,18.8139648 
			7.1855469,18.8139648 7.6000977,17.5385742 		"/>
		<polygon class="st1" points="15.2001648,17.5385742 15.6142883,18.8139648 16.9555969,18.8139648 15.870575,19.6025085 
			16.2851868,20.8783875 15.2001648,20.0897827 14.1146851,20.8783875 14.5292664,19.6025085 13.4443054,18.8139648 
			14.7855835,18.8139648 15.2001648,17.5385742 		"/>
		<polygon class="st1" points="22.7997742,17.5385742 23.214386,18.8139648 24.5556946,18.8139648 23.4706726,19.6025085 
			23.8852844,20.8783875 22.7997742,20.0897827 21.7147827,20.8783875 22.1293945,19.6025085 21.0443726,18.8139648 
			22.3857117,18.8139648 22.7997742,17.5385742 		"/>
		<polygon class="st1" points="30.3999023,17.5385742 30.8145142,18.8139648 32.156311,18.8139648 31.070282,19.6025085 
			31.4854126,20.8783875 30.3999023,20.0897827 29.3148804,20.8783875 29.7294922,19.6025085 28.6439819,18.8139648 
			29.9854126,18.8139648 30.3999023,17.5385742 		"/>
		<polygon class="st1" points="38,17.5385742 38.414093,18.8139648 39.7558899,18.8139648 38.6708984,19.6025085 
			39.0849915,20.8783875 38,20.0897827 36.914978,20.8783875 37.3291016,19.6025085 36.2440796,18.8139648 37.5858765,18.8139648 
			38,17.5385742 		"/>
		<polygon class="st1" points="7.6000977,11.0770874 8.0146484,12.352478 9.355957,12.352478 8.2705078,13.1410828 
			8.6850586,14.4164734 7.6000977,13.6283875 6.5146484,14.4164734 6.9291992,13.1410828 5.8442078,12.352478 7.1855469,12.352478 
			7.6000977,11.0770874 		"/>
		<polygon class="st1" points="15.2001648,11.0770874 15.6142883,12.352478 16.9555969,12.352478 15.870575,13.1410828 
			16.2851868,14.4164734 15.2001648,13.6283875 14.1146851,14.4164734 14.5292664,13.1410828 13.4443054,12.352478 
			14.7855835,12.352478 15.2001648,11.0770874 		"/>
		<polygon class="st1" points="22.7997742,11.0770874 23.214386,12.352478 24.5556946,12.352478 23.4706726,13.1410828 
			23.8852844,14.4164734 22.7997742,13.6283875 21.7147827,14.4164734 22.1293945,13.1410828 21.0443726,12.352478 
			22.3857117,12.352478 22.7997742,11.0770874 		"/>
		<polygon class="st1" points="30.3999023,11.0770874 30.8145142,12.352478 32.156311,12.352478 31.070282,13.1410828 
			31.4854126,14.4164734 30.3999023,13.6283875 29.3148804,14.4164734 29.7294922,13.1410828 28.6439819,12.352478 
			29.9854126,12.352478 30.3999023,11.0770874 		"/>
		<polygon class="st1" points="38,11.0770874 38.414093,12.352478 39.7558899,12.352478 38.6708984,13.1410828 
			39.0849915,14.4164734 38,13.6283875 36.914978,14.4164734 37.3291016,13.1410828 36.2440796,12.352478 37.5858765,12.352478 
			38,11.0770874 		"/>
		<polygon class="st1" points="7.6000977,4.6152039 8.0146484,5.8910828 9.355957,5.8910828 8.2705078,6.679657 
			8.6850586,7.9550476 7.6000977,7.1665039 6.5146484,7.9550476 6.9291992,6.679657 5.8442078,5.8910828 7.1855469,5.8910828 
			7.6000977,4.6152039 		"/>
		<polygon class="st1" points="15.2001648,4.6152039 15.6142883,5.8910828 16.9555969,5.8910828 15.870575,6.679657 
			16.2851868,7.9550476 15.2001648,7.1665039 14.1146851,7.9550476 14.5292664,6.679657 13.4443054,5.8910828 14.7855835,5.8910828 
			15.2001648,4.6152039 		"/>
		<polygon class="st1" points="22.7997742,4.6152039 23.214386,5.8910828 24.5556946,5.8910828 23.4706726,6.679657 
			23.8852844,7.9550476 22.7997742,7.1665039 21.7147827,7.9550476 22.1293945,6.679657 21.0443726,5.8910828 22.3857117,5.8910828 
			22.7997742,4.6152039 		"/>
		<polygon class="st1" points="30.3999023,4.6152039 30.8145142,5.8910828 32.156311,5.8910828 31.070282,6.679657 
			31.4854126,7.9550476 30.3999023,7.1665039 29.3148804,7.9550476 29.7294922,6.679657 28.6439819,5.8910828 29.9854126,5.8910828 
			30.3999023,4.6152039 		"/>
		<polygon class="st1" points="38,4.6152039 38.414093,5.8910828 39.7558899,5.8910828 38.6708984,6.679657 39.0849915,7.9550476 
			38,7.1665039 36.914978,7.9550476 37.3291016,6.679657 36.2440796,5.8910828 37.5858765,5.8910828 38,4.6152039 		"/>
	</g>
</g>
</svg>
