<?xml version="1.0" encoding="utf-8"?>
<!-- Generator: Adobe Illustrator 22.1.0, SVG Export Plug-In . SVG Version: 6.00 Build 0)  -->
<svg version="1.1" id="Layer_1" xmlns="http://www.w3.org/2000/svg" xmlns:xlink="http://www.w3.org/1999/xlink" x="0px" y="0px"
	 viewBox="0 0 60 60" style="enable-background:new 0 0 60 60;" xml:space="preserve">
<style type="text/css">
	.st0{clip-path:url(#SVGID_2_);fill:#25305D;}
	.st1{clip-path:url(#SVGID_2_);fill:#020203;}
	.st2{clip-path:url(#SVGID_2_);fill:#FFFFFF;}
	.st3{clip-path:url(#SVGID_5_);}
	.st4{clip-path:url(#SVGID_6_);fill:#020203;}
	.st5{clip-path:url(#SVGID_6_);fill:#C91432;}
	.st6{clip-path:url(#SVGID_8_);fill:#020203;}
	.st7{clip-path:url(#SVGID_8_);fill:#FFFFFF;}
	.st8{clip-path:url(#SVGID_8_);fill:#C91432;}
</style>
<g id="XMLID_1_">
	<g>
		<defs>
			<path id="SVGID_1_" d="M59,60H0.9999695C0.4477234,60,0,59.5526733,0,59V0.9999695c0-0.5522461,0.4477234-1,0.9999695-1H59
				c0.5526886,0,0.9999847,0.4477539,0.9999847,1V59C59.9999847,59.5526733,59.5526886,60,59,60L59,60z"/>
		</defs>
		<clipPath id="SVGID_2_">
			<use xlink:href="#SVGID_1_"  style="overflow:visible;"/>
		</clipPath>
		<polygon class="st0" points="-30.1660156,-0.1279602 89.5673981,-0.1279602 89.5673981,59.9687805 -30.1660156,59.9687805 
			-30.1660156,-0.1279602 		"/>
		<path class="st1" d="M90.0263824-0.1279602L-30.1660156,59.9687805 M-30.1660156-0.1279602L90.0263824,59.9687805"/>
		<polygon class="st2" points="87.3388824,65.3437805 29.9302063,36.6386719 -27.4785156,65.3437805 -32.8540039,54.5927734 
			16.4921875,29.9203796 -32.8540039,5.2470398 -27.4785156,-5.5029297 29.9302063,23.2011719 87.3388824,-5.5029297 
			92.7138824,5.2470398 43.3681946,29.9203796 92.7138824,54.5927734 87.3388824,65.3437805 		"/>
	</g>
	<g>
		<defs>
			<path id="SVGID_3_" d="M-30.1660156,59.9687805V69.984375h60.0962219V-0.1279602h60.0961761L-30.1660156,59.9687805
				L-30.1660156,59.9687805z M-30.1660156-0.1279602v30.0483398h140.2249908v30.0484009H90.0263824L-30.1660156-0.1279602
				L-30.1660156-0.1279602z"/>
		</defs>
		<defs>
			<path id="SVGID_4_" d="M59,60H0.9999695C0.4477234,60,0,59.5526733,0,59V0.9999695c0-0.5522461,0.4477234-1,0.9999695-1H59
				c0.5526886,0,0.9999847,0.4477539,0.9999847,1V59C59.9999847,59.5526733,59.5526886,60,59,60L59,60z"/>
		</defs>
		<clipPath id="SVGID_5_">
			<use xlink:href="#SVGID_3_"  style="overflow:visible;"/>
		</clipPath>
		<clipPath id="SVGID_6_" class="st3">
			<use xlink:href="#SVGID_4_"  style="overflow:visible;"/>
		</clipPath>
		<path class="st4" d="M90.0263824-0.1279602L-30.1660156,59.9687805 M-30.1660156-0.1279602L90.0263824,59.9687805"/>
		<polygon class="st5" points="88.2343903,63.5517883 29.9302063,34.3993835 -28.3745117,63.5517883 -31.9580078,56.3847656 
			20.9716797,29.9203796 -31.9580078,3.4555359 -28.3745117,-3.7114258 29.9302063,25.4408875 88.2343903,-3.7114258 
			91.8183899,3.4555359 38.8887024,29.9203796 91.8183899,56.3847656 88.2343903,63.5517883 		"/>
	</g>
	<g>
		<defs>
			<path id="SVGID_7_" d="M59,60H0.9999695C0.4477234,60,0,59.5526733,0,59V0.9999695c0-0.5522461,0.4477234-1,0.9999695-1H59
				c0.5526886,0,0.9999847,0.4477539,0.9999847,1V59C59.9999847,59.5526733,59.5526886,60,59,60L59,60z"/>
		</defs>
		<clipPath id="SVGID_8_">
			<use xlink:href="#SVGID_7_"  style="overflow:visible;"/>
		</clipPath>
		<path class="st6" d="M29.9302063-0.1279602V69.984375 M-30.1660156,29.9203796h140.2249908"/>
		<polygon class="st7" points="39.9462891,69.984375 19.914093,69.984375 19.914093,39.9364929 -30.1660156,39.9364929 
			-30.1660156,19.9042664 19.914093,19.9042664 19.914093,-0.1279602 39.9462891,-0.1279602 39.9462891,19.9042664 
			110.0589752,19.9042664 110.0589752,39.9364929 39.9462891,39.9364929 39.9462891,69.984375 		"/>
		<path class="st6" d="M29.9302063-0.1279602V69.984375 M-30.1660156,29.9203796h140.2249908"/>
		<polygon class="st8" points="35.9394836,69.984375 23.9203796,69.984375 23.9203796,35.929657 -30.1660156,35.929657 
			-30.1660156,23.9105835 23.9203796,23.9105835 23.9203796,-0.1279602 35.9394836,-0.1279602 35.9394836,23.9105835 
			110.0589752,23.9105835 110.0589752,35.929657 35.9394836,35.929657 35.9394836,69.984375 		"/>
	</g>
</g>
</svg>
