<svg xmlns="http://www.w3.org/2000/svg" width="60" height="60" viewBox="0 0 60 60"><defs><style>.a{fill:#f0f0f0;}.b{fill:#d80027;}.c{fill:#0052b4;}</style></defs><circle class="a" cx="30" cy="30" r="30" transform="translate(0)"/><g transform="translate(1.033 6.522)"><path class="b" d="M244.87,197.043h31.3a30.033,30.033,0,0,0-1.033-7.826H244.87Z" transform="translate(-217.208 -173.565)"></path><path class="b" d="M244.87,63.478h26.9a30.158,30.158,0,0,0-6.922-7.826H244.87Z" transform="translate(-217.208 -55.652)"></path><path class="b" d="M115.319,462.87a29.872,29.872,0,0,0,18.675-6.522H96.644A29.872,29.872,0,0,0,115.319,462.87Z" transform="translate(-86.352 -409.391)"></path><path class="b" d="M12.189,330.608H63.382a29.82,29.82,0,0,0,3.37-7.826H8.819A29.82,29.82,0,0,0,12.189,330.608Z" transform="translate(-8.819 -291.478)"></path></g><path class="c" d="M13.9,4.685H16.63L14.087,6.532l.971,2.989L12.516,7.674,9.973,9.522l.839-2.582a30.165,30.165,0,0,0-5.819,6.485H5.87L4.251,14.6q-.378.631-.726,1.282L4.3,18.261,2.856,17.213q-.538,1.139-.981,2.329l.852,2.621H5.87L3.327,24.011,4.3,27,1.755,25.153.232,26.259A30.289,30.289,0,0,0,0,30H30V0A29.858,29.858,0,0,0,13.9,4.685ZM15.059,27l-2.543-1.847L9.973,27l.971-2.989L8.4,22.163h3.143l.971-2.989.971,2.989H16.63l-2.543,1.847Zm-.971-11.728.971,2.989-2.543-1.847L9.973,18.261l.971-2.989L8.4,13.424h3.143l.971-2.989.971,2.989H16.63ZM25.82,27l-2.543-1.847L20.734,27l.971-2.989-2.543-1.847h3.143l.971-2.989.971,2.989h3.143l-2.543,1.847Zm-.971-11.728.971,2.989-2.543-1.847-2.543,1.847.971-2.989-2.543-1.847h3.143l.971-2.989.971,2.989h3.143Zm0-8.739.971,2.989L23.277,7.674,20.734,9.522l.971-2.989L19.162,4.685h3.143L23.277,1.7l.971,2.989h3.143Z" transform="translate(0)"></path></svg>