<svg xmlns="http://www.w3.org/2000/svg" width="60" height="60" viewBox="0 0 60 60"><defs><style>.a{fill:#f0f0f0;}.b{fill:#0052b4;}.c{fill:#d80027;}</style></defs><circle class="a" cx="30" cy="30" r="30"/><g transform="translate(0.861 0.861)"><path class="b" d="M13.126,100.142a24.909,24.909,0,0,0-4.307,8.7H21.825Z" transform="translate(-8.819 -88.988)"/><path class="b" d="M383.01,108.842a24.911,24.911,0,0,0-4.307-8.7l-8.7,8.7Z" transform="translate(-324.812 -88.989)"/><path class="b" d="M8.819,322.784a24.912,24.912,0,0,0,4.307,8.7l8.7-8.7Z" transform="translate(-8.819 -284.438)"/><path class="b" d="M331.481,13.126a24.91,24.91,0,0,0-8.7-4.307V21.825Z" transform="translate(-284.436 -8.819)"/><path class="b" d="M100.142,378.7a24.912,24.912,0,0,0,8.7,4.307V370.005Z" transform="translate(-88.988 -324.812)"/><path class="b" d="M108.841,8.819a24.911,24.911,0,0,0-8.7,4.307l8.7,8.7Z" transform="translate(-88.988 -8.819)"/><path class="b" d="M322.783,383.01a24.912,24.912,0,0,0,8.7-4.307l-8.7-8.7Z" transform="translate(-284.437 -324.812)"/><path class="b" d="M370.005,322.784l8.7,8.7a24.91,24.91,0,0,0,4.307-8.7Z" transform="translate(-324.812 -284.438)"/></g><path class="c" d="M59.668,26.053h-25.8V.254a30.236,30.236,0,0,0-7.816,0v25.8H.254a30.236,30.236,0,0,0,0,7.816h25.8v25.8a30.236,30.236,0,0,0,7.816,0v-25.8h25.8a30.236,30.236,0,0,0,0-7.816Z"/><path class="c" d="M322.783,322.783h0l11.156,11.156q.77-.769,1.47-1.6l-9.551-9.551h-3.074Z" transform="translate(-281.34 -281.34)"/><path class="c" d="M86.136,322.784h0L74.98,333.94q.769.77,1.6,1.47l9.551-9.551Z" transform="translate(-67.658 -281.341)"/><path class="c" d="M72.558,86.136h0L61.4,74.98q-.77.769-1.47,1.6l9.551,9.551h3.074Z" transform="translate(-54.08 -67.658)"/><path class="c" d="M322.783,72.559h0L333.939,61.4q-.769-.77-1.6-1.469l-9.551,9.551Z" transform="translate(-281.34 -54.081)"/></svg>