<?xml version="1.0" encoding="utf-8"?>
<!-- Generator: Adobe Illustrator 22.1.0, SVG Export Plug-In . SVG Version: 6.00 Build 0)  -->
<svg version="1.1" id="Layer_1" xmlns="http://www.w3.org/2000/svg" xmlns:xlink="http://www.w3.org/1999/xlink" x="0px" y="0px"
	 viewBox="0 0 60 60" style="enable-background:new 0 0 60 60;" xml:space="preserve">
<style type="text/css">
	.st0{clip-path:url(#SVGID_2_);fill:#FFFFFF;}
	.st1{clip-path:url(#SVGID_2_);fill:#204295;}
	.st2{clip-path:url(#SVGID_2_);fill:#FDD21A;}
	.st3{clip-path:url(#SVGID_2_);fill:#7B4111;}
</style>
<g id="XMLID_1_">
	<g>
		<defs>
			<path id="SVGID_1_" d="M59,60H0.9999695C0.4477234,60,0,59.5526733,0,59V0.9999695c0-0.5522461,0.4477234-1,0.9999695-1H59
				c0.5526886,0,0.9999847,0.4477539,0.9999847,1V59C59.9999847,59.5526733,59.5526886,60,59,60L59,60z"/>
		</defs>
		<clipPath id="SVGID_2_">
			<use xlink:href="#SVGID_1_"  style="overflow:visible;"/>
		</clipPath>
		<polygon class="st0" points="0,-0.0000305 89.9999847,-0.0000305 89.9999847,60 0,60 0,-0.0000305 		"/>
		<polygon class="st1" points="33.3329773,6.6664734 89.9999847,6.6664734 89.9999847,13.3334961 33.3329773,13.3334961 
			33.3329773,6.6664734 		"/>
		<polygon class="st1" points="33.3329773,20 89.9999847,20 89.9999847,26.6664734 33.3329773,26.6664734 33.3329773,20 		"/>
		<polygon class="st1" points="0,33.3329773 89.9999847,33.3329773 89.9999847,39.9999695 0,39.9999695 0,33.3329773 		"/>
		<polygon class="st1" points="0,46.6669617 89.9999847,46.6669617 89.9999847,53.3329773 0,53.3329773 0,46.6669617 		"/>
		<path class="st2" d="M15.9120789,19.9257812l1.1029968,1.6478882c-4.5340881,3.281311-1.7655945,5.2217102-4.9790039,6.2720032
			c1.9986267-1.9501953-0.2640686-2.2510071,1.4200439-6.3163757"/>
		<path class="st3" d="M11.9262695,27.9120789l0.0892944-0.0874023c0.9942322-0.969696,0.9239197-1.519989,0.8179321-2.3529968
			c-0.1035156-0.8119812-0.2451172-1.9237976,0.5951843-3.9530945l0.0112305-0.0274048l0.053772,0.0224915l-0.0108032,0.026825
			c-0.8349915,2.0151978-0.6942749,3.1181946-0.5917969,3.9238892c0.105011,0.824707,0.1758118,1.3778992-0.7456055,2.3134155
			c1.3936157-0.487793,1.5703125-1.1552124,1.8120117-2.0703125c0.2837219-1.074707,0.637207-2.4111023,3.0180969-4.1411133
			l-1.1039734-1.6483765l0.0482788-0.0323181l1.1353149,1.6949158l-0.0230103,0.016571
			c-2.3843079,1.7256165-2.7358093,3.0561218-3.0185242,4.125c-0.2529602,0.9580078-0.4360657,1.6504211-1.9682617,2.1513062
			L11.9262695,27.9120789L11.9262695,27.9120789z"/>
		<path class="st2" d="M13.8280945,18.4374695l-0.3847046,1.9453125c-5.5264282-0.8857117-4.9409485,2.4438782-7.9555969,0.9145813
			c2.7919922,0.0337219,1.4677734-1.8036804,5.5331726-3.4872742"/>
		<path class="st3" d="M6.8945007,21.7357788c-0.3852539,0-0.8344421-0.1161804-1.4198914-0.4129944l-0.1094055-0.0556946
			l0.1225891,0.0014954c1.394989,0.0151062,1.7456055-0.4288025,2.2788086-1.1040039
			c0.5146484-0.6508789,1.219696-1.542511,3.2431946-2.3808899l0.0263062-0.0112l0.0220032,0.0531921l-0.0263977,0.0107117
			c-2.0102539,0.832489-2.7094421,1.7177734-3.2202148,2.3637695c-0.5087585,0.6440125-0.8808289,1.1143188-2.2011414,1.1260071
			c1.3320312,0.6420898,1.9296875,0.2944031,2.7480469-0.1821899c0.9604187-0.5589905,2.155304-1.2539062,5.0625-0.793396
			l0.3847961-1.9463196l0.0560913,0.0107117l-0.3954773,2.0005188l-0.0273132-0.0043945
			c-2.9067993-0.4663391-4.0962219,0.2260742-5.0518188,0.7822571C7.8793945,21.4887695,7.4550781,21.7357788,6.8945007,21.7357788
			L6.8945007,21.7357788z"/>
		<path class="st3" d="M13.8285828,18.4379578l-0.870575-0.1566772l0.0087891,0.035614
			c-2.3228149,0.5693054-3.5839844,1.532196-4.5722961,2.2641907c-0.4941101,0.3661804-0.9203796,0.6772156-1.3828125,0.8457031
			c-0.3061523,0.1131897-0.6347351,0.1528015-0.9594727,0.1156921c2.3979797,0.8515015,2.2392883-1.9844055,7.391571-1.1586914
			L13.8285828,18.4379578L13.8285828,18.4379578z"/>
		<path class="st3" d="M6.159668,21.5648804c0.9702148,0.3106079,1.5185242-0.007782,2.206543-0.4076843
			c0.9604492-0.5581055,2.1552734-1.2524109,5.0673828-0.7881165l0.3793945-1.9208679l-0.8379211-0.1508484l0.0073242,0.0292969
			l-0.0126953,0.0028992c-2.2655945,0.5557251-3.5029297,1.473114-4.4970398,2.210022l-0.0703125,0.0522156
			c-0.467804,0.3461914-0.9101868,0.6737976-1.386261,0.847168C6.7436218,21.539978,6.4501953,21.5829773,6.159668,21.5648804
			L6.159668,21.5648804z M6.8920898,21.7162781c-0.2485657,0-0.5239258-0.0477905-0.8442688-0.1615906l-0.1073914-0.0386047
			l0.1132507,0.0132141C6.375,21.5663757,6.7045898,21.526886,7.0072937,21.4145813
			c0.4726868-0.1723938,0.9131165-0.4985962,1.3798828-0.843811l0.0698547-0.0517883
			c0.9941406-0.7373047,2.2314453-1.6547241,4.4941711-2.2113953l-0.0108032-0.0429993l0.9033813,0.1631165l-0.3897095,1.9706726
			l-0.0121765-0.0019226c-2.9116211-0.4662781-4.1044922,0.226532-5.0625305,0.7832336
			C7.8808594,21.4691772,7.4555359,21.7162781,6.8920898,21.7162781L6.8920898,21.7162781z"/>
		<path class="st3" d="M6.2968445,21.4784851c-0.2499695,0-0.5180359-0.0483093-0.8188477-0.1542969l0.019043-0.0541992
			c1.1748047,0.4154968,1.8540344-0.0878906,2.8823242-0.8506165c0.9536438-0.7070007,2.2593079-1.6752625,4.5542297-2.2367859
			l0.0136719,0.0552063c-2.2836914,0.559082-3.53125,1.484375-4.5337219,2.2275085
			C7.6308594,21.0458984,7.0473633,21.4784851,6.2968445,21.4784851L6.2968445,21.4784851z"/>
		<polyline class="st2" points="16.6664734,16.6664734 15.1107788,15.1107788 8.1108398,25.2226868 18.222168,18.222168 
			16.6664734,16.6664734 8.1108398,25.2226868 		"/>
		<path class="st3" d="M15.1151733,15.1562805l-6.7968445,9.8178101l8.3071594-8.3076172L15.1151733,15.1562805
			L15.1151733,15.1562805z M16.6664734,16.7079773L8.359375,25.0151062l9.8178101-6.7968445L16.6664734,16.7079773
			L16.6664734,16.7079773z M7.9956055,25.3378906l7.1112976-10.2720337l3.160675,3.1607361L18.2388,18.2460632L7.9956055,25.3378906
			L7.9956055,25.3378906z"/>
		<path class="st2" d="M13.4071655,15.9120789l-1.6473694,1.1034851c-3.2812805-4.5341797-5.2217102-1.7660828-6.2720032-4.9794922
			c1.9501648,1.9985962,2.2695007-0.2601929,6.335022,1.4234314"/>
		<path class="st3" d="M11.7528992,17.0546875l-0.0166016-0.0224915c-1.7255859-2.3847046-3.0561523-2.7362976-4.1249695-3.0190125
			c-0.9580078-0.2528992-1.6499329-0.4360962-2.1509094-1.9682922l-0.0380859-0.1167297l0.085968,0.0879211
			c0.9707031,0.9945984,1.5249023,0.925293,2.3642578,0.8197937c0.8154297-0.1025085,1.9325867-0.243103,3.9609375,0.5971985
			l0.0263977,0.0112l-0.0220032,0.0527954l-0.0263977-0.0112915c-2.0141296-0.8338928-3.1225586-0.6948242-3.9320984-0.5932007
			c-0.8305664,0.1044922-1.3877258,0.1743164-2.3252258-0.7489929c0.487793,1.3959961,1.1562805,1.5722046,2.0718079,1.8143921
			c1.0742188,0.2842102,2.410614,0.637207,4.1405945,3.0186157l1.6484375-1.1040039l0.0317688,0.0472717L11.7528992,17.0546875
			L11.7528992,17.0546875z"/>
		<path class="st3" d="M13.4071655,15.9120789l-0.5048828-0.726593l-0.0189819,0.0317993
			c-2.0448914-1.2398071-3.6176758-1.4507141-4.8339844-1.631897c-0.6079102-0.0907898-1.1293945-0.1723022-1.5756836-0.3798218
			c-0.2969055-0.1362915-0.5571289-0.3408813-0.7597961-0.5966797c1.0932922,2.2977905,2.9863586,0.1802063,6.0454407,4.407196
			L13.4071655,15.9120789L13.4071655,15.9120789z"/>
		<path class="st3" d="M5.7734375,12.7006836c0.4662781,0.9057007,1.0795898,1.0679016,1.8486328,1.2720032
			c1.0737305,0.2845764,2.4096069,0.638092,4.140625,3.0258179l1.6264954-1.0898132l-0.4859009-0.6992188l-0.0155945,0.0259094
			l-0.0112-0.0069275c-1.9947205-1.2094727-3.5181274-1.4354858-4.7427368-1.6171875l-0.085907-0.0126648
			c-0.5762024-0.0859375-1.1201172-0.1674194-1.5796204-0.3813477C6.2041016,13.0961914,5.9657898,12.918457,5.7734375,12.7006836
			L5.7734375,12.7006836z M11.7562866,17.0336914l-0.0073242-0.0098267
			c-1.7289734-2.3890991-3.062439-2.7421875-4.1332397-3.0262756c-0.8027344-0.2124023-1.4370117-0.3804321-1.9136047-1.3833008
			L5.652832,12.5111694l0.0708008,0.089386c0.2006836,0.253418,0.4618835,0.4585266,0.7553711,0.5932312
			c0.4560547,0.2124939,0.9985046,0.2929688,1.5722656,0.3789978l0.0864258,0.0126038
			c1.2241211,0.1817017,2.7476196,0.4078064,4.7412109,1.6142883l0.0229797-0.0380859l0.523407,0.7543945L11.7562866,17.0336914
			L11.7562866,17.0336914z"/>
		<path class="st3" d="M12.925293,15.1474915c-2.0098267-1.2192993-3.5458984-1.4473267-4.7802734-1.6304016
			c-1.284668-0.1908875-2.1333008-0.3168945-2.683136-1.468811l0.0517883-0.0243835
			c0.5366211,1.1244812,1.3730469,1.2485962,2.6396484,1.4364929c1.1738281,0.1743774,2.7817688,0.4125977,4.8017883,1.6382141
			L12.925293,15.1474915L12.925293,15.1474915z"/>
		<polyline class="st2" points="16.6664734,16.6664734 16.6664734,14.4667664 4.5664062,16.6664734 16.6664734,18.8666687 
			16.6664734,16.6664734 4.5664062,16.6664734 		"/>
		<path class="st3" d="M4.8832703,16.6381836h11.7549133v-2.137207L4.8832703,16.6381836L4.8832703,16.6381836z
			 M4.8832703,16.695282l11.7549133,2.137207v-2.137207H4.8832703L4.8832703,16.695282z M16.695282,18.9008789l-0.0336914-0.0058899
			L4.4067383,16.6664734l12.2885437-2.2338867V18.9008789L16.695282,18.9008789z"/>
		<polyline class="st3" points="16.6664734,16.6664734 16.6664734,18.8666687 16.6664734,16.6664734 4.5664062,16.6664734 
			16.6664734,18.8666687 		"/>
		<path class="st2" d="M14.8954773,13.8285828l-1.9453125-0.3851929c0.8862-5.5264282-2.4433899-4.9409485-0.914093-7.9555969
			c-0.0340881,2.7919922,1.897522,1.6913757,3.581604,5.7562866"/>
		<path class="st3" d="M14.9179993,13.8617554l-2.0000305-0.3954773l0.0039368-0.0272827
			c0.4662781-2.9068298-0.2261047-4.0962524-0.7823181-5.0518188c-0.4979858-0.8559265-0.8583069-1.4750977-0.1289062-2.9125671
			l0.0556946-0.1094055l-0.0014954,0.1230469c-0.0169983,1.4052734,0.4551086,1.8037109,1.1700134,2.4067383
			c0.7030945,0.59375,1.5780945,1.3320312,2.4090881,3.3383789l0.0108032,0.0263977l-0.0526733,0.0219116l-0.0108337-0.0263062
			c-0.8256836-1.9936829-1.6947937-2.7270813-2.3934937-3.3164368c-0.6806946-0.5746765-1.1777954-0.9941406-1.1904907-2.3286133
			c-0.6421204,1.3320618-0.2944031,1.929718,0.1817017,2.7480469c0.5589905,0.9609375,1.2543945,2.1553345,0.7939148,5.0625
			l1.9462585,0.3848267L14.9179993,13.8617554L14.9179993,13.8617554z"/>
		<path class="st3" d="M14.8954773,13.8285828l0.1567078-0.8706055l-0.0360718,0.0087891
			c-0.5693359-2.3227844-1.5322266-3.5839539-2.2641296-4.5717773c-0.3658142-0.4945984-0.6767883-0.9208679-0.8453064-1.3833008
			c-0.1137085-0.3061523-0.1532898-0.6347351-0.1156921-0.9594727c-0.8514709,2.3979797,1.9844055,2.2392883,1.1586914,7.391571
			L14.8954773,13.8285828L14.8954773,13.8285828z"/>
		<path class="st3" d="M12.964386,13.4335938l1.9204102,0.3793945l0.1507874-0.8379211l-0.0288086,0.0073242l-0.0033875-0.0127258
			c-0.5552063-2.265564-1.4725952-3.5028992-2.2098999-4.4970398l-0.0517883-0.0703125
			c-0.3467102-0.4677734-0.6737976-0.9101562-0.8471985-1.3862305c-0.1010132-0.2719727-0.1440125-0.5658875-0.125885-0.8564453
			C11.457489,7.1298828,11.7763977,7.6781921,12.1763,8.3662109C12.7344055,9.3266296,13.4286804,10.5214844,12.964386,13.4335938
			L12.964386,13.4335938z M14.9057922,13.8437805l-1.9711914-0.3897095l0.0018921-0.0121765
			c0.4667969-2.9116211-0.2261047-4.1044922-0.7826843-5.0625305c-0.4170227-0.7177429-0.7466125-1.2851562-0.375-2.331543
			l0.0380859-0.1073914l-0.0131836,0.1132507c-0.0371399,0.3212891,0.0028992,0.6508789,0.1151733,0.9536133
			c0.1723938,0.4726868,0.4986267,0.9130859,0.8437805,1.3798828l0.0518494,0.0698547
			c0.7372742,0.9941101,1.6542664,2.230957,2.2113647,4.4941711l0.042511-0.0108337L14.9057922,13.8437805L14.9057922,13.8437805z"
			/>
		<path class="st3" d="M15.0951843,12.9472656c-0.559082-2.2836914-1.4838867-3.5312805-2.2269897-4.5337219
			c-0.7735291-1.0429688-1.284729-1.7319031-0.8589172-2.9355469l0.0537109,0.019043
			c-0.4154968,1.1748047,0.0884094,1.8540344,0.8511047,2.8828125c0.7070007,0.9531555,1.675293,2.2588196,2.2368164,4.5537415
			L15.0951843,12.9472656L15.0951843,12.9472656z"/>
		<polyline class="st2" points="16.6664734,16.6664734 18.222168,15.1107788 8.1108398,8.1108093 15.1107788,18.222168 
			16.6664734,16.6664734 8.1108398,8.1108093 		"/>
		<path class="st3" d="M8.35495,8.3144226l8.3115234,8.3120728l1.5112305-1.511322L8.35495,8.3144226L8.35495,8.3144226z
			 M8.3144531,8.35495l6.8007202,9.8227539l1.5108337-1.5112305L8.3144531,8.35495L8.3144531,8.35495z M15.1069031,18.266571
			l-7.109375-10.269043l10.2690735,7.1093445L15.1069031,18.266571L15.1069031,18.266571z"/>
		<polyline class="st3" points="16.6664734,16.6664734 15.1107788,18.222168 16.6664734,16.6664734 8.1108398,8.1108093 
			15.1107788,18.222168 		"/>
		<path class="st2" d="M17.4213867,13.4071655l-1.1035156-1.6473999c4.5342407-3.2812805,1.7661133-5.2216797,4.9790039-6.2719727
			c-1.9981079,1.9501648,0.2528992,2.2719727-1.4312134,6.3368835"/>
		<path class="st3" d="M17.4135742,13.4472656l-1.1347656-1.6943665L16.3013,11.7362671
			c2.3847046-1.7255859,2.7362976-3.0561218,3.0184937-4.1249695c0.253418-0.9580078,0.4360962-1.6499023,1.9682922-2.1508789
			l0.1166992-0.0380859l-0.0878906,0.085968c-0.9950867,0.9711914-0.9268188,1.5263672-0.8232117,2.3666687
			c0.1005249,0.815918,0.2382202,1.9335938-0.601593,3.960907l-0.0108032,0.0263977l-0.0527039-0.0220032l0.0108032-0.0263062
			c0.8339233-2.0132141,0.6972046-3.1221008,0.5975952-3.9321594c-0.1025085-0.831543-0.1714172-1.3896484,0.7528992-2.3276367
			c-1.3959961,0.487793-1.5726929,1.15625-1.8143921,2.0717773c-0.2841797,1.0742493-0.6371765,2.4106445-3.0185852,4.140625
			l1.1040039,1.648407L17.4135742,13.4472656L17.4135742,13.4472656z"/>
		<path class="st3" d="M17.4208679,13.4071655l0.7266235-0.5048828l-0.0317993-0.0190125
			c1.2402954-2.0448914,1.4512024-3.6176453,1.631897-4.8334961c0.0908203-0.6083984,0.1723022-1.1298828,0.3802795-1.5761414
			c0.136322-0.2964172,0.3409119-0.5571594,0.5967407-0.7597961c-2.297821,1.0932617-0.1802063,2.9863586-4.4072266,6.0454407
			L17.4208679,13.4071655L17.4208679,13.4071655z"/>
		<path class="st3" d="M16.3349915,11.7626648l1.0892944,1.6265259l0.6992188-0.4859009l-0.0254211-0.015625l0.0064087-0.0106812
			c1.2095032-1.9947205,1.4359741-3.5186157,1.6176758-4.7427368l0.0127258-0.0864258
			c0.085907-0.5761719,0.1669922-1.1200867,0.3812866-1.5795898c0.1210938-0.2641296,0.2984009-0.5019531,0.5161133-0.6943359
			c-0.9051819,0.4658203-1.0677795,1.0791321-1.2714844,1.848175C19.0761719,8.6958008,18.7221985,10.0316772,16.3349915,11.7626648
			L16.3349915,11.7626648z M17.4174805,13.4252625l-1.1181946-1.6689758l0.0103149-0.0073242
			c2.3890991-1.7289734,2.7421875-3.0619507,3.0257874-4.1332703c0.2129211-0.8027344,0.3808899-1.4364929,1.3834229-1.9135742
			l0.1034546-0.0493164l-0.0898743,0.0712891c-0.2528992,0.2006836-0.4580078,0.4614258-0.592804,0.7554016
			c-0.2124023,0.4560242-0.293396,0.9980164-0.3788757,1.5722351l-0.0127258,0.0864258
			c-0.1820984,1.2241211-0.4082031,2.7471313-1.6141968,4.7407227l0.0375977,0.0230103L17.4174805,13.4252625L17.4174805,13.4252625
			z"/>
		<path class="st3" d="M18.2344055,12.9550781l-0.0489197-0.0292969c1.2198181-2.0103149,1.4478149-3.5464172,1.6309204-4.7807617
			c0.1903992-1.284668,0.3164062-2.1333313,1.4682922-2.683136l0.0249023,0.0517578
			c-1.1245117,0.5366516-1.2485962,1.3730774-1.436615,2.6396484C19.6986694,9.3271484,19.4599915,10.9350586,18.2344055,12.9550781
			L18.2344055,12.9550781z"/>
		<polyline class="st2" points="16.6664734,16.6664734 18.8666687,16.6664734 16.6664734,4.566864 14.4667969,16.6664734 
			16.6664734,16.6664734 16.6664734,4.566864 		"/>
		<path class="st3" d="M14.5009766,16.6381836h2.137207V4.8837585L14.5009766,16.6381836L14.5009766,16.6381836z
			 M16.695282,16.6381836h2.137207l-2.137207-11.754425V16.6381836L16.695282,16.6381836z M18.9009094,16.695282h-4.4683228
			l0.0058899-0.0336914l2.2279968-12.2548523L18.9009094,16.695282L18.9009094,16.695282z"/>
		<polyline class="st3" points="16.6664734,16.6664734 14.4667969,16.6664734 16.6664734,16.6664734 16.6664734,4.566864 
			14.4667969,16.6664734 		"/>
		<path class="st2" d="M19.5048828,14.8954773l0.3847046-1.9453125c5.5263977,0.8862,4.9414978-2.4433899,7.9560852-0.914093
			c-2.7924805-0.0340881-1.5482788,1.8125-5.6132812,3.4966125"/>
		<path class="st3" d="M22.2167664,15.5697632l-0.0220032-0.0527039l0.0264282-0.0107727
			c2.0018921-0.8291016,2.7250977-1.7142944,3.2533875-2.3602905c0.5322266-0.6514282,0.9213867-1.1270142,2.2485046-1.1387329
			c-1.332489-0.6420898-1.9295959-0.2944031-2.7485046,0.1822205c-0.9603882,0.5585022-2.1552734,1.2539062-5.0620117,0.793396
			l-0.3852844,1.9462891l-0.0560913-0.0112l0.3959961-2l0.0273132,0.004425
			c2.9062805,0.4657898,4.0956726-0.2266235,5.0512695-0.7828064c0.8564148-0.4979858,1.4750977-0.8579102,2.9126282-0.1289062
			l0.109375,0.0556946l-0.1225891-0.0014954c-0.0254211-0.0003967-0.0508118-0.0003967-0.0756836-0.0003967
			c-1.3369141,0-1.7026062,0.4472046-2.2509155,1.1175842c-0.5317993,0.6509094-1.2602844,1.542511-3.2753906,2.3770142
			L22.2167664,15.5697632L22.2167664,15.5697632z"/>
		<path class="st3" d="M19.5048828,14.8954773l0.8706055,0.1567078l-0.0088196-0.0361023
			c2.3228149-0.5688171,3.5840149-1.5322266,4.5718079-2.2637024c0.4941101-0.3662109,0.9204102-0.6771851,1.3828125-0.8457031
			c0.3066101-0.1137085,0.6351929-0.1532898,0.9595032-0.1156921c-2.3980103-0.8515015-2.2392883,1.984375-7.3912048,1.1586914
			L19.5048828,14.8954773L19.5048828,14.8954773z"/>
		<path class="st3" d="M19.519989,14.8847961l0.8378906,0.1512756l-0.0072937-0.0292969l0.0126953-0.0033875
			c2.265625-0.5552063,3.503418-1.4726257,4.4974976-2.2095032l0.0699158-0.0521851
			c0.4682007-0.3467102,0.910614-0.6737976,1.3862-0.847229c0.2724915-0.1010132,0.5664062-0.1439819,0.8563843-0.125885
			c-0.969696-0.3110962-1.5179749,0.0078125-2.2064819,0.4077148c-0.9605103,0.5581055-2.1553345,1.2523804-5.0668945,0.7880859
			L19.519989,14.8847961L19.519989,14.8847961z M20.3930664,15.0687866l-0.9033813-0.1629944l0.3897095-1.9707031
			l0.012207,0.0018921c2.9115906,0.4662781,4.1040039-0.226593,5.0625-0.7832031
			c0.717804-0.4169922,1.2846985-0.746582,2.3310852-0.375l0.1079102,0.0386047l-0.1138306-0.0131836
			c-0.320282-0.0371399-0.6503906,0.0023804-0.953064,0.1146851c-0.4727173,0.1723938-0.9131165,0.4985962-1.3799133,0.8437805
			l-0.070282,0.0518188c-0.9942322,0.7373047-2.2310181,1.6546936-4.4937134,2.2113953L20.3930664,15.0687866L20.3930664,15.0687866
			z"/>
		<path class="st3" d="M20.3999023,15.1508789L20.3862,15.0957031c2.2836914-0.5591125,3.5312805-1.484436,4.5336914-2.2275085
			c1.0429993-0.7735291,1.7319946-1.284729,2.9350891-0.8589172l-0.019104,0.0536804
			c-1.1742859-0.4154663-1.8534851,0.0884399-2.8822632,0.8511047
			C24.0004883,13.6210938,22.6947937,14.589386,20.3999023,15.1508789L20.3999023,15.1508789z"/>
		<polyline class="st2" points="16.6664734,16.6664734 18.222168,18.222168 25.2226868,8.1108093 15.1107788,15.1107788 
			16.6664734,16.6664734 25.2226868,8.1108093 		"/>
		<path class="st3" d="M15.155304,15.1151733l1.5111694,1.511322l8.3120117-8.3120728L15.155304,15.1151733L15.155304,15.1151733z
			 M16.7070007,16.6664734l1.5112915,1.5112305l6.800293-9.8227539L16.7070007,16.6664734L16.7070007,16.6664734z
			 M18.2261047,18.266571l-3.159729-3.1596985l10.2690125-7.1093445L18.2261047,18.266571L18.2261047,18.266571z"/>
		<polyline class="st3" points="16.6664734,16.6664734 15.1107788,15.1107788 16.6664734,16.6664734 25.2226868,8.1108093 
			15.1107788,15.1107788 		"/>
		<path class="st2" d="M19.9257812,17.4213562l1.6478882-1.1034851c3.281311,4.5342102,5.2217102,1.7661133,6.2720032,4.9794922
			c-1.9506836-1.9985962-2.3163757,0.2378235-6.3818054-1.4462891"/>
		<path class="st3" d="M27.9105835,21.4047852l-0.0853882-0.0878906c-0.9727173-0.9966125-1.5376282-0.9302063-2.3936157-0.8301086
			c-0.824707,0.0966797-1.9544678,0.2290039-3.9784851-0.6094055l-0.0263062-0.0106812L21.4487,19.8139954l0.0263977,0.0106812
			c2.0102844,0.8325195,3.1312866,0.7012024,3.9501953,0.6054993c0.815918-0.0957031,1.4125977-0.1655884,2.3540039,0.7597046
			c-0.487793-1.3959961-1.156311-1.5727234-2.0718079-1.8144226c-1.0746765-0.2841797-2.4111023-0.6371765-4.1411133-3.0185547
			l-1.6483765,1.1040039l-0.0318298-0.0473328l1.6944275-1.1347961l0.0160828,0.022522
			c1.7261047,2.3847046,3.0560913,2.7362976,4.1254883,3.0189819c0.9575195,0.2529297,1.6499329,0.4360046,2.1504211,1.967804
			L27.9105835,21.4047852L27.9105835,21.4047852z"/>
		<path class="st3" d="M19.9263,17.4208679l0.5043945,0.7266235l0.0189819-0.0317993
			c2.0454102,1.2402954,3.6182251,1.4512024,4.8340149,1.6322937c0.6083984,0.0909119,1.1298828,0.1719055,1.5757141,0.3798828
			c0.296875,0.136322,0.5570679,0.3409119,0.7601929,0.5967102c-1.0932312-2.2977905-2.9862976-0.1801758-6.045929-4.407196
			L19.9263,17.4208679L19.9263,17.4208679z"/>
		<path class="st3" d="M20.445282,18.0980835l0.0112,0.006897c1.9952087,1.2095032,3.5186157,1.4354858,4.7427063,1.6171875
			l0.0863953,0.0127258c0.5762024,0.0858765,1.1202087,0.1673889,1.5791016,0.3812866
			c0.2642212,0.1210938,0.5025024,0.2984009,0.6949158,0.5166016c-0.4663086-0.9057007-1.0791016-1.0682983-1.8486938-1.2719727
			c-1.0737-0.2846375-2.4091187-0.6386414-4.1401367-3.0258179l-1.6264954,1.0892944l0.4859314,0.6992188L20.445282,18.0980835
			L20.445282,18.0980835z M27.6806946,20.8222656l-0.0712891-0.0898743
			c-0.2007141-0.2528992-0.4619141-0.4580078-0.7554321-0.592804c-0.4560852-0.2124023-0.9979858-0.293396-1.5722656-0.3788757
			l-0.085907-0.0127258c-1.2246094-0.1816101-2.7476196-0.4076843-4.7416992-1.6141968l-0.0224915,0.0375671l-0.5239258-0.7538757
			l1.6694031-1.1182251l0.0074158,0.0103149c1.7289734,2.3891296,3.0619812,2.7421875,4.1332703,3.0258179
			c0.8027039,0.2129211,1.4365234,0.3808899,1.9135132,1.3833923L27.6806946,20.8222656L27.6806946,20.8222656z"/>
		<path class="st3" d="M27.8197632,21.3096008c-0.5365906-1.1245117-1.3734741-1.2485962-2.6395874-1.436615
			c-1.1742859-0.1743164-2.7822876-0.4129944-4.8022766-1.6386108l0.0297852-0.0488892
			c2.0103149,1.2198181,3.5463867,1.4477844,4.7807922,1.6308899c1.2846069,0.190918,2.1333008,0.3164062,2.6826172,1.4683228
			L27.8197632,21.3096008L27.8197632,21.3096008z"/>
		<polyline class="st2" points="16.6664734,16.6664734 16.6664734,18.8666687 28.7666016,16.6664734 16.6664734,14.4667664 
			16.6664734,16.6664734 28.7666016,16.6664734 		"/>
		<path class="st3" d="M16.695282,16.6381836h11.7543945l-11.7543945-2.137207V16.6381836L16.695282,16.6381836z
			 M16.695282,16.695282v2.137207l11.7543945-2.137207H16.695282L16.695282,16.695282z M16.6381836,18.9008789v-4.4682922
			l0.0337219,0.0058899L28.9263,16.6664734L16.6381836,18.9008789L16.6381836,18.9008789z"/>
		<polyline class="st3" points="16.6664734,16.6664734 16.6664734,14.4667664 16.6664734,16.6664734 28.7666016,16.6664734 
			16.6664734,14.4667664 		"/>
		<path class="st2" d="M18.4374695,19.5048828l1.9453125,0.3847046c-0.8856812,5.5263977,2.4439087,4.9414978,0.914093,7.9560852
			c0.0342407-2.7924805-1.8041687-1.4989929-3.487793-5.5639648"/>
		<path class="st3" d="M21.2670898,27.9682617l0.0014954-0.1230774c0.0169983-1.3950195-0.4306946-1.7539062-1.1080017-2.2973022
			c-0.6502686-0.5210266-1.5415039-1.2353821-2.3778992-3.2554016l-0.0112-0.0263977l0.0527039-0.0220032l0.0112,0.0263977
			c0.8311157,2.0068054,1.7153931,2.715332,2.3609009,3.2329102c0.6459961,0.5180664,1.1181946,0.8965149,1.1298828,2.219696
			c0.6421204-1.332489,0.2944031-1.9295959-0.1821899-2.7485046c-0.5589905-0.9603882-1.2539062-2.1552734-0.793396-5.0620117
			l-1.9462891-0.3852844l0.0106812-0.055603l2.0005188,0.3955078l-0.0043945,0.0273132
			c-0.4657898,2.9062805,0.2260742,4.0956726,0.7822876,5.0517578c0.4985046,0.8559265,0.8583984,1.4746094,0.1293945,2.9121094
			L21.2670898,27.9682617L21.2670898,27.9682617z"/>
		<path class="st3" d="M18.4379883,19.5048828l-0.1566772,0.8706055l0.0355835-0.0088196
			c0.5693054,2.3228149,1.532196,3.5840149,2.2642212,4.5718079c0.3656616,0.4941101,0.6771851,0.920929,0.8456726,1.3833008
			c0.1131897,0.3061218,0.1528015,0.6347046,0.1152039,0.9590149c0.8519897-2.3980103-1.9844055-2.2388-1.1582031-7.3912048
			L18.4379883,19.5048828L18.4379883,19.5048828z"/>
		<path class="st3" d="M18.3266907,20.3505859l0.0028992,0.0126953c0.5552063,2.2661133,1.4725952,3.5033875,2.2099915,4.4974976
			l0.0522156,0.0699158c0.3461914,0.4682007,0.6737976,0.9105835,0.847168,1.3862
			c0.1010132,0.2724915,0.144043,0.5664062,0.1259155,0.8563843c0.3106079-0.969696-0.0082703-1.5180054-0.4076843-2.2059937
			c-0.5581055-0.9605103-1.2524109-2.155304-0.7884827-5.0674133l-1.9205017-0.3798828l-0.1508179,0.8378906L18.3266907,20.3505859
			L18.3266907,20.3505859z M21.5160828,27.3930969l0.0132141-0.1138306
			c0.0370789-0.3208008-0.0024109-0.6503906-0.1146851-0.9530945c-0.1724243-0.4726868-0.4986267-0.9130859-0.843811-1.3799133
			l-0.0522156-0.070282c-0.736908-0.9942017-1.6542969-2.2309875-2.2109985-4.4936829l-0.0429993,0.0107727l0.1631165-0.9033813
			l1.9706726,0.389679l-0.0018921,0.0122375c-0.4667969,2.9115906,0.2261047,4.1044922,0.7832031,5.0625
			c0.4169922,0.717804,0.7466125,1.2846985,0.375,2.3310852L21.5160828,27.3930969L21.5160828,27.3930969z"/>
		<path class="st3" d="M21.3241882,27.8549805l-0.0541992-0.019104c0.4154968-1.1742859-0.0878906-1.8534851-0.8506165-2.8822937
			c-0.7069702-0.9530945-1.6752625-2.2587891-2.2372742-4.5536804L18.237793,20.3862
			c0.5591125,2.2836914,1.4838867,3.5312805,2.2275085,4.5336914C21.2388,25.9628601,21.75,26.651886,21.3241882,27.8549805
			L21.3241882,27.8549805z"/>
		<polyline class="st2" points="16.6664734,16.6664734 15.1107788,18.222168 25.2226868,25.2226868 18.222168,15.1107788 
			16.6664734,16.6664734 25.2226868,25.2226868 		"/>
		<path class="st3" d="M16.7070007,16.6664734l8.3115845,8.3120117l-6.800293-9.8232117L16.7070007,16.6664734
			L16.7070007,16.6664734z M15.155304,18.2182617l9.8231812,6.8007202l-8.3120117-8.3119812L15.155304,18.2182617
			L15.155304,18.2182617z M25.3353882,25.3353882L15.0663757,18.226593l3.159729-3.1602173L25.3353882,25.3353882
			L25.3353882,25.3353882z"/>
		<polyline class="st3" points="16.6664734,16.6664734 18.222168,15.1107788 16.6664734,16.6664734 25.2226868,25.2226868 
			18.222168,15.1107788 		"/>
		<path class="st3" d="M15.9120789,19.9262695l-0.726593,0.504425l0.0317993,0.0189819
			c-1.2397766,2.0454102-1.4506836,3.6182251-1.631897,4.8340149c-0.0907898,0.6083984-0.1723022,1.1298828-0.3797913,1.5756836
			c-0.1362915,0.2969055-0.3409119,0.5576172-0.5967102,0.7602234c2.2977905-1.0932312,0.1802063-2.9862976,4.407196-6.045929
			L15.9120789,19.9262695L15.9120789,19.9262695z"/>
		<path class="st3" d="M15.2099915,20.4301758l0.0258179,0.0151062l-0.0073242,0.0117188
			c-1.2095032,1.9946594-1.4354858,3.5180664-1.6171875,4.7426758l-0.0126953,0.085907
			c-0.0859375,0.5762024-0.1673889,1.1202087-0.3813171,1.5796204c-0.1206055,0.2636719-0.2979126,0.5014954-0.5151978,0.6933899
			c0.9042969-0.4657898,1.0664978-1.0786133,1.2701111-1.8476868c0.2845764-1.0737305,0.6385803-2.4096375,3.0257874-4.1401367
			l-1.0892944-1.6260071L15.2099915,20.4301758L15.2099915,20.4301758z M12.5092773,27.6815796l0.0913086-0.0722046
			c0.2528992-0.2007141,0.4580078-0.4618835,0.592804-0.7554016c0.2124023-0.4560852,0.293396-0.9980164,0.3789062-1.5722656
			l0.0126953-0.085907c0.1820984-1.2246094,0.4082031-2.7476196,1.6141968-4.7412109l-0.0380859-0.0229797l0.7543945-0.5239258
			l0.007782,0.0112l1.1109009,1.6582031l-0.0103149,0.0073853c-2.3890991,1.7290039-2.7421875,3.0620117-3.0258789,4.1333008
			c-0.2127991,0.8027039-0.3807983,1.4370117-1.3836975,1.9140015L12.5092773,27.6815796L12.5092773,27.6815796z"/>
		<path class="st3" d="M12.0487976,27.8721008l-0.0253906-0.0528259c1.1244812-0.5365906,1.2485962-1.3730164,1.4365845-2.6390991
			c0.1737976-1.1743164,0.4125977-2.7822876,1.638092-4.8022766l0.0498047,0.0302734
			c-1.2192078,2.0097961-1.4471741,3.5458984-1.6302795,4.780304
			C13.3266907,26.4730835,13.2006836,27.3222656,12.0487976,27.8721008L12.0487976,27.8721008z"/>
		<polyline class="st2" points="16.6664734,16.6664734 14.4667969,16.6664734 16.6664734,28.766571 18.8666687,16.6664734 
			16.6664734,16.6664734 16.6664734,28.766571 		"/>
		<path class="st3" d="M16.6957703,16.6957703v11.7480164l2.1357117-11.7480164H16.6957703L16.6957703,16.6957703z
			 M14.5014954,16.6957703l2.1362,11.7480164V16.6957703H14.5014954L14.5014954,16.6957703z M16.6664734,28.9291687
			l-2.2348633-12.2915039h4.4697876L16.6664734,28.9291687L16.6664734,28.9291687z"/>
		<polyline class="st3" points="16.6664734,16.6664734 18.8666687,16.6664734 16.6664734,16.6664734 16.6664734,28.766571 
			18.8666687,16.6664734 		"/>
		<polyline class="st3" points="16.6664734,16.6664734 18.222168,18.222168 16.6664734,16.6664734 8.1108398,25.2226868 
			18.222168,18.222168 		"/>
		<path class="st2" d="M16.6664734,12.6333008c2.2275085,0,4.0332336,1.8056641,4.0332336,4.0331726
			s-1.8057251,4.0332031-4.0332336,4.0332031c-2.227478,0-4.0331726-1.8056946-4.0331726-4.0332031
			S14.4389954,12.6333008,16.6664734,12.6333008L16.6664734,12.6333008z"/>
		<path class="st3" d="M16.6664734,12.6625977c-2.2079773,0-4.0038757,1.7958984-4.0038757,4.0038757
			c0,2.2080078,1.7958984,4.004425,4.0038757,4.004425c2.2080383,0,4.004425-1.7964172,4.004425-4.004425
			C20.6708984,14.4584961,18.8745117,12.6625977,16.6664734,12.6625977L16.6664734,12.6625977z M16.6664734,20.7289734
			c-2.2396851,0-4.0624695-1.8222656-4.0624695-4.0625c0-2.2396851,1.8227844-4.0624695,4.0624695-4.0624695
			c2.2402344,0,4.0625305,1.8227844,4.0625305,4.0624695C20.7290039,18.9067078,18.9067078,20.7289734,16.6664734,20.7289734
			L16.6664734,20.7289734z"/>
		<path class="st3" d="M18.5731812,15.3832703c0.256897,0.2201843,0.0367126,0.6968079-0.219696,0.6968079
			c-0.2567749,0-0.7333984-0.4400024-0.5137024-0.7333984 M19.6366882,15.0531921
			c-0.2567749,0.2934875-0.4032898-0.219696-1.320282-0.219696c-0.9165039,0-1.0630188,0.5497742-1.210022,0.4398804
			c-0.1463928-0.1098022,0.7700806-0.7700195,1.0635071-0.8066101
			C18.4633789,14.4301758,19.3066101,14.7230835,19.6366882,15.0531921"/>
		<path class="st3" d="M17.4730835,15.8231812c0.1470032-0.2197266,0.3300781,0.2203064,0.7333984,0.2203064
			c0.4034119,0,0.6235962-0.1098938,0.8798828-0.2935181c0.2569275-0.1831055-0.3666687,0.4399109-0.7699585,0.4399109
			C17.9130859,16.1898804,17.3632812,15.9701843,17.4730835,15.8231812 M17.3632812,15.7133789
			c0.0366211-0.4400024,0.4032898-0.5132141,0.9902039-0.5132141c0.5863953,0,0.8433228,0.4399109,1.0630188,0.5498047
			c-0.2562866,0-0.4766235-0.3666992-1.0630188-0.3666992c-0.5869141,0-0.5869141,0-0.9902039,0.3666992"/>
		<path class="st3" d="M14.6133118,15.3466797c-0.1836243,0.0732117-0.4766235,0.4398804,0,0.6968079
			C14.246582,15.7865601,14.5400085,15.4198914,14.6133118,15.3466797L14.6133118,15.3466797z"/>
		<path class="st3" d="M18.7201843,15.3466797c0.0733032,0.0732117,0.3667297,0.4398804,0,0.6968079
			C19.1968079,15.7865601,18.9032898,15.4198914,18.7201843,15.3466797L18.7201843,15.3466797z"/>
		<path class="st3" d="M16.0800781,16.9232788c-0.3300781,0.0733032-0.2201843,0.550293-0.5137024,0.5870056
			c-0.2929993,0.0365906-0.4398804,0.3666992-0.4032898,0.3294983c0.1835938-0.1463928,0.5869141-0.2563171,0.8804016-0.2563171
			c0.2929077,0,0.3666992,0.1831055,0.6229858,0.1831055c0.2568359,0,0.3301392-0.1831055,0.6235046-0.1831055
			c0.2934875,0,0.6968079,0.1099243,0.8799133,0.2563171c0.0365906,0.0372009-0.1098022-0.2929077-0.4033203-0.3294983
			c-0.2934875-0.0367126-0.1831055-0.5137024-0.5131836-0.5870056c0,0.1464844,0.1098938,0.1098938,0.1465149,0.3301086
			c0,0.1831055-0.3301086,0.1831055-0.4032898,0c0.0731812,0.2934875-0.1465149,0.2934875-0.3301392,0.2934875
			c-0.1831055,0-0.4032898,0-0.3300781-0.2934875c-0.0732117,0.1831055-0.4028015,0.1831055-0.4028015,0
			C15.9701843,17.0331726,16.0800781,17.0697632,16.0800781,16.9232788L16.0800781,16.9232788z"/>
		<path class="st3" d="M14.9433899,18.1698914C14.6499023,18.3900757,14.5766907,18.5,14.5400085,18.7567749
			c0.0878906-0.1538086,0.1308899-0.2171936,0.1977844-0.3075867c-0.0176086-0.0078125-0.0327148-0.0146179-0.0513-0.0223999
			c0.0214844,0.0023804,0.0405884,0.0057983,0.0610962,0.0086975C14.7919922,18.3754883,14.8315125,18.3237,14.9433899,18.1698914
			L14.9433899,18.1698914L14.9433899,18.1698914z"/>
		<path class="st3" d="M14.7475891,18.4354858c-0.0009766,0.0014954-0.0035095,0.0048828-0.0043945,0.0064087
			c0.0458984,0.0107117,0.0942078,0.0155945,0.1455078,0.0155945
			C14.8437805,18.4496765,14.7969055,18.4423828,14.7475891,18.4354858L14.7475891,18.4354858L14.7475891,18.4354858z"/>
		<path class="st3" d="M14.8887024,18.457489c0.2284851,0.0404968,0.4081726,0.0932922,0.5726929,0.1464844
			c0.2051086-0.0151062,0.4882812-0.0673828,1.2050781-0.0673828c0.7173157,0,1.0005188,0.0522766,1.2055969,0.0673828
			c0.1645203-0.0531921,0.3442078-0.1059875,0.5726929-0.1464844c-0.4042969,0.0014954-0.942749-0.2875977-1.1913757-0.2875977
			c-0.293396,0-0.3666992,0.0732727-0.5869141,0.0732727c-0.219696,0-0.2934875-0.0732727-0.5863953-0.0732727
			C15.8310852,18.1698914,15.2924805,18.4589844,14.8887024,18.457489L14.8887024,18.457489z"/>
		<path class="st3" d="M18.4447632,18.457489c0.0508118,0,0.0996094-0.0048828,0.1455383-0.0155945
			c-0.0009155-0.0015259-0.0039062-0.0049133-0.0049133-0.0064087
			C18.5365906,18.4423828,18.4896851,18.4496765,18.4447632,18.457489L18.4447632,18.457489L18.4447632,18.457489z"/>
		<path class="st3" d="M18.5853882,18.4354858c0.0205994-0.0028992,0.0395813-0.0063171,0.0610962-0.0086975
			c-0.0180969,0.007782-0.0332031,0.0145874-0.0513,0.0223999c0.066925,0.0903931,0.1103821,0.1537781,0.1983032,0.3075867
			C18.7567749,18.5,18.6835938,18.3900757,18.3900757,18.1698914C18.5019836,18.3237,18.5409851,18.3754883,18.5853882,18.4354858
			L18.5853882,18.4354858L18.5853882,18.4354858z"/>
		<path class="st3" d="M18.5951843,18.4491882c0-0.0009766-0.0014038-0.0024109-0.0014038-0.0024109
			c-0.3828735,0.1470032-0.5175781,0.1723022-0.7217102,0.157196c-0.3476868,0.1123047-0.6342773,0.2261047-1.2055969,0.2261047
			c-0.5707703,0-0.8573914-0.1138-1.2050781-0.2261047c-0.2041321,0.0151062-0.3388062-0.0101929-0.7217102-0.157196
			c-0.0003967,0.0005188-0.0014038,0.0019226-0.0018921,0.0024109c1.1517944,0.4956055,1.0259094,0.6743164,1.9286804,0.6743164
			C17.5693054,19.1235046,17.4433899,18.9447937,18.5951843,18.4491882L18.5951843,18.4491882L18.5951843,18.4491882z"/>
		<path class="st3" d="M14.7396851,18.4462891c0.0010071-0.0010071,0.0025024-0.0033875,0.0035095-0.0043945
			c-0.019104-0.004425-0.0386047-0.0088196-0.0567017-0.0151062C14.707489,18.4350586,14.7201843,18.4389648,14.7396851,18.4462891
			L14.7396851,18.4462891z"/>
		<path class="st3" d="M18.5937805,18.4462891c0.0195007-0.0073242,0.0317078-0.0112305,0.0527039-0.0195007
			c-0.0180969,0.0062866-0.0370789,0.0106812-0.0561829,0.0151062
			C18.5907898,18.4429016,18.5927734,18.445282,18.5937805,18.4462891L18.5937805,18.4462891L18.5937805,18.4462891z"/>
		<path class="st3" d="M14.7597961,15.3832703c-0.2564087,0.2201843-0.0367126,0.6968079,0.2201843,0.6968079
			c0.2568054,0,0.733429-0.4400024,0.5132141-0.7333984 M13.6967773,15.0531921
			c0.2563171,0.2934875,0.4032898-0.219696,1.3198242-0.219696c0.9165039,0,1.0634766,0.5497742,1.2099915,0.4398804
			c0.1468811-0.1098022-0.7701111-0.7700195-1.0635071-0.8066101C14.8700867,14.4301758,14.026886,14.7230835,13.6967773,15.0531921
			"/>
		<path class="st3" d="M15.8598938,15.8231812c-0.1464844-0.2197266-0.3301086,0.2203064-0.7333984,0.2203064
			c-0.4034119,0-0.6231079-0.1098938-0.8799133-0.2935181c-0.256897-0.1831055,0.3667297,0.4399109,0.7700195,0.4399109
			S15.969696,15.9701843,15.8598938,15.8231812 M15.969696,15.7133789
			c-0.0365906-0.4400024-0.4033203-0.5132141-0.9897156-0.5132141c-0.5869141,0-0.8432922,0.4399109-1.0634766,0.5498047
			c0.2567749,0,0.4765625-0.3666992,1.0634766-0.3666992c0.5863953,0,0.5863953,0,0.9897156,0.3666992"/>
		<path class="st3" d="M16.6664734,19.4530945c-0.1831055,0-0.6596985,0.1103821,0,0.1103821
			C17.3266907,19.5634766,16.8500977,19.4530945,16.6664734,19.4530945"/>
	</g>
</g>
</svg>
