<?xml version="1.0" encoding="utf-8"?>
<!-- Generator: Adobe Illustrator 22.1.0, SVG Export Plug-In . SVG Version: 6.00 Build 0)  -->
<svg version="1.1" id="Layer_1" xmlns="http://www.w3.org/2000/svg" xmlns:xlink="http://www.w3.org/1999/xlink" x="0px" y="0px"
	 viewBox="0 0 60 60" style="enable-background:new 0 0 60 60;" xml:space="preserve">
<style type="text/css">
	.st0{clip-path:url(#SVGID_2_);fill:#3DAB3E;}
	.st1{clip-path:url(#SVGID_2_);fill:#0099B5;}
	.st2{clip-path:url(#SVGID_2_);fill:#CE1327;}
	.st3{clip-path:url(#SVGID_2_);fill:#FFFFFF;}
</style>
<g id="XMLID_1_">
	<g>
		<defs>
			<path id="SVGID_1_" d="M59,60H0.9999695C0.4477234,60,0,59.5526733,0,59V0.9999695c0-0.5522461,0.4477234-1,0.9999695-1H59
				c0.5526886,0,0.9999847,0.4477539,0.9999847,1V59C59.9999847,59.5526733,59.5526886,60,59,60L59,60z"/>
		</defs>
		<clipPath id="SVGID_2_">
			<use xlink:href="#SVGID_1_"  style="overflow:visible;"/>
		</clipPath>
		<polygon class="st0" points="0,-0.0000305 120,-0.0000305 120,60 0,60 0,-0.0000305 		"/>
		<polygon class="st1" points="0,-0.0000305 120,-0.0000305 120,29.9999695 0,29.9999695 0,-0.0000305 		"/>
		<polygon class="st2" points="0,19.2001953 120,19.2001953 120,40.7997742 0,40.7997742 0,19.2001953 		"/>
		<polygon class="st3" points="0,20.3999023 120,20.3999023 120,39.5995789 0,39.5995789 0,20.3999023 		"/>
		<path class="st3" d="M16.7997742,2.3999023C20.7763977,2.3999023,24,5.6235046,24,9.6000671
			c0,3.9766235-3.2236023,7.199707-7.2002258,7.199707c-3.9760742,0-7.199707-3.2230835-7.199707-7.199707
			C9.6000671,5.6235046,12.8237,2.3999023,16.7997742,2.3999023L16.7997742,2.3999023z"/>
		<path class="st1" d="M19.2001953,2.3999023c3.9760742,0,7.199707,3.2236023,7.199707,7.2001648
			c0,3.9766235-3.2236328,7.199707-7.199707,7.199707C15.2235718,16.7997742,12,13.5766907,12,9.6000671
			C12,5.6235046,15.2235718,2.3999023,19.2001953,2.3999023L19.2001953,2.3999023z"/>
		<polygon class="st3" points="32.6395874,2.3999023 32.9628906,3.394989 34.0097961,3.394989 33.1630859,4.0097656 
			33.4862976,5.0048523 32.6395874,4.3901062 31.7938843,5.0048523 32.1229858,3.9921875 31.2704773,3.394989 32.3212891,3.394989 
			32.6395874,2.3999023 		"/>
		<polygon class="st3" points="38.4022827,2.3999023 38.726593,3.394989 39.7724915,3.394989 38.9257812,4.0097656 
			39.2489929,5.0048523 38.4022827,4.3901062 37.5565796,5.0048523 37.8856812,3.9921875 37.0331726,3.394989 38.0839844,3.394989 
			38.4022827,2.3999023 		"/>
		<polygon class="st3" points="44.1610718,2.3999023 44.4844055,3.394989 45.530304,3.394989 44.6835938,4.0097656 
			45.0067749,5.0048523 44.1610718,4.3901062 43.3144836,5.0048523 43.6436157,3.9921875 42.7909851,3.394989 43.8417969,3.394989 
			44.1610718,2.3999023 		"/>
		<polygon class="st3" points="32.6395874,8.1601257 32.9628906,9.1547546 34.0097961,9.1547546 33.1630859,9.769989 
			33.4862976,10.7650757 32.6395874,10.1498718 31.7938843,10.7650757 32.1229858,9.7519531 31.2704773,9.1547546 
			32.3212891,9.1547546 32.6395874,8.1601257 		"/>
		<polygon class="st3" points="38.4022827,8.1601257 38.726593,9.1547546 39.7724915,9.1547546 38.9257812,9.769989 
			39.2489929,10.7650757 38.4022827,10.1498718 37.5565796,10.7650757 37.8856812,9.7519531 37.0331726,9.1547546 
			38.0839844,9.1547546 38.4022827,8.1601257 		"/>
		<polygon class="st3" points="44.1610718,8.1601257 44.4844055,9.1547546 45.530304,9.1547546 44.6835938,9.769989 
			45.0067749,10.7650757 44.1610718,10.1498718 43.3144836,10.7650757 43.6436157,9.7519531 42.7909851,9.1547546 
			43.8417969,9.1547546 44.1610718,8.1601257 		"/>
		<polygon class="st3" points="32.6395874,13.9198914 32.9628906,14.914978 34.0097961,14.914978 33.1630859,15.5297852 
			33.4862976,16.5248718 32.6395874,15.9101868 31.7938843,16.5248718 32.1229858,15.5121765 31.2704773,14.914978 
			32.3212891,14.914978 32.6395874,13.9198914 		"/>
		<polygon class="st3" points="38.4022827,13.9198914 38.726593,14.914978 39.7724915,14.914978 38.9257812,15.5297852 
			39.2489929,16.5248718 38.4022827,15.9101868 37.5565796,16.5248718 37.8856812,15.5121765 37.0331726,14.914978 
			38.0839844,14.914978 38.4022827,13.9198914 		"/>
		<polygon class="st3" points="21.1187134,13.9198914 21.4418945,14.914978 22.4883118,14.914978 21.6416016,15.5297852 
			21.9647827,16.5248718 21.1187134,15.9101868 20.2720032,16.5248718 20.601593,15.5121765 19.7489929,14.914978 
			20.7997742,14.914978 21.1187134,13.9198914 		"/>
		<polygon class="st3" points="26.8812866,13.9198914 27.2045898,14.914978 28.2510071,14.914978 27.4042969,15.5297852 
			27.7279968,16.5248718 26.8812866,15.9101868 26.0351868,16.5248718 26.3642883,15.5121765 25.5116882,14.914978 
			26.5629883,14.914978 26.8812866,13.9198914 		"/>
		<polygon class="st3" points="26.8812866,8.1601257 27.2045898,9.1547546 28.2510071,9.1547546 27.4042969,9.769989 
			27.7279968,10.7650757 26.8812866,10.1498718 26.0351868,10.7650757 26.3642883,9.7519531 25.5116882,9.1547546 
			26.5629883,9.1547546 26.8812866,8.1601257 		"/>
		<polygon class="st3" points="44.1610718,13.9198914 44.4844055,14.914978 45.530304,14.914978 44.6835938,15.5297852 
			45.0067749,16.5248718 44.1610718,15.9101868 43.3144836,16.5248718 43.6436157,15.5121765 42.7909851,14.914978 
			43.8417969,14.914978 44.1610718,13.9198914 		"/>
	</g>
</g>
</svg>
