<?xml version="1.0" encoding="utf-8"?>
<!-- Generator: Adobe Illustrator 22.1.0, SVG Export Plug-In . SVG Version: 6.00 Build 0)  -->
<svg version="1.1" id="Layer_1" xmlns="http://www.w3.org/2000/svg" xmlns:xlink="http://www.w3.org/1999/xlink" x="0px" y="0px"
	 viewBox="0 0 60 60" style="enable-background:new 0 0 60 60;" xml:space="preserve">
<style type="text/css">
	.st0{clip-path:url(#SVGID_2_);fill:#009643;}
	.st1{clip-path:url(#SVGID_2_);fill:#D21036;}
	.st2{clip-path:url(#SVGID_5_);}
	.st3{clip-path:url(#SVGID_6_);fill:#020203;}
	.st4{clip-path:url(#SVGID_6_);fill:#FDCE16;}
	.st5{clip-path:url(#SVGID_8_);fill:#FDCE16;}
</style>
<g id="XMLID_1_">
	<g>
		<defs>
			<path id="SVGID_1_" d="M59,60H0.9999695C0.4477234,60,0,59.5526733,0,59V0.9999695c0-0.5522461,0.4477234-1,0.9999695-1H59
				c0.5526886,0,0.9999847,0.4477539,0.9999847,1V59C59.9999847,59.5526733,59.5526886,60,59,60L59,60z"/>
		</defs>
		<clipPath id="SVGID_2_">
			<use xlink:href="#SVGID_1_"  style="overflow:visible;"/>
		</clipPath>
		<polygon class="st0" points="0,-0.0000305 113.6849976,-0.0000305 113.6849976,60 0,60 0,-0.0000305 		"/>
		<polygon class="st1" points="0,-0.0000305 113.6849976,-0.0000305 113.6849976,29.9999695 0,29.9999695 0,-0.0000305 		"/>
	</g>
	<g>
		<defs>
			<polygon id="SVGID_3_" points="0,-0.0000305 0,60 53.0526733,35.3681641 113.6849976,35.3681641 113.6849976,24.6312866 
				53.0526733,24.6312866 0,-0.0000305 			"/>
		</defs>
		<defs>
			<path id="SVGID_4_" d="M59,60H0.9999695C0.4477234,60,0,59.5526733,0,59V0.9999695c0-0.5522461,0.4477234-1,0.9999695-1H59
				c0.5526886,0,0.9999847,0.4477539,0.9999847,1V59C59.9999847,59.5526733,59.5526886,60,59,60L59,60z"/>
		</defs>
		<clipPath id="SVGID_5_">
			<use xlink:href="#SVGID_3_"  style="overflow:visible;"/>
		</clipPath>
		<clipPath id="SVGID_6_" class="st2">
			<use xlink:href="#SVGID_4_"  style="overflow:visible;"/>
		</clipPath>
		<polyline class="st3" points="0,-0.0000305 53.0526733,24.6312866 113.6849976,24.6312866 113.6849976,35.3681641 
			53.0526733,35.3681641 0,60 		"/>
		<polygon class="st4" points="2.9257812,66.3017883 -2.9258118,53.6981812 48.1181641,29.9999695 -2.9258118,6.301239 
			2.9257812,-6.3012695 54.5868988,17.684082 120.6319885,17.684082 120.6319885,42.3153992 54.5868988,42.3153992 
			2.9257812,66.3017883 		"/>
		<path class="st3" d="M113.6849976,28.4208679h-61.469223L-1.5957336,3.4370117l3.1914368-6.874054l52.2938995,24.2793274
			h59.7953949V28.4208679L113.6849976,28.4208679z M1.5957031,63.4374695L-1.5957336,56.5625l53.8115082-24.983429h61.469223
			v7.5791016H53.8896027L1.5957031,63.4374695L1.5957031,63.4374695z"/>
	</g>
	<g>
		<defs>
			<path id="SVGID_7_" d="M59,60H0.9999695C0.4477234,60,0,59.5526733,0,59V0.9999695c0-0.5522461,0.4477234-1,0.9999695-1H59
				c0.5526886,0,0.9999847,0.4477539,0.9999847,1V59C59.9999847,59.5526733,59.5526886,60,59,60L59,60z"/>
		</defs>
		<clipPath id="SVGID_8_">
			<use xlink:href="#SVGID_7_"  style="overflow:visible;"/>
		</clipPath>
		<path class="st5" d="M13.4989929,35.7392578v3.4189148c2.9740906,0,8.8106079-2.2792969,8.8106079-9.6166992
			s-6.2256165-8.6991882-8.0879211-8.6991882c-1.8617859,0-7.6152344,1.3339844-7.6152344,7.3374023
			c0,6.0028992,5.6420288,6.5596008,6.7539368,6.5596008c1.1112976,0,5.2807007-1.0010071,4.808136-5.5035095
			c0,1.2783813-1.4454346,3.9742126-4.4747314,3.9742126c-3.0296936,0-4.9193726-2.2510071-4.9193726-4.4746094
			c0-2.2236938,1.8339844-5.1972961,5.0302734-5.1972961c3.1963196,0,5.5307007,2.8348999,5.5307007,5.6976929
			S17.0845032,35.7392578,13.4989929,35.7392578L13.4989929,35.7392578L13.4989929,35.7392578z"/>
		<path class="st5" d="M10.8935852,31.2890625l0.1771851,0.1142273c0,0,1.4067383-3.2098999,5.1904297-5.492218
			C15.7816772,26.1713867,13.2489624,27.4325867,10.8935852,31.2890625L10.8935852,31.2890625L10.8935852,31.2890625z"/>
		<path class="st5" d="M10.965271,31.2724915l0.0830078,0.0537109c0.0933228-0.1944275,0.4395142-0.878418,1.1000977-1.762207
			C11.684082,30.1591797,11.2896118,30.7445984,10.965271,31.2724915L10.965271,31.2724915z M11.0941772,31.4813843
			l-0.2723999-0.1756897l0.026825-0.0440063c1.0395813-1.7020874,2.8076782-4.0146179,5.328186-5.3652039l0.0589905-0.0317993
			l0.0523071,0.0914001c-3.7255859,2.2479858-5.1552734,5.4364929-5.1694031,5.468689L11.0941772,31.4813843L11.0941772,31.4813843z
			"/>
		<path class="st5" d="M11.2582703,30.7362671c0,0-0.4374695-0.8959656-0.0521545-1.2919922
			c0.3856812-0.3959961,0.2084656,1.0528259,0.2084656,1.0528259l0.1669006-0.2398376c0,0-0.2606812-1.0946655,0.031311-1.3237
			c0.2914734-0.2294617,0.1459961,1.0527039,0.1459961,1.0527039l0.1766968-0.2294617c0,0-0.1875-1.0630188,0.093811-1.2612305
			c0.2816772-0.1976929,0.1044922,1.0004883,0.1044922,1.0004883l0.2084961-0.2397766c0,0-0.1562805-1.0107117,0.1875-1.2503967
			c0.3441772-0.2398071,0.0415039,0.9588928,0.0415039,0.9588928l0.2294922-0.25c0,0-0.1040039-0.9277039,0.1875-1.1362
			c0.2920227-0.2084961,0.0420227,0.8754883,0.0420227,0.8754883l0.2084656-0.218689c0,0-0.0624695-0.8652954,0.2187195-1.0634766
			c0.281311-0.1978149,0.0205078,0.8236694,0.0205078,0.8236694l0.2192688-0.2084961c0,0-0.0522766-0.8652039,0.3022461-1.0317078
			c0.3539734-0.1669922-0.0625305,0.8125-0.0625305,0.8125l0.2398071-0.2079773c0,0,0.0726929-1.0112915,0.375-1.105011
			c0.3022156-0.0937805-0.1353149,0.8965149-0.1353149,0.8965149l0.2188416-0.1773071c0,0,0.1146851-0.8652039,0.4481812-0.9692078
			c0.3334961-0.1044922-0.2085266,0.7920227-0.2085266,0.7920227l0.2188416-0.1670227c0,0,0.2396545-0.8647766,0.5521851-0.9585266
			c0.3129883-0.09375-0.3228149,0.8130188-0.3228149,0.8130188l0.2085266-0.1459961c0,0,0.3437805-0.7817993,0.6249695-0.8340149
			c0.2818298-0.0522766-0.3125,0.6465149-0.3125,0.6465149l0.2608032-0.1567993c0,0,0.4477234-0.8128967,0.6045227-0.5625
			c0.1561584,0.2500305-0.6255188,0.6147766-0.6255188,0.6147766l-0.2607727,0.1460266c0,0,0.948761-0.4483032,1.0629578-0.2187805
			c0.1148376,0.2289734-1.3026733,0.375-1.3026733,0.375l-0.2290039,0.1562805c0,0,0.9482117-0.2602844,0.8334961-0.0205078
			c-0.1142883,0.2397156-1.0523071,0.1875-1.0523071,0.1875l-0.2191772,0.156189c0,0,0.9481812-0.2294617,0.8231812-0.0101929
			c-0.125,0.2187195-1.0522156,0.1976929-1.0522156,0.1976929l-0.2294617,0.1880188c0,0,0.9276733-0.2402039,0.7919617,0.0415039
			c-0.1352844,0.281311-1.1879883,0.2709961-1.1879883,0.2709961l-0.2607117,0.2397766c0,0,0.980011-0.3334656,0.8965149-0.0732727
			c-0.0834961,0.2607727-1.1987915,0.3964844-1.1987915,0.3964844l-0.2500305,0.2500305
			c0,0,1.0528259-0.3545227,0.7398071-0.0312195c-0.3124695,0.3232117-1.0732727,0.4062195-1.0732727,0.4062195
			l-0.3022156,0.3646851c0,0,1.0420227-0.6253967,0.8959961-0.2709045
			c-0.1454773,0.3544006-1.1669922,0.5941772-1.1669922,0.5941772l-0.2084961,0.2500305
			c0,0,0.9379883-0.5420227,0.8441772-0.2398071c-0.093689,0.3023071-1.0941772,0.6255188-1.0941772,0.6255188l-0.1670227,0.2294617
			c0,0,1.1050415-0.6566772,1.0112305-0.3231812c-0.093689,0.3334961-1.1465149,0.5732117-1.1465149,0.5732117l-0.1357117,0.2084961
			c0,0,1.0215149-0.5834961,1.0317383-0.3021851c0.0107727,0.281189-1.1982117,0.5629883-1.1982117,0.5629883L11.2582703,30.7362671
			L11.2582703,30.7362671L11.2582703,30.7362671z"/>
		<path class="st5" d="M16.8959961,31.2890625l-0.1772156,0.1142273c0,0-1.4073181-3.2098999-5.1904907-5.492218
			C12.007782,26.1713867,14.5404968,27.4325867,16.8959961,31.2890625L16.8959961,31.2890625L16.8959961,31.2890625z"/>
		<path class="st5" d="M15.6410828,29.5639954c0.6607056,0.8837891,1.0068054,1.5677795,1.1000977,1.762207l0.0830078-0.0537109
			C16.5,30.7445984,16.1054688,30.1591797,15.6410828,29.5639954L15.6410828,29.5639954z M16.695282,31.4813843
			l-0.0244141-0.0566101c-0.0141602-0.032196-1.445282-3.2216797-5.1698914-5.468689l0.0527039-0.0914001l0.0585938,0.0317993
			c2.5210266,1.3505859,4.2891235,3.6631165,5.3286133,5.3652039l0.0269165,0.0440063L16.695282,31.4813843L16.695282,31.4813843z"
			/>
		<path class="st5" d="M16.5312805,30.7362671c0,0,0.4375305-0.8959656,0.0522156-1.2919922
			c-0.3857117-0.3959961-0.2085266,1.0528259-0.2085266,1.0528259l-0.1669922-0.2398376c0,0,0.2608032-1.0946655-0.031189-1.3237
			c-0.2915039-0.2294617-0.1459961,1.0527039-0.1459961,1.0527039l-0.1773071-0.2294617
			c0,0,0.1880188-1.0630188-0.0937195-1.2612305c-0.2812805-0.1976929-0.1039734,1.0004883-0.1039734,1.0004883
			l-0.2084961-0.2397766c0,0,0.156189-1.0107117-0.1875-1.2503967c-0.3442993-0.2398071-0.0420227,0.9588928-0.0420227,0.9588928
			l-0.2289734-0.25c0,0,0.1040039-0.9277039-0.1879883-1.1362c-0.2915039-0.2084961-0.0415344,0.8754883-0.0415344,0.8754883
			l-0.2084961-0.218689c0,0,0.0625305-0.8652954-0.2187805-1.0634766c-0.281189-0.1978149-0.0210266,0.8236694-0.0210266,0.8236694
			l-0.218689-0.2084961c0,0,0.0522156-0.8652039-0.3022766-1.0317078c-0.3545227-0.1669922,0.0624695,0.8125,0.0624695,0.8125
			l-0.2396851-0.2079773c0,0-0.0728149-1.0112915-0.375-1.105011c-0.3023071-0.0937805,0.1351929,0.8965149,0.1351929,0.8965149
			l-0.218689-0.1773071c0,0-0.1147156-0.8652039-0.4481812-0.9692078c-0.3335266-0.1044922,0.2084656,0.7920227,0.2084656,0.7920227
			l-0.2187805-0.1670227c0,0-0.2397156-0.8647766-0.5521851-0.9585266c-0.3130188-0.09375,0.3226624,0.8130188,0.3226624,0.8130188
			l-0.2084656-0.1459961c0,0-0.3437195-0.7817993-0.6250305-0.8340149c-0.2816772-0.0522766,0.3125,0.6465149,0.3125,0.6465149
			l-0.2607117-0.1567993c0,0-0.4477844-0.8128967-0.6044617-0.5625c-0.156311,0.2500305,0.6254883,0.6147766,0.6254883,0.6147766
			l0.2607117,0.1460266c0,0-0.9487305-0.4483032-1.0635071-0.2187805c-0.1141968,0.2289734,1.3032837,0.375,1.3032837,0.375
			l0.2290039,0.1562805c0,0-0.9483032-0.2602844-0.8334961-0.0205078c0.1141968,0.2397156,1.0521851,0.1875,1.0521851,0.1875
			l0.2192078,0.156189c0,0-0.9487-0.2294617-0.8237-0.0101929c0.1254883,0.2187195,1.0527954,0.1976929,1.0527954,0.1976929
			l0.2294312,0.1880188c0,0-0.9277344-0.2402039-0.7919312,0.0415039c0.1351929,0.281311,1.1878967,0.2709961,1.1878967,0.2709961
			l0.2608032,0.2397766c0,0-0.9799805-0.3334656-0.8964844-0.0732727c0.0834961,0.2607727,1.1986694,0.3964844,1.1986694,0.3964844
			l0.2500305,0.2500305c0,0-1.0527039-0.3545227-0.7402039-0.0312195c0.3129883,0.3232117,1.0737,0.4062195,1.0737,0.4062195
			L15.1763,29.0687866c0,0-1.042511-0.6253967-0.8965149-0.2709045c0.1460266,0.3544006,1.167511,0.5941772,1.167511,0.5941772
			l0.2084961,0.2500305c0,0-0.9379883-0.5420227-0.8442993-0.2398071c0.093811,0.3023071,1.0942993,0.6255188,1.0942993,0.6255188
			l0.1669922,0.2294617c0,0-1.1049805-0.6566772-1.0112915-0.3231812c0.093811,0.3334961,1.1464844,0.5732117,1.1464844,0.5732117
			l0.1358032,0.2084961c0,0-1.0214844-0.5834961-1.0323181-0.3021851c-0.0101929,0.281189,1.1988525,0.5629883,1.1988525,0.5629883
			L16.5312805,30.7362671L16.5312805,30.7362671L16.5312805,30.7362671z"/>
	</g>
</g>
</svg>
