<?xml version="1.0" encoding="utf-8"?>
<!-- Generator: Adobe Illustrator 22.1.0, SVG Export Plug-In . SVG Version: 6.00 Build 0)  -->
<svg version="1.1" id="Layer_1" xmlns="http://www.w3.org/2000/svg" xmlns:xlink="http://www.w3.org/1999/xlink" x="0px" y="0px"
	 viewBox="0 0 60 60" style="enable-background:new 0 0 60 60;" xml:space="preserve">
<style type="text/css">
	.st0{clip-path:url(#SVGID_2_);fill:#020203;}
	.st1{clip-path:url(#SVGID_2_);fill:#037B3E;}
	.st2{clip-path:url(#SVGID_2_);fill:#FFFFFF;}
	.st3{clip-path:url(#SVGID_2_);fill:#C4171D;}
</style>
<g id="XMLID_1_">
	<g>
		<defs>
			<path id="SVGID_1_" d="M59,60H0.9999695C0.4477234,60,0,59.5526733,0,59V0.9999695c0-0.5522461,0.4477234-1,0.9999695-1H59
				c0.5526886,0,0.9999847,0.4477539,0.9999847,1V59C59.9999847,59.5526733,59.5526886,60,59,60L59,60z"/>
		</defs>
		<clipPath id="SVGID_2_">
			<use xlink:href="#SVGID_1_"  style="overflow:visible;"/>
		</clipPath>
		<polygon class="st0" points="-30,-0.0000305 89.9999847,-0.0000305 89.9999847,29.9999695 -30,29.9999695 -30,-0.0000305 		"/>
		<polygon class="st1" points="-30,29.9999695 89.9999847,29.9999695 89.9999847,60 -30,60 -30,29.9999695 		"/>
		<polygon class="st2" points="-30,20 89.9999847,20 89.9999847,39.9999695 -30,39.9999695 -30,20 		"/>
		<polygon class="st3" points="-30,-0.0000305 9.9999695,29.9999695 -30,60 -30,-0.0000305 		"/>
		<path class="st3" d="M30,21.9999695c4.4179993,0,8,3.5815125,8,8C38,34.4179688,34.4179993,38,30,38
			c-4.4185181,0-8.0000305-3.5820312-8.0000305-8.0000305C21.9999695,25.5814819,25.5814819,21.9999695,30,21.9999695L30,21.9999695
			z"/>
		<path class="st2" d="M33,21.9999695c4.4179993,0,8,3.5815125,8,8C41,34.4179688,37.4179993,38,33,38
			c-4.4185181,0-8.0000305-3.5820312-8.0000305-8.0000305C24.9999695,25.5814819,28.5814819,21.9999695,33,21.9999695L33,21.9999695
			z"/>
		<polygon class="st3" points="27.8525085,34.8437805 31.2636719,32.4052734 34.6483765,34.8808594 33.3837891,30.8832703 
			36.7831726,28.4291687 32.5907898,28.3969727 31.3075867,24.4047852 29.9809875,28.382782 25.7875977,28.3695984 
			29.1611023,30.8603821 27.8525085,34.8437805 27.8525085,34.8437805 		"/>
	</g>
</g>
</svg>
