<?xml version="1.0" encoding="utf-8"?>
<!-- Generator: Adobe Illustrator 22.1.0, SVG Export Plug-In . SVG Version: 6.00 Build 0)  -->
<svg version="1.1" id="Layer_1" xmlns="http://www.w3.org/2000/svg" xmlns:xlink="http://www.w3.org/1999/xlink" x="0px" y="0px"
	 viewBox="0 0 60 60" style="enable-background:new 0 0 60 60;" xml:space="preserve">
<style type="text/css">
	.st0{clip-path:url(#SVGID_2_);fill:#1D8B37;}
	.st1{clip-path:url(#SVGID_2_);fill:#DF2214;}
	.st2{clip-path:url(#SVGID_2_);fill:#F07E07;}
	.st3{clip-path:url(#SVGID_2_);fill:#020203;}
</style>
<g id="XMLID_1_">
	<g>
		<defs>
			<path id="SVGID_1_" d="M59,60H0.9999695C0.4477234,60,0,59.5526733,0,59V0.9999695c0-0.5522461,0.4477234-1,0.9999695-1H59
				c0.5526886,0,0.9999847,0.4477539,0.9999847,1V59C59.9999847,59.5526733,59.5526886,60,59,60L59,60z"/>
		</defs>
		<clipPath id="SVGID_2_">
			<use xlink:href="#SVGID_1_"  style="overflow:visible;"/>
		</clipPath>
		<polygon class="st0" points="-30,-0.0000305 59.9999847,-0.0000305 59.9999847,60 -30,60 -30,-0.0000305 		"/>
		<polygon class="st1" points="27.8569031,21.4286804 49.2861023,21.4286804 49.2861023,60 27.8569031,60 27.8569031,21.4286804 		
			"/>
		<polygon class="st2" points="38.5712891,21.4286804 59.9999847,21.4286804 59.9999847,60 38.5712891,60 38.5712891,21.4286804 		
			"/>
		<polygon class="st3" points="38.5712891,21.4286804 49.2861023,21.4286804 49.2861023,60 38.5712891,60 38.5712891,21.4286804 		
			"/>
		<path class="st2" d="M52.132782,7.214325c0,0,3.6856079-1.4443359,4.0429993-1.7421875
			c0.1620941,0.1787109-1.4775848,1.9951172-4.660202,2.6655579c2.8897095-0.6254883,5.3583984-2.5913086,5.8614044-2.5317688
			c0.1463928,0.0298157,0.113205,1.920929-6.510788,3.559082c4.5780945-1.1020203,7.2411804-3.1274414,7.2089844-2.9037781
			c0.032196,0.0444031-0.4550934,1.5932312-4.4647827,2.7997742c1.1200867-0.2382812,4.1562042-1.9360352,4.1240082-1.6083984
			c0.09758,0.1337891-2.9395294,3.7079773-8.4268188,2.5463867c4.3837891,1.0424805,7.2245941-1.4741211,7.6309052-1.4296875
			c0.0810089,0.0151672-0.8114929,2.204071-6.3321075,2.3383789c2.6464996-0.2533875,1.8829193-0.0151062,1.8829193-0.0151062
			s-1.5586243,1.1171875-3.4414215,0.3573914c1.4774933,0.3726196,1.6396027,0.387207,1.6717987,0.5063171
			c-0.0975952,0.1490173-1.3154144,0.3725891-2.4842987-0.2084045c0.9423218,0.3574219,1.786087,0.4169006,1.8027039,0.5512085
			c-0.0166168,0.0444946-0.6171875,0.3573914-1.1532898,0.1337891c-0.5352173-0.223114-5.4717102-3.0082703-5.4717102-3.0082703
			l8.4111176-2.1147766L52.132782,7.214325L52.132782,7.214325z"/>
		<path class="st3" d="M57.6952972,7.4809265L57.6952972,7.4809265L57.6952972,7.4809265L57.6952972,7.4809265z
			 M43.5419922,9.2421875c0.718689,0.4047546,4.8778687,2.7445679,5.3612976,2.9462891
			c0.4423828,0.1845093,0.9404907-0.0186157,1.0673828-0.0962219c-0.0673828-0.0385742-0.2763977-0.0868835-0.4794617-0.1337891
			c-0.0117188-0.0028992-0.023407-0.0054016-0.0350952-0.0083008c-0.3887329-0.0434875-0.8223267-0.1509094-1.242218-0.3588867
			c-0.022522-0.0117188-0.0323181-0.039093-0.022522-0.0625c0.0107117-0.0238953,0.0371094-0.0350952,0.0614929-0.0259094
			c0.4512024,0.170929,0.8809204,0.2740173,1.2061157,0.3492126c0.6112976,0.0678101,1.094696-0.0279236,1.2021027-0.1044922
			c-0.0428925-0.0498047-0.2001953-0.0948181-0.6445007-0.2061157c-0.3144989-0.0326843-0.6454926-0.1088867-0.9873199-0.246582
			c-0.0233765-0.0093079-0.0351868-0.035614-0.0272522-0.0595093c0.007782-0.0245056,0.0331726-0.0381165,0.0575867-0.0317993
			c0.2743835,0.0693054,0.5049133,0.1260071,0.6962891,0.1737976c0.102478,0.0254211,0.1953125,0.0484009,0.2783051,0.0688782
			c1.3807831,0.1411438,2.4149933-0.5839844,2.4276733-0.5927734c0.0039368-0.0028992,0.0088196-0.0054016,0.0137177-0.0068054
			c0.0019073-0.0004883,0.0028992-0.0010071,0.0048981-0.0019836c-0.0409851-0.003418-0.1045074-0.0063171-0.2001953-0.0053101
			c-0.5948181,0.0707703-1.1670074,0.1040039-1.6729126,0.1166992c-0.0243988,0.0014038-0.0477753-0.0196228-0.0487671-0.0455017
			c-0.0020294-0.0258179,0.0175781-0.0483093,0.0429688-0.051178c0.8916016-0.085022,1.3906097-0.1148376,1.670929-0.1162415
			c1.1922913-0.1425781,2.4706879-0.4374695,3.4618835-1.0215149c0.8076019-0.4755859,1.0897827-0.9496765,1.148407-1.0981445
			c-0.0976105,0.026886-0.2900085,0.1323547-0.523407,0.2602539c-0.253891,0.1396484-0.5888977,0.3227539-0.9960938,0.5107727
			c-0.0341949,0.016571-0.0684204,0.0331726-0.1035156,0.0498047c-0.4706726,0.2221375-1.0567017,0.4433289-1.7480774,0.6020508
			c-1.164032,0.281189-2.5879211,0.3866882-4.2158356-0.0005188c-0.0253906-0.0058899-0.0409851-0.0312805-0.0351868-0.0571289
			c0.0049133-0.0258484,0.030304-0.0419617,0.0567017-0.0366211c1.6465149,0.3486633,3.0596161,0.2617493,4.2129211-0.0097351
			c0.6571808-0.1625977,1.2303772-0.3808594,1.7079773-0.5967102c0.4678192-0.2211914,0.8525085-0.4555664,1.1493988-0.6611328
			c0.8428192-0.5825195,1.2733917-1.1220703,1.2998199-1.2206726c-0.0010223-0.0014648-0.0010223-0.0034485-0.0010223-0.0054016
			c-0.1152039-0.0234375-0.7070007,0.2373047-1.2890015,0.5039062c-0.5214844,0.3017578-1.199295,0.6177063-2.078186,0.920929
			c-0.2704926,0.1044617-0.5106964,0.1850281-0.6991882,0.2245789c-0.0254059,0.0054016-0.0508118-0.0097656-0.0566101-0.0351562
			c-0.0069122-0.0249023,0.0077972-0.0502625,0.032196-0.0581055c0.2226868-0.066864,0.4628906-0.1435547,0.7108917-0.2299805
			c0.5118256-0.1992188,1.1309204-0.4853516,1.7012177-0.7485352c0.1122894-0.0522156,0.2187805-0.1010742,0.3193054-0.1469727
			c0.3408966-0.1958008,0.6611938-0.4116211,0.9404907-0.6489258c0.5380859-0.4570312,0.7167969-0.8193054,0.7528992-0.9364929
			c-0.0839996,0.0331726-0.2724915,0.1386414-0.4853058,0.2568054c-0.4667816,0.2597656-1.2276001,0.6826172-2.2471008,1.1411133
			c-0.9160004,0.4570312-2.0859985,0.882843-3.4971161,1.2719727c-0.2948608,0.0830078-0.5995789,0.1631165-0.9130859,0.2382812l0,0
			c-0.000885,0-0.000885,0-0.000885,0c-0.0253906,0.0063477-0.0518188-0.0092468-0.0577087-0.0351562
			C50.8124847,9.1508484,50.8280792,9.125,50.8545074,9.1181335c0.3300781-0.0810242,0.6434631-0.1635742,0.9403687-0.2456055
			c1.3360291-0.3779297,2.4833984-0.8241882,3.4160156-1.2421875c1.6132812-0.797821,2.0136871-1.4760437,2.1113892-1.7397156
			c0.0507202-0.1382141,0.0420227-0.2148743,0.0341034-0.2383118c-0.1766815-0.0073242-0.6473999,0.2568359-1.2411957,0.5898743
			c-0.6103058,0.3417664-1.3934937,0.7807617-2.282196,1.1713562c-0.6152039,0.2920227-1.3847961,0.5771484-2.3075867,0.7710266l0,0
			v0.0004578c-0.0264282,0.0054016-0.0518341-0.0112305-0.0566101-0.0370789
			c-0.0059204-0.0263672,0.0106964-0.0517883,0.0361023-0.0576477c0.8027039-0.1733398,1.5731812-0.4511719,2.277298-0.7602539
			c0.3730927-0.1762695,0.6835785-0.3530273,0.9317017-0.5087891c0.7381897-0.4658203,1.2256012-0.9418945,1.3807831-1.206543
			c0.0108185-0.0180664,0.0186157-0.0336914,0.0244141-0.046875c-0.6502991,0.3891602-3.8261108,1.6352844-3.9687042,1.6914062
			c-0.0108185,0.0039368-0.0225067,0.0043945-0.0331879,0.0010071l-0.2949066-0.1001282L43.5419922,9.2421875L43.5419922,9.2421875z
			 M49.3017883,12.3607788c-0.1387024,0-0.2880859-0.0218811-0.4356079-0.0834961
			c-0.532196-0.2216187-5.2744141-2.8969421-5.476593-3.0107117c-0.0175171-0.0092773-0.0263062-0.0287781-0.0243835-0.0483398
			c0.0029907-0.0195312,0.0176086-0.0356445,0.0361633-0.0400391l8.4111176-2.1147461
			c0.0088196-0.0024109,0.0186005-0.0019531,0.027298,0.0009766l0.2910919,0.0986328
			c0.2675171-0.10495,3.6787262-1.4487305,4.0136108-1.7279968c0.0196075-0.0166321,0.0489044-0.0146484,0.066391,0.0043945
			c0.0263977,0.0287781,0.0303192,0.0712585,0.0127106,0.1264343c-0.0703125,0.2167969-0.5039062,0.6850891-1.1815948,1.1538391
			c0.378891-0.1992188,0.7236023-0.3925781,1.0263824-0.5620422c0.6699066-0.3754578,1.1123199-0.6240234,1.3144073-0.5995789
			c0.0243988,0.0048523,0.0742035,0.026825,0.0762024,0.1352234c0.0019073,0.1000977-0.0419769,0.6367493-1.105484,1.3838196
			c-0.0137177,0.0092468-0.0263977,0.0180359-0.0390015,0.0273132c0.4950867-0.2509766,0.8885803-0.4702148,1.1737823-0.628418
			c0.4833984-0.2690125,0.5566101-0.3051758,0.6094055-0.2685547c0.0156097,0.0107422,0.0253143,0.027832,0.0253143,0.0473633
			c0.0039825,0.0180969,0,0.0449219-0.0146179,0.0898743c-0.0312958,0.0932312-0.2412109,0.6161804-1.1562958,1.2641602
			c0.4843903-0.2094727,0.7207947-0.2817688,0.7978973-0.2270508c0.019516,0.0146484,0.0312958,0.0361023,0.032196,0.0615234
			c0.0087891,0.0302429-0.0067902,0.0717773-0.0487976,0.1371765c-0.1063843,0.1640625-0.469696,0.5820618-1.0946808,1.0439453
			c0.1444855-0.0732422,0.2411957-0.110321,0.3046875-0.1030273c0.0263062,0.0048828,0.051712,0.0249329,0.0478058,0.0674133
			c-0.0107117,0.1425781-0.3223114,0.6982117-1.2226105,1.2246094c-0.9073029,0.530304-2.0450134,0.8232117-3.140686,0.980011
			c0.0068817,0.0091858,0.0087891,0.0184937,0.010788,0.0272827c0.003891,0.0176086,0.0146179,0.0697937-0.128006,0.1156921
			c-0.0810089,0.0562134-0.9072113,0.6001282-2.0448914,0.6236267c0.2363129,0.0692749,0.2792816,0.1073914,0.3007965,0.1835938
			c0.0028992,0.0136108,0.0009918,0.027771-0.0068054,0.0390015c-0.0585938,0.0907898-0.3798828,0.1826172-0.8252106,0.1903992
			c0.0967255,0.0341797,0.1455231,0.069397,0.1513214,0.1202087c0.0010071,0.0072937,0,0.0150757-0.0028992,0.0218811
			c-0.0107117,0.0312805-0.0693054,0.0699158-0.1728058,0.1153259
			C49.8222961,12.2694702,49.5829773,12.3607788,49.3017883,12.3607788L49.3017883,12.3607788z"/>
		<path class="st2" d="M42.2450867,14.7475891c-0.7401733,0-0.7606812,0.6034851-0.7606812,0.6034851
			s-0.0606384,0.0434265-0.0196228,0.335907c0.1221008-0.1992188,0.1827087-0.2612,0.1827087-0.2612
			c0.0820007,0.0121765,0.4208984,0.105896,0.9570007-0.280304c-0.4883118,0.4667969-0.1963196,0.6410828-0.1963196,0.6410828
			s-0.1161804,0.367218,0.2568359,0.441925c-0.1152344-0.1494141-0.046814-0.2798157-0.046814-0.2798157
			s0.5223694-0.0498047,0.4881897-0.6346741c0.0205994,0.5288086,0.3330994,0.6590881,0.3330994,0.6590881
			s0,0.2929993,0.3388062,0.3179016c-0.1836243-0.1493835-0.1426086-0.3799133-0.1426086-0.3799133
			s0.4414062-0.2923889,0.0684204-0.7904968c0.2236023-0.1181946,0.407196-0.4476929,0.407196-0.4476929
			s-0.3056335-0.1187134-0.4482117-0.217804c-0.0684204-0.1308899-0.0068054-0.8467102-0.0068054-0.8467102l-0.1835938-0.9271851
			l-0.522522,1.4437866C42.9706726,13.9194031,42.9844055,14.7475891,42.2450867,14.7475891L42.2450867,14.7475891z"/>
		<path class="st3" d="M41.4844055,15.3510742h0.0009766H41.4844055L41.4844055,15.3510742z M41.5126953,15.3900757
			L41.5126953,15.3900757L41.5126953,15.3900757L41.5126953,15.3900757z M41.5126953,15.3900757L41.5126953,15.3900757
			L41.5126953,15.3900757L41.5126953,15.3900757z M43.1562805,15.3334656
			c0.0252991,0.4702148,0.2900085,0.5903015,0.3016968,0.5957336c0.0176086,0.0072937,0.0292969,0.0249023,0.0292969,0.0438843
			c0,0.0083008,0.0039368,0.1665039,0.1592102,0.2373047c-0.0849915-0.1455078-0.0596008-0.2993164-0.0576172-0.3075867
			c0.0019226-0.0132141,0.0097351-0.0244141,0.0205078-0.0317078c0.0010071-0.0010376,0.1582031-0.1083984,0.1903992-0.2954102
			c0.022522-0.1333008-0.0224915-0.2769165-0.1347961-0.4257812c-0.0086975-0.0117188-0.0116882-0.0259399-0.0086975-0.0395203
			c0.0039062-0.0141907,0.0126038-0.0259094,0.0252991-0.0322876c0.1592102-0.0844116,0.3008118-0.289032,0.3583984-0.3818054
			c-0.0946655-0.0391235-0.2938843-0.1245117-0.4042969-0.2017212c-0.0067749-0.0048828-0.0117188-0.0106812-0.0155945-0.0174866
			c-0.0693054-0.1337891-0.0244141-0.7295227-0.0126953-0.8663025l-0.148407-0.7503967l-0.4551086,1.2591858
			c-0.0155945,0.1684875-0.1698914,0.6758118-0.7587891,0.6758118c-0.6854858,0-0.7108765,0.5346985-0.7119141,0.5570984
			c-0.0010071,0.0127258-0.0058899,0.0249023-0.0155945,0.0336914c-0.0029907,0.0049133-0.0224915,0.0415039-0.0185852,0.1567993
			c0.0741882-0.1094055,0.1122742-0.1489868,0.1143188-0.1508789c0.0106812-0.0112305,0.0262756-0.0161133,0.0419617-0.0142212
			c0.0049133,0.0010071,0.0117188,0.0020142,0.0195312,0.003418c0.102478,0.0185852,0.4159851,0.0747986,0.9013977-0.2749023
			c0.0204773-0.0146179,0.0487671-0.0112305,0.0653992,0.0083008c0.016571,0.0195923,0.0147095,0.0484009-0.0039062,0.0660095
			c-0.2373047,0.2264709-0.2764282,0.3720093-0.2666016,0.4541016c0.007782,0.0765686,0.0604858,0.1102905,0.0614929,0.1102905
			c0.0186157,0.0116882,0.0274048,0.0346985,0.0215149,0.0561829c-0.0010071,0.0009155-0.0449219,0.1465149,0.0214844,0.2568054
			c0.0205078,0.0352173,0.0508118,0.0635071,0.0898132,0.085022c-0.0390015-0.1202087,0.0068665-0.2119141,0.0097656-0.2167969
			c0.007843-0.0147095,0.022522-0.0244141,0.0381165-0.0259094c0.0195312-0.0020142,0.4638062-0.0523071,0.4463196-0.5629883
			c-0.0010071-0.0073242-0.0010071-0.0146179-0.0010071-0.0220032c-0.0010071-0.0263062,0.0195007-0.0483093,0.0458984-0.0498047
			c0.0263977-0.0014038,0.0487976,0.019104,0.0498047,0.0453796C43.1552734,15.3183899,43.1552734,15.3261719,43.1562805,15.3334656
			L43.1562805,15.3334656z M43.7782898,16.3388672c-0.0010071,0-0.0019226,0-0.0039062,0
			c-0.3104858-0.0229797-0.3690796-0.2509766-0.3807983-0.3349915c-0.0596008-0.0342102-0.2032166-0.1376953-0.2823181-0.3760071
			c-0.1053772,0.2730103-0.3680725,0.3461914-0.4579773,0.3638c-0.0097046,0.0365906-0.0195007,0.1166992,0.0507812,0.2075195
			c0.0117188,0.0155945,0.0127258,0.0375977,0.0020447,0.0546875c-0.0098267,0.0170898-0.0303345,0.0259094-0.0498047,0.0220032
			c-0.1231079-0.0249023-0.2120056-0.081604-0.2637024-0.1690063c-0.0664368-0.1123047-0.0518188-0.2421875-0.0391235-0.3021851
			c-0.0282898-0.0269165-0.0692749-0.0786133-0.0791016-0.1592102c-0.0097961-0.0888977,0.0215149-0.1885071,0.0918274-0.2969055
			c-0.359436,0.1831055-0.6016235,0.1464844-0.7002258,0.129425c-0.0243835,0.0302734-0.0780945,0.1005859-0.1600952,0.2344055
			c-0.0108032,0.0175781-0.031311,0.0263977-0.0507812,0.0220032c-0.0205078-0.0039368-0.0352173-0.0205078-0.0381165-0.0406189
			c-0.032196-0.2275085-0.0049133-0.3222046,0.0205078-0.3608093c0.015564-0.2284851,0.2001648-0.6337891,0.8075867-0.6337891
			c0.1944275,0,0.351593-0.0604858,0.468811-0.1791992c0.1347046-0.137207,0.1766968-0.3086243,0.1893921-0.3843079
			c-0.0010071-0.0047913-0.0010071-0.0102234-0.0010071-0.0155945c0.0020142-0.0200195,0.0049133-0.0498047,0.0224915-0.0653992
			l0.5028992-1.3901062c0.0078125-0.0205994,0.0274048-0.0332947,0.0489197-0.0317993
			c0.0213928,0.0020142,0.0389709,0.0175781,0.0439148,0.039093l0.1825562,0.9272156
			c0.0010376,0.0043945,0.0020447,0.0087891,0.0010376,0.0131836c-0.022522,0.2626953-0.0420227,0.7035828-0.0028992,0.8106079
			c0.1405945,0.0932007,0.4237671,0.2035828,0.4266663,0.2049866c0.0137329,0.0049133,0.0234985,0.0152283,0.0284424,0.0284119
			c0.0047607,0.0131226,0.0038757,0.0278015-0.0030212,0.0400085c-0.0078125,0.0126953-0.1689148,0.2998047-0.3799133,0.4389954
			c0.1054993,0.1567078,0.1464844,0.3105164,0.1211243,0.4579773c-0.0322266,0.1880188-0.1640015,0.305603-0.2129211,0.3442078
			c-0.0047913,0.0527039-0.0047913,0.2080078,0.1270142,0.315918c0.0166016,0.0131836,0.022522,0.035675,0.0145874,0.0552063
			C43.8153992,16.3270874,43.7978821,16.3388672,43.7782898,16.3388672L43.7782898,16.3388672z"/>
		<path class="st2" d="M45.8974915,12.664978c0.0166016,0.014679,0.5516968,0.5660095,1.0713196,0.5361938
			c0.195282-0.1489868-0.4053345-0.476593-0.4053345-0.5513c0.210907,0.1787109,1.1035156,0.8789062,1.6719055,0.6255188
			c0.2275085-0.2979126-0.4052734-0.2529297-1.1036072-1.0571289c0.4864197,0.297821,1.7051086,0.953125,2.2724915,0.699707
			c0.2441101-0.2383118-1.2655945-0.9828796-1.7695007-1.5634766l-1.2988586-0.6108093l-1.7695007,1.325592L45.8974915,12.664978
			L45.8974915,12.664978z"/>
		<path class="st3" d="M46.5634766,12.601593c0.0107117,0,0.0223999,0.0039062,0.031189,0.0116882
			c0.1054993,0.0892944,1.0410156,0.8608093,1.6104431,0.6229858c0.0233765-0.0331726,0.032196-0.059082,0.0282898-0.0795898
			c-0.0098267-0.0522156-0.1112976-0.1112976-0.2402039-0.1860046c-0.218811-0.1278687-0.5508118-0.3208008-0.8984985-0.7211914
			c-0.0155945-0.0175781-0.0155945-0.0444031,0-0.0625c0.015686-0.0180969,0.0419922-0.0223999,0.061615-0.0101929
			c0.1707764,0.1044922,0.6180725,0.3661804,1.0986023,0.5531921c0.5018616,0.1942749,0.8886719,0.245575,1.1210632,0.1479187
			c0.0057983-0.0073242,0.0078125-0.0146179,0.0068359-0.0244141c-0.0107422-0.1322937-0.4072266-0.4082031-0.789032-0.6742859
			c-0.3603821-0.2505188-0.7666931-0.5337219-0.9883118-0.785614l-1.2636719-0.593811l-1.6807251,1.2587891l1.2559204,0.5625
			c0.0049133,0.0019226,0.0097961,0.0049133,0.0137024,0.0083313l0.0057983,0.0058899
			c0.0898743,0.0882874,0.5497742,0.5184937,0.9921875,0.5184937c0.0068054,0,0.0137329,0,0.0215149,0
			c0.007782-0.0097961,0.0097961-0.0176086,0.0097961-0.0238953c0.000885-0.0772095-0.1748047-0.2173157-0.280304-0.3008118
			c-0.117218-0.0932922-0.1651001-0.132782-0.1651001-0.1791992c0-0.0185852,0.0118103-0.0355835,0.0284119-0.0434875
			C46.5498047,12.6029663,46.5565796,12.601593,46.5634766,12.601593L46.5634766,12.601593z M47.9618835,13.3778687
			c-0.3085938,0-0.6503906-0.1590881-0.9257812-0.3276062c0.0126648,0.0273132,0.0204773,0.0541992,0.0204773,0.0805969
			c-0.000885,0.0292969-0.0107117,0.0722351-0.0585938,0.1083984c-0.0068054,0.0057983-0.0166016,0.0092163-0.0262756,0.0097046
			c-0.4795227,0.0274353-0.9629211-0.4067078-1.1016235-0.543396l-1.3232117-0.5922852
			c-0.015564-0.006897-0.0263977-0.0215149-0.0282898-0.0386047c-0.0019836-0.0170898,0.0047913-0.0337219,0.0185242-0.0439148
			l1.7694702-1.3256836c0.0147095-0.0108032,0.0342102-0.0126953,0.0498047-0.0049133l1.2988892,0.610321
			c0.0057983,0.0029907,0.0117188,0.0074158,0.015625,0.0122986c0.2128906,0.2445984,0.6191101,0.527771,0.977478,0.7773132
			c0.5059204,0.3519897,0.8164062,0.5761719,0.8301086,0.7450562c0.0039062,0.0410156-0.0106812,0.078125-0.039978,0.1074219
			c-0.0039062,0.0039062-0.0088196,0.0074158-0.0137329,0.0093079c-0.5106812,0.2276001-1.4950867-0.2412109-2.0184937-0.5292969
			c0.2470093,0.2285156,0.4725952,0.3598938,0.6357117,0.4545898c0.1610718,0.0942078,0.2676086,0.156311,0.2861023,0.2504883
			c0.0108032,0.0522156-0.0068054,0.105011-0.0537109,0.1670227c-0.0048828,0.0062866-0.0116882,0.0116882-0.0194702,0.0145874
			C48.164093,13.3603821,48.0645142,13.3778687,47.9618835,13.3778687L47.9618835,13.3778687z"/>
		<path class="st2" d="M43.9003906,8.1376953c0,0,0.6005859-0.3276672,3.0039062-0.1640625
			c0.2597961,0.0297546,1.6395874-0.4316711,2.078064-0.5659485c0.6983337-0.1191406,2.9229279-0.565918,3.5235138-0.9829102
			c0.421814-0.0444336-0.1132812,0.7148438-0.6494751,0.8935547c-0.5682983,0.2382812-2.6298065,0.8935547-3.3613129,0.8041992
			c0.8769836,0.0151672,0.3897095,0.6704102-1.0713196,0.3574219c0.6983337,0.3574219,0.4385376,0.4169922,0.4385376,0.4169922
			s-1.2344055,0.0596008-1.5585938-0.1933594c0.828064,0.2827148,0.4872742,0.387207,0.4872742,0.387207
			s-0.844696,0.0742188-1.2344055-0.0893555c0.6006165,0.1635742,0.2919922,0.2680664,0.2919922,0.2680664
			s-0.4873047,0.0742188-0.8924561-0.0595398C44.5497742,9.0756531,43.9325867,8.1376953,43.9003906,8.1376953L43.9003906,8.1376953
			z"/>
		<path class="st3" d="M43.9003906,8.1860352L43.9003906,8.1860352L43.9003906,8.1860352L43.9003906,8.1860352z
			 M43.9003906,8.1860352h0.0010071H43.9003906L43.9003906,8.1860352z M43.9823914,8.1557312
			c0.0186157,0.0234375,0.0429993,0.0552063,0.0751953,0.0976868c0.202179,0.2641296,0.6221008,0.8144531,0.9131165,0.910614
			c0.3700867,0.1221008,0.8163757,0.0654297,0.8661804,0.0585938c0.0195007-0.0078125,0.0401001-0.0214539,0.0429993-0.0287781l0,0
			c0,0-0.0126953-0.0376282-0.1748047-0.0957336c-0.0605774-0.0141602-0.1171875-0.03125-0.1669922-0.0522156
			c-0.0234985-0.0097961-0.0351868-0.0361633-0.0274048-0.0600586c0.0087891-0.0239563,0.0342102-0.0376282,0.0585938-0.0307617
			c0.0625,0.016571,0.1171875,0.0336914,0.164093,0.0507507c0.3887329,0.0874023,0.9824219,0.0424805,1.046936,0.0371399
			c0.016571-0.0058594,0.0311584-0.0175781,0.0311584-0.0229797c0-0.0024414-0.0018616-0.0512695-0.2069702-0.1469421
			c-0.1387024-0.0307617-0.2559204-0.0732727-0.3311157-0.1313782C46.2548828,8.7270203,46.25,8.7011414,46.2606812,8.6806335
			c0.0118103-0.0209961,0.0362244-0.0302429,0.0585938-0.0229492c0.1358032,0.0469055,0.2412109,0.0883789,0.3222961,0.1260071
			c0.4473267,0.0952148,1.140625,0.0688477,1.2119141,0.0653992c0.0038757-0.0009766,0.0078125-0.003418,0.0088196-0.0048828
			c-0.0010071-0.0014648-0.0010071-0.0859375-0.460907-0.3212585c-0.0215149-0.0107727-0.031311-0.0361633-0.0234985-0.0591125
			c0.0087891-0.0224609,0.0322876-0.0361328,0.0556946-0.0307617c0.7998047,0.1708984,1.3193054,0.045929,1.4325867-0.0976257
			c0.0253906-0.0322266,0.0166016-0.0508118,0.0137024-0.0566711c-0.0176086-0.0380859-0.094696-0.0820312-0.2539062-0.0996094
			c-0.0488892-0.0009766-0.094696-0.0033875-0.1366882-0.0087891c-0.0254211-0.0029297-0.0439758-0.0253601-0.0419922-0.0507812
			c0.0018921-0.0253906,0.0223694-0.0448914,0.0477905-0.0448914c0.0010071,0,0.0010071,0,0.0010071,0
			c0.0487976,0.0004883,0.094696,0.003418,0.1367188,0.007782c0.0048828,0.0004883,0.0097656,0.0004883,0.015564,0.0004883
			c0.8145142,0,2.6680145-0.590332,3.1894989-0.809082c0.4180145-0.1396179,0.8008118-0.6264648,0.7705078-0.7685547
			c-0.0028992-0.0097351-0.0087891-0.0385742-0.0858917-0.0331726c-0.6161957,0.4150085-2.8018188,0.8583984-3.5284119,0.9829102
			c-0.0770874,0.0234375-0.180603,0.0561218-0.3026733,0.094696c-0.7930298,0.2519531-1.585022,0.495636-1.7929993,0.4721985
			c-1.2236328-0.0834961-1.9677429-0.0361633-2.3759155,0.0180359C44.2284851,8.0791016,44.0625,8.1274414,43.9823914,8.1557312
			L43.9823914,8.1557312z M45.5263977,9.3388672c-0.1719055,0-0.3868103-0.0175781-0.5859985-0.0830383
			c-0.3193054-0.1059265-0.7518921-0.671875-0.9598999-0.9438171c-0.0440063-0.0576477-0.0888977-0.1171875-0.1035156-0.1323547
			c-0.0117798-0.0063477-0.0195923-0.0170593-0.0234985-0.0302429c-0.0048828-0.0210266,0.0048828-0.0434875,0.0234985-0.0542297
			c0.0252991-0.0136719,0.6405945-0.332489,3.0302124-0.1694336c0.2060852,0.0234375,1.2138977-0.2958984,1.7549133-0.4677429
			c0.1239624-0.039093,0.2294617-0.0727844,0.3066711-0.0962219c0.0018921-0.0004578,0.0039062-0.0009766,0.0057983-0.0014648
			c0.7217102-0.1230469,2.9160004-0.5668945,3.5039062-0.9750977c0.0069122-0.0043945,0.0147095-0.0073242,0.0225067-0.0082703
			c0.157196-0.0166321,0.1932983,0.0703125,0.2010956,0.1078796c0.0557098,0.2548828-0.4628143,0.7568359-0.8299866,0.879425
			c-0.4903107,0.2055359-2.0556946,0.7099304-2.9698181,0.8007507c0.030304,0.0210266,0.0518188,0.0449219,0.0645142,0.0722656
			c0.0243835,0.0507812,0.015564,0.1069641-0.0254211,0.1582336c-0.1347961,0.1708679-0.5927734,0.2748718-1.2421875,0.1825867
			c0.2354126,0.1464844,0.2647095,0.2255859,0.257782,0.2797852c-0.0067749,0.054718-0.055603,0.0796204-0.0839844,0.0864258
			c-0.0028992,0.0005188-0.0057983,0.0009766-0.0086975,0.0009766c-0.0332031,0.0014648-0.5567017,0.0253906-1.0097961-0.0302734
			c0.0448914,0.0424805,0.0546875,0.0771484,0.0536804,0.1069336c-0.0009766,0.0810852-0.0927734,0.1118469-0.1034851,0.1147766
			c-0.0028992,0.000946-0.0068054,0.0019226-0.0097961,0.0019226c-0.0253906,0.0024719-0.4511108,0.0385742-0.8368835-0.0004578
			c0.0116882,0.0175781,0.0175781,0.0351562,0.0185852,0.0541992c0.0018921,0.0815125-0.1005859,0.1186523-0.1123047,0.1225281
			c-0.0029907,0.0009766-0.0049133,0.0019531-0.0079041,0.0024414C45.8456726,9.3188171,45.7108765,9.3388672,45.5263977,9.3388672
			L45.5263977,9.3388672z"/>
		<path class="st2" d="M44.8642883,12.9735718l0.0877991,1.4561157c0,0-0.047821,0.074707-0.0877991,0.1185913
			c-0.0411072,0.0435181-1.1269836-0.1557007-0.9776001,0.6036072c0,0.3109741,0.006897,0.3919983,0.2373047,0.5664062
			c-0.0605164-0.2056274-0.0400085-0.3486938-0.0400085-0.3486938s0.3046875,0.1679688,0.6034851-0.292511
			c-0.203064,0.4545898-0.0604858,0.6163025-0.0136719,0.6289978C44.7217102,15.7865601,44.592804,16.1537781,45,16.1474915
			c-0.1562195-0.1368103-0.0820007-0.3360291-0.0820007-0.3360291s0.4277039-0.0619812,0.2782898-0.7714844
			c0.156189-0.1434937,0.217804-0.0063171,0.217804-0.0063171s0.0467834,0.4233093,0.4198914,0.3359375
			c0.1698914,0.0873718-0.0263977,0.3173828-0.0263977,0.3173828s0.2714844,0.0064087,0.3526001-0.2051086
			c0.0809937-0.2118835,0.1766968-0.5912781-0.2715149-0.7470093c-0.0546875-0.1494751,0.1767273-0.1616821,0.1767273-0.1616821
			s0.2841797,0.0869751,0.3661804,0.217804c0.0810852,0.1304016,0.053833-0.3423157-0.2987976-0.3921204
			c-0.4346008-0.0126953-0.460907-0.0932007-0.460907-0.1123047c0-0.0184631-0.0751953-1.0575867-0.109375-1.3563843
			L44.8642883,12.9735718L44.8642883,12.9735718z"/>
		<path class="st3" d="M45.719696,14.2855835c0,0.0004883,0,0.0009766,0,0.0009766S45.719696,14.2860718,45.719696,14.2855835
			L45.719696,14.2855835z M44.6874695,15.0287781c0.007843,0,0.015625,0.0019836,0.023407,0.0058899
			c0.0215149,0.012207,0.031311,0.039032,0.0205078,0.0625305c-0.1297913,0.2894592-0.1083984,0.4403687-0.0829773,0.5048828
			c0.014679,0.0390015,0.0341797,0.0550842,0.0390625,0.0576172c0.0127258,0.0033875,0.0215149,0.0106812,0.0283203,0.0218811
			c0.0185852,0.0308228,0.0185852,0.0737915,0.0205078,0.1279907c0.0019836,0.1152039,0.0048828,0.243103,0.155304,0.2798157
			c-0.0752258-0.1397095-0.0215149-0.2872009-0.0186157-0.2949829c0.0058899-0.0161133,0.0205994-0.0278015,0.0380859-0.0307007
			c0.0039368-0.0005188,0.109436-0.0186157,0.186615-0.1309204c0.0877991-0.1268921,0.1053772-0.3286133,0.0516968-0.5830078
			c-0.0039062-0.0166016,0.0020142-0.0342102,0.0147095-0.0454102c0.0672913-0.0619812,0.1318054-0.0873718,0.1893921-0.0751953
			c0.0713196,0.0146179,0.1006165,0.0776062,0.1044922,0.085022c0.0020142,0.0043945,0.0028992,0.0091858,0.0039062,0.0140991
			c0,0.0014954,0.0224915,0.1817017,0.1387024,0.2637024c0.0586243,0.0414734,0.1338196,0.0517883,0.2225952,0.0307922
			c0.0118103-0.0025024,0.0235291-0.0010071,0.0332031,0.0038757c0.0498962,0.0258179,0.0820923,0.065918,0.0917969,0.1157227
			c0.0127258,0.0635071-0.0126953,0.1312866-0.0419006,0.184082c0.0742188-0.0175781,0.1698914-0.0600891,0.2088928-0.1620789
			c0.0751953-0.1963196,0.0860291-0.3487244,0.031311-0.4664001c-0.0448914-0.0971069-0.1366882-0.1704102-0.2734985-0.2177124
			c-0.0136108-0.0043945-0.0244141-0.0151978-0.0291748-0.0287781c-0.0234985-0.0625-0.0069275-0.1069946,0.0106812-0.1328125
			c0.0546875-0.0830994,0.1923828-0.092804,0.2080078-0.093811c0.0058899-0.0004883,0.0116882,0.0004883,0.016571,0.0020142
			c0.0254211,0.0078125,0.2080078,0.0658875,0.3242188,0.1625977c-0.0097046-0.0293274-0.0254211-0.0621033-0.0469055-0.0942993
			c-0.0379944-0.0581055-0.1092834-0.1307983-0.2275085-0.148407c-0.3397827-0.0097961-0.5058899-0.0625-0.5058899-0.1602173
			c-0.0009155-0.0316772-0.0672913-0.9633789-0.1035156-1.3055725l-0.6044617,0.0375977L45,14.4267883
			c0.0009766,0.0101929-0.0020142,0.0204773-0.0068054,0.0288086c-0.0019836,0.0033875-0.0508118,0.0791016-0.093811,0.1254883
			c-0.0223694,0.0238953-0.0546875,0.0233765-0.1621094,0.0218811c-0.1875-0.0028992-0.5801086-0.0087891-0.7401733,0.1841125
			c-0.0713196,0.0849915-0.092804,0.2046204-0.0625305,0.3554993c0,0.0028992,0.0009155,0.0062866,0.0009155,0.0093079
			c0,0.2412109,0.0040283,0.3309937,0.1094055,0.4364929c-0.0215149-0.1337891-0.0097046-0.2207031-0.0087891-0.2255859
			c0.0019836-0.015625,0.0118103-0.0293274,0.0263977-0.0361328c0.0137024-0.0073853,0.0302734-0.0068665,0.0448608,0.0009155
			c0.0098267,0.0054016,0.2715454,0.1376953,0.5401306-0.2767944
			C44.6562805,15.0365601,44.6719055,15.0287781,44.6874695,15.0287781L44.6874695,15.0287781z M44.9892883,16.1958008
			c-0.3417969,0-0.3466797-0.2495422-0.3497009-0.3843384c-0.000885-0.023407-0.000885-0.0536804-0.0039062-0.0707703
			c-0.0262756-0.0161133-0.0506897-0.0449219-0.0682983-0.082489c-0.032196-0.066925-0.0536804-0.1768188-0.0117188-0.3496094
			c-0.1044617,0.0917969-0.202179,0.1254883-0.2753906,0.1351929c-0.0614929,0.0083008-0.1132812,0.0020142-0.1513977-0.0073242
			c0,0.0576172,0.0078125,0.1524048,0.0420227,0.2680969c0.0058899,0.0200195-0.0020142,0.0415344-0.0186157,0.0532227
			c-0.0174866,0.0117188-0.039978,0.0112-0.0566101-0.0010071c-0.2450867-0.1849976-0.2567749-0.2850952-0.2567749-0.6004944
			c-0.0342102-0.1783142-0.0059204-0.3233032,0.0839844-0.4311829c0.1903992-0.2280273,0.5975952-0.2217407,0.8164062-0.2183228
			c0.0371094,0.0004883,0.0791016,0.0010071,0.0975952-0.0004883c0.0254211-0.0292053,0.0527039-0.0693054,0.0664062-0.089325
			l-0.0878906-1.4403687c-0.0009155-0.0269165,0.0185852-0.049408,0.0458984-0.0513l0.6983032-0.0435181
			c0.0263062-0.0014038,0.0487976,0.0170898,0.0516968,0.0429993c0.0322876,0.2851868,0.1026001,1.2554016,0.1083984,1.3544922
			c0.0107727,0.0103149,0.0801086,0.0614929,0.4150696,0.0713196c0.0009155,0,0.0028992,0,0.0048218,0.0004883
			c0.2510071,0.035614,0.3642883,0.2661133,0.3770142,0.4038086c0.0058899,0.0575867-0.0088196,0.0927734-0.0429993,0.1040039
			c-0.0174866,0.0057983-0.0517273,0.0083008-0.0830078-0.042511c-0.0566101-0.0912781-0.2500305-0.1684875-0.3309937-0.1943054
			c-0.0371094,0.003418-0.1044922,0.0184937-0.125,0.0498047c-0.0020142,0.003418-0.0078125,0.0107117-0.0058899,0.0263062
			c0.1493835,0.0567017,0.2519836,0.144104,0.3046875,0.2592773c0.0663757,0.1426392,0.0575867,0.3194275-0.0283203,0.5415039
			c-0.092804,0.2403259-0.3858032,0.2368164-0.3993835,0.2364197c-0.0186157-0.0004883-0.0351868-0.0118103-0.0419922-0.0284119
			c-0.0078125-0.0170898-0.0049133-0.0370789,0.0068054-0.051178c0.0253906-0.0303345,0.0956726-0.1304016,0.0829773-0.1949158
			c-0.0018921-0.0106812-0.0078125-0.0258179-0.0272827-0.039978c-0.1094055,0.0214844-0.2041321,0.0043945-0.281311-0.0503235
			c-0.1357117-0.0957031-0.1708984-0.2767944-0.1777039-0.3217773c-0.0049133-0.0072937-0.0166016-0.0219116-0.0332031-0.0254211
			c-0.0214844-0.0038757-0.0508118,0.0083008-0.0849915,0.0346985c0.0536804,0.2730103,0.0282898,0.4858093-0.0731812,0.6318054
			c-0.0742188,0.1065063-0.1699219,0.1474915-0.2188416,0.1617126c-0.0116882,0.050293-0.0263062,0.1708679,0.0743103,0.2596741
			c0.015625,0.0132141,0.0205078,0.0342102,0.0135803,0.0533142C45.0380859,16.183075,45.0205078,16.1958008,45,16.1958008
			C44.9971008,16.1958008,44.9931946,16.1958008,44.9892883,16.1958008L44.9892883,16.1958008z"/>
		<path class="st2" d="M46.3739929,14.2147827c0.0059204-0.0668945-0.7402039-0.9881897-0.5508118-1.1074219
			c0.1885071,0.0357361,0.4990845,0.4546204,0.7510071,0.3189087c-0.0762024-0.1636047-0.3008118-0.0717773-0.5566101-0.4897766
			c-0.2549133-0.4726257-0.2919922-1.1826172-1.1845703-1.9570007c0.578064,0.8192749,1.889679,1.2997742,1.945282,1.0609741
			c0.0556946-0.2391663-1.155304-1.1425781-1.092804-1.3602905c0.2403259,0.4472046,1.4561157,1.4432983,2.3505859,1.3607788
			c0.061615-0.1913757-0.7323914-0.5785828-0.9375-0.9398499c-0.5721741-0.3526306-2.102478-1.5630188-2.132782-1.843811
			c-0.5575867-0.7451172-0.905304-0.9701843-1.0673828-1.0561523c-0.0625305-0.0678406-0.078125-0.1322937-0.0898132-0.1733093
			c-0.3457031-0.7475891,0.1123047-0.9907532,0.3799133-1.0263977c0.2206726-0.0224304,0.2841797,0.0078125,0.4432678-0.0629883
			c-0.1875-0.0673828-0.375885-0.1303711-0.563385-0.1977539c0.2450867,0.1650696,0.8710938,0.0195312,0.735321,0.4946594
			c0.2743835-0.0957336,0.8583984-0.7329407-0.6621094-0.8769836c-0.4951172-0.5204773-2.5293274-0.8198242-3.0381165,1.4526672
			c0.0410156,0.0317078,0.0615234,0.0575867,0.1913757,0.1464844c-0.6425781-0.2856445-2.3749695-0.5058899-3-0.598175
			C36.6083984,6.9125671,34.8563843,5.8368835,34.6875,5.9692078c-0.2246094,0.0917969,1.0195007,1.1538086,0.9551086,1.1772461
			c-1.0791321-0.5771484-2.0655212-0.9858398-2.9824219-1.3579102c-0.6455994-0.2216797-1.2919922-0.7368164-1.3632812-0.6386719
			c-0.2373047,0.4511719,1.0350952,1.5854492,1.2714844,1.7192688c0.2362976,0.1274414,2.0975952,0.9194031,2.070282,0.9291687
			c-2.8027954-1.1669922-3.273468-1.378418-3.4140625-1.5131836c-0.2466431-0.0507812-0.8486328-0.7963867-1.0161133-0.7485352
			c-0.0918274,0.0830383,0.0922852,1.2607727,1.4301758,1.7890625c0.2177124,0.1459961,2.867218,1.0175781,2.8408203,1.085968
			c-0.0068054,0.0170593-3.0342102-1.1460266-3.1514282-1.1879883c-0.5839539-0.2099915-1.3002625-0.9458313-1.4344788-0.862793
			c-0.1275024,0.074707,0.3305054,0.871582,0.9203796,1.1210632c0.309021,0.1255188,1.4946289,0.6640625,2.5630188,1.0068359
			c0.0683289,0.0229492-1.9200134-0.6914062-2.8764954-1.0581055c-0.4335938-0.2207031-0.6376953-0.495575-0.7035828-0.4365234
			c-0.0977173,0.059082,0.1576843,1.2358704,3.2303772,1.8999023c0.0811157,0.0317688,1.0821228-0.2172546,1.0323181-0.1845703
			c-0.0127258,0.0083313-0.9932251,0.2041016-1.0888977,0.1977539c-0.085022-0.0121765-0.6230164,0.058136-0.6328125,0.0839844
			c-0.032196,0.0796204,0.195282,0.5004883,1.781189,0.4125977c0.203186-0.0107117,1.303833-0.3671875,1.2109985-0.2904968
			c-0.0458984,0.0380859-1.4980774,0.4711609-1.609375,0.4794617c-0.0957336,0.0127258-0.6064148,0.0615234-0.6250305,0.1113281
			c-0.0233765,0.0678711,0.3779297,0.3677063,1.2294922,0.4160156c0.7549438,0.0365906,2.1885071-0.4228516,2.1592102-0.3930359
			c-0.0282898,0.0297546-1.381897,0.4550171-1.4169922,0.4809265c-0.0487671,0.0253906-0.5448914,0.0498047-0.5625,0.0849915
			c-0.0401001,0.0869141,0.7148132,0.734314,2.9482117,0.0429077c-0.2246094,0.2783813-1.3066101,0.4682922-1.304718,0.5180969
			c-0.0057983,0.0365906,0.2383118,0.2524109,0.6162109,0.3296204c0.1895142,0.0385742,0.4483032,0.0307922,0.6856079-0.003418
			c0.4248047-0.0780945,0.8729858-0.2323914,1.4423828-0.7148743c0.0674133,0.1513672-1.421875,0.8427734-1.3526001,0.9086609
			c0.3233337,0.2749329,1.3964844-0.0350952,1.4667969-0.0712891c0.0703125-0.0360718,2.0664062-1.0682983,2.0596008-1.1879883
			c0.031311,0.1533813-2.5731812,1.4512024-2.5458984,1.5043945c0.1679993,0.2446899,1.0575867-0.0126953,1.0996094-0.0351257
			c0.0429993-0.0224915,1.1358032-0.5644836,1.1651001-0.5800781c0.0302124-0.0161133-1.2841797,0.7055969-1.1669922,0.8153992
			c-0.0567017,0.4683228,2.0527039-0.3237,2.2177124-0.4222717c0.0829773-0.0493164-1.0127258,0.4423828-1.015625,0.6757812
			c0.3526001,0.5467834,1.4823914,0.3735046,1.6572266,0.2528992c0.0869751-0.0600891-0.1025085,0.4066772-0.0420227,0.3641968
			c0.0215149-0.0086975,0.2460938-0.2519226,0.3321228-0.4281921c-0.0274048,0.1528931-0.1514282,0.3936157-0.2237244,0.6698914
			c-0.0721741,0.2763977-0.0926819,0.5884094-0.1922913,0.9199829c-0.022522,0.1455383,0.6962891-0.284668,0.5917969-1.3129883
			c0.0615234,0.5346069-0.226593,1.5346069-0.1513977,1.5868835c0.1513977,0.1040039,0.5693054-0.4980774,0.6112976-0.905304
			c0.1239929,0.2056274,0.3838196,0.6348267,0.6083984,0.7339172c-0.0244141-0.3110046,0.0039062-0.296875-0.0967102-0.602478
			c0.0577087-0.406311,0.0664062-0.9678345,0.0801086-1.6021118c0.6083984,1.0689087,0.851593,1.5204773,0.6817017,2.339386
			c0.1805725,0.0693359,0.469696-0.5712891,0.4461975-0.9013977C45.3554688,14.1040039,46.3583984,14.2411804,46.3739929,14.2147827
			L46.3739929,14.2147827z"/>
		<path class="st3" d="M29.8217773,7.0351257L29.8217773,7.0351257L29.8217773,7.0351257L29.8217773,7.0351257z
			 M41.0204773,10.1020813L41.0204773,10.1020813L41.0204773,10.1020813L41.0204773,10.1020813z M42.4081726,12.6503601
			L42.4081726,12.6503601L42.4081726,12.6503601L42.4081726,12.6503601z M45.1229858,13.1391907
			c0.0214844,0,0.0411072,0.0145874,0.0469055,0.0365906c0.1122742,0.4437866,0.414093,0.6893921,0.6464844,0.8174133
			c0.1963196,0.1073608,0.3809204,0.1542664,0.4775085,0.1698914c-0.0292969-0.0464172-0.0732117-0.1109009-0.1141968-0.170929
			c-0.2559204-0.3744812-0.4649048-0.6967773-0.4325867-0.8510742c0.0067749-0.0327148,0.0243835-0.0581055,0.0498047-0.074707
			c0.0106812-0.0062866,0.023407-0.0088196,0.0350952-0.0062866c0.0800781,0.0150757,0.1659851,0.0794983,0.265686,0.1546936
			c0.1307983,0.0976868,0.2752991,0.2070923,0.398407,0.1875c-0.0215149-0.0189819-0.0527039-0.0341187-0.0947266-0.0537109
			c-0.1113892-0.051178-0.2626648-0.1214905-0.4247742-0.3871765c-0.0712891-0.1318054-0.125-0.2798157-0.1827087-0.4360046
			c-0.1102905-0.3003235-0.2391968-0.6524048-0.5340881-1.0308228c-0.1777954-0.1444702-0.3409119-0.3085938-0.4668274-0.4872742
			c-0.0136719-0.0195312-0.0107727-0.0469055,0.007843-0.0635071c0.0175781-0.0161133,0.0448608-0.0166016,0.0634766-0.0003967
			c0.1932983,0.1669922,0.3466187,0.3314819,0.4715881,0.4911804c0.2002258,0.1616211,0.3985291,0.2798157,0.5342102,0.3520203
			c0.3799133,0.2035828,0.7022095,0.2865906,0.8233032,0.2626953c0.0107117-0.0018921,0.0350952-0.007782,0.0379944-0.0200195
			c0.0214844-0.0946655-0.3203125-0.4306946-0.546814-0.6532898c-0.3622742-0.3560181-0.5820923-0.5805969-0.5458679-0.7090149
			c0.0057983-0.0185852,0.0214844-0.032196,0.0409851-0.034668c0.0195007-0.0024109,0.039093,0.007782,0.0477905,0.0253906
			c0.2325134,0.4320984,1.3926086,1.3832703,2.2597961,1.3388977c-0.032196-0.0805969-0.226593-0.230011-0.3739624-0.342804
			c-0.2080078-0.1592102-0.4434204-0.3392944-0.5498352-0.5184937c-0.5155945-0.3208008-2.0654907-1.5147095-2.1435852-1.8579407
			c-0.3965149-0.5288086-0.7470093-0.8764954-1.0439148-1.0337219c-0.0048828-0.0024414-0.0087891-0.0058594-0.0126648-0.0097656
			c-0.0664368-0.0712585-0.0869446-0.141571-0.0987244-0.1835938l-0.0018921-0.0053711
			c-0.147522-0.3217773-0.1670227-0.5864258-0.0566101-0.7871094c0.1318054-0.2406921,0.3973999-0.2934265,0.4754944-0.3041992
			c0.0762024-0.0078125,0.131897-0.0092773,0.1817017-0.0107422c0.0429993-0.0014648,0.0791016-0.0024414,0.1141968-0.007782
			c-0.0477905-0.0166321-0.0956726-0.0332336-0.1434937-0.0498047c-0.0205078-0.0073242-0.0419922-0.0146484-0.0634766-0.0219727
			c-0.085907-0.0175781-0.1670227-0.0410156-0.2295227-0.08255c-0.0195007-0.0136719-0.0273132-0.0400391-0.0155945-0.0620117
			c0.0107117-0.0214844,0.0361023-0.0317383,0.0585938-0.0234375c0.070282,0.0253906,0.1416016,0.0498047,0.2119141,0.0742493
			c0.0361023,0.0073242,0.0731812,0.0136414,0.1094055,0.0195007c0.1708679,0.0283203,0.3486023,0.0576172,0.4266968,0.1811523
			c0.0312805,0.0498352,0.0439758,0.1088867,0.0370789,0.1796875c0.1192322-0.0741882,0.2431946-0.2158203,0.2276306-0.3457031
			c-0.0147095-0.1157227-0.1582031-0.3217468-0.960022-0.3974609c-0.0117188-0.0014648-0.0223999-0.0063171-0.030304-0.0151062
			c-0.2586975-0.2724609-0.9237976-0.4595032-1.5487976-0.2871094c-0.4930725,0.1366882-1.1338196,0.5405273-1.4004211,1.6879578
			c0.0030212,0.0024719,0.0059204,0.0048828,0.007843,0.0073242C41.1943054,7.8237,41.2294922,7.8539734,41.3222961,7.91745
			c0.0205078,0.0141602,0.0263062,0.0419922,0.0145874,0.0635071c-0.0126953,0.0219727-0.0390015,0.0307617-0.0614929,0.0204773
			c-0.5596008-0.2485352-1.9639282-0.4482117-2.717804-0.5556641c-0.1034851-0.0146484-0.1943054-0.027832-0.2695007-0.039032
			c-0.0020142,0-0.0039062-0.0005188-0.0049133-0.0010071c-0.945282-0.25-1.9052734-0.6938477-2.6054688-1.0180664
			c-0.4375-0.2026062-0.8905945-0.4125977-0.9619141-0.3798523c-0.0028992,0.0024109-0.0048828,0.0038757-0.007782,0.0048523
			c-0.0088196,0.105957,0.4735718,0.581543,0.6815796,0.7861633c0.2861938,0.2827148,0.311615,0.3124695,0.3017883,0.3554382
			c-0.0028992,0.0161133-0.016571,0.0317383-0.032196,0.0375977c-0.0126953,0.0043945-0.0274048,0.003418-0.0401001-0.0029297
			c-1.0585938-0.5664062-2.0126953-0.964325-2.977478-1.355957c-0.3301086-0.1132812-0.6543274-0.2997742-0.9160156-0.449707
			c-0.1582031-0.0908203-0.3368835-0.1933594-0.3925781-0.1972351c-0.1777344,0.4111023,1.0155945,1.5038757,1.2587891,1.6410828
			c0.1190796,0.0639954,0.6737976,0.3066406,1.164093,0.5209961c0.5907898,0.2587891,0.8075867,0.3540039,0.8866882,0.3994141
			c0.0049133,0.0019836,0.0097046,0.0039062,0.0146179,0.0063782l-0.0009155,0.0019226
			C34.6875,7.7763367,34.6875,7.785614,34.6875,7.7997742c-0.0010071,0.0195312-0.0137329,0.0371094-0.032196,0.0439453
			c-0.0116882,0.0039368-0.0244141,0.0039368-0.0352173-0.0009766c-2.7080078-1.1274109-3.2557983-1.3691101-3.4188843-1.5136719
			c-0.131897-0.0366211-0.323822-0.2133789-0.5264282-0.4008789c-0.1351929-0.1245117-0.3539734-0.3266602-0.4354858-0.3447266
			C30.2309875,5.6318054,30.2388,5.7738953,30.3096008,5.9741211c0.0966797,0.2709961,0.4208679,0.9408875,1.3466797,1.3066406
			c0.0028992,0.0014648,0.0057983,0.0029297,0.0086975,0.0048523c0.0274048,0.0185852,0.1016235,0.0512695,0.2080078,0.09375
			c0.0527954,0.02005,0.1094055,0.0415039,0.1669922,0.0639954c0.0508118,0.019043,0.1026001,0.039032,0.1573181,0.0600586
			c0.2655945,0.0981445,0.593689,0.2148132,0.9013062,0.3246765C34.3301086,8.2670593,34.5,8.3378601,34.523407,8.3881836
			c0.0048828,0.0117188,0.0058899,0.0282898,0.0009766,0.0404968c-0.0048828,0.0117188-0.0137024,0.0215149-0.0253906,0.026886
			c-0.0282898,0.0126648-0.0342102,0.0155945-2.3261108-0.8583984c-0.1249695-0.046875-0.2363892-0.0888977-0.327179-0.1250305
			c-0.2900085-0.1108093-0.5059204-0.1928406-0.5342102-0.2030945c-0.3139038-0.112793-0.6611023-0.3711243-0.9399109-0.5786133
			c-0.1729126-0.1289062-0.3871765-0.2885742-0.4483032-0.2885742c-0.000885,0-0.0014038,0-0.0023804,0
			c-0.0020142,0.0117188-0.0010071,0.0444031,0.0224915,0.1069336C30.0454102,6.7831726,30.4110718,7.2592468,30.832489,7.4375
			c0.0629883,0.0258484,0.1630859,0.0688477,0.2904968,0.1235046c0.2637024,0.1132812,0.6484985,0.2783508,1.0791016,0.4492493
			c0.3663025,0.1337585,0.6983032,0.2538757,0.9160767,0.3329773l0.2041321,0.0737305
			c0.0243835,0.0093079,0.0448914,0.0166321,0.0604858,0.0229492c0.0028992,0.0010071,0.0059204,0.0019531,0.0098267,0.0029297
			l-0.0010071,0.0010071c0.0370789,0.0170593,0.0438843,0.0302429,0.0332031,0.0615234
			c-0.0088196,0.0249023-0.0371399,0.0375671-0.0625305,0.0292969c-0.3993835-0.1279602-0.8143921-0.2832336-1.195282-0.4346008
			c-0.5772095-0.2109375-1.242218-0.4550781-1.6835938-0.6244812c-0.0014954-0.0005188-0.0028992-0.0010071-0.0049133-0.0019836
			c-0.2246094-0.1142578-0.3856812-0.2407227-0.5033875-0.3330078c-0.0552063-0.043457-0.1166992-0.0917969-0.1459961-0.1035156
			c-0.0020142,0.0263672,0.0054016,0.0957336,0.0629883,0.2070618c0.0766907,0.1474304,0.2846985,0.4433289,0.8163757,0.7646484
			c0.5708313,0.3457031,1.355011,0.6274109,2.3296204,0.8378906c0.0018921,0.0004578,0.0049133,0.0014343,0.0067749,0.0024109
			c0.0049438,0.0009766,0.0137329,0.0009766,0.0244446,0c0.0751648-0.0112,0.1865845-0.0302429,0.3076782-0.0522156
			c0.1219788-0.0249023,0.2539062-0.0532532,0.3496094-0.073761c0.3602905-0.078125,0.3602905-0.078125,0.3788757-0.0346375
			c0.0097351,0.0214539,0,0.0483398-0.0195923,0.0610046c-0.0223694,0.0151672-0.3592834,0.081543-0.6581726,0.1352844
			c-0.1884155,0.0380859-0.2949219,0.0561218-0.3564148,0.0590515c-0.0546875,0.0078125-0.0917969,0.012207-0.1044922,0.011261
			c-0.0654297-0.0087891-0.4707031,0.0404968-0.5801086,0.0678406c0.0048828,0.0131836,0.0166016,0.0336914,0.0391235,0.0585938
			c0.0985718,0.105011,0.4608765,0.3423157,1.6903992,0.2744141c0.0937805-0.0053406,0.407196-0.0927734,0.6825867-0.1704102
			c0.5527954-0.1542664,0.5546875-0.1508789,0.5791016-0.1029968c0.0039062,0.0063171,0.0185852,0.0385437-0.0166016,0.0678406
			c-0.0713196,0.0585938-1.5537109,0.4844055-1.6367188,0.4907227C33.7118835,9.6425476,33.6875,9.6454773,33.655304,9.6488953
			c-0.2657166,0.0302734-0.4317322,0.0551758-0.4981079,0.0756836c0.0733032,0.0742493,0.4130859,0.3041992,1.1708679,0.3471985
			c0.5713196,0.0278015,1.5401306-0.2333984,1.9541016-0.3452454c0.2237244-0.0605469,0.2237244-0.0605469,0.2442322-0.0249023
			c0.0106812,0.0185547,0.007782,0.0429993-0.0069275,0.0585938c-0.0184631,0.019043-0.0604858,0.0366211-0.8173828,0.2841492
			c-0.2695007,0.0884094-0.5750732,0.1880188-0.6102905,0.2045898c0,0.0005188-0.0010071,0.0010376-0.0020142,0.0015259
			c-0.0272827,0.0140991-0.093689,0.0220032-0.2626953,0.0394897c-0.0820007,0.0083008-0.1981812,0.0201111-0.257782,0.0312805
			c0.0214844,0.0229187,0.0634766,0.0586243,0.139679,0.0991211c0.2557983,0.1352844,1.0350952,0.3945007,2.7304993-0.1304016
			c0.0205078-0.0062866,0.0419006,0.0014954,0.0537109,0.019104c0.0116882,0.0176086,0.0106812,0.0409851-0.0019836,0.0570984
			c-0.1611023,0.1996765-0.6992188,0.3461914-1.054718,0.4429016c-0.0840149,0.0228882-0.1689148,0.0463867-0.2177124,0.0625
			c0.0673218,0.0643921,0.2636108,0.2051086,0.555603,0.2646179c0.1690063,0.034668,0.4130859,0.0331726,0.6690063-0.0039368
			c0.3885803-0.0712891,0.8309937-0.2064819,1.4179077-0.7035828c0.0107727-0.0101929,0.0263977-0.0137024,0.0409851-0.0101929
			c0.0157166,0.0028992,0.0274048,0.013092,0.0341797,0.0267944c0.0489502,0.1098938-0.1591797,0.2480774-0.852478,0.6353149
			c-0.1817017,0.1014709-0.4024048,0.2245789-0.4776001,0.2821655c0.3301086,0.2065125,1.2949829-0.0609741,1.3780212-0.1029968
			c0.6708984-0.3442993,1.9471741-1.0317688,2.0342102-1.1547852c0.0047607-0.0195923,0.0204773-0.0351868,0.0409851-0.0380859
			c0.0253906-0.003418,0.0487976,0.0136719,0.0536804,0.0380859c0.0010071,0.0038757,0.0010071,0.0078125,0.0010071,0.0117188
			c0.0009155,0.0092773,0,0.0199585-0.0097961,0.0351868c-0.0615234,0.1092834-0.4169922,0.325592-1.710907,1.0243835
			c-0.3417969,0.1845093-0.694397,0.375-0.8027954,0.4458008c0.1991882,0.1478882,0.9375-0.0492859,1.007782-0.0815735
			c0.0215149-0.0117188,0.3321228-0.1654968,0.6319275-0.3144226c0.2549133-0.1264954,0.5184937-0.257782,0.532196-0.2647095
			c0.023407-0.0126648,0.0527039-0.0043945,0.0653992,0.019104c0.0058899,0.0092163,0.0185852,0.0400085-0.0195007,0.0653992
			v0.0004883c-0.0010071,0-0.0020142,0.0005493-0.0029297,0.0015259c-0.0019836,0.000885-0.0029907,0.0018921-0.0048828,0.0024109
			c-0.7353821,0.4100952-1.1005859,0.6708984-1.139679,0.7475891c0.0039062,0.0083008,0.0058899,0.0174866,0.0048828,0.0272827
			c-0.0038757,0.0288391,0.0039062,0.0464172,0.0263977,0.0610352c0.2373047,0.1542664,1.4697266-0.2602234,1.945282-0.4526062
			c0.1133423-0.0537109,0.1914368-0.0869141,0.1943359-0.0874023c0.0224915-0.0033875,0.0458679,0.0092773,0.0536804,0.0307922
			c0.0030212,0.0062866,0.0126953,0.0394897-0.0243835,0.0614929c-0.0292969,0.0171204-0.109314,0.0527039-0.2256165,0.0986023
			c-0.2850952,0.1416016-0.7342834,0.397522-0.7655945,0.523407c0.1054993,0.1539001,0.2880859,0.2573853,0.5429993,0.308197
			c0.4354858,0.0868835,0.9403992-0.0162048,1.0371094-0.0825806c0.0361023-0.0254211,0.0643921-0.0088196,0.0722961-0.0034485
			c0.0438843,0.0313416,0.0302124,0.0908203-0.0176086,0.2593079c-0.0009766,0.003418-0.0019836,0.0072937-0.0028992,0.0112305
			c0.0742188-0.0848999,0.1727905-0.210907,0.2225952-0.3130188c0.0108337-0.0213928,0.0351868-0.032196,0.0585938-0.0243835
			c0.022522,0.0072937,0.0361328,0.0307922,0.032196,0.0541992c-0.0145874,0.0795898-0.0516663,0.1777954-0.0946655,0.2915039
			c-0.0439148,0.1142883-0.093689,0.2441711-0.1299133,0.3822937c-0.030304,0.1181946-0.0516968,0.2426758-0.0742188,0.3745728
			c-0.0282898,0.160614-0.0565796,0.3261108-0.1044922,0.4995117c0.0361023-0.0180969,0.093811-0.0585938,0.1630859-0.1337891
			c0.0889282-0.0962219,0.2607117-0.3276978,0.3144226-0.7079773c0.0126953-0.128418,0.0186157-0.252533,0.0118103-0.3604126
			c-0.0010071-0.023407-0.0030212-0.047821-0.0059204-0.0722351c-0.0018616-0.0263977,0.0166016-0.0497742,0.0429993-0.0527954
			c0.0263062-0.0028992,0.0498047,0.0161133,0.0527039,0.042511c0.0028992,0.0249023,0.0058899,0.0513,0.0068054,0.078125
			c0.0079041,0.1269836,0.0040283,0.2504883-0.0116882,0.3696899c-0.0223999,0.2323914-0.0654297,0.4790039-0.1006165,0.6810913
			c-0.0301819,0.1748047-0.0643921,0.3716125-0.0575867,0.4267883c0.0107727,0.0014038,0.0253906-0.003479,0.0361938-0.0087891
			c0.1699219-0.0785828,0.4579773-0.5473938,0.4912109-0.8648071c0.0018616-0.0205078,0.016571-0.0375977,0.0370789-0.0419922
			s0.0410156,0.0043945,0.0517273,0.0220032c0.0995789,0.1651001,0.3173828,0.5253906,0.5126953,0.6704102
			c-0.0019226-0.0342102-0.0039062-0.0635071-0.0049133-0.089325c-0.0067749-0.1425781-0.0086975-0.1856079-0.0830078-0.4096985
			c-0.0018921-0.0072937-0.0028687-0.0145874-0.0018921-0.0220032c0.0537109-0.3724976,0.0643921-0.8734741,0.0771179-1.4535828
			l0.0029907-0.1426086c0-0.0218811,0.0145874-0.0404968,0.0361023-0.0458984
			c0.0214844-0.0052795,0.0429993,0.0039062,0.0536804,0.0230103c0.5780945,1.0166016,0.8506165,1.4940796,0.6992188,2.3099976
			c0.0058899-0.0033875,0.0116882-0.0072937,0.0166016-0.0112c0.1592102-0.1177063,0.3399048-0.5848999,0.3222961-0.8335266
			c-0.0020142-0.0249023,0.0155945-0.046875,0.039978-0.0507812C45.1181641,13.1395874,45.1210938,13.1391907,45.1229858,13.1391907
			L45.1229858,13.1391907z M46.3739929,14.2147827h0.0009766H46.3739929L46.3739929,14.2147827z M46.3554993,14.2660828
			c-0.0166016,0-0.0381165-0.0023804-0.0655212-0.0063171c-0.0370789-0.0054016-0.8270874-0.129364-1.1385803-0.8412781
			c-0.0537109,0.2680054-0.2002258,0.5794983-0.3409119,0.6835938c-0.0653992,0.0487976-0.1180725,0.0444031-0.1513062,0.0317078
			c-0.0224915-0.0083313-0.0351868-0.0317078-0.030304-0.0546875c0.1543274-0.7427063-0.0282898-1.1606445-0.5888977-2.1538391
			c-0.0126953,0.5639954-0.0243835,1.0518188-0.0761108,1.4219055c0.0752258,0.2275085,0.078125,0.2822266,0.0848999,0.4243164
			c0.0020447,0.0463867,0.0049438,0.1025085,0.0108337,0.1787109c0.000885,0.0170593-0.0069275,0.0331726-0.0205078,0.0429993
			c-0.0137024,0.0097046-0.031311,0.0116882-0.0469055,0.0047913c-0.2041016-0.0898132-0.4247742-0.418396-0.5645142-0.6439819
			c-0.0838928,0.3388672-0.3486023,0.7333679-0.5233765,0.8139648c-0.0674133,0.0307007-0.1133118,0.015625-0.1397095-0.0029907
			c-0.0527039-0.0361023-0.0429077-0.1245117,0.0263977-0.5195007c0.006897-0.0419922,0.0147095-0.0854187,0.0224915-0.1304016
			c-0.1073608,0.1924133-0.2392883,0.3188782-0.3329773,0.375c-0.0655212,0.0386047-0.1152954,0.0473938-0.1485291,0.0249023
			c-0.0214844-0.0151062-0.032196-0.0415039-0.0272827-0.0711975c0-0.0019836,0-0.0039978,0.0009766-0.0063782
			c0.055603-0.1846008,0.0859375-0.3628235,0.1152344-0.5352173c0.023407-0.1341858,0.0448914-0.2607117,0.0770874-0.3828125
			c0.0323181-0.1254883,0.0751953-0.243103,0.1152954-0.3490906c-0.0635071,0.0776062-0.1231079,0.1397095-0.1503906,0.1591797l0,0
			c-0.0244141,0.0176086-0.0487976,0.0122375-0.0644836,0.0019226c-0.0390015-0.0283203-0.0254211-0.0751038,0.0136719-0.2153015
			c0.0098267-0.0342102,0.023407-0.0815125,0.031311-0.1195984c-0.1875,0.0762024-0.6446228,0.1473999-1.0489197,0.0668945
			c-0.2889709-0.0581055-0.4960632-0.1807251-0.6152039-0.3647766c-0.0048828-0.007843-0.007782-0.0171204-0.007782-0.026825
			c0.0018921-0.0986938,0.1405945-0.2212219,0.3174133-0.3369141c-0.0849915,0.0278015-0.1729126,0.055603-0.2618103,0.0830078
			c-0.6416016,0.1937866-1.0410156,0.2441101-1.1875,0.1494141c-0.0477905-0.0317993-0.0722046-0.0780945-0.0703125-0.1352844
			c-0.0057983-0.0122375-0.007782-0.0258179-0.0057983-0.0400391c0.0057983-0.0513,0.0888062-0.1342773,0.2460938-0.2489929
			c-0.0927734,0.0464172-0.1572876,0.0786133-0.1669922,0.0834961c-0.0087891,0.0043945-0.9599915,0.3144226-1.1611938,0.0200195
			c-0.000885-0.0014954-0.0018921-0.0033875-0.0028992-0.0048828c-0.0214844-0.0410156-0.0292969-0.0552368,0.2353821-0.2046204
			c-0.3700562,0.0883789-0.961853,0.1802063-1.2050781-0.0263977c-0.0147095-0.0135803-0.0204773-0.031189-0.0185852-0.0493164
			c0.0048828-0.039978,0.0478821-0.0785828,0.2548828-0.1991882c-0.1006165,0.0283203-0.1962891,0.0487976-0.2861023,0.0653992
			c-0.2686157,0.0386047-0.5243835,0.0401001-0.7041016,0.003479c-0.344696-0.0703735-0.6493835-0.2797852-0.6552734-0.3754883l0,0
			c-0.0019226-0.0541992,0.039978-0.0654907,0.3114624-0.1391907c0.2159424-0.0585938,0.5274048-0.1434937,0.7530212-0.2456055
			c-0.7167969,0.1953125-1.3378906,0.2666016-1.8516235,0.2114258c-0.453064-0.0488281-0.7236023-0.1924133-0.8183899-0.3008118
			c-0.0361023-0.0410156-0.0467834-0.0776062-0.032196-0.1087952c0.0195007-0.0391235,0.0625-0.0488892,0.3554993-0.0787048
			c0.0878906-0.008728,0.2080078-0.0209045,0.2295227-0.0292053l0,0c0.0253601-0.0132141,0.1034851-0.0401001,0.3505859-0.1216125
			c-0.3760071,0.0786133-0.7763977,0.1396179-1.0743103,0.1250305c-0.7744141-0.0435181-1.1816101-0.2905884-1.2578125-0.4033813
			c-0.0174866-0.0273438-0.0233765-0.0527344-0.015564-0.0761719c0.0185852-0.0488281,0.0829773-0.0776367,0.594696-0.1352539
			c0.0312805-0.003418,0.0556946-0.0063171,0.070282-0.0083008c0.0284119-0.0019531,0.1651001-0.0380859,0.3466797-0.0898438
			c-1.2977905,0.0629883-1.6454773-0.2182617-1.73526-0.3432312c-0.0362244-0.0508118-0.0479126-0.101593-0.0332031-0.1391602
			c0.0106812-0.0263672,0.0174866-0.0449524,0.3270874-0.0854797c0.0166016-0.0024109,0.0567017-0.0073242,0.1045227-0.0126648
			c-2.203125-0.5312805-2.917511-1.359375-2.9878235-1.7793274c-0.0140991-0.0854187,0.007782-0.1230469,0.0307922-0.1396179
			c0.0620117-0.0517883,0.1395874,0.0092468,0.2670898,0.1093445c0.1141968,0.0893555,0.2700195,0.2119141,0.4858093,0.3217773
			c0.0186157,0.0073242,0.0376282,0.0146484,0.0575867,0.0219727c-0.4217834-0.2787781-0.7401733-0.7797546-0.7538757-0.9824219
			c-0.0039062-0.0644531,0.0224915-0.09375,0.0448914-0.1069336c0.0870361-0.0541992,0.2344055,0.0512695,0.5601196,0.2934875
			c0.1371765,0.1025391,0.2915039,0.2172546,0.4487,0.3197937c-0.4354858-0.3666687-0.660614-0.8149109-0.723114-1.1616211
			c-0.0176086-0.0986023-0.0282898-0.2250977,0.0215149-0.269989c0.0053101-0.0049133,0.0116882-0.0083313,0.0189819-0.0107727
			c0.1065063-0.0302429,0.2769165,0.1196289,0.5449219,0.3671875c0.1821594,0.1679993,0.3886719,0.358429,0.4941711,0.3804016
			c0.0087891,0.0019226,0.0176086,0.0063171,0.023407,0.0126648c0.0859985,0.081543,0.3242188,0.2036133,1.1387024,0.5532227
			c-0.4121094-0.328125-1.3661804-1.2495117-1.1416016-1.676239c0.0010071-0.0019836,0.0019226-0.0039368,0.0028992-0.0058594
			c0.0606079-0.0830383,0.2030945-0.0010071,0.5155945,0.1781921c0.2579041,0.1479492,0.5782166,0.3320312,0.9024048,0.4429016
			c0.9013062,0.3656921,1.7910156,0.7358093,2.7646179,1.2426453c-0.0381165-0.0380859-0.0791016-0.0786133-0.1191101-0.1176453
			c-0.4989929-0.4927063-0.7324219-0.7495422-0.7070007-0.8774414c0.0057983-0.0283508,0.023407-0.0508118,0.0498047-0.0629883
			c0.0996094-0.0644531,0.3828125,0.0619812,1.0537109,0.3725281c0.6971741,0.3227539,1.6512756,0.7641602,2.5868835,1.012207
			c0.0742188,0.0107422,0.1650085,0.0239258,0.2666016,0.0380859c0.6610718,0.0942383,1.8193054,0.2592773,2.4844055,0.4682922
			c-0.0010071-0.0058594-0.0010071-0.0122375,0.000885-0.0180969c0.272522-1.2163086,0.953186-1.644043,1.4756165-1.7885742
			c0.3955078-0.1093445,0.7471008-0.0717773,0.9726868-0.0209961c0.2772827,0.0625305,0.5166016,0.1791992,0.6592102,0.3212891
			c0.6513062,0.0639648,0.9970093,0.2255859,1.0282898,0.4804688c0.0273132,0.2290344-0.2245789,0.4365234-0.3731079,0.4883118
			c-0.0166016,0.0058594-0.0360718,0.0019226-0.0487976-0.0102539c-0.0136719-0.0127258-0.0184937-0.0312805-0.0136719-0.0483398
			C44.782196,7.1342773,44.780304,7.0688171,44.75,7.0219421c-0.0166016-0.0263672-0.0420227-0.046875-0.0742188-0.0639648
			c-0.0048828,0.0107727-0.0126953,0.0200195-0.0243835,0.0249023c-0.1153259,0.0507812-0.186615,0.0532532-0.2852173,0.0561829
			c-0.0477905,0.0014648-0.101593,0.0029297-0.1727905,0.0102539c-0.0655212,0.0087891-0.2929993,0.0536804-0.4033813,0.2548828
			c-0.0947266,0.1728516-0.0742188,0.4096375,0.0615845,0.703125c0.000885,0.0024109,0.0018921,0.0043945,0.0028992,0.0068054
			l0.0028992,0.0087891c0.0108032,0.0371399,0.0253906,0.0869446,0.0712891,0.139679
			c0.3096313,0.1664734,0.6708984,0.5248718,1.0751953,1.0658875c0.0049133,0.0068359,0.0087891,0.0151672,0.0098267,0.0239563
			c0.0253906,0.2333679,1.4667664,1.4106445,2.1102905,1.8071289c0.006897,0.0043945,0.0126953,0.0101929,0.0166016,0.0175171
			c0.093811,0.1651001,0.3262024,0.3432922,0.531311,0.5c0.2626953,0.2016907,0.4530945,0.3466797,0.4110718,0.4790955
			c-0.0067749,0.0180054-0.0224915,0.031189-0.0419922,0.0332031c-0.0361023,0.003418-0.0722046,0.0047913-0.1083984,0.0047913
			c-0.4844055,0-1.0438843-0.2773132-1.4940796-0.6015015c0.2635803,0.2651062,0.4130859,0.4432983,0.3866882,0.5585938
			c-0.0068054,0.0278015-0.030304,0.0766296-0.1133118,0.0927124c-0.2059937,0.0401001-0.7255859-0.1430054-1.2050781-0.4663086
			c0.1875,0.2964172,0.289093,0.5718079,0.3779907,0.8144836c0.055603,0.1533203,0.1092834,0.297821,0.1756897,0.4214172
			c0.1455994,0.2383118,0.2763977,0.2987976,0.3809204,0.3475952c0.0712585,0.0327148,0.1386719,0.0639954,0.1757812,0.1446228
			c0.0107117,0.0228882,0.0018921,0.0506897-0.0204773,0.0625c-0.1865234,0.1014709-0.3916321-0.0527954-0.5567017-0.1763306
			c-0.0732117-0.0551758-0.1435242-0.1078796-0.1992188-0.1293945c-0.0223999,0.1289062,0.264679,0.5493164,0.4190063,0.7753906
			c0.1385803,0.2036133,0.164978,0.2461243,0.1630859,0.2803345c-0.0010071,0.007782-0.0029907,0.0145874-0.006897,0.0209961
			C46.4042664,14.257782,46.3887024,14.2660828,46.3554993,14.2660828L46.3554993,14.2660828z"/>
		<path class="st2" d="M36.2392883,7.4267273c0,0-0.4141235,0.2871094-0.929718,0.27005
			c0.1289062,0.4726257,1.1963196,0.1098633,1.1963196,0.1098633s-0.515686,0.523407-0.8837891,0.6079102
			c0.2206726,0.168457,1.1503906,0.1093445,1.3075867,0.0249023c0.156189-0.0845032,0.4326172-0.4136047,0.4326172-0.4136047
			s-0.9580078,1.0131836-1.0957031,1.0048828c-0.0186157,0.1181641,1.0028687,0.0756836,1.2147827-0.1015625
			c0.2120056-0.1772461,0.7452087-0.4389648,0.7452087-0.4389648s-1.3984985,0.8950195-1.4628906,0.8950195
			c0.5243835,0.1264954,1.5741882-0.151825,2.2460632-0.5317383c-0.9941711,0.6074219-1.0868835,0.7172852-1.5927734,0.9199219
			c0.4512024,0.092804,0.6806946,0.371582,2.2089844-0.2363281C40.5,9.1572266,40.9971008,8.4648132,40.9971008,8.4648132
			c-0.5430298,0.6669922-1.3985291,1.2329407-2.3467102,1.7900696c-0.0556946,0.1011047,1.0126953,0.5145874,2.375-0.7851868"/>
		<path class="st3" d="M36.7637024,9.3368835L36.7637024,9.3368835L36.7637024,9.3368835L36.7637024,9.3368835z
			 M39.141571,10.4447937c-0.2675781,0-0.4433899-0.066925-0.4970703-0.1079102
			c-0.0615234-0.0473022-0.0429077-0.092804-0.0361328-0.1054993c0.0039062-0.0072937,0.0098267-0.0141296,0.0176086-0.0185242
			c0.3379211-0.1986694,0.6787109-0.4057617,1-0.6240234c-1.2773743,0.5058594-1.6503906,0.3945618-2.0108032,0.2871094
			c-0.0692749-0.0209961-0.1356812-0.0404968-0.2080078-0.0551453c-0.0204773-0.0043945-0.0360718-0.0219727-0.0380859-0.0429993
			c-0.0018921-0.0214539,0.0097961-0.0410156,0.030304-0.0492859c0.3486023-0.1391602,0.4971008-0.233429,0.8926086-0.4844055
			c0.0243835-0.015625,0.0508118-0.0322266,0.0770874-0.0487976c-0.5760803,0.2089539-1.2235718,0.3315125-1.6170959,0.2367859
			c-0.0234985-0.0058594-0.039093-0.0283203-0.0361938-0.0527344c0.0020142-0.0219727,0.0196228-0.039032,0.0409851-0.0419617
			c0.0362244-0.0122375,0.2051086-0.1123352,0.4268188-0.2485657c-0.3418274,0.0698547-0.8096008,0.074707-0.9208984,0.012207
			c-0.0469055-0.0263672-0.0458984-0.0629883-0.0439148-0.078125c0.0039062-0.0244141,0.0263062-0.0424805,0.0507202-0.0405273
			c0.0546875-0.0082703,0.2714844-0.2006836,0.5361938-0.4584961c-0.3222961,0.0600586-1.0118103,0.0820312-1.2128906-0.0712585
			c-0.0147095-0.011261-0.0215149-0.030304-0.0176086-0.0483398c0.0038757-0.0185852,0.0185852-0.0327454,0.0360718-0.0371399
			c0.2354126-0.0536804,0.5391235-0.300293,0.7158203-0.4589844c-0.243103,0.0620117-0.656189,0.1372375-0.8934937,0.011261
			c-0.0879211-0.046875-0.1455078-0.1177063-0.170929-0.2099915c-0.0038757-0.0146484-0.0009766-0.0307617,0.0088196-0.0424805
			c0.0097961-0.012207,0.0233765-0.0185242,0.0390015-0.0185242c0.4942017,0.016571,0.8965149-0.2588196,0.9013977-0.261261
			c0.0215149-0.0151367,0.0518188-0.0097351,0.0664062,0.0117188c0.0155945,0.0219727,0.0097961,0.0522461-0.0116882,0.0673828
			c-0.0166321,0.0112305-0.3945312,0.2695312-0.8847961,0.2793274c0.0224915,0.0365906,0.0546875,0.0658875,0.0976868,0.0888672
			c0.3066101,0.1625977,1.0039062-0.0713196,1.0106812-0.073761c0.0215149-0.0068054,0.0450134,0.0009766,0.0567322,0.0200195
			c0.0116882,0.019043,0.0087891,0.0434875-0.0069275,0.0596008c-0.0195007,0.0195007-0.430603,0.4345398-0.7879944,0.5820007
			c0.1210022,0.0361633,0.313385,0.0546875,0.546814,0.0512695c0.2958984-0.0043945,0.5458679-0.0429382,0.6074829-0.0766296
			c0.0283203-0.0151672,0.0605164-0.039093,0.094696-0.0679016c0.108429-0.1088867,0.218689-0.2231445,0.3261108-0.3363953
			c0.0176086-0.0185852,0.0469055-0.02005,0.0664978-0.0029297c0.0195007,0.0175781,0.0223999,0.0473328,0.0047913,0.0673828
			c-0.0087891,0.0102539-0.1737671,0.206543-0.3231812,0.3354492c-0.25,0.253418-0.5429993,0.535614-0.7080078,0.6420593
			c0.2167969,0.0376282,0.9131165,0.0004883,1.0830078-0.1425476c0.2138977-0.1787109,0.7333984-0.4341125,0.7559204-0.4453125
			c0.0223694-0.011261,0.0506592-0.0024719,0.0624695,0.019989c0.0126953,0.0219727,0.0057983,0.0503235-0.015686,0.0639648
			c-0.6708984,0.4296875-1.1191101,0.7070618-1.3379211,0.8301086c0.5186157,0.047821,1.4327087-0.1889648,2.0704346-0.5493164
			c0.0233765-0.0131836,0.0516663-0.0054016,0.0653687,0.0170593c0.0137329,0.0229492,0.0057983,0.0522461-0.0166016,0.065918
			c-0.3007812,0.1836243-0.5166016,0.3208008-0.6903687,0.4311829c-0.3467102,0.2197266-0.5069275,0.3207703-0.7734985,0.4365234
			c0.024353,0.0068054,0.0487671,0.0141296,0.0722656,0.0214539c0.3467102,0.1030579,0.7051086,0.2099915,1.9658203-0.2915039
			c0.3007812-0.1303711,0.5565796-0.2997742,0.7626953-0.4643555c0.2206726-0.188446,0.4198914-0.3857422,0.5888977-0.5932617
			c0.0166016-0.019989,0.0458984-0.0239258,0.0664062-0.0078125c0.0205078,0.0156555,0.0253906,0.0449524,0.0097046,0.0664062
			c-0.0127258,0.019043-0.233429,0.3208008-0.6328125,0.6333008c-0.4960938,0.4189758-1.0918274,0.7944336-1.6844788,1.144043
			c0.0379944,0.0224915,0.1209717,0.0552063,0.2567749,0.0703125c0.2861023,0.0326843,1.0565796,0.0097656,2.0155945-0.90625
			c0.0195007-0.0180359,0.0498047-0.0175781,0.0684204,0.0014648c0.0184631,0.0195312,0.0174866,0.0498047-0.0010071,0.0683594
			C40.2597961,10.266571,39.578064,10.4447937,39.141571,10.4447937L39.141571,10.4447937z"/>
		<path class="st2" d="M43.6386719,10.2460938c0,0,0.0927124,0.3969727,0.4598999,0.7006836
			c0.3692017,0.3041992,0.3965149,0.5996094,0.3965149,0.5996094"/>
		<path class="st3" d="M44.4950867,11.5941772c-0.0244141,0-0.0458984-0.0184937-0.047821-0.043396
			c-0.0009766-0.0025024-0.0331726-0.2812805-0.3788757-0.5668945c-0.3760071-0.3106079-0.4727173-0.710022-0.4766235-0.726593
			c-0.0058899-0.0263062,0.0098267-0.0517273,0.0361328-0.0581055c0.0263977-0.0057983,0.0517883,0.0102844,0.0575867,0.0361938
			c0.0010071,0.0038757,0.0937805,0.3851929,0.4444275,0.6742859c0.3788757,0.3130188,0.4120789,0.6191101,0.4130859,0.6323242
			c0.0018921,0.0263977-0.0166321,0.0498047-0.0440063,0.0521851
			C44.4979858,11.5941772,44.4960938,11.5941772,44.4950867,11.5941772L44.4950867,11.5941772z"/>
		<path class="st2" d="M43.4550781,7.6630859c0,0,0.1289062,0.3544922,0.5057983,0.582489
			c0.3868103,0.2280273,0.9667969,0.945343,1.0127258,1.0717773c0.0449829,0.1533508,0.2666016,1.2583313,0.2480774,1.3764343"/>
		<path class="st3" d="M45.2216797,10.7416687c-0.0019836,0-0.0048828,0-0.006897-0.0004883
			c-0.0263062-0.0039062-0.0448914-0.0288086-0.0400085-0.0552063c0.015625-0.1029968-0.2001953-1.1903687-0.2471008-1.35495
			c-0.0428772-0.1181335-0.618103-0.8241882-0.9911804-1.0439148c-0.3876953-0.2344055-0.5214844-0.5923157-0.5272827-0.6074524
			c-0.0088196-0.0253601,0.0038757-0.0527344,0.0292969-0.0619812C43.4628906,7.6083679,43.4912109,7.6215515,43.5,7.6464539
			c0.0009766,0.0034485,0.1289062,0.3418274,0.4862976,0.5576172c0.3964844,0.2339172,0.9853821,0.9658203,1.0322876,1.097168
			c0.0390015,0.1337891,0.2723999,1.2641296,0.2509155,1.3999634
			C45.2655945,10.7245789,45.2450867,10.7416687,45.2216797,10.7416687L45.2216797,10.7416687z"/>
		<path class="st2" d="M41.1073608,8.2118835c0.0283203,0.1347656-0.5428467,0.8188477,0.2393494,1.620636
			c-0.7080383,0.793457-0.7080383,0.8949585-0.7080383,0.8949585s0.3955078,0.2026978,1.1044922-0.3544922
			c1.1689148,1.3168945,0.7793274,1.9194946,0.7793274,1.9194946"/>
		<path class="st3" d="M42.5224915,12.3407898c-0.0088196,0-0.0185852-0.0024109-0.0263977-0.0078125
			c-0.0224915-0.0145874-0.0282898-0.0444031-0.0147095-0.0668945c0.0039978-0.0054016,0.342804-0.5845032-0.7450867-1.8276062
			c-0.7021179,0.5351257-1.1025085,0.3403015-1.1201172,0.3320007c-0.0155945-0.0083008-0.0263977-0.0249023-0.0263977-0.0429993
			c0-0.0746765,0.2520142-0.3994141,0.6914978-0.8940125c-0.5976868-0.6396179-0.3731079-1.2070312-0.2637024-1.4819031
			c0.0205078-0.0508118,0.0449219-0.1133118,0.0429077-0.1303711c-0.0028992-0.0259094,0.0137024-0.0512695,0.0401001-0.0556641
			c0.0253906-0.0039368,0.0487976,0.0112,0.054718,0.0366211c0.0087891,0.0429382-0.0127258,0.0961609-0.0479431,0.1850281
			c-0.3192749,0.8032227,0.0664368,1.1992493,0.2744446,1.4116516c0.0175781,0.0180359,0.0185852,0.046875,0.0009766,0.065918
			c-0.4852905,0.5439453-0.6337891,0.7582397-0.6786804,0.8344116c0.0438843,0.0112305,0.1200867,0.022522,0.2255859,0.0108337
			c0.1630859-0.0181274,0.4316101-0.0982056,0.7832031-0.375c0.0205078-0.0157166,0.0487976-0.0132141,0.0664062,0.0057983
			c1.1796875,1.3291016,0.7998047,1.952179,0.7832031,1.9779968C42.5537109,12.3329773,42.5380859,12.3407898,42.5224915,12.3407898
			L42.5224915,12.3407898z"/>
		<path class="st2" d="M42.4286804,11.3627625c0,0-0.1073914-0.141571,0.0849915-0.6698914
			c0.1727905,0.1908875,0.3652344,0.2319031,0.4492188,0.3091125c0.0839844,0.0776062,0.9667969,0.1947937,1.0224915,0.7352905"/>
		<path class="st3" d="M43.9853821,11.7855835c-0.0245056,0-0.0450134-0.0185242-0.0479126-0.0429077
			c-0.0390625-0.3814087-0.5448914-0.5415039-0.8163757-0.6279907c-0.1104126-0.0346069-0.164093-0.0527039-0.1914062-0.0771179
			c-0.0253906-0.0238953-0.0683899-0.0463867-0.1181946-0.0718079c-0.078125-0.039978-0.1786804-0.0922852-0.2782898-0.184082
			c-0.1416016,0.425293-0.0653992,0.5523071-0.0643921,0.5532837c0.0135803,0.0219116,0.0086975,0.0517273-0.0127258,0.0664368
			c-0.0215149,0.0145874-0.0498047,0.0111694-0.0655212-0.0093384c-0.0126648-0.016571-0.1180725-0.1781616,0.07724-0.715271
			c0.0057983-0.0162048,0.0194702-0.0279236,0.0361023-0.031311c0.016571-0.0028992,0.0341797,0.0024109,0.0448608,0.0151062
			c0.1045227,0.1147766,0.2167969,0.1728821,0.3067322,0.2192993c0.055603,0.0287781,0.1044922,0.0541992,0.1395874,0.0863953
			c0.0147095,0.012207,0.0899048,0.0357056,0.155304,0.0566101c0.2929993,0.092804,0.8368835,0.2657166,0.8828125,0.7095032
			c0.0028992,0.0263977-0.015625,0.050293-0.0430298,0.0531921C43.9892883,11.7855835,43.9872742,11.7855835,43.9853821,11.7855835
			L43.9853821,11.7855835z"/>
		<path class="st2" d="M43.4667969,6.4042664c0-0.0400391-0.1777039-0.3896484-0.8408203,0.0478516
			C42.9813843,6.4716492,43.3320007,6.6586609,43.4667969,6.4042664L43.4667969,6.4042664z"/>
		<path class="st3" d="M43.4667969,6.4042664L43.4667969,6.4042664L43.4667969,6.4042664L43.4667969,6.4042664z
			 M42.7714844,6.4189148c0.0585938,0.0093079,0.1162109,0.0205078,0.1727905,0.0312805
			c0.2393188,0.046875,0.3926086,0.0697937,0.4698181-0.0517883c-0.0108032-0.0219727-0.0429993-0.0678711-0.1094055-0.094696
			C43.2138672,6.2670898,43.0487976,6.2616882,42.7714844,6.4189148L42.7714844,6.4189148z M43.218811,6.5849609
			c-0.0899353,0-0.1905212-0.02005-0.2929993-0.0400696C42.8270874,6.5258484,42.7255859,6.5058594,42.6229858,6.5
			c-0.0205078-0.0010071-0.0379944-0.0156555-0.0438843-0.035675c-0.0049133-0.019989,0.0028992-0.0410156,0.0204773-0.0527344
			C43.0126953,6.1391296,43.25,6.1625671,43.3759766,6.2304688c0.0908203,0.0487976,0.1386108,0.1322937,0.1386108,0.1737976
			c0,0.007843-0.0019226,0.015625-0.0048218,0.0224915C43.445282,6.5483398,43.3417969,6.5849609,43.218811,6.5849609
			L43.218811,6.5849609z"/>
		<path class="st2" d="M49.7938843,8.0033875c0.0332031,0.0151367,1.9815063,0.4023743,2.6309052,0.2084961
			c-0.8281097,1.0127258-2.4844208,0.3276367-2.4844208,0.3276367c0.8116302,0.2236633,0.8448181,0.2084961,1.1045074,0.4170227
			c0.0811157,0.1938171-1.4940948,0.1044617-2.0135651-0.1636047c1.4452972,0.4170227,1.4774933,0.387207,1.5262604,0.5507812
			c0.0645142,0.2236633-2.3710785-0.0595703-2.5819855-0.3574219c0.6493835,0.4619141,1.0067749,0.5512695,1.3641968,0.7597961
			c-0.438385,0.1786804-1.25,0.3573914-2.7441101-0.6108398c1.9648132,1.6381226,3.7344208,1.5341187,4.0107117,1.8320007
			c-0.6815796,0.9233398-3.3291016-0.5512695-4.5467834-1.2958679c-1.217804-0.7446594,2.6630859,1.8021851,3.0204773,1.7572937
			c-0.1786804,0.2533875-1.4609985,0.0298157-1.5429688-0.0892944"/>
		<path class="st3" d="M48.6190796,11.5927734c-0.0067749,0-0.0135803,0-0.0195007,0
			c-0.3983765-0.0033875-1.0282898-0.1177063-1.101593-0.2261047c-0.015625-0.0220032-0.0097046-0.0521851,0.0126953-0.0668945
			c0.0214844-0.0151062,0.0518188-0.0093079,0.0664062,0.0126953c0.0527954,0.0591125,0.6835938,0.2065125,1.1465149,0.1812134
			c0.1152649-0.0064087,0.1894836-0.022522,0.2373047-0.0406189c-0.2509155-0.0839844-0.8017273-0.3851929-1.6425171-0.8988953
			c-0.4131165-0.2528687-1.5126953-0.9433594-1.5381165-0.9985046c-0.0087891-0.0195618-0.0038757-0.0424805,0.0127258-0.0566711
			c0.031189-0.0282898,0.031189-0.027832,0.2919922,0.1313782c1.1131897,0.680603,3.7518921,2.1582031,4.4550018,1.3432312
			c-0.0966187-0.066925-0.3076172-0.1167297-0.5868988-0.1831055c-0.7557983-0.1782227-2.0205078-0.4770203-3.3885803-1.6181641
			c-0.0196533-0.0161133-0.022522-0.0449219-0.0079346-0.0654297c0.0157166-0.0205078,0.0440063-0.0258789,0.0655212-0.012207
			c0.6708984,0.4350586,1.6610718,0.9657898,2.6034851,0.6425781c-0.0899048-0.0478516-0.1825867-0.0913086-0.2783203-0.1367188
			c-0.2402954-0.112793-0.5087891-0.2397156-0.8798523-0.4921875c-0.0635376-0.0307617-0.108429-0.0620117-0.1309509-0.0942383
			c-0.0135803-0.019043-0.0116882-0.0449219,0.0049438-0.0615234c0.0175781-0.0170898,0.0429993-0.019043,0.0624695-0.0053711
			c0.0449219,0.0317383,0.0878906,0.0620422,0.1299133,0.090332c0.2646179,0.1196594,0.9013977,0.2495117,1.5682983,0.3110352
			c0.5079193,0.046875,0.7520142,0.0249023,0.8057098-0.0038757c-0.0282898-0.0884094-0.0596161-0.1006165-0.7646027-0.2993469
			c-0.0215149-0.0058594-0.0450134-0.0126953-0.0684204-0.019043c-0.2851868-0.0492859-0.5204773-0.1157227-0.6659851-0.1904297
			c-0.0214844-0.0117188-0.031311-0.0375671-0.0224915-0.0610046c0.0087891-0.0229797,0.0341797-0.0351562,0.0585938-0.0283508
			c0.2647095,0.0766907,0.4823914,0.1376953,0.6611938,0.1884766c0.5400085,0.0893555,1.1620941,0.0966797,1.2801971,0.0371094
			c-0.1386108-0.1093445-0.2137756-0.1494141-0.4287109-0.2133484c-0.3671722-0.065918-0.628891-0.1719055-0.6356659-0.1743164
			c-0.0234985-0.0097961-0.0352173-0.0361633-0.0274048-0.0605774c0.0087891-0.0239258,0.0341797-0.0375671,0.0585938-0.0307617
			c0.1191864,0.0327454,0.2206879,0.0605774,0.3095856,0.0840149c0.1348267,0.0366211,0.2382965,0.0644531,0.3223267,0.0898132
			c0.5096741,0.0903625,1.2215881,0.0996094,1.7030792-0.3764648c-0.7734985,0.1147461-2.5009766-0.2373047-2.5137024-0.2431641
			c-0.0244141-0.0112305-0.0350952-0.0395508-0.023407-0.0639648c0.0097046-0.0229187,0.0371094-0.0336914,0.0604858-0.0249023
			c0.0899353,0.0263672,1.9824066,0.3911133,2.5996094,0.20755c0.0205078-0.0058899,0.0420074,0.0019226,0.0536957,0.0195007
			c0.0118103,0.0175781,0.0108185,0.0405273-0.0028992,0.0571289c-0.411087,0.5024414-1.0223694,0.597168-1.5429688,0.561554
			c0.0478973,0.0307617,0.0966797,0.0673828,0.1562958,0.1147461c0.0058899,0.0053711,0.0106964,0.0116882,0.0136871,0.0190125
			c0.0146179,0.0336914,0.0057983,0.0688477-0.0214844,0.0947266c-0.1055298,0.0966797-0.5664215,0.0795898-0.8007965,0.0634766
			c0.2802887,0.0874329,0.3046875,0.1240234,0.3368835,0.2339172c0.0048981,0.0155945,0.0137177,0.0678406-0.0547028,0.1010742
			c-0.2206879,0.1064148-1.3867035-0.0073242-2.089798-0.1894836c0.203125,0.1181641,0.3721008,0.1977539,0.5292969,0.2719727
			c0.1307983,0.0615234,0.2539062,0.1196594,0.3760071,0.190918c0.015625,0.0093079,0.0252991,0.0263672,0.023407,0.0449219
			c-0.0010071,0.0180664-0.0127258,0.0341797-0.0292969,0.0410156c-0.7236023,0.2953796-1.4746094,0.0898438-2.1035156-0.2197266
			c1.1034851,0.7437134,2.0907898,0.9771118,2.7197266,1.1260071c0.3446655,0.0814819,0.5722809,0.1351929,0.6669922,0.237793
			c0.0155792,0.0166016,0.0175781,0.042511,0.003891,0.0610046c-0.1631165,0.2202148-0.4296875,0.3114929-0.7598114,0.3114929
			c-0.696167,0-1.6776733-0.4051819-2.5780945-0.8719788c0.7880859,0.4808655,1.6308899,0.9619141,1.7666016,0.9458008
			c0.0186157-0.0025024,0.0370789,0.0067749,0.0469055,0.0228882c0.0097961,0.0166016,0.0097961,0.0371094-0.0020142,0.0527039
			C49.0556641,11.546875,48.8876953,11.5927734,48.6190796,11.5927734L48.6190796,11.5927734z"/>
		<path class="st2" d="M50.2978973,9.7162781c-0.2276154,0.0298157-0.9091949,0.0298157-1.0069122,0.0146484"></path>
		<path class="st3" d="M49.6464844,9.789032c-0.1737976,0-0.3213196-0.0039062-0.3623047-0.0102539
			c-0.0263977-0.0039062-0.0448914-0.0288086-0.0410156-0.0551758c0.0039368-0.0258484,0.0293274-0.0444336,0.055603-0.0400391
			c0.0918274,0.0141907,0.7696075,0.0141907,0.9922028-0.0151062c0.0274353-0.0039368,0.0508118,0.0151062,0.0547028,0.0414734
			c0.0028992,0.0263672-0.0155792,0.0508118-0.0419769,0.0541992C50.167984,9.7817078,49.882782,9.789032,49.6464844,9.789032
			L49.6464844,9.789032z"/>
		<path class="st2" d="M35.6679993,7.15625c0,0,1.4823914,0.7177734,2.1083679,0.6669617
			c-0.1659851,0.1435547-0.4150696,0.2026367-0.4150696,0.2026367c0.1572876,0.0591125,0.5899048,0.27005,1.2431946,0.1352844
			c-0.156311,0.1435547-0.3594055,0.3036804-0.3594055,0.3036804s0.5614929,0.1943665,1.1973267-0.1098633
			c-0.1934204,0.2197266-0.304718,0.3804016-0.304718,0.3804016l0.4424133,0.0249023"/>
		<path class="st3" d="M39.5801086,8.8085938c-0.0010071,0-0.0020447,0-0.0030212,0l-0.4414062-0.0254211
			c-0.0175171-0.000946-0.0331726-0.0112-0.0410156-0.0268555c-0.007782-0.015625-0.0057983-0.0341492,0.0039368-0.0483398
			c0.0029907-0.0053711,0.0654907-0.0952148,0.1777649-0.2324219c-0.5644836,0.1968079-1.0253906,0.0424805-1.046875,0.0351562
			c-0.0166016-0.0058594-0.0283203-0.0205078-0.031311-0.0375977c-0.0028992-0.0175476,0.0029907-0.0351257,0.0176086-0.0458984
			c0.0010071-0.0014648,0.1112976-0.0883789,0.2304993-0.190918c-0.5214844,0.066925-0.8897095-0.0805664-1.0556946-0.1469421
			c-0.0176086-0.0068665-0.032196-0.0131836-0.0458984-0.0180969C37.3251648,8.063446,37.3125,8.0439453,37.3134766,8.0229187
			c0.0019226-0.0209961,0.0166321-0.039032,0.0371094-0.0439453c0.0018921-0.0004883,0.1387024-0.0336914,0.2723999-0.1083984
			C36.9375,7.8207703,35.7030945,7.2270203,35.6474915,7.1996765c-0.0245056-0.0112-0.0341797-0.0404968-0.0224915-0.0644531
			c0.0116882-0.0239258,0.039978-0.0336914,0.0645142-0.0219727c0.0145874,0.0068359,1.4764709,0.7104492,2.0829773,0.6621094
			C37.7929993,7.773407,37.8125,7.785614,37.820282,7.804657c0.0078125,0.019043,0.0028992,0.0415344-0.0126953,0.0551758
			c-0.094696,0.0820312-0.2129211,0.1372375-0.3016968,0.170929c0.210907,0.0795593,0.5771179,0.1889648,1.0888062,0.0829773
			c0.0215149-0.0043945,0.0429688,0.0058594,0.0527954,0.0254211c0.0097046,0.019043,0.0057983,0.0429382-0.0108032,0.0575867
			c-0.0966797,0.0888672-0.2129211,0.1855774-0.2861023,0.245636c0.1786804,0.0385437,0.6063843,0.0912781,1.0703125-0.1308899
			c0.0204773-0.0097351,0.0458679-0.0033875,0.0596008,0.0146484c0.0135803,0.0180969,0.0126648,0.0439453-0.0020142,0.0610352
			c-0.1141968,0.1289062-0.1992188,0.2383118-0.2489929,0.3046875l0.3535156,0.0205078
			c0.0263977,0.0014648,0.0469055,0.0244446,0.0448608,0.0508118C39.6270142,8.789032,39.6054993,8.8085938,39.5801086,8.8085938
			L39.5801086,8.8085938z"/>
	</g>
</g>
</svg>
