<?xml version="1.0" encoding="utf-8"?>
<!-- Generator: Adobe Illustrator 22.1.0, SVG Export Plug-In . SVG Version: 6.00 Build 0)  -->
<svg version="1.1" id="Layer_1" xmlns="http://www.w3.org/2000/svg" xmlns:xlink="http://www.w3.org/1999/xlink" x="0px" y="0px"
	 viewBox="0 0 60 60" style="enable-background:new 0 0 60 60;" xml:space="preserve">
<style type="text/css">
	.st0{clip-path:url(#SVGID_2_);fill:#0A652E;}
	.st1{clip-path:url(#SVGID_2_);fill:#FFD207;}
	.st2{clip-path:url(#SVGID_2_);fill:#D41216;}
	.st3{clip-path:url(#SVGID_2_);fill:#020203;}
	.st4{clip-path:url(#SVGID_5_);}
	.st5{clip-path:url(#SVGID_6_);fill:#020203;}
	.st6{clip-path:url(#SVGID_6_);fill:none;stroke:#020203;stroke-width:30;}
	.st7{clip-path:url(#SVGID_8_);fill:#FFFFFF;}
	.st8{clip-path:url(#SVGID_8_);fill:#D41216;}
	.st9{clip-path:url(#SVGID_8_);fill:#FFCC07;}
	.st10{clip-path:url(#SVGID_8_);fill:#020203;}
</style>
<g id="XMLID_1_">
	<g>
		<defs>
			<path id="SVGID_1_" d="M59,60H0.9999695C0.4477234,60,0,59.5526733,0,59V0.9999695c0-0.5522461,0.4477234-1,0.9999695-1H59
				c0.5526886,0,0.9999847,0.4477539,0.9999847,1V59C59.9999847,59.5526733,59.5526886,60,59,60L59,60z"/>
		</defs>
		<clipPath id="SVGID_2_">
			<use xlink:href="#SVGID_1_"  style="overflow:visible;"/>
		</clipPath>
		<polygon class="st0" points="0,-0.0000305 120,-0.0000305 120,60 0,60 0,-0.0000305 		"/>
		<polygon class="st1" points="0,8.5712891 120,8.5712891 120,51.4286804 0,51.4286804 0,8.5712891 		"/>
		<polygon class="st2" points="0,17.1430664 120,17.1430664 120,42.8573914 0,42.8573914 0,17.1430664 		"/>
		<polygon class="st3" points="0,25.714386 120,25.714386 120,34.2861023 0,34.2861023 0,25.714386 		"/>
	</g>
	<g>
		<defs>
			<polygon id="SVGID_3_" points="0,-0.0000305 120,-0.0000305 120,60 0,60 0,-0.0000305 			"/>
		</defs>
		<defs>
			<path id="SVGID_4_" d="M59,60H0.9999695C0.4477234,60,0,59.5526733,0,59V0.9999695c0-0.5522461,0.4477234-1,0.9999695-1H59
				c0.5526886,0,0.9999847,0.4477539,0.9999847,1V59C59.9999847,59.5526733,59.5526886,60,59,60L59,60z"/>
		</defs>
		<clipPath id="SVGID_5_">
			<use xlink:href="#SVGID_3_"  style="overflow:visible;"/>
		</clipPath>
		<clipPath id="SVGID_6_" class="st4">
			<use xlink:href="#SVGID_4_"  style="overflow:visible;"/>
		</clipPath>
		<polygon class="st5" points="0,-0.0000305 0,60 39.9999695,29.9999695 0,-0.0000305 		"/>
		<polygon class="st6" points="0,-0.0000305 0,60 39.9999695,29.9999695 0,-0.0000305 		"/>
	</g>
	<g>
		<defs>
			<path id="SVGID_7_" d="M59,60H0.9999695C0.4477234,60,0,59.5526733,0,59V0.9999695c0-0.5522461,0.4477234-1,0.9999695-1H59
				c0.5526886,0,0.9999847,0.4477539,0.9999847,1V59C59.9999847,59.5526733,59.5526886,60,59,60L59,60z"/>
		</defs>
		<clipPath id="SVGID_8_">
			<use xlink:href="#SVGID_7_"  style="overflow:visible;"/>
		</clipPath>
		<polygon class="st7" points="0,-0.0000305 0,60 39.9999695,29.9999695 0,-0.0000305 		"/>
		<polygon class="st8" points="15.2172852,14.8603821 18.2504883,24.195282 28.0658875,24.195282 20.1249695,29.9647827 
			23.1581726,39.2997742 15.2172852,33.5302734 7.2763672,39.2997742 10.3642883,29.7963562 2.3686523,24.195282 
			12.2284851,24.195282 15.2172852,14.8603821 		"/>
		<polygon class="st9" points="11.8241882,36.2372742 13.2240906,35.9823914 15.8208008,35.8808899 16.7753906,35.969696 
			18.9135742,36.3261719 19.079071,36.109375 19.079071,34.5693054 19.3212891,33.2460632 19.7666016,31.8964844 
			20.2245789,30.8276062 20.8228149,29.7201843 21.8027039,29.9624023 22.0575867,29.9624023 22.0829773,29.7709656 
			20.0336914,28.0145874 17.8828125,26.3729858 14.789978,24.0561829 14.5097961,23.9799805 14.1659851,21.5614929 
			13.9242859,20.8236694 13.6059875,20.5434875 12.9823914,20.3397827 12.2948914,20.3651733 11.9896851,20.5434875 
			11.3276062,20.6962891 10.984375,20.7471008 10.7549133,21.0145874 10.7294922,21.3578796 11.684082,21.3832703 
			11.9262695,21.4853821 11.9003906,21.5868835 11.3534851,21.6635742 11.0985718,21.7396851 11.4042969,21.9691772 
			11.7094727,22.0834656 12.1171875,22.2362976 12.1933899,22.5033875 12.2313843,26.207489 12.0150757,26.7802734 
			11.9389954,27.8490906 12.2567749,29.1347961 11.4551086,30.0386047 11.0097961,30.8529968 10.933075,31.3622742 
			10.6913757,31.8583679 10.6532898,32.1767578 10.8187866,32.507782 11.4296875,34.5438843 11.7479858,36.2118835 
			11.8241882,36.2372742 		"/>
		<path class="st10" d="M15.3295898,34.6903992c1.2383118-0.0019226,2.6162109,0.0810852,3.4150085,0.2304993l0.2359009,0.0448914
			v0.6298828c0,0.4599915-0.0224915,0.6289062-0.0884094,0.6210938c-0.0498047-0.0058594-0.3687134-0.0712891-0.7070007-0.1474609
			c-1.0220032-0.2295227-2.1767883-0.3183289-3.4771118-0.2646179c-0.6571655,0.0263977-1.344696,0.0762024-1.5292969,0.1094055
			l-0.3378906,0.0614929l-0.0830078-0.5243835c-0.0453796-0.2881165-0.0713196-0.5332031-0.0585938-0.546936
			c0.0127258-0.0126648,0.3300781-0.0663757,0.7071228-0.1181641
			C13.8916016,34.7206726,14.5863647,34.6913757,15.3295898,34.6903992L15.3295898,34.6903992z M19.0342102,34.5185852
			c0.015564,0.0039062,0.0184631,0.0302124,0.0184631,0.0780945c0,0.1405945-0.1171875,0.2323914-0.1742859,0.1367188
			c-0.0220032-0.0381165,0.0078125-0.1104126,0.0668945-0.1611023c0.0440063-0.0381165,0.0728149-0.0567322,0.0884094-0.0537109
			H19.0342102L19.0342102,34.5185852z M18.1177063,34.3262024c0.0502625-0.0030212,0.0903015,0.039978,0.1610718,0.1385803
			l0.1308899,0.1827087h-0.2997742c-0.1953125,0-0.2891235-0.031311-0.2705078-0.0889282
			c0.015625-0.0478821,0.0913086-0.1289062,0.168396-0.1815796C18.0536804,34.3456726,18.0873718,34.3270874,18.1177063,34.3262024
			L18.1177063,34.3262024L18.1177063,34.3262024z M13.2479858,34.2861023
			c0.0440063-0.0078125,0.0830994,0.0283813,0.1583252,0.0986938c0.1434937,0.1347046,0.1454773,0.1473999,0.0213623,0.1981812
			c-0.0721741,0.0292969-0.2294617,0.0556946-0.3480835,0.0585938l-0.2144165,0.0059204l0.1953125-0.2041016
			C13.1566772,34.3437805,13.2041016,34.2929688,13.2479858,34.2861023L13.2479858,34.2861023L13.2479858,34.2861023z
			 M18.3856812,34.2187805c0.0556946,0,0.1700134,0.0126038,0.2973938,0.0350952l0.3106079,0.0537109l-0.1791687,0.1737976
			l-0.1768188,0.1738892l-0.1557922-0.203186c-0.0848999-0.1123047-0.1440125-0.2148132-0.1308289-0.2275085
			C18.3539734,34.2206726,18.3671875,34.2187805,18.3856812,34.2187805L18.3856812,34.2187805L18.3856812,34.2187805z
			 M12.843811,34.1972961c0.1644897-0.0010071,0.1595764,0.0145874-0.053833,0.2225952
			c-0.1634827,0.1591797-0.183075,0.1630859-0.227478,0.0429993C12.5092773,34.3183594,12.6366882,34.1991882,12.843811,34.1972961
			L12.843811,34.1972961L12.843811,34.1972961z M17.217804,34.1190796h0.3374023
			c0.3656921,0,0.4130859,0.0577087,0.2064819,0.2519836c-0.1698914,0.1602173-0.1708984,0.1592102-0.3724976-0.0634766
			L17.217804,34.1190796L17.217804,34.1190796z M16.9257812,34.1190796l0.2090149,0.2285767
			c0.227478,0.2470093,0.2049866,0.2578125-0.3135071,0.1572266l-0.2436829-0.0448914l0.174408-0.1719055L16.9257812,34.1190796
			L16.9257812,34.1190796z M14.445282,34.1190796l0.1850891,0.1690063c0.1020203,0.0937195,0.1963196,0.1758118,0.2090149,0.1825867
			c0.0127258,0.0058899-0.155304,0.023407-0.375,0.0371094L14.0625,34.5351562l0.1928711-0.2089539L14.445282,34.1190796
			L14.445282,34.1190796z M14.1532898,34.0556641c0.0342102,0.0019226,0.0033875,0.0595398-0.0986023,0.203125
			c-0.0932922,0.1307983-0.1918945,0.2382812-0.2172852,0.2382812s-0.1206055-0.085968-0.2144165-0.1894836l-0.1712952-0.1885071
			h0.2597046c0.1430969,0,0.3168945-0.0223999,0.3857727-0.0506897
			C14.1225891,34.0585938,14.1420898,34.054657,14.1532898,34.0556641L14.1532898,34.0556641L14.1532898,34.0556641z
			 M15.9858093,34.0448914h0.776886l-0.1719055,0.1875c-0.2098999,0.2323914-0.2236023,0.2323914-0.4335938,0L15.9858093,34.0448914
			L15.9858093,34.0448914z M15.6776733,34.0448914l0.2036133,0.2012024c0.111908,0.1112671,0.2037048,0.2138977,0.2037048,0.2275085
			c0,0.0126648-0.1861267,0.023468-0.4125977,0.023468h-0.4125977l0.2090149-0.2276001L15.6776733,34.0448914L15.6776733,34.0448914
			z M14.684082,34.0448914h0.7738953l-0.1713867,0.1875c-0.2098999,0.2323914-0.2236023,0.2323914-0.4341125,0L14.684082,34.0448914
			L14.684082,34.0448914z M16.157196,33.6318054c1.0951843,0,2.2114868,0.0273743,2.4804993,0.0615845
			C19.0897827,33.7519836,19.125,33.7685852,19.125,33.9374695c0,0.2012329-0.0610046,0.210022-0.6509094,0.1045227
			c-0.1791992-0.032196-0.8979187-0.1006165-1.5990906-0.1524048c-1.2167969-0.0907898-2.7251282-0.0419006-4.0688171,0.1308899
			c-0.2773743,0.0361023-0.342804,0.0224915-0.342804-0.0692749C12.4633789,33.7567749,13.9159851,33.6318054,16.157196,33.6318054
			L16.157196,33.6318054L16.157196,33.6318054z M19.2026062,33.4042664
			c0.0341797-0.0019836,0.0414734,0.0263977,0.0214844,0.0801086c-0.0439148,0.1191101-0.1714172,0.148407-0.1714172,0.0410156
			c0-0.0371094,0.049408-0.085022,0.1069946-0.1073914C19.1771851,33.4110718,19.1913757,33.4052734,19.2026062,33.4042664
			L19.2026062,33.4042664L19.2026062,33.4042664z M12.6376953,33.1522827c0.023407,0,0.0453796,0.0029907,0.0639954,0.0058899
			c0.1186218,0.0195312,0.1073914,0.0498047-0.0855103,0.2412109l-0.2225952,0.219696l-0.0639954-0.1825867
			c-0.0537109-0.1494141-0.0380859-0.1914062,0.0853882-0.2412109
			C12.4770813,33.1708679,12.5658875,33.1542969,12.6376953,33.1522827L12.6376953,33.1522827z M13.1733093,33.141571
			c0.0331726,0,0.1367798,0.0820007,0.2275696,0.1826172l0.1636353,0.1817017l-0.3511353,0.0487976
			c-0.1933899,0.0253906-0.4159851,0.0605164-0.495575,0.0771179c-0.1074219,0.0224609-0.0752258-0.0371094,0.1260071-0.2304382
			C12.9926758,33.2587891,13.1395874,33.141571,13.1733093,33.141571L13.1733093,33.141571L13.1733093,33.141571z
			 M18.1928711,33.0458984l0.1767273,0.1737976c0.1938782,0.1894836,0.2281189,0.3046875,0.0859985,0.2841797
			c-0.0498047-0.007782-0.230011-0.0243835-0.3994141-0.0400085l-0.308197-0.030304l0.2227173-0.1923828L18.1928711,33.0458984
			L18.1928711,33.0458984z M15.7685852,33.0185852c0.0800171-0.0108032,0.1425171,0.0487976,0.2279968,0.1826172
			c0.1040039,0.1630859,0.1006165,0.164978-0.2841797,0.1630859l-0.3882141-0.0030212l0.2061157-0.1875
			C15.6322632,33.0810852,15.7064819,33.0272827,15.7685852,33.0185852L15.7685852,33.0185852L15.7685852,33.0185852z
			 M16.968811,33.015564c0.0301514,0.0030212,0.0599976,0.0195923,0.0960693,0.0518188
			c0.0635071,0.0537109,0.1459961,0.1621094,0.1851196,0.2382812c0.0609741,0.1181335,0.042511,0.1347046-0.1313171,0.1278992
			c-0.1109009-0.0038757-0.276886-0.0292969-0.3696899-0.0556641l-0.168396-0.0488281l0.1845093-0.1786804
			C16.862793,33.0546875,16.9179993,33.0126648,16.968811,33.015564L16.968811,33.015564L16.968811,33.015564z
			 M14.3812866,33.015564c0-0.0068054,0.1040955,0.0840149,0.2304993,0.2012024l0.230011,0.2148132l-0.4258118,0.0234985
			l-0.4258118,0.0244141l0.1953125-0.2246094C14.2934875,33.1308899,14.3812866,33.023407,14.3812866,33.015564
			L14.3812866,33.015564z M14.0517883,32.9950867c0.0210266,0,0.0335999,0.0010071,0.0375977,0.0048828
			c0.0146179,0.0155945-0.0458984,0.1181946-0.1367798,0.2275085l-0.1660156,0.1983032l-0.2089844-0.1708984l-0.2089233-0.1748047
			l0.348114-0.0537109C13.8598938,33.0048828,13.9892883,32.9931946,14.0517883,32.9950867L14.0517883,32.9950867
			L14.0517883,32.9950867z M18.3671875,32.9706726l0.1791992,0.0448914
			c0.0996094,0.0264282,0.3120117,0.0508118,0.4717102,0.0518188h0.2890015l-0.2167969,0.1846008
			c-0.1196289,0.1015015-0.2348022,0.1854858-0.2573242,0.1875c-0.0224915,0.000885-0.1376953-0.1036072-0.254364-0.2333984
			L18.3671875,32.9706726L18.3671875,32.9706726z M17.1592102,32.9169922h0.1791687
			c0.0976257,0,0.276825,0.0205078,0.3988953,0.0458984l0.2227173,0.0448914l-0.206604,0.1796875
			c-0.1128235,0.0986328-0.2157898,0.1787109-0.2304993,0.1768188c-0.0135803-0.0020142-0.1025085-0.1054993-0.195282-0.2276001
			L17.1592102,32.9169922L17.1592102,32.9169922z M15.9858093,32.9169922h0.776886l-0.1719055,0.1875
			c-0.2098999,0.2323914-0.2236023,0.2323914-0.4335938,0L15.9858093,32.9169922L15.9858093,32.9169922z M15.1176758,32.9169922
			h0.4101257l-0.1366882,0.155304c-0.2427368,0.2782898-0.358429,0.3046875-0.527832,0.118103
			c-0.0849915-0.0947266-0.155304-0.1943054-0.155304-0.2226257C14.7079773,32.9394836,14.8925781,32.9169922,15.1176758,32.9169922
			L15.1176758,32.9169922L15.1176758,32.9169922z M11.030304,32.6513672c0.0355835,0,0.125,0.0420227,0.227478,0.1074219
			c0.1343079,0.085907,0.3057251,0.157196,0.3804321,0.1582031c0.3734741,0.0048828,0.5785828,0.530304,0.894989,2.2958984
			c0.0365906,0.204071,0.074707,0.4091797,0.1151733,0.6133118c0.0288086,0.1425781-0.0116882,0.1747742-0.332489,0.2460938
			C11.9111023,36.1620789,11.8125,36.1688843,11.8125,36.1151733c0-0.1512756-0.4028015-1.9598999-0.5786133-2.5986023
			c-0.1195984-0.4345703-0.219696-0.8163757-0.219696-0.851593c0-0.0039062,0.0023804-0.0086975,0.0052795-0.0107117
			C11.0228882,32.6522827,11.0263977,32.6513672,11.030304,32.6513672L11.030304,32.6513672z M14.8822632,30.6186829
			c0.4898376-0.0157166,2.2012329,0.1083984,3.0132141,0.2304077c0.7149048,0.1073914,1.9667969,0.339386,2.0088196,0.3725891
			c0.0106812,0.0078125-0.0967102,0.3506165-0.2407227,0.7607117c-0.1445923,0.4101868-0.2763672,0.7919922-0.2919922,0.8486938
			c-0.0220032,0.0770874-0.1098938,0.0888062-0.3534851,0.0507202c-1.1905212-0.1855164-4.6197205-0.1679382-5.9385071,0.0302734
			c-0.75,0.1123047-0.8604126,0.1034851-0.7958984-0.0536804c0.0298157-0.0732117,0.0922852-0.2998047,0.1396179-0.5068054
			l0.0854797-0.3779907l0.7958984-0.4121094c0.4370117-0.2275085,0.9242859-0.5176086,1.0820007-0.6455078
			c0.1577148-0.1273804,0.3218079-0.2543945,0.3666992-0.281189C14.7675781,30.6264648,14.8119812,30.6210632,14.8822632,30.6186829
			L14.8822632,30.6186829L14.8822632,30.6186829z M17.7832031,29.464386c0.0009766,0,0.0014954,0,0.0023804,0
			c0.0668945-0.0073853,0.1299133,0.023407,0.140686,0.0682983c0.0009155,0.0049133,0.0014038,0.0097961,0.0014038,0.014679
			c-0.0087891,0.0449219-0.070282,0.0766296-0.1376953,0.0708313c-0.0550842-0.0049133-0.0990906-0.0336914-0.105896-0.0708313
			c-0.0019836-0.0401001,0.0395203-0.0751953,0.0986023-0.0829773H17.7832031L17.7832031,29.464386z M17.3866882,29.4535828
			c0.0663757-0.0083008,0.1304016,0.0214844,0.1425781,0.065918c0.0015259,0.0048828,0.0020447,0.0097656,0.0020447,0.0141907
			c0,0.0453796-0.0552063,0.082489-0.1236267,0.082489c-0.0679016-0.0005188-0.122467-0.0371094-0.1230164-0.082489
			C17.2852173,29.4940796,17.3280945,29.4603882,17.3866882,29.4535828L17.3866882,29.4535828L17.3866882,29.4535828z
			 M17.0116882,29.4403992c0.0043945-0.0005188,0.0087891-0.0005188,0.0132141,0
			c0.0678711-0.003418,0.1264648,0.0307617,0.1314087,0.0756836c0,0.0025024,0,0.0048828,0,0.0072937
			c-0.0084229,0.0450134-0.0699158,0.0766907-0.1373291,0.0708313c-0.055603-0.004425-0.0995789-0.0337219-0.1064148-0.0708313
			C16.9105835,29.4828796,16.9526062,29.4477844,17.0116882,29.4403992L17.0116882,29.4403992z M16.6605835,29.4350891
			c0.0010071,0,0.0020142,0,0.0029907,0c0.066925-0.0074158,0.1299133,0.023407,0.1401062,0.0677795
			c0.0015259,0.0049133,0.0020142,0.0098267,0.0015259,0.0151978c-0.0083313,0.0449219-0.0698242,0.0766296-0.1372375,0.0708313
			c-0.0556946-0.0043945-0.0995789-0.0336914-0.1064758-0.0708313C16.5595703,29.477478,16.601593,29.4423828,16.6605835,29.4350891
			L16.6605835,29.4350891L16.6605835,29.4350891z M17.5980835,29.2660828
			c0.0668945-0.0083008,0.1309204,0.0214844,0.1426086,0.065918c0.0014954,0.0048828,0.0020142,0.0097656,0.0020142,0.014679
			c-0.0015259,0.0453796-0.0586243,0.0809937-0.1264954,0.0796204c-0.0654297-0.0010071-0.1182251-0.0362244-0.1196289-0.0796204
			C17.496582,29.3065796,17.5395813,29.2728882,17.5980835,29.2660828L17.5980835,29.2660828L17.5980835,29.2660828z
			 M16.8349915,29.2523804c0.0053101,0,0.0107117,0,0.0160828,0c0.0674133-0.0028992,0.1260071,0.0312805,0.1308289,0.0762024
			c0,0.0025024,0.0004883,0.0048828,0.0004883,0.0072937c-0.0004883,0.0454102-0.055603,0.0820923-0.1235046,0.0820923
			s-0.1230774-0.0370789-0.1230774-0.0820923C16.7338867,29.2953796,16.7758789,29.2602844,16.8349915,29.2523804
			L16.8349915,29.2523804L16.8349915,29.2523804z M17.9921875,29.2421875c0.0005188,0,0.0014954,0,0.0024109,0
			c0.0668945-0.0083313,0.1308899,0.0215149,0.1425781,0.0658875c0.0020142,0.0054016,0.0024109,0.0112,0.0020142,0.0171204
			c0,0.0448914-0.0552063,0.0820007-0.1230774,0.0820007c-0.0683289-0.0004883-0.1230164-0.0371094-0.1230164-0.0820007
			c-0.0020142-0.0405273,0.039978-0.0752258,0.0986023-0.0830078H17.9921875L17.9921875,29.2421875z M17.1854858,29.2421875
			c0.0009766,0,0.0020142,0,0.0030212,0c0.066864-0.0083313,0.1302795,0.0215149,0.1425781,0.0658875
			c0.0014038,0.0054016,0.0024109,0.0112,0.0018921,0.0171204c0,0.0448914-0.0551758,0.0820007-0.1234741,0.0820007
			c-0.0679016-0.0004883-0.1226196-0.0371094-0.1231079-0.0820007
			C17.0845032,29.284668,17.1264648,29.2494812,17.1854858,29.2421875L17.1854858,29.2421875z M18.4501953,29.1615906
			c0.0106812-0.0161133,0.5248718,0.1147766,1.1405945,0.2919922l1.1200867,0.3213196l-0.2171936,0.3856812
			c-0.1191711,0.2114868-0.2700806,0.4952087-0.3344727,0.6293945c-0.1319275,0.2734985-0.1782227,0.2784119-0.8521118,0.1235962
			c-0.7451172-0.1713867-1.922821-0.3339844-3.1206055-0.4316711l-1.151825-0.0937195l0.4341431-0.1631165
			c0.2391663-0.0907898,0.5824585-0.2460938,0.7635803-0.3456726c0.2831726-0.156311,0.3974915-0.1767883,0.832489-0.1445312
			c0.6459961,0.0473328,1.081604-0.0718079,1.2431946-0.3403931C18.3544922,29.3163757,18.401886,29.2388,18.4501953,29.1615906
			L18.4501953,29.1615906L18.4501953,29.1615906z M17.726593,29.0785828c0.066925-0.0083008,0.1307983,0.0214844,0.1430054,0.065918
			c0.0009766,0.0048828,0.0019836,0.0097656,0.0019836,0.014679c-0.0019836,0.0448914-0.0585938,0.0809937-0.1270142,0.0796204
			c-0.0653687-0.0010071-0.1175842-0.0362244-0.1195679-0.0796204
			C17.6254883,29.1190796,17.6679993,29.0853882,17.726593,29.0785828L17.726593,29.0785828L17.726593,29.0785828z
			 M18.1177063,29.0731812c0.0668945-0.0083008,0.1307678,0.0215149,0.1430054,0.0660095
			c0.0009766,0.0047913,0.0019836,0.0097046,0.0019836,0.0140991c0,0.0454102-0.0556946,0.082489-0.1235046,0.0820923
			c-0.0679016,0-0.1230774-0.0366821-0.1230774-0.0820923C18.0166016,29.1137695,18.059082,29.0800781,18.1177063,29.0731812
			L18.1177063,29.0731812L18.1177063,29.0731812z M17.3760071,29.0438843
			c0.066864-0.0083008,0.1302795,0.0215149,0.1425781,0.0660095c0.0014038,0.0047913,0.0018921,0.0091858,0.0018921,0.0140991
			c0,0.0454102-0.0551758,0.0820923-0.1234741,0.0820923c-0.0679016,0-0.1226196-0.0366821-0.1231079-0.0820923
			C17.2743835,29.0844727,17.3174133,29.050293,17.3760071,29.0438843L17.3760071,29.0438843z M17.0224915,28.9848633
			c0.0003967,0,0.0013733,0,0.0024109,0c0.0668945-0.0082703,0.1308899,0.0214233,0.1430969,0.065918
			c0.0014038,0.0058289,0.0018921,0.0112,0.0018921,0.0170898c-0.0004883,0.0454102-0.055603,0.0820007-0.1235046,0.0820007
			s-0.1230774-0.0365906-0.1230774-0.0820007C16.9213867,29.0278015,16.9633789,28.9927063,17.0224915,28.9848633
			L17.0224915,28.9848633z M17.9223938,28.901886c0.0052795-0.0005188,0.0106812-0.0005188,0.0161133,0
			c0.0677795-0.003479,0.1263733,0.0307007,0.1307678,0.0761108c0.0004883,0.0019836,0.0004883,0.0043945,0.0004883,0.0068665
			c-0.0018616,0.0454102-0.0585938,0.0810242-0.1268616,0.0800171c-0.0655212-0.0014038-0.1177368-0.0365906-0.1197205-0.0800171
			C17.8212891,28.9447632,17.8632812,28.909668,17.9223938,28.901886L17.9223938,28.901886L17.9223938,28.901886z
			 M17.5849915,28.8319702c0.0043945,0,0.0087891,0,0.013092,0c0.0679016-0.0028992,0.1265259,0.031311,0.1309204,0.0762024
			c0.0004883,0.0024109,0.0004883,0.0048828,0.0004883,0.0068054c-0.0088196,0.0449829-0.0703125,0.0766907-0.1376953,0.0708008
			c-0.0552063-0.0043945-0.0991211-0.0336914-0.1059875-0.0708008
			C17.4838867,28.8749695,17.5258789,28.8397827,17.5849915,28.8319702L17.5849915,28.8319702L17.5849915,28.8319702z
			 M17.2099915,28.7626953c0.000885,0,0.0013733,0,0.0024109,0c0.0668945-0.0083008,0.1308899,0.0214844,0.1430969,0.0658875
			c0.0014038,0.0053711,0.0018921,0.0112,0.0014038,0.0170898c0,0.0454102-0.0551147,0.0820312-0.1230164,0.0820312
			s-0.1230774-0.0371399-0.1230774-0.0820312C17.1088867,28.8052063,17.1508789,28.769989,17.2099915,28.7626953
			L17.2099915,28.7626953z M16.8563843,28.7167664c0.066925-0.0067749,0.1299133,0.0234375,0.1402283,0.0684204
			c0.0009766,0.0039062,0.0013733,0.0083008,0.0013733,0.0121765c-0.0083008,0.0449219-0.0697937,0.0766296-0.137207,0.0713196
			C16.8052063,28.8638,16.7612,28.8345032,16.7543945,28.7973633C16.7543945,28.757782,16.7973938,28.7235718,16.8563843,28.7167664
			L16.8563843,28.7167664L16.8563843,28.7167664z M14.7108765,24.120575c0.0196228-0.0004883,0.0386353,0,0.0562134,0.0024109
			c0.2432251,0.0381165,7.2557983,5.5215149,7.2557983,5.6733704c0,0.0600281-0.0560913,0.1083984-0.1253967,0.1074219
			c-0.0698853-0.0014954-1.855011-0.5067749-3.9644165-1.1224976c-3.3716125-0.9838867-3.8563843-1.1445923-4.0018921-1.3204041
			c-0.206604-0.2499695-0.2138977-0.6317749-0.0186157-0.8895874c0.0796204-0.105011,0.1445312-0.2344055,0.1445312-0.289093
			c0-0.1665039-0.3574219,0.2583008-0.4258118,0.5063782c-0.0799866,0.2895203,0.0688782,0.7749023,0.2867126,0.9320984
			c0.085907,0.0620117,0.7284851,0.2827148,1.4277039,0.4902039c1.1929016,0.3536072,1.2730103,0.3916321,1.3363953,0.5888977
			c0.151886,0.4746094-0.3490906,1.0249023-1.0741882,1.1816101c-0.2339172,0.050293-0.5312195,0.1879883-0.7363281,0.342804
			c-0.8163757,0.6152954-1.3853149,0.9785156-1.8617859,1.1835938c-0.280304,0.1210938-0.5508118,0.2578125-0.6001282,0.3056946
			c-0.0488892,0.0477905-0.120575,0.2676086-0.160675,0.4873047c-0.0848999,0.4667969-0.1210938,0.5380859-0.2597046,0.5380859
			c-0.0800781,0-0.0873718-0.0409851-0.0323181-0.1923828c0.1021118-0.2783203,0.0909119-0.6347961-0.0214844-0.6347961
			c-0.0589905,0-0.0960999,0.0986938-0.0960999,0.264679c0,0.1455383-0.0411072,0.304718-0.093811,0.3564148
			c-0.0795898,0.0780945-0.0897827,0.0205078-0.0560608-0.3368835c0.0218811-0.2383118,0.0121765-0.4346313-0.0215149-0.4346313
			c-0.0650024,0-0.1929321,0.3614197-0.2388,0.6778259c-0.0263977,0.1854858-0.0282898,0.1845093-0.0884094-0.0342102
			c-0.0463867-0.1719055-0.0238953-0.2861023,0.0967102-0.5039062c0.0858765-0.155304,0.1582031-0.3808899,0.1582031-0.5039062
			c0-0.1846008,0.1356812-0.3623047,0.8031921-1.039093c0.4433899-0.4487,0.9595032-1.0058899,1.1465149-1.2373047
			c0.3241882-0.4008789,0.3412781-0.4433899,0.3295898-0.8490906c-0.0068054-0.2348938-0.0336914-0.445282-0.0591125-0.4716797
			c-0.0845032-0.0879211-0.1971741,0.3656921-0.1523132,0.6132812c0.0400391,0.2240906-0.0014954,0.3008118-0.468811,0.8519897
			c-0.2821655,0.3330078-0.7616882,0.8345032-1.0634766,1.117218c-0.5560913,0.5195923-0.7552795,0.8007812-0.7552795,1.0654907
			c0,0.0809937-0.0625305,0.2929077-0.1392212,0.4715881c-0.0770874,0.1787109-0.1195984,0.3614197-0.0966797,0.4042969
			c0.0258789,0.0488892,0.0073853,0.045929-0.0454102-0.0048828c-0.0629883-0.0605164-0.0678101-0.1708984-0.0160828-0.4100952
			c0.0390625-0.179718,0.0551758-0.3544922,0.034668-0.3887024c-0.0776978-0.1298828-0.1685181,0.0380859-0.214386,0.3945007
			c-0.0259094,0.2041931-0.074707,0.3544922-0.109314,0.3320923c-0.1049805-0.0674133-0.0718079-0.4394836,0.0561218-0.6299133
			c0.0658875-0.0976868,0.1480103-0.3310852,0.1820984-0.5194702c0.0947876-0.5293274,0.3222961-0.9493103,0.8276978-1.5215149
			c0.2543945-0.2881165,0.4632874-0.5351868,0.4632874-0.5487976c0-0.0141907-0.0678101-0.2271118-0.1499023-0.4717102
			c-0.1899109-0.5654907-0.2025757-1.4263-0.0296936-1.949707c0.1825867-0.5517883,0.5581055-1.098175,1.1517944-1.6742859
			C13.8656921,24.4736023,14.4115906,24.1254883,14.7108765,24.120575L14.7108765,24.120575L14.7108765,24.120575z
			 M12.5863953,20.4242859c0.0791016-0.0010071,0.1679993,0.0020142,0.2758789,0.0078125
			c0.9487,0.0497742,1.128418,0.3115845,1.3770142,1.9981079c0.0965881,0.6547852,0.1756897,1.2601624,0.1766968,1.3475952
			c0.0014954,0.1132812-0.1307983,0.2475891-0.4633789,0.4711914c-0.4897156,0.3295898-1.1220093,0.9296875-1.4301147,1.3554993
			l-0.1850891,0.2518921l-0.034729-0.5922241c-0.0205078-0.3251953-0.0205078-1.0844727,0-1.6875
			c0.0420227-1.245575,0.0093384-1.3686829-0.3988953-1.5053711c-0.3334961-0.1112976-0.7689819-0.2315063-0.6400757-0.3075867
			c0.1401062-0.0834961,0.269989-0.0240173,0.6264038-0.1128235c0.1264954-0.0312805,0.1196594-0.0259094,0.0991821-0.1338196
			c-0.0367126-0.1942749-0.2261047-0.2836609-0.7632141-0.254364c-0.4219055,0.0224915-0.4761047,0.0116882-0.4472961-0.1021118
			c0.0575867-0.2294006,0.2963867-0.3803101,0.6504211-0.4150085c0.1908875-0.0184937,0.4691772-0.1034851,0.621582-0.1875
			C12.2191772,20.4647827,12.3500977,20.4267883,12.5863953,20.4242859L12.5863953,20.4242859L12.5863953,20.4242859z
			 M12.5648804,20.2738953c-0.2445984,0-0.3623047,0.0424805-0.6048889,0.1742859
			c-0.2192993,0.1192017-0.4790039,0.1983032-0.656311,0.1983032c-0.3602905,0-0.6508789,0.2582703-0.6508789,0.5809937v0.2144165
			l0.5248718-0.0161133c1.5049133,0.050293,0.1309204,0.1889038,0.0215149,0.2090149
			c-0.3735046,0.0677795,0.0830078,0.372467,0.5220032,0.5194702c0.4730835,0.1587219,0.4530945,0.066925,0.4530945,2.1401367
			c0,1.7026978-0.0151062,1.9433899-0.144989,2.335968c-0.1903992,0.5761108-0.1903992,1.4321289,0,1.9956055
			c0.0770874,0.2275085,0.1405945,0.4399109,0.1420898,0.4711914c0.0015259,0.0317078-0.2226868,0.3100281-0.4980774,0.6191101
			c-0.4975281,0.5576172-0.8037109,1.156311-0.8037109,1.574707c0,0.0967102-0.0649109,0.2587891-0.1445312,0.3642883
			c-0.184082,0.2431335-0.1889954,0.6611023-0.0106812,0.8193054c0.1849976,0.1650085,0.9487,3.1133118,0.950592,3.6698914
			c0.0010071,0.2032166,0.0371094,0.2022095,1.1972961-0.032196c0.9370117-0.1884766,3.1514282-0.2284851,4.272522-0.0771179
			c0.5180054,0.0693359,1.1201172,0.170929,1.3392944,0.2275391c0.6900024,0.1767883,0.651886,0.2138977,0.6538086-0.6191101
			c0.0024719-1.2872009,0.2367859-2.5108032,0.7338867-3.819397c0.2256165-0.5957031,0.8197937-1.8046875,0.9776001-1.9902039
			c0.015625-0.0185852,0.2684937,0.0282898,0.5625,0.1044922c0.6009827,0.1557007,0.7661133,0.1264038,0.7661133-0.1337891
			c0-0.1494141-0.6138-0.6611023-3.6187134-3.0137024c-2.0249023-1.5848999-3.6860046-2.8340149-3.7689819-2.8340149
			c-0.081604,0-0.164093-0.0419617-0.1822205-0.093689c-0.0175171-0.0517883-0.1131897-0.6645813-0.2142944-1.3633118
			c-0.1011047-0.6987-0.2373047-1.3886719-0.3027039-1.532196c-0.1910095-0.4189758-0.5869751-0.640686-1.218811-0.6831055
			C12.7637024,20.2778015,12.6645813,20.2743835,12.5648804,20.2738953L12.5648804,20.2738953L12.5648804,20.2738953z"/>
		<path class="st10" d="M17.8207703,31.2861023c0.3125305-0.0127258,0.5811157,0.2304688,0.5811157,0.5830078
			c0,0.4130859-0.4780884,0.7011719-0.8466797,0.5097656c-0.394104-0.2059937-0.3648071-0.8651733,0.0458679-1.0419922
			C17.6704102,31.3066101,17.7445679,31.2890625,17.8207703,31.2861023L17.8207703,31.2861023z M17.8231812,31.1094055
			c-0.4232788,0-0.7260132,0.3124695-0.7260132,0.7518616c0,0.686615,0.7710266,1.0186157,1.2378235,0.5332031
			C18.8013,31.9101868,18.4828796,31.1094055,17.8231812,31.1094055L17.8231812,31.1094055L17.8231812,31.1094055z"/>
		<path class="st10" d="M15.9096985,31.2284851c0.3129883-0.0126953,0.5809631,0.2315063,0.5809631,0.5840149
			c0,0.4130859-0.477478,0.7011719-0.8461609,0.5087891c-0.3940125-0.2051086-0.3647156-0.8652039,0.0454102-1.0419922
			C15.7592773,31.2489624,15.8339844,31.2313843,15.9096985,31.2284851L15.9096985,31.2284851z M15.9120789,31.0517578
			c-0.4233093,0-0.7255859,0.3125305-0.7255859,0.7528992c0,0.6855469,0.7709961,1.0176086,1.2373047,0.5332031
			C16.890564,31.852478,16.5722961,31.0517578,15.9120789,31.0517578L15.9120789,31.0517578L15.9120789,31.0517578z"/>
		<path class="st10" d="M12.589386,20.8417664C12.6786804,20.844696,12.75,20.9169922,12.75,21.0053711
			c0.0019836,0.0903015-0.0703125,0.1654968-0.1621094,0.167511c-0.0917969,0.0024109-0.1679993-0.069397-0.1698914-0.1596985
			c0-0.0025024,0-0.0054016,0-0.0078125c0-0.0903625,0.0741882-0.1636047,0.1654968-0.1636047
			C12.5853882,20.8417664,12.5874023,20.8417664,12.589386,20.8417664L12.589386,20.8417664z M12.5731812,20.7533875
			c-0.128418,0.0102844-0.2279968,0.1200867-0.227478,0.2519836c-0.0005188,0.1390991,0.1098938,0.2524109,0.2460938,0.2524109
			c0.1356812,0.0005188,0.246582-0.1123047,0.246582-0.2519226v-0.0004883
			c0.0004883-0.1391907-0.1098938-0.2524719-0.2456055-0.2524719
			C12.5863953,20.7528992,12.5795898,20.7528992,12.5731812,20.7533875L12.5731812,20.7533875z"/>
	</g>
</g>
</svg>
