<svg id="Shine" xmlns="http://www.w3.org/2000/svg" xmlns:xlink="http://www.w3.org/1999/xlink" viewBox="0 0 761.84 763.39"><defs><style>.cls-1,.cls-6{fill:none;}.cls-2{fill:url(#linear-gradient);}.cls-3{clip-path:url(#clip-path);}.cls-4{fill:#662483;}.cls-5{fill:#fff;}.cls-6{stroke:#063;stroke-miterlimit:10;stroke-width:11.55px;}.cls-7{clip-path:url(#clip-path-2);}.cls-8{opacity:0.4;fill:url(#linear-gradient-2);}</style><linearGradient id="linear-gradient" x1="380.92" y1="757.43" x2="380.92" y2="4.41" gradientUnits="userSpaceOnUse"><stop offset="0" stop-color="#3c9f31"/><stop offset="1" stop-color="#95c11f"/></linearGradient><clipPath id="clip-path"><path class="cls-1" d="M757.43,659.21a98.21,98.21,0,0,1-98.22,98.22H102.63A98.21,98.21,0,0,1,4.41,659.21V102.63A98.22,98.22,0,0,1,102.63,4.41H659.21a98.22,98.22,0,0,1,98.22,98.22Z"/></clipPath><clipPath id="clip-path-2"><path class="cls-1" d="M761.84,662.46a99.37,99.37,0,0,1-99.38,99.38H99.37A99.37,99.37,0,0,1,0,662.46V99.37A99.36,99.36,0,0,1,99.37,0H662.46a99.37,99.37,0,0,1,99.38,99.37Z"/></clipPath><linearGradient id="linear-gradient-2" x1="380.92" y1="-9.18" x2="380.92" y2="434.14" gradientUnits="userSpaceOnUse"><stop offset="0" stop-color="#fff" stop-opacity="0"/><stop offset="1" stop-color="#fff"/></linearGradient></defs><title>Aichi11</title><path class="cls-2" d="M757.43,659.21a98.21,98.21,0,0,1-98.22,98.22H102.63A98.21,98.21,0,0,1,4.41,659.21V102.63A98.22,98.22,0,0,1,102.63,4.41H659.21a98.22,98.22,0,0,1,98.22,98.22Z"/><g class="cls-3"><path class="cls-4" d="M648,136.32s14.43,17.32,23.1,34.65-27.44,63.52-27.44,63.52S583,342.78,516.56,387.53,349.09,415,349.09,415,546.88,311,603.19,181.07,648,136.32,648,136.32Z"/><path class="cls-1" d="M757.43,659.21a98.21,98.21,0,0,1-98.22,98.22H102.63A98.21,98.21,0,0,1,4.41,659.21V102.63A98.22,98.22,0,0,1,102.63,4.41H659.21a98.22,98.22,0,0,1,98.22,98.22Z"/><path class="cls-1" d="M757.43,659.21a98.21,98.21,0,0,1-98.22,98.22H102.63A98.21,98.21,0,0,1,4.41,659.21V102.63A98.22,98.22,0,0,1,102.63,4.41H659.21a98.22,98.22,0,0,1,98.22,98.22Z"/><path class="cls-5" d="M489.75,119.6c-21.45-15.47-48.83-12.21-48.83-12.21s27.53.44,40.78,23.21a11.07,11.07,0,0,0,15.6,1.18c16.52-20.54,43.8-16.86,43.8-16.86S513.28,107.53,489.75,119.6Z"/><path class="cls-5" d="M389.82,70.54c-23.28-12.51-50-5.72-50-5.72s27.35-3.15,43.47,17.7a11.06,11.06,0,0,0,15.62-.86c13.71-22.52,41.24-22.42,41.24-22.42S411.56,55.53,389.82,70.54Z"/><path class="cls-5" d="M525.1,55.81c-23.79-11.5-50.22-3.6-50.22-3.6s27.2-4.29,44.2,15.85a11,11,0,0,0,15.55-1.53c12.75-23.06,40.25-24.12,40.25-24.12S546.21,39.89,525.1,55.81Z"/><path class="cls-4" d="M783.66,103.11S752.51-1.8,724.46,46.81C709.25,73.18,681.92,122.37,667,149.29c-6.32,11.39-10.4,18.79-10.4,18.79s-79.4,86.63-106.84,124.16c-17.07,23.37-125.6,115.5-206.44,118.35l21.17,32.72,465.36,25.07Z"/><path class="cls-5" d="M-9.45,187V456.59q14.81-3.84,29.62-6.88V318.33q19.55-2.47,39.09-3.65V443q14.81-2.06,29.62-3.46v-126c13-.22,26.06-.06,39.08.4V436.85q14.82-.64,29.63-.79V315.48q19.53,1.35,39.08,3.46V436.46q14.82.42,29.62,1.2V322.46q19.54,2.57,39.09,5.6V440.17q14.82,1.13,29.62,2.47V332.85q19.54,3.27,39.09,6.78V446.35q14.81,1.47,29.62,3V345q19.55,3.53,39.09,7V453.3q14.81,1.47,29.62,2.83v-99q19.54,3.32,39.08,6.33v95.92q14.82,1.11,29.63,1.94V367.74q19.53,2.63,39.08,4.69V463q14.82.38,29.62.34V375.1q19.54,1.48,39.09,2.11v85.13q14.8-.7,29.62-2V377.58q19.53-.15,39.09-1.42v79.73q14.8-2.14,29.61-5v-77.4q19.56-2.25,39.1-5.89v74.32q14.8-3.92,29.62-8.74V288q-7.41-4-14.82-8.41-7.39,6.27-14.8,12.47V311.7q-19.55,2.52-39.1,3.58V294.85q-7.4-5.37-14.8-11.1l-14.81,11.41v21q-19.54.14-39.09-.9V293.46q-7.41-6.57-14.81-13.45-7.41,5.34-14.81,10.73v22.47q-19.54-1.77-39.09-4.42V285.5q-7.4-7.56-14.8-15.43-7.41,5.18-14.82,10.39v23.9q-19.55-3.18-39.08-7V272.65q-7.41-8.4-14.82-17-7.4,5.16-14.81,10.42v25.32q-19.53-4.14-39.08-8.65V256.56q-7.41-9-14.82-18.31-7.39,5.33-14.8,10.79v26.75q-19.55-4.62-39.09-9.33V238.89q-7.4-9.52-14.81-19.23-7.41,5.7-14.81,11.55v28.17q-19.54-4.63-39.09-9.09v-29q-7.41-9.84-14.81-19.79-7.4,6.21-14.81,12.63v29.6c-13-2.78-26.06-5.44-39.09-7.9v-30.4q-7.39-10-14.8-20-7.41,6.91-14.82,14.09v31q-19.53-3.24-39.08-5.76V193q-7.41-9.89-14.81-19.83Q135.37,181,128,189.06v32.45q-19.53-1.84-39.08-2.7V185.55q-7.39-9.63-14.81-19.29-7.41,8.87-14.81,18.06v33.89q-19.55,0-39.09,1.32V184.85q-7.4-9.22-14.81-18.43Q-2,176.55-9.45,187ZM707.24,362.34V326.42q19.56-1.31,39.1-4v34.48Q726.79,360.33,707.24,362.34Zm-68.7,3.32V327.24q19.53.78,39.09.45v37Q658.09,365.75,638.54,365.66Zm-68.71-3.25V321.49q19.54,2.42,39.09,4V365Q589.38,364.12,569.83,362.41Zm-68.7-8.15V310.84q19.53,3.56,39.08,6.56v42Q520.67,357.14,501.13,354.26Zm-68.71-11.39V297q19.54,4.24,39.08,8.2v44.51Q452,346.45,432.42,342.87Zm-68.71-12.95V281.49c13,3,26.06,6,39.09,8.89v47Q383.26,333.7,363.71,329.92ZM295,317V266.1q19.54,4.22,39.09,8.65v49.51Q314.55,320.56,295,317Zm-68.71-11.16V252.44q19.54,3.48,39.09,7.45v52Q245.83,308.66,226.29,305.88Zm-68.7-7.76v-56q19.53,2.28,39.08,5.32V302Q177.14,299.72,157.59,298.12ZM88.88,295.4V237c13,.4,26.06,1.18,39.08,2.26v57Q108.43,295.33,88.88,295.4Zm-68.71,4V238.46c13-1,26.06-1.61,39.09-1.79v59.54Q39.71,297.17,20.17,299.4Z"/><path class="cls-4" d="M794.46,430.31s-97.41-34.65-176.33-21.17c-158.79,27.1-248.32-1.92-288.75-1.92s-107.79,38.49-107.79,38.49-27-11.54,50-53.9S439.1,388,439.1,388s-26.94-42.34-146.29-32.72c-54.41,4.4-105.07,28.38-144.26,53.19a336.32,336.32,0,0,1,26.83-37.35c208.88-249.76,473.54-107.8,473.54-107.8s-88.54-65.45-213.68-63.53c-185.28,2.85-305,140-371.41,250.16,5.64-132.39,150-208.2,150-208.2s-50.06-1.93-140.52,90.47a213.33,213.33,0,0,0-18.81,22.23c5.83-15.24,12.71-31.43,21-48.8,97.62-204.85,365-118.6,365-118.6s-172-77-323.12,17C60,239.64,23.76,275.74.86,306.81,66.86,100.92,175.37,26.1,175.37,26.1S94.52,70.39,34.85,164.71-51.78,384.15-51.78,384.15s-7,68.55-8.06,110l-8.42,1.63-52.81,298.37s904.75,25,910.53,25S794.46,430.31,794.46,430.31Z"/><path class="cls-5" d="M718.69,120.44c31.77-23.1,28.13,23.87,46.2,23.1l18.77-40.43S752.51-1.8,724.46,46.81c-10.58,18.35-27,47.71-41.07,73C692.13,118.19,707,128.92,718.69,120.44Z"/><path class="cls-5" d="M648,136.32s9.36-69.16-30,12.41c7.74,2.06,16.67,4.66,24.26-.86a36.87,36.87,0,0,1,10.44-5.63C649.84,138.6,648,136.32,648,136.32Z"/></g><path class="cls-6" d="M757.43,659.21a98.21,98.21,0,0,1-98.22,98.22H102.63A98.21,98.21,0,0,1,4.41,659.21V102.63A98.22,98.22,0,0,1,102.63,4.41H659.21a98.22,98.22,0,0,1,98.22,98.22Z"/><path class="cls-5" d="M348,539.13V475.82H464V763.39H389.22V539.13Z"/><path class="cls-5" d="M533.38,539.13V475.82H649.32V763.39H574.57V539.13Z"/><path class="cls-1" d="M757.43,659.21a98.21,98.21,0,0,1-98.22,98.22H102.63A98.21,98.21,0,0,1,4.41,659.21V102.63A98.22,98.22,0,0,1,102.63,4.41H659.21a98.22,98.22,0,0,1,98.22,98.22Z"/><g class="cls-7"><path class="cls-8" d="M674.65-9.18H87.2A103.65,103.65,0,0,0-16.46,94.48v255.3c113.17,53.44,247.15,84.36,390.75,84.36,149.33,0,288.1-33.51,404-90.9V94.48A103.66,103.66,0,0,0,674.65-9.18Z"/></g></svg>