<svg xmlns="http://www.w3.org/2000/svg" width="52.634" height="52.634" viewBox="0 0 52.634 52.634"><defs><style>.a{fill:#71a32b;}</style></defs><path class="a" d="M29.141,24.281A6.141,6.141,0,1,0,23,18.141,6.148,6.148,0,0,0,29.141,24.281Zm0-10.527a4.386,4.386,0,1,1-4.386,4.386A4.391,4.391,0,0,1,29.141,13.754Z" transform="translate(-2.823 -1.473)"></path><path class="a" d="M27.469,48.035,40.927,28.6c5.048-6.729,4.318-17.79-1.562-23.67a16.821,16.821,0,0,0-23.791,0c-5.88,5.879-6.61,16.94-1.583,23.643ZM16.814,6.168a15.068,15.068,0,0,1,21.31,0c5.307,5.306,5.961,15.3,1.38,21.4L27.469,44.952,15.415,27.545C10.853,21.464,11.507,11.474,16.814,6.168Z" transform="translate(-1.307 0)"></path><path class="a" d="M36.947,43.006a.877.877,0,0,0-.205,1.742c9.225,1.086,14.138,4.013,14.138,5.708,0,2.381-9.344,5.7-24.563,5.7s-24.563-3.321-24.563-5.7c0-1.7,4.913-4.622,14.138-5.708a.877.877,0,0,0-.205-1.742C6.451,44.094,0,47.157,0,50.456c0,3.705,9.04,7.457,26.317,7.457s26.317-3.751,26.317-7.457C52.634,47.157,46.183,44.094,36.947,43.006Z" transform="translate(0 -5.279)"></path></svg>