<svg xmlns="http://www.w3.org/2000/svg" width="66.765" height="52.181" viewBox="0 0 66.765 52.181"><defs><style>.a{fill:none;stroke:#71a32b;stroke-width:2px;}.b{fill:#71a32b;}</style></defs><g transform="translate(1.214 1)"><path class="a" d="M-1777.357-296.363l-6.089,6.22-2.94,5.8-6.718,5.883,3.7,8.267,12.051,7.88v7.66l17.922,4.986,9.181-4.986,12.045,4.986,3.88-4.986v-11.831l5.776-8.591v-24.558h-48.8Z" transform="translate(1793.104 299.628)"/><g transform="translate(26.547 7.412)"><path class="b" d="M26.762,19.524A3.762,3.762,0,1,0,23,15.762,3.767,3.767,0,0,0,26.762,19.524Zm0-6.449a2.687,2.687,0,1,1-2.687,2.687A2.69,2.69,0,0,1,26.762,13.075Z" transform="translate(-16.36 -5.551)"/><path class="b" d="M20.953,29.429,29.2,17.521c3.092-4.123,2.645-10.9-.957-14.5a10.305,10.305,0,0,0-14.576,0c-3.6,3.6-4.05,10.379-.97,14.485ZM14.425,3.779a9.232,9.232,0,0,1,13.056,0,10.61,10.61,0,0,1,.845,13.113L20.953,27.54,13.568,16.876A10.606,10.606,0,0,1,14.425,3.779Z" transform="translate(-10.646 0)"/></g></g></svg>