<svg xmlns="http://www.w3.org/2000/svg" width="20.318" height="19.781" viewBox="0 0 20.318 19.781">
  <path id="download-arrow" d="M14.628,10.407a.515.515,0,0,0,0-.735.506.506,0,0,0-.728,0l-3.727,3.72V1.1A.518.518,0,0,0,9.659.579a.524.524,0,0,0-.522.522V13.392L5.418,9.672a.52.52,0,0,0-.735.735l4.609,4.609a.528.528,0,0,0,.735,0Zm3.653,3.374a.511.511,0,0,1,.515-.515.518.518,0,0,1,.522.515v5.057a.524.524,0,0,1-.522.522H.515A.518.518,0,0,1,0,18.839V13.781a.511.511,0,0,1,.515-.515.518.518,0,0,1,.522.515v4.543H18.281Z" transform="translate(0.5 -0.079)" fill="#000" stroke="#000" stroke-width="1"/>
</svg>
