<svg xmlns="http://www.w3.org/2000/svg" width="60" height="60" viewBox="0 0 60 60"><defs><style>.a,.d{fill:none;}.a{stroke:#fff;}.b{fill:#fff;}.c{stroke:none;}</style></defs><g transform="translate(0)"><g class="a"><circle class="c" cx="30" cy="30" r="30"/><circle class="d" cx="30" cy="30" r="29.5"/></g><g transform="translate(14.855 18)"><path class="b" d="M27.658,61H2.665A2.67,2.67,0,0,0,0,63.665V81.433A2.669,2.669,0,0,0,2.665,84.1H27.658a2.669,2.669,0,0,0,2.665-2.665V63.665A2.669,2.669,0,0,0,27.658,61Zm-.368,1.777L15.218,74.849,3.042,62.777ZM1.777,81.065V64.025l8.557,8.483Zm1.256,1.256L11.6,73.759l3,2.974a.888.888,0,0,0,1.254,0l2.925-2.925,8.516,8.516Zm25.514-1.256-8.516-8.516,8.516-8.516Z" transform="translate(0 -61)"/></g></g></svg>