<svg xmlns="http://www.w3.org/2000/svg" width="18.747" height="34.676" viewBox="0 0 18.747 34.676">
  <g id="_002-facebook-logo" data-name="002-facebook-logo" transform="translate(-22.077)">
    <path id="Path_60" data-name="Path 60" d="M40.119.007,35.622,0c-5.052,0-8.317,3.35-8.317,8.534v3.935H22.784a.707.707,0,0,0-.707.707v5.7a.707.707,0,0,0,.707.707h4.521V33.969a.707.707,0,0,0,.707.707h5.9a.707.707,0,0,0,.707-.707V19.584H39.9a.707.707,0,0,0,.707-.707l0-5.7a.708.708,0,0,0-.707-.707H34.618V9.133c0-1.6.382-2.417,2.47-2.417h3.029a.707.707,0,0,0,.707-.707V.714A.707.707,0,0,0,40.119.007Z" transform="translate(0)" fill="#fff"></path>
  </g>
</svg>
