<svg xmlns="http://www.w3.org/2000/svg" width="41" height="41" viewBox="0 0 41 41"><defs><style>.a{fill:#71a32b;}.b,.d{fill:none;}.b{stroke:#71a32b;stroke-width:1.5px;}.c{stroke:none;}</style></defs><g transform="translate(-940 -965)"><g transform="translate(954.724 974.852)"><path class="a" d="M32.176,0,29.659,0A4.42,4.42,0,0,0,25,4.777v2.2H22.473a.4.4,0,0,0-.4.4v3.191a.4.4,0,0,0,.4.4H25v8.052a.4.4,0,0,0,.4.4h3.3a.4.4,0,0,0,.4-.4V10.962h2.959a.4.4,0,0,0,.4-.4V7.375a.4.4,0,0,0-.4-.4H29.1V5.112c0-.9.214-1.353,1.383-1.353h1.7a.4.4,0,0,0,.4-.4V.4A.4.4,0,0,0,32.176,0Z" transform="translate(-22.077)"/></g><g class="b" transform="translate(940 965)"><circle class="c" cx="20.5" cy="20.5" r="20.5"/><circle class="d" cx="20.5" cy="20.5" r="19.75"/></g></g></svg>