<svg xmlns="http://www.w3.org/2000/svg" width="114.737" height="90.999" viewBox="0 0 114.737 90.999"><defs><style>.a{fill:#fff;}</style></defs><g transform="translate(0 -6)"><path class="a" d="M112.759,6H1.978A1.978,1.978,0,0,0,0,7.978V95.02A1.978,1.978,0,0,0,1.978,97H112.759a1.978,1.978,0,0,0,1.978-1.978V7.978A1.978,1.978,0,0,0,112.759,6Zm-1.978,87.042H3.956V9.956H110.781Z"></path><path class="a" d="M21.448,39.034A11.017,11.017,0,1,0,10.431,28.017,11.028,11.028,0,0,0,21.448,39.034Zm0-18.077a7.06,7.06,0,1,1-7.06,7.062A7.069,7.069,0,0,1,21.448,20.956Z" transform="translate(10.204 10.761)"></path><path class="a" d="M7.979,68.5a1.973,1.973,0,0,0,1.306-.493L41.555,39.595l20.38,20.378a1.978,1.978,0,1,0,2.8-2.8l-9.509-9.509L73.385,27.777,95.662,48.2a1.978,1.978,0,0,0,2.673-2.918L74.6,23.52A2.04,2.04,0,0,0,73.171,23a1.982,1.982,0,0,0-1.373.643L52.424,44.865l-9.383-9.383a1.98,1.98,0,0,0-2.706-.087L6.671,65.035A1.978,1.978,0,0,0,7.979,68.5Z" transform="translate(5.869 16.631)"></path></g></svg>