<svg xmlns="http://www.w3.org/2000/svg" width="361.572" height="367.28" viewBox="0 0 361.572 367.28">
  <g id="key" transform="translate(-3.978)" opacity="0.4">
    <g id="Group_6" data-name="Group 6" transform="translate(3.978)">
      <g id="Group_5" data-name="Group 5">
        <path id="Path_57" data-name="Path 57" d="M241.416,0A124.214,124.214,0,0,0,125.322,168.183L6.628,286.886a9.048,9.048,0,0,0-2.65,6.4v64.951a9.046,9.046,0,0,0,9.046,9.046H66.55a9.045,9.045,0,0,0,6.392-2.644l18.038-18.01a9.046,9.046,0,0,0,2.655-6.4V318.074h22.121a9.046,9.046,0,0,0,9.046-9.046v-8.866h8.867a9.047,9.047,0,0,0,9.046-9.046V271.649H162.18a9.048,9.048,0,0,0,6.4-2.65l28.781-28.781A124.147,124.147,0,1,0,241.416,0Zm0,230.177a105.236,105.236,0,0,1-42.566-8.89,9.046,9.046,0,0,0-9.95,1.811c-.028.027-.055.048-.082.076l-30.382,30.382H133.669a9.046,9.046,0,0,0-9.046,9.046v19.466h-8.867a9.047,9.047,0,0,0-9.046,9.046v8.866H84.588a9.047,9.047,0,0,0-9.046,9.046v27.443L62.807,349.186H22.072V336.4L132.644,225.831a8.142,8.142,0,0,0-11.515-11.514L22.072,313.374V297.03l120.3-120.3c.027-.027.048-.052.073-.079a9.045,9.045,0,0,0,1.815-9.951,106.063,106.063,0,1,1,97.16,63.481Z" transform="translate(-3.978)" fill="#909090"/>
      </g>
    </g>
    <g id="Group_8" data-name="Group 8" transform="translate(245.309 52.469)">
      <g id="Group_7" data-name="Group 7">
        <path id="Path_58" data-name="Path 58" d="M374.286,73.144a33.885,33.885,0,1,0,33.885,33.885A33.923,33.923,0,0,0,374.286,73.144Zm0,49.677a15.792,15.792,0,1,1,15.792-15.792A15.81,15.81,0,0,1,374.286,122.821Z" transform="translate(-340.401 -73.144)" fill="#909090"/>
      </g>
    </g>
  </g>
</svg>
