<svg xmlns="http://www.w3.org/2000/svg" width="41" height="41" viewBox="0 0 41 41"><defs><style>.a{fill:#71a32b;}.b,.d{fill:none;}.b{stroke:#71a32b;stroke-width:1.5px;}.c{stroke:none;}</style></defs><g transform="translate(-987 -965)"><g transform="translate(998.308 973.852)"><path class="a" d="M20.269,21.433v7.494H15.925V21.935c0-1.756-.628-2.955-2.2-2.955a2.377,2.377,0,0,0-2.229,1.589,2.973,2.973,0,0,0-.144,1.059v7.3H7.005s.059-11.842,0-13.069H11.35V17.71c-.009.014-.02.029-.029.042h.029V17.71a4.315,4.315,0,0,1,3.916-2.159C18.126,15.551,20.269,17.419,20.269,21.433ZM2.459,9.558A2.265,2.265,0,1,0,2.4,14.075H2.43a2.265,2.265,0,1,0,.029-4.517ZM.258,28.926H4.6V15.858H.258Z" transform="translate(0 -9.558)"></path></g><g class="b" transform="translate(987 965)"><circle class="c" cx="20.5" cy="20.5" r="20.5"></path><circle class="d" cx="20.5" cy="20.5" r="19.75"></path></g></g></svg>