<svg xmlns="http://www.w3.org/2000/svg" xmlns:xlink="http://www.w3.org/1999/xlink" width="60" height="60" viewBox="0 0 60 60"><defs><style>.a,.c{fill:none;}.b{clip-path:url(#a);}.c{stroke:#fff;}.d{fill:#fff;}.e{stroke:none;}</style><clipPath id="a"><rect class="a" width="60" height="60"/></clipPath></defs><g class="b" transform="translate(0)"><g class="c"><circle class="e" cx="30" cy="30" r="30"/><circle class="a" cx="30" cy="30" r="29.5"/></g><g transform="translate(17 15)"><path class="d" d="M27,26.449v9.98H21.211V27.113c0-2.342-.835-3.934-2.93-3.934a3.17,3.17,0,0,0-2.969,2.115,4,4,0,0,0-.2,1.413v9.721H9.331s.078-15.772,0-17.406h5.785v2.467c-.008.02-.025.037-.033.06h.033v-.06a5.749,5.749,0,0,1,5.217-2.876C24.148,18.613,27,21.1,27,26.449ZM3.275,10.629A3.018,3.018,0,1,0,3.2,16.648h.035a3.019,3.019,0,1,0,.039-6.019ZM.345,36.429H6.131V19.02H.345Z" transform="translate(0 -10.629)"/></g></g></svg>