<svg xmlns="http://www.w3.org/2000/svg" width="36.809" height="35.173" viewBox="0 0 36.809 35.173">
  <g id="_003-linkedin-logo" data-name="003-linkedin-logo" transform="translate(0 -9.558)">
    <path id="LinkedIn" d="M36.809,31.122V44.731H28.919v-12.7c0-3.19-1.141-5.366-4-5.366a4.317,4.317,0,0,0-4.048,2.886,5.4,5.4,0,0,0-.262,1.924V44.731H12.721s.106-21.5,0-23.733h7.891v3.364c-.016.025-.037.052-.052.077h.052v-.077a7.835,7.835,0,0,1,7.112-3.922C32.916,20.441,36.809,23.833,36.809,31.122ZM4.466,9.558c-2.7,0-4.466,1.771-4.466,4.1a4.088,4.088,0,0,0,4.361,4.1h.053a4.114,4.114,0,1,0,.052-8.2Zm-4,35.173H8.358V21H.469Z" fill="#fff"/>
  </g>
</svg>
