<svg xmlns="http://www.w3.org/2000/svg" width="13.74" height="19.542" viewBox="0 0 13.74 19.542"><defs><style>.a{fill:#72a32c;}</style></defs><g transform="translate(-76)"><g transform="translate(76)"><path class="a" d="M82.87,0a6.871,6.871,0,0,0-5.845,10.483l5.454,8.788a.573.573,0,0,0,.486.271h0a.572.572,0,0,0,.487-.278l5.315-8.873A6.872,6.872,0,0,0,82.87,0Zm4.918,9.8-4.832,8.067L78,9.879a5.729,5.729,0,1,1,9.79-.077Z" transform="translate(-76)"></path></g><g transform="translate(79.435 3.435)"><path class="a" d="M169.435,90a3.435,3.435,0,1,0,3.435,3.435A3.439,3.439,0,0,0,169.435,90Zm0,5.733a2.3,2.3,0,1,1,2.294-2.3A2.3,2.3,0,0,1,169.435,95.733Z" transform="translate(-166 -90)"></path></g></g></svg>