<svg viewBox="0 0 26 28" version="1.1" xmlns="http://www.w3.org/2000/svg" xmlns:xlink="http://www.w3.org/1999/xlink">
    <g id="Page-1" stroke="none" stroke-width="1" fill="none" fill-rule="evenodd">
        <g id="Data-List" transform="translate(-1033.000000, -555.000000)" fill="#71A32B" fill-rule="nonzero">
            <g id="search-(5)" transform="translate(1033.000000, 555.000000)">
                <path d="M25.604687,25.5035635 L19.1952423,18.5726223 C20.8432231,16.5357582 21.7461616,13.9729663 21.7461616,11.3049889 C21.7461616,5.07151634 16.868403,0 10.8730808,0 C4.87775859,0 0,5.07151634 0,11.3049889 C0,17.5384615 4.87775859,22.6099779 10.8730808,22.6099779 C13.1238085,22.6099779 15.2686419,21.9041534 17.1024106,20.5642664 L23.5605479,27.5478004 C23.8304839,27.8392725 24.1935503,28 24.5826174,28 C24.950884,28 25.3002408,27.8540182 25.5654494,27.5885967 C26.1289586,27.0248218 26.1469229,26.0899484 25.604687,25.5035635 Z M10.8730808,2.94912755 C15.3045703,2.94912755 18.9097057,6.69746867 18.9097057,11.3049889 C18.9097057,15.9125092 15.3045703,19.6608503 10.8730808,19.6608503 C6.44159126,19.6608503 2.83645586,15.9125092 2.83645586,11.3049889 C2.83645586,6.69746867 6.44159126,2.94912755 10.8730808,2.94912755 Z" id="Shape"></path>
            </g>
        </g>
    </g>
</svg>