<svg xmlns="http://www.w3.org/2000/svg" width="40.416" height="48.098" viewBox="0 0 40.416 48.098"><defs><style>.a{fill:#fff;}</style></defs><path class="a" d="M57.476,12.385c-.025-1.3-.048-2.525-.048-3.712a1.683,1.683,0,0,0-1.684-1.684c-7.2,0-12.682-2.069-17.251-6.512a1.683,1.683,0,0,0-2.347,0C31.576,4.92,26.1,6.989,18.9,6.989a1.684,1.684,0,0,0-1.684,1.684c0,1.187-.023,2.414-.048,3.713-.231,12.085-.547,28.636,19.6,35.62a1.682,1.682,0,0,0,1.1,0C58.022,41.021,57.706,24.47,57.476,12.385ZM37.319,44.629C20.037,38.351,20.3,24.6,20.53,12.45c.014-.729.027-1.436.037-2.128C27.31,10.037,32.7,7.993,37.319,3.972c4.617,4.021,10.01,6.065,16.753,6.349.009.693.023,1.4.037,2.127C54.341,24.6,54.6,38.35,37.319,44.629Z" transform="translate(-17.112 0)"></path><path class="a" d="M82.976,79.379,74.851,87.5l-3.467-3.467A1.684,1.684,0,0,0,69,86.418l4.658,4.658a1.684,1.684,0,0,0,2.381,0l9.316-9.316a1.683,1.683,0,1,0-2.381-2.381Z" transform="translate(-56.972 -61.178)"></path></svg>