<svg width="17px" height="14px" viewBox="0 0 17 14" version="1.1" xmlns="http://www.w3.org/2000/svg" xmlns:xlink="http://www.w3.org/1999/xlink">
    <g id="Page-1" stroke="none" stroke-width="1" fill="none" fill-rule="evenodd">
        <g id="Coral_Reff_Funding_Landscape_2" transform="translate(-250.000000, -670.000000)" fill-rule="nonzero" fill="#71A32B">
            <g id="Filter-drop-down" transform="translate(222.000000, 544.000000)">
                <g id="checked" transform="translate(28.000000, 126.000000)">
                    <path d="M0.196153846,7.19230769 C0.0653846154,7.06153846 0,6.86538462 0,6.73461538 C0,6.60384615 0.0653846154,6.40769231 0.196153846,6.27692308 L1.11153846,5.36153846 C1.37307692,5.1 1.76538462,5.1 2.02692308,5.36153846 L2.09230769,5.42692308 L5.68846154,9.28461538 C5.81923077,9.41538462 6.01538462,9.41538462 6.14615385,9.28461538 L14.9076923,0.196153846 L14.9730769,0.196153846 L14.9730769,0.196153846 C15.2346154,-0.0653846154 15.6269231,-0.0653846154 15.8884615,0.196153846 L16.8038462,1.11153846 C17.0653846,1.37307692 17.0653846,1.76538462 16.8038462,2.02692308 L16.8038462,2.02692308 L6.34230769,12.8807692 C6.21153846,13.0115385 6.08076923,13.0769231 5.88461538,13.0769231 C5.68846154,13.0769231 5.55769231,13.0115385 5.42692308,12.8807692 L0.326923077,7.38846154 L0.196153846,7.19230769 Z" id="Shape"></path>
                </g>
            </g>
        </g>
    </g>
</svg>