<svg xmlns="http://www.w3.org/2000/svg" width="29.422" height="24.474" viewBox="0 0 29.422 24.474">
  <path id="_001-twitter" data-name="001-twitter" d="M28.955,37.338a11.651,11.651,0,0,1-2.029.684,6.325,6.325,0,0,0,1.67-2.659h0a.332.332,0,0,0-.485-.386h0a11.706,11.706,0,0,1-3.1,1.281.79.79,0,0,1-.194.024.822.822,0,0,1-.543-.207,6.343,6.343,0,0,0-4.2-1.584,6.782,6.782,0,0,0-2.01.31,6.145,6.145,0,0,0-4.142,4.428,6.767,6.767,0,0,0-.15,2.336.227.227,0,0,1-.057.178.235.235,0,0,1-.175.079h-.023A16.633,16.633,0,0,1,2.087,35.713h0a.332.332,0,0,0-.544.043h0a6.35,6.35,0,0,0,1.032,7.71,5.684,5.684,0,0,1-1.447-.56h0a.332.332,0,0,0-.493.286h0a6.351,6.351,0,0,0,3.7,5.851l-.135,0a5.708,5.708,0,0,1-1.069-.1h0a.332.332,0,0,0-.378.427h0A6.357,6.357,0,0,0,7.78,53.694a11.7,11.7,0,0,1-6.556,1.991H.491a.486.486,0,0,0-.475.366.5.5,0,0,0,.241.555A17.41,17.41,0,0,0,9,58.965a17.649,17.649,0,0,0,7.476-1.586,16.509,16.509,0,0,0,5.47-4.1A17.971,17.971,0,0,0,25.3,47.67a17.721,17.721,0,0,0,1.138-6.14v-.1a1.079,1.079,0,0,1,.4-.84,12.537,12.537,0,0,0,2.522-2.768h0a.332.332,0,0,0-.41-.487Z" transform="translate(0 -34.491)" fill="#fff"></path>
</svg>
