<svg xmlns="http://www.w3.org/2000/svg" width="41" height="41" viewBox="0 0 41 41"><defs><style>.a{fill:#71a32b;}.b,.d{fill:none;}.b{stroke:#71a32b;stroke-width:1.5px;}.c{stroke:none;}</style></defs><g transform="translate(-891 -965)"><path class="a" d="M17.82,36.243a7.17,7.17,0,0,1-1.249.421A3.893,3.893,0,0,0,17.6,35.028h0a.2.2,0,0,0-.3-.238h0a7.2,7.2,0,0,1-1.909.789.487.487,0,0,1-.119.015.506.506,0,0,1-.334-.128,3.9,3.9,0,0,0-2.583-.975,4.174,4.174,0,0,0-1.237.191A3.782,3.782,0,0,0,8.57,37.407a4.164,4.164,0,0,0-.093,1.437.14.14,0,0,1-.035.11A.145.145,0,0,1,8.334,39H8.32a10.236,10.236,0,0,1-7.036-3.759h0a.2.2,0,0,0-.335.026h0a3.908,3.908,0,0,0,.635,4.745,3.5,3.5,0,0,1-.89-.345h0a.2.2,0,0,0-.3.176h0a3.909,3.909,0,0,0,2.28,3.6H2.588a3.513,3.513,0,0,1-.658-.063h0a.2.2,0,0,0-.233.263h0a3.913,3.913,0,0,0,3.09,2.661A7.2,7.2,0,0,1,.754,47.535H.3a.3.3,0,0,0-.292.225.309.309,0,0,0,.148.342,10.715,10.715,0,0,0,5.384,1.452,10.862,10.862,0,0,0,4.6-.976,10.161,10.161,0,0,0,3.367-2.523A11.06,11.06,0,0,0,15.571,42.6a10.906,10.906,0,0,0,.7-3.779v-.059a.664.664,0,0,1,.249-.517,7.716,7.716,0,0,0,1.552-1.7h0a.2.2,0,0,0-.252-.3Z" transform="translate(903.444 943.577)"/><g class="b" transform="translate(891 965)"><circle class="c" cx="20.5" cy="20.5" r="20.5"/><circle class="d" cx="20.5" cy="20.5" r="19.75"/></g></g></svg>