<svg xmlns="http://www.w3.org/2000/svg" xmlns:xlink="http://www.w3.org/1999/xlink" width="60" height="60" viewBox="0 0 60 60"><defs><style>.a,.c{fill:none;}.b{clip-path:url(#a);}.c,.d{stroke:#fff;}.d{fill:#fff;}</style><clipPath id="a"><rect class="a" width="60" height="60"/></clipPath></defs><g class="b"><circle class="a" cx="30" cy="30" r="30"/><g transform="translate(1 0)"><circle class="c" cx="29.5" cy="29.5" r="29.5"/><g transform="translate(15.637 20.022)"><path class="d" d="M54.926,36.9a12.208,12.208,0,0,1-3.514.962A6.135,6.135,0,0,0,54.1,34.475a12.249,12.249,0,0,1-3.885,1.484,6.124,6.124,0,0,0-10.427,5.582,17.369,17.369,0,0,1-12.612-6.394,6.125,6.125,0,0,0,1.893,8.169A6.076,6.076,0,0,1,26.3,42.55c0,.026,0,.052,0,.078a6.122,6.122,0,0,0,4.909,6,6.142,6.142,0,0,1-2.763.106,6.125,6.125,0,0,0,5.716,4.249A12.352,12.352,0,0,1,25.1,55.516a17.307,17.307,0,0,0,9.379,2.749c11.254,0,17.409-9.323,17.409-17.41,0-.265-.006-.529-.018-.791A12.408,12.408,0,0,0,54.926,36.9Z" transform="translate(-25.103 -34.028)"/></g></g></g></svg>