<svg xmlns="http://www.w3.org/2000/svg" width="21.958" height="18.821" viewBox="0 0 21.958 18.821"><defs><style>.a{fill:#fa3232;}</style></defs><g transform="translate(-10 -12)"><path class="a" d="M29.605,30.821H12.353A2.356,2.356,0,0,1,10,28.469a2.235,2.235,0,0,1,.369-1.253l8.608-14.086a2.34,2.34,0,0,1,4.012.013l8.619,14.1a2.191,2.191,0,0,1,.351,1.223,2.356,2.356,0,0,1-2.353,2.353ZM20.979,13.568a.759.759,0,0,0-.656.365L11.689,28.062a.7.7,0,0,0-.121.406.787.787,0,0,0,.784.784H29.605a.787.787,0,0,0,.784-.784.664.664,0,0,0-.1-.376L21.642,13.946a.766.766,0,0,0-.663-.378Z" transform="translate(0 0)"/><path class="a" d="M17.284,22.842a.785.785,0,0,1-.784-.784V15.784a.784.784,0,0,1,1.568,0v6.274A.785.785,0,0,1,17.284,22.842Z" transform="translate(3.695 1.705)"/><circle class="a" cx="0.784" cy="0.784" r="0.784" transform="translate(20.195 26.116)"/></g></svg>