<svg xmlns="http://www.w3.org/2000/svg" width="59.406" height="59.393" viewBox="0 0 59.406 59.393"><defs><style>.a{fill:#71a32b;}</style></defs><path class="a" d="M29.713.05a29.7,29.7,0,0,0-27.3,18.008l-.37.123.144.431A29.695,29.695,0,1,0,29.713.05ZM53.007,44.719,51.482,43.2v-3.55a.989.989,0,0,0-.1-.442l-3.861-7.71V27.767a.99.99,0,0,0-.441-.824l-2.97-1.98a.99.99,0,0,0-.792-.137l-3.637.909-6.109-2.621-.84-5.888L35.064,14.9h5l1.683,2.529a.99.99,0,0,0,.661.427l5.939.99a.982.982,0,0,0,.475-.038l5.47-1.823A27.618,27.618,0,0,1,53.007,44.719ZM48.924,9.8l-1.61,1.073-4.487-.9L39.916,9.01a.972.972,0,0,0-.552-.022l-3.68.92L34.07,9.371l1.2-2.392h3.348a.99.99,0,0,0,.442-.1l3.425-1.713A27.819,27.819,0,0,1,48.924,9.8ZM18.862,4.24l2.376,1.584a.989.989,0,0,0,.387.152l4.8.8-.468,1.4-2.5.834a.99.99,0,0,0-.536.429l-2.843,4.738-4.566,2.74-6.731.961a.99.99,0,0,0-.851.979v2.97a.99.99,0,0,0,.29.7l1.69,1.69v1.7L5.789,23.172,4.3,18.691A27.876,27.876,0,0,1,18.862,4.24ZM16.044,36.7l-4.474-.9L9.907,32.483V30.156L13.6,26.468,14.96,29.2a.99.99,0,0,0,.886.547h6.369L24.9,34.216a.99.99,0,0,0,.848.48H28.5L27.8,38.168l-3.748,3.748a.99.99,0,0,0-.291.7V45.09L20.2,47.763a.99.99,0,0,0-.4.792V52.13l-1.231-.408-1.738-4.348V37.666A.99.99,0,0,0,16.044,36.7ZM13.069,51.913A27.71,27.71,0,0,1,3.2,21.653l.823,2.467a.989.989,0,0,0,.389.511L9.343,27.92,8.217,29.047a.99.99,0,0,0-.29.7v2.97a.99.99,0,0,0,.1.442l1.98,3.96a.99.99,0,0,0,.693.528l4.158.831v9.088a.99.99,0,0,0,.07.367l1.98,4.949a.99.99,0,0,0,.607.571l2.97.99a.973.973,0,0,0,.308.051.99.99,0,0,0,.99-.99V49.05l3.564-2.673a.99.99,0,0,0,.4-.792v-2.56l3.67-3.67a.991.991,0,0,0,.27-.506l.99-4.949a.99.99,0,0,0-.97-1.184h-3.4l-2.682-4.469a.99.99,0,0,0-.848-.48H16.458l-1.7-3.412a.99.99,0,0,0-.728-.535.97.97,0,0,0-.858.277l-1.285,1.28v-1.57a.99.99,0,0,0-.29-.7l-1.69-1.69v-1.7l6.08-.868a1,1,0,0,0,.369-.132l4.949-2.97a.989.989,0,0,0,.339-.339l2.782-4.636L27.048,9.9a.98.98,0,0,0,.626-.626l.99-2.97a.99.99,0,0,0-.776-1.287L22.158,4.06l-1.007-.671A27.641,27.641,0,0,1,40.189,4.1L38.38,5H34.654a.99.99,0,0,0-.891.547l-1.98,3.96a.99.99,0,0,0,.573,1.381l2.97.99a.972.972,0,0,0,.552.022l3.68-.92,2.7.9a.728.728,0,0,0,.119.032l4.949.99a.983.983,0,0,0,.743-.147l2.253-1.5A27.925,27.925,0,0,1,53.3,15.228l-4.87,1.623-5.273-.879-1.742-2.613a.99.99,0,0,0-.819-.441H34.654a.99.99,0,0,0-.7.29l-2.97,2.97a.99.99,0,0,0-.28.84l.99,6.929a.99.99,0,0,0,.594.769l6.929,2.97a.978.978,0,0,0,.63.05l3.535-.884L45.543,28.3v3.43a.989.989,0,0,0,.1.442l3.861,7.71v3.726a.99.99,0,0,0,.29.7l2.071,2.072A27.71,27.71,0,0,1,13.069,51.913Z" transform="translate(0 -0.05)"/></svg>